<?xml version="1.0" encoding="utf-8"?>
<svg xmlns="http://www.w3.org/2000/svg" xmlns:xlink="http://www.w3.org/1999/xlink" width="600" height="400" viewBox="0 0 2400 1600">
<defs>
  <clipPath id="clip810">
    <rect x="0" y="0" width="2400" height="1600"/>
  </clipPath>
</defs>
<path clip-path="url(#clip810)" d="M0 1600 L2400 1600 L2400 0 L0 0  Z" fill="#ffffff" fill-rule="evenodd" fill-opacity="1"/>
<defs>
  <clipPath id="clip811">
    <rect x="480" y="0" width="1681" height="1600"/>
  </clipPath>
</defs>
<path clip-path="url(#clip810)" d="M194.422 1486.45 L2352.76 1486.45 L2352.76 123.472 L194.422 123.472  Z" fill="#ffffff" fill-rule="evenodd" fill-opacity="1"/>
<defs>
  <clipPath id="clip812">
    <rect x="194" y="123" width="2159" height="1364"/>
  </clipPath>
</defs>
<polyline clip-path="url(#clip812)" style="stroke:#000000; stroke-linecap:round; stroke-linejoin:round; stroke-width:2; stroke-opacity:0.1; fill:none" points="254.915,1486.45 254.915,123.472 "/>
<polyline clip-path="url(#clip812)" style="stroke:#000000; stroke-linecap:round; stroke-linejoin:round; stroke-width:2; stroke-opacity:0.1; fill:none" points="784.471,1486.45 784.471,123.472 "/>
<polyline clip-path="url(#clip812)" style="stroke:#000000; stroke-linecap:round; stroke-linejoin:round; stroke-width:2; stroke-opacity:0.1; fill:none" points="1314.03,1486.45 1314.03,123.472 "/>
<polyline clip-path="url(#clip812)" style="stroke:#000000; stroke-linecap:round; stroke-linejoin:round; stroke-width:2; stroke-opacity:0.1; fill:none" points="1843.58,1486.45 1843.58,123.472 "/>
<polyline clip-path="url(#clip810)" style="stroke:#000000; stroke-linecap:round; stroke-linejoin:round; stroke-width:4; stroke-opacity:1; fill:none" points="194.422,1486.45 2352.76,1486.45 "/>
<polyline clip-path="url(#clip810)" style="stroke:#000000; stroke-linecap:round; stroke-linejoin:round; stroke-width:4; stroke-opacity:1; fill:none" points="254.915,1486.45 254.915,1467.55 "/>
<polyline clip-path="url(#clip810)" style="stroke:#000000; stroke-linecap:round; stroke-linejoin:round; stroke-width:4; stroke-opacity:1; fill:none" points="784.471,1486.45 784.471,1467.55 "/>
<polyline clip-path="url(#clip810)" style="stroke:#000000; stroke-linecap:round; stroke-linejoin:round; stroke-width:4; stroke-opacity:1; fill:none" points="1314.03,1486.45 1314.03,1467.55 "/>
<polyline clip-path="url(#clip810)" style="stroke:#000000; stroke-linecap:round; stroke-linejoin:round; stroke-width:4; stroke-opacity:1; fill:none" points="1843.58,1486.45 1843.58,1467.55 "/>
<path clip-path="url(#clip810)" d="M201.443 1532.02 L231.119 1532.02 L231.119 1535.95 L201.443 1535.95 L201.443 1532.02 Z" fill="#000000" fill-rule="nonzero" fill-opacity="1" /><path clip-path="url(#clip810)" d="M242.021 1544.91 L249.66 1544.91 L249.66 1518.55 L241.35 1520.21 L241.35 1515.95 L249.614 1514.29 L254.29 1514.29 L254.29 1544.91 L261.929 1544.91 L261.929 1548.85 L242.021 1548.85 L242.021 1544.91 Z" fill="#000000" fill-rule="nonzero" fill-opacity="1" /><path clip-path="url(#clip810)" d="M271.373 1542.97 L276.257 1542.97 L276.257 1548.85 L271.373 1548.85 L271.373 1542.97 Z" fill="#000000" fill-rule="nonzero" fill-opacity="1" /><path clip-path="url(#clip810)" d="M296.442 1517.37 Q292.831 1517.37 291.003 1520.93 Q289.197 1524.47 289.197 1531.6 Q289.197 1538.71 291.003 1542.27 Q292.831 1545.82 296.442 1545.82 Q300.077 1545.82 301.882 1542.27 Q303.711 1538.71 303.711 1531.6 Q303.711 1524.47 301.882 1520.93 Q300.077 1517.37 296.442 1517.37 M296.442 1513.66 Q302.253 1513.66 305.308 1518.27 Q308.387 1522.85 308.387 1531.6 Q308.387 1540.33 305.308 1544.94 Q302.253 1549.52 296.442 1549.52 Q290.632 1549.52 287.554 1544.94 Q284.498 1540.33 284.498 1531.6 Q284.498 1522.85 287.554 1518.27 Q290.632 1513.66 296.442 1513.66 Z" fill="#000000" fill-rule="nonzero" fill-opacity="1" /><path clip-path="url(#clip810)" d="M731.497 1532.02 L761.173 1532.02 L761.173 1535.95 L731.497 1535.95 L731.497 1532.02 Z" fill="#000000" fill-rule="nonzero" fill-opacity="1" /><path clip-path="url(#clip810)" d="M781.265 1517.37 Q777.654 1517.37 775.826 1520.93 Q774.02 1524.47 774.02 1531.6 Q774.02 1538.71 775.826 1542.27 Q777.654 1545.82 781.265 1545.82 Q784.9 1545.82 786.705 1542.27 Q788.534 1538.71 788.534 1531.6 Q788.534 1524.47 786.705 1520.93 Q784.9 1517.37 781.265 1517.37 M781.265 1513.66 Q787.076 1513.66 790.131 1518.27 Q793.21 1522.85 793.21 1531.6 Q793.21 1540.33 790.131 1544.94 Q787.076 1549.52 781.265 1549.52 Q775.455 1549.52 772.377 1544.94 Q769.321 1540.33 769.321 1531.6 Q769.321 1522.85 772.377 1518.27 Q775.455 1513.66 781.265 1513.66 Z" fill="#000000" fill-rule="nonzero" fill-opacity="1" /><path clip-path="url(#clip810)" d="M801.427 1542.97 L806.312 1542.97 L806.312 1548.85 L801.427 1548.85 L801.427 1542.97 Z" fill="#000000" fill-rule="nonzero" fill-opacity="1" /><path clip-path="url(#clip810)" d="M816.543 1514.29 L834.899 1514.29 L834.899 1518.22 L820.825 1518.22 L820.825 1526.7 Q821.844 1526.35 822.862 1526.19 Q823.881 1526 824.899 1526 Q830.686 1526 834.066 1529.17 Q837.446 1532.34 837.446 1537.76 Q837.446 1543.34 833.973 1546.44 Q830.501 1549.52 824.182 1549.52 Q822.006 1549.52 819.737 1549.15 Q817.492 1548.78 815.085 1548.04 L815.085 1543.34 Q817.168 1544.47 819.39 1545.03 Q821.612 1545.58 824.089 1545.58 Q828.094 1545.58 830.432 1543.48 Q832.77 1541.37 832.77 1537.76 Q832.77 1534.15 830.432 1532.04 Q828.094 1529.94 824.089 1529.94 Q822.214 1529.94 820.339 1530.35 Q818.487 1530.77 816.543 1531.65 L816.543 1514.29 Z" fill="#000000" fill-rule="nonzero" fill-opacity="1" /><path clip-path="url(#clip810)" d="M1291.41 1517.37 Q1287.8 1517.37 1285.97 1520.93 Q1284.17 1524.47 1284.17 1531.6 Q1284.17 1538.71 1285.97 1542.27 Q1287.8 1545.82 1291.41 1545.82 Q1295.05 1545.82 1296.85 1542.27 Q1298.68 1538.71 1298.68 1531.6 Q1298.68 1524.47 1296.85 1520.93 Q1295.05 1517.37 1291.41 1517.37 M1291.41 1513.66 Q1297.22 1513.66 1300.28 1518.27 Q1303.36 1522.85 1303.36 1531.6 Q1303.36 1540.33 1300.28 1544.94 Q1297.22 1549.52 1291.41 1549.52 Q1285.6 1549.52 1282.52 1544.94 Q1279.47 1540.33 1279.47 1531.6 Q1279.47 1522.85 1282.52 1518.27 Q1285.6 1513.66 1291.41 1513.66 Z" fill="#000000" fill-rule="nonzero" fill-opacity="1" /><path clip-path="url(#clip810)" d="M1311.57 1542.97 L1316.46 1542.97 L1316.46 1548.85 L1311.57 1548.85 L1311.57 1542.97 Z" fill="#000000" fill-rule="nonzero" fill-opacity="1" /><path clip-path="url(#clip810)" d="M1336.64 1517.37 Q1333.03 1517.37 1331.2 1520.93 Q1329.4 1524.47 1329.4 1531.6 Q1329.4 1538.71 1331.2 1542.27 Q1333.03 1545.82 1336.64 1545.82 Q1340.28 1545.82 1342.08 1542.27 Q1343.91 1538.71 1343.91 1531.6 Q1343.91 1524.47 1342.08 1520.93 Q1340.28 1517.37 1336.64 1517.37 M1336.64 1513.66 Q1342.45 1513.66 1345.51 1518.27 Q1348.59 1522.85 1348.59 1531.6 Q1348.59 1540.33 1345.51 1544.94 Q1342.45 1549.52 1336.64 1549.52 Q1330.83 1549.52 1327.75 1544.94 Q1324.7 1540.33 1324.7 1531.6 Q1324.7 1522.85 1327.75 1518.27 Q1330.83 1513.66 1336.64 1513.66 Z" fill="#000000" fill-rule="nonzero" fill-opacity="1" /><path clip-path="url(#clip810)" d="M1821.47 1517.37 Q1817.86 1517.37 1816.03 1520.93 Q1814.22 1524.47 1814.22 1531.6 Q1814.22 1538.71 1816.03 1542.27 Q1817.86 1545.82 1821.47 1545.82 Q1825.1 1545.82 1826.91 1542.27 Q1828.74 1538.71 1828.74 1531.6 Q1828.74 1524.47 1826.91 1520.93 Q1825.1 1517.37 1821.47 1517.37 M1821.47 1513.66 Q1827.28 1513.66 1830.33 1518.27 Q1833.41 1522.85 1833.41 1531.6 Q1833.41 1540.33 1830.33 1544.94 Q1827.28 1549.52 1821.47 1549.52 Q1815.66 1549.52 1812.58 1544.94 Q1809.52 1540.33 1809.52 1531.6 Q1809.52 1522.85 1812.58 1518.27 Q1815.66 1513.66 1821.47 1513.66 Z" fill="#000000" fill-rule="nonzero" fill-opacity="1" /><path clip-path="url(#clip810)" d="M1841.63 1542.97 L1846.51 1542.97 L1846.51 1548.85 L1841.63 1548.85 L1841.63 1542.97 Z" fill="#000000" fill-rule="nonzero" fill-opacity="1" /><path clip-path="url(#clip810)" d="M1856.74 1514.29 L1875.1 1514.29 L1875.1 1518.22 L1861.03 1518.22 L1861.03 1526.7 Q1862.05 1526.35 1863.06 1526.19 Q1864.08 1526 1865.1 1526 Q1870.89 1526 1874.27 1529.17 Q1877.65 1532.34 1877.65 1537.76 Q1877.65 1543.34 1874.17 1546.44 Q1870.7 1549.52 1864.38 1549.52 Q1862.21 1549.52 1859.94 1549.15 Q1857.69 1548.78 1855.29 1548.04 L1855.29 1543.34 Q1857.37 1544.47 1859.59 1545.03 Q1861.81 1545.58 1864.29 1545.58 Q1868.3 1545.58 1870.63 1543.48 Q1872.97 1541.37 1872.97 1537.76 Q1872.97 1534.15 1870.63 1532.04 Q1868.3 1529.94 1864.29 1529.94 Q1862.42 1529.94 1860.54 1530.35 Q1858.69 1530.77 1856.74 1531.65 L1856.74 1514.29 Z" fill="#000000" fill-rule="nonzero" fill-opacity="1" /><polyline clip-path="url(#clip812)" style="stroke:#000000; stroke-linecap:round; stroke-linejoin:round; stroke-width:2; stroke-opacity:0.1; fill:none" points="194.422,1319.3 2352.76,1319.3 "/>
<polyline clip-path="url(#clip812)" style="stroke:#000000; stroke-linecap:round; stroke-linejoin:round; stroke-width:2; stroke-opacity:0.1; fill:none" points="194.422,1062.13 2352.76,1062.13 "/>
<polyline clip-path="url(#clip812)" style="stroke:#000000; stroke-linecap:round; stroke-linejoin:round; stroke-width:2; stroke-opacity:0.1; fill:none" points="194.422,804.96 2352.76,804.96 "/>
<polyline clip-path="url(#clip812)" style="stroke:#000000; stroke-linecap:round; stroke-linejoin:round; stroke-width:2; stroke-opacity:0.1; fill:none" points="194.422,547.79 2352.76,547.79 "/>
<polyline clip-path="url(#clip812)" style="stroke:#000000; stroke-linecap:round; stroke-linejoin:round; stroke-width:2; stroke-opacity:0.1; fill:none" points="194.422,290.62 2352.76,290.62 "/>
<polyline clip-path="url(#clip810)" style="stroke:#000000; stroke-linecap:round; stroke-linejoin:round; stroke-width:4; stroke-opacity:1; fill:none" points="194.422,1486.45 194.422,123.472 "/>
<polyline clip-path="url(#clip810)" style="stroke:#000000; stroke-linecap:round; stroke-linejoin:round; stroke-width:4; stroke-opacity:1; fill:none" points="194.422,1319.3 213.32,1319.3 "/>
<polyline clip-path="url(#clip810)" style="stroke:#000000; stroke-linecap:round; stroke-linejoin:round; stroke-width:4; stroke-opacity:1; fill:none" points="194.422,1062.13 213.32,1062.13 "/>
<polyline clip-path="url(#clip810)" style="stroke:#000000; stroke-linecap:round; stroke-linejoin:round; stroke-width:4; stroke-opacity:1; fill:none" points="194.422,804.96 213.32,804.96 "/>
<polyline clip-path="url(#clip810)" style="stroke:#000000; stroke-linecap:round; stroke-linejoin:round; stroke-width:4; stroke-opacity:1; fill:none" points="194.422,547.79 213.32,547.79 "/>
<polyline clip-path="url(#clip810)" style="stroke:#000000; stroke-linecap:round; stroke-linejoin:round; stroke-width:4; stroke-opacity:1; fill:none" points="194.422,290.62 213.32,290.62 "/>
<path clip-path="url(#clip810)" d="M50.9921 1319.75 L80.6679 1319.75 L80.6679 1323.69 L50.9921 1323.69 L50.9921 1319.75 Z" fill="#000000" fill-rule="nonzero" fill-opacity="1" /><path clip-path="url(#clip810)" d="M100.76 1305.1 Q97.1493 1305.1 95.3206 1308.66 Q93.515 1312.21 93.515 1319.33 Q93.515 1326.44 95.3206 1330.01 Q97.1493 1333.55 100.76 1333.55 Q104.395 1333.55 106.2 1330.01 Q108.029 1326.44 108.029 1319.33 Q108.029 1312.21 106.2 1308.66 Q104.395 1305.1 100.76 1305.1 M100.76 1301.4 Q106.571 1301.4 109.626 1306 Q112.705 1310.58 112.705 1319.33 Q112.705 1328.06 109.626 1332.67 Q106.571 1337.25 100.76 1337.25 Q94.9502 1337.25 91.8715 1332.67 Q88.816 1328.06 88.816 1319.33 Q88.816 1310.58 91.8715 1306 Q94.9502 1301.4 100.76 1301.4 Z" fill="#000000" fill-rule="nonzero" fill-opacity="1" /><path clip-path="url(#clip810)" d="M120.922 1330.7 L125.807 1330.7 L125.807 1336.58 L120.922 1336.58 L120.922 1330.7 Z" fill="#000000" fill-rule="nonzero" fill-opacity="1" /><path clip-path="url(#clip810)" d="M148.839 1306.09 L137.033 1324.54 L148.839 1324.54 L148.839 1306.09 M147.612 1302.02 L153.492 1302.02 L153.492 1324.54 L158.422 1324.54 L158.422 1328.43 L153.492 1328.43 L153.492 1336.58 L148.839 1336.58 L148.839 1328.43 L133.237 1328.43 L133.237 1323.92 L147.612 1302.02 Z" fill="#000000" fill-rule="nonzero" fill-opacity="1" /><path clip-path="url(#clip810)" d="M53.0754 1062.58 L82.7512 1062.58 L82.7512 1066.52 L53.0754 1066.52 L53.0754 1062.58 Z" fill="#000000" fill-rule="nonzero" fill-opacity="1" /><path clip-path="url(#clip810)" d="M102.844 1047.93 Q99.2326 1047.93 97.4039 1051.49 Q95.5984 1055.04 95.5984 1062.16 Q95.5984 1069.27 97.4039 1072.84 Q99.2326 1076.38 102.844 1076.38 Q106.478 1076.38 108.283 1072.84 Q110.112 1069.27 110.112 1062.16 Q110.112 1055.04 108.283 1051.49 Q106.478 1047.93 102.844 1047.93 M102.844 1044.23 Q108.654 1044.23 111.709 1048.83 Q114.788 1053.41 114.788 1062.16 Q114.788 1070.89 111.709 1075.5 Q108.654 1080.08 102.844 1080.08 Q97.0335 1080.08 93.9549 1075.5 Q90.8993 1070.89 90.8993 1062.16 Q90.8993 1053.41 93.9549 1048.83 Q97.0335 1044.23 102.844 1044.23 Z" fill="#000000" fill-rule="nonzero" fill-opacity="1" /><path clip-path="url(#clip810)" d="M123.006 1073.53 L127.89 1073.53 L127.89 1079.41 L123.006 1079.41 L123.006 1073.53 Z" fill="#000000" fill-rule="nonzero" fill-opacity="1" /><path clip-path="url(#clip810)" d="M142.103 1075.47 L158.422 1075.47 L158.422 1079.41 L136.478 1079.41 L136.478 1075.47 Q139.14 1072.72 143.723 1068.09 Q148.33 1063.44 149.51 1062.1 Q151.755 1059.57 152.635 1057.84 Q153.538 1056.08 153.538 1054.39 Q153.538 1051.63 151.593 1049.9 Q149.672 1048.16 146.57 1048.16 Q144.371 1048.16 141.918 1048.92 Q139.487 1049.69 136.709 1051.24 L136.709 1046.52 Q139.533 1045.38 141.987 1044.8 Q144.441 1044.23 146.478 1044.23 Q151.848 1044.23 155.042 1046.91 Q158.237 1049.6 158.237 1054.09 Q158.237 1056.22 157.427 1058.14 Q156.64 1060.04 154.533 1062.63 Q153.955 1063.3 150.853 1066.52 Q147.751 1069.71 142.103 1075.47 Z" fill="#000000" fill-rule="nonzero" fill-opacity="1" /><path clip-path="url(#clip810)" d="M101.246 790.759 Q97.6354 790.759 95.8067 794.323 Q94.0012 797.865 94.0012 804.995 Q94.0012 812.101 95.8067 815.666 Q97.6354 819.208 101.246 819.208 Q104.881 819.208 106.686 815.666 Q108.515 812.101 108.515 804.995 Q108.515 797.865 106.686 794.323 Q104.881 790.759 101.246 790.759 M101.246 787.055 Q107.057 787.055 110.112 791.661 Q113.191 796.245 113.191 804.995 Q113.191 813.722 110.112 818.328 Q107.057 822.911 101.246 822.911 Q95.4363 822.911 92.3576 818.328 Q89.3021 813.722 89.3021 804.995 Q89.3021 796.245 92.3576 791.661 Q95.4363 787.055 101.246 787.055 Z" fill="#000000" fill-rule="nonzero" fill-opacity="1" /><path clip-path="url(#clip810)" d="M121.408 816.36 L126.293 816.36 L126.293 822.24 L121.408 822.24 L121.408 816.36 Z" fill="#000000" fill-rule="nonzero" fill-opacity="1" /><path clip-path="url(#clip810)" d="M146.478 790.759 Q142.867 790.759 141.038 794.323 Q139.232 797.865 139.232 804.995 Q139.232 812.101 141.038 815.666 Q142.867 819.208 146.478 819.208 Q150.112 819.208 151.918 815.666 Q153.746 812.101 153.746 804.995 Q153.746 797.865 151.918 794.323 Q150.112 790.759 146.478 790.759 M146.478 787.055 Q152.288 787.055 155.343 791.661 Q158.422 796.245 158.422 804.995 Q158.422 813.722 155.343 818.328 Q152.288 822.911 146.478 822.911 Q140.668 822.911 137.589 818.328 Q134.533 813.722 134.533 804.995 Q134.533 796.245 137.589 791.661 Q140.668 787.055 146.478 787.055 Z" fill="#000000" fill-rule="nonzero" fill-opacity="1" /><path clip-path="url(#clip810)" d="M102.844 533.589 Q99.2326 533.589 97.4039 537.153 Q95.5984 540.695 95.5984 547.825 Q95.5984 554.931 97.4039 558.496 Q99.2326 562.038 102.844 562.038 Q106.478 562.038 108.283 558.496 Q110.112 554.931 110.112 547.825 Q110.112 540.695 108.283 537.153 Q106.478 533.589 102.844 533.589 M102.844 529.885 Q108.654 529.885 111.709 534.491 Q114.788 539.075 114.788 547.825 Q114.788 556.551 111.709 561.158 Q108.654 565.741 102.844 565.741 Q97.0335 565.741 93.9549 561.158 Q90.8993 556.551 90.8993 547.825 Q90.8993 539.075 93.9549 534.491 Q97.0335 529.885 102.844 529.885 Z" fill="#000000" fill-rule="nonzero" fill-opacity="1" /><path clip-path="url(#clip810)" d="M123.006 559.19 L127.89 559.19 L127.89 565.07 L123.006 565.07 L123.006 559.19 Z" fill="#000000" fill-rule="nonzero" fill-opacity="1" /><path clip-path="url(#clip810)" d="M142.103 561.135 L158.422 561.135 L158.422 565.07 L136.478 565.07 L136.478 561.135 Q139.14 558.38 143.723 553.751 Q148.33 549.098 149.51 547.755 Q151.755 545.232 152.635 543.496 Q153.538 541.737 153.538 540.047 Q153.538 537.292 151.593 535.556 Q149.672 533.82 146.57 533.82 Q144.371 533.82 141.918 534.584 Q139.487 535.348 136.709 536.899 L136.709 532.177 Q139.533 531.042 141.987 530.464 Q144.441 529.885 146.478 529.885 Q151.848 529.885 155.042 532.57 Q158.237 535.255 158.237 539.746 Q158.237 541.876 157.427 543.797 Q156.64 545.695 154.533 548.288 Q153.955 548.959 150.853 552.176 Q147.751 555.371 142.103 561.135 Z" fill="#000000" fill-rule="nonzero" fill-opacity="1" /><path clip-path="url(#clip810)" d="M100.76 276.418 Q97.1493 276.418 95.3206 279.983 Q93.515 283.525 93.515 290.655 Q93.515 297.761 95.3206 301.326 Q97.1493 304.867 100.76 304.867 Q104.395 304.867 106.2 301.326 Q108.029 297.761 108.029 290.655 Q108.029 283.525 106.2 279.983 Q104.395 276.418 100.76 276.418 M100.76 272.715 Q106.571 272.715 109.626 277.321 Q112.705 281.905 112.705 290.655 Q112.705 299.381 109.626 303.988 Q106.571 308.571 100.76 308.571 Q94.9502 308.571 91.8715 303.988 Q88.816 299.381 88.816 290.655 Q88.816 281.905 91.8715 277.321 Q94.9502 272.715 100.76 272.715 Z" fill="#000000" fill-rule="nonzero" fill-opacity="1" /><path clip-path="url(#clip810)" d="M120.922 302.02 L125.807 302.02 L125.807 307.9 L120.922 307.9 L120.922 302.02 Z" fill="#000000" fill-rule="nonzero" fill-opacity="1" /><path clip-path="url(#clip810)" d="M148.839 277.414 L137.033 295.863 L148.839 295.863 L148.839 277.414 M147.612 273.34 L153.492 273.34 L153.492 295.863 L158.422 295.863 L158.422 299.752 L153.492 299.752 L153.492 307.9 L148.839 307.9 L148.839 299.752 L133.237 299.752 L133.237 295.238 L147.612 273.34 Z" fill="#000000" fill-rule="nonzero" fill-opacity="1" /><path clip-path="url(#clip810)" d="M883.122 63.9476 L883.122 47.7034 L869.754 47.7034 L869.754 40.9789 L891.224 40.9789 L891.224 66.9452 Q886.485 70.3075 880.773 72.0494 Q875.061 73.7508 868.58 73.7508 Q854.401 73.7508 846.381 65.4869 Q838.4 57.1826 838.4 42.3968 Q838.4 27.5705 846.381 19.3066 Q854.401 11.0023 868.58 11.0023 Q874.494 11.0023 879.801 12.4606 Q885.148 13.9189 889.644 16.7545 L889.644 25.464 Q885.107 21.6156 880.003 19.6712 Q874.899 17.7268 869.268 17.7268 Q858.169 17.7268 852.579 23.9246 Q847.029 30.1225 847.029 42.3968 Q847.029 54.6305 852.579 60.8284 Q858.169 67.0263 869.268 67.0263 Q873.603 67.0263 877.005 66.2971 Q880.408 65.5274 883.122 63.9476 Z" fill="#000000" fill-rule="nonzero" fill-opacity="1" /><path clip-path="url(#clip810)" d="M944.656 48.0275 L944.656 51.6733 L910.385 51.6733 Q910.871 59.3701 915.003 63.421 Q919.175 67.4314 926.589 67.4314 Q930.883 67.4314 934.893 66.3781 Q938.944 65.3249 942.914 63.2184 L942.914 70.267 Q938.903 71.9684 934.69 72.8596 Q930.477 73.7508 926.143 73.7508 Q915.287 73.7508 908.927 67.4314 Q902.607 61.1119 902.607 50.3365 Q902.607 39.1965 908.603 32.6746 Q914.638 26.1121 924.847 26.1121 Q934.002 26.1121 939.308 32.0264 Q944.656 37.9003 944.656 48.0275 M937.202 45.84 Q937.121 39.7232 933.759 36.0774 Q930.437 32.4315 924.928 32.4315 Q918.689 32.4315 914.922 35.9558 Q911.195 39.4801 910.628 45.8805 L937.202 45.84 Z" fill="#000000" fill-rule="nonzero" fill-opacity="1" /><path clip-path="url(#clip810)" d="M983.18 34.1734 Q981.924 33.4443 980.425 33.1202 Q978.967 32.7556 977.184 32.7556 Q970.865 32.7556 967.462 36.8875 Q964.1 40.9789 964.1 48.6757 L964.1 72.576 L956.606 72.576 L956.606 27.2059 L964.1 27.2059 L964.1 34.2544 Q966.449 30.1225 970.217 28.1376 Q973.984 26.1121 979.372 26.1121 Q980.142 26.1121 981.073 26.2337 Q982.005 26.3147 983.139 26.5172 L983.18 34.1734 Z" fill="#000000" fill-rule="nonzero" fill-opacity="1" /><path clip-path="url(#clip810)" d="M1006.76 32.4315 Q1000.76 32.4315 997.277 37.1306 Q993.793 41.7891 993.793 49.9314 Q993.793 58.0738 997.236 62.7728 Q1000.72 67.4314 1006.76 67.4314 Q1012.71 67.4314 1016.19 62.7323 Q1019.68 58.0333 1019.68 49.9314 Q1019.68 41.8701 1016.19 37.1711 Q1012.71 32.4315 1006.76 32.4315 M1006.76 26.1121 Q1016.48 26.1121 1022.03 32.4315 Q1027.58 38.7509 1027.58 49.9314 Q1027.58 61.0714 1022.03 67.4314 Q1016.48 73.7508 1006.76 73.7508 Q996.993 73.7508 991.444 67.4314 Q985.934 61.0714 985.934 49.9314 Q985.934 38.7509 991.444 32.4315 Q996.993 26.1121 1006.76 26.1121 Z" fill="#000000" fill-rule="nonzero" fill-opacity="1" /><path clip-path="url(#clip810)" d="M1077.65 45.1919 L1077.65 72.576 L1070.19 72.576 L1070.19 45.4349 Q1070.19 38.994 1067.68 35.7938 Q1065.17 32.5936 1060.15 32.5936 Q1054.11 32.5936 1050.63 36.4419 Q1047.14 40.2903 1047.14 46.9338 L1047.14 72.576 L1039.65 72.576 L1039.65 27.2059 L1047.14 27.2059 L1047.14 34.2544 Q1049.82 30.163 1053.42 28.1376 Q1057.07 26.1121 1061.81 26.1121 Q1069.63 26.1121 1073.64 30.9732 Q1077.65 35.7938 1077.65 45.1919 Z" fill="#000000" fill-rule="nonzero" fill-opacity="1" /><path clip-path="url(#clip810)" d="M1110.09 32.4315 Q1104.1 32.4315 1100.62 37.1306 Q1097.13 41.7891 1097.13 49.9314 Q1097.13 58.0738 1100.57 62.7728 Q1104.06 67.4314 1110.09 67.4314 Q1116.05 67.4314 1119.53 62.7323 Q1123.02 58.0333 1123.02 49.9314 Q1123.02 41.8701 1119.53 37.1711 Q1116.05 32.4315 1110.09 32.4315 M1110.09 26.1121 Q1119.82 26.1121 1125.37 32.4315 Q1130.92 38.7509 1130.92 49.9314 Q1130.92 61.0714 1125.37 67.4314 Q1119.82 73.7508 1110.09 73.7508 Q1100.33 73.7508 1094.78 67.4314 Q1089.27 61.0714 1089.27 49.9314 Q1089.27 38.7509 1094.78 32.4315 Q1100.33 26.1121 1110.09 26.1121 Z" fill="#000000" fill-rule="nonzero" fill-opacity="1" /><path clip-path="url(#clip810)" d="M1137.92 27.2059 L1145.82 27.2059 L1160 65.2844 L1174.18 27.2059 L1182.08 27.2059 L1165.07 72.576 L1154.94 72.576 L1137.92 27.2059 Z" fill="#000000" fill-rule="nonzero" fill-opacity="1" /><path clip-path="url(#clip810)" d="M1212.99 49.7694 Q1203.95 49.7694 1200.47 51.8354 Q1196.99 53.9013 1196.99 58.8839 Q1196.99 62.8538 1199.58 65.2034 Q1202.21 67.5124 1206.71 67.5124 Q1212.91 67.5124 1216.63 63.1374 Q1220.4 58.7219 1220.4 51.4303 L1220.4 49.7694 L1212.99 49.7694 M1227.85 46.6907 L1227.85 72.576 L1220.4 72.576 L1220.4 65.6895 Q1217.85 69.8214 1214.04 71.8063 Q1210.23 73.7508 1204.72 73.7508 Q1197.76 73.7508 1193.62 69.8619 Q1189.53 65.9325 1189.53 59.3701 Q1189.53 51.7138 1194.64 47.825 Q1199.78 43.9361 1209.95 43.9361 L1220.4 43.9361 L1220.4 43.2069 Q1220.4 38.0623 1217 35.2672 Q1213.64 32.4315 1207.52 32.4315 Q1203.63 32.4315 1199.94 33.3632 Q1196.26 34.295 1192.85 36.1584 L1192.85 29.2718 Q1196.95 27.692 1200.79 26.9223 Q1204.64 26.1121 1208.29 26.1121 Q1218.13 26.1121 1222.99 31.2163 Q1227.85 36.3204 1227.85 46.6907 Z" fill="#000000" fill-rule="nonzero" fill-opacity="1" /><path clip-path="url(#clip810)" d="M1269.58 9.54393 L1277.03 9.54393 L1277.03 72.576 L1269.58 72.576 L1269.58 9.54393 Z" fill="#000000" fill-rule="nonzero" fill-opacity="1" /><path clip-path="url(#clip810)" d="M1331.44 48.0275 L1331.44 51.6733 L1297.17 51.6733 Q1297.65 59.3701 1301.78 63.421 Q1305.96 67.4314 1313.37 67.4314 Q1317.66 67.4314 1321.67 66.3781 Q1325.72 65.3249 1329.69 63.2184 L1329.69 70.267 Q1325.68 71.9684 1321.47 72.8596 Q1317.26 73.7508 1312.92 73.7508 Q1302.07 73.7508 1295.71 67.4314 Q1289.39 61.1119 1289.39 50.3365 Q1289.39 39.1965 1295.38 32.6746 Q1301.42 26.1121 1311.63 26.1121 Q1320.78 26.1121 1326.09 32.0264 Q1331.44 37.9003 1331.44 48.0275 M1323.98 45.84 Q1323.9 39.7232 1320.54 36.0774 Q1317.22 32.4315 1311.71 32.4315 Q1305.47 32.4315 1301.7 35.9558 Q1297.98 39.4801 1297.41 45.8805 L1323.98 45.84 Z" fill="#000000" fill-rule="nonzero" fill-opacity="1" /><path clip-path="url(#clip810)" d="M1378.99 35.9153 Q1381.79 30.8922 1385.68 28.5022 Q1389.57 26.1121 1394.83 26.1121 Q1401.92 26.1121 1405.77 31.0947 Q1409.62 36.0368 1409.62 45.1919 L1409.62 72.576 L1402.12 72.576 L1402.12 45.4349 Q1402.12 38.913 1399.82 35.7533 Q1397.51 32.5936 1392.77 32.5936 Q1386.97 32.5936 1383.61 36.4419 Q1380.25 40.2903 1380.25 46.9338 L1380.25 72.576 L1372.76 72.576 L1372.76 45.4349 Q1372.76 38.8725 1370.45 35.7533 Q1368.14 32.5936 1363.32 32.5936 Q1357.6 32.5936 1354.24 36.4824 Q1350.88 40.3308 1350.88 46.9338 L1350.88 72.576 L1343.39 72.576 L1343.39 27.2059 L1350.88 27.2059 L1350.88 34.2544 Q1353.43 30.082 1357 28.0971 Q1360.56 26.1121 1365.46 26.1121 Q1370.41 26.1121 1373.85 28.6237 Q1377.33 31.1352 1378.99 35.9153 Z" fill="#000000" fill-rule="nonzero" fill-opacity="1" /><path clip-path="url(#clip810)" d="M1462.2 45.1919 L1462.2 72.576 L1454.75 72.576 L1454.75 45.4349 Q1454.75 38.994 1452.23 35.7938 Q1449.72 32.5936 1444.7 32.5936 Q1438.66 32.5936 1435.18 36.4419 Q1431.7 40.2903 1431.7 46.9338 L1431.7 72.576 L1424.2 72.576 L1424.2 27.2059 L1431.7 27.2059 L1431.7 34.2544 Q1434.37 30.163 1437.97 28.1376 Q1441.62 26.1121 1446.36 26.1121 Q1454.18 26.1121 1458.19 30.9732 Q1462.2 35.7938 1462.2 45.1919 Z" fill="#000000" fill-rule="nonzero" fill-opacity="1" /><path clip-path="url(#clip810)" d="M1477.07 27.2059 L1484.52 27.2059 L1484.52 72.576 L1477.07 72.576 L1477.07 27.2059 M1477.07 9.54393 L1484.52 9.54393 L1484.52 18.9825 L1477.07 18.9825 L1477.07 9.54393 Z" fill="#000000" fill-rule="nonzero" fill-opacity="1" /><path clip-path="url(#clip810)" d="M1529.04 28.5427 L1529.04 35.5912 Q1525.88 33.9709 1522.48 33.1607 Q1519.07 32.3505 1515.43 32.3505 Q1509.88 32.3505 1507.08 34.0519 Q1504.33 35.7533 1504.33 39.156 Q1504.33 41.7486 1506.31 43.2475 Q1508.3 44.7058 1514.29 46.0426 L1516.85 46.6097 Q1524.79 48.3111 1528.11 51.4303 Q1531.47 54.509 1531.47 60.0587 Q1531.47 66.3781 1526.45 70.0644 Q1521.46 73.7508 1512.71 73.7508 Q1509.07 73.7508 1505.1 73.0216 Q1501.17 72.3329 1496.79 70.9151 L1496.79 63.2184 Q1500.93 65.3654 1504.94 66.4591 Q1508.95 67.5124 1512.88 67.5124 Q1518.14 67.5124 1520.98 65.73 Q1523.81 63.9071 1523.81 60.6258 Q1523.81 57.5877 1521.75 55.9673 Q1519.72 54.3469 1512.79 52.8481 L1510.2 52.2405 Q1503.28 50.7821 1500.2 47.7845 Q1497.12 44.7463 1497.12 39.4801 Q1497.12 33.0797 1501.65 29.5959 Q1506.19 26.1121 1514.54 26.1121 Q1518.67 26.1121 1522.31 26.7198 Q1525.96 27.3274 1529.04 28.5427 Z" fill="#000000" fill-rule="nonzero" fill-opacity="1" /><path clip-path="url(#clip810)" d="M1543.06 9.54393 L1550.55 9.54393 L1550.55 46.7717 L1572.79 27.2059 L1582.31 27.2059 L1558.25 48.4326 L1583.32 72.576 L1573.6 72.576 L1550.55 50.4176 L1550.55 72.576 L1543.06 72.576 L1543.06 9.54393 Z" fill="#000000" fill-rule="nonzero" fill-opacity="1" /><path clip-path="url(#clip810)" d="M1610.54 49.7694 Q1601.51 49.7694 1598.03 51.8354 Q1594.54 53.9013 1594.54 58.8839 Q1594.54 62.8538 1597.13 65.2034 Q1599.77 67.5124 1604.26 67.5124 Q1610.46 67.5124 1614.19 63.1374 Q1617.96 58.7219 1617.96 51.4303 L1617.96 49.7694 L1610.54 49.7694 M1625.41 46.6907 L1625.41 72.576 L1617.96 72.576 L1617.96 65.6895 Q1615.4 69.8214 1611.6 71.8063 Q1607.79 73.7508 1602.28 73.7508 Q1595.31 73.7508 1591.18 69.8619 Q1587.09 65.9325 1587.09 59.3701 Q1587.09 51.7138 1592.19 47.825 Q1597.34 43.9361 1607.51 43.9361 L1617.96 43.9361 L1617.96 43.2069 Q1617.96 38.0623 1614.55 35.2672 Q1611.19 32.4315 1605.07 32.4315 Q1601.19 32.4315 1597.5 33.3632 Q1593.81 34.295 1590.41 36.1584 L1590.41 29.2718 Q1594.5 27.692 1598.35 26.9223 Q1602.2 26.1121 1605.84 26.1121 Q1615.69 26.1121 1620.55 31.2163 Q1625.41 36.3204 1625.41 46.6907 Z" fill="#000000" fill-rule="nonzero" fill-opacity="1" /><path clip-path="url(#clip810)" d="M1648.14 14.324 L1648.14 27.2059 L1663.49 27.2059 L1663.49 32.9987 L1648.14 32.9987 L1648.14 57.6282 Q1648.14 63.1779 1649.63 64.7578 Q1651.17 66.3376 1655.83 66.3376 L1663.49 66.3376 L1663.49 72.576 L1655.83 72.576 Q1647.2 72.576 1643.92 69.3758 Q1640.64 66.1351 1640.64 57.6282 L1640.64 32.9987 L1635.17 32.9987 L1635.17 27.2059 L1640.64 27.2059 L1640.64 14.324 L1648.14 14.324 Z" fill="#000000" fill-rule="nonzero" fill-opacity="1" /><path clip-path="url(#clip810)" d="M1693.91 49.7694 Q1684.88 49.7694 1681.39 51.8354 Q1677.91 53.9013 1677.91 58.8839 Q1677.91 62.8538 1680.5 65.2034 Q1683.14 67.5124 1687.63 67.5124 Q1693.83 67.5124 1697.56 63.1374 Q1701.32 58.7219 1701.32 51.4303 L1701.32 49.7694 L1693.91 49.7694 M1708.78 46.6907 L1708.78 72.576 L1701.32 72.576 L1701.32 65.6895 Q1698.77 69.8214 1694.96 71.8063 Q1691.16 73.7508 1685.65 73.7508 Q1678.68 73.7508 1674.55 69.8619 Q1670.46 65.9325 1670.46 59.3701 Q1670.46 51.7138 1675.56 47.825 Q1680.7 43.9361 1690.87 43.9361 L1701.32 43.9361 L1701.32 43.2069 Q1701.32 38.0623 1697.92 35.2672 Q1694.56 32.4315 1688.44 32.4315 Q1684.55 32.4315 1680.87 33.3632 Q1677.18 34.295 1673.78 36.1584 L1673.78 29.2718 Q1677.87 27.692 1681.72 26.9223 Q1685.57 26.1121 1689.21 26.1121 Q1699.06 26.1121 1703.92 31.2163 Q1708.78 36.3204 1708.78 46.6907 Z" fill="#000000" fill-rule="nonzero" fill-opacity="1" /><polyline clip-path="url(#clip812)" style="stroke:#009af9; stroke-linecap:round; stroke-linejoin:round; stroke-width:4; stroke-opacity:1; fill:none" points="2291.67,1261.47 2290.61,1263.81 2289.53,1266.17 2288.43,1268.54 2287.31,1270.94 2286.17,1273.35 2285.01,1275.77 2283.82,1278.22 2282.6,1280.68 2281.37,1283.17 2280.1,1285.67 2278.82,1288.18 2277.5,1290.72 2276.16,1293.27 2274.79,1295.84 2273.39,1298.43 2271.96,1301.03 2270.5,1303.66 2269.01,1306.29 2267.49,1308.95 2265.94,1311.62 2264.35,1314.31 2262.72,1317.01 2261.06,1319.73 2259.37,1322.47 2257.63,1325.21 2255.86,1327.98 2254.04,1330.75 2252.19,1333.54 2250.29,1336.35 2248.34,1339.16 2246.35,1341.98 2244.32,1344.82 2242.24,1347.67 2240.1,1350.52 2237.92,1353.38 2235.68,1356.25 2233.39,1359.12 2231.04,1362 2228.63,1364.89 2226.16,1367.77 2223.63,1370.66 2221.04,1373.54 2218.38,1376.42 2215.65,1379.3 2212.85,1382.17 2209.98,1385.03 2207.03,1387.88 2204,1390.72 2200.9,1393.54 2197.7,1396.35 2194.43,1399.13 2191.06,1401.89 2187.6,1404.62 2184.04,1407.32 2180.38,1409.99 2176.62,1412.62 2172.75,1415.2 2168.77,1417.74 2164.68,1420.22 2160.47,1422.65 2156.13,1425.01 2151.66,1427.31 2147.06,1429.52 2142.32,1431.66 2137.44,1433.71 2132.4,1435.65 2127.21,1437.5 2121.86,1439.23 2116.34,1440.83 2110.65,1442.3 2104.77,1443.63 2098.7,1444.8 2092.44,1445.81 2085.96,1446.63 2079.28,1447.26 2072.37,1447.68 2065.23,1447.87 2057.85,1447.83 2050.22,1447.52 2042.32,1446.94 2034.15,1446.05 2025.69,1444.85 2016.93,1443.31 2007.86,1441.4 1998.46,1439.1 1988.73,1436.38 1978.64,1433.21 1968.18,1429.56 1957.33,1425.4 1946.08,1420.7 1934.4,1415.41 1922.28,1409.5 1909.71,1402.94 1896.65,1395.66 1883.08,1387.64 1868.99,1378.83 1854.35,1369.17 1839.14,1358.61 1823.32,1347.1 1806.88,1334.59 1789.79,1321.01 1772.01,1306.32 1753.52,1290.43 1734.29,1273.31 1714.29,1254.87 1693.48,1235.06 1671.83,1213.82 1649.32,1191.09 1625.9,1166.81 1601.54,1140.91 1576.21,1113.36 1549.88,1084.11 1522.51,1053.13 1494.09,1020.38 1464.56,985.865 1433.92,949.582 1402.13,911.558 1369.19,871.839 1335.07,830.499 1299.76,787.645 1263.28,743.416 1225.62,697.995 1186.8,651.608 1146.85,604.534 1105.81,557.105 1063.75,509.711 1020.74,462.807 976.864,416.911 932.243,372.604 887.012,330.532 841.331,291.397 795.387,255.952 749.39,224.987 703.581,199.317 658.223,179.758 613.608,167.101 570.049,162.09 527.882,165.383 487.459,177.521 449.142,198.891 413.301,229.695 380.302,269.918 350.503,319.303 324.242,377.339 301.832,443.253 283.547,516.022 269.621,594.393 260.233,676.915 255.507,761.991 255.507,847.929 260.233,933.005 269.621,1015.53 283.547,1093.9 301.832,1166.67 324.242,1232.58 350.503,1290.62 380.302,1340 413.301,1380.22 449.142,1411.03 487.459,1432.4 527.882,1444.54 570.049,1447.83 613.608,1442.82 658.223,1430.16 703.581,1410.6 749.39,1384.93 795.387,1353.97 841.331,1318.52 887.012,1279.39 932.243,1237.32 976.864,1193.01 1020.74,1147.11 1063.75,1100.21 1105.81,1052.82 1146.85,1005.39 1186.8,958.312 1225.62,911.925 1263.28,866.504 1299.76,822.275 1335.07,779.421 1369.19,738.081 1402.13,698.362 1433.92,660.338 1464.56,624.055 1494.09,589.538 1522.51,556.793 1549.88,525.807 1576.21,496.557 1601.54,469.007 1625.9,443.115 1649.32,418.829 1671.83,396.096 1693.48,374.857 1714.29,355.05 1734.29,336.614 1753.52,319.487 1772.01,303.604 1789.79,288.905 1806.88,275.329 1823.32,262.816 1839.14,251.309 1854.35,240.752 1868.99,231.092 1883.08,222.276 1896.65,214.256 1909.71,206.984 1922.28,200.416 1934.4,194.509 1946.08,189.223 1957.33,184.518 1968.18,180.359 1978.64,176.711 1988.73,173.542 1998.46,170.821 2007.86,168.52 2016.93,166.61 2025.69,165.066 2034.15,163.865 2042.32,162.983 2050.22,162.399 2057.85,162.094 2065.23,162.047 2072.37,162.242 2079.28,162.661 2085.96,163.29 2092.44,164.113 2098.7,165.117 2104.77,166.288 2110.65,167.616 2116.34,169.087 2121.86,170.693 2127.21,172.422 2132.4,174.265 2137.44,176.214 2142.32,178.26 2147.06,180.396 2151.66,182.614 2156.13,184.908 2160.47,187.271 2164.68,189.698 2168.77,192.182 2172.75,194.719 2176.62,197.303 2180.38,199.93 2184.04,202.596 2187.6,205.297 2191.06,208.029 2194.43,210.789 2197.7,213.572 2200.9,216.377 2204,219.199 2207.03,222.038 2209.98,224.889 2212.85,227.751 2215.65,230.622 2218.38,233.498 2221.04,236.38 2223.63,239.264 2226.16,242.149 2228.63,245.033 2231.04,247.916 2233.39,250.795 2235.68,253.67 2237.92,256.539 2240.1,259.401 2242.24,262.255 2244.32,265.1 2246.35,267.936 2248.34,270.761 2250.29,273.575 2252.19,276.377 2254.04,279.166 2255.86,281.943 2257.63,284.706 2259.37,287.454 2261.06,290.188 2262.72,292.907 2264.35,295.61 2265.94,298.298 2267.49,300.97 2269.01,303.625 2270.5,306.264 2271.96,308.886 2273.39,311.491 2274.79,314.078 2276.16,316.649 2277.5,319.202 2278.82,321.737 2280.1,324.254 2281.37,326.754 2282.6,329.236 2283.82,331.7 2285.01,334.146 2286.17,336.574 2287.31,338.984 2288.43,341.376 2289.53,343.751 2290.61,346.107 2291.67,348.445 "/>
</svg>
