<?xml version="1.0" encoding="utf-8"?>
<svg xmlns="http://www.w3.org/2000/svg" xmlns:xlink="http://www.w3.org/1999/xlink" width="576" height="384" viewBox="0 0 2304 1536">
<defs>
  <clipPath id="clip170">
    <rect x="0" y="0" width="2304" height="1536"/>
  </clipPath>
</defs>
<path clip-path="url(#clip170)" d="M0 1536 L2304 1536 L2304 0 L0 0  Z" fill="#ffffff" fill-rule="evenodd" fill-opacity="1"/>
<defs>
  <clipPath id="clip171">
    <rect x="460" y="0" width="1614" height="1536"/>
  </clipPath>
</defs>
<path clip-path="url(#clip170)" d="M193.462 1423.09 L2256.76 1423.09 L2256.76 123.472 L193.462 123.472  Z" fill="#ffffff" fill-rule="evenodd" fill-opacity="1"/>
<defs>
  <clipPath id="clip172">
    <rect x="193" y="123" width="2064" height="1301"/>
  </clipPath>
</defs>
<polyline clip-path="url(#clip172)" style="stroke:#000000; stroke-linecap:round; stroke-linejoin:round; stroke-width:2; stroke-opacity:0.1; fill:none" points="251.291,1423.09 251.291,123.472 "/>
<polyline clip-path="url(#clip172)" style="stroke:#000000; stroke-linecap:round; stroke-linejoin:round; stroke-width:2; stroke-opacity:0.1; fill:none" points="757.529,1423.09 757.529,123.472 "/>
<polyline clip-path="url(#clip172)" style="stroke:#000000; stroke-linecap:round; stroke-linejoin:round; stroke-width:2; stroke-opacity:0.1; fill:none" points="1263.77,1423.09 1263.77,123.472 "/>
<polyline clip-path="url(#clip172)" style="stroke:#000000; stroke-linecap:round; stroke-linejoin:round; stroke-width:2; stroke-opacity:0.1; fill:none" points="1770.01,1423.09 1770.01,123.472 "/>
<polyline clip-path="url(#clip170)" style="stroke:#000000; stroke-linecap:round; stroke-linejoin:round; stroke-width:4; stroke-opacity:1; fill:none" points="193.462,1423.09 2256.76,1423.09 "/>
<polyline clip-path="url(#clip170)" style="stroke:#000000; stroke-linecap:round; stroke-linejoin:round; stroke-width:4; stroke-opacity:1; fill:none" points="251.291,1423.09 251.291,1404.19 "/>
<polyline clip-path="url(#clip170)" style="stroke:#000000; stroke-linecap:round; stroke-linejoin:round; stroke-width:4; stroke-opacity:1; fill:none" points="757.529,1423.09 757.529,1404.19 "/>
<polyline clip-path="url(#clip170)" style="stroke:#000000; stroke-linecap:round; stroke-linejoin:round; stroke-width:4; stroke-opacity:1; fill:none" points="1263.77,1423.09 1263.77,1404.19 "/>
<polyline clip-path="url(#clip170)" style="stroke:#000000; stroke-linecap:round; stroke-linejoin:round; stroke-width:4; stroke-opacity:1; fill:none" points="1770.01,1423.09 1770.01,1404.19 "/>
<path clip-path="url(#clip170)" d="M197.819 1467.89 L227.495 1467.89 L227.495 1471.83 L197.819 1471.83 L197.819 1467.89 Z" fill="#000000" fill-rule="nonzero" fill-opacity="1" /><path clip-path="url(#clip170)" d="M238.398 1480.78 L246.037 1480.78 L246.037 1454.42 L237.726 1456.09 L237.726 1451.83 L245.99 1450.16 L250.666 1450.16 L250.666 1480.78 L258.305 1480.78 L258.305 1484.72 L238.398 1484.72 L238.398 1480.78 Z" fill="#000000" fill-rule="nonzero" fill-opacity="1" /><path clip-path="url(#clip170)" d="M267.749 1478.84 L272.634 1478.84 L272.634 1484.72 L267.749 1484.72 L267.749 1478.84 Z" fill="#000000" fill-rule="nonzero" fill-opacity="1" /><path clip-path="url(#clip170)" d="M292.819 1453.24 Q289.208 1453.24 287.379 1456.8 Q285.573 1460.35 285.573 1467.47 Q285.573 1474.58 287.379 1478.15 Q289.208 1481.69 292.819 1481.69 Q296.453 1481.69 298.258 1478.15 Q300.087 1474.58 300.087 1467.47 Q300.087 1460.35 298.258 1456.8 Q296.453 1453.24 292.819 1453.24 M292.819 1449.53 Q298.629 1449.53 301.684 1454.14 Q304.763 1458.72 304.763 1467.47 Q304.763 1476.2 301.684 1480.81 Q298.629 1485.39 292.819 1485.39 Q287.009 1485.39 283.93 1480.81 Q280.874 1476.2 280.874 1467.47 Q280.874 1458.72 283.93 1454.14 Q287.009 1449.53 292.819 1449.53 Z" fill="#000000" fill-rule="nonzero" fill-opacity="1" /><path clip-path="url(#clip170)" d="M704.555 1467.89 L734.231 1467.89 L734.231 1471.83 L704.555 1471.83 L704.555 1467.89 Z" fill="#000000" fill-rule="nonzero" fill-opacity="1" /><path clip-path="url(#clip170)" d="M754.323 1453.24 Q750.712 1453.24 748.883 1456.8 Q747.078 1460.35 747.078 1467.47 Q747.078 1474.58 748.883 1478.15 Q750.712 1481.69 754.323 1481.69 Q757.957 1481.69 759.763 1478.15 Q761.592 1474.58 761.592 1467.47 Q761.592 1460.35 759.763 1456.8 Q757.957 1453.24 754.323 1453.24 M754.323 1449.53 Q760.133 1449.53 763.189 1454.14 Q766.268 1458.72 766.268 1467.47 Q766.268 1476.2 763.189 1480.81 Q760.133 1485.39 754.323 1485.39 Q748.513 1485.39 745.434 1480.81 Q742.379 1476.2 742.379 1467.47 Q742.379 1458.72 745.434 1454.14 Q748.513 1449.53 754.323 1449.53 Z" fill="#000000" fill-rule="nonzero" fill-opacity="1" /><path clip-path="url(#clip170)" d="M774.485 1478.84 L779.369 1478.84 L779.369 1484.72 L774.485 1484.72 L774.485 1478.84 Z" fill="#000000" fill-rule="nonzero" fill-opacity="1" /><path clip-path="url(#clip170)" d="M789.601 1450.16 L807.957 1450.16 L807.957 1454.1 L793.883 1454.1 L793.883 1462.57 Q794.902 1462.22 795.92 1462.06 Q796.939 1461.87 797.957 1461.87 Q803.744 1461.87 807.124 1465.04 Q810.503 1468.22 810.503 1473.63 Q810.503 1479.21 807.031 1482.31 Q803.559 1485.39 797.24 1485.39 Q795.064 1485.39 792.795 1485.02 Q790.55 1484.65 788.142 1483.91 L788.142 1479.21 Q790.226 1480.34 792.448 1480.9 Q794.67 1481.46 797.147 1481.46 Q801.152 1481.46 803.49 1479.35 Q805.828 1477.24 805.828 1473.63 Q805.828 1470.02 803.49 1467.91 Q801.152 1465.81 797.147 1465.81 Q795.272 1465.81 793.397 1466.22 Q791.545 1466.64 789.601 1467.52 L789.601 1450.16 Z" fill="#000000" fill-rule="nonzero" fill-opacity="1" /><path clip-path="url(#clip170)" d="M1241.15 1453.24 Q1237.54 1453.24 1235.71 1456.8 Q1233.91 1460.35 1233.91 1467.47 Q1233.91 1474.58 1235.71 1478.15 Q1237.54 1481.69 1241.15 1481.69 Q1244.79 1481.69 1246.59 1478.15 Q1248.42 1474.58 1248.42 1467.47 Q1248.42 1460.35 1246.59 1456.8 Q1244.79 1453.24 1241.15 1453.24 M1241.15 1449.53 Q1246.96 1449.53 1250.02 1454.14 Q1253.1 1458.72 1253.1 1467.47 Q1253.1 1476.2 1250.02 1480.81 Q1246.96 1485.39 1241.15 1485.39 Q1235.34 1485.39 1232.26 1480.81 Q1229.21 1476.2 1229.21 1467.47 Q1229.21 1458.72 1232.26 1454.14 Q1235.34 1449.53 1241.15 1449.53 Z" fill="#000000" fill-rule="nonzero" fill-opacity="1" /><path clip-path="url(#clip170)" d="M1261.31 1478.84 L1266.2 1478.84 L1266.2 1484.72 L1261.31 1484.72 L1261.31 1478.84 Z" fill="#000000" fill-rule="nonzero" fill-opacity="1" /><path clip-path="url(#clip170)" d="M1286.38 1453.24 Q1282.77 1453.24 1280.94 1456.8 Q1279.14 1460.35 1279.14 1467.47 Q1279.14 1474.58 1280.94 1478.15 Q1282.77 1481.69 1286.38 1481.69 Q1290.02 1481.69 1291.82 1478.15 Q1293.65 1474.58 1293.65 1467.47 Q1293.65 1460.35 1291.82 1456.8 Q1290.02 1453.24 1286.38 1453.24 M1286.38 1449.53 Q1292.19 1449.53 1295.25 1454.14 Q1298.33 1458.72 1298.33 1467.47 Q1298.33 1476.2 1295.25 1480.81 Q1292.19 1485.39 1286.38 1485.39 Q1280.57 1485.39 1277.49 1480.81 Q1274.44 1476.2 1274.44 1467.47 Q1274.44 1458.72 1277.49 1454.14 Q1280.57 1449.53 1286.38 1449.53 Z" fill="#000000" fill-rule="nonzero" fill-opacity="1" /><path clip-path="url(#clip170)" d="M1747.89 1453.24 Q1744.28 1453.24 1742.45 1456.8 Q1740.64 1460.35 1740.64 1467.47 Q1740.64 1474.58 1742.45 1478.15 Q1744.28 1481.69 1747.89 1481.69 Q1751.52 1481.69 1753.33 1478.15 Q1755.16 1474.58 1755.16 1467.47 Q1755.16 1460.35 1753.33 1456.8 Q1751.52 1453.24 1747.89 1453.24 M1747.89 1449.53 Q1753.7 1449.53 1756.75 1454.14 Q1759.83 1458.72 1759.83 1467.47 Q1759.83 1476.2 1756.75 1480.81 Q1753.7 1485.39 1747.89 1485.39 Q1742.08 1485.39 1739 1480.81 Q1735.94 1476.2 1735.94 1467.47 Q1735.94 1458.72 1739 1454.14 Q1742.08 1449.53 1747.89 1449.53 Z" fill="#000000" fill-rule="nonzero" fill-opacity="1" /><path clip-path="url(#clip170)" d="M1768.05 1478.84 L1772.93 1478.84 L1772.93 1484.72 L1768.05 1484.72 L1768.05 1478.84 Z" fill="#000000" fill-rule="nonzero" fill-opacity="1" /><path clip-path="url(#clip170)" d="M1783.17 1450.16 L1801.52 1450.16 L1801.52 1454.1 L1787.45 1454.1 L1787.45 1462.57 Q1788.47 1462.22 1789.48 1462.06 Q1790.5 1461.87 1791.52 1461.87 Q1797.31 1461.87 1800.69 1465.04 Q1804.07 1468.22 1804.07 1473.63 Q1804.07 1479.21 1800.6 1482.31 Q1797.12 1485.39 1790.8 1485.39 Q1788.63 1485.39 1786.36 1485.02 Q1784.11 1484.65 1781.71 1483.91 L1781.71 1479.21 Q1783.79 1480.34 1786.01 1480.9 Q1788.23 1481.46 1790.71 1481.46 Q1794.72 1481.46 1797.05 1479.35 Q1799.39 1477.24 1799.39 1473.63 Q1799.39 1470.02 1797.05 1467.91 Q1794.72 1465.81 1790.71 1465.81 Q1788.84 1465.81 1786.96 1466.22 Q1785.11 1466.64 1783.17 1467.52 L1783.17 1450.16 Z" fill="#000000" fill-rule="nonzero" fill-opacity="1" /><polyline clip-path="url(#clip172)" style="stroke:#000000; stroke-linecap:round; stroke-linejoin:round; stroke-width:2; stroke-opacity:0.1; fill:none" points="193.462,1263.71 2256.76,1263.71 "/>
<polyline clip-path="url(#clip172)" style="stroke:#000000; stroke-linecap:round; stroke-linejoin:round; stroke-width:2; stroke-opacity:0.1; fill:none" points="193.462,1018.5 2256.76,1018.5 "/>
<polyline clip-path="url(#clip172)" style="stroke:#000000; stroke-linecap:round; stroke-linejoin:round; stroke-width:2; stroke-opacity:0.1; fill:none" points="193.462,773.28 2256.76,773.28 "/>
<polyline clip-path="url(#clip172)" style="stroke:#000000; stroke-linecap:round; stroke-linejoin:round; stroke-width:2; stroke-opacity:0.1; fill:none" points="193.462,528.065 2256.76,528.065 "/>
<polyline clip-path="url(#clip172)" style="stroke:#000000; stroke-linecap:round; stroke-linejoin:round; stroke-width:2; stroke-opacity:0.1; fill:none" points="193.462,282.85 2256.76,282.85 "/>
<polyline clip-path="url(#clip170)" style="stroke:#000000; stroke-linecap:round; stroke-linejoin:round; stroke-width:4; stroke-opacity:1; fill:none" points="193.462,1423.09 193.462,123.472 "/>
<polyline clip-path="url(#clip170)" style="stroke:#000000; stroke-linecap:round; stroke-linejoin:round; stroke-width:4; stroke-opacity:1; fill:none" points="193.462,1263.71 212.36,1263.71 "/>
<polyline clip-path="url(#clip170)" style="stroke:#000000; stroke-linecap:round; stroke-linejoin:round; stroke-width:4; stroke-opacity:1; fill:none" points="193.462,1018.5 212.36,1018.5 "/>
<polyline clip-path="url(#clip170)" style="stroke:#000000; stroke-linecap:round; stroke-linejoin:round; stroke-width:4; stroke-opacity:1; fill:none" points="193.462,773.28 212.36,773.28 "/>
<polyline clip-path="url(#clip170)" style="stroke:#000000; stroke-linecap:round; stroke-linejoin:round; stroke-width:4; stroke-opacity:1; fill:none" points="193.462,528.065 212.36,528.065 "/>
<polyline clip-path="url(#clip170)" style="stroke:#000000; stroke-linecap:round; stroke-linejoin:round; stroke-width:4; stroke-opacity:1; fill:none" points="193.462,282.85 212.36,282.85 "/>
<path clip-path="url(#clip170)" d="M51.4721 1264.16 L81.1479 1264.16 L81.1479 1268.1 L51.4721 1268.1 L51.4721 1264.16 Z" fill="#000000" fill-rule="nonzero" fill-opacity="1" /><path clip-path="url(#clip170)" d="M101.24 1249.51 Q97.6293 1249.51 95.8006 1253.07 Q93.995 1256.62 93.995 1263.75 Q93.995 1270.85 95.8006 1274.42 Q97.6293 1277.96 101.24 1277.96 Q104.875 1277.96 106.68 1274.42 Q108.509 1270.85 108.509 1263.75 Q108.509 1256.62 106.68 1253.07 Q104.875 1249.51 101.24 1249.51 M101.24 1245.81 Q107.051 1245.81 110.106 1250.41 Q113.185 1255 113.185 1263.75 Q113.185 1272.47 110.106 1277.08 Q107.051 1281.66 101.24 1281.66 Q95.4302 1281.66 92.3515 1277.08 Q89.296 1272.47 89.296 1263.75 Q89.296 1255 92.3515 1250.41 Q95.4302 1245.81 101.24 1245.81 Z" fill="#000000" fill-rule="nonzero" fill-opacity="1" /><path clip-path="url(#clip170)" d="M121.402 1275.11 L126.287 1275.11 L126.287 1280.99 L121.402 1280.99 L121.402 1275.11 Z" fill="#000000" fill-rule="nonzero" fill-opacity="1" /><path clip-path="url(#clip170)" d="M149.319 1250.5 L137.513 1268.95 L149.319 1268.95 L149.319 1250.5 M148.092 1246.43 L153.972 1246.43 L153.972 1268.95 L158.902 1268.95 L158.902 1272.84 L153.972 1272.84 L153.972 1280.99 L149.319 1280.99 L149.319 1272.84 L133.717 1272.84 L133.717 1268.33 L148.092 1246.43 Z" fill="#000000" fill-rule="nonzero" fill-opacity="1" /><path clip-path="url(#clip170)" d="M53.5554 1018.95 L83.2312 1018.95 L83.2312 1022.88 L53.5554 1022.88 L53.5554 1018.95 Z" fill="#000000" fill-rule="nonzero" fill-opacity="1" /><path clip-path="url(#clip170)" d="M103.324 1004.29 Q99.7126 1004.29 97.8839 1007.86 Q96.0784 1011.4 96.0784 1018.53 Q96.0784 1025.64 97.8839 1029.2 Q99.7126 1032.74 103.324 1032.74 Q106.958 1032.74 108.763 1029.2 Q110.592 1025.64 110.592 1018.53 Q110.592 1011.4 108.763 1007.86 Q106.958 1004.29 103.324 1004.29 M103.324 1000.59 Q109.134 1000.59 112.189 1005.2 Q115.268 1009.78 115.268 1018.53 Q115.268 1027.26 112.189 1031.86 Q109.134 1036.45 103.324 1036.45 Q97.5135 1036.45 94.4349 1031.86 Q91.3793 1027.26 91.3793 1018.53 Q91.3793 1009.78 94.4349 1005.2 Q97.5135 1000.59 103.324 1000.59 Z" fill="#000000" fill-rule="nonzero" fill-opacity="1" /><path clip-path="url(#clip170)" d="M123.486 1029.9 L128.37 1029.9 L128.37 1035.78 L123.486 1035.78 L123.486 1029.9 Z" fill="#000000" fill-rule="nonzero" fill-opacity="1" /><path clip-path="url(#clip170)" d="M142.583 1031.84 L158.902 1031.84 L158.902 1035.78 L136.958 1035.78 L136.958 1031.84 Q139.62 1029.09 144.203 1024.46 Q148.81 1019.8 149.99 1018.46 Q152.235 1015.94 153.115 1014.2 Q154.018 1012.44 154.018 1010.75 Q154.018 1008 152.073 1006.26 Q150.152 1004.53 147.05 1004.53 Q144.851 1004.53 142.398 1005.29 Q139.967 1006.05 137.189 1007.6 L137.189 1002.88 Q140.013 1001.75 142.467 1001.17 Q144.921 1000.59 146.958 1000.59 Q152.328 1000.59 155.522 1003.28 Q158.717 1005.96 158.717 1010.45 Q158.717 1012.58 157.907 1014.5 Q157.12 1016.4 155.013 1018.99 Q154.435 1019.66 151.333 1022.88 Q148.231 1026.08 142.583 1031.84 Z" fill="#000000" fill-rule="nonzero" fill-opacity="1" /><path clip-path="url(#clip170)" d="M101.726 759.079 Q98.1154 759.079 96.2867 762.643 Q94.4812 766.185 94.4812 773.315 Q94.4812 780.421 96.2867 783.986 Q98.1154 787.528 101.726 787.528 Q105.361 787.528 107.166 783.986 Q108.995 780.421 108.995 773.315 Q108.995 766.185 107.166 762.643 Q105.361 759.079 101.726 759.079 M101.726 755.375 Q107.537 755.375 110.592 759.981 Q113.671 764.565 113.671 773.315 Q113.671 782.042 110.592 786.648 Q107.537 791.231 101.726 791.231 Q95.9163 791.231 92.8376 786.648 Q89.7821 782.042 89.7821 773.315 Q89.7821 764.565 92.8376 759.981 Q95.9163 755.375 101.726 755.375 Z" fill="#000000" fill-rule="nonzero" fill-opacity="1" /><path clip-path="url(#clip170)" d="M121.888 784.68 L126.773 784.68 L126.773 790.56 L121.888 790.56 L121.888 784.68 Z" fill="#000000" fill-rule="nonzero" fill-opacity="1" /><path clip-path="url(#clip170)" d="M146.958 759.079 Q143.347 759.079 141.518 762.643 Q139.712 766.185 139.712 773.315 Q139.712 780.421 141.518 783.986 Q143.347 787.528 146.958 787.528 Q150.592 787.528 152.398 783.986 Q154.226 780.421 154.226 773.315 Q154.226 766.185 152.398 762.643 Q150.592 759.079 146.958 759.079 M146.958 755.375 Q152.768 755.375 155.823 759.981 Q158.902 764.565 158.902 773.315 Q158.902 782.042 155.823 786.648 Q152.768 791.231 146.958 791.231 Q141.148 791.231 138.069 786.648 Q135.013 782.042 135.013 773.315 Q135.013 764.565 138.069 759.981 Q141.148 755.375 146.958 755.375 Z" fill="#000000" fill-rule="nonzero" fill-opacity="1" /><path clip-path="url(#clip170)" d="M103.324 513.864 Q99.7126 513.864 97.8839 517.428 Q96.0784 520.97 96.0784 528.1 Q96.0784 535.206 97.8839 538.771 Q99.7126 542.312 103.324 542.312 Q106.958 542.312 108.763 538.771 Q110.592 535.206 110.592 528.1 Q110.592 520.97 108.763 517.428 Q106.958 513.864 103.324 513.864 M103.324 510.16 Q109.134 510.16 112.189 514.766 Q115.268 519.35 115.268 528.1 Q115.268 536.826 112.189 541.433 Q109.134 546.016 103.324 546.016 Q97.5135 546.016 94.4349 541.433 Q91.3793 536.826 91.3793 528.1 Q91.3793 519.35 94.4349 514.766 Q97.5135 510.16 103.324 510.16 Z" fill="#000000" fill-rule="nonzero" fill-opacity="1" /><path clip-path="url(#clip170)" d="M123.486 539.465 L128.37 539.465 L128.37 545.345 L123.486 545.345 L123.486 539.465 Z" fill="#000000" fill-rule="nonzero" fill-opacity="1" /><path clip-path="url(#clip170)" d="M142.583 541.41 L158.902 541.41 L158.902 545.345 L136.958 545.345 L136.958 541.41 Q139.62 538.655 144.203 534.025 Q148.81 529.373 149.99 528.03 Q152.235 525.507 153.115 523.771 Q154.018 522.012 154.018 520.322 Q154.018 517.567 152.073 515.831 Q150.152 514.095 147.05 514.095 Q144.851 514.095 142.398 514.859 Q139.967 515.623 137.189 517.174 L137.189 512.452 Q140.013 511.317 142.467 510.739 Q144.921 510.16 146.958 510.16 Q152.328 510.16 155.522 512.845 Q158.717 515.53 158.717 520.021 Q158.717 522.151 157.907 524.072 Q157.12 525.97 155.013 528.563 Q154.435 529.234 151.333 532.451 Q148.231 535.646 142.583 541.41 Z" fill="#000000" fill-rule="nonzero" fill-opacity="1" /><path clip-path="url(#clip170)" d="M101.24 268.648 Q97.6293 268.648 95.8006 272.213 Q93.995 275.755 93.995 282.884 Q93.995 289.991 95.8006 293.556 Q97.6293 297.097 101.24 297.097 Q104.875 297.097 106.68 293.556 Q108.509 289.991 108.509 282.884 Q108.509 275.755 106.68 272.213 Q104.875 268.648 101.24 268.648 M101.24 264.945 Q107.051 264.945 110.106 269.551 Q113.185 274.134 113.185 282.884 Q113.185 291.611 110.106 296.218 Q107.051 300.801 101.24 300.801 Q95.4302 300.801 92.3515 296.218 Q89.296 291.611 89.296 282.884 Q89.296 274.134 92.3515 269.551 Q95.4302 264.945 101.24 264.945 Z" fill="#000000" fill-rule="nonzero" fill-opacity="1" /><path clip-path="url(#clip170)" d="M121.402 294.25 L126.287 294.25 L126.287 300.13 L121.402 300.13 L121.402 294.25 Z" fill="#000000" fill-rule="nonzero" fill-opacity="1" /><path clip-path="url(#clip170)" d="M149.319 269.644 L137.513 288.093 L149.319 288.093 L149.319 269.644 M148.092 265.57 L153.972 265.57 L153.972 288.093 L158.902 288.093 L158.902 291.982 L153.972 291.982 L153.972 300.13 L149.319 300.13 L149.319 291.982 L133.717 291.982 L133.717 287.468 L148.092 265.57 Z" fill="#000000" fill-rule="nonzero" fill-opacity="1" /><path clip-path="url(#clip170)" d="M834.642 63.9476 L834.642 47.7034 L821.274 47.7034 L821.274 40.9789 L842.744 40.9789 L842.744 66.9452 Q838.005 70.3075 832.293 72.0494 Q826.581 73.7508 820.1 73.7508 Q805.921 73.7508 797.901 65.4869 Q789.92 57.1826 789.92 42.3968 Q789.92 27.5705 797.901 19.3066 Q805.921 11.0023 820.1 11.0023 Q826.014 11.0023 831.321 12.4606 Q836.668 13.9189 841.164 16.7545 L841.164 25.464 Q836.627 21.6156 831.523 19.6712 Q826.419 17.7268 820.788 17.7268 Q809.689 17.7268 804.099 23.9246 Q798.549 30.1225 798.549 42.3968 Q798.549 54.6305 804.099 60.8284 Q809.689 67.0263 820.788 67.0263 Q825.123 67.0263 828.525 66.2971 Q831.928 65.5274 834.642 63.9476 Z" fill="#000000" fill-rule="nonzero" fill-opacity="1" /><path clip-path="url(#clip170)" d="M896.176 48.0275 L896.176 51.6733 L861.905 51.6733 Q862.391 59.3701 866.523 63.421 Q870.695 67.4314 878.109 67.4314 Q882.403 67.4314 886.413 66.3781 Q890.464 65.3249 894.434 63.2184 L894.434 70.267 Q890.423 71.9684 886.21 72.8596 Q881.997 73.7508 877.663 73.7508 Q866.807 73.7508 860.447 67.4314 Q854.127 61.1119 854.127 50.3365 Q854.127 39.1965 860.123 32.6746 Q866.158 26.1121 876.367 26.1121 Q885.522 26.1121 890.828 32.0264 Q896.176 37.9003 896.176 48.0275 M888.722 45.84 Q888.641 39.7232 885.279 36.0774 Q881.957 32.4315 876.448 32.4315 Q870.209 32.4315 866.442 35.9558 Q862.715 39.4801 862.148 45.8805 L888.722 45.84 Z" fill="#000000" fill-rule="nonzero" fill-opacity="1" /><path clip-path="url(#clip170)" d="M934.7 34.1734 Q933.444 33.4443 931.945 33.1202 Q930.487 32.7556 928.704 32.7556 Q922.385 32.7556 918.982 36.8875 Q915.62 40.9789 915.62 48.6757 L915.62 72.576 L908.126 72.576 L908.126 27.2059 L915.62 27.2059 L915.62 34.2544 Q917.969 30.1225 921.737 28.1376 Q925.504 26.1121 930.892 26.1121 Q931.662 26.1121 932.593 26.2337 Q933.525 26.3147 934.659 26.5172 L934.7 34.1734 Z" fill="#000000" fill-rule="nonzero" fill-opacity="1" /><path clip-path="url(#clip170)" d="M958.276 32.4315 Q952.281 32.4315 948.797 37.1306 Q945.313 41.7891 945.313 49.9314 Q945.313 58.0738 948.756 62.7728 Q952.24 67.4314 958.276 67.4314 Q964.231 67.4314 967.715 62.7323 Q971.198 58.0333 971.198 49.9314 Q971.198 41.8701 967.715 37.1711 Q964.231 32.4315 958.276 32.4315 M958.276 26.1121 Q967.998 26.1121 973.548 32.4315 Q979.098 38.7509 979.098 49.9314 Q979.098 61.0714 973.548 67.4314 Q967.998 73.7508 958.276 73.7508 Q948.513 73.7508 942.964 67.4314 Q937.454 61.0714 937.454 49.9314 Q937.454 38.7509 942.964 32.4315 Q948.513 26.1121 958.276 26.1121 Z" fill="#000000" fill-rule="nonzero" fill-opacity="1" /><path clip-path="url(#clip170)" d="M1029.17 45.1919 L1029.17 72.576 L1021.71 72.576 L1021.71 45.4349 Q1021.71 38.994 1019.2 35.7938 Q1016.69 32.5936 1011.67 32.5936 Q1005.63 32.5936 1002.15 36.4419 Q998.663 40.2903 998.663 46.9338 L998.663 72.576 L991.169 72.576 L991.169 27.2059 L998.663 27.2059 L998.663 34.2544 Q1001.34 30.163 1004.94 28.1376 Q1008.59 26.1121 1013.33 26.1121 Q1021.15 26.1121 1025.16 30.9732 Q1029.17 35.7938 1029.17 45.1919 Z" fill="#000000" fill-rule="nonzero" fill-opacity="1" /><path clip-path="url(#clip170)" d="M1061.61 32.4315 Q1055.62 32.4315 1052.14 37.1306 Q1048.65 41.7891 1048.65 49.9314 Q1048.65 58.0738 1052.09 62.7728 Q1055.58 67.4314 1061.61 67.4314 Q1067.57 67.4314 1071.05 62.7323 Q1074.54 58.0333 1074.54 49.9314 Q1074.54 41.8701 1071.05 37.1711 Q1067.57 32.4315 1061.61 32.4315 M1061.61 26.1121 Q1071.34 26.1121 1076.89 32.4315 Q1082.44 38.7509 1082.44 49.9314 Q1082.44 61.0714 1076.89 67.4314 Q1071.34 73.7508 1061.61 73.7508 Q1051.85 73.7508 1046.3 67.4314 Q1040.79 61.0714 1040.79 49.9314 Q1040.79 38.7509 1046.3 32.4315 Q1051.85 26.1121 1061.61 26.1121 Z" fill="#000000" fill-rule="nonzero" fill-opacity="1" /><path clip-path="url(#clip170)" d="M1089.44 27.2059 L1097.34 27.2059 L1111.52 65.2844 L1125.7 27.2059 L1133.6 27.2059 L1116.59 72.576 L1106.46 72.576 L1089.44 27.2059 Z" fill="#000000" fill-rule="nonzero" fill-opacity="1" /><path clip-path="url(#clip170)" d="M1164.51 49.7694 Q1155.47 49.7694 1151.99 51.8354 Q1148.51 53.9013 1148.51 58.8839 Q1148.51 62.8538 1151.1 65.2034 Q1153.73 67.5124 1158.23 67.5124 Q1164.43 67.5124 1168.15 63.1374 Q1171.92 58.7219 1171.92 51.4303 L1171.92 49.7694 L1164.51 49.7694 M1179.37 46.6907 L1179.37 72.576 L1171.92 72.576 L1171.92 65.6895 Q1169.37 69.8214 1165.56 71.8063 Q1161.75 73.7508 1156.24 73.7508 Q1149.28 73.7508 1145.14 69.8619 Q1141.05 65.9325 1141.05 59.3701 Q1141.05 51.7138 1146.16 47.825 Q1151.3 43.9361 1161.47 43.9361 L1171.92 43.9361 L1171.92 43.2069 Q1171.92 38.0623 1168.52 35.2672 Q1165.16 32.4315 1159.04 32.4315 Q1155.15 32.4315 1151.46 33.3632 Q1147.78 34.295 1144.37 36.1584 L1144.37 29.2718 Q1148.47 27.692 1152.31 26.9223 Q1156.16 26.1121 1159.81 26.1121 Q1169.65 26.1121 1174.51 31.2163 Q1179.37 36.3204 1179.37 46.6907 Z" fill="#000000" fill-rule="nonzero" fill-opacity="1" /><path clip-path="url(#clip170)" d="M1221.1 9.54393 L1228.55 9.54393 L1228.55 72.576 L1221.1 72.576 L1221.1 9.54393 Z" fill="#000000" fill-rule="nonzero" fill-opacity="1" /><path clip-path="url(#clip170)" d="M1282.96 48.0275 L1282.96 51.6733 L1248.69 51.6733 Q1249.17 59.3701 1253.3 63.421 Q1257.48 67.4314 1264.89 67.4314 Q1269.18 67.4314 1273.19 66.3781 Q1277.24 65.3249 1281.21 63.2184 L1281.21 70.267 Q1277.2 71.9684 1272.99 72.8596 Q1268.78 73.7508 1264.44 73.7508 Q1253.59 73.7508 1247.23 67.4314 Q1240.91 61.1119 1240.91 50.3365 Q1240.91 39.1965 1246.9 32.6746 Q1252.94 26.1121 1263.15 26.1121 Q1272.3 26.1121 1277.61 32.0264 Q1282.96 37.9003 1282.96 48.0275 M1275.5 45.84 Q1275.42 39.7232 1272.06 36.0774 Q1268.74 32.4315 1263.23 32.4315 Q1256.99 32.4315 1253.22 35.9558 Q1249.5 39.4801 1248.93 45.8805 L1275.5 45.84 Z" fill="#000000" fill-rule="nonzero" fill-opacity="1" /><path clip-path="url(#clip170)" d="M1330.51 35.9153 Q1333.31 30.8922 1337.2 28.5022 Q1341.09 26.1121 1346.35 26.1121 Q1353.44 26.1121 1357.29 31.0947 Q1361.14 36.0368 1361.14 45.1919 L1361.14 72.576 L1353.64 72.576 L1353.64 45.4349 Q1353.64 38.913 1351.34 35.7533 Q1349.03 32.5936 1344.29 32.5936 Q1338.49 32.5936 1335.13 36.4419 Q1331.77 40.2903 1331.77 46.9338 L1331.77 72.576 L1324.28 72.576 L1324.28 45.4349 Q1324.28 38.8725 1321.97 35.7533 Q1319.66 32.5936 1314.84 32.5936 Q1309.12 32.5936 1305.76 36.4824 Q1302.4 40.3308 1302.4 46.9338 L1302.4 72.576 L1294.91 72.576 L1294.91 27.2059 L1302.4 27.2059 L1302.4 34.2544 Q1304.95 30.082 1308.52 28.0971 Q1312.08 26.1121 1316.98 26.1121 Q1321.93 26.1121 1325.37 28.6237 Q1328.85 31.1352 1330.51 35.9153 Z" fill="#000000" fill-rule="nonzero" fill-opacity="1" /><path clip-path="url(#clip170)" d="M1413.72 45.1919 L1413.72 72.576 L1406.27 72.576 L1406.27 45.4349 Q1406.27 38.994 1403.75 35.7938 Q1401.24 32.5936 1396.22 32.5936 Q1390.18 32.5936 1386.7 36.4419 Q1383.22 40.2903 1383.22 46.9338 L1383.22 72.576 L1375.72 72.576 L1375.72 27.2059 L1383.22 27.2059 L1383.22 34.2544 Q1385.89 30.163 1389.49 28.1376 Q1393.14 26.1121 1397.88 26.1121 Q1405.7 26.1121 1409.71 30.9732 Q1413.72 35.7938 1413.72 45.1919 Z" fill="#000000" fill-rule="nonzero" fill-opacity="1" /><path clip-path="url(#clip170)" d="M1428.59 27.2059 L1436.04 27.2059 L1436.04 72.576 L1428.59 72.576 L1428.59 27.2059 M1428.59 9.54393 L1436.04 9.54393 L1436.04 18.9825 L1428.59 18.9825 L1428.59 9.54393 Z" fill="#000000" fill-rule="nonzero" fill-opacity="1" /><path clip-path="url(#clip170)" d="M1480.56 28.5427 L1480.56 35.5912 Q1477.4 33.9709 1474 33.1607 Q1470.59 32.3505 1466.95 32.3505 Q1461.4 32.3505 1458.6 34.0519 Q1455.85 35.7533 1455.85 39.156 Q1455.85 41.7486 1457.83 43.2475 Q1459.82 44.7058 1465.81 46.0426 L1468.37 46.6097 Q1476.31 48.3111 1479.63 51.4303 Q1482.99 54.509 1482.99 60.0587 Q1482.99 66.3781 1477.97 70.0644 Q1472.98 73.7508 1464.23 73.7508 Q1460.59 73.7508 1456.62 73.0216 Q1452.69 72.3329 1448.31 70.9151 L1448.31 63.2184 Q1452.45 65.3654 1456.46 66.4591 Q1460.47 67.5124 1464.4 67.5124 Q1469.66 67.5124 1472.5 65.73 Q1475.33 63.9071 1475.33 60.6258 Q1475.33 57.5877 1473.27 55.9673 Q1471.24 54.3469 1464.31 52.8481 L1461.72 52.2405 Q1454.8 50.7821 1451.72 47.7845 Q1448.64 44.7463 1448.64 39.4801 Q1448.64 33.0797 1453.17 29.5959 Q1457.71 26.1121 1466.06 26.1121 Q1470.19 26.1121 1473.83 26.7198 Q1477.48 27.3274 1480.56 28.5427 Z" fill="#000000" fill-rule="nonzero" fill-opacity="1" /><path clip-path="url(#clip170)" d="M1494.58 9.54393 L1502.07 9.54393 L1502.07 46.7717 L1524.31 27.2059 L1533.83 27.2059 L1509.77 48.4326 L1534.84 72.576 L1525.12 72.576 L1502.07 50.4176 L1502.07 72.576 L1494.58 72.576 L1494.58 9.54393 Z" fill="#000000" fill-rule="nonzero" fill-opacity="1" /><path clip-path="url(#clip170)" d="M1562.06 49.7694 Q1553.03 49.7694 1549.55 51.8354 Q1546.06 53.9013 1546.06 58.8839 Q1546.06 62.8538 1548.65 65.2034 Q1551.29 67.5124 1555.78 67.5124 Q1561.98 67.5124 1565.71 63.1374 Q1569.48 58.7219 1569.48 51.4303 L1569.48 49.7694 L1562.06 49.7694 M1576.93 46.6907 L1576.93 72.576 L1569.48 72.576 L1569.48 65.6895 Q1566.92 69.8214 1563.12 71.8063 Q1559.31 73.7508 1553.8 73.7508 Q1546.83 73.7508 1542.7 69.8619 Q1538.61 65.9325 1538.61 59.3701 Q1538.61 51.7138 1543.71 47.825 Q1548.86 43.9361 1559.03 43.9361 L1569.48 43.9361 L1569.48 43.2069 Q1569.48 38.0623 1566.07 35.2672 Q1562.71 32.4315 1556.59 32.4315 Q1552.71 32.4315 1549.02 33.3632 Q1545.33 34.295 1541.93 36.1584 L1541.93 29.2718 Q1546.02 27.692 1549.87 26.9223 Q1553.72 26.1121 1557.36 26.1121 Q1567.21 26.1121 1572.07 31.2163 Q1576.93 36.3204 1576.93 46.6907 Z" fill="#000000" fill-rule="nonzero" fill-opacity="1" /><path clip-path="url(#clip170)" d="M1599.66 14.324 L1599.66 27.2059 L1615.01 27.2059 L1615.01 32.9987 L1599.66 32.9987 L1599.66 57.6282 Q1599.66 63.1779 1601.15 64.7578 Q1602.69 66.3376 1607.35 66.3376 L1615.01 66.3376 L1615.01 72.576 L1607.35 72.576 Q1598.72 72.576 1595.44 69.3758 Q1592.16 66.1351 1592.16 57.6282 L1592.16 32.9987 L1586.69 32.9987 L1586.69 27.2059 L1592.16 27.2059 L1592.16 14.324 L1599.66 14.324 Z" fill="#000000" fill-rule="nonzero" fill-opacity="1" /><path clip-path="url(#clip170)" d="M1645.43 49.7694 Q1636.4 49.7694 1632.91 51.8354 Q1629.43 53.9013 1629.43 58.8839 Q1629.43 62.8538 1632.02 65.2034 Q1634.66 67.5124 1639.15 67.5124 Q1645.35 67.5124 1649.08 63.1374 Q1652.84 58.7219 1652.84 51.4303 L1652.84 49.7694 L1645.43 49.7694 M1660.3 46.6907 L1660.3 72.576 L1652.84 72.576 L1652.84 65.6895 Q1650.29 69.8214 1646.48 71.8063 Q1642.68 73.7508 1637.17 73.7508 Q1630.2 73.7508 1626.07 69.8619 Q1621.98 65.9325 1621.98 59.3701 Q1621.98 51.7138 1627.08 47.825 Q1632.22 43.9361 1642.39 43.9361 L1652.84 43.9361 L1652.84 43.2069 Q1652.84 38.0623 1649.44 35.2672 Q1646.08 32.4315 1639.96 32.4315 Q1636.07 32.4315 1632.39 33.3632 Q1628.7 34.295 1625.3 36.1584 L1625.3 29.2718 Q1629.39 27.692 1633.24 26.9223 Q1637.09 26.1121 1640.73 26.1121 Q1650.58 26.1121 1655.44 31.2163 Q1660.3 36.3204 1660.3 46.6907 Z" fill="#000000" fill-rule="nonzero" fill-opacity="1" /><polyline clip-path="url(#clip172)" style="stroke:#009af9; stroke-linecap:round; stroke-linejoin:round; stroke-width:4; stroke-opacity:1; fill:none" points="2198.36,1208.57 2197.35,1210.8 2196.32,1213.05 2195.27,1215.31 2194.2,1217.59 2193.1,1219.89 2191.99,1222.21 2190.85,1224.54 2189.69,1226.89 2188.51,1229.26 2187.3,1231.64 2186.07,1234.04 2184.81,1236.46 2183.53,1238.89 2182.22,1241.34 2180.88,1243.81 2179.52,1246.29 2178.12,1248.79 2176.7,1251.31 2175.24,1253.84 2173.76,1256.39 2172.24,1258.95 2170.69,1261.53 2169.1,1264.12 2167.48,1266.73 2165.82,1269.35 2164.12,1271.98 2162.39,1274.63 2160.61,1277.29 2158.8,1279.96 2156.94,1282.65 2155.04,1285.34 2153.09,1288.04 2151.1,1290.76 2149.06,1293.48 2146.97,1296.21 2144.83,1298.94 2142.64,1301.68 2140.4,1304.43 2138.1,1307.18 2135.74,1309.93 2133.32,1312.68 2130.84,1315.43 2128.3,1318.18 2125.69,1320.92 2123.01,1323.66 2120.27,1326.39 2117.45,1329.1 2114.55,1331.81 2111.58,1334.5 2108.53,1337.18 2105.4,1339.83 2102.18,1342.46 2098.87,1345.07 2095.47,1347.64 2091.97,1350.18 2088.38,1352.69 2084.68,1355.15 2080.88,1357.57 2076.96,1359.94 2072.93,1362.25 2068.79,1364.51 2064.52,1366.69 2060.12,1368.81 2055.59,1370.85 2050.92,1372.8 2046.11,1374.66 2041.14,1376.41 2036.03,1378.06 2030.75,1379.59 2025.31,1381 2019.69,1382.26 2013.89,1383.38 2007.9,1384.34 2001.71,1385.12 1995.32,1385.72 1988.72,1386.12 1981.89,1386.31 1974.84,1386.26 1967.54,1385.97 1959.99,1385.41 1952.18,1384.57 1944.09,1383.43 1935.72,1381.96 1927.05,1380.13 1918.06,1377.94 1908.76,1375.35 1899.11,1372.32 1889.11,1368.85 1878.74,1364.88 1867.98,1360.39 1856.82,1355.35 1845.24,1349.72 1833.22,1343.46 1820.73,1336.52 1807.76,1328.88 1794.29,1320.47 1780.3,1311.26 1765.75,1301.19 1750.64,1290.22 1734.92,1278.29 1718.58,1265.35 1701.58,1251.33 1683.91,1236.19 1665.53,1219.85 1646.4,1202.27 1626.51,1183.39 1605.82,1163.14 1584.29,1141.46 1561.9,1118.3 1538.62,1093.62 1514.4,1067.35 1489.23,1039.46 1463.07,1009.91 1435.9,978.688 1407.67,945.775 1378.38,911.179 1347.99,874.922 1316.5,837.05 1283.88,797.632 1250.13,756.769 1215.25,714.597 1179.25,671.287 1142.14,627.057 1103.95,582.171 1064.72,536.947 1024.51,491.756 983.392,447.033 941.45,403.27 898.793,361.023 855.554,320.906 811.885,283.59 767.964,249.793 723.993,220.268 680.201,195.792 636.84,177.141 594.189,165.073 552.549,160.295 512.239,163.435 473.595,175.008 436.966,195.385 402.703,224.758 371.157,263.111 342.67,310.2 317.566,365.538 296.142,428.388 278.663,497.774 265.349,572.501 256.375,651.187 251.857,732.309 251.857,814.251 256.375,895.373 265.349,974.059 278.663,1048.79 296.142,1118.17 317.566,1181.02 342.67,1236.36 371.157,1283.45 402.703,1321.8 436.966,1351.17 473.595,1371.55 512.239,1383.13 552.549,1386.27 594.189,1381.49 636.84,1369.42 680.201,1350.77 723.993,1326.29 767.964,1296.77 811.885,1262.97 855.554,1225.65 898.793,1185.54 941.45,1143.29 983.392,1099.53 1024.51,1054.8 1064.72,1009.61 1103.95,964.389 1142.14,919.503 1179.25,875.273 1215.25,831.963 1250.13,789.791 1283.88,748.928 1316.5,709.51 1347.99,671.638 1378.38,635.381 1407.67,600.785 1435.9,567.872 1463.07,536.649 1489.23,507.104 1514.4,479.213 1538.62,452.944 1561.9,428.256 1584.29,405.099 1605.82,383.423 1626.51,363.171 1646.4,344.285 1665.53,326.706 1683.91,310.375 1701.58,295.23 1718.58,281.215 1734.92,268.27 1750.64,256.339 1765.75,245.367 1780.3,235.3 1794.29,226.089 1807.76,217.683 1820.73,210.036 1833.22,203.102 1845.24,196.839 1856.82,191.207 1867.98,186.166 1878.74,181.68 1889.11,177.714 1899.11,174.236 1908.76,171.215 1918.06,168.62 1927.05,166.425 1935.72,164.604 1944.09,163.133 1952.18,161.987 1959.99,161.146 1967.54,160.59 1974.84,160.298 1981.89,160.254 1988.72,160.439 1995.32,160.839 2001.71,161.439 2007.9,162.224 2013.89,163.181 2019.69,164.298 2025.31,165.563 2030.75,166.967 2036.03,168.497 2041.14,170.146 2046.11,171.904 2050.92,173.762 2055.59,175.713 2060.12,177.75 2064.52,179.865 2068.79,182.052 2072.93,184.306 2076.96,186.619 2080.88,188.988 2084.68,191.407 2088.38,193.871 2091.97,196.376 2095.47,198.918 2098.87,201.494 2102.18,204.098 2105.4,206.729 2108.53,209.384 2111.58,212.058 2114.55,214.749 2117.45,217.456 2120.27,220.175 2123.01,222.904 2125.69,225.641 2128.3,228.384 2130.84,231.131 2133.32,233.881 2135.74,236.632 2138.1,239.382 2140.4,242.131 2142.64,244.876 2144.83,247.617 2146.97,250.353 2149.06,253.082 2151.1,255.803 2153.09,258.516 2155.04,261.22 2156.94,263.914 2158.8,266.597 2160.61,269.269 2162.39,271.929 2164.12,274.576 2165.82,277.21 2167.48,279.831 2169.1,282.438 2170.69,285.03 2172.24,287.608 2173.76,290.171 2175.24,292.719 2176.7,295.251 2178.12,297.767 2179.52,300.267 2180.88,302.75 2182.22,305.218 2183.53,307.669 2184.81,310.103 2186.07,312.52 2187.3,314.921 2188.51,317.304 2189.69,319.671 2190.85,322.02 2191.99,324.353 2193.1,326.668 2194.2,328.966 2195.27,331.247 2196.32,333.511 2197.35,335.757 2198.36,337.987 "/>
</svg>
