<?xml version="1.0" encoding="utf-8"?>
<svg xmlns="http://www.w3.org/2000/svg" xmlns:xlink="http://www.w3.org/1999/xlink" width="600" height="400" viewBox="0 0 2400 1600">
<defs>
  <clipPath id="clip190">
    <rect x="0" y="0" width="2400" height="1600"/>
  </clipPath>
</defs>
<path clip-path="url(#clip190)" d="M0 1600 L2400 1600 L2400 0 L0 0  Z" fill="#ffffff" fill-rule="evenodd" fill-opacity="1"/>
<defs>
  <clipPath id="clip191">
    <rect x="480" y="0" width="1681" height="1600"/>
  </clipPath>
</defs>
<path clip-path="url(#clip190)" d="M193.936 1486.45 L2352.76 1486.45 L2352.76 123.472 L193.936 123.472  Z" fill="#ffffff" fill-rule="evenodd" fill-opacity="1"/>
<defs>
  <clipPath id="clip192">
    <rect x="193" y="123" width="2160" height="1364"/>
  </clipPath>
</defs>
<polyline clip-path="url(#clip192)" style="stroke:#000000; stroke-linecap:round; stroke-linejoin:round; stroke-width:2; stroke-opacity:0.1; fill:none" points="255.035,1486.45 255.035,123.472 "/>
<polyline clip-path="url(#clip192)" style="stroke:#000000; stroke-linecap:round; stroke-linejoin:round; stroke-width:2; stroke-opacity:0.1; fill:none" points="933.909,1486.45 933.909,123.472 "/>
<polyline clip-path="url(#clip192)" style="stroke:#000000; stroke-linecap:round; stroke-linejoin:round; stroke-width:2; stroke-opacity:0.1; fill:none" points="1612.78,1486.45 1612.78,123.472 "/>
<polyline clip-path="url(#clip192)" style="stroke:#000000; stroke-linecap:round; stroke-linejoin:round; stroke-width:2; stroke-opacity:0.1; fill:none" points="2291.66,1486.45 2291.66,123.472 "/>
<polyline clip-path="url(#clip192)" style="stroke:#000000; stroke-linecap:round; stroke-linejoin:round; stroke-width:2; stroke-opacity:0.1; fill:none" points="193.936,1447.87 2352.76,1447.87 "/>
<polyline clip-path="url(#clip192)" style="stroke:#000000; stroke-linecap:round; stroke-linejoin:round; stroke-width:2; stroke-opacity:0.1; fill:none" points="193.936,1162.13 2352.76,1162.13 "/>
<polyline clip-path="url(#clip192)" style="stroke:#000000; stroke-linecap:round; stroke-linejoin:round; stroke-width:2; stroke-opacity:0.1; fill:none" points="193.936,876.383 2352.76,876.383 "/>
<polyline clip-path="url(#clip192)" style="stroke:#000000; stroke-linecap:round; stroke-linejoin:round; stroke-width:2; stroke-opacity:0.1; fill:none" points="193.936,590.638 2352.76,590.638 "/>
<polyline clip-path="url(#clip192)" style="stroke:#000000; stroke-linecap:round; stroke-linejoin:round; stroke-width:2; stroke-opacity:0.1; fill:none" points="193.936,304.893 2352.76,304.893 "/>
<polyline clip-path="url(#clip190)" style="stroke:#000000; stroke-linecap:round; stroke-linejoin:round; stroke-width:4; stroke-opacity:1; fill:none" points="193.936,1486.45 2352.76,1486.45 "/>
<polyline clip-path="url(#clip190)" style="stroke:#000000; stroke-linecap:round; stroke-linejoin:round; stroke-width:4; stroke-opacity:1; fill:none" points="255.035,1486.45 255.035,1467.55 "/>
<polyline clip-path="url(#clip190)" style="stroke:#000000; stroke-linecap:round; stroke-linejoin:round; stroke-width:4; stroke-opacity:1; fill:none" points="933.909,1486.45 933.909,1467.55 "/>
<polyline clip-path="url(#clip190)" style="stroke:#000000; stroke-linecap:round; stroke-linejoin:round; stroke-width:4; stroke-opacity:1; fill:none" points="1612.78,1486.45 1612.78,1467.55 "/>
<polyline clip-path="url(#clip190)" style="stroke:#000000; stroke-linecap:round; stroke-linejoin:round; stroke-width:4; stroke-opacity:1; fill:none" points="2291.66,1486.45 2291.66,1467.55 "/>
<path clip-path="url(#clip190)" d="M224.792 1532.02 L254.468 1532.02 L254.468 1535.95 L224.792 1535.95 L224.792 1532.02 Z" fill="#000000" fill-rule="nonzero" fill-opacity="1" /><path clip-path="url(#clip190)" d="M265.37 1544.91 L273.009 1544.91 L273.009 1518.55 L264.699 1520.21 L264.699 1515.95 L272.963 1514.29 L277.639 1514.29 L277.639 1544.91 L285.278 1544.91 L285.278 1548.85 L265.37 1548.85 L265.37 1544.91 Z" fill="#000000" fill-rule="nonzero" fill-opacity="1" /><path clip-path="url(#clip190)" d="M933.909 1517.37 Q930.298 1517.37 928.469 1520.93 Q926.664 1524.47 926.664 1531.6 Q926.664 1538.71 928.469 1542.27 Q930.298 1545.82 933.909 1545.82 Q937.543 1545.82 939.349 1542.27 Q941.177 1538.71 941.177 1531.6 Q941.177 1524.47 939.349 1520.93 Q937.543 1517.37 933.909 1517.37 M933.909 1513.66 Q939.719 1513.66 942.775 1518.27 Q945.853 1522.85 945.853 1531.6 Q945.853 1540.33 942.775 1544.94 Q939.719 1549.52 933.909 1549.52 Q928.099 1549.52 925.02 1544.94 Q921.964 1540.33 921.964 1531.6 Q921.964 1522.85 925.02 1518.27 Q928.099 1513.66 933.909 1513.66 Z" fill="#000000" fill-rule="nonzero" fill-opacity="1" /><path clip-path="url(#clip190)" d="M1603.17 1544.91 L1610.8 1544.91 L1610.8 1518.55 L1602.49 1520.21 L1602.49 1515.95 L1610.76 1514.29 L1615.43 1514.29 L1615.43 1544.91 L1623.07 1544.91 L1623.07 1548.85 L1603.17 1548.85 L1603.17 1544.91 Z" fill="#000000" fill-rule="nonzero" fill-opacity="1" /><path clip-path="url(#clip190)" d="M2286.31 1544.91 L2302.63 1544.91 L2302.63 1548.85 L2280.69 1548.85 L2280.69 1544.91 Q2283.35 1542.16 2287.93 1537.53 Q2292.54 1532.88 2293.72 1531.53 Q2295.96 1529.01 2296.84 1527.27 Q2297.75 1525.51 2297.75 1523.82 Q2297.75 1521.07 2295.8 1519.33 Q2293.88 1517.6 2290.78 1517.6 Q2288.58 1517.6 2286.12 1518.36 Q2283.69 1519.13 2280.92 1520.68 L2280.92 1515.95 Q2283.74 1514.82 2286.19 1514.24 Q2288.65 1513.66 2290.69 1513.66 Q2296.06 1513.66 2299.25 1516.35 Q2302.44 1519.03 2302.44 1523.52 Q2302.44 1525.65 2301.63 1527.57 Q2300.85 1529.47 2298.74 1532.07 Q2298.16 1532.74 2295.06 1535.95 Q2291.96 1539.15 2286.31 1544.91 Z" fill="#000000" fill-rule="nonzero" fill-opacity="1" /><polyline clip-path="url(#clip190)" style="stroke:#000000; stroke-linecap:round; stroke-linejoin:round; stroke-width:4; stroke-opacity:1; fill:none" points="193.936,1486.45 193.936,123.472 "/>
<polyline clip-path="url(#clip190)" style="stroke:#000000; stroke-linecap:round; stroke-linejoin:round; stroke-width:4; stroke-opacity:1; fill:none" points="193.936,1447.87 212.834,1447.87 "/>
<polyline clip-path="url(#clip190)" style="stroke:#000000; stroke-linecap:round; stroke-linejoin:round; stroke-width:4; stroke-opacity:1; fill:none" points="193.936,1162.13 212.834,1162.13 "/>
<polyline clip-path="url(#clip190)" style="stroke:#000000; stroke-linecap:round; stroke-linejoin:round; stroke-width:4; stroke-opacity:1; fill:none" points="193.936,876.383 212.834,876.383 "/>
<polyline clip-path="url(#clip190)" style="stroke:#000000; stroke-linecap:round; stroke-linejoin:round; stroke-width:4; stroke-opacity:1; fill:none" points="193.936,590.638 212.834,590.638 "/>
<polyline clip-path="url(#clip190)" style="stroke:#000000; stroke-linecap:round; stroke-linejoin:round; stroke-width:4; stroke-opacity:1; fill:none" points="193.936,304.893 212.834,304.893 "/>
<path clip-path="url(#clip190)" d="M50.9921 1448.32 L80.6679 1448.32 L80.6679 1452.26 L50.9921 1452.26 L50.9921 1448.32 Z" fill="#000000" fill-rule="nonzero" fill-opacity="1" /><path clip-path="url(#clip190)" d="M94.7882 1461.22 L111.108 1461.22 L111.108 1465.15 L89.1632 1465.15 L89.1632 1461.22 Q91.8252 1458.46 96.4085 1453.83 Q101.015 1449.18 102.196 1447.84 Q104.441 1445.32 105.321 1443.58 Q106.223 1441.82 106.223 1440.13 Q106.223 1437.38 104.279 1435.64 Q102.358 1433.9 99.2558 1433.9 Q97.0567 1433.9 94.603 1434.67 Q92.1725 1435.43 89.3947 1436.98 L89.3947 1432.26 Q92.2188 1431.13 94.6724 1430.55 Q97.1261 1429.97 99.1632 1429.97 Q104.534 1429.97 107.728 1432.65 Q110.922 1435.34 110.922 1439.83 Q110.922 1441.96 110.112 1443.88 Q109.325 1445.78 107.219 1448.37 Q106.64 1449.04 103.538 1452.26 Q100.436 1455.45 94.7882 1461.22 Z" fill="#000000" fill-rule="nonzero" fill-opacity="1" /><path clip-path="url(#clip190)" d="M120.922 1459.27 L125.807 1459.27 L125.807 1465.15 L120.922 1465.15 L120.922 1459.27 Z" fill="#000000" fill-rule="nonzero" fill-opacity="1" /><path clip-path="url(#clip190)" d="M145.992 1433.67 Q142.381 1433.67 140.552 1437.24 Q138.746 1440.78 138.746 1447.91 Q138.746 1455.01 140.552 1458.58 Q142.381 1462.12 145.992 1462.12 Q149.626 1462.12 151.431 1458.58 Q153.26 1455.01 153.26 1447.91 Q153.26 1440.78 151.431 1437.24 Q149.626 1433.67 145.992 1433.67 M145.992 1429.97 Q151.802 1429.97 154.857 1434.57 Q157.936 1439.16 157.936 1447.91 Q157.936 1456.63 154.857 1461.24 Q151.802 1465.82 145.992 1465.82 Q140.181 1465.82 137.103 1461.24 Q134.047 1456.63 134.047 1447.91 Q134.047 1439.16 137.103 1434.57 Q140.181 1429.97 145.992 1429.97 Z" fill="#000000" fill-rule="nonzero" fill-opacity="1" /><path clip-path="url(#clip190)" d="M51.9875 1162.58 L81.6633 1162.58 L81.6633 1166.51 L51.9875 1166.51 L51.9875 1162.58 Z" fill="#000000" fill-rule="nonzero" fill-opacity="1" /><path clip-path="url(#clip190)" d="M92.566 1175.47 L100.205 1175.47 L100.205 1149.11 L91.8947 1150.77 L91.8947 1146.51 L100.159 1144.85 L104.834 1144.85 L104.834 1175.47 L112.473 1175.47 L112.473 1179.41 L92.566 1179.41 L92.566 1175.47 Z" fill="#000000" fill-rule="nonzero" fill-opacity="1" /><path clip-path="url(#clip190)" d="M121.918 1173.53 L126.802 1173.53 L126.802 1179.41 L121.918 1179.41 L121.918 1173.53 Z" fill="#000000" fill-rule="nonzero" fill-opacity="1" /><path clip-path="url(#clip190)" d="M137.033 1144.85 L155.39 1144.85 L155.39 1148.78 L141.316 1148.78 L141.316 1157.26 Q142.334 1156.91 143.353 1156.75 Q144.371 1156.56 145.39 1156.56 Q151.177 1156.56 154.556 1159.73 Q157.936 1162.9 157.936 1168.32 Q157.936 1173.9 154.464 1177 Q150.992 1180.08 144.672 1180.08 Q142.496 1180.08 140.228 1179.71 Q137.982 1179.34 135.575 1178.6 L135.575 1173.9 Q137.658 1175.03 139.881 1175.59 Q142.103 1176.14 144.58 1176.14 Q148.584 1176.14 150.922 1174.04 Q153.26 1171.93 153.26 1168.32 Q153.26 1164.71 150.922 1162.6 Q148.584 1160.5 144.58 1160.5 Q142.705 1160.5 140.83 1160.91 Q138.978 1161.33 137.033 1162.21 L137.033 1144.85 Z" fill="#000000" fill-rule="nonzero" fill-opacity="1" /><path clip-path="url(#clip190)" d="M50.9921 876.834 L80.6679 876.834 L80.6679 880.77 L50.9921 880.77 L50.9921 876.834 Z" fill="#000000" fill-rule="nonzero" fill-opacity="1" /><path clip-path="url(#clip190)" d="M91.5706 889.728 L99.2095 889.728 L99.2095 863.362 L90.8993 865.029 L90.8993 860.77 L99.1632 859.103 L103.839 859.103 L103.839 889.728 L111.478 889.728 L111.478 893.663 L91.5706 893.663 L91.5706 889.728 Z" fill="#000000" fill-rule="nonzero" fill-opacity="1" /><path clip-path="url(#clip190)" d="M120.922 887.783 L125.807 887.783 L125.807 893.663 L120.922 893.663 L120.922 887.783 Z" fill="#000000" fill-rule="nonzero" fill-opacity="1" /><path clip-path="url(#clip190)" d="M145.992 862.182 Q142.381 862.182 140.552 865.747 Q138.746 869.288 138.746 876.418 Q138.746 883.524 140.552 887.089 Q142.381 890.631 145.992 890.631 Q149.626 890.631 151.431 887.089 Q153.26 883.524 153.26 876.418 Q153.26 869.288 151.431 865.747 Q149.626 862.182 145.992 862.182 M145.992 858.478 Q151.802 858.478 154.857 863.084 Q157.936 867.668 157.936 876.418 Q157.936 885.145 154.857 889.751 Q151.802 894.334 145.992 894.334 Q140.181 894.334 137.103 889.751 Q134.047 885.145 134.047 876.418 Q134.047 867.668 137.103 863.084 Q140.181 858.478 145.992 858.478 Z" fill="#000000" fill-rule="nonzero" fill-opacity="1" /><path clip-path="url(#clip190)" d="M51.9875 591.089 L81.6633 591.089 L81.6633 595.025 L51.9875 595.025 L51.9875 591.089 Z" fill="#000000" fill-rule="nonzero" fill-opacity="1" /><path clip-path="url(#clip190)" d="M101.756 576.437 Q98.1447 576.437 96.316 580.001 Q94.5104 583.543 94.5104 590.673 Q94.5104 597.779 96.316 601.344 Q98.1447 604.886 101.756 604.886 Q105.39 604.886 107.196 601.344 Q109.024 597.779 109.024 590.673 Q109.024 583.543 107.196 580.001 Q105.39 576.437 101.756 576.437 M101.756 572.733 Q107.566 572.733 110.621 577.339 Q113.7 581.923 113.7 590.673 Q113.7 599.4 110.621 604.006 Q107.566 608.589 101.756 608.589 Q95.9456 608.589 92.8669 604.006 Q89.8114 599.4 89.8114 590.673 Q89.8114 581.923 92.8669 577.339 Q95.9456 572.733 101.756 572.733 Z" fill="#000000" fill-rule="nonzero" fill-opacity="1" /><path clip-path="url(#clip190)" d="M121.918 602.038 L126.802 602.038 L126.802 607.918 L121.918 607.918 L121.918 602.038 Z" fill="#000000" fill-rule="nonzero" fill-opacity="1" /><path clip-path="url(#clip190)" d="M137.033 573.358 L155.39 573.358 L155.39 577.293 L141.316 577.293 L141.316 585.765 Q142.334 585.418 143.353 585.256 Q144.371 585.071 145.39 585.071 Q151.177 585.071 154.556 588.242 Q157.936 591.413 157.936 596.83 Q157.936 602.409 154.464 605.511 Q150.992 608.589 144.672 608.589 Q142.496 608.589 140.228 608.219 Q137.982 607.849 135.575 607.108 L135.575 602.409 Q137.658 603.543 139.881 604.099 Q142.103 604.654 144.58 604.654 Q148.584 604.654 150.922 602.548 Q153.26 600.441 153.26 596.83 Q153.26 593.219 150.922 591.113 Q148.584 589.006 144.58 589.006 Q142.705 589.006 140.83 589.423 Q138.978 589.839 137.033 590.719 L137.033 573.358 Z" fill="#000000" fill-rule="nonzero" fill-opacity="1" /><path clip-path="url(#clip190)" d="M100.76 290.692 Q97.1493 290.692 95.3206 294.256 Q93.515 297.798 93.515 304.928 Q93.515 312.034 95.3206 315.599 Q97.1493 319.141 100.76 319.141 Q104.395 319.141 106.2 315.599 Q108.029 312.034 108.029 304.928 Q108.029 297.798 106.2 294.256 Q104.395 290.692 100.76 290.692 M100.76 286.988 Q106.571 286.988 109.626 291.594 Q112.705 296.178 112.705 304.928 Q112.705 313.654 109.626 318.261 Q106.571 322.844 100.76 322.844 Q94.9502 322.844 91.8715 318.261 Q88.816 313.654 88.816 304.928 Q88.816 296.178 91.8715 291.594 Q94.9502 286.988 100.76 286.988 Z" fill="#000000" fill-rule="nonzero" fill-opacity="1" /><path clip-path="url(#clip190)" d="M120.922 316.293 L125.807 316.293 L125.807 322.173 L120.922 322.173 L120.922 316.293 Z" fill="#000000" fill-rule="nonzero" fill-opacity="1" /><path clip-path="url(#clip190)" d="M145.992 290.692 Q142.381 290.692 140.552 294.256 Q138.746 297.798 138.746 304.928 Q138.746 312.034 140.552 315.599 Q142.381 319.141 145.992 319.141 Q149.626 319.141 151.431 315.599 Q153.26 312.034 153.26 304.928 Q153.26 297.798 151.431 294.256 Q149.626 290.692 145.992 290.692 M145.992 286.988 Q151.802 286.988 154.857 291.594 Q157.936 296.178 157.936 304.928 Q157.936 313.654 154.857 318.261 Q151.802 322.844 145.992 322.844 Q140.181 322.844 137.103 318.261 Q134.047 313.654 134.047 304.928 Q134.047 296.178 137.103 291.594 Q140.181 286.988 145.992 286.988 Z" fill="#000000" fill-rule="nonzero" fill-opacity="1" /><path clip-path="url(#clip190)" d="M735.994 63.9476 L735.994 47.7034 L722.626 47.7034 L722.626 40.9789 L744.095 40.9789 L744.095 66.9452 Q739.356 70.3075 733.644 72.0494 Q727.932 73.7508 721.451 73.7508 Q707.273 73.7508 699.252 65.4869 Q691.272 57.1826 691.272 42.3968 Q691.272 27.5705 699.252 19.3066 Q707.273 11.0023 721.451 11.0023 Q727.365 11.0023 732.672 12.4606 Q738.019 13.9189 742.515 16.7545 L742.515 25.464 Q737.978 21.6156 732.874 19.6712 Q727.77 17.7268 722.139 17.7268 Q711.04 17.7268 705.45 23.9246 Q699.9 30.1225 699.9 42.3968 Q699.9 54.6305 705.45 60.8284 Q711.04 67.0263 722.139 67.0263 Q726.474 67.0263 729.877 66.2971 Q733.279 65.5274 735.994 63.9476 Z" fill="#000000" fill-rule="nonzero" fill-opacity="1" /><path clip-path="url(#clip190)" d="M785.009 34.1734 Q783.754 33.4443 782.255 33.1202 Q780.797 32.7556 779.014 32.7556 Q772.695 32.7556 769.292 36.8875 Q765.93 40.9789 765.93 48.6757 L765.93 72.576 L758.436 72.576 L758.436 27.2059 L765.93 27.2059 L765.93 34.2544 Q768.279 30.1225 772.047 28.1376 Q775.814 26.1121 781.202 26.1121 Q781.971 26.1121 782.903 26.2337 Q783.835 26.3147 784.969 26.5172 L785.009 34.1734 Z" fill="#000000" fill-rule="nonzero" fill-opacity="1" /><path clip-path="url(#clip190)" d="M813.447 49.7694 Q804.413 49.7694 800.93 51.8354 Q797.446 53.9013 797.446 58.8839 Q797.446 62.8538 800.038 65.2034 Q802.671 67.5124 807.168 67.5124 Q813.366 67.5124 817.093 63.1374 Q820.86 58.7219 820.86 51.4303 L820.86 49.7694 L813.447 49.7694 M828.314 46.6907 L828.314 72.576 L820.86 72.576 L820.86 65.6895 Q818.308 69.8214 814.5 71.8063 Q810.692 73.7508 805.183 73.7508 Q798.215 73.7508 794.083 69.8619 Q789.992 65.9325 789.992 59.3701 Q789.992 51.7138 795.096 47.825 Q800.241 43.9361 810.409 43.9361 L820.86 43.9361 L820.86 43.2069 Q820.86 38.0623 817.457 35.2672 Q814.095 32.4315 807.978 32.4315 Q804.089 32.4315 800.403 33.3632 Q796.717 34.295 793.314 36.1584 L793.314 29.2718 Q797.405 27.692 801.254 26.9223 Q805.102 26.1121 808.748 26.1121 Q818.591 26.1121 823.453 31.2163 Q828.314 36.3204 828.314 46.6907 Z" fill="#000000" fill-rule="nonzero" fill-opacity="1" /><path clip-path="url(#clip190)" d="M866.635 9.54393 L866.635 15.7418 L859.506 15.7418 Q855.495 15.7418 853.915 17.3622 Q852.376 18.9825 852.376 23.1955 L852.376 27.2059 L864.65 27.2059 L864.65 32.9987 L852.376 32.9987 L852.376 72.576 L844.882 72.576 L844.882 32.9987 L837.752 32.9987 L837.752 27.2059 L844.882 27.2059 L844.882 24.0462 Q844.882 16.471 848.406 13.0277 Q851.93 9.54393 859.587 9.54393 L866.635 9.54393 Z" fill="#000000" fill-rule="nonzero" fill-opacity="1" /><path clip-path="url(#clip190)" d="M918.122 76.7889 Q914.962 84.8907 911.965 87.3618 Q908.967 89.8329 903.944 89.8329 L897.989 89.8329 L897.989 83.5945 L902.364 83.5945 Q905.443 83.5945 907.144 82.1361 Q908.846 80.6778 910.912 75.2496 L912.248 71.8468 L893.898 27.2059 L901.797 27.2059 L915.975 62.6918 L930.153 27.2059 L938.053 27.2059 L918.122 76.7889 Z" fill="#000000" fill-rule="nonzero" fill-opacity="1" /><path clip-path="url(#clip190)" d="M966.247 9.62495 Q960.819 18.942 958.186 28.0566 Q955.553 37.1711 955.553 46.5287 Q955.553 55.8863 958.186 65.0818 Q960.859 74.2369 966.247 83.5134 L959.765 83.5134 Q953.689 73.9938 950.651 64.7983 Q947.653 55.6027 947.653 46.5287 Q947.653 37.4952 950.651 28.3401 Q953.649 19.1851 959.765 9.62495 L966.247 9.62495 Z" fill="#000000" fill-rule="nonzero" fill-opacity="1" /><path clip-path="url(#clip190)" d="M1018.42 27.2059 L1002.02 49.2833 L1019.27 72.576 L1010.48 72.576 L997.277 54.752 L984.071 72.576 L975.28 72.576 L992.902 48.8377 L976.779 27.2059 L985.57 27.2059 L997.601 43.369 L1009.63 27.2059 L1018.42 27.2059 Z" fill="#000000" fill-rule="nonzero" fill-opacity="1" /><path clip-path="url(#clip190)" d="M1028.63 9.62495 L1035.11 9.62495 Q1041.19 19.1851 1044.19 28.3401 Q1047.22 37.4952 1047.22 46.5287 Q1047.22 55.6027 1044.19 64.7983 Q1041.19 73.9938 1035.11 83.5134 L1028.63 83.5134 Q1034.02 74.2369 1036.65 65.0818 Q1039.33 55.8863 1039.33 46.5287 Q1039.33 37.1711 1036.65 28.0566 Q1034.02 18.942 1028.63 9.62495 Z" fill="#000000" fill-rule="nonzero" fill-opacity="1" /><path clip-path="url(#clip190)" d="M1089.52 34.9026 L1141.45 34.9026 L1141.45 41.7081 L1089.52 41.7081 L1089.52 34.9026 M1089.52 51.4303 L1141.45 51.4303 L1141.45 58.3168 L1089.52 58.3168 L1089.52 51.4303 Z" fill="#000000" fill-rule="nonzero" fill-opacity="1" /><path clip-path="url(#clip190)" d="M1222.14 27.2059 L1205.74 49.2833 L1222.99 72.576 L1214.2 72.576 L1201 54.752 L1187.79 72.576 L1179 72.576 L1196.62 48.8377 L1180.5 27.2059 L1189.29 27.2059 L1201.32 43.369 L1213.35 27.2059 L1222.14 27.2059 Z" fill="#000000" fill-rule="nonzero" fill-opacity="1" /><path clip-path="url(#clip190)" d="M1256.13 46.5287 L1277.96 46.5287 L1277.96 53.1722 L1256.13 53.1722 L1256.13 46.5287 Z" fill="#000000" fill-rule="nonzero" fill-opacity="1" /><path clip-path="url(#clip190)" d="M1353.92 27.2059 L1337.51 49.2833 L1354.77 72.576 L1345.98 72.576 L1332.77 54.752 L1319.57 72.576 L1310.78 72.576 L1328.4 48.8377 L1312.28 27.2059 L1321.07 27.2059 L1333.1 43.369 L1345.13 27.2059 L1353.92 27.2059 Z" fill="#000000" fill-rule="nonzero" fill-opacity="1" /><path clip-path="url(#clip190)" d="M1396.21 12.096 L1418.21 34.6595 L1410.06 34.6595 L1392.24 18.6585 L1374.42 34.6595 L1366.27 34.6595 L1388.27 12.096 L1396.21 12.096 Z" fill="#000000" fill-rule="nonzero" fill-opacity="1" /><path clip-path="url(#clip190)" d="M1442.92 65.6895 L1471.48 65.6895 L1471.48 72.576 L1433.07 72.576 L1433.07 65.6895 Q1437.73 60.8689 1445.75 52.7671 Q1453.81 44.6248 1455.88 42.2752 Q1459.81 37.8598 1461.35 34.8216 Q1462.93 31.7429 1462.93 28.7857 Q1462.93 23.9651 1459.53 20.927 Q1456.16 17.8888 1450.74 17.8888 Q1446.89 17.8888 1442.59 19.2256 Q1438.34 20.5624 1433.48 23.2765 L1433.48 15.0127 Q1438.42 13.0277 1442.71 12.015 Q1447.01 11.0023 1450.57 11.0023 Q1459.97 11.0023 1465.56 15.7013 Q1471.15 20.4004 1471.15 28.2591 Q1471.15 31.9859 1469.73 35.3482 Q1468.36 38.6699 1464.67 43.2069 Q1463.66 44.3817 1458.23 50.0125 Q1452.8 55.6027 1442.92 65.6895 Z" fill="#000000" fill-rule="nonzero" fill-opacity="1" /><path clip-path="url(#clip190)" d="M1551.68 45.1919 L1551.68 72.576 L1544.23 72.576 L1544.23 45.4349 Q1544.23 38.994 1541.72 35.7938 Q1539.21 32.5936 1534.18 32.5936 Q1528.15 32.5936 1524.66 36.4419 Q1521.18 40.2903 1521.18 46.9338 L1521.18 72.576 L1513.69 72.576 L1513.69 27.2059 L1521.18 27.2059 L1521.18 34.2544 Q1523.85 30.163 1527.46 28.1376 Q1531.1 26.1121 1535.84 26.1121 Q1543.66 26.1121 1547.67 30.9732 Q1551.68 35.7938 1551.68 45.1919 Z" fill="#000000" fill-rule="nonzero" fill-opacity="1" /><path clip-path="url(#clip190)" d="M1587.17 49.7694 Q1578.14 49.7694 1574.65 51.8354 Q1571.17 53.9013 1571.17 58.8839 Q1571.17 62.8538 1573.76 65.2034 Q1576.39 67.5124 1580.89 67.5124 Q1587.09 67.5124 1590.82 63.1374 Q1594.58 58.7219 1594.58 51.4303 L1594.58 49.7694 L1587.17 49.7694 M1602.04 46.6907 L1602.04 72.576 L1594.58 72.576 L1594.58 65.6895 Q1592.03 69.8214 1588.22 71.8063 Q1584.41 73.7508 1578.91 73.7508 Q1571.94 73.7508 1567.81 69.8619 Q1563.71 65.9325 1563.71 59.3701 Q1563.71 51.7138 1568.82 47.825 Q1573.96 43.9361 1584.13 43.9361 L1594.58 43.9361 L1594.58 43.2069 Q1594.58 38.0623 1591.18 35.2672 Q1587.82 32.4315 1581.7 32.4315 Q1577.81 32.4315 1574.13 33.3632 Q1570.44 34.295 1567.04 36.1584 L1567.04 29.2718 Q1571.13 27.692 1574.98 26.9223 Q1578.82 26.1121 1582.47 26.1121 Q1592.31 26.1121 1597.18 31.2163 Q1602.04 36.3204 1602.04 46.6907 Z" fill="#000000" fill-rule="nonzero" fill-opacity="1" /><path clip-path="url(#clip190)" d="M1643.07 9.54393 L1660.25 9.54393 L1660.25 15.3367 L1650.53 15.3367 L1650.53 77.7206 L1660.25 77.7206 L1660.25 83.5134 L1643.07 83.5134 L1643.07 9.54393 Z" fill="#000000" fill-rule="nonzero" fill-opacity="1" /><path clip-path="url(#clip190)" d="M1672.36 46.5287 L1694.19 46.5287 L1694.19 53.1722 L1672.36 53.1722 L1672.36 46.5287 Z" fill="#000000" fill-rule="nonzero" fill-opacity="1" /><path clip-path="url(#clip190)" d="M1708.53 65.6895 L1721.9 65.6895 L1721.9 19.5497 L1707.36 22.4663 L1707.36 15.0127 L1721.82 12.096 L1730 12.096 L1730 65.6895 L1743.37 65.6895 L1743.37 72.576 L1708.53 72.576 L1708.53 65.6895 Z" fill="#000000" fill-rule="nonzero" fill-opacity="1" /><path clip-path="url(#clip190)" d="M1760.75 62.2867 L1769.3 62.2867 L1769.3 69.2543 L1762.65 82.2172 L1757.43 82.2172 L1760.75 69.2543 L1760.75 62.2867 Z" fill="#000000" fill-rule="nonzero" fill-opacity="1" /><path clip-path="url(#clip190)" d="M1793.32 65.6895 L1821.88 65.6895 L1821.88 72.576 L1783.48 72.576 L1783.48 65.6895 Q1788.13 60.8689 1796.16 52.7671 Q1804.22 44.6248 1806.28 42.2752 Q1810.21 37.8598 1811.75 34.8216 Q1813.33 31.7429 1813.33 28.7857 Q1813.33 23.9651 1809.93 20.927 Q1806.57 17.8888 1801.14 17.8888 Q1797.29 17.8888 1793 19.2256 Q1788.74 20.5624 1783.88 23.2765 L1783.88 15.0127 Q1788.82 13.0277 1793.12 12.015 Q1797.41 11.0023 1800.98 11.0023 Q1810.37 11.0023 1815.96 15.7013 Q1821.55 20.4004 1821.55 28.2591 Q1821.55 31.9859 1820.14 35.3482 Q1818.76 38.6699 1815.07 43.2069 Q1814.06 44.3817 1808.63 50.0125 Q1803.2 55.6027 1793.32 65.6895 Z" fill="#000000" fill-rule="nonzero" fill-opacity="1" /><path clip-path="url(#clip190)" d="M1855.42 9.54393 L1855.42 83.5134 L1838.24 83.5134 L1838.24 77.7206 L1847.93 77.7206 L1847.93 15.3367 L1838.24 15.3367 L1838.24 9.54393 L1855.42 9.54393 Z" fill="#000000" fill-rule="nonzero" fill-opacity="1" /><polyline clip-path="url(#clip192)" style="stroke:#0000ff; stroke-linecap:round; stroke-linejoin:round; stroke-width:4; stroke-opacity:1; fill:none" stroke-dasharray="16, 10" points="255.035,1447.87 265.547,1421.46 276.06,1395.32 306.846,1320.35 337.632,1247.74 368.418,1177.47 399.205,1109.55 427.848,1048.47 456.491,989.428 475.688,950.996 494.884,913.479 514.081,876.874 533.277,841.184 565.001,784.205 596.726,729.722 626.226,681.298 655.726,635.032 692.76,580.008 729.793,528.386 763.012,484.973 796.231,444.298 815.243,422.25 834.254,401.099 853.266,380.844 872.278,361.485 900.701,334.216 929.123,308.95 965.476,279.554 1001.83,253.436 1035.01,232.459 1068.19,214.212 1087.07,205.048 1105.95,196.767 1124.83,189.371 1143.71,182.858 1173.65,174.346 1203.58,168.055 1240.77,163.336 1277.97,162.047 1306.45,163.379 1334.93,166.723 1355.01,170.29 1375.09,174.856 1395.16,180.422 1415.24,186.987 1445.25,198.664 1475.26,212.573 1509.38,231.105 1543.51,252.526 1577.3,276.585 1611.1,303.478 1648.28,336.337 1685.46,372.625 1713.86,402.652 1742.26,434.679 1778.1,477.95 1813.94,524.406 1847.09,570.208 1880.23,618.736 1914.42,671.638 1948.6,727.438 1983.25,786.956 2017.91,849.451 2054.09,917.886 2090.27,989.568 2118.77,1048.32 2147.27,1109.09 2179.73,1180.74 2212.18,1255 2244.64,1331.87 2277.09,1411.35 2280.73,1420.43 2284.37,1429.55 2288.02,1438.69 2291.66,1447.87 "/>
<path clip-path="url(#clip190)" d="M2012.48 272.585 L2280.8 272.585 L2280.8 168.905 L2012.48 168.905  Z" fill="#ffffff" fill-rule="evenodd" fill-opacity="1"/>
<polyline clip-path="url(#clip190)" style="stroke:#000000; stroke-linecap:round; stroke-linejoin:round; stroke-width:4; stroke-opacity:1; fill:none" points="2012.48,272.585 2280.8,272.585 2280.8,168.905 2012.48,168.905 2012.48,272.585 "/>
<polyline clip-path="url(#clip190)" style="stroke:#0000ff; stroke-linecap:round; stroke-linejoin:round; stroke-width:4; stroke-opacity:1; fill:none" stroke-dasharray="16, 10" points="2036.47,220.745 2180.39,220.745 "/>
<path clip-path="url(#clip190)" d="M2218.22 240.432 Q2216.42 245.062 2214.7 246.474 Q2212.99 247.886 2210.12 247.886 L2206.72 247.886 L2206.72 244.321 L2209.22 244.321 Q2210.98 244.321 2211.95 243.488 Q2212.92 242.654 2214.1 239.552 L2214.86 237.608 L2204.38 212.099 L2208.89 212.099 L2216.99 232.377 L2225.1 212.099 L2229.61 212.099 L2218.22 240.432 Z" fill="#000000" fill-rule="nonzero" fill-opacity="1" /><path clip-path="url(#clip190)" d="M2236.9 234.089 L2244.54 234.089 L2244.54 207.724 L2236.23 209.391 L2236.23 205.131 L2244.49 203.465 L2249.17 203.465 L2249.17 234.089 L2256.81 234.089 L2256.81 238.025 L2236.9 238.025 L2236.9 234.089 Z" fill="#000000" fill-rule="nonzero" fill-opacity="1" /></svg>
