<?xml version="1.0" encoding="utf-8"?>
<svg xmlns="http://www.w3.org/2000/svg" xmlns:xlink="http://www.w3.org/1999/xlink" width="576" height="384" viewBox="0 0 2304 1536">
<defs>
  <clipPath id="clip240">
    <rect x="0" y="0" width="2304" height="1536"/>
  </clipPath>
</defs>
<path clip-path="url(#clip240)" d="M0 1536 L2304 1536 L2304 0 L0 0  Z" fill="#ffffff" fill-rule="evenodd" fill-opacity="1"/>
<defs>
  <clipPath id="clip241">
    <rect x="460" y="0" width="1614" height="1536"/>
  </clipPath>
</defs>
<path clip-path="url(#clip240)" d="M111.217 1423.09 L2256.76 1423.09 L2256.76 47.2441 L111.217 47.2441  Z" fill="#ffffff" fill-rule="evenodd" fill-opacity="1"/>
<defs>
  <clipPath id="clip242">
    <rect x="111" y="47" width="2147" height="1377"/>
  </clipPath>
</defs>
<polyline clip-path="url(#clip242)" style="stroke:#000000; stroke-linecap:round; stroke-linejoin:round; stroke-width:2; stroke-opacity:0.1; fill:none" points="171.94,1423.09 171.94,47.2441 "/>
<polyline clip-path="url(#clip242)" style="stroke:#000000; stroke-linecap:round; stroke-linejoin:round; stroke-width:2; stroke-opacity:0.1; fill:none" points="677.963,1423.09 677.963,47.2441 "/>
<polyline clip-path="url(#clip242)" style="stroke:#000000; stroke-linecap:round; stroke-linejoin:round; stroke-width:2; stroke-opacity:0.1; fill:none" points="1183.99,1423.09 1183.99,47.2441 "/>
<polyline clip-path="url(#clip242)" style="stroke:#000000; stroke-linecap:round; stroke-linejoin:round; stroke-width:2; stroke-opacity:0.1; fill:none" points="1690.01,1423.09 1690.01,47.2441 "/>
<polyline clip-path="url(#clip242)" style="stroke:#000000; stroke-linecap:round; stroke-linejoin:round; stroke-width:2; stroke-opacity:0.1; fill:none" points="2196.03,1423.09 2196.03,47.2441 "/>
<polyline clip-path="url(#clip240)" style="stroke:#000000; stroke-linecap:round; stroke-linejoin:round; stroke-width:4; stroke-opacity:1; fill:none" points="111.217,1423.09 2256.76,1423.09 "/>
<polyline clip-path="url(#clip240)" style="stroke:#000000; stroke-linecap:round; stroke-linejoin:round; stroke-width:4; stroke-opacity:1; fill:none" points="171.94,1423.09 171.94,1404.19 "/>
<polyline clip-path="url(#clip240)" style="stroke:#000000; stroke-linecap:round; stroke-linejoin:round; stroke-width:4; stroke-opacity:1; fill:none" points="677.963,1423.09 677.963,1404.19 "/>
<polyline clip-path="url(#clip240)" style="stroke:#000000; stroke-linecap:round; stroke-linejoin:round; stroke-width:4; stroke-opacity:1; fill:none" points="1183.99,1423.09 1183.99,1404.19 "/>
<polyline clip-path="url(#clip240)" style="stroke:#000000; stroke-linecap:round; stroke-linejoin:round; stroke-width:4; stroke-opacity:1; fill:none" points="1690.01,1423.09 1690.01,1404.19 "/>
<polyline clip-path="url(#clip240)" style="stroke:#000000; stroke-linecap:round; stroke-linejoin:round; stroke-width:4; stroke-opacity:1; fill:none" points="2196.03,1423.09 2196.03,1404.19 "/>
<path clip-path="url(#clip240)" d="M171.94 1453.24 Q168.329 1453.24 166.5 1456.8 Q164.695 1460.35 164.695 1467.47 Q164.695 1474.58 166.5 1478.15 Q168.329 1481.69 171.94 1481.69 Q175.574 1481.69 177.38 1478.15 Q179.208 1474.58 179.208 1467.47 Q179.208 1460.35 177.38 1456.8 Q175.574 1453.24 171.94 1453.24 M171.94 1449.53 Q177.75 1449.53 180.806 1454.14 Q183.884 1458.72 183.884 1467.47 Q183.884 1476.2 180.806 1480.81 Q177.75 1485.39 171.94 1485.39 Q166.13 1485.39 163.051 1480.81 Q159.996 1476.2 159.996 1467.47 Q159.996 1458.72 163.051 1454.14 Q166.13 1449.53 171.94 1449.53 Z" fill="#000000" fill-rule="nonzero" fill-opacity="1" /><path clip-path="url(#clip240)" d="M668.241 1450.16 L686.597 1450.16 L686.597 1454.1 L672.523 1454.1 L672.523 1462.57 Q673.542 1462.22 674.56 1462.06 Q675.579 1461.87 676.598 1461.87 Q682.385 1461.87 685.764 1465.04 Q689.144 1468.22 689.144 1473.63 Q689.144 1479.21 685.672 1482.31 Q682.199 1485.39 675.88 1485.39 Q673.704 1485.39 671.436 1485.02 Q669.19 1484.65 666.783 1483.91 L666.783 1479.21 Q668.866 1480.34 671.088 1480.9 Q673.311 1481.46 675.787 1481.46 Q679.792 1481.46 682.13 1479.35 Q684.468 1477.24 684.468 1473.63 Q684.468 1470.02 682.13 1467.91 Q679.792 1465.81 675.787 1465.81 Q673.912 1465.81 672.037 1466.22 Q670.186 1466.64 668.241 1467.52 L668.241 1450.16 Z" fill="#000000" fill-rule="nonzero" fill-opacity="1" /><path clip-path="url(#clip240)" d="M1158.67 1480.78 L1166.31 1480.78 L1166.31 1454.42 L1158 1456.09 L1158 1451.83 L1166.27 1450.16 L1170.94 1450.16 L1170.94 1480.78 L1178.58 1480.78 L1178.58 1484.72 L1158.67 1484.72 L1158.67 1480.78 Z" fill="#000000" fill-rule="nonzero" fill-opacity="1" /><path clip-path="url(#clip240)" d="M1198.03 1453.24 Q1194.41 1453.24 1192.59 1456.8 Q1190.78 1460.35 1190.78 1467.47 Q1190.78 1474.58 1192.59 1478.15 Q1194.41 1481.69 1198.03 1481.69 Q1201.66 1481.69 1203.47 1478.15 Q1205.29 1474.58 1205.29 1467.47 Q1205.29 1460.35 1203.47 1456.8 Q1201.66 1453.24 1198.03 1453.24 M1198.03 1449.53 Q1203.84 1449.53 1206.89 1454.14 Q1209.97 1458.72 1209.97 1467.47 Q1209.97 1476.2 1206.89 1480.81 Q1203.84 1485.39 1198.03 1485.39 Q1192.22 1485.39 1189.14 1480.81 Q1186.08 1476.2 1186.08 1467.47 Q1186.08 1458.72 1189.14 1454.14 Q1192.22 1449.53 1198.03 1449.53 Z" fill="#000000" fill-rule="nonzero" fill-opacity="1" /><path clip-path="url(#clip240)" d="M1665.2 1480.78 L1672.83 1480.78 L1672.83 1454.42 L1664.52 1456.09 L1664.52 1451.83 L1672.79 1450.16 L1677.46 1450.16 L1677.46 1480.78 L1685.1 1480.78 L1685.1 1484.72 L1665.2 1484.72 L1665.2 1480.78 Z" fill="#000000" fill-rule="nonzero" fill-opacity="1" /><path clip-path="url(#clip240)" d="M1694.59 1450.16 L1712.95 1450.16 L1712.95 1454.1 L1698.88 1454.1 L1698.88 1462.57 Q1699.89 1462.22 1700.91 1462.06 Q1701.93 1461.87 1702.95 1461.87 Q1708.74 1461.87 1712.12 1465.04 Q1715.5 1468.22 1715.5 1473.63 Q1715.5 1479.21 1712.02 1482.31 Q1708.55 1485.39 1702.23 1485.39 Q1700.06 1485.39 1697.79 1485.02 Q1695.54 1484.65 1693.13 1483.91 L1693.13 1479.21 Q1695.22 1480.34 1697.44 1480.9 Q1699.66 1481.46 1702.14 1481.46 Q1706.14 1481.46 1708.48 1479.35 Q1710.82 1477.24 1710.82 1473.63 Q1710.82 1470.02 1708.48 1467.91 Q1706.14 1465.81 1702.14 1465.81 Q1700.26 1465.81 1698.39 1466.22 Q1696.54 1466.64 1694.59 1467.52 L1694.59 1450.16 Z" fill="#000000" fill-rule="nonzero" fill-opacity="1" /><path clip-path="url(#clip240)" d="M2174.81 1480.78 L2191.13 1480.78 L2191.13 1484.72 L2169.18 1484.72 L2169.18 1480.78 Q2171.84 1478.03 2176.43 1473.4 Q2181.03 1468.75 2182.21 1467.41 Q2184.46 1464.88 2185.34 1463.15 Q2186.24 1461.39 2186.24 1459.7 Q2186.24 1456.94 2184.3 1455.21 Q2182.38 1453.47 2179.27 1453.47 Q2177.07 1453.47 2174.62 1454.23 Q2172.19 1455 2169.41 1456.55 L2169.41 1451.83 Q2172.24 1450.69 2174.69 1450.11 Q2177.14 1449.53 2179.18 1449.53 Q2184.55 1449.53 2187.75 1452.22 Q2190.94 1454.91 2190.94 1459.4 Q2190.94 1461.53 2190.13 1463.45 Q2189.34 1465.34 2187.24 1467.94 Q2186.66 1468.61 2183.56 1471.83 Q2180.45 1475.02 2174.81 1480.78 Z" fill="#000000" fill-rule="nonzero" fill-opacity="1" /><path clip-path="url(#clip240)" d="M2210.94 1453.24 Q2207.33 1453.24 2205.5 1456.8 Q2203.7 1460.35 2203.7 1467.47 Q2203.7 1474.58 2205.5 1478.15 Q2207.33 1481.69 2210.94 1481.69 Q2214.57 1481.69 2216.38 1478.15 Q2218.21 1474.58 2218.21 1467.47 Q2218.21 1460.35 2216.38 1456.8 Q2214.57 1453.24 2210.94 1453.24 M2210.94 1449.53 Q2216.75 1449.53 2219.81 1454.14 Q2222.88 1458.72 2222.88 1467.47 Q2222.88 1476.2 2219.81 1480.81 Q2216.75 1485.39 2210.94 1485.39 Q2205.13 1485.39 2202.05 1480.81 Q2199 1476.2 2199 1467.47 Q2199 1458.72 2202.05 1454.14 Q2205.13 1449.53 2210.94 1449.53 Z" fill="#000000" fill-rule="nonzero" fill-opacity="1" /><polyline clip-path="url(#clip242)" style="stroke:#000000; stroke-linecap:round; stroke-linejoin:round; stroke-width:2; stroke-opacity:0.1; fill:none" points="111.217,1384.15 2256.76,1384.15 "/>
<polyline clip-path="url(#clip242)" style="stroke:#000000; stroke-linecap:round; stroke-linejoin:round; stroke-width:2; stroke-opacity:0.1; fill:none" points="111.217,1095.71 2256.76,1095.71 "/>
<polyline clip-path="url(#clip242)" style="stroke:#000000; stroke-linecap:round; stroke-linejoin:round; stroke-width:2; stroke-opacity:0.1; fill:none" points="111.217,807.275 2256.76,807.275 "/>
<polyline clip-path="url(#clip242)" style="stroke:#000000; stroke-linecap:round; stroke-linejoin:round; stroke-width:2; stroke-opacity:0.1; fill:none" points="111.217,518.838 2256.76,518.838 "/>
<polyline clip-path="url(#clip242)" style="stroke:#000000; stroke-linecap:round; stroke-linejoin:round; stroke-width:2; stroke-opacity:0.1; fill:none" points="111.217,230.401 2256.76,230.401 "/>
<polyline clip-path="url(#clip240)" style="stroke:#000000; stroke-linecap:round; stroke-linejoin:round; stroke-width:4; stroke-opacity:1; fill:none" points="111.217,1423.09 111.217,47.2441 "/>
<polyline clip-path="url(#clip240)" style="stroke:#000000; stroke-linecap:round; stroke-linejoin:round; stroke-width:4; stroke-opacity:1; fill:none" points="111.217,1384.15 130.115,1384.15 "/>
<polyline clip-path="url(#clip240)" style="stroke:#000000; stroke-linecap:round; stroke-linejoin:round; stroke-width:4; stroke-opacity:1; fill:none" points="111.217,1095.71 130.115,1095.71 "/>
<polyline clip-path="url(#clip240)" style="stroke:#000000; stroke-linecap:round; stroke-linejoin:round; stroke-width:4; stroke-opacity:1; fill:none" points="111.217,807.275 130.115,807.275 "/>
<polyline clip-path="url(#clip240)" style="stroke:#000000; stroke-linecap:round; stroke-linejoin:round; stroke-width:4; stroke-opacity:1; fill:none" points="111.217,518.838 130.115,518.838 "/>
<polyline clip-path="url(#clip240)" style="stroke:#000000; stroke-linecap:round; stroke-linejoin:round; stroke-width:4; stroke-opacity:1; fill:none" points="111.217,230.401 130.115,230.401 "/>
<path clip-path="url(#clip240)" d="M64.7128 1369.95 Q61.1017 1369.95 59.273 1373.51 Q57.4675 1377.05 57.4675 1384.18 Q57.4675 1391.29 59.273 1394.85 Q61.1017 1398.4 64.7128 1398.4 Q68.347 1398.4 70.1526 1394.85 Q71.9813 1391.29 71.9813 1384.18 Q71.9813 1377.05 70.1526 1373.51 Q68.347 1369.95 64.7128 1369.95 M64.7128 1366.24 Q70.5229 1366.24 73.5785 1370.85 Q76.6572 1375.43 76.6572 1384.18 Q76.6572 1392.91 73.5785 1397.52 Q70.5229 1402.1 64.7128 1402.1 Q58.9026 1402.1 55.824 1397.52 Q52.7684 1392.91 52.7684 1384.18 Q52.7684 1375.43 55.824 1370.85 Q58.9026 1366.24 64.7128 1366.24 Z" fill="#000000" fill-rule="nonzero" fill-opacity="1" /><path clip-path="url(#clip240)" d="M56.7499 1109.06 L64.3887 1109.06 L64.3887 1082.69 L56.0786 1084.36 L56.0786 1080.1 L64.3424 1078.43 L69.0183 1078.43 L69.0183 1109.06 L76.6572 1109.06 L76.6572 1112.99 L56.7499 1112.99 L56.7499 1109.06 Z" fill="#000000" fill-rule="nonzero" fill-opacity="1" /><path clip-path="url(#clip240)" d="M60.3378 820.62 L76.6572 820.62 L76.6572 824.555 L54.7128 824.555 L54.7128 820.62 Q57.3749 817.865 61.9582 813.236 Q66.5646 808.583 67.7452 807.24 Q69.9905 804.717 70.8702 802.981 Q71.7729 801.222 71.7729 799.532 Q71.7729 796.778 69.8285 795.041 Q67.9072 793.305 64.8054 793.305 Q62.6063 793.305 60.1526 794.069 Q57.7221 794.833 54.9443 796.384 L54.9443 791.662 Q57.7684 790.528 60.2221 789.949 Q62.6758 789.37 64.7128 789.37 Q70.0831 789.37 73.2776 792.055 Q76.472 794.741 76.472 799.231 Q76.472 801.361 75.6618 803.282 Q74.8748 805.18 72.7683 807.773 Q72.1896 808.444 69.0878 811.662 Q65.9859 814.856 60.3378 820.62 Z" fill="#000000" fill-rule="nonzero" fill-opacity="1" /><path clip-path="url(#clip240)" d="M69.5276 517.484 Q72.884 518.202 74.759 520.47 Q76.6572 522.739 76.6572 526.072 Q76.6572 531.188 73.1387 533.989 Q69.6202 536.79 63.1387 536.79 Q60.9628 536.79 58.648 536.35 Q56.3564 535.933 53.9027 535.077 L53.9027 530.563 Q55.8471 531.697 58.1619 532.276 Q60.4767 532.854 62.9998 532.854 Q67.398 532.854 69.6896 531.118 Q72.0044 529.382 72.0044 526.072 Q72.0044 523.017 69.8517 521.304 Q67.722 519.568 63.9026 519.568 L59.8749 519.568 L59.8749 515.725 L64.0878 515.725 Q67.5369 515.725 69.3655 514.359 Q71.1942 512.97 71.1942 510.378 Q71.1942 507.716 69.2961 506.304 Q67.4211 504.869 63.9026 504.869 Q61.9813 504.869 59.7823 505.285 Q57.5832 505.702 54.9443 506.581 L54.9443 502.415 Q57.6064 501.674 59.9212 501.304 Q62.2591 500.933 64.3193 500.933 Q69.6433 500.933 72.7452 503.364 Q75.847 505.771 75.847 509.892 Q75.847 512.762 74.2035 514.753 Q72.56 516.72 69.5276 517.484 Z" fill="#000000" fill-rule="nonzero" fill-opacity="1" /><path clip-path="url(#clip240)" d="M67.0739 217.196 L55.2684 235.645 L67.0739 235.645 L67.0739 217.196 M65.847 213.121 L71.7266 213.121 L71.7266 235.645 L76.6572 235.645 L76.6572 239.533 L71.7266 239.533 L71.7266 247.681 L67.0739 247.681 L67.0739 239.533 L51.4721 239.533 L51.4721 235.02 L65.847 213.121 Z" fill="#000000" fill-rule="nonzero" fill-opacity="1" /><polyline clip-path="url(#clip242)" style="stroke:#009af9; stroke-linecap:round; stroke-linejoin:round; stroke-width:4; stroke-opacity:1; fill:none" points="171.94,1384.15 173.587,1347.35 175.234,1332.11 176.882,1320.41 178.529,1310.55 180.176,1301.87 181.823,1294.01 183.471,1286.79 185.118,1280.07 188.926,1265.98 192.733,1253.41 196.541,1241.94 200.349,1231.33 207.965,1212.06 215.58,1194.74 223.196,1178.88 230.811,1164.16 238.427,1150.36 246.043,1137.34 261.274,1113.16 276.505,1090.96 291.736,1070.34 306.967,1050.98 325.274,1029.12 343.58,1008.52 361.887,988.995 380.193,970.391 411.149,940.704 442.105,912.884 475.732,884.415 509.359,857.483 540.36,833.82 571.361,811.134 604.597,787.77 637.834,765.287 676.341,740.219 714.849,716.091 783.29,675.232 843.308,641.248 908.743,605.886 974.567,571.866 1047.34,535.839 1116.59,502.926 1188.59,469.96 1249.2,443.105 1323.19,411.322 1390.98,383.092 1453.58,357.709 1517,332.621 1588.07,305.198 1652.47,280.937 1726.21,253.798 1794.48,229.239 1861.79,205.527 1927.14,182.953 1994.13,160.244 2067.53,135.837 2174.16,101.209 2196.03,94.2201 "/>
<polyline clip-path="url(#clip242)" style="stroke:#e26f46; stroke-linecap:round; stroke-linejoin:round; stroke-width:4; stroke-opacity:1; fill:none" points="172.764,1358.12 173.587,1347.34 174.411,1337.95 175.234,1332.1 176.058,1325.46 176.882,1318.82 177.294,1315.5 177.705,1312.18 177.911,1310.52 178.117,1308.86 178.323,1311.71 178.529,1310.54 180.176,1301.15 181.823,1291.76 182.647,1287.06 183.471,1282.37 183.882,1280.02 184.294,1277.67 184.397,1277.09 184.5,1276.5 184.603,1282.12 184.706,1281.71 184.912,1280.88 185.118,1280.05 188.926,1264.7 192.733,1249.35 193.685,1245.51 194.637,1241.68 195.589,1237.84 196.541,1234 197.493,1239.21 198.445,1236.5 199.397,1233.79 200.349,1231.07 204.157,1220.22 207.965,1209.37 211.772,1198.52 215.58,1187.66 217.484,1182.24 219.388,1176.81 220.34,1174.1 221.292,1171.38 222.244,1168.67 223.196,1178.88 224.148,1176.96 225.1,1175.04 226.052,1173.12 227.004,1171.2 228.907,1167.37 230.811,1163.53 238.427,1148.18 246.043,1132.83 253.658,1117.49 261.274,1102.14 265.081,1094.46 268.889,1086.79 269.841,1084.87 270.793,1082.95 271.745,1081.04 272.697,1079.12 273.649,1094.99 274.601,1093.64 275.553,1092.28 276.505,1090.92 280.313,1085.5 284.12,1080.07 287.928,1074.65 291.736,1069.22 299.352,1058.37 306.967,1047.51 325.274,1021.43 343.58,995.34 352.734,982.296 361.887,969.253 364.175,965.992 366.463,962.731 368.752,959.47 371.04,956.209 371.612,955.394 372.184,954.579 372.756,953.764 373.328,952.948 373.901,952.133 374.473,976.113 375.045,975.537 375.617,974.96 376.761,973.808 377.905,972.655 379.049,971.502 380.193,970.349 387.932,962.551 395.671,954.753 403.41,946.955 411.149,939.156 426.627,923.56 442.105,907.964 475.732,874.08 509.359,840.196 524.859,824.578 540.36,808.959 548.11,801.149 555.86,793.34 563.611,785.53 571.361,777.721 572.4,776.674 573.438,775.628 574.477,774.581 575.515,773.535 576.035,773.011 576.554,772.488 577.073,807.051 577.593,806.681 578.112,806.311 578.631,805.941 579.151,805.571 579.67,805.201 581.747,803.721 583.825,802.241 585.902,800.761 587.979,799.281 596.288,793.36 604.597,787.44 621.215,775.599 637.834,763.759 676.341,736.322 714.849,708.885 783.29,660.119 843.308,617.357 876.025,594.045 908.743,570.733 925.199,559.008 941.655,547.283 949.883,541.421 958.111,535.558 962.225,532.627 966.339,529.696 970.453,526.765 974.567,523.833 976.841,522.213 979.115,520.592 979.684,520.187 980.253,519.782 980.821,519.377 981.39,518.972 981.958,568.134 982.527,567.848 983.095,567.561 983.664,567.275 984.801,566.702 985.938,566.129 987.075,565.556 988.212,564.983 990.487,563.837 992.761,562.692 1001.86,558.108 1010.96,553.525 1029.15,544.358 1047.34,535.192 1081.97,517.748 1116.59,500.305 1188.59,464.03 1249.2,433.495 1323.19,396.214 1390.98,362.063 1453.58,330.522 1517,298.572 1588.07,262.765 1652.47,230.317 1689.34,211.743 1726.21,193.168 1743.27,184.568 1760.34,175.969 1768.88,171.669 1777.41,167.37 1781.68,165.22 1785.94,163.07 1787.01,162.533 1788.08,161.995 1788.61,161.726 1789.15,161.458 1789.68,161.189 1790.21,160.92 1790.75,160.651 1791.28,230.379 1791.81,230.189 1792.35,229.999 1793.41,229.619 1794.48,229.239 1796.58,228.489 1798.69,227.74 1800.79,226.99 1802.89,226.241 1807.1,224.742 1811.31,223.244 1819.72,220.246 1828.13,217.249 1844.96,211.254 1861.79,205.259 1894.46,193.618 1927.14,181.977 1994.13,158.111 2067.53,131.962 2174.16,93.9759 2196.03,86.1831 "/>
<path clip-path="url(#clip240)" d="M1642.24 1377.23 L2185.24 1377.23 L2185.24 1221.71 L1642.24 1221.71  Z" fill="#ffffff" fill-rule="evenodd" fill-opacity="1"/>
<polyline clip-path="url(#clip240)" style="stroke:#000000; stroke-linecap:round; stroke-linejoin:round; stroke-width:4; stroke-opacity:1; fill:none" points="1642.24,1377.23 2185.24,1377.23 2185.24,1221.71 1642.24,1221.71 1642.24,1377.23 "/>
<polyline clip-path="url(#clip240)" style="stroke:#009af9; stroke-linecap:round; stroke-linejoin:round; stroke-width:4; stroke-opacity:1; fill:none" points="1666.08,1273.55 1809.11,1273.55 "/>
<path clip-path="url(#clip240)" d="M1846.79 1293.23 Q1844.99 1297.86 1843.28 1299.28 Q1841.56 1300.69 1838.69 1300.69 L1835.29 1300.69 L1835.29 1297.12 L1837.79 1297.12 Q1839.55 1297.12 1840.52 1296.29 Q1841.49 1295.46 1842.67 1292.35 L1843.44 1290.41 L1832.95 1264.9 L1837.47 1264.9 L1845.57 1285.18 L1853.67 1264.9 L1858.18 1264.9 L1846.79 1293.23 Z" fill="#000000" fill-rule="nonzero" fill-opacity="1" /><path clip-path="url(#clip240)" d="M1864.62 1269.3 L1894.29 1269.3 L1894.29 1273.19 L1864.62 1273.19 L1864.62 1269.3 M1864.62 1278.74 L1894.29 1278.74 L1894.29 1282.68 L1864.62 1282.68 L1864.62 1278.74 Z" fill="#000000" fill-rule="nonzero" fill-opacity="1" /><path clip-path="url(#clip240)" d="M1920.31 1265.66 L1920.31 1269.69 Q1918.51 1268.77 1916.56 1268.3 Q1914.62 1267.84 1912.53 1267.84 Q1909.36 1267.84 1907.77 1268.81 Q1906.19 1269.78 1906.19 1271.73 Q1906.19 1273.21 1907.33 1274.07 Q1908.46 1274.9 1911.89 1275.66 L1913.34 1275.99 Q1917.88 1276.96 1919.78 1278.74 Q1921.7 1280.5 1921.7 1283.67 Q1921.7 1287.28 1918.83 1289.39 Q1915.98 1291.5 1910.98 1291.5 Q1908.9 1291.5 1906.63 1291.08 Q1904.39 1290.69 1901.89 1289.88 L1901.89 1285.48 Q1904.25 1286.71 1906.54 1287.33 Q1908.83 1287.93 1911.08 1287.93 Q1914.09 1287.93 1915.71 1286.91 Q1917.33 1285.87 1917.33 1284 Q1917.33 1282.26 1916.15 1281.34 Q1914.99 1280.41 1911.03 1279.55 L1909.55 1279.21 Q1905.59 1278.37 1903.83 1276.66 Q1902.07 1274.92 1902.07 1271.91 Q1902.07 1268.26 1904.66 1266.27 Q1907.26 1264.28 1912.02 1264.28 Q1914.39 1264.28 1916.47 1264.62 Q1918.55 1264.97 1920.31 1265.66 Z" fill="#000000" fill-rule="nonzero" fill-opacity="1" /><path clip-path="url(#clip240)" d="M1931.03 1277.89 Q1931.03 1282.59 1932.95 1285.27 Q1934.9 1287.93 1938.27 1287.93 Q1941.65 1287.93 1943.6 1285.27 Q1945.54 1282.59 1945.54 1277.89 Q1945.54 1273.19 1943.6 1270.53 Q1941.65 1267.84 1938.27 1267.84 Q1934.9 1267.84 1932.95 1270.53 Q1931.03 1273.19 1931.03 1277.89 M1945.54 1286.94 Q1944.2 1289.25 1942.14 1290.39 Q1940.1 1291.5 1937.23 1291.5 Q1932.53 1291.5 1929.57 1287.75 Q1926.63 1284 1926.63 1277.89 Q1926.63 1271.78 1929.57 1268.03 Q1932.53 1264.28 1937.23 1264.28 Q1940.1 1264.28 1942.14 1265.41 Q1944.2 1266.52 1945.54 1268.84 L1945.54 1264.9 L1949.8 1264.9 L1949.8 1300.69 L1945.54 1300.69 L1945.54 1286.94 Z" fill="#000000" fill-rule="nonzero" fill-opacity="1" /><path clip-path="url(#clip240)" d="M1973.6 1268.88 Q1972.88 1268.47 1972.02 1268.28 Q1971.19 1268.07 1970.17 1268.07 Q1966.56 1268.07 1964.62 1270.43 Q1962.7 1272.77 1962.7 1277.17 L1962.7 1290.83 L1958.41 1290.83 L1958.41 1264.9 L1962.7 1264.9 L1962.7 1268.93 Q1964.04 1266.57 1966.19 1265.43 Q1968.34 1264.28 1971.42 1264.28 Q1971.86 1264.28 1972.4 1264.35 Q1972.93 1264.39 1973.58 1264.51 L1973.6 1268.88 Z" fill="#000000" fill-rule="nonzero" fill-opacity="1" /><path clip-path="url(#clip240)" d="M1982.28 1257.54 L1982.28 1264.9 L1991.05 1264.9 L1991.05 1268.21 L1982.28 1268.21 L1982.28 1282.28 Q1982.28 1285.46 1983.14 1286.36 Q1984.02 1287.26 1986.68 1287.26 L1991.05 1287.26 L1991.05 1290.83 L1986.68 1290.83 Q1981.75 1290.83 1979.87 1289 Q1978 1287.15 1978 1282.28 L1978 1268.21 L1974.87 1268.21 L1974.87 1264.9 L1978 1264.9 L1978 1257.54 L1982.28 1257.54 Z" fill="#000000" fill-rule="nonzero" fill-opacity="1" /><path clip-path="url(#clip240)" d="M2006.89 1254.85 Q2003.78 1260.18 2002.28 1265.39 Q2000.77 1270.6 2000.77 1275.94 Q2000.77 1281.29 2002.28 1286.54 Q2003.81 1291.78 2006.89 1297.08 L2003.18 1297.08 Q1999.71 1291.64 1997.97 1286.38 Q1996.26 1281.13 1996.26 1275.94 Q1996.26 1270.78 1997.97 1265.55 Q1999.69 1260.32 2003.18 1254.85 L2006.89 1254.85 Z" fill="#000000" fill-rule="nonzero" fill-opacity="1" /><path clip-path="url(#clip240)" d="M2036.7 1264.9 L2027.33 1277.52 L2037.19 1290.83 L2032.16 1290.83 L2024.62 1280.64 L2017.07 1290.83 L2012.05 1290.83 L2022.12 1277.26 L2012.9 1264.9 L2017.93 1264.9 L2024.8 1274.14 L2031.68 1264.9 L2036.7 1264.9 Z" fill="#000000" fill-rule="nonzero" fill-opacity="1" /><path clip-path="url(#clip240)" d="M2042.53 1254.85 L2046.24 1254.85 Q2049.71 1260.32 2051.42 1265.55 Q2053.16 1270.78 2053.16 1275.94 Q2053.16 1281.13 2051.42 1286.38 Q2049.71 1291.64 2046.24 1297.08 L2042.53 1297.08 Q2045.61 1291.78 2047.12 1286.54 Q2048.64 1281.29 2048.64 1275.94 Q2048.64 1270.6 2047.12 1265.39 Q2045.61 1260.18 2042.53 1254.85 Z" fill="#000000" fill-rule="nonzero" fill-opacity="1" /><polyline clip-path="url(#clip240)" style="stroke:#e26f46; stroke-linecap:round; stroke-linejoin:round; stroke-width:4; stroke-opacity:1; fill:none" points="1666.08,1325.39 1809.11,1325.39 "/>
<path clip-path="url(#clip240)" d="M1846.79 1345.07 Q1844.99 1349.7 1843.28 1351.12 Q1841.56 1352.53 1838.69 1352.53 L1835.29 1352.53 L1835.29 1348.96 L1837.79 1348.96 Q1839.55 1348.96 1840.52 1348.13 Q1841.49 1347.3 1842.67 1344.19 L1843.44 1342.25 L1832.95 1316.74 L1837.47 1316.74 L1845.57 1337.02 L1853.67 1316.74 L1858.18 1316.74 L1846.79 1345.07 Z" fill="#000000" fill-rule="nonzero" fill-opacity="1" /><path clip-path="url(#clip240)" d="M1879.69 1321.14 L1909.36 1321.14 L1909.36 1325.03 L1879.69 1325.03 L1879.69 1321.14 M1879.69 1330.58 L1909.36 1330.58 L1909.36 1334.52 L1879.69 1334.52 L1879.69 1330.58 Z" fill="#000000" fill-rule="nonzero" fill-opacity="1" /><path clip-path="url(#clip240)" d="M1932.07 1316.74 L1952.3 1316.74 L1952.3 1320.63 L1936.28 1339.26 L1952.3 1339.26 L1952.3 1342.67 L1931.49 1342.67 L1931.49 1338.78 L1947.51 1320.14 L1932.07 1320.14 L1932.07 1316.74 Z" fill="#000000" fill-rule="nonzero" fill-opacity="1" /><path clip-path="url(#clip240)" d="M1970.59 1329.63 Q1965.43 1329.63 1963.44 1330.81 Q1961.45 1332 1961.45 1334.84 Q1961.45 1337.11 1962.93 1338.45 Q1964.43 1339.77 1967 1339.77 Q1970.54 1339.77 1972.67 1337.27 Q1974.83 1334.75 1974.83 1330.58 L1974.83 1329.63 L1970.59 1329.63 M1979.08 1327.87 L1979.08 1342.67 L1974.83 1342.67 L1974.83 1338.73 Q1973.37 1341.09 1971.19 1342.23 Q1969.02 1343.34 1965.87 1343.34 Q1961.89 1343.34 1959.52 1341.12 Q1957.19 1338.87 1957.19 1335.12 Q1957.19 1330.75 1960.1 1328.52 Q1963.04 1326.3 1968.85 1326.3 L1974.83 1326.3 L1974.83 1325.88 Q1974.83 1322.94 1972.88 1321.35 Q1970.96 1319.73 1967.46 1319.73 Q1965.24 1319.73 1963.14 1320.26 Q1961.03 1320.79 1959.08 1321.86 L1959.08 1317.92 Q1961.42 1317.02 1963.62 1316.58 Q1965.82 1316.12 1967.9 1316.12 Q1973.53 1316.12 1976.31 1319.03 Q1979.08 1321.95 1979.08 1327.87 Z" fill="#000000" fill-rule="nonzero" fill-opacity="1" /><path clip-path="url(#clip240)" d="M2006.52 1317.74 L2006.52 1321.72 Q2004.71 1320.72 2002.88 1320.24 Q2001.08 1319.73 1999.22 1319.73 Q1995.08 1319.73 1992.79 1322.37 Q1990.5 1324.98 1990.5 1329.73 Q1990.5 1334.47 1992.79 1337.11 Q1995.08 1339.73 1999.22 1339.73 Q2001.08 1339.73 2002.88 1339.24 Q2004.71 1338.73 2006.52 1337.74 L2006.52 1341.67 Q2004.73 1342.5 2002.81 1342.92 Q2000.91 1343.34 1998.76 1343.34 Q1992.9 1343.34 1989.46 1339.66 Q1986.01 1335.98 1986.01 1329.73 Q1986.01 1323.38 1989.48 1319.75 Q1992.97 1316.12 1999.04 1316.12 Q2001.01 1316.12 2002.88 1316.53 Q2004.76 1316.93 2006.52 1317.74 Z" fill="#000000" fill-rule="nonzero" fill-opacity="1" /><path clip-path="url(#clip240)" d="M2036.1 1328.64 L2036.1 1330.72 L2016.52 1330.72 Q2016.79 1335.12 2019.15 1337.43 Q2021.54 1339.73 2025.77 1339.73 Q2028.23 1339.73 2030.52 1339.12 Q2032.83 1338.52 2035.1 1337.32 L2035.1 1341.35 Q2032.81 1342.32 2030.4 1342.83 Q2028 1343.34 2025.52 1343.34 Q2019.32 1343.34 2015.68 1339.73 Q2012.07 1336.12 2012.07 1329.96 Q2012.07 1323.59 2015.5 1319.87 Q2018.95 1316.12 2024.78 1316.12 Q2030.01 1316.12 2033.04 1319.5 Q2036.1 1322.85 2036.1 1328.64 M2031.84 1327.39 Q2031.79 1323.89 2029.87 1321.81 Q2027.97 1319.73 2024.83 1319.73 Q2021.26 1319.73 2019.11 1321.74 Q2016.98 1323.75 2016.65 1327.41 L2031.84 1327.39 Z" fill="#000000" fill-rule="nonzero" fill-opacity="1" /><path clip-path="url(#clip240)" d="M2047.3 1309.38 L2047.3 1316.74 L2056.08 1316.74 L2056.08 1320.05 L2047.3 1320.05 L2047.3 1334.12 Q2047.3 1337.3 2048.16 1338.2 Q2049.04 1339.1 2051.7 1339.1 L2056.08 1339.1 L2056.08 1342.67 L2051.7 1342.67 Q2046.77 1342.67 2044.89 1340.84 Q2043.02 1338.99 2043.02 1334.12 L2043.02 1320.05 L2039.89 1320.05 L2039.89 1316.74 L2043.02 1316.74 L2043.02 1309.38 L2047.3 1309.38 Z" fill="#000000" fill-rule="nonzero" fill-opacity="1" /><path clip-path="url(#clip240)" d="M2083.23 1327.02 L2083.23 1342.67 L2078.97 1342.67 L2078.97 1327.16 Q2078.97 1323.48 2077.53 1321.65 Q2076.1 1319.82 2073.23 1319.82 Q2069.78 1319.82 2067.79 1322.02 Q2065.8 1324.22 2065.8 1328.01 L2065.8 1342.67 L2061.51 1342.67 L2061.51 1316.74 L2065.8 1316.74 L2065.8 1320.77 Q2067.33 1318.43 2069.39 1317.27 Q2071.47 1316.12 2074.18 1316.12 Q2078.64 1316.12 2080.94 1318.89 Q2083.23 1321.65 2083.23 1327.02 Z" fill="#000000" fill-rule="nonzero" fill-opacity="1" /><path clip-path="url(#clip240)" d="M2091.72 1316.74 L2095.98 1316.74 L2095.98 1342.67 L2091.72 1342.67 L2091.72 1316.74 M2091.72 1306.65 L2095.98 1306.65 L2095.98 1312.04 L2091.72 1312.04 L2091.72 1306.65 Z" fill="#000000" fill-rule="nonzero" fill-opacity="1" /><path clip-path="url(#clip240)" d="M2115.13 1306.69 Q2112.02 1312.02 2110.52 1317.23 Q2109.01 1322.44 2109.01 1327.78 Q2109.01 1333.13 2110.52 1338.38 Q2112.05 1343.62 2115.13 1348.92 L2111.42 1348.92 Q2107.95 1343.48 2106.21 1338.22 Q2104.5 1332.97 2104.5 1327.78 Q2104.5 1322.62 2106.21 1317.39 Q2107.93 1312.16 2111.42 1306.69 L2115.13 1306.69 Z" fill="#000000" fill-rule="nonzero" fill-opacity="1" /><path clip-path="url(#clip240)" d="M2144.94 1316.74 L2135.57 1329.36 L2145.43 1342.67 L2140.4 1342.67 L2132.86 1332.48 L2125.31 1342.67 L2120.29 1342.67 L2130.36 1329.1 L2121.14 1316.74 L2126.17 1316.74 L2133.04 1325.98 L2139.92 1316.74 L2144.94 1316.74 Z" fill="#000000" fill-rule="nonzero" fill-opacity="1" /><path clip-path="url(#clip240)" d="M2150.77 1306.69 L2154.48 1306.69 Q2157.95 1312.16 2159.66 1317.39 Q2161.4 1322.62 2161.4 1327.78 Q2161.4 1332.97 2159.66 1338.22 Q2157.95 1343.48 2154.48 1348.92 L2150.77 1348.92 Q2153.85 1343.62 2155.36 1338.38 Q2156.88 1333.13 2156.88 1327.78 Q2156.88 1322.44 2155.36 1317.23 Q2153.85 1312.02 2150.77 1306.69 Z" fill="#000000" fill-rule="nonzero" fill-opacity="1" /></svg>
