<?xml version="1.0" encoding="utf-8"?>
<svg xmlns="http://www.w3.org/2000/svg" xmlns:xlink="http://www.w3.org/1999/xlink" width="600" height="400" viewBox="0 0 2400 1600">
<defs>
  <clipPath id="clip720">
    <rect x="0" y="0" width="2400" height="1600"/>
  </clipPath>
</defs>
<path clip-path="url(#clip720)" d="M0 1600 L2400 1600 L2400 0 L0 0  Z" fill="#ffffff" fill-rule="evenodd" fill-opacity="1"/>
<defs>
  <clipPath id="clip721">
    <rect x="480" y="0" width="1681" height="1600"/>
  </clipPath>
</defs>
<path clip-path="url(#clip720)" d="M112.177 1486.45 L2352.76 1486.45 L2352.76 47.2441 L112.177 47.2441  Z" fill="#ffffff" fill-rule="evenodd" fill-opacity="1"/>
<defs>
  <clipPath id="clip722">
    <rect x="112" y="47" width="2242" height="1440"/>
  </clipPath>
</defs>
<polyline clip-path="url(#clip722)" style="stroke:#000000; stroke-linecap:round; stroke-linejoin:round; stroke-width:2; stroke-opacity:0.1; fill:none" points="175.59,1486.45 175.59,47.2441 "/>
<polyline clip-path="url(#clip722)" style="stroke:#000000; stroke-linecap:round; stroke-linejoin:round; stroke-width:2; stroke-opacity:0.1; fill:none" points="704.028,1486.45 704.028,47.2441 "/>
<polyline clip-path="url(#clip722)" style="stroke:#000000; stroke-linecap:round; stroke-linejoin:round; stroke-width:2; stroke-opacity:0.1; fill:none" points="1232.47,1486.45 1232.47,47.2441 "/>
<polyline clip-path="url(#clip722)" style="stroke:#000000; stroke-linecap:round; stroke-linejoin:round; stroke-width:2; stroke-opacity:0.1; fill:none" points="1760.9,1486.45 1760.9,47.2441 "/>
<polyline clip-path="url(#clip722)" style="stroke:#000000; stroke-linecap:round; stroke-linejoin:round; stroke-width:2; stroke-opacity:0.1; fill:none" points="2289.34,1486.45 2289.34,47.2441 "/>
<polyline clip-path="url(#clip722)" style="stroke:#000000; stroke-linecap:round; stroke-linejoin:round; stroke-width:2; stroke-opacity:0.1; fill:none" points="112.177,1445.72 2352.76,1445.72 "/>
<polyline clip-path="url(#clip722)" style="stroke:#000000; stroke-linecap:round; stroke-linejoin:round; stroke-width:2; stroke-opacity:0.1; fill:none" points="112.177,1198.85 2352.76,1198.85 "/>
<polyline clip-path="url(#clip722)" style="stroke:#000000; stroke-linecap:round; stroke-linejoin:round; stroke-width:2; stroke-opacity:0.1; fill:none" points="112.177,951.992 2352.76,951.992 "/>
<polyline clip-path="url(#clip722)" style="stroke:#000000; stroke-linecap:round; stroke-linejoin:round; stroke-width:2; stroke-opacity:0.1; fill:none" points="112.177,705.131 2352.76,705.131 "/>
<polyline clip-path="url(#clip722)" style="stroke:#000000; stroke-linecap:round; stroke-linejoin:round; stroke-width:2; stroke-opacity:0.1; fill:none" points="112.177,458.269 2352.76,458.269 "/>
<polyline clip-path="url(#clip722)" style="stroke:#000000; stroke-linecap:round; stroke-linejoin:round; stroke-width:2; stroke-opacity:0.1; fill:none" points="112.177,211.407 2352.76,211.407 "/>
<polyline clip-path="url(#clip720)" style="stroke:#000000; stroke-linecap:round; stroke-linejoin:round; stroke-width:4; stroke-opacity:1; fill:none" points="112.177,1486.45 2352.76,1486.45 "/>
<polyline clip-path="url(#clip720)" style="stroke:#000000; stroke-linecap:round; stroke-linejoin:round; stroke-width:4; stroke-opacity:1; fill:none" points="175.59,1486.45 175.59,1467.55 "/>
<polyline clip-path="url(#clip720)" style="stroke:#000000; stroke-linecap:round; stroke-linejoin:round; stroke-width:4; stroke-opacity:1; fill:none" points="704.028,1486.45 704.028,1467.55 "/>
<polyline clip-path="url(#clip720)" style="stroke:#000000; stroke-linecap:round; stroke-linejoin:round; stroke-width:4; stroke-opacity:1; fill:none" points="1232.47,1486.45 1232.47,1467.55 "/>
<polyline clip-path="url(#clip720)" style="stroke:#000000; stroke-linecap:round; stroke-linejoin:round; stroke-width:4; stroke-opacity:1; fill:none" points="1760.9,1486.45 1760.9,1467.55 "/>
<polyline clip-path="url(#clip720)" style="stroke:#000000; stroke-linecap:round; stroke-linejoin:round; stroke-width:4; stroke-opacity:1; fill:none" points="2289.34,1486.45 2289.34,1467.55 "/>
<path clip-path="url(#clip720)" d="M152.974 1517.37 Q149.363 1517.37 147.534 1520.93 Q145.729 1524.47 145.729 1531.6 Q145.729 1538.71 147.534 1542.27 Q149.363 1545.82 152.974 1545.82 Q156.608 1545.82 158.414 1542.27 Q160.243 1538.71 160.243 1531.6 Q160.243 1524.47 158.414 1520.93 Q156.608 1517.37 152.974 1517.37 M152.974 1513.66 Q158.784 1513.66 161.84 1518.27 Q164.919 1522.85 164.919 1531.6 Q164.919 1540.33 161.84 1544.94 Q158.784 1549.52 152.974 1549.52 Q147.164 1549.52 144.085 1544.94 Q141.03 1540.33 141.03 1531.6 Q141.03 1522.85 144.085 1518.27 Q147.164 1513.66 152.974 1513.66 Z" fill="#000000" fill-rule="nonzero" fill-opacity="1" /><path clip-path="url(#clip720)" d="M173.136 1542.97 L178.02 1542.97 L178.02 1548.85 L173.136 1548.85 L173.136 1542.97 Z" fill="#000000" fill-rule="nonzero" fill-opacity="1" /><path clip-path="url(#clip720)" d="M198.205 1517.37 Q194.594 1517.37 192.766 1520.93 Q190.96 1524.47 190.96 1531.6 Q190.96 1538.71 192.766 1542.27 Q194.594 1545.82 198.205 1545.82 Q201.84 1545.82 203.645 1542.27 Q205.474 1538.71 205.474 1531.6 Q205.474 1524.47 203.645 1520.93 Q201.84 1517.37 198.205 1517.37 M198.205 1513.66 Q204.016 1513.66 207.071 1518.27 Q210.15 1522.85 210.15 1531.6 Q210.15 1540.33 207.071 1544.94 Q204.016 1549.52 198.205 1549.52 Q192.395 1549.52 189.317 1544.94 Q186.261 1540.33 186.261 1531.6 Q186.261 1522.85 189.317 1518.27 Q192.395 1513.66 198.205 1513.66 Z" fill="#000000" fill-rule="nonzero" fill-opacity="1" /><path clip-path="url(#clip720)" d="M675.764 1544.91 L692.084 1544.91 L692.084 1548.85 L670.139 1548.85 L670.139 1544.91 Q672.801 1542.16 677.385 1537.53 Q681.991 1532.88 683.172 1531.53 Q685.417 1529.01 686.297 1527.27 Q687.2 1525.51 687.2 1523.82 Q687.2 1521.07 685.255 1519.33 Q683.334 1517.6 680.232 1517.6 Q678.033 1517.6 675.579 1518.36 Q673.149 1519.13 670.371 1520.68 L670.371 1515.95 Q673.195 1514.82 675.649 1514.24 Q678.102 1513.66 680.139 1513.66 Q685.51 1513.66 688.704 1516.35 Q691.899 1519.03 691.899 1523.52 Q691.899 1525.65 691.088 1527.57 Q690.301 1529.47 688.195 1532.07 Q687.616 1532.74 684.514 1535.95 Q681.413 1539.15 675.764 1544.91 Z" fill="#000000" fill-rule="nonzero" fill-opacity="1" /><path clip-path="url(#clip720)" d="M701.899 1542.97 L706.783 1542.97 L706.783 1548.85 L701.899 1548.85 L701.899 1542.97 Z" fill="#000000" fill-rule="nonzero" fill-opacity="1" /><path clip-path="url(#clip720)" d="M717.014 1514.29 L735.371 1514.29 L735.371 1518.22 L721.297 1518.22 L721.297 1526.7 Q722.315 1526.35 723.334 1526.19 Q724.352 1526 725.371 1526 Q731.158 1526 734.537 1529.17 Q737.917 1532.34 737.917 1537.76 Q737.917 1543.34 734.445 1546.44 Q730.972 1549.52 724.653 1549.52 Q722.477 1549.52 720.209 1549.15 Q717.963 1548.78 715.556 1548.04 L715.556 1543.34 Q717.639 1544.47 719.861 1545.03 Q722.084 1545.58 724.56 1545.58 Q728.565 1545.58 730.903 1543.48 Q733.241 1541.37 733.241 1537.76 Q733.241 1534.15 730.903 1532.04 Q728.565 1529.94 724.56 1529.94 Q722.685 1529.94 720.81 1530.35 Q718.959 1530.77 717.014 1531.65 L717.014 1514.29 Z" fill="#000000" fill-rule="nonzero" fill-opacity="1" /><path clip-path="url(#clip720)" d="M1199.63 1514.29 L1217.99 1514.29 L1217.99 1518.22 L1203.91 1518.22 L1203.91 1526.7 Q1204.93 1526.35 1205.95 1526.19 Q1206.97 1526 1207.99 1526 Q1213.77 1526 1217.15 1529.17 Q1220.53 1532.34 1220.53 1537.76 Q1220.53 1543.34 1217.06 1546.44 Q1213.59 1549.52 1207.27 1549.52 Q1205.09 1549.52 1202.83 1549.15 Q1200.58 1548.78 1198.17 1548.04 L1198.17 1543.34 Q1200.26 1544.47 1202.48 1545.03 Q1204.7 1545.58 1207.18 1545.58 Q1211.18 1545.58 1213.52 1543.48 Q1215.86 1541.37 1215.86 1537.76 Q1215.86 1534.15 1213.52 1532.04 Q1211.18 1529.94 1207.18 1529.94 Q1205.3 1529.94 1203.43 1530.35 Q1201.58 1530.77 1199.63 1531.65 L1199.63 1514.29 Z" fill="#000000" fill-rule="nonzero" fill-opacity="1" /><path clip-path="url(#clip720)" d="M1229.75 1542.97 L1234.63 1542.97 L1234.63 1548.85 L1229.75 1548.85 L1229.75 1542.97 Z" fill="#000000" fill-rule="nonzero" fill-opacity="1" /><path clip-path="url(#clip720)" d="M1254.82 1517.37 Q1251.2 1517.37 1249.38 1520.93 Q1247.57 1524.47 1247.57 1531.6 Q1247.57 1538.71 1249.38 1542.27 Q1251.2 1545.82 1254.82 1545.82 Q1258.45 1545.82 1260.26 1542.27 Q1262.08 1538.71 1262.08 1531.6 Q1262.08 1524.47 1260.26 1520.93 Q1258.45 1517.37 1254.82 1517.37 M1254.82 1513.66 Q1260.63 1513.66 1263.68 1518.27 Q1266.76 1522.85 1266.76 1531.6 Q1266.76 1540.33 1263.68 1544.94 Q1260.63 1549.52 1254.82 1549.52 Q1249.01 1549.52 1245.93 1544.94 Q1242.87 1540.33 1242.87 1531.6 Q1242.87 1522.85 1245.93 1518.27 Q1249.01 1513.66 1254.82 1513.66 Z" fill="#000000" fill-rule="nonzero" fill-opacity="1" /><path clip-path="url(#clip720)" d="M1727.22 1514.29 L1749.45 1514.29 L1749.45 1516.28 L1736.9 1548.85 L1732.02 1548.85 L1743.82 1518.22 L1727.22 1518.22 L1727.22 1514.29 Z" fill="#000000" fill-rule="nonzero" fill-opacity="1" /><path clip-path="url(#clip720)" d="M1758.57 1542.97 L1763.45 1542.97 L1763.45 1548.85 L1758.57 1548.85 L1758.57 1542.97 Z" fill="#000000" fill-rule="nonzero" fill-opacity="1" /><path clip-path="url(#clip720)" d="M1773.68 1514.29 L1792.04 1514.29 L1792.04 1518.22 L1777.97 1518.22 L1777.97 1526.7 Q1778.98 1526.35 1780 1526.19 Q1781.02 1526 1782.04 1526 Q1787.83 1526 1791.21 1529.17 Q1794.59 1532.34 1794.59 1537.76 Q1794.59 1543.34 1791.11 1546.44 Q1787.64 1549.52 1781.32 1549.52 Q1779.15 1549.52 1776.88 1549.15 Q1774.63 1548.78 1772.22 1548.04 L1772.22 1543.34 Q1774.31 1544.47 1776.53 1545.03 Q1778.75 1545.58 1781.23 1545.58 Q1785.23 1545.58 1787.57 1543.48 Q1789.91 1541.37 1789.91 1537.76 Q1789.91 1534.15 1787.57 1532.04 Q1785.23 1529.94 1781.23 1529.94 Q1779.35 1529.94 1777.48 1530.35 Q1775.63 1530.77 1773.68 1531.65 L1773.68 1514.29 Z" fill="#000000" fill-rule="nonzero" fill-opacity="1" /><path clip-path="url(#clip720)" d="M2241.42 1544.91 L2249.05 1544.91 L2249.05 1518.55 L2240.74 1520.21 L2240.74 1515.95 L2249.01 1514.29 L2253.68 1514.29 L2253.68 1544.91 L2261.32 1544.91 L2261.32 1548.85 L2241.42 1548.85 L2241.42 1544.91 Z" fill="#000000" fill-rule="nonzero" fill-opacity="1" /><path clip-path="url(#clip720)" d="M2280.77 1517.37 Q2277.16 1517.37 2275.33 1520.93 Q2273.52 1524.47 2273.52 1531.6 Q2273.52 1538.71 2275.33 1542.27 Q2277.16 1545.82 2280.77 1545.82 Q2284.4 1545.82 2286.21 1542.27 Q2288.04 1538.71 2288.04 1531.6 Q2288.04 1524.47 2286.21 1520.93 Q2284.4 1517.37 2280.77 1517.37 M2280.77 1513.66 Q2286.58 1513.66 2289.63 1518.27 Q2292.71 1522.85 2292.71 1531.6 Q2292.71 1540.33 2289.63 1544.94 Q2286.58 1549.52 2280.77 1549.52 Q2274.96 1549.52 2271.88 1544.94 Q2268.82 1540.33 2268.82 1531.6 Q2268.82 1522.85 2271.88 1518.27 Q2274.96 1513.66 2280.77 1513.66 Z" fill="#000000" fill-rule="nonzero" fill-opacity="1" /><path clip-path="url(#clip720)" d="M2300.93 1542.97 L2305.81 1542.97 L2305.81 1548.85 L2300.93 1548.85 L2300.93 1542.97 Z" fill="#000000" fill-rule="nonzero" fill-opacity="1" /><path clip-path="url(#clip720)" d="M2326 1517.37 Q2322.39 1517.37 2320.56 1520.93 Q2318.75 1524.47 2318.75 1531.6 Q2318.75 1538.71 2320.56 1542.27 Q2322.39 1545.82 2326 1545.82 Q2329.63 1545.82 2331.44 1542.27 Q2333.27 1538.71 2333.27 1531.6 Q2333.27 1524.47 2331.44 1520.93 Q2329.63 1517.37 2326 1517.37 M2326 1513.66 Q2331.81 1513.66 2334.86 1518.27 Q2337.94 1522.85 2337.94 1531.6 Q2337.94 1540.33 2334.86 1544.94 Q2331.81 1549.52 2326 1549.52 Q2320.19 1549.52 2317.11 1544.94 Q2314.05 1540.33 2314.05 1531.6 Q2314.05 1522.85 2317.11 1518.27 Q2320.19 1513.66 2326 1513.66 Z" fill="#000000" fill-rule="nonzero" fill-opacity="1" /><polyline clip-path="url(#clip720)" style="stroke:#000000; stroke-linecap:round; stroke-linejoin:round; stroke-width:4; stroke-opacity:1; fill:none" points="112.177,1486.45 112.177,47.2441 "/>
<polyline clip-path="url(#clip720)" style="stroke:#000000; stroke-linecap:round; stroke-linejoin:round; stroke-width:4; stroke-opacity:1; fill:none" points="112.177,1445.72 131.075,1445.72 "/>
<polyline clip-path="url(#clip720)" style="stroke:#000000; stroke-linecap:round; stroke-linejoin:round; stroke-width:4; stroke-opacity:1; fill:none" points="112.177,1198.85 131.075,1198.85 "/>
<polyline clip-path="url(#clip720)" style="stroke:#000000; stroke-linecap:round; stroke-linejoin:round; stroke-width:4; stroke-opacity:1; fill:none" points="112.177,951.992 131.075,951.992 "/>
<polyline clip-path="url(#clip720)" style="stroke:#000000; stroke-linecap:round; stroke-linejoin:round; stroke-width:4; stroke-opacity:1; fill:none" points="112.177,705.131 131.075,705.131 "/>
<polyline clip-path="url(#clip720)" style="stroke:#000000; stroke-linecap:round; stroke-linejoin:round; stroke-width:4; stroke-opacity:1; fill:none" points="112.177,458.269 131.075,458.269 "/>
<polyline clip-path="url(#clip720)" style="stroke:#000000; stroke-linecap:round; stroke-linejoin:round; stroke-width:4; stroke-opacity:1; fill:none" points="112.177,211.407 131.075,211.407 "/>
<path clip-path="url(#clip720)" d="M64.2328 1431.51 Q60.6217 1431.51 58.793 1435.08 Q56.9875 1438.62 56.9875 1445.75 Q56.9875 1452.86 58.793 1456.42 Q60.6217 1459.96 64.2328 1459.96 Q67.867 1459.96 69.6726 1456.42 Q71.5013 1452.86 71.5013 1445.75 Q71.5013 1438.62 69.6726 1435.08 Q67.867 1431.51 64.2328 1431.51 M64.2328 1427.81 Q70.0429 1427.81 73.0985 1432.42 Q76.1772 1437 76.1772 1445.75 Q76.1772 1454.48 73.0985 1459.08 Q70.0429 1463.67 64.2328 1463.67 Q58.4226 1463.67 55.344 1459.08 Q52.2884 1454.48 52.2884 1445.75 Q52.2884 1437 55.344 1432.42 Q58.4226 1427.81 64.2328 1427.81 Z" fill="#000000" fill-rule="nonzero" fill-opacity="1" /><path clip-path="url(#clip720)" d="M56.2699 1212.2 L63.9087 1212.2 L63.9087 1185.83 L55.5986 1187.5 L55.5986 1183.24 L63.8624 1181.57 L68.5383 1181.57 L68.5383 1212.2 L76.1772 1212.2 L76.1772 1216.13 L56.2699 1216.13 L56.2699 1212.2 Z" fill="#000000" fill-rule="nonzero" fill-opacity="1" /><path clip-path="url(#clip720)" d="M59.8578 965.337 L76.1772 965.337 L76.1772 969.272 L54.2328 969.272 L54.2328 965.337 Q56.8949 962.582 61.4782 957.953 Q66.0846 953.3 67.2652 951.958 Q69.5105 949.434 70.3902 947.698 Q71.2929 945.939 71.2929 944.249 Q71.2929 941.495 69.3485 939.759 Q67.4272 938.022 64.3254 938.022 Q62.1263 938.022 59.6726 938.786 Q57.2421 939.55 54.4643 941.101 L54.4643 936.379 Q57.2884 935.245 59.7421 934.666 Q62.1958 934.087 64.2328 934.087 Q69.6031 934.087 72.7976 936.772 Q75.992 939.458 75.992 943.948 Q75.992 946.078 75.1818 947.999 Q74.3948 949.897 72.2883 952.49 Q71.7096 953.161 68.6078 956.379 Q65.5059 959.573 59.8578 965.337 Z" fill="#000000" fill-rule="nonzero" fill-opacity="1" /><path clip-path="url(#clip720)" d="M69.0476 703.776 Q72.404 704.494 74.279 706.762 Q76.1772 709.031 76.1772 712.364 Q76.1772 717.48 72.6587 720.281 Q69.1402 723.082 62.6587 723.082 Q60.4828 723.082 58.168 722.642 Q55.8764 722.225 53.4227 721.369 L53.4227 716.855 Q55.3671 717.989 57.6819 718.568 Q59.9967 719.147 62.5198 719.147 Q66.918 719.147 69.2096 717.411 Q71.5244 715.674 71.5244 712.364 Q71.5244 709.309 69.3717 707.596 Q67.242 705.86 63.4226 705.86 L59.3949 705.86 L59.3949 702.017 L63.6078 702.017 Q67.0569 702.017 68.8855 700.651 Q70.7142 699.263 70.7142 696.67 Q70.7142 694.008 68.8161 692.596 Q66.9411 691.161 63.4226 691.161 Q61.5013 691.161 59.3023 691.577 Q57.1032 691.994 54.4643 692.874 L54.4643 688.707 Q57.1264 687.966 59.4412 687.596 Q61.7791 687.226 63.8393 687.226 Q69.1633 687.226 72.2652 689.656 Q75.367 692.063 75.367 696.184 Q75.367 699.054 73.7235 701.045 Q72.08 703.013 69.0476 703.776 Z" fill="#000000" fill-rule="nonzero" fill-opacity="1" /><path clip-path="url(#clip720)" d="M66.5939 445.063 L54.7884 463.512 L66.5939 463.512 L66.5939 445.063 M65.367 440.989 L71.2466 440.989 L71.2466 463.512 L76.1772 463.512 L76.1772 467.401 L71.2466 467.401 L71.2466 475.549 L66.5939 475.549 L66.5939 467.401 L50.9921 467.401 L50.9921 462.887 L65.367 440.989 Z" fill="#000000" fill-rule="nonzero" fill-opacity="1" /><path clip-path="url(#clip720)" d="M55.2745 194.127 L73.6309 194.127 L73.6309 198.062 L59.5569 198.062 L59.5569 206.534 Q60.5754 206.187 61.5939 206.025 Q62.6124 205.84 63.6309 205.84 Q69.418 205.84 72.7976 209.011 Q76.1772 212.183 76.1772 217.599 Q76.1772 223.178 72.705 226.28 Q69.2328 229.358 62.9134 229.358 Q60.7374 229.358 58.4689 228.988 Q56.2236 228.618 53.8162 227.877 L53.8162 223.178 Q55.8995 224.312 58.1217 224.868 Q60.3439 225.423 62.8208 225.423 Q66.8254 225.423 69.1633 223.317 Q71.5013 221.21 71.5013 217.599 Q71.5013 213.988 69.1633 211.882 Q66.8254 209.775 62.8208 209.775 Q60.9458 209.775 59.0708 210.192 Q57.2189 210.609 55.2745 211.488 L55.2745 194.127 Z" fill="#000000" fill-rule="nonzero" fill-opacity="1" /><polyline clip-path="url(#clip722)" style="stroke:#009af9; stroke-linecap:round; stroke-linejoin:round; stroke-width:4; stroke-opacity:1; fill:none" points="175.59,1445.72 178.318,1417.67 181.045,1406.06 183.773,1397.14 186.501,1389.63 189.228,1383.01 191.956,1377.02 194.684,1371.52 197.412,1366.4 205.4,1353.01 213.388,1341.33 221.376,1330.82 229.364,1321.2 237.352,1312.28 245.34,1303.91 253.328,1296.01 261.316,1288.5 277.292,1274.48 293.268,1261.52 309.244,1249.42 325.22,1238.02 340.084,1227.94 354.948,1218.32 369.812,1209.08 384.676,1200.19 424.523,1177.82 464.37,1157.17 497.295,1141.17 530.221,1125.96 560.839,1112.44 591.457,1099.45 629.892,1083.81 668.328,1068.81 702.805,1055.85 737.282,1043.3 816.209,1015.96 875.208,996.601 950.667,973.001 1019.54,952.445 1097.92,930.047 1160.06,912.96 1237.26,892.465 1296.38,877.27 1379.74,856.511 1442.02,841.464 1512.86,824.795 1583.01,808.717 1660.19,791.485 1719.14,778.622 1793.53,762.735 1862.34,748.364 1933.3,733.847 2005.22,719.428 2080.33,704.671 2139.49,693.25 2274.23,667.867 2289.34,665.07 "/>
<polyline clip-path="url(#clip722)" style="stroke:#e26f46; stroke-linecap:round; stroke-linejoin:round; stroke-width:4; stroke-opacity:1; fill:none" points="175.59,1322.28 197.412,1309.54 325.22,1234.91 384.676,1200.19 464.37,1153.65 530.221,1115.2 591.457,1079.44 668.328,1034.55 737.282,994.289 816.209,948.2 875.208,913.749 950.667,869.685 1019.54,829.467 1097.92,783.695 1160.06,747.41 1237.26,702.331 1296.38,667.807 1379.74,619.134 1442.02,582.762 1512.86,541.398 1583.01,500.434 1660.19,455.366 1719.14,420.941 1793.53,377.501 1862.34,337.323 1933.3,295.886 2005.22,253.885 2080.33,210.029 2139.49,175.481 2274.23,96.8035 2289.34,87.9763 "/>
<path clip-path="url(#clip720)" d="M186.863 354.181 L644.882 354.181 L644.882 95.2176 L186.863 95.2176  Z" fill="#ffffff" fill-rule="evenodd" fill-opacity="1"/>
<polyline clip-path="url(#clip720)" style="stroke:#000000; stroke-linecap:round; stroke-linejoin:round; stroke-width:4; stroke-opacity:1; fill:none" points="186.863,354.181 644.882,354.181 644.882,95.2176 186.863,95.2176 186.863,354.181 "/>
<polyline clip-path="url(#clip720)" style="stroke:#009af9; stroke-linecap:round; stroke-linejoin:round; stroke-width:4; stroke-opacity:1; fill:none" points="211.758,181.539 361.13,181.539 "/>
<path clip-path="url(#clip720)" d="M408.16 174.365 Q408.16 174.693 407.949 175.466 L403.358 193.782 Q402.351 197.858 399.072 200.715 Q395.816 203.573 392.116 203.573 Q389.89 203.573 388.462 202.378 Q387.033 201.207 387.033 199.404 Q387.033 197.811 387.876 197.038 Q388.719 196.288 389.726 196.288 Q390.054 196.288 390.406 196.382 Q390.757 196.476 391.132 196.874 Q391.507 197.272 391.507 197.951 Q391.507 199.052 390.546 199.919 Q390.078 200.317 389.633 200.411 Q389.211 200.504 388.485 200.504 Q388.766 201.16 389.281 201.605 Q389.797 202.05 390.382 202.214 Q390.968 202.402 391.343 202.449 Q391.741 202.519 392.116 202.519 Q395.114 202.519 397.409 199.497 Q398.088 198.584 398.58 197.67 Q399.095 196.78 399.47 195.679 Q399.845 194.602 400.009 194.016 Q400.196 193.431 400.524 192.096 Q398.346 194.274 395.676 194.274 Q394.551 194.274 393.544 193.97 Q392.561 193.665 391.694 193.033 Q390.827 192.377 390.312 191.229 Q389.82 190.081 389.82 188.559 Q389.82 186.943 390.453 184.741 Q391.085 182.539 392.607 178.487 Q393.427 176.215 393.427 175.115 Q393.427 174.576 393.31 174.248 Q393.193 173.897 392.959 173.779 Q392.725 173.639 392.584 173.616 Q392.467 173.592 392.233 173.592 Q390.851 173.592 389.562 174.997 Q388.274 176.403 387.384 179.541 Q387.197 180.127 387.08 180.267 Q386.963 180.408 386.611 180.408 Q386.026 180.385 386.026 179.916 Q386.026 179.729 386.236 179.003 Q386.447 178.253 386.939 177.152 Q387.454 176.028 388.157 175.021 Q388.86 173.99 389.961 173.264 Q391.085 172.538 392.373 172.538 Q394.13 172.538 395.207 173.686 Q396.308 174.81 396.308 176.473 Q396.308 177.152 396.121 177.761 Q395.957 178.347 395.348 179.916 Q392.888 186.24 392.888 189.332 Q392.888 190.081 393.006 190.714 Q393.146 191.323 393.451 191.932 Q393.755 192.517 394.364 192.869 Q394.996 193.197 395.863 193.197 Q396.964 193.197 397.995 192.681 Q399.049 192.143 399.704 191.417 Q400.384 190.69 400.782 190.081 Q401.203 189.449 401.297 189.121 L403.452 180.502 L404.412 176.66 Q404.857 174.576 405.068 174.061 Q405.349 173.569 405.841 173.311 Q406.333 173.053 406.755 173.053 Q407.34 173.053 407.738 173.405 Q408.16 173.756 408.16 174.365 Z" fill="#000000" fill-rule="nonzero" fill-opacity="1" /><path clip-path="url(#clip720)" d="M422.593 186.451 Q422.64 185.865 423.554 185.865 L452.949 185.865 Q454.331 185.865 454.354 186.404 Q454.354 186.99 453.043 186.966 L423.882 186.966 Q422.593 186.99 422.593 186.451 M422.593 177.082 Q422.593 176.496 423.6 176.52 L452.902 176.52 Q454.331 176.52 454.354 177.082 Q454.354 177.621 453.136 177.621 L423.554 177.621 Q422.593 177.621 422.593 177.082 Z" fill="#000000" fill-rule="nonzero" fill-opacity="1" /><path clip-path="url(#clip720)" d="M472.845 184.342 L477.606 176.999 L479.542 186.742 L479.905 188.517 Q479.986 188.053 480.228 187.267 Q480.49 186.46 480.531 186.258 L486.926 161.708 Q486.966 161.546 487.026 161.284 Q487.107 161.002 487.147 160.901 Q487.188 160.8 487.248 160.598 Q487.309 160.397 487.349 160.336 Q487.39 160.255 487.45 160.114 Q487.511 159.973 487.591 159.933 Q487.672 159.892 487.773 159.812 Q487.874 159.731 487.995 159.711 Q488.136 159.691 488.277 159.67 Q488.418 159.65 488.62 159.65 L492.231 159.65 Q493.502 159.65 493.502 160.477 Q493.502 161.304 492.271 161.304 L488.741 161.304 L480.41 193.157 Q480.289 193.621 480.188 193.803 Q480.107 193.984 479.825 194.146 Q479.542 194.307 479.038 194.307 L478.635 194.307 L475.992 181.174 L473.511 185.007 L472.845 184.342 Z" fill="#000000" fill-rule="nonzero" fill-opacity="1" /><path clip-path="url(#clip720)" d="M492.14 161.324 L526.036 161.324 L526.036 159.608 L492.14 159.608  Z" fill="#000000" fill-rule="evenodd" fill-opacity="1"/>
<path clip-path="url(#clip720)" d="M521.151 175.273 Q521.151 176.584 520.331 177.334 Q519.511 178.06 518.574 178.06 Q517.684 178.06 517.216 177.545 Q516.747 177.029 516.747 176.374 Q516.747 175.484 517.403 174.711 Q518.059 173.938 519.043 173.774 Q518.082 173.165 516.653 173.165 Q515.717 173.165 514.897 173.657 Q514.1 174.148 513.609 174.781 Q513.14 175.413 512.719 176.327 Q512.32 177.217 512.156 177.756 Q512.016 178.271 511.899 178.833 L510.259 185.391 Q509.463 188.506 509.463 189.607 Q509.463 190.966 510.119 191.879 Q510.774 192.769 512.086 192.769 Q512.601 192.769 513.187 192.629 Q513.773 192.465 514.522 192.043 Q515.295 191.598 515.974 190.942 Q516.677 190.263 517.356 189.115 Q518.035 187.968 518.48 186.492 Q518.621 185.977 519.089 185.977 Q519.675 185.977 519.675 186.445 Q519.675 186.843 519.347 187.687 Q519.043 188.506 518.363 189.584 Q517.707 190.638 516.841 191.598 Q515.974 192.535 514.686 193.191 Q513.398 193.847 511.992 193.847 Q509.978 193.847 508.643 192.769 Q507.308 191.692 506.816 190.193 Q506.699 190.404 506.535 190.685 Q506.371 190.966 505.879 191.598 Q505.411 192.207 504.872 192.676 Q504.333 193.121 503.49 193.472 Q502.67 193.847 501.78 193.847 Q500.656 193.847 499.649 193.519 Q498.665 193.191 497.962 192.441 Q497.26 191.692 497.26 190.661 Q497.26 189.514 498.033 188.717 Q498.829 187.897 499.906 187.897 Q500.586 187.897 501.124 188.296 Q501.687 188.694 501.687 189.56 Q501.687 190.521 501.031 191.247 Q500.375 191.973 499.438 192.16 Q500.398 192.769 501.827 192.769 Q503.373 192.769 504.591 191.411 Q505.809 190.052 506.394 187.78 Q507.847 182.323 508.409 179.887 Q508.971 177.428 508.971 176.374 Q508.971 175.39 508.713 174.711 Q508.456 174.031 508.011 173.727 Q507.589 173.399 507.191 173.282 Q506.816 173.165 506.394 173.165 Q505.692 173.165 504.895 173.446 Q504.122 173.727 503.186 174.383 Q502.272 175.015 501.405 176.327 Q500.539 177.638 499.953 179.442 Q499.836 179.981 499.321 179.981 Q498.759 179.957 498.759 179.489 Q498.759 179.091 499.063 178.271 Q499.391 177.428 500.047 176.374 Q500.726 175.32 501.593 174.383 Q502.483 173.422 503.771 172.767 Q505.083 172.111 506.488 172.111 Q507.121 172.111 507.73 172.251 Q508.362 172.368 509.111 172.72 Q509.884 173.071 510.564 173.844 Q511.243 174.617 511.664 175.741 Q511.946 175.202 512.32 174.687 Q512.719 174.172 513.327 173.539 Q513.96 172.884 514.827 172.509 Q515.717 172.111 516.7 172.111 Q517.661 172.111 518.598 172.368 Q519.534 172.603 520.331 173.376 Q521.151 174.125 521.151 175.273 Z" fill="#000000" fill-rule="nonzero" fill-opacity="1" /><polyline clip-path="url(#clip720)" style="stroke:#e26f46; stroke-linecap:round; stroke-linejoin:round; stroke-width:4; stroke-opacity:1; fill:none" points="211.758,267.86 361.13,267.86 "/>
<path clip-path="url(#clip720)" d="M408.16 260.373 Q408.16 260.7 407.949 261.473 L403.358 279.79 Q402.351 283.865 399.072 286.723 Q395.816 289.58 392.116 289.58 Q389.89 289.58 388.462 288.386 Q387.033 287.215 387.033 285.411 Q387.033 283.818 387.876 283.045 Q388.719 282.296 389.726 282.296 Q390.054 282.296 390.406 282.39 Q390.757 282.483 391.132 282.881 Q391.507 283.28 391.507 283.959 Q391.507 285.06 390.546 285.926 Q390.078 286.325 389.633 286.418 Q389.211 286.512 388.485 286.512 Q388.766 287.168 389.281 287.613 Q389.797 288.058 390.382 288.222 Q390.968 288.409 391.343 288.456 Q391.741 288.526 392.116 288.526 Q395.114 288.526 397.409 285.505 Q398.088 284.591 398.58 283.678 Q399.095 282.788 399.47 281.687 Q399.845 280.609 400.009 280.024 Q400.196 279.438 400.524 278.103 Q398.346 280.282 395.676 280.282 Q394.551 280.282 393.544 279.977 Q392.561 279.673 391.694 279.04 Q390.827 278.384 390.312 277.237 Q389.82 276.089 389.82 274.567 Q389.82 272.95 390.453 270.749 Q391.085 268.547 392.607 264.495 Q393.427 262.223 393.427 261.122 Q393.427 260.583 393.31 260.255 Q393.193 259.904 392.959 259.787 Q392.725 259.646 392.584 259.623 Q392.467 259.6 392.233 259.6 Q390.851 259.6 389.562 261.005 Q388.274 262.41 387.384 265.549 Q387.197 266.134 387.08 266.275 Q386.963 266.415 386.611 266.415 Q386.026 266.392 386.026 265.924 Q386.026 265.736 386.236 265.01 Q386.447 264.261 386.939 263.16 Q387.454 262.035 388.157 261.028 Q388.86 259.998 389.961 259.272 Q391.085 258.546 392.373 258.546 Q394.13 258.546 395.207 259.693 Q396.308 260.818 396.308 262.481 Q396.308 263.16 396.121 263.769 Q395.957 264.354 395.348 265.924 Q392.888 272.248 392.888 275.339 Q392.888 276.089 393.006 276.721 Q393.146 277.33 393.451 277.939 Q393.755 278.525 394.364 278.876 Q394.996 279.204 395.863 279.204 Q396.964 279.204 397.995 278.689 Q399.049 278.15 399.704 277.424 Q400.384 276.698 400.782 276.089 Q401.203 275.457 401.297 275.129 L403.452 266.509 L404.412 262.668 Q404.857 260.583 405.068 260.068 Q405.349 259.576 405.841 259.318 Q406.333 259.061 406.755 259.061 Q407.34 259.061 407.738 259.412 Q408.16 259.764 408.16 260.373 Z" fill="#000000" fill-rule="nonzero" fill-opacity="1" /><path clip-path="url(#clip720)" d="M422.593 272.458 Q422.64 271.873 423.554 271.873 L452.949 271.873 Q454.331 271.873 454.354 272.412 Q454.354 272.997 453.043 272.974 L423.882 272.974 Q422.593 272.997 422.593 272.458 M422.593 263.09 Q422.593 262.504 423.6 262.527 L452.902 262.527 Q454.331 262.527 454.354 263.09 Q454.354 263.628 453.136 263.628 L423.554 263.628 Q422.593 263.628 422.593 263.09 Z" fill="#000000" fill-rule="nonzero" fill-opacity="1" /><path clip-path="url(#clip720)" d="M485.085 228.959 L485.085 227.46 Q490.847 227.46 493.822 224.392 Q494.641 224.392 494.782 224.579 Q494.922 224.767 494.922 225.633 L494.922 252.546 Q494.922 253.974 495.625 254.419 Q496.328 254.864 499.396 254.864 L500.919 254.864 L500.919 256.34 Q499.232 256.2 493.142 256.2 Q487.053 256.2 485.39 256.34 L485.39 254.864 L486.912 254.864 Q489.933 254.864 490.66 254.443 Q491.386 253.998 491.386 252.546 L491.386 227.694 Q488.879 228.959 485.085 228.959 Z" fill="#000000" fill-rule="nonzero" fill-opacity="1" /><path clip-path="url(#clip720)" d="M483.085 269.14 L507.174 269.14 L507.174 266.58 L483.085 266.58  Z" fill="#000000" fill-rule="evenodd" fill-opacity="1"/>
<path clip-path="url(#clip720)" d="M483.085 311.021 Q483.085 310.154 483.155 309.896 Q483.249 309.639 483.624 309.241 L492.829 298.982 Q497.865 293.313 497.865 288.371 Q497.865 285.162 496.178 282.867 Q494.515 280.572 491.447 280.572 Q489.339 280.572 487.559 281.86 Q485.779 283.148 484.959 285.443 Q485.099 285.397 485.591 285.397 Q486.786 285.397 487.442 286.146 Q488.121 286.896 488.121 287.903 Q488.121 289.191 487.278 289.823 Q486.458 290.432 485.638 290.432 Q485.31 290.432 484.865 290.362 Q484.444 290.292 483.764 289.636 Q483.085 288.957 483.085 287.762 Q483.085 284.413 485.615 281.743 Q488.168 279.072 492.056 279.072 Q496.459 279.072 499.34 281.696 Q502.245 284.296 502.245 288.371 Q502.245 289.8 501.8 291.112 Q501.378 292.4 500.792 293.407 Q500.23 294.414 498.684 296.03 Q497.139 297.646 495.897 298.794 Q494.656 299.942 491.868 302.378 L486.786 307.32 L495.429 307.32 Q499.645 307.32 499.973 306.945 Q500.441 306.266 501.027 302.682 L502.245 302.682 L500.886 311.021 L483.085 311.021 Z" fill="#000000" fill-rule="nonzero" fill-opacity="1" /><path clip-path="url(#clip720)" d="M526.699 268.336 Q525.598 268.336 525.598 267.751 Q525.598 267.165 526.746 267.165 Q526.887 267.165 527.121 267.188 Q527.379 267.212 527.425 267.212 L540.94 267.212 L540.94 253.65 Q540.94 253.603 540.917 253.393 Q540.893 253.158 540.893 253.018 Q540.893 251.87 541.455 251.87 Q542.041 251.87 542.041 253.018 L542.041 267.212 L555.579 267.212 Q555.626 267.212 555.86 267.188 Q556.095 267.165 556.235 267.165 Q557.336 267.165 557.336 267.751 Q557.359 268.336 556.188 268.336 Q556.048 268.336 555.837 268.313 Q555.626 268.289 555.579 268.289 L542.041 268.289 L542.041 282.53 Q542.041 283.631 541.455 283.631 Q540.893 283.631 540.893 282.483 Q540.893 282.343 540.917 282.109 Q540.94 281.898 540.94 281.851 L540.94 268.289 L527.425 268.289 Q527.379 268.289 527.098 268.313 Q526.84 268.336 526.699 268.336 Z" fill="#000000" fill-rule="nonzero" fill-opacity="1" /><path clip-path="url(#clip720)" d="M609.981 237.774 Q609.981 239.085 609.161 239.835 Q608.342 240.561 607.405 240.561 Q606.515 240.561 606.046 240.045 Q605.578 239.53 605.578 238.874 Q605.578 237.984 606.234 237.211 Q606.889 236.438 607.873 236.274 Q606.913 235.666 605.484 235.666 Q604.547 235.666 603.727 236.157 Q602.931 236.649 602.439 237.282 Q601.971 237.914 601.549 238.828 Q601.151 239.718 600.987 240.256 Q600.846 240.772 600.729 241.334 L599.09 247.892 Q598.293 251.007 598.293 252.108 Q598.293 253.467 598.949 254.38 Q599.605 255.27 600.917 255.27 Q601.432 255.27 602.017 255.13 Q602.603 254.966 603.353 254.544 Q604.126 254.099 604.805 253.443 Q605.507 252.764 606.187 251.616 Q606.866 250.468 607.311 248.993 Q607.451 248.478 607.92 248.478 Q608.505 248.478 608.505 248.946 Q608.505 249.344 608.178 250.187 Q607.873 251.007 607.194 252.085 Q606.538 253.139 605.671 254.099 Q604.805 255.036 603.517 255.692 Q602.228 256.348 600.823 256.348 Q598.809 256.348 597.474 255.27 Q596.138 254.193 595.647 252.694 Q595.529 252.904 595.366 253.185 Q595.202 253.467 594.71 254.099 Q594.241 254.708 593.703 255.176 Q593.164 255.621 592.321 255.973 Q591.501 256.348 590.611 256.348 Q589.486 256.348 588.479 256.02 Q587.496 255.692 586.793 254.942 Q586.09 254.193 586.09 253.162 Q586.09 252.014 586.863 251.218 Q587.66 250.398 588.737 250.398 Q589.416 250.398 589.955 250.796 Q590.517 251.195 590.517 252.061 Q590.517 253.022 589.861 253.748 Q589.205 254.474 588.269 254.661 Q589.229 255.27 590.658 255.27 Q592.203 255.27 593.421 253.912 Q594.639 252.553 595.225 250.281 Q596.677 244.824 597.239 242.388 Q597.801 239.928 597.801 238.874 Q597.801 237.891 597.544 237.211 Q597.286 236.532 596.841 236.228 Q596.42 235.9 596.021 235.783 Q595.647 235.666 595.225 235.666 Q594.522 235.666 593.726 235.947 Q592.953 236.228 592.016 236.883 Q591.103 237.516 590.236 238.828 Q589.369 240.139 588.784 241.943 Q588.667 242.481 588.151 242.481 Q587.589 242.458 587.589 241.99 Q587.589 241.591 587.894 240.772 Q588.222 239.928 588.877 238.874 Q589.557 237.82 590.423 236.883 Q591.313 235.923 592.602 235.267 Q593.913 234.611 595.319 234.611 Q595.951 234.611 596.56 234.752 Q597.192 234.869 597.942 235.22 Q598.715 235.572 599.394 236.345 Q600.073 237.118 600.495 238.242 Q600.776 237.703 601.151 237.188 Q601.549 236.673 602.158 236.04 Q602.79 235.384 603.657 235.01 Q604.547 234.611 605.531 234.611 Q606.491 234.611 607.428 234.869 Q608.365 235.103 609.161 235.876 Q609.981 236.626 609.981 237.774 Z" fill="#000000" fill-rule="nonzero" fill-opacity="1" /><path clip-path="url(#clip720)" d="M586.09 269.14 L614.866 269.14 L614.866 266.58 L586.09 266.58  Z" fill="#000000" fill-rule="evenodd" fill-opacity="1"/>
<path clip-path="url(#clip720)" d="M588.09 311.021 Q588.09 310.154 588.16 309.896 Q588.254 309.639 588.629 309.241 L597.834 298.982 Q602.87 293.313 602.87 288.371 Q602.87 285.162 601.183 282.867 Q599.52 280.572 596.452 280.572 Q594.344 280.572 592.564 281.86 Q590.784 283.148 589.964 285.443 Q590.105 285.397 590.596 285.397 Q591.791 285.397 592.447 286.146 Q593.126 286.896 593.126 287.903 Q593.126 289.191 592.283 289.823 Q591.463 290.432 590.643 290.432 Q590.315 290.432 589.87 290.362 Q589.449 290.292 588.769 289.636 Q588.09 288.957 588.09 287.762 Q588.09 284.413 590.62 281.743 Q593.173 279.072 597.061 279.072 Q601.464 279.072 604.345 281.696 Q607.25 284.296 607.25 288.371 Q607.25 289.8 606.805 291.112 Q606.383 292.4 605.798 293.407 Q605.235 294.414 603.69 296.03 Q602.144 297.646 600.902 298.794 Q599.661 299.942 596.874 302.378 L591.791 307.32 L600.434 307.32 Q604.65 307.32 604.978 306.945 Q605.446 306.266 606.032 302.682 L607.25 302.682 L605.891 311.021 L588.09 311.021 Z" fill="#000000" fill-rule="nonzero" fill-opacity="1" /></svg>
