<?xml version="1.0" encoding="utf-8"?>
<svg xmlns="http://www.w3.org/2000/svg" xmlns:xlink="http://www.w3.org/1999/xlink" width="600" height="400" viewBox="0 0 2400 1600">
<defs>
  <clipPath id="clip360">
    <rect x="0" y="0" width="2400" height="1600"/>
  </clipPath>
</defs>
<path clip-path="url(#clip360)" d="M0 1600 L2400 1600 L2400 0 L0 0  Z" fill="#ffffff" fill-rule="evenodd" fill-opacity="1"/>
<defs>
  <clipPath id="clip361">
    <rect x="480" y="0" width="1681" height="1600"/>
  </clipPath>
</defs>
<path clip-path="url(#clip360)" d="M112.177 1486.45 L2352.76 1486.45 L2352.76 47.2441 L112.177 47.2441  Z" fill="#ffffff" fill-rule="evenodd" fill-opacity="1"/>
<defs>
  <clipPath id="clip362">
    <rect x="112" y="47" width="2242" height="1440"/>
  </clipPath>
</defs>
<polyline clip-path="url(#clip362)" style="stroke:#000000; stroke-linecap:round; stroke-linejoin:round; stroke-width:2; stroke-opacity:0.1; fill:none" points="175.59,1486.45 175.59,47.2441 "/>
<polyline clip-path="url(#clip362)" style="stroke:#000000; stroke-linecap:round; stroke-linejoin:round; stroke-width:2; stroke-opacity:0.1; fill:none" points="704.028,1486.45 704.028,47.2441 "/>
<polyline clip-path="url(#clip362)" style="stroke:#000000; stroke-linecap:round; stroke-linejoin:round; stroke-width:2; stroke-opacity:0.1; fill:none" points="1232.47,1486.45 1232.47,47.2441 "/>
<polyline clip-path="url(#clip362)" style="stroke:#000000; stroke-linecap:round; stroke-linejoin:round; stroke-width:2; stroke-opacity:0.1; fill:none" points="1760.9,1486.45 1760.9,47.2441 "/>
<polyline clip-path="url(#clip362)" style="stroke:#000000; stroke-linecap:round; stroke-linejoin:round; stroke-width:2; stroke-opacity:0.1; fill:none" points="2289.34,1486.45 2289.34,47.2441 "/>
<polyline clip-path="url(#clip362)" style="stroke:#000000; stroke-linecap:round; stroke-linejoin:round; stroke-width:2; stroke-opacity:0.1; fill:none" points="112.177,1445.72 2352.76,1445.72 "/>
<polyline clip-path="url(#clip362)" style="stroke:#000000; stroke-linecap:round; stroke-linejoin:round; stroke-width:2; stroke-opacity:0.1; fill:none" points="112.177,1144 2352.76,1144 "/>
<polyline clip-path="url(#clip362)" style="stroke:#000000; stroke-linecap:round; stroke-linejoin:round; stroke-width:2; stroke-opacity:0.1; fill:none" points="112.177,842.276 2352.76,842.276 "/>
<polyline clip-path="url(#clip362)" style="stroke:#000000; stroke-linecap:round; stroke-linejoin:round; stroke-width:2; stroke-opacity:0.1; fill:none" points="112.177,540.556 2352.76,540.556 "/>
<polyline clip-path="url(#clip362)" style="stroke:#000000; stroke-linecap:round; stroke-linejoin:round; stroke-width:2; stroke-opacity:0.1; fill:none" points="112.177,238.836 2352.76,238.836 "/>
<polyline clip-path="url(#clip360)" style="stroke:#000000; stroke-linecap:round; stroke-linejoin:round; stroke-width:4; stroke-opacity:1; fill:none" points="112.177,1486.45 2352.76,1486.45 "/>
<polyline clip-path="url(#clip360)" style="stroke:#000000; stroke-linecap:round; stroke-linejoin:round; stroke-width:4; stroke-opacity:1; fill:none" points="175.59,1486.45 175.59,1467.55 "/>
<polyline clip-path="url(#clip360)" style="stroke:#000000; stroke-linecap:round; stroke-linejoin:round; stroke-width:4; stroke-opacity:1; fill:none" points="704.028,1486.45 704.028,1467.55 "/>
<polyline clip-path="url(#clip360)" style="stroke:#000000; stroke-linecap:round; stroke-linejoin:round; stroke-width:4; stroke-opacity:1; fill:none" points="1232.47,1486.45 1232.47,1467.55 "/>
<polyline clip-path="url(#clip360)" style="stroke:#000000; stroke-linecap:round; stroke-linejoin:round; stroke-width:4; stroke-opacity:1; fill:none" points="1760.9,1486.45 1760.9,1467.55 "/>
<polyline clip-path="url(#clip360)" style="stroke:#000000; stroke-linecap:round; stroke-linejoin:round; stroke-width:4; stroke-opacity:1; fill:none" points="2289.34,1486.45 2289.34,1467.55 "/>
<path clip-path="url(#clip360)" d="M175.59 1517.37 Q171.979 1517.37 170.15 1520.93 Q168.344 1524.47 168.344 1531.6 Q168.344 1538.71 170.15 1542.27 Q171.979 1545.82 175.59 1545.82 Q179.224 1545.82 181.03 1542.27 Q182.858 1538.71 182.858 1531.6 Q182.858 1524.47 181.03 1520.93 Q179.224 1517.37 175.59 1517.37 M175.59 1513.66 Q181.4 1513.66 184.455 1518.27 Q187.534 1522.85 187.534 1531.6 Q187.534 1540.33 184.455 1544.94 Q181.4 1549.52 175.59 1549.52 Q169.78 1549.52 166.701 1544.94 Q163.645 1540.33 163.645 1531.6 Q163.645 1522.85 166.701 1518.27 Q169.78 1513.66 175.59 1513.66 Z" fill="#000000" fill-rule="nonzero" fill-opacity="1" /><path clip-path="url(#clip360)" d="M694.306 1514.29 L712.662 1514.29 L712.662 1518.22 L698.588 1518.22 L698.588 1526.7 Q699.607 1526.35 700.625 1526.19 Q701.644 1526 702.662 1526 Q708.449 1526 711.829 1529.17 Q715.209 1532.34 715.209 1537.76 Q715.209 1543.34 711.736 1546.44 Q708.264 1549.52 701.945 1549.52 Q699.769 1549.52 697.5 1549.15 Q695.255 1548.78 692.848 1548.04 L692.848 1543.34 Q694.931 1544.47 697.153 1545.03 Q699.375 1545.58 701.852 1545.58 Q705.857 1545.58 708.195 1543.48 Q710.533 1541.37 710.533 1537.76 Q710.533 1534.15 708.195 1532.04 Q705.857 1529.94 701.852 1529.94 Q699.977 1529.94 698.102 1530.35 Q696.25 1530.77 694.306 1531.65 L694.306 1514.29 Z" fill="#000000" fill-rule="nonzero" fill-opacity="1" /><path clip-path="url(#clip360)" d="M1207.15 1544.91 L1214.79 1544.91 L1214.79 1518.55 L1206.48 1520.21 L1206.48 1515.95 L1214.75 1514.29 L1219.42 1514.29 L1219.42 1544.91 L1227.06 1544.91 L1227.06 1548.85 L1207.15 1548.85 L1207.15 1544.91 Z" fill="#000000" fill-rule="nonzero" fill-opacity="1" /><path clip-path="url(#clip360)" d="M1246.51 1517.37 Q1242.89 1517.37 1241.07 1520.93 Q1239.26 1524.47 1239.26 1531.6 Q1239.26 1538.71 1241.07 1542.27 Q1242.89 1545.82 1246.51 1545.82 Q1250.14 1545.82 1251.95 1542.27 Q1253.77 1538.71 1253.77 1531.6 Q1253.77 1524.47 1251.95 1520.93 Q1250.14 1517.37 1246.51 1517.37 M1246.51 1513.66 Q1252.32 1513.66 1255.37 1518.27 Q1258.45 1522.85 1258.45 1531.6 Q1258.45 1540.33 1255.37 1544.94 Q1252.32 1549.52 1246.51 1549.52 Q1240.7 1549.52 1237.62 1544.94 Q1234.56 1540.33 1234.56 1531.6 Q1234.56 1522.85 1237.62 1518.27 Q1240.7 1513.66 1246.51 1513.66 Z" fill="#000000" fill-rule="nonzero" fill-opacity="1" /><path clip-path="url(#clip360)" d="M1736.09 1544.91 L1743.73 1544.91 L1743.73 1518.55 L1735.42 1520.21 L1735.42 1515.95 L1743.68 1514.29 L1748.36 1514.29 L1748.36 1544.91 L1756 1544.91 L1756 1548.85 L1736.09 1548.85 L1736.09 1544.91 Z" fill="#000000" fill-rule="nonzero" fill-opacity="1" /><path clip-path="url(#clip360)" d="M1765.49 1514.29 L1783.84 1514.29 L1783.84 1518.22 L1769.77 1518.22 L1769.77 1526.7 Q1770.79 1526.35 1771.81 1526.19 Q1772.83 1526 1773.84 1526 Q1779.63 1526 1783.01 1529.17 Q1786.39 1532.34 1786.39 1537.76 Q1786.39 1543.34 1782.92 1546.44 Q1779.45 1549.52 1773.13 1549.52 Q1770.95 1549.52 1768.68 1549.15 Q1766.44 1548.78 1764.03 1548.04 L1764.03 1543.34 Q1766.11 1544.47 1768.34 1545.03 Q1770.56 1545.58 1773.03 1545.58 Q1777.04 1545.58 1779.38 1543.48 Q1781.71 1541.37 1781.71 1537.76 Q1781.71 1534.15 1779.38 1532.04 Q1777.04 1529.94 1773.03 1529.94 Q1771.16 1529.94 1769.28 1530.35 Q1767.43 1530.77 1765.49 1531.65 L1765.49 1514.29 Z" fill="#000000" fill-rule="nonzero" fill-opacity="1" /><path clip-path="url(#clip360)" d="M2268.12 1544.91 L2284.44 1544.91 L2284.44 1548.85 L2262.49 1548.85 L2262.49 1544.91 Q2265.15 1542.16 2269.74 1537.53 Q2274.34 1532.88 2275.52 1531.53 Q2277.77 1529.01 2278.65 1527.27 Q2279.55 1525.51 2279.55 1523.82 Q2279.55 1521.07 2277.61 1519.33 Q2275.69 1517.6 2272.58 1517.6 Q2270.39 1517.6 2267.93 1518.36 Q2265.5 1519.13 2262.72 1520.68 L2262.72 1515.95 Q2265.55 1514.82 2268 1514.24 Q2270.45 1513.66 2272.49 1513.66 Q2277.86 1513.66 2281.06 1516.35 Q2284.25 1519.03 2284.25 1523.52 Q2284.25 1525.65 2283.44 1527.57 Q2282.65 1529.47 2280.55 1532.07 Q2279.97 1532.74 2276.87 1535.95 Q2273.76 1539.15 2268.12 1544.91 Z" fill="#000000" fill-rule="nonzero" fill-opacity="1" /><path clip-path="url(#clip360)" d="M2304.25 1517.37 Q2300.64 1517.37 2298.81 1520.93 Q2297.01 1524.47 2297.01 1531.6 Q2297.01 1538.71 2298.81 1542.27 Q2300.64 1545.82 2304.25 1545.82 Q2307.88 1545.82 2309.69 1542.27 Q2311.52 1538.71 2311.52 1531.6 Q2311.52 1524.47 2309.69 1520.93 Q2307.88 1517.37 2304.25 1517.37 M2304.25 1513.66 Q2310.06 1513.66 2313.12 1518.27 Q2316.2 1522.85 2316.2 1531.6 Q2316.2 1540.33 2313.12 1544.94 Q2310.06 1549.52 2304.25 1549.52 Q2298.44 1549.52 2295.36 1544.94 Q2292.31 1540.33 2292.31 1531.6 Q2292.31 1522.85 2295.36 1518.27 Q2298.44 1513.66 2304.25 1513.66 Z" fill="#000000" fill-rule="nonzero" fill-opacity="1" /><polyline clip-path="url(#clip360)" style="stroke:#000000; stroke-linecap:round; stroke-linejoin:round; stroke-width:4; stroke-opacity:1; fill:none" points="112.177,1486.45 112.177,47.2441 "/>
<polyline clip-path="url(#clip360)" style="stroke:#000000; stroke-linecap:round; stroke-linejoin:round; stroke-width:4; stroke-opacity:1; fill:none" points="112.177,1445.72 131.075,1445.72 "/>
<polyline clip-path="url(#clip360)" style="stroke:#000000; stroke-linecap:round; stroke-linejoin:round; stroke-width:4; stroke-opacity:1; fill:none" points="112.177,1144 131.075,1144 "/>
<polyline clip-path="url(#clip360)" style="stroke:#000000; stroke-linecap:round; stroke-linejoin:round; stroke-width:4; stroke-opacity:1; fill:none" points="112.177,842.276 131.075,842.276 "/>
<polyline clip-path="url(#clip360)" style="stroke:#000000; stroke-linecap:round; stroke-linejoin:round; stroke-width:4; stroke-opacity:1; fill:none" points="112.177,540.556 131.075,540.556 "/>
<polyline clip-path="url(#clip360)" style="stroke:#000000; stroke-linecap:round; stroke-linejoin:round; stroke-width:4; stroke-opacity:1; fill:none" points="112.177,238.836 131.075,238.836 "/>
<path clip-path="url(#clip360)" d="M64.2328 1431.51 Q60.6217 1431.51 58.793 1435.08 Q56.9875 1438.62 56.9875 1445.75 Q56.9875 1452.86 58.793 1456.42 Q60.6217 1459.96 64.2328 1459.96 Q67.867 1459.96 69.6726 1456.42 Q71.5013 1452.86 71.5013 1445.75 Q71.5013 1438.62 69.6726 1435.08 Q67.867 1431.51 64.2328 1431.51 M64.2328 1427.81 Q70.0429 1427.81 73.0985 1432.42 Q76.1772 1437 76.1772 1445.75 Q76.1772 1454.48 73.0985 1459.08 Q70.0429 1463.67 64.2328 1463.67 Q58.4226 1463.67 55.344 1459.08 Q52.2884 1454.48 52.2884 1445.75 Q52.2884 1437 55.344 1432.42 Q58.4226 1427.81 64.2328 1427.81 Z" fill="#000000" fill-rule="nonzero" fill-opacity="1" /><path clip-path="url(#clip360)" d="M56.2699 1157.34 L63.9087 1157.34 L63.9087 1130.98 L55.5986 1132.64 L55.5986 1128.38 L63.8624 1126.72 L68.5383 1126.72 L68.5383 1157.34 L76.1772 1157.34 L76.1772 1161.28 L56.2699 1161.28 L56.2699 1157.34 Z" fill="#000000" fill-rule="nonzero" fill-opacity="1" /><path clip-path="url(#clip360)" d="M59.8578 855.621 L76.1772 855.621 L76.1772 859.556 L54.2328 859.556 L54.2328 855.621 Q56.8949 852.866 61.4782 848.237 Q66.0846 843.584 67.2652 842.241 Q69.5105 839.718 70.3902 837.982 Q71.2929 836.223 71.2929 834.533 Q71.2929 831.778 69.3485 830.042 Q67.4272 828.306 64.3254 828.306 Q62.1263 828.306 59.6726 829.07 Q57.2421 829.834 54.4643 831.385 L54.4643 826.663 Q57.2884 825.528 59.7421 824.95 Q62.1958 824.371 64.2328 824.371 Q69.6031 824.371 72.7976 827.056 Q75.992 829.741 75.992 834.232 Q75.992 836.362 75.1818 838.283 Q74.3948 840.181 72.2883 842.774 Q71.7096 843.445 68.6078 846.663 Q65.5059 849.857 59.8578 855.621 Z" fill="#000000" fill-rule="nonzero" fill-opacity="1" /><path clip-path="url(#clip360)" d="M69.0476 539.202 Q72.404 539.92 74.279 542.188 Q76.1772 544.457 76.1772 547.79 Q76.1772 552.906 72.6587 555.706 Q69.1402 558.507 62.6587 558.507 Q60.4828 558.507 58.168 558.068 Q55.8764 557.651 53.4227 556.794 L53.4227 552.281 Q55.3671 553.415 57.6819 553.994 Q59.9967 554.572 62.5198 554.572 Q66.918 554.572 69.2096 552.836 Q71.5244 551.1 71.5244 547.79 Q71.5244 544.734 69.3717 543.021 Q67.242 541.285 63.4226 541.285 L59.3949 541.285 L59.3949 537.443 L63.6078 537.443 Q67.0569 537.443 68.8855 536.077 Q70.7142 534.688 70.7142 532.095 Q70.7142 529.433 68.8161 528.021 Q66.9411 526.586 63.4226 526.586 Q61.5013 526.586 59.3023 527.003 Q57.1032 527.42 54.4643 528.299 L54.4643 524.133 Q57.1264 523.392 59.4412 523.021 Q61.7791 522.651 63.8393 522.651 Q69.1633 522.651 72.2652 525.082 Q75.367 527.489 75.367 531.609 Q75.367 534.48 73.7235 536.47 Q72.08 538.438 69.0476 539.202 Z" fill="#000000" fill-rule="nonzero" fill-opacity="1" /><path clip-path="url(#clip360)" d="M66.5939 225.63 L54.7884 244.079 L66.5939 244.079 L66.5939 225.63 M65.367 221.556 L71.2466 221.556 L71.2466 244.079 L76.1772 244.079 L76.1772 247.968 L71.2466 247.968 L71.2466 256.116 L66.5939 256.116 L66.5939 247.968 L50.9921 247.968 L50.9921 243.454 L65.367 221.556 Z" fill="#000000" fill-rule="nonzero" fill-opacity="1" /><polyline clip-path="url(#clip362)" style="stroke:#009af9; stroke-linecap:round; stroke-linejoin:round; stroke-width:4; stroke-opacity:1; fill:none" points="175.59,1445.72 178.318,1397.24 181.045,1377.17 183.773,1361.76 186.501,1348.77 189.228,1337.33 191.956,1326.98 194.684,1317.47 197.412,1308.62 205.4,1285.48 213.388,1265.28 221.376,1247.13 229.364,1230.5 237.352,1215.07 245.34,1200.6 253.328,1186.95 261.316,1173.98 277.292,1149.74 293.268,1127.34 309.244,1106.42 325.22,1086.71 340.084,1069.3 354.948,1052.66 369.812,1036.7 384.676,1021.34 424.523,982.66 464.37,946.975 497.295,919.309 530.221,893.027 560.839,869.663 591.457,847.209 629.892,820.162 668.328,794.238 702.805,771.831 737.282,750.145 816.209,702.882 875.208,669.429 950.667,628.636 1019.54,593.106 1097.92,554.391 1160.06,524.856 1237.26,489.432 1296.38,463.166 1379.74,427.286 1442.02,401.277 1512.86,372.465 1583.01,344.674 1660.19,314.888 1719.14,292.655 1793.53,265.196 1862.34,240.356 1933.3,215.263 2005.22,190.339 2080.33,164.833 2139.49,145.092 2274.23,101.217 2289.34,96.3834 "/>
<polyline clip-path="url(#clip362)" style="stroke:#e26f46; stroke-linecap:round; stroke-linejoin:round; stroke-width:4; stroke-opacity:1; fill:none" points="176.954,1410.36 178.318,1395.71 179.681,1386.01 181.045,1375 182.409,1369.06 183.773,1361.28 185.137,1353.49 186.501,1345.7 189.228,1337.32 191.956,1326.3 193.32,1320.8 194.684,1315.29 196.048,1309.78 197.412,1304.28 198.41,1300.25 199.409,1296.21 200.407,1292.18 201.406,1288.15 202.404,1293.74 203.403,1290.89 204.401,1288.03 205.4,1285.18 209.394,1273.78 213.388,1262.38 217.382,1250.98 221.376,1239.58 223.373,1233.87 225.37,1228.17 226.368,1225.32 227.367,1222.47 228.365,1219.62 229.364,1230.49 230.362,1228.47 231.361,1226.46 232.359,1224.44 233.358,1222.43 235.355,1218.4 237.352,1214.37 241.346,1206.3 245.34,1198.24 253.328,1182.11 261.316,1165.99 265.31,1157.93 269.304,1149.86 271.301,1145.83 273.298,1141.8 275.295,1137.77 277.292,1133.74 278.29,1131.72 279.289,1129.71 280.287,1127.69 281.286,1143.98 282.284,1142.56 283.283,1141.13 284.281,1139.71 285.28,1138.28 289.274,1132.58 293.268,1126.88 301.256,1115.48 309.244,1104.08 317.232,1092.67 325.22,1081.27 340.084,1060.05 354.948,1038.84 362.38,1028.23 369.812,1017.62 373.528,1012.32 377.244,1007.01 379.102,1004.36 380.96,1001.71 381.889,1000.38 382.818,999.056 383.747,997.73 384.676,996.403 385.299,995.515 385.921,994.626 386.544,993.737 387.166,1018.82 387.789,1018.19 388.412,1017.56 389.034,1016.93 389.657,1016.3 392.147,1013.79 394.638,1011.28 399.619,1006.25 404.599,1001.22 414.561,991.166 424.523,981.111 444.446,961.002 464.37,940.892 497.295,907.659 530.221,874.426 545.53,858.975 560.839,843.523 568.493,835.797 576.148,828.071 579.975,824.208 583.802,820.345 587.629,816.482 591.457,812.619 592.658,811.407 593.859,810.195 595.06,808.982 596.261,807.77 596.862,807.164 597.462,806.558 598.063,805.952 598.663,842.046 599.264,841.617 599.864,841.188 600.465,840.76 601.065,840.331 603.468,838.617 605.87,836.902 608.272,835.188 610.674,833.473 620.283,826.615 629.892,819.757 649.11,806.041 668.328,792.325 702.805,767.719 737.282,743.112 816.209,686.782 875.208,644.674 912.937,617.746 950.667,590.818 967.885,578.529 985.103,566.241 993.713,560.096 1002.32,553.952 1006.63,550.88 1010.93,547.808 1013.08,546.272 1015.24,544.736 1017.39,543.2 1019.54,541.663 1020.15,541.226 1020.76,540.789 1021.38,592.179 1021.99,591.87 1022.6,591.561 1023.21,591.252 1023.83,590.943 1024.44,590.634 1026.89,589.397 1029.34,588.161 1034.24,585.689 1039.14,583.216 1048.93,578.272 1058.73,573.327 1078.33,563.437 1097.92,553.548 1128.99,537.868 1160.06,522.189 1237.26,483.229 1296.38,453.393 1379.74,411.327 1442.02,379.893 1512.86,344.145 1583.01,308.741 1660.19,269.792 1719.14,240.041 1756.34,221.269 1793.53,202.498 1810.73,193.817 1827.94,185.136 1836.54,180.795 1845.14,176.455 1849.44,174.285 1853.74,172.115 1855.89,171.029 1858.04,169.944 1860.19,168.859 1862.34,167.774 1863.45,167.215 1864.56,166.655 1865.11,166.375 1865.66,166.095 1866.22,165.816 1866.77,238.772 1867.33,238.574 1867.88,238.376 1868.44,238.179 1868.99,237.981 1870.1,237.585 1871.21,237.189 1875.64,235.607 1880.08,234.024 1888.95,230.859 1897.82,227.693 1915.56,221.363 1933.3,215.032 1969.26,202.199 2005.22,189.365 2080.33,162.564 2139.49,141.451 2274.23,93.3707 2289.34,87.9763 "/>
<path clip-path="url(#clip360)" d="M1725.56 1438.47 L2278.07 1438.47 L2278.07 1282.95 L1725.56 1282.95  Z" fill="#ffffff" fill-rule="evenodd" fill-opacity="1"/>
<polyline clip-path="url(#clip360)" style="stroke:#000000; stroke-linecap:round; stroke-linejoin:round; stroke-width:4; stroke-opacity:1; fill:none" points="1725.56,1438.47 2278.07,1438.47 2278.07,1282.95 1725.56,1282.95 1725.56,1438.47 "/>
<polyline clip-path="url(#clip360)" style="stroke:#009af9; stroke-linecap:round; stroke-linejoin:round; stroke-width:4; stroke-opacity:1; fill:none" points="1750.46,1334.79 1899.83,1334.79 "/>
<path clip-path="url(#clip360)" d="M1938.57 1354.48 Q1936.76 1359.11 1935.05 1360.52 Q1933.34 1361.94 1930.47 1361.94 L1927.07 1361.94 L1927.07 1358.37 L1929.57 1358.37 Q1931.32 1358.37 1932.3 1357.54 Q1933.27 1356.7 1934.45 1353.6 L1935.21 1351.66 L1924.73 1326.15 L1929.24 1326.15 L1937.34 1346.43 L1945.44 1326.15 L1949.96 1326.15 L1938.57 1354.48 Z" fill="#000000" fill-rule="nonzero" fill-opacity="1" /><path clip-path="url(#clip360)" d="M1956.39 1330.55 L1986.07 1330.55 L1986.07 1334.44 L1956.39 1334.44 L1956.39 1330.55 M1956.39 1339.99 L1986.07 1339.99 L1986.07 1343.93 L1956.39 1343.93 L1956.39 1339.99 Z" fill="#000000" fill-rule="nonzero" fill-opacity="1" /><path clip-path="url(#clip360)" d="M2012.09 1326.91 L2012.09 1330.94 Q2010.28 1330.01 2008.34 1329.55 Q2006.39 1329.09 2004.31 1329.09 Q2001.14 1329.09 1999.54 1330.06 Q1997.97 1331.03 1997.97 1332.98 Q1997.97 1334.46 1999.1 1335.32 Q2000.24 1336.15 2003.66 1336.91 L2005.12 1337.24 Q2009.66 1338.21 2011.56 1339.99 Q2013.48 1341.75 2013.48 1344.92 Q2013.48 1348.53 2010.61 1350.64 Q2007.76 1352.75 2002.76 1352.75 Q2000.68 1352.75 1998.41 1352.33 Q1996.16 1351.94 1993.66 1351.13 L1993.66 1346.73 Q1996.02 1347.95 1998.31 1348.58 Q2000.61 1349.18 2002.85 1349.18 Q2005.86 1349.18 2007.48 1348.16 Q2009.1 1347.12 2009.1 1345.25 Q2009.1 1343.51 2007.92 1342.58 Q2006.76 1341.66 2002.81 1340.8 L2001.32 1340.45 Q1997.37 1339.62 1995.61 1337.91 Q1993.85 1336.17 1993.85 1333.16 Q1993.85 1329.51 1996.44 1327.51 Q1999.03 1325.52 2003.8 1325.52 Q2006.16 1325.52 2008.25 1325.87 Q2010.33 1326.22 2012.09 1326.91 Z" fill="#000000" fill-rule="nonzero" fill-opacity="1" /><path clip-path="url(#clip360)" d="M2022.81 1339.13 Q2022.81 1343.83 2024.73 1346.52 Q2026.67 1349.18 2030.05 1349.18 Q2033.43 1349.18 2035.37 1346.52 Q2037.32 1343.83 2037.32 1339.13 Q2037.32 1334.44 2035.37 1331.77 Q2033.43 1329.09 2030.05 1329.09 Q2026.67 1329.09 2024.73 1331.77 Q2022.81 1334.44 2022.81 1339.13 M2037.32 1348.19 Q2035.98 1350.5 2033.92 1351.63 Q2031.88 1352.75 2029.01 1352.75 Q2024.31 1352.75 2021.35 1349 Q2018.41 1345.25 2018.41 1339.13 Q2018.41 1333.02 2021.35 1329.27 Q2024.31 1325.52 2029.01 1325.52 Q2031.88 1325.52 2033.92 1326.66 Q2035.98 1327.77 2037.32 1330.08 L2037.32 1326.15 L2041.58 1326.15 L2041.58 1361.94 L2037.32 1361.94 L2037.32 1348.19 Z" fill="#000000" fill-rule="nonzero" fill-opacity="1" /><path clip-path="url(#clip360)" d="M2065.37 1330.13 Q2064.66 1329.71 2063.8 1329.53 Q2062.97 1329.32 2061.95 1329.32 Q2058.34 1329.32 2056.39 1331.68 Q2054.47 1334.02 2054.47 1338.42 L2054.47 1352.07 L2050.19 1352.07 L2050.19 1326.15 L2054.47 1326.15 L2054.47 1330.18 Q2055.81 1327.82 2057.97 1326.68 Q2060.12 1325.52 2063.2 1325.52 Q2063.64 1325.52 2064.17 1325.59 Q2064.7 1325.64 2065.35 1325.76 L2065.37 1330.13 Z" fill="#000000" fill-rule="nonzero" fill-opacity="1" /><path clip-path="url(#clip360)" d="M2074.06 1318.79 L2074.06 1326.15 L2082.83 1326.15 L2082.83 1329.46 L2074.06 1329.46 L2074.06 1343.53 Q2074.06 1346.7 2074.91 1347.61 Q2075.79 1348.51 2078.45 1348.51 L2082.83 1348.51 L2082.83 1352.07 L2078.45 1352.07 Q2073.52 1352.07 2071.65 1350.25 Q2069.77 1348.39 2069.77 1343.53 L2069.77 1329.46 L2066.65 1329.46 L2066.65 1326.15 L2069.77 1326.15 L2069.77 1318.79 L2074.06 1318.79 Z" fill="#000000" fill-rule="nonzero" fill-opacity="1" /><path clip-path="url(#clip360)" d="M2098.66 1316.1 Q2095.56 1321.43 2094.06 1326.63 Q2092.55 1331.84 2092.55 1337.19 Q2092.55 1342.54 2094.06 1347.79 Q2095.58 1353.02 2098.66 1358.32 L2094.96 1358.32 Q2091.49 1352.88 2089.75 1347.63 Q2088.04 1342.38 2088.04 1337.19 Q2088.04 1332.03 2089.75 1326.8 Q2091.46 1321.57 2094.96 1316.1 L2098.66 1316.1 Z" fill="#000000" fill-rule="nonzero" fill-opacity="1" /><path clip-path="url(#clip360)" d="M2128.48 1326.15 L2119.1 1338.76 L2128.96 1352.07 L2123.94 1352.07 L2116.39 1341.89 L2108.85 1352.07 L2103.82 1352.07 L2113.89 1338.51 L2104.68 1326.15 L2109.7 1326.15 L2116.58 1335.38 L2123.45 1326.15 L2128.48 1326.15 Z" fill="#000000" fill-rule="nonzero" fill-opacity="1" /><path clip-path="url(#clip360)" d="M2134.31 1316.1 L2138.01 1316.1 Q2141.49 1321.57 2143.2 1326.8 Q2144.93 1332.03 2144.93 1337.19 Q2144.93 1342.38 2143.2 1347.63 Q2141.49 1352.88 2138.01 1358.32 L2134.31 1358.32 Q2137.39 1353.02 2138.89 1347.79 Q2140.42 1342.54 2140.42 1337.19 Q2140.42 1331.84 2138.89 1326.63 Q2137.39 1321.43 2134.31 1316.1 Z" fill="#000000" fill-rule="nonzero" fill-opacity="1" /><polyline clip-path="url(#clip360)" style="stroke:#e26f46; stroke-linecap:round; stroke-linejoin:round; stroke-width:4; stroke-opacity:1; fill:none" points="1750.46,1386.63 1899.83,1386.63 "/>
<path clip-path="url(#clip360)" d="M1938.57 1406.32 Q1936.76 1410.95 1935.05 1412.36 Q1933.34 1413.78 1930.47 1413.78 L1927.07 1413.78 L1927.07 1410.21 L1929.57 1410.21 Q1931.32 1410.21 1932.3 1409.38 Q1933.27 1408.54 1934.45 1405.44 L1935.21 1403.5 L1924.73 1377.99 L1929.24 1377.99 L1937.34 1398.27 L1945.44 1377.99 L1949.96 1377.99 L1938.57 1406.32 Z" fill="#000000" fill-rule="nonzero" fill-opacity="1" /><path clip-path="url(#clip360)" d="M1971.46 1382.39 L2001.14 1382.39 L2001.14 1386.28 L1971.46 1386.28 L1971.46 1382.39 M1971.46 1391.83 L2001.14 1391.83 L2001.14 1395.77 L1971.46 1395.77 L1971.46 1391.83 Z" fill="#000000" fill-rule="nonzero" fill-opacity="1" /><path clip-path="url(#clip360)" d="M2023.85 1377.99 L2044.08 1377.99 L2044.08 1381.88 L2028.06 1400.51 L2044.08 1400.51 L2044.08 1403.91 L2023.27 1403.91 L2023.27 1400.03 L2039.29 1381.39 L2023.85 1381.39 L2023.85 1377.99 Z" fill="#000000" fill-rule="nonzero" fill-opacity="1" /><path clip-path="url(#clip360)" d="M2062.37 1390.88 Q2057.2 1390.88 2055.21 1392.06 Q2053.22 1393.24 2053.22 1396.09 Q2053.22 1398.36 2054.7 1399.7 Q2056.21 1401.02 2058.78 1401.02 Q2062.32 1401.02 2064.45 1398.52 Q2066.6 1396 2066.6 1391.83 L2066.6 1390.88 L2062.37 1390.88 M2070.86 1389.12 L2070.86 1403.91 L2066.6 1403.91 L2066.6 1399.98 Q2065.14 1402.34 2062.97 1403.47 Q2060.79 1404.59 2057.64 1404.59 Q2053.66 1404.59 2051.3 1402.36 Q2048.96 1400.12 2048.96 1396.37 Q2048.96 1391.99 2051.88 1389.77 Q2054.82 1387.55 2060.63 1387.55 L2066.6 1387.55 L2066.6 1387.13 Q2066.6 1384.19 2064.66 1382.6 Q2062.74 1380.97 2059.24 1380.97 Q2057.02 1380.97 2054.91 1381.51 Q2052.81 1382.04 2050.86 1383.1 L2050.86 1379.17 Q2053.2 1378.27 2055.4 1377.83 Q2057.6 1377.36 2059.68 1377.36 Q2065.31 1377.36 2068.08 1380.28 Q2070.86 1383.2 2070.86 1389.12 Z" fill="#000000" fill-rule="nonzero" fill-opacity="1" /><path clip-path="url(#clip360)" d="M2098.29 1378.98 L2098.29 1382.97 Q2096.49 1381.97 2094.66 1381.48 Q2092.85 1380.97 2091 1380.97 Q2086.86 1380.97 2084.56 1383.61 Q2082.27 1386.23 2082.27 1390.97 Q2082.27 1395.72 2084.56 1398.36 Q2086.86 1400.97 2091 1400.97 Q2092.85 1400.97 2094.66 1400.49 Q2096.49 1399.98 2098.29 1398.98 L2098.29 1402.92 Q2096.51 1403.75 2094.59 1404.17 Q2092.69 1404.59 2090.54 1404.59 Q2084.68 1404.59 2081.23 1400.91 Q2077.78 1397.22 2077.78 1390.97 Q2077.78 1384.63 2081.25 1381 Q2084.75 1377.36 2090.81 1377.36 Q2092.78 1377.36 2094.66 1377.78 Q2096.53 1378.17 2098.29 1378.98 M2088.48 1374.7 L2082.81 1366 L2086.02 1366 L2090.19 1371.67 L2094.36 1366 L2097.57 1366 L2091.9 1374.7 L2088.48 1374.7 Z" fill="#000000" fill-rule="nonzero" fill-opacity="1" /><path clip-path="url(#clip360)" d="M2127.87 1389.89 L2127.87 1391.97 L2108.29 1391.97 Q2108.57 1396.37 2110.93 1398.68 Q2113.31 1400.97 2117.55 1400.97 Q2120 1400.97 2122.3 1400.37 Q2124.61 1399.77 2126.88 1398.57 L2126.88 1402.59 Q2124.59 1403.57 2122.18 1404.08 Q2119.77 1404.59 2117.3 1404.59 Q2111.09 1404.59 2107.46 1400.97 Q2103.85 1397.36 2103.85 1391.21 Q2103.85 1384.84 2107.27 1381.11 Q2110.72 1377.36 2116.55 1377.36 Q2121.79 1377.36 2124.82 1380.74 Q2127.87 1384.1 2127.87 1389.89 M2123.62 1388.64 Q2123.57 1385.14 2121.65 1383.06 Q2119.75 1380.97 2116.6 1380.97 Q2113.04 1380.97 2110.88 1382.99 Q2108.75 1385 2108.43 1388.66 L2123.62 1388.64 Z" fill="#000000" fill-rule="nonzero" fill-opacity="1" /><path clip-path="url(#clip360)" d="M2139.08 1370.63 L2139.08 1377.99 L2147.85 1377.99 L2147.85 1381.3 L2139.08 1381.3 L2139.08 1395.37 Q2139.08 1398.54 2139.93 1399.45 Q2140.81 1400.35 2143.48 1400.35 L2147.85 1400.35 L2147.85 1403.91 L2143.48 1403.91 Q2138.55 1403.91 2136.67 1402.09 Q2134.8 1400.23 2134.8 1395.37 L2134.8 1381.3 L2131.67 1381.3 L2131.67 1377.99 L2134.8 1377.99 L2134.8 1370.63 L2139.08 1370.63 Z" fill="#000000" fill-rule="nonzero" fill-opacity="1" /><path clip-path="url(#clip360)" d="M2175 1388.27 L2175 1403.91 L2170.74 1403.91 L2170.74 1388.41 Q2170.74 1384.72 2169.31 1382.9 Q2167.87 1381.07 2165 1381.07 Q2161.55 1381.07 2159.56 1383.27 Q2157.57 1385.47 2157.57 1389.26 L2157.57 1403.91 L2153.29 1403.91 L2153.29 1377.99 L2157.57 1377.99 L2157.57 1382.02 Q2159.1 1379.68 2161.16 1378.52 Q2163.24 1377.36 2165.95 1377.36 Q2170.42 1377.36 2172.71 1380.14 Q2175 1382.9 2175 1388.27 Z" fill="#000000" fill-rule="nonzero" fill-opacity="1" /><path clip-path="url(#clip360)" d="M2183.5 1377.99 L2187.76 1377.99 L2187.76 1403.91 L2183.5 1403.91 L2183.5 1377.99 M2183.5 1367.9 L2187.76 1367.9 L2187.76 1373.29 L2183.5 1373.29 L2183.5 1367.9 Z" fill="#000000" fill-rule="nonzero" fill-opacity="1" /><path clip-path="url(#clip360)" d="M2206.9 1367.94 Q2203.8 1373.27 2202.3 1378.47 Q2200.79 1383.68 2200.79 1389.03 Q2200.79 1394.38 2202.3 1399.63 Q2203.82 1404.86 2206.9 1410.16 L2203.2 1410.16 Q2199.73 1404.72 2197.99 1399.47 Q2196.28 1394.22 2196.28 1389.03 Q2196.28 1383.87 2197.99 1378.64 Q2199.7 1373.41 2203.2 1367.94 L2206.9 1367.94 Z" fill="#000000" fill-rule="nonzero" fill-opacity="1" /><path clip-path="url(#clip360)" d="M2236.72 1377.99 L2227.34 1390.6 L2237.2 1403.91 L2232.18 1403.91 L2224.63 1393.73 L2217.09 1403.91 L2212.06 1403.91 L2222.13 1390.35 L2212.92 1377.99 L2217.94 1377.99 L2224.82 1387.22 L2231.69 1377.99 L2236.72 1377.99 Z" fill="#000000" fill-rule="nonzero" fill-opacity="1" /><path clip-path="url(#clip360)" d="M2242.55 1367.94 L2246.25 1367.94 Q2249.73 1373.41 2251.44 1378.64 Q2253.17 1383.87 2253.17 1389.03 Q2253.17 1394.22 2251.44 1399.47 Q2249.73 1404.72 2246.25 1410.16 L2242.55 1410.16 Q2245.63 1404.86 2247.13 1399.63 Q2248.66 1394.38 2248.66 1389.03 Q2248.66 1383.68 2247.13 1378.47 Q2245.63 1373.27 2242.55 1367.94 Z" fill="#000000" fill-rule="nonzero" fill-opacity="1" /></svg>
