<?xml version="1.0" encoding="utf-8"?>
<svg xmlns="http://www.w3.org/2000/svg" xmlns:xlink="http://www.w3.org/1999/xlink" width="600" height="400" viewBox="0 0 2400 1600">
<defs>
  <clipPath id="clip240">
    <rect x="0" y="0" width="2400" height="1600"/>
  </clipPath>
</defs>
<path clip-path="url(#clip240)" d="M0 1600 L2400 1600 L2400 0 L0 0  Z" fill="#ffffff" fill-rule="evenodd" fill-opacity="1"/>
<defs>
  <clipPath id="clip241">
    <rect x="480" y="0" width="1681" height="1600"/>
  </clipPath>
</defs>
<path clip-path="url(#clip240)" d="M112.177 1486.45 L2352.76 1486.45 L2352.76 47.2441 L112.177 47.2441  Z" fill="#ffffff" fill-rule="evenodd" fill-opacity="1"/>
<defs>
  <clipPath id="clip242">
    <rect x="112" y="47" width="2242" height="1440"/>
  </clipPath>
</defs>
<polyline clip-path="url(#clip242)" style="stroke:#000000; stroke-linecap:round; stroke-linejoin:round; stroke-width:2; stroke-opacity:0.1; fill:none" points="175.59,1486.45 175.59,47.2441 "/>
<polyline clip-path="url(#clip242)" style="stroke:#000000; stroke-linecap:round; stroke-linejoin:round; stroke-width:2; stroke-opacity:0.1; fill:none" points="704.028,1486.45 704.028,47.2441 "/>
<polyline clip-path="url(#clip242)" style="stroke:#000000; stroke-linecap:round; stroke-linejoin:round; stroke-width:2; stroke-opacity:0.1; fill:none" points="1232.47,1486.45 1232.47,47.2441 "/>
<polyline clip-path="url(#clip242)" style="stroke:#000000; stroke-linecap:round; stroke-linejoin:round; stroke-width:2; stroke-opacity:0.1; fill:none" points="1760.9,1486.45 1760.9,47.2441 "/>
<polyline clip-path="url(#clip242)" style="stroke:#000000; stroke-linecap:round; stroke-linejoin:round; stroke-width:2; stroke-opacity:0.1; fill:none" points="2289.34,1486.45 2289.34,47.2441 "/>
<polyline clip-path="url(#clip242)" style="stroke:#000000; stroke-linecap:round; stroke-linejoin:round; stroke-width:2; stroke-opacity:0.1; fill:none" points="112.177,1445.72 2352.76,1445.72 "/>
<polyline clip-path="url(#clip242)" style="stroke:#000000; stroke-linecap:round; stroke-linejoin:round; stroke-width:2; stroke-opacity:0.1; fill:none" points="112.177,1198.85 2352.76,1198.85 "/>
<polyline clip-path="url(#clip242)" style="stroke:#000000; stroke-linecap:round; stroke-linejoin:round; stroke-width:2; stroke-opacity:0.1; fill:none" points="112.177,951.992 2352.76,951.992 "/>
<polyline clip-path="url(#clip242)" style="stroke:#000000; stroke-linecap:round; stroke-linejoin:round; stroke-width:2; stroke-opacity:0.1; fill:none" points="112.177,705.131 2352.76,705.131 "/>
<polyline clip-path="url(#clip242)" style="stroke:#000000; stroke-linecap:round; stroke-linejoin:round; stroke-width:2; stroke-opacity:0.1; fill:none" points="112.177,458.269 2352.76,458.269 "/>
<polyline clip-path="url(#clip242)" style="stroke:#000000; stroke-linecap:round; stroke-linejoin:round; stroke-width:2; stroke-opacity:0.1; fill:none" points="112.177,211.407 2352.76,211.407 "/>
<polyline clip-path="url(#clip240)" style="stroke:#000000; stroke-linecap:round; stroke-linejoin:round; stroke-width:4; stroke-opacity:1; fill:none" points="112.177,1486.45 2352.76,1486.45 "/>
<polyline clip-path="url(#clip240)" style="stroke:#000000; stroke-linecap:round; stroke-linejoin:round; stroke-width:4; stroke-opacity:1; fill:none" points="175.59,1486.45 175.59,1467.55 "/>
<polyline clip-path="url(#clip240)" style="stroke:#000000; stroke-linecap:round; stroke-linejoin:round; stroke-width:4; stroke-opacity:1; fill:none" points="704.028,1486.45 704.028,1467.55 "/>
<polyline clip-path="url(#clip240)" style="stroke:#000000; stroke-linecap:round; stroke-linejoin:round; stroke-width:4; stroke-opacity:1; fill:none" points="1232.47,1486.45 1232.47,1467.55 "/>
<polyline clip-path="url(#clip240)" style="stroke:#000000; stroke-linecap:round; stroke-linejoin:round; stroke-width:4; stroke-opacity:1; fill:none" points="1760.9,1486.45 1760.9,1467.55 "/>
<polyline clip-path="url(#clip240)" style="stroke:#000000; stroke-linecap:round; stroke-linejoin:round; stroke-width:4; stroke-opacity:1; fill:none" points="2289.34,1486.45 2289.34,1467.55 "/>
<path clip-path="url(#clip240)" d="M152.974 1517.37 Q149.363 1517.37 147.534 1520.93 Q145.729 1524.47 145.729 1531.6 Q145.729 1538.71 147.534 1542.27 Q149.363 1545.82 152.974 1545.82 Q156.608 1545.82 158.414 1542.27 Q160.243 1538.71 160.243 1531.6 Q160.243 1524.47 158.414 1520.93 Q156.608 1517.37 152.974 1517.37 M152.974 1513.66 Q158.784 1513.66 161.84 1518.27 Q164.919 1522.85 164.919 1531.6 Q164.919 1540.33 161.84 1544.94 Q158.784 1549.52 152.974 1549.52 Q147.164 1549.52 144.085 1544.94 Q141.03 1540.33 141.03 1531.6 Q141.03 1522.85 144.085 1518.27 Q147.164 1513.66 152.974 1513.66 Z" fill="#000000" fill-rule="nonzero" fill-opacity="1" /><path clip-path="url(#clip240)" d="M173.136 1542.97 L178.02 1542.97 L178.02 1548.85 L173.136 1548.85 L173.136 1542.97 Z" fill="#000000" fill-rule="nonzero" fill-opacity="1" /><path clip-path="url(#clip240)" d="M198.205 1517.37 Q194.594 1517.37 192.766 1520.93 Q190.96 1524.47 190.96 1531.6 Q190.96 1538.71 192.766 1542.27 Q194.594 1545.82 198.205 1545.82 Q201.84 1545.82 203.645 1542.27 Q205.474 1538.71 205.474 1531.6 Q205.474 1524.47 203.645 1520.93 Q201.84 1517.37 198.205 1517.37 M198.205 1513.66 Q204.016 1513.66 207.071 1518.27 Q210.15 1522.85 210.15 1531.6 Q210.15 1540.33 207.071 1544.94 Q204.016 1549.52 198.205 1549.52 Q192.395 1549.52 189.317 1544.94 Q186.261 1540.33 186.261 1531.6 Q186.261 1522.85 189.317 1518.27 Q192.395 1513.66 198.205 1513.66 Z" fill="#000000" fill-rule="nonzero" fill-opacity="1" /><path clip-path="url(#clip240)" d="M675.764 1544.91 L692.084 1544.91 L692.084 1548.85 L670.139 1548.85 L670.139 1544.91 Q672.801 1542.16 677.385 1537.53 Q681.991 1532.88 683.172 1531.53 Q685.417 1529.01 686.297 1527.27 Q687.2 1525.51 687.2 1523.82 Q687.2 1521.07 685.255 1519.33 Q683.334 1517.6 680.232 1517.6 Q678.033 1517.6 675.579 1518.36 Q673.149 1519.13 670.371 1520.68 L670.371 1515.95 Q673.195 1514.82 675.649 1514.24 Q678.102 1513.66 680.139 1513.66 Q685.51 1513.66 688.704 1516.35 Q691.899 1519.03 691.899 1523.52 Q691.899 1525.65 691.088 1527.57 Q690.301 1529.47 688.195 1532.07 Q687.616 1532.74 684.514 1535.95 Q681.413 1539.15 675.764 1544.91 Z" fill="#000000" fill-rule="nonzero" fill-opacity="1" /><path clip-path="url(#clip240)" d="M701.899 1542.97 L706.783 1542.97 L706.783 1548.85 L701.899 1548.85 L701.899 1542.97 Z" fill="#000000" fill-rule="nonzero" fill-opacity="1" /><path clip-path="url(#clip240)" d="M717.014 1514.29 L735.371 1514.29 L735.371 1518.22 L721.297 1518.22 L721.297 1526.7 Q722.315 1526.35 723.334 1526.19 Q724.352 1526 725.371 1526 Q731.158 1526 734.537 1529.17 Q737.917 1532.34 737.917 1537.76 Q737.917 1543.34 734.445 1546.44 Q730.972 1549.52 724.653 1549.52 Q722.477 1549.52 720.209 1549.15 Q717.963 1548.78 715.556 1548.04 L715.556 1543.34 Q717.639 1544.47 719.861 1545.03 Q722.084 1545.58 724.56 1545.58 Q728.565 1545.58 730.903 1543.48 Q733.241 1541.37 733.241 1537.76 Q733.241 1534.15 730.903 1532.04 Q728.565 1529.94 724.56 1529.94 Q722.685 1529.94 720.81 1530.35 Q718.959 1530.77 717.014 1531.65 L717.014 1514.29 Z" fill="#000000" fill-rule="nonzero" fill-opacity="1" /><path clip-path="url(#clip240)" d="M1199.63 1514.29 L1217.99 1514.29 L1217.99 1518.22 L1203.91 1518.22 L1203.91 1526.7 Q1204.93 1526.35 1205.95 1526.19 Q1206.97 1526 1207.99 1526 Q1213.77 1526 1217.15 1529.17 Q1220.53 1532.34 1220.53 1537.76 Q1220.53 1543.34 1217.06 1546.44 Q1213.59 1549.52 1207.27 1549.52 Q1205.09 1549.52 1202.83 1549.15 Q1200.58 1548.78 1198.17 1548.04 L1198.17 1543.34 Q1200.26 1544.47 1202.48 1545.03 Q1204.7 1545.58 1207.18 1545.58 Q1211.18 1545.58 1213.52 1543.48 Q1215.86 1541.37 1215.86 1537.76 Q1215.86 1534.15 1213.52 1532.04 Q1211.18 1529.94 1207.18 1529.94 Q1205.3 1529.94 1203.43 1530.35 Q1201.58 1530.77 1199.63 1531.65 L1199.63 1514.29 Z" fill="#000000" fill-rule="nonzero" fill-opacity="1" /><path clip-path="url(#clip240)" d="M1229.75 1542.97 L1234.63 1542.97 L1234.63 1548.85 L1229.75 1548.85 L1229.75 1542.97 Z" fill="#000000" fill-rule="nonzero" fill-opacity="1" /><path clip-path="url(#clip240)" d="M1254.82 1517.37 Q1251.2 1517.37 1249.38 1520.93 Q1247.57 1524.47 1247.57 1531.6 Q1247.57 1538.71 1249.38 1542.27 Q1251.2 1545.82 1254.82 1545.82 Q1258.45 1545.82 1260.26 1542.27 Q1262.08 1538.71 1262.08 1531.6 Q1262.08 1524.47 1260.26 1520.93 Q1258.45 1517.37 1254.82 1517.37 M1254.82 1513.66 Q1260.63 1513.66 1263.68 1518.27 Q1266.76 1522.85 1266.76 1531.6 Q1266.76 1540.33 1263.68 1544.94 Q1260.63 1549.52 1254.82 1549.52 Q1249.01 1549.52 1245.93 1544.94 Q1242.87 1540.33 1242.87 1531.6 Q1242.87 1522.85 1245.93 1518.27 Q1249.01 1513.66 1254.82 1513.66 Z" fill="#000000" fill-rule="nonzero" fill-opacity="1" /><path clip-path="url(#clip240)" d="M1727.22 1514.29 L1749.45 1514.29 L1749.45 1516.28 L1736.9 1548.85 L1732.02 1548.85 L1743.82 1518.22 L1727.22 1518.22 L1727.22 1514.29 Z" fill="#000000" fill-rule="nonzero" fill-opacity="1" /><path clip-path="url(#clip240)" d="M1758.57 1542.97 L1763.45 1542.97 L1763.45 1548.85 L1758.57 1548.85 L1758.57 1542.97 Z" fill="#000000" fill-rule="nonzero" fill-opacity="1" /><path clip-path="url(#clip240)" d="M1773.68 1514.29 L1792.04 1514.29 L1792.04 1518.22 L1777.97 1518.22 L1777.97 1526.7 Q1778.98 1526.35 1780 1526.19 Q1781.02 1526 1782.04 1526 Q1787.83 1526 1791.21 1529.17 Q1794.59 1532.34 1794.59 1537.76 Q1794.59 1543.34 1791.11 1546.44 Q1787.64 1549.52 1781.32 1549.52 Q1779.15 1549.52 1776.88 1549.15 Q1774.63 1548.78 1772.22 1548.04 L1772.22 1543.34 Q1774.31 1544.47 1776.53 1545.03 Q1778.75 1545.58 1781.23 1545.58 Q1785.23 1545.58 1787.57 1543.48 Q1789.91 1541.37 1789.91 1537.76 Q1789.91 1534.15 1787.57 1532.04 Q1785.23 1529.94 1781.23 1529.94 Q1779.35 1529.94 1777.48 1530.35 Q1775.63 1530.77 1773.68 1531.65 L1773.68 1514.29 Z" fill="#000000" fill-rule="nonzero" fill-opacity="1" /><path clip-path="url(#clip240)" d="M2241.42 1544.91 L2249.05 1544.91 L2249.05 1518.55 L2240.74 1520.21 L2240.74 1515.95 L2249.01 1514.29 L2253.68 1514.29 L2253.68 1544.91 L2261.32 1544.91 L2261.32 1548.85 L2241.42 1548.85 L2241.42 1544.91 Z" fill="#000000" fill-rule="nonzero" fill-opacity="1" /><path clip-path="url(#clip240)" d="M2280.77 1517.37 Q2277.16 1517.37 2275.33 1520.93 Q2273.52 1524.47 2273.52 1531.6 Q2273.52 1538.71 2275.33 1542.27 Q2277.16 1545.82 2280.77 1545.82 Q2284.4 1545.82 2286.21 1542.27 Q2288.04 1538.71 2288.04 1531.6 Q2288.04 1524.47 2286.21 1520.93 Q2284.4 1517.37 2280.77 1517.37 M2280.77 1513.66 Q2286.58 1513.66 2289.63 1518.27 Q2292.71 1522.85 2292.71 1531.6 Q2292.71 1540.33 2289.63 1544.94 Q2286.58 1549.52 2280.77 1549.52 Q2274.96 1549.52 2271.88 1544.94 Q2268.82 1540.33 2268.82 1531.6 Q2268.82 1522.85 2271.88 1518.27 Q2274.96 1513.66 2280.77 1513.66 Z" fill="#000000" fill-rule="nonzero" fill-opacity="1" /><path clip-path="url(#clip240)" d="M2300.93 1542.97 L2305.81 1542.97 L2305.81 1548.85 L2300.93 1548.85 L2300.93 1542.97 Z" fill="#000000" fill-rule="nonzero" fill-opacity="1" /><path clip-path="url(#clip240)" d="M2326 1517.37 Q2322.39 1517.37 2320.56 1520.93 Q2318.75 1524.47 2318.75 1531.6 Q2318.75 1538.71 2320.56 1542.27 Q2322.39 1545.82 2326 1545.82 Q2329.63 1545.82 2331.44 1542.27 Q2333.27 1538.71 2333.27 1531.6 Q2333.27 1524.47 2331.44 1520.93 Q2329.63 1517.37 2326 1517.37 M2326 1513.66 Q2331.81 1513.66 2334.86 1518.27 Q2337.94 1522.85 2337.94 1531.6 Q2337.94 1540.33 2334.86 1544.94 Q2331.81 1549.52 2326 1549.52 Q2320.19 1549.52 2317.11 1544.94 Q2314.05 1540.33 2314.05 1531.6 Q2314.05 1522.85 2317.11 1518.27 Q2320.19 1513.66 2326 1513.66 Z" fill="#000000" fill-rule="nonzero" fill-opacity="1" /><polyline clip-path="url(#clip240)" style="stroke:#000000; stroke-linecap:round; stroke-linejoin:round; stroke-width:4; stroke-opacity:1; fill:none" points="112.177,1486.45 112.177,47.2441 "/>
<polyline clip-path="url(#clip240)" style="stroke:#000000; stroke-linecap:round; stroke-linejoin:round; stroke-width:4; stroke-opacity:1; fill:none" points="112.177,1445.72 131.075,1445.72 "/>
<polyline clip-path="url(#clip240)" style="stroke:#000000; stroke-linecap:round; stroke-linejoin:round; stroke-width:4; stroke-opacity:1; fill:none" points="112.177,1198.85 131.075,1198.85 "/>
<polyline clip-path="url(#clip240)" style="stroke:#000000; stroke-linecap:round; stroke-linejoin:round; stroke-width:4; stroke-opacity:1; fill:none" points="112.177,951.992 131.075,951.992 "/>
<polyline clip-path="url(#clip240)" style="stroke:#000000; stroke-linecap:round; stroke-linejoin:round; stroke-width:4; stroke-opacity:1; fill:none" points="112.177,705.131 131.075,705.131 "/>
<polyline clip-path="url(#clip240)" style="stroke:#000000; stroke-linecap:round; stroke-linejoin:round; stroke-width:4; stroke-opacity:1; fill:none" points="112.177,458.269 131.075,458.269 "/>
<polyline clip-path="url(#clip240)" style="stroke:#000000; stroke-linecap:round; stroke-linejoin:round; stroke-width:4; stroke-opacity:1; fill:none" points="112.177,211.407 131.075,211.407 "/>
<path clip-path="url(#clip240)" d="M64.2328 1431.51 Q60.6217 1431.51 58.793 1435.08 Q56.9875 1438.62 56.9875 1445.75 Q56.9875 1452.86 58.793 1456.42 Q60.6217 1459.96 64.2328 1459.96 Q67.867 1459.96 69.6726 1456.42 Q71.5013 1452.86 71.5013 1445.75 Q71.5013 1438.62 69.6726 1435.08 Q67.867 1431.51 64.2328 1431.51 M64.2328 1427.81 Q70.0429 1427.81 73.0985 1432.42 Q76.1772 1437 76.1772 1445.75 Q76.1772 1454.48 73.0985 1459.08 Q70.0429 1463.67 64.2328 1463.67 Q58.4226 1463.67 55.344 1459.08 Q52.2884 1454.48 52.2884 1445.75 Q52.2884 1437 55.344 1432.42 Q58.4226 1427.81 64.2328 1427.81 Z" fill="#000000" fill-rule="nonzero" fill-opacity="1" /><path clip-path="url(#clip240)" d="M56.2699 1212.2 L63.9087 1212.2 L63.9087 1185.83 L55.5986 1187.5 L55.5986 1183.24 L63.8624 1181.57 L68.5383 1181.57 L68.5383 1212.2 L76.1772 1212.2 L76.1772 1216.13 L56.2699 1216.13 L56.2699 1212.2 Z" fill="#000000" fill-rule="nonzero" fill-opacity="1" /><path clip-path="url(#clip240)" d="M59.8578 965.337 L76.1772 965.337 L76.1772 969.272 L54.2328 969.272 L54.2328 965.337 Q56.8949 962.582 61.4782 957.953 Q66.0846 953.3 67.2652 951.958 Q69.5105 949.434 70.3902 947.698 Q71.2929 945.939 71.2929 944.249 Q71.2929 941.495 69.3485 939.759 Q67.4272 938.022 64.3254 938.022 Q62.1263 938.022 59.6726 938.786 Q57.2421 939.55 54.4643 941.101 L54.4643 936.379 Q57.2884 935.245 59.7421 934.666 Q62.1958 934.087 64.2328 934.087 Q69.6031 934.087 72.7976 936.772 Q75.992 939.458 75.992 943.948 Q75.992 946.078 75.1818 947.999 Q74.3948 949.897 72.2883 952.49 Q71.7096 953.161 68.6078 956.379 Q65.5059 959.573 59.8578 965.337 Z" fill="#000000" fill-rule="nonzero" fill-opacity="1" /><path clip-path="url(#clip240)" d="M69.0476 703.776 Q72.404 704.494 74.279 706.762 Q76.1772 709.031 76.1772 712.364 Q76.1772 717.48 72.6587 720.281 Q69.1402 723.082 62.6587 723.082 Q60.4828 723.082 58.168 722.642 Q55.8764 722.225 53.4227 721.369 L53.4227 716.855 Q55.3671 717.989 57.6819 718.568 Q59.9967 719.147 62.5198 719.147 Q66.918 719.147 69.2096 717.411 Q71.5244 715.674 71.5244 712.364 Q71.5244 709.309 69.3717 707.596 Q67.242 705.86 63.4226 705.86 L59.3949 705.86 L59.3949 702.017 L63.6078 702.017 Q67.0569 702.017 68.8855 700.651 Q70.7142 699.263 70.7142 696.67 Q70.7142 694.008 68.8161 692.596 Q66.9411 691.161 63.4226 691.161 Q61.5013 691.161 59.3023 691.577 Q57.1032 691.994 54.4643 692.874 L54.4643 688.707 Q57.1264 687.966 59.4412 687.596 Q61.7791 687.226 63.8393 687.226 Q69.1633 687.226 72.2652 689.656 Q75.367 692.063 75.367 696.184 Q75.367 699.054 73.7235 701.045 Q72.08 703.013 69.0476 703.776 Z" fill="#000000" fill-rule="nonzero" fill-opacity="1" /><path clip-path="url(#clip240)" d="M66.5939 445.063 L54.7884 463.512 L66.5939 463.512 L66.5939 445.063 M65.367 440.989 L71.2466 440.989 L71.2466 463.512 L76.1772 463.512 L76.1772 467.401 L71.2466 467.401 L71.2466 475.549 L66.5939 475.549 L66.5939 467.401 L50.9921 467.401 L50.9921 462.887 L65.367 440.989 Z" fill="#000000" fill-rule="nonzero" fill-opacity="1" /><path clip-path="url(#clip240)" d="M55.2745 194.127 L73.6309 194.127 L73.6309 198.062 L59.5569 198.062 L59.5569 206.534 Q60.5754 206.187 61.5939 206.025 Q62.6124 205.84 63.6309 205.84 Q69.418 205.84 72.7976 209.011 Q76.1772 212.183 76.1772 217.599 Q76.1772 223.178 72.705 226.28 Q69.2328 229.358 62.9134 229.358 Q60.7374 229.358 58.4689 228.988 Q56.2236 228.618 53.8162 227.877 L53.8162 223.178 Q55.8995 224.312 58.1217 224.868 Q60.3439 225.423 62.8208 225.423 Q66.8254 225.423 69.1633 223.317 Q71.5013 221.21 71.5013 217.599 Q71.5013 213.988 69.1633 211.882 Q66.8254 209.775 62.8208 209.775 Q60.9458 209.775 59.0708 210.192 Q57.2189 210.609 55.2745 211.488 L55.2745 194.127 Z" fill="#000000" fill-rule="nonzero" fill-opacity="1" /><polyline clip-path="url(#clip242)" style="stroke:#009af9; stroke-linecap:round; stroke-linejoin:round; stroke-width:4; stroke-opacity:1; fill:none" points="175.59,1445.72 178.318,1417.67 181.045,1406.06 183.773,1397.14 186.501,1389.63 189.228,1383.01 191.956,1377.02 194.684,1371.52 197.412,1366.4 205.4,1353.01 213.388,1341.33 221.376,1330.82 229.364,1321.2 237.352,1312.28 245.34,1303.91 253.328,1296.01 261.316,1288.5 277.292,1274.48 293.268,1261.52 309.244,1249.42 325.22,1238.02 340.084,1227.94 354.948,1218.32 369.812,1209.08 384.676,1200.19 424.523,1177.82 464.37,1157.17 497.295,1141.17 530.221,1125.96 560.839,1112.44 591.457,1099.45 629.892,1083.81 668.328,1068.81 702.805,1055.85 737.282,1043.3 816.209,1015.96 875.208,996.601 950.667,973.001 1019.54,952.445 1097.92,930.047 1160.06,912.96 1237.26,892.465 1296.38,877.27 1379.74,856.511 1442.02,841.464 1512.86,824.795 1583.01,808.717 1660.19,791.485 1719.14,778.622 1793.53,762.735 1862.34,748.364 1933.3,733.847 2005.22,719.428 2080.33,704.671 2139.49,693.25 2274.23,667.867 2289.34,665.07 "/>
<polyline clip-path="url(#clip242)" style="stroke:#e26f46; stroke-linecap:round; stroke-linejoin:round; stroke-width:4; stroke-opacity:1; fill:none" points="175.59,1322.28 197.412,1309.54 325.22,1234.91 384.676,1200.19 464.37,1153.65 530.221,1115.2 591.457,1079.44 668.328,1034.55 737.282,994.289 816.209,948.2 875.208,913.749 950.667,869.685 1019.54,829.467 1097.92,783.695 1160.06,747.41 1237.26,702.331 1296.38,667.807 1379.74,619.134 1442.02,582.762 1512.86,541.398 1583.01,500.434 1660.19,455.366 1719.14,420.941 1793.53,377.501 1862.34,337.323 1933.3,295.886 2005.22,253.885 2080.33,210.029 2139.49,175.481 2274.23,96.8035 2289.34,87.9763 "/>
<path clip-path="url(#clip240)" d="M186.863 250.738 L683.744 250.738 L683.744 95.2176 L186.863 95.2176  Z" fill="#ffffff" fill-rule="evenodd" fill-opacity="1"/>
<polyline clip-path="url(#clip240)" style="stroke:#000000; stroke-linecap:round; stroke-linejoin:round; stroke-width:4; stroke-opacity:1; fill:none" points="186.863,250.738 683.744,250.738 683.744,95.2176 186.863,95.2176 186.863,250.738 "/>
<polyline clip-path="url(#clip240)" style="stroke:#009af9; stroke-linecap:round; stroke-linejoin:round; stroke-width:4; stroke-opacity:1; fill:none" points="211.758,147.058 361.13,147.058 "/>
<path clip-path="url(#clip240)" d="M399.868 166.745 Q398.063 171.375 396.35 172.787 Q394.637 174.199 391.766 174.199 L388.364 174.199 L388.364 170.634 L390.864 170.634 Q392.623 170.634 393.595 169.8 Q394.567 168.967 395.748 165.865 L396.512 163.921 L386.026 138.412 L390.54 138.412 L398.641 158.689 L406.743 138.412 L411.257 138.412 L399.868 166.745 Z" fill="#000000" fill-rule="nonzero" fill-opacity="1" /><path clip-path="url(#clip240)" d="M417.692 142.81 L447.368 142.81 L447.368 146.699 L417.692 146.699 L417.692 142.81 M417.692 152.254 L447.368 152.254 L447.368 156.189 L417.692 156.189 L417.692 152.254 Z" fill="#000000" fill-rule="nonzero" fill-opacity="1" /><path clip-path="url(#clip240)" d="M473.386 139.176 L473.386 143.203 Q471.581 142.277 469.636 141.815 Q467.692 141.352 465.609 141.352 Q462.437 141.352 460.84 142.324 Q459.266 143.296 459.266 145.24 Q459.266 146.722 460.4 147.578 Q461.535 148.412 464.96 149.176 L466.419 149.5 Q470.956 150.472 472.854 152.254 Q474.775 154.014 474.775 157.185 Q474.775 160.796 471.905 162.902 Q469.058 165.009 464.058 165.009 Q461.974 165.009 459.706 164.592 Q457.46 164.199 454.961 163.388 L454.961 158.99 Q457.322 160.217 459.613 160.842 Q461.905 161.444 464.15 161.444 Q467.16 161.444 468.78 160.426 Q470.4 159.384 470.4 157.509 Q470.4 155.773 469.22 154.847 Q468.062 153.921 464.104 153.064 L462.622 152.717 Q458.664 151.884 456.905 150.171 Q455.146 148.435 455.146 145.426 Q455.146 141.768 457.738 139.778 Q460.331 137.787 465.099 137.787 Q467.46 137.787 469.544 138.134 Q471.627 138.481 473.386 139.176 Z" fill="#000000" fill-rule="nonzero" fill-opacity="1" /><path clip-path="url(#clip240)" d="M484.104 151.398 Q484.104 156.097 486.025 158.782 Q487.97 161.444 491.349 161.444 Q494.729 161.444 496.673 158.782 Q498.618 156.097 498.618 151.398 Q498.618 146.699 496.673 144.037 Q494.729 141.352 491.349 141.352 Q487.97 141.352 486.025 144.037 Q484.104 146.699 484.104 151.398 M498.618 160.449 Q497.275 162.763 495.215 163.898 Q493.178 165.009 490.308 165.009 Q485.608 165.009 482.646 161.259 Q479.706 157.509 479.706 151.398 Q479.706 145.287 482.646 141.537 Q485.608 137.787 490.308 137.787 Q493.178 137.787 495.215 138.921 Q497.275 140.032 498.618 142.347 L498.618 138.412 L502.877 138.412 L502.877 174.199 L498.618 174.199 L498.618 160.449 Z" fill="#000000" fill-rule="nonzero" fill-opacity="1" /><path clip-path="url(#clip240)" d="M526.673 142.393 Q525.955 141.977 525.099 141.791 Q524.266 141.583 523.247 141.583 Q519.636 141.583 517.692 143.944 Q515.77 146.282 515.77 150.68 L515.77 164.338 L511.488 164.338 L511.488 138.412 L515.77 138.412 L515.77 142.44 Q517.113 140.078 519.266 138.944 Q521.418 137.787 524.497 137.787 Q524.937 137.787 525.469 137.856 Q526.002 137.903 526.65 138.018 L526.673 142.393 Z" fill="#000000" fill-rule="nonzero" fill-opacity="1" /><path clip-path="url(#clip240)" d="M535.354 131.051 L535.354 138.412 L544.127 138.412 L544.127 141.722 L535.354 141.722 L535.354 155.796 Q535.354 158.967 536.21 159.87 Q537.09 160.773 539.752 160.773 L544.127 160.773 L544.127 164.338 L539.752 164.338 Q534.821 164.338 532.946 162.509 Q531.071 160.657 531.071 155.796 L531.071 141.722 L527.946 141.722 L527.946 138.412 L531.071 138.412 L531.071 131.051 L535.354 131.051 Z" fill="#000000" fill-rule="nonzero" fill-opacity="1" /><path clip-path="url(#clip240)" d="M559.96 128.366 Q556.858 133.69 555.353 138.898 Q553.849 144.106 553.849 149.453 Q553.849 154.801 555.353 160.055 Q556.881 165.287 559.96 170.588 L556.256 170.588 Q552.784 165.148 551.048 159.893 Q549.335 154.639 549.335 149.453 Q549.335 144.291 551.048 139.06 Q552.761 133.828 556.256 128.366 L559.96 128.366 Z" fill="#000000" fill-rule="nonzero" fill-opacity="1" /><path clip-path="url(#clip240)" d="M589.775 138.412 L580.4 151.027 L590.261 164.338 L585.238 164.338 L577.691 154.152 L570.145 164.338 L565.122 164.338 L575.191 150.773 L565.978 138.412 L571.002 138.412 L577.877 147.648 L584.751 138.412 L589.775 138.412 Z" fill="#000000" fill-rule="nonzero" fill-opacity="1" /><path clip-path="url(#clip240)" d="M595.608 128.366 L599.312 128.366 Q602.784 133.828 604.497 139.06 Q606.233 144.291 606.233 149.453 Q606.233 154.639 604.497 159.893 Q602.784 165.148 599.312 170.588 L595.608 170.588 Q598.687 165.287 600.191 160.055 Q601.719 154.801 601.719 149.453 Q601.719 144.106 600.191 138.898 Q598.687 133.69 595.608 128.366 Z" fill="#000000" fill-rule="nonzero" fill-opacity="1" /><polyline clip-path="url(#clip240)" style="stroke:#e26f46; stroke-linecap:round; stroke-linejoin:round; stroke-width:4; stroke-opacity:1; fill:none" points="211.758,198.898 361.13,198.898 "/>
<path clip-path="url(#clip240)" d="M399.868 218.585 Q398.063 223.215 396.35 224.627 Q394.637 226.039 391.766 226.039 L388.364 226.039 L388.364 222.474 L390.864 222.474 Q392.623 222.474 393.595 221.64 Q394.567 220.807 395.748 217.705 L396.512 215.761 L386.026 190.252 L390.54 190.252 L398.641 210.529 L406.743 190.252 L411.257 190.252 L399.868 218.585 Z" fill="#000000" fill-rule="nonzero" fill-opacity="1" /><path clip-path="url(#clip240)" d="M417.692 194.65 L447.368 194.65 L447.368 198.539 L417.692 198.539 L417.692 194.65 M417.692 204.094 L447.368 204.094 L447.368 208.029 L417.692 208.029 L417.692 204.094 Z" fill="#000000" fill-rule="nonzero" fill-opacity="1" /><path clip-path="url(#clip240)" d="M467.09 180.206 Q463.988 185.53 462.484 190.738 Q460.979 195.946 460.979 201.293 Q460.979 206.641 462.484 211.895 Q464.011 217.127 467.09 222.428 L463.386 222.428 Q459.914 216.988 458.178 211.733 Q456.465 206.479 456.465 201.293 Q456.465 196.131 458.178 190.9 Q459.891 185.668 463.386 180.206 L467.09 180.206 Z" fill="#000000" fill-rule="nonzero" fill-opacity="1" /><path clip-path="url(#clip240)" d="M476.766 212.242 L484.405 212.242 L484.405 185.877 L476.095 187.543 L476.095 183.284 L484.358 181.618 L489.034 181.618 L489.034 212.242 L496.673 212.242 L496.673 216.178 L476.766 216.178 L476.766 212.242 Z" fill="#000000" fill-rule="nonzero" fill-opacity="1" /><path clip-path="url(#clip240)" d="M537.923 186.455 L537.923 199.349 L550.816 199.349 L550.816 203.284 L537.923 203.284 L537.923 216.178 L534.034 216.178 L534.034 203.284 L521.141 203.284 L521.141 199.349 L534.034 199.349 L534.034 186.455 L537.923 186.455 Z" fill="#000000" fill-rule="nonzero" fill-opacity="1" /><path clip-path="url(#clip240)" d="M596.927 190.252 L587.552 202.867 L597.413 216.178 L592.39 216.178 L584.844 205.992 L577.298 216.178 L572.275 216.178 L582.344 202.613 L573.131 190.252 L578.154 190.252 L585.029 199.488 L591.904 190.252 L596.927 190.252 Z" fill="#000000" fill-rule="nonzero" fill-opacity="1" /><path clip-path="url(#clip240)" d="M602.761 180.206 L606.464 180.206 Q609.937 185.668 611.649 190.9 Q613.386 196.131 613.386 201.293 Q613.386 206.479 611.649 211.733 Q609.937 216.988 606.464 222.428 L602.761 222.428 Q605.839 217.127 607.344 211.895 Q608.872 206.641 608.872 201.293 Q608.872 195.946 607.344 190.738 Q605.839 185.53 602.761 180.206 Z" fill="#000000" fill-rule="nonzero" fill-opacity="1" /><path clip-path="url(#clip240)" d="M629.497 181.618 L633.432 181.618 L621.395 220.576 L617.46 220.576 L629.497 181.618 Z" fill="#000000" fill-rule="nonzero" fill-opacity="1" /><path clip-path="url(#clip240)" d="M642.529 212.242 L658.848 212.242 L658.848 216.178 L636.904 216.178 L636.904 212.242 Q639.566 209.488 644.149 204.858 Q648.756 200.205 649.936 198.863 Q652.182 196.34 653.061 194.604 Q653.964 192.844 653.964 191.155 Q653.964 188.4 652.02 186.664 Q650.098 184.928 646.997 184.928 Q644.797 184.928 642.344 185.692 Q639.913 186.455 637.135 188.006 L637.135 183.284 Q639.96 182.15 642.413 181.571 Q644.867 180.993 646.904 180.993 Q652.274 180.993 655.469 183.678 Q658.663 186.363 658.663 190.854 Q658.663 192.983 657.853 194.905 Q657.066 196.803 654.959 199.395 Q654.381 200.067 651.279 203.284 Q648.177 206.479 642.529 212.242 Z" fill="#000000" fill-rule="nonzero" fill-opacity="1" /></svg>
