<?xml version="1.0" encoding="utf-8"?>
<svg xmlns="http://www.w3.org/2000/svg" xmlns:xlink="http://www.w3.org/1999/xlink" width="600" height="400" viewBox="0 0 2400 1600">
<defs>
  <clipPath id="clip220">
    <rect x="0" y="0" width="2400" height="1600"/>
  </clipPath>
</defs>
<path clip-path="url(#clip220)" d="M0 1600 L2400 1600 L2400 0 L0 0  Z" fill="#ffffff" fill-rule="evenodd" fill-opacity="1"/>
<defs>
  <clipPath id="clip221">
    <rect x="480" y="0" width="1681" height="1600"/>
  </clipPath>
</defs>
<path clip-path="url(#clip220)" d="M193.936 1486.45 L2352.76 1486.45 L2352.76 163.705 L193.936 163.705  Z" fill="#ffffff" fill-rule="evenodd" fill-opacity="1"/>
<defs>
  <clipPath id="clip222">
    <rect x="193" y="163" width="2160" height="1324"/>
  </clipPath>
</defs>
<polyline clip-path="url(#clip222)" style="stroke:#000000; stroke-linecap:round; stroke-linejoin:round; stroke-width:2; stroke-opacity:0.1; fill:none" points="234.668,1486.45 234.668,163.705 "/>
<polyline clip-path="url(#clip222)" style="stroke:#000000; stroke-linecap:round; stroke-linejoin:round; stroke-width:2; stroke-opacity:0.1; fill:none" points="743.824,1486.45 743.824,163.705 "/>
<polyline clip-path="url(#clip222)" style="stroke:#000000; stroke-linecap:round; stroke-linejoin:round; stroke-width:2; stroke-opacity:0.1; fill:none" points="1252.98,1486.45 1252.98,163.705 "/>
<polyline clip-path="url(#clip222)" style="stroke:#000000; stroke-linecap:round; stroke-linejoin:round; stroke-width:2; stroke-opacity:0.1; fill:none" points="1762.14,1486.45 1762.14,163.705 "/>
<polyline clip-path="url(#clip222)" style="stroke:#000000; stroke-linecap:round; stroke-linejoin:round; stroke-width:2; stroke-opacity:0.1; fill:none" points="2271.29,1486.45 2271.29,163.705 "/>
<polyline clip-path="url(#clip220)" style="stroke:#000000; stroke-linecap:round; stroke-linejoin:round; stroke-width:4; stroke-opacity:1; fill:none" points="193.936,1486.45 2352.76,1486.45 "/>
<polyline clip-path="url(#clip220)" style="stroke:#000000; stroke-linecap:round; stroke-linejoin:round; stroke-width:4; stroke-opacity:1; fill:none" points="234.668,1486.45 234.668,1467.55 "/>
<polyline clip-path="url(#clip220)" style="stroke:#000000; stroke-linecap:round; stroke-linejoin:round; stroke-width:4; stroke-opacity:1; fill:none" points="743.824,1486.45 743.824,1467.55 "/>
<polyline clip-path="url(#clip220)" style="stroke:#000000; stroke-linecap:round; stroke-linejoin:round; stroke-width:4; stroke-opacity:1; fill:none" points="1252.98,1486.45 1252.98,1467.55 "/>
<polyline clip-path="url(#clip220)" style="stroke:#000000; stroke-linecap:round; stroke-linejoin:round; stroke-width:4; stroke-opacity:1; fill:none" points="1762.14,1486.45 1762.14,1467.55 "/>
<polyline clip-path="url(#clip220)" style="stroke:#000000; stroke-linecap:round; stroke-linejoin:round; stroke-width:4; stroke-opacity:1; fill:none" points="2271.29,1486.45 2271.29,1467.55 "/>
<path clip-path="url(#clip220)" d="M234.668 1517.37 Q231.057 1517.37 229.229 1520.93 Q227.423 1524.47 227.423 1531.6 Q227.423 1538.71 229.229 1542.27 Q231.057 1545.82 234.668 1545.82 Q238.303 1545.82 240.108 1542.27 Q241.937 1538.71 241.937 1531.6 Q241.937 1524.47 240.108 1520.93 Q238.303 1517.37 234.668 1517.37 M234.668 1513.66 Q240.479 1513.66 243.534 1518.27 Q246.613 1522.85 246.613 1531.6 Q246.613 1540.33 243.534 1544.94 Q240.479 1549.52 234.668 1549.52 Q228.858 1549.52 225.78 1544.94 Q222.724 1540.33 222.724 1531.6 Q222.724 1522.85 225.78 1518.27 Q228.858 1513.66 234.668 1513.66 Z" fill="#000000" fill-rule="nonzero" fill-opacity="1" /><path clip-path="url(#clip220)" d="M723.095 1544.91 L739.414 1544.91 L739.414 1548.85 L717.47 1548.85 L717.47 1544.91 Q720.132 1542.16 724.715 1537.53 Q729.322 1532.88 730.502 1531.53 Q732.748 1529.01 733.627 1527.27 Q734.53 1525.51 734.53 1523.82 Q734.53 1521.07 732.586 1519.33 Q730.664 1517.6 727.563 1517.6 Q725.364 1517.6 722.91 1518.36 Q720.479 1519.13 717.702 1520.68 L717.702 1515.95 Q720.526 1514.82 722.979 1514.24 Q725.433 1513.66 727.47 1513.66 Q732.84 1513.66 736.035 1516.35 Q739.229 1519.03 739.229 1523.52 Q739.229 1525.65 738.419 1527.57 Q737.632 1529.47 735.526 1532.07 Q734.947 1532.74 731.845 1535.95 Q728.743 1539.15 723.095 1544.91 Z" fill="#000000" fill-rule="nonzero" fill-opacity="1" /><path clip-path="url(#clip220)" d="M749.275 1514.29 L767.632 1514.29 L767.632 1518.22 L753.558 1518.22 L753.558 1526.7 Q754.576 1526.35 755.595 1526.19 Q756.613 1526 757.632 1526 Q763.419 1526 766.799 1529.17 Q770.178 1532.34 770.178 1537.76 Q770.178 1543.34 766.706 1546.44 Q763.234 1549.52 756.914 1549.52 Q754.738 1549.52 752.47 1549.15 Q750.225 1548.78 747.817 1548.04 L747.817 1543.34 Q749.9 1544.47 752.123 1545.03 Q754.345 1545.58 756.822 1545.58 Q760.826 1545.58 763.164 1543.48 Q765.502 1541.37 765.502 1537.76 Q765.502 1534.15 763.164 1532.04 Q760.826 1529.94 756.822 1529.94 Q754.947 1529.94 753.072 1530.35 Q751.22 1530.77 749.275 1531.65 L749.275 1514.29 Z" fill="#000000" fill-rule="nonzero" fill-opacity="1" /><path clip-path="url(#clip220)" d="M1227.68 1514.29 L1246.04 1514.29 L1246.04 1518.22 L1231.96 1518.22 L1231.96 1526.7 Q1232.98 1526.35 1234 1526.19 Q1235.02 1526 1236.04 1526 Q1241.82 1526 1245.2 1529.17 Q1248.58 1532.34 1248.58 1537.76 Q1248.58 1543.34 1245.11 1546.44 Q1241.64 1549.52 1235.32 1549.52 Q1233.14 1549.52 1230.87 1549.15 Q1228.63 1548.78 1226.22 1548.04 L1226.22 1543.34 Q1228.3 1544.47 1230.53 1545.03 Q1232.75 1545.58 1235.23 1545.58 Q1239.23 1545.58 1241.57 1543.48 Q1243.91 1541.37 1243.91 1537.76 Q1243.91 1534.15 1241.57 1532.04 Q1239.23 1529.94 1235.23 1529.94 Q1233.35 1529.94 1231.48 1530.35 Q1229.62 1530.77 1227.68 1531.65 L1227.68 1514.29 Z" fill="#000000" fill-rule="nonzero" fill-opacity="1" /><path clip-path="url(#clip220)" d="M1267.79 1517.37 Q1264.18 1517.37 1262.35 1520.93 Q1260.55 1524.47 1260.55 1531.6 Q1260.55 1538.71 1262.35 1542.27 Q1264.18 1545.82 1267.79 1545.82 Q1271.43 1545.82 1273.23 1542.27 Q1275.06 1538.71 1275.06 1531.6 Q1275.06 1524.47 1273.23 1520.93 Q1271.43 1517.37 1267.79 1517.37 M1267.79 1513.66 Q1273.6 1513.66 1276.66 1518.27 Q1279.74 1522.85 1279.74 1531.6 Q1279.74 1540.33 1276.66 1544.94 Q1273.6 1549.52 1267.79 1549.52 Q1261.98 1549.52 1258.91 1544.94 Q1255.85 1540.33 1255.85 1531.6 Q1255.85 1522.85 1258.91 1518.27 Q1261.98 1513.66 1267.79 1513.66 Z" fill="#000000" fill-rule="nonzero" fill-opacity="1" /><path clip-path="url(#clip220)" d="M1735.99 1514.29 L1758.21 1514.29 L1758.21 1516.28 L1745.67 1548.85 L1740.78 1548.85 L1752.59 1518.22 L1735.99 1518.22 L1735.99 1514.29 Z" fill="#000000" fill-rule="nonzero" fill-opacity="1" /><path clip-path="url(#clip220)" d="M1767.38 1514.29 L1785.73 1514.29 L1785.73 1518.22 L1771.66 1518.22 L1771.66 1526.7 Q1772.68 1526.35 1773.7 1526.19 Q1774.72 1526 1775.73 1526 Q1781.52 1526 1784.9 1529.17 Q1788.28 1532.34 1788.28 1537.76 Q1788.28 1543.34 1784.81 1546.44 Q1781.34 1549.52 1775.02 1549.52 Q1772.84 1549.52 1770.57 1549.15 Q1768.33 1548.78 1765.92 1548.04 L1765.92 1543.34 Q1768 1544.47 1770.23 1545.03 Q1772.45 1545.58 1774.92 1545.58 Q1778.93 1545.58 1781.27 1543.48 Q1783.61 1541.37 1783.61 1537.76 Q1783.61 1534.15 1781.27 1532.04 Q1778.93 1529.94 1774.92 1529.94 Q1773.05 1529.94 1771.17 1530.35 Q1769.32 1530.77 1767.38 1531.65 L1767.38 1514.29 Z" fill="#000000" fill-rule="nonzero" fill-opacity="1" /><path clip-path="url(#clip220)" d="M2230.9 1544.91 L2238.54 1544.91 L2238.54 1518.55 L2230.23 1520.21 L2230.23 1515.95 L2238.49 1514.29 L2243.17 1514.29 L2243.17 1544.91 L2250.81 1544.91 L2250.81 1548.85 L2230.9 1548.85 L2230.9 1544.91 Z" fill="#000000" fill-rule="nonzero" fill-opacity="1" /><path clip-path="url(#clip220)" d="M2270.25 1517.37 Q2266.64 1517.37 2264.81 1520.93 Q2263 1524.47 2263 1531.6 Q2263 1538.71 2264.81 1542.27 Q2266.64 1545.82 2270.25 1545.82 Q2273.88 1545.82 2275.69 1542.27 Q2277.52 1538.71 2277.52 1531.6 Q2277.52 1524.47 2275.69 1520.93 Q2273.88 1517.37 2270.25 1517.37 M2270.25 1513.66 Q2276.06 1513.66 2279.12 1518.27 Q2282.19 1522.85 2282.19 1531.6 Q2282.19 1540.33 2279.12 1544.94 Q2276.06 1549.52 2270.25 1549.52 Q2264.44 1549.52 2261.36 1544.94 Q2258.3 1540.33 2258.3 1531.6 Q2258.3 1522.85 2261.36 1518.27 Q2264.44 1513.66 2270.25 1513.66 Z" fill="#000000" fill-rule="nonzero" fill-opacity="1" /><path clip-path="url(#clip220)" d="M2300.41 1517.37 Q2296.8 1517.37 2294.97 1520.93 Q2293.17 1524.47 2293.17 1531.6 Q2293.17 1538.71 2294.97 1542.27 Q2296.8 1545.82 2300.41 1545.82 Q2304.05 1545.82 2305.85 1542.27 Q2307.68 1538.71 2307.68 1531.6 Q2307.68 1524.47 2305.85 1520.93 Q2304.05 1517.37 2300.41 1517.37 M2300.41 1513.66 Q2306.22 1513.66 2309.28 1518.27 Q2312.36 1522.85 2312.36 1531.6 Q2312.36 1540.33 2309.28 1544.94 Q2306.22 1549.52 2300.41 1549.52 Q2294.6 1549.52 2291.52 1544.94 Q2288.47 1540.33 2288.47 1531.6 Q2288.47 1522.85 2291.52 1518.27 Q2294.6 1513.66 2300.41 1513.66 Z" fill="#000000" fill-rule="nonzero" fill-opacity="1" /><polyline clip-path="url(#clip222)" style="stroke:#000000; stroke-linecap:round; stroke-linejoin:round; stroke-width:2; stroke-opacity:0.1; fill:none" points="193.936,1359.88 2352.76,1359.88 "/>
<polyline clip-path="url(#clip222)" style="stroke:#000000; stroke-linecap:round; stroke-linejoin:round; stroke-width:2; stroke-opacity:0.1; fill:none" points="193.936,1137.04 2352.76,1137.04 "/>
<polyline clip-path="url(#clip222)" style="stroke:#000000; stroke-linecap:round; stroke-linejoin:round; stroke-width:2; stroke-opacity:0.1; fill:none" points="193.936,914.21 2352.76,914.21 "/>
<polyline clip-path="url(#clip222)" style="stroke:#000000; stroke-linecap:round; stroke-linejoin:round; stroke-width:2; stroke-opacity:0.1; fill:none" points="193.936,691.376 2352.76,691.376 "/>
<polyline clip-path="url(#clip222)" style="stroke:#000000; stroke-linecap:round; stroke-linejoin:round; stroke-width:2; stroke-opacity:0.1; fill:none" points="193.936,468.542 2352.76,468.542 "/>
<polyline clip-path="url(#clip222)" style="stroke:#000000; stroke-linecap:round; stroke-linejoin:round; stroke-width:2; stroke-opacity:0.1; fill:none" points="193.936,245.708 2352.76,245.708 "/>
<polyline clip-path="url(#clip220)" style="stroke:#000000; stroke-linecap:round; stroke-linejoin:round; stroke-width:4; stroke-opacity:1; fill:none" points="193.936,1486.45 193.936,163.705 "/>
<polyline clip-path="url(#clip220)" style="stroke:#000000; stroke-linecap:round; stroke-linejoin:round; stroke-width:4; stroke-opacity:1; fill:none" points="193.936,1359.88 212.834,1359.88 "/>
<polyline clip-path="url(#clip220)" style="stroke:#000000; stroke-linecap:round; stroke-linejoin:round; stroke-width:4; stroke-opacity:1; fill:none" points="193.936,1137.04 212.834,1137.04 "/>
<polyline clip-path="url(#clip220)" style="stroke:#000000; stroke-linecap:round; stroke-linejoin:round; stroke-width:4; stroke-opacity:1; fill:none" points="193.936,914.21 212.834,914.21 "/>
<polyline clip-path="url(#clip220)" style="stroke:#000000; stroke-linecap:round; stroke-linejoin:round; stroke-width:4; stroke-opacity:1; fill:none" points="193.936,691.376 212.834,691.376 "/>
<polyline clip-path="url(#clip220)" style="stroke:#000000; stroke-linecap:round; stroke-linejoin:round; stroke-width:4; stroke-opacity:1; fill:none" points="193.936,468.542 212.834,468.542 "/>
<polyline clip-path="url(#clip220)" style="stroke:#000000; stroke-linecap:round; stroke-linejoin:round; stroke-width:4; stroke-opacity:1; fill:none" points="193.936,245.708 212.834,245.708 "/>
<path clip-path="url(#clip220)" d="M50.9921 1360.33 L80.6679 1360.33 L80.6679 1364.26 L50.9921 1364.26 L50.9921 1360.33 Z" fill="#000000" fill-rule="nonzero" fill-opacity="1" /><path clip-path="url(#clip220)" d="M90.8067 1342.6 L109.163 1342.6 L109.163 1346.53 L95.0891 1346.53 L95.0891 1355.01 Q96.1076 1354.66 97.1261 1354.5 Q98.1447 1354.31 99.1632 1354.31 Q104.95 1354.31 108.33 1357.48 Q111.709 1360.65 111.709 1366.07 Q111.709 1371.65 108.237 1374.75 Q104.765 1377.83 98.4456 1377.83 Q96.2697 1377.83 94.0012 1377.46 Q91.7558 1377.09 89.3484 1376.35 L89.3484 1371.65 Q91.4317 1372.78 93.6539 1373.34 Q95.8761 1373.89 98.353 1373.89 Q102.358 1373.89 104.696 1371.79 Q107.033 1369.68 107.033 1366.07 Q107.033 1362.46 104.696 1360.35 Q102.358 1358.25 98.353 1358.25 Q96.478 1358.25 94.603 1358.66 Q92.7512 1359.08 90.8067 1359.96 L90.8067 1342.6 Z" fill="#000000" fill-rule="nonzero" fill-opacity="1" /><path clip-path="url(#clip220)" d="M120.922 1371.28 L125.807 1371.28 L125.807 1377.16 L120.922 1377.16 L120.922 1371.28 Z" fill="#000000" fill-rule="nonzero" fill-opacity="1" /><path clip-path="url(#clip220)" d="M145.992 1345.68 Q142.381 1345.68 140.552 1349.24 Q138.746 1352.78 138.746 1359.91 Q138.746 1367.02 140.552 1370.58 Q142.381 1374.13 145.992 1374.13 Q149.626 1374.13 151.431 1370.58 Q153.26 1367.02 153.26 1359.91 Q153.26 1352.78 151.431 1349.24 Q149.626 1345.68 145.992 1345.68 M145.992 1341.97 Q151.802 1341.97 154.857 1346.58 Q157.936 1351.16 157.936 1359.91 Q157.936 1368.64 154.857 1373.25 Q151.802 1377.83 145.992 1377.83 Q140.181 1377.83 137.103 1373.25 Q134.047 1368.64 134.047 1359.91 Q134.047 1351.16 137.103 1346.58 Q140.181 1341.97 145.992 1341.97 Z" fill="#000000" fill-rule="nonzero" fill-opacity="1" /><path clip-path="url(#clip220)" d="M51.9875 1137.5 L81.6633 1137.5 L81.6633 1141.43 L51.9875 1141.43 L51.9875 1137.5 Z" fill="#000000" fill-rule="nonzero" fill-opacity="1" /><path clip-path="url(#clip220)" d="M95.7836 1150.39 L112.103 1150.39 L112.103 1154.32 L90.1586 1154.32 L90.1586 1150.39 Q92.8206 1147.63 97.4039 1143 Q102.01 1138.35 103.191 1137.01 Q105.436 1134.49 106.316 1132.75 Q107.219 1130.99 107.219 1129.3 Q107.219 1126.55 105.274 1124.81 Q103.353 1123.07 100.251 1123.07 Q98.0521 1123.07 95.5984 1123.84 Q93.1678 1124.6 90.3901 1126.15 L90.3901 1121.43 Q93.2141 1120.3 95.6678 1119.72 Q98.1215 1119.14 100.159 1119.14 Q105.529 1119.14 108.723 1121.82 Q111.918 1124.51 111.918 1129 Q111.918 1131.13 111.108 1133.05 Q110.321 1134.95 108.214 1137.54 Q107.635 1138.21 104.534 1141.43 Q101.432 1144.63 95.7836 1150.39 Z" fill="#000000" fill-rule="nonzero" fill-opacity="1" /><path clip-path="url(#clip220)" d="M121.918 1148.44 L126.802 1148.44 L126.802 1154.32 L121.918 1154.32 L121.918 1148.44 Z" fill="#000000" fill-rule="nonzero" fill-opacity="1" /><path clip-path="url(#clip220)" d="M137.033 1119.76 L155.39 1119.76 L155.39 1123.7 L141.316 1123.7 L141.316 1132.17 Q142.334 1131.82 143.353 1131.66 Q144.371 1131.48 145.39 1131.48 Q151.177 1131.48 154.556 1134.65 Q157.936 1137.82 157.936 1143.24 Q157.936 1148.81 154.464 1151.92 Q150.992 1155 144.672 1155 Q142.496 1155 140.228 1154.63 Q137.982 1154.25 135.575 1153.51 L135.575 1148.81 Q137.658 1149.95 139.881 1150.5 Q142.103 1151.06 144.58 1151.06 Q148.584 1151.06 150.922 1148.95 Q153.26 1146.85 153.26 1143.24 Q153.26 1139.63 150.922 1137.52 Q148.584 1135.41 144.58 1135.41 Q142.705 1135.41 140.83 1135.83 Q138.978 1136.25 137.033 1137.13 L137.033 1119.76 Z" fill="#000000" fill-rule="nonzero" fill-opacity="1" /><path clip-path="url(#clip220)" d="M100.76 900.009 Q97.1493 900.009 95.3206 903.574 Q93.515 907.115 93.515 914.245 Q93.515 921.351 95.3206 924.916 Q97.1493 928.458 100.76 928.458 Q104.395 928.458 106.2 924.916 Q108.029 921.351 108.029 914.245 Q108.029 907.115 106.2 903.574 Q104.395 900.009 100.76 900.009 M100.76 896.305 Q106.571 896.305 109.626 900.912 Q112.705 905.495 112.705 914.245 Q112.705 922.972 109.626 927.578 Q106.571 932.162 100.76 932.162 Q94.9502 932.162 91.8715 927.578 Q88.816 922.972 88.816 914.245 Q88.816 905.495 91.8715 900.912 Q94.9502 896.305 100.76 896.305 Z" fill="#000000" fill-rule="nonzero" fill-opacity="1" /><path clip-path="url(#clip220)" d="M120.922 925.611 L125.807 925.611 L125.807 931.49 L120.922 931.49 L120.922 925.611 Z" fill="#000000" fill-rule="nonzero" fill-opacity="1" /><path clip-path="url(#clip220)" d="M145.992 900.009 Q142.381 900.009 140.552 903.574 Q138.746 907.115 138.746 914.245 Q138.746 921.351 140.552 924.916 Q142.381 928.458 145.992 928.458 Q149.626 928.458 151.431 924.916 Q153.26 921.351 153.26 914.245 Q153.26 907.115 151.431 903.574 Q149.626 900.009 145.992 900.009 M145.992 896.305 Q151.802 896.305 154.857 900.912 Q157.936 905.495 157.936 914.245 Q157.936 922.972 154.857 927.578 Q151.802 932.162 145.992 932.162 Q140.181 932.162 137.103 927.578 Q134.047 922.972 134.047 914.245 Q134.047 905.495 137.103 900.912 Q140.181 896.305 145.992 896.305 Z" fill="#000000" fill-rule="nonzero" fill-opacity="1" /><path clip-path="url(#clip220)" d="M95.7836 704.721 L112.103 704.721 L112.103 708.656 L90.1586 708.656 L90.1586 704.721 Q92.8206 701.967 97.4039 697.337 Q102.01 692.684 103.191 691.342 Q105.436 688.818 106.316 687.082 Q107.219 685.323 107.219 683.633 Q107.219 680.879 105.274 679.143 Q103.353 677.406 100.251 677.406 Q98.0521 677.406 95.5984 678.17 Q93.1678 678.934 90.3901 680.485 L90.3901 675.763 Q93.2141 674.629 95.6678 674.05 Q98.1215 673.471 100.159 673.471 Q105.529 673.471 108.723 676.156 Q111.918 678.842 111.918 683.332 Q111.918 685.462 111.108 687.383 Q110.321 689.281 108.214 691.874 Q107.635 692.545 104.534 695.763 Q101.432 698.957 95.7836 704.721 Z" fill="#000000" fill-rule="nonzero" fill-opacity="1" /><path clip-path="url(#clip220)" d="M121.918 702.777 L126.802 702.777 L126.802 708.656 L121.918 708.656 L121.918 702.777 Z" fill="#000000" fill-rule="nonzero" fill-opacity="1" /><path clip-path="url(#clip220)" d="M137.033 674.096 L155.39 674.096 L155.39 678.031 L141.316 678.031 L141.316 686.504 Q142.334 686.156 143.353 685.994 Q144.371 685.809 145.39 685.809 Q151.177 685.809 154.556 688.98 Q157.936 692.152 157.936 697.568 Q157.936 703.147 154.464 706.249 Q150.992 709.328 144.672 709.328 Q142.496 709.328 140.228 708.957 Q137.982 708.587 135.575 707.846 L135.575 703.147 Q137.658 704.281 139.881 704.837 Q142.103 705.392 144.58 705.392 Q148.584 705.392 150.922 703.286 Q153.26 701.179 153.26 697.568 Q153.26 693.957 150.922 691.851 Q148.584 689.744 144.58 689.744 Q142.705 689.744 140.83 690.161 Q138.978 690.578 137.033 691.457 L137.033 674.096 Z" fill="#000000" fill-rule="nonzero" fill-opacity="1" /><path clip-path="url(#clip220)" d="M90.8067 451.262 L109.163 451.262 L109.163 455.197 L95.0891 455.197 L95.0891 463.67 Q96.1076 463.322 97.1261 463.16 Q98.1447 462.975 99.1632 462.975 Q104.95 462.975 108.33 466.147 Q111.709 469.318 111.709 474.734 Q111.709 480.313 108.237 483.415 Q104.765 486.494 98.4456 486.494 Q96.2697 486.494 94.0012 486.123 Q91.7558 485.753 89.3484 485.012 L89.3484 480.313 Q91.4317 481.447 93.6539 482.003 Q95.8761 482.558 98.353 482.558 Q102.358 482.558 104.696 480.452 Q107.033 478.346 107.033 474.734 Q107.033 471.123 104.696 469.017 Q102.358 466.91 98.353 466.91 Q96.478 466.91 94.603 467.327 Q92.7512 467.744 90.8067 468.623 L90.8067 451.262 Z" fill="#000000" fill-rule="nonzero" fill-opacity="1" /><path clip-path="url(#clip220)" d="M120.922 479.943 L125.807 479.943 L125.807 485.822 L120.922 485.822 L120.922 479.943 Z" fill="#000000" fill-rule="nonzero" fill-opacity="1" /><path clip-path="url(#clip220)" d="M145.992 454.341 Q142.381 454.341 140.552 457.906 Q138.746 461.447 138.746 468.577 Q138.746 475.683 140.552 479.248 Q142.381 482.79 145.992 482.79 Q149.626 482.79 151.431 479.248 Q153.26 475.683 153.26 468.577 Q153.26 461.447 151.431 457.906 Q149.626 454.341 145.992 454.341 M145.992 450.637 Q151.802 450.637 154.857 455.244 Q157.936 459.827 157.936 468.577 Q157.936 477.304 154.857 481.91 Q151.802 486.494 145.992 486.494 Q140.181 486.494 137.103 481.91 Q134.047 477.304 134.047 468.577 Q134.047 459.827 137.103 455.244 Q140.181 450.637 145.992 450.637 Z" fill="#000000" fill-rule="nonzero" fill-opacity="1" /><path clip-path="url(#clip220)" d="M90.5752 228.428 L112.797 228.428 L112.797 230.419 L100.251 262.988 L95.3669 262.988 L107.172 232.364 L90.5752 232.364 L90.5752 228.428 Z" fill="#000000" fill-rule="nonzero" fill-opacity="1" /><path clip-path="url(#clip220)" d="M121.918 257.109 L126.802 257.109 L126.802 262.988 L121.918 262.988 L121.918 257.109 Z" fill="#000000" fill-rule="nonzero" fill-opacity="1" /><path clip-path="url(#clip220)" d="M137.033 228.428 L155.39 228.428 L155.39 232.364 L141.316 232.364 L141.316 240.836 Q142.334 240.488 143.353 240.326 Q144.371 240.141 145.39 240.141 Q151.177 240.141 154.556 243.313 Q157.936 246.484 157.936 251.9 Q157.936 257.479 154.464 260.581 Q150.992 263.66 144.672 263.66 Q142.496 263.66 140.228 263.289 Q137.982 262.919 135.575 262.178 L135.575 257.479 Q137.658 258.613 139.881 259.169 Q142.103 259.724 144.58 259.724 Q148.584 259.724 150.922 257.618 Q153.26 255.512 153.26 251.9 Q153.26 248.289 150.922 246.183 Q148.584 244.076 144.58 244.076 Q142.705 244.076 140.83 244.493 Q138.978 244.91 137.033 245.789 L137.033 228.428 Z" fill="#000000" fill-rule="nonzero" fill-opacity="1" /><path clip-path="url(#clip220)" d="M272.951 57.6678 L272.951 80.3933 L283.241 80.3933 Q288.952 80.3933 292.071 77.4362 Q295.191 74.479 295.191 69.0103 Q295.191 63.5821 292.071 60.6249 Q288.952 57.6678 283.241 57.6678 L272.951 57.6678 M264.768 50.9432 L283.241 50.9432 Q293.408 50.9432 298.593 55.5613 Q303.819 60.1388 303.819 69.0103 Q303.819 77.9628 298.593 82.5403 Q293.408 87.1178 283.241 87.1178 L272.951 87.1178 L272.951 111.423 L264.768 111.423 L264.768 50.9432 Z" fill="#000000" fill-rule="nonzero" fill-opacity="1" /><path clip-path="url(#clip220)" d="M339.305 73.0207 Q338.049 72.2915 336.55 71.9674 Q335.092 71.6029 333.31 71.6029 Q326.99 71.6029 323.588 75.7348 Q320.225 79.8262 320.225 87.5229 L320.225 111.423 L312.731 111.423 L312.731 66.0531 L320.225 66.0531 L320.225 73.1017 Q322.575 68.9698 326.342 66.9848 Q330.109 64.9594 335.497 64.9594 Q336.267 64.9594 337.199 65.0809 Q338.13 65.1619 339.265 65.3645 L339.305 73.0207 Z" fill="#000000" fill-rule="nonzero" fill-opacity="1" /><path clip-path="url(#clip220)" d="M341.776 66.0531 L349.675 66.0531 L363.853 104.132 L378.032 66.0531 L385.931 66.0531 L368.917 111.423 L358.79 111.423 L341.776 66.0531 Z" fill="#000000" fill-rule="nonzero" fill-opacity="1" /><path clip-path="url(#clip220)" d="M396.22 66.0531 L403.674 66.0531 L403.674 111.423 L396.22 111.423 L396.22 66.0531 M396.22 48.3912 L403.674 48.3912 L403.674 57.8298 L396.22 57.8298 L396.22 48.3912 Z" fill="#000000" fill-rule="nonzero" fill-opacity="1" /><path clip-path="url(#clip220)" d="M456.984 84.0391 L456.984 111.423 L449.53 111.423 L449.53 84.2822 Q449.53 77.8413 447.019 74.641 Q444.507 71.4408 439.484 71.4408 Q433.448 71.4408 429.964 75.2892 Q426.48 79.1375 426.48 85.781 L426.48 111.423 L418.986 111.423 L418.986 48.3912 L426.48 48.3912 L426.48 73.1017 Q429.154 69.0103 432.759 66.9848 Q436.405 64.9594 441.145 64.9594 Q448.963 64.9594 452.973 69.8205 Q456.984 74.641 456.984 84.0391 Z" fill="#000000" fill-rule="nonzero" fill-opacity="1" /><path clip-path="url(#clip220)" d="M500.693 104.537 L514.061 104.537 L514.061 58.3969 L499.518 61.3136 L499.518 53.8599 L513.98 50.9432 L522.163 50.9432 L522.163 104.537 L535.531 104.537 L535.531 111.423 L500.693 111.423 L500.693 104.537 Z" fill="#000000" fill-rule="nonzero" fill-opacity="1" /><path clip-path="url(#clip220)" d="M569.558 56.331 Q563.239 56.331 560.039 62.5693 Q556.879 68.7672 556.879 81.244 Q556.879 93.6803 560.039 99.9187 Q563.239 106.117 569.558 106.117 Q575.918 106.117 579.078 99.9187 Q582.278 93.6803 582.278 81.244 Q582.278 68.7672 579.078 62.5693 Q575.918 56.331 569.558 56.331 M569.558 49.8495 Q579.726 49.8495 585.073 57.9108 Q590.461 65.9316 590.461 81.244 Q590.461 96.5159 585.073 104.577 Q579.726 112.598 569.558 112.598 Q559.391 112.598 554.003 104.577 Q548.656 96.5159 548.656 81.244 Q548.656 65.9316 554.003 57.9108 Q559.391 49.8495 569.558 49.8495 Z" fill="#000000" fill-rule="nonzero" fill-opacity="1" /><path clip-path="url(#clip220)" d="M622.342 56.331 Q616.022 56.331 612.822 62.5693 Q609.662 68.7672 609.662 81.244 Q609.662 93.6803 612.822 99.9187 Q616.022 106.117 622.342 106.117 Q628.702 106.117 631.861 99.9187 Q635.062 93.6803 635.062 81.244 Q635.062 68.7672 631.861 62.5693 Q628.702 56.331 622.342 56.331 M622.342 49.8495 Q632.509 49.8495 637.857 57.9108 Q643.244 65.9316 643.244 81.244 Q643.244 96.5159 637.857 104.577 Q632.509 112.598 622.342 112.598 Q612.174 112.598 606.786 104.577 Q601.439 96.5159 601.439 81.244 Q601.439 65.9316 606.786 57.9108 Q612.174 49.8495 622.342 49.8495 Z" fill="#000000" fill-rule="nonzero" fill-opacity="1" /><path clip-path="url(#clip220)" d="M682.66 48.3912 L690.154 48.3912 L690.154 85.619 L712.393 66.0531 L721.913 66.0531 L697.851 87.2799 L722.926 111.423 L713.203 111.423 L690.154 89.2648 L690.154 111.423 L682.66 111.423 L682.66 48.3912 Z" fill="#000000" fill-rule="nonzero" fill-opacity="1" /><path clip-path="url(#clip220)" d="M745.611 71.2788 Q739.615 71.2788 736.132 75.9778 Q732.648 80.6364 732.648 88.7787 Q732.648 96.921 736.091 101.62 Q739.575 106.279 745.611 106.279 Q751.566 106.279 755.049 101.58 Q758.533 96.8805 758.533 88.7787 Q758.533 80.7174 755.049 76.0183 Q751.566 71.2788 745.611 71.2788 M745.611 64.9594 Q755.333 64.9594 760.883 71.2788 Q766.432 77.5982 766.432 88.7787 Q766.432 99.9187 760.883 106.279 Q755.333 112.598 745.611 112.598 Q735.848 112.598 730.298 106.279 Q724.789 99.9187 724.789 88.7787 Q724.789 77.5982 730.298 71.2788 Q735.848 64.9594 745.611 64.9594 Z" fill="#000000" fill-rule="nonzero" fill-opacity="1" /><path clip-path="url(#clip220)" d="M805.078 73.0207 Q803.822 72.2915 802.323 71.9674 Q800.865 71.6029 799.083 71.6029 Q792.763 71.6029 789.36 75.7348 Q785.998 79.8262 785.998 87.5229 L785.998 111.423 L778.504 111.423 L778.504 66.0531 L785.998 66.0531 L785.998 73.1017 Q788.348 68.9698 792.115 66.9848 Q795.882 64.9594 801.27 64.9594 Q802.04 64.9594 802.972 65.0809 Q803.903 65.1619 805.037 65.3645 L805.078 73.0207 Z" fill="#000000" fill-rule="nonzero" fill-opacity="1" /><path clip-path="url(#clip220)" d="M833.515 88.6167 Q824.482 88.6167 820.998 90.6826 Q817.514 92.7486 817.514 97.7312 Q817.514 101.701 820.107 104.051 Q822.74 106.36 827.236 106.36 Q833.434 106.36 837.161 101.985 Q840.928 97.5692 840.928 90.2775 L840.928 88.6167 L833.515 88.6167 M848.382 85.538 L848.382 111.423 L840.928 111.423 L840.928 104.537 Q838.376 108.669 834.569 110.654 Q830.761 112.598 825.251 112.598 Q818.284 112.598 814.152 108.709 Q810.061 104.78 810.061 98.2173 Q810.061 90.5611 815.165 86.6722 Q820.309 82.7834 830.477 82.7834 L840.928 82.7834 L840.928 82.0542 Q840.928 76.9095 837.526 74.1144 Q834.163 71.2788 828.047 71.2788 Q824.158 71.2788 820.471 72.2105 Q816.785 73.1422 813.382 75.0056 L813.382 68.1191 Q817.474 66.5392 821.322 65.7696 Q825.17 64.9594 828.816 64.9594 Q838.66 64.9594 843.521 70.0635 Q848.382 75.1677 848.382 85.538 Z" fill="#000000" fill-rule="nonzero" fill-opacity="1" /><path clip-path="url(#clip220)" d="M863.452 48.3912 L870.946 48.3912 L870.946 85.619 L893.185 66.0531 L902.705 66.0531 L878.642 87.2799 L903.718 111.423 L893.995 111.423 L870.946 89.2648 L870.946 111.423 L863.452 111.423 L863.452 48.3912 Z" fill="#000000" fill-rule="nonzero" fill-opacity="1" /><path clip-path="url(#clip220)" d="M926.403 71.2788 Q920.407 71.2788 916.923 75.9778 Q913.44 80.6364 913.44 88.7787 Q913.44 96.921 916.883 101.62 Q920.367 106.279 926.403 106.279 Q932.357 106.279 935.841 101.58 Q939.325 96.8805 939.325 88.7787 Q939.325 80.7174 935.841 76.0183 Q932.357 71.2788 926.403 71.2788 M926.403 64.9594 Q936.125 64.9594 941.674 71.2788 Q947.224 77.5982 947.224 88.7787 Q947.224 99.9187 941.674 106.279 Q936.125 112.598 926.403 112.598 Q916.64 112.598 911.09 106.279 Q905.581 99.9187 905.581 88.7787 Q905.581 77.5982 911.09 71.2788 Q916.64 64.9594 926.403 64.9594 Z" fill="#000000" fill-rule="nonzero" fill-opacity="1" /><path clip-path="url(#clip220)" d="M954.232 66.0531 L962.132 66.0531 L976.31 104.132 L990.488 66.0531 L998.387 66.0531 L981.373 111.423 L971.246 111.423 L954.232 66.0531 Z" fill="#000000" fill-rule="nonzero" fill-opacity="1" /><path clip-path="url(#clip220)" d="M1063.97 67.3899 L1063.97 74.4385 Q1060.81 72.8181 1057.41 72.008 Q1054.01 71.1978 1050.36 71.1978 Q1044.81 71.1978 1042.02 72.8992 Q1039.26 74.6005 1039.26 78.0033 Q1039.26 80.5959 1041.25 82.0947 Q1043.23 83.553 1049.23 84.8898 L1051.78 85.457 Q1059.72 87.1583 1063.04 90.2775 Q1066.4 93.3562 1066.4 98.906 Q1066.4 105.225 1061.38 108.912 Q1056.4 112.598 1047.65 112.598 Q1044 112.598 1040.03 111.869 Q1036.1 111.18 1031.73 109.762 L1031.73 102.066 Q1035.86 104.213 1039.87 105.306 Q1043.88 106.36 1047.81 106.36 Q1053.07 106.36 1055.91 104.577 Q1058.75 102.754 1058.75 99.4731 Q1058.75 96.4349 1056.68 94.8145 Q1054.65 93.1942 1047.73 91.6953 L1045.13 91.0877 Q1038.21 89.6294 1035.13 86.6317 Q1032.05 83.5935 1032.05 78.3274 Q1032.05 71.9269 1036.59 68.4432 Q1041.12 64.9594 1049.47 64.9594 Q1053.6 64.9594 1057.25 65.567 Q1060.89 66.1746 1063.97 67.3899 Z" fill="#000000" fill-rule="nonzero" fill-opacity="1" /><path clip-path="url(#clip220)" d="M1078.27 48.3912 L1085.72 48.3912 L1085.72 111.423 L1078.27 111.423 L1078.27 48.3912 Z" fill="#000000" fill-rule="nonzero" fill-opacity="1" /><path clip-path="url(#clip220)" d="M1100.55 93.5183 L1100.55 66.0531 L1108 66.0531 L1108 93.2347 Q1108 99.6756 1110.52 102.916 Q1113.03 106.117 1118.05 106.117 Q1124.09 106.117 1127.57 102.268 Q1131.09 98.4198 1131.09 91.7764 L1131.09 66.0531 L1138.55 66.0531 L1138.55 111.423 L1131.09 111.423 L1131.09 104.456 Q1128.38 108.588 1124.78 110.613 Q1121.21 112.598 1116.47 112.598 Q1108.65 112.598 1104.6 107.737 Q1100.55 102.876 1100.55 93.5183 M1119.31 64.9594 L1119.31 64.9594 Z" fill="#000000" fill-rule="nonzero" fill-opacity="1" /><path clip-path="url(#clip220)" d="M1186.55 67.795 L1186.55 74.7626 Q1183.39 73.0207 1180.19 72.17 Q1177.03 71.2788 1173.79 71.2788 Q1166.54 71.2788 1162.53 75.8968 Q1158.52 80.4743 1158.52 88.7787 Q1158.52 97.083 1162.53 101.701 Q1166.54 106.279 1173.79 106.279 Q1177.03 106.279 1180.19 105.428 Q1183.39 104.537 1186.55 102.795 L1186.55 109.681 Q1183.43 111.14 1180.07 111.869 Q1176.75 112.598 1172.98 112.598 Q1162.73 112.598 1156.7 106.157 Q1150.66 99.7161 1150.66 88.7787 Q1150.66 77.6792 1156.74 71.3193 Q1162.85 64.9594 1173.47 64.9594 Q1176.91 64.9594 1180.19 65.6885 Q1183.47 66.3772 1186.55 67.795 M1169.38 60.3008 L1159.45 45.0694 L1165.08 45.0694 L1172.37 54.9942 L1179.67 45.0694 L1185.3 45.0694 L1175.37 60.3008 L1169.38 60.3008 Z" fill="#000000" fill-rule="nonzero" fill-opacity="1" /><path clip-path="url(#clip220)" d="M1220.13 88.6167 Q1211.1 88.6167 1207.62 90.6826 Q1204.13 92.7486 1204.13 97.7312 Q1204.13 101.701 1206.73 104.051 Q1209.36 106.36 1213.85 106.36 Q1220.05 106.36 1223.78 101.985 Q1227.55 97.5692 1227.55 90.2775 L1227.55 88.6167 L1220.13 88.6167 M1235 85.538 L1235 111.423 L1227.55 111.423 L1227.55 104.537 Q1224.99 108.669 1221.19 110.654 Q1217.38 112.598 1211.87 112.598 Q1204.9 112.598 1200.77 108.709 Q1196.68 104.78 1196.68 98.2173 Q1196.68 90.5611 1201.78 86.6722 Q1206.93 82.7834 1217.1 82.7834 L1227.55 82.7834 L1227.55 82.0542 Q1227.55 76.9095 1224.14 74.1144 Q1220.78 71.2788 1214.66 71.2788 Q1210.78 71.2788 1207.09 72.2105 Q1203.4 73.1422 1200 75.0056 L1200 68.1191 Q1204.09 66.5392 1207.94 65.7696 Q1211.79 64.9594 1215.43 64.9594 Q1225.28 64.9594 1230.14 70.0635 Q1235 75.1677 1235 85.538 Z" fill="#000000" fill-rule="nonzero" fill-opacity="1" /><path clip-path="url(#clip220)" d="M1250.35 66.0531 L1257.81 66.0531 L1257.81 112.233 Q1257.81 120.902 1254.49 124.791 Q1251.2 128.68 1243.87 128.68 L1241.04 128.68 L1241.04 122.361 L1243.02 122.361 Q1247.27 122.361 1248.81 120.376 Q1250.35 118.431 1250.35 112.233 L1250.35 66.0531 M1250.35 48.3912 L1257.81 48.3912 L1257.81 57.8298 L1250.35 57.8298 L1250.35 48.3912 Z" fill="#000000" fill-rule="nonzero" fill-opacity="1" /><path clip-path="url(#clip220)" d="M1311.12 84.0391 L1311.12 111.423 L1303.66 111.423 L1303.66 84.2822 Q1303.66 77.8413 1301.15 74.641 Q1298.64 71.4408 1293.62 71.4408 Q1287.58 71.4408 1284.1 75.2892 Q1280.61 79.1375 1280.61 85.781 L1280.61 111.423 L1273.12 111.423 L1273.12 66.0531 L1280.61 66.0531 L1280.61 73.1017 Q1283.29 69.0103 1286.89 66.9848 Q1290.54 64.9594 1295.28 64.9594 Q1303.1 64.9594 1307.11 69.8205 Q1311.12 74.641 1311.12 84.0391 Z" fill="#000000" fill-rule="nonzero" fill-opacity="1" /><path clip-path="url(#clip220)" d="M1364.79 86.8748 L1364.79 90.5206 L1330.52 90.5206 Q1331.01 98.2173 1335.14 102.268 Q1339.31 106.279 1346.72 106.279 Q1351.02 106.279 1355.03 105.225 Q1359.08 104.172 1363.05 102.066 L1363.05 109.114 Q1359.04 110.816 1354.83 111.707 Q1350.61 112.598 1346.28 112.598 Q1335.42 112.598 1329.06 106.279 Q1322.74 99.9592 1322.74 89.1838 Q1322.74 78.0438 1328.74 71.5218 Q1334.77 64.9594 1344.98 64.9594 Q1354.14 64.9594 1359.44 70.8737 Q1364.79 76.7475 1364.79 86.8748 M1357.34 84.6873 Q1357.26 78.5704 1353.89 74.9246 Q1350.57 71.2788 1345.06 71.2788 Q1338.83 71.2788 1335.06 74.8031 Q1331.33 78.3274 1330.76 84.7278 L1357.34 84.6873 Z" fill="#000000" fill-rule="nonzero" fill-opacity="1" /><path clip-path="url(#clip220)" d="M1406.88 88.2116 Q1406.88 80.1098 1403.52 75.6538 Q1400.2 71.1978 1394.16 71.1978 Q1388.17 71.1978 1384.8 75.6538 Q1381.48 80.1098 1381.48 88.2116 Q1381.48 96.2729 1384.8 100.729 Q1388.17 105.185 1394.16 105.185 Q1400.2 105.185 1403.52 100.729 Q1406.88 96.2729 1406.88 88.2116 M1414.33 105.792 Q1414.33 117.378 1409.19 123.009 Q1404.04 128.68 1393.43 128.68 Q1389.5 128.68 1386.02 128.072 Q1382.53 127.505 1379.25 126.29 L1379.25 119.039 Q1382.53 120.821 1385.73 121.672 Q1388.93 122.523 1392.26 122.523 Q1399.59 122.523 1403.23 118.674 Q1406.88 114.867 1406.88 107.129 L1406.88 103.443 Q1404.57 107.453 1400.97 109.438 Q1397.36 111.423 1392.34 111.423 Q1383.99 111.423 1378.89 105.063 Q1373.78 98.7034 1373.78 88.2116 Q1373.78 77.6792 1378.89 71.3193 Q1383.99 64.9594 1392.34 64.9594 Q1397.36 64.9594 1400.97 66.9443 Q1404.57 68.9293 1406.88 72.9397 L1406.88 66.0531 L1414.33 66.0531 L1414.33 105.792 Z" fill="#000000" fill-rule="nonzero" fill-opacity="1" /><path clip-path="url(#clip220)" d="M1450.31 88.6167 Q1441.27 88.6167 1437.79 90.6826 Q1434.3 92.7486 1434.3 97.7312 Q1434.3 101.701 1436.9 104.051 Q1439.53 106.36 1444.03 106.36 Q1450.22 106.36 1453.95 101.985 Q1457.72 97.5692 1457.72 90.2775 L1457.72 88.6167 L1450.31 88.6167 M1465.17 85.538 L1465.17 111.423 L1457.72 111.423 L1457.72 104.537 Q1455.17 108.669 1451.36 110.654 Q1447.55 112.598 1442.04 112.598 Q1435.07 112.598 1430.94 108.709 Q1426.85 104.78 1426.85 98.2173 Q1426.85 90.5611 1431.96 86.6722 Q1437.1 82.7834 1447.27 82.7834 L1457.72 82.7834 L1457.72 82.0542 Q1457.72 76.9095 1454.32 74.1144 Q1450.95 71.2788 1444.84 71.2788 Q1440.95 71.2788 1437.26 72.2105 Q1433.58 73.1422 1430.17 75.0056 L1430.17 68.1191 Q1434.26 66.5392 1438.11 65.7696 Q1441.96 64.9594 1445.61 64.9594 Q1455.45 64.9594 1460.31 70.0635 Q1465.17 75.1677 1465.17 85.538 Z" fill="#000000" fill-rule="nonzero" fill-opacity="1" /><path clip-path="url(#clip220)" d="M1535.82 67.3899 L1535.82 74.4385 Q1532.66 72.8181 1529.26 72.008 Q1525.86 71.1978 1522.21 71.1978 Q1516.66 71.1978 1513.86 72.8992 Q1511.11 74.6005 1511.11 78.0033 Q1511.11 80.5959 1513.1 82.0947 Q1515.08 83.553 1521.08 84.8898 L1523.63 85.457 Q1531.57 87.1583 1534.89 90.2775 Q1538.25 93.3562 1538.25 98.906 Q1538.25 105.225 1533.23 108.912 Q1528.25 112.598 1519.5 112.598 Q1515.85 112.598 1511.88 111.869 Q1507.95 111.18 1503.58 109.762 L1503.58 102.066 Q1507.71 104.213 1511.72 105.306 Q1515.73 106.36 1519.66 106.36 Q1524.92 106.36 1527.76 104.577 Q1530.59 102.754 1530.59 99.4731 Q1530.59 96.4349 1528.53 94.8145 Q1526.5 93.1942 1519.58 91.6953 L1516.98 91.0877 Q1510.06 89.6294 1506.98 86.6317 Q1503.9 83.5935 1503.9 78.3274 Q1503.9 71.9269 1508.44 68.4432 Q1512.97 64.9594 1521.32 64.9594 Q1525.45 64.9594 1529.1 65.567 Q1532.74 66.1746 1535.82 67.3899 Z" fill="#000000" fill-rule="nonzero" fill-opacity="1" /><path clip-path="url(#clip220)" d="M1557.33 104.618 L1557.33 128.68 L1549.84 128.68 L1549.84 66.0531 L1557.33 66.0531 L1557.33 72.9397 Q1559.68 68.8888 1563.25 66.9443 Q1566.85 64.9594 1571.83 64.9594 Q1580.1 64.9594 1585.24 71.5218 Q1590.43 78.0843 1590.43 88.7787 Q1590.43 99.4731 1585.24 106.036 Q1580.1 112.598 1571.83 112.598 Q1566.85 112.598 1563.25 110.654 Q1559.68 108.669 1557.33 104.618 M1582.69 88.7787 Q1582.69 80.5554 1579.29 75.8968 Q1575.92 71.1978 1570.01 71.1978 Q1564.1 71.1978 1560.69 75.8968 Q1557.33 80.5554 1557.33 88.7787 Q1557.33 97.002 1560.69 101.701 Q1564.1 106.36 1570.01 106.36 Q1575.92 106.36 1579.29 101.701 Q1582.69 97.002 1582.69 88.7787 Z" fill="#000000" fill-rule="nonzero" fill-opacity="1" /><path clip-path="url(#clip220)" d="M1629.07 73.0207 Q1627.82 72.2915 1626.32 71.9674 Q1624.86 71.6029 1623.08 71.6029 Q1616.76 71.6029 1613.35 75.7348 Q1609.99 79.8262 1609.99 87.5229 L1609.99 111.423 L1602.5 111.423 L1602.5 66.0531 L1609.99 66.0531 L1609.99 73.1017 Q1612.34 68.9698 1616.11 66.9848 Q1619.88 64.9594 1625.26 64.9594 Q1626.03 64.9594 1626.97 65.0809 Q1627.9 65.1619 1629.03 65.3645 L1629.07 73.0207 Z" fill="#000000" fill-rule="nonzero" fill-opacity="1" /><path clip-path="url(#clip220)" d="M1673.88 86.8748 L1673.88 90.5206 L1639.6 90.5206 Q1640.09 98.2173 1644.22 102.268 Q1648.4 106.279 1655.81 106.279 Q1660.1 106.279 1664.11 105.225 Q1668.16 104.172 1672.13 102.066 L1672.13 109.114 Q1668.12 110.816 1663.91 111.707 Q1659.7 112.598 1655.36 112.598 Q1644.51 112.598 1638.15 106.279 Q1631.83 99.9592 1631.83 89.1838 Q1631.83 78.0438 1637.82 71.5218 Q1643.86 64.9594 1654.07 64.9594 Q1663.22 64.9594 1668.53 70.8737 Q1673.88 76.7475 1673.88 86.8748 M1666.42 84.6873 Q1666.34 78.5704 1662.98 74.9246 Q1659.66 71.2788 1654.15 71.2788 Q1647.91 71.2788 1644.14 74.8031 Q1640.41 78.3274 1639.85 84.7278 L1666.42 84.6873 Z" fill="#000000" fill-rule="nonzero" fill-opacity="1" /><path clip-path="url(#clip220)" d="M1723.82 84.0391 L1723.82 111.423 L1716.37 111.423 L1716.37 84.2822 Q1716.37 77.8413 1713.86 74.641 Q1711.35 71.4408 1706.32 71.4408 Q1700.29 71.4408 1696.8 75.2892 Q1693.32 79.1375 1693.32 85.781 L1693.32 111.423 L1685.83 111.423 L1685.83 48.3912 L1693.32 48.3912 L1693.32 73.1017 Q1695.99 69.0103 1699.6 66.9848 Q1703.24 64.9594 1707.98 64.9594 Q1715.8 64.9594 1719.81 69.8205 Q1723.82 74.641 1723.82 84.0391 Z" fill="#000000" fill-rule="nonzero" fill-opacity="1" /><path clip-path="url(#clip220)" d="M1756.27 71.2788 Q1750.28 71.2788 1746.79 75.9778 Q1743.31 80.6364 1743.31 88.7787 Q1743.31 96.921 1746.75 101.62 Q1750.23 106.279 1756.27 106.279 Q1762.23 106.279 1765.71 101.58 Q1769.19 96.8805 1769.19 88.7787 Q1769.19 80.7174 1765.71 76.0183 Q1762.23 71.2788 1756.27 71.2788 M1756.27 64.9594 Q1765.99 64.9594 1771.54 71.2788 Q1777.09 77.5982 1777.09 88.7787 Q1777.09 99.9187 1771.54 106.279 Q1765.99 112.598 1756.27 112.598 Q1746.51 112.598 1740.96 106.279 Q1735.45 99.9187 1735.45 88.7787 Q1735.45 77.5982 1740.96 71.2788 Q1746.51 64.9594 1756.27 64.9594 Z" fill="#000000" fill-rule="nonzero" fill-opacity="1" /><path clip-path="url(#clip220)" d="M1819.3 72.9397 L1819.3 48.3912 L1826.76 48.3912 L1826.76 111.423 L1819.3 111.423 L1819.3 104.618 Q1816.95 108.669 1813.35 110.654 Q1809.78 112.598 1804.76 112.598 Q1796.54 112.598 1791.35 106.036 Q1786.21 99.4731 1786.21 88.7787 Q1786.21 78.0843 1791.35 71.5218 Q1796.54 64.9594 1804.76 64.9594 Q1809.78 64.9594 1813.35 66.9443 Q1816.95 68.8888 1819.3 72.9397 M1793.9 88.7787 Q1793.9 97.002 1797.27 101.701 Q1800.67 106.36 1806.58 106.36 Q1812.5 106.36 1815.9 101.701 Q1819.3 97.002 1819.3 88.7787 Q1819.3 80.5554 1815.9 75.8968 Q1812.5 71.1978 1806.58 71.1978 Q1800.67 71.1978 1797.27 75.8968 Q1793.9 80.5554 1793.9 88.7787 Z" fill="#000000" fill-rule="nonzero" fill-opacity="1" /><path clip-path="url(#clip220)" d="M1862.73 88.6167 Q1853.7 88.6167 1850.21 90.6826 Q1846.73 92.7486 1846.73 97.7312 Q1846.73 101.701 1849.32 104.051 Q1851.95 106.36 1856.45 106.36 Q1862.65 106.36 1866.37 101.985 Q1870.14 97.5692 1870.14 90.2775 L1870.14 88.6167 L1862.73 88.6167 M1877.6 85.538 L1877.6 111.423 L1870.14 111.423 L1870.14 104.537 Q1867.59 108.669 1863.78 110.654 Q1859.97 112.598 1854.46 112.598 Q1847.5 112.598 1843.37 108.709 Q1839.27 104.78 1839.27 98.2173 Q1839.27 90.5611 1844.38 86.6722 Q1849.52 82.7834 1859.69 82.7834 L1870.14 82.7834 L1870.14 82.0542 Q1870.14 76.9095 1866.74 74.1144 Q1863.38 71.2788 1857.26 71.2788 Q1853.37 71.2788 1849.68 72.2105 Q1846 73.1422 1842.6 75.0056 L1842.6 68.1191 Q1846.69 66.5392 1850.54 65.7696 Q1854.38 64.9594 1858.03 64.9594 Q1867.87 64.9594 1872.73 70.0635 Q1877.6 75.1677 1877.6 85.538 Z" fill="#000000" fill-rule="nonzero" fill-opacity="1" /><path clip-path="url(#clip220)" d="M1955.36 87.7314 Q1955.36 93.7159 1952.33 99.4954 Q1949.33 105.275 1944.62 108.841 Q1939.91 112.366 1935.11 112.366 Q1932.24 112.366 1930.32 110.808 Q1928.43 109.21 1927.41 106.955 Q1926.63 109.743 1924.95 116.424 Q1923.27 123.105 1923.27 123.761 Q1923.27 124.13 1923.35 124.294 Q1923.43 124.458 1923.8 124.663 Q1924.17 124.909 1925.07 124.991 Q1925.97 125.114 1927.49 125.114 Q1928.27 125.114 1928.55 125.114 Q1928.88 125.155 1929.17 125.36 Q1929.5 125.565 1929.5 126.015 Q1929.5 127.696 1927.98 127.696 Q1926.63 127.696 1923.84 127.573 Q1921.05 127.45 1919.66 127.45 Q1918.47 127.45 1916.09 127.573 Q1913.71 127.696 1912.61 127.696 Q1911.5 127.696 1911.5 126.712 Q1911.5 126.138 1911.67 125.769 Q1911.79 125.442 1912.12 125.278 Q1912.44 125.155 1912.73 125.114 Q1912.98 125.114 1913.47 125.114 Q1915.35 125.114 1916.17 124.786 Q1916.99 124.499 1917.28 123.884 Q1917.61 123.31 1917.98 121.671 L1927.41 84.2883 Q1927.98 81.788 1927.98 80.0255 Q1927.98 77.812 1927.28 76.9923 Q1926.59 76.1725 1925.36 76.1725 Q1923.22 76.1725 1921.83 78.7138 Q1920.44 81.2551 1919.25 86.1739 Q1918.88 87.5265 1918.63 87.8134 Q1918.43 88.1004 1917.81 88.1004 Q1916.79 88.0594 1916.79 87.2396 Q1916.79 87.0346 1917.12 85.723 Q1917.44 84.3703 1918.06 82.4028 Q1918.72 80.3944 1919.41 79.1237 Q1919.82 78.2629 1920.19 77.6891 Q1920.56 77.1152 1921.3 76.2135 Q1922.08 75.3117 1923.18 74.8198 Q1924.29 74.328 1925.64 74.328 Q1928.27 74.328 1930.44 75.8855 Q1932.61 77.4431 1933.18 80.5993 Q1935.52 77.853 1938.39 76.0905 Q1941.26 74.328 1944.17 74.328 Q1949.01 74.328 1952.16 78.099 Q1955.36 81.829 1955.36 87.7314 M1949.29 84.0424 Q1949.29 80.3124 1947.86 78.2629 Q1946.47 76.1725 1943.92 76.1725 Q1940.77 76.1725 1937.12 79.3696 Q1933.51 82.4028 1932.77 85.2311 L1928.63 101.668 L1928.39 103.02 Q1928.39 103.266 1928.51 104.004 Q1928.68 104.701 1929.13 105.849 Q1929.62 106.996 1930.27 108.021 Q1930.97 109.005 1932.2 109.743 Q1933.47 110.48 1935.03 110.48 Q1937.53 110.48 1940.23 108.267 Q1942.98 106.054 1945.03 101.873 Q1946.3 99.1675 1947.78 93.347 Q1949.29 87.4855 1949.29 84.0424 Z" fill="#000000" fill-rule="nonzero" fill-opacity="1" /><path clip-path="url(#clip220)" d="M1976.61 98.6756 Q1976.69 97.6509 1978.29 97.6509 L2029.73 97.6509 Q2032.15 97.6509 2032.19 98.5936 Q2032.19 99.6183 2029.89 99.5773 L1978.86 99.5773 Q1976.61 99.6183 1976.61 98.6756 M1976.61 82.2799 Q1976.61 81.2551 1978.37 81.2961 L2029.65 81.2961 Q2032.15 81.2961 2032.19 82.2799 Q2032.19 83.2226 2030.06 83.2226 L1978.29 83.2226 Q1976.61 83.2226 1976.61 82.2799 Z" fill="#000000" fill-rule="nonzero" fill-opacity="1" /><path clip-path="url(#clip220)" d="M2099.16 75.2297 L2087.56 121.917 Q2087.23 123.392 2087.23 123.761 Q2087.23 124.253 2087.36 124.458 Q2087.52 124.704 2088.42 124.909 Q2089.36 125.114 2091.25 125.114 Q2091.95 125.114 2092.19 125.114 Q2092.44 125.114 2092.81 125.196 Q2093.18 125.278 2093.3 125.483 Q2093.42 125.688 2093.42 126.015 Q2093.42 127.696 2091.95 127.696 Q2090.55 127.696 2087.64 127.573 Q2084.73 127.45 2083.3 127.45 Q2081.9 127.45 2079.08 127.573 Q2076.25 127.696 2074.9 127.696 Q2074.4 127.696 2074.12 127.45 Q2073.83 127.245 2073.83 126.999 L2073.79 126.794 Q2073.79 125.647 2074.24 125.36 Q2074.69 125.114 2075.71 125.114 Q2079.24 125.073 2080.26 124.581 Q2081.29 124.089 2081.78 122.326 L2085.55 107.324 Q2080.51 112.366 2075.63 112.366 Q2070.92 112.366 2067.72 108.677 Q2064.57 104.947 2064.57 98.9215 Q2064.57 94.4537 2066.33 89.9449 Q2068.13 85.436 2070.92 82.0339 Q2073.75 78.6318 2077.44 76.5004 Q2081.13 74.328 2084.77 74.328 Q2087.11 74.328 2089.2 75.6806 Q2091.33 77.0332 2092.6 80.1894 Q2093.67 78.3859 2095.64 76.4184 Q2097.6 74.4099 2098.3 74.4099 Q2098.71 74.4099 2098.91 74.6969 Q2099.16 74.9428 2099.16 75.2297 M2091.41 83.5505 Q2091.41 83.1406 2091.09 82.1159 Q2090.8 81.0912 2090.14 79.6975 Q2089.53 78.2629 2088.09 77.2382 Q2086.66 76.1725 2084.77 76.1725 Q2082.07 76.1725 2079.16 78.7958 Q2076.29 81.3781 2074.4 85.8869 Q2073.21 88.8382 2071.86 94.3307 Q2070.51 99.8233 2070.51 102.611 Q2070.51 103.266 2070.55 104.004 Q2070.63 104.742 2070.96 105.972 Q2071.29 107.201 2071.78 108.144 Q2072.31 109.087 2073.38 109.784 Q2074.44 110.48 2075.88 110.48 Q2078.99 110.48 2082.11 107.816 Q2085.22 105.152 2086.54 102.775 Q2086.7 102.529 2089.04 93.224 Q2091.41 83.9194 2091.41 83.5505 Z" fill="#000000" fill-rule="nonzero" fill-opacity="1" /><path clip-path="url(#clip220)" d="M2124.92 98.6756 Q2125 97.6509 2126.6 97.6509 L2178.04 97.6509 Q2180.46 97.6509 2180.5 98.5936 Q2180.5 99.6183 2178.21 99.5773 L2127.17 99.5773 Q2124.92 99.6183 2124.92 98.6756 M2124.92 82.2799 Q2124.92 81.2551 2126.68 81.2961 L2177.96 81.2961 Q2180.46 81.2961 2180.5 82.2799 Q2180.5 83.2226 2178.37 83.2226 L2126.6 83.2226 Q2124.92 83.2226 2124.92 82.2799 Z" fill="#000000" fill-rule="nonzero" fill-opacity="1" /><path clip-path="url(#clip220)" d="M2233.8 22.5655 L2233.8 19.9422 Q2243.88 19.9422 2249.09 14.5726 Q2250.52 14.5726 2250.77 14.9005 Q2251.02 15.2285 2251.02 16.7451 L2251.02 63.8417 Q2251.02 66.3421 2252.25 67.1209 Q2253.48 67.8997 2258.84 67.8997 L2261.51 67.8997 L2261.51 70.482 Q2258.56 70.2361 2247.9 70.2361 Q2237.24 70.2361 2234.33 70.482 L2234.33 67.8997 L2237 67.8997 Q2242.29 67.8997 2243.56 67.1619 Q2244.83 66.3831 2244.83 63.8417 L2244.83 20.3521 Q2240.44 22.5655 2233.8 22.5655 Z" fill="#000000" fill-rule="nonzero" fill-opacity="1" /><path clip-path="url(#clip220)" d="M2230.8 92.882 L2272.96 92.882 L2272.96 88.402 L2230.8 88.402  Z" fill="#000000" fill-rule="evenodd" fill-opacity="1"/>
<path clip-path="url(#clip220)" d="M2230.8 166.177 Q2230.8 164.66 2230.92 164.21 Q2231.09 163.759 2231.74 163.062 L2247.85 145.109 Q2256.66 135.189 2256.66 126.54 Q2256.66 120.925 2253.71 116.908 Q2250.8 112.891 2245.43 112.891 Q2241.74 112.891 2238.63 115.145 Q2235.51 117.4 2234.08 121.417 Q2234.33 121.335 2235.19 121.335 Q2237.28 121.335 2238.42 122.646 Q2239.61 123.958 2239.61 125.721 Q2239.61 127.975 2238.14 129.082 Q2236.7 130.147 2235.27 130.147 Q2234.69 130.147 2233.92 130.024 Q2233.18 129.901 2231.99 128.754 Q2230.8 127.565 2230.8 125.475 Q2230.8 119.613 2235.23 114.94 Q2239.7 110.268 2246.5 110.268 Q2254.21 110.268 2259.25 114.858 Q2264.33 119.408 2264.33 126.54 Q2264.33 129.041 2263.55 131.336 Q2262.81 133.591 2261.79 135.353 Q2260.8 137.116 2258.1 139.944 Q2255.39 142.772 2253.22 144.781 Q2251.05 146.789 2246.17 151.052 L2237.28 159.701 L2252.4 159.701 Q2259.78 159.701 2260.35 159.045 Q2261.17 157.856 2262.2 151.585 L2264.33 151.585 L2261.95 166.177 L2230.8 166.177 Z" fill="#000000" fill-rule="nonzero" fill-opacity="1" /><polyline clip-path="url(#clip222)" style="stroke:#009af9; stroke-linecap:round; stroke-linejoin:round; stroke-width:4; stroke-opacity:1; fill:none" points="255.035,914.21 275.401,825.077 295.767,735.943 316.133,825.077 336.5,914.21 356.866,1003.34 377.232,914.21 397.598,825.077 417.964,735.943 438.331,825.077 458.697,914.21 479.063,825.077 499.429,735.943 519.796,646.809 540.162,735.943 560.528,646.809 580.894,557.676 601.261,646.809 621.627,735.943 641.993,646.809 662.359,557.676 682.725,646.809 703.092,557.676 723.458,468.542 743.824,557.676 764.19,468.542 784.557,379.409 804.923,468.542 825.289,379.409 845.655,468.542 866.021,557.676 886.388,468.542 906.754,379.409 927.12,290.275 947.486,379.409 967.853,468.542 988.219,379.409 1008.59,290.275 1028.95,201.142 1049.32,290.275 1069.68,379.409 1090.05,468.542 1110.42,379.409 1130.78,468.542 1151.15,379.409 1171.51,468.542 1191.88,557.676 1212.25,646.809 1232.61,557.676 1252.98,646.809 1273.35,735.943 1293.71,646.809 1314.08,557.676 1334.44,646.809 1354.81,735.943 1375.18,825.077 1395.54,914.21 1415.91,1003.34 1436.28,1092.48 1456.64,1003.34 1477.01,1092.48 1497.37,1181.61 1517.74,1270.74 1538.11,1181.61 1558.47,1270.74 1578.84,1181.61 1599.21,1270.74 1619.57,1181.61 1639.94,1270.74 1660.3,1359.88 1680.67,1270.74 1701.04,1181.61 1721.4,1270.74 1741.77,1359.88 1762.14,1270.74 1782.5,1181.61 1802.87,1270.74 1823.23,1181.61 1843.6,1092.48 1863.97,1003.34 1884.33,914.21 1904.7,825.077 1925.07,914.21 1945.43,1003.34 1965.8,914.21 1986.16,1003.34 2006.53,1092.48 2026.9,1003.34 2047.26,914.21 2067.63,1003.34 2087.99,1092.48 2108.36,1181.61 2128.73,1270.74 2149.09,1359.88 2169.46,1449.01 2189.83,1359.88 2210.19,1270.74 2230.56,1181.61 2250.92,1092.48 2271.29,1003.34 2291.66,914.21 "/>
<circle clip-path="url(#clip222)" cx="255.035" cy="914.21" r="14.4" fill="#e26f46" fill-rule="evenodd" fill-opacity="1" stroke="#000000" stroke-opacity="1" stroke-width="3.2"/>
<circle clip-path="url(#clip222)" cx="275.401" cy="825.077" r="14.4" fill="#e26f46" fill-rule="evenodd" fill-opacity="1" stroke="#000000" stroke-opacity="1" stroke-width="3.2"/>
<circle clip-path="url(#clip222)" cx="295.767" cy="735.943" r="14.4" fill="#e26f46" fill-rule="evenodd" fill-opacity="1" stroke="#000000" stroke-opacity="1" stroke-width="3.2"/>
<circle clip-path="url(#clip222)" cx="316.133" cy="825.077" r="14.4" fill="#e26f46" fill-rule="evenodd" fill-opacity="1" stroke="#000000" stroke-opacity="1" stroke-width="3.2"/>
<circle clip-path="url(#clip222)" cx="336.5" cy="914.21" r="14.4" fill="#e26f46" fill-rule="evenodd" fill-opacity="1" stroke="#000000" stroke-opacity="1" stroke-width="3.2"/>
<circle clip-path="url(#clip222)" cx="356.866" cy="1003.34" r="14.4" fill="#e26f46" fill-rule="evenodd" fill-opacity="1" stroke="#000000" stroke-opacity="1" stroke-width="3.2"/>
<circle clip-path="url(#clip222)" cx="377.232" cy="914.21" r="14.4" fill="#e26f46" fill-rule="evenodd" fill-opacity="1" stroke="#000000" stroke-opacity="1" stroke-width="3.2"/>
<circle clip-path="url(#clip222)" cx="397.598" cy="825.077" r="14.4" fill="#e26f46" fill-rule="evenodd" fill-opacity="1" stroke="#000000" stroke-opacity="1" stroke-width="3.2"/>
<circle clip-path="url(#clip222)" cx="417.964" cy="735.943" r="14.4" fill="#e26f46" fill-rule="evenodd" fill-opacity="1" stroke="#000000" stroke-opacity="1" stroke-width="3.2"/>
<circle clip-path="url(#clip222)" cx="438.331" cy="825.077" r="14.4" fill="#e26f46" fill-rule="evenodd" fill-opacity="1" stroke="#000000" stroke-opacity="1" stroke-width="3.2"/>
<circle clip-path="url(#clip222)" cx="458.697" cy="914.21" r="14.4" fill="#e26f46" fill-rule="evenodd" fill-opacity="1" stroke="#000000" stroke-opacity="1" stroke-width="3.2"/>
<circle clip-path="url(#clip222)" cx="479.063" cy="825.077" r="14.4" fill="#e26f46" fill-rule="evenodd" fill-opacity="1" stroke="#000000" stroke-opacity="1" stroke-width="3.2"/>
<circle clip-path="url(#clip222)" cx="499.429" cy="735.943" r="14.4" fill="#e26f46" fill-rule="evenodd" fill-opacity="1" stroke="#000000" stroke-opacity="1" stroke-width="3.2"/>
<circle clip-path="url(#clip222)" cx="519.796" cy="646.809" r="14.4" fill="#e26f46" fill-rule="evenodd" fill-opacity="1" stroke="#000000" stroke-opacity="1" stroke-width="3.2"/>
<circle clip-path="url(#clip222)" cx="540.162" cy="735.943" r="14.4" fill="#e26f46" fill-rule="evenodd" fill-opacity="1" stroke="#000000" stroke-opacity="1" stroke-width="3.2"/>
<circle clip-path="url(#clip222)" cx="560.528" cy="646.809" r="14.4" fill="#e26f46" fill-rule="evenodd" fill-opacity="1" stroke="#000000" stroke-opacity="1" stroke-width="3.2"/>
<circle clip-path="url(#clip222)" cx="580.894" cy="557.676" r="14.4" fill="#e26f46" fill-rule="evenodd" fill-opacity="1" stroke="#000000" stroke-opacity="1" stroke-width="3.2"/>
<circle clip-path="url(#clip222)" cx="601.261" cy="646.809" r="14.4" fill="#e26f46" fill-rule="evenodd" fill-opacity="1" stroke="#000000" stroke-opacity="1" stroke-width="3.2"/>
<circle clip-path="url(#clip222)" cx="621.627" cy="735.943" r="14.4" fill="#e26f46" fill-rule="evenodd" fill-opacity="1" stroke="#000000" stroke-opacity="1" stroke-width="3.2"/>
<circle clip-path="url(#clip222)" cx="641.993" cy="646.809" r="14.4" fill="#e26f46" fill-rule="evenodd" fill-opacity="1" stroke="#000000" stroke-opacity="1" stroke-width="3.2"/>
<circle clip-path="url(#clip222)" cx="662.359" cy="557.676" r="14.4" fill="#e26f46" fill-rule="evenodd" fill-opacity="1" stroke="#000000" stroke-opacity="1" stroke-width="3.2"/>
<circle clip-path="url(#clip222)" cx="682.725" cy="646.809" r="14.4" fill="#e26f46" fill-rule="evenodd" fill-opacity="1" stroke="#000000" stroke-opacity="1" stroke-width="3.2"/>
<circle clip-path="url(#clip222)" cx="703.092" cy="557.676" r="14.4" fill="#e26f46" fill-rule="evenodd" fill-opacity="1" stroke="#000000" stroke-opacity="1" stroke-width="3.2"/>
<circle clip-path="url(#clip222)" cx="723.458" cy="468.542" r="14.4" fill="#e26f46" fill-rule="evenodd" fill-opacity="1" stroke="#000000" stroke-opacity="1" stroke-width="3.2"/>
<circle clip-path="url(#clip222)" cx="743.824" cy="557.676" r="14.4" fill="#e26f46" fill-rule="evenodd" fill-opacity="1" stroke="#000000" stroke-opacity="1" stroke-width="3.2"/>
<circle clip-path="url(#clip222)" cx="764.19" cy="468.542" r="14.4" fill="#e26f46" fill-rule="evenodd" fill-opacity="1" stroke="#000000" stroke-opacity="1" stroke-width="3.2"/>
<circle clip-path="url(#clip222)" cx="784.557" cy="379.409" r="14.4" fill="#e26f46" fill-rule="evenodd" fill-opacity="1" stroke="#000000" stroke-opacity="1" stroke-width="3.2"/>
<circle clip-path="url(#clip222)" cx="804.923" cy="468.542" r="14.4" fill="#e26f46" fill-rule="evenodd" fill-opacity="1" stroke="#000000" stroke-opacity="1" stroke-width="3.2"/>
<circle clip-path="url(#clip222)" cx="825.289" cy="379.409" r="14.4" fill="#e26f46" fill-rule="evenodd" fill-opacity="1" stroke="#000000" stroke-opacity="1" stroke-width="3.2"/>
<circle clip-path="url(#clip222)" cx="845.655" cy="468.542" r="14.4" fill="#e26f46" fill-rule="evenodd" fill-opacity="1" stroke="#000000" stroke-opacity="1" stroke-width="3.2"/>
<circle clip-path="url(#clip222)" cx="866.021" cy="557.676" r="14.4" fill="#e26f46" fill-rule="evenodd" fill-opacity="1" stroke="#000000" stroke-opacity="1" stroke-width="3.2"/>
<circle clip-path="url(#clip222)" cx="886.388" cy="468.542" r="14.4" fill="#e26f46" fill-rule="evenodd" fill-opacity="1" stroke="#000000" stroke-opacity="1" stroke-width="3.2"/>
<circle clip-path="url(#clip222)" cx="906.754" cy="379.409" r="14.4" fill="#e26f46" fill-rule="evenodd" fill-opacity="1" stroke="#000000" stroke-opacity="1" stroke-width="3.2"/>
<circle clip-path="url(#clip222)" cx="927.12" cy="290.275" r="14.4" fill="#e26f46" fill-rule="evenodd" fill-opacity="1" stroke="#000000" stroke-opacity="1" stroke-width="3.2"/>
<circle clip-path="url(#clip222)" cx="947.486" cy="379.409" r="14.4" fill="#e26f46" fill-rule="evenodd" fill-opacity="1" stroke="#000000" stroke-opacity="1" stroke-width="3.2"/>
<circle clip-path="url(#clip222)" cx="967.853" cy="468.542" r="14.4" fill="#e26f46" fill-rule="evenodd" fill-opacity="1" stroke="#000000" stroke-opacity="1" stroke-width="3.2"/>
<circle clip-path="url(#clip222)" cx="988.219" cy="379.409" r="14.4" fill="#e26f46" fill-rule="evenodd" fill-opacity="1" stroke="#000000" stroke-opacity="1" stroke-width="3.2"/>
<circle clip-path="url(#clip222)" cx="1008.59" cy="290.275" r="14.4" fill="#e26f46" fill-rule="evenodd" fill-opacity="1" stroke="#000000" stroke-opacity="1" stroke-width="3.2"/>
<circle clip-path="url(#clip222)" cx="1028.95" cy="201.142" r="14.4" fill="#e26f46" fill-rule="evenodd" fill-opacity="1" stroke="#000000" stroke-opacity="1" stroke-width="3.2"/>
<circle clip-path="url(#clip222)" cx="1049.32" cy="290.275" r="14.4" fill="#e26f46" fill-rule="evenodd" fill-opacity="1" stroke="#000000" stroke-opacity="1" stroke-width="3.2"/>
<circle clip-path="url(#clip222)" cx="1069.68" cy="379.409" r="14.4" fill="#e26f46" fill-rule="evenodd" fill-opacity="1" stroke="#000000" stroke-opacity="1" stroke-width="3.2"/>
<circle clip-path="url(#clip222)" cx="1090.05" cy="468.542" r="14.4" fill="#e26f46" fill-rule="evenodd" fill-opacity="1" stroke="#000000" stroke-opacity="1" stroke-width="3.2"/>
<circle clip-path="url(#clip222)" cx="1110.42" cy="379.409" r="14.4" fill="#e26f46" fill-rule="evenodd" fill-opacity="1" stroke="#000000" stroke-opacity="1" stroke-width="3.2"/>
<circle clip-path="url(#clip222)" cx="1130.78" cy="468.542" r="14.4" fill="#e26f46" fill-rule="evenodd" fill-opacity="1" stroke="#000000" stroke-opacity="1" stroke-width="3.2"/>
<circle clip-path="url(#clip222)" cx="1151.15" cy="379.409" r="14.4" fill="#e26f46" fill-rule="evenodd" fill-opacity="1" stroke="#000000" stroke-opacity="1" stroke-width="3.2"/>
<circle clip-path="url(#clip222)" cx="1171.51" cy="468.542" r="14.4" fill="#e26f46" fill-rule="evenodd" fill-opacity="1" stroke="#000000" stroke-opacity="1" stroke-width="3.2"/>
<circle clip-path="url(#clip222)" cx="1191.88" cy="557.676" r="14.4" fill="#e26f46" fill-rule="evenodd" fill-opacity="1" stroke="#000000" stroke-opacity="1" stroke-width="3.2"/>
<circle clip-path="url(#clip222)" cx="1212.25" cy="646.809" r="14.4" fill="#e26f46" fill-rule="evenodd" fill-opacity="1" stroke="#000000" stroke-opacity="1" stroke-width="3.2"/>
<circle clip-path="url(#clip222)" cx="1232.61" cy="557.676" r="14.4" fill="#e26f46" fill-rule="evenodd" fill-opacity="1" stroke="#000000" stroke-opacity="1" stroke-width="3.2"/>
<circle clip-path="url(#clip222)" cx="1252.98" cy="646.809" r="14.4" fill="#e26f46" fill-rule="evenodd" fill-opacity="1" stroke="#000000" stroke-opacity="1" stroke-width="3.2"/>
<circle clip-path="url(#clip222)" cx="1273.35" cy="735.943" r="14.4" fill="#e26f46" fill-rule="evenodd" fill-opacity="1" stroke="#000000" stroke-opacity="1" stroke-width="3.2"/>
<circle clip-path="url(#clip222)" cx="1293.71" cy="646.809" r="14.4" fill="#e26f46" fill-rule="evenodd" fill-opacity="1" stroke="#000000" stroke-opacity="1" stroke-width="3.2"/>
<circle clip-path="url(#clip222)" cx="1314.08" cy="557.676" r="14.4" fill="#e26f46" fill-rule="evenodd" fill-opacity="1" stroke="#000000" stroke-opacity="1" stroke-width="3.2"/>
<circle clip-path="url(#clip222)" cx="1334.44" cy="646.809" r="14.4" fill="#e26f46" fill-rule="evenodd" fill-opacity="1" stroke="#000000" stroke-opacity="1" stroke-width="3.2"/>
<circle clip-path="url(#clip222)" cx="1354.81" cy="735.943" r="14.4" fill="#e26f46" fill-rule="evenodd" fill-opacity="1" stroke="#000000" stroke-opacity="1" stroke-width="3.2"/>
<circle clip-path="url(#clip222)" cx="1375.18" cy="825.077" r="14.4" fill="#e26f46" fill-rule="evenodd" fill-opacity="1" stroke="#000000" stroke-opacity="1" stroke-width="3.2"/>
<circle clip-path="url(#clip222)" cx="1395.54" cy="914.21" r="14.4" fill="#e26f46" fill-rule="evenodd" fill-opacity="1" stroke="#000000" stroke-opacity="1" stroke-width="3.2"/>
<circle clip-path="url(#clip222)" cx="1415.91" cy="1003.34" r="14.4" fill="#e26f46" fill-rule="evenodd" fill-opacity="1" stroke="#000000" stroke-opacity="1" stroke-width="3.2"/>
<circle clip-path="url(#clip222)" cx="1436.28" cy="1092.48" r="14.4" fill="#e26f46" fill-rule="evenodd" fill-opacity="1" stroke="#000000" stroke-opacity="1" stroke-width="3.2"/>
<circle clip-path="url(#clip222)" cx="1456.64" cy="1003.34" r="14.4" fill="#e26f46" fill-rule="evenodd" fill-opacity="1" stroke="#000000" stroke-opacity="1" stroke-width="3.2"/>
<circle clip-path="url(#clip222)" cx="1477.01" cy="1092.48" r="14.4" fill="#e26f46" fill-rule="evenodd" fill-opacity="1" stroke="#000000" stroke-opacity="1" stroke-width="3.2"/>
<circle clip-path="url(#clip222)" cx="1497.37" cy="1181.61" r="14.4" fill="#e26f46" fill-rule="evenodd" fill-opacity="1" stroke="#000000" stroke-opacity="1" stroke-width="3.2"/>
<circle clip-path="url(#clip222)" cx="1517.74" cy="1270.74" r="14.4" fill="#e26f46" fill-rule="evenodd" fill-opacity="1" stroke="#000000" stroke-opacity="1" stroke-width="3.2"/>
<circle clip-path="url(#clip222)" cx="1538.11" cy="1181.61" r="14.4" fill="#e26f46" fill-rule="evenodd" fill-opacity="1" stroke="#000000" stroke-opacity="1" stroke-width="3.2"/>
<circle clip-path="url(#clip222)" cx="1558.47" cy="1270.74" r="14.4" fill="#e26f46" fill-rule="evenodd" fill-opacity="1" stroke="#000000" stroke-opacity="1" stroke-width="3.2"/>
<circle clip-path="url(#clip222)" cx="1578.84" cy="1181.61" r="14.4" fill="#e26f46" fill-rule="evenodd" fill-opacity="1" stroke="#000000" stroke-opacity="1" stroke-width="3.2"/>
<circle clip-path="url(#clip222)" cx="1599.21" cy="1270.74" r="14.4" fill="#e26f46" fill-rule="evenodd" fill-opacity="1" stroke="#000000" stroke-opacity="1" stroke-width="3.2"/>
<circle clip-path="url(#clip222)" cx="1619.57" cy="1181.61" r="14.4" fill="#e26f46" fill-rule="evenodd" fill-opacity="1" stroke="#000000" stroke-opacity="1" stroke-width="3.2"/>
<circle clip-path="url(#clip222)" cx="1639.94" cy="1270.74" r="14.4" fill="#e26f46" fill-rule="evenodd" fill-opacity="1" stroke="#000000" stroke-opacity="1" stroke-width="3.2"/>
<circle clip-path="url(#clip222)" cx="1660.3" cy="1359.88" r="14.4" fill="#e26f46" fill-rule="evenodd" fill-opacity="1" stroke="#000000" stroke-opacity="1" stroke-width="3.2"/>
<circle clip-path="url(#clip222)" cx="1680.67" cy="1270.74" r="14.4" fill="#e26f46" fill-rule="evenodd" fill-opacity="1" stroke="#000000" stroke-opacity="1" stroke-width="3.2"/>
<circle clip-path="url(#clip222)" cx="1701.04" cy="1181.61" r="14.4" fill="#e26f46" fill-rule="evenodd" fill-opacity="1" stroke="#000000" stroke-opacity="1" stroke-width="3.2"/>
<circle clip-path="url(#clip222)" cx="1721.4" cy="1270.74" r="14.4" fill="#e26f46" fill-rule="evenodd" fill-opacity="1" stroke="#000000" stroke-opacity="1" stroke-width="3.2"/>
<circle clip-path="url(#clip222)" cx="1741.77" cy="1359.88" r="14.4" fill="#e26f46" fill-rule="evenodd" fill-opacity="1" stroke="#000000" stroke-opacity="1" stroke-width="3.2"/>
<circle clip-path="url(#clip222)" cx="1762.14" cy="1270.74" r="14.4" fill="#e26f46" fill-rule="evenodd" fill-opacity="1" stroke="#000000" stroke-opacity="1" stroke-width="3.2"/>
<circle clip-path="url(#clip222)" cx="1782.5" cy="1181.61" r="14.4" fill="#e26f46" fill-rule="evenodd" fill-opacity="1" stroke="#000000" stroke-opacity="1" stroke-width="3.2"/>
<circle clip-path="url(#clip222)" cx="1802.87" cy="1270.74" r="14.4" fill="#e26f46" fill-rule="evenodd" fill-opacity="1" stroke="#000000" stroke-opacity="1" stroke-width="3.2"/>
<circle clip-path="url(#clip222)" cx="1823.23" cy="1181.61" r="14.4" fill="#e26f46" fill-rule="evenodd" fill-opacity="1" stroke="#000000" stroke-opacity="1" stroke-width="3.2"/>
<circle clip-path="url(#clip222)" cx="1843.6" cy="1092.48" r="14.4" fill="#e26f46" fill-rule="evenodd" fill-opacity="1" stroke="#000000" stroke-opacity="1" stroke-width="3.2"/>
<circle clip-path="url(#clip222)" cx="1863.97" cy="1003.34" r="14.4" fill="#e26f46" fill-rule="evenodd" fill-opacity="1" stroke="#000000" stroke-opacity="1" stroke-width="3.2"/>
<circle clip-path="url(#clip222)" cx="1884.33" cy="914.21" r="14.4" fill="#e26f46" fill-rule="evenodd" fill-opacity="1" stroke="#000000" stroke-opacity="1" stroke-width="3.2"/>
<circle clip-path="url(#clip222)" cx="1904.7" cy="825.077" r="14.4" fill="#e26f46" fill-rule="evenodd" fill-opacity="1" stroke="#000000" stroke-opacity="1" stroke-width="3.2"/>
<circle clip-path="url(#clip222)" cx="1925.07" cy="914.21" r="14.4" fill="#e26f46" fill-rule="evenodd" fill-opacity="1" stroke="#000000" stroke-opacity="1" stroke-width="3.2"/>
<circle clip-path="url(#clip222)" cx="1945.43" cy="1003.34" r="14.4" fill="#e26f46" fill-rule="evenodd" fill-opacity="1" stroke="#000000" stroke-opacity="1" stroke-width="3.2"/>
<circle clip-path="url(#clip222)" cx="1965.8" cy="914.21" r="14.4" fill="#e26f46" fill-rule="evenodd" fill-opacity="1" stroke="#000000" stroke-opacity="1" stroke-width="3.2"/>
<circle clip-path="url(#clip222)" cx="1986.16" cy="1003.34" r="14.4" fill="#e26f46" fill-rule="evenodd" fill-opacity="1" stroke="#000000" stroke-opacity="1" stroke-width="3.2"/>
<circle clip-path="url(#clip222)" cx="2006.53" cy="1092.48" r="14.4" fill="#e26f46" fill-rule="evenodd" fill-opacity="1" stroke="#000000" stroke-opacity="1" stroke-width="3.2"/>
<circle clip-path="url(#clip222)" cx="2026.9" cy="1003.34" r="14.4" fill="#e26f46" fill-rule="evenodd" fill-opacity="1" stroke="#000000" stroke-opacity="1" stroke-width="3.2"/>
<circle clip-path="url(#clip222)" cx="2047.26" cy="914.21" r="14.4" fill="#e26f46" fill-rule="evenodd" fill-opacity="1" stroke="#000000" stroke-opacity="1" stroke-width="3.2"/>
<circle clip-path="url(#clip222)" cx="2067.63" cy="1003.34" r="14.4" fill="#e26f46" fill-rule="evenodd" fill-opacity="1" stroke="#000000" stroke-opacity="1" stroke-width="3.2"/>
<circle clip-path="url(#clip222)" cx="2087.99" cy="1092.48" r="14.4" fill="#e26f46" fill-rule="evenodd" fill-opacity="1" stroke="#000000" stroke-opacity="1" stroke-width="3.2"/>
<circle clip-path="url(#clip222)" cx="2108.36" cy="1181.61" r="14.4" fill="#e26f46" fill-rule="evenodd" fill-opacity="1" stroke="#000000" stroke-opacity="1" stroke-width="3.2"/>
<circle clip-path="url(#clip222)" cx="2128.73" cy="1270.74" r="14.4" fill="#e26f46" fill-rule="evenodd" fill-opacity="1" stroke="#000000" stroke-opacity="1" stroke-width="3.2"/>
<circle clip-path="url(#clip222)" cx="2149.09" cy="1359.88" r="14.4" fill="#e26f46" fill-rule="evenodd" fill-opacity="1" stroke="#000000" stroke-opacity="1" stroke-width="3.2"/>
<circle clip-path="url(#clip222)" cx="2169.46" cy="1449.01" r="14.4" fill="#e26f46" fill-rule="evenodd" fill-opacity="1" stroke="#000000" stroke-opacity="1" stroke-width="3.2"/>
<circle clip-path="url(#clip222)" cx="2189.83" cy="1359.88" r="14.4" fill="#e26f46" fill-rule="evenodd" fill-opacity="1" stroke="#000000" stroke-opacity="1" stroke-width="3.2"/>
<circle clip-path="url(#clip222)" cx="2210.19" cy="1270.74" r="14.4" fill="#e26f46" fill-rule="evenodd" fill-opacity="1" stroke="#000000" stroke-opacity="1" stroke-width="3.2"/>
<circle clip-path="url(#clip222)" cx="2230.56" cy="1181.61" r="14.4" fill="#e26f46" fill-rule="evenodd" fill-opacity="1" stroke="#000000" stroke-opacity="1" stroke-width="3.2"/>
<circle clip-path="url(#clip222)" cx="2250.92" cy="1092.48" r="14.4" fill="#e26f46" fill-rule="evenodd" fill-opacity="1" stroke="#000000" stroke-opacity="1" stroke-width="3.2"/>
<circle clip-path="url(#clip222)" cx="2271.29" cy="1003.34" r="14.4" fill="#e26f46" fill-rule="evenodd" fill-opacity="1" stroke="#000000" stroke-opacity="1" stroke-width="3.2"/>
<circle clip-path="url(#clip222)" cx="2291.66" cy="914.21" r="14.4" fill="#e26f46" fill-rule="evenodd" fill-opacity="1" stroke="#000000" stroke-opacity="1" stroke-width="3.2"/>
<path clip-path="url(#clip220)" d="M2000.48 311.477 L2280.8 311.477 L2280.8 207.797 L2000.48 207.797  Z" fill="#ffffff" fill-rule="evenodd" fill-opacity="1"/>
<polyline clip-path="url(#clip220)" style="stroke:#000000; stroke-linecap:round; stroke-linejoin:round; stroke-width:4; stroke-opacity:1; fill:none" points="2000.48,311.477 2280.8,311.477 2280.8,207.797 2000.48,207.797 2000.48,311.477 "/>
<circle clip-path="url(#clip220)" cx="2096.43" cy="259.637" r="20.48" fill="#e26f46" fill-rule="evenodd" fill-opacity="1" stroke="#000000" stroke-opacity="1" stroke-width="4.55111"/>
<path clip-path="url(#clip220)" d="M2231.91 236.528 Q2231.91 236.95 2231.75 237.184 Q2231.61 237.395 2231.45 237.442 Q2231.28 237.465 2230.86 237.488 Q2227.51 237.652 2224.77 239.924 Q2224.09 240.51 2222.38 242.337 Q2220.7 244.164 2218.45 246.6 Q2216.22 249.036 2214.93 250.347 L2221.12 265.15 Q2221.37 265.736 2221.47 265.993 Q2221.59 266.228 2221.82 266.532 Q2222.08 266.837 2222.26 266.93 Q2222.48 267.024 2222.92 267.141 Q2223.39 267.235 2223.86 267.258 Q2224.35 267.258 2225.24 267.282 Q2225.52 267.282 2225.64 267.305 Q2225.78 267.305 2225.94 267.446 Q2226.11 267.563 2226.11 267.844 Q2226.11 268.265 2225.92 268.5 Q2225.75 268.71 2225.59 268.734 Q2225.45 268.757 2225.19 268.757 Q2224.58 268.757 2222.52 268.687 Q2220.46 268.617 2219.88 268.617 L2213.83 268.757 Q2213.11 268.757 2213.11 268.172 Q2213.11 267.867 2213.15 267.703 Q2213.22 267.516 2213.39 267.446 Q2213.55 267.352 2213.67 267.329 Q2213.79 267.305 2214.07 267.282 Q2214.93 267.188 2215.59 266.93 Q2216.27 266.649 2216.55 266.368 Q2216.85 266.087 2216.85 265.876 L2216.62 265.197 L2211.77 253.744 L2207.44 258.451 L2202.54 263.628 Q2201.25 265.01 2201.25 265.783 Q2201.25 267.071 2203.18 267.282 Q2203.76 267.329 2203.76 267.797 Q2203.76 268.242 2203.57 268.476 Q2203.41 268.687 2203.25 268.734 Q2203.11 268.757 2202.89 268.757 Q2202.03 268.757 2200.2 268.687 Q2198.4 268.617 2197.51 268.617 Q2196.76 268.617 2195.24 268.687 Q2193.71 268.757 2193.01 268.757 Q2192.73 268.757 2192.57 268.617 Q2192.4 268.476 2192.4 268.336 L2192.38 268.219 Q2192.38 267.891 2192.42 267.703 Q2192.49 267.516 2192.68 267.422 Q2192.89 267.329 2192.99 267.329 Q2193.08 267.305 2193.43 267.282 Q2195.42 267.165 2197.11 266.392 Q2198.82 265.619 2200.48 263.815 Q2200.62 263.698 2200.79 263.558 Q2200.97 263.417 2201.11 263.3 L2211.23 252.408 L2205.56 239.011 Q2205.31 238.402 2205.07 238.144 Q2204.84 237.863 2204.11 237.676 Q2203.39 237.488 2201.98 237.488 Q2201.58 237.488 2201.4 237.465 Q2201.21 237.442 2201.04 237.324 Q2200.88 237.207 2200.88 236.95 Q2200.88 236.505 2201.04 236.294 Q2201.23 236.06 2201.37 236.036 Q2201.54 235.989 2201.75 235.989 Q2202.33 235.989 2204.42 236.06 Q2206.5 236.13 2207.11 236.13 Q2208.12 236.13 2210.13 236.06 Q2212.17 235.989 2213.15 235.989 Q2213.88 235.989 2213.88 236.575 Q2213.88 236.95 2213.72 237.16 Q2213.55 237.371 2213.39 237.418 Q2213.22 237.465 2212.92 237.488 Q2212.01 237.582 2211.3 237.887 Q2210.62 238.168 2210.34 238.449 Q2210.09 238.706 2210.09 238.87 L2210.32 239.503 L2214.35 249.036 L2222.12 240.697 Q2223.04 239.667 2223.04 238.964 Q2223.04 237.699 2221.12 237.488 Q2220.53 237.395 2220.53 236.95 Q2220.53 236.505 2220.72 236.294 Q2220.91 236.06 2221.05 236.036 Q2221.21 235.989 2221.44 235.989 Q2222.31 235.989 2224.09 236.06 Q2225.9 236.13 2226.79 236.13 Q2227.53 236.13 2229.06 236.06 Q2230.58 235.989 2231.28 235.989 Q2231.56 235.989 2231.73 236.13 Q2231.89 236.247 2231.89 236.388 L2231.91 236.528 Z" fill="#000000" fill-rule="nonzero" fill-opacity="1" /><path clip-path="url(#clip220)" d="M2251.84 269.875 Q2251.84 270.809 2251.26 271.367 Q2250.71 271.924 2250 271.924 Q2249.38 271.924 2249.05 271.563 Q2248.72 271.203 2248.72 270.744 Q2248.72 270.547 2248.8 270.301 Q2248.89 270.039 2249.07 269.727 Q2249.26 269.416 2249.67 269.186 Q2250.08 268.956 2250.64 268.924 Q2250.53 268.809 2250.49 268.792 Q2250.25 268.596 2249.79 268.53 Q2249.72 268.497 2249.49 268.497 Q2248.36 268.497 2247.21 269.334 Q2246.08 270.153 2244.69 271.711 Q2242.93 273.531 2241.8 274.203 Q2246.77 274.859 2246.77 277.728 Q2246.77 278.204 2246.64 278.777 Q2246.38 279.86 2246.38 280.647 Q2246.38 282.221 2247.44 282.221 Q2248.48 282.221 2249.13 281.171 Q2249.8 280.122 2250.36 278.072 Q2250.44 277.695 2250.53 277.581 Q2250.61 277.466 2250.84 277.466 Q2251.25 277.466 2251.25 277.794 Q2250.87 279.712 2250.03 281.188 Q2248.97 282.975 2247.38 282.975 Q2246.05 282.975 2245.16 282.057 Q2244.3 281.122 2244.3 279.646 Q2244.3 279.286 2244.43 278.466 Q2244.52 278.138 2244.52 277.761 Q2244.52 276.99 2244.1 276.416 Q2243.67 275.826 2242.98 275.531 Q2242.29 275.236 2241.72 275.105 Q2241.16 274.957 2240.62 274.908 Q2238.98 281.843 2238.75 282.27 Q2238.61 282.565 2238.28 282.762 Q2237.95 282.975 2237.61 282.975 Q2237.28 282.975 2236.95 282.745 Q2236.64 282.532 2236.64 282.024 Q2236.64 281.761 2236.77 281.286 L2241.64 261.939 L2241.74 261.283 Q2241.74 261.086 2241.66 260.988 Q2241.59 260.873 2241.2 260.791 Q2240.82 260.709 2240.07 260.709 Q2239.75 260.709 2239.61 260.693 Q2239.47 260.677 2239.36 260.595 Q2239.25 260.496 2239.25 260.299 Q2239.25 260.021 2239.36 259.873 Q2239.49 259.709 2239.59 259.676 Q2239.69 259.644 2239.88 259.627 Q2240.16 259.611 2241.1 259.529 Q2242.03 259.431 2242.84 259.365 Q2243.64 259.299 2243.98 259.299 Q2244.18 259.299 2244.28 259.398 Q2244.39 259.48 2244.41 259.578 L2244.43 259.66 L2240.93 273.826 Q2242.38 273.252 2244.66 270.711 Q2247.3 267.76 2249.56 267.76 Q2250.62 267.76 2251.23 268.415 Q2251.84 269.055 2251.84 269.875 Z" fill="#000000" fill-rule="nonzero" fill-opacity="1" /></svg>
