<?xml version="1.0" encoding="utf-8"?>
<svg xmlns="http://www.w3.org/2000/svg" xmlns:xlink="http://www.w3.org/1999/xlink" width="600" height="400" viewBox="0 0 2400 1600">
<defs>
  <clipPath id="clip300">
    <rect x="0" y="0" width="2400" height="1600"/>
  </clipPath>
</defs>
<path clip-path="url(#clip300)" d="M0 1600 L2400 1600 L2400 0 L0 0  Z" fill="#ffffff" fill-rule="evenodd" fill-opacity="1"/>
<defs>
  <clipPath id="clip301">
    <rect x="480" y="0" width="1681" height="1600"/>
  </clipPath>
</defs>
<path clip-path="url(#clip300)" d="M178.867 1486.45 L2352.76 1486.45 L2352.76 163.705 L178.867 163.705  Z" fill="#ffffff" fill-rule="evenodd" fill-opacity="1"/>
<defs>
  <clipPath id="clip302">
    <rect x="178" y="163" width="2175" height="1324"/>
  </clipPath>
</defs>
<polyline clip-path="url(#clip302)" style="stroke:#000000; stroke-linecap:round; stroke-linejoin:round; stroke-width:2; stroke-opacity:0.1; fill:none" points="219.676,1486.45 219.676,163.705 "/>
<polyline clip-path="url(#clip302)" style="stroke:#000000; stroke-linecap:round; stroke-linejoin:round; stroke-width:2; stroke-opacity:0.1; fill:none" points="737.565,1486.45 737.565,163.705 "/>
<polyline clip-path="url(#clip302)" style="stroke:#000000; stroke-linecap:round; stroke-linejoin:round; stroke-width:2; stroke-opacity:0.1; fill:none" points="1255.45,1486.45 1255.45,163.705 "/>
<polyline clip-path="url(#clip302)" style="stroke:#000000; stroke-linecap:round; stroke-linejoin:round; stroke-width:2; stroke-opacity:0.1; fill:none" points="1773.34,1486.45 1773.34,163.705 "/>
<polyline clip-path="url(#clip302)" style="stroke:#000000; stroke-linecap:round; stroke-linejoin:round; stroke-width:2; stroke-opacity:0.1; fill:none" points="2291.23,1486.45 2291.23,163.705 "/>
<polyline clip-path="url(#clip300)" style="stroke:#000000; stroke-linecap:round; stroke-linejoin:round; stroke-width:4; stroke-opacity:1; fill:none" points="178.867,1486.45 2352.76,1486.45 "/>
<polyline clip-path="url(#clip300)" style="stroke:#000000; stroke-linecap:round; stroke-linejoin:round; stroke-width:4; stroke-opacity:1; fill:none" points="219.676,1486.45 219.676,1467.55 "/>
<polyline clip-path="url(#clip300)" style="stroke:#000000; stroke-linecap:round; stroke-linejoin:round; stroke-width:4; stroke-opacity:1; fill:none" points="737.565,1486.45 737.565,1467.55 "/>
<polyline clip-path="url(#clip300)" style="stroke:#000000; stroke-linecap:round; stroke-linejoin:round; stroke-width:4; stroke-opacity:1; fill:none" points="1255.45,1486.45 1255.45,1467.55 "/>
<polyline clip-path="url(#clip300)" style="stroke:#000000; stroke-linecap:round; stroke-linejoin:round; stroke-width:4; stroke-opacity:1; fill:none" points="1773.34,1486.45 1773.34,1467.55 "/>
<polyline clip-path="url(#clip300)" style="stroke:#000000; stroke-linecap:round; stroke-linejoin:round; stroke-width:4; stroke-opacity:1; fill:none" points="2291.23,1486.45 2291.23,1467.55 "/>
<path clip-path="url(#clip300)" d="M219.676 1517.37 Q216.065 1517.37 214.236 1520.93 Q212.431 1524.47 212.431 1531.6 Q212.431 1538.71 214.236 1542.27 Q216.065 1545.82 219.676 1545.82 Q223.31 1545.82 225.116 1542.27 Q226.945 1538.71 226.945 1531.6 Q226.945 1524.47 225.116 1520.93 Q223.31 1517.37 219.676 1517.37 M219.676 1513.66 Q225.486 1513.66 228.542 1518.27 Q231.621 1522.85 231.621 1531.6 Q231.621 1540.33 228.542 1544.94 Q225.486 1549.52 219.676 1549.52 Q213.866 1549.52 210.787 1544.94 Q207.732 1540.33 207.732 1531.6 Q207.732 1522.85 210.787 1518.27 Q213.866 1513.66 219.676 1513.66 Z" fill="#000000" fill-rule="nonzero" fill-opacity="1" /><path clip-path="url(#clip300)" d="M716.836 1544.91 L733.155 1544.91 L733.155 1548.85 L711.211 1548.85 L711.211 1544.91 Q713.873 1542.16 718.456 1537.53 Q723.063 1532.88 724.243 1531.53 Q726.489 1529.01 727.368 1527.27 Q728.271 1525.51 728.271 1523.82 Q728.271 1521.07 726.327 1519.33 Q724.405 1517.6 721.303 1517.6 Q719.104 1517.6 716.651 1518.36 Q714.22 1519.13 711.442 1520.68 L711.442 1515.95 Q714.266 1514.82 716.72 1514.24 Q719.174 1513.66 721.211 1513.66 Q726.581 1513.66 729.776 1516.35 Q732.97 1519.03 732.97 1523.52 Q732.97 1525.65 732.16 1527.57 Q731.373 1529.47 729.266 1532.07 Q728.688 1532.74 725.586 1535.95 Q722.484 1539.15 716.836 1544.91 Z" fill="#000000" fill-rule="nonzero" fill-opacity="1" /><path clip-path="url(#clip300)" d="M743.016 1514.29 L761.373 1514.29 L761.373 1518.22 L747.299 1518.22 L747.299 1526.7 Q748.317 1526.35 749.336 1526.19 Q750.354 1526 751.373 1526 Q757.16 1526 760.539 1529.17 Q763.919 1532.34 763.919 1537.76 Q763.919 1543.34 760.447 1546.44 Q756.974 1549.52 750.655 1549.52 Q748.479 1549.52 746.211 1549.15 Q743.965 1548.78 741.558 1548.04 L741.558 1543.34 Q743.641 1544.47 745.863 1545.03 Q748.086 1545.58 750.562 1545.58 Q754.567 1545.58 756.905 1543.48 Q759.243 1541.37 759.243 1537.76 Q759.243 1534.15 756.905 1532.04 Q754.567 1529.94 750.562 1529.94 Q748.688 1529.94 746.813 1530.35 Q744.961 1530.77 743.016 1531.65 L743.016 1514.29 Z" fill="#000000" fill-rule="nonzero" fill-opacity="1" /><path clip-path="url(#clip300)" d="M1230.15 1514.29 L1248.51 1514.29 L1248.51 1518.22 L1234.44 1518.22 L1234.44 1526.7 Q1235.45 1526.35 1236.47 1526.19 Q1237.49 1526 1238.51 1526 Q1244.3 1526 1247.68 1529.17 Q1251.06 1532.34 1251.06 1537.76 Q1251.06 1543.34 1247.58 1546.44 Q1244.11 1549.52 1237.79 1549.52 Q1235.62 1549.52 1233.35 1549.15 Q1231.1 1548.78 1228.69 1548.04 L1228.69 1543.34 Q1230.78 1544.47 1233 1545.03 Q1235.22 1545.58 1237.7 1545.58 Q1241.7 1545.58 1244.04 1543.48 Q1246.38 1541.37 1246.38 1537.76 Q1246.38 1534.15 1244.04 1532.04 Q1241.7 1529.94 1237.7 1529.94 Q1235.82 1529.94 1233.95 1530.35 Q1232.1 1530.77 1230.15 1531.65 L1230.15 1514.29 Z" fill="#000000" fill-rule="nonzero" fill-opacity="1" /><path clip-path="url(#clip300)" d="M1270.27 1517.37 Q1266.66 1517.37 1264.83 1520.93 Q1263.02 1524.47 1263.02 1531.6 Q1263.02 1538.71 1264.83 1542.27 Q1266.66 1545.82 1270.27 1545.82 Q1273.9 1545.82 1275.71 1542.27 Q1277.54 1538.71 1277.54 1531.6 Q1277.54 1524.47 1275.71 1520.93 Q1273.9 1517.37 1270.27 1517.37 M1270.27 1513.66 Q1276.08 1513.66 1279.13 1518.27 Q1282.21 1522.85 1282.21 1531.6 Q1282.21 1540.33 1279.13 1544.94 Q1276.08 1549.52 1270.27 1549.52 Q1264.46 1549.52 1261.38 1544.94 Q1258.32 1540.33 1258.32 1531.6 Q1258.32 1522.85 1261.38 1518.27 Q1264.46 1513.66 1270.27 1513.66 Z" fill="#000000" fill-rule="nonzero" fill-opacity="1" /><path clip-path="url(#clip300)" d="M1747.2 1514.29 L1769.42 1514.29 L1769.42 1516.28 L1756.87 1548.85 L1751.99 1548.85 L1763.79 1518.22 L1747.2 1518.22 L1747.2 1514.29 Z" fill="#000000" fill-rule="nonzero" fill-opacity="1" /><path clip-path="url(#clip300)" d="M1778.59 1514.29 L1796.94 1514.29 L1796.94 1518.22 L1782.87 1518.22 L1782.87 1526.7 Q1783.89 1526.35 1784.9 1526.19 Q1785.92 1526 1786.94 1526 Q1792.73 1526 1796.11 1529.17 Q1799.49 1532.34 1799.49 1537.76 Q1799.49 1543.34 1796.02 1546.44 Q1792.54 1549.52 1786.22 1549.52 Q1784.05 1549.52 1781.78 1549.15 Q1779.53 1548.78 1777.13 1548.04 L1777.13 1543.34 Q1779.21 1544.47 1781.43 1545.03 Q1783.65 1545.58 1786.13 1545.58 Q1790.14 1545.58 1792.47 1543.48 Q1794.81 1541.37 1794.81 1537.76 Q1794.81 1534.15 1792.47 1532.04 Q1790.14 1529.94 1786.13 1529.94 Q1784.26 1529.94 1782.38 1530.35 Q1780.53 1530.77 1778.59 1531.65 L1778.59 1514.29 Z" fill="#000000" fill-rule="nonzero" fill-opacity="1" /><path clip-path="url(#clip300)" d="M2250.84 1544.91 L2258.48 1544.91 L2258.48 1518.55 L2250.17 1520.21 L2250.17 1515.95 L2258.43 1514.29 L2263.11 1514.29 L2263.11 1544.91 L2270.74 1544.91 L2270.74 1548.85 L2250.84 1548.85 L2250.84 1544.91 Z" fill="#000000" fill-rule="nonzero" fill-opacity="1" /><path clip-path="url(#clip300)" d="M2290.19 1517.37 Q2286.58 1517.37 2284.75 1520.93 Q2282.94 1524.47 2282.94 1531.6 Q2282.94 1538.71 2284.75 1542.27 Q2286.58 1545.82 2290.19 1545.82 Q2293.82 1545.82 2295.63 1542.27 Q2297.46 1538.71 2297.46 1531.6 Q2297.46 1524.47 2295.63 1520.93 Q2293.82 1517.37 2290.19 1517.37 M2290.19 1513.66 Q2296 1513.66 2299.05 1518.27 Q2302.13 1522.85 2302.13 1531.6 Q2302.13 1540.33 2299.05 1544.94 Q2296 1549.52 2290.19 1549.52 Q2284.38 1549.52 2281.3 1544.94 Q2278.24 1540.33 2278.24 1531.6 Q2278.24 1522.85 2281.3 1518.27 Q2284.38 1513.66 2290.19 1513.66 Z" fill="#000000" fill-rule="nonzero" fill-opacity="1" /><path clip-path="url(#clip300)" d="M2320.35 1517.37 Q2316.74 1517.37 2314.91 1520.93 Q2313.11 1524.47 2313.11 1531.6 Q2313.11 1538.71 2314.91 1542.27 Q2316.74 1545.82 2320.35 1545.82 Q2323.99 1545.82 2325.79 1542.27 Q2327.62 1538.71 2327.62 1531.6 Q2327.62 1524.47 2325.79 1520.93 Q2323.99 1517.37 2320.35 1517.37 M2320.35 1513.66 Q2326.16 1513.66 2329.22 1518.27 Q2332.3 1522.85 2332.3 1531.6 Q2332.3 1540.33 2329.22 1544.94 Q2326.16 1549.52 2320.35 1549.52 Q2314.54 1549.52 2311.46 1544.94 Q2308.41 1540.33 2308.41 1531.6 Q2308.41 1522.85 2311.46 1518.27 Q2314.54 1513.66 2320.35 1513.66 Z" fill="#000000" fill-rule="nonzero" fill-opacity="1" /><polyline clip-path="url(#clip302)" style="stroke:#000000; stroke-linecap:round; stroke-linejoin:round; stroke-width:2; stroke-opacity:0.1; fill:none" points="178.867,1375.61 2352.76,1375.61 "/>
<polyline clip-path="url(#clip302)" style="stroke:#000000; stroke-linecap:round; stroke-linejoin:round; stroke-width:2; stroke-opacity:0.1; fill:none" points="178.867,1008.59 2352.76,1008.59 "/>
<polyline clip-path="url(#clip302)" style="stroke:#000000; stroke-linecap:round; stroke-linejoin:round; stroke-width:2; stroke-opacity:0.1; fill:none" points="178.867,641.566 2352.76,641.566 "/>
<polyline clip-path="url(#clip302)" style="stroke:#000000; stroke-linecap:round; stroke-linejoin:round; stroke-width:2; stroke-opacity:0.1; fill:none" points="178.867,274.546 2352.76,274.546 "/>
<polyline clip-path="url(#clip300)" style="stroke:#000000; stroke-linecap:round; stroke-linejoin:round; stroke-width:4; stroke-opacity:1; fill:none" points="178.867,1486.45 178.867,163.705 "/>
<polyline clip-path="url(#clip300)" style="stroke:#000000; stroke-linecap:round; stroke-linejoin:round; stroke-width:4; stroke-opacity:1; fill:none" points="178.867,1375.61 197.764,1375.61 "/>
<polyline clip-path="url(#clip300)" style="stroke:#000000; stroke-linecap:round; stroke-linejoin:round; stroke-width:4; stroke-opacity:1; fill:none" points="178.867,1008.59 197.764,1008.59 "/>
<polyline clip-path="url(#clip300)" style="stroke:#000000; stroke-linecap:round; stroke-linejoin:round; stroke-width:4; stroke-opacity:1; fill:none" points="178.867,641.566 197.764,641.566 "/>
<polyline clip-path="url(#clip300)" style="stroke:#000000; stroke-linecap:round; stroke-linejoin:round; stroke-width:4; stroke-opacity:1; fill:none" points="178.867,274.546 197.764,274.546 "/>
<path clip-path="url(#clip300)" d="M51.9875 1376.06 L81.6633 1376.06 L81.6633 1379.99 L51.9875 1379.99 L51.9875 1376.06 Z" fill="#000000" fill-rule="nonzero" fill-opacity="1" /><path clip-path="url(#clip300)" d="M92.566 1388.95 L100.205 1388.95 L100.205 1362.59 L91.8947 1364.25 L91.8947 1359.99 L100.159 1358.33 L104.834 1358.33 L104.834 1388.95 L112.473 1388.95 L112.473 1392.89 L92.566 1392.89 L92.566 1388.95 Z" fill="#000000" fill-rule="nonzero" fill-opacity="1" /><path clip-path="url(#clip300)" d="M121.964 1358.33 L140.32 1358.33 L140.32 1362.26 L126.246 1362.26 L126.246 1370.73 Q127.265 1370.39 128.283 1370.23 Q129.302 1370.04 130.32 1370.04 Q136.107 1370.04 139.487 1373.21 Q142.867 1376.38 142.867 1381.8 Q142.867 1387.38 139.394 1390.48 Q135.922 1393.56 129.603 1393.56 Q127.427 1393.56 125.158 1393.19 Q122.913 1392.82 120.506 1392.08 L120.506 1387.38 Q122.589 1388.51 124.811 1389.07 Q127.033 1389.62 129.51 1389.62 Q133.515 1389.62 135.853 1387.52 Q138.191 1385.41 138.191 1381.8 Q138.191 1378.19 135.853 1376.08 Q133.515 1373.98 129.51 1373.98 Q127.635 1373.98 125.76 1374.39 Q123.908 1374.81 121.964 1375.69 L121.964 1358.33 Z" fill="#000000" fill-rule="nonzero" fill-opacity="1" /><path clip-path="url(#clip300)" d="M50.9921 1009.04 L80.6679 1009.04 L80.6679 1012.97 L50.9921 1012.97 L50.9921 1009.04 Z" fill="#000000" fill-rule="nonzero" fill-opacity="1" /><path clip-path="url(#clip300)" d="M91.5706 1021.93 L99.2095 1021.93 L99.2095 995.566 L90.8993 997.233 L90.8993 992.974 L99.1632 991.307 L103.839 991.307 L103.839 1021.93 L111.478 1021.93 L111.478 1025.87 L91.5706 1025.87 L91.5706 1021.93 Z" fill="#000000" fill-rule="nonzero" fill-opacity="1" /><path clip-path="url(#clip300)" d="M130.922 994.386 Q127.311 994.386 125.482 997.95 Q123.677 1001.49 123.677 1008.62 Q123.677 1015.73 125.482 1019.29 Q127.311 1022.83 130.922 1022.83 Q134.556 1022.83 136.362 1019.29 Q138.191 1015.73 138.191 1008.62 Q138.191 1001.49 136.362 997.95 Q134.556 994.386 130.922 994.386 M130.922 990.682 Q136.732 990.682 139.788 995.288 Q142.867 999.872 142.867 1008.62 Q142.867 1017.35 139.788 1021.95 Q136.732 1026.54 130.922 1026.54 Q125.112 1026.54 122.033 1021.95 Q118.978 1017.35 118.978 1008.62 Q118.978 999.872 122.033 995.288 Q125.112 990.682 130.922 990.682 Z" fill="#000000" fill-rule="nonzero" fill-opacity="1" /><path clip-path="url(#clip300)" d="M82.1494 642.018 L111.825 642.018 L111.825 645.953 L82.1494 645.953 L82.1494 642.018 Z" fill="#000000" fill-rule="nonzero" fill-opacity="1" /><path clip-path="url(#clip300)" d="M121.964 624.286 L140.32 624.286 L140.32 628.222 L126.246 628.222 L126.246 636.694 Q127.265 636.346 128.283 636.184 Q129.302 635.999 130.32 635.999 Q136.107 635.999 139.487 639.171 Q142.867 642.342 142.867 647.758 Q142.867 653.337 139.394 656.439 Q135.922 659.518 129.603 659.518 Q127.427 659.518 125.158 659.147 Q122.913 658.777 120.506 658.036 L120.506 653.337 Q122.589 654.471 124.811 655.027 Q127.033 655.582 129.51 655.582 Q133.515 655.582 135.853 653.476 Q138.191 651.37 138.191 647.758 Q138.191 644.147 135.853 642.041 Q133.515 639.934 129.51 639.934 Q127.635 639.934 125.76 640.351 Q123.908 640.768 121.964 641.647 L121.964 624.286 Z" fill="#000000" fill-rule="nonzero" fill-opacity="1" /><path clip-path="url(#clip300)" d="M130.922 260.344 Q127.311 260.344 125.482 263.909 Q123.677 267.451 123.677 274.58 Q123.677 281.687 125.482 285.252 Q127.311 288.793 130.922 288.793 Q134.556 288.793 136.362 285.252 Q138.191 281.687 138.191 274.58 Q138.191 267.451 136.362 263.909 Q134.556 260.344 130.922 260.344 M130.922 256.641 Q136.732 256.641 139.788 261.247 Q142.867 265.83 142.867 274.58 Q142.867 283.307 139.788 287.914 Q136.732 292.497 130.922 292.497 Q125.112 292.497 122.033 287.914 Q118.978 283.307 118.978 274.58 Q118.978 265.83 122.033 261.247 Q125.112 256.641 130.922 256.641 Z" fill="#000000" fill-rule="nonzero" fill-opacity="1" /><path clip-path="url(#clip300)" d="M265.417 57.6678 L265.417 80.3933 L275.706 80.3933 Q281.418 80.3933 284.537 77.4362 Q287.656 74.479 287.656 69.0103 Q287.656 63.5821 284.537 60.6249 Q281.418 57.6678 275.706 57.6678 L265.417 57.6678 M257.234 50.9432 L275.706 50.9432 Q285.874 50.9432 291.059 55.5613 Q296.284 60.1388 296.284 69.0103 Q296.284 77.9628 291.059 82.5403 Q285.874 87.1178 275.706 87.1178 L265.417 87.1178 L265.417 111.423 L257.234 111.423 L257.234 50.9432 Z" fill="#000000" fill-rule="nonzero" fill-opacity="1" /><path clip-path="url(#clip300)" d="M331.77 73.0207 Q330.515 72.2915 329.016 71.9674 Q327.557 71.6029 325.775 71.6029 Q319.456 71.6029 316.053 75.7348 Q312.691 79.8262 312.691 87.5229 L312.691 111.423 L305.196 111.423 L305.196 66.0531 L312.691 66.0531 L312.691 73.1017 Q315.04 68.9698 318.807 66.9848 Q322.575 64.9594 327.962 64.9594 Q328.732 64.9594 329.664 65.0809 Q330.596 65.1619 331.73 65.3645 L331.77 73.0207 Z" fill="#000000" fill-rule="nonzero" fill-opacity="1" /><path clip-path="url(#clip300)" d="M334.241 66.0531 L342.141 66.0531 L356.319 104.132 L370.497 66.0531 L378.396 66.0531 L361.382 111.423 L351.255 111.423 L334.241 66.0531 Z" fill="#000000" fill-rule="nonzero" fill-opacity="1" /><path clip-path="url(#clip300)" d="M388.686 66.0531 L396.139 66.0531 L396.139 111.423 L388.686 111.423 L388.686 66.0531 M388.686 48.3912 L396.139 48.3912 L396.139 57.8298 L388.686 57.8298 L388.686 48.3912 Z" fill="#000000" fill-rule="nonzero" fill-opacity="1" /><path clip-path="url(#clip300)" d="M449.449 84.0391 L449.449 111.423 L441.995 111.423 L441.995 84.2822 Q441.995 77.8413 439.484 74.641 Q436.972 71.4408 431.949 71.4408 Q425.913 71.4408 422.43 75.2892 Q418.946 79.1375 418.946 85.781 L418.946 111.423 L411.452 111.423 L411.452 48.3912 L418.946 48.3912 L418.946 73.1017 Q421.619 69.0103 425.225 66.9848 Q428.871 64.9594 433.61 64.9594 Q441.428 64.9594 445.439 69.8205 Q449.449 74.641 449.449 84.0391 Z" fill="#000000" fill-rule="nonzero" fill-opacity="1" /><path clip-path="url(#clip300)" d="M493.158 104.537 L506.526 104.537 L506.526 58.3969 L491.984 61.3136 L491.984 53.8599 L506.445 50.9432 L514.628 50.9432 L514.628 104.537 L527.996 104.537 L527.996 111.423 L493.158 111.423 L493.158 104.537 Z" fill="#000000" fill-rule="nonzero" fill-opacity="1" /><path clip-path="url(#clip300)" d="M562.024 56.331 Q555.704 56.331 552.504 62.5693 Q549.344 68.7672 549.344 81.244 Q549.344 93.6803 552.504 99.9187 Q555.704 106.117 562.024 106.117 Q568.384 106.117 571.543 99.9187 Q574.744 93.6803 574.744 81.244 Q574.744 68.7672 571.543 62.5693 Q568.384 56.331 562.024 56.331 M562.024 49.8495 Q572.192 49.8495 577.539 57.9108 Q582.926 65.9316 582.926 81.244 Q582.926 96.5159 577.539 104.577 Q572.192 112.598 562.024 112.598 Q551.856 112.598 546.468 104.577 Q541.121 96.5159 541.121 81.244 Q541.121 65.9316 546.468 57.9108 Q551.856 49.8495 562.024 49.8495 Z" fill="#000000" fill-rule="nonzero" fill-opacity="1" /><path clip-path="url(#clip300)" d="M614.807 56.331 Q608.488 56.331 605.287 62.5693 Q602.128 68.7672 602.128 81.244 Q602.128 93.6803 605.287 99.9187 Q608.488 106.117 614.807 106.117 Q621.167 106.117 624.327 99.9187 Q627.527 93.6803 627.527 81.244 Q627.527 68.7672 624.327 62.5693 Q621.167 56.331 614.807 56.331 M614.807 49.8495 Q624.975 49.8495 630.322 57.9108 Q635.71 65.9316 635.71 81.244 Q635.71 96.5159 630.322 104.577 Q624.975 112.598 614.807 112.598 Q604.639 112.598 599.252 104.577 Q593.904 96.5159 593.904 81.244 Q593.904 65.9316 599.252 57.9108 Q604.639 49.8495 614.807 49.8495 Z" fill="#000000" fill-rule="nonzero" fill-opacity="1" /><path clip-path="url(#clip300)" d="M675.125 48.3912 L682.619 48.3912 L682.619 85.619 L704.859 66.0531 L714.378 66.0531 L690.316 87.2799 L715.391 111.423 L705.669 111.423 L682.619 89.2648 L682.619 111.423 L675.125 111.423 L675.125 48.3912 Z" fill="#000000" fill-rule="nonzero" fill-opacity="1" /><path clip-path="url(#clip300)" d="M738.076 71.2788 Q732.081 71.2788 728.597 75.9778 Q725.113 80.6364 725.113 88.7787 Q725.113 96.921 728.556 101.62 Q732.04 106.279 738.076 106.279 Q744.031 106.279 747.515 101.58 Q750.998 96.8805 750.998 88.7787 Q750.998 80.7174 747.515 76.0183 Q744.031 71.2788 738.076 71.2788 M738.076 64.9594 Q747.798 64.9594 753.348 71.2788 Q758.898 77.5982 758.898 88.7787 Q758.898 99.9187 753.348 106.279 Q747.798 112.598 738.076 112.598 Q728.313 112.598 722.764 106.279 Q717.254 99.9187 717.254 88.7787 Q717.254 77.5982 722.764 71.2788 Q728.313 64.9594 738.076 64.9594 Z" fill="#000000" fill-rule="nonzero" fill-opacity="1" /><path clip-path="url(#clip300)" d="M797.543 73.0207 Q796.288 72.2915 794.789 71.9674 Q793.33 71.6029 791.548 71.6029 Q785.229 71.6029 781.826 75.7348 Q778.464 79.8262 778.464 87.5229 L778.464 111.423 L770.969 111.423 L770.969 66.0531 L778.464 66.0531 L778.464 73.1017 Q780.813 68.9698 784.58 66.9848 Q788.348 64.9594 793.735 64.9594 Q794.505 64.9594 795.437 65.0809 Q796.369 65.1619 797.503 65.3645 L797.543 73.0207 Z" fill="#000000" fill-rule="nonzero" fill-opacity="1" /><path clip-path="url(#clip300)" d="M825.981 88.6167 Q816.947 88.6167 813.463 90.6826 Q809.98 92.7486 809.98 97.7312 Q809.98 101.701 812.572 104.051 Q815.205 106.36 819.702 106.36 Q825.9 106.36 829.626 101.985 Q833.394 97.5692 833.394 90.2775 L833.394 88.6167 L825.981 88.6167 M840.847 85.538 L840.847 111.423 L833.394 111.423 L833.394 104.537 Q830.842 108.669 827.034 110.654 Q823.226 112.598 817.717 112.598 Q810.749 112.598 806.617 108.709 Q802.526 104.78 802.526 98.2173 Q802.526 90.5611 807.63 86.6722 Q812.775 82.7834 822.942 82.7834 L833.394 82.7834 L833.394 82.0542 Q833.394 76.9095 829.991 74.1144 Q826.629 71.2788 820.512 71.2788 Q816.623 71.2788 812.937 72.2105 Q809.25 73.1422 805.848 75.0056 L805.848 68.1191 Q809.939 66.5392 813.787 65.7696 Q817.636 64.9594 821.282 64.9594 Q831.125 64.9594 835.986 70.0635 Q840.847 75.1677 840.847 85.538 Z" fill="#000000" fill-rule="nonzero" fill-opacity="1" /><path clip-path="url(#clip300)" d="M855.917 48.3912 L863.411 48.3912 L863.411 85.619 L885.65 66.0531 L895.17 66.0531 L871.108 87.2799 L896.183 111.423 L886.461 111.423 L863.411 89.2648 L863.411 111.423 L855.917 111.423 L855.917 48.3912 Z" fill="#000000" fill-rule="nonzero" fill-opacity="1" /><path clip-path="url(#clip300)" d="M918.868 71.2788 Q912.873 71.2788 909.389 75.9778 Q905.905 80.6364 905.905 88.7787 Q905.905 96.921 909.348 101.62 Q912.832 106.279 918.868 106.279 Q924.823 106.279 928.306 101.58 Q931.79 96.8805 931.79 88.7787 Q931.79 80.7174 928.306 76.0183 Q924.823 71.2788 918.868 71.2788 M918.868 64.9594 Q928.59 64.9594 934.14 71.2788 Q939.69 77.5982 939.69 88.7787 Q939.69 99.9187 934.14 106.279 Q928.59 112.598 918.868 112.598 Q909.105 112.598 903.555 106.279 Q898.046 99.9187 898.046 88.7787 Q898.046 77.5982 903.555 71.2788 Q909.105 64.9594 918.868 64.9594 Z" fill="#000000" fill-rule="nonzero" fill-opacity="1" /><path clip-path="url(#clip300)" d="M946.698 66.0531 L954.597 66.0531 L968.775 104.132 L982.953 66.0531 L990.852 66.0531 L973.839 111.423 L963.711 111.423 L946.698 66.0531 Z" fill="#000000" fill-rule="nonzero" fill-opacity="1" /><path clip-path="url(#clip300)" d="M1056.44 67.3899 L1056.44 74.4385 Q1053.28 72.8181 1049.87 72.008 Q1046.47 71.1978 1042.83 71.1978 Q1037.28 71.1978 1034.48 72.8992 Q1031.73 74.6005 1031.73 78.0033 Q1031.73 80.5959 1033.71 82.0947 Q1035.7 83.553 1041.69 84.8898 L1044.24 85.457 Q1052.18 87.1583 1055.5 90.2775 Q1058.87 93.3562 1058.87 98.906 Q1058.87 105.225 1053.84 108.912 Q1048.86 112.598 1040.11 112.598 Q1036.47 112.598 1032.5 111.869 Q1028.57 111.18 1024.19 109.762 L1024.19 102.066 Q1028.32 104.213 1032.33 105.306 Q1036.34 106.36 1040.27 106.36 Q1045.54 106.36 1048.38 104.577 Q1051.21 102.754 1051.21 99.4731 Q1051.21 96.4349 1049.14 94.8145 Q1047.12 93.1942 1040.19 91.6953 L1037.6 91.0877 Q1030.67 89.6294 1027.59 86.6317 Q1024.52 83.5935 1024.52 78.3274 Q1024.52 71.9269 1029.05 68.4432 Q1033.59 64.9594 1041.93 64.9594 Q1046.07 64.9594 1049.71 65.567 Q1053.36 66.1746 1056.44 67.3899 Z" fill="#000000" fill-rule="nonzero" fill-opacity="1" /><path clip-path="url(#clip300)" d="M1070.74 48.3912 L1078.19 48.3912 L1078.19 111.423 L1070.74 111.423 L1070.74 48.3912 Z" fill="#000000" fill-rule="nonzero" fill-opacity="1" /><path clip-path="url(#clip300)" d="M1093.02 93.5183 L1093.02 66.0531 L1100.47 66.0531 L1100.47 93.2347 Q1100.47 99.6756 1102.98 102.916 Q1105.49 106.117 1110.52 106.117 Q1116.55 106.117 1120.04 102.268 Q1123.56 98.4198 1123.56 91.7764 L1123.56 66.0531 L1131.01 66.0531 L1131.01 111.423 L1123.56 111.423 L1123.56 104.456 Q1120.85 108.588 1117.24 110.613 Q1113.68 112.598 1108.94 112.598 Q1101.12 112.598 1097.07 107.737 Q1093.02 102.876 1093.02 93.5183 M1111.77 64.9594 L1111.77 64.9594 Z" fill="#000000" fill-rule="nonzero" fill-opacity="1" /><path clip-path="url(#clip300)" d="M1179.02 67.795 L1179.02 74.7626 Q1175.86 73.0207 1172.66 72.17 Q1169.5 71.2788 1166.26 71.2788 Q1159.01 71.2788 1155 75.8968 Q1150.98 80.4743 1150.98 88.7787 Q1150.98 97.083 1155 101.701 Q1159.01 106.279 1166.26 106.279 Q1169.5 106.279 1172.66 105.428 Q1175.86 104.537 1179.02 102.795 L1179.02 109.681 Q1175.9 111.14 1172.54 111.869 Q1169.21 112.598 1165.45 112.598 Q1155.2 112.598 1149.16 106.157 Q1143.13 99.7161 1143.13 88.7787 Q1143.13 77.6792 1149.2 71.3193 Q1155.32 64.9594 1165.93 64.9594 Q1169.38 64.9594 1172.66 65.6885 Q1175.94 66.3772 1179.02 67.795 M1161.84 60.3008 L1151.92 45.0694 L1157.55 45.0694 L1164.84 54.9942 L1172.13 45.0694 L1177.76 45.0694 L1167.84 60.3008 L1161.84 60.3008 Z" fill="#000000" fill-rule="nonzero" fill-opacity="1" /><path clip-path="url(#clip300)" d="M1212.6 88.6167 Q1203.57 88.6167 1200.08 90.6826 Q1196.6 92.7486 1196.6 97.7312 Q1196.6 101.701 1199.19 104.051 Q1201.82 106.36 1206.32 106.36 Q1212.52 106.36 1216.24 101.985 Q1220.01 97.5692 1220.01 90.2775 L1220.01 88.6167 L1212.6 88.6167 M1227.47 85.538 L1227.47 111.423 L1220.01 111.423 L1220.01 104.537 Q1217.46 108.669 1213.65 110.654 Q1209.84 112.598 1204.34 112.598 Q1197.37 112.598 1193.24 108.709 Q1189.14 104.78 1189.14 98.2173 Q1189.14 90.5611 1194.25 86.6722 Q1199.39 82.7834 1209.56 82.7834 L1220.01 82.7834 L1220.01 82.0542 Q1220.01 76.9095 1216.61 74.1144 Q1213.25 71.2788 1207.13 71.2788 Q1203.24 71.2788 1199.56 72.2105 Q1195.87 73.1422 1192.47 75.0056 L1192.47 68.1191 Q1196.56 66.5392 1200.41 65.7696 Q1204.25 64.9594 1207.9 64.9594 Q1217.74 64.9594 1222.6 70.0635 Q1227.47 75.1677 1227.47 85.538 Z" fill="#000000" fill-rule="nonzero" fill-opacity="1" /><path clip-path="url(#clip300)" d="M1242.82 66.0531 L1250.27 66.0531 L1250.27 112.233 Q1250.27 120.902 1246.95 124.791 Q1243.67 128.68 1236.34 128.68 L1233.5 128.68 L1233.5 122.361 L1235.49 122.361 Q1239.74 122.361 1241.28 120.376 Q1242.82 118.431 1242.82 112.233 L1242.82 66.0531 M1242.82 48.3912 L1250.27 48.3912 L1250.27 57.8298 L1242.82 57.8298 L1242.82 48.3912 Z" fill="#000000" fill-rule="nonzero" fill-opacity="1" /><path clip-path="url(#clip300)" d="M1303.58 84.0391 L1303.58 111.423 L1296.13 111.423 L1296.13 84.2822 Q1296.13 77.8413 1293.62 74.641 Q1291.11 71.4408 1286.08 71.4408 Q1280.05 71.4408 1276.56 75.2892 Q1273.08 79.1375 1273.08 85.781 L1273.08 111.423 L1265.58 111.423 L1265.58 66.0531 L1273.08 66.0531 L1273.08 73.1017 Q1275.75 69.0103 1279.36 66.9848 Q1283 64.9594 1287.74 64.9594 Q1295.56 64.9594 1299.57 69.8205 Q1303.58 74.641 1303.58 84.0391 Z" fill="#000000" fill-rule="nonzero" fill-opacity="1" /><path clip-path="url(#clip300)" d="M1357.26 86.8748 L1357.26 90.5206 L1322.99 90.5206 Q1323.47 98.2173 1327.6 102.268 Q1331.78 106.279 1339.19 106.279 Q1343.48 106.279 1347.49 105.225 Q1351.54 104.172 1355.51 102.066 L1355.51 109.114 Q1351.5 110.816 1347.29 111.707 Q1343.08 112.598 1338.74 112.598 Q1327.89 112.598 1321.53 106.279 Q1315.21 99.9592 1315.21 89.1838 Q1315.21 78.0438 1321.2 71.5218 Q1327.24 64.9594 1337.45 64.9594 Q1346.6 64.9594 1351.91 70.8737 Q1357.26 76.7475 1357.26 86.8748 M1349.8 84.6873 Q1349.72 78.5704 1346.36 74.9246 Q1343.04 71.2788 1337.53 71.2788 Q1331.29 71.2788 1327.52 74.8031 Q1323.8 78.3274 1323.23 84.7278 L1349.8 84.6873 Z" fill="#000000" fill-rule="nonzero" fill-opacity="1" /><path clip-path="url(#clip300)" d="M1399.35 88.2116 Q1399.35 80.1098 1395.98 75.6538 Q1392.66 71.1978 1386.63 71.1978 Q1380.63 71.1978 1377.27 75.6538 Q1373.95 80.1098 1373.95 88.2116 Q1373.95 96.2729 1377.27 100.729 Q1380.63 105.185 1386.63 105.185 Q1392.66 105.185 1395.98 100.729 Q1399.35 96.2729 1399.35 88.2116 M1406.8 105.792 Q1406.8 117.378 1401.65 123.009 Q1396.51 128.68 1385.9 128.68 Q1381.97 128.68 1378.48 128.072 Q1375 127.505 1371.72 126.29 L1371.72 119.039 Q1375 120.821 1378.2 121.672 Q1381.4 122.523 1384.72 122.523 Q1392.05 122.523 1395.7 118.674 Q1399.35 114.867 1399.35 107.129 L1399.35 103.443 Q1397.04 107.453 1393.43 109.438 Q1389.83 111.423 1384.8 111.423 Q1376.46 111.423 1371.35 105.063 Q1366.25 98.7034 1366.25 88.2116 Q1366.25 77.6792 1371.35 71.3193 Q1376.46 64.9594 1384.8 64.9594 Q1389.83 64.9594 1393.43 66.9443 Q1397.04 68.9293 1399.35 72.9397 L1399.35 66.0531 L1406.8 66.0531 L1406.8 105.792 Z" fill="#000000" fill-rule="nonzero" fill-opacity="1" /><path clip-path="url(#clip300)" d="M1442.77 88.6167 Q1433.74 88.6167 1430.25 90.6826 Q1426.77 92.7486 1426.77 97.7312 Q1426.77 101.701 1429.36 104.051 Q1432 106.36 1436.49 106.36 Q1442.69 106.36 1446.42 101.985 Q1450.18 97.5692 1450.18 90.2775 L1450.18 88.6167 L1442.77 88.6167 M1457.64 85.538 L1457.64 111.423 L1450.18 111.423 L1450.18 104.537 Q1447.63 108.669 1443.82 110.654 Q1440.02 112.598 1434.51 112.598 Q1427.54 112.598 1423.41 108.709 Q1419.32 104.78 1419.32 98.2173 Q1419.32 90.5611 1424.42 86.6722 Q1429.57 82.7834 1439.73 82.7834 L1450.18 82.7834 L1450.18 82.0542 Q1450.18 76.9095 1446.78 74.1144 Q1443.42 71.2788 1437.3 71.2788 Q1433.41 71.2788 1429.73 72.2105 Q1426.04 73.1422 1422.64 75.0056 L1422.64 68.1191 Q1426.73 66.5392 1430.58 65.7696 Q1434.43 64.9594 1438.07 64.9594 Q1447.92 64.9594 1452.78 70.0635 Q1457.64 75.1677 1457.64 85.538 Z" fill="#000000" fill-rule="nonzero" fill-opacity="1" /><path clip-path="url(#clip300)" d="M1528.29 67.3899 L1528.29 74.4385 Q1525.13 72.8181 1521.72 72.008 Q1518.32 71.1978 1514.67 71.1978 Q1509.13 71.1978 1506.33 72.8992 Q1503.58 74.6005 1503.58 78.0033 Q1503.58 80.5959 1505.56 82.0947 Q1507.55 83.553 1513.54 84.8898 L1516.09 85.457 Q1524.03 87.1583 1527.35 90.2775 Q1530.72 93.3562 1530.72 98.906 Q1530.72 105.225 1525.69 108.912 Q1520.71 112.598 1511.96 112.598 Q1508.31 112.598 1504.35 111.869 Q1500.42 111.18 1496.04 109.762 L1496.04 102.066 Q1500.17 104.213 1504.18 105.306 Q1508.19 106.36 1512.12 106.36 Q1517.39 106.36 1520.22 104.577 Q1523.06 102.754 1523.06 99.4731 Q1523.06 96.4349 1520.99 94.8145 Q1518.97 93.1942 1512.04 91.6953 L1509.45 91.0877 Q1502.52 89.6294 1499.44 86.6317 Q1496.36 83.5935 1496.36 78.3274 Q1496.36 71.9269 1500.9 68.4432 Q1505.44 64.9594 1513.78 64.9594 Q1517.92 64.9594 1521.56 65.567 Q1525.21 66.1746 1528.29 67.3899 Z" fill="#000000" fill-rule="nonzero" fill-opacity="1" /><path clip-path="url(#clip300)" d="M1549.8 104.618 L1549.8 128.68 L1542.3 128.68 L1542.3 66.0531 L1549.8 66.0531 L1549.8 72.9397 Q1552.15 68.8888 1555.71 66.9443 Q1559.32 64.9594 1564.3 64.9594 Q1572.56 64.9594 1577.71 71.5218 Q1582.89 78.0843 1582.89 88.7787 Q1582.89 99.4731 1577.71 106.036 Q1572.56 112.598 1564.3 112.598 Q1559.32 112.598 1555.71 110.654 Q1552.15 108.669 1549.8 104.618 M1575.15 88.7787 Q1575.15 80.5554 1571.75 75.8968 Q1568.39 71.1978 1562.48 71.1978 Q1556.56 71.1978 1553.16 75.8968 Q1549.8 80.5554 1549.8 88.7787 Q1549.8 97.002 1553.16 101.701 Q1556.56 106.36 1562.48 106.36 Q1568.39 106.36 1571.75 101.701 Q1575.15 97.002 1575.15 88.7787 Z" fill="#000000" fill-rule="nonzero" fill-opacity="1" /><path clip-path="url(#clip300)" d="M1621.54 73.0207 Q1620.28 72.2915 1618.78 71.9674 Q1617.32 71.6029 1615.54 71.6029 Q1609.22 71.6029 1605.82 75.7348 Q1602.46 79.8262 1602.46 87.5229 L1602.46 111.423 L1594.96 111.423 L1594.96 66.0531 L1602.46 66.0531 L1602.46 73.1017 Q1604.81 68.9698 1608.57 66.9848 Q1612.34 64.9594 1617.73 64.9594 Q1618.5 64.9594 1619.43 65.0809 Q1620.36 65.1619 1621.5 65.3645 L1621.54 73.0207 Z" fill="#000000" fill-rule="nonzero" fill-opacity="1" /><path clip-path="url(#clip300)" d="M1666.34 86.8748 L1666.34 90.5206 L1632.07 90.5206 Q1632.56 98.2173 1636.69 102.268 Q1640.86 106.279 1648.27 106.279 Q1652.57 106.279 1656.58 105.225 Q1660.63 104.172 1664.6 102.066 L1664.6 109.114 Q1660.59 110.816 1656.38 111.707 Q1652.16 112.598 1647.83 112.598 Q1636.97 112.598 1630.61 106.279 Q1624.29 99.9592 1624.29 89.1838 Q1624.29 78.0438 1630.29 71.5218 Q1636.32 64.9594 1646.53 64.9594 Q1655.69 64.9594 1660.99 70.8737 Q1666.34 76.7475 1666.34 86.8748 M1658.89 84.6873 Q1658.81 78.5704 1655.44 74.9246 Q1652.12 71.2788 1646.61 71.2788 Q1640.37 71.2788 1636.61 74.8031 Q1632.88 78.3274 1632.31 84.7278 L1658.89 84.6873 Z" fill="#000000" fill-rule="nonzero" fill-opacity="1" /><path clip-path="url(#clip300)" d="M1716.29 84.0391 L1716.29 111.423 L1708.83 111.423 L1708.83 84.2822 Q1708.83 77.8413 1706.32 74.641 Q1703.81 71.4408 1698.79 71.4408 Q1692.75 71.4408 1689.27 75.2892 Q1685.79 79.1375 1685.79 85.781 L1685.79 111.423 L1678.29 111.423 L1678.29 48.3912 L1685.79 48.3912 L1685.79 73.1017 Q1688.46 69.0103 1692.06 66.9848 Q1695.71 64.9594 1700.45 64.9594 Q1708.27 64.9594 1712.28 69.8205 Q1716.29 74.641 1716.29 84.0391 Z" fill="#000000" fill-rule="nonzero" fill-opacity="1" /><path clip-path="url(#clip300)" d="M1748.74 71.2788 Q1742.74 71.2788 1739.26 75.9778 Q1735.77 80.6364 1735.77 88.7787 Q1735.77 96.921 1739.22 101.62 Q1742.7 106.279 1748.74 106.279 Q1754.69 106.279 1758.17 101.58 Q1761.66 96.8805 1761.66 88.7787 Q1761.66 80.7174 1758.17 76.0183 Q1754.69 71.2788 1748.74 71.2788 M1748.74 64.9594 Q1758.46 64.9594 1764.01 71.2788 Q1769.56 77.5982 1769.56 88.7787 Q1769.56 99.9187 1764.01 106.279 Q1758.46 112.598 1748.74 112.598 Q1738.97 112.598 1733.42 106.279 Q1727.91 99.9187 1727.91 88.7787 Q1727.91 77.5982 1733.42 71.2788 Q1738.97 64.9594 1748.74 64.9594 Z" fill="#000000" fill-rule="nonzero" fill-opacity="1" /><path clip-path="url(#clip300)" d="M1811.77 72.9397 L1811.77 48.3912 L1819.22 48.3912 L1819.22 111.423 L1811.77 111.423 L1811.77 104.618 Q1809.42 108.669 1805.81 110.654 Q1802.25 112.598 1797.23 112.598 Q1789 112.598 1783.82 106.036 Q1778.67 99.4731 1778.67 88.7787 Q1778.67 78.0843 1783.82 71.5218 Q1789 64.9594 1797.23 64.9594 Q1802.25 64.9594 1805.81 66.9443 Q1809.42 68.8888 1811.77 72.9397 M1786.37 88.7787 Q1786.37 97.002 1789.73 101.701 Q1793.13 106.36 1799.05 106.36 Q1804.96 106.36 1808.37 101.701 Q1811.77 97.002 1811.77 88.7787 Q1811.77 80.5554 1808.37 75.8968 Q1804.96 71.1978 1799.05 71.1978 Q1793.13 71.1978 1789.73 75.8968 Q1786.37 80.5554 1786.37 88.7787 Z" fill="#000000" fill-rule="nonzero" fill-opacity="1" /><path clip-path="url(#clip300)" d="M1855.19 88.6167 Q1846.16 88.6167 1842.68 90.6826 Q1839.19 92.7486 1839.19 97.7312 Q1839.19 101.701 1841.79 104.051 Q1844.42 106.36 1848.91 106.36 Q1855.11 106.36 1858.84 101.985 Q1862.61 97.5692 1862.61 90.2775 L1862.61 88.6167 L1855.19 88.6167 M1870.06 85.538 L1870.06 111.423 L1862.61 111.423 L1862.61 104.537 Q1860.05 108.669 1856.25 110.654 Q1852.44 112.598 1846.93 112.598 Q1839.96 112.598 1835.83 108.709 Q1831.74 104.78 1831.74 98.2173 Q1831.74 90.5611 1836.84 86.6722 Q1841.99 82.7834 1852.16 82.7834 L1862.61 82.7834 L1862.61 82.0542 Q1862.61 76.9095 1859.2 74.1144 Q1855.84 71.2788 1849.73 71.2788 Q1845.84 71.2788 1842.15 72.2105 Q1838.46 73.1422 1835.06 75.0056 L1835.06 68.1191 Q1839.15 66.5392 1843 65.7696 Q1846.85 64.9594 1850.49 64.9594 Q1860.34 64.9594 1865.2 70.0635 Q1870.06 75.1677 1870.06 85.538 Z" fill="#000000" fill-rule="nonzero" fill-opacity="1" /><path clip-path="url(#clip300)" d="M1947.83 87.7314 Q1947.83 93.7159 1944.79 99.4954 Q1941.8 105.275 1937.09 108.841 Q1932.37 112.366 1927.58 112.366 Q1924.71 112.366 1922.78 110.808 Q1920.9 109.21 1919.87 106.955 Q1919.09 109.743 1917.41 116.424 Q1915.73 123.105 1915.73 123.761 Q1915.73 124.13 1915.81 124.294 Q1915.89 124.458 1916.26 124.663 Q1916.63 124.909 1917.53 124.991 Q1918.44 125.114 1919.95 125.114 Q1920.73 125.114 1921.02 125.114 Q1921.35 125.155 1921.63 125.36 Q1921.96 125.565 1921.96 126.015 Q1921.96 127.696 1920.44 127.696 Q1919.09 127.696 1916.3 127.573 Q1913.52 127.45 1912.12 127.45 Q1910.93 127.45 1908.56 127.573 Q1906.18 127.696 1905.07 127.696 Q1903.97 127.696 1903.97 126.712 Q1903.97 126.138 1904.13 125.769 Q1904.25 125.442 1904.58 125.278 Q1904.91 125.155 1905.2 125.114 Q1905.44 125.114 1905.93 125.114 Q1907.82 125.114 1908.64 124.786 Q1909.46 124.499 1909.75 123.884 Q1910.07 123.31 1910.44 121.671 L1919.87 84.2883 Q1920.44 81.788 1920.44 80.0255 Q1920.44 77.812 1919.75 76.9923 Q1919.05 76.1725 1917.82 76.1725 Q1915.69 76.1725 1914.3 78.7138 Q1912.9 81.2551 1911.71 86.1739 Q1911.34 87.5265 1911.1 87.8134 Q1910.89 88.1004 1910.28 88.1004 Q1909.25 88.0594 1909.25 87.2396 Q1909.25 87.0346 1909.58 85.723 Q1909.91 84.3703 1910.53 82.4028 Q1911.18 80.3944 1911.88 79.1237 Q1912.29 78.2629 1912.66 77.6891 Q1913.03 77.1152 1913.76 76.2135 Q1914.54 75.3117 1915.65 74.8198 Q1916.76 74.328 1918.11 74.328 Q1920.73 74.328 1922.9 75.8855 Q1925.08 77.4431 1925.65 80.5993 Q1927.99 77.853 1930.86 76.0905 Q1933.72 74.328 1936.64 74.328 Q1941.47 74.328 1944.63 78.099 Q1947.83 81.829 1947.83 87.7314 M1941.76 84.0424 Q1941.76 80.3124 1940.32 78.2629 Q1938.93 76.1725 1936.39 76.1725 Q1933.23 76.1725 1929.59 79.3696 Q1925.98 82.4028 1925.24 85.2311 L1921.1 101.668 L1920.85 103.02 Q1920.85 103.266 1920.98 104.004 Q1921.14 104.701 1921.59 105.849 Q1922.08 106.996 1922.74 108.021 Q1923.44 109.005 1924.67 109.743 Q1925.94 110.48 1927.49 110.48 Q1929.99 110.48 1932.7 108.267 Q1935.45 106.054 1937.5 101.873 Q1938.77 99.1675 1940.24 93.347 Q1941.76 87.4855 1941.76 84.0424 Z" fill="#000000" fill-rule="nonzero" fill-opacity="1" /><path clip-path="url(#clip300)" d="M1969.07 98.6756 Q1969.15 97.6509 1970.75 97.6509 L2022.19 97.6509 Q2024.61 97.6509 2024.65 98.5936 Q2024.65 99.6183 2022.36 99.5773 L1971.33 99.5773 Q1969.07 99.6183 1969.07 98.6756 M1969.07 82.2799 Q1969.07 81.2551 1970.83 81.2961 L2022.11 81.2961 Q2024.61 81.2961 2024.65 82.2799 Q2024.65 83.2226 2022.52 83.2226 L1970.75 83.2226 Q1969.07 83.2226 1969.07 82.2799 Z" fill="#000000" fill-rule="nonzero" fill-opacity="1" /><path clip-path="url(#clip300)" d="M2091.63 75.2297 L2080.03 121.917 Q2079.7 123.392 2079.7 123.761 Q2079.7 124.253 2079.82 124.458 Q2079.99 124.704 2080.89 124.909 Q2081.83 125.114 2083.72 125.114 Q2084.41 125.114 2084.66 125.114 Q2084.9 125.114 2085.27 125.196 Q2085.64 125.278 2085.76 125.483 Q2085.89 125.688 2085.89 126.015 Q2085.89 127.696 2084.41 127.696 Q2083.02 127.696 2080.11 127.573 Q2077.2 127.45 2075.76 127.45 Q2074.37 127.45 2071.54 127.573 Q2068.71 127.696 2067.36 127.696 Q2066.87 127.696 2066.58 127.45 Q2066.29 127.245 2066.29 126.999 L2066.25 126.794 Q2066.25 125.647 2066.7 125.36 Q2067.16 125.114 2068.18 125.114 Q2071.71 125.073 2072.73 124.581 Q2073.75 124.089 2074.25 122.326 L2078.02 107.324 Q2072.98 112.366 2068.1 112.366 Q2063.38 112.366 2060.19 108.677 Q2057.03 104.947 2057.03 98.9215 Q2057.03 94.4537 2058.79 89.9449 Q2060.6 85.436 2063.38 82.0339 Q2066.21 78.6318 2069.9 76.5004 Q2073.59 74.328 2077.24 74.328 Q2079.58 74.328 2081.67 75.6806 Q2083.8 77.0332 2085.07 80.1894 Q2086.13 78.3859 2088.1 76.4184 Q2090.07 74.4099 2090.77 74.4099 Q2091.18 74.4099 2091.38 74.6969 Q2091.63 74.9428 2091.63 75.2297 M2083.88 83.5505 Q2083.88 83.1406 2083.55 82.1159 Q2083.26 81.0912 2082.61 79.6975 Q2081.99 78.2629 2080.56 77.2382 Q2079.12 76.1725 2077.24 76.1725 Q2074.53 76.1725 2071.62 78.7958 Q2068.75 81.3781 2066.87 85.8869 Q2065.68 88.8382 2064.33 94.3307 Q2062.97 99.8233 2062.97 102.611 Q2062.97 103.266 2063.02 104.004 Q2063.1 104.742 2063.43 105.972 Q2063.75 107.201 2064.25 108.144 Q2064.78 109.087 2065.84 109.784 Q2066.91 110.48 2068.34 110.48 Q2071.46 110.48 2074.57 107.816 Q2077.69 105.152 2079 102.775 Q2079.17 102.529 2081.5 93.224 Q2083.88 83.9194 2083.88 83.5505 Z" fill="#000000" fill-rule="nonzero" fill-opacity="1" /><path clip-path="url(#clip300)" d="M2117.39 98.6756 Q2117.47 97.6509 2119.07 97.6509 L2170.51 97.6509 Q2172.93 97.6509 2172.97 98.5936 Q2172.97 99.6183 2170.67 99.5773 L2119.64 99.5773 Q2117.39 99.6183 2117.39 98.6756 M2117.39 82.2799 Q2117.39 81.2551 2119.15 81.2961 L2170.43 81.2961 Q2172.93 81.2961 2172.97 82.2799 Q2172.97 83.2226 2170.84 83.2226 L2119.07 83.2226 Q2117.39 83.2226 2117.39 82.2799 Z" fill="#000000" fill-rule="nonzero" fill-opacity="1" /><path clip-path="url(#clip300)" d="M2226.27 22.5655 L2226.27 19.9422 Q2236.35 19.9422 2241.55 14.5726 Q2242.99 14.5726 2243.24 14.9005 Q2243.48 15.2285 2243.48 16.7451 L2243.48 63.8417 Q2243.48 66.3421 2244.71 67.1209 Q2245.94 67.8997 2251.31 67.8997 L2253.97 67.8997 L2253.97 70.482 Q2251.02 70.2361 2240.37 70.2361 Q2229.71 70.2361 2226.8 70.482 L2226.8 67.8997 L2229.46 67.8997 Q2234.75 67.8997 2236.02 67.1619 Q2237.29 66.3831 2237.29 63.8417 L2237.29 20.3521 Q2232.91 22.5655 2226.27 22.5655 Z" fill="#000000" fill-rule="nonzero" fill-opacity="1" /><path clip-path="url(#clip300)" d="M2223.27 92.882 L2265.43 92.882 L2265.43 88.402 L2223.27 88.402  Z" fill="#000000" fill-rule="evenodd" fill-opacity="1"/>
<path clip-path="url(#clip300)" d="M2223.27 166.177 Q2223.27 164.66 2223.39 164.21 Q2223.55 163.759 2224.21 163.062 L2240.32 145.109 Q2249.13 135.189 2249.13 126.54 Q2249.13 120.925 2246.18 116.908 Q2243.27 112.891 2237.9 112.891 Q2234.21 112.891 2231.09 115.145 Q2227.98 117.4 2226.54 121.417 Q2226.79 121.335 2227.65 121.335 Q2229.74 121.335 2230.89 122.646 Q2232.08 123.958 2232.08 125.721 Q2232.08 127.975 2230.6 129.082 Q2229.17 130.147 2227.73 130.147 Q2227.16 130.147 2226.38 130.024 Q2225.64 129.901 2224.45 128.754 Q2223.27 127.565 2223.27 125.475 Q2223.27 119.613 2227.69 114.94 Q2232.16 110.268 2238.96 110.268 Q2246.67 110.268 2251.71 114.858 Q2256.79 119.408 2256.79 126.54 Q2256.79 129.041 2256.02 131.336 Q2255.28 133.591 2254.25 135.353 Q2253.27 137.116 2250.56 139.944 Q2247.86 142.772 2245.69 144.781 Q2243.51 146.789 2238.64 151.052 L2229.74 159.701 L2244.87 159.701 Q2252.25 159.701 2252.82 159.045 Q2253.64 157.856 2254.66 151.585 L2256.79 151.585 L2254.42 166.177 L2223.27 166.177 Z" fill="#000000" fill-rule="nonzero" fill-opacity="1" /><polyline clip-path="url(#clip302)" style="stroke:#009af9; stroke-linecap:round; stroke-linejoin:round; stroke-width:4; stroke-opacity:1; fill:none" points="240.392,274.546 261.107,201.142 281.823,274.546 302.538,347.95 323.254,421.354 343.97,347.95 364.685,421.354 385.401,494.758 406.116,421.354 426.832,494.758 447.547,568.162 468.263,641.566 488.978,714.97 509.694,788.375 530.409,861.779 551.125,935.183 571.841,861.779 592.556,788.375 613.272,714.97 633.987,641.566 654.703,714.97 675.418,788.375 696.134,861.779 716.849,935.183 737.565,1008.59 758.28,935.183 778.996,1008.59 799.712,935.183 820.427,1008.59 841.143,935.183 861.858,1008.59 882.574,1081.99 903.289,1155.4 924.005,1228.8 944.72,1302.2 965.436,1375.61 986.151,1449.01 1006.87,1375.61 1027.58,1302.2 1048.3,1228.8 1069.01,1155.4 1089.73,1228.8 1110.44,1302.2 1131.16,1228.8 1151.88,1155.4 1172.59,1228.8 1193.31,1302.2 1214.02,1228.8 1234.74,1302.2 1255.45,1375.61 1276.17,1449.01 1296.88,1375.61 1317.6,1302.2 1338.32,1228.8 1359.03,1155.4 1379.75,1228.8 1400.46,1155.4 1421.18,1081.99 1441.89,1155.4 1462.61,1081.99 1483.32,1155.4 1504.04,1081.99 1524.76,1008.59 1545.47,935.183 1566.19,861.779 1586.9,935.183 1607.62,861.779 1628.33,935.183 1649.05,861.779 1669.76,788.375 1690.48,861.779 1711.2,788.375 1731.91,861.779 1752.63,935.183 1773.34,861.779 1794.06,788.375 1814.77,861.779 1835.49,788.375 1856.2,861.779 1876.92,788.375 1897.64,714.97 1918.35,788.375 1939.07,714.97 1959.78,788.375 1980.5,714.97 2001.21,641.566 2021.93,714.97 2042.64,641.566 2063.36,714.97 2084.08,788.375 2104.79,861.779 2125.51,788.375 2146.22,714.97 2166.94,788.375 2187.65,861.779 2208.37,935.183 2229.08,1008.59 2249.8,1081.99 2270.52,1008.59 2291.23,1081.99 "/>
<circle clip-path="url(#clip302)" cx="240.392" cy="274.546" r="14.4" fill="#e26f46" fill-rule="evenodd" fill-opacity="1" stroke="#000000" stroke-opacity="1" stroke-width="3.2"/>
<circle clip-path="url(#clip302)" cx="261.107" cy="201.142" r="14.4" fill="#e26f46" fill-rule="evenodd" fill-opacity="1" stroke="#000000" stroke-opacity="1" stroke-width="3.2"/>
<circle clip-path="url(#clip302)" cx="281.823" cy="274.546" r="14.4" fill="#e26f46" fill-rule="evenodd" fill-opacity="1" stroke="#000000" stroke-opacity="1" stroke-width="3.2"/>
<circle clip-path="url(#clip302)" cx="302.538" cy="347.95" r="14.4" fill="#e26f46" fill-rule="evenodd" fill-opacity="1" stroke="#000000" stroke-opacity="1" stroke-width="3.2"/>
<circle clip-path="url(#clip302)" cx="323.254" cy="421.354" r="14.4" fill="#e26f46" fill-rule="evenodd" fill-opacity="1" stroke="#000000" stroke-opacity="1" stroke-width="3.2"/>
<circle clip-path="url(#clip302)" cx="343.97" cy="347.95" r="14.4" fill="#e26f46" fill-rule="evenodd" fill-opacity="1" stroke="#000000" stroke-opacity="1" stroke-width="3.2"/>
<circle clip-path="url(#clip302)" cx="364.685" cy="421.354" r="14.4" fill="#e26f46" fill-rule="evenodd" fill-opacity="1" stroke="#000000" stroke-opacity="1" stroke-width="3.2"/>
<circle clip-path="url(#clip302)" cx="385.401" cy="494.758" r="14.4" fill="#e26f46" fill-rule="evenodd" fill-opacity="1" stroke="#000000" stroke-opacity="1" stroke-width="3.2"/>
<circle clip-path="url(#clip302)" cx="406.116" cy="421.354" r="14.4" fill="#e26f46" fill-rule="evenodd" fill-opacity="1" stroke="#000000" stroke-opacity="1" stroke-width="3.2"/>
<circle clip-path="url(#clip302)" cx="426.832" cy="494.758" r="14.4" fill="#e26f46" fill-rule="evenodd" fill-opacity="1" stroke="#000000" stroke-opacity="1" stroke-width="3.2"/>
<circle clip-path="url(#clip302)" cx="447.547" cy="568.162" r="14.4" fill="#e26f46" fill-rule="evenodd" fill-opacity="1" stroke="#000000" stroke-opacity="1" stroke-width="3.2"/>
<circle clip-path="url(#clip302)" cx="468.263" cy="641.566" r="14.4" fill="#e26f46" fill-rule="evenodd" fill-opacity="1" stroke="#000000" stroke-opacity="1" stroke-width="3.2"/>
<circle clip-path="url(#clip302)" cx="488.978" cy="714.97" r="14.4" fill="#e26f46" fill-rule="evenodd" fill-opacity="1" stroke="#000000" stroke-opacity="1" stroke-width="3.2"/>
<circle clip-path="url(#clip302)" cx="509.694" cy="788.375" r="14.4" fill="#e26f46" fill-rule="evenodd" fill-opacity="1" stroke="#000000" stroke-opacity="1" stroke-width="3.2"/>
<circle clip-path="url(#clip302)" cx="530.409" cy="861.779" r="14.4" fill="#e26f46" fill-rule="evenodd" fill-opacity="1" stroke="#000000" stroke-opacity="1" stroke-width="3.2"/>
<circle clip-path="url(#clip302)" cx="551.125" cy="935.183" r="14.4" fill="#e26f46" fill-rule="evenodd" fill-opacity="1" stroke="#000000" stroke-opacity="1" stroke-width="3.2"/>
<circle clip-path="url(#clip302)" cx="571.841" cy="861.779" r="14.4" fill="#e26f46" fill-rule="evenodd" fill-opacity="1" stroke="#000000" stroke-opacity="1" stroke-width="3.2"/>
<circle clip-path="url(#clip302)" cx="592.556" cy="788.375" r="14.4" fill="#e26f46" fill-rule="evenodd" fill-opacity="1" stroke="#000000" stroke-opacity="1" stroke-width="3.2"/>
<circle clip-path="url(#clip302)" cx="613.272" cy="714.97" r="14.4" fill="#e26f46" fill-rule="evenodd" fill-opacity="1" stroke="#000000" stroke-opacity="1" stroke-width="3.2"/>
<circle clip-path="url(#clip302)" cx="633.987" cy="641.566" r="14.4" fill="#e26f46" fill-rule="evenodd" fill-opacity="1" stroke="#000000" stroke-opacity="1" stroke-width="3.2"/>
<circle clip-path="url(#clip302)" cx="654.703" cy="714.97" r="14.4" fill="#e26f46" fill-rule="evenodd" fill-opacity="1" stroke="#000000" stroke-opacity="1" stroke-width="3.2"/>
<circle clip-path="url(#clip302)" cx="675.418" cy="788.375" r="14.4" fill="#e26f46" fill-rule="evenodd" fill-opacity="1" stroke="#000000" stroke-opacity="1" stroke-width="3.2"/>
<circle clip-path="url(#clip302)" cx="696.134" cy="861.779" r="14.4" fill="#e26f46" fill-rule="evenodd" fill-opacity="1" stroke="#000000" stroke-opacity="1" stroke-width="3.2"/>
<circle clip-path="url(#clip302)" cx="716.849" cy="935.183" r="14.4" fill="#e26f46" fill-rule="evenodd" fill-opacity="1" stroke="#000000" stroke-opacity="1" stroke-width="3.2"/>
<circle clip-path="url(#clip302)" cx="737.565" cy="1008.59" r="14.4" fill="#e26f46" fill-rule="evenodd" fill-opacity="1" stroke="#000000" stroke-opacity="1" stroke-width="3.2"/>
<circle clip-path="url(#clip302)" cx="758.28" cy="935.183" r="14.4" fill="#e26f46" fill-rule="evenodd" fill-opacity="1" stroke="#000000" stroke-opacity="1" stroke-width="3.2"/>
<circle clip-path="url(#clip302)" cx="778.996" cy="1008.59" r="14.4" fill="#e26f46" fill-rule="evenodd" fill-opacity="1" stroke="#000000" stroke-opacity="1" stroke-width="3.2"/>
<circle clip-path="url(#clip302)" cx="799.712" cy="935.183" r="14.4" fill="#e26f46" fill-rule="evenodd" fill-opacity="1" stroke="#000000" stroke-opacity="1" stroke-width="3.2"/>
<circle clip-path="url(#clip302)" cx="820.427" cy="1008.59" r="14.4" fill="#e26f46" fill-rule="evenodd" fill-opacity="1" stroke="#000000" stroke-opacity="1" stroke-width="3.2"/>
<circle clip-path="url(#clip302)" cx="841.143" cy="935.183" r="14.4" fill="#e26f46" fill-rule="evenodd" fill-opacity="1" stroke="#000000" stroke-opacity="1" stroke-width="3.2"/>
<circle clip-path="url(#clip302)" cx="861.858" cy="1008.59" r="14.4" fill="#e26f46" fill-rule="evenodd" fill-opacity="1" stroke="#000000" stroke-opacity="1" stroke-width="3.2"/>
<circle clip-path="url(#clip302)" cx="882.574" cy="1081.99" r="14.4" fill="#e26f46" fill-rule="evenodd" fill-opacity="1" stroke="#000000" stroke-opacity="1" stroke-width="3.2"/>
<circle clip-path="url(#clip302)" cx="903.289" cy="1155.4" r="14.4" fill="#e26f46" fill-rule="evenodd" fill-opacity="1" stroke="#000000" stroke-opacity="1" stroke-width="3.2"/>
<circle clip-path="url(#clip302)" cx="924.005" cy="1228.8" r="14.4" fill="#e26f46" fill-rule="evenodd" fill-opacity="1" stroke="#000000" stroke-opacity="1" stroke-width="3.2"/>
<circle clip-path="url(#clip302)" cx="944.72" cy="1302.2" r="14.4" fill="#e26f46" fill-rule="evenodd" fill-opacity="1" stroke="#000000" stroke-opacity="1" stroke-width="3.2"/>
<circle clip-path="url(#clip302)" cx="965.436" cy="1375.61" r="14.4" fill="#e26f46" fill-rule="evenodd" fill-opacity="1" stroke="#000000" stroke-opacity="1" stroke-width="3.2"/>
<circle clip-path="url(#clip302)" cx="986.151" cy="1449.01" r="14.4" fill="#e26f46" fill-rule="evenodd" fill-opacity="1" stroke="#000000" stroke-opacity="1" stroke-width="3.2"/>
<circle clip-path="url(#clip302)" cx="1006.87" cy="1375.61" r="14.4" fill="#e26f46" fill-rule="evenodd" fill-opacity="1" stroke="#000000" stroke-opacity="1" stroke-width="3.2"/>
<circle clip-path="url(#clip302)" cx="1027.58" cy="1302.2" r="14.4" fill="#e26f46" fill-rule="evenodd" fill-opacity="1" stroke="#000000" stroke-opacity="1" stroke-width="3.2"/>
<circle clip-path="url(#clip302)" cx="1048.3" cy="1228.8" r="14.4" fill="#e26f46" fill-rule="evenodd" fill-opacity="1" stroke="#000000" stroke-opacity="1" stroke-width="3.2"/>
<circle clip-path="url(#clip302)" cx="1069.01" cy="1155.4" r="14.4" fill="#e26f46" fill-rule="evenodd" fill-opacity="1" stroke="#000000" stroke-opacity="1" stroke-width="3.2"/>
<circle clip-path="url(#clip302)" cx="1089.73" cy="1228.8" r="14.4" fill="#e26f46" fill-rule="evenodd" fill-opacity="1" stroke="#000000" stroke-opacity="1" stroke-width="3.2"/>
<circle clip-path="url(#clip302)" cx="1110.44" cy="1302.2" r="14.4" fill="#e26f46" fill-rule="evenodd" fill-opacity="1" stroke="#000000" stroke-opacity="1" stroke-width="3.2"/>
<circle clip-path="url(#clip302)" cx="1131.16" cy="1228.8" r="14.4" fill="#e26f46" fill-rule="evenodd" fill-opacity="1" stroke="#000000" stroke-opacity="1" stroke-width="3.2"/>
<circle clip-path="url(#clip302)" cx="1151.88" cy="1155.4" r="14.4" fill="#e26f46" fill-rule="evenodd" fill-opacity="1" stroke="#000000" stroke-opacity="1" stroke-width="3.2"/>
<circle clip-path="url(#clip302)" cx="1172.59" cy="1228.8" r="14.4" fill="#e26f46" fill-rule="evenodd" fill-opacity="1" stroke="#000000" stroke-opacity="1" stroke-width="3.2"/>
<circle clip-path="url(#clip302)" cx="1193.31" cy="1302.2" r="14.4" fill="#e26f46" fill-rule="evenodd" fill-opacity="1" stroke="#000000" stroke-opacity="1" stroke-width="3.2"/>
<circle clip-path="url(#clip302)" cx="1214.02" cy="1228.8" r="14.4" fill="#e26f46" fill-rule="evenodd" fill-opacity="1" stroke="#000000" stroke-opacity="1" stroke-width="3.2"/>
<circle clip-path="url(#clip302)" cx="1234.74" cy="1302.2" r="14.4" fill="#e26f46" fill-rule="evenodd" fill-opacity="1" stroke="#000000" stroke-opacity="1" stroke-width="3.2"/>
<circle clip-path="url(#clip302)" cx="1255.45" cy="1375.61" r="14.4" fill="#e26f46" fill-rule="evenodd" fill-opacity="1" stroke="#000000" stroke-opacity="1" stroke-width="3.2"/>
<circle clip-path="url(#clip302)" cx="1276.17" cy="1449.01" r="14.4" fill="#e26f46" fill-rule="evenodd" fill-opacity="1" stroke="#000000" stroke-opacity="1" stroke-width="3.2"/>
<circle clip-path="url(#clip302)" cx="1296.88" cy="1375.61" r="14.4" fill="#e26f46" fill-rule="evenodd" fill-opacity="1" stroke="#000000" stroke-opacity="1" stroke-width="3.2"/>
<circle clip-path="url(#clip302)" cx="1317.6" cy="1302.2" r="14.4" fill="#e26f46" fill-rule="evenodd" fill-opacity="1" stroke="#000000" stroke-opacity="1" stroke-width="3.2"/>
<circle clip-path="url(#clip302)" cx="1338.32" cy="1228.8" r="14.4" fill="#e26f46" fill-rule="evenodd" fill-opacity="1" stroke="#000000" stroke-opacity="1" stroke-width="3.2"/>
<circle clip-path="url(#clip302)" cx="1359.03" cy="1155.4" r="14.4" fill="#e26f46" fill-rule="evenodd" fill-opacity="1" stroke="#000000" stroke-opacity="1" stroke-width="3.2"/>
<circle clip-path="url(#clip302)" cx="1379.75" cy="1228.8" r="14.4" fill="#e26f46" fill-rule="evenodd" fill-opacity="1" stroke="#000000" stroke-opacity="1" stroke-width="3.2"/>
<circle clip-path="url(#clip302)" cx="1400.46" cy="1155.4" r="14.4" fill="#e26f46" fill-rule="evenodd" fill-opacity="1" stroke="#000000" stroke-opacity="1" stroke-width="3.2"/>
<circle clip-path="url(#clip302)" cx="1421.18" cy="1081.99" r="14.4" fill="#e26f46" fill-rule="evenodd" fill-opacity="1" stroke="#000000" stroke-opacity="1" stroke-width="3.2"/>
<circle clip-path="url(#clip302)" cx="1441.89" cy="1155.4" r="14.4" fill="#e26f46" fill-rule="evenodd" fill-opacity="1" stroke="#000000" stroke-opacity="1" stroke-width="3.2"/>
<circle clip-path="url(#clip302)" cx="1462.61" cy="1081.99" r="14.4" fill="#e26f46" fill-rule="evenodd" fill-opacity="1" stroke="#000000" stroke-opacity="1" stroke-width="3.2"/>
<circle clip-path="url(#clip302)" cx="1483.32" cy="1155.4" r="14.4" fill="#e26f46" fill-rule="evenodd" fill-opacity="1" stroke="#000000" stroke-opacity="1" stroke-width="3.2"/>
<circle clip-path="url(#clip302)" cx="1504.04" cy="1081.99" r="14.4" fill="#e26f46" fill-rule="evenodd" fill-opacity="1" stroke="#000000" stroke-opacity="1" stroke-width="3.2"/>
<circle clip-path="url(#clip302)" cx="1524.76" cy="1008.59" r="14.4" fill="#e26f46" fill-rule="evenodd" fill-opacity="1" stroke="#000000" stroke-opacity="1" stroke-width="3.2"/>
<circle clip-path="url(#clip302)" cx="1545.47" cy="935.183" r="14.4" fill="#e26f46" fill-rule="evenodd" fill-opacity="1" stroke="#000000" stroke-opacity="1" stroke-width="3.2"/>
<circle clip-path="url(#clip302)" cx="1566.19" cy="861.779" r="14.4" fill="#e26f46" fill-rule="evenodd" fill-opacity="1" stroke="#000000" stroke-opacity="1" stroke-width="3.2"/>
<circle clip-path="url(#clip302)" cx="1586.9" cy="935.183" r="14.4" fill="#e26f46" fill-rule="evenodd" fill-opacity="1" stroke="#000000" stroke-opacity="1" stroke-width="3.2"/>
<circle clip-path="url(#clip302)" cx="1607.62" cy="861.779" r="14.4" fill="#e26f46" fill-rule="evenodd" fill-opacity="1" stroke="#000000" stroke-opacity="1" stroke-width="3.2"/>
<circle clip-path="url(#clip302)" cx="1628.33" cy="935.183" r="14.4" fill="#e26f46" fill-rule="evenodd" fill-opacity="1" stroke="#000000" stroke-opacity="1" stroke-width="3.2"/>
<circle clip-path="url(#clip302)" cx="1649.05" cy="861.779" r="14.4" fill="#e26f46" fill-rule="evenodd" fill-opacity="1" stroke="#000000" stroke-opacity="1" stroke-width="3.2"/>
<circle clip-path="url(#clip302)" cx="1669.76" cy="788.375" r="14.4" fill="#e26f46" fill-rule="evenodd" fill-opacity="1" stroke="#000000" stroke-opacity="1" stroke-width="3.2"/>
<circle clip-path="url(#clip302)" cx="1690.48" cy="861.779" r="14.4" fill="#e26f46" fill-rule="evenodd" fill-opacity="1" stroke="#000000" stroke-opacity="1" stroke-width="3.2"/>
<circle clip-path="url(#clip302)" cx="1711.2" cy="788.375" r="14.4" fill="#e26f46" fill-rule="evenodd" fill-opacity="1" stroke="#000000" stroke-opacity="1" stroke-width="3.2"/>
<circle clip-path="url(#clip302)" cx="1731.91" cy="861.779" r="14.4" fill="#e26f46" fill-rule="evenodd" fill-opacity="1" stroke="#000000" stroke-opacity="1" stroke-width="3.2"/>
<circle clip-path="url(#clip302)" cx="1752.63" cy="935.183" r="14.4" fill="#e26f46" fill-rule="evenodd" fill-opacity="1" stroke="#000000" stroke-opacity="1" stroke-width="3.2"/>
<circle clip-path="url(#clip302)" cx="1773.34" cy="861.779" r="14.4" fill="#e26f46" fill-rule="evenodd" fill-opacity="1" stroke="#000000" stroke-opacity="1" stroke-width="3.2"/>
<circle clip-path="url(#clip302)" cx="1794.06" cy="788.375" r="14.4" fill="#e26f46" fill-rule="evenodd" fill-opacity="1" stroke="#000000" stroke-opacity="1" stroke-width="3.2"/>
<circle clip-path="url(#clip302)" cx="1814.77" cy="861.779" r="14.4" fill="#e26f46" fill-rule="evenodd" fill-opacity="1" stroke="#000000" stroke-opacity="1" stroke-width="3.2"/>
<circle clip-path="url(#clip302)" cx="1835.49" cy="788.375" r="14.4" fill="#e26f46" fill-rule="evenodd" fill-opacity="1" stroke="#000000" stroke-opacity="1" stroke-width="3.2"/>
<circle clip-path="url(#clip302)" cx="1856.2" cy="861.779" r="14.4" fill="#e26f46" fill-rule="evenodd" fill-opacity="1" stroke="#000000" stroke-opacity="1" stroke-width="3.2"/>
<circle clip-path="url(#clip302)" cx="1876.92" cy="788.375" r="14.4" fill="#e26f46" fill-rule="evenodd" fill-opacity="1" stroke="#000000" stroke-opacity="1" stroke-width="3.2"/>
<circle clip-path="url(#clip302)" cx="1897.64" cy="714.97" r="14.4" fill="#e26f46" fill-rule="evenodd" fill-opacity="1" stroke="#000000" stroke-opacity="1" stroke-width="3.2"/>
<circle clip-path="url(#clip302)" cx="1918.35" cy="788.375" r="14.4" fill="#e26f46" fill-rule="evenodd" fill-opacity="1" stroke="#000000" stroke-opacity="1" stroke-width="3.2"/>
<circle clip-path="url(#clip302)" cx="1939.07" cy="714.97" r="14.4" fill="#e26f46" fill-rule="evenodd" fill-opacity="1" stroke="#000000" stroke-opacity="1" stroke-width="3.2"/>
<circle clip-path="url(#clip302)" cx="1959.78" cy="788.375" r="14.4" fill="#e26f46" fill-rule="evenodd" fill-opacity="1" stroke="#000000" stroke-opacity="1" stroke-width="3.2"/>
<circle clip-path="url(#clip302)" cx="1980.5" cy="714.97" r="14.4" fill="#e26f46" fill-rule="evenodd" fill-opacity="1" stroke="#000000" stroke-opacity="1" stroke-width="3.2"/>
<circle clip-path="url(#clip302)" cx="2001.21" cy="641.566" r="14.4" fill="#e26f46" fill-rule="evenodd" fill-opacity="1" stroke="#000000" stroke-opacity="1" stroke-width="3.2"/>
<circle clip-path="url(#clip302)" cx="2021.93" cy="714.97" r="14.4" fill="#e26f46" fill-rule="evenodd" fill-opacity="1" stroke="#000000" stroke-opacity="1" stroke-width="3.2"/>
<circle clip-path="url(#clip302)" cx="2042.64" cy="641.566" r="14.4" fill="#e26f46" fill-rule="evenodd" fill-opacity="1" stroke="#000000" stroke-opacity="1" stroke-width="3.2"/>
<circle clip-path="url(#clip302)" cx="2063.36" cy="714.97" r="14.4" fill="#e26f46" fill-rule="evenodd" fill-opacity="1" stroke="#000000" stroke-opacity="1" stroke-width="3.2"/>
<circle clip-path="url(#clip302)" cx="2084.08" cy="788.375" r="14.4" fill="#e26f46" fill-rule="evenodd" fill-opacity="1" stroke="#000000" stroke-opacity="1" stroke-width="3.2"/>
<circle clip-path="url(#clip302)" cx="2104.79" cy="861.779" r="14.4" fill="#e26f46" fill-rule="evenodd" fill-opacity="1" stroke="#000000" stroke-opacity="1" stroke-width="3.2"/>
<circle clip-path="url(#clip302)" cx="2125.51" cy="788.375" r="14.4" fill="#e26f46" fill-rule="evenodd" fill-opacity="1" stroke="#000000" stroke-opacity="1" stroke-width="3.2"/>
<circle clip-path="url(#clip302)" cx="2146.22" cy="714.97" r="14.4" fill="#e26f46" fill-rule="evenodd" fill-opacity="1" stroke="#000000" stroke-opacity="1" stroke-width="3.2"/>
<circle clip-path="url(#clip302)" cx="2166.94" cy="788.375" r="14.4" fill="#e26f46" fill-rule="evenodd" fill-opacity="1" stroke="#000000" stroke-opacity="1" stroke-width="3.2"/>
<circle clip-path="url(#clip302)" cx="2187.65" cy="861.779" r="14.4" fill="#e26f46" fill-rule="evenodd" fill-opacity="1" stroke="#000000" stroke-opacity="1" stroke-width="3.2"/>
<circle clip-path="url(#clip302)" cx="2208.37" cy="935.183" r="14.4" fill="#e26f46" fill-rule="evenodd" fill-opacity="1" stroke="#000000" stroke-opacity="1" stroke-width="3.2"/>
<circle clip-path="url(#clip302)" cx="2229.08" cy="1008.59" r="14.4" fill="#e26f46" fill-rule="evenodd" fill-opacity="1" stroke="#000000" stroke-opacity="1" stroke-width="3.2"/>
<circle clip-path="url(#clip302)" cx="2249.8" cy="1081.99" r="14.4" fill="#e26f46" fill-rule="evenodd" fill-opacity="1" stroke="#000000" stroke-opacity="1" stroke-width="3.2"/>
<circle clip-path="url(#clip302)" cx="2270.52" cy="1008.59" r="14.4" fill="#e26f46" fill-rule="evenodd" fill-opacity="1" stroke="#000000" stroke-opacity="1" stroke-width="3.2"/>
<circle clip-path="url(#clip302)" cx="2291.23" cy="1081.99" r="14.4" fill="#e26f46" fill-rule="evenodd" fill-opacity="1" stroke="#000000" stroke-opacity="1" stroke-width="3.2"/>
<path clip-path="url(#clip300)" d="M1986.29 311.477 L2280.29 311.477 L2280.29 207.797 L1986.29 207.797  Z" fill="#ffffff" fill-rule="evenodd" fill-opacity="1"/>
<polyline clip-path="url(#clip300)" style="stroke:#000000; stroke-linecap:round; stroke-linejoin:round; stroke-width:4; stroke-opacity:1; fill:none" points="1986.29,311.477 2280.29,311.477 2280.29,207.797 1986.29,207.797 1986.29,311.477 "/>
<circle clip-path="url(#clip300)" cx="2082.91" cy="259.637" r="20.48" fill="#e26f46" fill-rule="evenodd" fill-opacity="1" stroke="#000000" stroke-opacity="1" stroke-width="4.55111"/>
<path clip-path="url(#clip300)" d="M2219.06 239.041 Q2219.06 239.463 2218.9 239.697 Q2218.76 239.908 2218.59 239.955 Q2218.43 239.978 2218.01 240.002 Q2214.66 240.166 2211.92 242.438 Q2211.24 243.023 2209.53 244.85 Q2207.84 246.677 2205.59 249.113 Q2203.37 251.549 2202.08 252.861 L2208.26 267.664 Q2208.52 268.249 2208.61 268.507 Q2208.73 268.741 2208.97 269.046 Q2209.22 269.35 2209.41 269.444 Q2209.62 269.538 2210.07 269.655 Q2210.53 269.748 2211 269.772 Q2211.5 269.772 2212.39 269.795 Q2212.67 269.795 2212.78 269.819 Q2212.92 269.819 2213.09 269.959 Q2213.25 270.076 2213.25 270.357 Q2213.25 270.779 2213.06 271.013 Q2212.9 271.224 2212.74 271.247 Q2212.6 271.271 2212.34 271.271 Q2211.73 271.271 2209.67 271.201 Q2207.61 271.13 2207.02 271.13 L2200.98 271.271 Q2200.25 271.271 2200.25 270.685 Q2200.25 270.381 2200.3 270.217 Q2200.37 270.029 2200.53 269.959 Q2200.7 269.865 2200.81 269.842 Q2200.93 269.819 2201.21 269.795 Q2202.08 269.701 2202.74 269.444 Q2203.41 269.163 2203.7 268.882 Q2204 268.601 2204 268.39 L2203.77 267.711 L2198.92 256.257 L2194.58 260.965 L2189.69 266.141 Q2188.4 267.523 2188.4 268.296 Q2188.4 269.584 2190.32 269.795 Q2190.91 269.842 2190.91 270.31 Q2190.91 270.755 2190.72 270.99 Q2190.56 271.201 2190.39 271.247 Q2190.25 271.271 2190.04 271.271 Q2189.17 271.271 2187.35 271.201 Q2185.54 271.13 2184.65 271.13 Q2183.9 271.13 2182.38 271.201 Q2180.86 271.271 2180.16 271.271 Q2179.87 271.271 2179.71 271.13 Q2179.55 270.99 2179.55 270.849 L2179.52 270.732 Q2179.52 270.404 2179.57 270.217 Q2179.64 270.029 2179.83 269.936 Q2180.04 269.842 2180.13 269.842 Q2180.23 269.819 2180.58 269.795 Q2182.57 269.678 2184.25 268.905 Q2185.96 268.132 2187.63 266.329 Q2187.77 266.212 2187.93 266.071 Q2188.12 265.93 2188.26 265.813 L2198.38 254.922 L2192.71 241.524 Q2192.45 240.915 2192.22 240.658 Q2191.98 240.377 2191.26 240.189 Q2190.53 240.002 2189.13 240.002 Q2188.73 240.002 2188.54 239.978 Q2188.35 239.955 2188.19 239.838 Q2188.03 239.721 2188.03 239.463 Q2188.03 239.018 2188.19 238.807 Q2188.38 238.573 2188.52 238.55 Q2188.68 238.503 2188.89 238.503 Q2189.48 238.503 2191.56 238.573 Q2193.65 238.643 2194.26 238.643 Q2195.26 238.643 2197.28 238.573 Q2199.32 238.503 2200.3 238.503 Q2201.03 238.503 2201.03 239.088 Q2201.03 239.463 2200.86 239.674 Q2200.7 239.885 2200.53 239.932 Q2200.37 239.978 2200.07 240.002 Q2199.15 240.096 2198.45 240.4 Q2197.77 240.681 2197.49 240.962 Q2197.23 241.22 2197.23 241.384 L2197.47 242.016 L2201.49 251.549 L2209.27 243.211 Q2210.18 242.18 2210.18 241.477 Q2210.18 240.213 2208.26 240.002 Q2207.68 239.908 2207.68 239.463 Q2207.68 239.018 2207.86 238.807 Q2208.05 238.573 2208.19 238.55 Q2208.36 238.503 2208.59 238.503 Q2209.46 238.503 2211.24 238.573 Q2213.04 238.643 2213.93 238.643 Q2214.68 238.643 2216.2 238.573 Q2217.73 238.503 2218.43 238.503 Q2218.71 238.503 2218.87 238.643 Q2219.04 238.76 2219.04 238.901 L2219.06 239.041 Z" fill="#000000" fill-rule="nonzero" fill-opacity="1" /><path clip-path="url(#clip300)" d="M2251.3 275.28 Q2251.3 275.411 2251.15 275.92 Q2251 276.428 2250.64 277.215 Q2250.3 278.002 2249.8 278.723 Q2249.33 279.428 2248.54 279.953 Q2247.77 280.461 2246.89 280.461 Q2245.71 280.461 2244.92 279.674 Q2244.13 278.887 2244.13 277.707 Q2244.13 277.067 2244.57 275.854 Q2246.66 270.312 2246.66 268.328 Q2246.66 265.984 2244.84 265.984 Q2243.8 265.984 2242.87 266.41 Q2241.93 266.836 2241.33 267.427 Q2240.72 268.017 2240.25 268.689 Q2239.77 269.361 2239.56 269.804 Q2239.36 270.247 2239.31 270.444 L2237.29 278.543 Q2237.13 279.232 2237.02 279.56 Q2236.9 279.887 2236.59 280.166 Q2236.28 280.461 2235.79 280.461 Q2235.38 280.461 2235.08 280.215 Q2234.8 279.969 2234.8 279.543 Q2234.8 279.478 2234.88 279.133 Q2234.97 278.789 2235.08 278.313 Q2235.2 277.838 2235.24 277.559 Q2235.84 275.329 2235.92 275.018 L2236.85 271.116 Q2237.36 269.181 2237.36 268.328 Q2237.36 265.984 2235.54 265.984 Q2234.64 265.984 2233.79 266.328 Q2232.95 266.656 2232.38 267.115 Q2231.8 267.574 2231.28 268.214 Q2230.77 268.837 2230.51 269.263 Q2230.26 269.673 2230.06 270.083 L2229.64 271.755 Q2229.54 272.214 2229.06 274.001 L2228.33 277.035 Q2227.8 279.297 2227.69 279.51 Q2227.52 279.969 2227.16 280.215 Q2226.8 280.461 2226.44 280.461 Q2226.03 280.461 2225.75 280.215 Q2225.47 279.969 2225.47 279.543 Q2225.47 279.478 2225.52 279.232 Q2225.57 278.986 2225.65 278.641 Q2225.74 278.297 2225.77 278.1 L2227.72 270.345 Q2228.08 268.935 2228.16 268.492 Q2228.26 268.033 2228.26 267.525 Q2228.26 265.984 2227.21 265.984 Q2226.36 265.984 2225.8 267 Q2225.24 268.017 2224.77 269.984 Q2224.62 270.526 2224.52 270.64 Q2224.44 270.755 2224.19 270.755 Q2223.78 270.739 2223.78 270.411 Q2223.78 270.329 2223.92 269.804 Q2224.05 269.279 2224.29 268.492 Q2224.55 267.689 2224.83 267.164 Q2225 266.82 2225.15 266.591 Q2225.29 266.361 2225.59 266 Q2225.88 265.64 2226.33 265.443 Q2226.77 265.246 2227.31 265.246 Q2228.51 265.246 2229.39 266.017 Q2230.29 266.787 2230.41 268.165 Q2232.59 265.246 2235.64 265.246 Q2237.36 265.246 2238.39 266.115 Q2239.36 266.951 2239.47 268.492 Q2241.74 265.246 2244.95 265.246 Q2246.8 265.246 2247.8 266.213 Q2248.8 267.164 2248.8 268.837 Q2248.8 269.706 2248.36 271.362 Q2247.92 273.001 2247.62 273.821 Q2247.33 274.641 2246.75 276.215 Q2246.15 277.723 2246.15 278.609 Q2246.15 279.182 2246.34 279.445 Q2246.54 279.707 2246.97 279.707 Q2247.62 279.707 2248.2 279.33 Q2248.77 278.937 2249.18 278.297 Q2249.61 277.641 2249.89 276.985 Q2250.16 276.313 2250.38 275.559 Q2250.51 275.149 2250.57 275.051 Q2250.66 274.952 2250.89 274.952 Q2251.3 274.952 2251.3 275.28 Z" fill="#000000" fill-rule="nonzero" fill-opacity="1" /></svg>
