<?xml version="1.0" encoding="utf-8"?>
<svg xmlns="http://www.w3.org/2000/svg" xmlns:xlink="http://www.w3.org/1999/xlink" width="600" height="400" viewBox="0 0 2400 1600">
<defs>
  <clipPath id="clip620">
    <rect x="0" y="0" width="2400" height="1600"/>
  </clipPath>
</defs>
<path clip-path="url(#clip620)" d="M0 1600 L2400 1600 L2400 0 L0 0  Z" fill="#ffffff" fill-rule="evenodd" fill-opacity="1"/>
<defs>
  <clipPath id="clip621">
    <rect x="480" y="0" width="1681" height="1600"/>
  </clipPath>
</defs>
<path clip-path="url(#clip620)" d="M169.121 1486.45 L2352.76 1486.45 L2352.76 47.2441 L169.121 47.2441  Z" fill="#ffffff" fill-rule="evenodd" fill-opacity="1"/>
<defs>
  <clipPath id="clip622">
    <rect x="169" y="47" width="2185" height="1440"/>
  </clipPath>
</defs>
<polyline clip-path="url(#clip622)" style="stroke:#000000; stroke-linecap:round; stroke-linejoin:round; stroke-width:2; stroke-opacity:0.1; fill:none" points="230.922,1486.45 230.922,47.2441 "/>
<polyline clip-path="url(#clip622)" style="stroke:#000000; stroke-linecap:round; stroke-linejoin:round; stroke-width:2; stroke-opacity:0.1; fill:none" points="345.369,1486.45 345.369,47.2441 "/>
<polyline clip-path="url(#clip622)" style="stroke:#000000; stroke-linecap:round; stroke-linejoin:round; stroke-width:2; stroke-opacity:0.1; fill:none" points="459.815,1486.45 459.815,47.2441 "/>
<polyline clip-path="url(#clip622)" style="stroke:#000000; stroke-linecap:round; stroke-linejoin:round; stroke-width:2; stroke-opacity:0.1; fill:none" points="574.261,1486.45 574.261,47.2441 "/>
<polyline clip-path="url(#clip622)" style="stroke:#000000; stroke-linecap:round; stroke-linejoin:round; stroke-width:2; stroke-opacity:0.1; fill:none" points="688.707,1486.45 688.707,47.2441 "/>
<polyline clip-path="url(#clip622)" style="stroke:#000000; stroke-linecap:round; stroke-linejoin:round; stroke-width:2; stroke-opacity:0.1; fill:none" points="803.154,1486.45 803.154,47.2441 "/>
<polyline clip-path="url(#clip622)" style="stroke:#000000; stroke-linecap:round; stroke-linejoin:round; stroke-width:2; stroke-opacity:0.1; fill:none" points="917.6,1486.45 917.6,47.2441 "/>
<polyline clip-path="url(#clip622)" style="stroke:#000000; stroke-linecap:round; stroke-linejoin:round; stroke-width:2; stroke-opacity:0.1; fill:none" points="1032.05,1486.45 1032.05,47.2441 "/>
<polyline clip-path="url(#clip622)" style="stroke:#000000; stroke-linecap:round; stroke-linejoin:round; stroke-width:2; stroke-opacity:0.1; fill:none" points="1146.49,1486.45 1146.49,47.2441 "/>
<polyline clip-path="url(#clip622)" style="stroke:#000000; stroke-linecap:round; stroke-linejoin:round; stroke-width:2; stroke-opacity:0.1; fill:none" points="1260.94,1486.45 1260.94,47.2441 "/>
<polyline clip-path="url(#clip622)" style="stroke:#000000; stroke-linecap:round; stroke-linejoin:round; stroke-width:2; stroke-opacity:0.1; fill:none" points="1375.38,1486.45 1375.38,47.2441 "/>
<polyline clip-path="url(#clip622)" style="stroke:#000000; stroke-linecap:round; stroke-linejoin:round; stroke-width:2; stroke-opacity:0.1; fill:none" points="1489.83,1486.45 1489.83,47.2441 "/>
<polyline clip-path="url(#clip622)" style="stroke:#000000; stroke-linecap:round; stroke-linejoin:round; stroke-width:2; stroke-opacity:0.1; fill:none" points="1604.28,1486.45 1604.28,47.2441 "/>
<polyline clip-path="url(#clip622)" style="stroke:#000000; stroke-linecap:round; stroke-linejoin:round; stroke-width:2; stroke-opacity:0.1; fill:none" points="1718.72,1486.45 1718.72,47.2441 "/>
<polyline clip-path="url(#clip622)" style="stroke:#000000; stroke-linecap:round; stroke-linejoin:round; stroke-width:2; stroke-opacity:0.1; fill:none" points="1833.17,1486.45 1833.17,47.2441 "/>
<polyline clip-path="url(#clip622)" style="stroke:#000000; stroke-linecap:round; stroke-linejoin:round; stroke-width:2; stroke-opacity:0.1; fill:none" points="1947.62,1486.45 1947.62,47.2441 "/>
<polyline clip-path="url(#clip622)" style="stroke:#000000; stroke-linecap:round; stroke-linejoin:round; stroke-width:2; stroke-opacity:0.1; fill:none" points="2062.06,1486.45 2062.06,47.2441 "/>
<polyline clip-path="url(#clip622)" style="stroke:#000000; stroke-linecap:round; stroke-linejoin:round; stroke-width:2; stroke-opacity:0.1; fill:none" points="2176.51,1486.45 2176.51,47.2441 "/>
<polyline clip-path="url(#clip622)" style="stroke:#000000; stroke-linecap:round; stroke-linejoin:round; stroke-width:2; stroke-opacity:0.1; fill:none" points="2290.95,1486.45 2290.95,47.2441 "/>
<polyline clip-path="url(#clip620)" style="stroke:#000000; stroke-linecap:round; stroke-linejoin:round; stroke-width:4; stroke-opacity:1; fill:none" points="169.121,1486.45 2352.76,1486.45 "/>
<polyline clip-path="url(#clip620)" style="stroke:#000000; stroke-linecap:round; stroke-linejoin:round; stroke-width:4; stroke-opacity:1; fill:none" points="230.922,1486.45 230.922,1467.55 "/>
<polyline clip-path="url(#clip620)" style="stroke:#000000; stroke-linecap:round; stroke-linejoin:round; stroke-width:4; stroke-opacity:1; fill:none" points="345.369,1486.45 345.369,1467.55 "/>
<polyline clip-path="url(#clip620)" style="stroke:#000000; stroke-linecap:round; stroke-linejoin:round; stroke-width:4; stroke-opacity:1; fill:none" points="459.815,1486.45 459.815,1467.55 "/>
<polyline clip-path="url(#clip620)" style="stroke:#000000; stroke-linecap:round; stroke-linejoin:round; stroke-width:4; stroke-opacity:1; fill:none" points="574.261,1486.45 574.261,1467.55 "/>
<polyline clip-path="url(#clip620)" style="stroke:#000000; stroke-linecap:round; stroke-linejoin:round; stroke-width:4; stroke-opacity:1; fill:none" points="688.707,1486.45 688.707,1467.55 "/>
<polyline clip-path="url(#clip620)" style="stroke:#000000; stroke-linecap:round; stroke-linejoin:round; stroke-width:4; stroke-opacity:1; fill:none" points="803.154,1486.45 803.154,1467.55 "/>
<polyline clip-path="url(#clip620)" style="stroke:#000000; stroke-linecap:round; stroke-linejoin:round; stroke-width:4; stroke-opacity:1; fill:none" points="917.6,1486.45 917.6,1467.55 "/>
<polyline clip-path="url(#clip620)" style="stroke:#000000; stroke-linecap:round; stroke-linejoin:round; stroke-width:4; stroke-opacity:1; fill:none" points="1032.05,1486.45 1032.05,1467.55 "/>
<polyline clip-path="url(#clip620)" style="stroke:#000000; stroke-linecap:round; stroke-linejoin:round; stroke-width:4; stroke-opacity:1; fill:none" points="1146.49,1486.45 1146.49,1467.55 "/>
<polyline clip-path="url(#clip620)" style="stroke:#000000; stroke-linecap:round; stroke-linejoin:round; stroke-width:4; stroke-opacity:1; fill:none" points="1260.94,1486.45 1260.94,1467.55 "/>
<polyline clip-path="url(#clip620)" style="stroke:#000000; stroke-linecap:round; stroke-linejoin:round; stroke-width:4; stroke-opacity:1; fill:none" points="1375.38,1486.45 1375.38,1467.55 "/>
<polyline clip-path="url(#clip620)" style="stroke:#000000; stroke-linecap:round; stroke-linejoin:round; stroke-width:4; stroke-opacity:1; fill:none" points="1489.83,1486.45 1489.83,1467.55 "/>
<polyline clip-path="url(#clip620)" style="stroke:#000000; stroke-linecap:round; stroke-linejoin:round; stroke-width:4; stroke-opacity:1; fill:none" points="1604.28,1486.45 1604.28,1467.55 "/>
<polyline clip-path="url(#clip620)" style="stroke:#000000; stroke-linecap:round; stroke-linejoin:round; stroke-width:4; stroke-opacity:1; fill:none" points="1718.72,1486.45 1718.72,1467.55 "/>
<polyline clip-path="url(#clip620)" style="stroke:#000000; stroke-linecap:round; stroke-linejoin:round; stroke-width:4; stroke-opacity:1; fill:none" points="1833.17,1486.45 1833.17,1467.55 "/>
<polyline clip-path="url(#clip620)" style="stroke:#000000; stroke-linecap:round; stroke-linejoin:round; stroke-width:4; stroke-opacity:1; fill:none" points="1947.62,1486.45 1947.62,1467.55 "/>
<polyline clip-path="url(#clip620)" style="stroke:#000000; stroke-linecap:round; stroke-linejoin:round; stroke-width:4; stroke-opacity:1; fill:none" points="2062.06,1486.45 2062.06,1467.55 "/>
<polyline clip-path="url(#clip620)" style="stroke:#000000; stroke-linecap:round; stroke-linejoin:round; stroke-width:4; stroke-opacity:1; fill:none" points="2176.51,1486.45 2176.51,1467.55 "/>
<polyline clip-path="url(#clip620)" style="stroke:#000000; stroke-linecap:round; stroke-linejoin:round; stroke-width:4; stroke-opacity:1; fill:none" points="2290.95,1486.45 2290.95,1467.55 "/>
<path clip-path="url(#clip620)" d="M200.159 1532.02 L229.834 1532.02 L229.834 1535.95 L200.159 1535.95 L200.159 1532.02 Z" fill="#000000" fill-rule="nonzero" fill-opacity="1" /><path clip-path="url(#clip620)" d="M240.066 1548.13 L240.066 1543.87 Q241.825 1544.7 243.631 1545.14 Q245.436 1545.58 247.172 1545.58 Q251.802 1545.58 254.232 1542.48 Q256.686 1539.36 257.033 1533.01 Q255.691 1535.01 253.631 1536.07 Q251.57 1537.13 249.07 1537.13 Q243.885 1537.13 240.853 1534.01 Q237.844 1530.86 237.844 1525.42 Q237.844 1520.1 240.992 1516.88 Q244.14 1513.66 249.371 1513.66 Q255.367 1513.66 258.515 1518.27 Q261.686 1522.85 261.686 1531.6 Q261.686 1539.77 257.797 1544.66 Q253.931 1549.52 247.381 1549.52 Q245.621 1549.52 243.816 1549.17 Q242.01 1548.82 240.066 1548.13 M249.371 1533.48 Q252.519 1533.48 254.348 1531.32 Q256.2 1529.17 256.2 1525.42 Q256.2 1521.7 254.348 1519.54 Q252.519 1517.37 249.371 1517.37 Q246.223 1517.37 244.371 1519.54 Q242.543 1521.7 242.543 1525.42 Q242.543 1529.17 244.371 1531.32 Q246.223 1533.48 249.371 1533.48 Z" fill="#000000" fill-rule="nonzero" fill-opacity="1" /><path clip-path="url(#clip620)" d="M314.559 1532.02 L344.234 1532.02 L344.234 1535.95 L314.559 1535.95 L314.559 1532.02 Z" fill="#000000" fill-rule="nonzero" fill-opacity="1" /><path clip-path="url(#clip620)" d="M364.327 1532.44 Q360.993 1532.44 359.072 1534.22 Q357.174 1536 357.174 1539.13 Q357.174 1542.25 359.072 1544.03 Q360.993 1545.82 364.327 1545.82 Q367.66 1545.82 369.581 1544.03 Q371.503 1542.23 371.503 1539.13 Q371.503 1536 369.581 1534.22 Q367.683 1532.44 364.327 1532.44 M359.651 1530.45 Q356.642 1529.7 354.952 1527.64 Q353.285 1525.58 353.285 1522.62 Q353.285 1518.48 356.225 1516.07 Q359.188 1513.66 364.327 1513.66 Q369.489 1513.66 372.429 1516.07 Q375.368 1518.48 375.368 1522.62 Q375.368 1525.58 373.679 1527.64 Q372.012 1529.7 369.026 1530.45 Q372.405 1531.23 374.28 1533.52 Q376.179 1535.82 376.179 1539.13 Q376.179 1544.15 373.1 1546.83 Q370.044 1549.52 364.327 1549.52 Q358.609 1549.52 355.531 1546.83 Q352.475 1544.15 352.475 1539.13 Q352.475 1535.82 354.373 1533.52 Q356.271 1531.23 359.651 1530.45 M357.938 1523.06 Q357.938 1525.75 359.605 1527.25 Q361.294 1528.76 364.327 1528.76 Q367.336 1528.76 369.026 1527.25 Q370.739 1525.75 370.739 1523.06 Q370.739 1520.38 369.026 1518.87 Q367.336 1517.37 364.327 1517.37 Q361.294 1517.37 359.605 1518.87 Q357.938 1520.38 357.938 1523.06 Z" fill="#000000" fill-rule="nonzero" fill-opacity="1" /><path clip-path="url(#clip620)" d="M429.41 1532.02 L459.086 1532.02 L459.086 1535.95 L429.41 1535.95 L429.41 1532.02 Z" fill="#000000" fill-rule="nonzero" fill-opacity="1" /><path clip-path="url(#clip620)" d="M467.998 1514.29 L490.22 1514.29 L490.22 1516.28 L477.674 1548.85 L472.789 1548.85 L484.595 1518.22 L467.998 1518.22 L467.998 1514.29 Z" fill="#000000" fill-rule="nonzero" fill-opacity="1" /><path clip-path="url(#clip620)" d="M543.324 1532.02 L572.999 1532.02 L572.999 1535.95 L543.324 1535.95 L543.324 1532.02 Z" fill="#000000" fill-rule="nonzero" fill-opacity="1" /><path clip-path="url(#clip620)" d="M593.671 1529.7 Q590.523 1529.7 588.671 1531.86 Q586.842 1534.01 586.842 1537.76 Q586.842 1541.49 588.671 1543.66 Q590.523 1545.82 593.671 1545.82 Q596.819 1545.82 598.648 1543.66 Q600.499 1541.49 600.499 1537.76 Q600.499 1534.01 598.648 1531.86 Q596.819 1529.7 593.671 1529.7 M602.953 1515.05 L602.953 1519.31 Q601.194 1518.48 599.388 1518.04 Q597.606 1517.6 595.847 1517.6 Q591.217 1517.6 588.763 1520.72 Q586.333 1523.85 585.986 1530.17 Q587.351 1528.15 589.411 1527.09 Q591.472 1526 593.948 1526 Q599.157 1526 602.166 1529.17 Q605.198 1532.32 605.198 1537.76 Q605.198 1543.08 602.05 1546.3 Q598.902 1549.52 593.671 1549.52 Q587.675 1549.52 584.504 1544.94 Q581.333 1540.33 581.333 1531.6 Q581.333 1523.41 585.222 1518.55 Q589.111 1513.66 595.661 1513.66 Q597.421 1513.66 599.203 1514.01 Q601.009 1514.36 602.953 1515.05 Z" fill="#000000" fill-rule="nonzero" fill-opacity="1" /><path clip-path="url(#clip620)" d="M658.349 1532.02 L688.024 1532.02 L688.024 1535.95 L658.349 1535.95 L658.349 1532.02 Z" fill="#000000" fill-rule="nonzero" fill-opacity="1" /><path clip-path="url(#clip620)" d="M698.163 1514.29 L716.52 1514.29 L716.52 1518.22 L702.446 1518.22 L702.446 1526.7 Q703.464 1526.35 704.483 1526.19 Q705.501 1526 706.52 1526 Q712.307 1526 715.686 1529.17 Q719.066 1532.34 719.066 1537.76 Q719.066 1543.34 715.594 1546.44 Q712.122 1549.52 705.802 1549.52 Q703.626 1549.52 701.358 1549.15 Q699.112 1548.78 696.705 1548.04 L696.705 1543.34 Q698.788 1544.47 701.01 1545.03 Q703.233 1545.58 705.71 1545.58 Q709.714 1545.58 712.052 1543.48 Q714.39 1541.37 714.39 1537.76 Q714.39 1534.15 712.052 1532.04 Q709.714 1529.94 705.71 1529.94 Q703.835 1529.94 701.96 1530.35 Q700.108 1530.77 698.163 1531.65 L698.163 1514.29 Z" fill="#000000" fill-rule="nonzero" fill-opacity="1" /><path clip-path="url(#clip620)" d="M772.054 1532.02 L801.73 1532.02 L801.73 1535.95 L772.054 1535.95 L772.054 1532.02 Z" fill="#000000" fill-rule="nonzero" fill-opacity="1" /><path clip-path="url(#clip620)" d="M824.67 1518.36 L812.864 1536.81 L824.67 1536.81 L824.67 1518.36 M823.443 1514.29 L829.322 1514.29 L829.322 1536.81 L834.253 1536.81 L834.253 1540.7 L829.322 1540.7 L829.322 1548.85 L824.67 1548.85 L824.67 1540.7 L809.068 1540.7 L809.068 1536.19 L823.443 1514.29 Z" fill="#000000" fill-rule="nonzero" fill-opacity="1" /><path clip-path="url(#clip620)" d="M887.068 1532.02 L916.743 1532.02 L916.743 1535.95 L887.068 1535.95 L887.068 1532.02 Z" fill="#000000" fill-rule="nonzero" fill-opacity="1" /><path clip-path="url(#clip620)" d="M941.002 1530.21 Q944.359 1530.93 946.234 1533.2 Q948.132 1535.47 948.132 1538.8 Q948.132 1543.92 944.614 1546.72 Q941.095 1549.52 934.614 1549.52 Q932.438 1549.52 930.123 1549.08 Q927.831 1548.66 925.378 1547.81 L925.378 1543.29 Q927.322 1544.43 929.637 1545.01 Q931.952 1545.58 934.475 1545.58 Q938.873 1545.58 941.165 1543.85 Q943.479 1542.11 943.479 1538.8 Q943.479 1535.75 941.327 1534.03 Q939.197 1532.3 935.378 1532.3 L931.35 1532.3 L931.35 1528.45 L935.563 1528.45 Q939.012 1528.45 940.84 1527.09 Q942.669 1525.7 942.669 1523.11 Q942.669 1520.45 940.771 1519.03 Q938.896 1517.6 935.378 1517.6 Q933.456 1517.6 931.257 1518.01 Q929.058 1518.43 926.419 1519.31 L926.419 1515.14 Q929.081 1514.4 931.396 1514.03 Q933.734 1513.66 935.794 1513.66 Q941.118 1513.66 944.22 1516.09 Q947.322 1518.5 947.322 1522.62 Q947.322 1525.49 945.678 1527.48 Q944.035 1529.45 941.002 1530.21 Z" fill="#000000" fill-rule="nonzero" fill-opacity="1" /><path clip-path="url(#clip620)" d="M1001.99 1532.02 L1031.66 1532.02 L1031.66 1535.95 L1001.99 1535.95 L1001.99 1532.02 Z" fill="#000000" fill-rule="nonzero" fill-opacity="1" /><path clip-path="url(#clip620)" d="M1045.78 1544.91 L1062.1 1544.91 L1062.1 1548.85 L1040.16 1548.85 L1040.16 1544.91 Q1042.82 1542.16 1047.4 1537.53 Q1052.01 1532.88 1053.19 1531.53 Q1055.44 1529.01 1056.32 1527.27 Q1057.22 1525.51 1057.22 1523.82 Q1057.22 1521.07 1055.28 1519.33 Q1053.35 1517.6 1050.25 1517.6 Q1048.05 1517.6 1045.6 1518.36 Q1043.17 1519.13 1040.39 1520.68 L1040.39 1515.95 Q1043.22 1514.82 1045.67 1514.24 Q1048.12 1513.66 1050.16 1513.66 Q1055.53 1513.66 1058.72 1516.35 Q1061.92 1519.03 1061.92 1523.52 Q1061.92 1525.65 1061.11 1527.57 Q1060.32 1529.47 1058.21 1532.07 Q1057.64 1532.74 1054.53 1535.95 Q1051.43 1539.15 1045.78 1544.91 Z" fill="#000000" fill-rule="nonzero" fill-opacity="1" /><path clip-path="url(#clip620)" d="M1116.25 1532.02 L1145.93 1532.02 L1145.93 1535.95 L1116.25 1535.95 L1116.25 1532.02 Z" fill="#000000" fill-rule="nonzero" fill-opacity="1" /><path clip-path="url(#clip620)" d="M1156.83 1544.91 L1164.47 1544.91 L1164.47 1518.55 L1156.16 1520.21 L1156.16 1515.95 L1164.42 1514.29 L1169.1 1514.29 L1169.1 1544.91 L1176.74 1544.91 L1176.74 1548.85 L1156.83 1548.85 L1156.83 1544.91 Z" fill="#000000" fill-rule="nonzero" fill-opacity="1" /><path clip-path="url(#clip620)" d="M1260.94 1517.37 Q1257.33 1517.37 1255.5 1520.93 Q1253.69 1524.47 1253.69 1531.6 Q1253.69 1538.71 1255.5 1542.27 Q1257.33 1545.82 1260.94 1545.82 Q1264.57 1545.82 1266.38 1542.27 Q1268.21 1538.71 1268.21 1531.6 Q1268.21 1524.47 1266.38 1520.93 Q1264.57 1517.37 1260.94 1517.37 M1260.94 1513.66 Q1266.75 1513.66 1269.8 1518.27 Q1272.88 1522.85 1272.88 1531.6 Q1272.88 1540.33 1269.8 1544.94 Q1266.75 1549.52 1260.94 1549.52 Q1255.13 1549.52 1252.05 1544.94 Q1248.99 1540.33 1248.99 1531.6 Q1248.99 1522.85 1252.05 1518.27 Q1255.13 1513.66 1260.94 1513.66 Z" fill="#000000" fill-rule="nonzero" fill-opacity="1" /><path clip-path="url(#clip620)" d="M1365.77 1544.91 L1373.41 1544.91 L1373.41 1518.55 L1365.1 1520.21 L1365.1 1515.95 L1373.36 1514.29 L1378.04 1514.29 L1378.04 1544.91 L1385.67 1544.91 L1385.67 1548.85 L1365.77 1548.85 L1365.77 1544.91 Z" fill="#000000" fill-rule="nonzero" fill-opacity="1" /><path clip-path="url(#clip620)" d="M1484.48 1544.91 L1500.8 1544.91 L1500.8 1548.85 L1478.86 1548.85 L1478.86 1544.91 Q1481.52 1542.16 1486.1 1537.53 Q1490.71 1532.88 1491.89 1531.53 Q1494.14 1529.01 1495.02 1527.27 Q1495.92 1525.51 1495.92 1523.82 Q1495.92 1521.07 1493.97 1519.33 Q1492.05 1517.6 1488.95 1517.6 Q1486.75 1517.6 1484.3 1518.36 Q1481.87 1519.13 1479.09 1520.68 L1479.09 1515.95 Q1481.91 1514.82 1484.37 1514.24 Q1486.82 1513.66 1488.86 1513.66 Q1494.23 1513.66 1497.42 1516.35 Q1500.62 1519.03 1500.62 1523.52 Q1500.62 1525.65 1499.81 1527.57 Q1499.02 1529.47 1496.91 1532.07 Q1496.34 1532.74 1493.23 1535.95 Q1490.13 1539.15 1484.48 1544.91 Z" fill="#000000" fill-rule="nonzero" fill-opacity="1" /><path clip-path="url(#clip620)" d="M1608.53 1530.21 Q1611.88 1530.93 1613.76 1533.2 Q1615.65 1535.47 1615.65 1538.8 Q1615.65 1543.92 1612.14 1546.72 Q1608.62 1549.52 1602.14 1549.52 Q1599.96 1549.52 1597.65 1549.08 Q1595.35 1548.66 1592.9 1547.81 L1592.9 1543.29 Q1594.84 1544.43 1597.16 1545.01 Q1599.47 1545.58 1602 1545.58 Q1606.4 1545.58 1608.69 1543.85 Q1611 1542.11 1611 1538.8 Q1611 1535.75 1608.85 1534.03 Q1606.72 1532.3 1602.9 1532.3 L1598.87 1532.3 L1598.87 1528.45 L1603.09 1528.45 Q1606.53 1528.45 1608.36 1527.09 Q1610.19 1525.7 1610.19 1523.11 Q1610.19 1520.45 1608.29 1519.03 Q1606.42 1517.6 1602.9 1517.6 Q1600.98 1517.6 1598.78 1518.01 Q1596.58 1518.43 1593.94 1519.31 L1593.94 1515.14 Q1596.6 1514.4 1598.92 1514.03 Q1601.26 1513.66 1603.32 1513.66 Q1608.64 1513.66 1611.74 1516.09 Q1614.84 1518.5 1614.84 1522.62 Q1614.84 1525.49 1613.2 1527.48 Q1611.56 1529.45 1608.53 1530.21 Z" fill="#000000" fill-rule="nonzero" fill-opacity="1" /><path clip-path="url(#clip620)" d="M1721.73 1518.36 L1709.93 1536.81 L1721.73 1536.81 L1721.73 1518.36 M1720.51 1514.29 L1726.39 1514.29 L1726.39 1536.81 L1731.32 1536.81 L1731.32 1540.7 L1726.39 1540.7 L1726.39 1548.85 L1721.73 1548.85 L1721.73 1540.7 L1706.13 1540.7 L1706.13 1536.19 L1720.51 1514.29 Z" fill="#000000" fill-rule="nonzero" fill-opacity="1" /><path clip-path="url(#clip620)" d="M1823.45 1514.29 L1841.8 1514.29 L1841.8 1518.22 L1827.73 1518.22 L1827.73 1526.7 Q1828.75 1526.35 1829.77 1526.19 Q1830.79 1526 1831.8 1526 Q1837.59 1526 1840.97 1529.17 Q1844.35 1532.34 1844.35 1537.76 Q1844.35 1543.34 1840.88 1546.44 Q1837.41 1549.52 1831.09 1549.52 Q1828.91 1549.52 1826.64 1549.15 Q1824.4 1548.78 1821.99 1548.04 L1821.99 1543.34 Q1824.07 1544.47 1826.29 1545.03 Q1828.52 1545.58 1830.99 1545.58 Q1835 1545.58 1837.34 1543.48 Q1839.67 1541.37 1839.67 1537.76 Q1839.67 1534.15 1837.34 1532.04 Q1835 1529.94 1830.99 1529.94 Q1829.12 1529.94 1827.24 1530.35 Q1825.39 1530.77 1823.45 1531.65 L1823.45 1514.29 Z" fill="#000000" fill-rule="nonzero" fill-opacity="1" /><path clip-path="url(#clip620)" d="M1948.02 1529.7 Q1944.87 1529.7 1943.02 1531.86 Q1941.19 1534.01 1941.19 1537.76 Q1941.19 1541.49 1943.02 1543.66 Q1944.87 1545.82 1948.02 1545.82 Q1951.17 1545.82 1953 1543.66 Q1954.85 1541.49 1954.85 1537.76 Q1954.85 1534.01 1953 1531.86 Q1951.17 1529.7 1948.02 1529.7 M1957.3 1515.05 L1957.3 1519.31 Q1955.54 1518.48 1953.74 1518.04 Q1951.96 1517.6 1950.2 1517.6 Q1945.57 1517.6 1943.11 1520.72 Q1940.68 1523.85 1940.34 1530.17 Q1941.7 1528.15 1943.76 1527.09 Q1945.82 1526 1948.3 1526 Q1953.51 1526 1956.52 1529.17 Q1959.55 1532.32 1959.55 1537.76 Q1959.55 1543.08 1956.4 1546.3 Q1953.25 1549.52 1948.02 1549.52 Q1942.03 1549.52 1938.85 1544.94 Q1935.68 1540.33 1935.68 1531.6 Q1935.68 1523.41 1939.57 1518.55 Q1943.46 1513.66 1950.01 1513.66 Q1951.77 1513.66 1953.55 1514.01 Q1955.36 1514.36 1957.3 1515.05 Z" fill="#000000" fill-rule="nonzero" fill-opacity="1" /><path clip-path="url(#clip620)" d="M2050.95 1514.29 L2073.17 1514.29 L2073.17 1516.28 L2060.63 1548.85 L2055.74 1548.85 L2067.55 1518.22 L2050.95 1518.22 L2050.95 1514.29 Z" fill="#000000" fill-rule="nonzero" fill-opacity="1" /><path clip-path="url(#clip620)" d="M2176.51 1532.44 Q2173.18 1532.44 2171.25 1534.22 Q2169.36 1536 2169.36 1539.13 Q2169.36 1542.25 2171.25 1544.03 Q2173.18 1545.82 2176.51 1545.82 Q2179.84 1545.82 2181.76 1544.03 Q2183.68 1542.23 2183.68 1539.13 Q2183.68 1536 2181.76 1534.22 Q2179.87 1532.44 2176.51 1532.44 M2171.83 1530.45 Q2168.82 1529.7 2167.13 1527.64 Q2165.47 1525.58 2165.47 1522.62 Q2165.47 1518.48 2168.41 1516.07 Q2171.37 1513.66 2176.51 1513.66 Q2181.67 1513.66 2184.61 1516.07 Q2187.55 1518.48 2187.55 1522.62 Q2187.55 1525.58 2185.86 1527.64 Q2184.19 1529.7 2181.21 1530.45 Q2184.59 1531.23 2186.46 1533.52 Q2188.36 1535.82 2188.36 1539.13 Q2188.36 1544.15 2185.28 1546.83 Q2182.23 1549.52 2176.51 1549.52 Q2170.79 1549.52 2167.71 1546.83 Q2164.66 1544.15 2164.66 1539.13 Q2164.66 1535.82 2166.56 1533.52 Q2168.45 1531.23 2171.83 1530.45 M2170.12 1523.06 Q2170.12 1525.75 2171.79 1527.25 Q2173.48 1528.76 2176.51 1528.76 Q2179.52 1528.76 2181.21 1527.25 Q2182.92 1525.75 2182.92 1523.06 Q2182.92 1520.38 2181.21 1518.87 Q2179.52 1517.37 2176.51 1517.37 Q2173.48 1517.37 2171.79 1518.87 Q2170.12 1520.38 2170.12 1523.06 Z" fill="#000000" fill-rule="nonzero" fill-opacity="1" /><path clip-path="url(#clip620)" d="M2281.26 1548.13 L2281.26 1543.87 Q2283.02 1544.7 2284.82 1545.14 Q2286.63 1545.58 2288.36 1545.58 Q2292.99 1545.58 2295.42 1542.48 Q2297.88 1539.36 2298.22 1533.01 Q2296.88 1535.01 2294.82 1536.07 Q2292.76 1537.13 2290.26 1537.13 Q2285.08 1537.13 2282.04 1534.01 Q2279.03 1530.86 2279.03 1525.42 Q2279.03 1520.1 2282.18 1516.88 Q2285.33 1513.66 2290.56 1513.66 Q2296.56 1513.66 2299.7 1518.27 Q2302.88 1522.85 2302.88 1531.6 Q2302.88 1539.77 2298.99 1544.66 Q2295.12 1549.52 2288.57 1549.52 Q2286.81 1549.52 2285.01 1549.17 Q2283.2 1548.82 2281.26 1548.13 M2290.56 1533.48 Q2293.71 1533.48 2295.54 1531.32 Q2297.39 1529.17 2297.39 1525.42 Q2297.39 1521.7 2295.54 1519.54 Q2293.71 1517.37 2290.56 1517.37 Q2287.41 1517.37 2285.56 1519.54 Q2283.73 1521.7 2283.73 1525.42 Q2283.73 1529.17 2285.56 1531.32 Q2287.41 1533.48 2290.56 1533.48 Z" fill="#000000" fill-rule="nonzero" fill-opacity="1" /><polyline clip-path="url(#clip622)" style="stroke:#000000; stroke-linecap:round; stroke-linejoin:round; stroke-width:2; stroke-opacity:0.1; fill:none" points="169.121,1459.43 2352.76,1459.43 "/>
<polyline clip-path="url(#clip622)" style="stroke:#000000; stroke-linecap:round; stroke-linejoin:round; stroke-width:2; stroke-opacity:0.1; fill:none" points="169.121,1116.57 2352.76,1116.57 "/>
<polyline clip-path="url(#clip622)" style="stroke:#000000; stroke-linecap:round; stroke-linejoin:round; stroke-width:2; stroke-opacity:0.1; fill:none" points="169.121,773.703 2352.76,773.703 "/>
<polyline clip-path="url(#clip622)" style="stroke:#000000; stroke-linecap:round; stroke-linejoin:round; stroke-width:2; stroke-opacity:0.1; fill:none" points="169.121,430.84 2352.76,430.84 "/>
<polyline clip-path="url(#clip622)" style="stroke:#000000; stroke-linecap:round; stroke-linejoin:round; stroke-width:2; stroke-opacity:0.1; fill:none" points="169.121,87.9763 2352.76,87.9763 "/>
<polyline clip-path="url(#clip620)" style="stroke:#000000; stroke-linecap:round; stroke-linejoin:round; stroke-width:4; stroke-opacity:1; fill:none" points="169.121,1486.45 169.121,47.2441 "/>
<polyline clip-path="url(#clip620)" style="stroke:#000000; stroke-linecap:round; stroke-linejoin:round; stroke-width:4; stroke-opacity:1; fill:none" points="169.121,1459.43 188.019,1459.43 "/>
<polyline clip-path="url(#clip620)" style="stroke:#000000; stroke-linecap:round; stroke-linejoin:round; stroke-width:4; stroke-opacity:1; fill:none" points="169.121,1116.57 188.019,1116.57 "/>
<polyline clip-path="url(#clip620)" style="stroke:#000000; stroke-linecap:round; stroke-linejoin:round; stroke-width:4; stroke-opacity:1; fill:none" points="169.121,773.703 188.019,773.703 "/>
<polyline clip-path="url(#clip620)" style="stroke:#000000; stroke-linecap:round; stroke-linejoin:round; stroke-width:4; stroke-opacity:1; fill:none" points="169.121,430.84 188.019,430.84 "/>
<polyline clip-path="url(#clip620)" style="stroke:#000000; stroke-linecap:round; stroke-linejoin:round; stroke-width:4; stroke-opacity:1; fill:none" points="169.121,87.9763 188.019,87.9763 "/>
<path clip-path="url(#clip620)" d="M121.177 1445.23 Q117.566 1445.23 115.737 1448.79 Q113.932 1452.34 113.932 1459.46 Q113.932 1466.57 115.737 1470.14 Q117.566 1473.68 121.177 1473.68 Q124.811 1473.68 126.617 1470.14 Q128.445 1466.57 128.445 1459.46 Q128.445 1452.34 126.617 1448.79 Q124.811 1445.23 121.177 1445.23 M121.177 1441.53 Q126.987 1441.53 130.043 1446.13 Q133.121 1450.72 133.121 1459.46 Q133.121 1468.19 130.043 1472.8 Q126.987 1477.38 121.177 1477.38 Q115.367 1477.38 112.288 1472.8 Q109.233 1468.19 109.233 1459.46 Q109.233 1450.72 112.288 1446.13 Q115.367 1441.53 121.177 1441.53 Z" fill="#000000" fill-rule="nonzero" fill-opacity="1" /><path clip-path="url(#clip620)" d="M86.0382 1129.91 L102.358 1129.91 L102.358 1133.85 L80.4133 1133.85 L80.4133 1129.91 Q83.0753 1127.16 87.6586 1122.53 Q92.2651 1117.87 93.4456 1116.53 Q95.691 1114.01 96.5706 1112.27 Q97.4734 1110.51 97.4734 1108.82 Q97.4734 1106.07 95.5289 1104.33 Q93.6076 1102.6 90.5058 1102.6 Q88.3067 1102.6 85.8531 1103.36 Q83.4225 1104.12 80.6447 1105.68 L80.6447 1100.95 Q83.4688 1099.82 85.9225 1099.24 Q88.3762 1098.66 90.4132 1098.66 Q95.7836 1098.66 98.978 1101.35 Q102.172 1104.03 102.172 1108.52 Q102.172 1110.65 101.362 1112.57 Q100.575 1114.47 98.4687 1117.06 Q97.89 1117.74 94.7882 1120.95 Q91.6864 1124.15 86.0382 1129.91 Z" fill="#000000" fill-rule="nonzero" fill-opacity="1" /><path clip-path="url(#clip620)" d="M112.219 1099.29 L130.575 1099.29 L130.575 1103.22 L116.501 1103.22 L116.501 1111.69 Q117.52 1111.35 118.538 1111.18 Q119.557 1111 120.575 1111 Q126.362 1111 129.742 1114.17 Q133.121 1117.34 133.121 1122.76 Q133.121 1128.34 129.649 1131.44 Q126.177 1134.52 119.857 1134.52 Q117.682 1134.52 115.413 1134.15 Q113.168 1133.78 110.76 1133.04 L110.76 1128.34 Q112.844 1129.47 115.066 1130.03 Q117.288 1130.58 119.765 1130.58 Q123.77 1130.58 126.107 1128.48 Q128.445 1126.37 128.445 1122.76 Q128.445 1119.15 126.107 1117.04 Q123.77 1114.93 119.765 1114.93 Q117.89 1114.93 116.015 1115.35 Q114.163 1115.77 112.219 1116.65 L112.219 1099.29 Z" fill="#000000" fill-rule="nonzero" fill-opacity="1" /><path clip-path="url(#clip620)" d="M81.0614 756.423 L99.4178 756.423 L99.4178 760.358 L85.3438 760.358 L85.3438 768.831 Q86.3623 768.483 87.3808 768.321 Q88.3993 768.136 89.4178 768.136 Q95.2049 768.136 98.5845 771.307 Q101.964 774.479 101.964 779.895 Q101.964 785.474 98.4919 788.576 Q95.0197 791.655 88.7003 791.655 Q86.5243 791.655 84.2558 791.284 Q82.0105 790.914 79.6031 790.173 L79.6031 785.474 Q81.6864 786.608 83.9086 787.164 Q86.1308 787.719 88.6077 787.719 Q92.6123 787.719 94.9502 785.613 Q97.2882 783.506 97.2882 779.895 Q97.2882 776.284 94.9502 774.178 Q92.6123 772.071 88.6077 772.071 Q86.7327 772.071 84.8577 772.488 Q83.0058 772.905 81.0614 773.784 L81.0614 756.423 Z" fill="#000000" fill-rule="nonzero" fill-opacity="1" /><path clip-path="url(#clip620)" d="M121.177 759.502 Q117.566 759.502 115.737 763.067 Q113.932 766.608 113.932 773.738 Q113.932 780.844 115.737 784.409 Q117.566 787.951 121.177 787.951 Q124.811 787.951 126.617 784.409 Q128.445 780.844 128.445 773.738 Q128.445 766.608 126.617 763.067 Q124.811 759.502 121.177 759.502 M121.177 755.798 Q126.987 755.798 130.043 760.405 Q133.121 764.988 133.121 773.738 Q133.121 782.465 130.043 787.071 Q126.987 791.655 121.177 791.655 Q115.367 791.655 112.288 787.071 Q109.233 782.465 109.233 773.738 Q109.233 764.988 112.288 760.405 Q115.367 755.798 121.177 755.798 Z" fill="#000000" fill-rule="nonzero" fill-opacity="1" /><path clip-path="url(#clip620)" d="M80.8299 413.56 L103.052 413.56 L103.052 415.55 L90.5058 448.12 L85.6216 448.12 L97.4271 417.495 L80.8299 417.495 L80.8299 413.56 Z" fill="#000000" fill-rule="nonzero" fill-opacity="1" /><path clip-path="url(#clip620)" d="M112.219 413.56 L130.575 413.56 L130.575 417.495 L116.501 417.495 L116.501 425.967 Q117.52 425.62 118.538 425.458 Q119.557 425.273 120.575 425.273 Q126.362 425.273 129.742 428.444 Q133.121 431.615 133.121 437.032 Q133.121 442.611 129.649 445.712 Q126.177 448.791 119.857 448.791 Q117.682 448.791 115.413 448.421 Q113.168 448.05 110.76 447.31 L110.76 442.611 Q112.844 443.745 115.066 444.3 Q117.288 444.856 119.765 444.856 Q123.77 444.856 126.107 442.749 Q128.445 440.643 128.445 437.032 Q128.445 433.421 126.107 431.314 Q123.77 429.208 119.765 429.208 Q117.89 429.208 116.015 429.624 Q114.163 430.041 112.219 430.921 L112.219 413.56 Z" fill="#000000" fill-rule="nonzero" fill-opacity="1" /><path clip-path="url(#clip620)" d="M51.6634 101.321 L59.3023 101.321 L59.3023 74.9555 L50.9921 76.6222 L50.9921 72.3629 L59.256 70.6963 L63.9319 70.6963 L63.9319 101.321 L71.5707 101.321 L71.5707 105.256 L51.6634 105.256 L51.6634 101.321 Z" fill="#000000" fill-rule="nonzero" fill-opacity="1" /><path clip-path="url(#clip620)" d="M91.0151 73.775 Q87.404 73.775 85.5753 77.3398 Q83.7697 80.8814 83.7697 88.011 Q83.7697 95.1174 85.5753 98.6822 Q87.404 102.224 91.0151 102.224 Q94.6493 102.224 96.4548 98.6822 Q98.2835 95.1174 98.2835 88.011 Q98.2835 80.8814 96.4548 77.3398 Q94.6493 73.775 91.0151 73.775 M91.0151 70.0713 Q96.8252 70.0713 99.8808 74.6777 Q102.959 79.261 102.959 88.011 Q102.959 96.7378 99.8808 101.344 Q96.8252 105.928 91.0151 105.928 Q85.2049 105.928 82.1262 101.344 Q79.0707 96.7378 79.0707 88.011 Q79.0707 79.261 82.1262 74.6777 Q85.2049 70.0713 91.0151 70.0713 Z" fill="#000000" fill-rule="nonzero" fill-opacity="1" /><path clip-path="url(#clip620)" d="M121.177 73.775 Q117.566 73.775 115.737 77.3398 Q113.932 80.8814 113.932 88.011 Q113.932 95.1174 115.737 98.6822 Q117.566 102.224 121.177 102.224 Q124.811 102.224 126.617 98.6822 Q128.445 95.1174 128.445 88.011 Q128.445 80.8814 126.617 77.3398 Q124.811 73.775 121.177 73.775 M121.177 70.0713 Q126.987 70.0713 130.043 74.6777 Q133.121 79.261 133.121 88.011 Q133.121 96.7378 130.043 101.344 Q126.987 105.928 121.177 105.928 Q115.367 105.928 112.288 101.344 Q109.233 96.7378 109.233 88.011 Q109.233 79.261 112.288 74.6777 Q115.367 70.0713 121.177 70.0713 Z" fill="#000000" fill-rule="nonzero" fill-opacity="1" /><circle clip-path="url(#clip622)" cx="230.922" cy="1198.85" r="14.4" fill="#009af9" fill-rule="evenodd" fill-opacity="1" stroke="#000000" stroke-opacity="1" stroke-width="3.2"/>
<circle clip-path="url(#clip622)" cx="345.369" cy="965.707" r="14.4" fill="#009af9" fill-rule="evenodd" fill-opacity="1" stroke="#000000" stroke-opacity="1" stroke-width="3.2"/>
<circle clip-path="url(#clip622)" cx="459.815" cy="759.989" r="14.4" fill="#009af9" fill-rule="evenodd" fill-opacity="1" stroke="#000000" stroke-opacity="1" stroke-width="3.2"/>
<circle clip-path="url(#clip622)" cx="574.261" cy="581.7" r="14.4" fill="#009af9" fill-rule="evenodd" fill-opacity="1" stroke="#000000" stroke-opacity="1" stroke-width="3.2"/>
<circle clip-path="url(#clip622)" cx="688.707" cy="430.84" r="14.4" fill="#009af9" fill-rule="evenodd" fill-opacity="1" stroke="#000000" stroke-opacity="1" stroke-width="3.2"/>
<circle clip-path="url(#clip622)" cx="803.154" cy="307.409" r="14.4" fill="#009af9" fill-rule="evenodd" fill-opacity="1" stroke="#000000" stroke-opacity="1" stroke-width="3.2"/>
<circle clip-path="url(#clip622)" cx="917.6" cy="211.407" r="14.4" fill="#009af9" fill-rule="evenodd" fill-opacity="1" stroke="#000000" stroke-opacity="1" stroke-width="3.2"/>
<circle clip-path="url(#clip622)" cx="1032.05" cy="142.834" r="14.4" fill="#009af9" fill-rule="evenodd" fill-opacity="1" stroke="#000000" stroke-opacity="1" stroke-width="3.2"/>
<circle clip-path="url(#clip622)" cx="1146.49" cy="101.691" r="14.4" fill="#009af9" fill-rule="evenodd" fill-opacity="1" stroke="#000000" stroke-opacity="1" stroke-width="3.2"/>
<circle clip-path="url(#clip622)" cx="1260.94" cy="87.9763" r="14.4" fill="#009af9" fill-rule="evenodd" fill-opacity="1" stroke="#000000" stroke-opacity="1" stroke-width="3.2"/>
<circle clip-path="url(#clip622)" cx="1375.38" cy="101.691" r="14.4" fill="#009af9" fill-rule="evenodd" fill-opacity="1" stroke="#000000" stroke-opacity="1" stroke-width="3.2"/>
<circle clip-path="url(#clip622)" cx="1489.83" cy="142.834" r="14.4" fill="#009af9" fill-rule="evenodd" fill-opacity="1" stroke="#000000" stroke-opacity="1" stroke-width="3.2"/>
<circle clip-path="url(#clip622)" cx="1604.28" cy="211.407" r="14.4" fill="#009af9" fill-rule="evenodd" fill-opacity="1" stroke="#000000" stroke-opacity="1" stroke-width="3.2"/>
<circle clip-path="url(#clip622)" cx="1718.72" cy="307.409" r="14.4" fill="#009af9" fill-rule="evenodd" fill-opacity="1" stroke="#000000" stroke-opacity="1" stroke-width="3.2"/>
<circle clip-path="url(#clip622)" cx="1833.17" cy="430.84" r="14.4" fill="#009af9" fill-rule="evenodd" fill-opacity="1" stroke="#000000" stroke-opacity="1" stroke-width="3.2"/>
<circle clip-path="url(#clip622)" cx="1947.62" cy="581.7" r="14.4" fill="#009af9" fill-rule="evenodd" fill-opacity="1" stroke="#000000" stroke-opacity="1" stroke-width="3.2"/>
<circle clip-path="url(#clip622)" cx="2062.06" cy="759.989" r="14.4" fill="#009af9" fill-rule="evenodd" fill-opacity="1" stroke="#000000" stroke-opacity="1" stroke-width="3.2"/>
<circle clip-path="url(#clip622)" cx="2176.51" cy="965.707" r="14.4" fill="#009af9" fill-rule="evenodd" fill-opacity="1" stroke="#000000" stroke-opacity="1" stroke-width="3.2"/>
<circle clip-path="url(#clip622)" cx="2290.95" cy="1198.85" r="14.4" fill="#009af9" fill-rule="evenodd" fill-opacity="1" stroke="#000000" stroke-opacity="1" stroke-width="3.2"/>
<path clip-path="url(#clip620)" d="M1806.03 198.898 L2279.97 198.898 L2279.97 95.2176 L1806.03 95.2176  Z" fill="#ffffff" fill-rule="evenodd" fill-opacity="1"/>
<polyline clip-path="url(#clip620)" style="stroke:#000000; stroke-linecap:round; stroke-linejoin:round; stroke-width:4; stroke-opacity:1; fill:none" points="1806.03,198.898 2279.97,198.898 2279.97,95.2176 1806.03,95.2176 1806.03,198.898 "/>
<circle clip-path="url(#clip620)" cx="1903.08" cy="147.058" r="20.48" fill="#009af9" fill-rule="evenodd" fill-opacity="1" stroke="#000000" stroke-opacity="1" stroke-width="4.55111"/>
<path clip-path="url(#clip620)" d="M2018.55 139.176 L2018.55 143.203 Q2016.75 142.277 2014.8 141.815 Q2012.86 141.352 2010.78 141.352 Q2007.6 141.352 2006.01 142.324 Q2004.43 143.296 2004.43 145.24 Q2004.43 146.722 2005.57 147.578 Q2006.7 148.412 2010.13 149.176 L2011.59 149.5 Q2016.12 150.472 2018.02 152.254 Q2019.94 154.014 2019.94 157.185 Q2019.94 160.796 2017.07 162.902 Q2014.23 165.009 2009.23 165.009 Q2007.14 165.009 2004.87 164.592 Q2002.63 164.199 2000.13 163.388 L2000.13 158.99 Q2002.49 160.217 2004.78 160.842 Q2007.07 161.444 2009.32 161.444 Q2012.33 161.444 2013.95 160.426 Q2015.57 159.384 2015.57 157.509 Q2015.57 155.773 2014.39 154.847 Q2013.23 153.921 2009.27 153.064 L2007.79 152.717 Q2003.83 151.884 2002.07 150.171 Q2000.31 148.435 2000.31 145.426 Q2000.31 141.768 2002.91 139.778 Q2005.5 137.787 2010.27 137.787 Q2012.63 137.787 2014.71 138.134 Q2016.79 138.481 2018.55 139.176 M2008.69 135.125 L2003.02 126.421 L2006.24 126.421 L2010.41 132.092 L2014.57 126.421 L2017.79 126.421 L2012.12 135.125 L2008.69 135.125 M2010.31 137.787 L2010.31 137.787 Z" fill="#000000" fill-rule="nonzero" fill-opacity="1" /><path clip-path="url(#clip620)" d="M2030.94 131.051 L2030.94 138.412 L2039.71 138.412 L2039.71 141.722 L2030.94 141.722 L2030.94 155.796 Q2030.94 158.967 2031.79 159.87 Q2032.67 160.773 2035.34 160.773 L2039.71 160.773 L2039.71 164.338 L2035.34 164.338 Q2030.41 164.338 2028.53 162.509 Q2026.66 160.657 2026.66 155.796 L2026.66 141.722 L2023.53 141.722 L2023.53 138.412 L2026.66 138.412 L2026.66 131.051 L2030.94 131.051 Z" fill="#000000" fill-rule="nonzero" fill-opacity="1" /><path clip-path="url(#clip620)" d="M2045.91 158.458 L2050.8 158.458 L2050.8 164.338 L2045.91 164.338 L2045.91 158.458 Z" fill="#000000" fill-rule="nonzero" fill-opacity="1" /><path clip-path="url(#clip620)" d="M2075.29 128.319 L2079.57 128.319 L2079.57 149.592 L2092.28 138.412 L2097.72 138.412 L2083.97 150.541 L2098.3 164.338 L2092.74 164.338 L2079.57 151.676 L2079.57 164.338 L2075.29 164.338 L2075.29 128.319 Z" fill="#000000" fill-rule="nonzero" fill-opacity="1" /><path clip-path="url(#clip620)" d="M2111.26 141.398 Q2107.84 141.398 2105.85 144.083 Q2103.85 146.745 2103.85 151.398 Q2103.85 156.051 2105.82 158.736 Q2107.81 161.398 2111.26 161.398 Q2114.66 161.398 2116.66 158.713 Q2118.65 156.027 2118.65 151.398 Q2118.65 146.791 2116.66 144.106 Q2114.66 141.398 2111.26 141.398 M2111.26 137.787 Q2116.82 137.787 2119.99 141.398 Q2123.16 145.009 2123.16 151.398 Q2123.16 157.764 2119.99 161.398 Q2116.82 165.009 2111.26 165.009 Q2105.68 165.009 2102.51 161.398 Q2099.36 157.764 2099.36 151.398 Q2099.36 145.009 2102.51 141.398 Q2105.68 137.787 2111.26 137.787 Z" fill="#000000" fill-rule="nonzero" fill-opacity="1" /><path clip-path="url(#clip620)" d="M2145.24 142.393 Q2144.53 141.977 2143.67 141.791 Q2142.84 141.583 2141.82 141.583 Q2138.21 141.583 2136.26 143.944 Q2134.34 146.282 2134.34 150.68 L2134.34 164.338 L2130.06 164.338 L2130.06 138.412 L2134.34 138.412 L2134.34 142.44 Q2135.68 140.078 2137.84 138.944 Q2139.99 137.787 2143.07 137.787 Q2143.51 137.787 2144.04 137.856 Q2144.57 137.903 2145.22 138.018 L2145.24 142.393 Z" fill="#000000" fill-rule="nonzero" fill-opacity="1" /><path clip-path="url(#clip620)" d="M2161.49 151.305 Q2156.33 151.305 2154.34 152.486 Q2152.35 153.666 2152.35 156.514 Q2152.35 158.782 2153.83 160.125 Q2155.34 161.444 2157.91 161.444 Q2161.45 161.444 2163.58 158.944 Q2165.73 156.421 2165.73 152.254 L2165.73 151.305 L2161.49 151.305 M2169.99 149.546 L2169.99 164.338 L2165.73 164.338 L2165.73 160.402 Q2164.27 162.763 2162.09 163.898 Q2159.92 165.009 2156.77 165.009 Q2152.79 165.009 2150.43 162.787 Q2148.09 160.541 2148.09 156.791 Q2148.09 152.416 2151.01 150.194 Q2153.95 147.972 2159.76 147.972 L2165.73 147.972 L2165.73 147.555 Q2165.73 144.615 2163.78 143.018 Q2161.86 141.398 2158.37 141.398 Q2156.15 141.398 2154.04 141.93 Q2151.93 142.463 2149.99 143.527 L2149.99 139.592 Q2152.33 138.69 2154.53 138.25 Q2156.72 137.787 2158.81 137.787 Q2164.43 137.787 2167.21 140.703 Q2169.99 143.62 2169.99 149.546 Z" fill="#000000" fill-rule="nonzero" fill-opacity="1" /><path clip-path="url(#clip620)" d="M2178.6 128.319 L2182.88 128.319 L2182.88 149.592 L2195.59 138.412 L2201.03 138.412 L2187.28 150.541 L2201.61 164.338 L2196.05 164.338 L2182.88 151.676 L2182.88 164.338 L2178.6 164.338 L2178.6 128.319 Z" fill="#000000" fill-rule="nonzero" fill-opacity="1" /><path clip-path="url(#clip620)" d="M2214.57 141.398 Q2211.15 141.398 2209.15 144.083 Q2207.16 146.745 2207.16 151.398 Q2207.16 156.051 2209.13 158.736 Q2211.12 161.398 2214.57 161.398 Q2217.97 161.398 2219.96 158.713 Q2221.96 156.027 2221.96 151.398 Q2221.96 146.791 2219.96 144.106 Q2217.97 141.398 2214.57 141.398 M2214.57 137.787 Q2220.13 137.787 2223.3 141.398 Q2226.47 145.009 2226.47 151.398 Q2226.47 157.764 2223.3 161.398 Q2220.13 165.009 2214.57 165.009 Q2208.99 165.009 2205.82 161.398 Q2202.67 157.764 2202.67 151.398 Q2202.67 145.009 2205.82 141.398 Q2208.99 137.787 2214.57 137.787 Z" fill="#000000" fill-rule="nonzero" fill-opacity="1" /><path clip-path="url(#clip620)" d="M2230.47 138.412 L2234.99 138.412 L2243.09 160.171 L2251.19 138.412 L2255.71 138.412 L2245.98 164.338 L2240.2 164.338 L2230.47 138.412 Z" fill="#000000" fill-rule="nonzero" fill-opacity="1" /></svg>
