<?xml version="1.0" encoding="utf-8"?>
<svg xmlns="http://www.w3.org/2000/svg" xmlns:xlink="http://www.w3.org/1999/xlink" width="600" height="400" viewBox="0 0 2400 1600">
<defs>
  <clipPath id="clip690">
    <rect x="0" y="0" width="2400" height="1600"/>
  </clipPath>
</defs>
<path clip-path="url(#clip690)" d="M0 1600 L2400 1600 L2400 0 L0 0  Z" fill="#ffffff" fill-rule="evenodd" fill-opacity="1"/>
<defs>
  <clipPath id="clip691">
    <rect x="480" y="0" width="1681" height="1600"/>
  </clipPath>
</defs>
<path clip-path="url(#clip690)" d="M235.283 1423.18 L2352.76 1423.18 L2352.76 47.2441 L235.283 47.2441  Z" fill="#ffffff" fill-rule="evenodd" fill-opacity="1"/>
<defs>
  <clipPath id="clip692">
    <rect x="235" y="47" width="2118" height="1377"/>
  </clipPath>
</defs>
<polyline clip-path="url(#clip692)" style="stroke:#000000; stroke-linecap:round; stroke-linejoin:round; stroke-width:2; stroke-opacity:0.1; fill:none" points="604.919,1423.18 604.919,47.2441 "/>
<polyline clip-path="url(#clip692)" style="stroke:#000000; stroke-linecap:round; stroke-linejoin:round; stroke-width:2; stroke-opacity:0.1; fill:none" points="1069.48,1423.18 1069.48,47.2441 "/>
<polyline clip-path="url(#clip692)" style="stroke:#000000; stroke-linecap:round; stroke-linejoin:round; stroke-width:2; stroke-opacity:0.1; fill:none" points="1534.04,1423.18 1534.04,47.2441 "/>
<polyline clip-path="url(#clip692)" style="stroke:#000000; stroke-linecap:round; stroke-linejoin:round; stroke-width:2; stroke-opacity:0.1; fill:none" points="1998.6,1423.18 1998.6,47.2441 "/>
<polyline clip-path="url(#clip690)" style="stroke:#000000; stroke-linecap:round; stroke-linejoin:round; stroke-width:4; stroke-opacity:1; fill:none" points="235.283,1423.18 2352.76,1423.18 "/>
<polyline clip-path="url(#clip690)" style="stroke:#000000; stroke-linecap:round; stroke-linejoin:round; stroke-width:4; stroke-opacity:1; fill:none" points="604.919,1423.18 604.919,1404.28 "/>
<polyline clip-path="url(#clip690)" style="stroke:#000000; stroke-linecap:round; stroke-linejoin:round; stroke-width:4; stroke-opacity:1; fill:none" points="1069.48,1423.18 1069.48,1404.28 "/>
<polyline clip-path="url(#clip690)" style="stroke:#000000; stroke-linecap:round; stroke-linejoin:round; stroke-width:4; stroke-opacity:1; fill:none" points="1534.04,1423.18 1534.04,1404.28 "/>
<polyline clip-path="url(#clip690)" style="stroke:#000000; stroke-linecap:round; stroke-linejoin:round; stroke-width:4; stroke-opacity:1; fill:none" points="1998.6,1423.18 1998.6,1404.28 "/>
<path clip-path="url(#clip690)" d="M582.396 1454.1 Q578.785 1454.1 576.956 1457.66 Q575.151 1461.2 575.151 1468.33 Q575.151 1475.44 576.956 1479.01 Q578.785 1482.55 582.396 1482.55 Q586.03 1482.55 587.836 1479.01 Q589.665 1475.44 589.665 1468.33 Q589.665 1461.2 587.836 1457.66 Q586.03 1454.1 582.396 1454.1 M582.396 1450.39 Q588.206 1450.39 591.262 1455 Q594.341 1459.58 594.341 1468.33 Q594.341 1477.06 591.262 1481.67 Q588.206 1486.25 582.396 1486.25 Q576.586 1486.25 573.507 1481.67 Q570.452 1477.06 570.452 1468.33 Q570.452 1459.58 573.507 1455 Q576.586 1450.39 582.396 1450.39 Z" fill="#000000" fill-rule="nonzero" fill-opacity="1" /><path clip-path="url(#clip690)" d="M602.558 1479.7 L607.442 1479.7 L607.442 1485.58 L602.558 1485.58 L602.558 1479.7 Z" fill="#000000" fill-rule="nonzero" fill-opacity="1" /><path clip-path="url(#clip690)" d="M617.766 1484.86 L617.766 1480.6 Q619.526 1481.44 621.331 1481.88 Q623.137 1482.32 624.873 1482.32 Q629.502 1482.32 631.933 1479.21 Q634.387 1476.09 634.734 1469.75 Q633.391 1471.74 631.331 1472.8 Q629.271 1473.87 626.771 1473.87 Q621.586 1473.87 618.553 1470.74 Q615.544 1467.59 615.544 1462.15 Q615.544 1456.83 618.692 1453.61 Q621.84 1450.39 627.072 1450.39 Q633.067 1450.39 636.215 1455 Q639.387 1459.58 639.387 1468.33 Q639.387 1476.51 635.498 1481.39 Q631.632 1486.25 625.081 1486.25 Q623.322 1486.25 621.516 1485.9 Q619.711 1485.56 617.766 1484.86 M627.072 1470.21 Q630.22 1470.21 632.049 1468.06 Q633.901 1465.9 633.901 1462.15 Q633.901 1458.43 632.049 1456.27 Q630.22 1454.1 627.072 1454.1 Q623.924 1454.1 622.072 1456.27 Q620.243 1458.43 620.243 1462.15 Q620.243 1465.9 622.072 1468.06 Q623.924 1470.21 627.072 1470.21 Z" fill="#000000" fill-rule="nonzero" fill-opacity="1" /><path clip-path="url(#clip690)" d="M1037.43 1481.64 L1045.07 1481.64 L1045.07 1455.28 L1036.76 1456.95 L1036.76 1452.69 L1045.03 1451.02 L1049.7 1451.02 L1049.7 1481.64 L1057.34 1481.64 L1057.34 1485.58 L1037.43 1485.58 L1037.43 1481.64 Z" fill="#000000" fill-rule="nonzero" fill-opacity="1" /><path clip-path="url(#clip690)" d="M1066.78 1479.7 L1071.67 1479.7 L1071.67 1485.58 L1066.78 1485.58 L1066.78 1479.7 Z" fill="#000000" fill-rule="nonzero" fill-opacity="1" /><path clip-path="url(#clip690)" d="M1085.88 1481.64 L1102.2 1481.64 L1102.2 1485.58 L1080.26 1485.58 L1080.26 1481.64 Q1082.92 1478.89 1087.5 1474.26 Q1092.11 1469.61 1093.29 1468.27 Q1095.53 1465.74 1096.41 1464.01 Q1097.32 1462.25 1097.32 1460.56 Q1097.32 1457.8 1095.37 1456.07 Q1093.45 1454.33 1090.35 1454.33 Q1088.15 1454.33 1085.7 1455.09 Q1083.27 1455.86 1080.49 1457.41 L1080.49 1452.69 Q1083.31 1451.55 1085.77 1450.97 Q1088.22 1450.39 1090.26 1450.39 Q1095.63 1450.39 1098.82 1453.08 Q1102.02 1455.77 1102.02 1460.26 Q1102.02 1462.39 1101.21 1464.31 Q1100.42 1466.2 1098.31 1468.8 Q1097.73 1469.47 1094.63 1472.69 Q1091.53 1475.88 1085.88 1481.64 Z" fill="#000000" fill-rule="nonzero" fill-opacity="1" /><path clip-path="url(#clip690)" d="M1501.69 1481.64 L1509.33 1481.64 L1509.33 1455.28 L1501.02 1456.95 L1501.02 1452.69 L1509.29 1451.02 L1513.96 1451.02 L1513.96 1481.64 L1521.6 1481.64 L1521.6 1485.58 L1501.69 1485.58 L1501.69 1481.64 Z" fill="#000000" fill-rule="nonzero" fill-opacity="1" /><path clip-path="url(#clip690)" d="M1531.05 1479.7 L1535.93 1479.7 L1535.93 1485.58 L1531.05 1485.58 L1531.05 1479.7 Z" fill="#000000" fill-rule="nonzero" fill-opacity="1" /><path clip-path="url(#clip690)" d="M1546.16 1451.02 L1564.52 1451.02 L1564.52 1454.96 L1550.44 1454.96 L1550.44 1463.43 Q1551.46 1463.08 1552.48 1462.92 Q1553.5 1462.73 1554.52 1462.73 Q1560.3 1462.73 1563.68 1465.9 Q1567.06 1469.08 1567.06 1474.49 Q1567.06 1480.07 1563.59 1483.17 Q1560.12 1486.25 1553.8 1486.25 Q1551.62 1486.25 1549.36 1485.88 Q1547.11 1485.51 1544.7 1484.77 L1544.7 1480.07 Q1546.79 1481.2 1549.01 1481.76 Q1551.23 1482.32 1553.71 1482.32 Q1557.71 1482.32 1560.05 1480.21 Q1562.39 1478.1 1562.39 1474.49 Q1562.39 1470.88 1560.05 1468.77 Q1557.71 1466.67 1553.71 1466.67 Q1551.83 1466.67 1549.96 1467.08 Q1548.11 1467.5 1546.16 1468.38 L1546.16 1451.02 Z" fill="#000000" fill-rule="nonzero" fill-opacity="1" /><path clip-path="url(#clip690)" d="M1965.8 1481.64 L1973.44 1481.64 L1973.44 1455.28 L1965.13 1456.95 L1965.13 1452.69 L1973.4 1451.02 L1978.07 1451.02 L1978.07 1481.64 L1985.71 1481.64 L1985.71 1485.58 L1965.8 1485.58 L1965.8 1481.64 Z" fill="#000000" fill-rule="nonzero" fill-opacity="1" /><path clip-path="url(#clip690)" d="M1995.16 1479.7 L2000.04 1479.7 L2000.04 1485.58 L1995.16 1485.58 L1995.16 1479.7 Z" fill="#000000" fill-rule="nonzero" fill-opacity="1" /><path clip-path="url(#clip690)" d="M2020.23 1469.17 Q2016.89 1469.17 2014.97 1470.95 Q2013.07 1472.73 2013.07 1475.86 Q2013.07 1478.98 2014.97 1480.77 Q2016.89 1482.55 2020.23 1482.55 Q2023.56 1482.55 2025.48 1480.77 Q2027.4 1478.96 2027.4 1475.86 Q2027.4 1472.73 2025.48 1470.95 Q2023.58 1469.17 2020.23 1469.17 M2015.55 1467.18 Q2012.54 1466.44 2010.85 1464.38 Q2009.18 1462.32 2009.18 1459.35 Q2009.18 1455.21 2012.12 1452.8 Q2015.09 1450.39 2020.23 1450.39 Q2025.39 1450.39 2028.33 1452.8 Q2031.27 1455.21 2031.27 1459.35 Q2031.27 1462.32 2029.58 1464.38 Q2027.91 1466.44 2024.92 1467.18 Q2028.3 1467.96 2030.18 1470.26 Q2032.08 1472.55 2032.08 1475.86 Q2032.08 1480.88 2029 1483.57 Q2025.94 1486.25 2020.23 1486.25 Q2014.51 1486.25 2011.43 1483.57 Q2008.37 1480.88 2008.37 1475.86 Q2008.37 1472.55 2010.27 1470.26 Q2012.17 1467.96 2015.55 1467.18 M2013.84 1459.79 Q2013.84 1462.48 2015.5 1463.98 Q2017.19 1465.49 2020.23 1465.49 Q2023.23 1465.49 2024.92 1463.98 Q2026.64 1462.48 2026.64 1459.79 Q2026.64 1457.11 2024.92 1455.6 Q2023.23 1454.1 2020.23 1454.1 Q2017.19 1454.1 2015.5 1455.6 Q2013.84 1457.11 2013.84 1459.79 Z" fill="#000000" fill-rule="nonzero" fill-opacity="1" /><path clip-path="url(#clip690)" d="M1312.69 1529.06 Q1312.69 1532.06 1311.17 1537.85 Q1310.56 1540.37 1309.72 1542.65 Q1308.92 1544.91 1307.73 1547.1 Q1306.53 1549.29 1305.15 1550.86 Q1303.76 1552.41 1301.96 1553.38 Q1300.16 1554.34 1298.16 1554.34 Q1295 1554.34 1293.14 1552.47 Q1291.3 1550.57 1290.72 1547.32 Q1286.41 1554.34 1280.64 1554.34 Q1277.07 1554.34 1275.39 1551.8 Q1273.72 1549.22 1273.72 1544.91 Q1273.72 1541.27 1274.68 1537.5 Q1276.52 1530.35 1280.09 1525.36 Q1280.58 1524.78 1281.28 1524.78 Q1281.7 1524.78 1281.9 1524.91 Q1282.48 1525.26 1282.48 1525.84 Q1282.48 1526.26 1282.15 1526.68 Q1279.9 1529.8 1278.42 1532.48 Q1276.94 1535.15 1276.26 1537.85 Q1275.74 1540.17 1275.74 1542.14 Q1275.74 1545.45 1277.16 1547.52 Q1278.61 1549.58 1281.48 1549.58 Q1284.12 1549.58 1286.44 1547.93 Q1288.76 1546.26 1290.46 1543.46 Q1290.56 1540.4 1291.3 1537.5 Q1291.98 1534.41 1293.55 1534.41 Q1294.81 1534.41 1294.81 1536.11 Q1294.81 1536.69 1294.55 1537.85 Q1293.84 1540.91 1292.56 1543.65 Q1293.01 1546.32 1294.68 1547.97 Q1296.36 1549.58 1299.03 1549.58 Q1301.51 1549.58 1303.7 1547.77 Q1305.92 1545.97 1307.34 1543.33 Q1308.79 1540.66 1309.59 1537.5 Q1309.85 1536.44 1309.85 1535.08 Q1309.85 1531.48 1307.34 1529.25 Q1306.63 1528.55 1306.63 1527.61 Q1306.63 1526.52 1307.53 1525.52 Q1308.59 1524.46 1309.85 1524.46 Q1310.78 1524.46 1311.36 1525.04 Q1312.69 1526.19 1312.69 1529.06 Z" fill="#000000" fill-rule="nonzero" fill-opacity="1" /><polyline clip-path="url(#clip692)" style="stroke:#000000; stroke-linecap:round; stroke-linejoin:round; stroke-width:2; stroke-opacity:0.1; fill:none" points="235.283,1193.81 2352.76,1193.81 "/>
<polyline clip-path="url(#clip692)" style="stroke:#000000; stroke-linecap:round; stroke-linejoin:round; stroke-width:2; stroke-opacity:0.1; fill:none" points="235.283,876.443 2352.76,876.443 "/>
<polyline clip-path="url(#clip692)" style="stroke:#000000; stroke-linecap:round; stroke-linejoin:round; stroke-width:2; stroke-opacity:0.1; fill:none" points="235.283,559.07 2352.76,559.07 "/>
<polyline clip-path="url(#clip692)" style="stroke:#000000; stroke-linecap:round; stroke-linejoin:round; stroke-width:2; stroke-opacity:0.1; fill:none" points="235.283,241.698 2352.76,241.698 "/>
<polyline clip-path="url(#clip690)" style="stroke:#000000; stroke-linecap:round; stroke-linejoin:round; stroke-width:4; stroke-opacity:1; fill:none" points="235.283,1423.18 235.283,47.2441 "/>
<polyline clip-path="url(#clip690)" style="stroke:#000000; stroke-linecap:round; stroke-linejoin:round; stroke-width:4; stroke-opacity:1; fill:none" points="235.283,1193.81 254.18,1193.81 "/>
<polyline clip-path="url(#clip690)" style="stroke:#000000; stroke-linecap:round; stroke-linejoin:round; stroke-width:4; stroke-opacity:1; fill:none" points="235.283,876.443 254.18,876.443 "/>
<polyline clip-path="url(#clip690)" style="stroke:#000000; stroke-linecap:round; stroke-linejoin:round; stroke-width:4; stroke-opacity:1; fill:none" points="235.283,559.07 254.18,559.07 "/>
<polyline clip-path="url(#clip690)" style="stroke:#000000; stroke-linecap:round; stroke-linejoin:round; stroke-width:4; stroke-opacity:1; fill:none" points="235.283,241.698 254.18,241.698 "/>
<path clip-path="url(#clip690)" d="M121.043 1207.16 L137.362 1207.16 L137.362 1211.09 L115.418 1211.09 L115.418 1207.16 Q118.08 1204.41 122.663 1199.78 Q127.269 1195.12 128.45 1193.78 Q130.695 1191.26 131.575 1189.52 Q132.478 1187.76 132.478 1186.07 Q132.478 1183.32 130.533 1181.58 Q128.612 1179.85 125.51 1179.85 Q123.311 1179.85 120.857 1180.61 Q118.427 1181.37 115.649 1182.92 L115.649 1178.2 Q118.473 1177.07 120.927 1176.49 Q123.38 1175.91 125.418 1175.91 Q130.788 1175.91 133.982 1178.6 Q137.177 1181.28 137.177 1185.77 Q137.177 1187.9 136.367 1189.82 Q135.579 1191.72 133.473 1194.31 Q132.894 1194.98 129.792 1198.2 Q126.691 1201.4 121.043 1207.16 Z" fill="#000000" fill-rule="nonzero" fill-opacity="1" /><path clip-path="url(#clip690)" d="M157.177 1179.61 Q153.566 1179.61 151.737 1183.18 Q149.931 1186.72 149.931 1193.85 Q149.931 1200.96 151.737 1204.52 Q153.566 1208.06 157.177 1208.06 Q160.811 1208.06 162.616 1204.52 Q164.445 1200.96 164.445 1193.85 Q164.445 1186.72 162.616 1183.18 Q160.811 1179.61 157.177 1179.61 M157.177 1175.91 Q162.987 1175.91 166.042 1180.52 Q169.121 1185.1 169.121 1193.85 Q169.121 1202.58 166.042 1207.18 Q162.987 1211.77 157.177 1211.77 Q151.366 1211.77 148.288 1207.18 Q145.232 1202.58 145.232 1193.85 Q145.232 1185.1 148.288 1180.52 Q151.366 1175.91 157.177 1175.91 Z" fill="#000000" fill-rule="nonzero" fill-opacity="1" /><path clip-path="url(#clip690)" d="M187.338 1179.61 Q183.727 1179.61 181.899 1183.18 Q180.093 1186.72 180.093 1193.85 Q180.093 1200.96 181.899 1204.52 Q183.727 1208.06 187.338 1208.06 Q190.973 1208.06 192.778 1204.52 Q194.607 1200.96 194.607 1193.85 Q194.607 1186.72 192.778 1183.18 Q190.973 1179.61 187.338 1179.61 M187.338 1175.91 Q193.149 1175.91 196.204 1180.52 Q199.283 1185.1 199.283 1193.85 Q199.283 1202.58 196.204 1207.18 Q193.149 1211.77 187.338 1211.77 Q181.528 1211.77 178.45 1207.18 Q175.394 1202.58 175.394 1193.85 Q175.394 1185.1 178.45 1180.52 Q181.528 1175.91 187.338 1175.91 Z" fill="#000000" fill-rule="nonzero" fill-opacity="1" /><path clip-path="url(#clip690)" d="M129.862 863.237 L118.056 881.686 L129.862 881.686 L129.862 863.237 M128.635 859.163 L134.515 859.163 L134.515 881.686 L139.445 881.686 L139.445 885.575 L134.515 885.575 L134.515 893.723 L129.862 893.723 L129.862 885.575 L114.26 885.575 L114.26 881.061 L128.635 859.163 Z" fill="#000000" fill-rule="nonzero" fill-opacity="1" /><path clip-path="url(#clip690)" d="M157.177 862.241 Q153.566 862.241 151.737 865.806 Q149.931 869.348 149.931 876.477 Q149.931 883.584 151.737 887.149 Q153.566 890.69 157.177 890.69 Q160.811 890.69 162.616 887.149 Q164.445 883.584 164.445 876.477 Q164.445 869.348 162.616 865.806 Q160.811 862.241 157.177 862.241 M157.177 858.538 Q162.987 858.538 166.042 863.144 Q169.121 867.727 169.121 876.477 Q169.121 885.204 166.042 889.811 Q162.987 894.394 157.177 894.394 Q151.366 894.394 148.288 889.811 Q145.232 885.204 145.232 876.477 Q145.232 867.727 148.288 863.144 Q151.366 858.538 157.177 858.538 Z" fill="#000000" fill-rule="nonzero" fill-opacity="1" /><path clip-path="url(#clip690)" d="M187.338 862.241 Q183.727 862.241 181.899 865.806 Q180.093 869.348 180.093 876.477 Q180.093 883.584 181.899 887.149 Q183.727 890.69 187.338 890.69 Q190.973 890.69 192.778 887.149 Q194.607 883.584 194.607 876.477 Q194.607 869.348 192.778 865.806 Q190.973 862.241 187.338 862.241 M187.338 858.538 Q193.149 858.538 196.204 863.144 Q199.283 867.727 199.283 876.477 Q199.283 885.204 196.204 889.811 Q193.149 894.394 187.338 894.394 Q181.528 894.394 178.45 889.811 Q175.394 885.204 175.394 876.477 Q175.394 867.727 178.45 863.144 Q181.528 858.538 187.338 858.538 Z" fill="#000000" fill-rule="nonzero" fill-opacity="1" /><path clip-path="url(#clip690)" d="M127.593 557.207 Q124.445 557.207 122.593 559.36 Q120.765 561.512 120.765 565.262 Q120.765 568.989 122.593 571.165 Q124.445 573.318 127.593 573.318 Q130.742 573.318 132.57 571.165 Q134.422 568.989 134.422 565.262 Q134.422 561.512 132.57 559.36 Q130.742 557.207 127.593 557.207 M136.876 542.554 L136.876 546.813 Q135.117 545.98 133.311 545.54 Q131.529 545.101 129.769 545.101 Q125.14 545.101 122.686 548.226 Q120.255 551.35 119.908 557.67 Q121.274 555.656 123.334 554.591 Q125.394 553.503 127.871 553.503 Q133.08 553.503 136.089 556.675 Q139.121 559.823 139.121 565.262 Q139.121 570.586 135.973 573.804 Q132.825 577.022 127.593 577.022 Q121.598 577.022 118.427 572.438 Q115.256 567.832 115.256 559.105 Q115.256 550.911 119.144 546.05 Q123.033 541.165 129.584 541.165 Q131.343 541.165 133.126 541.513 Q134.931 541.86 136.876 542.554 Z" fill="#000000" fill-rule="nonzero" fill-opacity="1" /><path clip-path="url(#clip690)" d="M157.177 544.869 Q153.566 544.869 151.737 548.434 Q149.931 551.975 149.931 559.105 Q149.931 566.212 151.737 569.776 Q153.566 573.318 157.177 573.318 Q160.811 573.318 162.616 569.776 Q164.445 566.212 164.445 559.105 Q164.445 551.975 162.616 548.434 Q160.811 544.869 157.177 544.869 M157.177 541.165 Q162.987 541.165 166.042 545.772 Q169.121 550.355 169.121 559.105 Q169.121 567.832 166.042 572.438 Q162.987 577.022 157.177 577.022 Q151.366 577.022 148.288 572.438 Q145.232 567.832 145.232 559.105 Q145.232 550.355 148.288 545.772 Q151.366 541.165 157.177 541.165 Z" fill="#000000" fill-rule="nonzero" fill-opacity="1" /><path clip-path="url(#clip690)" d="M187.338 544.869 Q183.727 544.869 181.899 548.434 Q180.093 551.975 180.093 559.105 Q180.093 566.212 181.899 569.776 Q183.727 573.318 187.338 573.318 Q190.973 573.318 192.778 569.776 Q194.607 566.212 194.607 559.105 Q194.607 551.975 192.778 548.434 Q190.973 544.869 187.338 544.869 M187.338 541.165 Q193.149 541.165 196.204 545.772 Q199.283 550.355 199.283 559.105 Q199.283 567.832 196.204 572.438 Q193.149 577.022 187.338 577.022 Q181.528 577.022 178.45 572.438 Q175.394 567.832 175.394 559.105 Q175.394 550.355 178.45 545.772 Q181.528 541.165 187.338 541.165 Z" fill="#000000" fill-rule="nonzero" fill-opacity="1" /><path clip-path="url(#clip690)" d="M127.015 242.566 Q123.681 242.566 121.76 244.349 Q119.862 246.131 119.862 249.256 Q119.862 252.381 121.76 254.163 Q123.681 255.946 127.015 255.946 Q130.348 255.946 132.269 254.163 Q134.191 252.358 134.191 249.256 Q134.191 246.131 132.269 244.349 Q130.371 242.566 127.015 242.566 M122.339 240.575 Q119.33 239.835 117.64 237.774 Q115.973 235.714 115.973 232.751 Q115.973 228.608 118.913 226.2 Q121.876 223.793 127.015 223.793 Q132.177 223.793 135.117 226.2 Q138.056 228.608 138.056 232.751 Q138.056 235.714 136.367 237.774 Q134.7 239.835 131.714 240.575 Q135.093 241.362 136.968 243.654 Q138.867 245.946 138.867 249.256 Q138.867 254.279 135.788 256.964 Q132.732 259.649 127.015 259.649 Q121.297 259.649 118.218 256.964 Q115.163 254.279 115.163 249.256 Q115.163 245.946 117.061 243.654 Q118.959 241.362 122.339 240.575 M120.626 233.191 Q120.626 235.876 122.293 237.381 Q123.982 238.886 127.015 238.886 Q130.024 238.886 131.714 237.381 Q133.427 235.876 133.427 233.191 Q133.427 230.506 131.714 229.001 Q130.024 227.497 127.015 227.497 Q123.982 227.497 122.293 229.001 Q120.626 230.506 120.626 233.191 Z" fill="#000000" fill-rule="nonzero" fill-opacity="1" /><path clip-path="url(#clip690)" d="M157.177 227.497 Q153.566 227.497 151.737 231.062 Q149.931 234.603 149.931 241.733 Q149.931 248.839 151.737 252.404 Q153.566 255.946 157.177 255.946 Q160.811 255.946 162.616 252.404 Q164.445 248.839 164.445 241.733 Q164.445 234.603 162.616 231.062 Q160.811 227.497 157.177 227.497 M157.177 223.793 Q162.987 223.793 166.042 228.4 Q169.121 232.983 169.121 241.733 Q169.121 250.46 166.042 255.066 Q162.987 259.649 157.177 259.649 Q151.366 259.649 148.288 255.066 Q145.232 250.46 145.232 241.733 Q145.232 232.983 148.288 228.4 Q151.366 223.793 157.177 223.793 Z" fill="#000000" fill-rule="nonzero" fill-opacity="1" /><path clip-path="url(#clip690)" d="M187.338 227.497 Q183.727 227.497 181.899 231.062 Q180.093 234.603 180.093 241.733 Q180.093 248.839 181.899 252.404 Q183.727 255.946 187.338 255.946 Q190.973 255.946 192.778 252.404 Q194.607 248.839 194.607 241.733 Q194.607 234.603 192.778 231.062 Q190.973 227.497 187.338 227.497 M187.338 223.793 Q193.149 223.793 196.204 228.4 Q199.283 232.983 199.283 241.733 Q199.283 250.46 196.204 255.066 Q193.149 259.649 187.338 259.649 Q181.528 259.649 178.45 255.066 Q175.394 250.46 175.394 241.733 Q175.394 232.983 178.45 228.4 Q181.528 223.793 187.338 223.793 Z" fill="#000000" fill-rule="nonzero" fill-opacity="1" /><path clip-path="url(#clip690)" d="M29.4065 885.586 L34.9447 885.586 Q33.6716 888.068 33.035 890.742 Q32.3984 893.416 32.3984 896.28 Q32.3984 900.641 33.7352 902.837 Q35.072 905.001 37.7456 905.001 Q39.7826 905.001 40.9603 903.442 Q42.1061 901.882 43.1565 897.171 L43.6021 895.166 Q44.9389 888.928 47.3897 886.318 Q49.8086 883.676 54.1691 883.676 Q59.1344 883.676 62.0308 887.623 Q64.9272 891.538 64.9272 898.413 Q64.9272 901.277 64.3543 904.397 Q63.8132 907.484 62.6992 910.921 L56.6518 910.921 Q58.3387 907.675 59.198 904.524 Q60.0256 901.373 60.0256 898.285 Q60.0256 894.148 58.6251 891.92 Q57.1929 889.692 54.6147 889.692 Q52.2276 889.692 50.9545 891.315 Q49.6813 892.906 48.5037 898.349 L48.0262 900.386 Q46.8804 905.829 44.5251 908.248 Q42.138 910.667 38.0002 910.667 Q32.9713 910.667 30.2341 907.102 Q27.4968 903.537 27.4968 896.98 Q27.4968 893.734 27.9743 890.869 Q28.4517 888.005 29.4065 885.586 M23.8365 899.145 L11.869 906.943 L11.869 902.519 L19.667 896.79 L11.869 891.06 L11.869 886.636 L23.8365 894.434 L23.8365 899.145 M27.4968 896.917 L27.4968 896.917 Z" fill="#000000" fill-rule="nonzero" fill-opacity="1" /><path clip-path="url(#clip690)" d="M18.2347 868.558 L28.3562 868.558 L28.3562 856.495 L32.9077 856.495 L32.9077 868.558 L52.2594 868.558 Q56.6199 868.558 57.8613 867.38 Q59.1026 866.17 59.1026 862.51 L59.1026 856.495 L64.0042 856.495 L64.0042 862.51 Q64.0042 869.29 61.4897 871.868 Q58.9434 874.446 52.2594 874.446 L32.9077 874.446 L32.9077 878.743 L28.3562 878.743 L28.3562 874.446 L18.2347 874.446 L18.2347 868.558 Z" fill="#000000" fill-rule="nonzero" fill-opacity="1" /><path clip-path="url(#clip690)" d="M55.9197 847.965 L55.9197 841.249 L64.0042 841.249 L64.0042 847.965 L55.9197 847.965 Z" fill="#000000" fill-rule="nonzero" fill-opacity="1" /><path clip-path="url(#clip690)" d="M14.479 807.574 L14.479 801.686 L43.7294 801.686 L28.3562 784.212 L28.3562 776.732 L45.0344 795.638 L64.0042 775.937 L64.0042 783.575 L46.5939 801.686 L64.0042 801.686 L64.0042 807.574 L14.479 807.574 Z" fill="#000000" fill-rule="nonzero" fill-opacity="1" /><path clip-path="url(#clip690)" d="M32.4621 758.113 Q32.4621 762.823 36.1542 765.56 Q39.8145 768.298 46.212 768.298 Q52.6095 768.298 56.3017 765.592 Q59.9619 762.855 59.9619 758.113 Q59.9619 753.434 56.2698 750.697 Q52.5777 747.959 46.212 747.959 Q39.8781 747.959 36.186 750.697 Q32.4621 753.434 32.4621 758.113 M27.4968 758.113 Q27.4968 750.474 32.4621 746.113 Q37.4273 741.753 46.212 741.753 Q54.9649 741.753 59.9619 746.113 Q64.9272 750.474 64.9272 758.113 Q64.9272 765.783 59.9619 770.144 Q54.9649 774.472 46.212 774.472 Q37.4273 774.472 32.4621 770.144 Q27.4968 765.783 27.4968 758.113 Z" fill="#000000" fill-rule="nonzero" fill-opacity="1" /><path clip-path="url(#clip690)" d="M33.8307 711.388 Q33.2578 712.375 33.0032 713.553 Q32.7167 714.698 32.7167 716.099 Q32.7167 721.064 35.9632 723.738 Q39.1779 726.38 45.2253 726.38 L64.0042 726.38 L64.0042 732.268 L28.3562 732.268 L28.3562 726.38 L33.8944 726.38 Q30.6479 724.533 29.0883 721.573 Q27.4968 718.613 27.4968 714.38 Q27.4968 713.775 27.5923 713.043 Q27.656 712.311 27.8151 711.42 L33.8307 711.388 Z" fill="#000000" fill-rule="nonzero" fill-opacity="1" /><path clip-path="url(#clip690)" d="M46.0847 689.045 Q46.0847 696.142 47.7079 698.88 Q49.3312 701.617 53.2461 701.617 Q56.3653 701.617 58.2114 699.58 Q60.0256 697.511 60.0256 693.978 Q60.0256 689.108 56.5881 686.18 Q53.1188 683.22 47.3897 683.22 L46.0847 683.22 L46.0847 689.045 M43.6657 677.364 L64.0042 677.364 L64.0042 683.22 L58.5933 683.22 Q61.8398 685.225 63.3994 688.217 Q64.9272 691.209 64.9272 695.538 Q64.9272 701.012 61.8716 704.259 Q58.7843 707.473 53.6281 707.473 Q47.6125 707.473 44.5569 703.463 Q41.5014 699.421 41.5014 691.432 L41.5014 683.22 L40.9285 683.22 Q36.8862 683.22 34.6901 685.894 Q32.4621 688.535 32.4621 693.342 Q32.4621 696.397 33.1941 699.293 Q33.9262 702.19 35.3903 704.863 L29.9795 704.863 Q28.7381 701.649 28.1334 698.625 Q27.4968 695.601 27.4968 692.737 Q27.4968 685.002 31.5072 681.183 Q35.5176 677.364 43.6657 677.364 Z" fill="#000000" fill-rule="nonzero" fill-opacity="1" /><path clip-path="url(#clip690)" d="M14.479 665.523 L14.479 659.635 L43.7294 659.635 L28.3562 642.161 L28.3562 634.682 L45.0344 653.588 L64.0042 633.886 L64.0042 641.525 L46.5939 659.635 L64.0042 659.635 L64.0042 665.523 L14.479 665.523 Z" fill="#000000" fill-rule="nonzero" fill-opacity="1" /><path clip-path="url(#clip690)" d="M32.4621 616.062 Q32.4621 620.772 36.1542 623.51 Q39.8145 626.247 46.212 626.247 Q52.6095 626.247 56.3017 623.542 Q59.9619 620.804 59.9619 616.062 Q59.9619 611.383 56.2698 608.646 Q52.5777 605.909 46.212 605.909 Q39.8781 605.909 36.186 608.646 Q32.4621 611.383 32.4621 616.062 M27.4968 616.062 Q27.4968 608.423 32.4621 604.062 Q37.4273 599.702 46.212 599.702 Q54.9649 599.702 59.9619 604.062 Q64.9272 608.423 64.9272 616.062 Q64.9272 623.733 59.9619 628.093 Q54.9649 632.422 46.212 632.422 Q37.4273 632.422 32.4621 628.093 Q27.4968 623.733 27.4968 616.062 Z" fill="#000000" fill-rule="nonzero" fill-opacity="1" /><path clip-path="url(#clip690)" d="M28.3562 594.196 L28.3562 587.989 L58.275 576.849 L28.3562 565.709 L28.3562 559.503 L64.0042 572.871 L64.0042 580.828 L28.3562 594.196 Z" fill="#000000" fill-rule="nonzero" fill-opacity="1" /><polyline clip-path="url(#clip692)" style="stroke:#009af9; stroke-linecap:round; stroke-linejoin:round; stroke-width:4; stroke-opacity:1; fill:none" points="295.211,86.1857 315.389,114.749 335.567,141.726 355.745,168.702 375.923,195.679 396.101,221.069 416.279,246.459 436.457,270.262 456.635,294.065 476.813,317.867 496.991,341.67 517.169,363.886 537.347,386.102 557.525,406.732 577.702,428.948 597.88,449.577 618.058,470.206 638.236,489.248 658.414,508.291 678.592,528.92 698.77,546.375 718.948,565.418 739.126,584.46 759.304,601.916 779.482,619.371 799.66,636.827 819.838,652.695 840.016,670.151 860.194,686.019 880.372,703.475 900.55,719.343 920.727,733.625 940.905,749.494 961.083,765.362 981.261,779.644 1001.44,793.926 1021.62,809.794 1041.8,824.076 1061.97,838.358 1082.15,851.053 1102.33,865.335 1122.51,879.616 1142.68,892.311 1162.86,905.006 1183.04,919.288 1203.22,931.983 1223.4,944.678 1243.57,957.373 1263.75,970.067 1283.93,981.175 1304.11,993.87 1324.29,1006.57 1344.46,1017.67 1364.64,1030.37 1384.82,1041.48 1405,1052.58 1425.18,1063.69 1445.35,1076.39 1465.53,1087.5 1485.71,1098.6 1505.89,1109.71 1526.07,1119.23 1546.24,1130.34 1566.42,1141.45 1586.6,1152.56 1606.78,1162.08 1626.96,1173.19 1647.13,1184.29 1667.31,1193.81 1687.49,1204.92 1707.67,1214.44 1727.85,1223.97 1748.02,1235.07 1768.2,1244.59 1788.38,1254.12 1808.56,1265.22 1828.73,1274.74 1848.91,1284.27 1869.09,1295.37 1889.27,1304.9 1909.45,1314.42 1929.62,1325.52 1949.8,1335.05 1969.98,1344.57 1990.16,1355.67 2010.34,1366.78 2030.51,1377.89 2050.69,1384.24 2070.87,1382.65 2091.05,1382.65 2111.23,1381.06 2131.4,1379.48 2151.58,1374.72 2171.76,1355.67 2191.94,1323.94 2212.12,1279.51 2232.29,1223.97 2252.47,1135.1 2272.65,920.875 2292.83,159.181 "/>
</svg>
