<?xml version="1.0" encoding="utf-8"?>
<svg xmlns="http://www.w3.org/2000/svg" xmlns:xlink="http://www.w3.org/1999/xlink" width="600" height="400" viewBox="0 0 2400 1600">
<defs>
  <clipPath id="clip280">
    <rect x="0" y="0" width="2400" height="1600"/>
  </clipPath>
</defs>
<path clip-path="url(#clip280)" d="M0 1600 L2400 1600 L2400 0 L0 0  Z" fill="#ffffff" fill-rule="evenodd" fill-opacity="1"/>
<defs>
  <clipPath id="clip281">
    <rect x="480" y="0" width="1681" height="1600"/>
  </clipPath>
</defs>
<path clip-path="url(#clip280)" d="M235.283 1423.18 L2352.76 1423.18 L2352.76 47.2441 L235.283 47.2441  Z" fill="#ffffff" fill-rule="evenodd" fill-opacity="1"/>
<defs>
  <clipPath id="clip282">
    <rect x="235" y="47" width="2118" height="1377"/>
  </clipPath>
</defs>
<polyline clip-path="url(#clip282)" style="stroke:#000000; stroke-linecap:round; stroke-linejoin:round; stroke-width:2; stroke-opacity:0.1; fill:none" points="510.781,1423.18 510.781,47.2441 "/>
<polyline clip-path="url(#clip282)" style="stroke:#000000; stroke-linecap:round; stroke-linejoin:round; stroke-width:2; stroke-opacity:0.1; fill:none" points="870.065,1423.18 870.065,47.2441 "/>
<polyline clip-path="url(#clip282)" style="stroke:#000000; stroke-linecap:round; stroke-linejoin:round; stroke-width:2; stroke-opacity:0.1; fill:none" points="1229.35,1423.18 1229.35,47.2441 "/>
<polyline clip-path="url(#clip282)" style="stroke:#000000; stroke-linecap:round; stroke-linejoin:round; stroke-width:2; stroke-opacity:0.1; fill:none" points="1588.63,1423.18 1588.63,47.2441 "/>
<polyline clip-path="url(#clip282)" style="stroke:#000000; stroke-linecap:round; stroke-linejoin:round; stroke-width:2; stroke-opacity:0.1; fill:none" points="1947.92,1423.18 1947.92,47.2441 "/>
<polyline clip-path="url(#clip282)" style="stroke:#000000; stroke-linecap:round; stroke-linejoin:round; stroke-width:2; stroke-opacity:0.1; fill:none" points="2307.2,1423.18 2307.2,47.2441 "/>
<polyline clip-path="url(#clip280)" style="stroke:#000000; stroke-linecap:round; stroke-linejoin:round; stroke-width:4; stroke-opacity:1; fill:none" points="235.283,1423.18 2352.76,1423.18 "/>
<polyline clip-path="url(#clip280)" style="stroke:#000000; stroke-linecap:round; stroke-linejoin:round; stroke-width:4; stroke-opacity:1; fill:none" points="510.781,1423.18 510.781,1404.28 "/>
<polyline clip-path="url(#clip280)" style="stroke:#000000; stroke-linecap:round; stroke-linejoin:round; stroke-width:4; stroke-opacity:1; fill:none" points="870.065,1423.18 870.065,1404.28 "/>
<polyline clip-path="url(#clip280)" style="stroke:#000000; stroke-linecap:round; stroke-linejoin:round; stroke-width:4; stroke-opacity:1; fill:none" points="1229.35,1423.18 1229.35,1404.28 "/>
<polyline clip-path="url(#clip280)" style="stroke:#000000; stroke-linecap:round; stroke-linejoin:round; stroke-width:4; stroke-opacity:1; fill:none" points="1588.63,1423.18 1588.63,1404.28 "/>
<polyline clip-path="url(#clip280)" style="stroke:#000000; stroke-linecap:round; stroke-linejoin:round; stroke-width:4; stroke-opacity:1; fill:none" points="1947.92,1423.18 1947.92,1404.28 "/>
<polyline clip-path="url(#clip280)" style="stroke:#000000; stroke-linecap:round; stroke-linejoin:round; stroke-width:4; stroke-opacity:1; fill:none" points="2307.2,1423.18 2307.2,1404.28 "/>
<path clip-path="url(#clip280)" d="M473.583 1454.1 Q469.971 1454.1 468.143 1457.66 Q466.337 1461.2 466.337 1468.33 Q466.337 1475.44 468.143 1479.01 Q469.971 1482.55 473.583 1482.55 Q477.217 1482.55 479.022 1479.01 Q480.851 1475.44 480.851 1468.33 Q480.851 1461.2 479.022 1457.66 Q477.217 1454.1 473.583 1454.1 M473.583 1450.39 Q479.393 1450.39 482.448 1455 Q485.527 1459.58 485.527 1468.33 Q485.527 1477.06 482.448 1481.67 Q479.393 1486.25 473.583 1486.25 Q467.772 1486.25 464.694 1481.67 Q461.638 1477.06 461.638 1468.33 Q461.638 1459.58 464.694 1455 Q467.772 1450.39 473.583 1450.39 Z" fill="#000000" fill-rule="nonzero" fill-opacity="1" /><path clip-path="url(#clip280)" d="M493.744 1479.7 L498.629 1479.7 L498.629 1485.58 L493.744 1485.58 L493.744 1479.7 Z" fill="#000000" fill-rule="nonzero" fill-opacity="1" /><path clip-path="url(#clip280)" d="M507.633 1451.02 L529.855 1451.02 L529.855 1453.01 L517.309 1485.58 L512.425 1485.58 L524.23 1454.96 L507.633 1454.96 L507.633 1451.02 Z" fill="#000000" fill-rule="nonzero" fill-opacity="1" /><path clip-path="url(#clip280)" d="M539.022 1451.02 L557.378 1451.02 L557.378 1454.96 L543.304 1454.96 L543.304 1463.43 Q544.323 1463.08 545.341 1462.92 Q546.36 1462.73 547.378 1462.73 Q553.165 1462.73 556.545 1465.9 Q559.925 1469.08 559.925 1474.49 Q559.925 1480.07 556.452 1483.17 Q552.98 1486.25 546.661 1486.25 Q544.485 1486.25 542.216 1485.88 Q539.971 1485.51 537.564 1484.77 L537.564 1480.07 Q539.647 1481.2 541.869 1481.76 Q544.091 1482.32 546.568 1482.32 Q550.573 1482.32 552.911 1480.21 Q555.249 1478.1 555.249 1474.49 Q555.249 1470.88 552.911 1468.77 Q550.573 1466.67 546.568 1466.67 Q544.693 1466.67 542.818 1467.08 Q540.966 1467.5 539.022 1468.38 L539.022 1451.02 Z" fill="#000000" fill-rule="nonzero" fill-opacity="1" /><path clip-path="url(#clip280)" d="M822.137 1481.64 L829.776 1481.64 L829.776 1455.28 L821.466 1456.95 L821.466 1452.69 L829.729 1451.02 L834.405 1451.02 L834.405 1481.64 L842.044 1481.64 L842.044 1485.58 L822.137 1485.58 L822.137 1481.64 Z" fill="#000000" fill-rule="nonzero" fill-opacity="1" /><path clip-path="url(#clip280)" d="M851.489 1479.7 L856.373 1479.7 L856.373 1485.58 L851.489 1485.58 L851.489 1479.7 Z" fill="#000000" fill-rule="nonzero" fill-opacity="1" /><path clip-path="url(#clip280)" d="M876.558 1454.1 Q872.947 1454.1 871.118 1457.66 Q869.313 1461.2 869.313 1468.33 Q869.313 1475.44 871.118 1479.01 Q872.947 1482.55 876.558 1482.55 Q880.192 1482.55 881.998 1479.01 Q883.826 1475.44 883.826 1468.33 Q883.826 1461.2 881.998 1457.66 Q880.192 1454.1 876.558 1454.1 M876.558 1450.39 Q882.368 1450.39 885.424 1455 Q888.502 1459.58 888.502 1468.33 Q888.502 1477.06 885.424 1481.67 Q882.368 1486.25 876.558 1486.25 Q870.748 1486.25 867.669 1481.67 Q864.614 1477.06 864.614 1468.33 Q864.614 1459.58 867.669 1455 Q870.748 1450.39 876.558 1450.39 Z" fill="#000000" fill-rule="nonzero" fill-opacity="1" /><path clip-path="url(#clip280)" d="M906.72 1454.1 Q903.109 1454.1 901.28 1457.66 Q899.474 1461.2 899.474 1468.33 Q899.474 1475.44 901.28 1479.01 Q903.109 1482.55 906.72 1482.55 Q910.354 1482.55 912.16 1479.01 Q913.988 1475.44 913.988 1468.33 Q913.988 1461.2 912.16 1457.66 Q910.354 1454.1 906.72 1454.1 M906.72 1450.39 Q912.53 1450.39 915.585 1455 Q918.664 1459.58 918.664 1468.33 Q918.664 1477.06 915.585 1481.67 Q912.53 1486.25 906.72 1486.25 Q900.91 1486.25 897.831 1481.67 Q894.775 1477.06 894.775 1468.33 Q894.775 1459.58 897.831 1455 Q900.91 1450.39 906.72 1450.39 Z" fill="#000000" fill-rule="nonzero" fill-opacity="1" /><path clip-path="url(#clip280)" d="M1181.92 1481.64 L1189.56 1481.64 L1189.56 1455.28 L1181.25 1456.95 L1181.25 1452.69 L1189.51 1451.02 L1194.19 1451.02 L1194.19 1481.64 L1201.83 1481.64 L1201.83 1485.58 L1181.92 1485.58 L1181.92 1481.64 Z" fill="#000000" fill-rule="nonzero" fill-opacity="1" /><path clip-path="url(#clip280)" d="M1211.27 1479.7 L1216.15 1479.7 L1216.15 1485.58 L1211.27 1485.58 L1211.27 1479.7 Z" fill="#000000" fill-rule="nonzero" fill-opacity="1" /><path clip-path="url(#clip280)" d="M1230.37 1481.64 L1246.69 1481.64 L1246.69 1485.58 L1224.74 1485.58 L1224.74 1481.64 Q1227.4 1478.89 1231.99 1474.26 Q1236.59 1469.61 1237.77 1468.27 Q1240.02 1465.74 1240.9 1464.01 Q1241.8 1462.25 1241.8 1460.56 Q1241.8 1457.8 1239.86 1456.07 Q1237.94 1454.33 1234.83 1454.33 Q1232.64 1454.33 1230.18 1455.09 Q1227.75 1455.86 1224.97 1457.41 L1224.97 1452.69 Q1227.8 1451.55 1230.25 1450.97 Q1232.7 1450.39 1234.74 1450.39 Q1240.11 1450.39 1243.31 1453.08 Q1246.5 1455.77 1246.5 1460.26 Q1246.5 1462.39 1245.69 1464.31 Q1244.9 1466.2 1242.8 1468.8 Q1242.22 1469.47 1239.12 1472.69 Q1236.01 1475.88 1230.37 1481.64 Z" fill="#000000" fill-rule="nonzero" fill-opacity="1" /><path clip-path="url(#clip280)" d="M1256.55 1451.02 L1274.9 1451.02 L1274.9 1454.96 L1260.83 1454.96 L1260.83 1463.43 Q1261.85 1463.08 1262.87 1462.92 Q1263.89 1462.73 1264.9 1462.73 Q1270.69 1462.73 1274.07 1465.9 Q1277.45 1469.08 1277.45 1474.49 Q1277.45 1480.07 1273.98 1483.17 Q1270.51 1486.25 1264.19 1486.25 Q1262.01 1486.25 1259.74 1485.88 Q1257.5 1485.51 1255.09 1484.77 L1255.09 1480.07 Q1257.17 1481.2 1259.39 1481.76 Q1261.62 1482.32 1264.09 1482.32 Q1268.1 1482.32 1270.44 1480.21 Q1272.77 1478.1 1272.77 1474.49 Q1272.77 1470.88 1270.44 1468.77 Q1268.1 1466.67 1264.09 1466.67 Q1262.22 1466.67 1260.34 1467.08 Q1258.49 1467.5 1256.55 1468.38 L1256.55 1451.02 Z" fill="#000000" fill-rule="nonzero" fill-opacity="1" /><path clip-path="url(#clip280)" d="M1540.7 1481.64 L1548.34 1481.64 L1548.34 1455.28 L1540.03 1456.95 L1540.03 1452.69 L1548.3 1451.02 L1552.97 1451.02 L1552.97 1481.64 L1560.61 1481.64 L1560.61 1485.58 L1540.7 1485.58 L1540.7 1481.64 Z" fill="#000000" fill-rule="nonzero" fill-opacity="1" /><path clip-path="url(#clip280)" d="M1570.06 1479.7 L1574.94 1479.7 L1574.94 1485.58 L1570.06 1485.58 L1570.06 1479.7 Z" fill="#000000" fill-rule="nonzero" fill-opacity="1" /><path clip-path="url(#clip280)" d="M1585.17 1451.02 L1603.53 1451.02 L1603.53 1454.96 L1589.45 1454.96 L1589.45 1463.43 Q1590.47 1463.08 1591.49 1462.92 Q1592.51 1462.73 1593.53 1462.73 Q1599.31 1462.73 1602.69 1465.9 Q1606.07 1469.08 1606.07 1474.49 Q1606.07 1480.07 1602.6 1483.17 Q1599.13 1486.25 1592.81 1486.25 Q1590.63 1486.25 1588.37 1485.88 Q1586.12 1485.51 1583.71 1484.77 L1583.71 1480.07 Q1585.8 1481.2 1588.02 1481.76 Q1590.24 1482.32 1592.72 1482.32 Q1596.72 1482.32 1599.06 1480.21 Q1601.4 1478.1 1601.4 1474.49 Q1601.4 1470.88 1599.06 1468.77 Q1596.72 1466.67 1592.72 1466.67 Q1590.84 1466.67 1588.97 1467.08 Q1587.12 1467.5 1585.17 1468.38 L1585.17 1451.02 Z" fill="#000000" fill-rule="nonzero" fill-opacity="1" /><path clip-path="url(#clip280)" d="M1625.29 1454.1 Q1621.68 1454.1 1619.85 1457.66 Q1618.04 1461.2 1618.04 1468.33 Q1618.04 1475.44 1619.85 1479.01 Q1621.68 1482.55 1625.29 1482.55 Q1628.92 1482.55 1630.73 1479.01 Q1632.56 1475.44 1632.56 1468.33 Q1632.56 1461.2 1630.73 1457.66 Q1628.92 1454.1 1625.29 1454.1 M1625.29 1450.39 Q1631.1 1450.39 1634.15 1455 Q1637.23 1459.58 1637.23 1468.33 Q1637.23 1477.06 1634.15 1481.67 Q1631.1 1486.25 1625.29 1486.25 Q1619.48 1486.25 1616.4 1481.67 Q1613.34 1477.06 1613.34 1468.33 Q1613.34 1459.58 1616.4 1455 Q1619.48 1450.39 1625.29 1450.39 Z" fill="#000000" fill-rule="nonzero" fill-opacity="1" /><path clip-path="url(#clip280)" d="M1900.48 1481.64 L1908.12 1481.64 L1908.12 1455.28 L1899.81 1456.95 L1899.81 1452.69 L1908.08 1451.02 L1912.75 1451.02 L1912.75 1481.64 L1920.39 1481.64 L1920.39 1485.58 L1900.48 1485.58 L1900.48 1481.64 Z" fill="#000000" fill-rule="nonzero" fill-opacity="1" /><path clip-path="url(#clip280)" d="M1929.84 1479.7 L1934.72 1479.7 L1934.72 1485.58 L1929.84 1485.58 L1929.84 1479.7 Z" fill="#000000" fill-rule="nonzero" fill-opacity="1" /><path clip-path="url(#clip280)" d="M1943.73 1451.02 L1965.95 1451.02 L1965.95 1453.01 L1953.4 1485.58 L1948.52 1485.58 L1960.32 1454.96 L1943.73 1454.96 L1943.73 1451.02 Z" fill="#000000" fill-rule="nonzero" fill-opacity="1" /><path clip-path="url(#clip280)" d="M1975.11 1451.02 L1993.47 1451.02 L1993.47 1454.96 L1979.4 1454.96 L1979.4 1463.43 Q1980.42 1463.08 1981.43 1462.92 Q1982.45 1462.73 1983.47 1462.73 Q1989.26 1462.73 1992.64 1465.9 Q1996.02 1469.08 1996.02 1474.49 Q1996.02 1480.07 1992.54 1483.17 Q1989.07 1486.25 1982.75 1486.25 Q1980.58 1486.25 1978.31 1485.88 Q1976.06 1485.51 1973.66 1484.77 L1973.66 1480.07 Q1975.74 1481.2 1977.96 1481.76 Q1980.18 1482.32 1982.66 1482.32 Q1986.67 1482.32 1989 1480.21 Q1991.34 1478.1 1991.34 1474.49 Q1991.34 1470.88 1989 1468.77 Q1986.67 1466.67 1982.66 1466.67 Q1980.79 1466.67 1978.91 1467.08 Q1977.06 1467.5 1975.11 1468.38 L1975.11 1451.02 Z" fill="#000000" fill-rule="nonzero" fill-opacity="1" /><path clip-path="url(#clip280)" d="M2263.36 1481.64 L2279.68 1481.64 L2279.68 1485.58 L2257.73 1485.58 L2257.73 1481.64 Q2260.39 1478.89 2264.98 1474.26 Q2269.58 1469.61 2270.76 1468.27 Q2273.01 1465.74 2273.89 1464.01 Q2274.79 1462.25 2274.79 1460.56 Q2274.79 1457.8 2272.85 1456.07 Q2270.93 1454.33 2267.82 1454.33 Q2265.62 1454.33 2263.17 1455.09 Q2260.74 1455.86 2257.96 1457.41 L2257.96 1452.69 Q2260.79 1451.55 2263.24 1450.97 Q2265.69 1450.39 2267.73 1450.39 Q2273.1 1450.39 2276.3 1453.08 Q2279.49 1455.77 2279.49 1460.26 Q2279.49 1462.39 2278.68 1464.31 Q2277.89 1466.2 2275.79 1468.8 Q2275.21 1469.47 2272.11 1472.69 Q2269 1475.88 2263.36 1481.64 Z" fill="#000000" fill-rule="nonzero" fill-opacity="1" /><path clip-path="url(#clip280)" d="M2289.49 1479.7 L2294.37 1479.7 L2294.37 1485.58 L2289.49 1485.58 L2289.49 1479.7 Z" fill="#000000" fill-rule="nonzero" fill-opacity="1" /><path clip-path="url(#clip280)" d="M2314.56 1454.1 Q2310.95 1454.1 2309.12 1457.66 Q2307.31 1461.2 2307.31 1468.33 Q2307.31 1475.44 2309.12 1479.01 Q2310.95 1482.55 2314.56 1482.55 Q2318.19 1482.55 2320 1479.01 Q2321.83 1475.44 2321.83 1468.33 Q2321.83 1461.2 2320 1457.66 Q2318.19 1454.1 2314.56 1454.1 M2314.56 1450.39 Q2320.37 1450.39 2323.43 1455 Q2326.5 1459.58 2326.5 1468.33 Q2326.5 1477.06 2323.43 1481.67 Q2320.37 1486.25 2314.56 1486.25 Q2308.75 1486.25 2305.67 1481.67 Q2302.62 1477.06 2302.62 1468.33 Q2302.62 1459.58 2305.67 1455 Q2308.75 1450.39 2314.56 1450.39 Z" fill="#000000" fill-rule="nonzero" fill-opacity="1" /><path clip-path="url(#clip280)" d="M2344.72 1454.1 Q2341.11 1454.1 2339.28 1457.66 Q2337.48 1461.2 2337.48 1468.33 Q2337.48 1475.44 2339.28 1479.01 Q2341.11 1482.55 2344.72 1482.55 Q2348.36 1482.55 2350.16 1479.01 Q2351.99 1475.44 2351.99 1468.33 Q2351.99 1461.2 2350.16 1457.66 Q2348.36 1454.1 2344.72 1454.1 M2344.72 1450.39 Q2350.53 1450.39 2353.59 1455 Q2356.67 1459.58 2356.67 1468.33 Q2356.67 1477.06 2353.59 1481.67 Q2350.53 1486.25 2344.72 1486.25 Q2338.91 1486.25 2335.83 1481.67 Q2332.78 1477.06 2332.78 1468.33 Q2332.78 1459.58 2335.83 1455 Q2338.91 1450.39 2344.72 1450.39 Z" fill="#000000" fill-rule="nonzero" fill-opacity="1" /><path clip-path="url(#clip280)" d="M1312.69 1529.06 Q1312.69 1532.06 1311.17 1537.85 Q1310.56 1540.37 1309.72 1542.65 Q1308.92 1544.91 1307.73 1547.1 Q1306.53 1549.29 1305.15 1550.86 Q1303.76 1552.41 1301.96 1553.38 Q1300.16 1554.34 1298.16 1554.34 Q1295 1554.34 1293.14 1552.47 Q1291.3 1550.57 1290.72 1547.32 Q1286.41 1554.34 1280.64 1554.34 Q1277.07 1554.34 1275.39 1551.8 Q1273.72 1549.22 1273.72 1544.91 Q1273.72 1541.27 1274.68 1537.5 Q1276.52 1530.35 1280.09 1525.36 Q1280.58 1524.78 1281.28 1524.78 Q1281.7 1524.78 1281.9 1524.91 Q1282.48 1525.26 1282.48 1525.84 Q1282.48 1526.26 1282.15 1526.68 Q1279.9 1529.8 1278.42 1532.48 Q1276.94 1535.15 1276.26 1537.85 Q1275.74 1540.17 1275.74 1542.14 Q1275.74 1545.45 1277.16 1547.52 Q1278.61 1549.58 1281.48 1549.58 Q1284.12 1549.58 1286.44 1547.93 Q1288.76 1546.26 1290.46 1543.46 Q1290.56 1540.4 1291.3 1537.5 Q1291.98 1534.41 1293.55 1534.41 Q1294.81 1534.41 1294.81 1536.11 Q1294.81 1536.69 1294.55 1537.85 Q1293.84 1540.91 1292.56 1543.65 Q1293.01 1546.32 1294.68 1547.97 Q1296.36 1549.58 1299.03 1549.58 Q1301.51 1549.58 1303.7 1547.77 Q1305.92 1545.97 1307.34 1543.33 Q1308.79 1540.66 1309.59 1537.5 Q1309.85 1536.44 1309.85 1535.08 Q1309.85 1531.48 1307.34 1529.25 Q1306.63 1528.55 1306.63 1527.61 Q1306.63 1526.52 1307.53 1525.52 Q1308.59 1524.46 1309.85 1524.46 Q1310.78 1524.46 1311.36 1525.04 Q1312.69 1526.19 1312.69 1529.06 Z" fill="#000000" fill-rule="nonzero" fill-opacity="1" /><polyline clip-path="url(#clip282)" style="stroke:#000000; stroke-linecap:round; stroke-linejoin:round; stroke-width:2; stroke-opacity:0.1; fill:none" points="235.283,1174.83 2352.76,1174.83 "/>
<polyline clip-path="url(#clip282)" style="stroke:#000000; stroke-linecap:round; stroke-linejoin:round; stroke-width:2; stroke-opacity:0.1; fill:none" points="235.283,866.865 2352.76,866.865 "/>
<polyline clip-path="url(#clip282)" style="stroke:#000000; stroke-linecap:round; stroke-linejoin:round; stroke-width:2; stroke-opacity:0.1; fill:none" points="235.283,558.905 2352.76,558.905 "/>
<polyline clip-path="url(#clip282)" style="stroke:#000000; stroke-linecap:round; stroke-linejoin:round; stroke-width:2; stroke-opacity:0.1; fill:none" points="235.283,250.944 2352.76,250.944 "/>
<polyline clip-path="url(#clip280)" style="stroke:#000000; stroke-linecap:round; stroke-linejoin:round; stroke-width:4; stroke-opacity:1; fill:none" points="235.283,1423.18 235.283,47.2441 "/>
<polyline clip-path="url(#clip280)" style="stroke:#000000; stroke-linecap:round; stroke-linejoin:round; stroke-width:4; stroke-opacity:1; fill:none" points="235.283,1174.83 254.18,1174.83 "/>
<polyline clip-path="url(#clip280)" style="stroke:#000000; stroke-linecap:round; stroke-linejoin:round; stroke-width:4; stroke-opacity:1; fill:none" points="235.283,866.865 254.18,866.865 "/>
<polyline clip-path="url(#clip280)" style="stroke:#000000; stroke-linecap:round; stroke-linejoin:round; stroke-width:4; stroke-opacity:1; fill:none" points="235.283,558.905 254.18,558.905 "/>
<polyline clip-path="url(#clip280)" style="stroke:#000000; stroke-linecap:round; stroke-linejoin:round; stroke-width:4; stroke-opacity:1; fill:none" points="235.283,250.944 254.18,250.944 "/>
<path clip-path="url(#clip280)" d="M121.043 1188.17 L137.362 1188.17 L137.362 1192.11 L115.418 1192.11 L115.418 1188.17 Q118.08 1185.42 122.663 1180.79 Q127.269 1176.13 128.45 1174.79 Q130.695 1172.27 131.575 1170.53 Q132.478 1168.77 132.478 1167.08 Q132.478 1164.33 130.533 1162.59 Q128.612 1160.86 125.51 1160.86 Q123.311 1160.86 120.857 1161.62 Q118.427 1162.38 115.649 1163.93 L115.649 1159.21 Q118.473 1158.08 120.927 1157.5 Q123.38 1156.92 125.418 1156.92 Q130.788 1156.92 133.982 1159.61 Q137.177 1162.29 137.177 1166.78 Q137.177 1168.91 136.367 1170.83 Q135.579 1172.73 133.473 1175.32 Q132.894 1175.99 129.792 1179.21 Q126.691 1182.41 121.043 1188.17 Z" fill="#000000" fill-rule="nonzero" fill-opacity="1" /><path clip-path="url(#clip280)" d="M157.177 1160.62 Q153.566 1160.62 151.737 1164.19 Q149.931 1167.73 149.931 1174.86 Q149.931 1181.97 151.737 1185.53 Q153.566 1189.07 157.177 1189.07 Q160.811 1189.07 162.616 1185.53 Q164.445 1181.97 164.445 1174.86 Q164.445 1167.73 162.616 1164.19 Q160.811 1160.62 157.177 1160.62 M157.177 1156.92 Q162.987 1156.92 166.042 1161.53 Q169.121 1166.11 169.121 1174.86 Q169.121 1183.59 166.042 1188.19 Q162.987 1192.78 157.177 1192.78 Q151.366 1192.78 148.288 1188.19 Q145.232 1183.59 145.232 1174.86 Q145.232 1166.11 148.288 1161.53 Q151.366 1156.92 157.177 1156.92 Z" fill="#000000" fill-rule="nonzero" fill-opacity="1" /><path clip-path="url(#clip280)" d="M187.338 1160.62 Q183.727 1160.62 181.899 1164.19 Q180.093 1167.73 180.093 1174.86 Q180.093 1181.97 181.899 1185.53 Q183.727 1189.07 187.338 1189.07 Q190.973 1189.07 192.778 1185.53 Q194.607 1181.97 194.607 1174.86 Q194.607 1167.73 192.778 1164.19 Q190.973 1160.62 187.338 1160.62 M187.338 1156.92 Q193.149 1156.92 196.204 1161.53 Q199.283 1166.11 199.283 1174.86 Q199.283 1183.59 196.204 1188.19 Q193.149 1192.78 187.338 1192.78 Q181.528 1192.78 178.45 1188.19 Q175.394 1183.59 175.394 1174.86 Q175.394 1166.11 178.45 1161.53 Q181.528 1156.92 187.338 1156.92 Z" fill="#000000" fill-rule="nonzero" fill-opacity="1" /><path clip-path="url(#clip280)" d="M129.862 853.659 L118.056 872.108 L129.862 872.108 L129.862 853.659 M128.635 849.585 L134.515 849.585 L134.515 872.108 L139.445 872.108 L139.445 875.997 L134.515 875.997 L134.515 884.145 L129.862 884.145 L129.862 875.997 L114.26 875.997 L114.26 871.483 L128.635 849.585 Z" fill="#000000" fill-rule="nonzero" fill-opacity="1" /><path clip-path="url(#clip280)" d="M157.177 852.664 Q153.566 852.664 151.737 856.228 Q149.931 859.77 149.931 866.9 Q149.931 874.006 151.737 877.571 Q153.566 881.113 157.177 881.113 Q160.811 881.113 162.616 877.571 Q164.445 874.006 164.445 866.9 Q164.445 859.77 162.616 856.228 Q160.811 852.664 157.177 852.664 M157.177 848.96 Q162.987 848.96 166.042 853.566 Q169.121 858.15 169.121 866.9 Q169.121 875.627 166.042 880.233 Q162.987 884.816 157.177 884.816 Q151.366 884.816 148.288 880.233 Q145.232 875.627 145.232 866.9 Q145.232 858.15 148.288 853.566 Q151.366 848.96 157.177 848.96 Z" fill="#000000" fill-rule="nonzero" fill-opacity="1" /><path clip-path="url(#clip280)" d="M187.338 852.664 Q183.727 852.664 181.899 856.228 Q180.093 859.77 180.093 866.9 Q180.093 874.006 181.899 877.571 Q183.727 881.113 187.338 881.113 Q190.973 881.113 192.778 877.571 Q194.607 874.006 194.607 866.9 Q194.607 859.77 192.778 856.228 Q190.973 852.664 187.338 852.664 M187.338 848.96 Q193.149 848.96 196.204 853.566 Q199.283 858.15 199.283 866.9 Q199.283 875.627 196.204 880.233 Q193.149 884.816 187.338 884.816 Q181.528 884.816 178.45 880.233 Q175.394 875.627 175.394 866.9 Q175.394 858.15 178.45 853.566 Q181.528 848.96 187.338 848.96 Z" fill="#000000" fill-rule="nonzero" fill-opacity="1" /><path clip-path="url(#clip280)" d="M127.593 557.041 Q124.445 557.041 122.593 559.194 Q120.765 561.347 120.765 565.097 Q120.765 568.824 122.593 571 Q124.445 573.152 127.593 573.152 Q130.742 573.152 132.57 571 Q134.422 568.824 134.422 565.097 Q134.422 561.347 132.57 559.194 Q130.742 557.041 127.593 557.041 M136.876 542.389 L136.876 546.648 Q135.117 545.814 133.311 545.375 Q131.529 544.935 129.769 544.935 Q125.14 544.935 122.686 548.06 Q120.255 551.185 119.908 557.504 Q121.274 555.49 123.334 554.426 Q125.394 553.338 127.871 553.338 Q133.08 553.338 136.089 556.509 Q139.121 559.657 139.121 565.097 Q139.121 570.421 135.973 573.638 Q132.825 576.856 127.593 576.856 Q121.598 576.856 118.427 572.273 Q115.256 567.666 115.256 558.939 Q115.256 550.745 119.144 545.884 Q123.033 541 129.584 541 Q131.343 541 133.126 541.347 Q134.931 541.694 136.876 542.389 Z" fill="#000000" fill-rule="nonzero" fill-opacity="1" /><path clip-path="url(#clip280)" d="M157.177 544.703 Q153.566 544.703 151.737 548.268 Q149.931 551.81 149.931 558.939 Q149.931 566.046 151.737 569.611 Q153.566 573.152 157.177 573.152 Q160.811 573.152 162.616 569.611 Q164.445 566.046 164.445 558.939 Q164.445 551.81 162.616 548.268 Q160.811 544.703 157.177 544.703 M157.177 541 Q162.987 541 166.042 545.606 Q169.121 550.189 169.121 558.939 Q169.121 567.666 166.042 572.273 Q162.987 576.856 157.177 576.856 Q151.366 576.856 148.288 572.273 Q145.232 567.666 145.232 558.939 Q145.232 550.189 148.288 545.606 Q151.366 541 157.177 541 Z" fill="#000000" fill-rule="nonzero" fill-opacity="1" /><path clip-path="url(#clip280)" d="M187.338 544.703 Q183.727 544.703 181.899 548.268 Q180.093 551.81 180.093 558.939 Q180.093 566.046 181.899 569.611 Q183.727 573.152 187.338 573.152 Q190.973 573.152 192.778 569.611 Q194.607 566.046 194.607 558.939 Q194.607 551.81 192.778 548.268 Q190.973 544.703 187.338 544.703 M187.338 541 Q193.149 541 196.204 545.606 Q199.283 550.189 199.283 558.939 Q199.283 567.666 196.204 572.273 Q193.149 576.856 187.338 576.856 Q181.528 576.856 178.45 572.273 Q175.394 567.666 175.394 558.939 Q175.394 550.189 178.45 545.606 Q181.528 541 187.338 541 Z" fill="#000000" fill-rule="nonzero" fill-opacity="1" /><path clip-path="url(#clip280)" d="M127.015 251.812 Q123.681 251.812 121.76 253.595 Q119.862 255.377 119.862 258.502 Q119.862 261.627 121.76 263.41 Q123.681 265.192 127.015 265.192 Q130.348 265.192 132.269 263.41 Q134.191 261.604 134.191 258.502 Q134.191 255.377 132.269 253.595 Q130.371 251.812 127.015 251.812 M122.339 249.822 Q119.33 249.081 117.64 247.021 Q115.973 244.961 115.973 241.998 Q115.973 237.854 118.913 235.447 Q121.876 233.039 127.015 233.039 Q132.177 233.039 135.117 235.447 Q138.056 237.854 138.056 241.998 Q138.056 244.961 136.367 247.021 Q134.7 249.081 131.714 249.822 Q135.093 250.609 136.968 252.9 Q138.867 255.192 138.867 258.502 Q138.867 263.525 135.788 266.211 Q132.732 268.896 127.015 268.896 Q121.297 268.896 118.218 266.211 Q115.163 263.525 115.163 258.502 Q115.163 255.192 117.061 252.9 Q118.959 250.609 122.339 249.822 M120.626 242.438 Q120.626 245.123 122.293 246.627 Q123.982 248.132 127.015 248.132 Q130.024 248.132 131.714 246.627 Q133.427 245.123 133.427 242.438 Q133.427 239.752 131.714 238.248 Q130.024 236.743 127.015 236.743 Q123.982 236.743 122.293 238.248 Q120.626 239.752 120.626 242.438 Z" fill="#000000" fill-rule="nonzero" fill-opacity="1" /><path clip-path="url(#clip280)" d="M157.177 236.743 Q153.566 236.743 151.737 240.308 Q149.931 243.85 149.931 250.979 Q149.931 258.086 151.737 261.65 Q153.566 265.192 157.177 265.192 Q160.811 265.192 162.616 261.65 Q164.445 258.086 164.445 250.979 Q164.445 243.85 162.616 240.308 Q160.811 236.743 157.177 236.743 M157.177 233.039 Q162.987 233.039 166.042 237.646 Q169.121 242.229 169.121 250.979 Q169.121 259.706 166.042 264.312 Q162.987 268.896 157.177 268.896 Q151.366 268.896 148.288 264.312 Q145.232 259.706 145.232 250.979 Q145.232 242.229 148.288 237.646 Q151.366 233.039 157.177 233.039 Z" fill="#000000" fill-rule="nonzero" fill-opacity="1" /><path clip-path="url(#clip280)" d="M187.338 236.743 Q183.727 236.743 181.899 240.308 Q180.093 243.85 180.093 250.979 Q180.093 258.086 181.899 261.65 Q183.727 265.192 187.338 265.192 Q190.973 265.192 192.778 261.65 Q194.607 258.086 194.607 250.979 Q194.607 243.85 192.778 240.308 Q190.973 236.743 187.338 236.743 M187.338 233.039 Q193.149 233.039 196.204 237.646 Q199.283 242.229 199.283 250.979 Q199.283 259.706 196.204 264.312 Q193.149 268.896 187.338 268.896 Q181.528 268.896 178.45 264.312 Q175.394 259.706 175.394 250.979 Q175.394 242.229 178.45 237.646 Q181.528 233.039 187.338 233.039 Z" fill="#000000" fill-rule="nonzero" fill-opacity="1" /><path clip-path="url(#clip280)" d="M29.4065 885.586 L34.9447 885.586 Q33.6716 888.068 33.035 890.742 Q32.3984 893.416 32.3984 896.28 Q32.3984 900.641 33.7352 902.837 Q35.072 905.001 37.7456 905.001 Q39.7826 905.001 40.9603 903.442 Q42.1061 901.882 43.1565 897.171 L43.6021 895.166 Q44.9389 888.928 47.3897 886.318 Q49.8086 883.676 54.1691 883.676 Q59.1344 883.676 62.0308 887.623 Q64.9272 891.538 64.9272 898.413 Q64.9272 901.277 64.3543 904.397 Q63.8132 907.484 62.6992 910.921 L56.6518 910.921 Q58.3387 907.675 59.198 904.524 Q60.0256 901.373 60.0256 898.285 Q60.0256 894.148 58.6251 891.92 Q57.1929 889.692 54.6147 889.692 Q52.2276 889.692 50.9545 891.315 Q49.6813 892.906 48.5037 898.349 L48.0262 900.386 Q46.8804 905.829 44.5251 908.248 Q42.138 910.667 38.0002 910.667 Q32.9713 910.667 30.2341 907.102 Q27.4968 903.537 27.4968 896.98 Q27.4968 893.734 27.9743 890.869 Q28.4517 888.005 29.4065 885.586 M23.8365 899.145 L11.869 906.943 L11.869 902.519 L19.667 896.79 L11.869 891.06 L11.869 886.636 L23.8365 894.434 L23.8365 899.145 M27.4968 896.917 L27.4968 896.917 Z" fill="#000000" fill-rule="nonzero" fill-opacity="1" /><path clip-path="url(#clip280)" d="M18.2347 868.558 L28.3562 868.558 L28.3562 856.495 L32.9077 856.495 L32.9077 868.558 L52.2594 868.558 Q56.6199 868.558 57.8613 867.38 Q59.1026 866.17 59.1026 862.51 L59.1026 856.495 L64.0042 856.495 L64.0042 862.51 Q64.0042 869.29 61.4897 871.868 Q58.9434 874.446 52.2594 874.446 L32.9077 874.446 L32.9077 878.743 L28.3562 878.743 L28.3562 874.446 L18.2347 874.446 L18.2347 868.558 Z" fill="#000000" fill-rule="nonzero" fill-opacity="1" /><path clip-path="url(#clip280)" d="M55.9197 847.965 L55.9197 841.249 L64.0042 841.249 L64.0042 847.965 L55.9197 847.965 Z" fill="#000000" fill-rule="nonzero" fill-opacity="1" /><path clip-path="url(#clip280)" d="M14.479 807.574 L14.479 801.686 L43.7294 801.686 L28.3562 784.212 L28.3562 776.732 L45.0344 795.638 L64.0042 775.937 L64.0042 783.575 L46.5939 801.686 L64.0042 801.686 L64.0042 807.574 L14.479 807.574 Z" fill="#000000" fill-rule="nonzero" fill-opacity="1" /><path clip-path="url(#clip280)" d="M32.4621 758.113 Q32.4621 762.823 36.1542 765.56 Q39.8145 768.298 46.212 768.298 Q52.6095 768.298 56.3017 765.592 Q59.9619 762.855 59.9619 758.113 Q59.9619 753.434 56.2698 750.697 Q52.5777 747.959 46.212 747.959 Q39.8781 747.959 36.186 750.697 Q32.4621 753.434 32.4621 758.113 M27.4968 758.113 Q27.4968 750.474 32.4621 746.113 Q37.4273 741.753 46.212 741.753 Q54.9649 741.753 59.9619 746.113 Q64.9272 750.474 64.9272 758.113 Q64.9272 765.783 59.9619 770.144 Q54.9649 774.472 46.212 774.472 Q37.4273 774.472 32.4621 770.144 Q27.4968 765.783 27.4968 758.113 Z" fill="#000000" fill-rule="nonzero" fill-opacity="1" /><path clip-path="url(#clip280)" d="M33.8307 711.388 Q33.2578 712.375 33.0032 713.553 Q32.7167 714.698 32.7167 716.099 Q32.7167 721.064 35.9632 723.738 Q39.1779 726.38 45.2253 726.38 L64.0042 726.38 L64.0042 732.268 L28.3562 732.268 L28.3562 726.38 L33.8944 726.38 Q30.6479 724.533 29.0883 721.573 Q27.4968 718.613 27.4968 714.38 Q27.4968 713.775 27.5923 713.043 Q27.656 712.311 27.8151 711.42 L33.8307 711.388 Z" fill="#000000" fill-rule="nonzero" fill-opacity="1" /><path clip-path="url(#clip280)" d="M46.0847 689.045 Q46.0847 696.142 47.7079 698.88 Q49.3312 701.617 53.2461 701.617 Q56.3653 701.617 58.2114 699.58 Q60.0256 697.511 60.0256 693.978 Q60.0256 689.108 56.5881 686.18 Q53.1188 683.22 47.3897 683.22 L46.0847 683.22 L46.0847 689.045 M43.6657 677.364 L64.0042 677.364 L64.0042 683.22 L58.5933 683.22 Q61.8398 685.225 63.3994 688.217 Q64.9272 691.209 64.9272 695.538 Q64.9272 701.012 61.8716 704.259 Q58.7843 707.473 53.6281 707.473 Q47.6125 707.473 44.5569 703.463 Q41.5014 699.421 41.5014 691.432 L41.5014 683.22 L40.9285 683.22 Q36.8862 683.22 34.6901 685.894 Q32.4621 688.535 32.4621 693.342 Q32.4621 696.397 33.1941 699.293 Q33.9262 702.19 35.3903 704.863 L29.9795 704.863 Q28.7381 701.649 28.1334 698.625 Q27.4968 695.601 27.4968 692.737 Q27.4968 685.002 31.5072 681.183 Q35.5176 677.364 43.6657 677.364 Z" fill="#000000" fill-rule="nonzero" fill-opacity="1" /><path clip-path="url(#clip280)" d="M14.479 665.523 L14.479 659.635 L43.7294 659.635 L28.3562 642.161 L28.3562 634.682 L45.0344 653.588 L64.0042 633.886 L64.0042 641.525 L46.5939 659.635 L64.0042 659.635 L64.0042 665.523 L14.479 665.523 Z" fill="#000000" fill-rule="nonzero" fill-opacity="1" /><path clip-path="url(#clip280)" d="M32.4621 616.062 Q32.4621 620.772 36.1542 623.51 Q39.8145 626.247 46.212 626.247 Q52.6095 626.247 56.3017 623.542 Q59.9619 620.804 59.9619 616.062 Q59.9619 611.383 56.2698 608.646 Q52.5777 605.909 46.212 605.909 Q39.8781 605.909 36.186 608.646 Q32.4621 611.383 32.4621 616.062 M27.4968 616.062 Q27.4968 608.423 32.4621 604.062 Q37.4273 599.702 46.212 599.702 Q54.9649 599.702 59.9619 604.062 Q64.9272 608.423 64.9272 616.062 Q64.9272 623.733 59.9619 628.093 Q54.9649 632.422 46.212 632.422 Q37.4273 632.422 32.4621 628.093 Q27.4968 623.733 27.4968 616.062 Z" fill="#000000" fill-rule="nonzero" fill-opacity="1" /><path clip-path="url(#clip280)" d="M28.3562 594.196 L28.3562 587.989 L58.275 576.849 L28.3562 565.709 L28.3562 559.503 L64.0042 572.871 L64.0042 580.828 L28.3562 594.196 Z" fill="#000000" fill-rule="nonzero" fill-opacity="1" /><polyline clip-path="url(#clip282)" style="stroke:#009af9; stroke-linecap:round; stroke-linejoin:round; stroke-width:4; stroke-opacity:1; fill:none" points="295.211,86.1857 315.389,120.061 335.567,152.397 355.745,184.733 375.923,213.989 396.101,244.785 416.279,272.502 436.457,300.218 456.635,326.395 476.813,352.571 496.991,378.748 517.169,403.385 537.347,428.022 557.525,451.119 577.702,472.676 597.88,495.773 618.058,517.33 638.236,538.887 658.414,558.905 678.592,578.922 698.77,598.94 718.948,617.417 739.126,635.895 759.304,654.372 779.482,672.85 799.66,689.788 819.838,706.726 840.016,723.663 860.194,740.601 880.372,755.999 900.55,772.937 920.727,788.335 940.905,803.733 961.083,817.591 981.261,832.989 1001.44,846.848 1021.62,860.706 1041.8,874.564 1061.97,888.422 1082.15,902.28 1102.33,914.599 1122.51,928.457 1142.68,940.775 1162.86,953.094 1183.04,965.412 1203.22,977.731 1223.4,990.049 1243.57,1000.83 1263.75,1013.15 1283.93,1023.92 1304.11,1036.24 1324.29,1047.02 1344.46,1057.8 1364.64,1068.58 1384.82,1079.36 1405,1090.14 1425.18,1100.91 1445.35,1110.15 1465.53,1120.93 1485.71,1130.17 1505.89,1140.95 1526.07,1150.19 1546.24,1160.97 1566.42,1170.21 1586.6,1179.44 1606.78,1188.68 1626.96,1197.92 1647.13,1207.16 1667.31,1216.4 1687.49,1225.64 1707.67,1234.88 1727.85,1244.12 1748.02,1253.36 1768.2,1261.05 1788.38,1270.29 1808.56,1279.53 1828.73,1288.77 1848.91,1296.47 1869.09,1305.71 1889.27,1314.95 1909.45,1322.65 1929.62,1331.89 1949.8,1341.12 1969.98,1350.36 1990.16,1359.6 2010.34,1370.38 2030.51,1379.62 2050.69,1384.24 2070.87,1382.7 2091.05,1381.16 2111.23,1379.62 2131.4,1376.54 2151.58,1362.68 2171.76,1338.04 2191.94,1313.41 2212.12,1281.07 2232.29,1228.72 2252.47,1139.41 2272.65,936.156 2292.83,178.574 "/>
</svg>
