<?xml version="1.0" encoding="utf-8"?>
<svg xmlns="http://www.w3.org/2000/svg" xmlns:xlink="http://www.w3.org/1999/xlink" width="600" height="400" viewBox="0 0 2400 1600">
<defs>
  <clipPath id="clip540">
    <rect x="0" y="0" width="2400" height="1600"/>
  </clipPath>
</defs>
<path clip-path="url(#clip540)" d="M0 1600 L2400 1600 L2400 0 L0 0  Z" fill="#ffffff" fill-rule="evenodd" fill-opacity="1"/>
<defs>
  <clipPath id="clip541">
    <rect x="480" y="0" width="1681" height="1600"/>
  </clipPath>
</defs>
<path clip-path="url(#clip540)" d="M178.867 1486.45 L2112.76 1486.45 L2112.76 47.2441 L178.867 47.2441  Z" fill="#ffffff" fill-rule="evenodd" fill-opacity="1"/>
<defs>
  <clipPath id="clip542">
    <rect x="178" y="47" width="1935" height="1440"/>
  </clipPath>
</defs>
<polyline clip-path="url(#clip542)" style="stroke:#000000; stroke-linecap:round; stroke-linejoin:round; stroke-width:2; stroke-opacity:0.1; fill:none" points="233.599,1486.45 233.599,47.2441 "/>
<polyline clip-path="url(#clip542)" style="stroke:#000000; stroke-linecap:round; stroke-linejoin:round; stroke-width:2; stroke-opacity:0.1; fill:none" points="689.705,1486.45 689.705,47.2441 "/>
<polyline clip-path="url(#clip542)" style="stroke:#000000; stroke-linecap:round; stroke-linejoin:round; stroke-width:2; stroke-opacity:0.1; fill:none" points="1145.81,1486.45 1145.81,47.2441 "/>
<polyline clip-path="url(#clip542)" style="stroke:#000000; stroke-linecap:round; stroke-linejoin:round; stroke-width:2; stroke-opacity:0.1; fill:none" points="1601.92,1486.45 1601.92,47.2441 "/>
<polyline clip-path="url(#clip542)" style="stroke:#000000; stroke-linecap:round; stroke-linejoin:round; stroke-width:2; stroke-opacity:0.1; fill:none" points="2058.02,1486.45 2058.02,47.2441 "/>
<polyline clip-path="url(#clip542)" style="stroke:#000000; stroke-linecap:round; stroke-linejoin:round; stroke-width:2; stroke-opacity:0.1; fill:none" points="178.867,1445.72 2112.76,1445.72 "/>
<polyline clip-path="url(#clip542)" style="stroke:#000000; stroke-linecap:round; stroke-linejoin:round; stroke-width:2; stroke-opacity:0.1; fill:none" points="178.867,1106.28 2112.76,1106.28 "/>
<polyline clip-path="url(#clip542)" style="stroke:#000000; stroke-linecap:round; stroke-linejoin:round; stroke-width:2; stroke-opacity:0.1; fill:none" points="178.867,766.846 2112.76,766.846 "/>
<polyline clip-path="url(#clip542)" style="stroke:#000000; stroke-linecap:round; stroke-linejoin:round; stroke-width:2; stroke-opacity:0.1; fill:none" points="178.867,427.411 2112.76,427.411 "/>
<polyline clip-path="url(#clip542)" style="stroke:#000000; stroke-linecap:round; stroke-linejoin:round; stroke-width:2; stroke-opacity:0.1; fill:none" points="178.867,87.9763 2112.76,87.9763 "/>
<polyline clip-path="url(#clip540)" style="stroke:#000000; stroke-linecap:round; stroke-linejoin:round; stroke-width:4; stroke-opacity:1; fill:none" points="178.867,1486.45 2112.76,1486.45 "/>
<polyline clip-path="url(#clip540)" style="stroke:#000000; stroke-linecap:round; stroke-linejoin:round; stroke-width:4; stroke-opacity:1; fill:none" points="233.599,1486.45 233.599,1467.55 "/>
<polyline clip-path="url(#clip540)" style="stroke:#000000; stroke-linecap:round; stroke-linejoin:round; stroke-width:4; stroke-opacity:1; fill:none" points="689.705,1486.45 689.705,1467.55 "/>
<polyline clip-path="url(#clip540)" style="stroke:#000000; stroke-linecap:round; stroke-linejoin:round; stroke-width:4; stroke-opacity:1; fill:none" points="1145.81,1486.45 1145.81,1467.55 "/>
<polyline clip-path="url(#clip540)" style="stroke:#000000; stroke-linecap:round; stroke-linejoin:round; stroke-width:4; stroke-opacity:1; fill:none" points="1601.92,1486.45 1601.92,1467.55 "/>
<polyline clip-path="url(#clip540)" style="stroke:#000000; stroke-linecap:round; stroke-linejoin:round; stroke-width:4; stroke-opacity:1; fill:none" points="2058.02,1486.45 2058.02,1467.55 "/>
<path clip-path="url(#clip540)" d="M187.662 1532.02 L217.338 1532.02 L217.338 1535.95 L187.662 1535.95 L187.662 1532.02 Z" fill="#000000" fill-rule="nonzero" fill-opacity="1" /><path clip-path="url(#clip540)" d="M228.241 1544.91 L235.879 1544.91 L235.879 1518.55 L227.569 1520.21 L227.569 1515.95 L235.833 1514.29 L240.509 1514.29 L240.509 1544.91 L248.148 1544.91 L248.148 1548.85 L228.241 1548.85 L228.241 1544.91 Z" fill="#000000" fill-rule="nonzero" fill-opacity="1" /><path clip-path="url(#clip540)" d="M267.592 1517.37 Q263.981 1517.37 262.152 1520.93 Q260.347 1524.47 260.347 1531.6 Q260.347 1538.71 262.152 1542.27 Q263.981 1545.82 267.592 1545.82 Q271.226 1545.82 273.032 1542.27 Q274.861 1538.71 274.861 1531.6 Q274.861 1524.47 273.032 1520.93 Q271.226 1517.37 267.592 1517.37 M267.592 1513.66 Q273.402 1513.66 276.458 1518.27 Q279.537 1522.85 279.537 1531.6 Q279.537 1540.33 276.458 1544.94 Q273.402 1549.52 267.592 1549.52 Q261.782 1549.52 258.703 1544.94 Q255.648 1540.33 255.648 1531.6 Q255.648 1522.85 258.703 1518.27 Q261.782 1513.66 267.592 1513.66 Z" fill="#000000" fill-rule="nonzero" fill-opacity="1" /><path clip-path="url(#clip540)" d="M659.347 1532.02 L689.022 1532.02 L689.022 1535.95 L659.347 1535.95 L659.347 1532.02 Z" fill="#000000" fill-rule="nonzero" fill-opacity="1" /><path clip-path="url(#clip540)" d="M699.161 1514.29 L717.518 1514.29 L717.518 1518.22 L703.444 1518.22 L703.444 1526.7 Q704.462 1526.35 705.481 1526.19 Q706.499 1526 707.518 1526 Q713.305 1526 716.684 1529.17 Q720.064 1532.34 720.064 1537.76 Q720.064 1543.34 716.592 1546.44 Q713.12 1549.52 706.8 1549.52 Q704.624 1549.52 702.356 1549.15 Q700.11 1548.78 697.703 1548.04 L697.703 1543.34 Q699.786 1544.47 702.008 1545.03 Q704.231 1545.58 706.708 1545.58 Q710.712 1545.58 713.05 1543.48 Q715.388 1541.37 715.388 1537.76 Q715.388 1534.15 713.05 1532.04 Q710.712 1529.94 706.708 1529.94 Q704.833 1529.94 702.958 1530.35 Q701.106 1530.77 699.161 1531.65 L699.161 1514.29 Z" fill="#000000" fill-rule="nonzero" fill-opacity="1" /><path clip-path="url(#clip540)" d="M1145.81 1517.37 Q1142.2 1517.37 1140.37 1520.93 Q1138.57 1524.47 1138.57 1531.6 Q1138.57 1538.71 1140.37 1542.27 Q1142.2 1545.82 1145.81 1545.82 Q1149.45 1545.82 1151.25 1542.27 Q1153.08 1538.71 1153.08 1531.6 Q1153.08 1524.47 1151.25 1520.93 Q1149.45 1517.37 1145.81 1517.37 M1145.81 1513.66 Q1151.62 1513.66 1154.68 1518.27 Q1157.76 1522.85 1157.76 1531.6 Q1157.76 1540.33 1154.68 1544.94 Q1151.62 1549.52 1145.81 1549.52 Q1140 1549.52 1136.92 1544.94 Q1133.87 1540.33 1133.87 1531.6 Q1133.87 1522.85 1136.92 1518.27 Q1140 1513.66 1145.81 1513.66 Z" fill="#000000" fill-rule="nonzero" fill-opacity="1" /><path clip-path="url(#clip540)" d="M1592.2 1514.29 L1610.55 1514.29 L1610.55 1518.22 L1596.48 1518.22 L1596.48 1526.7 Q1597.5 1526.35 1598.51 1526.19 Q1599.53 1526 1600.55 1526 Q1606.34 1526 1609.72 1529.17 Q1613.1 1532.34 1613.1 1537.76 Q1613.1 1543.34 1609.63 1546.44 Q1606.15 1549.52 1599.83 1549.52 Q1597.66 1549.52 1595.39 1549.15 Q1593.14 1548.78 1590.74 1548.04 L1590.74 1543.34 Q1592.82 1544.47 1595.04 1545.03 Q1597.26 1545.58 1599.74 1545.58 Q1603.75 1545.58 1606.08 1543.48 Q1608.42 1541.37 1608.42 1537.76 Q1608.42 1534.15 1606.08 1532.04 Q1603.75 1529.94 1599.74 1529.94 Q1597.87 1529.94 1595.99 1530.35 Q1594.14 1530.77 1592.2 1531.65 L1592.2 1514.29 Z" fill="#000000" fill-rule="nonzero" fill-opacity="1" /><path clip-path="url(#clip540)" d="M2032.71 1544.91 L2040.35 1544.91 L2040.35 1518.55 L2032.04 1520.21 L2032.04 1515.95 L2040.3 1514.29 L2044.98 1514.29 L2044.98 1544.91 L2052.62 1544.91 L2052.62 1548.85 L2032.71 1548.85 L2032.71 1544.91 Z" fill="#000000" fill-rule="nonzero" fill-opacity="1" /><path clip-path="url(#clip540)" d="M2072.06 1517.37 Q2068.45 1517.37 2066.62 1520.93 Q2064.82 1524.47 2064.82 1531.6 Q2064.82 1538.71 2066.62 1542.27 Q2068.45 1545.82 2072.06 1545.82 Q2075.7 1545.82 2077.5 1542.27 Q2079.33 1538.71 2079.33 1531.6 Q2079.33 1524.47 2077.5 1520.93 Q2075.7 1517.37 2072.06 1517.37 M2072.06 1513.66 Q2077.87 1513.66 2080.93 1518.27 Q2084.01 1522.85 2084.01 1531.6 Q2084.01 1540.33 2080.93 1544.94 Q2077.87 1549.52 2072.06 1549.52 Q2066.25 1549.52 2063.17 1544.94 Q2060.12 1540.33 2060.12 1531.6 Q2060.12 1522.85 2063.17 1518.27 Q2066.25 1513.66 2072.06 1513.66 Z" fill="#000000" fill-rule="nonzero" fill-opacity="1" /><polyline clip-path="url(#clip540)" style="stroke:#000000; stroke-linecap:round; stroke-linejoin:round; stroke-width:4; stroke-opacity:1; fill:none" points="178.867,1486.45 178.867,47.2441 "/>
<polyline clip-path="url(#clip540)" style="stroke:#000000; stroke-linecap:round; stroke-linejoin:round; stroke-width:4; stroke-opacity:1; fill:none" points="178.867,1445.72 195.678,1445.72 "/>
<polyline clip-path="url(#clip540)" style="stroke:#000000; stroke-linecap:round; stroke-linejoin:round; stroke-width:4; stroke-opacity:1; fill:none" points="178.867,1106.28 195.678,1106.28 "/>
<polyline clip-path="url(#clip540)" style="stroke:#000000; stroke-linecap:round; stroke-linejoin:round; stroke-width:4; stroke-opacity:1; fill:none" points="178.867,766.846 195.678,766.846 "/>
<polyline clip-path="url(#clip540)" style="stroke:#000000; stroke-linecap:round; stroke-linejoin:round; stroke-width:4; stroke-opacity:1; fill:none" points="178.867,427.411 195.678,427.411 "/>
<polyline clip-path="url(#clip540)" style="stroke:#000000; stroke-linecap:round; stroke-linejoin:round; stroke-width:4; stroke-opacity:1; fill:none" points="178.867,87.9763 195.678,87.9763 "/>
<path clip-path="url(#clip540)" d="M50.9921 1446.17 L80.6679 1446.17 L80.6679 1450.1 L50.9921 1450.1 L50.9921 1446.17 Z" fill="#000000" fill-rule="nonzero" fill-opacity="1" /><path clip-path="url(#clip540)" d="M91.5706 1459.06 L99.2095 1459.06 L99.2095 1432.69 L90.8993 1434.36 L90.8993 1430.1 L99.1632 1428.44 L103.839 1428.44 L103.839 1459.06 L111.478 1459.06 L111.478 1463 L91.5706 1463 L91.5706 1459.06 Z" fill="#000000" fill-rule="nonzero" fill-opacity="1" /><path clip-path="url(#clip540)" d="M130.922 1431.51 Q127.311 1431.51 125.482 1435.08 Q123.677 1438.62 123.677 1445.75 Q123.677 1452.86 125.482 1456.42 Q127.311 1459.96 130.922 1459.96 Q134.556 1459.96 136.362 1456.42 Q138.191 1452.86 138.191 1445.75 Q138.191 1438.62 136.362 1435.08 Q134.556 1431.51 130.922 1431.51 M130.922 1427.81 Q136.732 1427.81 139.788 1432.42 Q142.867 1437 142.867 1445.75 Q142.867 1454.48 139.788 1459.08 Q136.732 1463.67 130.922 1463.67 Q125.112 1463.67 122.033 1459.08 Q118.978 1454.48 118.978 1445.75 Q118.978 1437 122.033 1432.42 Q125.112 1427.81 130.922 1427.81 Z" fill="#000000" fill-rule="nonzero" fill-opacity="1" /><path clip-path="url(#clip540)" d="M82.1494 1106.73 L111.825 1106.73 L111.825 1110.67 L82.1494 1110.67 L82.1494 1106.73 Z" fill="#000000" fill-rule="nonzero" fill-opacity="1" /><path clip-path="url(#clip540)" d="M121.964 1089 L140.32 1089 L140.32 1092.94 L126.246 1092.94 L126.246 1101.41 Q127.265 1101.06 128.283 1100.9 Q129.302 1100.71 130.32 1100.71 Q136.107 1100.71 139.487 1103.89 Q142.867 1107.06 142.867 1112.47 Q142.867 1118.05 139.394 1121.15 Q135.922 1124.23 129.603 1124.23 Q127.427 1124.23 125.158 1123.86 Q122.913 1123.49 120.506 1122.75 L120.506 1118.05 Q122.589 1119.19 124.811 1119.74 Q127.033 1120.3 129.51 1120.3 Q133.515 1120.3 135.853 1118.19 Q138.191 1116.08 138.191 1112.47 Q138.191 1108.86 135.853 1106.76 Q133.515 1104.65 129.51 1104.65 Q127.635 1104.65 125.76 1105.07 Q123.908 1105.48 121.964 1106.36 L121.964 1089 Z" fill="#000000" fill-rule="nonzero" fill-opacity="1" /><path clip-path="url(#clip540)" d="M130.922 752.645 Q127.311 752.645 125.482 756.209 Q123.677 759.751 123.677 766.881 Q123.677 773.987 125.482 777.552 Q127.311 781.094 130.922 781.094 Q134.556 781.094 136.362 777.552 Q138.191 773.987 138.191 766.881 Q138.191 759.751 136.362 756.209 Q134.556 752.645 130.922 752.645 M130.922 748.941 Q136.732 748.941 139.788 753.547 Q142.867 758.131 142.867 766.881 Q142.867 775.608 139.788 780.214 Q136.732 784.797 130.922 784.797 Q125.112 784.797 122.033 780.214 Q118.978 775.608 118.978 766.881 Q118.978 758.131 122.033 753.547 Q125.112 748.941 130.922 748.941 Z" fill="#000000" fill-rule="nonzero" fill-opacity="1" /><path clip-path="url(#clip540)" d="M121.964 410.131 L140.32 410.131 L140.32 414.066 L126.246 414.066 L126.246 422.538 Q127.265 422.191 128.283 422.029 Q129.302 421.844 130.32 421.844 Q136.107 421.844 139.487 425.015 Q142.867 428.187 142.867 433.603 Q142.867 439.182 139.394 442.284 Q135.922 445.362 129.603 445.362 Q127.427 445.362 125.158 444.992 Q122.913 444.622 120.506 443.881 L120.506 439.182 Q122.589 440.316 124.811 440.872 Q127.033 441.427 129.51 441.427 Q133.515 441.427 135.853 439.321 Q138.191 437.214 138.191 433.603 Q138.191 429.992 135.853 427.886 Q133.515 425.779 129.51 425.779 Q127.635 425.779 125.76 426.196 Q123.908 426.613 121.964 427.492 L121.964 410.131 Z" fill="#000000" fill-rule="nonzero" fill-opacity="1" /><path clip-path="url(#clip540)" d="M91.5706 101.321 L99.2095 101.321 L99.2095 74.9555 L90.8993 76.6222 L90.8993 72.3629 L99.1632 70.6963 L103.839 70.6963 L103.839 101.321 L111.478 101.321 L111.478 105.256 L91.5706 105.256 L91.5706 101.321 Z" fill="#000000" fill-rule="nonzero" fill-opacity="1" /><path clip-path="url(#clip540)" d="M130.922 73.775 Q127.311 73.775 125.482 77.3398 Q123.677 80.8814 123.677 88.011 Q123.677 95.1174 125.482 98.6822 Q127.311 102.224 130.922 102.224 Q134.556 102.224 136.362 98.6822 Q138.191 95.1174 138.191 88.011 Q138.191 80.8814 136.362 77.3398 Q134.556 73.775 130.922 73.775 M130.922 70.0713 Q136.732 70.0713 139.788 74.6777 Q142.867 79.261 142.867 88.011 Q142.867 96.7378 139.788 101.344 Q136.732 105.928 130.922 105.928 Q125.112 105.928 122.033 101.344 Q118.978 96.7378 118.978 88.011 Q118.978 79.261 122.033 74.6777 Q125.112 70.0713 130.922 70.0713 Z" fill="#000000" fill-rule="nonzero" fill-opacity="1" /><circle clip-path="url(#clip542)" cx="1784.36" cy="766.846" r="14.4" fill="#009af9" fill-rule="evenodd" fill-opacity="1" stroke="#000000" stroke-opacity="1" stroke-width="3.2"/>
<circle clip-path="url(#clip542)" cx="1811.67" cy="663.585" r="14.4" fill="#009af9" fill-rule="evenodd" fill-opacity="1" stroke="#000000" stroke-opacity="1" stroke-width="3.2"/>
<circle clip-path="url(#clip542)" cx="1810.01" cy="487.525" r="14.4" fill="#009af9" fill-rule="evenodd" fill-opacity="1" stroke="#000000" stroke-opacity="1" stroke-width="3.2"/>
<circle clip-path="url(#clip542)" cx="1648.56" cy="287.569" r="14.4" fill="#009af9" fill-rule="evenodd" fill-opacity="1" stroke="#000000" stroke-opacity="1" stroke-width="3.2"/>
<circle clip-path="url(#clip542)" cx="1343.13" cy="185.767" r="14.4" fill="#009af9" fill-rule="evenodd" fill-opacity="1" stroke="#000000" stroke-opacity="1" stroke-width="3.2"/>
<circle clip-path="url(#clip542)" cx="1054.59" cy="223.75" r="14.4" fill="#009af9" fill-rule="evenodd" fill-opacity="1" stroke="#000000" stroke-opacity="1" stroke-width="3.2"/>
<circle clip-path="url(#clip542)" cx="892.111" cy="314.896" r="14.4" fill="#009af9" fill-rule="evenodd" fill-opacity="1" stroke="#000000" stroke-opacity="1" stroke-width="3.2"/>
<circle clip-path="url(#clip542)" cx="790.663" cy="367.375" r="14.4" fill="#009af9" fill-rule="evenodd" fill-opacity="1" stroke="#000000" stroke-opacity="1" stroke-width="3.2"/>
<circle clip-path="url(#clip542)" cx="629.215" cy="407.719" r="14.4" fill="#009af9" fill-rule="evenodd" fill-opacity="1" stroke="#000000" stroke-opacity="1" stroke-width="3.2"/>
<circle clip-path="url(#clip542)" cx="423.57" cy="534.456" r="14.4" fill="#009af9" fill-rule="evenodd" fill-opacity="1" stroke="#000000" stroke-opacity="1" stroke-width="3.2"/>
<circle clip-path="url(#clip542)" cx="324.821" cy="766.846" r="14.4" fill="#009af9" fill-rule="evenodd" fill-opacity="1" stroke="#000000" stroke-opacity="1" stroke-width="3.2"/>
<circle clip-path="url(#clip542)" cx="423.57" cy="999.236" r="14.4" fill="#009af9" fill-rule="evenodd" fill-opacity="1" stroke="#000000" stroke-opacity="1" stroke-width="3.2"/>
<circle clip-path="url(#clip542)" cx="629.215" cy="1125.97" r="14.4" fill="#009af9" fill-rule="evenodd" fill-opacity="1" stroke="#000000" stroke-opacity="1" stroke-width="3.2"/>
<circle clip-path="url(#clip542)" cx="790.663" cy="1166.32" r="14.4" fill="#009af9" fill-rule="evenodd" fill-opacity="1" stroke="#000000" stroke-opacity="1" stroke-width="3.2"/>
<circle clip-path="url(#clip542)" cx="892.111" cy="1218.8" r="14.4" fill="#009af9" fill-rule="evenodd" fill-opacity="1" stroke="#000000" stroke-opacity="1" stroke-width="3.2"/>
<circle clip-path="url(#clip542)" cx="1054.59" cy="1309.94" r="14.4" fill="#009af9" fill-rule="evenodd" fill-opacity="1" stroke="#000000" stroke-opacity="1" stroke-width="3.2"/>
<circle clip-path="url(#clip542)" cx="1343.13" cy="1347.93" r="14.4" fill="#009af9" fill-rule="evenodd" fill-opacity="1" stroke="#000000" stroke-opacity="1" stroke-width="3.2"/>
<circle clip-path="url(#clip542)" cx="1648.56" cy="1246.12" r="14.4" fill="#009af9" fill-rule="evenodd" fill-opacity="1" stroke="#000000" stroke-opacity="1" stroke-width="3.2"/>
<circle clip-path="url(#clip542)" cx="1810.01" cy="1046.17" r="14.4" fill="#009af9" fill-rule="evenodd" fill-opacity="1" stroke="#000000" stroke-opacity="1" stroke-width="3.2"/>
<circle clip-path="url(#clip542)" cx="1811.67" cy="870.107" r="14.4" fill="#009af9" fill-rule="evenodd" fill-opacity="1" stroke="#000000" stroke-opacity="1" stroke-width="3.2"/>
<circle clip-path="url(#clip542)" cx="1720.5" cy="766.846" r="14.4" fill="#e26f46" fill-rule="evenodd" fill-opacity="1" stroke="#000000" stroke-opacity="1" stroke-width="3.2"/>
<circle clip-path="url(#clip542)" cx="1745.09" cy="673.911" r="14.4" fill="#e26f46" fill-rule="evenodd" fill-opacity="1" stroke="#000000" stroke-opacity="1" stroke-width="3.2"/>
<circle clip-path="url(#clip542)" cx="1743.59" cy="515.457" r="14.4" fill="#e26f46" fill-rule="evenodd" fill-opacity="1" stroke="#000000" stroke-opacity="1" stroke-width="3.2"/>
<circle clip-path="url(#clip542)" cx="1598.28" cy="335.497" r="14.4" fill="#e26f46" fill-rule="evenodd" fill-opacity="1" stroke="#000000" stroke-opacity="1" stroke-width="3.2"/>
<circle clip-path="url(#clip542)" cx="1323.4" cy="243.875" r="14.4" fill="#e26f46" fill-rule="evenodd" fill-opacity="1" stroke="#000000" stroke-opacity="1" stroke-width="3.2"/>
<circle clip-path="url(#clip542)" cx="1063.71" cy="278.06" r="14.4" fill="#e26f46" fill-rule="evenodd" fill-opacity="1" stroke="#000000" stroke-opacity="1" stroke-width="3.2"/>
<circle clip-path="url(#clip542)" cx="917.481" cy="360.091" r="14.4" fill="#e26f46" fill-rule="evenodd" fill-opacity="1" stroke="#000000" stroke-opacity="1" stroke-width="3.2"/>
<circle clip-path="url(#clip542)" cx="826.178" cy="407.322" r="14.4" fill="#e26f46" fill-rule="evenodd" fill-opacity="1" stroke="#000000" stroke-opacity="1" stroke-width="3.2"/>
<circle clip-path="url(#clip542)" cx="680.874" cy="443.632" r="14.4" fill="#e26f46" fill-rule="evenodd" fill-opacity="1" stroke="#000000" stroke-opacity="1" stroke-width="3.2"/>
<circle clip-path="url(#clip542)" cx="495.794" cy="557.695" r="14.4" fill="#e26f46" fill-rule="evenodd" fill-opacity="1" stroke="#000000" stroke-opacity="1" stroke-width="3.2"/>
<circle clip-path="url(#clip542)" cx="406.92" cy="766.846" r="14.4" fill="#e26f46" fill-rule="evenodd" fill-opacity="1" stroke="#000000" stroke-opacity="1" stroke-width="3.2"/>
<circle clip-path="url(#clip542)" cx="495.794" cy="975.997" r="14.4" fill="#e26f46" fill-rule="evenodd" fill-opacity="1" stroke="#000000" stroke-opacity="1" stroke-width="3.2"/>
<circle clip-path="url(#clip542)" cx="680.874" cy="1090.06" r="14.4" fill="#e26f46" fill-rule="evenodd" fill-opacity="1" stroke="#000000" stroke-opacity="1" stroke-width="3.2"/>
<circle clip-path="url(#clip542)" cx="826.178" cy="1126.37" r="14.4" fill="#e26f46" fill-rule="evenodd" fill-opacity="1" stroke="#000000" stroke-opacity="1" stroke-width="3.2"/>
<circle clip-path="url(#clip542)" cx="917.481" cy="1173.6" r="14.4" fill="#e26f46" fill-rule="evenodd" fill-opacity="1" stroke="#000000" stroke-opacity="1" stroke-width="3.2"/>
<circle clip-path="url(#clip542)" cx="1063.71" cy="1255.63" r="14.4" fill="#e26f46" fill-rule="evenodd" fill-opacity="1" stroke="#000000" stroke-opacity="1" stroke-width="3.2"/>
<circle clip-path="url(#clip542)" cx="1323.4" cy="1289.82" r="14.4" fill="#e26f46" fill-rule="evenodd" fill-opacity="1" stroke="#000000" stroke-opacity="1" stroke-width="3.2"/>
<circle clip-path="url(#clip542)" cx="1598.28" cy="1198.19" r="14.4" fill="#e26f46" fill-rule="evenodd" fill-opacity="1" stroke="#000000" stroke-opacity="1" stroke-width="3.2"/>
<circle clip-path="url(#clip542)" cx="1743.59" cy="1018.23" r="14.4" fill="#e26f46" fill-rule="evenodd" fill-opacity="1" stroke="#000000" stroke-opacity="1" stroke-width="3.2"/>
<circle clip-path="url(#clip542)" cx="1745.09" cy="859.781" r="14.4" fill="#e26f46" fill-rule="evenodd" fill-opacity="1" stroke="#000000" stroke-opacity="1" stroke-width="3.2"/>
<polyline clip-path="url(#clip542)" style="stroke:#a02a62; stroke-linecap:round; stroke-linejoin:round; stroke-width:4; stroke-opacity:1; fill:none" points="233.599,1354.22 245.689,1363.43 252.028,1368.12 264.424,1377.14 270.456,1381.43 284.059,1390.86 288.885,1394.14 304.726,1404.57 307.313,1406.26 325.742,1417.82 326.51,1418.29 344.17,1429.04 349.315,1432 362.599,1439.71 373.636,1445.72 "/>
<polyline clip-path="url(#clip542)" style="stroke:#a02a62; stroke-linecap:round; stroke-linejoin:round; stroke-width:4; stroke-opacity:1; fill:none" points="2025.81,1445.72 2039.41,1432 2039.59,1431.81 2052.49,1418.29 2058.02,1411.93 "/>
<polyline clip-path="url(#clip542)" style="stroke:#a02a62; stroke-linecap:round; stroke-linejoin:round; stroke-width:4; stroke-opacity:1; fill:none" points="2058.02,121.766 2052.49,115.405 2039.59,101.885 2039.41,101.691 2025.81,87.9763 "/>
<polyline clip-path="url(#clip542)" style="stroke:#a02a62; stroke-linecap:round; stroke-linejoin:round; stroke-width:4; stroke-opacity:1; fill:none" points="373.636,87.9763 362.599,93.9856 349.315,101.691 344.17,104.656 326.51,115.405 325.742,115.874 307.313,127.435 304.726,129.12 288.885,139.547 284.059,142.834 270.456,152.26 264.424,156.549 252.028,165.568 245.689,170.264 233.599,179.474 "/>
<path clip-path="url(#clip540)" d="M1737.35 1161.59 L1744.9 1151.66 L1747.93 1153.96 L1740.37 1163.89 L1737.35 1161.59 Z" fill="#000000" fill-rule="nonzero" fill-opacity="1" /><path clip-path="url(#clip540)" d="M1758.58 1151.78 L1763.21 1145.7 L1742.23 1129.73 L1738.52 1137.35 L1735.14 1134.77 L1738.82 1127.18 L1741.65 1123.46 L1766.01 1142.02 L1770.64 1135.94 L1773.77 1138.32 L1761.71 1154.16 L1758.58 1151.78 Z" fill="#000000" fill-rule="nonzero" fill-opacity="1" /><polyline clip-path="url(#clip542)" style="stroke:#a02a62; stroke-linecap:round; stroke-linejoin:round; stroke-width:4; stroke-opacity:1; fill:none" points="558.293,430.84 546.884,435.874 529.503,444.554 528.456,445.122 510.027,455.91 506.305,458.269 491.599,468.527 486.914,471.983 473.17,483.221 470.233,485.698 455.53,499.412 454.742,500.215 442.083,513.127 436.313,519.633 429.817,526.842 418.568,540.556 417.885,541.443 407.69,554.271 399.456,565.644 397.692,567.985 388.014,581.7 381.028,592.558 379.111,595.414 370.578,609.129 362.968,622.843 362.599,623.564 355.703,636.558 349.36,650.272 344.17,663.249 343.863,663.987 338.853,677.701 334.709,691.416 331.359,705.131 328.744,718.845 326.821,732.56 325.742,744.243 325.542,746.274 324.868,759.989 324.868,773.703 325.542,787.418 325.742,789.449 326.821,801.132 328.744,814.847 331.359,828.561 334.709,842.276 338.853,855.99 343.863,869.705 344.17,870.443 349.36,883.42 355.703,897.134 362.599,910.128 362.968,910.849 370.578,924.563 379.111,938.278 381.028,941.134 388.014,951.992 397.692,965.707 399.456,968.048 407.69,979.421 417.885,992.249 418.568,993.136 429.817,1006.85 436.313,1014.06 442.083,1020.56 454.742,1033.48 455.53,1034.28 470.233,1047.99 473.17,1050.47 486.914,1061.71 491.599,1065.17 506.305,1075.42 510.027,1077.78 528.456,1088.57 529.503,1089.14 546.884,1097.82 558.293,1102.85 565.313,1105.75 583.741,1112.58 595.918,1116.57 602.17,1118.53 620.598,1123.76 639.027,1128.41 646.992,1130.28 657.455,1132.71 675.884,1136.76 694.312,1140.69 709.544,1144 712.741,1144.7 731.169,1148.99 749.598,1153.64 764.097,1157.71 768.027,1158.86 786.455,1164.87 804.097,1171.42 804.884,1171.73 823.312,1179.72 834.53,1185.14 841.741,1188.79 860.017,1198.85 860.169,1198.94 878.598,1210.15 882.424,1212.57 897.026,1222.07 903.418,1226.28 915.455,1234.37 923.962,1240 933.883,1246.65 944.868,1253.71 952.312,1258.54 966.92,1267.43 970.74,1269.77 989.169,1280.17 991.044,1281.14 1007.6,1289.78 1018.54,1294.86 1026.03,1298.4 1044.45,1306.11 1051.11,1308.57 1062.88,1313.06 1081.31,1319.16 1092.2,1322.28 1099.74,1324.56 1118.17,1329.36 1136.6,1333.43 1150.29,1336 1155.03,1336.95 1173.45,1340.06 1191.88,1342.62 1210.31,1344.68 1228.74,1346.29 1247.17,1347.49 1265.6,1348.32 1284.03,1348.79 1302.45,1348.91 1320.88,1348.7 1339.31,1348.14 1357.74,1347.23 1376.17,1345.95 1394.6,1344.24 1413.02,1342.06 1431.45,1339.33 1449.7,1336 1449.88,1335.97 1468.31,1332.18 1486.74,1327.61 1504.56,1322.28 1505.17,1322.11 1523.6,1316 1542.02,1308.72 1542.37,1308.57 1560.45,1300.69 1572.13,1294.86 1578.88,1291.45 1597.22,1281.14 1597.31,1281.09 1615.74,1269.67 1619.1,1267.43 1634.17,1256.99 1638.63,1253.71 1652.6,1242.97 1656.3,1240 1671.02,1227.51 1672.43,1226.28 1687.3,1212.57 1689.45,1210.45 1701.12,1198.85 1707.88,1191.61 1713.91,1185.14 1725.76,1171.42 1726.31,1170.75 1727.18,1169.71 "/>
<polyline clip-path="url(#clip542)" style="stroke:#a02a62; stroke-linecap:round; stroke-linejoin:round; stroke-width:4; stroke-opacity:1; fill:none" points="1767.05,1117.35 1767.61,1116.57 1776.89,1102.85 1781.6,1095.52 1785.76,1089.14 1794.19,1075.42 1800.02,1065.08 1801.97,1061.71 1809.27,1047.99 1815.61,1034.28 1818.45,1027.17 1821.15,1020.56 1825.75,1006.85 1829.18,993.136 1831.42,979.421 1832.48,965.707 1832.38,951.992 1831.15,938.278 1828.85,924.563 1825.57,910.849 1821.44,897.134 1818.45,888.691 1816.68,883.42 1811.59,869.705 1806.26,855.99 1800.96,842.276 1800.02,839.716 1796.05,828.561 1791.73,814.847 1788.24,801.132 1785.79,787.418 1784.53,773.703 1784.53,759.989 1785.79,746.274 1788.24,732.56 1791.73,718.845 1796.05,705.131 1800.02,693.976 1800.96,691.416 1806.26,677.701 1811.59,663.987 1816.68,650.272 1818.45,645 1821.44,636.558 1825.57,622.843 1828.85,609.129 1831.15,595.414 1832.38,581.7 1832.48,567.985 1831.42,554.271 1829.18,540.556 1825.75,526.842 1821.15,513.127 1818.45,506.523 1815.61,499.412 1809.27,485.698 1801.97,471.983 1800.02,468.61 "/>
<path clip-path="url(#clip540)" d="M1768.62 422.394 L1775.36 432.894 L1772.16 434.944 L1765.43 424.444 L1768.62 422.394 Z" fill="#000000" fill-rule="nonzero" fill-opacity="1" /><path clip-path="url(#clip540)" d="M1770.57 445.704 L1774.7 452.133 L1796.89 437.892 L1790.99 431.798 L1794.58 429.498 L1800.45 435.552 L1802.97 439.487 L1777.2 456.029 L1781.32 462.457 L1778.01 464.583 L1767.26 447.829 L1770.57 445.704 Z" fill="#000000" fill-rule="nonzero" fill-opacity="1" /><polyline clip-path="url(#clip542)" style="stroke:#a02a62; stroke-linecap:round; stroke-linejoin:round; stroke-width:4; stroke-opacity:1; fill:none" points="1800.02,468.61 1798.71,466.29 "/>
<polyline clip-path="url(#clip542)" style="stroke:#a02a62; stroke-linecap:round; stroke-linejoin:round; stroke-width:4; stroke-opacity:1; fill:none" points="1763.16,410.902 1757.91,403.411 1747.73,389.696 1744.74,385.864 1737.14,375.982 1726.31,362.938 1725.76,362.267 1713.91,348.553 1707.88,342.081 1701.12,334.838 1689.45,323.24 1687.3,321.123 1672.43,307.409 1671.02,306.187 1656.3,293.694 1652.6,290.719 1638.63,279.98 1634.17,276.701 1619.1,266.265 1615.74,264.018 1597.31,252.605 1597.22,252.551 1578.88,242.238 1572.13,238.836 1560.45,233.006 1542.37,225.122 1542.02,224.968 1523.6,217.695 1505.17,211.584 1504.56,211.407 1486.74,206.083 1468.31,201.51 1449.88,197.724 1449.7,197.693 1431.45,194.358 1413.02,191.632 1394.6,189.452 1376.17,187.746 1357.74,186.458 1339.31,185.549 1320.88,184.995 1302.45,184.782 1284.03,184.906 1265.6,185.373 1247.17,186.197 1228.74,187.401 1210.31,189.014 1191.88,191.074 1173.45,193.631 1155.03,196.745 1150.29,197.693 1136.6,200.261 1118.17,204.333 1099.74,209.134 1092.2,211.407 1081.31,214.532 1062.88,220.63 1051.11,225.122 1044.45,227.581 1026.03,235.295 1018.54,238.836 1007.6,243.914 991.044,252.551 989.169,253.52 970.74,263.92 966.92,266.265 952.312,275.148 944.868,279.98 933.883,287.045 923.962,293.694 915.455,299.323 903.418,307.409 897.026,311.62 882.424,321.123 878.598,323.547 860.169,334.751 860.017,334.838 841.741,344.899 834.53,348.553 823.312,353.972 804.884,361.96 804.097,362.267 786.455,368.819 768.027,374.833 764.097,375.982 749.598,380.053 731.169,384.701 712.741,388.99 709.544,389.696 694.312,392.998 675.884,396.934 657.455,400.985 646.992,403.411 639.027,405.278 620.598,409.929 602.17,415.166 595.918,417.125 583.741,421.107 565.313,427.94 558.293,430.84 "/>
<path clip-path="url(#clip540)" d="M732.536 1083.89 L750.469 1087.81 L749.629 1091.66 L735.88 1088.65 L734.071 1096.93 Q735.14 1096.81 736.169 1096.87 Q737.204 1096.9 738.199 1097.12 Q743.852 1098.36 746.477 1102.18 Q749.101 1106 747.945 1111.29 Q746.753 1116.74 742.699 1119.03 Q738.649 1121.29 732.476 1119.94 Q730.35 1119.48 728.213 1118.63 Q726.098 1117.79 723.905 1116.55 L724.908 1111.96 Q726.701 1113.52 728.754 1114.53 Q730.806 1115.55 733.226 1116.08 Q737.138 1116.94 739.872 1115.38 Q742.605 1113.82 743.377 1110.29 Q744.148 1106.76 742.314 1104.21 Q740.479 1101.65 736.567 1100.79 Q734.735 1100.39 732.815 1100.4 Q730.917 1100.41 728.829 1100.86 L732.536 1083.89 Z" fill="#000000" fill-rule="nonzero" fill-opacity="1" /><polyline clip-path="url(#clip542)" style="stroke:#eb6527; stroke-linecap:round; stroke-linejoin:round; stroke-width:4; stroke-opacity:1; fill:none" points="598.774,471.983 583.741,479.882 573.793,485.698 565.313,491.198 553.692,499.412 546.884,504.775 536.947,513.127 528.456,521.066 522.55,526.842 510.027,540.369 509.859,540.556 498.509,554.271 491.599,563.307 488.061,567.985 478.383,581.7 473.17,589.524 469.263,595.414 460.677,609.129 454.742,619.095 452.523,622.843 444.905,636.558 437.759,650.272 436.313,653.272 431.252,663.987 425.411,677.701 420.254,691.416 417.885,698.772 415.896,705.131 412.411,718.845 409.77,732.56 407.995,746.274 407.103,759.989 407.103,773.703 407.995,787.418 409.77,801.132 412.411,814.847 415.896,828.561 417.885,834.92 420.254,842.276 425.411,855.99 431.252,869.705 436.313,880.42 437.759,883.42 444.905,897.134 452.523,910.849 454.742,914.597 460.677,924.563 469.263,938.278 473.17,944.168 478.383,951.992 488.061,965.707 491.599,970.385 498.509,979.421 509.859,993.136 510.027,993.323 522.55,1006.85 528.456,1012.63 536.947,1020.56 546.884,1028.92 553.692,1034.28 565.313,1042.49 573.793,1047.99 583.741,1053.81 598.774,1061.71 602.17,1063.33 620.598,1071.22 631.71,1075.42 639.027,1077.98 657.455,1083.7 675.884,1088.79 677.252,1089.14 694.312,1093.2 710.76,1096.86 "/>
<polyline clip-path="url(#clip542)" style="stroke:#eb6527; stroke-linecap:round; stroke-linejoin:round; stroke-width:4; stroke-opacity:1; fill:none" points="765.915,1108.91 768.027,1109.39 786.455,1114.01 795.472,1116.57 804.884,1119.24 823.312,1125.25 836.387,1130.28 841.741,1132.37 860.169,1140.57 866.891,1144 878.598,1150.02 891.926,1157.71 897.026,1160.68 914.114,1171.42 915.455,1172.27 933.883,1184.37 935.02,1185.14 952.312,1196.56 955.794,1198.85 970.74,1208.44 977.373,1212.57 989.169,1219.68 1000.73,1226.28 1007.6,1230.08 1026.03,1239.51 1027.07,1240 1044.45,1247.85 1058.86,1253.71 1062.88,1255.31 1081.31,1261.78 1099.61,1267.43 1099.74,1267.47 1118.17,1272.31 1136.6,1276.48 1155.03,1280.03 1161.94,1281.14 1173.45,1282.97 1191.88,1285.37 1210.31,1287.28 1228.74,1288.74 1247.17,1289.77 1265.6,1290.39 1284.03,1290.62 1302.45,1290.45 1320.88,1289.89 1339.31,1288.91 1357.74,1287.49 1376.17,1285.6 1394.6,1283.19 1407.32,1281.14 1413.02,1280.19 1431.45,1276.52 1449.88,1272.15 1466.87,1267.43 1468.31,1267.01 1486.74,1260.89 1505.17,1253.86 1505.52,1253.71 1523.6,1245.61 1534.82,1240 1542.02,1236.18 1559.04,1226.28 1560.45,1225.41 1578.88,1213.06 1579.56,1212.57 1597.31,1198.99 1597.47,1198.85 1613.36,1185.14 1615.74,1182.96 1627.74,1171.42 1634.17,1164.9 1640.99,1157.71 1652.6,1144.88 1653.37,1144 1664.96,1130.28 1671.02,1122.92 1676.1,1116.57 1686.85,1102.85 1689.45,1099.49 1697.22,1089.14 1707.35,1075.42 1707.88,1074.69 1716.96,1061.71 1726.19,1047.99 1726.31,1047.81 1734.63,1034.28 1742.34,1020.56 1744.74,1015.8 1749.03,1006.85 1754.56,993.136 1758.9,979.421 1761.94,965.707 1763.17,955.864 1763.63,951.992 1763.95,938.278 1763.17,926.84 1763.01,924.563 1760.82,910.849 1757.57,897.134 1753.45,883.42 1748.73,869.705 1744.74,858.922 1743.59,855.99 1738.16,842.276 1733.03,828.561 1728.51,814.847 1726.31,806.605 1724.72,801.132 1721.92,787.418 1720.48,773.703 1720.48,759.989 1721.92,746.274 1724.72,732.56 1726.31,727.087 1728.51,718.845 1733.03,705.131 1738.16,691.416 1743.59,677.701 1744.74,674.77 1748.73,663.987 1753.45,650.272 1757.57,636.558 1760.82,622.843 1763.01,609.129 1763.17,606.852 1763.95,595.414 1763.63,581.7 1763.17,577.828 1761.94,567.985 1758.9,554.271 1754.56,540.556 1749.03,526.842 1744.74,517.895 1742.34,513.127 1734.63,499.412 1726.31,485.882 1726.19,485.698 1716.96,471.983 1707.88,459.002 1707.35,458.269 1697.22,444.554 1689.45,434.199 1686.85,430.84 1676.1,417.125 1671.02,410.777 1664.96,403.411 1653.37,389.696 1652.6,388.809 1640.99,375.982 1634.17,368.791 1627.74,362.267 1615.74,350.732 1613.36,348.553 1597.47,334.838 1597.31,334.705 1579.56,321.123 1578.88,320.634 1560.45,308.286 1559.04,307.409 1542.02,297.511 1534.82,293.694 1523.6,288.077 1505.52,279.98 "/>
<path clip-path="url(#clip540)" d="M934.743 327.944 L950.135 317.941 L952.279 321.24 L940.478 328.91 L945.095 336.013 Q945.76 335.167 946.526 334.476 Q947.279 333.766 948.133 333.211 Q952.985 330.057 957.547 330.875 Q962.109 331.692 965.061 336.234 Q968.101 340.911 966.88 345.404 Q965.646 349.878 960.347 353.322 Q958.523 354.507 956.419 355.433 Q954.335 356.346 951.912 357.037 L949.352 353.097 Q951.717 352.913 953.883 352.167 Q956.049 351.422 958.125 350.073 Q961.483 347.89 962.295 344.85 Q963.108 341.81 961.14 338.782 Q959.172 335.754 956.064 335.262 Q952.956 334.77 949.598 336.952 Q948.026 337.974 946.681 339.345 Q945.355 340.703 944.204 342.501 L934.743 327.944 Z" fill="#000000" fill-rule="nonzero" fill-opacity="1" /><polyline clip-path="url(#clip542)" style="stroke:#eb6527; stroke-linecap:round; stroke-linejoin:round; stroke-width:4; stroke-opacity:1; fill:none" points="1505.52,279.98 1505.17,279.828 1486.74,272.803 1468.31,266.683 1466.87,266.265 1449.88,261.539 1431.45,257.176 1413.02,253.501 1407.32,252.551 1394.6,250.503 1376.17,248.097 1357.74,246.206 1339.31,244.786 1320.88,243.805 1302.45,243.237 1284.03,243.07 1265.6,243.297 1247.17,243.921 1228.74,244.953 1210.31,246.411 1191.88,248.321 1173.45,250.719 1161.94,252.551 1155.03,253.666 1136.6,257.214 1118.17,261.379 1099.74,266.226 1099.61,266.265 1081.31,271.917 1062.88,278.386 1058.86,279.98 1044.45,285.838 1027.07,293.694 1026.03,294.184 1007.6,303.615 1000.73,307.409 989.169,314.013 977.373,321.123 976.091,321.922 "/>
<polyline clip-path="url(#clip542)" style="stroke:#eb6527; stroke-linecap:round; stroke-linejoin:round; stroke-width:4; stroke-opacity:1; fill:none" points="928.754,352.688 915.455,361.422 914.114,362.267 897.026,373.014 891.926,375.982 878.598,383.669 866.891,389.696 860.169,393.117 841.741,401.325 836.387,403.411 823.312,408.443 804.884,414.455 795.472,417.125 786.455,419.681 768.027,424.307 749.598,428.444 738.344,430.84 731.169,432.402 712.741,436.396 694.312,440.492 677.252,444.554 675.884,444.897 657.455,449.991 639.027,455.71 631.71,458.269 620.598,462.468 602.17,470.36 598.774,471.983 "/>
<path clip-path="url(#clip540)" d="M1112.46 927.016 L1130.37 931.031 L1129.51 934.87 L1115.78 931.792 L1113.93 940.059 Q1115 939.943 1116.03 940.008 Q1117.06 940.05 1118.05 940.273 Q1123.7 941.538 1126.3 945.372 Q1128.91 949.206 1127.72 954.491 Q1126.5 959.935 1122.44 962.202 Q1118.38 964.447 1112.21 963.065 Q1110.09 962.589 1107.95 961.731 Q1105.84 960.879 1103.66 959.629 L1104.68 955.044 Q1106.47 956.607 1108.52 957.635 Q1110.56 958.663 1112.98 959.205 Q1116.89 960.08 1119.63 958.536 Q1122.37 956.992 1123.16 953.469 Q1123.95 949.945 1122.13 947.378 Q1120.31 944.811 1116.4 943.935 Q1114.57 943.525 1112.65 943.522 Q1110.75 943.523 1108.66 943.956 L1112.46 927.016 Z" fill="#000000" fill-rule="nonzero" fill-opacity="1" /><polyline clip-path="url(#clip542)" style="stroke:#eb6527; stroke-linecap:round; stroke-linejoin:round; stroke-width:4; stroke-opacity:1; fill:none" points="898.574,691.416 897.026,692.973 885.622,705.131 878.598,714.003 874.978,718.845 867.003,732.56 861.492,746.274 860.169,752.733 858.78,759.989 858.78,773.703 860.169,780.959 861.492,787.418 867.003,801.132 874.978,814.847 878.598,819.689 885.622,828.561 897.026,840.719 898.574,842.276 914.079,855.99 915.455,857.093 932.13,869.705 933.883,870.932 952.312,883.034 952.941,883.42 970.74,893.576 977.435,897.134 989.169,902.97 1006.25,910.849 1007.6,911.433 1026.03,918.754 1041.77,924.563 1044.45,925.493 1062.88,931.36 1081.31,936.831 1086.59,938.278 1090.74,939.342 "/>
<polyline clip-path="url(#clip542)" style="stroke:#eb6527; stroke-linecap:round; stroke-linejoin:round; stroke-width:4; stroke-opacity:1; fill:none" points="1145.82,951.689 1147.44,951.992 1155.03,953.334 1173.45,955.99 1191.88,957.936 1210.31,958.984 1228.74,958.903 1247.17,957.429 1265.6,954.272 1273.92,951.992 1284.03,948.834 1302.45,940.625 1306.46,938.278 1320.88,928.613 1325.75,924.563 1339.31,911.676 1340.05,910.849 1350.94,897.134 1357.74,887.519 1360.31,883.42 1368.07,869.705 1375.09,855.99 1376.17,853.629 1380.93,842.276 1385.99,828.561 1390.27,814.847 1393.64,801.132 1394.6,795.533 1395.89,787.418 1397.02,773.703 1397.02,759.989 1395.89,746.274 1394.6,738.159 1393.64,732.56 1390.27,718.845 1385.99,705.131 1380.93,691.416 1376.17,680.063 1375.09,677.701 1368.07,663.987 1360.31,650.272 1357.74,646.173 1350.94,636.558 1340.05,622.843 1339.31,622.016 1325.75,609.129 1320.88,605.079 1306.46,595.414 1302.45,593.067 1284.03,584.858 1273.92,581.7 1265.6,579.419 1247.17,576.263 1228.74,574.789 1210.31,574.708 1191.88,575.756 1173.45,577.702 1155.03,580.358 1147.44,581.7 1136.6,583.732 1118.17,587.688 1099.74,592.037 1086.59,595.414 1081.31,596.861 1062.88,602.332 1044.45,608.199 1041.77,609.129 1026.03,614.938 1007.6,622.259 1006.25,622.843 989.169,630.722 977.435,636.558 970.74,640.116 952.941,650.272 952.312,650.658 933.883,662.76 932.13,663.987 915.455,676.599 914.079,677.701 898.574,691.416 "/>
<defs>
  <clipPath id="clip543">
    <rect x="2160" y="47" width="73" height="1440"/>
  </clipPath>
</defs>
<polyline clip-path="url(#clip543)" style="stroke:#a02a62; stroke-linecap:round; stroke-linejoin:round; stroke-width:4; stroke-opacity:1; fill:none" points="2160.76,865.504 2232.76,865.504 "/>
<polyline clip-path="url(#clip543)" style="stroke:#eb6527; stroke-linecap:round; stroke-linejoin:round; stroke-width:4; stroke-opacity:1; fill:none" points="2160.76,536.34 2232.76,536.34 "/>
<path clip-path="url(#clip540)" d="M2268.76 1356.07 L2298.43 1356.07 L2298.43 1360.01 L2268.76 1360.01 L2268.76 1356.07 Z" fill="#000000" fill-rule="nonzero" fill-opacity="1" /><path clip-path="url(#clip540)" d="M2309.33 1368.97 L2316.97 1368.97 L2316.97 1342.6 L2308.66 1344.27 L2308.66 1340.01 L2316.93 1338.34 L2321.6 1338.34 L2321.6 1368.97 L2329.24 1368.97 L2329.24 1372.9 L2309.33 1372.9 L2309.33 1368.97 Z" fill="#000000" fill-rule="nonzero" fill-opacity="1" /><path clip-path="url(#clip540)" d="M2348.69 1341.42 Q2345.07 1341.42 2343.25 1344.98 Q2341.44 1348.53 2341.44 1355.66 Q2341.44 1362.76 2343.25 1366.33 Q2345.07 1369.87 2348.69 1369.87 Q2352.32 1369.87 2354.13 1366.33 Q2355.95 1362.76 2355.95 1355.66 Q2355.95 1348.53 2354.13 1344.98 Q2352.32 1341.42 2348.69 1341.42 M2348.69 1337.72 Q2354.5 1337.72 2357.55 1342.32 Q2360.63 1346.91 2360.63 1355.66 Q2360.63 1364.38 2357.55 1368.99 Q2354.5 1373.57 2348.69 1373.57 Q2342.88 1373.57 2339.8 1368.99 Q2336.74 1364.38 2336.74 1355.66 Q2336.74 1346.91 2339.8 1342.32 Q2342.88 1337.72 2348.69 1337.72 Z" fill="#000000" fill-rule="nonzero" fill-opacity="1" /><polyline clip-path="url(#clip540)" style="stroke:#000000; stroke-linecap:round; stroke-linejoin:round; stroke-width:4; stroke-opacity:1; fill:none" points="2232.76,1359.25 2256.76,1359.25 "/>
<path clip-path="url(#clip540)" d="M2268.76 1081.77 L2298.43 1081.77 L2298.43 1085.7 L2268.76 1085.7 L2268.76 1081.77 Z" fill="#000000" fill-rule="nonzero" fill-opacity="1" /><path clip-path="url(#clip540)" d="M2308.57 1064.04 L2326.93 1064.04 L2326.93 1067.97 L2312.85 1067.97 L2312.85 1076.44 Q2313.87 1076.1 2314.89 1075.94 Q2315.91 1075.75 2316.93 1075.75 Q2322.71 1075.75 2326.09 1078.92 Q2329.47 1082.09 2329.47 1087.51 Q2329.47 1093.09 2326 1096.19 Q2322.53 1099.27 2316.21 1099.27 Q2314.03 1099.27 2311.76 1098.9 Q2309.52 1098.53 2307.11 1097.79 L2307.11 1093.09 Q2309.2 1094.22 2311.42 1094.78 Q2313.64 1095.33 2316.12 1095.33 Q2320.12 1095.33 2322.46 1093.23 Q2324.8 1091.12 2324.8 1087.51 Q2324.8 1083.9 2322.46 1081.79 Q2320.12 1079.69 2316.12 1079.69 Q2314.24 1079.69 2312.37 1080.1 Q2310.51 1080.52 2308.57 1081.4 L2308.57 1064.04 Z" fill="#000000" fill-rule="nonzero" fill-opacity="1" /><polyline clip-path="url(#clip540)" style="stroke:#000000; stroke-linecap:round; stroke-linejoin:round; stroke-width:4; stroke-opacity:1; fill:none" points="2232.76,1084.95 2256.76,1084.95 "/>
<path clip-path="url(#clip540)" d="M2280.7 792.813 Q2277.09 792.813 2275.26 796.378 Q2273.45 799.919 2273.45 807.049 Q2273.45 814.155 2275.26 817.72 Q2277.09 821.262 2280.7 821.262 Q2284.33 821.262 2286.14 817.72 Q2287.97 814.155 2287.97 807.049 Q2287.97 799.919 2286.14 796.378 Q2284.33 792.813 2280.7 792.813 M2280.7 789.109 Q2286.51 789.109 2289.57 793.716 Q2292.64 798.299 2292.64 807.049 Q2292.64 815.776 2289.57 820.382 Q2286.51 824.965 2280.7 824.965 Q2274.89 824.965 2271.81 820.382 Q2268.76 815.776 2268.76 807.049 Q2268.76 798.299 2271.81 793.716 Q2274.89 789.109 2280.7 789.109 Z" fill="#000000" fill-rule="nonzero" fill-opacity="1" /><polyline clip-path="url(#clip540)" style="stroke:#000000; stroke-linecap:round; stroke-linejoin:round; stroke-width:4; stroke-opacity:1; fill:none" points="2232.76,810.643 2256.76,810.643 "/>
<path clip-path="url(#clip540)" d="M2270.21 515.431 L2288.57 515.431 L2288.57 519.366 L2274.5 519.366 L2274.5 527.838 Q2275.52 527.491 2276.53 527.329 Q2277.55 527.144 2278.57 527.144 Q2284.36 527.144 2287.74 530.315 Q2291.12 533.486 2291.12 538.903 Q2291.12 544.482 2287.64 547.583 Q2284.17 550.662 2277.85 550.662 Q2275.68 550.662 2273.41 550.292 Q2271.16 549.921 2268.76 549.181 L2268.76 544.482 Q2270.84 545.616 2273.06 546.171 Q2275.28 546.727 2277.76 546.727 Q2281.77 546.727 2284.1 544.62 Q2286.44 542.514 2286.44 538.903 Q2286.44 535.292 2284.1 533.185 Q2281.77 531.079 2277.76 531.079 Q2275.89 531.079 2274.01 531.496 Q2272.16 531.912 2270.21 532.792 L2270.21 515.431 Z" fill="#000000" fill-rule="nonzero" fill-opacity="1" /><polyline clip-path="url(#clip540)" style="stroke:#000000; stroke-linecap:round; stroke-linejoin:round; stroke-width:4; stroke-opacity:1; fill:none" points="2232.76,536.34 2256.76,536.34 "/>
<path clip-path="url(#clip540)" d="M2269.43 271.752 L2277.07 271.752 L2277.07 245.387 L2268.76 247.053 L2268.76 242.794 L2277.02 241.127 L2281.7 241.127 L2281.7 271.752 L2289.33 271.752 L2289.33 275.687 L2269.43 275.687 L2269.43 271.752 Z" fill="#000000" fill-rule="nonzero" fill-opacity="1" /><path clip-path="url(#clip540)" d="M2308.78 244.206 Q2305.17 244.206 2303.34 247.771 Q2301.53 251.313 2301.53 258.442 Q2301.53 265.549 2303.34 269.113 Q2305.17 272.655 2308.78 272.655 Q2312.41 272.655 2314.22 269.113 Q2316.05 265.549 2316.05 258.442 Q2316.05 251.313 2314.22 247.771 Q2312.41 244.206 2308.78 244.206 M2308.78 240.502 Q2314.59 240.502 2317.64 245.109 Q2320.72 249.692 2320.72 258.442 Q2320.72 267.169 2317.64 271.775 Q2314.59 276.359 2308.78 276.359 Q2302.97 276.359 2299.89 271.775 Q2296.83 267.169 2296.83 258.442 Q2296.83 249.692 2299.89 245.109 Q2302.97 240.502 2308.78 240.502 Z" fill="#000000" fill-rule="nonzero" fill-opacity="1" /><polyline clip-path="url(#clip540)" style="stroke:#000000; stroke-linecap:round; stroke-linejoin:round; stroke-width:4; stroke-opacity:1; fill:none" points="2232.76,262.036 2256.76,262.036 "/>
<polyline clip-path="url(#clip540)" style="stroke:#000000; stroke-linecap:round; stroke-linejoin:round; stroke-width:4; stroke-opacity:1; fill:none" points="2232.76,1486.45 2232.76,47.2441 "/>
<path clip-path="url(#clip540)" d="M243.33 250.738 L872.642 250.738 L872.642 95.2176 L243.33 95.2176  Z" fill="#ffffff" fill-rule="evenodd" fill-opacity="1"/>
<polyline clip-path="url(#clip540)" style="stroke:#000000; stroke-linecap:round; stroke-linejoin:round; stroke-width:4; stroke-opacity:1; fill:none" points="243.33,250.738 872.642,250.738 872.642,95.2176 243.33,95.2176 243.33,250.738 "/>
<circle clip-path="url(#clip540)" cx="329.28" cy="147.058" r="20.48" fill="#009af9" fill-rule="evenodd" fill-opacity="1" stroke="#000000" stroke-opacity="1" stroke-width="4.55111"/>
<path clip-path="url(#clip540)" d="M422.638 131.051 L422.638 138.412 L431.411 138.412 L431.411 141.722 L422.638 141.722 L422.638 155.796 Q422.638 158.967 423.495 159.87 Q424.374 160.773 427.036 160.773 L431.411 160.773 L431.411 164.338 L427.036 164.338 Q422.106 164.338 420.231 162.509 Q418.356 160.657 418.356 155.796 L418.356 141.722 L415.231 141.722 L415.231 138.412 L418.356 138.412 L418.356 131.051 L422.638 131.051 Z" fill="#000000" fill-rule="nonzero" fill-opacity="1" /><path clip-path="url(#clip540)" d="M447.059 141.398 Q443.634 141.398 441.643 144.083 Q439.652 146.745 439.652 151.398 Q439.652 156.051 441.62 158.736 Q443.61 161.398 447.059 161.398 Q450.462 161.398 452.453 158.713 Q454.444 156.027 454.444 151.398 Q454.444 146.791 452.453 144.106 Q450.462 141.398 447.059 141.398 M447.059 137.787 Q452.615 137.787 455.786 141.398 Q458.957 145.009 458.957 151.398 Q458.957 157.764 455.786 161.398 Q452.615 165.009 447.059 165.009 Q441.481 165.009 438.309 161.398 Q435.161 157.764 435.161 151.398 Q435.161 145.009 438.309 141.398 Q441.481 137.787 447.059 137.787 Z" fill="#000000" fill-rule="nonzero" fill-opacity="1" /><path clip-path="url(#clip540)" d="M484.675 139.407 L484.675 143.389 Q482.869 142.393 481.041 141.907 Q479.235 141.398 477.383 141.398 Q473.24 141.398 470.948 144.037 Q468.657 146.652 468.657 151.398 Q468.657 156.143 470.948 158.782 Q473.24 161.398 477.383 161.398 Q479.235 161.398 481.041 160.912 Q482.869 160.402 484.675 159.407 L484.675 163.342 Q482.893 164.176 480.971 164.592 Q479.073 165.009 476.92 165.009 Q471.064 165.009 467.615 161.328 Q464.166 157.648 464.166 151.398 Q464.166 145.055 467.638 141.421 Q471.133 137.787 477.198 137.787 Q479.166 137.787 481.041 138.203 Q482.916 138.597 484.675 139.407 M474.86 135.125 L469.189 126.421 L472.406 126.421 L476.573 132.092 L480.74 126.421 L483.957 126.421 L478.286 135.125 L474.86 135.125 Z" fill="#000000" fill-rule="nonzero" fill-opacity="1" /><path clip-path="url(#clip540)" d="M491.92 128.319 L496.203 128.319 L496.203 149.592 L508.911 138.412 L514.351 138.412 L500.601 150.541 L514.929 164.338 L509.374 164.338 L496.203 151.676 L496.203 164.338 L491.92 164.338 L491.92 128.319 Z" fill="#000000" fill-rule="nonzero" fill-opacity="1" /><path clip-path="url(#clip540)" d="M540.022 150.31 L540.022 152.393 L520.439 152.393 Q520.716 156.791 523.078 159.106 Q525.462 161.398 529.698 161.398 Q532.152 161.398 534.443 160.796 Q536.758 160.194 539.027 158.99 L539.027 163.018 Q536.735 163.99 534.327 164.5 Q531.92 165.009 529.443 165.009 Q523.24 165.009 519.605 161.398 Q515.994 157.787 515.994 151.629 Q515.994 145.264 519.42 141.537 Q522.869 137.787 528.702 137.787 Q533.934 137.787 536.966 141.166 Q540.022 144.523 540.022 150.31 M535.763 149.06 Q535.716 145.565 533.795 143.481 Q531.897 141.398 528.749 141.398 Q525.184 141.398 523.031 143.412 Q520.902 145.426 520.578 149.083 L535.763 149.06 Z" fill="#000000" fill-rule="nonzero" fill-opacity="1" /><path clip-path="url(#clip540)" d="M583.633 148.689 L583.633 164.338 L579.374 164.338 L579.374 148.828 Q579.374 145.148 577.938 143.319 Q576.503 141.49 573.633 141.49 Q570.184 141.49 568.193 143.69 Q566.202 145.889 566.202 149.685 L566.202 164.338 L561.92 164.338 L561.92 138.412 L566.202 138.412 L566.202 142.44 Q567.73 140.102 569.79 138.944 Q571.874 137.787 574.582 137.787 Q579.049 137.787 581.341 140.565 Q583.633 143.319 583.633 148.689 Z" fill="#000000" fill-rule="nonzero" fill-opacity="1" /><path clip-path="url(#clip540)" d="M603.91 151.305 Q598.748 151.305 596.758 152.486 Q594.767 153.666 594.767 156.514 Q594.767 158.782 596.248 160.125 Q597.753 161.444 600.322 161.444 Q603.864 161.444 605.994 158.944 Q608.147 156.421 608.147 152.254 L608.147 151.305 L603.91 151.305 M612.406 149.546 L612.406 164.338 L608.147 164.338 L608.147 160.402 Q606.688 162.763 604.512 163.898 Q602.336 165.009 599.188 165.009 Q595.207 165.009 592.846 162.787 Q590.508 160.541 590.508 156.791 Q590.508 152.416 593.424 150.194 Q596.364 147.972 602.174 147.972 L608.147 147.972 L608.147 147.555 Q608.147 144.615 606.202 143.018 Q604.281 141.398 600.785 141.398 Q598.563 141.398 596.457 141.93 Q594.35 142.463 592.406 143.527 L592.406 139.592 Q594.744 138.69 596.943 138.25 Q599.142 137.787 601.225 137.787 Q606.85 137.787 609.628 140.703 Q612.406 143.62 612.406 149.546 Z" fill="#000000" fill-rule="nonzero" fill-opacity="1" /><path clip-path="url(#clip540)" d="M636.086 128.319 L640.369 128.319 L640.369 149.592 L653.077 138.412 L658.517 138.412 L644.767 150.541 L659.095 164.338 L653.54 164.338 L640.369 151.676 L640.369 164.338 L636.086 164.338 L636.086 128.319 Z" fill="#000000" fill-rule="nonzero" fill-opacity="1" /><path clip-path="url(#clip540)" d="M678.725 142.393 Q678.007 141.977 677.151 141.791 Q676.317 141.583 675.299 141.583 Q671.688 141.583 669.743 143.944 Q667.822 146.282 667.822 150.68 L667.822 164.338 L663.54 164.338 L663.54 138.412 L667.822 138.412 L667.822 142.44 Q669.165 140.078 671.317 138.944 Q673.47 137.787 676.549 137.787 Q676.989 137.787 677.521 137.856 Q678.054 137.903 678.702 138.018 L678.725 142.393 Z" fill="#000000" fill-rule="nonzero" fill-opacity="1" /><path clip-path="url(#clip540)" d="M683.192 138.412 L687.452 138.412 L687.452 164.338 L683.192 164.338 L683.192 138.412 M683.192 128.319 L687.452 128.319 L687.452 133.713 L683.192 133.713 L683.192 128.319 Z" fill="#000000" fill-rule="nonzero" fill-opacity="1" /><path clip-path="url(#clip540)" d="M693.308 138.412 L697.822 138.412 L705.924 160.171 L714.026 138.412 L718.539 138.412 L708.817 164.338 L703.03 164.338 L693.308 138.412 Z" fill="#000000" fill-rule="nonzero" fill-opacity="1" /><path clip-path="url(#clip540)" d="M723.979 154.106 L723.979 138.412 L728.238 138.412 L728.238 153.944 Q728.238 157.625 729.674 159.476 Q731.109 161.305 733.979 161.305 Q737.428 161.305 739.419 159.106 Q741.433 156.907 741.433 153.111 L741.433 138.412 L745.692 138.412 L745.692 164.338 L741.433 164.338 L741.433 160.356 Q739.882 162.717 737.822 163.875 Q735.785 165.009 733.076 165.009 Q728.609 165.009 726.294 162.231 Q723.979 159.453 723.979 154.106 M734.697 137.787 L734.697 137.787 Z" fill="#000000" fill-rule="nonzero" fill-opacity="1" /><path clip-path="url(#clip540)" d="M754.465 128.319 L758.724 128.319 L758.724 164.338 L754.465 164.338 L754.465 128.319 Z" fill="#000000" fill-rule="nonzero" fill-opacity="1" /><path clip-path="url(#clip540)" d="M767.636 138.412 L771.896 138.412 L771.896 164.801 Q771.896 169.754 769.997 171.976 Q768.123 174.199 763.933 174.199 L762.312 174.199 L762.312 170.588 L763.447 170.588 Q765.877 170.588 766.757 169.453 Q767.636 168.342 767.636 164.801 L767.636 138.412 M767.636 128.319 L771.896 128.319 L771.896 133.713 L767.636 133.713 L767.636 128.319 Z" fill="#000000" fill-rule="nonzero" fill-opacity="1" /><path clip-path="url(#clip540)" d="M780.808 138.412 L785.067 138.412 L785.067 164.338 L780.808 164.338 L780.808 138.412 M780.808 128.319 L785.067 128.319 L785.067 133.713 L780.808 133.713 L780.808 128.319 Z" fill="#000000" fill-rule="nonzero" fill-opacity="1" /><circle clip-path="url(#clip540)" cx="329.28" cy="198.898" r="20.48" fill="#e26f46" fill-rule="evenodd" fill-opacity="1" stroke="#000000" stroke-opacity="1" stroke-width="4.55111"/>
<path clip-path="url(#clip540)" d="M422.638 182.891 L422.638 190.252 L431.411 190.252 L431.411 193.562 L422.638 193.562 L422.638 207.636 Q422.638 210.807 423.495 211.71 Q424.374 212.613 427.036 212.613 L431.411 212.613 L431.411 216.178 L427.036 216.178 Q422.106 216.178 420.231 214.349 Q418.356 212.497 418.356 207.636 L418.356 193.562 L415.231 193.562 L415.231 190.252 L418.356 190.252 L418.356 182.891 L422.638 182.891 Z" fill="#000000" fill-rule="nonzero" fill-opacity="1" /><path clip-path="url(#clip540)" d="M447.059 193.238 Q443.634 193.238 441.643 195.923 Q439.652 198.585 439.652 203.238 Q439.652 207.891 441.62 210.576 Q443.61 213.238 447.059 213.238 Q450.462 213.238 452.453 210.553 Q454.444 207.867 454.444 203.238 Q454.444 198.631 452.453 195.946 Q450.462 193.238 447.059 193.238 M447.059 189.627 Q452.615 189.627 455.786 193.238 Q458.957 196.849 458.957 203.238 Q458.957 209.604 455.786 213.238 Q452.615 216.849 447.059 216.849 Q441.481 216.849 438.309 213.238 Q435.161 209.604 435.161 203.238 Q435.161 196.849 438.309 193.238 Q441.481 189.627 447.059 189.627 Z" fill="#000000" fill-rule="nonzero" fill-opacity="1" /><path clip-path="url(#clip540)" d="M484.675 191.247 L484.675 195.229 Q482.869 194.233 481.041 193.747 Q479.235 193.238 477.383 193.238 Q473.24 193.238 470.948 195.877 Q468.657 198.492 468.657 203.238 Q468.657 207.983 470.948 210.622 Q473.24 213.238 477.383 213.238 Q479.235 213.238 481.041 212.752 Q482.869 212.242 484.675 211.247 L484.675 215.182 Q482.893 216.016 480.971 216.432 Q479.073 216.849 476.92 216.849 Q471.064 216.849 467.615 213.168 Q464.166 209.488 464.166 203.238 Q464.166 196.895 467.638 193.261 Q471.133 189.627 477.198 189.627 Q479.166 189.627 481.041 190.043 Q482.916 190.437 484.675 191.247 M474.86 186.965 L469.189 178.261 L472.406 178.261 L476.573 183.932 L480.74 178.261 L483.957 178.261 L478.286 186.965 L474.86 186.965 Z" fill="#000000" fill-rule="nonzero" fill-opacity="1" /><path clip-path="url(#clip540)" d="M491.92 180.159 L496.203 180.159 L496.203 201.432 L508.911 190.252 L514.351 190.252 L500.601 202.381 L514.929 216.178 L509.374 216.178 L496.203 203.516 L496.203 216.178 L491.92 216.178 L491.92 180.159 Z" fill="#000000" fill-rule="nonzero" fill-opacity="1" /><path clip-path="url(#clip540)" d="M540.022 202.15 L540.022 204.233 L520.439 204.233 Q520.716 208.631 523.078 210.946 Q525.462 213.238 529.698 213.238 Q532.152 213.238 534.443 212.636 Q536.758 212.034 539.027 210.83 L539.027 214.858 Q536.735 215.83 534.327 216.34 Q531.92 216.849 529.443 216.849 Q523.24 216.849 519.605 213.238 Q515.994 209.627 515.994 203.469 Q515.994 197.104 519.42 193.377 Q522.869 189.627 528.702 189.627 Q533.934 189.627 536.966 193.006 Q540.022 196.363 540.022 202.15 M535.763 200.9 Q535.716 197.405 533.795 195.321 Q531.897 193.238 528.749 193.238 Q525.184 193.238 523.031 195.252 Q520.902 197.266 520.578 200.923 L535.763 200.9 Z" fill="#000000" fill-rule="nonzero" fill-opacity="1" /><path clip-path="url(#clip540)" d="M559.026 190.252 L563.54 190.252 L571.642 212.011 L579.744 190.252 L584.258 190.252 L574.536 216.178 L568.749 216.178 L559.026 190.252 Z" fill="#000000" fill-rule="nonzero" fill-opacity="1" /><path clip-path="url(#clip540)" d="M626.758 200.529 L626.758 216.178 L622.498 216.178 L622.498 200.668 Q622.498 196.988 621.063 195.159 Q619.628 193.33 616.758 193.33 Q613.309 193.33 611.318 195.53 Q609.327 197.729 609.327 201.525 L609.327 216.178 L605.045 216.178 L605.045 190.252 L609.327 190.252 L609.327 194.28 Q610.855 191.942 612.915 190.784 Q614.998 189.627 617.707 189.627 Q622.174 189.627 624.466 192.405 Q626.758 195.159 626.758 200.529 Z" fill="#000000" fill-rule="nonzero" fill-opacity="1" /><path clip-path="url(#clip540)" d="M645.299 193.238 Q641.873 193.238 639.882 195.923 Q637.892 198.585 637.892 203.238 Q637.892 207.891 639.859 210.576 Q641.85 213.238 645.299 213.238 Q648.702 213.238 650.693 210.553 Q652.683 207.867 652.683 203.238 Q652.683 198.631 650.693 195.946 Q648.702 193.238 645.299 193.238 M645.299 189.627 Q650.855 189.627 654.026 193.238 Q657.197 196.849 657.197 203.238 Q657.197 209.604 654.026 213.238 Q650.855 216.849 645.299 216.849 Q639.72 216.849 636.549 213.238 Q633.401 209.604 633.401 203.238 Q633.401 196.849 636.549 193.238 Q639.72 189.627 645.299 189.627 Z" fill="#000000" fill-rule="nonzero" fill-opacity="1" /><path clip-path="url(#clip540)" d="M668.47 182.891 L668.47 190.252 L677.243 190.252 L677.243 193.562 L668.47 193.562 L668.47 207.636 Q668.47 210.807 669.327 211.71 Q670.206 212.613 672.868 212.613 L677.243 212.613 L677.243 216.178 L672.868 216.178 Q667.938 216.178 666.063 214.349 Q664.188 212.497 664.188 207.636 L664.188 193.562 L661.063 193.562 L661.063 190.252 L664.188 190.252 L664.188 182.891 L668.47 182.891 Z" fill="#000000" fill-rule="nonzero" fill-opacity="1" /><path clip-path="url(#clip540)" d="M697.868 194.233 Q697.151 193.817 696.294 193.631 Q695.461 193.423 694.442 193.423 Q690.831 193.423 688.887 195.784 Q686.966 198.122 686.966 202.52 L686.966 216.178 L682.683 216.178 L682.683 190.252 L686.966 190.252 L686.966 194.28 Q688.308 191.918 690.461 190.784 Q692.614 189.627 695.692 189.627 Q696.132 189.627 696.665 189.696 Q697.197 189.743 697.845 189.858 L697.868 194.233 Z" fill="#000000" fill-rule="nonzero" fill-opacity="1" /><path clip-path="url(#clip540)" d="M714.118 203.145 Q708.956 203.145 706.965 204.326 Q704.975 205.506 704.975 208.354 Q704.975 210.622 706.456 211.965 Q707.961 213.284 710.53 213.284 Q714.072 213.284 716.201 210.784 Q718.354 208.261 718.354 204.094 L718.354 203.145 L714.118 203.145 M722.613 201.386 L722.613 216.178 L718.354 216.178 L718.354 212.242 Q716.896 214.603 714.72 215.738 Q712.544 216.849 709.396 216.849 Q705.415 216.849 703.053 214.627 Q700.715 212.381 700.715 208.631 Q700.715 204.256 703.632 202.034 Q706.572 199.812 712.382 199.812 L718.354 199.812 L718.354 199.395 Q718.354 196.455 716.41 194.858 Q714.489 193.238 710.993 193.238 Q708.771 193.238 706.665 193.77 Q704.558 194.303 702.614 195.367 L702.614 191.432 Q704.952 190.53 707.151 190.09 Q709.35 189.627 711.433 189.627 Q717.058 189.627 719.836 192.543 Q722.613 195.46 722.613 201.386 Z" fill="#000000" fill-rule="nonzero" fill-opacity="1" /><path clip-path="url(#clip540)" d="M752.937 200.529 L752.937 216.178 L748.678 216.178 L748.678 200.668 Q748.678 196.988 747.243 195.159 Q745.808 193.33 742.937 193.33 Q739.488 193.33 737.498 195.53 Q735.507 197.729 735.507 201.525 L735.507 216.178 L731.225 216.178 L731.225 190.252 L735.507 190.252 L735.507 194.28 Q737.035 191.942 739.095 190.784 Q741.178 189.627 743.887 189.627 Q748.354 189.627 750.646 192.405 Q752.937 195.159 752.937 200.529 Z" fill="#000000" fill-rule="nonzero" fill-opacity="1" /><path clip-path="url(#clip540)" d="M761.433 190.252 L765.692 190.252 L765.692 216.641 Q765.692 221.594 763.794 223.816 Q761.919 226.039 757.729 226.039 L756.109 226.039 L756.109 222.428 L757.243 222.428 Q759.673 222.428 760.553 221.293 Q761.433 220.182 761.433 216.641 L761.433 190.252 M761.433 180.159 L765.692 180.159 L765.692 185.553 L761.433 185.553 L761.433 180.159 Z" fill="#000000" fill-rule="nonzero" fill-opacity="1" /><path clip-path="url(#clip540)" d="M784.65 193.238 Q781.224 193.238 779.234 195.923 Q777.243 198.585 777.243 203.238 Q777.243 207.891 779.21 210.576 Q781.201 213.238 784.65 213.238 Q788.053 213.238 790.044 210.553 Q792.034 207.867 792.034 203.238 Q792.034 198.631 790.044 195.946 Q788.053 193.238 784.65 193.238 M784.65 189.627 Q790.206 189.627 793.377 193.238 Q796.548 196.849 796.548 203.238 Q796.548 209.604 793.377 213.238 Q790.206 216.849 784.65 216.849 Q779.072 216.849 775.9 213.238 Q772.752 209.604 772.752 203.238 Q772.752 196.849 775.9 193.238 Q779.072 189.627 784.65 189.627 Z" fill="#000000" fill-rule="nonzero" fill-opacity="1" /><path clip-path="url(#clip540)" d="M820.136 191.016 L820.136 195.043 Q818.331 194.117 816.386 193.655 Q814.442 193.192 812.358 193.192 Q809.187 193.192 807.59 194.164 Q806.016 195.136 806.016 197.08 Q806.016 198.562 807.15 199.418 Q808.284 200.252 811.71 201.016 L813.169 201.34 Q817.706 202.312 819.604 204.094 Q821.525 205.854 821.525 209.025 Q821.525 212.636 818.655 214.742 Q815.807 216.849 810.807 216.849 Q808.724 216.849 806.456 216.432 Q804.21 216.039 801.71 215.228 L801.71 210.83 Q804.071 212.057 806.363 212.682 Q808.655 213.284 810.9 213.284 Q813.909 213.284 815.53 212.266 Q817.15 211.224 817.15 209.349 Q817.15 207.613 815.969 206.687 Q814.812 205.761 810.854 204.904 L809.372 204.557 Q805.414 203.724 803.655 202.011 Q801.895 200.275 801.895 197.266 Q801.895 193.608 804.488 191.618 Q807.081 189.627 811.849 189.627 Q814.21 189.627 816.294 189.974 Q818.377 190.321 820.136 191.016 Z" fill="#000000" fill-rule="nonzero" fill-opacity="1" /><path clip-path="url(#clip540)" d="M832.52 182.891 L832.52 190.252 L841.293 190.252 L841.293 193.562 L832.52 193.562 L832.52 207.636 Q832.52 210.807 833.377 211.71 Q834.256 212.613 836.918 212.613 L841.293 212.613 L841.293 216.178 L836.918 216.178 Q831.988 216.178 830.113 214.349 Q828.238 212.497 828.238 207.636 L828.238 193.562 L825.113 193.562 L825.113 190.252 L828.238 190.252 L828.238 182.891 L832.52 182.891 Z" fill="#000000" fill-rule="nonzero" fill-opacity="1" /><path clip-path="url(#clip540)" d="M846.895 190.252 L851.154 190.252 L851.154 216.178 L846.895 216.178 L846.895 190.252 M846.895 180.159 L851.154 180.159 L851.154 185.553 L846.895 185.553 L846.895 180.159 Z" fill="#000000" fill-rule="nonzero" fill-opacity="1" /></svg>
