<?xml version="1.0" encoding="utf-8"?>
<svg xmlns="http://www.w3.org/2000/svg" xmlns:xlink="http://www.w3.org/1999/xlink" width="600" height="400" viewBox="0 0 2400 1600">
<defs>
  <clipPath id="clip760">
    <rect x="0" y="0" width="2400" height="1600"/>
  </clipPath>
</defs>
<path clip-path="url(#clip760)" d="M0 1600 L2400 1600 L2400 0 L0 0  Z" fill="#ffffff" fill-rule="evenodd" fill-opacity="1"/>
<defs>
  <clipPath id="clip761">
    <rect x="480" y="0" width="1681" height="1600"/>
  </clipPath>
</defs>
<path clip-path="url(#clip760)" d="M447.244 1552.76 L1952.76 1552.76 L1952.76 47.2441 L447.244 47.2441  Z" fill="#ffffff" fill-rule="evenodd" fill-opacity="1"/>
<defs>
  <clipPath id="clip762">
    <rect x="447" y="47" width="1507" height="1507"/>
  </clipPath>
</defs>
<polyline clip-path="url(#clip762)" style="stroke:#000000; stroke-linecap:round; stroke-linejoin:round; stroke-width:4; stroke-opacity:1; fill:none" points="1737.68,800 1711.37,633.847 "/>
<polyline clip-path="url(#clip762)" style="stroke:#000000; stroke-linecap:round; stroke-linejoin:round; stroke-width:4; stroke-opacity:1; fill:none" points="1737.68,800 1711.37,966.153 "/>
<polyline clip-path="url(#clip762)" style="stroke:#000000; stroke-linecap:round; stroke-linejoin:round; stroke-width:4; stroke-opacity:1; fill:none" points="1711.37,633.847 1634.99,483.958 "/>
<polyline clip-path="url(#clip762)" style="stroke:#000000; stroke-linecap:round; stroke-linejoin:round; stroke-width:4; stroke-opacity:1; fill:none" points="1711.37,633.847 1595.63,800 "/>
<polyline clip-path="url(#clip762)" style="stroke:#000000; stroke-linecap:round; stroke-linejoin:round; stroke-width:4; stroke-opacity:1; fill:none" points="1634.99,483.958 1516.04,365.005 "/>
<polyline clip-path="url(#clip762)" style="stroke:#000000; stroke-linecap:round; stroke-linejoin:round; stroke-width:4; stroke-opacity:1; fill:none" points="1634.99,483.958 1479.89,651.018 "/>
<polyline clip-path="url(#clip762)" style="stroke:#000000; stroke-linecap:round; stroke-linejoin:round; stroke-width:4; stroke-opacity:1; fill:none" points="1516.04,365.005 1366.15,288.633 "/>
<polyline clip-path="url(#clip762)" style="stroke:#000000; stroke-linecap:round; stroke-linejoin:round; stroke-width:4; stroke-opacity:1; fill:none" points="1516.04,365.005 1348.98,520.113 "/>
<polyline clip-path="url(#clip762)" style="stroke:#000000; stroke-linecap:round; stroke-linejoin:round; stroke-width:4; stroke-opacity:1; fill:none" points="1366.15,288.633 1200,262.317 "/>
<polyline clip-path="url(#clip762)" style="stroke:#000000; stroke-linecap:round; stroke-linejoin:round; stroke-width:4; stroke-opacity:1; fill:none" points="1366.15,288.633 1200,404.373 "/>
<polyline clip-path="url(#clip762)" style="stroke:#000000; stroke-linecap:round; stroke-linejoin:round; stroke-width:4; stroke-opacity:1; fill:none" points="1200,262.317 1033.85,288.633 "/>
<polyline clip-path="url(#clip762)" style="stroke:#000000; stroke-linecap:round; stroke-linejoin:round; stroke-width:4; stroke-opacity:1; fill:none" points="1711.37,966.153 1595.63,800 "/>
<polyline clip-path="url(#clip762)" style="stroke:#000000; stroke-linecap:round; stroke-linejoin:round; stroke-width:4; stroke-opacity:1; fill:none" points="1711.37,966.153 1634.99,1116.04 "/>
<polyline clip-path="url(#clip762)" style="stroke:#000000; stroke-linecap:round; stroke-linejoin:round; stroke-width:4; stroke-opacity:1; fill:none" points="1595.63,800 1479.89,651.018 "/>
<polyline clip-path="url(#clip762)" style="stroke:#000000; stroke-linecap:round; stroke-linejoin:round; stroke-width:4; stroke-opacity:1; fill:none" points="1595.63,800 1479.89,948.982 "/>
<polyline clip-path="url(#clip762)" style="stroke:#000000; stroke-linecap:round; stroke-linejoin:round; stroke-width:4; stroke-opacity:1; fill:none" points="1479.89,651.018 1348.98,520.113 "/>
<polyline clip-path="url(#clip762)" style="stroke:#000000; stroke-linecap:round; stroke-linejoin:round; stroke-width:4; stroke-opacity:1; fill:none" points="1479.89,651.018 1339.94,800 "/>
<polyline clip-path="url(#clip762)" style="stroke:#000000; stroke-linecap:round; stroke-linejoin:round; stroke-width:4; stroke-opacity:1; fill:none" points="1348.98,520.113 1200,404.373 "/>
<polyline clip-path="url(#clip762)" style="stroke:#000000; stroke-linecap:round; stroke-linejoin:round; stroke-width:4; stroke-opacity:1; fill:none" points="1348.98,520.113 1200,660.057 "/>
<polyline clip-path="url(#clip762)" style="stroke:#000000; stroke-linecap:round; stroke-linejoin:round; stroke-width:4; stroke-opacity:1; fill:none" points="1200,404.373 1033.85,288.633 "/>
<polyline clip-path="url(#clip762)" style="stroke:#000000; stroke-linecap:round; stroke-linejoin:round; stroke-width:4; stroke-opacity:1; fill:none" points="1200,404.373 1051.02,520.113 "/>
<polyline clip-path="url(#clip762)" style="stroke:#000000; stroke-linecap:round; stroke-linejoin:round; stroke-width:4; stroke-opacity:1; fill:none" points="1033.85,288.633 883.958,365.005 "/>
<polyline clip-path="url(#clip762)" style="stroke:#000000; stroke-linecap:round; stroke-linejoin:round; stroke-width:4; stroke-opacity:1; fill:none" points="1634.99,1116.04 1479.89,948.982 "/>
<polyline clip-path="url(#clip762)" style="stroke:#000000; stroke-linecap:round; stroke-linejoin:round; stroke-width:4; stroke-opacity:1; fill:none" points="1634.99,1116.04 1516.04,1234.99 "/>
<polyline clip-path="url(#clip762)" style="stroke:#000000; stroke-linecap:round; stroke-linejoin:round; stroke-width:4; stroke-opacity:1; fill:none" points="1479.89,948.982 1339.94,800 "/>
<polyline clip-path="url(#clip762)" style="stroke:#000000; stroke-linecap:round; stroke-linejoin:round; stroke-width:4; stroke-opacity:1; fill:none" points="1479.89,948.982 1348.98,1079.89 "/>
<polyline clip-path="url(#clip762)" style="stroke:#000000; stroke-linecap:round; stroke-linejoin:round; stroke-width:4; stroke-opacity:1; fill:none" points="1339.94,800 1200,660.057 "/>
<polyline clip-path="url(#clip762)" style="stroke:#000000; stroke-linecap:round; stroke-linejoin:round; stroke-width:4; stroke-opacity:1; fill:none" points="1339.94,800 1200,939.943 "/>
<polyline clip-path="url(#clip762)" style="stroke:#000000; stroke-linecap:round; stroke-linejoin:round; stroke-width:4; stroke-opacity:1; fill:none" points="1200,660.057 1051.02,520.113 "/>
<polyline clip-path="url(#clip762)" style="stroke:#000000; stroke-linecap:round; stroke-linejoin:round; stroke-width:4; stroke-opacity:1; fill:none" points="1200,660.057 1060.06,800 "/>
<polyline clip-path="url(#clip762)" style="stroke:#000000; stroke-linecap:round; stroke-linejoin:round; stroke-width:4; stroke-opacity:1; fill:none" points="1051.02,520.113 883.958,365.005 "/>
<polyline clip-path="url(#clip762)" style="stroke:#000000; stroke-linecap:round; stroke-linejoin:round; stroke-width:4; stroke-opacity:1; fill:none" points="1051.02,520.113 920.113,651.018 "/>
<polyline clip-path="url(#clip762)" style="stroke:#000000; stroke-linecap:round; stroke-linejoin:round; stroke-width:4; stroke-opacity:1; fill:none" points="883.958,365.005 765.005,483.958 "/>
<polyline clip-path="url(#clip762)" style="stroke:#000000; stroke-linecap:round; stroke-linejoin:round; stroke-width:4; stroke-opacity:1; fill:none" points="1516.04,1234.99 1348.98,1079.89 "/>
<polyline clip-path="url(#clip762)" style="stroke:#000000; stroke-linecap:round; stroke-linejoin:round; stroke-width:4; stroke-opacity:1; fill:none" points="1516.04,1234.99 1366.15,1311.37 "/>
<polyline clip-path="url(#clip762)" style="stroke:#000000; stroke-linecap:round; stroke-linejoin:round; stroke-width:4; stroke-opacity:1; fill:none" points="1348.98,1079.89 1200,939.943 "/>
<polyline clip-path="url(#clip762)" style="stroke:#000000; stroke-linecap:round; stroke-linejoin:round; stroke-width:4; stroke-opacity:1; fill:none" points="1348.98,1079.89 1200,1195.63 "/>
<polyline clip-path="url(#clip762)" style="stroke:#000000; stroke-linecap:round; stroke-linejoin:round; stroke-width:4; stroke-opacity:1; fill:none" points="1200,939.943 1060.06,800 "/>
<polyline clip-path="url(#clip762)" style="stroke:#000000; stroke-linecap:round; stroke-linejoin:round; stroke-width:4; stroke-opacity:1; fill:none" points="1200,939.943 1051.02,1079.89 "/>
<polyline clip-path="url(#clip762)" style="stroke:#000000; stroke-linecap:round; stroke-linejoin:round; stroke-width:4; stroke-opacity:1; fill:none" points="1060.06,800 920.113,651.018 "/>
<polyline clip-path="url(#clip762)" style="stroke:#000000; stroke-linecap:round; stroke-linejoin:round; stroke-width:4; stroke-opacity:1; fill:none" points="1060.06,800 920.113,948.982 "/>
<polyline clip-path="url(#clip762)" style="stroke:#000000; stroke-linecap:round; stroke-linejoin:round; stroke-width:4; stroke-opacity:1; fill:none" points="920.113,651.018 765.005,483.958 "/>
<polyline clip-path="url(#clip762)" style="stroke:#000000; stroke-linecap:round; stroke-linejoin:round; stroke-width:4; stroke-opacity:1; fill:none" points="920.113,651.018 804.373,800 "/>
<polyline clip-path="url(#clip762)" style="stroke:#000000; stroke-linecap:round; stroke-linejoin:round; stroke-width:4; stroke-opacity:1; fill:none" points="765.005,483.958 688.633,633.847 "/>
<polyline clip-path="url(#clip762)" style="stroke:#000000; stroke-linecap:round; stroke-linejoin:round; stroke-width:4; stroke-opacity:1; fill:none" points="1366.15,1311.37 1200,1195.63 "/>
<polyline clip-path="url(#clip762)" style="stroke:#000000; stroke-linecap:round; stroke-linejoin:round; stroke-width:4; stroke-opacity:1; fill:none" points="1366.15,1311.37 1200,1337.68 "/>
<polyline clip-path="url(#clip762)" style="stroke:#000000; stroke-linecap:round; stroke-linejoin:round; stroke-width:4; stroke-opacity:1; fill:none" points="1200,1195.63 1051.02,1079.89 "/>
<polyline clip-path="url(#clip762)" style="stroke:#000000; stroke-linecap:round; stroke-linejoin:round; stroke-width:4; stroke-opacity:1; fill:none" points="1200,1195.63 1033.85,1311.37 "/>
<polyline clip-path="url(#clip762)" style="stroke:#000000; stroke-linecap:round; stroke-linejoin:round; stroke-width:4; stroke-opacity:1; fill:none" points="1051.02,1079.89 920.113,948.982 "/>
<polyline clip-path="url(#clip762)" style="stroke:#000000; stroke-linecap:round; stroke-linejoin:round; stroke-width:4; stroke-opacity:1; fill:none" points="1051.02,1079.89 883.958,1234.99 "/>
<polyline clip-path="url(#clip762)" style="stroke:#000000; stroke-linecap:round; stroke-linejoin:round; stroke-width:4; stroke-opacity:1; fill:none" points="920.113,948.982 804.373,800 "/>
<polyline clip-path="url(#clip762)" style="stroke:#000000; stroke-linecap:round; stroke-linejoin:round; stroke-width:4; stroke-opacity:1; fill:none" points="920.113,948.982 765.005,1116.04 "/>
<polyline clip-path="url(#clip762)" style="stroke:#000000; stroke-linecap:round; stroke-linejoin:round; stroke-width:4; stroke-opacity:1; fill:none" points="804.373,800 688.633,633.847 "/>
<polyline clip-path="url(#clip762)" style="stroke:#000000; stroke-linecap:round; stroke-linejoin:round; stroke-width:4; stroke-opacity:1; fill:none" points="804.373,800 688.633,966.153 "/>
<polyline clip-path="url(#clip762)" style="stroke:#000000; stroke-linecap:round; stroke-linejoin:round; stroke-width:4; stroke-opacity:1; fill:none" points="688.633,633.847 662.317,800 "/>
<polyline clip-path="url(#clip762)" style="stroke:#000000; stroke-linecap:round; stroke-linejoin:round; stroke-width:4; stroke-opacity:1; fill:none" points="1200,1337.68 1033.85,1311.37 "/>
<polyline clip-path="url(#clip762)" style="stroke:#000000; stroke-linecap:round; stroke-linejoin:round; stroke-width:4; stroke-opacity:1; fill:none" points="1033.85,1311.37 883.958,1234.99 "/>
<polyline clip-path="url(#clip762)" style="stroke:#000000; stroke-linecap:round; stroke-linejoin:round; stroke-width:4; stroke-opacity:1; fill:none" points="883.958,1234.99 765.005,1116.04 "/>
<polyline clip-path="url(#clip762)" style="stroke:#000000; stroke-linecap:round; stroke-linejoin:round; stroke-width:4; stroke-opacity:1; fill:none" points="765.005,1116.04 688.633,966.153 "/>
<polyline clip-path="url(#clip762)" style="stroke:#000000; stroke-linecap:round; stroke-linejoin:round; stroke-width:4; stroke-opacity:1; fill:none" points="688.633,966.153 662.317,800 "/>
<path clip-path="url(#clip762)" d="M1744.55 800 L1741.12 794.05 L1734.25 794.05 L1730.81 800 L1734.25 805.95 L1741.12 805.95 L1744.55 800 L1744.55 800  Z" fill="#009af9" fill-rule="evenodd" fill-opacity="1"/>
<polyline clip-path="url(#clip762)" style="stroke:#000000; stroke-linecap:round; stroke-linejoin:round; stroke-width:4; stroke-opacity:1; fill:none" points="1744.55,800 1741.12,794.05 1734.25,794.05 1730.81,800 1734.25,805.95 1741.12,805.95 1744.55,800 "/>
<path clip-path="url(#clip762)" d="M1718.24 633.847 L1714.8 627.897 L1707.93 627.897 L1704.5 633.847 L1707.93 639.797 L1714.8 639.797 L1718.24 633.847 L1718.24 633.847  Z" fill="#009af9" fill-rule="evenodd" fill-opacity="1"/>
<polyline clip-path="url(#clip762)" style="stroke:#000000; stroke-linecap:round; stroke-linejoin:round; stroke-width:4; stroke-opacity:1; fill:none" points="1718.24,633.847 1714.8,627.897 1707.93,627.897 1704.5,633.847 1707.93,639.797 1714.8,639.797 1718.24,633.847 "/>
<path clip-path="url(#clip762)" d="M1641.86 483.958 L1638.43 478.008 L1631.56 478.008 L1628.12 483.958 L1631.56 489.908 L1638.43 489.908 L1641.86 483.958 L1641.86 483.958  Z" fill="#009af9" fill-rule="evenodd" fill-opacity="1"/>
<polyline clip-path="url(#clip762)" style="stroke:#000000; stroke-linecap:round; stroke-linejoin:round; stroke-width:4; stroke-opacity:1; fill:none" points="1641.86,483.958 1638.43,478.008 1631.56,478.008 1628.12,483.958 1631.56,489.908 1638.43,489.908 1641.86,483.958 "/>
<path clip-path="url(#clip762)" d="M1522.91 365.005 L1519.48 359.056 L1512.61 359.056 L1509.17 365.005 L1512.61 370.955 L1519.48 370.955 L1522.91 365.005 L1522.91 365.005  Z" fill="#009af9" fill-rule="evenodd" fill-opacity="1"/>
<polyline clip-path="url(#clip762)" style="stroke:#000000; stroke-linecap:round; stroke-linejoin:round; stroke-width:4; stroke-opacity:1; fill:none" points="1522.91,365.005 1519.48,359.056 1512.61,359.056 1509.17,365.005 1512.61,370.955 1519.48,370.955 1522.91,365.005 "/>
<path clip-path="url(#clip762)" d="M1373.02 288.633 L1369.59 282.683 L1362.72 282.683 L1359.28 288.633 L1362.72 294.583 L1369.59 294.583 L1373.02 288.633 L1373.02 288.633  Z" fill="#009af9" fill-rule="evenodd" fill-opacity="1"/>
<polyline clip-path="url(#clip762)" style="stroke:#000000; stroke-linecap:round; stroke-linejoin:round; stroke-width:4; stroke-opacity:1; fill:none" points="1373.02,288.633 1369.59,282.683 1362.72,282.683 1359.28,288.633 1362.72,294.583 1369.59,294.583 1373.02,288.633 "/>
<path clip-path="url(#clip762)" d="M1206.87 262.317 L1203.44 256.367 L1196.56 256.367 L1193.13 262.317 L1196.56 268.267 L1203.44 268.267 L1206.87 262.317 L1206.87 262.317  Z" fill="#009af9" fill-rule="evenodd" fill-opacity="1"/>
<polyline clip-path="url(#clip762)" style="stroke:#000000; stroke-linecap:round; stroke-linejoin:round; stroke-width:4; stroke-opacity:1; fill:none" points="1206.87,262.317 1203.44,256.367 1196.56,256.367 1193.13,262.317 1196.56,268.267 1203.44,268.267 1206.87,262.317 "/>
<path clip-path="url(#clip762)" d="M1718.24 966.153 L1714.8 960.203 L1707.93 960.203 L1704.5 966.153 L1707.93 972.103 L1714.8 972.103 L1718.24 966.153 L1718.24 966.153  Z" fill="#009af9" fill-rule="evenodd" fill-opacity="1"/>
<polyline clip-path="url(#clip762)" style="stroke:#000000; stroke-linecap:round; stroke-linejoin:round; stroke-width:4; stroke-opacity:1; fill:none" points="1718.24,966.153 1714.8,960.203 1707.93,960.203 1704.5,966.153 1707.93,972.103 1714.8,972.103 1718.24,966.153 "/>
<path clip-path="url(#clip762)" d="M1602.5 800 L1599.06 794.05 L1592.19 794.05 L1588.76 800 L1592.19 805.95 L1599.06 805.95 L1602.5 800 L1602.5 800  Z" fill="#009af9" fill-rule="evenodd" fill-opacity="1"/>
<polyline clip-path="url(#clip762)" style="stroke:#000000; stroke-linecap:round; stroke-linejoin:round; stroke-width:4; stroke-opacity:1; fill:none" points="1602.5,800 1599.06,794.05 1592.19,794.05 1588.76,800 1592.19,805.95 1599.06,805.95 1602.5,800 "/>
<path clip-path="url(#clip762)" d="M1486.76 651.018 L1483.32 645.068 L1476.45 645.068 L1473.02 651.018 L1476.45 656.968 L1483.32 656.968 L1486.76 651.018 L1486.76 651.018  Z" fill="#009af9" fill-rule="evenodd" fill-opacity="1"/>
<polyline clip-path="url(#clip762)" style="stroke:#000000; stroke-linecap:round; stroke-linejoin:round; stroke-width:4; stroke-opacity:1; fill:none" points="1486.76,651.018 1483.32,645.068 1476.45,645.068 1473.02,651.018 1476.45,656.968 1483.32,656.968 1486.76,651.018 "/>
<path clip-path="url(#clip762)" d="M1355.85 520.113 L1352.42 514.163 L1345.55 514.163 L1342.11 520.113 L1345.55 526.063 L1352.42 526.063 L1355.85 520.113 L1355.85 520.113  Z" fill="#009af9" fill-rule="evenodd" fill-opacity="1"/>
<polyline clip-path="url(#clip762)" style="stroke:#000000; stroke-linecap:round; stroke-linejoin:round; stroke-width:4; stroke-opacity:1; fill:none" points="1355.85,520.113 1352.42,514.163 1345.55,514.163 1342.11,520.113 1345.55,526.063 1352.42,526.063 1355.85,520.113 "/>
<path clip-path="url(#clip762)" d="M1206.87 404.373 L1203.44 398.423 L1196.56 398.423 L1193.13 404.373 L1196.56 410.323 L1203.44 410.323 L1206.87 404.373 L1206.87 404.373  Z" fill="#009af9" fill-rule="evenodd" fill-opacity="1"/>
<polyline clip-path="url(#clip762)" style="stroke:#000000; stroke-linecap:round; stroke-linejoin:round; stroke-width:4; stroke-opacity:1; fill:none" points="1206.87,404.373 1203.44,398.423 1196.56,398.423 1193.13,404.373 1196.56,410.323 1203.44,410.323 1206.87,404.373 "/>
<path clip-path="url(#clip762)" d="M1040.72 288.633 L1037.28 282.683 L1030.41 282.683 L1026.98 288.633 L1030.41 294.583 L1037.28 294.583 L1040.72 288.633 L1040.72 288.633  Z" fill="#009af9" fill-rule="evenodd" fill-opacity="1"/>
<polyline clip-path="url(#clip762)" style="stroke:#000000; stroke-linecap:round; stroke-linejoin:round; stroke-width:4; stroke-opacity:1; fill:none" points="1040.72,288.633 1037.28,282.683 1030.41,282.683 1026.98,288.633 1030.41,294.583 1037.28,294.583 1040.72,288.633 "/>
<path clip-path="url(#clip762)" d="M1641.86 1116.04 L1638.43 1110.09 L1631.56 1110.09 L1628.12 1116.04 L1631.56 1121.99 L1638.43 1121.99 L1641.86 1116.04 L1641.86 1116.04  Z" fill="#009af9" fill-rule="evenodd" fill-opacity="1"/>
<polyline clip-path="url(#clip762)" style="stroke:#000000; stroke-linecap:round; stroke-linejoin:round; stroke-width:4; stroke-opacity:1; fill:none" points="1641.86,1116.04 1638.43,1110.09 1631.56,1110.09 1628.12,1116.04 1631.56,1121.99 1638.43,1121.99 1641.86,1116.04 "/>
<path clip-path="url(#clip762)" d="M1486.76 948.982 L1483.32 943.032 L1476.45 943.032 L1473.02 948.982 L1476.45 954.932 L1483.32 954.932 L1486.76 948.982 L1486.76 948.982  Z" fill="#009af9" fill-rule="evenodd" fill-opacity="1"/>
<polyline clip-path="url(#clip762)" style="stroke:#000000; stroke-linecap:round; stroke-linejoin:round; stroke-width:4; stroke-opacity:1; fill:none" points="1486.76,948.982 1483.32,943.032 1476.45,943.032 1473.02,948.982 1476.45,954.932 1483.32,954.932 1486.76,948.982 "/>
<path clip-path="url(#clip762)" d="M1346.81 800 L1343.38 794.05 L1336.51 794.05 L1333.07 800 L1336.51 805.95 L1343.38 805.95 L1346.81 800 L1346.81 800  Z" fill="#009af9" fill-rule="evenodd" fill-opacity="1"/>
<polyline clip-path="url(#clip762)" style="stroke:#000000; stroke-linecap:round; stroke-linejoin:round; stroke-width:4; stroke-opacity:1; fill:none" points="1346.81,800 1343.38,794.05 1336.51,794.05 1333.07,800 1336.51,805.95 1343.38,805.95 1346.81,800 "/>
<path clip-path="url(#clip762)" d="M1206.87 660.057 L1203.44 654.107 L1196.56 654.107 L1193.13 660.057 L1196.56 666.007 L1203.44 666.007 L1206.87 660.057 L1206.87 660.057  Z" fill="#009af9" fill-rule="evenodd" fill-opacity="1"/>
<polyline clip-path="url(#clip762)" style="stroke:#000000; stroke-linecap:round; stroke-linejoin:round; stroke-width:4; stroke-opacity:1; fill:none" points="1206.87,660.057 1203.44,654.107 1196.56,654.107 1193.13,660.057 1196.56,666.007 1203.44,666.007 1206.87,660.057 "/>
<path clip-path="url(#clip762)" d="M1057.89 520.113 L1054.45 514.163 L1047.58 514.163 L1044.15 520.113 L1047.58 526.063 L1054.45 526.063 L1057.89 520.113 L1057.89 520.113  Z" fill="#009af9" fill-rule="evenodd" fill-opacity="1"/>
<polyline clip-path="url(#clip762)" style="stroke:#000000; stroke-linecap:round; stroke-linejoin:round; stroke-width:4; stroke-opacity:1; fill:none" points="1057.89,520.113 1054.45,514.163 1047.58,514.163 1044.15,520.113 1047.58,526.063 1054.45,526.063 1057.89,520.113 "/>
<path clip-path="url(#clip762)" d="M890.828 365.005 L887.393 359.056 L880.523 359.056 L877.088 365.005 L880.523 370.955 L887.393 370.955 L890.828 365.005 L890.828 365.005  Z" fill="#009af9" fill-rule="evenodd" fill-opacity="1"/>
<polyline clip-path="url(#clip762)" style="stroke:#000000; stroke-linecap:round; stroke-linejoin:round; stroke-width:4; stroke-opacity:1; fill:none" points="890.828,365.005 887.393,359.056 880.523,359.056 877.088,365.005 880.523,370.955 887.393,370.955 890.828,365.005 "/>
<path clip-path="url(#clip762)" d="M1522.91 1234.99 L1519.48 1229.04 L1512.61 1229.04 L1509.17 1234.99 L1512.61 1240.94 L1519.48 1240.94 L1522.91 1234.99 L1522.91 1234.99  Z" fill="#009af9" fill-rule="evenodd" fill-opacity="1"/>
<polyline clip-path="url(#clip762)" style="stroke:#000000; stroke-linecap:round; stroke-linejoin:round; stroke-width:4; stroke-opacity:1; fill:none" points="1522.91,1234.99 1519.48,1229.04 1512.61,1229.04 1509.17,1234.99 1512.61,1240.94 1519.48,1240.94 1522.91,1234.99 "/>
<path clip-path="url(#clip762)" d="M1355.85 1079.89 L1352.42 1073.94 L1345.55 1073.94 L1342.11 1079.89 L1345.55 1085.84 L1352.42 1085.84 L1355.85 1079.89 L1355.85 1079.89  Z" fill="#009af9" fill-rule="evenodd" fill-opacity="1"/>
<polyline clip-path="url(#clip762)" style="stroke:#000000; stroke-linecap:round; stroke-linejoin:round; stroke-width:4; stroke-opacity:1; fill:none" points="1355.85,1079.89 1352.42,1073.94 1345.55,1073.94 1342.11,1079.89 1345.55,1085.84 1352.42,1085.84 1355.85,1079.89 "/>
<path clip-path="url(#clip762)" d="M1206.87 939.943 L1203.44 933.993 L1196.56 933.993 L1193.13 939.943 L1196.56 945.893 L1203.44 945.893 L1206.87 939.943 L1206.87 939.943  Z" fill="#009af9" fill-rule="evenodd" fill-opacity="1"/>
<polyline clip-path="url(#clip762)" style="stroke:#000000; stroke-linecap:round; stroke-linejoin:round; stroke-width:4; stroke-opacity:1; fill:none" points="1206.87,939.943 1203.44,933.993 1196.56,933.993 1193.13,939.943 1196.56,945.893 1203.44,945.893 1206.87,939.943 "/>
<path clip-path="url(#clip762)" d="M1066.93 800 L1063.49 794.05 L1056.62 794.05 L1053.19 800 L1056.62 805.95 L1063.49 805.95 L1066.93 800 L1066.93 800  Z" fill="#009af9" fill-rule="evenodd" fill-opacity="1"/>
<polyline clip-path="url(#clip762)" style="stroke:#000000; stroke-linecap:round; stroke-linejoin:round; stroke-width:4; stroke-opacity:1; fill:none" points="1066.93,800 1063.49,794.05 1056.62,794.05 1053.19,800 1056.62,805.95 1063.49,805.95 1066.93,800 "/>
<path clip-path="url(#clip762)" d="M926.984 651.018 L923.549 645.068 L916.678 645.068 L913.243 651.018 L916.678 656.968 L923.549 656.968 L926.984 651.018 L926.984 651.018  Z" fill="#009af9" fill-rule="evenodd" fill-opacity="1"/>
<polyline clip-path="url(#clip762)" style="stroke:#000000; stroke-linecap:round; stroke-linejoin:round; stroke-width:4; stroke-opacity:1; fill:none" points="926.984,651.018 923.549,645.068 916.678,645.068 913.243,651.018 916.678,656.968 923.549,656.968 926.984,651.018 "/>
<path clip-path="url(#clip762)" d="M771.876 483.958 L768.441 478.008 L761.57 478.008 L758.135 483.958 L761.57 489.908 L768.441 489.908 L771.876 483.958 L771.876 483.958  Z" fill="#009af9" fill-rule="evenodd" fill-opacity="1"/>
<polyline clip-path="url(#clip762)" style="stroke:#000000; stroke-linecap:round; stroke-linejoin:round; stroke-width:4; stroke-opacity:1; fill:none" points="771.876,483.958 768.441,478.008 761.57,478.008 758.135,483.958 761.57,489.908 768.441,489.908 771.876,483.958 "/>
<path clip-path="url(#clip762)" d="M1373.02 1311.37 L1369.59 1305.42 L1362.72 1305.42 L1359.28 1311.37 L1362.72 1317.32 L1369.59 1317.32 L1373.02 1311.37 L1373.02 1311.37  Z" fill="#009af9" fill-rule="evenodd" fill-opacity="1"/>
<polyline clip-path="url(#clip762)" style="stroke:#000000; stroke-linecap:round; stroke-linejoin:round; stroke-width:4; stroke-opacity:1; fill:none" points="1373.02,1311.37 1369.59,1305.42 1362.72,1305.42 1359.28,1311.37 1362.72,1317.32 1369.59,1317.32 1373.02,1311.37 "/>
<path clip-path="url(#clip762)" d="M1206.87 1195.63 L1203.44 1189.68 L1196.56 1189.68 L1193.13 1195.63 L1196.56 1201.58 L1203.44 1201.58 L1206.87 1195.63 L1206.87 1195.63  Z" fill="#009af9" fill-rule="evenodd" fill-opacity="1"/>
<polyline clip-path="url(#clip762)" style="stroke:#000000; stroke-linecap:round; stroke-linejoin:round; stroke-width:4; stroke-opacity:1; fill:none" points="1206.87,1195.63 1203.44,1189.68 1196.56,1189.68 1193.13,1195.63 1196.56,1201.58 1203.44,1201.58 1206.87,1195.63 "/>
<path clip-path="url(#clip762)" d="M1057.89 1079.89 L1054.45 1073.94 L1047.58 1073.94 L1044.15 1079.89 L1047.58 1085.84 L1054.45 1085.84 L1057.89 1079.89 L1057.89 1079.89  Z" fill="#009af9" fill-rule="evenodd" fill-opacity="1"/>
<polyline clip-path="url(#clip762)" style="stroke:#000000; stroke-linecap:round; stroke-linejoin:round; stroke-width:4; stroke-opacity:1; fill:none" points="1057.89,1079.89 1054.45,1073.94 1047.58,1073.94 1044.15,1079.89 1047.58,1085.84 1054.45,1085.84 1057.89,1079.89 "/>
<path clip-path="url(#clip762)" d="M926.984 948.982 L923.549 943.032 L916.678 943.032 L913.243 948.982 L916.678 954.932 L923.549 954.932 L926.984 948.982 L926.984 948.982  Z" fill="#009af9" fill-rule="evenodd" fill-opacity="1"/>
<polyline clip-path="url(#clip762)" style="stroke:#000000; stroke-linecap:round; stroke-linejoin:round; stroke-width:4; stroke-opacity:1; fill:none" points="926.984,948.982 923.549,943.032 916.678,943.032 913.243,948.982 916.678,954.932 923.549,954.932 926.984,948.982 "/>
<path clip-path="url(#clip762)" d="M811.244 800 L807.808 794.05 L800.938 794.05 L797.503 800 L800.938 805.95 L807.808 805.95 L811.244 800 L811.244 800  Z" fill="#009af9" fill-rule="evenodd" fill-opacity="1"/>
<polyline clip-path="url(#clip762)" style="stroke:#000000; stroke-linecap:round; stroke-linejoin:round; stroke-width:4; stroke-opacity:1; fill:none" points="811.244,800 807.808,794.05 800.938,794.05 797.503,800 800.938,805.95 807.808,805.95 811.244,800 "/>
<path clip-path="url(#clip762)" d="M695.504 633.847 L692.068 627.897 L685.198 627.897 L681.763 633.847 L685.198 639.797 L692.068 639.797 L695.504 633.847 L695.504 633.847  Z" fill="#009af9" fill-rule="evenodd" fill-opacity="1"/>
<polyline clip-path="url(#clip762)" style="stroke:#000000; stroke-linecap:round; stroke-linejoin:round; stroke-width:4; stroke-opacity:1; fill:none" points="695.504,633.847 692.068,627.897 685.198,627.897 681.763,633.847 685.198,639.797 692.068,639.797 695.504,633.847 "/>
<path clip-path="url(#clip762)" d="M1206.87 1337.68 L1203.44 1331.73 L1196.56 1331.73 L1193.13 1337.68 L1196.56 1343.63 L1203.44 1343.63 L1206.87 1337.68 L1206.87 1337.68  Z" fill="#009af9" fill-rule="evenodd" fill-opacity="1"/>
<polyline clip-path="url(#clip762)" style="stroke:#000000; stroke-linecap:round; stroke-linejoin:round; stroke-width:4; stroke-opacity:1; fill:none" points="1206.87,1337.68 1203.44,1331.73 1196.56,1331.73 1193.13,1337.68 1196.56,1343.63 1203.44,1343.63 1206.87,1337.68 "/>
<path clip-path="url(#clip762)" d="M1040.72 1311.37 L1037.28 1305.42 L1030.41 1305.42 L1026.98 1311.37 L1030.41 1317.32 L1037.28 1317.32 L1040.72 1311.37 L1040.72 1311.37  Z" fill="#009af9" fill-rule="evenodd" fill-opacity="1"/>
<polyline clip-path="url(#clip762)" style="stroke:#000000; stroke-linecap:round; stroke-linejoin:round; stroke-width:4; stroke-opacity:1; fill:none" points="1040.72,1311.37 1037.28,1305.42 1030.41,1305.42 1026.98,1311.37 1030.41,1317.32 1037.28,1317.32 1040.72,1311.37 "/>
<path clip-path="url(#clip762)" d="M890.828 1234.99 L887.393 1229.04 L880.523 1229.04 L877.088 1234.99 L880.523 1240.94 L887.393 1240.94 L890.828 1234.99 L890.828 1234.99  Z" fill="#009af9" fill-rule="evenodd" fill-opacity="1"/>
<polyline clip-path="url(#clip762)" style="stroke:#000000; stroke-linecap:round; stroke-linejoin:round; stroke-width:4; stroke-opacity:1; fill:none" points="890.828,1234.99 887.393,1229.04 880.523,1229.04 877.088,1234.99 880.523,1240.94 887.393,1240.94 890.828,1234.99 "/>
<path clip-path="url(#clip762)" d="M771.876 1116.04 L768.441 1110.09 L761.57 1110.09 L758.135 1116.04 L761.57 1121.99 L768.441 1121.99 L771.876 1116.04 L771.876 1116.04  Z" fill="#009af9" fill-rule="evenodd" fill-opacity="1"/>
<polyline clip-path="url(#clip762)" style="stroke:#000000; stroke-linecap:round; stroke-linejoin:round; stroke-width:4; stroke-opacity:1; fill:none" points="771.876,1116.04 768.441,1110.09 761.57,1110.09 758.135,1116.04 761.57,1121.99 768.441,1121.99 771.876,1116.04 "/>
<path clip-path="url(#clip762)" d="M695.504 966.153 L692.068 960.203 L685.198 960.203 L681.763 966.153 L685.198 972.103 L692.068 972.103 L695.504 966.153 L695.504 966.153  Z" fill="#009af9" fill-rule="evenodd" fill-opacity="1"/>
<polyline clip-path="url(#clip762)" style="stroke:#000000; stroke-linecap:round; stroke-linejoin:round; stroke-width:4; stroke-opacity:1; fill:none" points="695.504,966.153 692.068,960.203 685.198,960.203 681.763,966.153 685.198,972.103 692.068,972.103 695.504,966.153 "/>
<path clip-path="url(#clip762)" d="M669.188 800 L665.752 794.05 L658.882 794.05 L655.447 800 L658.882 805.95 L665.752 805.95 L669.188 800 L669.188 800  Z" fill="#009af9" fill-rule="evenodd" fill-opacity="1"/>
<polyline clip-path="url(#clip762)" style="stroke:#000000; stroke-linecap:round; stroke-linejoin:round; stroke-width:4; stroke-opacity:1; fill:none" points="669.188,800 665.752,794.05 658.882,794.05 655.447,800 658.882,805.95 665.752,805.95 669.188,800 "/>
<path clip-path="url(#clip762)" d="M1737.68 800.4 L1737.34 800.2 L1737.34 799.8 L1737.68 799.6 L1738.03 799.8 L1738.03 800.2 Z" fill="#009af9" fill-rule="evenodd" fill-opacity="1" stroke="#000000" stroke-opacity="1" stroke-width="3.2"/>
<path clip-path="url(#clip762)" d="M1711.37 634.247 L1711.02 634.047 L1711.02 633.647 L1711.37 633.447 L1711.71 633.647 L1711.71 634.047 Z" fill="#009af9" fill-rule="evenodd" fill-opacity="1" stroke="#000000" stroke-opacity="1" stroke-width="3.2"/>
<path clip-path="url(#clip762)" d="M1634.99 484.358 L1634.65 484.158 L1634.65 483.758 L1634.99 483.558 L1635.34 483.758 L1635.34 484.158 Z" fill="#009af9" fill-rule="evenodd" fill-opacity="1" stroke="#000000" stroke-opacity="1" stroke-width="3.2"/>
<path clip-path="url(#clip762)" d="M1516.04 365.405 L1515.7 365.205 L1515.7 364.805 L1516.04 364.605 L1516.39 364.805 L1516.39 365.205 Z" fill="#009af9" fill-rule="evenodd" fill-opacity="1" stroke="#000000" stroke-opacity="1" stroke-width="3.2"/>
<path clip-path="url(#clip762)" d="M1366.15 289.033 L1365.81 288.833 L1365.81 288.433 L1366.15 288.233 L1366.5 288.433 L1366.5 288.833 Z" fill="#009af9" fill-rule="evenodd" fill-opacity="1" stroke="#000000" stroke-opacity="1" stroke-width="3.2"/>
<path clip-path="url(#clip762)" d="M1200 262.717 L1199.65 262.517 L1199.65 262.117 L1200 261.917 L1200.35 262.117 L1200.35 262.517 Z" fill="#009af9" fill-rule="evenodd" fill-opacity="1" stroke="#000000" stroke-opacity="1" stroke-width="3.2"/>
<path clip-path="url(#clip762)" d="M1711.37 966.553 L1711.02 966.353 L1711.02 965.953 L1711.37 965.753 L1711.71 965.953 L1711.71 966.353 Z" fill="#009af9" fill-rule="evenodd" fill-opacity="1" stroke="#000000" stroke-opacity="1" stroke-width="3.2"/>
<path clip-path="url(#clip762)" d="M1595.63 800.4 L1595.28 800.2 L1595.28 799.8 L1595.63 799.6 L1595.97 799.8 L1595.97 800.2 Z" fill="#009af9" fill-rule="evenodd" fill-opacity="1" stroke="#000000" stroke-opacity="1" stroke-width="3.2"/>
<path clip-path="url(#clip762)" d="M1479.89 651.418 L1479.54 651.218 L1479.54 650.818 L1479.89 650.618 L1480.23 650.818 L1480.23 651.218 Z" fill="#009af9" fill-rule="evenodd" fill-opacity="1" stroke="#000000" stroke-opacity="1" stroke-width="3.2"/>
<path clip-path="url(#clip762)" d="M1348.98 520.513 L1348.64 520.313 L1348.64 519.913 L1348.98 519.713 L1349.33 519.913 L1349.33 520.313 Z" fill="#009af9" fill-rule="evenodd" fill-opacity="1" stroke="#000000" stroke-opacity="1" stroke-width="3.2"/>
<path clip-path="url(#clip762)" d="M1200 404.773 L1199.65 404.573 L1199.65 404.173 L1200 403.973 L1200.35 404.173 L1200.35 404.573 Z" fill="#009af9" fill-rule="evenodd" fill-opacity="1" stroke="#000000" stroke-opacity="1" stroke-width="3.2"/>
<path clip-path="url(#clip762)" d="M1033.85 289.033 L1033.5 288.833 L1033.5 288.433 L1033.85 288.233 L1034.19 288.433 L1034.19 288.833 Z" fill="#009af9" fill-rule="evenodd" fill-opacity="1" stroke="#000000" stroke-opacity="1" stroke-width="3.2"/>
<path clip-path="url(#clip762)" d="M1634.99 1116.44 L1634.65 1116.24 L1634.65 1115.84 L1634.99 1115.64 L1635.34 1115.84 L1635.34 1116.24 Z" fill="#009af9" fill-rule="evenodd" fill-opacity="1" stroke="#000000" stroke-opacity="1" stroke-width="3.2"/>
<path clip-path="url(#clip762)" d="M1479.89 949.382 L1479.54 949.182 L1479.54 948.782 L1479.89 948.582 L1480.23 948.782 L1480.23 949.182 Z" fill="#009af9" fill-rule="evenodd" fill-opacity="1" stroke="#000000" stroke-opacity="1" stroke-width="3.2"/>
<path clip-path="url(#clip762)" d="M1339.94 800.4 L1339.6 800.2 L1339.6 799.8 L1339.94 799.6 L1340.29 799.8 L1340.29 800.2 Z" fill="#009af9" fill-rule="evenodd" fill-opacity="1" stroke="#000000" stroke-opacity="1" stroke-width="3.2"/>
<path clip-path="url(#clip762)" d="M1200 660.457 L1199.65 660.257 L1199.65 659.857 L1200 659.657 L1200.35 659.857 L1200.35 660.257 Z" fill="#009af9" fill-rule="evenodd" fill-opacity="1" stroke="#000000" stroke-opacity="1" stroke-width="3.2"/>
<path clip-path="url(#clip762)" d="M1051.02 520.513 L1050.67 520.313 L1050.67 519.913 L1051.02 519.713 L1051.36 519.913 L1051.36 520.313 Z" fill="#009af9" fill-rule="evenodd" fill-opacity="1" stroke="#000000" stroke-opacity="1" stroke-width="3.2"/>
<path clip-path="url(#clip762)" d="M883.958 365.405 L883.612 365.205 L883.612 364.805 L883.958 364.605 L884.304 364.805 L884.304 365.205 Z" fill="#009af9" fill-rule="evenodd" fill-opacity="1" stroke="#000000" stroke-opacity="1" stroke-width="3.2"/>
<path clip-path="url(#clip762)" d="M1516.04 1235.39 L1515.7 1235.19 L1515.7 1234.79 L1516.04 1234.59 L1516.39 1234.79 L1516.39 1235.19 Z" fill="#009af9" fill-rule="evenodd" fill-opacity="1" stroke="#000000" stroke-opacity="1" stroke-width="3.2"/>
<path clip-path="url(#clip762)" d="M1348.98 1080.29 L1348.64 1080.09 L1348.64 1079.69 L1348.98 1079.49 L1349.33 1079.69 L1349.33 1080.09 Z" fill="#009af9" fill-rule="evenodd" fill-opacity="1" stroke="#000000" stroke-opacity="1" stroke-width="3.2"/>
<path clip-path="url(#clip762)" d="M1200 940.343 L1199.65 940.143 L1199.65 939.743 L1200 939.543 L1200.35 939.743 L1200.35 940.143 Z" fill="#009af9" fill-rule="evenodd" fill-opacity="1" stroke="#000000" stroke-opacity="1" stroke-width="3.2"/>
<path clip-path="url(#clip762)" d="M1060.06 800.4 L1059.71 800.2 L1059.71 799.8 L1060.06 799.6 L1060.4 799.8 L1060.4 800.2 Z" fill="#009af9" fill-rule="evenodd" fill-opacity="1" stroke="#000000" stroke-opacity="1" stroke-width="3.2"/>
<path clip-path="url(#clip762)" d="M920.113 651.418 L919.767 651.218 L919.767 650.818 L920.113 650.618 L920.46 650.818 L920.46 651.218 Z" fill="#009af9" fill-rule="evenodd" fill-opacity="1" stroke="#000000" stroke-opacity="1" stroke-width="3.2"/>
<path clip-path="url(#clip762)" d="M765.005 484.358 L764.659 484.158 L764.659 483.758 L765.005 483.558 L765.352 483.758 L765.352 484.158 Z" fill="#009af9" fill-rule="evenodd" fill-opacity="1" stroke="#000000" stroke-opacity="1" stroke-width="3.2"/>
<path clip-path="url(#clip762)" d="M1366.15 1311.77 L1365.81 1311.57 L1365.81 1311.17 L1366.15 1310.97 L1366.5 1311.17 L1366.5 1311.57 Z" fill="#009af9" fill-rule="evenodd" fill-opacity="1" stroke="#000000" stroke-opacity="1" stroke-width="3.2"/>
<path clip-path="url(#clip762)" d="M1200 1196.03 L1199.65 1195.83 L1199.65 1195.43 L1200 1195.23 L1200.35 1195.43 L1200.35 1195.83 Z" fill="#009af9" fill-rule="evenodd" fill-opacity="1" stroke="#000000" stroke-opacity="1" stroke-width="3.2"/>
<path clip-path="url(#clip762)" d="M1051.02 1080.29 L1050.67 1080.09 L1050.67 1079.69 L1051.02 1079.49 L1051.36 1079.69 L1051.36 1080.09 Z" fill="#009af9" fill-rule="evenodd" fill-opacity="1" stroke="#000000" stroke-opacity="1" stroke-width="3.2"/>
<path clip-path="url(#clip762)" d="M920.113 949.382 L919.767 949.182 L919.767 948.782 L920.113 948.582 L920.46 948.782 L920.46 949.182 Z" fill="#009af9" fill-rule="evenodd" fill-opacity="1" stroke="#000000" stroke-opacity="1" stroke-width="3.2"/>
<path clip-path="url(#clip762)" d="M804.373 800.4 L804.027 800.2 L804.027 799.8 L804.373 799.6 L804.72 799.8 L804.72 800.2 Z" fill="#009af9" fill-rule="evenodd" fill-opacity="1" stroke="#000000" stroke-opacity="1" stroke-width="3.2"/>
<path clip-path="url(#clip762)" d="M688.633 634.247 L688.287 634.047 L688.287 633.647 L688.633 633.447 L688.98 633.647 L688.98 634.047 Z" fill="#009af9" fill-rule="evenodd" fill-opacity="1" stroke="#000000" stroke-opacity="1" stroke-width="3.2"/>
<path clip-path="url(#clip762)" d="M1200 1338.08 L1199.65 1337.88 L1199.65 1337.48 L1200 1337.28 L1200.35 1337.48 L1200.35 1337.88 Z" fill="#009af9" fill-rule="evenodd" fill-opacity="1" stroke="#000000" stroke-opacity="1" stroke-width="3.2"/>
<path clip-path="url(#clip762)" d="M1033.85 1311.77 L1033.5 1311.57 L1033.5 1311.17 L1033.85 1310.97 L1034.19 1311.17 L1034.19 1311.57 Z" fill="#009af9" fill-rule="evenodd" fill-opacity="1" stroke="#000000" stroke-opacity="1" stroke-width="3.2"/>
<path clip-path="url(#clip762)" d="M883.958 1235.39 L883.612 1235.19 L883.612 1234.79 L883.958 1234.59 L884.304 1234.79 L884.304 1235.19 Z" fill="#009af9" fill-rule="evenodd" fill-opacity="1" stroke="#000000" stroke-opacity="1" stroke-width="3.2"/>
<path clip-path="url(#clip762)" d="M765.005 1116.44 L764.659 1116.24 L764.659 1115.84 L765.005 1115.64 L765.352 1115.84 L765.352 1116.24 Z" fill="#009af9" fill-rule="evenodd" fill-opacity="1" stroke="#000000" stroke-opacity="1" stroke-width="3.2"/>
<path clip-path="url(#clip762)" d="M688.633 966.553 L688.287 966.353 L688.287 965.953 L688.633 965.753 L688.98 965.953 L688.98 966.353 Z" fill="#009af9" fill-rule="evenodd" fill-opacity="1" stroke="#000000" stroke-opacity="1" stroke-width="3.2"/>
<path clip-path="url(#clip762)" d="M662.317 800.4 L661.971 800.2 L661.971 799.8 L662.317 799.6 L662.664 799.8 L662.664 800.2 Z" fill="#009af9" fill-rule="evenodd" fill-opacity="1" stroke="#000000" stroke-opacity="1" stroke-width="3.2"/>
</svg>
