<?xml version="1.0" encoding="utf-8"?>
<svg xmlns="http://www.w3.org/2000/svg" xmlns:xlink="http://www.w3.org/1999/xlink" width="600" height="400" viewBox="0 0 2400 1600">
<defs>
  <clipPath id="clip550">
    <rect x="0" y="0" width="2400" height="1600"/>
  </clipPath>
</defs>
<path clip-path="url(#clip550)" d="M0 1600 L2400 1600 L2400 0 L0 0  Z" fill="#ffffff" fill-rule="evenodd" fill-opacity="1"/>
<defs>
  <clipPath id="clip551">
    <rect x="480" y="0" width="1681" height="1600"/>
  </clipPath>
</defs>
<path clip-path="url(#clip550)" d="M447.244 1552.76 L1952.76 1552.76 L1952.76 47.2441 L447.244 47.2441  Z" fill="#ffffff" fill-rule="evenodd" fill-opacity="1"/>
<defs>
  <clipPath id="clip552">
    <rect x="447" y="47" width="1507" height="1507"/>
  </clipPath>
</defs>
<polyline clip-path="url(#clip552)" style="stroke:#000000; stroke-linecap:round; stroke-linejoin:round; stroke-width:4; stroke-opacity:1; fill:none" points="662.317,1337.68 861.136,1081.93 "/>
<polyline clip-path="url(#clip552)" style="stroke:#000000; stroke-linecap:round; stroke-linejoin:round; stroke-width:4; stroke-opacity:1; fill:none" points="662.317,1337.68 918.072,1138.86 "/>
<polyline clip-path="url(#clip552)" style="stroke:#000000; stroke-linecap:round; stroke-linejoin:round; stroke-width:4; stroke-opacity:1; fill:none" points="861.136,1081.93 940.112,889.078 "/>
<polyline clip-path="url(#clip552)" style="stroke:#000000; stroke-linecap:round; stroke-linejoin:round; stroke-width:4; stroke-opacity:1; fill:none" points="861.136,1081.93 980.978,1019.02 "/>
<polyline clip-path="url(#clip552)" style="stroke:#000000; stroke-linecap:round; stroke-linejoin:round; stroke-width:4; stroke-opacity:1; fill:none" points="940.112,889.078 940.112,710.922 "/>
<polyline clip-path="url(#clip552)" style="stroke:#000000; stroke-linecap:round; stroke-linejoin:round; stroke-width:4; stroke-opacity:1; fill:none" points="940.112,889.078 1019.09,874.385 "/>
<polyline clip-path="url(#clip552)" style="stroke:#000000; stroke-linecap:round; stroke-linejoin:round; stroke-width:4; stroke-opacity:1; fill:none" points="940.112,710.922 861.136,518.072 "/>
<polyline clip-path="url(#clip552)" style="stroke:#000000; stroke-linecap:round; stroke-linejoin:round; stroke-width:4; stroke-opacity:1; fill:none" points="940.112,710.922 1019.09,725.615 "/>
<polyline clip-path="url(#clip552)" style="stroke:#000000; stroke-linecap:round; stroke-linejoin:round; stroke-width:4; stroke-opacity:1; fill:none" points="861.136,518.072 662.317,262.317 "/>
<polyline clip-path="url(#clip552)" style="stroke:#000000; stroke-linecap:round; stroke-linejoin:round; stroke-width:4; stroke-opacity:1; fill:none" points="861.136,518.072 980.978,580.978 "/>
<polyline clip-path="url(#clip552)" style="stroke:#000000; stroke-linecap:round; stroke-linejoin:round; stroke-width:4; stroke-opacity:1; fill:none" points="662.317,262.317 918.072,461.136 "/>
<polyline clip-path="url(#clip552)" style="stroke:#000000; stroke-linecap:round; stroke-linejoin:round; stroke-width:4; stroke-opacity:1; fill:none" points="918.072,1138.86 980.978,1019.02 "/>
<polyline clip-path="url(#clip552)" style="stroke:#000000; stroke-linecap:round; stroke-linejoin:round; stroke-width:4; stroke-opacity:1; fill:none" points="918.072,1138.86 1110.92,1059.89 "/>
<polyline clip-path="url(#clip552)" style="stroke:#000000; stroke-linecap:round; stroke-linejoin:round; stroke-width:4; stroke-opacity:1; fill:none" points="980.978,1019.02 1019.09,874.385 "/>
<polyline clip-path="url(#clip552)" style="stroke:#000000; stroke-linecap:round; stroke-linejoin:round; stroke-width:4; stroke-opacity:1; fill:none" points="980.978,1019.02 1125.62,980.911 "/>
<polyline clip-path="url(#clip552)" style="stroke:#000000; stroke-linecap:round; stroke-linejoin:round; stroke-width:4; stroke-opacity:1; fill:none" points="1019.09,874.385 1019.09,725.615 "/>
<polyline clip-path="url(#clip552)" style="stroke:#000000; stroke-linecap:round; stroke-linejoin:round; stroke-width:4; stroke-opacity:1; fill:none" points="1019.09,874.385 1136.18,863.824 "/>
<polyline clip-path="url(#clip552)" style="stroke:#000000; stroke-linecap:round; stroke-linejoin:round; stroke-width:4; stroke-opacity:1; fill:none" points="1019.09,725.615 980.978,580.978 "/>
<polyline clip-path="url(#clip552)" style="stroke:#000000; stroke-linecap:round; stroke-linejoin:round; stroke-width:4; stroke-opacity:1; fill:none" points="1019.09,725.615 1136.18,736.176 "/>
<polyline clip-path="url(#clip552)" style="stroke:#000000; stroke-linecap:round; stroke-linejoin:round; stroke-width:4; stroke-opacity:1; fill:none" points="980.978,580.978 918.072,461.136 "/>
<polyline clip-path="url(#clip552)" style="stroke:#000000; stroke-linecap:round; stroke-linejoin:round; stroke-width:4; stroke-opacity:1; fill:none" points="980.978,580.978 1125.62,619.089 "/>
<polyline clip-path="url(#clip552)" style="stroke:#000000; stroke-linecap:round; stroke-linejoin:round; stroke-width:4; stroke-opacity:1; fill:none" points="918.072,461.136 1110.92,540.112 "/>
<polyline clip-path="url(#clip552)" style="stroke:#000000; stroke-linecap:round; stroke-linejoin:round; stroke-width:4; stroke-opacity:1; fill:none" points="1110.92,1059.89 1125.62,980.911 "/>
<polyline clip-path="url(#clip552)" style="stroke:#000000; stroke-linecap:round; stroke-linejoin:round; stroke-width:4; stroke-opacity:1; fill:none" points="1110.92,1059.89 1289.08,1059.89 "/>
<polyline clip-path="url(#clip552)" style="stroke:#000000; stroke-linecap:round; stroke-linejoin:round; stroke-width:4; stroke-opacity:1; fill:none" points="1125.62,980.911 1136.18,863.824 "/>
<polyline clip-path="url(#clip552)" style="stroke:#000000; stroke-linecap:round; stroke-linejoin:round; stroke-width:4; stroke-opacity:1; fill:none" points="1125.62,980.911 1274.38,980.911 "/>
<polyline clip-path="url(#clip552)" style="stroke:#000000; stroke-linecap:round; stroke-linejoin:round; stroke-width:4; stroke-opacity:1; fill:none" points="1136.18,863.824 1136.18,736.176 "/>
<polyline clip-path="url(#clip552)" style="stroke:#000000; stroke-linecap:round; stroke-linejoin:round; stroke-width:4; stroke-opacity:1; fill:none" points="1136.18,863.824 1263.82,863.824 "/>
<polyline clip-path="url(#clip552)" style="stroke:#000000; stroke-linecap:round; stroke-linejoin:round; stroke-width:4; stroke-opacity:1; fill:none" points="1136.18,736.176 1125.62,619.089 "/>
<polyline clip-path="url(#clip552)" style="stroke:#000000; stroke-linecap:round; stroke-linejoin:round; stroke-width:4; stroke-opacity:1; fill:none" points="1136.18,736.176 1263.82,736.176 "/>
<polyline clip-path="url(#clip552)" style="stroke:#000000; stroke-linecap:round; stroke-linejoin:round; stroke-width:4; stroke-opacity:1; fill:none" points="1125.62,619.089 1110.92,540.112 "/>
<polyline clip-path="url(#clip552)" style="stroke:#000000; stroke-linecap:round; stroke-linejoin:round; stroke-width:4; stroke-opacity:1; fill:none" points="1125.62,619.089 1274.38,619.089 "/>
<polyline clip-path="url(#clip552)" style="stroke:#000000; stroke-linecap:round; stroke-linejoin:round; stroke-width:4; stroke-opacity:1; fill:none" points="1110.92,540.112 1289.08,540.112 "/>
<polyline clip-path="url(#clip552)" style="stroke:#000000; stroke-linecap:round; stroke-linejoin:round; stroke-width:4; stroke-opacity:1; fill:none" points="1289.08,1059.89 1274.38,980.911 "/>
<polyline clip-path="url(#clip552)" style="stroke:#000000; stroke-linecap:round; stroke-linejoin:round; stroke-width:4; stroke-opacity:1; fill:none" points="1289.08,1059.89 1481.93,1138.86 "/>
<polyline clip-path="url(#clip552)" style="stroke:#000000; stroke-linecap:round; stroke-linejoin:round; stroke-width:4; stroke-opacity:1; fill:none" points="1274.38,980.911 1263.82,863.824 "/>
<polyline clip-path="url(#clip552)" style="stroke:#000000; stroke-linecap:round; stroke-linejoin:round; stroke-width:4; stroke-opacity:1; fill:none" points="1274.38,980.911 1419.02,1019.02 "/>
<polyline clip-path="url(#clip552)" style="stroke:#000000; stroke-linecap:round; stroke-linejoin:round; stroke-width:4; stroke-opacity:1; fill:none" points="1263.82,863.824 1263.82,736.176 "/>
<polyline clip-path="url(#clip552)" style="stroke:#000000; stroke-linecap:round; stroke-linejoin:round; stroke-width:4; stroke-opacity:1; fill:none" points="1263.82,863.824 1380.91,874.385 "/>
<polyline clip-path="url(#clip552)" style="stroke:#000000; stroke-linecap:round; stroke-linejoin:round; stroke-width:4; stroke-opacity:1; fill:none" points="1263.82,736.176 1274.38,619.089 "/>
<polyline clip-path="url(#clip552)" style="stroke:#000000; stroke-linecap:round; stroke-linejoin:round; stroke-width:4; stroke-opacity:1; fill:none" points="1263.82,736.176 1380.91,725.615 "/>
<polyline clip-path="url(#clip552)" style="stroke:#000000; stroke-linecap:round; stroke-linejoin:round; stroke-width:4; stroke-opacity:1; fill:none" points="1274.38,619.089 1289.08,540.112 "/>
<polyline clip-path="url(#clip552)" style="stroke:#000000; stroke-linecap:round; stroke-linejoin:round; stroke-width:4; stroke-opacity:1; fill:none" points="1274.38,619.089 1419.02,580.978 "/>
<polyline clip-path="url(#clip552)" style="stroke:#000000; stroke-linecap:round; stroke-linejoin:round; stroke-width:4; stroke-opacity:1; fill:none" points="1289.08,540.112 1481.93,461.136 "/>
<polyline clip-path="url(#clip552)" style="stroke:#000000; stroke-linecap:round; stroke-linejoin:round; stroke-width:4; stroke-opacity:1; fill:none" points="1481.93,1138.86 1419.02,1019.02 "/>
<polyline clip-path="url(#clip552)" style="stroke:#000000; stroke-linecap:round; stroke-linejoin:round; stroke-width:4; stroke-opacity:1; fill:none" points="1481.93,1138.86 1737.68,1337.68 "/>
<polyline clip-path="url(#clip552)" style="stroke:#000000; stroke-linecap:round; stroke-linejoin:round; stroke-width:4; stroke-opacity:1; fill:none" points="1419.02,1019.02 1380.91,874.385 "/>
<polyline clip-path="url(#clip552)" style="stroke:#000000; stroke-linecap:round; stroke-linejoin:round; stroke-width:4; stroke-opacity:1; fill:none" points="1419.02,1019.02 1538.86,1081.93 "/>
<polyline clip-path="url(#clip552)" style="stroke:#000000; stroke-linecap:round; stroke-linejoin:round; stroke-width:4; stroke-opacity:1; fill:none" points="1380.91,874.385 1380.91,725.615 "/>
<polyline clip-path="url(#clip552)" style="stroke:#000000; stroke-linecap:round; stroke-linejoin:round; stroke-width:4; stroke-opacity:1; fill:none" points="1380.91,874.385 1459.89,889.078 "/>
<polyline clip-path="url(#clip552)" style="stroke:#000000; stroke-linecap:round; stroke-linejoin:round; stroke-width:4; stroke-opacity:1; fill:none" points="1380.91,725.615 1419.02,580.978 "/>
<polyline clip-path="url(#clip552)" style="stroke:#000000; stroke-linecap:round; stroke-linejoin:round; stroke-width:4; stroke-opacity:1; fill:none" points="1380.91,725.615 1459.89,710.922 "/>
<polyline clip-path="url(#clip552)" style="stroke:#000000; stroke-linecap:round; stroke-linejoin:round; stroke-width:4; stroke-opacity:1; fill:none" points="1419.02,580.978 1481.93,461.136 "/>
<polyline clip-path="url(#clip552)" style="stroke:#000000; stroke-linecap:round; stroke-linejoin:round; stroke-width:4; stroke-opacity:1; fill:none" points="1419.02,580.978 1538.86,518.072 "/>
<polyline clip-path="url(#clip552)" style="stroke:#000000; stroke-linecap:round; stroke-linejoin:round; stroke-width:4; stroke-opacity:1; fill:none" points="1481.93,461.136 1737.68,262.317 "/>
<polyline clip-path="url(#clip552)" style="stroke:#000000; stroke-linecap:round; stroke-linejoin:round; stroke-width:4; stroke-opacity:1; fill:none" points="1737.68,1337.68 1538.86,1081.93 "/>
<polyline clip-path="url(#clip552)" style="stroke:#000000; stroke-linecap:round; stroke-linejoin:round; stroke-width:4; stroke-opacity:1; fill:none" points="1538.86,1081.93 1459.89,889.078 "/>
<polyline clip-path="url(#clip552)" style="stroke:#000000; stroke-linecap:round; stroke-linejoin:round; stroke-width:4; stroke-opacity:1; fill:none" points="1459.89,889.078 1459.89,710.922 "/>
<polyline clip-path="url(#clip552)" style="stroke:#000000; stroke-linecap:round; stroke-linejoin:round; stroke-width:4; stroke-opacity:1; fill:none" points="1459.89,710.922 1538.86,518.072 "/>
<polyline clip-path="url(#clip552)" style="stroke:#000000; stroke-linecap:round; stroke-linejoin:round; stroke-width:4; stroke-opacity:1; fill:none" points="1538.86,518.072 1737.68,262.317 "/>
<path clip-path="url(#clip552)" d="M676.058 1337.68 L669.188 1325.78 L655.447 1325.78 L648.576 1337.68 L655.447 1349.58 L669.188 1349.58 L676.058 1337.68 L676.058 1337.68  Z" fill="#009af9" fill-rule="evenodd" fill-opacity="1"/>
<polyline clip-path="url(#clip552)" style="stroke:#000000; stroke-linecap:round; stroke-linejoin:round; stroke-width:4; stroke-opacity:1; fill:none" points="676.058,1337.68 669.188,1325.78 655.447,1325.78 648.576,1337.68 655.447,1349.58 669.188,1349.58 676.058,1337.68 "/>
<path clip-path="url(#clip552)" d="M874.877 1081.93 L868.006 1070.03 L854.265 1070.03 L847.395 1081.93 L854.265 1093.83 L868.006 1093.83 L874.877 1081.93 L874.877 1081.93  Z" fill="#009af9" fill-rule="evenodd" fill-opacity="1"/>
<polyline clip-path="url(#clip552)" style="stroke:#000000; stroke-linecap:round; stroke-linejoin:round; stroke-width:4; stroke-opacity:1; fill:none" points="874.877,1081.93 868.006,1070.03 854.265,1070.03 847.395,1081.93 854.265,1093.83 868.006,1093.83 874.877,1081.93 "/>
<path clip-path="url(#clip552)" d="M953.853 889.078 L946.983 877.178 L933.242 877.178 L926.372 889.078 L933.242 900.978 L946.983 900.978 L953.853 889.078 L953.853 889.078  Z" fill="#009af9" fill-rule="evenodd" fill-opacity="1"/>
<polyline clip-path="url(#clip552)" style="stroke:#000000; stroke-linecap:round; stroke-linejoin:round; stroke-width:4; stroke-opacity:1; fill:none" points="953.853,889.078 946.983,877.178 933.242,877.178 926.372,889.078 933.242,900.978 946.983,900.978 953.853,889.078 "/>
<path clip-path="url(#clip552)" d="M953.853 710.922 L946.983 699.022 L933.242 699.022 L926.372 710.922 L933.242 722.822 L946.983 722.822 L953.853 710.922 L953.853 710.922  Z" fill="#009af9" fill-rule="evenodd" fill-opacity="1"/>
<polyline clip-path="url(#clip552)" style="stroke:#000000; stroke-linecap:round; stroke-linejoin:round; stroke-width:4; stroke-opacity:1; fill:none" points="953.853,710.922 946.983,699.022 933.242,699.022 926.372,710.922 933.242,722.822 946.983,722.822 953.853,710.922 "/>
<path clip-path="url(#clip552)" d="M874.877 518.072 L868.006 506.173 L854.265 506.173 L847.395 518.072 L854.265 529.972 L868.006 529.972 L874.877 518.072 L874.877 518.072  Z" fill="#009af9" fill-rule="evenodd" fill-opacity="1"/>
<polyline clip-path="url(#clip552)" style="stroke:#000000; stroke-linecap:round; stroke-linejoin:round; stroke-width:4; stroke-opacity:1; fill:none" points="874.877,518.072 868.006,506.173 854.265,506.173 847.395,518.072 854.265,529.972 868.006,529.972 874.877,518.072 "/>
<path clip-path="url(#clip552)" d="M676.058 262.317 L669.188 250.417 L655.447 250.417 L648.576 262.317 L655.447 274.217 L669.188 274.217 L676.058 262.317 L676.058 262.317  Z" fill="#009af9" fill-rule="evenodd" fill-opacity="1"/>
<polyline clip-path="url(#clip552)" style="stroke:#000000; stroke-linecap:round; stroke-linejoin:round; stroke-width:4; stroke-opacity:1; fill:none" points="676.058,262.317 669.188,250.417 655.447,250.417 648.576,262.317 655.447,274.217 669.188,274.217 676.058,262.317 "/>
<path clip-path="url(#clip552)" d="M931.813 1138.86 L924.943 1126.96 L911.202 1126.96 L904.332 1138.86 L911.202 1150.76 L924.943 1150.76 L931.813 1138.86 L931.813 1138.86  Z" fill="#009af9" fill-rule="evenodd" fill-opacity="1"/>
<polyline clip-path="url(#clip552)" style="stroke:#000000; stroke-linecap:round; stroke-linejoin:round; stroke-width:4; stroke-opacity:1; fill:none" points="931.813,1138.86 924.943,1126.96 911.202,1126.96 904.332,1138.86 911.202,1150.76 924.943,1150.76 931.813,1138.86 "/>
<path clip-path="url(#clip552)" d="M994.719 1019.02 L987.848 1007.12 L974.108 1007.12 L967.237 1019.02 L974.108 1030.92 L987.848 1030.92 L994.719 1019.02 L994.719 1019.02  Z" fill="#009af9" fill-rule="evenodd" fill-opacity="1"/>
<polyline clip-path="url(#clip552)" style="stroke:#000000; stroke-linecap:round; stroke-linejoin:round; stroke-width:4; stroke-opacity:1; fill:none" points="994.719,1019.02 987.848,1007.12 974.108,1007.12 967.237,1019.02 974.108,1030.92 987.848,1030.92 994.719,1019.02 "/>
<path clip-path="url(#clip552)" d="M1032.83 874.385 L1025.96 862.485 L1012.22 862.485 L1005.35 874.385 L1012.22 886.285 L1025.96 886.285 L1032.83 874.385 L1032.83 874.385  Z" fill="#009af9" fill-rule="evenodd" fill-opacity="1"/>
<polyline clip-path="url(#clip552)" style="stroke:#000000; stroke-linecap:round; stroke-linejoin:round; stroke-width:4; stroke-opacity:1; fill:none" points="1032.83,874.385 1025.96,862.485 1012.22,862.485 1005.35,874.385 1012.22,886.285 1025.96,886.285 1032.83,874.385 "/>
<path clip-path="url(#clip552)" d="M1032.83 725.615 L1025.96 713.715 L1012.22 713.715 L1005.35 725.615 L1012.22 737.515 L1025.96 737.515 L1032.83 725.615 L1032.83 725.615  Z" fill="#009af9" fill-rule="evenodd" fill-opacity="1"/>
<polyline clip-path="url(#clip552)" style="stroke:#000000; stroke-linecap:round; stroke-linejoin:round; stroke-width:4; stroke-opacity:1; fill:none" points="1032.83,725.615 1025.96,713.715 1012.22,713.715 1005.35,725.615 1012.22,737.515 1025.96,737.515 1032.83,725.615 "/>
<path clip-path="url(#clip552)" d="M994.719 580.978 L987.848 569.078 L974.108 569.078 L967.237 580.978 L974.108 592.878 L987.848 592.878 L994.719 580.978 L994.719 580.978  Z" fill="#009af9" fill-rule="evenodd" fill-opacity="1"/>
<polyline clip-path="url(#clip552)" style="stroke:#000000; stroke-linecap:round; stroke-linejoin:round; stroke-width:4; stroke-opacity:1; fill:none" points="994.719,580.978 987.848,569.078 974.108,569.078 967.237,580.978 974.108,592.878 987.848,592.878 994.719,580.978 "/>
<path clip-path="url(#clip552)" d="M931.813 461.136 L924.943 449.236 L911.202 449.236 L904.332 461.136 L911.202 473.036 L924.943 473.036 L931.813 461.136 L931.813 461.136  Z" fill="#009af9" fill-rule="evenodd" fill-opacity="1"/>
<polyline clip-path="url(#clip552)" style="stroke:#000000; stroke-linecap:round; stroke-linejoin:round; stroke-width:4; stroke-opacity:1; fill:none" points="931.813,461.136 924.943,449.236 911.202,449.236 904.332,461.136 911.202,473.036 924.943,473.036 931.813,461.136 "/>
<path clip-path="url(#clip552)" d="M1124.66 1059.89 L1117.79 1047.99 L1104.05 1047.99 L1097.18 1059.89 L1104.05 1071.79 L1117.79 1071.79 L1124.66 1059.89 L1124.66 1059.89  Z" fill="#009af9" fill-rule="evenodd" fill-opacity="1"/>
<polyline clip-path="url(#clip552)" style="stroke:#000000; stroke-linecap:round; stroke-linejoin:round; stroke-width:4; stroke-opacity:1; fill:none" points="1124.66,1059.89 1117.79,1047.99 1104.05,1047.99 1097.18,1059.89 1104.05,1071.79 1117.79,1071.79 1124.66,1059.89 "/>
<path clip-path="url(#clip552)" d="M1139.36 980.911 L1132.49 969.011 L1118.74 969.011 L1111.87 980.911 L1118.74 992.811 L1132.49 992.811 L1139.36 980.911 L1139.36 980.911  Z" fill="#009af9" fill-rule="evenodd" fill-opacity="1"/>
<polyline clip-path="url(#clip552)" style="stroke:#000000; stroke-linecap:round; stroke-linejoin:round; stroke-width:4; stroke-opacity:1; fill:none" points="1139.36,980.911 1132.49,969.011 1118.74,969.011 1111.87,980.911 1118.74,992.811 1132.49,992.811 1139.36,980.911 "/>
<path clip-path="url(#clip552)" d="M1149.92 863.824 L1143.05 851.924 L1129.31 851.924 L1122.44 863.824 L1129.31 875.724 L1143.05 875.724 L1149.92 863.824 L1149.92 863.824  Z" fill="#009af9" fill-rule="evenodd" fill-opacity="1"/>
<polyline clip-path="url(#clip552)" style="stroke:#000000; stroke-linecap:round; stroke-linejoin:round; stroke-width:4; stroke-opacity:1; fill:none" points="1149.92,863.824 1143.05,851.924 1129.31,851.924 1122.44,863.824 1129.31,875.724 1143.05,875.724 1149.92,863.824 "/>
<path clip-path="url(#clip552)" d="M1149.92 736.176 L1143.05 724.276 L1129.31 724.276 L1122.44 736.176 L1129.31 748.076 L1143.05 748.076 L1149.92 736.176 L1149.92 736.176  Z" fill="#009af9" fill-rule="evenodd" fill-opacity="1"/>
<polyline clip-path="url(#clip552)" style="stroke:#000000; stroke-linecap:round; stroke-linejoin:round; stroke-width:4; stroke-opacity:1; fill:none" points="1149.92,736.176 1143.05,724.276 1129.31,724.276 1122.44,736.176 1129.31,748.076 1143.05,748.076 1149.92,736.176 "/>
<path clip-path="url(#clip552)" d="M1139.36 619.089 L1132.49 607.189 L1118.74 607.189 L1111.87 619.089 L1118.74 630.989 L1132.49 630.989 L1139.36 619.089 L1139.36 619.089  Z" fill="#009af9" fill-rule="evenodd" fill-opacity="1"/>
<polyline clip-path="url(#clip552)" style="stroke:#000000; stroke-linecap:round; stroke-linejoin:round; stroke-width:4; stroke-opacity:1; fill:none" points="1139.36,619.089 1132.49,607.189 1118.74,607.189 1111.87,619.089 1118.74,630.989 1132.49,630.989 1139.36,619.089 "/>
<path clip-path="url(#clip552)" d="M1124.66 540.112 L1117.79 528.212 L1104.05 528.212 L1097.18 540.112 L1104.05 552.012 L1117.79 552.012 L1124.66 540.112 L1124.66 540.112  Z" fill="#009af9" fill-rule="evenodd" fill-opacity="1"/>
<polyline clip-path="url(#clip552)" style="stroke:#000000; stroke-linecap:round; stroke-linejoin:round; stroke-width:4; stroke-opacity:1; fill:none" points="1124.66,540.112 1117.79,528.212 1104.05,528.212 1097.18,540.112 1104.05,552.012 1117.79,552.012 1124.66,540.112 "/>
<path clip-path="url(#clip552)" d="M1302.82 1059.89 L1295.95 1047.99 L1282.21 1047.99 L1275.34 1059.89 L1282.21 1071.79 L1295.95 1071.79 L1302.82 1059.89 L1302.82 1059.89  Z" fill="#009af9" fill-rule="evenodd" fill-opacity="1"/>
<polyline clip-path="url(#clip552)" style="stroke:#000000; stroke-linecap:round; stroke-linejoin:round; stroke-width:4; stroke-opacity:1; fill:none" points="1302.82,1059.89 1295.95,1047.99 1282.21,1047.99 1275.34,1059.89 1282.21,1071.79 1295.95,1071.79 1302.82,1059.89 "/>
<path clip-path="url(#clip552)" d="M1288.13 980.911 L1281.26 969.011 L1267.51 969.011 L1260.64 980.911 L1267.51 992.811 L1281.26 992.811 L1288.13 980.911 L1288.13 980.911  Z" fill="#009af9" fill-rule="evenodd" fill-opacity="1"/>
<polyline clip-path="url(#clip552)" style="stroke:#000000; stroke-linecap:round; stroke-linejoin:round; stroke-width:4; stroke-opacity:1; fill:none" points="1288.13,980.911 1281.26,969.011 1267.51,969.011 1260.64,980.911 1267.51,992.811 1281.26,992.811 1288.13,980.911 "/>
<path clip-path="url(#clip552)" d="M1277.56 863.824 L1270.69 851.924 L1256.95 851.924 L1250.08 863.824 L1256.95 875.724 L1270.69 875.724 L1277.56 863.824 L1277.56 863.824  Z" fill="#009af9" fill-rule="evenodd" fill-opacity="1"/>
<polyline clip-path="url(#clip552)" style="stroke:#000000; stroke-linecap:round; stroke-linejoin:round; stroke-width:4; stroke-opacity:1; fill:none" points="1277.56,863.824 1270.69,851.924 1256.95,851.924 1250.08,863.824 1256.95,875.724 1270.69,875.724 1277.56,863.824 "/>
<path clip-path="url(#clip552)" d="M1277.56 736.176 L1270.69 724.276 L1256.95 724.276 L1250.08 736.176 L1256.95 748.076 L1270.69 748.076 L1277.56 736.176 L1277.56 736.176  Z" fill="#009af9" fill-rule="evenodd" fill-opacity="1"/>
<polyline clip-path="url(#clip552)" style="stroke:#000000; stroke-linecap:round; stroke-linejoin:round; stroke-width:4; stroke-opacity:1; fill:none" points="1277.56,736.176 1270.69,724.276 1256.95,724.276 1250.08,736.176 1256.95,748.076 1270.69,748.076 1277.56,736.176 "/>
<path clip-path="url(#clip552)" d="M1288.13 619.089 L1281.26 607.189 L1267.51 607.189 L1260.64 619.089 L1267.51 630.989 L1281.26 630.989 L1288.13 619.089 L1288.13 619.089  Z" fill="#009af9" fill-rule="evenodd" fill-opacity="1"/>
<polyline clip-path="url(#clip552)" style="stroke:#000000; stroke-linecap:round; stroke-linejoin:round; stroke-width:4; stroke-opacity:1; fill:none" points="1288.13,619.089 1281.26,607.189 1267.51,607.189 1260.64,619.089 1267.51,630.989 1281.26,630.989 1288.13,619.089 "/>
<path clip-path="url(#clip552)" d="M1302.82 540.112 L1295.95 528.212 L1282.21 528.212 L1275.34 540.112 L1282.21 552.012 L1295.95 552.012 L1302.82 540.112 L1302.82 540.112  Z" fill="#009af9" fill-rule="evenodd" fill-opacity="1"/>
<polyline clip-path="url(#clip552)" style="stroke:#000000; stroke-linecap:round; stroke-linejoin:round; stroke-width:4; stroke-opacity:1; fill:none" points="1302.82,540.112 1295.95,528.212 1282.21,528.212 1275.34,540.112 1282.21,552.012 1295.95,552.012 1302.82,540.112 "/>
<path clip-path="url(#clip552)" d="M1495.67 1138.86 L1488.8 1126.96 L1475.06 1126.96 L1468.19 1138.86 L1475.06 1150.76 L1488.8 1150.76 L1495.67 1138.86 L1495.67 1138.86  Z" fill="#009af9" fill-rule="evenodd" fill-opacity="1"/>
<polyline clip-path="url(#clip552)" style="stroke:#000000; stroke-linecap:round; stroke-linejoin:round; stroke-width:4; stroke-opacity:1; fill:none" points="1495.67,1138.86 1488.8,1126.96 1475.06,1126.96 1468.19,1138.86 1475.06,1150.76 1488.8,1150.76 1495.67,1138.86 "/>
<path clip-path="url(#clip552)" d="M1432.76 1019.02 L1425.89 1007.12 L1412.15 1007.12 L1405.28 1019.02 L1412.15 1030.92 L1425.89 1030.92 L1432.76 1019.02 L1432.76 1019.02  Z" fill="#009af9" fill-rule="evenodd" fill-opacity="1"/>
<polyline clip-path="url(#clip552)" style="stroke:#000000; stroke-linecap:round; stroke-linejoin:round; stroke-width:4; stroke-opacity:1; fill:none" points="1432.76,1019.02 1425.89,1007.12 1412.15,1007.12 1405.28,1019.02 1412.15,1030.92 1425.89,1030.92 1432.76,1019.02 "/>
<path clip-path="url(#clip552)" d="M1394.65 874.385 L1387.78 862.485 L1374.04 862.485 L1367.17 874.385 L1374.04 886.285 L1387.78 886.285 L1394.65 874.385 L1394.65 874.385  Z" fill="#009af9" fill-rule="evenodd" fill-opacity="1"/>
<polyline clip-path="url(#clip552)" style="stroke:#000000; stroke-linecap:round; stroke-linejoin:round; stroke-width:4; stroke-opacity:1; fill:none" points="1394.65,874.385 1387.78,862.485 1374.04,862.485 1367.17,874.385 1374.04,886.285 1387.78,886.285 1394.65,874.385 "/>
<path clip-path="url(#clip552)" d="M1394.65 725.615 L1387.78 713.715 L1374.04 713.715 L1367.17 725.615 L1374.04 737.515 L1387.78 737.515 L1394.65 725.615 L1394.65 725.615  Z" fill="#009af9" fill-rule="evenodd" fill-opacity="1"/>
<polyline clip-path="url(#clip552)" style="stroke:#000000; stroke-linecap:round; stroke-linejoin:round; stroke-width:4; stroke-opacity:1; fill:none" points="1394.65,725.615 1387.78,713.715 1374.04,713.715 1367.17,725.615 1374.04,737.515 1387.78,737.515 1394.65,725.615 "/>
<path clip-path="url(#clip552)" d="M1432.76 580.978 L1425.89 569.078 L1412.15 569.078 L1405.28 580.978 L1412.15 592.878 L1425.89 592.878 L1432.76 580.978 L1432.76 580.978  Z" fill="#009af9" fill-rule="evenodd" fill-opacity="1"/>
<polyline clip-path="url(#clip552)" style="stroke:#000000; stroke-linecap:round; stroke-linejoin:round; stroke-width:4; stroke-opacity:1; fill:none" points="1432.76,580.978 1425.89,569.078 1412.15,569.078 1405.28,580.978 1412.15,592.878 1425.89,592.878 1432.76,580.978 "/>
<path clip-path="url(#clip552)" d="M1495.67 461.136 L1488.8 449.236 L1475.06 449.236 L1468.19 461.136 L1475.06 473.036 L1488.8 473.036 L1495.67 461.136 L1495.67 461.136  Z" fill="#009af9" fill-rule="evenodd" fill-opacity="1"/>
<polyline clip-path="url(#clip552)" style="stroke:#000000; stroke-linecap:round; stroke-linejoin:round; stroke-width:4; stroke-opacity:1; fill:none" points="1495.67,461.136 1488.8,449.236 1475.06,449.236 1468.19,461.136 1475.06,473.036 1488.8,473.036 1495.67,461.136 "/>
<path clip-path="url(#clip552)" d="M1751.42 1337.68 L1744.55 1325.78 L1730.81 1325.78 L1723.94 1337.68 L1730.81 1349.58 L1744.55 1349.58 L1751.42 1337.68 L1751.42 1337.68  Z" fill="#009af9" fill-rule="evenodd" fill-opacity="1"/>
<polyline clip-path="url(#clip552)" style="stroke:#000000; stroke-linecap:round; stroke-linejoin:round; stroke-width:4; stroke-opacity:1; fill:none" points="1751.42,1337.68 1744.55,1325.78 1730.81,1325.78 1723.94,1337.68 1730.81,1349.58 1744.55,1349.58 1751.42,1337.68 "/>
<path clip-path="url(#clip552)" d="M1552.6 1081.93 L1545.73 1070.03 L1531.99 1070.03 L1525.12 1081.93 L1531.99 1093.83 L1545.73 1093.83 L1552.6 1081.93 L1552.6 1081.93  Z" fill="#009af9" fill-rule="evenodd" fill-opacity="1"/>
<polyline clip-path="url(#clip552)" style="stroke:#000000; stroke-linecap:round; stroke-linejoin:round; stroke-width:4; stroke-opacity:1; fill:none" points="1552.6,1081.93 1545.73,1070.03 1531.99,1070.03 1525.12,1081.93 1531.99,1093.83 1545.73,1093.83 1552.6,1081.93 "/>
<path clip-path="url(#clip552)" d="M1473.63 889.078 L1466.76 877.178 L1453.02 877.178 L1446.15 889.078 L1453.02 900.978 L1466.76 900.978 L1473.63 889.078 L1473.63 889.078  Z" fill="#009af9" fill-rule="evenodd" fill-opacity="1"/>
<polyline clip-path="url(#clip552)" style="stroke:#000000; stroke-linecap:round; stroke-linejoin:round; stroke-width:4; stroke-opacity:1; fill:none" points="1473.63,889.078 1466.76,877.178 1453.02,877.178 1446.15,889.078 1453.02,900.978 1466.76,900.978 1473.63,889.078 "/>
<path clip-path="url(#clip552)" d="M1473.63 710.922 L1466.76 699.022 L1453.02 699.022 L1446.15 710.922 L1453.02 722.822 L1466.76 722.822 L1473.63 710.922 L1473.63 710.922  Z" fill="#009af9" fill-rule="evenodd" fill-opacity="1"/>
<polyline clip-path="url(#clip552)" style="stroke:#000000; stroke-linecap:round; stroke-linejoin:round; stroke-width:4; stroke-opacity:1; fill:none" points="1473.63,710.922 1466.76,699.022 1453.02,699.022 1446.15,710.922 1453.02,722.822 1466.76,722.822 1473.63,710.922 "/>
<path clip-path="url(#clip552)" d="M1552.6 518.072 L1545.73 506.173 L1531.99 506.173 L1525.12 518.072 L1531.99 529.972 L1545.73 529.972 L1552.6 518.072 L1552.6 518.072  Z" fill="#009af9" fill-rule="evenodd" fill-opacity="1"/>
<polyline clip-path="url(#clip552)" style="stroke:#000000; stroke-linecap:round; stroke-linejoin:round; stroke-width:4; stroke-opacity:1; fill:none" points="1552.6,518.072 1545.73,506.173 1531.99,506.173 1525.12,518.072 1531.99,529.972 1545.73,529.972 1552.6,518.072 "/>
<path clip-path="url(#clip552)" d="M1751.42 262.317 L1744.55 250.417 L1730.81 250.417 L1723.94 262.317 L1730.81 274.217 L1744.55 274.217 L1751.42 262.317 L1751.42 262.317  Z" fill="#009af9" fill-rule="evenodd" fill-opacity="1"/>
<polyline clip-path="url(#clip552)" style="stroke:#000000; stroke-linecap:round; stroke-linejoin:round; stroke-width:4; stroke-opacity:1; fill:none" points="1751.42,262.317 1744.55,250.417 1730.81,250.417 1723.94,262.317 1730.81,274.217 1744.55,274.217 1751.42,262.317 "/>
<path clip-path="url(#clip552)" d="M662.317 1338.08 L661.971 1337.88 L661.971 1337.48 L662.317 1337.28 L662.664 1337.48 L662.664 1337.88 Z" fill="#009af9" fill-rule="evenodd" fill-opacity="1" stroke="#000000" stroke-opacity="1" stroke-width="3.2"/>
<path clip-path="url(#clip552)" d="M861.136 1082.33 L860.789 1082.13 L860.789 1081.73 L861.136 1081.53 L861.482 1081.73 L861.482 1082.13 Z" fill="#009af9" fill-rule="evenodd" fill-opacity="1" stroke="#000000" stroke-opacity="1" stroke-width="3.2"/>
<path clip-path="url(#clip552)" d="M940.112 889.478 L939.766 889.278 L939.766 888.878 L940.112 888.678 L940.459 888.878 L940.459 889.278 Z" fill="#009af9" fill-rule="evenodd" fill-opacity="1" stroke="#000000" stroke-opacity="1" stroke-width="3.2"/>
<path clip-path="url(#clip552)" d="M940.112 711.322 L939.766 711.122 L939.766 710.722 L940.112 710.522 L940.459 710.722 L940.459 711.122 Z" fill="#009af9" fill-rule="evenodd" fill-opacity="1" stroke="#000000" stroke-opacity="1" stroke-width="3.2"/>
<path clip-path="url(#clip552)" d="M861.136 518.472 L860.789 518.272 L860.789 517.872 L861.136 517.672 L861.482 517.872 L861.482 518.272 Z" fill="#009af9" fill-rule="evenodd" fill-opacity="1" stroke="#000000" stroke-opacity="1" stroke-width="3.2"/>
<path clip-path="url(#clip552)" d="M662.317 262.717 L661.971 262.517 L661.971 262.117 L662.317 261.917 L662.664 262.117 L662.664 262.517 Z" fill="#009af9" fill-rule="evenodd" fill-opacity="1" stroke="#000000" stroke-opacity="1" stroke-width="3.2"/>
<path clip-path="url(#clip552)" d="M918.072 1139.26 L917.726 1139.06 L917.726 1138.66 L918.072 1138.46 L918.419 1138.66 L918.419 1139.06 Z" fill="#009af9" fill-rule="evenodd" fill-opacity="1" stroke="#000000" stroke-opacity="1" stroke-width="3.2"/>
<path clip-path="url(#clip552)" d="M980.978 1019.42 L980.632 1019.22 L980.632 1018.82 L980.978 1018.62 L981.324 1018.82 L981.324 1019.22 Z" fill="#009af9" fill-rule="evenodd" fill-opacity="1" stroke="#000000" stroke-opacity="1" stroke-width="3.2"/>
<path clip-path="url(#clip552)" d="M1019.09 874.785 L1018.74 874.585 L1018.74 874.185 L1019.09 873.985 L1019.44 874.185 L1019.44 874.585 Z" fill="#009af9" fill-rule="evenodd" fill-opacity="1" stroke="#000000" stroke-opacity="1" stroke-width="3.2"/>
<path clip-path="url(#clip552)" d="M1019.09 726.015 L1018.74 725.815 L1018.74 725.415 L1019.09 725.215 L1019.44 725.415 L1019.44 725.815 Z" fill="#009af9" fill-rule="evenodd" fill-opacity="1" stroke="#000000" stroke-opacity="1" stroke-width="3.2"/>
<path clip-path="url(#clip552)" d="M980.978 581.378 L980.632 581.178 L980.632 580.778 L980.978 580.578 L981.324 580.778 L981.324 581.178 Z" fill="#009af9" fill-rule="evenodd" fill-opacity="1" stroke="#000000" stroke-opacity="1" stroke-width="3.2"/>
<path clip-path="url(#clip552)" d="M918.072 461.536 L917.726 461.336 L917.726 460.936 L918.072 460.736 L918.419 460.936 L918.419 461.336 Z" fill="#009af9" fill-rule="evenodd" fill-opacity="1" stroke="#000000" stroke-opacity="1" stroke-width="3.2"/>
<path clip-path="url(#clip552)" d="M1110.92 1060.29 L1110.58 1060.09 L1110.58 1059.69 L1110.92 1059.49 L1111.27 1059.69 L1111.27 1060.09 Z" fill="#009af9" fill-rule="evenodd" fill-opacity="1" stroke="#000000" stroke-opacity="1" stroke-width="3.2"/>
<path clip-path="url(#clip552)" d="M1125.62 981.311 L1125.27 981.111 L1125.27 980.711 L1125.62 980.511 L1125.96 980.711 L1125.96 981.111 Z" fill="#009af9" fill-rule="evenodd" fill-opacity="1" stroke="#000000" stroke-opacity="1" stroke-width="3.2"/>
<path clip-path="url(#clip552)" d="M1136.18 864.224 L1135.83 864.024 L1135.83 863.624 L1136.18 863.424 L1136.52 863.624 L1136.52 864.024 Z" fill="#009af9" fill-rule="evenodd" fill-opacity="1" stroke="#000000" stroke-opacity="1" stroke-width="3.2"/>
<path clip-path="url(#clip552)" d="M1136.18 736.576 L1135.83 736.376 L1135.83 735.976 L1136.18 735.776 L1136.52 735.976 L1136.52 736.376 Z" fill="#009af9" fill-rule="evenodd" fill-opacity="1" stroke="#000000" stroke-opacity="1" stroke-width="3.2"/>
<path clip-path="url(#clip552)" d="M1125.62 619.489 L1125.27 619.289 L1125.27 618.889 L1125.62 618.689 L1125.96 618.889 L1125.96 619.289 Z" fill="#009af9" fill-rule="evenodd" fill-opacity="1" stroke="#000000" stroke-opacity="1" stroke-width="3.2"/>
<path clip-path="url(#clip552)" d="M1110.92 540.512 L1110.58 540.312 L1110.58 539.912 L1110.92 539.712 L1111.27 539.912 L1111.27 540.312 Z" fill="#009af9" fill-rule="evenodd" fill-opacity="1" stroke="#000000" stroke-opacity="1" stroke-width="3.2"/>
<path clip-path="url(#clip552)" d="M1289.08 1060.29 L1288.73 1060.09 L1288.73 1059.69 L1289.08 1059.49 L1289.42 1059.69 L1289.42 1060.09 Z" fill="#009af9" fill-rule="evenodd" fill-opacity="1" stroke="#000000" stroke-opacity="1" stroke-width="3.2"/>
<path clip-path="url(#clip552)" d="M1274.38 981.311 L1274.04 981.111 L1274.04 980.711 L1274.38 980.511 L1274.73 980.711 L1274.73 981.111 Z" fill="#009af9" fill-rule="evenodd" fill-opacity="1" stroke="#000000" stroke-opacity="1" stroke-width="3.2"/>
<path clip-path="url(#clip552)" d="M1263.82 864.224 L1263.48 864.024 L1263.48 863.624 L1263.82 863.424 L1264.17 863.624 L1264.17 864.024 Z" fill="#009af9" fill-rule="evenodd" fill-opacity="1" stroke="#000000" stroke-opacity="1" stroke-width="3.2"/>
<path clip-path="url(#clip552)" d="M1263.82 736.576 L1263.48 736.376 L1263.48 735.976 L1263.82 735.776 L1264.17 735.976 L1264.17 736.376 Z" fill="#009af9" fill-rule="evenodd" fill-opacity="1" stroke="#000000" stroke-opacity="1" stroke-width="3.2"/>
<path clip-path="url(#clip552)" d="M1274.38 619.489 L1274.04 619.289 L1274.04 618.889 L1274.38 618.689 L1274.73 618.889 L1274.73 619.289 Z" fill="#009af9" fill-rule="evenodd" fill-opacity="1" stroke="#000000" stroke-opacity="1" stroke-width="3.2"/>
<path clip-path="url(#clip552)" d="M1289.08 540.512 L1288.73 540.312 L1288.73 539.912 L1289.08 539.712 L1289.42 539.912 L1289.42 540.312 Z" fill="#009af9" fill-rule="evenodd" fill-opacity="1" stroke="#000000" stroke-opacity="1" stroke-width="3.2"/>
<path clip-path="url(#clip552)" d="M1481.93 1139.26 L1481.58 1139.06 L1481.58 1138.66 L1481.93 1138.46 L1482.27 1138.66 L1482.27 1139.06 Z" fill="#009af9" fill-rule="evenodd" fill-opacity="1" stroke="#000000" stroke-opacity="1" stroke-width="3.2"/>
<path clip-path="url(#clip552)" d="M1419.02 1019.42 L1418.68 1019.22 L1418.68 1018.82 L1419.02 1018.62 L1419.37 1018.82 L1419.37 1019.22 Z" fill="#009af9" fill-rule="evenodd" fill-opacity="1" stroke="#000000" stroke-opacity="1" stroke-width="3.2"/>
<path clip-path="url(#clip552)" d="M1380.91 874.785 L1380.56 874.585 L1380.56 874.185 L1380.91 873.985 L1381.26 874.185 L1381.26 874.585 Z" fill="#009af9" fill-rule="evenodd" fill-opacity="1" stroke="#000000" stroke-opacity="1" stroke-width="3.2"/>
<path clip-path="url(#clip552)" d="M1380.91 726.015 L1380.56 725.815 L1380.56 725.415 L1380.91 725.215 L1381.26 725.415 L1381.26 725.815 Z" fill="#009af9" fill-rule="evenodd" fill-opacity="1" stroke="#000000" stroke-opacity="1" stroke-width="3.2"/>
<path clip-path="url(#clip552)" d="M1419.02 581.378 L1418.68 581.178 L1418.68 580.778 L1419.02 580.578 L1419.37 580.778 L1419.37 581.178 Z" fill="#009af9" fill-rule="evenodd" fill-opacity="1" stroke="#000000" stroke-opacity="1" stroke-width="3.2"/>
<path clip-path="url(#clip552)" d="M1481.93 461.536 L1481.58 461.336 L1481.58 460.936 L1481.93 460.736 L1482.27 460.936 L1482.27 461.336 Z" fill="#009af9" fill-rule="evenodd" fill-opacity="1" stroke="#000000" stroke-opacity="1" stroke-width="3.2"/>
<path clip-path="url(#clip552)" d="M1737.68 1338.08 L1737.34 1337.88 L1737.34 1337.48 L1737.68 1337.28 L1738.03 1337.48 L1738.03 1337.88 Z" fill="#009af9" fill-rule="evenodd" fill-opacity="1" stroke="#000000" stroke-opacity="1" stroke-width="3.2"/>
<path clip-path="url(#clip552)" d="M1538.86 1082.33 L1538.52 1082.13 L1538.52 1081.73 L1538.86 1081.53 L1539.21 1081.73 L1539.21 1082.13 Z" fill="#009af9" fill-rule="evenodd" fill-opacity="1" stroke="#000000" stroke-opacity="1" stroke-width="3.2"/>
<path clip-path="url(#clip552)" d="M1459.89 889.478 L1459.54 889.278 L1459.54 888.878 L1459.89 888.678 L1460.23 888.878 L1460.23 889.278 Z" fill="#009af9" fill-rule="evenodd" fill-opacity="1" stroke="#000000" stroke-opacity="1" stroke-width="3.2"/>
<path clip-path="url(#clip552)" d="M1459.89 711.322 L1459.54 711.122 L1459.54 710.722 L1459.89 710.522 L1460.23 710.722 L1460.23 711.122 Z" fill="#009af9" fill-rule="evenodd" fill-opacity="1" stroke="#000000" stroke-opacity="1" stroke-width="3.2"/>
<path clip-path="url(#clip552)" d="M1538.86 518.472 L1538.52 518.272 L1538.52 517.872 L1538.86 517.672 L1539.21 517.872 L1539.21 518.272 Z" fill="#009af9" fill-rule="evenodd" fill-opacity="1" stroke="#000000" stroke-opacity="1" stroke-width="3.2"/>
<path clip-path="url(#clip552)" d="M1737.68 262.717 L1737.34 262.517 L1737.34 262.117 L1737.68 261.917 L1738.03 262.117 L1738.03 262.517 Z" fill="#009af9" fill-rule="evenodd" fill-opacity="1" stroke="#000000" stroke-opacity="1" stroke-width="3.2"/>
</svg>
