<?xml version="1.0" encoding="utf-8"?>
<svg xmlns="http://www.w3.org/2000/svg" xmlns:xlink="http://www.w3.org/1999/xlink" width="600" height="400" viewBox="0 0 2400 1600">
<defs>
  <clipPath id="clip750">
    <rect x="0" y="0" width="2400" height="1600"/>
  </clipPath>
</defs>
<path clip-path="url(#clip750)" d="M0 1600 L2400 1600 L2400 0 L0 0  Z" fill="#ffffff" fill-rule="evenodd" fill-opacity="1"/>
<defs>
  <clipPath id="clip751">
    <rect x="480" y="0" width="1681" height="1600"/>
  </clipPath>
</defs>
<path clip-path="url(#clip750)" d="M186.274 1486.45 L2352.76 1486.45 L2352.76 47.2441 L186.274 47.2441  Z" fill="#ffffff" fill-rule="evenodd" fill-opacity="1"/>
<defs>
  <clipPath id="clip752">
    <rect x="186" y="47" width="2167" height="1440"/>
  </clipPath>
</defs>
<polyline clip-path="url(#clip752)" style="stroke:#000000; stroke-linecap:round; stroke-linejoin:round; stroke-width:2; stroke-opacity:0.1; fill:none" points="438.411,1486.45 438.411,47.2441 "/>
<polyline clip-path="url(#clip752)" style="stroke:#000000; stroke-linecap:round; stroke-linejoin:round; stroke-width:2; stroke-opacity:0.1; fill:none" points="770.853,1486.45 770.853,47.2441 "/>
<polyline clip-path="url(#clip752)" style="stroke:#000000; stroke-linecap:round; stroke-linejoin:round; stroke-width:2; stroke-opacity:0.1; fill:none" points="1103.29,1486.45 1103.29,47.2441 "/>
<polyline clip-path="url(#clip752)" style="stroke:#000000; stroke-linecap:round; stroke-linejoin:round; stroke-width:2; stroke-opacity:0.1; fill:none" points="1435.74,1486.45 1435.74,47.2441 "/>
<polyline clip-path="url(#clip752)" style="stroke:#000000; stroke-linecap:round; stroke-linejoin:round; stroke-width:2; stroke-opacity:0.1; fill:none" points="1768.18,1486.45 1768.18,47.2441 "/>
<polyline clip-path="url(#clip752)" style="stroke:#000000; stroke-linecap:round; stroke-linejoin:round; stroke-width:2; stroke-opacity:0.1; fill:none" points="2100.62,1486.45 2100.62,47.2441 "/>
<polyline clip-path="url(#clip750)" style="stroke:#000000; stroke-linecap:round; stroke-linejoin:round; stroke-width:4; stroke-opacity:1; fill:none" points="186.274,1486.45 2352.76,1486.45 "/>
<polyline clip-path="url(#clip750)" style="stroke:#000000; stroke-linecap:round; stroke-linejoin:round; stroke-width:4; stroke-opacity:1; fill:none" points="438.411,1486.45 438.411,1467.55 "/>
<polyline clip-path="url(#clip750)" style="stroke:#000000; stroke-linecap:round; stroke-linejoin:round; stroke-width:4; stroke-opacity:1; fill:none" points="770.853,1486.45 770.853,1467.55 "/>
<polyline clip-path="url(#clip750)" style="stroke:#000000; stroke-linecap:round; stroke-linejoin:round; stroke-width:4; stroke-opacity:1; fill:none" points="1103.29,1486.45 1103.29,1467.55 "/>
<polyline clip-path="url(#clip750)" style="stroke:#000000; stroke-linecap:round; stroke-linejoin:round; stroke-width:4; stroke-opacity:1; fill:none" points="1435.74,1486.45 1435.74,1467.55 "/>
<polyline clip-path="url(#clip750)" style="stroke:#000000; stroke-linecap:round; stroke-linejoin:round; stroke-width:4; stroke-opacity:1; fill:none" points="1768.18,1486.45 1768.18,1467.55 "/>
<polyline clip-path="url(#clip750)" style="stroke:#000000; stroke-linecap:round; stroke-linejoin:round; stroke-width:4; stroke-opacity:1; fill:none" points="2100.62,1486.45 2100.62,1467.55 "/>
<path clip-path="url(#clip750)" d="M428.793 1544.91 L436.432 1544.91 L436.432 1518.55 L428.122 1520.21 L428.122 1515.95 L436.386 1514.29 L441.061 1514.29 L441.061 1544.91 L448.7 1544.91 L448.7 1548.85 L428.793 1548.85 L428.793 1544.91 Z" fill="#000000" fill-rule="nonzero" fill-opacity="1" /><path clip-path="url(#clip750)" d="M765.505 1544.91 L781.825 1544.91 L781.825 1548.85 L759.88 1548.85 L759.88 1544.91 Q762.542 1542.16 767.126 1537.53 Q771.732 1532.88 772.913 1531.53 Q775.158 1529.01 776.038 1527.27 Q776.941 1525.51 776.941 1523.82 Q776.941 1521.07 774.996 1519.33 Q773.075 1517.6 769.973 1517.6 Q767.774 1517.6 765.32 1518.36 Q762.89 1519.13 760.112 1520.68 L760.112 1515.95 Q762.936 1514.82 765.39 1514.24 Q767.843 1513.66 769.88 1513.66 Q775.251 1513.66 778.445 1516.35 Q781.64 1519.03 781.64 1523.52 Q781.64 1525.65 780.829 1527.57 Q780.042 1529.47 777.936 1532.07 Q777.357 1532.74 774.255 1535.95 Q771.154 1539.15 765.505 1544.91 Z" fill="#000000" fill-rule="nonzero" fill-opacity="1" /><path clip-path="url(#clip750)" d="M1107.54 1530.21 Q1110.9 1530.93 1112.77 1533.2 Q1114.67 1535.47 1114.67 1538.8 Q1114.67 1543.92 1111.15 1546.72 Q1107.63 1549.52 1101.15 1549.52 Q1098.98 1549.52 1096.66 1549.08 Q1094.37 1548.66 1091.92 1547.81 L1091.92 1543.29 Q1093.86 1544.43 1096.18 1545.01 Q1098.49 1545.58 1101.01 1545.58 Q1105.41 1545.58 1107.7 1543.85 Q1110.02 1542.11 1110.02 1538.8 Q1110.02 1535.75 1107.87 1534.03 Q1105.74 1532.3 1101.92 1532.3 L1097.89 1532.3 L1097.89 1528.45 L1102.1 1528.45 Q1105.55 1528.45 1107.38 1527.09 Q1109.21 1525.7 1109.21 1523.11 Q1109.21 1520.45 1107.31 1519.03 Q1105.44 1517.6 1101.92 1517.6 Q1100 1517.6 1097.8 1518.01 Q1095.6 1518.43 1092.96 1519.31 L1092.96 1515.14 Q1095.62 1514.4 1097.94 1514.03 Q1100.27 1513.66 1102.33 1513.66 Q1107.66 1513.66 1110.76 1516.09 Q1113.86 1518.5 1113.86 1522.62 Q1113.86 1525.49 1112.22 1527.48 Q1110.57 1529.45 1107.54 1530.21 Z" fill="#000000" fill-rule="nonzero" fill-opacity="1" /><path clip-path="url(#clip750)" d="M1438.74 1518.36 L1426.94 1536.81 L1438.74 1536.81 L1438.74 1518.36 M1437.52 1514.29 L1443.4 1514.29 L1443.4 1536.81 L1448.33 1536.81 L1448.33 1540.7 L1443.4 1540.7 L1443.4 1548.85 L1438.74 1548.85 L1438.74 1540.7 L1423.14 1540.7 L1423.14 1536.19 L1437.52 1514.29 Z" fill="#000000" fill-rule="nonzero" fill-opacity="1" /><path clip-path="url(#clip750)" d="M1758.46 1514.29 L1776.81 1514.29 L1776.81 1518.22 L1762.74 1518.22 L1762.74 1526.7 Q1763.76 1526.35 1764.77 1526.19 Q1765.79 1526 1766.81 1526 Q1772.6 1526 1775.98 1529.17 Q1779.36 1532.34 1779.36 1537.76 Q1779.36 1543.34 1775.89 1546.44 Q1772.41 1549.52 1766.09 1549.52 Q1763.92 1549.52 1761.65 1549.15 Q1759.4 1548.78 1757 1548.04 L1757 1543.34 Q1759.08 1544.47 1761.3 1545.03 Q1763.52 1545.58 1766 1545.58 Q1770.01 1545.58 1772.34 1543.48 Q1774.68 1541.37 1774.68 1537.76 Q1774.68 1534.15 1772.34 1532.04 Q1770.01 1529.94 1766 1529.94 Q1764.13 1529.94 1762.25 1530.35 Q1760.4 1530.77 1758.46 1531.65 L1758.46 1514.29 Z" fill="#000000" fill-rule="nonzero" fill-opacity="1" /><path clip-path="url(#clip750)" d="M2101.02 1529.7 Q2097.88 1529.7 2096.02 1531.86 Q2094.2 1534.01 2094.2 1537.76 Q2094.2 1541.49 2096.02 1543.66 Q2097.88 1545.82 2101.02 1545.82 Q2104.17 1545.82 2106 1543.66 Q2107.85 1541.49 2107.85 1537.76 Q2107.85 1534.01 2106 1531.86 Q2104.17 1529.7 2101.02 1529.7 M2110.31 1515.05 L2110.31 1519.31 Q2108.55 1518.48 2106.74 1518.04 Q2104.96 1517.6 2103.2 1517.6 Q2098.57 1517.6 2096.12 1520.72 Q2093.69 1523.85 2093.34 1530.17 Q2094.7 1528.15 2096.76 1527.09 Q2098.82 1526 2101.3 1526 Q2106.51 1526 2109.52 1529.17 Q2112.55 1532.32 2112.55 1537.76 Q2112.55 1543.08 2109.4 1546.3 Q2106.26 1549.52 2101.02 1549.52 Q2095.03 1549.52 2091.86 1544.94 Q2088.69 1540.33 2088.69 1531.6 Q2088.69 1523.41 2092.57 1518.55 Q2096.46 1513.66 2103.01 1513.66 Q2104.77 1513.66 2106.56 1514.01 Q2108.36 1514.36 2110.31 1515.05 Z" fill="#000000" fill-rule="nonzero" fill-opacity="1" /><polyline clip-path="url(#clip752)" style="stroke:#000000; stroke-linecap:round; stroke-linejoin:round; stroke-width:2; stroke-opacity:0.1; fill:none" points="186.274,1486.45 2352.76,1486.45 "/>
<polyline clip-path="url(#clip752)" style="stroke:#000000; stroke-linecap:round; stroke-linejoin:round; stroke-width:2; stroke-opacity:0.1; fill:none" points="186.274,1182.62 2352.76,1182.62 "/>
<polyline clip-path="url(#clip752)" style="stroke:#000000; stroke-linecap:round; stroke-linejoin:round; stroke-width:2; stroke-opacity:0.1; fill:none" points="186.274,878.784 2352.76,878.784 "/>
<polyline clip-path="url(#clip752)" style="stroke:#000000; stroke-linecap:round; stroke-linejoin:round; stroke-width:2; stroke-opacity:0.1; fill:none" points="186.274,574.952 2352.76,574.952 "/>
<polyline clip-path="url(#clip752)" style="stroke:#000000; stroke-linecap:round; stroke-linejoin:round; stroke-width:2; stroke-opacity:0.1; fill:none" points="186.274,271.12 2352.76,271.12 "/>
<polyline clip-path="url(#clip750)" style="stroke:#000000; stroke-linecap:round; stroke-linejoin:round; stroke-width:4; stroke-opacity:1; fill:none" points="186.274,1486.45 186.274,47.2441 "/>
<polyline clip-path="url(#clip750)" style="stroke:#000000; stroke-linecap:round; stroke-linejoin:round; stroke-width:4; stroke-opacity:1; fill:none" points="186.274,1486.45 205.172,1486.45 "/>
<polyline clip-path="url(#clip750)" style="stroke:#000000; stroke-linecap:round; stroke-linejoin:round; stroke-width:4; stroke-opacity:1; fill:none" points="186.274,1182.62 205.172,1182.62 "/>
<polyline clip-path="url(#clip750)" style="stroke:#000000; stroke-linecap:round; stroke-linejoin:round; stroke-width:4; stroke-opacity:1; fill:none" points="186.274,878.784 205.172,878.784 "/>
<polyline clip-path="url(#clip750)" style="stroke:#000000; stroke-linecap:round; stroke-linejoin:round; stroke-width:4; stroke-opacity:1; fill:none" points="186.274,574.952 205.172,574.952 "/>
<polyline clip-path="url(#clip750)" style="stroke:#000000; stroke-linecap:round; stroke-linejoin:round; stroke-width:4; stroke-opacity:1; fill:none" points="186.274,271.12 205.172,271.12 "/>
<path clip-path="url(#clip750)" d="M62.9365 1472.25 Q59.3254 1472.25 57.4967 1475.81 Q55.6912 1479.35 55.6912 1486.48 Q55.6912 1493.59 57.4967 1497.15 Q59.3254 1500.7 62.9365 1500.7 Q66.5707 1500.7 68.3763 1497.15 Q70.205 1493.59 70.205 1486.48 Q70.205 1479.35 68.3763 1475.81 Q66.5707 1472.25 62.9365 1472.25 M62.9365 1468.54 Q68.7467 1468.54 71.8022 1473.15 Q74.8809 1477.73 74.8809 1486.48 Q74.8809 1495.21 71.8022 1499.82 Q68.7467 1504.4 62.9365 1504.4 Q57.1264 1504.4 54.0477 1499.82 Q50.9921 1495.21 50.9921 1486.48 Q50.9921 1477.73 54.0477 1473.15 Q57.1264 1468.54 62.9365 1468.54 Z" fill="#000000" fill-rule="nonzero" fill-opacity="1" /><path clip-path="url(#clip750)" d="M83.0984 1497.85 L87.9827 1497.85 L87.9827 1503.73 L83.0984 1503.73 L83.0984 1497.85 Z" fill="#000000" fill-rule="nonzero" fill-opacity="1" /><path clip-path="url(#clip750)" d="M108.168 1472.25 Q104.557 1472.25 102.728 1475.81 Q100.922 1479.35 100.922 1486.48 Q100.922 1493.59 102.728 1497.15 Q104.557 1500.7 108.168 1500.7 Q111.802 1500.7 113.608 1497.15 Q115.436 1493.59 115.436 1486.48 Q115.436 1479.35 113.608 1475.81 Q111.802 1472.25 108.168 1472.25 M108.168 1468.54 Q113.978 1468.54 117.033 1473.15 Q120.112 1477.73 120.112 1486.48 Q120.112 1495.21 117.033 1499.82 Q113.978 1504.4 108.168 1504.4 Q102.358 1504.4 99.2789 1499.82 Q96.2234 1495.21 96.2234 1486.48 Q96.2234 1477.73 99.2789 1473.15 Q102.358 1468.54 108.168 1468.54 Z" fill="#000000" fill-rule="nonzero" fill-opacity="1" /><path clip-path="url(#clip750)" d="M138.33 1472.25 Q134.719 1472.25 132.89 1475.81 Q131.084 1479.35 131.084 1486.48 Q131.084 1493.59 132.89 1497.15 Q134.719 1500.7 138.33 1500.7 Q141.964 1500.7 143.769 1497.15 Q145.598 1493.59 145.598 1486.48 Q145.598 1479.35 143.769 1475.81 Q141.964 1472.25 138.33 1472.25 M138.33 1468.54 Q144.14 1468.54 147.195 1473.15 Q150.274 1477.73 150.274 1486.48 Q150.274 1495.21 147.195 1499.82 Q144.14 1504.4 138.33 1504.4 Q132.519 1504.4 129.441 1499.82 Q126.385 1495.21 126.385 1486.48 Q126.385 1477.73 129.441 1473.15 Q132.519 1468.54 138.33 1468.54 Z" fill="#000000" fill-rule="nonzero" fill-opacity="1" /><path clip-path="url(#clip750)" d="M63.9319 1168.41 Q60.3208 1168.41 58.4921 1171.98 Q56.6865 1175.52 56.6865 1182.65 Q56.6865 1189.76 58.4921 1193.32 Q60.3208 1196.86 63.9319 1196.86 Q67.5661 1196.86 69.3717 1193.32 Q71.2004 1189.76 71.2004 1182.65 Q71.2004 1175.52 69.3717 1171.98 Q67.5661 1168.41 63.9319 1168.41 M63.9319 1164.71 Q69.742 1164.71 72.7976 1169.32 Q75.8763 1173.9 75.8763 1182.65 Q75.8763 1191.38 72.7976 1195.98 Q69.742 1200.57 63.9319 1200.57 Q58.1217 1200.57 55.043 1195.98 Q51.9875 1191.38 51.9875 1182.65 Q51.9875 1173.9 55.043 1169.32 Q58.1217 1164.71 63.9319 1164.71 Z" fill="#000000" fill-rule="nonzero" fill-opacity="1" /><path clip-path="url(#clip750)" d="M84.0938 1194.02 L88.978 1194.02 L88.978 1199.9 L84.0938 1199.9 L84.0938 1194.02 Z" fill="#000000" fill-rule="nonzero" fill-opacity="1" /><path clip-path="url(#clip750)" d="M109.163 1168.41 Q105.552 1168.41 103.723 1171.98 Q101.918 1175.52 101.918 1182.65 Q101.918 1189.76 103.723 1193.32 Q105.552 1196.86 109.163 1196.86 Q112.797 1196.86 114.603 1193.32 Q116.432 1189.76 116.432 1182.65 Q116.432 1175.52 114.603 1171.98 Q112.797 1168.41 109.163 1168.41 M109.163 1164.71 Q114.973 1164.71 118.029 1169.32 Q121.107 1173.9 121.107 1182.65 Q121.107 1191.38 118.029 1195.98 Q114.973 1200.57 109.163 1200.57 Q103.353 1200.57 100.274 1195.98 Q97.2187 1191.38 97.2187 1182.65 Q97.2187 1173.9 100.274 1169.32 Q103.353 1164.71 109.163 1164.71 Z" fill="#000000" fill-rule="nonzero" fill-opacity="1" /><path clip-path="url(#clip750)" d="M129.371 1165.34 L147.728 1165.34 L147.728 1169.27 L133.654 1169.27 L133.654 1177.74 Q134.672 1177.4 135.691 1177.23 Q136.709 1177.05 137.728 1177.05 Q143.515 1177.05 146.894 1180.22 Q150.274 1183.39 150.274 1188.81 Q150.274 1194.39 146.802 1197.49 Q143.33 1200.57 137.01 1200.57 Q134.834 1200.57 132.566 1200.2 Q130.32 1199.83 127.913 1199.09 L127.913 1194.39 Q129.996 1195.52 132.219 1196.08 Q134.441 1196.63 136.918 1196.63 Q140.922 1196.63 143.26 1194.53 Q145.598 1192.42 145.598 1188.81 Q145.598 1185.2 143.26 1183.09 Q140.922 1180.98 136.918 1180.98 Q135.043 1180.98 133.168 1181.4 Q131.316 1181.82 129.371 1182.7 L129.371 1165.34 Z" fill="#000000" fill-rule="nonzero" fill-opacity="1" /><path clip-path="url(#clip750)" d="M62.9365 864.583 Q59.3254 864.583 57.4967 868.148 Q55.6912 871.689 55.6912 878.819 Q55.6912 885.925 57.4967 889.49 Q59.3254 893.032 62.9365 893.032 Q66.5707 893.032 68.3763 889.49 Q70.205 885.925 70.205 878.819 Q70.205 871.689 68.3763 868.148 Q66.5707 864.583 62.9365 864.583 M62.9365 860.879 Q68.7467 860.879 71.8022 865.486 Q74.8809 870.069 74.8809 878.819 Q74.8809 887.546 71.8022 892.152 Q68.7467 896.735 62.9365 896.735 Q57.1264 896.735 54.0477 892.152 Q50.9921 887.546 50.9921 878.819 Q50.9921 870.069 54.0477 865.486 Q57.1264 860.879 62.9365 860.879 Z" fill="#000000" fill-rule="nonzero" fill-opacity="1" /><path clip-path="url(#clip750)" d="M83.0984 890.184 L87.9827 890.184 L87.9827 896.064 L83.0984 896.064 L83.0984 890.184 Z" fill="#000000" fill-rule="nonzero" fill-opacity="1" /><path clip-path="url(#clip750)" d="M98.978 892.129 L106.617 892.129 L106.617 865.763 L98.3067 867.43 L98.3067 863.171 L106.571 861.504 L111.246 861.504 L111.246 892.129 L118.885 892.129 L118.885 896.064 L98.978 896.064 L98.978 892.129 Z" fill="#000000" fill-rule="nonzero" fill-opacity="1" /><path clip-path="url(#clip750)" d="M138.33 864.583 Q134.719 864.583 132.89 868.148 Q131.084 871.689 131.084 878.819 Q131.084 885.925 132.89 889.49 Q134.719 893.032 138.33 893.032 Q141.964 893.032 143.769 889.49 Q145.598 885.925 145.598 878.819 Q145.598 871.689 143.769 868.148 Q141.964 864.583 138.33 864.583 M138.33 860.879 Q144.14 860.879 147.195 865.486 Q150.274 870.069 150.274 878.819 Q150.274 887.546 147.195 892.152 Q144.14 896.735 138.33 896.735 Q132.519 896.735 129.441 892.152 Q126.385 887.546 126.385 878.819 Q126.385 870.069 129.441 865.486 Q132.519 860.879 138.33 860.879 Z" fill="#000000" fill-rule="nonzero" fill-opacity="1" /><path clip-path="url(#clip750)" d="M63.9319 560.751 Q60.3208 560.751 58.4921 564.316 Q56.6865 567.857 56.6865 574.987 Q56.6865 582.093 58.4921 585.658 Q60.3208 589.2 63.9319 589.2 Q67.5661 589.2 69.3717 585.658 Q71.2004 582.093 71.2004 574.987 Q71.2004 567.857 69.3717 564.316 Q67.5661 560.751 63.9319 560.751 M63.9319 557.047 Q69.742 557.047 72.7976 561.654 Q75.8763 566.237 75.8763 574.987 Q75.8763 583.714 72.7976 588.32 Q69.742 592.903 63.9319 592.903 Q58.1217 592.903 55.043 588.32 Q51.9875 583.714 51.9875 574.987 Q51.9875 566.237 55.043 561.654 Q58.1217 557.047 63.9319 557.047 Z" fill="#000000" fill-rule="nonzero" fill-opacity="1" /><path clip-path="url(#clip750)" d="M84.0938 586.353 L88.978 586.353 L88.978 592.232 L84.0938 592.232 L84.0938 586.353 Z" fill="#000000" fill-rule="nonzero" fill-opacity="1" /><path clip-path="url(#clip750)" d="M99.9733 588.297 L107.612 588.297 L107.612 561.931 L99.3021 563.598 L99.3021 559.339 L107.566 557.672 L112.242 557.672 L112.242 588.297 L119.881 588.297 L119.881 592.232 L99.9733 592.232 L99.9733 588.297 Z" fill="#000000" fill-rule="nonzero" fill-opacity="1" /><path clip-path="url(#clip750)" d="M129.371 557.672 L147.728 557.672 L147.728 561.607 L133.654 561.607 L133.654 570.079 Q134.672 569.732 135.691 569.57 Q136.709 569.385 137.728 569.385 Q143.515 569.385 146.894 572.556 Q150.274 575.728 150.274 581.144 Q150.274 586.723 146.802 589.825 Q143.33 592.903 137.01 592.903 Q134.834 592.903 132.566 592.533 Q130.32 592.163 127.913 591.422 L127.913 586.723 Q129.996 587.857 132.219 588.413 Q134.441 588.968 136.918 588.968 Q140.922 588.968 143.26 586.862 Q145.598 584.755 145.598 581.144 Q145.598 577.533 143.26 575.427 Q140.922 573.32 136.918 573.32 Q135.043 573.32 133.168 573.737 Q131.316 574.154 129.371 575.033 L129.371 557.672 Z" fill="#000000" fill-rule="nonzero" fill-opacity="1" /><path clip-path="url(#clip750)" d="M62.9365 256.919 Q59.3254 256.919 57.4967 260.484 Q55.6912 264.025 55.6912 271.155 Q55.6912 278.261 57.4967 281.826 Q59.3254 285.368 62.9365 285.368 Q66.5707 285.368 68.3763 281.826 Q70.205 278.261 70.205 271.155 Q70.205 264.025 68.3763 260.484 Q66.5707 256.919 62.9365 256.919 M62.9365 253.215 Q68.7467 253.215 71.8022 257.822 Q74.8809 262.405 74.8809 271.155 Q74.8809 279.882 71.8022 284.488 Q68.7467 289.072 62.9365 289.072 Q57.1264 289.072 54.0477 284.488 Q50.9921 279.882 50.9921 271.155 Q50.9921 262.405 54.0477 257.822 Q57.1264 253.215 62.9365 253.215 Z" fill="#000000" fill-rule="nonzero" fill-opacity="1" /><path clip-path="url(#clip750)" d="M83.0984 282.521 L87.9827 282.521 L87.9827 288.4 L83.0984 288.4 L83.0984 282.521 Z" fill="#000000" fill-rule="nonzero" fill-opacity="1" /><path clip-path="url(#clip750)" d="M102.196 284.465 L118.515 284.465 L118.515 288.4 L96.5706 288.4 L96.5706 284.465 Q99.2326 281.71 103.816 277.081 Q108.422 272.428 109.603 271.086 Q111.848 268.562 112.728 266.826 Q113.631 265.067 113.631 263.377 Q113.631 260.623 111.686 258.887 Q109.765 257.15 106.663 257.15 Q104.464 257.15 102.01 257.914 Q99.5798 258.678 96.8021 260.229 L96.8021 255.507 Q99.6261 254.373 102.08 253.794 Q104.534 253.215 106.571 253.215 Q111.941 253.215 115.135 255.9 Q118.33 258.586 118.33 263.076 Q118.33 265.206 117.52 267.127 Q116.733 269.025 114.626 271.618 Q114.047 272.289 110.946 275.507 Q107.844 278.701 102.196 284.465 Z" fill="#000000" fill-rule="nonzero" fill-opacity="1" /><path clip-path="url(#clip750)" d="M138.33 256.919 Q134.719 256.919 132.89 260.484 Q131.084 264.025 131.084 271.155 Q131.084 278.261 132.89 281.826 Q134.719 285.368 138.33 285.368 Q141.964 285.368 143.769 281.826 Q145.598 278.261 145.598 271.155 Q145.598 264.025 143.769 260.484 Q141.964 256.919 138.33 256.919 M138.33 253.215 Q144.14 253.215 147.195 257.822 Q150.274 262.405 150.274 271.155 Q150.274 279.882 147.195 284.488 Q144.14 289.072 138.33 289.072 Q132.519 289.072 129.441 284.488 Q126.385 279.882 126.385 271.155 Q126.385 262.405 129.441 257.822 Q132.519 253.215 138.33 253.215 Z" fill="#000000" fill-rule="nonzero" fill-opacity="1" /><path clip-path="url(#clip752)" d="M305.434 766.846 L305.434 1486.45 L571.388 1486.45 L571.388 766.846 L305.434 766.846 L305.434 766.846  Z" fill="#009af9" fill-rule="evenodd" fill-opacity="1"/>
<polyline clip-path="url(#clip752)" style="stroke:#000000; stroke-linecap:round; stroke-linejoin:round; stroke-width:4; stroke-opacity:1; fill:none" points="305.434,766.846 305.434,1486.45 571.388,1486.45 571.388,766.846 305.434,766.846 "/>
<path clip-path="url(#clip752)" d="M637.876 367.067 L637.876 1486.45 L903.829 1486.45 L903.829 367.067 L637.876 367.067 L637.876 367.067  Z" fill="#009af9" fill-rule="evenodd" fill-opacity="1"/>
<polyline clip-path="url(#clip752)" style="stroke:#000000; stroke-linecap:round; stroke-linejoin:round; stroke-width:4; stroke-opacity:1; fill:none" points="637.876,367.067 637.876,1486.45 903.829,1486.45 903.829,367.067 637.876,367.067 "/>
<path clip-path="url(#clip752)" d="M970.318 207.156 L970.318 1486.45 L1236.27 1486.45 L1236.27 207.156 L970.318 207.156 L970.318 207.156  Z" fill="#009af9" fill-rule="evenodd" fill-opacity="1"/>
<polyline clip-path="url(#clip752)" style="stroke:#000000; stroke-linecap:round; stroke-linejoin:round; stroke-width:4; stroke-opacity:1; fill:none" points="970.318,207.156 970.318,1486.45 1236.27,1486.45 1236.27,207.156 970.318,207.156 "/>
<path clip-path="url(#clip752)" d="M1302.76 47.2441 L1302.76 1486.45 L1568.71 1486.45 L1568.71 47.2441 L1302.76 47.2441 L1302.76 47.2441  Z" fill="#009af9" fill-rule="evenodd" fill-opacity="1"/>
<polyline clip-path="url(#clip752)" style="stroke:#000000; stroke-linecap:round; stroke-linejoin:round; stroke-width:4; stroke-opacity:1; fill:none" points="1302.76,47.2441 1302.76,1486.45 1568.71,1486.45 1568.71,47.2441 1302.76,47.2441 "/>
<path clip-path="url(#clip752)" d="M1635.2 846.802 L1635.2 1486.45 L1901.15 1486.45 L1901.15 846.802 L1635.2 846.802 L1635.2 846.802  Z" fill="#009af9" fill-rule="evenodd" fill-opacity="1"/>
<polyline clip-path="url(#clip752)" style="stroke:#000000; stroke-linecap:round; stroke-linejoin:round; stroke-width:4; stroke-opacity:1; fill:none" points="1635.2,846.802 1635.2,1486.45 1901.15,1486.45 1901.15,846.802 1635.2,846.802 "/>
<path clip-path="url(#clip752)" d="M1967.64 606.934 L1967.64 1486.45 L2233.6 1486.45 L2233.6 606.934 L1967.64 606.934 L1967.64 606.934  Z" fill="#009af9" fill-rule="evenodd" fill-opacity="1"/>
<polyline clip-path="url(#clip752)" style="stroke:#000000; stroke-linecap:round; stroke-linejoin:round; stroke-width:4; stroke-opacity:1; fill:none" points="1967.64,606.934 1967.64,1486.45 2233.6,1486.45 2233.6,606.934 1967.64,606.934 "/>
<circle clip-path="url(#clip752)" style="fill:#009af9; stroke:none; fill-opacity:0" cx="438.411" cy="766.846" r="2"/>
<circle clip-path="url(#clip752)" style="fill:#009af9; stroke:none; fill-opacity:0" cx="770.853" cy="367.067" r="2"/>
<circle clip-path="url(#clip752)" style="fill:#009af9; stroke:none; fill-opacity:0" cx="1103.29" cy="207.156" r="2"/>
<circle clip-path="url(#clip752)" style="fill:#009af9; stroke:none; fill-opacity:0" cx="1435.74" cy="47.2441" r="2"/>
<circle clip-path="url(#clip752)" style="fill:#009af9; stroke:none; fill-opacity:0" cx="1768.18" cy="846.802" r="2"/>
<circle clip-path="url(#clip752)" style="fill:#009af9; stroke:none; fill-opacity:0" cx="2100.62" cy="606.934" r="2"/>
</svg>
