<?xml version="1.0" encoding="utf-8"?>
<svg xmlns="http://www.w3.org/2000/svg" xmlns:xlink="http://www.w3.org/1999/xlink" width="600" height="400" viewBox="0 0 2400 1600">
<defs>
  <clipPath id="clip730">
    <rect x="0" y="0" width="2400" height="1600"/>
  </clipPath>
</defs>
<path clip-path="url(#clip730)" d="M0 1600 L2400 1600 L2400 0 L0 0  Z" fill="#ffffff" fill-rule="evenodd" fill-opacity="1"/>
<defs>
  <clipPath id="clip731">
    <rect x="480" y="0" width="1681" height="1600"/>
  </clipPath>
</defs>
<path clip-path="url(#clip730)" d="M112.177 1486.45 L2352.76 1486.45 L2352.76 123.472 L112.177 123.472  Z" fill="#ffffff" fill-rule="evenodd" fill-opacity="1"/>
<defs>
  <clipPath id="clip732">
    <rect x="112" y="123" width="2242" height="1364"/>
  </clipPath>
</defs>
<polyline clip-path="url(#clip732)" style="stroke:#000000; stroke-linecap:round; stroke-linejoin:round; stroke-width:2; stroke-opacity:0.1; fill:none" points="620.591,1486.45 620.591,123.472 "/>
<polyline clip-path="url(#clip732)" style="stroke:#000000; stroke-linecap:round; stroke-linejoin:round; stroke-width:2; stroke-opacity:0.1; fill:none" points="1176.84,1486.45 1176.84,123.472 "/>
<polyline clip-path="url(#clip732)" style="stroke:#000000; stroke-linecap:round; stroke-linejoin:round; stroke-width:2; stroke-opacity:0.1; fill:none" points="1733.09,1486.45 1733.09,123.472 "/>
<polyline clip-path="url(#clip732)" style="stroke:#000000; stroke-linecap:round; stroke-linejoin:round; stroke-width:2; stroke-opacity:0.1; fill:none" points="2289.34,1486.45 2289.34,123.472 "/>
<polyline clip-path="url(#clip730)" style="stroke:#000000; stroke-linecap:round; stroke-linejoin:round; stroke-width:4; stroke-opacity:1; fill:none" points="112.177,1486.45 2352.76,1486.45 "/>
<polyline clip-path="url(#clip730)" style="stroke:#000000; stroke-linecap:round; stroke-linejoin:round; stroke-width:4; stroke-opacity:1; fill:none" points="620.591,1486.45 620.591,1467.55 "/>
<polyline clip-path="url(#clip730)" style="stroke:#000000; stroke-linecap:round; stroke-linejoin:round; stroke-width:4; stroke-opacity:1; fill:none" points="1176.84,1486.45 1176.84,1467.55 "/>
<polyline clip-path="url(#clip730)" style="stroke:#000000; stroke-linecap:round; stroke-linejoin:round; stroke-width:4; stroke-opacity:1; fill:none" points="1733.09,1486.45 1733.09,1467.55 "/>
<polyline clip-path="url(#clip730)" style="stroke:#000000; stroke-linecap:round; stroke-linejoin:round; stroke-width:4; stroke-opacity:1; fill:none" points="2289.34,1486.45 2289.34,1467.55 "/>
<path clip-path="url(#clip730)" d="M610.868 1514.29 L629.225 1514.29 L629.225 1518.22 L615.151 1518.22 L615.151 1526.7 Q616.169 1526.35 617.188 1526.19 Q618.206 1526 619.225 1526 Q625.012 1526 628.391 1529.17 Q631.771 1532.34 631.771 1537.76 Q631.771 1543.34 628.299 1546.44 Q624.827 1549.52 618.507 1549.52 Q616.331 1549.52 614.063 1549.15 Q611.817 1548.78 609.41 1548.04 L609.41 1543.34 Q611.493 1544.47 613.716 1545.03 Q615.938 1545.58 618.415 1545.58 Q622.419 1545.58 624.757 1543.48 Q627.095 1541.37 627.095 1537.76 Q627.095 1534.15 624.757 1532.04 Q622.419 1529.94 618.415 1529.94 Q616.54 1529.94 614.665 1530.35 Q612.813 1530.77 610.868 1531.65 L610.868 1514.29 Z" fill="#000000" fill-rule="nonzero" fill-opacity="1" /><path clip-path="url(#clip730)" d="M1151.53 1544.91 L1159.17 1544.91 L1159.17 1518.55 L1150.86 1520.21 L1150.86 1515.95 L1159.12 1514.29 L1163.8 1514.29 L1163.8 1544.91 L1171.44 1544.91 L1171.44 1548.85 L1151.53 1548.85 L1151.53 1544.91 Z" fill="#000000" fill-rule="nonzero" fill-opacity="1" /><path clip-path="url(#clip730)" d="M1190.88 1517.37 Q1187.27 1517.37 1185.44 1520.93 Q1183.64 1524.47 1183.64 1531.6 Q1183.64 1538.71 1185.44 1542.27 Q1187.27 1545.82 1190.88 1545.82 Q1194.51 1545.82 1196.32 1542.27 Q1198.15 1538.71 1198.15 1531.6 Q1198.15 1524.47 1196.32 1520.93 Q1194.51 1517.37 1190.88 1517.37 M1190.88 1513.66 Q1196.69 1513.66 1199.75 1518.27 Q1202.83 1522.85 1202.83 1531.6 Q1202.83 1540.33 1199.75 1544.94 Q1196.69 1549.52 1190.88 1549.52 Q1185.07 1549.52 1181.99 1544.94 Q1178.94 1540.33 1178.94 1531.6 Q1178.94 1522.85 1181.99 1518.27 Q1185.07 1513.66 1190.88 1513.66 Z" fill="#000000" fill-rule="nonzero" fill-opacity="1" /><path clip-path="url(#clip730)" d="M1708.28 1544.91 L1715.92 1544.91 L1715.92 1518.55 L1707.61 1520.21 L1707.61 1515.95 L1715.87 1514.29 L1720.55 1514.29 L1720.55 1544.91 L1728.18 1544.91 L1728.18 1548.85 L1708.28 1548.85 L1708.28 1544.91 Z" fill="#000000" fill-rule="nonzero" fill-opacity="1" /><path clip-path="url(#clip730)" d="M1737.68 1514.29 L1756.03 1514.29 L1756.03 1518.22 L1741.96 1518.22 L1741.96 1526.7 Q1742.98 1526.35 1744 1526.19 Q1745.01 1526 1746.03 1526 Q1751.82 1526 1755.2 1529.17 Q1758.58 1532.34 1758.58 1537.76 Q1758.58 1543.34 1755.11 1546.44 Q1751.63 1549.52 1745.31 1549.52 Q1743.14 1549.52 1740.87 1549.15 Q1738.62 1548.78 1736.22 1548.04 L1736.22 1543.34 Q1738.3 1544.47 1740.52 1545.03 Q1742.75 1545.58 1745.22 1545.58 Q1749.23 1545.58 1751.56 1543.48 Q1753.9 1541.37 1753.9 1537.76 Q1753.9 1534.15 1751.56 1532.04 Q1749.23 1529.94 1745.22 1529.94 Q1743.35 1529.94 1741.47 1530.35 Q1739.62 1530.77 1737.68 1531.65 L1737.68 1514.29 Z" fill="#000000" fill-rule="nonzero" fill-opacity="1" /><path clip-path="url(#clip730)" d="M2268.12 1544.91 L2284.44 1544.91 L2284.44 1548.85 L2262.49 1548.85 L2262.49 1544.91 Q2265.15 1542.16 2269.74 1537.53 Q2274.34 1532.88 2275.52 1531.53 Q2277.77 1529.01 2278.65 1527.27 Q2279.55 1525.51 2279.55 1523.82 Q2279.55 1521.07 2277.61 1519.33 Q2275.69 1517.6 2272.58 1517.6 Q2270.39 1517.6 2267.93 1518.36 Q2265.5 1519.13 2262.72 1520.68 L2262.72 1515.95 Q2265.55 1514.82 2268 1514.24 Q2270.45 1513.66 2272.49 1513.66 Q2277.86 1513.66 2281.06 1516.35 Q2284.25 1519.03 2284.25 1523.52 Q2284.25 1525.65 2283.44 1527.57 Q2282.65 1529.47 2280.55 1532.07 Q2279.97 1532.74 2276.87 1535.95 Q2273.76 1539.15 2268.12 1544.91 Z" fill="#000000" fill-rule="nonzero" fill-opacity="1" /><path clip-path="url(#clip730)" d="M2304.25 1517.37 Q2300.64 1517.37 2298.81 1520.93 Q2297.01 1524.47 2297.01 1531.6 Q2297.01 1538.71 2298.81 1542.27 Q2300.64 1545.82 2304.25 1545.82 Q2307.88 1545.82 2309.69 1542.27 Q2311.52 1538.71 2311.52 1531.6 Q2311.52 1524.47 2309.69 1520.93 Q2307.88 1517.37 2304.25 1517.37 M2304.25 1513.66 Q2310.06 1513.66 2313.12 1518.27 Q2316.2 1522.85 2316.2 1531.6 Q2316.2 1540.33 2313.12 1544.94 Q2310.06 1549.52 2304.25 1549.52 Q2298.44 1549.52 2295.36 1544.94 Q2292.31 1540.33 2292.31 1531.6 Q2292.31 1522.85 2295.36 1518.27 Q2298.44 1513.66 2304.25 1513.66 Z" fill="#000000" fill-rule="nonzero" fill-opacity="1" /><polyline clip-path="url(#clip732)" style="stroke:#000000; stroke-linecap:round; stroke-linejoin:round; stroke-width:2; stroke-opacity:0.1; fill:none" points="112.177,1447.87 2352.76,1447.87 "/>
<polyline clip-path="url(#clip732)" style="stroke:#000000; stroke-linecap:round; stroke-linejoin:round; stroke-width:2; stroke-opacity:0.1; fill:none" points="112.177,1211.13 2352.76,1211.13 "/>
<polyline clip-path="url(#clip732)" style="stroke:#000000; stroke-linecap:round; stroke-linejoin:round; stroke-width:2; stroke-opacity:0.1; fill:none" points="112.177,974.387 2352.76,974.387 "/>
<polyline clip-path="url(#clip732)" style="stroke:#000000; stroke-linecap:round; stroke-linejoin:round; stroke-width:2; stroke-opacity:0.1; fill:none" points="112.177,737.643 2352.76,737.643 "/>
<polyline clip-path="url(#clip732)" style="stroke:#000000; stroke-linecap:round; stroke-linejoin:round; stroke-width:2; stroke-opacity:0.1; fill:none" points="112.177,500.9 2352.76,500.9 "/>
<polyline clip-path="url(#clip732)" style="stroke:#000000; stroke-linecap:round; stroke-linejoin:round; stroke-width:2; stroke-opacity:0.1; fill:none" points="112.177,264.157 2352.76,264.157 "/>
<polyline clip-path="url(#clip730)" style="stroke:#000000; stroke-linecap:round; stroke-linejoin:round; stroke-width:4; stroke-opacity:1; fill:none" points="112.177,1486.45 112.177,123.472 "/>
<polyline clip-path="url(#clip730)" style="stroke:#000000; stroke-linecap:round; stroke-linejoin:round; stroke-width:4; stroke-opacity:1; fill:none" points="112.177,1447.87 131.075,1447.87 "/>
<polyline clip-path="url(#clip730)" style="stroke:#000000; stroke-linecap:round; stroke-linejoin:round; stroke-width:4; stroke-opacity:1; fill:none" points="112.177,1211.13 131.075,1211.13 "/>
<polyline clip-path="url(#clip730)" style="stroke:#000000; stroke-linecap:round; stroke-linejoin:round; stroke-width:4; stroke-opacity:1; fill:none" points="112.177,974.387 131.075,974.387 "/>
<polyline clip-path="url(#clip730)" style="stroke:#000000; stroke-linecap:round; stroke-linejoin:round; stroke-width:4; stroke-opacity:1; fill:none" points="112.177,737.643 131.075,737.643 "/>
<polyline clip-path="url(#clip730)" style="stroke:#000000; stroke-linecap:round; stroke-linejoin:round; stroke-width:4; stroke-opacity:1; fill:none" points="112.177,500.9 131.075,500.9 "/>
<polyline clip-path="url(#clip730)" style="stroke:#000000; stroke-linecap:round; stroke-linejoin:round; stroke-width:4; stroke-opacity:1; fill:none" points="112.177,264.157 131.075,264.157 "/>
<path clip-path="url(#clip730)" d="M64.2328 1433.67 Q60.6217 1433.67 58.793 1437.24 Q56.9875 1440.78 56.9875 1447.91 Q56.9875 1455.01 58.793 1458.58 Q60.6217 1462.12 64.2328 1462.12 Q67.867 1462.12 69.6726 1458.58 Q71.5013 1455.01 71.5013 1447.91 Q71.5013 1440.78 69.6726 1437.24 Q67.867 1433.67 64.2328 1433.67 M64.2328 1429.97 Q70.0429 1429.97 73.0985 1434.57 Q76.1772 1439.16 76.1772 1447.91 Q76.1772 1456.63 73.0985 1461.24 Q70.0429 1465.82 64.2328 1465.82 Q58.4226 1465.82 55.344 1461.24 Q52.2884 1456.63 52.2884 1447.91 Q52.2884 1439.16 55.344 1434.57 Q58.4226 1429.97 64.2328 1429.97 Z" fill="#000000" fill-rule="nonzero" fill-opacity="1" /><path clip-path="url(#clip730)" d="M56.2699 1224.47 L63.9087 1224.47 L63.9087 1198.11 L55.5986 1199.78 L55.5986 1195.52 L63.8624 1193.85 L68.5383 1193.85 L68.5383 1224.47 L76.1772 1224.47 L76.1772 1228.41 L56.2699 1228.41 L56.2699 1224.47 Z" fill="#000000" fill-rule="nonzero" fill-opacity="1" /><path clip-path="url(#clip730)" d="M59.8578 987.731 L76.1772 987.731 L76.1772 991.667 L54.2328 991.667 L54.2328 987.731 Q56.8949 984.977 61.4782 980.347 Q66.0846 975.694 67.2652 974.352 Q69.5105 971.829 70.3902 970.093 Q71.2929 968.333 71.2929 966.644 Q71.2929 963.889 69.3485 962.153 Q67.4272 960.417 64.3254 960.417 Q62.1263 960.417 59.6726 961.181 Q57.2421 961.945 54.4643 963.495 L54.4643 958.773 Q57.2884 957.639 59.7421 957.06 Q62.1958 956.482 64.2328 956.482 Q69.6031 956.482 72.7976 959.167 Q75.992 961.852 75.992 966.343 Q75.992 968.472 75.1818 970.394 Q74.3948 972.292 72.2883 974.884 Q71.7096 975.556 68.6078 978.773 Q65.5059 981.968 59.8578 987.731 Z" fill="#000000" fill-rule="nonzero" fill-opacity="1" /><path clip-path="url(#clip730)" d="M69.0476 736.289 Q72.404 737.007 74.279 739.275 Q76.1772 741.544 76.1772 744.877 Q76.1772 749.993 72.6587 752.794 Q69.1402 755.595 62.6587 755.595 Q60.4828 755.595 58.168 755.155 Q55.8764 754.738 53.4227 753.882 L53.4227 749.368 Q55.3671 750.502 57.6819 751.081 Q59.9967 751.66 62.5198 751.66 Q66.918 751.66 69.2096 749.923 Q71.5244 748.187 71.5244 744.877 Q71.5244 741.822 69.3717 740.109 Q67.242 738.373 63.4226 738.373 L59.3949 738.373 L59.3949 734.53 L63.6078 734.53 Q67.0569 734.53 68.8855 733.164 Q70.7142 731.775 70.7142 729.183 Q70.7142 726.521 68.8161 725.109 Q66.9411 723.674 63.4226 723.674 Q61.5013 723.674 59.3023 724.09 Q57.1032 724.507 54.4643 725.387 L54.4643 721.22 Q57.1264 720.479 59.4412 720.109 Q61.7791 719.738 63.8393 719.738 Q69.1633 719.738 72.2652 722.169 Q75.367 724.576 75.367 728.697 Q75.367 731.567 73.7235 733.558 Q72.08 735.525 69.0476 736.289 Z" fill="#000000" fill-rule="nonzero" fill-opacity="1" /><path clip-path="url(#clip730)" d="M66.5939 487.694 L54.7884 506.143 L66.5939 506.143 L66.5939 487.694 M65.367 483.62 L71.2466 483.62 L71.2466 506.143 L76.1772 506.143 L76.1772 510.032 L71.2466 510.032 L71.2466 518.18 L66.5939 518.18 L66.5939 510.032 L50.9921 510.032 L50.9921 505.518 L65.367 483.62 Z" fill="#000000" fill-rule="nonzero" fill-opacity="1" /><path clip-path="url(#clip730)" d="M55.2745 246.877 L73.6309 246.877 L73.6309 250.812 L59.5569 250.812 L59.5569 259.284 Q60.5754 258.937 61.5939 258.775 Q62.6124 258.59 63.6309 258.59 Q69.418 258.59 72.7976 261.761 Q76.1772 264.932 76.1772 270.349 Q76.1772 275.928 72.705 279.03 Q69.2328 282.108 62.9134 282.108 Q60.7374 282.108 58.4689 281.738 Q56.2236 281.367 53.8162 280.627 L53.8162 275.928 Q55.8995 277.062 58.1217 277.618 Q60.3439 278.173 62.8208 278.173 Q66.8254 278.173 69.1633 276.067 Q71.5013 273.96 71.5013 270.349 Q71.5013 266.738 69.1633 264.631 Q66.8254 262.525 62.8208 262.525 Q60.9458 262.525 59.0708 262.942 Q57.2189 263.358 55.2745 264.238 L55.2745 246.877 Z" fill="#000000" fill-rule="nonzero" fill-opacity="1" /><path clip-path="url(#clip730)" d="M297.66 18.8205 L297.66 41.5461 L307.949 41.5461 Q313.661 41.5461 316.78 38.5889 Q319.899 35.6318 319.899 30.163 Q319.899 24.7348 316.78 21.7777 Q313.661 18.8205 307.949 18.8205 L297.66 18.8205 M289.477 12.096 L307.949 12.096 Q318.117 12.096 323.302 16.714 Q328.528 21.2916 328.528 30.163 Q328.528 39.1155 323.302 43.6931 Q318.117 48.2706 307.949 48.2706 L297.66 48.2706 L297.66 72.576 L289.477 72.576 L289.477 12.096 Z" fill="#000000" fill-rule="nonzero" fill-opacity="1" /><path clip-path="url(#clip730)" d="M364.013 34.1734 Q362.758 33.4443 361.259 33.1202 Q359.8 32.7556 358.018 32.7556 Q351.699 32.7556 348.296 36.8875 Q344.934 40.9789 344.934 48.6757 L344.934 72.576 L337.44 72.576 L337.44 27.2059 L344.934 27.2059 L344.934 34.2544 Q347.283 30.1225 351.051 28.1376 Q354.818 26.1121 360.206 26.1121 Q360.975 26.1121 361.907 26.2337 Q362.839 26.3147 363.973 26.5172 L364.013 34.1734 Z" fill="#000000" fill-rule="nonzero" fill-opacity="1" /><path clip-path="url(#clip730)" d="M366.484 27.2059 L374.384 27.2059 L388.562 65.2844 L402.74 27.2059 L410.639 27.2059 L393.626 72.576 L383.498 72.576 L366.484 27.2059 Z" fill="#000000" fill-rule="nonzero" fill-opacity="1" /><path clip-path="url(#clip730)" d="M420.929 27.2059 L428.382 27.2059 L428.382 72.576 L420.929 72.576 L420.929 27.2059 M420.929 9.54393 L428.382 9.54393 L428.382 18.9825 L420.929 18.9825 L420.929 9.54393 Z" fill="#000000" fill-rule="nonzero" fill-opacity="1" /><path clip-path="url(#clip730)" d="M481.692 45.1919 L481.692 72.576 L474.239 72.576 L474.239 45.4349 Q474.239 38.994 471.727 35.7938 Q469.215 32.5936 464.192 32.5936 Q458.156 32.5936 454.673 36.4419 Q451.189 40.2903 451.189 46.9338 L451.189 72.576 L443.695 72.576 L443.695 9.54393 L451.189 9.54393 L451.189 34.2544 Q453.862 30.163 457.468 28.1376 Q461.114 26.1121 465.853 26.1121 Q473.671 26.1121 477.682 30.9732 Q481.692 35.7938 481.692 45.1919 Z" fill="#000000" fill-rule="nonzero" fill-opacity="1" /><path clip-path="url(#clip730)" d="M531.032 65.6895 L559.591 65.6895 L559.591 72.576 L521.189 72.576 L521.189 65.6895 Q525.847 60.8689 533.868 52.7671 Q541.929 44.6248 543.995 42.2752 Q547.924 37.8598 549.464 34.8216 Q551.044 31.7429 551.044 28.7857 Q551.044 23.9651 547.641 20.927 Q544.279 17.8888 538.85 17.8888 Q535.002 17.8888 530.708 19.2256 Q526.455 20.5624 521.594 23.2765 L521.594 15.0127 Q526.536 13.0277 530.83 12.015 Q535.124 11.0023 538.688 11.0023 Q548.087 11.0023 553.677 15.7013 Q559.267 20.4004 559.267 28.2591 Q559.267 31.9859 557.849 35.3482 Q556.472 38.6699 552.786 43.2069 Q551.773 44.3817 546.345 50.0125 Q540.916 55.6027 531.032 65.6895 Z" fill="#000000" fill-rule="nonzero" fill-opacity="1" /><path clip-path="url(#clip730)" d="M594.267 17.4837 Q587.947 17.4837 584.747 23.7221 Q581.588 29.92 581.588 42.3968 Q581.588 54.833 584.747 61.0714 Q587.947 67.2693 594.267 67.2693 Q600.627 67.2693 603.786 61.0714 Q606.987 54.833 606.987 42.3968 Q606.987 29.92 603.786 23.7221 Q600.627 17.4837 594.267 17.4837 M594.267 11.0023 Q604.435 11.0023 609.782 19.0636 Q615.17 27.0843 615.17 42.3968 Q615.17 57.6687 609.782 65.73 Q604.435 73.7508 594.267 73.7508 Q584.099 73.7508 578.711 65.73 Q573.364 57.6687 573.364 42.3968 Q573.364 27.0843 578.711 19.0636 Q584.099 11.0023 594.267 11.0023 Z" fill="#000000" fill-rule="nonzero" fill-opacity="1" /><path clip-path="url(#clip730)" d="M654.868 9.54393 L662.322 9.54393 L662.322 72.576 L654.868 72.576 L654.868 9.54393 Z" fill="#000000" fill-rule="nonzero" fill-opacity="1" /><path clip-path="url(#clip730)" d="M698.537 49.7694 Q689.504 49.7694 686.02 51.8354 Q682.536 53.9013 682.536 58.8839 Q682.536 62.8538 685.129 65.2034 Q687.762 67.5124 692.258 67.5124 Q698.456 67.5124 702.183 63.1374 Q705.95 58.7219 705.95 51.4303 L705.95 49.7694 L698.537 49.7694 M713.404 46.6907 L713.404 72.576 L705.95 72.576 L705.95 65.6895 Q703.398 69.8214 699.59 71.8063 Q695.782 73.7508 690.273 73.7508 Q683.306 73.7508 679.174 69.8619 Q675.082 65.9325 675.082 59.3701 Q675.082 51.7138 680.187 47.825 Q685.331 43.9361 695.499 43.9361 L705.95 43.9361 L705.95 43.2069 Q705.95 38.0623 702.548 35.2672 Q699.185 32.4315 693.068 32.4315 Q689.18 32.4315 685.493 33.3632 Q681.807 34.295 678.404 36.1584 L678.404 29.2718 Q682.496 27.692 686.344 26.9223 Q690.192 26.1121 693.838 26.1121 Q703.682 26.1121 708.543 31.2163 Q713.404 36.3204 713.404 46.6907 Z" fill="#000000" fill-rule="nonzero" fill-opacity="1" /><path clip-path="url(#clip730)" d="M757.68 28.5427 L757.68 35.5912 Q754.521 33.9709 751.118 33.1607 Q747.715 32.3505 744.069 32.3505 Q738.52 32.3505 735.724 34.0519 Q732.97 35.7533 732.97 39.156 Q732.97 41.7486 734.955 43.2475 Q736.94 44.7058 742.935 46.0426 L745.487 46.6097 Q753.427 48.3111 756.749 51.4303 Q760.111 54.509 760.111 60.0587 Q760.111 66.3781 755.088 70.0644 Q750.105 73.7508 741.355 73.7508 Q737.709 73.7508 733.739 73.0216 Q729.81 72.3329 725.435 70.9151 L725.435 63.2184 Q729.567 65.3654 733.577 66.4591 Q737.588 67.5124 741.517 67.5124 Q746.783 67.5124 749.619 65.73 Q752.455 63.9071 752.455 60.6258 Q752.455 57.5877 750.389 55.9673 Q748.363 54.3469 741.436 52.8481 L738.844 52.2405 Q731.917 50.7821 728.838 47.7845 Q725.759 44.7463 725.759 39.4801 Q725.759 33.0797 730.296 29.5959 Q734.833 26.1121 743.178 26.1121 Q747.31 26.1121 750.956 26.7198 Q754.602 27.3274 757.68 28.5427 Z" fill="#000000" fill-rule="nonzero" fill-opacity="1" /><path clip-path="url(#clip730)" d="M779.353 14.324 L779.353 27.2059 L794.706 27.2059 L794.706 32.9987 L779.353 32.9987 L779.353 57.6282 Q779.353 63.1779 780.851 64.7578 Q782.391 66.3376 787.049 66.3376 L794.706 66.3376 L794.706 72.576 L787.049 72.576 Q778.421 72.576 775.14 69.3758 Q771.858 66.1351 771.858 57.6282 L771.858 32.9987 L766.39 32.9987 L766.39 27.2059 L771.858 27.2059 L771.858 14.324 L779.353 14.324 Z" fill="#000000" fill-rule="nonzero" fill-opacity="1" /><path clip-path="url(#clip730)" d="M842.223 45.1919 L842.223 72.576 L834.769 72.576 L834.769 45.4349 Q834.769 38.994 832.257 35.7938 Q829.746 32.5936 824.723 32.5936 Q818.687 32.5936 815.203 36.4419 Q811.719 40.2903 811.719 46.9338 L811.719 72.576 L804.225 72.576 L804.225 27.2059 L811.719 27.2059 L811.719 34.2544 Q814.393 30.163 817.998 28.1376 Q821.644 26.1121 826.384 26.1121 Q834.202 26.1121 838.212 30.9732 Q842.223 35.7938 842.223 45.1919 Z" fill="#000000" fill-rule="nonzero" fill-opacity="1" /><path clip-path="url(#clip730)" d="M857.09 27.2059 L864.543 27.2059 L864.543 72.576 L857.09 72.576 L857.09 27.2059 M857.09 9.54393 L864.543 9.54393 L864.543 18.9825 L857.09 18.9825 L857.09 9.54393 Z" fill="#000000" fill-rule="nonzero" fill-opacity="1" /><path clip-path="url(#clip730)" d="M917.853 45.1919 L917.853 72.576 L910.399 72.576 L910.399 45.4349 Q910.399 38.994 907.888 35.7938 Q905.376 32.5936 900.353 32.5936 Q894.317 32.5936 890.834 36.4419 Q887.35 40.2903 887.35 46.9338 L887.35 72.576 L879.856 72.576 L879.856 9.54393 L887.35 9.54393 L887.35 34.2544 Q890.023 30.163 893.629 28.1376 Q897.274 26.1121 902.014 26.1121 Q909.832 26.1121 913.843 30.9732 Q917.853 35.7938 917.853 45.1919 Z" fill="#000000" fill-rule="nonzero" fill-opacity="1" /><path clip-path="url(#clip730)" d="M953.744 27.2059 L961.643 27.2059 L975.822 65.2844 L990 27.2059 L997.899 27.2059 L980.885 72.576 L970.758 72.576 L953.744 27.2059 Z" fill="#000000" fill-rule="nonzero" fill-opacity="1" /><path clip-path="url(#clip730)" d="M1034.48 34.1734 Q1033.22 33.4443 1031.72 33.1202 Q1030.27 32.7556 1028.48 32.7556 Q1022.16 32.7556 1018.76 36.8875 Q1015.4 40.9789 1015.4 48.6757 L1015.4 72.576 L1007.9 72.576 L1007.9 27.2059 L1015.4 27.2059 L1015.4 34.2544 Q1017.75 30.1225 1021.52 28.1376 Q1025.28 26.1121 1030.67 26.1121 Q1031.44 26.1121 1032.37 26.2337 Q1033.3 26.3147 1034.44 26.5172 L1034.48 34.1734 Z" fill="#000000" fill-rule="nonzero" fill-opacity="1" /><path clip-path="url(#clip730)" d="M1079.28 48.0275 L1079.28 51.6733 L1045.01 51.6733 Q1045.5 59.3701 1049.63 63.421 Q1053.8 67.4314 1061.21 67.4314 Q1065.51 67.4314 1069.52 66.3781 Q1073.57 65.3249 1077.54 63.2184 L1077.54 70.267 Q1073.53 71.9684 1069.32 72.8596 Q1065.1 73.7508 1060.77 73.7508 Q1049.91 73.7508 1043.55 67.4314 Q1037.23 61.1119 1037.23 50.3365 Q1037.23 39.1965 1043.23 32.6746 Q1049.26 26.1121 1059.47 26.1121 Q1068.63 26.1121 1073.93 32.0264 Q1079.28 37.9003 1079.28 48.0275 M1071.83 45.84 Q1071.75 39.7232 1068.38 36.0774 Q1065.06 32.4315 1059.55 32.4315 Q1053.32 32.4315 1049.55 35.9558 Q1045.82 39.4801 1045.25 45.8805 L1071.83 45.84 Z" fill="#000000" fill-rule="nonzero" fill-opacity="1" /><path clip-path="url(#clip730)" d="M1121.37 34.0924 L1121.37 9.54393 L1128.82 9.54393 L1128.82 72.576 L1121.37 72.576 L1121.37 65.7705 Q1119.02 69.8214 1115.42 71.8063 Q1111.85 73.7508 1106.83 73.7508 Q1098.6 73.7508 1093.42 67.1883 Q1088.27 60.6258 1088.27 49.9314 Q1088.27 39.2371 1093.42 32.6746 Q1098.6 26.1121 1106.83 26.1121 Q1111.85 26.1121 1115.42 28.0971 Q1119.02 30.0415 1121.37 34.0924 M1095.97 49.9314 Q1095.97 58.1548 1099.33 62.8538 Q1102.74 67.5124 1108.65 67.5124 Q1114.56 67.5124 1117.97 62.8538 Q1121.37 58.1548 1121.37 49.9314 Q1121.37 41.7081 1117.97 37.0496 Q1114.56 32.3505 1108.65 32.3505 Q1102.74 32.3505 1099.33 37.0496 Q1095.97 41.7081 1095.97 49.9314 Z" fill="#000000" fill-rule="nonzero" fill-opacity="1" /><path clip-path="url(#clip730)" d="M1181.89 45.1919 L1181.89 72.576 L1174.44 72.576 L1174.44 45.4349 Q1174.44 38.994 1171.93 35.7938 Q1169.41 32.5936 1164.39 32.5936 Q1158.36 32.5936 1154.87 36.4419 Q1151.39 40.2903 1151.39 46.9338 L1151.39 72.576 L1143.89 72.576 L1143.89 27.2059 L1151.39 27.2059 L1151.39 34.2544 Q1154.06 30.163 1157.67 28.1376 Q1161.31 26.1121 1166.05 26.1121 Q1173.87 26.1121 1177.88 30.9732 Q1181.89 35.7938 1181.89 45.1919 Z" fill="#000000" fill-rule="nonzero" fill-opacity="1" /><path clip-path="url(#clip730)" d="M1214.34 32.4315 Q1208.34 32.4315 1204.86 37.1306 Q1201.38 41.7891 1201.38 49.9314 Q1201.38 58.0738 1204.82 62.7728 Q1208.3 67.4314 1214.34 67.4314 Q1220.29 67.4314 1223.78 62.7323 Q1227.26 58.0333 1227.26 49.9314 Q1227.26 41.8701 1223.78 37.1711 Q1220.29 32.4315 1214.34 32.4315 M1214.34 26.1121 Q1224.06 26.1121 1229.61 32.4315 Q1235.16 38.7509 1235.16 49.9314 Q1235.16 61.0714 1229.61 67.4314 Q1224.06 73.7508 1214.34 73.7508 Q1204.58 73.7508 1199.03 67.4314 Q1193.52 61.0714 1193.52 49.9314 Q1193.52 38.7509 1199.03 32.4315 Q1204.58 26.1121 1214.34 26.1121 Z" fill="#000000" fill-rule="nonzero" fill-opacity="1" /><path clip-path="url(#clip730)" d="M1276.44 28.5427 L1276.44 35.5912 Q1273.28 33.9709 1269.88 33.1607 Q1266.47 32.3505 1262.83 32.3505 Q1257.28 32.3505 1254.48 34.0519 Q1251.73 35.7533 1251.73 39.156 Q1251.73 41.7486 1253.71 43.2475 Q1255.7 44.7058 1261.69 46.0426 L1264.25 46.6097 Q1272.19 48.3111 1275.51 51.4303 Q1278.87 54.509 1278.87 60.0587 Q1278.87 66.3781 1273.85 70.0644 Q1268.86 73.7508 1260.11 73.7508 Q1256.47 73.7508 1252.5 73.0216 Q1248.57 72.3329 1244.19 70.9151 L1244.19 63.2184 Q1248.33 65.3654 1252.34 66.4591 Q1256.35 67.5124 1260.28 67.5124 Q1265.54 67.5124 1268.38 65.73 Q1271.21 63.9071 1271.21 60.6258 Q1271.21 57.5877 1269.15 55.9673 Q1267.12 54.3469 1260.19 52.8481 L1257.6 52.2405 Q1250.68 50.7821 1247.6 47.7845 Q1244.52 44.7463 1244.52 39.4801 Q1244.52 33.0797 1249.05 29.5959 Q1253.59 26.1121 1261.94 26.1121 Q1266.07 26.1121 1269.71 26.7198 Q1273.36 27.3274 1276.44 28.5427 Z" fill="#000000" fill-rule="nonzero" fill-opacity="1" /><path clip-path="url(#clip730)" d="M1298.11 14.324 L1298.11 27.2059 L1313.46 27.2059 L1313.46 32.9987 L1298.11 32.9987 L1298.11 57.6282 Q1298.11 63.1779 1299.61 64.7578 Q1301.15 66.3376 1305.81 66.3376 L1313.46 66.3376 L1313.46 72.576 L1305.81 72.576 Q1297.18 72.576 1293.9 69.3758 Q1290.62 66.1351 1290.62 57.6282 L1290.62 32.9987 L1285.15 32.9987 L1285.15 27.2059 L1290.62 27.2059 L1290.62 14.324 L1298.11 14.324 Z" fill="#000000" fill-rule="nonzero" fill-opacity="1" /><path clip-path="url(#clip730)" d="M1323.27 27.2059 L1330.72 27.2059 L1330.72 72.576 L1323.27 72.576 L1323.27 27.2059 M1323.27 9.54393 L1330.72 9.54393 L1330.72 18.9825 L1323.27 18.9825 L1323.27 9.54393 Z" fill="#000000" fill-rule="nonzero" fill-opacity="1" /><path clip-path="url(#clip730)" d="M1373.01 12.096 L1381.2 12.096 L1381.2 65.6895 L1410.65 65.6895 L1410.65 72.576 L1373.01 72.576 L1373.01 12.096 Z" fill="#000000" fill-rule="nonzero" fill-opacity="1" /><path clip-path="url(#clip730)" d="M1439.53 49.7694 Q1430.49 49.7694 1427.01 51.8354 Q1423.53 53.9013 1423.53 58.8839 Q1423.53 62.8538 1426.12 65.2034 Q1428.75 67.5124 1433.25 67.5124 Q1439.45 67.5124 1443.17 63.1374 Q1446.94 58.7219 1446.94 51.4303 L1446.94 49.7694 L1439.53 49.7694 M1454.4 46.6907 L1454.4 72.576 L1446.94 72.576 L1446.94 65.6895 Q1444.39 69.8214 1440.58 71.8063 Q1436.77 73.7508 1431.26 73.7508 Q1424.3 73.7508 1420.17 69.8619 Q1416.07 65.9325 1416.07 59.3701 Q1416.07 51.7138 1421.18 47.825 Q1426.32 43.9361 1436.49 43.9361 L1446.94 43.9361 L1446.94 43.2069 Q1446.94 38.0623 1443.54 35.2672 Q1440.18 32.4315 1434.06 32.4315 Q1430.17 32.4315 1426.48 33.3632 Q1422.8 34.295 1419.4 36.1584 L1419.4 29.2718 Q1423.49 27.692 1427.34 26.9223 Q1431.18 26.1121 1434.83 26.1121 Q1444.67 26.1121 1449.53 31.2163 Q1454.4 36.3204 1454.4 46.6907 Z" fill="#000000" fill-rule="nonzero" fill-opacity="1" /><path clip-path="url(#clip730)" d="M1476.96 65.7705 L1476.96 89.8329 L1469.46 89.8329 L1469.46 27.2059 L1476.96 27.2059 L1476.96 34.0924 Q1479.31 30.0415 1482.87 28.0971 Q1486.48 26.1121 1491.46 26.1121 Q1499.72 26.1121 1504.87 32.6746 Q1510.05 39.2371 1510.05 49.9314 Q1510.05 60.6258 1504.87 67.1883 Q1499.72 73.7508 1491.46 73.7508 Q1486.48 73.7508 1482.87 71.8063 Q1479.31 69.8214 1476.96 65.7705 M1502.32 49.9314 Q1502.32 41.7081 1498.91 37.0496 Q1495.55 32.3505 1489.64 32.3505 Q1483.72 32.3505 1480.32 37.0496 Q1476.96 41.7081 1476.96 49.9314 Q1476.96 58.1548 1480.32 62.8538 Q1483.72 67.5124 1489.64 67.5124 Q1495.55 67.5124 1498.91 62.8538 Q1502.32 58.1548 1502.32 49.9314 Z" fill="#000000" fill-rule="nonzero" fill-opacity="1" /><path clip-path="url(#clip730)" d="M1522.41 9.54393 L1529.86 9.54393 L1529.86 72.576 L1522.41 72.576 L1522.41 9.54393 Z" fill="#000000" fill-rule="nonzero" fill-opacity="1" /><path clip-path="url(#clip730)" d="M1566.08 49.7694 Q1557.05 49.7694 1553.56 51.8354 Q1550.08 53.9013 1550.08 58.8839 Q1550.08 62.8538 1552.67 65.2034 Q1555.3 67.5124 1559.8 67.5124 Q1566 67.5124 1569.72 63.1374 Q1573.49 58.7219 1573.49 51.4303 L1573.49 49.7694 L1566.08 49.7694 M1580.95 46.6907 L1580.95 72.576 L1573.49 72.576 L1573.49 65.6895 Q1570.94 69.8214 1567.13 71.8063 Q1563.32 73.7508 1557.81 73.7508 Q1550.85 73.7508 1546.72 69.8619 Q1542.62 65.9325 1542.62 59.3701 Q1542.62 51.7138 1547.73 47.825 Q1552.87 43.9361 1563.04 43.9361 L1573.49 43.9361 L1573.49 43.2069 Q1573.49 38.0623 1570.09 35.2672 Q1566.73 32.4315 1560.61 32.4315 Q1556.72 32.4315 1553.03 33.3632 Q1549.35 34.295 1545.95 36.1584 L1545.95 29.2718 Q1550.04 27.692 1553.89 26.9223 Q1557.73 26.1121 1561.38 26.1121 Q1571.22 26.1121 1576.08 31.2163 Q1580.95 36.3204 1580.95 46.6907 Z" fill="#000000" fill-rule="nonzero" fill-opacity="1" /><path clip-path="url(#clip730)" d="M1628.95 28.9478 L1628.95 35.9153 Q1625.79 34.1734 1622.59 33.3227 Q1619.43 32.4315 1616.19 32.4315 Q1608.94 32.4315 1604.93 37.0496 Q1600.92 41.6271 1600.92 49.9314 Q1600.92 58.2358 1604.93 62.8538 Q1608.94 67.4314 1616.19 67.4314 Q1619.43 67.4314 1622.59 66.5807 Q1625.79 65.6895 1628.95 63.9476 L1628.95 70.8341 Q1625.83 72.2924 1622.47 73.0216 Q1619.15 73.7508 1615.38 73.7508 Q1605.13 73.7508 1599.09 67.3098 Q1593.06 60.8689 1593.06 49.9314 Q1593.06 38.832 1599.13 32.472 Q1605.25 26.1121 1615.86 26.1121 Q1619.31 26.1121 1622.59 26.8413 Q1625.87 27.5299 1628.95 28.9478 Z" fill="#000000" fill-rule="nonzero" fill-opacity="1" /><path clip-path="url(#clip730)" d="M1680.72 48.0275 L1680.72 51.6733 L1646.45 51.6733 Q1646.93 59.3701 1651.07 63.421 Q1655.24 67.4314 1662.65 67.4314 Q1666.95 67.4314 1670.96 66.3781 Q1675.01 65.3249 1678.98 63.2184 L1678.98 70.267 Q1674.97 71.9684 1670.75 72.8596 Q1666.54 73.7508 1662.21 73.7508 Q1651.35 73.7508 1644.99 67.4314 Q1638.67 61.1119 1638.67 50.3365 Q1638.67 39.1965 1644.67 32.6746 Q1650.7 26.1121 1660.91 26.1121 Q1670.07 26.1121 1675.37 32.0264 Q1680.72 37.9003 1680.72 48.0275 M1673.27 45.84 Q1673.18 39.7232 1669.82 36.0774 Q1666.5 32.4315 1660.99 32.4315 Q1654.75 32.4315 1650.99 35.9558 Q1647.26 39.4801 1646.69 45.8805 L1673.27 45.84 Z" fill="#000000" fill-rule="nonzero" fill-opacity="1" /><path clip-path="url(#clip730)" d="M1710.53 32.4315 Q1704.54 32.4315 1701.05 37.1306 Q1697.57 41.7891 1697.57 49.9314 Q1697.57 58.0738 1701.01 62.7728 Q1704.5 67.4314 1710.53 67.4314 Q1716.49 67.4314 1719.97 62.7323 Q1723.46 58.0333 1723.46 49.9314 Q1723.46 41.8701 1719.97 37.1711 Q1716.49 32.4315 1710.53 32.4315 M1710.53 26.1121 Q1720.26 26.1121 1725.81 32.4315 Q1731.36 38.7509 1731.36 49.9314 Q1731.36 61.0714 1725.81 67.4314 Q1720.26 73.7508 1710.53 73.7508 Q1700.77 73.7508 1695.22 67.4314 Q1689.71 61.0714 1689.71 49.9314 Q1689.71 38.7509 1695.22 32.4315 Q1700.77 26.1121 1710.53 26.1121 Z" fill="#000000" fill-rule="nonzero" fill-opacity="1" /><path clip-path="url(#clip730)" d="M1738.36 27.2059 L1746.26 27.2059 L1760.44 65.2844 L1774.62 27.2059 L1782.52 27.2059 L1765.5 72.576 L1755.38 72.576 L1738.36 27.2059 Z" fill="#000000" fill-rule="nonzero" fill-opacity="1" /><path clip-path="url(#clip730)" d="M1831.62 48.0275 L1831.62 51.6733 L1797.34 51.6733 Q1797.83 59.3701 1801.96 63.421 Q1806.14 67.4314 1813.55 67.4314 Q1817.84 67.4314 1821.85 66.3781 Q1825.9 65.3249 1829.87 63.2184 L1829.87 70.267 Q1825.86 71.9684 1821.65 72.8596 Q1817.44 73.7508 1813.1 73.7508 Q1802.25 73.7508 1795.89 67.4314 Q1789.57 61.1119 1789.57 50.3365 Q1789.57 39.1965 1795.56 32.6746 Q1801.6 26.1121 1811.81 26.1121 Q1820.96 26.1121 1826.27 32.0264 Q1831.62 37.9003 1831.62 48.0275 M1824.16 45.84 Q1824.08 39.7232 1820.72 36.0774 Q1817.4 32.4315 1811.89 32.4315 Q1805.65 32.4315 1801.88 35.9558 Q1798.16 39.4801 1797.59 45.8805 L1824.16 45.84 Z" fill="#000000" fill-rule="nonzero" fill-opacity="1" /><path clip-path="url(#clip730)" d="M1905.54 35.9153 Q1908.34 30.8922 1912.23 28.5022 Q1916.12 26.1121 1921.38 26.1121 Q1928.47 26.1121 1932.32 31.0947 Q1936.17 36.0368 1936.17 45.1919 L1936.17 72.576 L1928.68 72.576 L1928.68 45.4349 Q1928.68 38.913 1926.37 35.7533 Q1924.06 32.5936 1919.32 32.5936 Q1913.52 32.5936 1910.16 36.4419 Q1906.8 40.2903 1906.8 46.9338 L1906.8 72.576 L1899.31 72.576 L1899.31 45.4349 Q1899.31 38.8725 1897 35.7533 Q1894.69 32.5936 1889.87 32.5936 Q1884.16 32.5936 1880.79 36.4824 Q1877.43 40.3308 1877.43 46.9338 L1877.43 72.576 L1869.94 72.576 L1869.94 27.2059 L1877.43 27.2059 L1877.43 34.2544 Q1879.98 30.082 1883.55 28.0971 Q1887.11 26.1121 1892.01 26.1121 Q1896.96 26.1121 1900.4 28.6237 Q1903.88 31.1352 1905.54 35.9153 Z" fill="#000000" fill-rule="nonzero" fill-opacity="1" /><path clip-path="url(#clip730)" d="M1971.66 49.7694 Q1962.62 49.7694 1959.14 51.8354 Q1955.65 53.9013 1955.65 58.8839 Q1955.65 62.8538 1958.25 65.2034 Q1960.88 67.5124 1965.38 67.5124 Q1971.57 67.5124 1975.3 63.1374 Q1979.07 58.7219 1979.07 51.4303 L1979.07 49.7694 L1971.66 49.7694 M1986.52 46.6907 L1986.52 72.576 L1979.07 72.576 L1979.07 65.6895 Q1976.52 69.8214 1972.71 71.8063 Q1968.9 73.7508 1963.39 73.7508 Q1956.42 73.7508 1952.29 69.8619 Q1948.2 65.9325 1948.2 59.3701 Q1948.2 51.7138 1953.3 47.825 Q1958.45 43.9361 1968.62 43.9361 L1979.07 43.9361 L1979.07 43.2069 Q1979.07 38.0623 1975.67 35.2672 Q1972.3 32.4315 1966.19 32.4315 Q1962.3 32.4315 1958.61 33.3632 Q1954.93 34.295 1951.52 36.1584 L1951.52 29.2718 Q1955.61 27.692 1959.46 26.9223 Q1963.31 26.1121 1966.96 26.1121 Q1976.8 26.1121 1981.66 31.2163 Q1986.52 36.3204 1986.52 46.6907 Z" fill="#000000" fill-rule="nonzero" fill-opacity="1" /><path clip-path="url(#clip730)" d="M2009.25 14.324 L2009.25 27.2059 L2024.6 27.2059 L2024.6 32.9987 L2009.25 32.9987 L2009.25 57.6282 Q2009.25 63.1779 2010.75 64.7578 Q2012.29 66.3376 2016.94 66.3376 L2024.6 66.3376 L2024.6 72.576 L2016.94 72.576 Q2008.32 72.576 2005.03 69.3758 Q2001.75 66.1351 2001.75 57.6282 L2001.75 32.9987 L1996.28 32.9987 L1996.28 27.2059 L2001.75 27.2059 L2001.75 14.324 L2009.25 14.324 Z" fill="#000000" fill-rule="nonzero" fill-opacity="1" /><path clip-path="url(#clip730)" d="M2060.69 34.1734 Q2059.44 33.4443 2057.94 33.1202 Q2056.48 32.7556 2054.7 32.7556 Q2048.38 32.7556 2044.98 36.8875 Q2041.61 40.9789 2041.61 48.6757 L2041.61 72.576 L2034.12 72.576 L2034.12 27.2059 L2041.61 27.2059 L2041.61 34.2544 Q2043.96 30.1225 2047.73 28.1376 Q2051.5 26.1121 2056.89 26.1121 Q2057.66 26.1121 2058.59 26.2337 Q2059.52 26.3147 2060.65 26.5172 L2060.69 34.1734 Z" fill="#000000" fill-rule="nonzero" fill-opacity="1" /><path clip-path="url(#clip730)" d="M2068.51 27.2059 L2075.97 27.2059 L2075.97 72.576 L2068.51 72.576 L2068.51 27.2059 M2068.51 9.54393 L2075.97 9.54393 L2075.97 18.9825 L2068.51 18.9825 L2068.51 9.54393 Z" fill="#000000" fill-rule="nonzero" fill-opacity="1" /><path clip-path="url(#clip730)" d="M2091.28 9.54393 L2098.77 9.54393 L2098.77 46.7717 L2121.01 27.2059 L2130.53 27.2059 L2106.47 48.4326 L2131.54 72.576 L2121.82 72.576 L2098.77 50.4176 L2098.77 72.576 L2091.28 72.576 L2091.28 9.54393 Z" fill="#000000" fill-rule="nonzero" fill-opacity="1" /><path clip-path="url(#clip730)" d="M2175.46 48.0275 L2175.46 51.6733 L2141.19 51.6733 Q2141.67 59.3701 2145.8 63.421 Q2149.98 67.4314 2157.39 67.4314 Q2161.68 67.4314 2165.69 66.3781 Q2169.74 65.3249 2173.71 63.2184 L2173.71 70.267 Q2169.7 71.9684 2165.49 72.8596 Q2161.28 73.7508 2156.94 73.7508 Q2146.09 73.7508 2139.73 67.4314 Q2133.41 61.1119 2133.41 50.3365 Q2133.41 39.1965 2139.4 32.6746 Q2145.44 26.1121 2155.65 26.1121 Q2164.8 26.1121 2170.11 32.0264 Q2175.46 37.9003 2175.46 48.0275 M2168 45.84 Q2167.92 39.7232 2164.56 36.0774 Q2161.24 32.4315 2155.73 32.4315 Q2149.49 32.4315 2145.72 35.9558 Q2142 39.4801 2141.43 45.8805 L2168 45.84 Z" fill="#000000" fill-rule="nonzero" fill-opacity="1" /><circle clip-path="url(#clip732)" cx="175.59" cy="1447.87" r="14.4" fill="#009af9" fill-rule="evenodd" fill-opacity="1" stroke="#000000" stroke-opacity="1" stroke-width="3.2"/>
<circle clip-path="url(#clip732)" cx="286.84" cy="1447.87" r="14.4" fill="#009af9" fill-rule="evenodd" fill-opacity="1" stroke="#000000" stroke-opacity="1" stroke-width="3.2"/>
<circle clip-path="url(#clip732)" cx="398.09" cy="1447.87" r="14.4" fill="#009af9" fill-rule="evenodd" fill-opacity="1" stroke="#000000" stroke-opacity="1" stroke-width="3.2"/>
<circle clip-path="url(#clip732)" cx="509.34" cy="1447.87" r="14.4" fill="#009af9" fill-rule="evenodd" fill-opacity="1" stroke="#000000" stroke-opacity="1" stroke-width="3.2"/>
<circle clip-path="url(#clip732)" cx="620.591" cy="1348.94" r="14.4" fill="#009af9" fill-rule="evenodd" fill-opacity="1" stroke="#000000" stroke-opacity="1" stroke-width="3.2"/>
<circle clip-path="url(#clip732)" cx="731.841" cy="1257.57" r="14.4" fill="#009af9" fill-rule="evenodd" fill-opacity="1" stroke="#000000" stroke-opacity="1" stroke-width="3.2"/>
<circle clip-path="url(#clip732)" cx="843.091" cy="1244.05" r="14.4" fill="#009af9" fill-rule="evenodd" fill-opacity="1" stroke="#000000" stroke-opacity="1" stroke-width="3.2"/>
<circle clip-path="url(#clip732)" cx="954.341" cy="1050.3" r="14.4" fill="#009af9" fill-rule="evenodd" fill-opacity="1" stroke="#000000" stroke-opacity="1" stroke-width="3.2"/>
<circle clip-path="url(#clip732)" cx="1065.59" cy="997.772" r="14.4" fill="#009af9" fill-rule="evenodd" fill-opacity="1" stroke="#000000" stroke-opacity="1" stroke-width="3.2"/>
<circle clip-path="url(#clip732)" cx="1176.84" cy="908.41" r="14.4" fill="#009af9" fill-rule="evenodd" fill-opacity="1" stroke="#000000" stroke-opacity="1" stroke-width="3.2"/>
<circle clip-path="url(#clip732)" cx="1288.09" cy="880.109" r="14.4" fill="#009af9" fill-rule="evenodd" fill-opacity="1" stroke="#000000" stroke-opacity="1" stroke-width="3.2"/>
<circle clip-path="url(#clip732)" cx="1399.34" cy="829.282" r="14.4" fill="#009af9" fill-rule="evenodd" fill-opacity="1" stroke="#000000" stroke-opacity="1" stroke-width="3.2"/>
<circle clip-path="url(#clip732)" cx="1510.59" cy="748.029" r="14.4" fill="#009af9" fill-rule="evenodd" fill-opacity="1" stroke="#000000" stroke-opacity="1" stroke-width="3.2"/>
<circle clip-path="url(#clip732)" cx="1621.84" cy="690.839" r="14.4" fill="#009af9" fill-rule="evenodd" fill-opacity="1" stroke="#000000" stroke-opacity="1" stroke-width="3.2"/>
<circle clip-path="url(#clip732)" cx="1733.09" cy="518.822" r="14.4" fill="#009af9" fill-rule="evenodd" fill-opacity="1" stroke="#000000" stroke-opacity="1" stroke-width="3.2"/>
<circle clip-path="url(#clip732)" cx="1844.34" cy="506.457" r="14.4" fill="#009af9" fill-rule="evenodd" fill-opacity="1" stroke="#000000" stroke-opacity="1" stroke-width="3.2"/>
<circle clip-path="url(#clip732)" cx="1955.59" cy="440.82" r="14.4" fill="#009af9" fill-rule="evenodd" fill-opacity="1" stroke="#000000" stroke-opacity="1" stroke-width="3.2"/>
<circle clip-path="url(#clip732)" cx="2066.84" cy="375.048" r="14.4" fill="#009af9" fill-rule="evenodd" fill-opacity="1" stroke="#000000" stroke-opacity="1" stroke-width="3.2"/>
<circle clip-path="url(#clip732)" cx="2178.09" cy="247.613" r="14.4" fill="#009af9" fill-rule="evenodd" fill-opacity="1" stroke="#000000" stroke-opacity="1" stroke-width="3.2"/>
<circle clip-path="url(#clip732)" cx="2289.34" cy="162.047" r="14.4" fill="#009af9" fill-rule="evenodd" fill-opacity="1" stroke="#000000" stroke-opacity="1" stroke-width="3.2"/>
<path clip-path="url(#clip730)" d="M186.863 272.585 L463.351 272.585 L463.351 168.905 L186.863 168.905  Z" fill="#ffffff" fill-rule="evenodd" fill-opacity="1"/>
<polyline clip-path="url(#clip730)" style="stroke:#000000; stroke-linecap:round; stroke-linejoin:round; stroke-width:4; stroke-opacity:1; fill:none" points="186.863,272.585 463.351,272.585 463.351,168.905 186.863,168.905 186.863,272.585 "/>
<circle clip-path="url(#clip730)" cx="286.444" cy="220.745" r="20.48" fill="#009af9" fill-rule="evenodd" fill-opacity="1" stroke="#000000" stroke-opacity="1" stroke-width="4.55111"/>
<path clip-path="url(#clip730)" d="M399.868 240.432 Q398.063 245.062 396.35 246.474 Q394.637 247.886 391.766 247.886 L388.364 247.886 L388.364 244.321 L390.864 244.321 Q392.623 244.321 393.595 243.488 Q394.567 242.654 395.748 239.552 L396.512 237.608 L386.026 212.099 L390.54 212.099 L398.641 232.377 L406.743 212.099 L411.257 212.099 L399.868 240.432 Z" fill="#000000" fill-rule="nonzero" fill-opacity="1" /><path clip-path="url(#clip730)" d="M418.549 234.089 L426.188 234.089 L426.188 207.724 L417.877 209.391 L417.877 205.131 L426.141 203.465 L430.817 203.465 L430.817 234.089 L438.456 234.089 L438.456 238.025 L418.549 238.025 L418.549 234.089 Z" fill="#000000" fill-rule="nonzero" fill-opacity="1" /></svg>
