<?xml version="1.0" encoding="utf-8"?>
<svg xmlns="http://www.w3.org/2000/svg" xmlns:xlink="http://www.w3.org/1999/xlink" width="600" height="400" viewBox="0 0 2400 1600">
<defs>
  <clipPath id="clip540">
    <rect x="0" y="0" width="2400" height="1600"/>
  </clipPath>
</defs>
<path clip-path="url(#clip540)" d="M0 1600 L2400 1600 L2400 0 L0 0  Z" fill="#ffffff" fill-rule="evenodd" fill-opacity="1"/>
<defs>
  <clipPath id="clip541">
    <rect x="480" y="0" width="1681" height="1600"/>
  </clipPath>
</defs>
<path clip-path="url(#clip540)" d="M193.936 1486.45 L2352.76 1486.45 L2352.76 47.2441 L193.936 47.2441  Z" fill="#ffffff" fill-rule="evenodd" fill-opacity="1"/>
<defs>
  <clipPath id="clip542">
    <rect x="193" y="47" width="2160" height="1440"/>
  </clipPath>
</defs>
<polyline clip-path="url(#clip542)" style="stroke:#000000; stroke-linecap:round; stroke-linejoin:round; stroke-width:2; stroke-opacity:0.1; fill:none" points="255.03,1486.45 255.03,47.2441 "/>
<polyline clip-path="url(#clip542)" style="stroke:#000000; stroke-linecap:round; stroke-linejoin:round; stroke-width:2; stroke-opacity:0.1; fill:none" points="764.188,1486.45 764.188,47.2441 "/>
<polyline clip-path="url(#clip542)" style="stroke:#000000; stroke-linecap:round; stroke-linejoin:round; stroke-width:2; stroke-opacity:0.1; fill:none" points="1273.35,1486.45 1273.35,47.2441 "/>
<polyline clip-path="url(#clip542)" style="stroke:#000000; stroke-linecap:round; stroke-linejoin:round; stroke-width:2; stroke-opacity:0.1; fill:none" points="1782.5,1486.45 1782.5,47.2441 "/>
<polyline clip-path="url(#clip542)" style="stroke:#000000; stroke-linecap:round; stroke-linejoin:round; stroke-width:2; stroke-opacity:0.1; fill:none" points="2291.66,1486.45 2291.66,47.2441 "/>
<polyline clip-path="url(#clip540)" style="stroke:#000000; stroke-linecap:round; stroke-linejoin:round; stroke-width:4; stroke-opacity:1; fill:none" points="193.936,1486.45 2352.76,1486.45 "/>
<polyline clip-path="url(#clip540)" style="stroke:#000000; stroke-linecap:round; stroke-linejoin:round; stroke-width:4; stroke-opacity:1; fill:none" points="255.03,1486.45 255.03,1467.55 "/>
<polyline clip-path="url(#clip540)" style="stroke:#000000; stroke-linecap:round; stroke-linejoin:round; stroke-width:4; stroke-opacity:1; fill:none" points="764.188,1486.45 764.188,1467.55 "/>
<polyline clip-path="url(#clip540)" style="stroke:#000000; stroke-linecap:round; stroke-linejoin:round; stroke-width:4; stroke-opacity:1; fill:none" points="1273.35,1486.45 1273.35,1467.55 "/>
<polyline clip-path="url(#clip540)" style="stroke:#000000; stroke-linecap:round; stroke-linejoin:round; stroke-width:4; stroke-opacity:1; fill:none" points="1782.5,1486.45 1782.5,1467.55 "/>
<polyline clip-path="url(#clip540)" style="stroke:#000000; stroke-linecap:round; stroke-linejoin:round; stroke-width:4; stroke-opacity:1; fill:none" points="2291.66,1486.45 2291.66,1467.55 "/>
<path clip-path="url(#clip540)" d="M201.558 1532.02 L231.233 1532.02 L231.233 1535.95 L201.558 1535.95 L201.558 1532.02 Z" fill="#000000" fill-rule="nonzero" fill-opacity="1" /><path clip-path="url(#clip540)" d="M242.136 1544.91 L249.775 1544.91 L249.775 1518.55 L241.465 1520.21 L241.465 1515.95 L249.729 1514.29 L254.405 1514.29 L254.405 1544.91 L262.043 1544.91 L262.043 1548.85 L242.136 1548.85 L242.136 1544.91 Z" fill="#000000" fill-rule="nonzero" fill-opacity="1" /><path clip-path="url(#clip540)" d="M271.488 1542.97 L276.372 1542.97 L276.372 1548.85 L271.488 1548.85 L271.488 1542.97 Z" fill="#000000" fill-rule="nonzero" fill-opacity="1" /><path clip-path="url(#clip540)" d="M296.557 1517.37 Q292.946 1517.37 291.117 1520.93 Q289.312 1524.47 289.312 1531.6 Q289.312 1538.71 291.117 1542.27 Q292.946 1545.82 296.557 1545.82 Q300.191 1545.82 301.997 1542.27 Q303.826 1538.71 303.826 1531.6 Q303.826 1524.47 301.997 1520.93 Q300.191 1517.37 296.557 1517.37 M296.557 1513.66 Q302.367 1513.66 305.423 1518.27 Q308.502 1522.85 308.502 1531.6 Q308.502 1540.33 305.423 1544.94 Q302.367 1549.52 296.557 1549.52 Q290.747 1549.52 287.668 1544.94 Q284.613 1540.33 284.613 1531.6 Q284.613 1522.85 287.668 1518.27 Q290.747 1513.66 296.557 1513.66 Z" fill="#000000" fill-rule="nonzero" fill-opacity="1" /><path clip-path="url(#clip540)" d="M711.214 1532.02 L740.889 1532.02 L740.889 1535.95 L711.214 1535.95 L711.214 1532.02 Z" fill="#000000" fill-rule="nonzero" fill-opacity="1" /><path clip-path="url(#clip540)" d="M760.982 1517.37 Q757.371 1517.37 755.542 1520.93 Q753.736 1524.47 753.736 1531.6 Q753.736 1538.71 755.542 1542.27 Q757.371 1545.82 760.982 1545.82 Q764.616 1545.82 766.422 1542.27 Q768.25 1538.71 768.25 1531.6 Q768.25 1524.47 766.422 1520.93 Q764.616 1517.37 760.982 1517.37 M760.982 1513.66 Q766.792 1513.66 769.847 1518.27 Q772.926 1522.85 772.926 1531.6 Q772.926 1540.33 769.847 1544.94 Q766.792 1549.52 760.982 1549.52 Q755.172 1549.52 752.093 1544.94 Q749.037 1540.33 749.037 1531.6 Q749.037 1522.85 752.093 1518.27 Q755.172 1513.66 760.982 1513.66 Z" fill="#000000" fill-rule="nonzero" fill-opacity="1" /><path clip-path="url(#clip540)" d="M781.144 1542.97 L786.028 1542.97 L786.028 1548.85 L781.144 1548.85 L781.144 1542.97 Z" fill="#000000" fill-rule="nonzero" fill-opacity="1" /><path clip-path="url(#clip540)" d="M796.259 1514.29 L814.616 1514.29 L814.616 1518.22 L800.542 1518.22 L800.542 1526.7 Q801.56 1526.35 802.579 1526.19 Q803.597 1526 804.616 1526 Q810.403 1526 813.782 1529.17 Q817.162 1532.34 817.162 1537.76 Q817.162 1543.34 813.69 1546.44 Q810.218 1549.52 803.898 1549.52 Q801.722 1549.52 799.454 1549.15 Q797.208 1548.78 794.801 1548.04 L794.801 1543.34 Q796.884 1544.47 799.107 1545.03 Q801.329 1545.58 803.806 1545.58 Q807.81 1545.58 810.148 1543.48 Q812.486 1541.37 812.486 1537.76 Q812.486 1534.15 810.148 1532.04 Q807.81 1529.94 803.806 1529.94 Q801.931 1529.94 800.056 1530.35 Q798.204 1530.77 796.259 1531.65 L796.259 1514.29 Z" fill="#000000" fill-rule="nonzero" fill-opacity="1" /><path clip-path="url(#clip540)" d="M1250.73 1517.37 Q1247.12 1517.37 1245.29 1520.93 Q1243.49 1524.47 1243.49 1531.6 Q1243.49 1538.71 1245.29 1542.27 Q1247.12 1545.82 1250.73 1545.82 Q1254.36 1545.82 1256.17 1542.27 Q1258 1538.71 1258 1531.6 Q1258 1524.47 1256.17 1520.93 Q1254.36 1517.37 1250.73 1517.37 M1250.73 1513.66 Q1256.54 1513.66 1259.6 1518.27 Q1262.67 1522.85 1262.67 1531.6 Q1262.67 1540.33 1259.6 1544.94 Q1256.54 1549.52 1250.73 1549.52 Q1244.92 1549.52 1241.84 1544.94 Q1238.79 1540.33 1238.79 1531.6 Q1238.79 1522.85 1241.84 1518.27 Q1244.92 1513.66 1250.73 1513.66 Z" fill="#000000" fill-rule="nonzero" fill-opacity="1" /><path clip-path="url(#clip540)" d="M1270.89 1542.97 L1275.78 1542.97 L1275.78 1548.85 L1270.89 1548.85 L1270.89 1542.97 Z" fill="#000000" fill-rule="nonzero" fill-opacity="1" /><path clip-path="url(#clip540)" d="M1295.96 1517.37 Q1292.35 1517.37 1290.52 1520.93 Q1288.72 1524.47 1288.72 1531.6 Q1288.72 1538.71 1290.52 1542.27 Q1292.35 1545.82 1295.96 1545.82 Q1299.6 1545.82 1301.4 1542.27 Q1303.23 1538.71 1303.23 1531.6 Q1303.23 1524.47 1301.4 1520.93 Q1299.6 1517.37 1295.96 1517.37 M1295.96 1513.66 Q1301.77 1513.66 1304.83 1518.27 Q1307.91 1522.85 1307.91 1531.6 Q1307.91 1540.33 1304.83 1544.94 Q1301.77 1549.52 1295.96 1549.52 Q1290.15 1549.52 1287.07 1544.94 Q1284.02 1540.33 1284.02 1531.6 Q1284.02 1522.85 1287.07 1518.27 Q1290.15 1513.66 1295.96 1513.66 Z" fill="#000000" fill-rule="nonzero" fill-opacity="1" /><path clip-path="url(#clip540)" d="M1760.39 1517.37 Q1756.78 1517.37 1754.95 1520.93 Q1753.14 1524.47 1753.14 1531.6 Q1753.14 1538.71 1754.95 1542.27 Q1756.78 1545.82 1760.39 1545.82 Q1764.02 1545.82 1765.83 1542.27 Q1767.65 1538.71 1767.65 1531.6 Q1767.65 1524.47 1765.83 1520.93 Q1764.02 1517.37 1760.39 1517.37 M1760.39 1513.66 Q1766.2 1513.66 1769.25 1518.27 Q1772.33 1522.85 1772.33 1531.6 Q1772.33 1540.33 1769.25 1544.94 Q1766.2 1549.52 1760.39 1549.52 Q1754.58 1549.52 1751.5 1544.94 Q1748.44 1540.33 1748.44 1531.6 Q1748.44 1522.85 1751.5 1518.27 Q1754.58 1513.66 1760.39 1513.66 Z" fill="#000000" fill-rule="nonzero" fill-opacity="1" /><path clip-path="url(#clip540)" d="M1780.55 1542.97 L1785.43 1542.97 L1785.43 1548.85 L1780.55 1548.85 L1780.55 1542.97 Z" fill="#000000" fill-rule="nonzero" fill-opacity="1" /><path clip-path="url(#clip540)" d="M1795.66 1514.29 L1814.02 1514.29 L1814.02 1518.22 L1799.95 1518.22 L1799.95 1526.7 Q1800.96 1526.35 1801.98 1526.19 Q1803 1526 1804.02 1526 Q1809.81 1526 1813.19 1529.17 Q1816.57 1532.34 1816.57 1537.76 Q1816.57 1543.34 1813.09 1546.44 Q1809.62 1549.52 1803.3 1549.52 Q1801.13 1549.52 1798.86 1549.15 Q1796.61 1548.78 1794.21 1548.04 L1794.21 1543.34 Q1796.29 1544.47 1798.51 1545.03 Q1800.73 1545.58 1803.21 1545.58 Q1807.21 1545.58 1809.55 1543.48 Q1811.89 1541.37 1811.89 1537.76 Q1811.89 1534.15 1809.55 1532.04 Q1807.21 1529.94 1803.21 1529.94 Q1801.34 1529.94 1799.46 1530.35 Q1797.61 1530.77 1795.66 1531.65 L1795.66 1514.29 Z" fill="#000000" fill-rule="nonzero" fill-opacity="1" /><path clip-path="url(#clip540)" d="M2258.82 1544.91 L2266.45 1544.91 L2266.45 1518.55 L2258.14 1520.21 L2258.14 1515.95 L2266.41 1514.29 L2271.08 1514.29 L2271.08 1544.91 L2278.72 1544.91 L2278.72 1548.85 L2258.82 1548.85 L2258.82 1544.91 Z" fill="#000000" fill-rule="nonzero" fill-opacity="1" /><path clip-path="url(#clip540)" d="M2288.17 1542.97 L2293.05 1542.97 L2293.05 1548.85 L2288.17 1548.85 L2288.17 1542.97 Z" fill="#000000" fill-rule="nonzero" fill-opacity="1" /><path clip-path="url(#clip540)" d="M2313.24 1517.37 Q2309.63 1517.37 2307.8 1520.93 Q2305.99 1524.47 2305.99 1531.6 Q2305.99 1538.71 2307.8 1542.27 Q2309.63 1545.82 2313.24 1545.82 Q2316.87 1545.82 2318.68 1542.27 Q2320.5 1538.71 2320.5 1531.6 Q2320.5 1524.47 2318.68 1520.93 Q2316.87 1517.37 2313.24 1517.37 M2313.24 1513.66 Q2319.05 1513.66 2322.1 1518.27 Q2325.18 1522.85 2325.18 1531.6 Q2325.18 1540.33 2322.1 1544.94 Q2319.05 1549.52 2313.24 1549.52 Q2307.43 1549.52 2304.35 1544.94 Q2301.29 1540.33 2301.29 1531.6 Q2301.29 1522.85 2304.35 1518.27 Q2307.43 1513.66 2313.24 1513.66 Z" fill="#000000" fill-rule="nonzero" fill-opacity="1" /><polyline clip-path="url(#clip542)" style="stroke:#000000; stroke-linecap:round; stroke-linejoin:round; stroke-width:2; stroke-opacity:0.1; fill:none" points="193.936,1445.73 2352.76,1445.73 "/>
<polyline clip-path="url(#clip542)" style="stroke:#000000; stroke-linecap:round; stroke-linejoin:round; stroke-width:2; stroke-opacity:0.1; fill:none" points="193.936,1106.29 2352.76,1106.29 "/>
<polyline clip-path="url(#clip542)" style="stroke:#000000; stroke-linecap:round; stroke-linejoin:round; stroke-width:2; stroke-opacity:0.1; fill:none" points="193.936,766.853 2352.76,766.853 "/>
<polyline clip-path="url(#clip542)" style="stroke:#000000; stroke-linecap:round; stroke-linejoin:round; stroke-width:2; stroke-opacity:0.1; fill:none" points="193.936,427.414 2352.76,427.414 "/>
<polyline clip-path="url(#clip542)" style="stroke:#000000; stroke-linecap:round; stroke-linejoin:round; stroke-width:2; stroke-opacity:0.1; fill:none" points="193.936,87.9763 2352.76,87.9763 "/>
<polyline clip-path="url(#clip540)" style="stroke:#000000; stroke-linecap:round; stroke-linejoin:round; stroke-width:4; stroke-opacity:1; fill:none" points="193.936,1486.45 193.936,47.2441 "/>
<polyline clip-path="url(#clip540)" style="stroke:#000000; stroke-linecap:round; stroke-linejoin:round; stroke-width:4; stroke-opacity:1; fill:none" points="193.936,1445.73 212.834,1445.73 "/>
<polyline clip-path="url(#clip540)" style="stroke:#000000; stroke-linecap:round; stroke-linejoin:round; stroke-width:4; stroke-opacity:1; fill:none" points="193.936,1106.29 212.834,1106.29 "/>
<polyline clip-path="url(#clip540)" style="stroke:#000000; stroke-linecap:round; stroke-linejoin:round; stroke-width:4; stroke-opacity:1; fill:none" points="193.936,766.853 212.834,766.853 "/>
<polyline clip-path="url(#clip540)" style="stroke:#000000; stroke-linecap:round; stroke-linejoin:round; stroke-width:4; stroke-opacity:1; fill:none" points="193.936,427.414 212.834,427.414 "/>
<polyline clip-path="url(#clip540)" style="stroke:#000000; stroke-linecap:round; stroke-linejoin:round; stroke-width:4; stroke-opacity:1; fill:none" points="193.936,87.9763 212.834,87.9763 "/>
<path clip-path="url(#clip540)" d="M50.9921 1446.18 L80.6679 1446.18 L80.6679 1450.12 L50.9921 1450.12 L50.9921 1446.18 Z" fill="#000000" fill-rule="nonzero" fill-opacity="1" /><path clip-path="url(#clip540)" d="M91.5706 1459.07 L99.2095 1459.07 L99.2095 1432.71 L90.8993 1434.38 L90.8993 1430.12 L99.1632 1428.45 L103.839 1428.45 L103.839 1459.07 L111.478 1459.07 L111.478 1463.01 L91.5706 1463.01 L91.5706 1459.07 Z" fill="#000000" fill-rule="nonzero" fill-opacity="1" /><path clip-path="url(#clip540)" d="M120.922 1457.13 L125.807 1457.13 L125.807 1463.01 L120.922 1463.01 L120.922 1457.13 Z" fill="#000000" fill-rule="nonzero" fill-opacity="1" /><path clip-path="url(#clip540)" d="M145.992 1431.53 Q142.381 1431.53 140.552 1435.09 Q138.746 1438.63 138.746 1445.76 Q138.746 1452.87 140.552 1456.44 Q142.381 1459.98 145.992 1459.98 Q149.626 1459.98 151.431 1456.44 Q153.26 1452.87 153.26 1445.76 Q153.26 1438.63 151.431 1435.09 Q149.626 1431.53 145.992 1431.53 M145.992 1427.82 Q151.802 1427.82 154.857 1432.43 Q157.936 1437.01 157.936 1445.76 Q157.936 1454.49 154.857 1459.1 Q151.802 1463.68 145.992 1463.68 Q140.181 1463.68 137.103 1459.1 Q134.047 1454.49 134.047 1445.76 Q134.047 1437.01 137.103 1432.43 Q140.181 1427.82 145.992 1427.82 Z" fill="#000000" fill-rule="nonzero" fill-opacity="1" /><path clip-path="url(#clip540)" d="M51.9875 1106.74 L81.6633 1106.74 L81.6633 1110.68 L51.9875 1110.68 L51.9875 1106.74 Z" fill="#000000" fill-rule="nonzero" fill-opacity="1" /><path clip-path="url(#clip540)" d="M101.756 1092.09 Q98.1447 1092.09 96.316 1095.65 Q94.5104 1099.2 94.5104 1106.33 Q94.5104 1113.43 96.316 1117 Q98.1447 1120.54 101.756 1120.54 Q105.39 1120.54 107.196 1117 Q109.024 1113.43 109.024 1106.33 Q109.024 1099.2 107.196 1095.65 Q105.39 1092.09 101.756 1092.09 M101.756 1088.39 Q107.566 1088.39 110.621 1092.99 Q113.7 1097.58 113.7 1106.33 Q113.7 1115.05 110.621 1119.66 Q107.566 1124.24 101.756 1124.24 Q95.9456 1124.24 92.8669 1119.66 Q89.8114 1115.05 89.8114 1106.33 Q89.8114 1097.58 92.8669 1092.99 Q95.9456 1088.39 101.756 1088.39 Z" fill="#000000" fill-rule="nonzero" fill-opacity="1" /><path clip-path="url(#clip540)" d="M121.918 1117.69 L126.802 1117.69 L126.802 1123.57 L121.918 1123.57 L121.918 1117.69 Z" fill="#000000" fill-rule="nonzero" fill-opacity="1" /><path clip-path="url(#clip540)" d="M137.033 1089.01 L155.39 1089.01 L155.39 1092.95 L141.316 1092.95 L141.316 1101.42 Q142.334 1101.07 143.353 1100.91 Q144.371 1100.72 145.39 1100.72 Q151.177 1100.72 154.556 1103.9 Q157.936 1107.07 157.936 1112.48 Q157.936 1118.06 154.464 1121.16 Q150.992 1124.24 144.672 1124.24 Q142.496 1124.24 140.228 1123.87 Q137.982 1123.5 135.575 1122.76 L135.575 1118.06 Q137.658 1119.2 139.881 1119.75 Q142.103 1120.31 144.58 1120.31 Q148.584 1120.31 150.922 1118.2 Q153.26 1116.09 153.26 1112.48 Q153.26 1108.87 150.922 1106.77 Q148.584 1104.66 144.58 1104.66 Q142.705 1104.66 140.83 1105.08 Q138.978 1105.49 137.033 1106.37 L137.033 1089.01 Z" fill="#000000" fill-rule="nonzero" fill-opacity="1" /><path clip-path="url(#clip540)" d="M100.76 752.651 Q97.1493 752.651 95.3206 756.216 Q93.515 759.758 93.515 766.887 Q93.515 773.994 95.3206 777.559 Q97.1493 781.1 100.76 781.1 Q104.395 781.1 106.2 777.559 Q108.029 773.994 108.029 766.887 Q108.029 759.758 106.2 756.216 Q104.395 752.651 100.76 752.651 M100.76 748.948 Q106.571 748.948 109.626 753.554 Q112.705 758.137 112.705 766.887 Q112.705 775.614 109.626 780.221 Q106.571 784.804 100.76 784.804 Q94.9502 784.804 91.8715 780.221 Q88.816 775.614 88.816 766.887 Q88.816 758.137 91.8715 753.554 Q94.9502 748.948 100.76 748.948 Z" fill="#000000" fill-rule="nonzero" fill-opacity="1" /><path clip-path="url(#clip540)" d="M120.922 778.253 L125.807 778.253 L125.807 784.133 L120.922 784.133 L120.922 778.253 Z" fill="#000000" fill-rule="nonzero" fill-opacity="1" /><path clip-path="url(#clip540)" d="M145.992 752.651 Q142.381 752.651 140.552 756.216 Q138.746 759.758 138.746 766.887 Q138.746 773.994 140.552 777.559 Q142.381 781.1 145.992 781.1 Q149.626 781.1 151.431 777.559 Q153.26 773.994 153.26 766.887 Q153.26 759.758 151.431 756.216 Q149.626 752.651 145.992 752.651 M145.992 748.948 Q151.802 748.948 154.857 753.554 Q157.936 758.137 157.936 766.887 Q157.936 775.614 154.857 780.221 Q151.802 784.804 145.992 784.804 Q140.181 784.804 137.103 780.221 Q134.047 775.614 134.047 766.887 Q134.047 758.137 137.103 753.554 Q140.181 748.948 145.992 748.948 Z" fill="#000000" fill-rule="nonzero" fill-opacity="1" /><path clip-path="url(#clip540)" d="M101.756 413.213 Q98.1447 413.213 96.316 416.778 Q94.5104 420.32 94.5104 427.449 Q94.5104 434.556 96.316 438.12 Q98.1447 441.662 101.756 441.662 Q105.39 441.662 107.196 438.12 Q109.024 434.556 109.024 427.449 Q109.024 420.32 107.196 416.778 Q105.39 413.213 101.756 413.213 M101.756 409.509 Q107.566 409.509 110.621 414.116 Q113.7 418.699 113.7 427.449 Q113.7 436.176 110.621 440.782 Q107.566 445.366 101.756 445.366 Q95.9456 445.366 92.8669 440.782 Q89.8114 436.176 89.8114 427.449 Q89.8114 418.699 92.8669 414.116 Q95.9456 409.509 101.756 409.509 Z" fill="#000000" fill-rule="nonzero" fill-opacity="1" /><path clip-path="url(#clip540)" d="M121.918 438.815 L126.802 438.815 L126.802 444.694 L121.918 444.694 L121.918 438.815 Z" fill="#000000" fill-rule="nonzero" fill-opacity="1" /><path clip-path="url(#clip540)" d="M137.033 410.134 L155.39 410.134 L155.39 414.07 L141.316 414.07 L141.316 422.542 Q142.334 422.195 143.353 422.033 Q144.371 421.847 145.39 421.847 Q151.177 421.847 154.556 425.019 Q157.936 428.19 157.936 433.607 Q157.936 439.185 154.464 442.287 Q150.992 445.366 144.672 445.366 Q142.496 445.366 140.228 444.995 Q137.982 444.625 135.575 443.884 L135.575 439.185 Q137.658 440.32 139.881 440.875 Q142.103 441.431 144.58 441.431 Q148.584 441.431 150.922 439.324 Q153.26 437.218 153.26 433.607 Q153.26 429.995 150.922 427.889 Q148.584 425.783 144.58 425.783 Q142.705 425.783 140.83 426.199 Q138.978 426.616 137.033 427.496 L137.033 410.134 Z" fill="#000000" fill-rule="nonzero" fill-opacity="1" /><path clip-path="url(#clip540)" d="M91.5706 101.321 L99.2095 101.321 L99.2095 74.9555 L90.8993 76.6222 L90.8993 72.3629 L99.1632 70.6963 L103.839 70.6963 L103.839 101.321 L111.478 101.321 L111.478 105.256 L91.5706 105.256 L91.5706 101.321 Z" fill="#000000" fill-rule="nonzero" fill-opacity="1" /><path clip-path="url(#clip540)" d="M120.922 99.3767 L125.807 99.3767 L125.807 105.256 L120.922 105.256 L120.922 99.3767 Z" fill="#000000" fill-rule="nonzero" fill-opacity="1" /><path clip-path="url(#clip540)" d="M145.992 73.775 Q142.381 73.775 140.552 77.3398 Q138.746 80.8814 138.746 88.011 Q138.746 95.1174 140.552 98.6822 Q142.381 102.224 145.992 102.224 Q149.626 102.224 151.431 98.6822 Q153.26 95.1174 153.26 88.011 Q153.26 80.8814 151.431 77.3398 Q149.626 73.775 145.992 73.775 M145.992 70.0713 Q151.802 70.0713 154.857 74.6777 Q157.936 79.261 157.936 88.011 Q157.936 96.7378 154.857 101.344 Q151.802 105.928 145.992 105.928 Q140.181 105.928 137.103 101.344 Q134.047 96.7378 134.047 88.011 Q134.047 79.261 137.103 74.6777 Q140.181 70.0713 145.992 70.0713 Z" fill="#000000" fill-rule="nonzero" fill-opacity="1" /><polyline clip-path="url(#clip542)" style="stroke:#009af9; stroke-linecap:round; stroke-linejoin:round; stroke-width:4; stroke-opacity:1; fill:none" points="1273.35,87.9763 1298.99,88.4606 1324.61,89.9128 1350.21,92.3308 1375.75,95.7112 1401.23,100.049 1426.63,105.338 1451.93,111.572 1477.12,118.74 1502.17,126.832 1527.09,135.838 1551.84,145.745 1576.42,156.537 1600.8,168.2 1624.98,180.717 1648.93,194.071 1672.64,208.242 1696.1,223.21 1719.3,238.953 1742.21,255.45 1764.82,272.676 1787.12,290.607 1809.1,309.218 1830.74,328.482 1852.02,348.371 1872.93,368.857 1893.47,389.911 1913.61,411.503 1933.35,433.602 1952.67,456.177 1971.55,479.194 1990,502.622 2007.99,526.427 2025.51,550.575 2042.56,575.032 2059.12,599.762 2075.18,624.731 2090.73,649.903 2105.76,675.241 2120.27,700.71 2134.24,726.273 2147.66,751.895 2160.53,777.537 2172.83,803.165 2184.57,828.74 2195.73,854.228 2206.3,879.59 2216.28,904.792 2225.66,929.797 2234.44,954.57 2242.61,979.074 2250.17,1003.28 2257.1,1027.14 2263.41,1050.63 2269.1,1073.72 2274.15,1096.37 2278.57,1118.55 2282.35,1140.23 2285.49,1161.38 2287.99,1181.96 2289.84,1201.95 2291.05,1221.32 2291.62,1240.04 2291.54,1258.09 2290.81,1275.43 2289.44,1292.05 2287.42,1307.93 2284.76,1323.02 2281.46,1337.33 2277.52,1350.82 2272.95,1363.48 2267.74,1375.28 2261.89,1386.22 2255.43,1396.28 2248.34,1405.44 2240.63,1413.68 2232.3,1421 2223.37,1427.39 2213.84,1432.84 2203.71,1437.34 2192.99,1440.88 2181.69,1443.46 2169.81,1445.07 2157.36,1445.72 2144.36,1445.39 2130.8,1444.1 2116.69,1441.84 2102.05,1438.62 2086.89,1434.45 2071.21,1429.31 2055.02,1423.24 2038.34,1416.22 2021.17,1408.29 2003.53,1399.43 1985.43,1389.67 1966.87,1379.03 1947.88,1367.51 1928.45,1355.13 1908.61,1341.92 1888.37,1327.88 1867.74,1313.04 1846.73,1297.43 1825.36,1281.06 1803.64,1263.95 1781.58,1246.13 1759.2,1227.64 1736.51,1208.48 1713.53,1188.69 1690.26,1168.3 1666.74,1147.34 1642.96,1125.84 1618.95,1103.82 1594.72,1081.32 1570.29,1058.38 1545.67,1035.01 1520.87,1011.27 1495.92,987.177 1470.83,962.77 1445.61,938.082 1420.29,913.151 1394.87,888.011 1369.37,862.698 1343.81,837.248 1318.21,811.698 1292.58,786.083 1266.93,760.442 1241.3,734.809 1215.68,709.222 1190.09,683.718 1164.57,658.332 1139.1,633.101 1113.73,608.06 1088.46,583.247 1063.3,558.695 1038.28,534.44 1013.4,510.517 988.691,486.96 964.162,463.801 939.828,441.076 915.707,418.815 891.812,397.05 868.159,375.814 844.763,355.135 821.639,335.043 798.801,315.568 776.264,296.737 754.043,278.576 732.151,261.112 710.602,244.369 689.41,228.372 668.588,213.143 648.149,198.705 628.108,185.077 608.475,172.279 589.264,160.329 570.487,149.244 552.155,139.041 534.281,129.734 516.876,121.335 499.95,113.858 483.514,107.312 467.58,101.707 452.157,97.0511 437.254,93.3509 422.881,90.6116 409.048,88.8372 395.763,88.0301 383.035,88.1915 370.871,89.3213 359.279,91.4177 348.267,94.4777 337.842,98.4971 328.01,103.47 318.777,109.39 310.15,116.247 302.134,124.033 294.733,132.736 287.953,142.343 281.798,152.842 276.272,164.217 271.378,176.451 267.12,189.528 263.499,203.429 260.519,218.133 258.181,233.62 256.487,249.868 255.438,266.854 255.035,284.553 255.277,302.941 256.165,321.99 257.697,341.673 259.874,361.964 262.694,382.832 266.154,404.248 270.254,426.181 274.989,448.601 280.358,471.474 286.356,494.769 292.98,518.452 300.226,542.49 308.088,566.848 316.563,591.491 325.645,616.384 335.328,641.492 345.606,666.778 356.472,692.208 367.919,717.744 379.94,743.35 392.529,768.99 405.675,794.626 419.372,820.223 433.611,845.744 448.382,871.152 463.676,896.412 479.483,921.486 495.795,946.34 512.599,970.938 529.885,995.245 547.643,1019.23 565.862,1042.85 584.528,1066.07 603.632,1088.87 623.161,1111.21 643.101,1133.06 663.442,1154.39 684.169,1175.16 705.27,1195.36 726.731,1214.94 748.538,1233.88 770.679,1252.15 793.138,1269.73 815.902,1286.6 838.956,1302.72 862.285,1318.08 885.875,1332.65 909.711,1346.41 933.778,1359.35 958.059,1371.44 982.541,1382.67 1007.21,1393.03 1032.04,1402.48 1057.03,1411.03 1082.15,1418.67 1107.4,1425.37 1132.75,1431.13 1158.19,1435.94 1183.71,1439.8 1209.28,1442.7 1234.89,1444.64 1260.52,1445.61 1286.17,1445.61 1311.8,1444.64 1337.41,1442.7 1362.99,1439.8 1388.5,1435.94 1413.94,1431.13 1439.29,1425.37 1464.54,1418.67 1489.66,1411.03 1514.65,1402.48 1539.48,1393.03 1564.15,1382.67 1588.63,1371.44 1612.91,1359.35 1636.98,1346.41 1660.82,1332.65 1684.41,1318.08 1707.74,1302.72 1730.79,1286.6 1753.55,1269.73 1776.01,1252.15 1798.15,1233.88 1819.96,1214.94 1841.42,1195.36 1862.52,1175.16 1883.25,1154.39 1903.59,1133.06 1923.53,1111.21 1943.06,1088.87 1962.16,1066.07 1980.83,1042.85 1999.05,1019.23 2016.81,995.245 2034.09,970.938 2050.9,946.34 2067.21,921.486 2083.02,896.412 2098.31,871.152 2113.08,845.744 2127.32,820.223 2141.02,794.626 2154.16,768.99 2166.75,743.35 2178.77,717.744 2190.22,692.208 2201.09,666.778 2211.36,641.492 2221.05,616.384 2230.13,591.491 2238.6,566.848 2246.47,542.49 2253.71,518.452 2260.34,494.769 2266.33,471.474 2271.7,448.601 2276.44,426.181 2280.54,404.248 2284,382.832 2286.82,361.964 2288.99,341.673 2290.53,321.99 2291.42,302.941 2291.66,284.553 2291.25,266.854 2290.2,249.868 2288.51,233.62 2286.17,218.133 2283.19,203.429 2279.57,189.528 2275.31,176.451 2270.42,164.217 2264.89,152.842 2258.74,142.343 2251.96,132.736 2244.56,124.033 2236.54,116.247 2227.91,109.39 2218.68,103.47 2208.85,98.4971 2198.42,94.4777 2187.41,91.4177 2175.82,89.3213 2163.66,88.1915 2150.93,88.0301 2137.64,88.8372 2123.81,90.6116 2109.44,93.3509 2094.54,97.0511 2079.11,101.707 2063.18,107.312 2046.74,113.858 2029.82,121.335 2012.41,129.734 1994.54,139.041 1976.21,149.244 1957.43,160.329 1938.22,172.279 1918.58,185.077 1898.54,198.705 1878.1,213.143 1857.28,228.372 1836.09,244.369 1814.54,261.112 1792.65,278.576 1770.43,296.737 1747.89,315.568 1725.05,335.043 1701.93,355.135 1678.53,375.814 1654.88,397.05 1630.99,418.815 1606.86,441.076 1582.53,463.801 1558,486.96 1533.29,510.517 1508.42,534.44 1483.39,558.695 1458.24,583.247 1432.96,608.06 1407.59,633.101 1382.13,658.332 1356.6,683.718 1331.01,709.222 1305.4,734.809 1279.76,760.442 1254.11,786.083 1228.48,811.698 1202.88,837.248 1177.32,862.698 1151.83,888.011 1126.41,913.151 1101.08,938.082 1075.86,962.77 1050.77,987.177 1025.82,1011.27 1001.02,1035.01 976.403,1058.38 951.969,1081.32 927.74,1103.82 903.73,1125.84 879.954,1147.34 856.428,1168.3 833.166,1188.69 810.183,1208.48 787.494,1227.64 765.113,1246.13 743.055,1263.95 721.332,1281.06 699.96,1297.43 678.952,1313.04 658.32,1327.88 638.078,1341.92 618.239,1355.13 598.816,1367.51 579.82,1379.03 561.264,1389.67 543.16,1399.43 525.519,1408.29 508.352,1416.22 491.67,1423.24 475.484,1429.31 459.804,1434.45 444.64,1438.62 430.001,1441.84 415.897,1444.1 402.337,1445.39 389.329,1445.72 376.882,1445.07 365.003,1443.46 353.7,1440.88 342.981,1437.34 332.851,1432.84 323.318,1427.39 314.388,1421 306.065,1413.68 298.356,1405.44 291.265,1396.28 284.797,1386.22 278.956,1375.28 273.746,1363.48 269.169,1350.82 265.229,1337.33 261.929,1323.02 259.27,1307.93 257.254,1292.05 255.882,1275.43 255.156,1258.09 255.075,1240.04 255.64,1221.32 256.85,1201.95 258.705,1181.96 261.204,1161.38 264.344,1140.23 268.124,1118.55 272.542,1096.37 277.594,1073.72 283.278,1050.63 289.59,1027.14 296.525,1003.28 304.08,979.074 312.25,954.57 321.029,929.797 330.412,904.792 340.393,879.59 350.965,854.228 362.123,828.74 373.858,803.165 386.164,777.537 399.033,751.895 412.456,726.273 426.424,700.71 440.93,675.241 455.964,649.903 471.516,624.731 487.577,599.762 504.136,575.032 521.182,550.575 538.706,526.427 556.696,502.622 575.14,479.194 594.026,456.177 613.344,433.602 633.08,411.503 653.222,389.911 673.758,368.857 694.673,348.371 715.956,328.482 737.592,309.218 759.568,290.607 781.87,272.676 804.483,255.45 827.394,238.953 850.587,223.21 874.049,208.242 897.764,194.071 921.716,180.717 945.892,168.2 970.276,156.537 994.852,145.745 1019.6,135.838 1044.52,126.832 1069.58,118.74 1094.76,111.572 1120.06,105.338 1145.46,100.049 1170.94,95.7112 1196.49,92.3308 1222.08,89.9128 1247.7,88.4606 1273.35,87.9763 "/>
</svg>
