<?xml version="1.0" encoding="utf-8"?>
<svg xmlns="http://www.w3.org/2000/svg" xmlns:xlink="http://www.w3.org/1999/xlink" width="600" height="400" viewBox="0 0 2400 1600">
<defs>
  <clipPath id="clip490">
    <rect x="0" y="0" width="2400" height="1600"/>
  </clipPath>
</defs>
<path clip-path="url(#clip490)" d="M0 1600 L2400 1600 L2400 0 L0 0  Z" fill="#ffffff" fill-rule="evenodd" fill-opacity="1"/>
<defs>
  <clipPath id="clip491">
    <rect x="480" y="0" width="1681" height="1600"/>
  </clipPath>
</defs>
<path clip-path="url(#clip490)" d="M192.941 1486.45 L2352.76 1486.45 L2352.76 47.2441 L192.941 47.2441  Z" fill="#ffffff" fill-rule="evenodd" fill-opacity="1"/>
<defs>
  <clipPath id="clip492">
    <rect x="192" y="47" width="2161" height="1440"/>
  </clipPath>
</defs>
<polyline clip-path="url(#clip492)" style="stroke:#000000; stroke-linecap:round; stroke-linejoin:round; stroke-width:2; stroke-opacity:0.1; fill:none" points="592.457,1486.45 592.457,47.2441 "/>
<polyline clip-path="url(#clip492)" style="stroke:#000000; stroke-linecap:round; stroke-linejoin:round; stroke-width:2; stroke-opacity:0.1; fill:none" points="1102.21,1486.45 1102.21,47.2441 "/>
<polyline clip-path="url(#clip492)" style="stroke:#000000; stroke-linecap:round; stroke-linejoin:round; stroke-width:2; stroke-opacity:0.1; fill:none" points="1611.96,1486.45 1611.96,47.2441 "/>
<polyline clip-path="url(#clip492)" style="stroke:#000000; stroke-linecap:round; stroke-linejoin:round; stroke-width:2; stroke-opacity:0.1; fill:none" points="2121.71,1486.45 2121.71,47.2441 "/>
<polyline clip-path="url(#clip490)" style="stroke:#000000; stroke-linecap:round; stroke-linejoin:round; stroke-width:4; stroke-opacity:1; fill:none" points="192.941,1486.45 2352.76,1486.45 "/>
<polyline clip-path="url(#clip490)" style="stroke:#000000; stroke-linecap:round; stroke-linejoin:round; stroke-width:4; stroke-opacity:1; fill:none" points="592.457,1486.45 592.457,1467.55 "/>
<polyline clip-path="url(#clip490)" style="stroke:#000000; stroke-linecap:round; stroke-linejoin:round; stroke-width:4; stroke-opacity:1; fill:none" points="1102.21,1486.45 1102.21,1467.55 "/>
<polyline clip-path="url(#clip490)" style="stroke:#000000; stroke-linecap:round; stroke-linejoin:round; stroke-width:4; stroke-opacity:1; fill:none" points="1611.96,1486.45 1611.96,1467.55 "/>
<polyline clip-path="url(#clip490)" style="stroke:#000000; stroke-linecap:round; stroke-linejoin:round; stroke-width:4; stroke-opacity:1; fill:none" points="2121.71,1486.45 2121.71,1467.55 "/>
<path clip-path="url(#clip490)" d="M562.214 1532.02 L591.89 1532.02 L591.89 1535.95 L562.214 1535.95 L562.214 1532.02 Z" fill="#000000" fill-rule="nonzero" fill-opacity="1" /><path clip-path="url(#clip490)" d="M602.793 1544.91 L610.431 1544.91 L610.431 1518.55 L602.121 1520.21 L602.121 1515.95 L610.385 1514.29 L615.061 1514.29 L615.061 1544.91 L622.7 1544.91 L622.7 1548.85 L602.793 1548.85 L602.793 1544.91 Z" fill="#000000" fill-rule="nonzero" fill-opacity="1" /><path clip-path="url(#clip490)" d="M1102.21 1517.37 Q1098.6 1517.37 1096.77 1520.93 Q1094.96 1524.47 1094.96 1531.6 Q1094.96 1538.71 1096.77 1542.27 Q1098.6 1545.82 1102.21 1545.82 Q1105.84 1545.82 1107.65 1542.27 Q1109.48 1538.71 1109.48 1531.6 Q1109.48 1524.47 1107.65 1520.93 Q1105.84 1517.37 1102.21 1517.37 M1102.21 1513.66 Q1108.02 1513.66 1111.07 1518.27 Q1114.15 1522.85 1114.15 1531.6 Q1114.15 1540.33 1111.07 1544.94 Q1108.02 1549.52 1102.21 1549.52 Q1096.4 1549.52 1093.32 1544.94 Q1090.26 1540.33 1090.26 1531.6 Q1090.26 1522.85 1093.32 1518.27 Q1096.4 1513.66 1102.21 1513.66 Z" fill="#000000" fill-rule="nonzero" fill-opacity="1" /><path clip-path="url(#clip490)" d="M1602.34 1544.91 L1609.98 1544.91 L1609.98 1518.55 L1601.67 1520.21 L1601.67 1515.95 L1609.93 1514.29 L1614.61 1514.29 L1614.61 1544.91 L1622.25 1544.91 L1622.25 1548.85 L1602.34 1548.85 L1602.34 1544.91 Z" fill="#000000" fill-rule="nonzero" fill-opacity="1" /><path clip-path="url(#clip490)" d="M2116.36 1544.91 L2132.68 1544.91 L2132.68 1548.85 L2110.74 1548.85 L2110.74 1544.91 Q2113.4 1542.16 2117.99 1537.53 Q2122.59 1532.88 2123.77 1531.53 Q2126.02 1529.01 2126.9 1527.27 Q2127.8 1525.51 2127.8 1523.82 Q2127.8 1521.07 2125.86 1519.33 Q2123.93 1517.6 2120.83 1517.6 Q2118.63 1517.6 2116.18 1518.36 Q2113.75 1519.13 2110.97 1520.68 L2110.97 1515.95 Q2113.8 1514.82 2116.25 1514.24 Q2118.7 1513.66 2120.74 1513.66 Q2126.11 1513.66 2129.3 1516.35 Q2132.5 1519.03 2132.5 1523.52 Q2132.5 1525.65 2131.69 1527.57 Q2130.9 1529.47 2128.8 1532.07 Q2128.22 1532.74 2125.11 1535.95 Q2122.01 1539.15 2116.36 1544.91 Z" fill="#000000" fill-rule="nonzero" fill-opacity="1" /><polyline clip-path="url(#clip492)" style="stroke:#000000; stroke-linecap:round; stroke-linejoin:round; stroke-width:2; stroke-opacity:0.1; fill:none" points="192.941,1276.18 2352.76,1276.18 "/>
<polyline clip-path="url(#clip492)" style="stroke:#000000; stroke-linecap:round; stroke-linejoin:round; stroke-width:2; stroke-opacity:0.1; fill:none" points="192.941,936.624 2352.76,936.624 "/>
<polyline clip-path="url(#clip492)" style="stroke:#000000; stroke-linecap:round; stroke-linejoin:round; stroke-width:2; stroke-opacity:0.1; fill:none" points="192.941,597.068 2352.76,597.068 "/>
<polyline clip-path="url(#clip492)" style="stroke:#000000; stroke-linecap:round; stroke-linejoin:round; stroke-width:2; stroke-opacity:0.1; fill:none" points="192.941,257.513 2352.76,257.513 "/>
<polyline clip-path="url(#clip490)" style="stroke:#000000; stroke-linecap:round; stroke-linejoin:round; stroke-width:4; stroke-opacity:1; fill:none" points="192.941,1486.45 192.941,47.2441 "/>
<polyline clip-path="url(#clip490)" style="stroke:#000000; stroke-linecap:round; stroke-linejoin:round; stroke-width:4; stroke-opacity:1; fill:none" points="192.941,1276.18 211.838,1276.18 "/>
<polyline clip-path="url(#clip490)" style="stroke:#000000; stroke-linecap:round; stroke-linejoin:round; stroke-width:4; stroke-opacity:1; fill:none" points="192.941,936.624 211.838,936.624 "/>
<polyline clip-path="url(#clip490)" style="stroke:#000000; stroke-linecap:round; stroke-linejoin:round; stroke-width:4; stroke-opacity:1; fill:none" points="192.941,597.068 211.838,597.068 "/>
<polyline clip-path="url(#clip490)" style="stroke:#000000; stroke-linecap:round; stroke-linejoin:round; stroke-width:4; stroke-opacity:1; fill:none" points="192.941,257.513 211.838,257.513 "/>
<path clip-path="url(#clip490)" d="M50.9921 1276.63 L80.6679 1276.63 L80.6679 1280.57 L50.9921 1280.57 L50.9921 1276.63 Z" fill="#000000" fill-rule="nonzero" fill-opacity="1" /><path clip-path="url(#clip490)" d="M100.76 1261.98 Q97.1493 1261.98 95.3206 1265.54 Q93.515 1269.08 93.515 1276.21 Q93.515 1283.32 95.3206 1286.88 Q97.1493 1290.43 100.76 1290.43 Q104.395 1290.43 106.2 1286.88 Q108.029 1283.32 108.029 1276.21 Q108.029 1269.08 106.2 1265.54 Q104.395 1261.98 100.76 1261.98 M100.76 1258.27 Q106.571 1258.27 109.626 1262.88 Q112.705 1267.46 112.705 1276.21 Q112.705 1284.94 109.626 1289.55 Q106.571 1294.13 100.76 1294.13 Q94.9502 1294.13 91.8715 1289.55 Q88.816 1284.94 88.816 1276.21 Q88.816 1267.46 91.8715 1262.88 Q94.9502 1258.27 100.76 1258.27 Z" fill="#000000" fill-rule="nonzero" fill-opacity="1" /><path clip-path="url(#clip490)" d="M120.922 1287.58 L125.807 1287.58 L125.807 1293.46 L120.922 1293.46 L120.922 1287.58 Z" fill="#000000" fill-rule="nonzero" fill-opacity="1" /><path clip-path="url(#clip490)" d="M136.038 1258.9 L154.394 1258.9 L154.394 1262.83 L140.32 1262.83 L140.32 1271.31 Q141.339 1270.96 142.357 1270.8 Q143.376 1270.61 144.394 1270.61 Q150.181 1270.61 153.561 1273.78 Q156.941 1276.95 156.941 1282.37 Q156.941 1287.95 153.468 1291.05 Q149.996 1294.13 143.677 1294.13 Q141.501 1294.13 139.232 1293.76 Q136.987 1293.39 134.58 1292.65 L134.58 1287.95 Q136.663 1289.08 138.885 1289.64 Q141.107 1290.19 143.584 1290.19 Q147.589 1290.19 149.927 1288.09 Q152.265 1285.98 152.265 1282.37 Q152.265 1278.76 149.927 1276.65 Q147.589 1274.55 143.584 1274.55 Q141.709 1274.55 139.834 1274.96 Q137.982 1275.38 136.038 1276.26 L136.038 1258.9 Z" fill="#000000" fill-rule="nonzero" fill-opacity="1" /><path clip-path="url(#clip490)" d="M99.765 922.422 Q96.1539 922.422 94.3252 925.987 Q92.5197 929.529 92.5197 936.658 Q92.5197 943.765 94.3252 947.33 Q96.1539 950.871 99.765 950.871 Q103.399 950.871 105.205 947.33 Q107.033 943.765 107.033 936.658 Q107.033 929.529 105.205 925.987 Q103.399 922.422 99.765 922.422 M99.765 918.719 Q105.575 918.719 108.631 923.325 Q111.709 927.908 111.709 936.658 Q111.709 945.385 108.631 949.992 Q105.575 954.575 99.765 954.575 Q93.9549 954.575 90.8762 949.992 Q87.8206 945.385 87.8206 936.658 Q87.8206 927.908 90.8762 923.325 Q93.9549 918.719 99.765 918.719 Z" fill="#000000" fill-rule="nonzero" fill-opacity="1" /><path clip-path="url(#clip490)" d="M119.927 948.024 L124.811 948.024 L124.811 953.904 L119.927 953.904 L119.927 948.024 Z" fill="#000000" fill-rule="nonzero" fill-opacity="1" /><path clip-path="url(#clip490)" d="M144.996 922.422 Q141.385 922.422 139.556 925.987 Q137.751 929.529 137.751 936.658 Q137.751 943.765 139.556 947.33 Q141.385 950.871 144.996 950.871 Q148.63 950.871 150.436 947.33 Q152.265 943.765 152.265 936.658 Q152.265 929.529 150.436 925.987 Q148.63 922.422 144.996 922.422 M144.996 918.719 Q150.806 918.719 153.862 923.325 Q156.941 927.908 156.941 936.658 Q156.941 945.385 153.862 949.992 Q150.806 954.575 144.996 954.575 Q139.186 954.575 136.107 949.992 Q133.052 945.385 133.052 936.658 Q133.052 927.908 136.107 923.325 Q139.186 918.719 144.996 918.719 Z" fill="#000000" fill-rule="nonzero" fill-opacity="1" /><path clip-path="url(#clip490)" d="M100.76 582.867 Q97.1493 582.867 95.3206 586.432 Q93.515 589.974 93.515 597.103 Q93.515 604.21 95.3206 607.774 Q97.1493 611.316 100.76 611.316 Q104.395 611.316 106.2 607.774 Q108.029 604.21 108.029 597.103 Q108.029 589.974 106.2 586.432 Q104.395 582.867 100.76 582.867 M100.76 579.163 Q106.571 579.163 109.626 583.77 Q112.705 588.353 112.705 597.103 Q112.705 605.83 109.626 610.436 Q106.571 615.02 100.76 615.02 Q94.9502 615.02 91.8715 610.436 Q88.816 605.83 88.816 597.103 Q88.816 588.353 91.8715 583.77 Q94.9502 579.163 100.76 579.163 Z" fill="#000000" fill-rule="nonzero" fill-opacity="1" /><path clip-path="url(#clip490)" d="M120.922 608.469 L125.807 608.469 L125.807 614.348 L120.922 614.348 L120.922 608.469 Z" fill="#000000" fill-rule="nonzero" fill-opacity="1" /><path clip-path="url(#clip490)" d="M136.038 579.788 L154.394 579.788 L154.394 583.724 L140.32 583.724 L140.32 592.196 Q141.339 591.849 142.357 591.686 Q143.376 591.501 144.394 591.501 Q150.181 591.501 153.561 594.673 Q156.941 597.844 156.941 603.26 Q156.941 608.839 153.468 611.941 Q149.996 615.02 143.677 615.02 Q141.501 615.02 139.232 614.649 Q136.987 614.279 134.58 613.538 L134.58 608.839 Q136.663 609.973 138.885 610.529 Q141.107 611.085 143.584 611.085 Q147.589 611.085 149.927 608.978 Q152.265 606.872 152.265 603.26 Q152.265 599.649 149.927 597.543 Q147.589 595.436 143.584 595.436 Q141.709 595.436 139.834 595.853 Q137.982 596.27 136.038 597.149 L136.038 579.788 Z" fill="#000000" fill-rule="nonzero" fill-opacity="1" /><path clip-path="url(#clip490)" d="M90.5752 270.858 L98.2141 270.858 L98.2141 244.492 L89.904 246.159 L89.904 241.9 L98.1678 240.233 L102.844 240.233 L102.844 270.858 L110.483 270.858 L110.483 274.793 L90.5752 274.793 L90.5752 270.858 Z" fill="#000000" fill-rule="nonzero" fill-opacity="1" /><path clip-path="url(#clip490)" d="M119.927 268.914 L124.811 268.914 L124.811 274.793 L119.927 274.793 L119.927 268.914 Z" fill="#000000" fill-rule="nonzero" fill-opacity="1" /><path clip-path="url(#clip490)" d="M144.996 243.312 Q141.385 243.312 139.556 246.877 Q137.751 250.418 137.751 257.548 Q137.751 264.654 139.556 268.219 Q141.385 271.761 144.996 271.761 Q148.63 271.761 150.436 268.219 Q152.265 264.654 152.265 257.548 Q152.265 250.418 150.436 246.877 Q148.63 243.312 144.996 243.312 M144.996 239.608 Q150.806 239.608 153.862 244.215 Q156.941 248.798 156.941 257.548 Q156.941 266.275 153.862 270.881 Q150.806 275.464 144.996 275.464 Q139.186 275.464 136.107 270.881 Q133.052 266.275 133.052 257.548 Q133.052 248.798 136.107 244.215 Q139.186 239.608 144.996 239.608 Z" fill="#000000" fill-rule="nonzero" fill-opacity="1" /><polyline clip-path="url(#clip492)" style="stroke:#009af9; stroke-linecap:round; stroke-linejoin:round; stroke-width:4; stroke-opacity:1; fill:none" points="2291.63,766.846 2285.85,694.661 2268.59,623.294 2240.04,553.553 2200.52,486.229 2150.48,422.085 2090.49,361.847 2021.23,306.197 1943.48,255.767 1858.12,211.128 1766.13,172.785 1668.53,141.173 1566.45,116.651 1461.03,99.495 1353.47,89.9006 1244.99,87.9763 1136.81,93.7438 1030.17,107.138 926.271,128.007 826.29,156.114 731.36,191.141 642.557,232.691 560.888,280.293 487.278,333.408 422.56,391.434 367.467,453.713 322.626,519.541 288.542,588.17 265.602,658.824 254.067,730.702 254.067,802.99 265.602,874.868 288.542,945.522 322.626,1014.15 367.467,1079.98 422.56,1142.26 487.278,1200.28 560.888,1253.4 642.557,1301 731.36,1342.55 826.29,1377.58 926.271,1405.69 1030.17,1426.55 1136.81,1439.95 1244.99,1445.72 1353.47,1443.79 1461.03,1434.2 1566.45,1417.04 1668.53,1392.52 1766.13,1360.91 1858.12,1322.56 1943.48,1277.92 2021.23,1227.49 2090.49,1171.85 2150.48,1111.61 2200.52,1047.46 2240.04,980.139 2268.59,910.398 2285.85,839.031 2291.63,766.846 "/>
<polyline clip-path="url(#clip492)" style="stroke:#e26f46; stroke-linecap:round; stroke-linejoin:round; stroke-width:4; stroke-opacity:1; fill:none" points="1272.13,710.253 1244.07,675.443 1214.41,643.593 1183.48,615.062 1151.62,590.175 1119.21,569.213 1086.6,552.414 1054.17,539.968 1022.29,532.017 991.309,528.65 961.586,529.905 933.456,535.769 907.239,546.175 883.23,561.004 861.702,580.09 842.9,603.215 827.035,630.118 814.289,660.493 804.804,693.997 798.69,730.251 796.014,768.842 796.808,809.335 801.061,851.27 808.728,894.172 819.719,937.555 833.911,980.927 851.143,1023.8 871.219,1065.68 893.913,1106.1 918.967,1144.6 946.097,1180.74 974.996,1214.12 1005.34,1244.36 1036.77,1271.1 1068.95,1294.06 1101.51,1312.97 1134.07,1327.61 1166.28,1337.82 1197.75,1343.49 1228.15,1344.55 1257.12,1340.98 1284.33,1332.84 1309.48,1320.2 1332.28,1303.22 1352.47,1282.08 1369.83,1257.04 1384.15,1228.36 1395.29,1196.37 1403.1,1161.44 1407.5,1123.97 1408.44,1084.37 1405.91,1043.1 1399.94,1000.62 1390.6,957.413 1377.99,913.974 1362.26,870.791 1343.58,828.355 1322.16,787.145 1298.25,747.628 1272.13,710.253 "/>
<path clip-path="url(#clip490)" d="M2012.56 250.738 L2280.76 250.738 L2280.76 95.2176 L2012.56 95.2176  Z" fill="#ffffff" fill-rule="evenodd" fill-opacity="1"/>
<polyline clip-path="url(#clip490)" style="stroke:#000000; stroke-linecap:round; stroke-linejoin:round; stroke-width:4; stroke-opacity:1; fill:none" points="2012.56,250.738 2280.76,250.738 2280.76,95.2176 2012.56,95.2176 2012.56,250.738 "/>
<polyline clip-path="url(#clip490)" style="stroke:#009af9; stroke-linecap:round; stroke-linejoin:round; stroke-width:4; stroke-opacity:1; fill:none" points="2036.56,147.058 2180.54,147.058 "/>
<path clip-path="url(#clip490)" d="M2204.54 129.778 L2209.22 129.778 L2209.22 144.384 L2224.73 129.778 L2230.75 129.778 L2213.59 145.889 L2231.97 164.338 L2225.82 164.338 L2209.22 147.694 L2209.22 164.338 L2204.54 164.338 L2204.54 129.778 Z" fill="#000000" fill-rule="nonzero" fill-opacity="1" /><path clip-path="url(#clip490)" d="M2236.86 160.402 L2244.5 160.402 L2244.5 134.037 L2236.19 135.703 L2236.19 131.444 L2244.45 129.778 L2249.13 129.778 L2249.13 160.402 L2256.76 160.402 L2256.76 164.338 L2236.86 164.338 L2236.86 160.402 Z" fill="#000000" fill-rule="nonzero" fill-opacity="1" /><polyline clip-path="url(#clip490)" style="stroke:#e26f46; stroke-linecap:round; stroke-linejoin:round; stroke-width:4; stroke-opacity:1; fill:none" points="2036.56,198.898 2180.54,198.898 "/>
<path clip-path="url(#clip490)" d="M2204.54 181.618 L2209.22 181.618 L2209.22 196.224 L2224.73 181.618 L2230.75 181.618 L2213.59 197.729 L2231.97 216.178 L2225.82 216.178 L2209.22 199.534 L2209.22 216.178 L2204.54 216.178 L2204.54 181.618 Z" fill="#000000" fill-rule="nonzero" fill-opacity="1" /><path clip-path="url(#clip490)" d="M2240.07 212.242 L2256.39 212.242 L2256.39 216.178 L2234.45 216.178 L2234.45 212.242 Q2237.11 209.488 2241.69 204.858 Q2246.3 200.205 2247.48 198.863 Q2249.73 196.34 2250.61 194.604 Q2251.51 192.844 2251.51 191.155 Q2251.51 188.4 2249.57 186.664 Q2247.64 184.928 2244.54 184.928 Q2242.34 184.928 2239.89 185.692 Q2237.46 186.455 2234.68 188.006 L2234.68 183.284 Q2237.5 182.15 2239.96 181.571 Q2242.41 180.993 2244.45 180.993 Q2249.82 180.993 2253.01 183.678 Q2256.21 186.363 2256.21 190.854 Q2256.21 192.983 2255.4 194.905 Q2254.61 196.803 2252.5 199.395 Q2251.93 200.067 2248.82 203.284 Q2245.72 206.479 2240.07 212.242 Z" fill="#000000" fill-rule="nonzero" fill-opacity="1" /></svg>
