<?xml version="1.0" encoding="utf-8"?>
<svg xmlns="http://www.w3.org/2000/svg" xmlns:xlink="http://www.w3.org/1999/xlink" width="600" height="400" viewBox="0 0 2400 1600">
<defs>
  <clipPath id="clip120">
    <rect x="0" y="0" width="2400" height="1600"/>
  </clipPath>
</defs>
<path clip-path="url(#clip120)" d="M0 1600 L2400 1600 L2400 0 L0 0  Z" fill="#ffffff" fill-rule="evenodd" fill-opacity="1"/>
<defs>
  <clipPath id="clip121">
    <rect x="480" y="0" width="1681" height="1600"/>
  </clipPath>
</defs>
<path clip-path="url(#clip120)" d="M192.941 1486.45 L2352.76 1486.45 L2352.76 47.2441 L192.941 47.2441  Z" fill="#ffffff" fill-rule="evenodd" fill-opacity="1"/>
<defs>
  <clipPath id="clip122">
    <rect x="192" y="47" width="2161" height="1440"/>
  </clipPath>
</defs>
<polyline clip-path="url(#clip122)" style="stroke:#000000; stroke-linecap:round; stroke-linejoin:round; stroke-width:2; stroke-opacity:0.1; fill:none" points="593.234,1486.45 593.234,47.2441 "/>
<polyline clip-path="url(#clip122)" style="stroke:#000000; stroke-linecap:round; stroke-linejoin:round; stroke-width:2; stroke-opacity:0.1; fill:none" points="1102.75,1486.45 1102.75,47.2441 "/>
<polyline clip-path="url(#clip122)" style="stroke:#000000; stroke-linecap:round; stroke-linejoin:round; stroke-width:2; stroke-opacity:0.1; fill:none" points="1612.27,1486.45 1612.27,47.2441 "/>
<polyline clip-path="url(#clip122)" style="stroke:#000000; stroke-linecap:round; stroke-linejoin:round; stroke-width:2; stroke-opacity:0.1; fill:none" points="2121.79,1486.45 2121.79,47.2441 "/>
<polyline clip-path="url(#clip120)" style="stroke:#000000; stroke-linecap:round; stroke-linejoin:round; stroke-width:4; stroke-opacity:1; fill:none" points="192.941,1486.45 2352.76,1486.45 "/>
<polyline clip-path="url(#clip120)" style="stroke:#000000; stroke-linecap:round; stroke-linejoin:round; stroke-width:4; stroke-opacity:1; fill:none" points="593.234,1486.45 593.234,1467.55 "/>
<polyline clip-path="url(#clip120)" style="stroke:#000000; stroke-linecap:round; stroke-linejoin:round; stroke-width:4; stroke-opacity:1; fill:none" points="1102.75,1486.45 1102.75,1467.55 "/>
<polyline clip-path="url(#clip120)" style="stroke:#000000; stroke-linecap:round; stroke-linejoin:round; stroke-width:4; stroke-opacity:1; fill:none" points="1612.27,1486.45 1612.27,1467.55 "/>
<polyline clip-path="url(#clip120)" style="stroke:#000000; stroke-linecap:round; stroke-linejoin:round; stroke-width:4; stroke-opacity:1; fill:none" points="2121.79,1486.45 2121.79,1467.55 "/>
<path clip-path="url(#clip120)" d="M562.991 1532.02 L592.666 1532.02 L592.666 1535.95 L562.991 1535.95 L562.991 1532.02 Z" fill="#000000" fill-rule="nonzero" fill-opacity="1" /><path clip-path="url(#clip120)" d="M603.569 1544.91 L611.208 1544.91 L611.208 1518.55 L602.898 1520.21 L602.898 1515.95 L611.162 1514.29 L615.838 1514.29 L615.838 1544.91 L623.476 1544.91 L623.476 1548.85 L603.569 1548.85 L603.569 1544.91 Z" fill="#000000" fill-rule="nonzero" fill-opacity="1" /><path clip-path="url(#clip120)" d="M1102.75 1517.37 Q1099.14 1517.37 1097.31 1520.93 Q1095.51 1524.47 1095.51 1531.6 Q1095.51 1538.71 1097.31 1542.27 Q1099.14 1545.82 1102.75 1545.82 Q1106.39 1545.82 1108.19 1542.27 Q1110.02 1538.71 1110.02 1531.6 Q1110.02 1524.47 1108.19 1520.93 Q1106.39 1517.37 1102.75 1517.37 M1102.75 1513.66 Q1108.56 1513.66 1111.62 1518.27 Q1114.7 1522.85 1114.7 1531.6 Q1114.7 1540.33 1111.62 1544.94 Q1108.56 1549.52 1102.75 1549.52 Q1096.94 1549.52 1093.86 1544.94 Q1090.81 1540.33 1090.81 1531.6 Q1090.81 1522.85 1093.86 1518.27 Q1096.94 1513.66 1102.75 1513.66 Z" fill="#000000" fill-rule="nonzero" fill-opacity="1" /><path clip-path="url(#clip120)" d="M1602.65 1544.91 L1610.29 1544.91 L1610.29 1518.55 L1601.98 1520.21 L1601.98 1515.95 L1610.25 1514.29 L1614.92 1514.29 L1614.92 1544.91 L1622.56 1544.91 L1622.56 1548.85 L1602.65 1548.85 L1602.65 1544.91 Z" fill="#000000" fill-rule="nonzero" fill-opacity="1" /><path clip-path="url(#clip120)" d="M2116.44 1544.91 L2132.76 1544.91 L2132.76 1548.85 L2110.82 1548.85 L2110.82 1544.91 Q2113.48 1542.16 2118.06 1537.53 Q2122.67 1532.88 2123.85 1531.53 Q2126.1 1529.01 2126.97 1527.27 Q2127.88 1525.51 2127.88 1523.82 Q2127.88 1521.07 2125.93 1519.33 Q2124.01 1517.6 2120.91 1517.6 Q2118.71 1517.6 2116.26 1518.36 Q2113.83 1519.13 2111.05 1520.68 L2111.05 1515.95 Q2113.87 1514.82 2116.33 1514.24 Q2118.78 1513.66 2120.82 1513.66 Q2126.19 1513.66 2129.38 1516.35 Q2132.58 1519.03 2132.58 1523.52 Q2132.58 1525.65 2131.77 1527.57 Q2130.98 1529.47 2128.87 1532.07 Q2128.29 1532.74 2125.19 1535.95 Q2122.09 1539.15 2116.44 1544.91 Z" fill="#000000" fill-rule="nonzero" fill-opacity="1" /><polyline clip-path="url(#clip122)" style="stroke:#000000; stroke-linecap:round; stroke-linejoin:round; stroke-width:2; stroke-opacity:0.1; fill:none" points="192.941,1276.06 2352.76,1276.06 "/>
<polyline clip-path="url(#clip122)" style="stroke:#000000; stroke-linecap:round; stroke-linejoin:round; stroke-width:2; stroke-opacity:0.1; fill:none" points="192.941,936.585 2352.76,936.585 "/>
<polyline clip-path="url(#clip122)" style="stroke:#000000; stroke-linecap:round; stroke-linejoin:round; stroke-width:2; stroke-opacity:0.1; fill:none" points="192.941,597.107 2352.76,597.107 "/>
<polyline clip-path="url(#clip122)" style="stroke:#000000; stroke-linecap:round; stroke-linejoin:round; stroke-width:2; stroke-opacity:0.1; fill:none" points="192.941,257.63 2352.76,257.63 "/>
<polyline clip-path="url(#clip120)" style="stroke:#000000; stroke-linecap:round; stroke-linejoin:round; stroke-width:4; stroke-opacity:1; fill:none" points="192.941,1486.45 192.941,47.2441 "/>
<polyline clip-path="url(#clip120)" style="stroke:#000000; stroke-linecap:round; stroke-linejoin:round; stroke-width:4; stroke-opacity:1; fill:none" points="192.941,1276.06 211.838,1276.06 "/>
<polyline clip-path="url(#clip120)" style="stroke:#000000; stroke-linecap:round; stroke-linejoin:round; stroke-width:4; stroke-opacity:1; fill:none" points="192.941,936.585 211.838,936.585 "/>
<polyline clip-path="url(#clip120)" style="stroke:#000000; stroke-linecap:round; stroke-linejoin:round; stroke-width:4; stroke-opacity:1; fill:none" points="192.941,597.107 211.838,597.107 "/>
<polyline clip-path="url(#clip120)" style="stroke:#000000; stroke-linecap:round; stroke-linejoin:round; stroke-width:4; stroke-opacity:1; fill:none" points="192.941,257.63 211.838,257.63 "/>
<path clip-path="url(#clip120)" d="M50.9921 1276.51 L80.6679 1276.51 L80.6679 1280.45 L50.9921 1280.45 L50.9921 1276.51 Z" fill="#000000" fill-rule="nonzero" fill-opacity="1" /><path clip-path="url(#clip120)" d="M100.76 1261.86 Q97.1493 1261.86 95.3206 1265.43 Q93.515 1268.97 93.515 1276.1 Q93.515 1283.2 95.3206 1286.77 Q97.1493 1290.31 100.76 1290.31 Q104.395 1290.31 106.2 1286.77 Q108.029 1283.2 108.029 1276.1 Q108.029 1268.97 106.2 1265.43 Q104.395 1261.86 100.76 1261.86 M100.76 1258.16 Q106.571 1258.16 109.626 1262.76 Q112.705 1267.35 112.705 1276.1 Q112.705 1284.82 109.626 1289.43 Q106.571 1294.01 100.76 1294.01 Q94.9502 1294.01 91.8715 1289.43 Q88.816 1284.82 88.816 1276.1 Q88.816 1267.35 91.8715 1262.76 Q94.9502 1258.16 100.76 1258.16 Z" fill="#000000" fill-rule="nonzero" fill-opacity="1" /><path clip-path="url(#clip120)" d="M120.922 1287.46 L125.807 1287.46 L125.807 1293.34 L120.922 1293.34 L120.922 1287.46 Z" fill="#000000" fill-rule="nonzero" fill-opacity="1" /><path clip-path="url(#clip120)" d="M136.038 1258.78 L154.394 1258.78 L154.394 1262.72 L140.32 1262.72 L140.32 1271.19 Q141.339 1270.84 142.357 1270.68 Q143.376 1270.5 144.394 1270.5 Q150.181 1270.5 153.561 1273.67 Q156.941 1276.84 156.941 1282.25 Q156.941 1287.83 153.468 1290.93 Q149.996 1294.01 143.677 1294.01 Q141.501 1294.01 139.232 1293.64 Q136.987 1293.27 134.58 1292.53 L134.58 1287.83 Q136.663 1288.97 138.885 1289.52 Q141.107 1290.08 143.584 1290.08 Q147.589 1290.08 149.927 1287.97 Q152.265 1285.87 152.265 1282.25 Q152.265 1278.64 149.927 1276.54 Q147.589 1274.43 143.584 1274.43 Q141.709 1274.43 139.834 1274.85 Q137.982 1275.26 136.038 1276.14 L136.038 1258.78 Z" fill="#000000" fill-rule="nonzero" fill-opacity="1" /><path clip-path="url(#clip120)" d="M99.765 922.383 Q96.1539 922.383 94.3252 925.948 Q92.5197 929.49 92.5197 936.619 Q92.5197 943.726 94.3252 947.291 Q96.1539 950.832 99.765 950.832 Q103.399 950.832 105.205 947.291 Q107.033 943.726 107.033 936.619 Q107.033 929.49 105.205 925.948 Q103.399 922.383 99.765 922.383 M99.765 918.68 Q105.575 918.68 108.631 923.286 Q111.709 927.87 111.709 936.619 Q111.709 945.346 108.631 949.953 Q105.575 954.536 99.765 954.536 Q93.9549 954.536 90.8762 949.953 Q87.8206 945.346 87.8206 936.619 Q87.8206 927.87 90.8762 923.286 Q93.9549 918.68 99.765 918.68 Z" fill="#000000" fill-rule="nonzero" fill-opacity="1" /><path clip-path="url(#clip120)" d="M119.927 947.985 L124.811 947.985 L124.811 953.865 L119.927 953.865 L119.927 947.985 Z" fill="#000000" fill-rule="nonzero" fill-opacity="1" /><path clip-path="url(#clip120)" d="M144.996 922.383 Q141.385 922.383 139.556 925.948 Q137.751 929.49 137.751 936.619 Q137.751 943.726 139.556 947.291 Q141.385 950.832 144.996 950.832 Q148.63 950.832 150.436 947.291 Q152.265 943.726 152.265 936.619 Q152.265 929.49 150.436 925.948 Q148.63 922.383 144.996 922.383 M144.996 918.68 Q150.806 918.68 153.862 923.286 Q156.941 927.87 156.941 936.619 Q156.941 945.346 153.862 949.953 Q150.806 954.536 144.996 954.536 Q139.186 954.536 136.107 949.953 Q133.052 945.346 133.052 936.619 Q133.052 927.87 136.107 923.286 Q139.186 918.68 144.996 918.68 Z" fill="#000000" fill-rule="nonzero" fill-opacity="1" /><path clip-path="url(#clip120)" d="M100.76 582.906 Q97.1493 582.906 95.3206 586.471 Q93.515 590.012 93.515 597.142 Q93.515 604.248 95.3206 607.813 Q97.1493 611.355 100.76 611.355 Q104.395 611.355 106.2 607.813 Q108.029 604.248 108.029 597.142 Q108.029 590.012 106.2 586.471 Q104.395 582.906 100.76 582.906 M100.76 579.202 Q106.571 579.202 109.626 583.809 Q112.705 588.392 112.705 597.142 Q112.705 605.869 109.626 610.475 Q106.571 615.058 100.76 615.058 Q94.9502 615.058 91.8715 610.475 Q88.816 605.869 88.816 597.142 Q88.816 588.392 91.8715 583.809 Q94.9502 579.202 100.76 579.202 Z" fill="#000000" fill-rule="nonzero" fill-opacity="1" /><path clip-path="url(#clip120)" d="M120.922 608.508 L125.807 608.508 L125.807 614.387 L120.922 614.387 L120.922 608.508 Z" fill="#000000" fill-rule="nonzero" fill-opacity="1" /><path clip-path="url(#clip120)" d="M136.038 579.827 L154.394 579.827 L154.394 583.762 L140.32 583.762 L140.32 592.235 Q141.339 591.887 142.357 591.725 Q143.376 591.54 144.394 591.54 Q150.181 591.54 153.561 594.711 Q156.941 597.883 156.941 603.299 Q156.941 608.878 153.468 611.98 Q149.996 615.058 143.677 615.058 Q141.501 615.058 139.232 614.688 Q136.987 614.318 134.58 613.577 L134.58 608.878 Q136.663 610.012 138.885 610.568 Q141.107 611.123 143.584 611.123 Q147.589 611.123 149.927 609.017 Q152.265 606.91 152.265 603.299 Q152.265 599.688 149.927 597.582 Q147.589 595.475 143.584 595.475 Q141.709 595.475 139.834 595.892 Q137.982 596.309 136.038 597.188 L136.038 579.827 Z" fill="#000000" fill-rule="nonzero" fill-opacity="1" /><path clip-path="url(#clip120)" d="M90.5752 270.974 L98.2141 270.974 L98.2141 244.609 L89.904 246.276 L89.904 242.016 L98.1678 240.35 L102.844 240.35 L102.844 270.974 L110.483 270.974 L110.483 274.91 L90.5752 274.91 L90.5752 270.974 Z" fill="#000000" fill-rule="nonzero" fill-opacity="1" /><path clip-path="url(#clip120)" d="M119.927 269.03 L124.811 269.03 L124.811 274.91 L119.927 274.91 L119.927 269.03 Z" fill="#000000" fill-rule="nonzero" fill-opacity="1" /><path clip-path="url(#clip120)" d="M144.996 243.428 Q141.385 243.428 139.556 246.993 Q137.751 250.535 137.751 257.664 Q137.751 264.771 139.556 268.336 Q141.385 271.877 144.996 271.877 Q148.63 271.877 150.436 268.336 Q152.265 264.771 152.265 257.664 Q152.265 250.535 150.436 246.993 Q148.63 243.428 144.996 243.428 M144.996 239.725 Q150.806 239.725 153.862 244.331 Q156.941 248.914 156.941 257.664 Q156.941 266.391 153.862 270.998 Q150.806 275.581 144.996 275.581 Q139.186 275.581 136.107 270.998 Q133.052 266.391 133.052 257.664 Q133.052 248.914 136.107 244.331 Q139.186 239.725 144.996 239.725 Z" fill="#000000" fill-rule="nonzero" fill-opacity="1" /><polyline clip-path="url(#clip122)" style="stroke:#009af9; stroke-linecap:round; stroke-linejoin:round; stroke-width:4; stroke-opacity:1; fill:none" points="2291.63,766.846 2289.58,723.784 2283.43,680.895 2273.21,638.353 2258.97,596.328 2240.75,554.989 2218.63,514.504 2192.71,475.035 2163.08,436.74 2129.86,399.775 2093.19,364.288 2053.22,330.422 2010.1,298.313 1964.02,268.091 1915.15,239.877 1863.69,213.785 1809.85,189.921 1753.85,168.379 1695.92,149.247 1636.27,132.601 1575.16,118.51 1512.84,107.029 1449.55,98.2057 1385.54,92.0742 1321.08,88.6598 1256.42,87.9763 1191.83,90.0263 1127.57,94.8016 1063.89,102.283 1001.04,112.44 939.297,125.233 878.892,140.609 820.071,158.506 763.073,178.854 708.127,201.568 655.453,226.559 605.264,253.726 557.763,282.959 513.139,314.14 471.574,347.144 433.235,381.838 398.275,418.082 366.835,455.731 339.043,494.632 315.01,534.63 294.833,575.562 278.592,617.265 266.355,659.57 258.169,702.307 254.067,745.304 254.067,788.388 258.169,831.385 266.355,874.122 278.592,916.427 294.833,958.13 315.01,999.062 339.043,1039.06 366.835,1077.96 398.275,1115.61 433.235,1151.85 471.574,1186.55 513.139,1219.55 557.763,1250.73 605.264,1279.97 655.453,1307.13 708.127,1332.12 763.073,1354.84 820.071,1375.19 878.892,1393.08 939.297,1408.46 1001.04,1421.25 1063.89,1431.41 1127.57,1438.89 1191.83,1443.67 1256.42,1445.72 1321.08,1445.03 1385.54,1441.62 1449.55,1435.49 1512.84,1426.66 1575.16,1415.18 1636.27,1401.09 1695.92,1384.45 1753.85,1365.31 1809.85,1343.77 1863.69,1319.91 1915.15,1293.81 1964.02,1265.6 2010.1,1235.38 2053.22,1203.27 2093.19,1169.4 2129.86,1133.92 2163.08,1096.95 2192.71,1058.66 2218.63,1019.19 2240.75,978.703 2258.97,937.364 2273.21,895.339 2283.43,852.797 2289.58,809.908 2291.63,766.846 "/>
<polyline clip-path="url(#clip122)" style="stroke:#e26f46; stroke-linecap:round; stroke-linejoin:round; stroke-width:4; stroke-opacity:1; fill:none" points="1272.59,710.266 1256.09,689.191 1238.97,669.112 1221.31,650.11 1203.17,632.261 1184.62,615.638 1165.74,600.307 1146.61,586.33 1127.3,573.764 1107.9,562.658 1088.47,553.058 1069.1,545.003 1049.87,538.524 1030.85,533.648 1012.11,530.395 993.748,528.777 975.82,528.801 958.404,530.467 941.569,533.769 925.383,538.693 909.911,545.218 895.215,553.32 881.356,562.965 868.387,574.114 856.363,586.723 845.33,600.741 835.334,616.111 826.415,632.771 818.609,650.655 811.947,669.69 806.455,689.8 802.157,710.903 799.069,732.915 797.204,755.748 796.57,779.308 797.168,803.502 798.997,828.232 802.049,853.398 806.311,878.899 811.768,904.632 818.396,930.494 826.169,956.38 835.055,982.187 845.02,1007.81 856.022,1033.15 868.018,1058.09 880.959,1082.55 894.794,1106.42 909.465,1129.61 924.915,1152.02 941.081,1173.56 957.898,1194.15 975.298,1213.7 993.212,1232.13 1011.57,1249.38 1030.29,1265.36 1049.3,1280.02 1068.53,1293.3 1087.9,1305.14 1107.32,1315.5 1126.73,1324.33 1146.04,1331.6 1165.18,1337.29 1184.07,1341.35 1202.62,1343.79 1220.78,1344.59 1238.46,1343.74 1255.59,1341.26 1272.11,1337.14 1287.95,1331.41 1303.04,1324.1 1317.33,1315.22 1330.75,1304.82 1343.25,1292.93 1354.78,1279.61 1365.3,1264.91 1374.77,1248.89 1383.13,1231.61 1390.37,1213.14 1396.45,1193.55 1401.35,1172.94 1405.04,1151.37 1407.52,1128.93 1408.77,1105.73 1408.79,1081.84 1407.58,1057.36 1405.13,1032.4 1401.47,1007.06 1396.61,981.427 1390.57,955.616 1383.36,929.729 1375.03,903.869 1365.6,878.142 1355.11,852.649 1343.61,827.495 1331.13,802.779 1317.74,778.603 1303.48,755.062 1288.41,732.253 1272.59,710.266 "/>
<circle clip-path="url(#clip122)" cx="1193.95" cy="89.9155" r="14.4" fill="#3da44d" fill-rule="evenodd" fill-opacity="1" stroke="#000000" stroke-opacity="1" stroke-width="3.2"/>
<circle clip-path="url(#clip122)" cx="1230.38" cy="1344.33" r="14.4" fill="#c271d2" fill-rule="evenodd" fill-opacity="1" stroke="#000000" stroke-opacity="1" stroke-width="3.2"/>
<path clip-path="url(#clip120)" d="M1941.22 354.418 L2280.76 354.418 L2280.76 95.2176 L1941.22 95.2176  Z" fill="#ffffff" fill-rule="evenodd" fill-opacity="1"/>
<polyline clip-path="url(#clip120)" style="stroke:#000000; stroke-linecap:round; stroke-linejoin:round; stroke-width:4; stroke-opacity:1; fill:none" points="1941.22,354.418 2280.76,354.418 2280.76,95.2176 1941.22,95.2176 1941.22,354.418 "/>
<polyline clip-path="url(#clip120)" style="stroke:#009af9; stroke-linecap:round; stroke-linejoin:round; stroke-width:4; stroke-opacity:1; fill:none" points="1965.22,147.058 2109.2,147.058 "/>
<path clip-path="url(#clip120)" d="M2154.91 139.784 Q2154.91 141.119 2154.09 141.916 Q2153.3 142.712 2152.29 142.712 Q2151.4 142.712 2150.93 142.197 Q2150.46 141.681 2150.46 141.025 Q2150.46 140.744 2150.58 140.393 Q2150.7 140.018 2150.96 139.573 Q2151.24 139.128 2151.82 138.8 Q2152.41 138.472 2153.2 138.426 Q2153.04 138.262 2152.99 138.238 Q2152.64 137.957 2151.99 137.863 Q2151.89 137.817 2151.56 137.817 Q2149.95 137.817 2148.31 139.011 Q2146.69 140.182 2144.7 142.407 Q2142.2 145.007 2140.58 145.968 Q2147.68 146.905 2147.68 151.003 Q2147.68 151.683 2147.49 152.502 Q2147.11 154.048 2147.11 155.173 Q2147.11 157.421 2148.64 157.421 Q2150.11 157.421 2151.05 155.922 Q2152.01 154.423 2152.81 151.495 Q2152.92 150.957 2153.04 150.793 Q2153.16 150.629 2153.49 150.629 Q2154.07 150.629 2154.07 151.097 Q2153.53 153.838 2152.34 155.946 Q2150.82 158.499 2148.54 158.499 Q2146.65 158.499 2145.38 157.187 Q2144.14 155.852 2144.14 153.744 Q2144.14 153.229 2144.33 152.057 Q2144.47 151.589 2144.47 151.05 Q2144.47 149.949 2143.86 149.13 Q2143.25 148.286 2142.27 147.865 Q2141.28 147.443 2140.46 147.256 Q2139.67 147.045 2138.89 146.975 Q2136.55 156.882 2136.22 157.491 Q2136.01 157.913 2135.54 158.194 Q2135.08 158.499 2134.58 158.499 Q2134.11 158.499 2133.65 158.171 Q2133.2 157.866 2133.2 157.14 Q2133.2 156.765 2133.39 156.086 L2140.35 128.448 L2140.49 127.511 Q2140.49 127.23 2140.37 127.089 Q2140.28 126.925 2139.71 126.808 Q2139.17 126.691 2138.1 126.691 Q2137.65 126.691 2137.44 126.668 Q2137.25 126.644 2137.09 126.527 Q2136.93 126.386 2136.93 126.105 Q2136.93 125.707 2137.09 125.496 Q2137.28 125.262 2137.42 125.215 Q2137.56 125.168 2137.84 125.145 Q2138.24 125.122 2139.57 125.005 Q2140.91 124.864 2142.06 124.77 Q2143.2 124.677 2143.69 124.677 Q2143.98 124.677 2144.12 124.817 Q2144.28 124.934 2144.3 125.075 L2144.33 125.192 L2139.34 145.429 Q2141.4 144.609 2144.66 140.979 Q2148.43 136.763 2151.66 136.763 Q2153.18 136.763 2154.05 137.699 Q2154.91 138.613 2154.91 139.784 Z" fill="#000000" fill-rule="nonzero" fill-opacity="1" /><path clip-path="url(#clip120)" d="M2159.82 152.614 L2159.82 151.564 Q2163.85 151.564 2165.94 149.416 Q2166.51 149.416 2166.61 149.548 Q2166.71 149.679 2166.71 150.285 L2166.71 169.124 Q2166.71 170.124 2167.2 170.436 Q2167.69 170.747 2169.84 170.747 L2170.9 170.747 L2170.9 171.78 Q2169.72 171.682 2165.46 171.682 Q2161.2 171.682 2160.03 171.78 L2160.03 170.747 L2161.1 170.747 Q2163.22 170.747 2163.72 170.452 Q2164.23 170.141 2164.23 169.124 L2164.23 151.728 Q2162.48 152.614 2159.82 152.614 Z" fill="#000000" fill-rule="nonzero" fill-opacity="1" /><path clip-path="url(#clip120)" d="M2175.91 145.968 Q2175.91 137.863 2178.93 131.329 Q2180.22 128.588 2182.03 126.293 Q2183.83 123.997 2185.02 122.99 Q2186.22 121.983 2186.55 121.983 Q2187.01 121.983 2187.04 122.451 Q2187.04 122.686 2186.41 123.271 Q2178.68 131.141 2178.7 145.968 Q2178.7 160.841 2186.22 168.406 Q2187.04 169.226 2187.04 169.484 Q2187.04 169.952 2186.55 169.952 Q2186.22 169.952 2185.07 168.992 Q2183.92 168.032 2182.14 165.83 Q2180.36 163.628 2179.07 160.935 Q2175.91 154.4 2175.91 145.968 Z" fill="#000000" fill-rule="nonzero" fill-opacity="1" /><path clip-path="url(#clip120)" d="M2205.41 137.817 Q2205.41 138.472 2205.11 138.636 Q2204.8 138.777 2203.96 138.777 L2199.46 138.777 L2195.9 152.924 Q2195.62 154.165 2195.62 155.219 Q2195.62 156.391 2195.97 156.906 Q2196.35 157.421 2197.12 157.421 Q2198.64 157.421 2200.28 156.039 Q2201.95 154.657 2203.35 151.285 Q2203.54 150.839 2203.63 150.746 Q2203.75 150.629 2204.05 150.629 Q2204.64 150.629 2204.64 151.097 Q2204.64 151.261 2204.31 152.011 Q2204.01 152.76 2203.33 153.861 Q2202.67 154.962 2201.8 155.992 Q2200.96 157.023 2199.67 157.773 Q2198.39 158.499 2197 158.499 Q2195.06 158.499 2193.82 157.257 Q2192.6 156.016 2192.6 154.072 Q2192.6 153.439 2193.09 151.425 Q2193.58 149.387 2196.25 138.777 L2192.01 138.777 Q2191.43 138.777 2191.19 138.753 Q2190.98 138.73 2190.82 138.613 Q2190.68 138.472 2190.68 138.191 Q2190.68 137.746 2190.87 137.559 Q2191.05 137.348 2191.29 137.325 Q2191.55 137.278 2192.13 137.278 L2196.63 137.278 L2198.5 129.666 Q2198.69 128.916 2199.16 128.494 Q2199.65 128.049 2199.93 128.003 Q2200.21 127.932 2200.42 127.932 Q2201.06 127.932 2201.43 128.284 Q2201.8 128.612 2201.8 129.221 Q2201.8 129.548 2199.84 137.278 L2204.05 137.278 Q2204.59 137.278 2204.8 137.301 Q2205.04 137.325 2205.22 137.442 Q2205.41 137.559 2205.41 137.817 Z" fill="#000000" fill-rule="nonzero" fill-opacity="1" /><path clip-path="url(#clip120)" d="M2209.16 169.484 Q2209.16 169.25 2209.77 168.664 Q2217.5 160.794 2217.5 145.968 Q2217.5 131.094 2210.08 123.576 Q2209.16 122.709 2209.16 122.451 Q2209.16 121.983 2209.63 121.983 Q2209.96 121.983 2211.11 122.943 Q2212.28 123.904 2214.04 126.105 Q2215.82 128.307 2217.13 131.001 Q2220.29 137.536 2220.29 145.968 Q2220.29 154.072 2217.27 160.607 Q2215.98 163.347 2214.18 165.642 Q2212.37 167.938 2211.18 168.945 Q2209.98 169.952 2209.63 169.952 Q2209.16 169.952 2209.16 169.484 Z" fill="#000000" fill-rule="nonzero" fill-opacity="1" /><polyline clip-path="url(#clip120)" style="stroke:#e26f46; stroke-linecap:round; stroke-linejoin:round; stroke-width:4; stroke-opacity:1; fill:none" points="1965.22,198.898 2109.2,198.898 "/>
<path clip-path="url(#clip120)" d="M2154.91 191.624 Q2154.91 192.959 2154.09 193.756 Q2153.3 194.552 2152.29 194.552 Q2151.4 194.552 2150.93 194.037 Q2150.46 193.521 2150.46 192.865 Q2150.46 192.584 2150.58 192.233 Q2150.7 191.858 2150.96 191.413 Q2151.24 190.968 2151.82 190.64 Q2152.41 190.312 2153.2 190.266 Q2153.04 190.102 2152.99 190.078 Q2152.64 189.797 2151.99 189.703 Q2151.89 189.657 2151.56 189.657 Q2149.95 189.657 2148.31 190.851 Q2146.69 192.022 2144.7 194.247 Q2142.2 196.847 2140.58 197.808 Q2147.68 198.745 2147.68 202.843 Q2147.68 203.523 2147.49 204.342 Q2147.11 205.888 2147.11 207.013 Q2147.11 209.261 2148.64 209.261 Q2150.11 209.261 2151.05 207.762 Q2152.01 206.263 2152.81 203.335 Q2152.92 202.797 2153.04 202.633 Q2153.16 202.469 2153.49 202.469 Q2154.07 202.469 2154.07 202.937 Q2153.53 205.678 2152.34 207.786 Q2150.82 210.339 2148.54 210.339 Q2146.65 210.339 2145.38 209.027 Q2144.14 207.692 2144.14 205.584 Q2144.14 205.069 2144.33 203.897 Q2144.47 203.429 2144.47 202.89 Q2144.47 201.789 2143.86 200.97 Q2143.25 200.126 2142.27 199.705 Q2141.28 199.283 2140.46 199.096 Q2139.67 198.885 2138.89 198.815 Q2136.55 208.722 2136.22 209.331 Q2136.01 209.753 2135.54 210.034 Q2135.08 210.339 2134.58 210.339 Q2134.11 210.339 2133.65 210.011 Q2133.2 209.706 2133.2 208.98 Q2133.2 208.605 2133.39 207.926 L2140.35 180.288 L2140.49 179.351 Q2140.49 179.07 2140.37 178.929 Q2140.28 178.765 2139.71 178.648 Q2139.17 178.531 2138.1 178.531 Q2137.65 178.531 2137.44 178.508 Q2137.25 178.484 2137.09 178.367 Q2136.93 178.226 2136.93 177.945 Q2136.93 177.547 2137.09 177.336 Q2137.28 177.102 2137.42 177.055 Q2137.56 177.008 2137.84 176.985 Q2138.24 176.962 2139.57 176.845 Q2140.91 176.704 2142.06 176.61 Q2143.2 176.517 2143.69 176.517 Q2143.98 176.517 2144.12 176.657 Q2144.28 176.774 2144.3 176.915 L2144.33 177.032 L2139.34 197.269 Q2141.4 196.449 2144.66 192.819 Q2148.43 188.603 2151.66 188.603 Q2153.18 188.603 2154.05 189.539 Q2154.91 190.453 2154.91 191.624 Z" fill="#000000" fill-rule="nonzero" fill-opacity="1" /><path clip-path="url(#clip120)" d="M2159.82 223.62 Q2159.82 223.014 2159.87 222.833 Q2159.94 222.653 2160.2 222.374 L2166.64 215.193 Q2170.17 211.225 2170.17 207.766 Q2170.17 205.519 2168.99 203.913 Q2167.82 202.306 2165.67 202.306 Q2164.2 202.306 2162.95 203.208 Q2161.71 204.109 2161.13 205.716 Q2161.23 205.683 2161.58 205.683 Q2162.41 205.683 2162.87 206.208 Q2163.35 206.733 2163.35 207.438 Q2163.35 208.339 2162.76 208.782 Q2162.18 209.208 2161.61 209.208 Q2161.38 209.208 2161.07 209.159 Q2160.77 209.11 2160.3 208.651 Q2159.82 208.175 2159.82 207.339 Q2159.82 204.995 2161.59 203.126 Q2163.38 201.256 2166.1 201.256 Q2169.18 201.256 2171.2 203.093 Q2173.23 204.913 2173.23 207.766 Q2173.23 208.766 2172.92 209.684 Q2172.63 210.586 2172.22 211.291 Q2171.82 211.996 2170.74 213.127 Q2169.66 214.258 2168.79 215.062 Q2167.92 215.865 2165.97 217.57 L2162.41 221.03 L2168.46 221.03 Q2171.41 221.03 2171.64 220.767 Q2171.97 220.292 2172.38 217.783 L2173.23 217.783 L2172.28 223.62 L2159.82 223.62 Z" fill="#000000" fill-rule="nonzero" fill-opacity="1" /><path clip-path="url(#clip120)" d="M2178.22 197.808 Q2178.22 189.703 2181.24 183.169 Q2182.53 180.428 2184.33 178.133 Q2186.14 175.837 2187.33 174.83 Q2188.53 173.823 2188.85 173.823 Q2189.32 173.823 2189.35 174.291 Q2189.35 174.526 2188.71 175.111 Q2180.98 182.981 2181.01 197.808 Q2181.01 212.681 2188.53 220.246 Q2189.35 221.066 2189.35 221.324 Q2189.35 221.792 2188.85 221.792 Q2188.53 221.792 2187.38 220.832 Q2186.23 219.872 2184.45 217.67 Q2182.67 215.468 2181.38 212.775 Q2178.22 206.24 2178.22 197.808 Z" fill="#000000" fill-rule="nonzero" fill-opacity="1" /><path clip-path="url(#clip120)" d="M2211.61 192.725 Q2211.61 194.037 2210.95 194.739 Q2210.3 195.419 2209.41 195.419 Q2208.68 195.419 2208.28 194.997 Q2207.91 194.575 2207.91 194.013 Q2207.91 193.193 2208.56 192.538 Q2209.24 191.882 2210.23 191.858 Q2209.9 190.992 2209.03 190.476 Q2208.16 189.938 2207.39 189.797 Q2206.64 189.657 2205.89 189.657 Q2204.42 189.657 2203.29 190.125 Q2202.17 190.593 2201.61 191.32 Q2201.04 192.022 2200.79 192.702 Q2200.53 193.381 2200.53 193.966 Q2200.53 194.482 2200.65 194.903 Q2200.79 195.301 2201.11 195.606 Q2201.44 195.887 2201.68 196.074 Q2201.93 196.262 2202.5 196.426 Q2203.06 196.59 2203.29 196.66 Q2203.53 196.707 2204.18 196.847 Q2205.54 197.128 2206.15 197.292 Q2206.76 197.433 2207.56 197.831 Q2208.38 198.229 2208.98 198.862 Q2210.46 200.337 2210.46 202.375 Q2210.46 203.125 2210.2 204.038 Q2209.97 204.951 2209.29 206.099 Q2208.61 207.247 2207.58 208.16 Q2206.55 209.074 2204.77 209.706 Q2203.01 210.339 2200.81 210.339 Q2197.74 210.339 2195.84 209.05 Q2193.95 207.739 2193.95 205.678 Q2193.95 204.179 2194.77 203.359 Q2195.59 202.516 2196.64 202.516 Q2197.44 202.516 2197.93 202.961 Q2198.42 203.382 2198.42 204.179 Q2198.42 205.256 2197.55 206.076 Q2196.69 206.896 2195.4 206.732 Q2196.5 209.261 2200.86 209.261 Q2202.5 209.261 2203.76 208.84 Q2205.05 208.395 2205.75 207.786 Q2206.48 207.153 2206.95 206.38 Q2207.42 205.607 2207.56 205.022 Q2207.72 204.436 2207.72 203.991 Q2207.72 203.218 2207.42 202.633 Q2207.11 202.047 2206.69 201.719 Q2206.29 201.368 2205.52 201.087 Q2204.77 200.782 2204.23 200.665 Q2203.69 200.548 2202.73 200.361 Q2202.29 200.267 2202 200.22 Q2201.72 200.15 2201.14 199.962 Q2200.58 199.752 2200.18 199.541 Q2199.8 199.33 2199.31 198.955 Q2198.82 198.581 2198.51 198.136 Q2198.21 197.69 2198 197.035 Q2197.79 196.379 2197.79 195.606 Q2197.79 194.903 2198 194.06 Q2198.23 193.217 2198.82 192.233 Q2199.43 191.249 2200.29 190.453 Q2201.16 189.657 2202.61 189.141 Q2204.09 188.603 2205.89 188.603 Q2208.52 188.603 2210.06 189.821 Q2211.61 191.015 2211.61 192.725 Z" fill="#000000" fill-rule="nonzero" fill-opacity="1" /><path clip-path="url(#clip120)" d="M2216.98 221.324 Q2216.98 221.09 2217.59 220.504 Q2225.32 212.634 2225.32 197.808 Q2225.32 182.934 2217.89 175.416 Q2216.98 174.549 2216.98 174.291 Q2216.98 173.823 2217.45 173.823 Q2217.78 173.823 2218.92 174.783 Q2220.1 175.744 2221.85 177.945 Q2223.63 180.147 2224.94 182.841 Q2228.11 189.376 2228.11 197.808 Q2228.11 205.912 2225.08 212.447 Q2223.8 215.187 2221.99 217.482 Q2220.19 219.778 2219 220.785 Q2217.8 221.792 2217.45 221.792 Q2216.98 221.792 2216.98 221.324 Z" fill="#000000" fill-rule="nonzero" fill-opacity="1" /><circle clip-path="url(#clip120)" cx="2037.21" cy="250.738" r="20.48" fill="#3da44d" fill-rule="evenodd" fill-opacity="1" stroke="#000000" stroke-opacity="1" stroke-width="4.55111"/>
<path clip-path="url(#clip120)" d="M2154.91 243.098 Q2154.91 244.433 2154.09 245.229 Q2153.3 246.025 2152.29 246.025 Q2151.4 246.025 2150.93 245.51 Q2150.46 244.995 2150.46 244.339 Q2150.46 244.058 2150.58 243.707 Q2150.7 243.332 2150.96 242.887 Q2151.24 242.442 2151.82 242.114 Q2152.41 241.786 2153.2 241.739 Q2153.04 241.575 2152.99 241.552 Q2152.64 241.271 2151.99 241.177 Q2151.89 241.13 2151.56 241.13 Q2149.95 241.13 2148.31 242.325 Q2146.69 243.496 2144.7 245.721 Q2142.2 248.321 2140.58 249.281 Q2147.68 250.218 2147.68 254.317 Q2147.68 254.996 2147.49 255.816 Q2147.11 257.362 2147.11 258.486 Q2147.11 260.735 2148.64 260.735 Q2150.11 260.735 2151.05 259.236 Q2152.01 257.737 2152.81 254.809 Q2152.92 254.27 2153.04 254.106 Q2153.16 253.942 2153.49 253.942 Q2154.07 253.942 2154.07 254.411 Q2153.53 257.151 2152.34 259.259 Q2150.82 261.812 2148.54 261.812 Q2146.65 261.812 2145.38 260.501 Q2144.14 259.165 2144.14 257.057 Q2144.14 256.542 2144.33 255.371 Q2144.47 254.903 2144.47 254.364 Q2144.47 253.263 2143.86 252.443 Q2143.25 251.6 2142.27 251.178 Q2141.28 250.757 2140.46 250.569 Q2139.67 250.359 2138.89 250.288 Q2136.55 260.196 2136.22 260.805 Q2136.01 261.227 2135.54 261.508 Q2135.08 261.812 2134.58 261.812 Q2134.11 261.812 2133.65 261.484 Q2133.2 261.18 2133.2 260.454 Q2133.2 260.079 2133.39 259.4 L2140.35 231.761 L2140.49 230.824 Q2140.49 230.543 2140.37 230.403 Q2140.28 230.239 2139.71 230.122 Q2139.17 230.005 2138.1 230.005 Q2137.65 230.005 2137.44 229.981 Q2137.25 229.958 2137.09 229.841 Q2136.93 229.7 2136.93 229.419 Q2136.93 229.021 2137.09 228.81 Q2137.28 228.576 2137.42 228.529 Q2137.56 228.482 2137.84 228.459 Q2138.24 228.435 2139.57 228.318 Q2140.91 228.178 2142.06 228.084 Q2143.2 227.99 2143.69 227.99 Q2143.98 227.99 2144.12 228.131 Q2144.28 228.248 2144.3 228.388 L2144.33 228.505 L2139.34 248.742 Q2141.4 247.923 2144.66 244.292 Q2148.43 240.076 2151.66 240.076 Q2153.18 240.076 2154.05 241.013 Q2154.91 241.927 2154.91 243.098 Z" fill="#000000" fill-rule="nonzero" fill-opacity="1" /><path clip-path="url(#clip120)" d="M2159.82 255.927 L2159.82 254.878 Q2163.85 254.878 2165.94 252.73 Q2166.51 252.73 2166.61 252.861 Q2166.71 252.992 2166.71 253.599 L2166.71 272.438 Q2166.71 273.438 2167.2 273.749 Q2167.69 274.061 2169.84 274.061 L2170.9 274.061 L2170.9 275.094 Q2169.72 274.995 2165.46 274.995 Q2161.2 274.995 2160.03 275.094 L2160.03 274.061 L2161.1 274.061 Q2163.22 274.061 2163.72 273.766 Q2164.23 273.454 2164.23 272.438 L2164.23 255.042 Q2162.48 255.927 2159.82 255.927 Z" fill="#000000" fill-rule="nonzero" fill-opacity="1" /><path clip-path="url(#clip120)" d="M2175.91 249.281 Q2175.91 241.177 2178.93 234.642 Q2180.22 231.902 2182.03 229.606 Q2183.83 227.311 2185.02 226.304 Q2186.22 225.297 2186.55 225.297 Q2187.01 225.297 2187.04 225.765 Q2187.04 225.999 2186.41 226.585 Q2178.68 234.455 2178.7 249.281 Q2178.7 264.154 2186.22 271.72 Q2187.04 272.54 2187.04 272.797 Q2187.04 273.266 2186.55 273.266 Q2186.22 273.266 2185.07 272.305 Q2183.92 271.345 2182.14 269.143 Q2180.36 266.942 2179.07 264.248 Q2175.91 257.713 2175.91 249.281 Z" fill="#000000" fill-rule="nonzero" fill-opacity="1" /><path clip-path="url(#clip120)" d="M2209.06 241.13 Q2209.06 241.786 2208.76 241.95 Q2208.45 242.091 2207.61 242.091 L2203.11 242.091 L2199.55 256.238 Q2199.27 257.479 2199.27 258.533 Q2199.27 259.704 2199.62 260.219 Q2200 260.735 2200.77 260.735 Q2202.29 260.735 2203.93 259.353 Q2205.59 257.971 2207 254.598 Q2207.19 254.153 2207.28 254.059 Q2207.4 253.942 2207.7 253.942 Q2208.29 253.942 2208.29 254.411 Q2208.29 254.575 2207.96 255.324 Q2207.65 256.074 2206.98 257.175 Q2206.32 258.275 2205.45 259.306 Q2204.61 260.337 2203.32 261.086 Q2202.03 261.812 2200.65 261.812 Q2198.71 261.812 2197.47 260.571 Q2196.25 259.329 2196.25 257.385 Q2196.25 256.753 2196.74 254.739 Q2197.23 252.701 2199.9 242.091 L2195.66 242.091 Q2195.08 242.091 2194.84 242.067 Q2194.63 242.044 2194.47 241.927 Q2194.33 241.786 2194.33 241.505 Q2194.33 241.06 2194.51 240.873 Q2194.7 240.662 2194.94 240.638 Q2195.19 240.591 2195.78 240.591 L2200.28 240.591 L2202.15 232.979 Q2202.34 232.23 2202.81 231.808 Q2203.3 231.363 2203.58 231.316 Q2203.86 231.246 2204.07 231.246 Q2204.7 231.246 2205.08 231.597 Q2205.45 231.925 2205.45 232.534 Q2205.45 232.862 2203.49 240.591 L2207.7 240.591 Q2208.24 240.591 2208.45 240.615 Q2208.69 240.638 2208.87 240.755 Q2209.06 240.873 2209.06 241.13 Z" fill="#000000" fill-rule="nonzero" fill-opacity="1" /><path clip-path="url(#clip120)" d="M2214.03 264.355 Q2214.03 259.42 2215.27 256.731 Q2217.01 252.73 2221.11 252.73 Q2221.98 252.73 2222.88 252.976 Q2223.8 253.206 2224.95 254.107 Q2226.11 255.009 2226.81 256.485 Q2228.16 259.338 2228.16 264.355 Q2228.16 269.257 2226.91 271.929 Q2225.09 275.832 2221.08 275.832 Q2219.57 275.832 2218.03 275.061 Q2216.5 274.29 2215.53 272.438 Q2214.03 269.667 2214.03 264.355 M2216.81 263.945 Q2216.81 269.011 2217.17 271.028 Q2217.58 273.208 2218.7 274.159 Q2219.83 275.094 2221.08 275.094 Q2222.42 275.094 2223.53 274.094 Q2224.67 273.077 2225.01 270.897 Q2225.39 268.749 2225.37 263.945 Q2225.37 259.272 2225.04 257.403 Q2224.6 255.222 2223.42 254.353 Q2222.26 253.468 2221.08 253.468 Q2220.63 253.468 2220.16 253.599 Q2219.7 253.73 2219.03 254.107 Q2218.35 254.484 2217.83 255.419 Q2217.32 256.354 2217.08 257.764 Q2216.81 259.583 2216.81 263.945 Z" fill="#000000" fill-rule="nonzero" fill-opacity="1" /><path clip-path="url(#clip120)" d="M2233.13 272.797 Q2233.13 272.563 2233.74 271.978 Q2241.47 264.108 2241.47 249.281 Q2241.47 234.408 2234.05 226.889 Q2233.13 226.023 2233.13 225.765 Q2233.13 225.297 2233.6 225.297 Q2233.93 225.297 2235.08 226.257 Q2236.25 227.217 2238.01 229.419 Q2239.79 231.621 2241.1 234.314 Q2244.26 240.849 2244.26 249.281 Q2244.26 257.385 2241.24 263.92 Q2239.95 266.661 2238.15 268.956 Q2236.34 271.251 2235.15 272.259 Q2233.95 273.266 2233.6 273.266 Q2233.13 273.266 2233.13 272.797 Z" fill="#000000" fill-rule="nonzero" fill-opacity="1" /><circle clip-path="url(#clip120)" cx="2037.21" cy="302.578" r="20.48" fill="#c271d2" fill-rule="evenodd" fill-opacity="1" stroke="#000000" stroke-opacity="1" stroke-width="4.55111"/>
<path clip-path="url(#clip120)" d="M2154.91 294.938 Q2154.91 296.273 2154.09 297.069 Q2153.3 297.865 2152.29 297.865 Q2151.4 297.865 2150.93 297.35 Q2150.46 296.835 2150.46 296.179 Q2150.46 295.898 2150.58 295.547 Q2150.7 295.172 2150.96 294.727 Q2151.24 294.282 2151.82 293.954 Q2152.41 293.626 2153.2 293.579 Q2153.04 293.415 2152.99 293.392 Q2152.64 293.111 2151.99 293.017 Q2151.89 292.97 2151.56 292.97 Q2149.95 292.97 2148.31 294.165 Q2146.69 295.336 2144.7 297.561 Q2142.2 300.161 2140.58 301.121 Q2147.68 302.058 2147.68 306.157 Q2147.68 306.836 2147.49 307.656 Q2147.11 309.202 2147.11 310.326 Q2147.11 312.575 2148.64 312.575 Q2150.11 312.575 2151.05 311.076 Q2152.01 309.577 2152.81 306.649 Q2152.92 306.11 2153.04 305.946 Q2153.16 305.782 2153.49 305.782 Q2154.07 305.782 2154.07 306.251 Q2153.53 308.991 2152.34 311.099 Q2150.82 313.652 2148.54 313.652 Q2146.65 313.652 2145.38 312.341 Q2144.14 311.005 2144.14 308.897 Q2144.14 308.382 2144.33 307.211 Q2144.47 306.743 2144.47 306.204 Q2144.47 305.103 2143.86 304.283 Q2143.25 303.44 2142.27 303.018 Q2141.28 302.597 2140.46 302.409 Q2139.67 302.199 2138.89 302.128 Q2136.55 312.036 2136.22 312.645 Q2136.01 313.067 2135.54 313.348 Q2135.08 313.652 2134.58 313.652 Q2134.11 313.652 2133.65 313.324 Q2133.2 313.02 2133.2 312.294 Q2133.2 311.919 2133.39 311.24 L2140.35 283.601 L2140.49 282.664 Q2140.49 282.383 2140.37 282.243 Q2140.28 282.079 2139.71 281.962 Q2139.17 281.845 2138.1 281.845 Q2137.65 281.845 2137.44 281.821 Q2137.25 281.798 2137.09 281.681 Q2136.93 281.54 2136.93 281.259 Q2136.93 280.861 2137.09 280.65 Q2137.28 280.416 2137.42 280.369 Q2137.56 280.322 2137.84 280.299 Q2138.24 280.275 2139.57 280.158 Q2140.91 280.018 2142.06 279.924 Q2143.2 279.83 2143.69 279.83 Q2143.98 279.83 2144.12 279.971 Q2144.28 280.088 2144.3 280.228 L2144.33 280.345 L2139.34 300.582 Q2141.4 299.763 2144.66 296.132 Q2148.43 291.916 2151.66 291.916 Q2153.18 291.916 2154.05 292.853 Q2154.91 293.767 2154.91 294.938 Z" fill="#000000" fill-rule="nonzero" fill-opacity="1" /><path clip-path="url(#clip120)" d="M2159.82 326.934 Q2159.82 326.327 2159.87 326.147 Q2159.94 325.966 2160.2 325.688 L2166.64 318.506 Q2170.17 314.539 2170.17 311.079 Q2170.17 308.833 2168.99 307.226 Q2167.82 305.619 2165.67 305.619 Q2164.2 305.619 2162.95 306.521 Q2161.71 307.423 2161.13 309.03 Q2161.23 308.997 2161.58 308.997 Q2162.41 308.997 2162.87 309.522 Q2163.35 310.046 2163.35 310.751 Q2163.35 311.653 2162.76 312.096 Q2162.18 312.522 2161.61 312.522 Q2161.38 312.522 2161.07 312.473 Q2160.77 312.424 2160.3 311.965 Q2159.82 311.489 2159.82 310.653 Q2159.82 308.308 2161.59 306.439 Q2163.38 304.57 2166.1 304.57 Q2169.18 304.57 2171.2 306.406 Q2173.23 308.226 2173.23 311.079 Q2173.23 312.079 2172.92 312.997 Q2172.63 313.899 2172.22 314.604 Q2171.82 315.309 2170.74 316.441 Q2169.66 317.572 2168.79 318.375 Q2167.92 319.179 2165.97 320.884 L2162.41 324.343 L2168.46 324.343 Q2171.41 324.343 2171.64 324.081 Q2171.97 323.605 2172.38 321.097 L2173.23 321.097 L2172.28 326.934 L2159.82 326.934 Z" fill="#000000" fill-rule="nonzero" fill-opacity="1" /><path clip-path="url(#clip120)" d="M2178.22 301.121 Q2178.22 293.017 2181.24 286.482 Q2182.53 283.742 2184.33 281.446 Q2186.14 279.151 2187.33 278.144 Q2188.53 277.137 2188.85 277.137 Q2189.32 277.137 2189.35 277.605 Q2189.35 277.839 2188.71 278.425 Q2180.98 286.295 2181.01 301.121 Q2181.01 315.994 2188.53 323.56 Q2189.35 324.38 2189.35 324.637 Q2189.35 325.106 2188.85 325.106 Q2188.53 325.106 2187.38 324.145 Q2186.23 323.185 2184.45 320.983 Q2182.67 318.782 2181.38 316.088 Q2178.22 309.553 2178.22 301.121 Z" fill="#000000" fill-rule="nonzero" fill-opacity="1" /><path clip-path="url(#clip120)" d="M2214.3 296.039 Q2214.3 297.35 2213.64 298.053 Q2212.98 298.732 2212.09 298.732 Q2211.37 298.732 2210.97 298.311 Q2210.59 297.889 2210.59 297.327 Q2210.59 296.507 2211.25 295.851 Q2211.93 295.195 2212.91 295.172 Q2212.59 294.305 2211.72 293.79 Q2210.85 293.251 2210.08 293.111 Q2209.33 292.97 2208.58 292.97 Q2207.1 292.97 2205.98 293.439 Q2204.86 293.907 2204.29 294.633 Q2203.73 295.336 2203.47 296.015 Q2203.22 296.694 2203.22 297.28 Q2203.22 297.795 2203.33 298.217 Q2203.47 298.615 2203.8 298.919 Q2204.13 299.201 2204.36 299.388 Q2204.62 299.575 2205.18 299.739 Q2205.75 299.903 2205.98 299.973 Q2206.21 300.02 2206.87 300.161 Q2208.23 300.442 2208.84 300.606 Q2209.45 300.746 2210.24 301.145 Q2211.06 301.543 2211.67 302.175 Q2213.15 303.651 2213.15 305.689 Q2213.15 306.438 2212.89 307.352 Q2212.66 308.265 2211.98 309.413 Q2211.3 310.56 2210.27 311.474 Q2209.24 312.387 2207.46 313.02 Q2205.7 313.652 2203.5 313.652 Q2200.43 313.652 2198.53 312.364 Q2196.64 311.052 2196.64 308.991 Q2196.64 307.492 2197.45 306.672 Q2198.27 305.829 2199.33 305.829 Q2200.13 305.829 2200.62 306.274 Q2201.11 306.696 2201.11 307.492 Q2201.11 308.57 2200.24 309.389 Q2199.38 310.209 2198.09 310.045 Q2199.19 312.575 2203.54 312.575 Q2205.18 312.575 2206.45 312.153 Q2207.74 311.708 2208.44 311.099 Q2209.17 310.467 2209.63 309.694 Q2210.1 308.921 2210.24 308.335 Q2210.41 307.75 2210.41 307.305 Q2210.41 306.532 2210.1 305.946 Q2209.8 305.361 2209.38 305.033 Q2208.98 304.681 2208.21 304.4 Q2207.46 304.096 2206.92 303.979 Q2206.38 303.862 2205.42 303.674 Q2204.97 303.581 2204.69 303.534 Q2204.41 303.463 2203.83 303.276 Q2203.26 303.065 2202.87 302.854 Q2202.49 302.644 2202 302.269 Q2201.51 301.894 2201.2 301.449 Q2200.9 301.004 2200.69 300.348 Q2200.48 299.692 2200.48 298.919 Q2200.48 298.217 2200.69 297.374 Q2200.92 296.53 2201.51 295.547 Q2202.12 294.563 2202.98 293.767 Q2203.85 292.97 2205.3 292.455 Q2206.78 291.916 2208.58 291.916 Q2211.2 291.916 2212.75 293.134 Q2214.3 294.329 2214.3 296.039 Z" fill="#000000" fill-rule="nonzero" fill-opacity="1" /><path clip-path="url(#clip120)" d="M2219.24 316.195 Q2219.24 311.26 2220.49 308.571 Q2222.22 304.57 2226.32 304.57 Q2227.19 304.57 2228.09 304.816 Q2229.01 305.046 2230.16 305.947 Q2231.32 306.849 2232.03 308.325 Q2233.37 311.178 2233.37 316.195 Q2233.37 321.097 2232.13 323.769 Q2230.31 327.672 2226.29 327.672 Q2224.78 327.672 2223.24 326.901 Q2221.72 326.13 2220.75 324.278 Q2219.24 321.507 2219.24 316.195 M2222.03 315.785 Q2222.03 320.851 2222.39 322.868 Q2222.8 325.048 2223.91 325.999 Q2225.04 326.934 2226.29 326.934 Q2227.63 326.934 2228.75 325.934 Q2229.88 324.917 2230.22 322.737 Q2230.6 320.589 2230.59 315.785 Q2230.59 311.112 2230.26 309.243 Q2229.81 307.062 2228.63 306.193 Q2227.47 305.308 2226.29 305.308 Q2225.85 305.308 2225.37 305.439 Q2224.91 305.57 2224.24 305.947 Q2223.57 306.324 2223.04 307.259 Q2222.54 308.194 2222.29 309.604 Q2222.03 311.423 2222.03 315.785 Z" fill="#000000" fill-rule="nonzero" fill-opacity="1" /><path clip-path="url(#clip120)" d="M2238.35 324.637 Q2238.35 324.403 2238.96 323.818 Q2246.69 315.948 2246.69 301.121 Q2246.69 286.248 2239.26 278.729 Q2238.35 277.863 2238.35 277.605 Q2238.35 277.137 2238.82 277.137 Q2239.14 277.137 2240.29 278.097 Q2241.46 279.057 2243.22 281.259 Q2245 283.461 2246.31 286.154 Q2249.47 292.689 2249.47 301.121 Q2249.47 309.225 2246.45 315.76 Q2245.16 318.501 2243.36 320.796 Q2241.56 323.091 2240.36 324.099 Q2239.17 325.106 2238.82 325.106 Q2238.35 325.106 2238.35 324.637 Z" fill="#000000" fill-rule="nonzero" fill-opacity="1" /></svg>
