<?xml version="1.0" encoding="utf-8"?>
<svg xmlns="http://www.w3.org/2000/svg" xmlns:xlink="http://www.w3.org/1999/xlink" width="600" height="400" viewBox="0 0 2400 1600">
<defs>
  <clipPath id="clip880">
    <rect x="0" y="0" width="2400" height="1600"/>
  </clipPath>
</defs>
<path clip-path="url(#clip880)" d="M0 1600 L2400 1600 L2400 0 L0 0  Z" fill="#ffffff" fill-rule="evenodd" fill-opacity="1"/>
<defs>
  <clipPath id="clip881">
    <rect x="480" y="0" width="1681" height="1600"/>
  </clipPath>
</defs>
<path clip-path="url(#clip880)" d="M172.015 1486.45 L2352.76 1486.45 L2352.76 47.2441 L172.015 47.2441  Z" fill="#ffffff" fill-rule="evenodd" fill-opacity="1"/>
<defs>
  <clipPath id="clip882">
    <rect x="172" y="47" width="2182" height="1440"/>
  </clipPath>
</defs>
<polyline clip-path="url(#clip882)" style="stroke:#000000; stroke-linecap:round; stroke-linejoin:round; stroke-width:2; stroke-opacity:0.1; fill:none" points="463.669,1486.45 463.669,47.2441 "/>
<polyline clip-path="url(#clip882)" style="stroke:#000000; stroke-linecap:round; stroke-linejoin:round; stroke-width:2; stroke-opacity:0.1; fill:none" points="872.769,1486.45 872.769,47.2441 "/>
<polyline clip-path="url(#clip882)" style="stroke:#000000; stroke-linecap:round; stroke-linejoin:round; stroke-width:2; stroke-opacity:0.1; fill:none" points="1281.87,1486.45 1281.87,47.2441 "/>
<polyline clip-path="url(#clip882)" style="stroke:#000000; stroke-linecap:round; stroke-linejoin:round; stroke-width:2; stroke-opacity:0.1; fill:none" points="1690.97,1486.45 1690.97,47.2441 "/>
<polyline clip-path="url(#clip882)" style="stroke:#000000; stroke-linecap:round; stroke-linejoin:round; stroke-width:2; stroke-opacity:0.1; fill:none" points="2100.07,1486.45 2100.07,47.2441 "/>
<polyline clip-path="url(#clip880)" style="stroke:#000000; stroke-linecap:round; stroke-linejoin:round; stroke-width:4; stroke-opacity:1; fill:none" points="172.015,1486.45 2352.76,1486.45 "/>
<polyline clip-path="url(#clip880)" style="stroke:#000000; stroke-linecap:round; stroke-linejoin:round; stroke-width:4; stroke-opacity:1; fill:none" points="463.669,1486.45 463.669,1467.55 "/>
<polyline clip-path="url(#clip880)" style="stroke:#000000; stroke-linecap:round; stroke-linejoin:round; stroke-width:4; stroke-opacity:1; fill:none" points="872.769,1486.45 872.769,1467.55 "/>
<polyline clip-path="url(#clip880)" style="stroke:#000000; stroke-linecap:round; stroke-linejoin:round; stroke-width:4; stroke-opacity:1; fill:none" points="1281.87,1486.45 1281.87,1467.55 "/>
<polyline clip-path="url(#clip880)" style="stroke:#000000; stroke-linecap:round; stroke-linejoin:round; stroke-width:4; stroke-opacity:1; fill:none" points="1690.97,1486.45 1690.97,1467.55 "/>
<polyline clip-path="url(#clip880)" style="stroke:#000000; stroke-linecap:round; stroke-linejoin:round; stroke-width:4; stroke-opacity:1; fill:none" points="2100.07,1486.45 2100.07,1467.55 "/>
<path clip-path="url(#clip880)" d="M408.194 1544.91 L415.833 1544.91 L415.833 1518.55 L407.523 1520.21 L407.523 1515.95 L415.787 1514.29 L420.463 1514.29 L420.463 1544.91 L428.102 1544.91 L428.102 1548.85 L408.194 1548.85 L408.194 1544.91 Z" fill="#000000" fill-rule="nonzero" fill-opacity="1" /><path clip-path="url(#clip880)" d="M437.685 1548.13 L437.685 1543.87 Q439.444 1544.7 441.25 1545.14 Q443.055 1545.58 444.791 1545.58 Q449.421 1545.58 451.852 1542.48 Q454.305 1539.36 454.652 1533.01 Q453.31 1535.01 451.25 1536.07 Q449.19 1537.13 446.69 1537.13 Q441.504 1537.13 438.472 1534.01 Q435.463 1530.86 435.463 1525.42 Q435.463 1520.1 438.611 1516.88 Q441.759 1513.66 446.99 1513.66 Q452.986 1513.66 456.134 1518.27 Q459.305 1522.85 459.305 1531.6 Q459.305 1539.77 455.416 1544.66 Q451.551 1549.52 445 1549.52 Q443.24 1549.52 441.435 1549.17 Q439.629 1548.82 437.685 1548.13 M446.99 1533.48 Q450.139 1533.48 451.967 1531.32 Q453.819 1529.17 453.819 1525.42 Q453.819 1521.7 451.967 1519.54 Q450.139 1517.37 446.99 1517.37 Q443.842 1517.37 441.99 1519.54 Q440.162 1521.7 440.162 1525.42 Q440.162 1529.17 441.99 1531.32 Q443.842 1533.48 446.99 1533.48 Z" fill="#000000" fill-rule="nonzero" fill-opacity="1" /><path clip-path="url(#clip880)" d="M477.708 1532.44 Q474.375 1532.44 472.453 1534.22 Q470.555 1536 470.555 1539.13 Q470.555 1542.25 472.453 1544.03 Q474.375 1545.82 477.708 1545.82 Q481.041 1545.82 482.962 1544.03 Q484.884 1542.23 484.884 1539.13 Q484.884 1536 482.962 1534.22 Q481.064 1532.44 477.708 1532.44 M473.032 1530.45 Q470.023 1529.7 468.333 1527.64 Q466.666 1525.58 466.666 1522.62 Q466.666 1518.48 469.606 1516.07 Q472.569 1513.66 477.708 1513.66 Q482.87 1513.66 485.81 1516.07 Q488.749 1518.48 488.749 1522.62 Q488.749 1525.58 487.06 1527.64 Q485.393 1529.7 482.407 1530.45 Q485.787 1531.23 487.662 1533.52 Q489.56 1535.82 489.56 1539.13 Q489.56 1544.15 486.481 1546.83 Q483.425 1549.52 477.708 1549.52 Q471.99 1549.52 468.912 1546.83 Q465.856 1544.15 465.856 1539.13 Q465.856 1535.82 467.754 1533.52 Q469.652 1531.23 473.032 1530.45 M471.319 1523.06 Q471.319 1525.75 472.986 1527.25 Q474.675 1528.76 477.708 1528.76 Q480.717 1528.76 482.407 1527.25 Q484.12 1525.75 484.12 1523.06 Q484.12 1520.38 482.407 1518.87 Q480.717 1517.37 477.708 1517.37 Q474.675 1517.37 472.986 1518.87 Q471.319 1520.38 471.319 1523.06 Z" fill="#000000" fill-rule="nonzero" fill-opacity="1" /><path clip-path="url(#clip880)" d="M507.87 1517.37 Q504.259 1517.37 502.43 1520.93 Q500.624 1524.47 500.624 1531.6 Q500.624 1538.71 502.43 1542.27 Q504.259 1545.82 507.87 1545.82 Q511.504 1545.82 513.31 1542.27 Q515.138 1538.71 515.138 1531.6 Q515.138 1524.47 513.31 1520.93 Q511.504 1517.37 507.87 1517.37 M507.87 1513.66 Q513.68 1513.66 516.735 1518.27 Q519.814 1522.85 519.814 1531.6 Q519.814 1540.33 516.735 1544.94 Q513.68 1549.52 507.87 1549.52 Q502.06 1549.52 498.981 1544.94 Q495.925 1540.33 495.925 1531.6 Q495.925 1522.85 498.981 1518.27 Q502.06 1513.66 507.87 1513.66 Z" fill="#000000" fill-rule="nonzero" fill-opacity="1" /><path clip-path="url(#clip880)" d="M817.294 1544.91 L824.933 1544.91 L824.933 1518.55 L816.623 1520.21 L816.623 1515.95 L824.887 1514.29 L829.563 1514.29 L829.563 1544.91 L837.202 1544.91 L837.202 1548.85 L817.294 1548.85 L817.294 1544.91 Z" fill="#000000" fill-rule="nonzero" fill-opacity="1" /><path clip-path="url(#clip880)" d="M846.785 1548.13 L846.785 1543.87 Q848.544 1544.7 850.35 1545.14 Q852.155 1545.58 853.891 1545.58 Q858.521 1545.58 860.952 1542.48 Q863.405 1539.36 863.753 1533.01 Q862.41 1535.01 860.35 1536.07 Q858.29 1537.13 855.79 1537.13 Q850.604 1537.13 847.572 1534.01 Q844.563 1530.86 844.563 1525.42 Q844.563 1520.1 847.711 1516.88 Q850.859 1513.66 856.091 1513.66 Q862.086 1513.66 865.234 1518.27 Q868.405 1522.85 868.405 1531.6 Q868.405 1539.77 864.516 1544.66 Q860.651 1549.52 854.1 1549.52 Q852.341 1549.52 850.535 1549.17 Q848.729 1548.82 846.785 1548.13 M856.091 1533.48 Q859.239 1533.48 861.067 1531.32 Q862.919 1529.17 862.919 1525.42 Q862.919 1521.7 861.067 1519.54 Q859.239 1517.37 856.091 1517.37 Q852.942 1517.37 851.091 1519.54 Q849.262 1521.7 849.262 1525.42 Q849.262 1529.17 851.091 1531.32 Q852.942 1533.48 856.091 1533.48 Z" fill="#000000" fill-rule="nonzero" fill-opacity="1" /><path clip-path="url(#clip880)" d="M876.947 1548.13 L876.947 1543.87 Q878.706 1544.7 880.512 1545.14 Q882.317 1545.58 884.053 1545.58 Q888.683 1545.58 891.113 1542.48 Q893.567 1539.36 893.914 1533.01 Q892.572 1535.01 890.512 1536.07 Q888.451 1537.13 885.951 1537.13 Q880.766 1537.13 877.734 1534.01 Q874.725 1530.86 874.725 1525.42 Q874.725 1520.1 877.873 1516.88 Q881.021 1513.66 886.252 1513.66 Q892.248 1513.66 895.396 1518.27 Q898.567 1522.85 898.567 1531.6 Q898.567 1539.77 894.678 1544.66 Q890.813 1549.52 884.262 1549.52 Q882.502 1549.52 880.697 1549.17 Q878.891 1548.82 876.947 1548.13 M886.252 1533.48 Q889.401 1533.48 891.229 1531.32 Q893.081 1529.17 893.081 1525.42 Q893.081 1521.7 891.229 1519.54 Q889.401 1517.37 886.252 1517.37 Q883.104 1517.37 881.252 1519.54 Q879.424 1521.7 879.424 1525.42 Q879.424 1529.17 881.252 1531.32 Q883.104 1533.48 886.252 1533.48 Z" fill="#000000" fill-rule="nonzero" fill-opacity="1" /><path clip-path="url(#clip880)" d="M916.97 1517.37 Q913.359 1517.37 911.53 1520.93 Q909.724 1524.47 909.724 1531.6 Q909.724 1538.71 911.53 1542.27 Q913.359 1545.82 916.97 1545.82 Q920.604 1545.82 922.41 1542.27 Q924.238 1538.71 924.238 1531.6 Q924.238 1524.47 922.41 1520.93 Q920.604 1517.37 916.97 1517.37 M916.97 1513.66 Q922.78 1513.66 925.836 1518.27 Q928.914 1522.85 928.914 1531.6 Q928.914 1540.33 925.836 1544.94 Q922.78 1549.52 916.97 1549.52 Q911.16 1549.52 908.081 1544.94 Q905.025 1540.33 905.025 1531.6 Q905.025 1522.85 908.081 1518.27 Q911.16 1513.66 916.97 1513.66 Z" fill="#000000" fill-rule="nonzero" fill-opacity="1" /><path clip-path="url(#clip880)" d="M1230.48 1544.91 L1246.8 1544.91 L1246.8 1548.85 L1224.86 1548.85 L1224.86 1544.91 Q1227.52 1542.16 1232.1 1537.53 Q1236.71 1532.88 1237.89 1531.53 Q1240.13 1529.01 1241.01 1527.27 Q1241.92 1525.51 1241.92 1523.82 Q1241.92 1521.07 1239.97 1519.33 Q1238.05 1517.6 1234.95 1517.6 Q1232.75 1517.6 1230.29 1518.36 Q1227.86 1519.13 1225.09 1520.68 L1225.09 1515.95 Q1227.91 1514.82 1230.36 1514.24 Q1232.82 1513.66 1234.86 1513.66 Q1240.23 1513.66 1243.42 1516.35 Q1246.61 1519.03 1246.61 1523.52 Q1246.61 1525.65 1245.8 1527.57 Q1245.02 1529.47 1242.91 1532.07 Q1242.33 1532.74 1239.23 1535.95 Q1236.13 1539.15 1230.48 1544.91 Z" fill="#000000" fill-rule="nonzero" fill-opacity="1" /><path clip-path="url(#clip880)" d="M1266.61 1517.37 Q1263 1517.37 1261.17 1520.93 Q1259.37 1524.47 1259.37 1531.6 Q1259.37 1538.71 1261.17 1542.27 Q1263 1545.82 1266.61 1545.82 Q1270.25 1545.82 1272.05 1542.27 Q1273.88 1538.71 1273.88 1531.6 Q1273.88 1524.47 1272.05 1520.93 Q1270.25 1517.37 1266.61 1517.37 M1266.61 1513.66 Q1272.42 1513.66 1275.48 1518.27 Q1278.56 1522.85 1278.56 1531.6 Q1278.56 1540.33 1275.48 1544.94 Q1272.42 1549.52 1266.61 1549.52 Q1260.8 1549.52 1257.73 1544.94 Q1254.67 1540.33 1254.67 1531.6 Q1254.67 1522.85 1257.73 1518.27 Q1260.8 1513.66 1266.61 1513.66 Z" fill="#000000" fill-rule="nonzero" fill-opacity="1" /><path clip-path="url(#clip880)" d="M1296.78 1517.37 Q1293.16 1517.37 1291.34 1520.93 Q1289.53 1524.47 1289.53 1531.6 Q1289.53 1538.71 1291.34 1542.27 Q1293.16 1545.82 1296.78 1545.82 Q1300.41 1545.82 1302.22 1542.27 Q1304.04 1538.71 1304.04 1531.6 Q1304.04 1524.47 1302.22 1520.93 Q1300.41 1517.37 1296.78 1517.37 M1296.78 1513.66 Q1302.59 1513.66 1305.64 1518.27 Q1308.72 1522.85 1308.72 1531.6 Q1308.72 1540.33 1305.64 1544.94 Q1302.59 1549.52 1296.78 1549.52 Q1290.97 1549.52 1287.89 1544.94 Q1284.83 1540.33 1284.83 1531.6 Q1284.83 1522.85 1287.89 1518.27 Q1290.97 1513.66 1296.78 1513.66 Z" fill="#000000" fill-rule="nonzero" fill-opacity="1" /><path clip-path="url(#clip880)" d="M1326.94 1517.37 Q1323.33 1517.37 1321.5 1520.93 Q1319.69 1524.47 1319.69 1531.6 Q1319.69 1538.71 1321.5 1542.27 Q1323.33 1545.82 1326.94 1545.82 Q1330.57 1545.82 1332.38 1542.27 Q1334.21 1538.71 1334.21 1531.6 Q1334.21 1524.47 1332.38 1520.93 Q1330.57 1517.37 1326.94 1517.37 M1326.94 1513.66 Q1332.75 1513.66 1335.8 1518.27 Q1338.88 1522.85 1338.88 1531.6 Q1338.88 1540.33 1335.8 1544.94 Q1332.75 1549.52 1326.94 1549.52 Q1321.13 1549.52 1318.05 1544.94 Q1314.99 1540.33 1314.99 1531.6 Q1314.99 1522.85 1318.05 1518.27 Q1321.13 1513.66 1326.94 1513.66 Z" fill="#000000" fill-rule="nonzero" fill-opacity="1" /><path clip-path="url(#clip880)" d="M1639.58 1544.91 L1655.9 1544.91 L1655.9 1548.85 L1633.96 1548.85 L1633.96 1544.91 Q1636.62 1542.16 1641.2 1537.53 Q1645.81 1532.88 1646.99 1531.53 Q1649.23 1529.01 1650.11 1527.27 Q1651.02 1525.51 1651.02 1523.82 Q1651.02 1521.07 1649.07 1519.33 Q1647.15 1517.6 1644.05 1517.6 Q1641.85 1517.6 1639.4 1518.36 Q1636.96 1519.13 1634.19 1520.68 L1634.19 1515.95 Q1637.01 1514.82 1639.46 1514.24 Q1641.92 1513.66 1643.96 1513.66 Q1649.33 1513.66 1652.52 1516.35 Q1655.71 1519.03 1655.71 1523.52 Q1655.71 1525.65 1654.9 1527.57 Q1654.12 1529.47 1652.01 1532.07 Q1651.43 1532.74 1648.33 1535.95 Q1645.23 1539.15 1639.58 1544.91 Z" fill="#000000" fill-rule="nonzero" fill-opacity="1" /><path clip-path="url(#clip880)" d="M1675.71 1517.37 Q1672.1 1517.37 1670.27 1520.93 Q1668.47 1524.47 1668.47 1531.6 Q1668.47 1538.71 1670.27 1542.27 Q1672.1 1545.82 1675.71 1545.82 Q1679.35 1545.82 1681.15 1542.27 Q1682.98 1538.71 1682.98 1531.6 Q1682.98 1524.47 1681.15 1520.93 Q1679.35 1517.37 1675.71 1517.37 M1675.71 1513.66 Q1681.52 1513.66 1684.58 1518.27 Q1687.66 1522.85 1687.66 1531.6 Q1687.66 1540.33 1684.58 1544.94 Q1681.52 1549.52 1675.71 1549.52 Q1669.9 1549.52 1666.83 1544.94 Q1663.77 1540.33 1663.77 1531.6 Q1663.77 1522.85 1666.83 1518.27 Q1669.9 1513.66 1675.71 1513.66 Z" fill="#000000" fill-rule="nonzero" fill-opacity="1" /><path clip-path="url(#clip880)" d="M1696.69 1544.91 L1704.33 1544.91 L1704.33 1518.55 L1696.02 1520.21 L1696.02 1515.95 L1704.28 1514.29 L1708.95 1514.29 L1708.95 1544.91 L1716.59 1544.91 L1716.59 1548.85 L1696.69 1548.85 L1696.69 1544.91 Z" fill="#000000" fill-rule="nonzero" fill-opacity="1" /><path clip-path="url(#clip880)" d="M1736.04 1517.37 Q1732.43 1517.37 1730.6 1520.93 Q1728.79 1524.47 1728.79 1531.6 Q1728.79 1538.71 1730.6 1542.27 Q1732.43 1545.82 1736.04 1545.82 Q1739.67 1545.82 1741.48 1542.27 Q1743.31 1538.71 1743.31 1531.6 Q1743.31 1524.47 1741.48 1520.93 Q1739.67 1517.37 1736.04 1517.37 M1736.04 1513.66 Q1741.85 1513.66 1744.9 1518.27 Q1747.98 1522.85 1747.98 1531.6 Q1747.98 1540.33 1744.9 1544.94 Q1741.85 1549.52 1736.04 1549.52 Q1730.23 1549.52 1727.15 1544.94 Q1724.09 1540.33 1724.09 1531.6 Q1724.09 1522.85 1727.15 1518.27 Q1730.23 1513.66 1736.04 1513.66 Z" fill="#000000" fill-rule="nonzero" fill-opacity="1" /><path clip-path="url(#clip880)" d="M2048.68 1544.91 L2065 1544.91 L2065 1548.85 L2043.06 1548.85 L2043.06 1544.91 Q2045.72 1542.16 2050.3 1537.53 Q2054.91 1532.88 2056.09 1531.53 Q2058.33 1529.01 2059.21 1527.27 Q2060.12 1525.51 2060.12 1523.82 Q2060.12 1521.07 2058.17 1519.33 Q2056.25 1517.6 2053.15 1517.6 Q2050.95 1517.6 2048.5 1518.36 Q2046.06 1519.13 2043.29 1520.68 L2043.29 1515.95 Q2046.11 1514.82 2048.56 1514.24 Q2051.02 1513.66 2053.06 1513.66 Q2058.43 1513.66 2061.62 1516.35 Q2064.81 1519.03 2064.81 1523.52 Q2064.81 1525.65 2064 1527.57 Q2063.22 1529.47 2061.11 1532.07 Q2060.53 1532.74 2057.43 1535.95 Q2054.33 1539.15 2048.68 1544.91 Z" fill="#000000" fill-rule="nonzero" fill-opacity="1" /><path clip-path="url(#clip880)" d="M2084.81 1517.37 Q2081.2 1517.37 2079.37 1520.93 Q2077.57 1524.47 2077.57 1531.6 Q2077.57 1538.71 2079.37 1542.27 Q2081.2 1545.82 2084.81 1545.82 Q2088.45 1545.82 2090.25 1542.27 Q2092.08 1538.71 2092.08 1531.6 Q2092.08 1524.47 2090.25 1520.93 Q2088.45 1517.37 2084.81 1517.37 M2084.81 1513.66 Q2090.62 1513.66 2093.68 1518.27 Q2096.76 1522.85 2096.76 1531.6 Q2096.76 1540.33 2093.68 1544.94 Q2090.62 1549.52 2084.81 1549.52 Q2079 1549.52 2075.93 1544.94 Q2072.87 1540.33 2072.87 1531.6 Q2072.87 1522.85 2075.93 1518.27 Q2079 1513.66 2084.81 1513.66 Z" fill="#000000" fill-rule="nonzero" fill-opacity="1" /><path clip-path="url(#clip880)" d="M2109 1544.91 L2125.32 1544.91 L2125.32 1548.85 L2103.38 1548.85 L2103.38 1544.91 Q2106.04 1542.16 2110.62 1537.53 Q2115.23 1532.88 2116.41 1531.53 Q2118.66 1529.01 2119.54 1527.27 Q2120.44 1525.51 2120.44 1523.82 Q2120.44 1521.07 2118.49 1519.33 Q2116.57 1517.6 2113.47 1517.6 Q2111.27 1517.6 2108.82 1518.36 Q2106.39 1519.13 2103.61 1520.68 L2103.61 1515.95 Q2106.43 1514.82 2108.89 1514.24 Q2111.34 1513.66 2113.38 1513.66 Q2118.75 1513.66 2121.94 1516.35 Q2125.14 1519.03 2125.14 1523.52 Q2125.14 1525.65 2124.33 1527.57 Q2123.54 1529.47 2121.43 1532.07 Q2120.86 1532.74 2117.75 1535.95 Q2114.65 1539.15 2109 1544.91 Z" fill="#000000" fill-rule="nonzero" fill-opacity="1" /><path clip-path="url(#clip880)" d="M2145.14 1517.37 Q2141.53 1517.37 2139.7 1520.93 Q2137.89 1524.47 2137.89 1531.6 Q2137.89 1538.71 2139.7 1542.27 Q2141.53 1545.82 2145.14 1545.82 Q2148.77 1545.82 2150.58 1542.27 Q2152.41 1538.71 2152.41 1531.6 Q2152.41 1524.47 2150.58 1520.93 Q2148.77 1517.37 2145.14 1517.37 M2145.14 1513.66 Q2150.95 1513.66 2154 1518.27 Q2157.08 1522.85 2157.08 1531.6 Q2157.08 1540.33 2154 1544.94 Q2150.95 1549.52 2145.14 1549.52 Q2139.33 1549.52 2136.25 1544.94 Q2133.19 1540.33 2133.19 1531.6 Q2133.19 1522.85 2136.25 1518.27 Q2139.33 1513.66 2145.14 1513.66 Z" fill="#000000" fill-rule="nonzero" fill-opacity="1" /><polyline clip-path="url(#clip882)" style="stroke:#000000; stroke-linecap:round; stroke-linejoin:round; stroke-width:2; stroke-opacity:0.1; fill:none" points="172.015,1314.31 2352.76,1314.31 "/>
<polyline clip-path="url(#clip882)" style="stroke:#000000; stroke-linecap:round; stroke-linejoin:round; stroke-width:2; stroke-opacity:0.1; fill:none" points="172.015,1021.97 2352.76,1021.97 "/>
<polyline clip-path="url(#clip882)" style="stroke:#000000; stroke-linecap:round; stroke-linejoin:round; stroke-width:2; stroke-opacity:0.1; fill:none" points="172.015,729.637 2352.76,729.637 "/>
<polyline clip-path="url(#clip882)" style="stroke:#000000; stroke-linecap:round; stroke-linejoin:round; stroke-width:2; stroke-opacity:0.1; fill:none" points="172.015,437.301 2352.76,437.301 "/>
<polyline clip-path="url(#clip882)" style="stroke:#000000; stroke-linecap:round; stroke-linejoin:round; stroke-width:2; stroke-opacity:0.1; fill:none" points="172.015,144.964 2352.76,144.964 "/>
<polyline clip-path="url(#clip880)" style="stroke:#000000; stroke-linecap:round; stroke-linejoin:round; stroke-width:4; stroke-opacity:1; fill:none" points="172.015,1486.45 172.015,47.2441 "/>
<polyline clip-path="url(#clip880)" style="stroke:#000000; stroke-linecap:round; stroke-linejoin:round; stroke-width:4; stroke-opacity:1; fill:none" points="172.015,1314.31 190.912,1314.31 "/>
<polyline clip-path="url(#clip880)" style="stroke:#000000; stroke-linecap:round; stroke-linejoin:round; stroke-width:4; stroke-opacity:1; fill:none" points="172.015,1021.97 190.912,1021.97 "/>
<polyline clip-path="url(#clip880)" style="stroke:#000000; stroke-linecap:round; stroke-linejoin:round; stroke-width:4; stroke-opacity:1; fill:none" points="172.015,729.637 190.912,729.637 "/>
<polyline clip-path="url(#clip880)" style="stroke:#000000; stroke-linecap:round; stroke-linejoin:round; stroke-width:4; stroke-opacity:1; fill:none" points="172.015,437.301 190.912,437.301 "/>
<polyline clip-path="url(#clip880)" style="stroke:#000000; stroke-linecap:round; stroke-linejoin:round; stroke-width:4; stroke-opacity:1; fill:none" points="172.015,144.964 190.912,144.964 "/>
<path clip-path="url(#clip880)" d="M67.9133 1312.96 Q71.2698 1313.67 73.1448 1315.94 Q75.0429 1318.21 75.0429 1321.54 Q75.0429 1326.66 71.5244 1329.46 Q68.0059 1332.26 61.5245 1332.26 Q59.3486 1332.26 57.0338 1331.82 Q54.7421 1331.4 52.2884 1330.55 L52.2884 1326.03 Q54.2328 1327.17 56.5477 1327.75 Q58.8625 1328.33 61.3856 1328.33 Q65.7837 1328.33 68.0754 1326.59 Q70.3902 1324.85 70.3902 1321.54 Q70.3902 1318.49 68.2374 1316.78 Q66.1078 1315.04 62.2884 1315.04 L58.2606 1315.04 L58.2606 1311.2 L62.4735 1311.2 Q65.9226 1311.2 67.7513 1309.83 Q69.58 1308.44 69.58 1305.85 Q69.58 1303.19 67.6819 1301.78 Q65.8069 1300.34 62.2884 1300.34 Q60.3671 1300.34 58.168 1300.76 Q55.969 1301.17 53.3301 1302.05 L53.3301 1297.89 Q55.9921 1297.15 58.3069 1296.78 Q60.6449 1296.41 62.705 1296.41 Q68.0291 1296.41 71.1309 1298.84 Q74.2327 1301.24 74.2327 1305.36 Q74.2327 1308.23 72.5892 1310.22 Q70.9457 1312.19 67.9133 1312.96 Z" fill="#000000" fill-rule="nonzero" fill-opacity="1" /><path clip-path="url(#clip880)" d="M96.7558 1301.1 L84.9503 1319.55 L96.7558 1319.55 L96.7558 1301.1 M95.5289 1297.03 L101.409 1297.03 L101.409 1319.55 L106.339 1319.55 L106.339 1323.44 L101.409 1323.44 L101.409 1331.59 L96.7558 1331.59 L96.7558 1323.44 L81.154 1323.44 L81.154 1318.93 L95.5289 1297.03 Z" fill="#000000" fill-rule="nonzero" fill-opacity="1" /><path clip-path="url(#clip880)" d="M124.07 1300.11 Q120.459 1300.11 118.631 1303.67 Q116.825 1307.22 116.825 1314.34 Q116.825 1321.45 118.631 1325.02 Q120.459 1328.56 124.07 1328.56 Q127.705 1328.56 129.51 1325.02 Q131.339 1321.45 131.339 1314.34 Q131.339 1307.22 129.51 1303.67 Q127.705 1300.11 124.07 1300.11 M124.07 1296.41 Q129.881 1296.41 132.936 1301.01 Q136.015 1305.59 136.015 1314.34 Q136.015 1323.07 132.936 1327.68 Q129.881 1332.26 124.07 1332.26 Q118.26 1332.26 115.182 1327.68 Q112.126 1323.07 112.126 1314.34 Q112.126 1305.59 115.182 1301.01 Q118.26 1296.41 124.07 1296.41 Z" fill="#000000" fill-rule="nonzero" fill-opacity="1" /><path clip-path="url(#clip880)" d="M67.9133 1020.62 Q71.2698 1021.34 73.1448 1023.61 Q75.0429 1025.87 75.0429 1029.21 Q75.0429 1034.32 71.5244 1037.12 Q68.0059 1039.92 61.5245 1039.92 Q59.3486 1039.92 57.0338 1039.49 Q54.7421 1039.07 52.2884 1038.21 L52.2884 1033.7 Q54.2328 1034.83 56.5477 1035.41 Q58.8625 1035.99 61.3856 1035.99 Q65.7837 1035.99 68.0754 1034.25 Q70.3902 1032.52 70.3902 1029.21 Q70.3902 1026.15 68.2374 1024.44 Q66.1078 1022.7 62.2884 1022.7 L58.2606 1022.7 L58.2606 1018.86 L62.4735 1018.86 Q65.9226 1018.86 67.7513 1017.49 Q69.58 1016.11 69.58 1013.51 Q69.58 1010.85 67.6819 1009.44 Q65.8069 1008 62.2884 1008 Q60.3671 1008 58.168 1008.42 Q55.969 1008.84 53.3301 1009.72 L53.3301 1005.55 Q55.9921 1004.81 58.3069 1004.44 Q60.6449 1004.07 62.705 1004.07 Q68.0291 1004.07 71.1309 1006.5 Q74.2327 1008.91 74.2327 1013.03 Q74.2327 1015.9 72.5892 1017.89 Q70.9457 1019.86 67.9133 1020.62 Z" fill="#000000" fill-rule="nonzero" fill-opacity="1" /><path clip-path="url(#clip880)" d="M94.4873 1020.11 Q91.3391 1020.11 89.4873 1022.26 Q87.6586 1024.42 87.6586 1028.17 Q87.6586 1031.89 89.4873 1034.07 Q91.3391 1036.22 94.4873 1036.22 Q97.6354 1036.22 99.4641 1034.07 Q101.316 1031.89 101.316 1028.17 Q101.316 1024.42 99.4641 1022.26 Q97.6354 1020.11 94.4873 1020.11 M103.77 1005.46 L103.77 1009.72 Q102.01 1008.88 100.205 1008.44 Q98.4224 1008 96.6632 1008 Q92.0336 1008 89.5799 1011.13 Q87.1493 1014.25 86.8021 1020.57 Q88.1679 1018.56 90.228 1017.49 Q92.2882 1016.41 94.765 1016.41 Q99.9733 1016.41 102.983 1019.58 Q106.015 1022.73 106.015 1028.17 Q106.015 1033.49 102.867 1036.71 Q99.7187 1039.92 94.4873 1039.92 Q88.4919 1039.92 85.3206 1035.34 Q82.1494 1030.74 82.1494 1022.01 Q82.1494 1013.81 86.0382 1008.95 Q89.9271 1004.07 96.478 1004.07 Q98.2372 1004.07 100.02 1004.42 Q101.825 1004.76 103.77 1005.46 Z" fill="#000000" fill-rule="nonzero" fill-opacity="1" /><path clip-path="url(#clip880)" d="M124.07 1007.77 Q120.459 1007.77 118.631 1011.34 Q116.825 1014.88 116.825 1022.01 Q116.825 1029.11 118.631 1032.68 Q120.459 1036.22 124.07 1036.22 Q127.705 1036.22 129.51 1032.68 Q131.339 1029.11 131.339 1022.01 Q131.339 1014.88 129.51 1011.34 Q127.705 1007.77 124.07 1007.77 M124.07 1004.07 Q129.881 1004.07 132.936 1008.68 Q136.015 1013.26 136.015 1022.01 Q136.015 1030.74 132.936 1035.34 Q129.881 1039.92 124.07 1039.92 Q118.26 1039.92 115.182 1035.34 Q112.126 1030.74 112.126 1022.01 Q112.126 1013.26 115.182 1008.68 Q118.26 1004.07 124.07 1004.07 Z" fill="#000000" fill-rule="nonzero" fill-opacity="1" /><path clip-path="url(#clip880)" d="M67.9133 728.283 Q71.2698 729.001 73.1448 731.269 Q75.0429 733.538 75.0429 736.871 Q75.0429 741.987 71.5244 744.788 Q68.0059 747.589 61.5245 747.589 Q59.3486 747.589 57.0338 747.149 Q54.7421 746.732 52.2884 745.876 L52.2884 741.362 Q54.2328 742.496 56.5477 743.075 Q58.8625 743.653 61.3856 743.653 Q65.7837 743.653 68.0754 741.917 Q70.3902 740.181 70.3902 736.871 Q70.3902 733.815 68.2374 732.103 Q66.1078 730.366 62.2884 730.366 L58.2606 730.366 L58.2606 726.524 L62.4735 726.524 Q65.9226 726.524 67.7513 725.158 Q69.58 723.769 69.58 721.177 Q69.58 718.515 67.6819 717.103 Q65.8069 715.667 62.2884 715.667 Q60.3671 715.667 58.168 716.084 Q55.969 716.501 53.3301 717.38 L53.3301 713.214 Q55.9921 712.473 58.3069 712.103 Q60.6449 711.732 62.705 711.732 Q68.0291 711.732 71.1309 714.163 Q74.2327 716.57 74.2327 720.691 Q74.2327 723.561 72.5892 725.552 Q70.9457 727.519 67.9133 728.283 Z" fill="#000000" fill-rule="nonzero" fill-opacity="1" /><path clip-path="url(#clip880)" d="M93.9086 730.505 Q90.5752 730.505 88.654 732.288 Q86.7558 734.07 86.7558 737.195 Q86.7558 740.32 88.654 742.102 Q90.5752 743.885 93.9086 743.885 Q97.2419 743.885 99.1632 742.102 Q101.084 740.297 101.084 737.195 Q101.084 734.07 99.1632 732.288 Q97.265 730.505 93.9086 730.505 M89.2327 728.515 Q86.2234 727.774 84.5336 725.714 Q82.867 723.653 82.867 720.691 Q82.867 716.547 85.8068 714.14 Q88.7697 711.732 93.9086 711.732 Q99.0706 711.732 102.01 714.14 Q104.95 716.547 104.95 720.691 Q104.95 723.653 103.26 725.714 Q101.594 727.774 98.6076 728.515 Q101.987 729.302 103.862 731.593 Q105.76 733.885 105.76 737.195 Q105.76 742.218 102.682 744.903 Q99.6261 747.589 93.9086 747.589 Q88.191 747.589 85.1123 744.903 Q82.0568 742.218 82.0568 737.195 Q82.0568 733.885 83.9549 731.593 Q85.8531 729.302 89.2327 728.515 M87.5197 721.13 Q87.5197 723.816 89.1864 725.32 Q90.8762 726.825 93.9086 726.825 Q96.9178 726.825 98.6076 725.32 Q100.321 723.816 100.321 721.13 Q100.321 718.445 98.6076 716.941 Q96.9178 715.436 93.9086 715.436 Q90.8762 715.436 89.1864 716.941 Q87.5197 718.445 87.5197 721.13 Z" fill="#000000" fill-rule="nonzero" fill-opacity="1" /><path clip-path="url(#clip880)" d="M124.07 715.436 Q120.459 715.436 118.631 719.001 Q116.825 722.542 116.825 729.672 Q116.825 736.778 118.631 740.343 Q120.459 743.885 124.07 743.885 Q127.705 743.885 129.51 740.343 Q131.339 736.778 131.339 729.672 Q131.339 722.542 129.51 719.001 Q127.705 715.436 124.07 715.436 M124.07 711.732 Q129.881 711.732 132.936 716.339 Q136.015 720.922 136.015 729.672 Q136.015 738.399 132.936 743.005 Q129.881 747.589 124.07 747.589 Q118.26 747.589 115.182 743.005 Q112.126 738.399 112.126 729.672 Q112.126 720.922 115.182 716.339 Q118.26 711.732 124.07 711.732 Z" fill="#000000" fill-rule="nonzero" fill-opacity="1" /><path clip-path="url(#clip880)" d="M66.5939 424.095 L54.7884 442.544 L66.5939 442.544 L66.5939 424.095 M65.367 420.021 L71.2466 420.021 L71.2466 442.544 L76.1772 442.544 L76.1772 446.433 L71.2466 446.433 L71.2466 454.581 L66.5939 454.581 L66.5939 446.433 L50.9921 446.433 L50.9921 441.919 L65.367 420.021 Z" fill="#000000" fill-rule="nonzero" fill-opacity="1" /><path clip-path="url(#clip880)" d="M93.9086 423.1 Q90.2975 423.1 88.4688 426.664 Q86.6632 430.206 86.6632 437.336 Q86.6632 444.442 88.4688 448.007 Q90.2975 451.548 93.9086 451.548 Q97.5428 451.548 99.3483 448.007 Q101.177 444.442 101.177 437.336 Q101.177 430.206 99.3483 426.664 Q97.5428 423.1 93.9086 423.1 M93.9086 419.396 Q99.7187 419.396 102.774 424.002 Q105.853 428.586 105.853 437.336 Q105.853 446.062 102.774 450.669 Q99.7187 455.252 93.9086 455.252 Q88.0984 455.252 85.0197 450.669 Q81.9642 446.062 81.9642 437.336 Q81.9642 428.586 85.0197 424.002 Q88.0984 419.396 93.9086 419.396 Z" fill="#000000" fill-rule="nonzero" fill-opacity="1" /><path clip-path="url(#clip880)" d="M124.07 423.1 Q120.459 423.1 118.631 426.664 Q116.825 430.206 116.825 437.336 Q116.825 444.442 118.631 448.007 Q120.459 451.548 124.07 451.548 Q127.705 451.548 129.51 448.007 Q131.339 444.442 131.339 437.336 Q131.339 430.206 129.51 426.664 Q127.705 423.1 124.07 423.1 M124.07 419.396 Q129.881 419.396 132.936 424.002 Q136.015 428.586 136.015 437.336 Q136.015 446.062 132.936 450.669 Q129.881 455.252 124.07 455.252 Q118.26 455.252 115.182 450.669 Q112.126 446.062 112.126 437.336 Q112.126 428.586 115.182 424.002 Q118.26 419.396 124.07 419.396 Z" fill="#000000" fill-rule="nonzero" fill-opacity="1" /><path clip-path="url(#clip880)" d="M66.5939 131.759 L54.7884 150.207 L66.5939 150.207 L66.5939 131.759 M65.367 127.684 L71.2466 127.684 L71.2466 150.207 L76.1772 150.207 L76.1772 154.096 L71.2466 154.096 L71.2466 162.244 L66.5939 162.244 L66.5939 154.096 L50.9921 154.096 L50.9921 149.582 L65.367 127.684 Z" fill="#000000" fill-rule="nonzero" fill-opacity="1" /><path clip-path="url(#clip880)" d="M87.9364 158.309 L104.256 158.309 L104.256 162.244 L82.3114 162.244 L82.3114 158.309 Q84.9734 155.555 89.5567 150.925 Q94.1632 146.272 95.3437 144.93 Q97.5891 142.407 98.4687 140.671 Q99.3715 138.911 99.3715 137.221 Q99.3715 134.467 97.4271 132.731 Q95.5058 130.995 92.4039 130.995 Q90.2049 130.995 87.7512 131.759 Q85.3206 132.522 82.5429 134.073 L82.5429 129.351 Q85.3669 128.217 87.8206 127.638 Q90.2743 127.059 92.3113 127.059 Q97.6817 127.059 100.876 129.745 Q104.071 132.43 104.071 136.921 Q104.071 139.05 103.26 140.971 Q102.473 142.87 100.367 145.462 Q99.7882 146.133 96.6863 149.351 Q93.5845 152.545 87.9364 158.309 Z" fill="#000000" fill-rule="nonzero" fill-opacity="1" /><path clip-path="url(#clip880)" d="M124.07 130.763 Q120.459 130.763 118.631 134.328 Q116.825 137.87 116.825 144.999 Q116.825 152.106 118.631 155.67 Q120.459 159.212 124.07 159.212 Q127.705 159.212 129.51 155.67 Q131.339 152.106 131.339 144.999 Q131.339 137.87 129.51 134.328 Q127.705 130.763 124.07 130.763 M124.07 127.059 Q129.881 127.059 132.936 131.666 Q136.015 136.249 136.015 144.999 Q136.015 153.726 132.936 158.332 Q129.881 162.916 124.07 162.916 Q118.26 162.916 115.182 158.332 Q112.126 153.726 112.126 144.999 Q112.126 136.249 115.182 131.666 Q118.26 127.059 124.07 127.059 Z" fill="#000000" fill-rule="nonzero" fill-opacity="1" /><polyline clip-path="url(#clip882)" style="stroke:#009af9; stroke-linecap:round; stroke-linejoin:round; stroke-width:4; stroke-opacity:1; fill:none" points="233.734,1445.72 247.128,1440.25 370.976,1387.59 445.404,1354.12 508.332,1324.76 576.689,1291.77 639.708,1260.33 707.271,1225.54 785.55,1183.82 855.115,1145.49 916.117,1110.89 982.626,1072.12 1049.53,1032.02 1123.5,986.41 1193.88,941.758 1267.06,894.037 1328.66,852.844 1403.87,801.285 1472.77,752.831 1536.4,707.042 1600.86,659.642 1673.1,605.305 1738.55,554.956 1813.5,496.016 1882.89,440.208 1951.31,384.028 2017.73,328.379 2085.83,270.204 2160.43,205.155 2268.8,108.22 2291.04,87.9763 "/>
<path clip-path="url(#clip880)" d="M244.706 198.898 L978.356 198.898 L978.356 95.2176 L244.706 95.2176  Z" fill="#ffffff" fill-rule="evenodd" fill-opacity="1"/>
<polyline clip-path="url(#clip880)" style="stroke:#000000; stroke-linecap:round; stroke-linejoin:round; stroke-width:4; stroke-opacity:1; fill:none" points="244.706,198.898 978.356,198.898 978.356,95.2176 244.706,95.2176 244.706,198.898 "/>
<polyline clip-path="url(#clip880)" style="stroke:#009af9; stroke-linecap:round; stroke-linejoin:round; stroke-width:4; stroke-opacity:1; fill:none" points="268.937,147.058 414.319,147.058 "/>
<path clip-path="url(#clip880)" d="M438.55 129.778 L467.786 129.778 L467.786 133.713 L455.517 133.713 L455.517 164.338 L450.818 164.338 L450.818 133.713 L438.55 133.713 L438.55 129.778 Z" fill="#000000" fill-rule="nonzero" fill-opacity="1" /><path clip-path="url(#clip880)" d="M480.17 142.393 Q479.452 141.977 478.596 141.791 Q477.763 141.583 476.744 141.583 Q473.133 141.583 471.189 143.944 Q469.267 146.282 469.267 150.68 L469.267 164.338 L464.985 164.338 L464.985 138.412 L469.267 138.412 L469.267 142.44 Q470.61 140.078 472.763 138.944 Q474.915 137.787 477.994 137.787 Q478.434 137.787 478.966 137.856 Q479.499 137.903 480.147 138.018 L480.17 142.393 Z" fill="#000000" fill-rule="nonzero" fill-opacity="1" /><path clip-path="url(#clip880)" d="M505.772 150.31 L505.772 152.393 L486.188 152.393 Q486.466 156.791 488.827 159.106 Q491.212 161.398 495.448 161.398 Q497.901 161.398 500.193 160.796 Q502.508 160.194 504.776 158.99 L504.776 163.018 Q502.485 163.99 500.077 164.5 Q497.67 165.009 495.193 165.009 Q488.989 165.009 485.355 161.398 Q481.744 157.787 481.744 151.629 Q481.744 145.264 485.17 141.537 Q488.619 137.787 494.452 137.787 Q499.684 137.787 502.716 141.166 Q505.772 144.523 505.772 150.31 M501.512 149.06 Q501.466 145.565 499.545 143.481 Q497.647 141.398 494.499 141.398 Q490.934 141.398 488.781 143.412 Q486.651 145.426 486.327 149.083 L501.512 149.06 Z" fill="#000000" fill-rule="nonzero" fill-opacity="1" /><path clip-path="url(#clip880)" d="M534.313 148.689 L534.313 164.338 L530.054 164.338 L530.054 148.828 Q530.054 145.148 528.619 143.319 Q527.184 141.49 524.313 141.49 Q520.864 141.49 518.873 143.69 Q516.883 145.889 516.883 149.685 L516.883 164.338 L512.6 164.338 L512.6 138.412 L516.883 138.412 L516.883 142.44 Q518.411 140.102 520.471 138.944 Q522.554 137.787 525.262 137.787 Q529.73 137.787 532.022 140.565 Q534.313 143.319 534.313 148.689 Z" fill="#000000" fill-rule="nonzero" fill-opacity="1" /><path clip-path="url(#clip880)" d="M559.869 142.347 L559.869 128.319 L564.128 128.319 L564.128 164.338 L559.869 164.338 L559.869 160.449 Q558.526 162.763 556.466 163.898 Q554.429 165.009 551.558 165.009 Q546.859 165.009 543.896 161.259 Q540.957 157.509 540.957 151.398 Q540.957 145.287 543.896 141.537 Q546.859 137.787 551.558 137.787 Q554.429 137.787 556.466 138.921 Q558.526 140.032 559.869 142.347 M545.355 151.398 Q545.355 156.097 547.276 158.782 Q549.221 161.444 552.6 161.444 Q555.98 161.444 557.924 158.782 Q559.869 156.097 559.869 151.398 Q559.869 146.699 557.924 144.037 Q555.98 141.352 552.6 141.352 Q549.221 141.352 547.276 144.037 Q545.355 146.699 545.355 151.398 Z" fill="#000000" fill-rule="nonzero" fill-opacity="1" /><path clip-path="url(#clip880)" d="M609.521 148.689 L609.521 164.338 L605.262 164.338 L605.262 148.828 Q605.262 145.148 603.827 143.319 Q602.392 141.49 599.521 141.49 Q596.072 141.49 594.081 143.69 Q592.091 145.889 592.091 149.685 L592.091 164.338 L587.808 164.338 L587.808 138.412 L592.091 138.412 L592.091 142.44 Q593.618 140.102 595.679 138.944 Q597.762 137.787 600.47 137.787 Q604.938 137.787 607.229 140.565 Q609.521 143.319 609.521 148.689 Z" fill="#000000" fill-rule="nonzero" fill-opacity="1" /><path clip-path="url(#clip880)" d="M629.799 151.305 Q624.637 151.305 622.646 152.486 Q620.655 153.666 620.655 156.514 Q620.655 158.782 622.137 160.125 Q623.641 161.444 626.211 161.444 Q629.753 161.444 631.882 158.944 Q634.035 156.421 634.035 152.254 L634.035 151.305 L629.799 151.305 M638.294 149.546 L638.294 164.338 L634.035 164.338 L634.035 160.402 Q632.577 162.763 630.401 163.898 Q628.225 165.009 625.077 165.009 Q621.095 165.009 618.734 162.787 Q616.396 160.541 616.396 156.791 Q616.396 152.416 619.313 150.194 Q622.253 147.972 628.063 147.972 L634.035 147.972 L634.035 147.555 Q634.035 144.615 632.09 143.018 Q630.169 141.398 626.674 141.398 Q624.452 141.398 622.345 141.93 Q620.239 142.463 618.294 143.527 L618.294 139.592 Q620.632 138.69 622.831 138.25 Q625.03 137.787 627.114 137.787 Q632.739 137.787 635.516 140.703 Q638.294 143.62 638.294 149.546 Z" fill="#000000" fill-rule="nonzero" fill-opacity="1" /><path clip-path="url(#clip880)" d="M662.09 142.393 Q661.373 141.977 660.516 141.791 Q659.683 141.583 658.664 141.583 Q655.053 141.583 653.109 143.944 Q651.188 146.282 651.188 150.68 L651.188 164.338 L646.905 164.338 L646.905 138.412 L651.188 138.412 L651.188 142.44 Q652.53 140.078 654.683 138.944 Q656.836 137.787 659.914 137.787 Q660.354 137.787 660.887 137.856 Q661.419 137.903 662.067 138.018 L662.09 142.393 Z" fill="#000000" fill-rule="nonzero" fill-opacity="1" /><path clip-path="url(#clip880)" d="M678.34 151.305 Q673.178 151.305 671.187 152.486 Q669.197 153.666 669.197 156.514 Q669.197 158.782 670.678 160.125 Q672.183 161.444 674.752 161.444 Q678.294 161.444 680.424 158.944 Q682.576 156.421 682.576 152.254 L682.576 151.305 L678.34 151.305 M686.836 149.546 L686.836 164.338 L682.576 164.338 L682.576 160.402 Q681.118 162.763 678.942 163.898 Q676.766 165.009 673.618 165.009 Q669.637 165.009 667.275 162.787 Q664.938 160.541 664.938 156.791 Q664.938 152.416 667.854 150.194 Q670.794 147.972 676.604 147.972 L682.576 147.972 L682.576 147.555 Q682.576 144.615 680.632 143.018 Q678.711 141.398 675.215 141.398 Q672.993 141.398 670.887 141.93 Q668.78 142.463 666.836 143.527 L666.836 139.592 Q669.174 138.69 671.373 138.25 Q673.572 137.787 675.655 137.787 Q681.28 137.787 684.058 140.703 Q686.836 143.62 686.836 149.546 Z" fill="#000000" fill-rule="nonzero" fill-opacity="1" /><path clip-path="url(#clip880)" d="M712.136 139.176 L712.136 143.203 Q710.331 142.277 708.386 141.815 Q706.442 141.352 704.359 141.352 Q701.187 141.352 699.59 142.324 Q698.016 143.296 698.016 145.24 Q698.016 146.722 699.15 147.578 Q700.285 148.412 703.71 149.176 L705.169 149.5 Q709.706 150.472 711.604 152.254 Q713.525 154.014 713.525 157.185 Q713.525 160.796 710.655 162.902 Q707.808 165.009 702.808 165.009 Q700.724 165.009 698.456 164.592 Q696.21 164.199 693.711 163.388 L693.711 158.99 Q696.072 160.217 698.363 160.842 Q700.655 161.444 702.9 161.444 Q705.91 161.444 707.53 160.426 Q709.15 159.384 709.15 157.509 Q709.15 155.773 707.97 154.847 Q706.812 153.921 702.854 153.064 L701.373 152.717 Q697.414 151.884 695.655 150.171 Q693.896 148.435 693.896 145.426 Q693.896 141.768 696.488 139.778 Q699.081 137.787 703.849 137.787 Q706.21 137.787 708.294 138.134 Q710.377 138.481 712.136 139.176 M702.275 135.125 L696.604 126.421 L699.822 126.421 L703.988 132.092 L708.155 126.421 L711.372 126.421 L705.701 135.125 L702.275 135.125 M703.896 137.787 L703.896 137.787 Z" fill="#000000" fill-rule="nonzero" fill-opacity="1" /><path clip-path="url(#clip880)" d="M738.965 139.407 L738.965 143.389 Q737.159 142.393 735.331 141.907 Q733.525 141.398 731.673 141.398 Q727.53 141.398 725.238 144.037 Q722.946 146.652 722.946 151.398 Q722.946 156.143 725.238 158.782 Q727.53 161.398 731.673 161.398 Q733.525 161.398 735.331 160.912 Q737.159 160.402 738.965 159.407 L738.965 163.342 Q737.182 164.176 735.261 164.592 Q733.363 165.009 731.21 165.009 Q725.354 165.009 721.905 161.328 Q718.456 157.648 718.456 151.398 Q718.456 145.055 721.928 141.421 Q725.423 137.787 731.488 137.787 Q733.456 137.787 735.331 138.203 Q737.206 138.597 738.965 139.407 M729.15 135.125 L723.479 126.421 L726.696 126.421 L730.863 132.092 L735.03 126.421 L738.247 126.421 L732.576 135.125 L729.15 135.125 Z" fill="#000000" fill-rule="nonzero" fill-opacity="1" /><path clip-path="url(#clip880)" d="M758.155 151.305 Q752.993 151.305 751.002 152.486 Q749.011 153.666 749.011 156.514 Q749.011 158.782 750.493 160.125 Q751.997 161.444 754.567 161.444 Q758.108 161.444 760.238 158.944 Q762.391 156.421 762.391 152.254 L762.391 151.305 L758.155 151.305 M766.65 149.546 L766.65 164.338 L762.391 164.338 L762.391 160.402 Q760.932 162.763 758.756 163.898 Q756.581 165.009 753.432 165.009 Q749.451 165.009 747.09 162.787 Q744.752 160.541 744.752 156.791 Q744.752 152.416 747.669 150.194 Q750.608 147.972 756.419 147.972 L762.391 147.972 L762.391 147.555 Q762.391 144.615 760.446 143.018 Q758.525 141.398 755.03 141.398 Q752.807 141.398 750.701 141.93 Q748.594 142.463 746.65 143.527 L746.65 139.592 Q748.988 138.69 751.187 138.25 Q753.386 137.787 755.469 137.787 Q761.094 137.787 763.872 140.703 Q766.65 143.62 766.65 149.546 Z" fill="#000000" fill-rule="nonzero" fill-opacity="1" /><path clip-path="url(#clip880)" d="M796.974 148.689 L796.974 164.338 L792.715 164.338 L792.715 148.828 Q792.715 145.148 791.279 143.319 Q789.844 141.49 786.974 141.49 Q783.525 141.49 781.534 143.69 Q779.543 145.889 779.543 149.685 L779.543 164.338 L775.261 164.338 L775.261 138.412 L779.543 138.412 L779.543 142.44 Q781.071 140.102 783.131 138.944 Q785.215 137.787 787.923 137.787 Q792.391 137.787 794.682 140.565 Q796.974 143.319 796.974 148.689 Z" fill="#000000" fill-rule="nonzero" fill-opacity="1" /><path clip-path="url(#clip880)" d="M805.469 138.412 L809.728 138.412 L809.728 164.801 Q809.728 169.754 807.83 171.976 Q805.955 174.199 801.765 174.199 L800.145 174.199 L800.145 170.588 L801.279 170.588 Q803.71 170.588 804.59 169.453 Q805.469 168.342 805.469 164.801 L805.469 138.412 M805.469 128.319 L809.728 128.319 L809.728 133.713 L805.469 133.713 L805.469 128.319 Z" fill="#000000" fill-rule="nonzero" fill-opacity="1" /><path clip-path="url(#clip880)" d="M830.423 151.305 Q825.261 151.305 823.27 152.486 Q821.279 153.666 821.279 156.514 Q821.279 158.782 822.761 160.125 Q824.265 161.444 826.835 161.444 Q830.376 161.444 832.506 158.944 Q834.659 156.421 834.659 152.254 L834.659 151.305 L830.423 151.305 M838.918 149.546 L838.918 164.338 L834.659 164.338 L834.659 160.402 Q833.201 162.763 831.025 163.898 Q828.849 165.009 825.701 165.009 Q821.719 165.009 819.358 162.787 Q817.02 160.541 817.02 156.791 Q817.02 152.416 819.937 150.194 Q822.876 147.972 828.687 147.972 L834.659 147.972 L834.659 147.555 Q834.659 144.615 832.714 143.018 Q830.793 141.398 827.298 141.398 Q825.076 141.398 822.969 141.93 Q820.863 142.463 818.918 143.527 L818.918 139.592 Q821.256 138.69 823.455 138.25 Q825.654 137.787 827.738 137.787 Q833.363 137.787 836.14 140.703 Q838.918 143.62 838.918 149.546 Z" fill="#000000" fill-rule="nonzero" fill-opacity="1" /><path clip-path="url(#clip880)" d="M888.825 132.44 L888.825 137.37 Q886.464 135.171 883.779 134.083 Q881.117 132.995 878.108 132.995 Q872.182 132.995 869.034 136.629 Q865.886 140.24 865.886 147.092 Q865.886 153.921 869.034 157.555 Q872.182 161.166 878.108 161.166 Q881.117 161.166 883.779 160.078 Q886.464 158.99 888.825 156.791 L888.825 161.676 Q886.372 163.342 883.617 164.176 Q880.885 165.009 877.83 165.009 Q869.983 165.009 865.469 160.217 Q860.955 155.402 860.955 147.092 Q860.955 138.759 865.469 133.967 Q869.983 129.153 877.83 129.153 Q880.932 129.153 883.663 129.986 Q886.418 130.796 888.825 132.44 Z" fill="#000000" fill-rule="nonzero" fill-opacity="1" /><path clip-path="url(#clip880)" d="M910.075 132.949 Q904.983 132.949 901.973 136.745 Q898.987 140.541 898.987 147.092 Q898.987 153.62 901.973 157.416 Q904.983 161.213 910.075 161.213 Q915.168 161.213 918.131 157.416 Q921.117 153.62 921.117 147.092 Q921.117 140.541 918.131 136.745 Q915.168 132.949 910.075 132.949 M910.075 129.153 Q917.344 129.153 921.695 134.037 Q926.047 138.898 926.047 147.092 Q926.047 155.264 921.695 160.148 Q917.344 165.009 910.075 165.009 Q902.783 165.009 898.408 160.148 Q894.057 155.287 894.057 147.092 Q894.057 138.898 898.408 134.037 Q902.783 129.153 910.075 129.153 Z" fill="#000000" fill-rule="nonzero" fill-opacity="1" /><path clip-path="url(#clip880)" d="M937.806 160.402 L954.126 160.402 L954.126 164.338 L932.181 164.338 L932.181 160.402 Q934.843 157.648 939.427 153.018 Q944.033 148.365 945.214 147.023 Q947.459 144.5 948.339 142.764 Q949.242 141.004 949.242 139.315 Q949.242 136.56 947.297 134.824 Q945.376 133.088 942.274 133.088 Q940.075 133.088 937.621 133.852 Q935.191 134.615 932.413 136.166 L932.413 131.444 Q935.237 130.31 937.691 129.731 Q940.144 129.153 942.181 129.153 Q947.552 129.153 950.746 131.838 Q953.941 134.523 953.941 139.014 Q953.941 141.143 953.13 143.065 Q952.343 144.963 950.237 147.555 Q949.658 148.227 946.556 151.444 Q943.455 154.639 937.806 160.402 Z" fill="#000000" fill-rule="nonzero" fill-opacity="1" /></svg>
