<?xml version="1.0" encoding="utf-8"?>
<svg xmlns="http://www.w3.org/2000/svg" xmlns:xlink="http://www.w3.org/1999/xlink" width="600" height="400" viewBox="0 0 2400 1600">
<defs>
  <clipPath id="clip390">
    <rect x="0" y="0" width="2400" height="1600"/>
  </clipPath>
</defs>
<path clip-path="url(#clip390)" d="M0 1600 L2400 1600 L2400 0 L0 0  Z" fill="#ffffff" fill-rule="evenodd" fill-opacity="1"/>
<defs>
  <clipPath id="clip391">
    <rect x="480" y="0" width="1681" height="1600"/>
  </clipPath>
</defs>
<path clip-path="url(#clip390)" d="M235.283 1423.18 L2352.76 1423.18 L2352.76 47.2441 L235.283 47.2441  Z" fill="#ffffff" fill-rule="evenodd" fill-opacity="1"/>
<defs>
  <clipPath id="clip392">
    <rect x="235" y="47" width="2118" height="1377"/>
  </clipPath>
</defs>
<polyline clip-path="url(#clip392)" style="stroke:#000000; stroke-linecap:round; stroke-linejoin:round; stroke-width:2; stroke-opacity:0.1; fill:none" points="517.967,1423.18 517.967,47.2441 "/>
<polyline clip-path="url(#clip392)" style="stroke:#000000; stroke-linecap:round; stroke-linejoin:round; stroke-width:2; stroke-opacity:0.1; fill:none" points="914.293,1423.18 914.293,47.2441 "/>
<polyline clip-path="url(#clip392)" style="stroke:#000000; stroke-linecap:round; stroke-linejoin:round; stroke-width:2; stroke-opacity:0.1; fill:none" points="1310.62,1423.18 1310.62,47.2441 "/>
<polyline clip-path="url(#clip392)" style="stroke:#000000; stroke-linecap:round; stroke-linejoin:round; stroke-width:2; stroke-opacity:0.1; fill:none" points="1706.95,1423.18 1706.95,47.2441 "/>
<polyline clip-path="url(#clip392)" style="stroke:#000000; stroke-linecap:round; stroke-linejoin:round; stroke-width:2; stroke-opacity:0.1; fill:none" points="2103.27,1423.18 2103.27,47.2441 "/>
<polyline clip-path="url(#clip390)" style="stroke:#000000; stroke-linecap:round; stroke-linejoin:round; stroke-width:4; stroke-opacity:1; fill:none" points="235.283,1423.18 2352.76,1423.18 "/>
<polyline clip-path="url(#clip390)" style="stroke:#000000; stroke-linecap:round; stroke-linejoin:round; stroke-width:4; stroke-opacity:1; fill:none" points="517.967,1423.18 517.967,1404.28 "/>
<polyline clip-path="url(#clip390)" style="stroke:#000000; stroke-linecap:round; stroke-linejoin:round; stroke-width:4; stroke-opacity:1; fill:none" points="914.293,1423.18 914.293,1404.28 "/>
<polyline clip-path="url(#clip390)" style="stroke:#000000; stroke-linecap:round; stroke-linejoin:round; stroke-width:4; stroke-opacity:1; fill:none" points="1310.62,1423.18 1310.62,1404.28 "/>
<polyline clip-path="url(#clip390)" style="stroke:#000000; stroke-linecap:round; stroke-linejoin:round; stroke-width:4; stroke-opacity:1; fill:none" points="1706.95,1423.18 1706.95,1404.28 "/>
<polyline clip-path="url(#clip390)" style="stroke:#000000; stroke-linecap:round; stroke-linejoin:round; stroke-width:4; stroke-opacity:1; fill:none" points="2103.27,1423.18 2103.27,1404.28 "/>
<path clip-path="url(#clip390)" d="M462.492 1481.64 L470.131 1481.64 L470.131 1455.28 L461.821 1456.95 L461.821 1452.69 L470.085 1451.02 L474.761 1451.02 L474.761 1481.64 L482.4 1481.64 L482.4 1485.58 L462.492 1485.58 L462.492 1481.64 Z" fill="#000000" fill-rule="nonzero" fill-opacity="1" /><path clip-path="url(#clip390)" d="M491.983 1484.86 L491.983 1480.6 Q493.742 1481.44 495.548 1481.88 Q497.353 1482.32 499.089 1482.32 Q503.719 1482.32 506.15 1479.21 Q508.603 1476.09 508.95 1469.75 Q507.608 1471.74 505.548 1472.8 Q503.488 1473.87 500.988 1473.87 Q495.802 1473.87 492.77 1470.74 Q489.761 1467.59 489.761 1462.15 Q489.761 1456.83 492.909 1453.61 Q496.057 1450.39 501.288 1450.39 Q507.284 1450.39 510.432 1455 Q513.603 1459.58 513.603 1468.33 Q513.603 1476.51 509.714 1481.39 Q505.849 1486.25 499.298 1486.25 Q497.538 1486.25 495.733 1485.9 Q493.927 1485.56 491.983 1484.86 M501.288 1470.21 Q504.437 1470.21 506.265 1468.06 Q508.117 1465.9 508.117 1462.15 Q508.117 1458.43 506.265 1456.27 Q504.437 1454.1 501.288 1454.1 Q498.14 1454.1 496.288 1456.27 Q494.46 1458.43 494.46 1462.15 Q494.46 1465.9 496.288 1468.06 Q498.14 1470.21 501.288 1470.21 Z" fill="#000000" fill-rule="nonzero" fill-opacity="1" /><path clip-path="url(#clip390)" d="M532.006 1469.17 Q528.673 1469.17 526.751 1470.95 Q524.853 1472.73 524.853 1475.86 Q524.853 1478.98 526.751 1480.77 Q528.673 1482.55 532.006 1482.55 Q535.339 1482.55 537.26 1480.77 Q539.182 1478.96 539.182 1475.86 Q539.182 1472.73 537.26 1470.95 Q535.362 1469.17 532.006 1469.17 M527.33 1467.18 Q524.321 1466.44 522.631 1464.38 Q520.964 1462.32 520.964 1459.35 Q520.964 1455.21 523.904 1452.8 Q526.867 1450.39 532.006 1450.39 Q537.168 1450.39 540.108 1452.8 Q543.047 1455.21 543.047 1459.35 Q543.047 1462.32 541.358 1464.38 Q539.691 1466.44 536.705 1467.18 Q540.085 1467.96 541.96 1470.26 Q543.858 1472.55 543.858 1475.86 Q543.858 1480.88 540.779 1483.57 Q537.723 1486.25 532.006 1486.25 Q526.288 1486.25 523.21 1483.57 Q520.154 1480.88 520.154 1475.86 Q520.154 1472.55 522.052 1470.26 Q523.95 1467.96 527.33 1467.18 M525.617 1459.79 Q525.617 1462.48 527.284 1463.98 Q528.973 1465.49 532.006 1465.49 Q535.015 1465.49 536.705 1463.98 Q538.418 1462.48 538.418 1459.79 Q538.418 1457.11 536.705 1455.6 Q535.015 1454.1 532.006 1454.1 Q528.973 1454.1 527.284 1455.6 Q525.617 1457.11 525.617 1459.79 Z" fill="#000000" fill-rule="nonzero" fill-opacity="1" /><path clip-path="url(#clip390)" d="M562.168 1454.1 Q558.557 1454.1 556.728 1457.66 Q554.922 1461.2 554.922 1468.33 Q554.922 1475.44 556.728 1479.01 Q558.557 1482.55 562.168 1482.55 Q565.802 1482.55 567.608 1479.01 Q569.436 1475.44 569.436 1468.33 Q569.436 1461.2 567.608 1457.66 Q565.802 1454.1 562.168 1454.1 M562.168 1450.39 Q567.978 1450.39 571.033 1455 Q574.112 1459.58 574.112 1468.33 Q574.112 1477.06 571.033 1481.67 Q567.978 1486.25 562.168 1486.25 Q556.358 1486.25 553.279 1481.67 Q550.223 1477.06 550.223 1468.33 Q550.223 1459.58 553.279 1455 Q556.358 1450.39 562.168 1450.39 Z" fill="#000000" fill-rule="nonzero" fill-opacity="1" /><path clip-path="url(#clip390)" d="M858.819 1481.64 L866.458 1481.64 L866.458 1455.28 L858.148 1456.95 L858.148 1452.69 L866.411 1451.02 L871.087 1451.02 L871.087 1481.64 L878.726 1481.64 L878.726 1485.58 L858.819 1485.58 L858.819 1481.64 Z" fill="#000000" fill-rule="nonzero" fill-opacity="1" /><path clip-path="url(#clip390)" d="M888.309 1484.86 L888.309 1480.6 Q890.069 1481.44 891.874 1481.88 Q893.68 1482.32 895.416 1482.32 Q900.045 1482.32 902.476 1479.21 Q904.93 1476.09 905.277 1469.75 Q903.934 1471.74 901.874 1472.8 Q899.814 1473.87 897.314 1473.87 Q892.129 1473.87 889.096 1470.74 Q886.087 1467.59 886.087 1462.15 Q886.087 1456.83 889.235 1453.61 Q892.383 1450.39 897.615 1450.39 Q903.61 1450.39 906.758 1455 Q909.93 1459.58 909.93 1468.33 Q909.93 1476.51 906.041 1481.39 Q902.175 1486.25 895.624 1486.25 Q893.865 1486.25 892.059 1485.9 Q890.254 1485.56 888.309 1484.86 M897.615 1470.21 Q900.763 1470.21 902.592 1468.06 Q904.444 1465.9 904.444 1462.15 Q904.444 1458.43 902.592 1456.27 Q900.763 1454.1 897.615 1454.1 Q894.467 1454.1 892.615 1456.27 Q890.786 1458.43 890.786 1462.15 Q890.786 1465.9 892.615 1468.06 Q894.467 1470.21 897.615 1470.21 Z" fill="#000000" fill-rule="nonzero" fill-opacity="1" /><path clip-path="url(#clip390)" d="M918.471 1484.86 L918.471 1480.6 Q920.231 1481.44 922.036 1481.88 Q923.842 1482.32 925.578 1482.32 Q930.207 1482.32 932.638 1479.21 Q935.092 1476.09 935.439 1469.75 Q934.096 1471.74 932.036 1472.8 Q929.976 1473.87 927.476 1473.87 Q922.291 1473.87 919.258 1470.74 Q916.249 1467.59 916.249 1462.15 Q916.249 1456.83 919.397 1453.61 Q922.545 1450.39 927.777 1450.39 Q933.772 1450.39 936.92 1455 Q940.092 1459.58 940.092 1468.33 Q940.092 1476.51 936.203 1481.39 Q932.337 1486.25 925.786 1486.25 Q924.027 1486.25 922.221 1485.9 Q920.416 1485.56 918.471 1484.86 M927.777 1470.21 Q930.925 1470.21 932.754 1468.06 Q934.605 1465.9 934.605 1462.15 Q934.605 1458.43 932.754 1456.27 Q930.925 1454.1 927.777 1454.1 Q924.629 1454.1 922.777 1456.27 Q920.948 1458.43 920.948 1462.15 Q920.948 1465.9 922.777 1468.06 Q924.629 1470.21 927.777 1470.21 Z" fill="#000000" fill-rule="nonzero" fill-opacity="1" /><path clip-path="url(#clip390)" d="M958.494 1454.1 Q954.883 1454.1 953.054 1457.66 Q951.249 1461.2 951.249 1468.33 Q951.249 1475.44 953.054 1479.01 Q954.883 1482.55 958.494 1482.55 Q962.128 1482.55 963.934 1479.01 Q965.763 1475.44 965.763 1468.33 Q965.763 1461.2 963.934 1457.66 Q962.128 1454.1 958.494 1454.1 M958.494 1450.39 Q964.304 1450.39 967.36 1455 Q970.439 1459.58 970.439 1468.33 Q970.439 1477.06 967.36 1481.67 Q964.304 1486.25 958.494 1486.25 Q952.684 1486.25 949.605 1481.67 Q946.55 1477.06 946.55 1468.33 Q946.55 1459.58 949.605 1455 Q952.684 1450.39 958.494 1450.39 Z" fill="#000000" fill-rule="nonzero" fill-opacity="1" /><path clip-path="url(#clip390)" d="M1259.23 1481.64 L1275.55 1481.64 L1275.55 1485.58 L1253.61 1485.58 L1253.61 1481.64 Q1256.27 1478.89 1260.85 1474.26 Q1265.46 1469.61 1266.64 1468.27 Q1268.88 1465.74 1269.76 1464.01 Q1270.67 1462.25 1270.67 1460.56 Q1270.67 1457.8 1268.72 1456.07 Q1266.8 1454.33 1263.7 1454.33 Q1261.5 1454.33 1259.05 1455.09 Q1256.62 1455.86 1253.84 1457.41 L1253.84 1452.69 Q1256.66 1451.55 1259.12 1450.97 Q1261.57 1450.39 1263.61 1450.39 Q1268.98 1450.39 1272.17 1453.08 Q1275.37 1455.77 1275.37 1460.26 Q1275.37 1462.39 1274.55 1464.31 Q1273.77 1466.2 1271.66 1468.8 Q1271.08 1469.47 1267.98 1472.69 Q1264.88 1475.88 1259.23 1481.64 Z" fill="#000000" fill-rule="nonzero" fill-opacity="1" /><path clip-path="url(#clip390)" d="M1295.36 1454.1 Q1291.75 1454.1 1289.93 1457.66 Q1288.12 1461.2 1288.12 1468.33 Q1288.12 1475.44 1289.93 1479.01 Q1291.75 1482.55 1295.36 1482.55 Q1299 1482.55 1300.8 1479.01 Q1302.63 1475.44 1302.63 1468.33 Q1302.63 1461.2 1300.8 1457.66 Q1299 1454.1 1295.36 1454.1 M1295.36 1450.39 Q1301.18 1450.39 1304.23 1455 Q1307.31 1459.58 1307.31 1468.33 Q1307.31 1477.06 1304.23 1481.67 Q1301.18 1486.25 1295.36 1486.25 Q1289.55 1486.25 1286.48 1481.67 Q1283.42 1477.06 1283.42 1468.33 Q1283.42 1459.58 1286.48 1455 Q1289.55 1450.39 1295.36 1450.39 Z" fill="#000000" fill-rule="nonzero" fill-opacity="1" /><path clip-path="url(#clip390)" d="M1325.53 1454.1 Q1321.92 1454.1 1320.09 1457.66 Q1318.28 1461.2 1318.28 1468.33 Q1318.28 1475.44 1320.09 1479.01 Q1321.92 1482.55 1325.53 1482.55 Q1329.16 1482.55 1330.97 1479.01 Q1332.8 1475.44 1332.8 1468.33 Q1332.8 1461.2 1330.97 1457.66 Q1329.16 1454.1 1325.53 1454.1 M1325.53 1450.39 Q1331.34 1450.39 1334.39 1455 Q1337.47 1459.58 1337.47 1468.33 Q1337.47 1477.06 1334.39 1481.67 Q1331.34 1486.25 1325.53 1486.25 Q1319.72 1486.25 1316.64 1481.67 Q1313.58 1477.06 1313.58 1468.33 Q1313.58 1459.58 1316.64 1455 Q1319.72 1450.39 1325.53 1450.39 Z" fill="#000000" fill-rule="nonzero" fill-opacity="1" /><path clip-path="url(#clip390)" d="M1355.69 1454.1 Q1352.08 1454.1 1350.25 1457.66 Q1348.44 1461.2 1348.44 1468.33 Q1348.44 1475.44 1350.25 1479.01 Q1352.08 1482.55 1355.69 1482.55 Q1359.32 1482.55 1361.13 1479.01 Q1362.96 1475.44 1362.96 1468.33 Q1362.96 1461.2 1361.13 1457.66 Q1359.32 1454.1 1355.69 1454.1 M1355.69 1450.39 Q1361.5 1450.39 1364.55 1455 Q1367.63 1459.58 1367.63 1468.33 Q1367.63 1477.06 1364.55 1481.67 Q1361.5 1486.25 1355.69 1486.25 Q1349.88 1486.25 1346.8 1481.67 Q1343.74 1477.06 1343.74 1468.33 Q1343.74 1459.58 1346.8 1455 Q1349.88 1450.39 1355.69 1450.39 Z" fill="#000000" fill-rule="nonzero" fill-opacity="1" /><path clip-path="url(#clip390)" d="M1655.56 1481.64 L1671.88 1481.64 L1671.88 1485.58 L1649.93 1485.58 L1649.93 1481.64 Q1652.59 1478.89 1657.18 1474.26 Q1661.78 1469.61 1662.96 1468.27 Q1665.21 1465.74 1666.09 1464.01 Q1666.99 1462.25 1666.99 1460.56 Q1666.99 1457.8 1665.05 1456.07 Q1663.13 1454.33 1660.02 1454.33 Q1657.83 1454.33 1655.37 1455.09 Q1652.94 1455.86 1650.16 1457.41 L1650.16 1452.69 Q1652.99 1451.55 1655.44 1450.97 Q1657.9 1450.39 1659.93 1450.39 Q1665.3 1450.39 1668.5 1453.08 Q1671.69 1455.77 1671.69 1460.26 Q1671.69 1462.39 1670.88 1464.31 Q1670.09 1466.2 1667.99 1468.8 Q1667.41 1469.47 1664.31 1472.69 Q1661.21 1475.88 1655.56 1481.64 Z" fill="#000000" fill-rule="nonzero" fill-opacity="1" /><path clip-path="url(#clip390)" d="M1691.69 1454.1 Q1688.08 1454.1 1686.25 1457.66 Q1684.45 1461.2 1684.45 1468.33 Q1684.45 1475.44 1686.25 1479.01 Q1688.08 1482.55 1691.69 1482.55 Q1695.33 1482.55 1697.13 1479.01 Q1698.96 1475.44 1698.96 1468.33 Q1698.96 1461.2 1697.13 1457.66 Q1695.33 1454.1 1691.69 1454.1 M1691.69 1450.39 Q1697.5 1450.39 1700.56 1455 Q1703.64 1459.58 1703.64 1468.33 Q1703.64 1477.06 1700.56 1481.67 Q1697.5 1486.25 1691.69 1486.25 Q1685.88 1486.25 1682.8 1481.67 Q1679.75 1477.06 1679.75 1468.33 Q1679.75 1459.58 1682.8 1455 Q1685.88 1450.39 1691.69 1450.39 Z" fill="#000000" fill-rule="nonzero" fill-opacity="1" /><path clip-path="url(#clip390)" d="M1712.66 1481.64 L1720.3 1481.64 L1720.3 1455.28 L1711.99 1456.95 L1711.99 1452.69 L1720.26 1451.02 L1724.93 1451.02 L1724.93 1481.64 L1732.57 1481.64 L1732.57 1485.58 L1712.66 1485.58 L1712.66 1481.64 Z" fill="#000000" fill-rule="nonzero" fill-opacity="1" /><path clip-path="url(#clip390)" d="M1752.02 1454.1 Q1748.4 1454.1 1746.58 1457.66 Q1744.77 1461.2 1744.77 1468.33 Q1744.77 1475.44 1746.58 1479.01 Q1748.4 1482.55 1752.02 1482.55 Q1755.65 1482.55 1757.45 1479.01 Q1759.28 1475.44 1759.28 1468.33 Q1759.28 1461.2 1757.45 1457.66 Q1755.65 1454.1 1752.02 1454.1 M1752.02 1450.39 Q1757.83 1450.39 1760.88 1455 Q1763.96 1459.58 1763.96 1468.33 Q1763.96 1477.06 1760.88 1481.67 Q1757.83 1486.25 1752.02 1486.25 Q1746.21 1486.25 1743.13 1481.67 Q1740.07 1477.06 1740.07 1468.33 Q1740.07 1459.58 1743.13 1455 Q1746.21 1450.39 1752.02 1450.39 Z" fill="#000000" fill-rule="nonzero" fill-opacity="1" /><path clip-path="url(#clip390)" d="M2051.88 1481.64 L2068.2 1481.64 L2068.2 1485.58 L2046.26 1485.58 L2046.26 1481.64 Q2048.92 1478.89 2053.5 1474.26 Q2058.11 1469.61 2059.29 1468.27 Q2061.54 1465.74 2062.42 1464.01 Q2063.32 1462.25 2063.32 1460.56 Q2063.32 1457.8 2061.37 1456.07 Q2059.45 1454.33 2056.35 1454.33 Q2054.15 1454.33 2051.7 1455.09 Q2049.27 1455.86 2046.49 1457.41 L2046.49 1452.69 Q2049.31 1451.55 2051.77 1450.97 Q2054.22 1450.39 2056.26 1450.39 Q2061.63 1450.39 2064.82 1453.08 Q2068.02 1455.77 2068.02 1460.26 Q2068.02 1462.39 2067.21 1464.31 Q2066.42 1466.2 2064.31 1468.8 Q2063.74 1469.47 2060.63 1472.69 Q2057.53 1475.88 2051.88 1481.64 Z" fill="#000000" fill-rule="nonzero" fill-opacity="1" /><path clip-path="url(#clip390)" d="M2088.02 1454.1 Q2084.41 1454.1 2082.58 1457.66 Q2080.77 1461.2 2080.77 1468.33 Q2080.77 1475.44 2082.58 1479.01 Q2084.41 1482.55 2088.02 1482.55 Q2091.65 1482.55 2093.46 1479.01 Q2095.29 1475.44 2095.29 1468.33 Q2095.29 1461.2 2093.46 1457.66 Q2091.65 1454.1 2088.02 1454.1 M2088.02 1450.39 Q2093.83 1450.39 2096.88 1455 Q2099.96 1459.58 2099.96 1468.33 Q2099.96 1477.06 2096.88 1481.67 Q2093.83 1486.25 2088.02 1486.25 Q2082.21 1486.25 2079.13 1481.67 Q2076.07 1477.06 2076.07 1468.33 Q2076.07 1459.58 2079.13 1455 Q2082.21 1450.39 2088.02 1450.39 Z" fill="#000000" fill-rule="nonzero" fill-opacity="1" /><path clip-path="url(#clip390)" d="M2112.21 1481.64 L2128.53 1481.64 L2128.53 1485.58 L2106.58 1485.58 L2106.58 1481.64 Q2109.24 1478.89 2113.83 1474.26 Q2118.43 1469.61 2119.61 1468.27 Q2121.86 1465.74 2122.74 1464.01 Q2123.64 1462.25 2123.64 1460.56 Q2123.64 1457.8 2121.7 1456.07 Q2119.78 1454.33 2116.68 1454.33 Q2114.48 1454.33 2112.02 1455.09 Q2109.59 1455.86 2106.81 1457.41 L2106.81 1452.69 Q2109.64 1451.55 2112.09 1450.97 Q2114.55 1450.39 2116.58 1450.39 Q2121.95 1450.39 2125.15 1453.08 Q2128.34 1455.77 2128.34 1460.26 Q2128.34 1462.39 2127.53 1464.31 Q2126.74 1466.2 2124.64 1468.8 Q2124.06 1469.47 2120.96 1472.69 Q2117.86 1475.88 2112.21 1481.64 Z" fill="#000000" fill-rule="nonzero" fill-opacity="1" /><path clip-path="url(#clip390)" d="M2148.34 1454.1 Q2144.73 1454.1 2142.9 1457.66 Q2141.1 1461.2 2141.1 1468.33 Q2141.1 1475.44 2142.9 1479.01 Q2144.73 1482.55 2148.34 1482.55 Q2151.98 1482.55 2153.78 1479.01 Q2155.61 1475.44 2155.61 1468.33 Q2155.61 1461.2 2153.78 1457.66 Q2151.98 1454.1 2148.34 1454.1 M2148.34 1450.39 Q2154.15 1450.39 2157.21 1455 Q2160.29 1459.58 2160.29 1468.33 Q2160.29 1477.06 2157.21 1481.67 Q2154.15 1486.25 2148.34 1486.25 Q2142.53 1486.25 2139.45 1481.67 Q2136.4 1477.06 2136.4 1468.33 Q2136.4 1459.58 2139.45 1455 Q2142.53 1450.39 2148.34 1450.39 Z" fill="#000000" fill-rule="nonzero" fill-opacity="1" /><path clip-path="url(#clip390)" d="M1237.05 1518.52 L1242.9 1518.52 L1242.9 1568.04 L1237.05 1568.04 L1237.05 1518.52 Z" fill="#000000" fill-rule="nonzero" fill-opacity="1" /><path clip-path="url(#clip390)" d="M1285.65 1548.76 L1285.65 1551.62 L1258.72 1551.62 Q1259.1 1557.67 1262.35 1560.85 Q1265.63 1564 1271.45 1564 Q1274.83 1564 1277.98 1563.17 Q1281.16 1562.35 1284.28 1560.69 L1284.28 1566.23 Q1281.13 1567.57 1277.82 1568.27 Q1274.51 1568.97 1271.1 1568.97 Q1262.57 1568.97 1257.58 1564 Q1252.61 1559.04 1252.61 1550.57 Q1252.61 1541.82 1257.32 1536.69 Q1262.06 1531.54 1270.08 1531.54 Q1277.28 1531.54 1281.45 1536.18 Q1285.65 1540.8 1285.65 1548.76 M1279.79 1547.04 Q1279.73 1542.23 1277.09 1539.37 Q1274.48 1536.5 1270.15 1536.5 Q1265.25 1536.5 1262.29 1539.27 Q1259.36 1542.04 1258.91 1547.07 L1279.79 1547.04 Z" fill="#000000" fill-rule="nonzero" fill-opacity="1" /><path clip-path="url(#clip390)" d="M1301.05 1522.27 L1301.05 1532.4 L1313.12 1532.4 L1313.12 1536.95 L1301.05 1536.95 L1301.05 1556.3 Q1301.05 1560.66 1302.23 1561.9 Q1303.44 1563.14 1307.1 1563.14 L1313.12 1563.14 L1313.12 1568.04 L1307.1 1568.04 Q1300.32 1568.04 1297.74 1565.53 Q1295.17 1562.98 1295.17 1556.3 L1295.17 1536.95 L1290.87 1536.95 L1290.87 1532.4 L1295.17 1532.4 L1295.17 1522.27 L1301.05 1522.27 Z" fill="#000000" fill-rule="nonzero" fill-opacity="1" /><path clip-path="url(#clip390)" d="M1334.63 1536.5 Q1329.92 1536.5 1327.18 1540.19 Q1324.45 1543.85 1324.45 1550.25 Q1324.45 1556.65 1327.15 1560.34 Q1329.89 1564 1334.63 1564 Q1339.31 1564 1342.05 1560.31 Q1344.79 1556.62 1344.79 1550.25 Q1344.79 1543.92 1342.05 1540.23 Q1339.31 1536.5 1334.63 1536.5 M1334.63 1531.54 Q1342.27 1531.54 1346.63 1536.5 Q1350.99 1541.47 1350.99 1550.25 Q1350.99 1559 1346.63 1564 Q1342.27 1568.97 1334.63 1568.97 Q1326.96 1568.97 1322.6 1564 Q1318.27 1559 1318.27 1550.25 Q1318.27 1541.47 1322.6 1536.5 Q1326.96 1531.54 1334.63 1531.54 Z" fill="#000000" fill-rule="nonzero" fill-opacity="1" /><polyline clip-path="url(#clip392)" style="stroke:#000000; stroke-linecap:round; stroke-linejoin:round; stroke-width:2; stroke-opacity:0.1; fill:none" points="235.283,1259.09 2352.76,1259.09 "/>
<polyline clip-path="url(#clip392)" style="stroke:#000000; stroke-linecap:round; stroke-linejoin:round; stroke-width:2; stroke-opacity:0.1; fill:none" points="235.283,980.511 2352.76,980.511 "/>
<polyline clip-path="url(#clip392)" style="stroke:#000000; stroke-linecap:round; stroke-linejoin:round; stroke-width:2; stroke-opacity:0.1; fill:none" points="235.283,701.936 2352.76,701.936 "/>
<polyline clip-path="url(#clip392)" style="stroke:#000000; stroke-linecap:round; stroke-linejoin:round; stroke-width:2; stroke-opacity:0.1; fill:none" points="235.283,423.361 2352.76,423.361 "/>
<polyline clip-path="url(#clip392)" style="stroke:#000000; stroke-linecap:round; stroke-linejoin:round; stroke-width:2; stroke-opacity:0.1; fill:none" points="235.283,144.786 2352.76,144.786 "/>
<polyline clip-path="url(#clip390)" style="stroke:#000000; stroke-linecap:round; stroke-linejoin:round; stroke-width:4; stroke-opacity:1; fill:none" points="235.283,1423.18 235.283,47.2441 "/>
<polyline clip-path="url(#clip390)" style="stroke:#000000; stroke-linecap:round; stroke-linejoin:round; stroke-width:4; stroke-opacity:1; fill:none" points="235.283,1259.09 254.18,1259.09 "/>
<polyline clip-path="url(#clip390)" style="stroke:#000000; stroke-linecap:round; stroke-linejoin:round; stroke-width:4; stroke-opacity:1; fill:none" points="235.283,980.511 254.18,980.511 "/>
<polyline clip-path="url(#clip390)" style="stroke:#000000; stroke-linecap:round; stroke-linejoin:round; stroke-width:4; stroke-opacity:1; fill:none" points="235.283,701.936 254.18,701.936 "/>
<polyline clip-path="url(#clip390)" style="stroke:#000000; stroke-linecap:round; stroke-linejoin:round; stroke-width:4; stroke-opacity:1; fill:none" points="235.283,423.361 254.18,423.361 "/>
<polyline clip-path="url(#clip390)" style="stroke:#000000; stroke-linecap:round; stroke-linejoin:round; stroke-width:4; stroke-opacity:1; fill:none" points="235.283,144.786 254.18,144.786 "/>
<path clip-path="url(#clip390)" d="M131.181 1257.73 Q134.538 1258.45 136.413 1260.72 Q138.311 1262.99 138.311 1266.32 Q138.311 1271.44 134.792 1274.24 Q131.274 1277.04 124.793 1277.04 Q122.617 1277.04 120.302 1276.6 Q118.01 1276.18 115.556 1275.32 L115.556 1270.81 Q117.501 1271.94 119.816 1272.52 Q122.13 1273.1 124.654 1273.1 Q129.052 1273.1 131.343 1271.37 Q133.658 1269.63 133.658 1266.32 Q133.658 1263.26 131.505 1261.55 Q129.376 1259.82 125.556 1259.82 L121.529 1259.82 L121.529 1255.97 L125.742 1255.97 Q129.191 1255.97 131.019 1254.61 Q132.848 1253.22 132.848 1250.63 Q132.848 1247.96 130.95 1246.55 Q129.075 1245.12 125.556 1245.12 Q123.635 1245.12 121.436 1245.53 Q119.237 1245.95 116.598 1246.83 L116.598 1242.66 Q119.26 1241.92 121.575 1241.55 Q123.913 1241.18 125.973 1241.18 Q131.297 1241.18 134.399 1243.61 Q137.501 1246.02 137.501 1250.14 Q137.501 1253.01 135.857 1255 Q134.214 1256.97 131.181 1257.73 Z" fill="#000000" fill-rule="nonzero" fill-opacity="1" /><path clip-path="url(#clip390)" d="M160.024 1245.88 L148.218 1264.33 L160.024 1264.33 L160.024 1245.88 M158.797 1241.81 L164.677 1241.81 L164.677 1264.33 L169.607 1264.33 L169.607 1268.22 L164.677 1268.22 L164.677 1276.37 L160.024 1276.37 L160.024 1268.22 L144.422 1268.22 L144.422 1263.7 L158.797 1241.81 Z" fill="#000000" fill-rule="nonzero" fill-opacity="1" /><path clip-path="url(#clip390)" d="M187.338 1244.88 Q183.727 1244.88 181.899 1248.45 Q180.093 1251.99 180.093 1259.12 Q180.093 1266.23 181.899 1269.79 Q183.727 1273.33 187.338 1273.33 Q190.973 1273.33 192.778 1269.79 Q194.607 1266.23 194.607 1259.12 Q194.607 1251.99 192.778 1248.45 Q190.973 1244.88 187.338 1244.88 M187.338 1241.18 Q193.149 1241.18 196.204 1245.79 Q199.283 1250.37 199.283 1259.12 Q199.283 1267.85 196.204 1272.45 Q193.149 1277.04 187.338 1277.04 Q181.528 1277.04 178.45 1272.45 Q175.394 1267.85 175.394 1259.12 Q175.394 1250.37 178.45 1245.79 Q181.528 1241.18 187.338 1241.18 Z" fill="#000000" fill-rule="nonzero" fill-opacity="1" /><path clip-path="url(#clip390)" d="M131.181 979.157 Q134.538 979.874 136.413 982.143 Q138.311 984.411 138.311 987.745 Q138.311 992.86 134.792 995.661 Q131.274 998.462 124.793 998.462 Q122.617 998.462 120.302 998.022 Q118.01 997.606 115.556 996.749 L115.556 992.235 Q117.501 993.37 119.816 993.948 Q122.13 994.527 124.654 994.527 Q129.052 994.527 131.343 992.791 Q133.658 991.055 133.658 987.745 Q133.658 984.689 131.505 982.976 Q129.376 981.24 125.556 981.24 L121.529 981.24 L121.529 977.397 L125.742 977.397 Q129.191 977.397 131.019 976.032 Q132.848 974.643 132.848 972.05 Q132.848 969.388 130.95 967.976 Q129.075 966.541 125.556 966.541 Q123.635 966.541 121.436 966.958 Q119.237 967.374 116.598 968.254 L116.598 964.087 Q119.26 963.347 121.575 962.976 Q123.913 962.606 125.973 962.606 Q131.297 962.606 134.399 965.036 Q137.501 967.444 137.501 971.564 Q137.501 974.435 135.857 976.425 Q134.214 978.393 131.181 979.157 Z" fill="#000000" fill-rule="nonzero" fill-opacity="1" /><path clip-path="url(#clip390)" d="M157.755 978.647 Q154.607 978.647 152.755 980.8 Q150.927 982.953 150.927 986.703 Q150.927 990.43 152.755 992.606 Q154.607 994.759 157.755 994.759 Q160.903 994.759 162.732 992.606 Q164.584 990.43 164.584 986.703 Q164.584 982.953 162.732 980.8 Q160.903 978.647 157.755 978.647 M167.038 963.995 L167.038 968.254 Q165.278 967.421 163.473 966.981 Q161.69 966.541 159.931 966.541 Q155.302 966.541 152.848 969.666 Q150.417 972.791 150.07 979.11 Q151.436 977.097 153.496 976.032 Q155.556 974.944 158.033 974.944 Q163.241 974.944 166.251 978.115 Q169.283 981.263 169.283 986.703 Q169.283 992.027 166.135 995.245 Q162.987 998.462 157.755 998.462 Q151.76 998.462 148.589 993.879 Q145.417 989.272 145.417 980.546 Q145.417 972.351 149.306 967.49 Q153.195 962.606 159.746 962.606 Q161.505 962.606 163.288 962.953 Q165.093 963.3 167.038 963.995 Z" fill="#000000" fill-rule="nonzero" fill-opacity="1" /><path clip-path="url(#clip390)" d="M187.338 966.31 Q183.727 966.31 181.899 969.874 Q180.093 973.416 180.093 980.546 Q180.093 987.652 181.899 991.217 Q183.727 994.759 187.338 994.759 Q190.973 994.759 192.778 991.217 Q194.607 987.652 194.607 980.546 Q194.607 973.416 192.778 969.874 Q190.973 966.31 187.338 966.31 M187.338 962.606 Q193.149 962.606 196.204 967.212 Q199.283 971.796 199.283 980.546 Q199.283 989.272 196.204 993.879 Q193.149 998.462 187.338 998.462 Q181.528 998.462 178.45 993.879 Q175.394 989.272 175.394 980.546 Q175.394 971.796 178.45 967.212 Q181.528 962.606 187.338 962.606 Z" fill="#000000" fill-rule="nonzero" fill-opacity="1" /><path clip-path="url(#clip390)" d="M131.181 700.582 Q134.538 701.299 136.413 703.568 Q138.311 705.836 138.311 709.17 Q138.311 714.285 134.792 717.086 Q131.274 719.887 124.793 719.887 Q122.617 719.887 120.302 719.447 Q118.01 719.031 115.556 718.174 L115.556 713.66 Q117.501 714.795 119.816 715.373 Q122.13 715.952 124.654 715.952 Q129.052 715.952 131.343 714.216 Q133.658 712.48 133.658 709.17 Q133.658 706.114 131.505 704.401 Q129.376 702.665 125.556 702.665 L121.529 702.665 L121.529 698.822 L125.742 698.822 Q129.191 698.822 131.019 697.457 Q132.848 696.068 132.848 693.475 Q132.848 690.813 130.95 689.401 Q129.075 687.966 125.556 687.966 Q123.635 687.966 121.436 688.383 Q119.237 688.799 116.598 689.679 L116.598 685.512 Q119.26 684.772 121.575 684.401 Q123.913 684.031 125.973 684.031 Q131.297 684.031 134.399 686.461 Q137.501 688.869 137.501 692.989 Q137.501 695.859 135.857 697.85 Q134.214 699.818 131.181 700.582 Z" fill="#000000" fill-rule="nonzero" fill-opacity="1" /><path clip-path="url(#clip390)" d="M157.177 702.804 Q153.843 702.804 151.922 704.586 Q150.024 706.369 150.024 709.494 Q150.024 712.619 151.922 714.401 Q153.843 716.183 157.177 716.183 Q160.51 716.183 162.431 714.401 Q164.352 712.595 164.352 709.494 Q164.352 706.369 162.431 704.586 Q160.533 702.804 157.177 702.804 M152.501 700.813 Q149.491 700.072 147.802 698.012 Q146.135 695.952 146.135 692.989 Q146.135 688.846 149.075 686.438 Q152.038 684.031 157.177 684.031 Q162.339 684.031 165.278 686.438 Q168.218 688.846 168.218 692.989 Q168.218 695.952 166.528 698.012 Q164.862 700.072 161.876 700.813 Q165.255 701.6 167.13 703.892 Q169.028 706.183 169.028 709.494 Q169.028 714.517 165.95 717.202 Q162.894 719.887 157.177 719.887 Q151.459 719.887 148.38 717.202 Q145.325 714.517 145.325 709.494 Q145.325 706.183 147.223 703.892 Q149.121 701.6 152.501 700.813 M150.788 693.429 Q150.788 696.114 152.454 697.619 Q154.144 699.123 157.177 699.123 Q160.186 699.123 161.876 697.619 Q163.589 696.114 163.589 693.429 Q163.589 690.744 161.876 689.239 Q160.186 687.734 157.177 687.734 Q154.144 687.734 152.454 689.239 Q150.788 690.744 150.788 693.429 Z" fill="#000000" fill-rule="nonzero" fill-opacity="1" /><path clip-path="url(#clip390)" d="M187.338 687.734 Q183.727 687.734 181.899 691.299 Q180.093 694.841 180.093 701.971 Q180.093 709.077 181.899 712.642 Q183.727 716.183 187.338 716.183 Q190.973 716.183 192.778 712.642 Q194.607 709.077 194.607 701.971 Q194.607 694.841 192.778 691.299 Q190.973 687.734 187.338 687.734 M187.338 684.031 Q193.149 684.031 196.204 688.637 Q199.283 693.221 199.283 701.971 Q199.283 710.697 196.204 715.304 Q193.149 719.887 187.338 719.887 Q181.528 719.887 178.45 715.304 Q175.394 710.697 175.394 701.971 Q175.394 693.221 178.45 688.637 Q181.528 684.031 187.338 684.031 Z" fill="#000000" fill-rule="nonzero" fill-opacity="1" /><path clip-path="url(#clip390)" d="M129.862 410.155 L118.056 428.604 L129.862 428.604 L129.862 410.155 M128.635 406.081 L134.515 406.081 L134.515 428.604 L139.445 428.604 L139.445 432.493 L134.515 432.493 L134.515 440.641 L129.862 440.641 L129.862 432.493 L114.26 432.493 L114.26 427.979 L128.635 406.081 Z" fill="#000000" fill-rule="nonzero" fill-opacity="1" /><path clip-path="url(#clip390)" d="M157.177 409.159 Q153.566 409.159 151.737 412.724 Q149.931 416.266 149.931 423.395 Q149.931 430.502 151.737 434.067 Q153.566 437.608 157.177 437.608 Q160.811 437.608 162.616 434.067 Q164.445 430.502 164.445 423.395 Q164.445 416.266 162.616 412.724 Q160.811 409.159 157.177 409.159 M157.177 405.456 Q162.987 405.456 166.042 410.062 Q169.121 414.645 169.121 423.395 Q169.121 432.122 166.042 436.729 Q162.987 441.312 157.177 441.312 Q151.366 441.312 148.288 436.729 Q145.232 432.122 145.232 423.395 Q145.232 414.645 148.288 410.062 Q151.366 405.456 157.177 405.456 Z" fill="#000000" fill-rule="nonzero" fill-opacity="1" /><path clip-path="url(#clip390)" d="M187.338 409.159 Q183.727 409.159 181.899 412.724 Q180.093 416.266 180.093 423.395 Q180.093 430.502 181.899 434.067 Q183.727 437.608 187.338 437.608 Q190.973 437.608 192.778 434.067 Q194.607 430.502 194.607 423.395 Q194.607 416.266 192.778 412.724 Q190.973 409.159 187.338 409.159 M187.338 405.456 Q193.149 405.456 196.204 410.062 Q199.283 414.645 199.283 423.395 Q199.283 432.122 196.204 436.729 Q193.149 441.312 187.338 441.312 Q181.528 441.312 178.45 436.729 Q175.394 432.122 175.394 423.395 Q175.394 414.645 178.45 410.062 Q181.528 405.456 187.338 405.456 Z" fill="#000000" fill-rule="nonzero" fill-opacity="1" /><path clip-path="url(#clip390)" d="M129.862 131.58 L118.056 150.029 L129.862 150.029 L129.862 131.58 M128.635 127.506 L134.515 127.506 L134.515 150.029 L139.445 150.029 L139.445 153.917 L134.515 153.917 L134.515 162.066 L129.862 162.066 L129.862 153.917 L114.26 153.917 L114.26 149.404 L128.635 127.506 Z" fill="#000000" fill-rule="nonzero" fill-opacity="1" /><path clip-path="url(#clip390)" d="M151.204 158.13 L167.524 158.13 L167.524 162.066 L145.579 162.066 L145.579 158.13 Q148.241 155.376 152.825 150.746 Q157.431 146.093 158.612 144.751 Q160.857 142.228 161.737 140.492 Q162.64 138.732 162.64 137.043 Q162.64 134.288 160.695 132.552 Q158.774 130.816 155.672 130.816 Q153.473 130.816 151.019 131.58 Q148.589 132.343 145.811 133.894 L145.811 129.172 Q148.635 128.038 151.089 127.459 Q153.542 126.881 155.579 126.881 Q160.95 126.881 164.144 129.566 Q167.339 132.251 167.339 136.742 Q167.339 138.871 166.528 140.793 Q165.741 142.691 163.635 145.283 Q163.056 145.955 159.954 149.172 Q156.853 152.367 151.204 158.13 Z" fill="#000000" fill-rule="nonzero" fill-opacity="1" /><path clip-path="url(#clip390)" d="M187.338 130.584 Q183.727 130.584 181.899 134.149 Q180.093 137.691 180.093 144.82 Q180.093 151.927 181.899 155.492 Q183.727 159.033 187.338 159.033 Q190.973 159.033 192.778 155.492 Q194.607 151.927 194.607 144.82 Q194.607 137.691 192.778 134.149 Q190.973 130.584 187.338 130.584 M187.338 126.881 Q193.149 126.881 196.204 131.487 Q199.283 136.07 199.283 144.82 Q199.283 153.547 196.204 158.154 Q193.149 162.737 187.338 162.737 Q181.528 162.737 178.45 158.154 Q175.394 153.547 175.394 144.82 Q175.394 136.07 178.45 131.487 Q181.528 126.881 187.338 126.881 Z" fill="#000000" fill-rule="nonzero" fill-opacity="1" /><path clip-path="url(#clip390)" d="M14.1159 1130.83 L14.1159 1124.94 L43.3664 1124.94 L27.9932 1107.47 L27.9932 1099.99 L44.6713 1118.89 L63.6411 1099.19 L63.6411 1106.83 L46.2309 1124.94 L63.6411 1124.94 L63.6411 1130.83 L14.1159 1130.83 Z" fill="#000000" fill-rule="nonzero" fill-opacity="1" /><path clip-path="url(#clip390)" d="M32.099 1081.37 Q32.099 1086.08 35.7912 1088.82 Q39.4514 1091.55 45.849 1091.55 Q52.2465 1091.55 55.9386 1088.85 Q59.5989 1086.11 59.5989 1081.37 Q59.5989 1076.69 55.9068 1073.95 Q52.2147 1071.21 45.849 1071.21 Q39.5151 1071.21 35.823 1073.95 Q32.099 1076.69 32.099 1081.37 M27.1338 1081.37 Q27.1338 1073.73 32.099 1069.37 Q37.0643 1065.01 45.849 1065.01 Q54.6018 1065.01 59.5989 1069.37 Q64.5642 1073.73 64.5642 1081.37 Q64.5642 1089.04 59.5989 1093.4 Q54.6018 1097.73 45.849 1097.73 Q37.0643 1097.73 32.099 1093.4 Q27.1338 1089.04 27.1338 1081.37 Z" fill="#000000" fill-rule="nonzero" fill-opacity="1" /><path clip-path="url(#clip390)" d="M42.125 1025.67 L63.6411 1025.67 L63.6411 1031.52 L42.316 1031.52 Q37.2553 1031.52 34.7408 1033.5 Q32.2264 1035.47 32.2264 1039.42 Q32.2264 1044.16 35.2501 1046.9 Q38.2738 1049.63 43.4937 1049.63 L63.6411 1049.63 L63.6411 1055.52 L27.9932 1055.52 L27.9932 1049.63 L33.5313 1049.63 Q30.3167 1047.53 28.7252 1044.7 Q27.1338 1041.84 27.1338 1038.11 Q27.1338 1031.97 30.9532 1028.82 Q34.7408 1025.67 42.125 1025.67 Z" fill="#000000" fill-rule="nonzero" fill-opacity="1" /><path clip-path="url(#clip390)" d="M29.3618 988.332 L34.8363 988.332 Q33.4677 990.815 32.7993 993.329 Q32.099 995.812 32.099 998.358 Q32.099 1004.06 35.7275 1007.21 Q39.3241 1010.36 45.849 1010.36 Q52.3738 1010.36 56.0023 1007.21 Q59.5989 1004.06 59.5989 998.358 Q59.5989 995.812 58.9305 993.329 Q58.2303 990.815 56.8616 988.332 L62.2725 988.332 Q63.4183 990.783 63.9912 993.425 Q64.5642 996.035 64.5642 998.995 Q64.5642 1007.05 59.5034 1011.79 Q54.4427 1016.53 45.849 1016.53 Q37.128 1016.53 32.1309 1011.76 Q27.1338 1006.95 27.1338 998.613 Q27.1338 995.908 27.7067 993.329 Q28.2478 990.751 29.3618 988.332 Z" fill="#000000" fill-rule="nonzero" fill-opacity="1" /><path clip-path="url(#clip390)" d="M44.353 947.656 L47.2176 947.656 L47.2176 974.582 Q53.265 974.201 56.4479 970.954 Q59.5989 967.676 59.5989 961.851 Q59.5989 958.477 58.7714 955.326 Q57.9438 952.143 56.2887 949.024 L61.8269 949.024 Q63.1637 952.175 63.8639 955.485 Q64.5642 958.796 64.5642 962.201 Q64.5642 970.731 59.5989 975.728 Q54.6337 980.694 46.1673 980.694 Q37.4144 980.694 32.29 975.983 Q27.1338 971.24 27.1338 963.22 Q27.1338 956.026 31.7808 951.857 Q36.3959 947.656 44.353 947.656 M42.6343 953.512 Q37.8282 953.576 34.9636 956.217 Q32.099 958.827 32.099 963.156 Q32.099 968.058 34.8681 971.018 Q37.6372 973.946 42.6661 974.391 L42.6343 953.512 Z" fill="#000000" fill-rule="nonzero" fill-opacity="1" /><path clip-path="url(#clip390)" d="M42.125 908.411 L63.6411 908.411 L63.6411 914.267 L42.316 914.267 Q37.2553 914.267 34.7408 916.241 Q32.2264 918.214 32.2264 922.161 Q32.2264 926.903 35.2501 929.641 Q38.2738 932.378 43.4937 932.378 L63.6411 932.378 L63.6411 938.266 L27.9932 938.266 L27.9932 932.378 L33.5313 932.378 Q30.3167 930.277 28.7252 927.444 Q27.1338 924.58 27.1338 920.856 Q27.1338 914.713 30.9532 911.562 Q34.7408 908.411 42.125 908.411 Z" fill="#000000" fill-rule="nonzero" fill-opacity="1" /><path clip-path="url(#clip390)" d="M17.8717 890.937 L27.9932 890.937 L27.9932 878.874 L32.5446 878.874 L32.5446 890.937 L51.8964 890.937 Q56.2569 890.937 57.4982 889.759 Q58.7395 888.55 58.7395 884.89 L58.7395 878.874 L63.6411 878.874 L63.6411 884.89 Q63.6411 891.669 61.1267 894.247 Q58.5804 896.825 51.8964 896.825 L32.5446 896.825 L32.5446 901.122 L27.9932 901.122 L27.9932 896.825 L17.8717 896.825 L17.8717 890.937 Z" fill="#000000" fill-rule="nonzero" fill-opacity="1" /><path clip-path="url(#clip390)" d="M33.4677 850.515 Q32.8948 851.502 32.6401 852.679 Q32.3537 853.825 32.3537 855.225 Q32.3537 860.191 35.6002 862.864 Q38.8149 865.506 44.8623 865.506 L63.6411 865.506 L63.6411 871.394 L27.9932 871.394 L27.9932 865.506 L33.5313 865.506 Q30.2848 863.66 28.7252 860.7 Q27.1338 857.74 27.1338 853.507 Q27.1338 852.902 27.2293 852.17 Q27.2929 851.438 27.4521 850.547 L33.4677 850.515 Z" fill="#000000" fill-rule="nonzero" fill-opacity="1" /><path clip-path="url(#clip390)" d="M45.7217 828.171 Q45.7217 835.269 47.3449 838.006 Q48.9682 840.743 52.8831 840.743 Q56.0023 840.743 57.8483 838.706 Q59.6626 836.638 59.6626 833.105 Q59.6626 828.235 56.2251 825.307 Q52.7558 822.347 47.0266 822.347 L45.7217 822.347 L45.7217 828.171 M43.3027 816.49 L63.6411 816.49 L63.6411 822.347 L58.2303 822.347 Q61.4768 824.352 63.0364 827.344 Q64.5642 830.336 64.5642 834.664 Q64.5642 840.139 61.5086 843.385 Q58.4212 846.6 53.265 846.6 Q47.2494 846.6 44.1939 842.59 Q41.1384 838.547 41.1384 830.558 L41.1384 822.347 L40.5654 822.347 Q36.5232 822.347 34.327 825.02 Q32.099 827.662 32.099 832.468 Q32.099 835.524 32.8311 838.42 Q33.5632 841.316 35.0273 843.99 L29.6164 843.99 Q28.3751 840.775 27.7704 837.752 Q27.1338 834.728 27.1338 831.863 Q27.1338 824.129 31.1442 820.31 Q35.1546 816.49 43.3027 816.49 Z" fill="#000000" fill-rule="nonzero" fill-opacity="1" /><path clip-path="url(#clip390)" d="M29.3618 778.773 L34.8363 778.773 Q33.4677 781.256 32.7993 783.77 Q32.099 786.253 32.099 788.799 Q32.099 794.497 35.7275 797.648 Q39.3241 800.799 45.849 800.799 Q52.3738 800.799 56.0023 797.648 Q59.5989 794.497 59.5989 788.799 Q59.5989 786.253 58.9305 783.77 Q58.2303 781.256 56.8616 778.773 L62.2725 778.773 Q63.4183 781.224 63.9912 783.866 Q64.5642 786.476 64.5642 789.436 Q64.5642 797.488 59.5034 802.231 Q54.4427 806.973 45.849 806.973 Q37.128 806.973 32.1309 802.199 Q27.1338 797.393 27.1338 789.054 Q27.1338 786.349 27.7067 783.77 Q28.2478 781.192 29.3618 778.773 Z" fill="#000000" fill-rule="nonzero" fill-opacity="1" /><path clip-path="url(#clip390)" d="M27.9932 768.588 L27.9932 762.732 L63.6411 762.732 L63.6411 768.588 L27.9932 768.588 M14.1159 768.588 L14.1159 762.732 L21.532 762.732 L21.532 768.588 L14.1159 768.588 Z" fill="#000000" fill-rule="nonzero" fill-opacity="1" /><path clip-path="url(#clip390)" d="M27.9932 750.478 L27.9932 744.621 L64.2777 744.621 Q71.089 744.621 74.1445 747.231 Q77.2001 749.809 77.2001 755.57 L77.2001 757.798 L72.2348 757.798 L72.2348 756.239 Q72.2348 752.897 70.6752 751.687 Q69.1475 750.478 64.2777 750.478 L27.9932 750.478 M14.1159 750.478 L14.1159 744.621 L21.532 744.621 L21.532 750.478 L14.1159 750.478 Z" fill="#000000" fill-rule="nonzero" fill-opacity="1" /><path clip-path="url(#clip390)" d="M45.7217 716.167 Q45.7217 723.264 47.3449 726.002 Q48.9682 728.739 52.8831 728.739 Q56.0023 728.739 57.8483 726.702 Q59.6626 724.633 59.6626 721.1 Q59.6626 716.23 56.2251 713.302 Q52.7558 710.342 47.0266 710.342 L45.7217 710.342 L45.7217 716.167 M43.3027 704.486 L63.6411 704.486 L63.6411 710.342 L58.2303 710.342 Q61.4768 712.347 63.0364 715.339 Q64.5642 718.331 64.5642 722.66 Q64.5642 728.134 61.5086 731.381 Q58.4212 734.595 53.265 734.595 Q47.2494 734.595 44.1939 730.585 Q41.1384 726.543 41.1384 718.554 L41.1384 710.342 L40.5654 710.342 Q36.5232 710.342 34.327 713.016 Q32.099 715.657 32.099 720.463 Q32.099 723.519 32.8311 726.415 Q33.5632 729.312 35.0273 731.985 L29.6164 731.985 Q28.3751 728.771 27.7704 725.747 Q27.1338 722.723 27.1338 719.859 Q27.1338 712.124 31.1442 708.305 Q35.1546 704.486 43.3027 704.486 Z" fill="#000000" fill-rule="nonzero" fill-opacity="1" /><path clip-path="url(#clip390)" d="M41.097 677.845 Q31.1454 677.845 24.1567 671.05 Q17.1359 664.254 17.1359 654.914 Q17.1359 652.016 18.1987 649.439 Q19.2614 646.863 20.1954 645.671 Q21.0972 644.48 22.8041 642.773 L17.941 639.456 Q17.1359 638.94 17.1359 638.425 Q17.1359 637.878 17.4579 637.781 Q17.7478 637.684 18.7139 637.684 L34.366 637.684 Q35.4288 637.684 35.6864 637.813 Q35.9441 637.942 35.9441 638.747 Q35.9441 639.391 35.7509 639.552 Q35.5576 639.681 34.8169 639.81 Q27.6994 640.808 23.4482 644.77 Q19.197 648.699 19.197 654.174 Q19.197 655.752 19.5513 657.523 Q19.9056 659.262 21.2582 661.807 Q22.6109 664.319 24.8653 666.283 Q27.0875 668.215 31.3386 669.633 Q35.5576 671.05 41.1614 671.05 Q46.7008 671.05 50.952 669.633 Q55.2032 668.215 57.4254 666.283 Q59.6154 664.319 60.968 661.807 Q62.3207 659.262 62.7072 657.491 Q63.0614 655.687 63.0614 654.109 Q63.0614 648.441 59.0357 644.093 Q55.01 639.746 48.2145 639.327 Q47.8925 639.262 47.7636 639.262 Q47.6026 639.262 47.4416 639.198 Q47.2805 639.134 47.2161 638.973 Q47.1517 638.812 47.1517 638.554 Q47.1517 637.684 48.2789 637.684 Q54.5591 637.684 59.8408 642.515 Q65.0904 647.314 65.0904 654.914 Q65.0904 664.286 58.1339 671.082 Q51.1775 677.845 41.097 677.845 Z" fill="#000000" fill-rule="nonzero" fill-opacity="1" /><path clip-path="url(#clip390)" d="M41.2903 627.6 Q31.2098 627.6 24.1889 621.159 Q17.1359 614.686 17.1359 605.7 Q17.1359 596.65 24.1889 590.209 Q31.242 583.736 41.2903 583.736 Q51.2419 583.736 58.1661 590.209 Q65.0904 596.682 65.0904 605.7 Q65.0904 614.589 58.1983 621.094 Q51.3063 627.6 41.2903 627.6 M40.3563 620.805 Q46.4754 620.805 51.1775 619.355 Q55.8473 617.906 58.3916 615.587 Q60.9358 613.236 62.1597 610.724 Q63.3835 608.212 63.3835 605.636 Q63.3835 603.124 62.1919 600.676 Q61.0002 598.196 58.4882 595.845 Q55.9761 593.494 51.2741 592.013 Q46.572 590.531 40.3563 590.531 Q35.5254 590.531 31.6607 591.562 Q27.7638 592.592 25.4128 594.203 Q23.0617 595.813 21.5159 597.906 Q19.97 599.967 19.3903 601.932 Q18.7784 603.864 18.7784 605.7 Q18.7784 608.019 19.8089 610.434 Q20.8395 612.85 23.1262 615.297 Q25.3806 617.713 29.8572 619.259 Q34.3016 620.805 40.3563 620.805 Z" fill="#000000" fill-rule="nonzero" fill-opacity="1" /><path clip-path="url(#clip390)" d="M81.9177 577.123 Q81.0836 577.123 80.8356 577.055 Q80.5876 576.965 80.2043 576.604 L70.33 567.744 Q64.8743 562.897 60.1175 562.897 Q57.029 562.897 54.8197 564.52 Q52.6104 566.121 52.6104 569.074 Q52.6104 571.103 53.8503 572.817 Q55.0902 574.53 57.2995 575.319 Q57.2544 575.184 57.2544 574.71 Q57.2544 573.561 57.9759 572.929 Q58.6973 572.276 59.6667 572.276 Q60.9066 572.276 61.5153 573.087 Q62.1014 573.876 62.1014 574.665 Q62.1014 574.981 62.0338 575.409 Q61.9662 575.815 61.3349 576.469 Q60.6811 577.123 59.5314 577.123 Q56.3076 577.123 53.7376 574.688 Q51.1675 572.23 51.1675 568.488 Q51.1675 564.25 53.6925 561.477 Q56.1949 558.681 60.1175 558.681 Q61.4927 558.681 62.7552 559.11 Q63.9951 559.516 64.9645 560.079 Q65.9339 560.62 67.4895 562.108 Q69.045 563.596 70.1497 564.791 Q71.2543 565.986 73.5989 568.669 L78.3557 573.561 L78.3557 565.242 Q78.3557 561.184 77.995 560.868 Q77.3412 560.417 73.892 559.854 L73.892 558.681 L81.9177 559.989 L81.9177 577.123 Z" fill="#000000" fill-rule="nonzero" fill-opacity="1" /><path clip-path="url(#clip390)" d="M14.1796 510.896 Q21.5001 515.161 28.6616 517.23 Q35.823 519.299 43.1754 519.299 Q50.5278 519.299 57.7528 517.23 Q64.9461 515.13 72.2348 510.896 L72.2348 515.989 Q64.7551 520.763 57.53 523.15 Q50.305 525.506 43.1754 525.506 Q36.0776 525.506 28.8844 523.15 Q21.6911 520.795 14.1796 515.989 L14.1796 510.896 Z" fill="#000000" fill-rule="nonzero" fill-opacity="1" /><path clip-path="url(#clip390)" d="M58.2939 493.868 L77.2001 493.868 L77.2001 499.756 L27.9932 499.756 L27.9932 493.868 L33.404 493.868 Q30.2212 492.022 28.6934 489.221 Q27.1338 486.388 27.1338 482.473 Q27.1338 475.98 32.29 471.938 Q37.4462 467.864 45.849 467.864 Q54.2517 467.864 59.4079 471.938 Q64.5642 475.98 64.5642 482.473 Q64.5642 486.388 63.0364 489.221 Q61.4768 492.022 58.2939 493.868 M45.849 473.943 Q39.3878 473.943 35.7275 476.617 Q32.0354 479.259 32.0354 483.906 Q32.0354 488.553 35.7275 491.226 Q39.3878 493.868 45.849 493.868 Q52.3102 493.868 56.0023 491.226 Q59.6626 488.553 59.6626 483.906 Q59.6626 479.259 56.0023 476.617 Q52.3102 473.943 45.849 473.943 Z" fill="#000000" fill-rule="nonzero" fill-opacity="1" /><path clip-path="url(#clip390)" d="M58.2939 452.491 L77.2001 452.491 L77.2001 458.379 L27.9932 458.379 L27.9932 452.491 L33.404 452.491 Q30.2212 450.645 28.6934 447.844 Q27.1338 445.011 27.1338 441.096 Q27.1338 434.603 32.29 430.561 Q37.4462 426.487 45.849 426.487 Q54.2517 426.487 59.4079 430.561 Q64.5642 434.603 64.5642 441.096 Q64.5642 445.011 63.0364 447.844 Q61.4768 450.645 58.2939 452.491 M45.849 432.566 Q39.3878 432.566 35.7275 435.24 Q32.0354 437.882 32.0354 442.529 Q32.0354 447.176 35.7275 449.849 Q39.3878 452.491 45.849 452.491 Q52.3102 452.491 56.0023 449.849 Q59.6626 447.176 59.6626 442.529 Q59.6626 437.882 56.0023 435.24 Q52.3102 432.566 45.849 432.566 Z" fill="#000000" fill-rule="nonzero" fill-opacity="1" /><path clip-path="url(#clip390)" d="M34.8363 389.025 Q30.8896 386.829 29.0117 383.773 Q27.1338 380.718 27.1338 376.58 Q27.1338 371.01 31.0487 367.986 Q34.9318 364.963 42.125 364.963 L63.6411 364.963 L63.6411 370.851 L42.316 370.851 Q37.1916 370.851 34.709 372.665 Q32.2264 374.479 32.2264 378.203 Q32.2264 382.755 35.2501 385.396 Q38.2738 388.038 43.4937 388.038 L63.6411 388.038 L63.6411 393.927 L42.316 393.927 Q37.1598 393.927 34.709 395.741 Q32.2264 397.555 32.2264 401.343 Q32.2264 405.83 35.2819 408.472 Q38.3056 411.114 43.4937 411.114 L63.6411 411.114 L63.6411 417.002 L27.9932 417.002 L27.9932 411.114 L33.5313 411.114 Q30.253 409.109 28.6934 406.308 Q27.1338 403.507 27.1338 399.656 Q27.1338 395.773 29.1072 393.067 Q31.0805 390.33 34.8363 389.025 Z" fill="#000000" fill-rule="nonzero" fill-opacity="1" /><path clip-path="url(#clip390)" d="M14.1796 354.205 L14.1796 349.112 Q21.6911 344.338 28.8844 341.982 Q36.0776 339.595 43.1754 339.595 Q50.305 339.595 57.53 341.982 Q64.7551 344.338 72.2348 349.112 L72.2348 354.205 Q64.9461 349.971 57.7528 347.902 Q50.5278 345.802 43.1754 345.802 Q35.823 345.802 28.6616 347.902 Q21.5001 349.971 14.1796 354.205 Z" fill="#000000" fill-rule="nonzero" fill-opacity="1" /><polyline clip-path="url(#clip392)" style="stroke:#009af9; stroke-linecap:round; stroke-linejoin:round; stroke-width:4; stroke-opacity:1; fill:none" points="295.211,1384.24 308.217,1379.02 428.472,1328.75 500.741,1296.79 561.843,1268.76 628.217,1237.24 689.407,1207.21 755.011,1173.98 831.018,1134.12 898.565,1097.49 957.797,1064.42 1022.38,1027.37 1087.34,989.051 1159.16,945.45 1227.5,902.766 1298.56,857.144 1358.38,817.76 1431.4,768.463 1498.3,722.131 1560.09,678.345 1622.67,633.017 1692.81,581.051 1756.37,532.898 1829.15,476.524 1896.53,423.145 1962.95,369.406 2027.45,316.173 2093.57,260.522 2166.01,198.293 2271.24,105.554 2292.83,86.1857 "/>
<path clip-path="url(#clip390)" d="M305.865 196.789 L1028.93 196.789 L1028.93 93.1086 L305.865 93.1086  Z" fill="#ffffff" fill-rule="evenodd" fill-opacity="1"/>
<polyline clip-path="url(#clip390)" style="stroke:#000000; stroke-linecap:round; stroke-linejoin:round; stroke-width:4; stroke-opacity:1; fill:none" points="305.865,196.789 1028.93,196.789 1028.93,93.1086 305.865,93.1086 305.865,196.789 "/>
<polyline clip-path="url(#clip390)" style="stroke:#009af9; stroke-linecap:round; stroke-linejoin:round; stroke-width:4; stroke-opacity:1; fill:none" points="329.393,144.949 470.558,144.949 "/>
<path clip-path="url(#clip390)" d="M494.085 120.486 L523.321 120.486 L523.321 124.421 L511.053 124.421 L511.053 155.046 L506.354 155.046 L506.354 124.421 L494.085 124.421 L494.085 120.486 Z" fill="#000000" fill-rule="nonzero" fill-opacity="1" /><path clip-path="url(#clip390)" d="M535.705 133.102 Q534.988 132.685 534.131 132.5 Q533.298 132.292 532.279 132.292 Q528.668 132.292 526.724 134.653 Q524.803 136.991 524.803 141.389 L524.803 155.046 L520.52 155.046 L520.52 129.12 L524.803 129.12 L524.803 133.148 Q526.145 130.787 528.298 129.653 Q530.451 128.495 533.529 128.495 Q533.969 128.495 534.502 128.565 Q535.034 128.611 535.682 128.727 L535.705 133.102 Z" fill="#000000" fill-rule="nonzero" fill-opacity="1" /><path clip-path="url(#clip390)" d="M561.307 141.019 L561.307 143.102 L541.724 143.102 Q542.002 147.5 544.363 149.815 Q546.747 152.106 550.983 152.106 Q553.437 152.106 555.728 151.505 Q558.043 150.903 560.312 149.699 L560.312 153.727 Q558.02 154.699 555.613 155.208 Q553.205 155.718 550.728 155.718 Q544.525 155.718 540.89 152.106 Q537.279 148.495 537.279 142.338 Q537.279 135.972 540.705 132.245 Q544.154 128.495 549.988 128.495 Q555.219 128.495 558.251 131.875 Q561.307 135.232 561.307 141.019 M557.048 139.769 Q557.001 136.273 555.08 134.19 Q553.182 132.107 550.034 132.107 Q546.469 132.107 544.316 134.12 Q542.187 136.134 541.863 139.792 L557.048 139.769 Z" fill="#000000" fill-rule="nonzero" fill-opacity="1" /><path clip-path="url(#clip390)" d="M589.848 139.398 L589.848 155.046 L585.589 155.046 L585.589 139.537 Q585.589 135.857 584.154 134.028 Q582.719 132.199 579.849 132.199 Q576.399 132.199 574.409 134.398 Q572.418 136.597 572.418 140.394 L572.418 155.046 L568.136 155.046 L568.136 129.12 L572.418 129.12 L572.418 133.148 Q573.946 130.81 576.006 129.653 Q578.089 128.495 580.798 128.495 Q585.265 128.495 587.557 131.273 Q589.848 134.028 589.848 139.398 Z" fill="#000000" fill-rule="nonzero" fill-opacity="1" /><path clip-path="url(#clip390)" d="M615.404 133.056 L615.404 119.028 L619.663 119.028 L619.663 155.046 L615.404 155.046 L615.404 151.157 Q614.061 153.472 612.001 154.606 Q609.964 155.718 607.094 155.718 Q602.395 155.718 599.432 151.968 Q596.492 148.218 596.492 142.107 Q596.492 135.995 599.432 132.245 Q602.395 128.495 607.094 128.495 Q609.964 128.495 612.001 129.63 Q614.061 130.741 615.404 133.056 M600.89 142.107 Q600.89 146.806 602.811 149.491 Q604.756 152.153 608.135 152.153 Q611.515 152.153 613.459 149.491 Q615.404 146.806 615.404 142.107 Q615.404 137.407 613.459 134.745 Q611.515 132.06 608.135 132.06 Q604.756 132.06 602.811 134.745 Q600.89 137.407 600.89 142.107 Z" fill="#000000" fill-rule="nonzero" fill-opacity="1" /><path clip-path="url(#clip390)" d="M665.056 139.398 L665.056 155.046 L660.797 155.046 L660.797 139.537 Q660.797 135.857 659.362 134.028 Q657.927 132.199 655.056 132.199 Q651.607 132.199 649.617 134.398 Q647.626 136.597 647.626 140.394 L647.626 155.046 L643.344 155.046 L643.344 129.12 L647.626 129.12 L647.626 133.148 Q649.154 130.81 651.214 129.653 Q653.297 128.495 656.006 128.495 Q660.473 128.495 662.765 131.273 Q665.056 134.028 665.056 139.398 Z" fill="#000000" fill-rule="nonzero" fill-opacity="1" /><path clip-path="url(#clip390)" d="M685.334 142.014 Q680.172 142.014 678.181 143.194 Q676.191 144.375 676.191 147.222 Q676.191 149.491 677.672 150.833 Q679.177 152.153 681.746 152.153 Q685.288 152.153 687.417 149.653 Q689.57 147.13 689.57 142.963 L689.57 142.014 L685.334 142.014 M693.829 140.255 L693.829 155.046 L689.57 155.046 L689.57 151.111 Q688.112 153.472 685.936 154.606 Q683.76 155.718 680.612 155.718 Q676.63 155.718 674.269 153.495 Q671.931 151.25 671.931 147.5 Q671.931 143.125 674.848 140.903 Q677.788 138.681 683.598 138.681 L689.57 138.681 L689.57 138.264 Q689.57 135.324 687.626 133.727 Q685.704 132.107 682.209 132.107 Q679.987 132.107 677.88 132.639 Q675.774 133.171 673.83 134.236 L673.83 130.301 Q676.167 129.398 678.367 128.958 Q680.566 128.495 682.649 128.495 Q688.274 128.495 691.052 131.412 Q693.829 134.329 693.829 140.255 Z" fill="#000000" fill-rule="nonzero" fill-opacity="1" /><path clip-path="url(#clip390)" d="M717.626 133.102 Q716.908 132.685 716.052 132.5 Q715.218 132.292 714.2 132.292 Q710.589 132.292 708.644 134.653 Q706.723 136.991 706.723 141.389 L706.723 155.046 L702.44 155.046 L702.44 129.12 L706.723 129.12 L706.723 133.148 Q708.065 130.787 710.218 129.653 Q712.371 128.495 715.45 128.495 Q715.889 128.495 716.422 128.565 Q716.954 128.611 717.602 128.727 L717.626 133.102 Z" fill="#000000" fill-rule="nonzero" fill-opacity="1" /><path clip-path="url(#clip390)" d="M733.875 142.014 Q728.713 142.014 726.723 143.194 Q724.732 144.375 724.732 147.222 Q724.732 149.491 726.213 150.833 Q727.718 152.153 730.288 152.153 Q733.829 152.153 735.959 149.653 Q738.112 147.13 738.112 142.963 L738.112 142.014 L733.875 142.014 M742.371 140.255 L742.371 155.046 L738.112 155.046 L738.112 151.111 Q736.653 153.472 734.477 154.606 Q732.301 155.718 729.153 155.718 Q725.172 155.718 722.811 153.495 Q720.473 151.25 720.473 147.5 Q720.473 143.125 723.389 140.903 Q726.329 138.681 732.139 138.681 L738.112 138.681 L738.112 138.264 Q738.112 135.324 736.167 133.727 Q734.246 132.107 730.751 132.107 Q728.528 132.107 726.422 132.639 Q724.315 133.171 722.371 134.236 L722.371 130.301 Q724.709 129.398 726.908 128.958 Q729.107 128.495 731.19 128.495 Q736.815 128.495 739.593 131.412 Q742.371 134.329 742.371 140.255 Z" fill="#000000" fill-rule="nonzero" fill-opacity="1" /><path clip-path="url(#clip390)" d="M767.672 129.884 L767.672 133.912 Q765.866 132.986 763.922 132.523 Q761.977 132.06 759.894 132.06 Q756.723 132.06 755.125 133.033 Q753.551 134.005 753.551 135.949 Q753.551 137.431 754.686 138.287 Q755.82 139.12 759.246 139.884 L760.704 140.208 Q765.241 141.181 767.139 142.963 Q769.06 144.722 769.06 147.894 Q769.06 151.505 766.19 153.611 Q763.343 155.718 758.343 155.718 Q756.26 155.718 753.991 155.301 Q751.746 154.907 749.246 154.097 L749.246 149.699 Q751.607 150.926 753.899 151.551 Q756.19 152.153 758.436 152.153 Q761.445 152.153 763.065 151.134 Q764.686 150.093 764.686 148.218 Q764.686 146.482 763.505 145.556 Q762.348 144.63 758.389 143.773 L756.908 143.426 Q752.949 142.593 751.19 140.88 Q749.431 139.144 749.431 136.134 Q749.431 132.477 752.024 130.486 Q754.616 128.495 759.385 128.495 Q761.746 128.495 763.829 128.843 Q765.912 129.19 767.672 129.884 M757.811 125.833 L752.139 117.13 L755.357 117.13 L759.524 122.801 L763.69 117.13 L766.908 117.13 L761.236 125.833 L757.811 125.833 M759.431 128.495 L759.431 128.495 Z" fill="#000000" fill-rule="nonzero" fill-opacity="1" /><path clip-path="url(#clip390)" d="M794.5 130.116 L794.5 134.097 Q792.695 133.102 790.866 132.616 Q789.06 132.107 787.209 132.107 Q783.065 132.107 780.773 134.745 Q778.482 137.361 778.482 142.107 Q778.482 146.852 780.773 149.491 Q783.065 152.106 787.209 152.106 Q789.06 152.106 790.866 151.62 Q792.695 151.111 794.5 150.116 L794.5 154.051 Q792.718 154.884 790.796 155.301 Q788.898 155.718 786.746 155.718 Q780.889 155.718 777.44 152.037 Q773.991 148.356 773.991 142.107 Q773.991 135.764 777.463 132.13 Q780.959 128.495 787.023 128.495 Q788.991 128.495 790.866 128.912 Q792.741 129.306 794.5 130.116 M784.685 125.833 L779.014 117.13 L782.232 117.13 L786.398 122.801 L790.565 117.13 L793.783 117.13 L788.111 125.833 L784.685 125.833 Z" fill="#000000" fill-rule="nonzero" fill-opacity="1" /><path clip-path="url(#clip390)" d="M813.69 142.014 Q808.528 142.014 806.537 143.194 Q804.546 144.375 804.546 147.222 Q804.546 149.491 806.028 150.833 Q807.533 152.153 810.102 152.153 Q813.644 152.153 815.773 149.653 Q817.926 147.13 817.926 142.963 L817.926 142.014 L813.69 142.014 M822.185 140.255 L822.185 155.046 L817.926 155.046 L817.926 151.111 Q816.468 153.472 814.292 154.606 Q812.116 155.718 808.968 155.718 Q804.986 155.718 802.625 153.495 Q800.287 151.25 800.287 147.5 Q800.287 143.125 803.204 140.903 Q806.144 138.681 811.954 138.681 L817.926 138.681 L817.926 138.264 Q817.926 135.324 815.982 133.727 Q814.06 132.107 810.565 132.107 Q808.343 132.107 806.236 132.639 Q804.13 133.171 802.185 134.236 L802.185 130.301 Q804.523 129.398 806.722 128.958 Q808.921 128.495 811.005 128.495 Q816.63 128.495 819.407 131.412 Q822.185 134.329 822.185 140.255 Z" fill="#000000" fill-rule="nonzero" fill-opacity="1" /><path clip-path="url(#clip390)" d="M852.509 139.398 L852.509 155.046 L848.25 155.046 L848.25 139.537 Q848.25 135.857 846.815 134.028 Q845.38 132.199 842.509 132.199 Q839.06 132.199 837.069 134.398 Q835.079 136.597 835.079 140.394 L835.079 155.046 L830.796 155.046 L830.796 129.12 L835.079 129.12 L835.079 133.148 Q836.606 130.81 838.667 129.653 Q840.75 128.495 843.458 128.495 Q847.926 128.495 850.217 131.273 Q852.509 134.028 852.509 139.398 Z" fill="#000000" fill-rule="nonzero" fill-opacity="1" /><path clip-path="url(#clip390)" d="M861.004 129.12 L865.264 129.12 L865.264 155.509 Q865.264 160.463 863.366 162.685 Q861.491 164.907 857.301 164.907 L855.68 164.907 L855.68 161.296 L856.815 161.296 Q859.245 161.296 860.125 160.162 Q861.004 159.051 861.004 155.509 L861.004 129.12 M861.004 119.028 L865.264 119.028 L865.264 124.421 L861.004 124.421 L861.004 119.028 Z" fill="#000000" fill-rule="nonzero" fill-opacity="1" /><path clip-path="url(#clip390)" d="M885.958 142.014 Q880.796 142.014 878.805 143.194 Q876.815 144.375 876.815 147.222 Q876.815 149.491 878.296 150.833 Q879.801 152.153 882.37 152.153 Q885.912 152.153 888.041 149.653 Q890.194 147.13 890.194 142.963 L890.194 142.014 L885.958 142.014 M894.453 140.255 L894.453 155.046 L890.194 155.046 L890.194 151.111 Q888.736 153.472 886.56 154.606 Q884.384 155.718 881.236 155.718 Q877.254 155.718 874.893 153.495 Q872.555 151.25 872.555 147.5 Q872.555 143.125 875.472 140.903 Q878.412 138.681 884.222 138.681 L890.194 138.681 L890.194 138.264 Q890.194 135.324 888.25 133.727 Q886.328 132.107 882.833 132.107 Q880.611 132.107 878.504 132.639 Q876.398 133.171 874.453 134.236 L874.453 130.301 Q876.791 129.398 878.99 128.958 Q881.19 128.495 883.273 128.495 Q888.898 128.495 891.676 131.412 Q894.453 134.329 894.453 140.255 Z" fill="#000000" fill-rule="nonzero" fill-opacity="1" /><path clip-path="url(#clip390)" d="M913.828 138.651 Q913.828 131.413 918.77 126.33 Q923.713 121.224 930.505 121.224 Q932.613 121.224 934.487 121.997 Q936.361 122.77 937.227 123.449 Q938.094 124.105 939.335 125.347 L941.748 121.81 Q942.123 121.224 942.497 121.224 Q942.895 121.224 942.966 121.458 Q943.036 121.669 943.036 122.372 L943.036 133.755 Q943.036 134.528 942.942 134.716 Q942.849 134.903 942.263 134.903 Q941.795 134.903 941.678 134.762 Q941.584 134.622 941.49 134.083 Q940.764 128.907 937.883 125.815 Q935.026 122.723 931.044 122.723 Q929.896 122.723 928.608 122.981 Q927.343 123.239 925.493 124.222 Q923.666 125.206 922.237 126.846 Q920.832 128.462 919.801 131.554 Q918.77 134.622 918.77 138.697 Q918.77 142.726 919.801 145.818 Q920.832 148.91 922.237 150.526 Q923.666 152.118 925.493 153.102 Q927.343 154.086 928.631 154.367 Q929.943 154.625 931.091 154.625 Q935.213 154.625 938.375 151.697 Q941.537 148.769 941.841 143.827 Q941.888 143.593 941.888 143.499 Q941.888 143.382 941.935 143.265 Q941.982 143.148 942.099 143.101 Q942.216 143.054 942.404 143.054 Q943.036 143.054 943.036 143.874 Q943.036 148.441 939.523 152.282 Q936.033 156.1 930.505 156.1 Q923.689 156.1 918.747 151.041 Q913.828 145.982 913.828 138.651 Z" fill="#000000" fill-rule="nonzero" fill-opacity="1" /><path clip-path="url(#clip390)" d="M950.305 138.791 Q950.305 131.46 954.99 126.354 Q959.697 121.224 966.232 121.224 Q972.814 121.224 977.498 126.354 Q982.206 131.483 982.206 138.791 Q982.206 146.029 977.498 151.064 Q972.791 156.1 966.232 156.1 Q959.768 156.1 955.036 151.088 Q950.305 146.075 950.305 138.791 M955.247 138.112 Q955.247 142.562 956.301 145.982 Q957.355 149.378 959.042 151.228 Q960.751 153.079 962.578 153.969 Q964.405 154.859 966.279 154.859 Q968.106 154.859 969.886 153.992 Q971.69 153.126 973.4 151.299 Q975.109 149.472 976.187 146.052 Q977.264 142.632 977.264 138.112 Q977.264 134.598 976.515 131.788 Q975.765 128.954 974.594 127.244 Q973.423 125.534 971.901 124.41 Q970.401 123.285 968.973 122.864 Q967.567 122.419 966.232 122.419 Q964.546 122.419 962.789 123.168 Q961.032 123.918 959.252 125.581 Q957.496 127.22 956.371 130.476 Q955.247 133.708 955.247 138.112 Z" fill="#000000" fill-rule="nonzero" fill-opacity="1" /><path clip-path="url(#clip390)" d="M987.003 168.335 Q987.003 167.729 987.052 167.548 Q987.118 167.368 987.38 167.089 L993.824 159.908 Q997.349 155.94 997.349 152.481 Q997.349 150.234 996.168 148.628 Q995.004 147.021 992.856 147.021 Q991.381 147.021 990.135 147.923 Q988.889 148.824 988.315 150.431 Q988.413 150.398 988.757 150.398 Q989.594 150.398 990.053 150.923 Q990.528 151.448 990.528 152.153 Q990.528 153.055 989.938 153.497 Q989.364 153.924 988.79 153.924 Q988.561 153.924 988.249 153.874 Q987.954 153.825 987.479 153.366 Q987.003 152.891 987.003 152.054 Q987.003 149.71 988.774 147.841 Q990.561 145.972 993.283 145.972 Q996.365 145.972 998.382 147.808 Q1000.41 149.628 1000.41 152.481 Q1000.41 153.481 1000.1 154.399 Q999.808 155.301 999.398 156.006 Q999.005 156.711 997.923 157.842 Q996.841 158.973 995.972 159.777 Q995.103 160.58 993.152 162.285 L989.594 165.745 L995.644 165.745 Q998.595 165.745 998.824 165.482 Q999.152 165.007 999.562 162.498 L1000.41 162.498 L999.464 168.335 L987.003 168.335 Z" fill="#000000" fill-rule="nonzero" fill-opacity="1" /></svg>
