<?xml version="1.0" encoding="utf-8"?>
<svg xmlns="http://www.w3.org/2000/svg" xmlns:xlink="http://www.w3.org/1999/xlink" width="600" height="400" viewBox="0 0 2400 1600">
<defs>
  <clipPath id="clip600">
    <rect x="0" y="0" width="2400" height="1600"/>
  </clipPath>
</defs>
<path clip-path="url(#clip600)" d="M0 1600 L2400 1600 L2400 0 L0 0  Z" fill="#ffffff" fill-rule="evenodd" fill-opacity="1"/>
<defs>
  <clipPath id="clip601">
    <rect x="480" y="0" width="1681" height="1600"/>
  </clipPath>
</defs>
<path clip-path="url(#clip600)" d="M147.478 1486.45 L2352.76 1486.45 L2352.76 47.2441 L147.478 47.2441  Z" fill="#ffffff" fill-rule="evenodd" fill-opacity="1"/>
<defs>
  <clipPath id="clip602">
    <rect x="147" y="47" width="2206" height="1440"/>
  </clipPath>
</defs>
<polyline clip-path="url(#clip602)" style="stroke:#000000; stroke-linecap:round; stroke-linejoin:round; stroke-width:2; stroke-opacity:0.1; fill:none" points="209.891,1486.45 209.891,47.2441 "/>
<polyline clip-path="url(#clip602)" style="stroke:#000000; stroke-linecap:round; stroke-linejoin:round; stroke-width:2; stroke-opacity:0.1; fill:none" points="625.982,1486.45 625.982,47.2441 "/>
<polyline clip-path="url(#clip602)" style="stroke:#000000; stroke-linecap:round; stroke-linejoin:round; stroke-width:2; stroke-opacity:0.1; fill:none" points="1042.07,1486.45 1042.07,47.2441 "/>
<polyline clip-path="url(#clip602)" style="stroke:#000000; stroke-linecap:round; stroke-linejoin:round; stroke-width:2; stroke-opacity:0.1; fill:none" points="1458.16,1486.45 1458.16,47.2441 "/>
<polyline clip-path="url(#clip602)" style="stroke:#000000; stroke-linecap:round; stroke-linejoin:round; stroke-width:2; stroke-opacity:0.1; fill:none" points="1874.25,1486.45 1874.25,47.2441 "/>
<polyline clip-path="url(#clip602)" style="stroke:#000000; stroke-linecap:round; stroke-linejoin:round; stroke-width:2; stroke-opacity:0.1; fill:none" points="2290.34,1486.45 2290.34,47.2441 "/>
<polyline clip-path="url(#clip600)" style="stroke:#000000; stroke-linecap:round; stroke-linejoin:round; stroke-width:4; stroke-opacity:1; fill:none" points="147.478,1486.45 2352.76,1486.45 "/>
<polyline clip-path="url(#clip600)" style="stroke:#000000; stroke-linecap:round; stroke-linejoin:round; stroke-width:4; stroke-opacity:1; fill:none" points="209.891,1486.45 209.891,1467.55 "/>
<polyline clip-path="url(#clip600)" style="stroke:#000000; stroke-linecap:round; stroke-linejoin:round; stroke-width:4; stroke-opacity:1; fill:none" points="625.982,1486.45 625.982,1467.55 "/>
<polyline clip-path="url(#clip600)" style="stroke:#000000; stroke-linecap:round; stroke-linejoin:round; stroke-width:4; stroke-opacity:1; fill:none" points="1042.07,1486.45 1042.07,1467.55 "/>
<polyline clip-path="url(#clip600)" style="stroke:#000000; stroke-linecap:round; stroke-linejoin:round; stroke-width:4; stroke-opacity:1; fill:none" points="1458.16,1486.45 1458.16,1467.55 "/>
<polyline clip-path="url(#clip600)" style="stroke:#000000; stroke-linecap:round; stroke-linejoin:round; stroke-width:4; stroke-opacity:1; fill:none" points="1874.25,1486.45 1874.25,1467.55 "/>
<polyline clip-path="url(#clip600)" style="stroke:#000000; stroke-linecap:round; stroke-linejoin:round; stroke-width:4; stroke-opacity:1; fill:none" points="2290.34,1486.45 2290.34,1467.55 "/>
<path clip-path="url(#clip600)" d="M209.891 1517.37 Q206.28 1517.37 204.452 1520.93 Q202.646 1524.47 202.646 1531.6 Q202.646 1538.71 204.452 1542.27 Q206.28 1545.82 209.891 1545.82 Q213.526 1545.82 215.331 1542.27 Q217.16 1538.71 217.16 1531.6 Q217.16 1524.47 215.331 1520.93 Q213.526 1517.37 209.891 1517.37 M209.891 1513.66 Q215.702 1513.66 218.757 1518.27 Q221.836 1522.85 221.836 1531.6 Q221.836 1540.33 218.757 1544.94 Q215.702 1549.52 209.891 1549.52 Q204.081 1549.52 201.003 1544.94 Q197.947 1540.33 197.947 1531.6 Q197.947 1522.85 201.003 1518.27 Q204.081 1513.66 209.891 1513.66 Z" fill="#000000" fill-rule="nonzero" fill-opacity="1" /><path clip-path="url(#clip600)" d="M616.364 1544.91 L624.002 1544.91 L624.002 1518.55 L615.692 1520.21 L615.692 1515.95 L623.956 1514.29 L628.632 1514.29 L628.632 1544.91 L636.271 1544.91 L636.271 1548.85 L616.364 1548.85 L616.364 1544.91 Z" fill="#000000" fill-rule="nonzero" fill-opacity="1" /><path clip-path="url(#clip600)" d="M1036.72 1544.91 L1053.04 1544.91 L1053.04 1548.85 L1031.1 1548.85 L1031.1 1544.91 Q1033.76 1542.16 1038.34 1537.53 Q1042.95 1532.88 1044.13 1531.53 Q1046.38 1529.01 1047.26 1527.27 Q1048.16 1525.51 1048.16 1523.82 Q1048.16 1521.07 1046.22 1519.33 Q1044.29 1517.6 1041.19 1517.6 Q1038.99 1517.6 1036.54 1518.36 Q1034.11 1519.13 1031.33 1520.68 L1031.33 1515.95 Q1034.16 1514.82 1036.61 1514.24 Q1039.06 1513.66 1041.1 1513.66 Q1046.47 1513.66 1049.66 1516.35 Q1052.86 1519.03 1052.86 1523.52 Q1052.86 1525.65 1052.05 1527.57 Q1051.26 1529.47 1049.16 1532.07 Q1048.58 1532.74 1045.47 1535.95 Q1042.37 1539.15 1036.72 1544.91 Z" fill="#000000" fill-rule="nonzero" fill-opacity="1" /><path clip-path="url(#clip600)" d="M1462.41 1530.21 Q1465.77 1530.93 1467.64 1533.2 Q1469.54 1535.47 1469.54 1538.8 Q1469.54 1543.92 1466.02 1546.72 Q1462.5 1549.52 1456.02 1549.52 Q1453.84 1549.52 1451.53 1549.08 Q1449.24 1548.66 1446.78 1547.81 L1446.78 1543.29 Q1448.73 1544.43 1451.04 1545.01 Q1453.36 1545.58 1455.88 1545.58 Q1460.28 1545.58 1462.57 1543.85 Q1464.89 1542.11 1464.89 1538.8 Q1464.89 1535.75 1462.73 1534.03 Q1460.6 1532.3 1456.78 1532.3 L1452.76 1532.3 L1452.76 1528.45 L1456.97 1528.45 Q1460.42 1528.45 1462.25 1527.09 Q1464.08 1525.7 1464.08 1523.11 Q1464.08 1520.45 1462.18 1519.03 Q1460.3 1517.6 1456.78 1517.6 Q1454.86 1517.6 1452.66 1518.01 Q1450.47 1518.43 1447.83 1519.31 L1447.83 1515.14 Q1450.49 1514.4 1452.8 1514.03 Q1455.14 1513.66 1457.2 1513.66 Q1462.53 1513.66 1465.63 1516.09 Q1468.73 1518.5 1468.73 1522.62 Q1468.73 1525.49 1467.09 1527.48 Q1465.44 1529.45 1462.41 1530.21 Z" fill="#000000" fill-rule="nonzero" fill-opacity="1" /><path clip-path="url(#clip600)" d="M1877.26 1518.36 L1865.46 1536.81 L1877.26 1536.81 L1877.26 1518.36 M1876.03 1514.29 L1881.91 1514.29 L1881.91 1536.81 L1886.84 1536.81 L1886.84 1540.7 L1881.91 1540.7 L1881.91 1548.85 L1877.26 1548.85 L1877.26 1540.7 L1861.66 1540.7 L1861.66 1536.19 L1876.03 1514.29 Z" fill="#000000" fill-rule="nonzero" fill-opacity="1" /><path clip-path="url(#clip600)" d="M2280.62 1514.29 L2298.98 1514.29 L2298.98 1518.22 L2284.9 1518.22 L2284.9 1526.7 Q2285.92 1526.35 2286.94 1526.19 Q2287.96 1526 2288.98 1526 Q2294.76 1526 2298.14 1529.17 Q2301.52 1532.34 2301.52 1537.76 Q2301.52 1543.34 2298.05 1546.44 Q2294.58 1549.52 2288.26 1549.52 Q2286.08 1549.52 2283.81 1549.15 Q2281.57 1548.78 2279.16 1548.04 L2279.16 1543.34 Q2281.25 1544.47 2283.47 1545.03 Q2285.69 1545.58 2288.17 1545.58 Q2292.17 1545.58 2294.51 1543.48 Q2296.85 1541.37 2296.85 1537.76 Q2296.85 1534.15 2294.51 1532.04 Q2292.17 1529.94 2288.17 1529.94 Q2286.29 1529.94 2284.42 1530.35 Q2282.56 1530.77 2280.62 1531.65 L2280.62 1514.29 Z" fill="#000000" fill-rule="nonzero" fill-opacity="1" /><polyline clip-path="url(#clip602)" style="stroke:#000000; stroke-linecap:round; stroke-linejoin:round; stroke-width:2; stroke-opacity:0.1; fill:none" points="147.478,1445.73 2352.76,1445.73 "/>
<polyline clip-path="url(#clip602)" style="stroke:#000000; stroke-linecap:round; stroke-linejoin:round; stroke-width:2; stroke-opacity:0.1; fill:none" points="147.478,1011.24 2352.76,1011.24 "/>
<polyline clip-path="url(#clip602)" style="stroke:#000000; stroke-linecap:round; stroke-linejoin:round; stroke-width:2; stroke-opacity:0.1; fill:none" points="147.478,576.761 2352.76,576.761 "/>
<polyline clip-path="url(#clip602)" style="stroke:#000000; stroke-linecap:round; stroke-linejoin:round; stroke-width:2; stroke-opacity:0.1; fill:none" points="147.478,142.278 2352.76,142.278 "/>
<polyline clip-path="url(#clip600)" style="stroke:#000000; stroke-linecap:round; stroke-linejoin:round; stroke-width:4; stroke-opacity:1; fill:none" points="147.478,1486.45 147.478,47.2441 "/>
<polyline clip-path="url(#clip600)" style="stroke:#000000; stroke-linecap:round; stroke-linejoin:round; stroke-width:4; stroke-opacity:1; fill:none" points="147.478,1445.73 166.376,1445.73 "/>
<polyline clip-path="url(#clip600)" style="stroke:#000000; stroke-linecap:round; stroke-linejoin:round; stroke-width:4; stroke-opacity:1; fill:none" points="147.478,1011.24 166.376,1011.24 "/>
<polyline clip-path="url(#clip600)" style="stroke:#000000; stroke-linecap:round; stroke-linejoin:round; stroke-width:4; stroke-opacity:1; fill:none" points="147.478,576.761 166.376,576.761 "/>
<polyline clip-path="url(#clip600)" style="stroke:#000000; stroke-linecap:round; stroke-linejoin:round; stroke-width:4; stroke-opacity:1; fill:none" points="147.478,142.278 166.376,142.278 "/>
<path clip-path="url(#clip600)" d="M51.3625 1446.18 L81.0383 1446.18 L81.0383 1450.11 L51.3625 1450.11 L51.3625 1446.18 Z" fill="#000000" fill-rule="nonzero" fill-opacity="1" /><path clip-path="url(#clip600)" d="M95.1586 1459.07 L111.478 1459.07 L111.478 1463.01 L89.5336 1463.01 L89.5336 1459.07 Q92.1956 1456.32 96.7789 1451.69 Q101.385 1447.03 102.566 1445.69 Q104.811 1443.17 105.691 1441.43 Q106.594 1439.67 106.594 1437.98 Q106.594 1435.23 104.649 1433.49 Q102.728 1431.76 99.6261 1431.76 Q97.4271 1431.76 94.9734 1432.52 Q92.5428 1433.28 89.7651 1434.84 L89.7651 1430.11 Q92.5891 1428.98 95.0428 1428.4 Q97.4965 1427.82 99.5335 1427.82 Q104.904 1427.82 108.098 1430.51 Q111.293 1433.19 111.293 1437.68 Q111.293 1439.81 110.483 1441.73 Q109.696 1443.63 107.589 1446.22 Q107.01 1446.9 103.909 1450.11 Q100.807 1453.31 95.1586 1459.07 Z" fill="#000000" fill-rule="nonzero" fill-opacity="1" /><path clip-path="url(#clip600)" d="M50.9921 1011.69 L80.6679 1011.69 L80.6679 1015.63 L50.9921 1015.63 L50.9921 1011.69 Z" fill="#000000" fill-rule="nonzero" fill-opacity="1" /><path clip-path="url(#clip600)" d="M91.5706 1024.59 L99.2095 1024.59 L99.2095 998.223 L90.8993 999.889 L90.8993 995.63 L99.1632 993.964 L103.839 993.964 L103.839 1024.59 L111.478 1024.59 L111.478 1028.52 L91.5706 1028.52 L91.5706 1024.59 Z" fill="#000000" fill-rule="nonzero" fill-opacity="1" /><path clip-path="url(#clip600)" d="M99.5335 562.56 Q95.9224 562.56 94.0937 566.124 Q92.2882 569.666 92.2882 576.796 Q92.2882 583.902 94.0937 587.467 Q95.9224 591.009 99.5335 591.009 Q103.168 591.009 104.973 587.467 Q106.802 583.902 106.802 576.796 Q106.802 569.666 104.973 566.124 Q103.168 562.56 99.5335 562.56 M99.5335 558.856 Q105.344 558.856 108.399 563.462 Q111.478 568.046 111.478 576.796 Q111.478 585.522 108.399 590.129 Q105.344 594.712 99.5335 594.712 Q93.7234 594.712 90.6447 590.129 Q87.5892 585.522 87.5892 576.796 Q87.5892 568.046 90.6447 563.462 Q93.7234 558.856 99.5335 558.856 Z" fill="#000000" fill-rule="nonzero" fill-opacity="1" /><path clip-path="url(#clip600)" d="M91.5706 155.623 L99.2095 155.623 L99.2095 129.258 L90.8993 130.924 L90.8993 126.665 L99.1632 124.998 L103.839 124.998 L103.839 155.623 L111.478 155.623 L111.478 159.558 L91.5706 159.558 L91.5706 155.623 Z" fill="#000000" fill-rule="nonzero" fill-opacity="1" /><polyline clip-path="url(#clip602)" style="stroke:#009af9; stroke-linecap:round; stroke-linejoin:round; stroke-width:4; stroke-opacity:1; fill:none" points="209.891,142.278 213.278,138.8 216.664,135.437 220.05,132.19 223.436,129.058 239.092,116.085 254.747,105.59 270.402,97.564 286.057,91.9825 301.712,88.8091 317.368,87.9937 333.023,89.4736 348.678,93.1737 367.494,100.435 386.311,110.605 405.127,123.491 423.943,138.877 439.852,153.665 455.761,169.927 471.67,187.506 487.579,206.239 522.142,250.108 556.705,296.856 588.569,340.943 620.434,384.529 637.514,407.211 654.595,429.157 671.676,450.173 688.757,470.075 708.547,491.516 728.337,510.984 748.127,528.255 767.917,543.131 785.503,554.203 803.09,563.151 820.677,569.893 838.264,574.37 853.686,576.4 869.108,576.642 884.53,575.095 899.953,571.771 916.767,566.147 933.581,558.483 950.395,548.841 967.21,537.3 984.124,523.872 1001.04,508.73 1017.95,492.002 1034.87,473.828 1053.57,452.237 1072.27,429.29 1090.97,405.227 1109.67,380.303 1145.26,331.45 1180.84,282.35 1199.34,257.379 1217.84,233.15 1236.35,209.942 1254.85,188.023 1270.42,170.768 1285.99,154.766 1301.57,140.166 1317.14,127.108 1336.16,113.449 1355.17,102.512 1374.18,94.5014 1393.2,89.6006 1410.62,87.9763 1428.03,89.1984 1445.45,93.3512 1462.87,100.5 1478.96,109.801 1495.04,121.715 1511.13,136.245 1527.22,153.38 1543.51,173.365 1559.81,195.951 1576.1,221.076 1592.4,248.665 1610.66,282.397 1628.92,318.956 1647.19,358.166 1665.45,399.832 1682,439.527 1698.55,480.886 1715.1,523.721 1731.64,567.836 1769.54,672.542 1807.43,780.223 1842.52,880.159 1877.61,977.999 1894.9,1024.77 1912.2,1070.22 1929.5,1114.09 1946.79,1156.13 1963.58,1194.97 1980.38,1231.65 1997.17,1265.97 2013.96,1297.74 2031.18,1327.48 2048.39,1354.19 2057,1366.36 2065.61,1377.71 2074.21,1388.24 2082.82,1397.92 2092.25,1407.53 2101.68,1416.1 2111.11,1423.6 2120.54,1430.03 2129.97,1435.36 2139.4,1439.6 2148.83,1442.74 2158.27,1444.76 2171.96,1445.72 2185.66,1444.32 2199.36,1440.57 2213.06,1434.48 2226.76,1426.09 2240.46,1415.41 2254.16,1402.49 2267.86,1387.37 2273.48,1380.55 2279.1,1373.37 2284.72,1365.84 2290.34,1357.96 "/>
<circle clip-path="url(#clip602)" cx="209.891" cy="142.278" r="14.4" fill="#e26f46" fill-rule="evenodd" fill-opacity="1" stroke="#000000" stroke-opacity="1" stroke-width="3.2"/>
<circle clip-path="url(#clip602)" cx="556.633" cy="296.757" r="14.4" fill="#e26f46" fill-rule="evenodd" fill-opacity="1" stroke="#000000" stroke-opacity="1" stroke-width="3.2"/>
<circle clip-path="url(#clip602)" cx="903.375" cy="570.794" r="14.4" fill="#e26f46" fill-rule="evenodd" fill-opacity="1" stroke="#000000" stroke-opacity="1" stroke-width="3.2"/>
<circle clip-path="url(#clip602)" cx="1250.12" cy="193.489" r="14.4" fill="#e26f46" fill-rule="evenodd" fill-opacity="1" stroke="#000000" stroke-opacity="1" stroke-width="3.2"/>
<circle clip-path="url(#clip602)" cx="1596.86" cy="256.634" r="14.4" fill="#e26f46" fill-rule="evenodd" fill-opacity="1" stroke="#000000" stroke-opacity="1" stroke-width="3.2"/>
<circle clip-path="url(#clip602)" cx="1943.6" cy="1148.52" r="14.4" fill="#e26f46" fill-rule="evenodd" fill-opacity="1" stroke="#000000" stroke-opacity="1" stroke-width="3.2"/>
<circle clip-path="url(#clip602)" cx="2290.34" cy="1357.96" r="14.4" fill="#e26f46" fill-rule="evenodd" fill-opacity="1" stroke="#000000" stroke-opacity="1" stroke-width="3.2"/>
<polyline clip-path="url(#clip602)" style="stroke:#3da44d; stroke-linecap:round; stroke-linejoin:round; stroke-width:4; stroke-opacity:1; fill:none" points="209.891,142.278 213.278,138.81 216.664,135.476 220.05,132.275 223.436,129.207 239.092,116.709 254.747,106.906 270.402,99.6931 286.057,94.9621 301.712,92.6062 317.368,92.5187 333.023,94.5924 348.678,98.7205 367.494,106.25 386.311,116.406 405.127,129.005 423.943,143.859 439.852,158.041 455.761,173.591 471.67,190.397 487.579,208.346 522.142,250.743 556.705,296.856 588.569,340.339 620.434,382.515 637.514,404.304 654.595,425.359 671.676,445.557 688.757,464.772 708.547,485.641 728.337,504.828 748.127,522.141 767.917,537.384 785.503,549.037 803.09,558.766 820.677,566.435 838.264,571.907 853.686,574.791 869.108,575.789 884.53,574.809 899.953,571.76 916.767,566.04 933.581,558.002 950.395,547.817 967.21,535.655 984.124,521.597 1001.04,505.881 1017.95,488.678 1034.87,470.162 1072.27,425.409 1109.67,376.932 1145.26,329.047 1180.84,281.076 1199.34,256.634 1217.84,232.827 1236.35,209.879 1254.85,188.043 1270.42,171.108 1285.99,155.739 1301.57,141.991 1317.14,129.914 1336.16,117.512 1355.17,107.774 1374.18,100.794 1393.2,96.6688 1410.62,95.4746 1428.03,96.8275 1445.45,100.8 1462.87,107.466 1478.96,116.076 1495.04,127.104 1511.13,140.604 1527.22,156.636 1543.51,175.515 1559.81,197.11 1576.1,221.48 1592.4,248.685 1610.66,282.485 1628.92,319.365 1647.19,359.029 1665.45,401.19 1682,441.312 1698.55,483.036 1715.1,526.149 1731.64,570.436 1769.54,675.128 1807.43,782.304 1842.52,881.527 1877.61,978.653 1894.9,1025.14 1912.2,1070.37 1929.5,1114.12 1946.79,1156.12 1963.58,1194.58 1980.38,1230.47 1997.17,1263.71 2013.96,1294.26 2031.18,1322.71 2048.39,1348.2 2065.61,1370.67 2082.82,1390.05 2092.25,1399.34 2101.68,1407.67 2111.11,1415.04 2120.54,1421.43 2129.97,1426.84 2139.4,1431.25 2148.83,1434.66 2158.27,1437.05 2171.96,1438.69 2185.66,1438.13 2199.36,1435.34 2213.06,1430.29 2226.76,1422.95 2240.46,1413.29 2254.16,1401.27 2267.86,1386.86 2273.48,1380.25 2279.1,1373.23 2284.72,1365.8 2290.34,1357.96 "/>
<path clip-path="url(#clip600)" d="M220.987 1438.47 L921.999 1438.47 L921.999 1231.11 L220.987 1231.11  Z" fill="#ffffff" fill-rule="evenodd" fill-opacity="1"/>
<polyline clip-path="url(#clip600)" style="stroke:#000000; stroke-linecap:round; stroke-linejoin:round; stroke-width:4; stroke-opacity:1; fill:none" points="220.987,1438.47 921.999,1438.47 921.999,1231.11 220.987,1231.11 220.987,1438.47 "/>
<polyline clip-path="url(#clip600)" style="stroke:#009af9; stroke-linecap:round; stroke-linejoin:round; stroke-width:4; stroke-opacity:1; fill:none" points="245.49,1282.95 392.509,1282.95 "/>
<path clip-path="url(#clip600)" d="M433.516 1258.81 L433.516 1262.35 L429.442 1262.35 Q427.151 1262.35 426.248 1263.28 Q425.368 1264.2 425.368 1266.61 L425.368 1268.9 L432.382 1268.9 L432.382 1272.21 L425.368 1272.21 L425.368 1294.83 L421.086 1294.83 L421.086 1272.21 L417.012 1272.21 L417.012 1268.9 L421.086 1268.9 L421.086 1267.1 Q421.086 1262.77 423.1 1260.8 Q425.114 1258.81 429.489 1258.81 L433.516 1258.81 Z" fill="#000000" fill-rule="nonzero" fill-opacity="1" /><path clip-path="url(#clip600)" d="M436.641 1284.6 L436.641 1268.9 L440.901 1268.9 L440.901 1284.44 Q440.901 1288.12 442.336 1289.97 Q443.771 1291.8 446.641 1291.8 Q450.09 1291.8 452.081 1289.6 Q454.095 1287.4 454.095 1283.6 L454.095 1268.9 L458.354 1268.9 L458.354 1294.83 L454.095 1294.83 L454.095 1290.85 Q452.544 1293.21 450.484 1294.37 Q448.447 1295.5 445.739 1295.5 Q441.271 1295.5 438.956 1292.72 Q436.641 1289.95 436.641 1284.6 M447.359 1268.28 L447.359 1268.28 Z" fill="#000000" fill-rule="nonzero" fill-opacity="1" /><path clip-path="url(#clip600)" d="M488.678 1279.18 L488.678 1294.83 L484.419 1294.83 L484.419 1279.32 Q484.419 1275.64 482.984 1273.81 Q481.549 1271.98 478.678 1271.98 Q475.229 1271.98 473.238 1274.18 Q471.248 1276.38 471.248 1280.18 L471.248 1294.83 L466.965 1294.83 L466.965 1268.9 L471.248 1268.9 L471.248 1272.93 Q472.775 1270.59 474.836 1269.44 Q476.919 1268.28 479.627 1268.28 Q484.095 1268.28 486.387 1271.06 Q488.678 1273.81 488.678 1279.18 Z" fill="#000000" fill-rule="nonzero" fill-opacity="1" /><path clip-path="url(#clip600)" d="M497.011 1258.81 L501.294 1258.81 L501.294 1280.08 L514.002 1268.9 L519.442 1268.9 L505.692 1281.03 L520.021 1294.83 L514.465 1294.83 L501.294 1282.17 L501.294 1294.83 L497.011 1294.83 L497.011 1258.81 Z" fill="#000000" fill-rule="nonzero" fill-opacity="1" /><path clip-path="url(#clip600)" d="M543.284 1269.9 L543.284 1273.88 Q541.479 1272.89 539.65 1272.4 Q537.845 1271.89 535.993 1271.89 Q531.849 1271.89 529.558 1274.53 Q527.266 1277.14 527.266 1281.89 Q527.266 1286.64 529.558 1289.27 Q531.849 1291.89 535.993 1291.89 Q537.845 1291.89 539.65 1291.4 Q541.479 1290.89 543.284 1289.9 L543.284 1293.83 Q541.502 1294.67 539.581 1295.08 Q537.683 1295.5 535.53 1295.5 Q529.673 1295.5 526.224 1291.82 Q522.775 1288.14 522.775 1281.89 Q522.775 1275.55 526.247 1271.91 Q529.743 1268.28 535.808 1268.28 Q537.775 1268.28 539.65 1268.7 Q541.525 1269.09 543.284 1269.9 Z" fill="#000000" fill-rule="nonzero" fill-opacity="1" /><path clip-path="url(#clip600)" d="M550.692 1268.9 L554.951 1268.9 L554.951 1294.83 L550.692 1294.83 L550.692 1268.9 M550.692 1258.81 L554.951 1258.81 L554.951 1264.2 L550.692 1264.2 L550.692 1258.81 Z" fill="#000000" fill-rule="nonzero" fill-opacity="1" /><path clip-path="url(#clip600)" d="M563.863 1268.9 L568.122 1268.9 L568.122 1295.29 Q568.122 1300.25 566.224 1302.47 Q564.349 1304.69 560.159 1304.69 L558.539 1304.69 L558.539 1301.08 L559.673 1301.08 Q562.104 1301.08 562.983 1299.95 Q563.863 1298.83 563.863 1295.29 L563.863 1268.9 M563.863 1258.81 L568.122 1258.81 L568.122 1264.2 L563.863 1264.2 L563.863 1258.81 Z" fill="#000000" fill-rule="nonzero" fill-opacity="1" /><path clip-path="url(#clip600)" d="M588.817 1281.8 Q583.655 1281.8 581.664 1282.98 Q579.673 1284.16 579.673 1287.01 Q579.673 1289.27 581.155 1290.62 Q582.659 1291.94 585.229 1291.94 Q588.77 1291.94 590.9 1289.44 Q593.053 1286.91 593.053 1282.75 L593.053 1281.8 L588.817 1281.8 M597.312 1280.04 L597.312 1294.83 L593.053 1294.83 L593.053 1290.89 Q591.594 1293.26 589.418 1294.39 Q587.242 1295.5 584.094 1295.5 Q580.113 1295.5 577.752 1293.28 Q575.414 1291.03 575.414 1287.28 Q575.414 1282.91 578.33 1280.69 Q581.27 1278.46 587.08 1278.46 L593.053 1278.46 L593.053 1278.05 Q593.053 1275.11 591.108 1273.51 Q589.187 1271.89 585.692 1271.89 Q583.469 1271.89 581.363 1272.42 Q579.256 1272.95 577.312 1274.02 L577.312 1270.08 Q579.65 1269.18 581.849 1268.74 Q584.048 1268.28 586.131 1268.28 Q591.756 1268.28 594.534 1271.2 Q597.312 1274.11 597.312 1280.04 Z" fill="#000000" fill-rule="nonzero" fill-opacity="1" /><path clip-path="url(#clip600)" d="M640.601 1264.31 Q640.601 1265.6 639.781 1266.39 Q638.985 1267.19 637.978 1267.19 Q637.252 1267.19 636.713 1266.75 Q636.198 1266.3 636.198 1265.53 Q636.198 1264.73 636.807 1263.89 Q637.416 1263.05 638.798 1262.93 Q637.884 1262.06 636.432 1262.06 Q635.706 1262.06 635.097 1262.53 Q634.511 1262.97 634.183 1263.7 Q633.832 1264.45 633.036 1268.69 Q632.778 1270.07 632.544 1271.41 Q632.31 1272.74 632.028 1274.15 L636.01 1274.15 Q636.526 1274.15 636.736 1274.17 Q636.947 1274.19 637.111 1274.31 Q637.298 1274.43 637.298 1274.69 Q637.298 1275.34 636.994 1275.51 Q636.713 1275.65 635.87 1275.65 L631.747 1275.65 L628.866 1290.85 Q628.796 1291.29 628.492 1292.7 Q628.211 1294.08 627.531 1296.35 Q626.852 1298.65 626.173 1300.01 Q625.798 1300.78 625.306 1301.5 Q624.838 1302.25 624.159 1303 Q623.479 1303.75 622.589 1304.2 Q621.699 1304.67 620.762 1304.67 Q619.17 1304.67 617.928 1303.78 Q616.687 1302.89 616.687 1301.36 Q616.687 1300.08 617.483 1299.28 Q618.303 1298.48 619.31 1298.48 Q620.036 1298.48 620.551 1298.93 Q621.09 1299.37 621.09 1300.15 Q621.09 1300.47 620.973 1300.85 Q620.856 1301.22 620.598 1301.65 Q620.341 1302.09 619.779 1302.39 Q619.216 1302.7 618.443 1302.75 Q619.357 1303.61 620.762 1303.61 Q621.207 1303.61 621.605 1303.43 Q622.004 1303.26 622.332 1302.84 Q622.683 1302.42 622.941 1302 Q623.198 1301.6 623.456 1300.83 Q623.713 1300.08 623.877 1299.51 Q624.041 1298.95 624.252 1297.94 Q624.486 1296.94 624.604 1296.33 Q624.721 1295.74 624.931 1294.6 L628.515 1275.65 L625.353 1275.65 Q624.791 1275.65 624.557 1275.62 Q624.346 1275.6 624.182 1275.48 Q624.018 1275.34 624.018 1275.06 Q624.018 1274.62 624.205 1274.43 Q624.416 1274.22 624.65 1274.19 Q624.885 1274.15 625.447 1274.15 L628.773 1274.15 Q629.897 1268.22 630.342 1266.63 Q630.857 1264.94 631.654 1263.77 Q632.45 1262.58 633.34 1262.01 Q634.23 1261.45 634.956 1261.24 Q635.706 1261.01 636.432 1261.01 Q638.071 1261.01 639.336 1261.9 Q640.601 1262.76 640.601 1264.31 Z" fill="#000000" fill-rule="nonzero" fill-opacity="1" /><path clip-path="url(#clip600)" d="M647.054 1282.84 Q647.054 1274.73 650.075 1268.2 Q651.363 1265.46 653.167 1263.16 Q654.97 1260.87 656.165 1259.86 Q657.36 1258.85 657.687 1258.85 Q658.156 1258.85 658.179 1259.32 Q658.179 1259.56 657.547 1260.14 Q649.818 1268.01 649.841 1282.84 Q649.841 1297.71 657.36 1305.28 Q658.179 1306.1 658.179 1306.35 Q658.179 1306.82 657.687 1306.82 Q657.36 1306.82 656.212 1305.86 Q655.064 1304.9 653.284 1302.7 Q651.504 1300.5 650.216 1297.8 Q647.054 1291.27 647.054 1282.84 Z" fill="#000000" fill-rule="nonzero" fill-opacity="1" /><path clip-path="url(#clip600)" d="M685.712 1276.79 Q685.712 1278.11 684.892 1278.86 Q684.073 1279.58 683.136 1279.58 Q682.246 1279.58 681.777 1279.07 Q681.309 1278.55 681.309 1277.89 Q681.309 1277 681.965 1276.23 Q682.62 1275.46 683.604 1275.3 Q682.644 1274.69 681.215 1274.69 Q680.278 1274.69 679.458 1275.18 Q678.662 1275.67 678.17 1276.3 Q677.702 1276.93 677.28 1277.85 Q676.882 1278.74 676.718 1279.28 Q676.577 1279.79 676.46 1280.35 L674.821 1286.91 Q674.024 1290.03 674.024 1291.13 Q674.024 1292.49 674.68 1293.4 Q675.336 1294.29 676.648 1294.29 Q677.163 1294.29 677.748 1294.15 Q678.334 1293.99 679.084 1293.56 Q679.856 1293.12 680.536 1292.46 Q681.238 1291.78 681.918 1290.64 Q682.597 1289.49 683.042 1288.01 Q683.182 1287.5 683.651 1287.5 Q684.236 1287.5 684.236 1287.97 Q684.236 1288.36 683.909 1289.21 Q683.604 1290.03 682.925 1291.11 Q682.269 1292.16 681.402 1293.12 Q680.536 1294.06 679.248 1294.71 Q677.959 1295.37 676.554 1295.37 Q674.54 1295.37 673.205 1294.29 Q671.869 1293.21 671.378 1291.71 Q671.26 1291.93 671.097 1292.21 Q670.933 1292.49 670.441 1293.12 Q669.972 1293.73 669.434 1294.2 Q668.895 1294.64 668.052 1294.99 Q667.232 1295.37 666.342 1295.37 Q665.217 1295.37 664.21 1295.04 Q663.227 1294.71 662.524 1293.96 Q661.821 1293.21 661.821 1292.18 Q661.821 1291.03 662.594 1290.24 Q663.391 1289.42 664.468 1289.42 Q665.147 1289.42 665.686 1289.82 Q666.248 1290.22 666.248 1291.08 Q666.248 1292.04 665.592 1292.77 Q664.936 1293.49 664 1293.68 Q664.96 1294.29 666.389 1294.29 Q667.934 1294.29 669.152 1292.93 Q670.37 1291.57 670.956 1289.3 Q672.408 1283.84 672.97 1281.41 Q673.532 1278.95 673.532 1277.89 Q673.532 1276.91 673.275 1276.23 Q673.017 1275.55 672.572 1275.25 Q672.151 1274.92 671.752 1274.8 Q671.378 1274.69 670.956 1274.69 Q670.253 1274.69 669.457 1274.97 Q668.684 1275.25 667.747 1275.9 Q666.834 1276.54 665.967 1277.85 Q665.1 1279.16 664.515 1280.96 Q664.398 1281.5 663.882 1281.5 Q663.32 1281.48 663.32 1281.01 Q663.32 1280.61 663.625 1279.79 Q663.953 1278.95 664.608 1277.89 Q665.288 1276.84 666.154 1275.9 Q667.044 1274.94 668.333 1274.29 Q669.644 1273.63 671.05 1273.63 Q671.682 1273.63 672.291 1273.77 Q672.923 1273.89 673.673 1274.24 Q674.446 1274.59 675.125 1275.37 Q675.804 1276.14 676.226 1277.26 Q676.507 1276.72 676.882 1276.21 Q677.28 1275.69 677.889 1275.06 Q678.521 1274.41 679.388 1274.03 Q680.278 1273.63 681.262 1273.63 Q682.222 1273.63 683.159 1273.89 Q684.096 1274.12 684.892 1274.9 Q685.712 1275.65 685.712 1276.79 Z" fill="#000000" fill-rule="nonzero" fill-opacity="1" /><path clip-path="url(#clip600)" d="M690.325 1306.35 Q690.325 1306.12 690.934 1305.53 Q698.663 1297.66 698.663 1282.84 Q698.663 1267.96 691.238 1260.45 Q690.325 1259.58 690.325 1259.32 Q690.325 1258.85 690.793 1258.85 Q691.121 1258.85 692.269 1259.81 Q693.44 1260.77 695.197 1262.97 Q696.977 1265.18 698.288 1267.87 Q701.45 1274.41 701.45 1282.84 Q701.45 1290.94 698.429 1297.48 Q697.141 1300.22 695.337 1302.51 Q693.534 1304.81 692.339 1305.81 Q691.144 1306.82 690.793 1306.82 Q690.325 1306.82 690.325 1306.35 Z" fill="#000000" fill-rule="nonzero" fill-opacity="1" /><circle clip-path="url(#clip600)" cx="319" cy="1334.79" r="20.48" fill="#e26f46" fill-rule="evenodd" fill-opacity="1" stroke="#000000" stroke-opacity="1" stroke-width="4.55111"/>
<path clip-path="url(#clip600)" d="M417.012 1326.15 L421.271 1326.15 L421.271 1352.07 L417.012 1352.07 L417.012 1326.15 M417.012 1316.06 L421.271 1316.06 L421.271 1321.45 L417.012 1321.45 L417.012 1316.06 Z" fill="#000000" fill-rule="nonzero" fill-opacity="1" /><path clip-path="url(#clip600)" d="M451.734 1336.43 L451.734 1352.07 L447.475 1352.07 L447.475 1336.57 Q447.475 1332.88 446.04 1331.06 Q444.604 1329.23 441.734 1329.23 Q438.285 1329.23 436.294 1331.43 Q434.303 1333.63 434.303 1337.42 L434.303 1352.07 L430.021 1352.07 L430.021 1326.15 L434.303 1326.15 L434.303 1330.18 Q435.831 1327.84 437.891 1326.68 Q439.975 1325.52 442.683 1325.52 Q447.151 1325.52 449.442 1328.3 Q451.734 1331.06 451.734 1336.43 Z" fill="#000000" fill-rule="nonzero" fill-opacity="1" /><path clip-path="url(#clip600)" d="M464.442 1318.79 L464.442 1326.15 L473.215 1326.15 L473.215 1329.46 L464.442 1329.46 L464.442 1343.53 Q464.442 1346.7 465.299 1347.61 Q466.178 1348.51 468.84 1348.51 L473.215 1348.51 L473.215 1352.07 L468.84 1352.07 Q463.91 1352.07 462.035 1350.25 Q460.16 1348.39 460.16 1343.53 L460.16 1329.46 L457.035 1329.46 L457.035 1326.15 L460.16 1326.15 L460.16 1318.79 L464.442 1318.79 Z" fill="#000000" fill-rule="nonzero" fill-opacity="1" /><path clip-path="url(#clip600)" d="M500.993 1338.05 L500.993 1340.13 L481.41 1340.13 Q481.687 1344.53 484.049 1346.84 Q486.433 1349.13 490.669 1349.13 Q493.123 1349.13 495.414 1348.53 Q497.729 1347.93 499.998 1346.73 L499.998 1350.75 Q497.706 1351.73 495.299 1352.24 Q492.891 1352.75 490.414 1352.75 Q484.211 1352.75 480.576 1349.13 Q476.965 1345.52 476.965 1339.37 Q476.965 1333 480.391 1329.27 Q483.84 1325.52 489.674 1325.52 Q494.905 1325.52 497.937 1328.9 Q500.993 1332.26 500.993 1338.05 M496.734 1336.8 Q496.687 1333.3 494.766 1331.22 Q492.868 1329.13 489.72 1329.13 Q486.155 1329.13 484.002 1331.15 Q481.873 1333.16 481.549 1336.82 L496.734 1336.8 Z" fill="#000000" fill-rule="nonzero" fill-opacity="1" /><path clip-path="url(#clip600)" d="M523.007 1330.13 Q522.289 1329.71 521.433 1329.53 Q520.599 1329.32 519.581 1329.32 Q515.97 1329.32 514.025 1331.68 Q512.104 1334.02 512.104 1338.42 L512.104 1352.07 L507.822 1352.07 L507.822 1326.15 L512.104 1326.15 L512.104 1330.18 Q513.447 1327.82 515.599 1326.68 Q517.752 1325.52 520.831 1325.52 Q521.271 1325.52 521.803 1325.59 Q522.335 1325.64 522.984 1325.76 L523.007 1330.13 Z" fill="#000000" fill-rule="nonzero" fill-opacity="1" /><path clip-path="url(#clip600)" d="M531.595 1348.19 L531.595 1361.94 L527.312 1361.94 L527.312 1326.15 L531.595 1326.15 L531.595 1330.08 Q532.937 1327.77 534.974 1326.66 Q537.034 1325.52 539.882 1325.52 Q544.604 1325.52 547.544 1329.27 Q550.507 1333.02 550.507 1339.13 Q550.507 1345.25 547.544 1349 Q544.604 1352.75 539.882 1352.75 Q537.034 1352.75 534.974 1351.63 Q532.937 1350.5 531.595 1348.19 M546.085 1339.13 Q546.085 1334.44 544.141 1331.77 Q542.22 1329.09 538.84 1329.09 Q535.46 1329.09 533.516 1331.77 Q531.595 1334.44 531.595 1339.13 Q531.595 1343.83 533.516 1346.52 Q535.46 1349.18 538.84 1349.18 Q542.22 1349.18 544.141 1346.52 Q546.085 1343.83 546.085 1339.13 Z" fill="#000000" fill-rule="nonzero" fill-opacity="1" /><path clip-path="url(#clip600)" d="M567.613 1329.13 Q564.187 1329.13 562.196 1331.82 Q560.206 1334.48 560.206 1339.13 Q560.206 1343.79 562.173 1346.47 Q564.164 1349.13 567.613 1349.13 Q571.016 1349.13 573.006 1346.45 Q574.997 1343.76 574.997 1339.13 Q574.997 1334.53 573.006 1331.84 Q571.016 1329.13 567.613 1329.13 M567.613 1325.52 Q573.168 1325.52 576.34 1329.13 Q579.511 1332.75 579.511 1339.13 Q579.511 1345.5 576.34 1349.13 Q573.168 1352.75 567.613 1352.75 Q562.034 1352.75 558.863 1349.13 Q555.715 1345.5 555.715 1339.13 Q555.715 1332.75 558.863 1329.13 Q562.034 1325.52 567.613 1325.52 Z" fill="#000000" fill-rule="nonzero" fill-opacity="1" /><path clip-path="url(#clip600)" d="M586.571 1316.06 L590.83 1316.06 L590.83 1352.07 L586.571 1352.07 L586.571 1316.06 Z" fill="#000000" fill-rule="nonzero" fill-opacity="1" /><path clip-path="url(#clip600)" d="M611.525 1339.04 Q606.363 1339.04 604.372 1340.22 Q602.381 1341.4 602.381 1344.25 Q602.381 1346.52 603.863 1347.86 Q605.367 1349.18 607.937 1349.18 Q611.478 1349.18 613.608 1346.68 Q615.761 1344.16 615.761 1339.99 L615.761 1339.04 L611.525 1339.04 M620.02 1337.28 L620.02 1352.07 L615.761 1352.07 L615.761 1348.14 Q614.302 1350.5 612.127 1351.63 Q609.951 1352.75 606.803 1352.75 Q602.821 1352.75 600.46 1350.52 Q598.122 1348.28 598.122 1344.53 Q598.122 1340.15 601.039 1337.93 Q603.978 1335.71 609.789 1335.71 L615.761 1335.71 L615.761 1335.29 Q615.761 1332.35 613.816 1330.76 Q611.895 1329.13 608.4 1329.13 Q606.178 1329.13 604.071 1329.67 Q601.965 1330.2 600.02 1331.26 L600.02 1327.33 Q602.358 1326.43 604.557 1325.99 Q606.756 1325.52 608.84 1325.52 Q614.465 1325.52 617.242 1328.44 Q620.02 1331.36 620.02 1337.28 Z" fill="#000000" fill-rule="nonzero" fill-opacity="1" /><path clip-path="url(#clip600)" d="M647.45 1327.14 L647.45 1331.13 Q645.645 1330.13 643.816 1329.64 Q642.011 1329.13 640.159 1329.13 Q636.015 1329.13 633.724 1331.77 Q631.432 1334.39 631.432 1339.13 Q631.432 1343.88 633.724 1346.52 Q636.015 1349.13 640.159 1349.13 Q642.011 1349.13 643.816 1348.65 Q645.645 1348.14 647.45 1347.14 L647.45 1351.08 Q645.668 1351.91 643.747 1352.33 Q641.849 1352.75 639.696 1352.75 Q633.839 1352.75 630.39 1349.07 Q626.941 1345.38 626.941 1339.13 Q626.941 1332.79 630.414 1329.16 Q633.909 1325.52 639.974 1325.52 Q641.941 1325.52 643.816 1325.94 Q645.691 1326.33 647.45 1327.14 Z" fill="#000000" fill-rule="nonzero" fill-opacity="1" /><path clip-path="url(#clip600)" d="M654.858 1326.15 L659.117 1326.15 L659.117 1352.07 L654.858 1352.07 L654.858 1326.15 M654.858 1316.06 L659.117 1316.06 L659.117 1321.45 L654.858 1321.45 L654.858 1316.06 Z" fill="#000000" fill-rule="nonzero" fill-opacity="1" /><path clip-path="url(#clip600)" d="M668.029 1326.15 L672.288 1326.15 L672.288 1352.54 Q672.288 1357.49 670.39 1359.71 Q668.515 1361.94 664.325 1361.94 L662.705 1361.94 L662.705 1358.32 L663.839 1358.32 Q666.27 1358.32 667.149 1357.19 Q668.029 1356.08 668.029 1352.54 L668.029 1326.15 M668.029 1316.06 L672.288 1316.06 L672.288 1321.45 L668.029 1321.45 L668.029 1316.06 Z" fill="#000000" fill-rule="nonzero" fill-opacity="1" /><path clip-path="url(#clip600)" d="M697.728 1326.91 L697.728 1330.94 Q695.922 1330.01 693.978 1329.55 Q692.034 1329.09 689.95 1329.09 Q686.779 1329.09 685.182 1330.06 Q683.608 1331.03 683.608 1332.98 Q683.608 1334.46 684.742 1335.32 Q685.876 1336.15 689.302 1336.91 L690.76 1337.24 Q695.297 1338.21 697.196 1339.99 Q699.117 1341.75 699.117 1344.92 Q699.117 1348.53 696.247 1350.64 Q693.399 1352.75 688.399 1352.75 Q686.316 1352.75 684.047 1352.33 Q681.802 1351.94 679.302 1351.13 L679.302 1346.73 Q681.663 1347.95 683.955 1348.58 Q686.247 1349.18 688.492 1349.18 Q691.501 1349.18 693.122 1348.16 Q694.742 1347.12 694.742 1345.25 Q694.742 1343.51 693.561 1342.58 Q692.404 1341.66 688.446 1340.8 L686.964 1340.45 Q683.006 1339.62 681.247 1337.91 Q679.487 1336.17 679.487 1333.16 Q679.487 1329.51 682.08 1327.51 Q684.672 1325.52 689.441 1325.52 Q691.802 1325.52 693.885 1325.87 Q695.969 1326.22 697.728 1326.91 Z" fill="#000000" fill-rule="nonzero" fill-opacity="1" /><path clip-path="url(#clip600)" d="M705.737 1316.06 L710.02 1316.06 L710.02 1337.33 L722.728 1326.15 L728.168 1326.15 L714.418 1338.28 L728.746 1352.07 L723.191 1352.07 L710.02 1339.41 L710.02 1352.07 L705.737 1352.07 L705.737 1316.06 Z" fill="#000000" fill-rule="nonzero" fill-opacity="1" /><path clip-path="url(#clip600)" d="M753.839 1338.05 L753.839 1340.13 L734.256 1340.13 Q734.533 1344.53 736.894 1346.84 Q739.279 1349.13 743.515 1349.13 Q745.968 1349.13 748.26 1348.53 Q750.575 1347.93 752.843 1346.73 L752.843 1350.75 Q750.552 1351.73 748.144 1352.24 Q745.737 1352.75 743.26 1352.75 Q737.056 1352.75 733.422 1349.13 Q729.811 1345.52 729.811 1339.37 Q729.811 1333 733.237 1329.27 Q736.686 1325.52 742.519 1325.52 Q747.751 1325.52 750.783 1328.9 Q753.839 1332.26 753.839 1338.05 M749.58 1336.8 Q749.533 1333.3 747.612 1331.22 Q745.714 1329.13 742.566 1329.13 Q739.001 1329.13 736.848 1331.15 Q734.719 1333.16 734.394 1336.82 L749.58 1336.8 Z" fill="#000000" fill-rule="nonzero" fill-opacity="1" /><path clip-path="url(#clip600)" d="M780.112 1318.79 L780.112 1326.15 L788.885 1326.15 L788.885 1329.46 L780.112 1329.46 L780.112 1343.53 Q780.112 1346.7 780.968 1347.61 Q781.848 1348.51 784.51 1348.51 L788.885 1348.51 L788.885 1352.07 L784.51 1352.07 Q779.579 1352.07 777.704 1350.25 Q775.829 1348.39 775.829 1343.53 L775.829 1329.46 L772.704 1329.46 L772.704 1326.15 L775.829 1326.15 L775.829 1318.79 L780.112 1318.79 Z" fill="#000000" fill-rule="nonzero" fill-opacity="1" /><path clip-path="url(#clip600)" d="M804.533 1329.13 Q801.107 1329.13 799.116 1331.82 Q797.126 1334.48 797.126 1339.13 Q797.126 1343.79 799.093 1346.47 Q801.084 1349.13 804.533 1349.13 Q807.936 1349.13 809.926 1346.45 Q811.917 1343.76 811.917 1339.13 Q811.917 1334.53 809.926 1331.84 Q807.936 1329.13 804.533 1329.13 M804.533 1325.52 Q810.088 1325.52 813.26 1329.13 Q816.431 1332.75 816.431 1339.13 Q816.431 1345.5 813.26 1349.13 Q810.088 1352.75 804.533 1352.75 Q798.954 1352.75 795.783 1349.13 Q792.635 1345.5 792.635 1339.13 Q792.635 1332.75 795.783 1329.13 Q798.954 1325.52 804.533 1325.52 Z" fill="#000000" fill-rule="nonzero" fill-opacity="1" /><path clip-path="url(#clip600)" d="M842.149 1327.14 L842.149 1331.13 Q840.343 1330.13 838.514 1329.64 Q836.709 1329.13 834.857 1329.13 Q830.713 1329.13 828.422 1331.77 Q826.13 1334.39 826.13 1339.13 Q826.13 1343.88 828.422 1346.52 Q830.713 1349.13 834.857 1349.13 Q836.709 1349.13 838.514 1348.65 Q840.343 1348.14 842.149 1347.14 L842.149 1351.08 Q840.366 1351.91 838.445 1352.33 Q836.547 1352.75 834.394 1352.75 Q828.537 1352.75 825.088 1349.07 Q821.639 1345.38 821.639 1339.13 Q821.639 1332.79 825.112 1329.16 Q828.607 1325.52 834.672 1325.52 Q836.639 1325.52 838.514 1325.94 Q840.389 1326.33 842.149 1327.14 M832.334 1322.86 L826.662 1314.16 L829.88 1314.16 L834.047 1319.83 L838.213 1314.16 L841.431 1314.16 L835.76 1322.86 L832.334 1322.86 Z" fill="#000000" fill-rule="nonzero" fill-opacity="1" /><path clip-path="url(#clip600)" d="M849.394 1316.06 L853.676 1316.06 L853.676 1337.33 L866.384 1326.15 L871.824 1326.15 L858.074 1338.28 L872.403 1352.07 L866.847 1352.07 L853.676 1339.41 L853.676 1352.07 L849.394 1352.07 L849.394 1316.06 Z" fill="#000000" fill-rule="nonzero" fill-opacity="1" /><path clip-path="url(#clip600)" d="M897.495 1338.05 L897.495 1340.13 L877.912 1340.13 Q878.19 1344.53 880.551 1346.84 Q882.935 1349.13 887.171 1349.13 Q889.625 1349.13 891.917 1348.53 Q894.232 1347.93 896.5 1346.73 L896.5 1350.75 Q894.208 1351.73 891.801 1352.24 Q889.394 1352.75 886.917 1352.75 Q880.713 1352.75 877.079 1349.13 Q873.468 1345.52 873.468 1339.37 Q873.468 1333 876.894 1329.27 Q880.343 1325.52 886.176 1325.52 Q891.407 1325.52 894.44 1328.9 Q897.495 1332.26 897.495 1338.05 M893.236 1336.8 Q893.19 1333.3 891.269 1331.22 Q889.37 1329.13 886.222 1329.13 Q882.658 1329.13 880.505 1331.15 Q878.375 1333.16 878.051 1336.82 L893.236 1336.8 Z" fill="#000000" fill-rule="nonzero" fill-opacity="1" /><polyline clip-path="url(#clip600)" style="stroke:#3da44d; stroke-linecap:round; stroke-linejoin:round; stroke-width:4; stroke-opacity:1; fill:none" points="245.49,1386.63 392.509,1386.63 "/>
<path clip-path="url(#clip600)" d="M417.591 1372.58 L437.822 1372.58 L437.822 1376.47 L421.804 1395.11 L437.822 1395.11 L437.822 1398.51 L417.012 1398.51 L417.012 1394.62 L433.03 1375.99 L417.591 1375.99 L417.591 1372.58 Z" fill="#000000" fill-rule="nonzero" fill-opacity="1" /><path clip-path="url(#clip600)" d="M444.327 1362.49 L448.586 1362.49 L448.586 1398.51 L444.327 1398.51 L444.327 1362.49 Z" fill="#000000" fill-rule="nonzero" fill-opacity="1" /><path clip-path="url(#clip600)" d="M479.674 1384.48 L479.674 1386.57 L460.09 1386.57 Q460.368 1390.96 462.729 1393.28 Q465.113 1395.57 469.35 1395.57 Q471.803 1395.57 474.095 1394.97 Q476.41 1394.37 478.678 1393.16 L478.678 1397.19 Q476.387 1398.16 473.979 1398.67 Q471.572 1399.18 469.095 1399.18 Q462.891 1399.18 459.257 1395.57 Q455.646 1391.96 455.646 1385.8 Q455.646 1379.44 459.072 1375.71 Q462.521 1371.96 468.354 1371.96 Q473.586 1371.96 476.618 1375.34 Q479.674 1378.69 479.674 1384.48 M475.414 1383.23 Q475.368 1379.74 473.447 1377.65 Q471.549 1375.57 468.401 1375.57 Q464.836 1375.57 462.683 1377.58 Q460.553 1379.6 460.229 1383.25 L475.414 1383.23 Z" fill="#000000" fill-rule="nonzero" fill-opacity="1" /><path clip-path="url(#clip600)" d="M490.785 1394.62 L490.785 1408.37 L486.502 1408.37 L486.502 1372.58 L490.785 1372.58 L490.785 1376.52 Q492.127 1374.2 494.164 1373.09 Q496.224 1371.96 499.072 1371.96 Q503.794 1371.96 506.734 1375.71 Q509.697 1379.46 509.697 1385.57 Q509.697 1391.68 506.734 1395.43 Q503.794 1399.18 499.072 1399.18 Q496.224 1399.18 494.164 1398.07 Q492.127 1396.94 490.785 1394.62 M505.275 1385.57 Q505.275 1380.87 503.331 1378.21 Q501.41 1375.52 498.03 1375.52 Q494.65 1375.52 492.706 1378.21 Q490.785 1380.87 490.785 1385.57 Q490.785 1390.27 492.706 1392.95 Q494.65 1395.62 498.03 1395.62 Q501.41 1395.62 503.331 1392.95 Q505.275 1390.27 505.275 1385.57 Z" fill="#000000" fill-rule="nonzero" fill-opacity="1" /><path clip-path="url(#clip600)" d="M538.933 1384.48 L538.933 1386.57 L519.349 1386.57 Q519.627 1390.96 521.988 1393.28 Q524.372 1395.57 528.609 1395.57 Q531.062 1395.57 533.354 1394.97 Q535.669 1394.37 537.937 1393.16 L537.937 1397.19 Q535.646 1398.16 533.238 1398.67 Q530.831 1399.18 528.354 1399.18 Q522.15 1399.18 518.516 1395.57 Q514.905 1391.96 514.905 1385.8 Q514.905 1379.44 518.331 1375.71 Q521.78 1371.96 527.613 1371.96 Q532.845 1371.96 535.877 1375.34 Q538.933 1378.69 538.933 1384.48 M534.673 1383.23 Q534.627 1379.74 532.706 1377.65 Q530.808 1375.57 527.659 1375.57 Q524.095 1375.57 521.942 1377.58 Q519.812 1379.6 519.488 1383.25 L534.673 1383.23 Z" fill="#000000" fill-rule="nonzero" fill-opacity="1" /><path clip-path="url(#clip600)" d="M545.761 1362.49 L550.044 1362.49 L550.044 1383.76 L562.752 1372.58 L568.192 1372.58 L554.442 1384.71 L568.77 1398.51 L563.215 1398.51 L550.044 1385.85 L550.044 1398.51 L545.761 1398.51 L545.761 1362.49 Z" fill="#000000" fill-rule="nonzero" fill-opacity="1" /><path clip-path="url(#clip600)" d="M615.88 1366.19 Q615.88 1366.33 615.739 1366.89 L588.921 1396.87 L597.119 1396.87 Q599.531 1396.87 601.358 1396.45 Q603.185 1396 604.45 1395.25 Q605.715 1394.5 606.698 1393.22 Q607.706 1391.9 608.361 1390.48 Q609.017 1389.02 609.696 1386.89 Q609.954 1386.07 610.071 1385.88 Q610.188 1385.7 610.493 1385.7 Q610.797 1385.7 610.961 1385.88 Q611.125 1386.05 611.125 1386.24 Q611.125 1386.33 611.078 1386.47 Q611.055 1386.59 611.008 1386.73 Q610.961 1386.87 610.938 1386.94 L607.518 1397.55 Q607.307 1398.23 607.097 1398.37 Q606.886 1398.51 606.043 1398.51 L585.173 1398.51 Q584.447 1398.51 584.213 1398.46 Q583.979 1398.39 583.979 1398.09 L584.166 1397.22 L610.985 1367.24 L603.162 1367.24 Q600.96 1367.24 599.227 1367.64 Q597.517 1368.01 596.299 1368.72 Q595.081 1369.4 594.144 1370.54 Q593.207 1371.67 592.575 1372.98 Q591.942 1374.27 591.357 1376.07 L591.286 1376.19 Q591.216 1376.3 591.169 1376.38 Q591.122 1376.42 591.005 1376.49 Q590.888 1376.54 590.748 1376.54 Q590.49 1376.54 590.326 1376.4 Q590.186 1376.26 590.186 1376.12 L590.162 1376 Q590.209 1375.58 590.303 1375.34 L592.949 1366.7 Q593.16 1366.02 593.371 1365.88 Q593.582 1365.74 594.425 1365.74 L614.685 1365.74 Q615.435 1365.74 615.646 1365.81 Q615.88 1365.88 615.88 1366.19 Z" fill="#000000" fill-rule="nonzero" fill-opacity="1" /><path clip-path="url(#clip600)" d="M620.819 1386.52 Q620.819 1378.41 623.84 1371.88 Q625.129 1369.14 626.932 1366.84 Q628.736 1364.55 629.93 1363.54 Q631.125 1362.53 631.453 1362.53 Q631.921 1362.53 631.945 1363 Q631.945 1363.24 631.312 1363.82 Q623.583 1371.69 623.606 1386.52 Q623.606 1401.39 631.125 1408.96 Q631.945 1409.78 631.945 1410.03 Q631.945 1410.5 631.453 1410.5 Q631.125 1410.5 629.977 1409.54 Q628.829 1408.58 627.049 1406.38 Q625.269 1404.18 623.981 1401.48 Q620.819 1394.95 620.819 1386.52 Z" fill="#000000" fill-rule="nonzero" fill-opacity="1" /><path clip-path="url(#clip600)" d="M659.477 1380.47 Q659.477 1381.79 658.658 1382.54 Q657.838 1383.26 656.901 1383.26 Q656.011 1383.26 655.542 1382.75 Q655.074 1382.23 655.074 1381.57 Q655.074 1380.68 655.73 1379.91 Q656.386 1379.14 657.369 1378.98 Q656.409 1378.37 654.98 1378.37 Q654.043 1378.37 653.224 1378.86 Q652.427 1379.35 651.935 1379.98 Q651.467 1380.61 651.045 1381.53 Q650.647 1382.42 650.483 1382.96 Q650.343 1383.47 650.225 1384.03 L648.586 1390.59 Q647.79 1393.71 647.79 1394.81 Q647.79 1396.17 648.445 1397.08 Q649.101 1397.97 650.413 1397.97 Q650.928 1397.97 651.514 1397.83 Q652.099 1397.67 652.849 1397.24 Q653.622 1396.8 654.301 1396.14 Q655.004 1395.46 655.683 1394.32 Q656.362 1393.17 656.807 1391.69 Q656.948 1391.18 657.416 1391.18 Q658.002 1391.18 658.002 1391.65 Q658.002 1392.04 657.674 1392.89 Q657.369 1393.71 656.69 1394.79 Q656.034 1395.84 655.168 1396.8 Q654.301 1397.74 653.013 1398.39 Q651.724 1399.05 650.319 1399.05 Q648.305 1399.05 646.97 1397.97 Q645.635 1396.89 645.143 1395.39 Q645.026 1395.61 644.862 1395.89 Q644.698 1396.17 644.206 1396.8 Q643.737 1397.41 643.199 1397.88 Q642.66 1398.32 641.817 1398.67 Q640.997 1399.05 640.107 1399.05 Q638.983 1399.05 637.976 1398.72 Q636.992 1398.39 636.289 1397.64 Q635.586 1396.89 635.586 1395.86 Q635.586 1394.71 636.359 1393.92 Q637.156 1393.1 638.233 1393.1 Q638.912 1393.1 639.451 1393.5 Q640.013 1393.9 640.013 1394.76 Q640.013 1395.72 639.357 1396.45 Q638.702 1397.17 637.765 1397.36 Q638.725 1397.97 640.154 1397.97 Q641.7 1397.97 642.918 1396.61 Q644.136 1395.25 644.721 1392.98 Q646.173 1387.52 646.736 1385.09 Q647.298 1382.63 647.298 1381.57 Q647.298 1380.59 647.04 1379.91 Q646.782 1379.23 646.337 1378.93 Q645.916 1378.6 645.518 1378.48 Q645.143 1378.37 644.721 1378.37 Q644.019 1378.37 643.222 1378.65 Q642.449 1378.93 641.512 1379.58 Q640.599 1380.22 639.732 1381.53 Q638.866 1382.84 638.28 1384.64 Q638.163 1385.18 637.648 1385.18 Q637.085 1385.16 637.085 1384.69 Q637.085 1384.29 637.39 1383.47 Q637.718 1382.63 638.374 1381.57 Q639.053 1380.52 639.92 1379.58 Q640.81 1378.62 642.098 1377.97 Q643.41 1377.31 644.815 1377.31 Q645.447 1377.31 646.056 1377.45 Q646.689 1377.57 647.438 1377.92 Q648.211 1378.27 648.89 1379.05 Q649.57 1379.82 649.991 1380.94 Q650.272 1380.4 650.647 1379.89 Q651.045 1379.37 651.654 1378.74 Q652.287 1378.09 653.153 1377.71 Q654.043 1377.31 655.027 1377.31 Q655.987 1377.31 656.924 1377.57 Q657.861 1377.8 658.658 1378.58 Q659.477 1379.33 659.477 1380.47 Z" fill="#000000" fill-rule="nonzero" fill-opacity="1" /><path clip-path="url(#clip600)" d="M664.09 1410.03 Q664.09 1409.8 664.699 1409.21 Q672.428 1401.34 672.428 1386.52 Q672.428 1371.64 665.003 1364.13 Q664.09 1363.26 664.09 1363 Q664.09 1362.53 664.558 1362.53 Q664.886 1362.53 666.034 1363.49 Q667.205 1364.45 668.962 1366.65 Q670.742 1368.86 672.053 1371.55 Q675.216 1378.09 675.216 1386.52 Q675.216 1394.62 672.194 1401.16 Q670.906 1403.9 669.102 1406.19 Q667.299 1408.49 666.104 1409.49 Q664.91 1410.5 664.558 1410.5 Q664.09 1410.5 664.09 1410.03 Z" fill="#000000" fill-rule="nonzero" fill-opacity="1" /></svg>
