<?xml version="1.0" encoding="utf-8"?>
<svg xmlns="http://www.w3.org/2000/svg" xmlns:xlink="http://www.w3.org/1999/xlink" width="600" height="400" viewBox="0 0 2400 1600">
<defs>
  <clipPath id="clip780">
    <rect x="0" y="0" width="2400" height="1600"/>
  </clipPath>
</defs>
<path clip-path="url(#clip780)" d="M0 1600 L2400 1600 L2400 0 L0 0  Z" fill="#ffffff" fill-rule="evenodd" fill-opacity="1"/>
<defs>
  <clipPath id="clip781">
    <rect x="480" y="0" width="1681" height="1600"/>
  </clipPath>
</defs>
<path clip-path="url(#clip780)" d="M147.478 1486.45 L2352.76 1486.45 L2352.76 47.2441 L147.478 47.2441  Z" fill="#ffffff" fill-rule="evenodd" fill-opacity="1"/>
<defs>
  <clipPath id="clip782">
    <rect x="147" y="47" width="2206" height="1440"/>
  </clipPath>
</defs>
<polyline clip-path="url(#clip782)" style="stroke:#000000; stroke-linecap:round; stroke-linejoin:round; stroke-width:2; stroke-opacity:0.1; fill:none" points="209.891,1486.45 209.891,47.2441 "/>
<polyline clip-path="url(#clip782)" style="stroke:#000000; stroke-linecap:round; stroke-linejoin:round; stroke-width:2; stroke-opacity:0.1; fill:none" points="556.633,1486.45 556.633,47.2441 "/>
<polyline clip-path="url(#clip782)" style="stroke:#000000; stroke-linecap:round; stroke-linejoin:round; stroke-width:2; stroke-opacity:0.1; fill:none" points="903.375,1486.45 903.375,47.2441 "/>
<polyline clip-path="url(#clip782)" style="stroke:#000000; stroke-linecap:round; stroke-linejoin:round; stroke-width:2; stroke-opacity:0.1; fill:none" points="1250.12,1486.45 1250.12,47.2441 "/>
<polyline clip-path="url(#clip782)" style="stroke:#000000; stroke-linecap:round; stroke-linejoin:round; stroke-width:2; stroke-opacity:0.1; fill:none" points="1596.86,1486.45 1596.86,47.2441 "/>
<polyline clip-path="url(#clip782)" style="stroke:#000000; stroke-linecap:round; stroke-linejoin:round; stroke-width:2; stroke-opacity:0.1; fill:none" points="1943.6,1486.45 1943.6,47.2441 "/>
<polyline clip-path="url(#clip782)" style="stroke:#000000; stroke-linecap:round; stroke-linejoin:round; stroke-width:2; stroke-opacity:0.1; fill:none" points="2290.34,1486.45 2290.34,47.2441 "/>
<polyline clip-path="url(#clip780)" style="stroke:#000000; stroke-linecap:round; stroke-linejoin:round; stroke-width:4; stroke-opacity:1; fill:none" points="147.478,1486.45 2352.76,1486.45 "/>
<polyline clip-path="url(#clip780)" style="stroke:#000000; stroke-linecap:round; stroke-linejoin:round; stroke-width:4; stroke-opacity:1; fill:none" points="209.891,1486.45 209.891,1467.55 "/>
<polyline clip-path="url(#clip780)" style="stroke:#000000; stroke-linecap:round; stroke-linejoin:round; stroke-width:4; stroke-opacity:1; fill:none" points="556.633,1486.45 556.633,1467.55 "/>
<polyline clip-path="url(#clip780)" style="stroke:#000000; stroke-linecap:round; stroke-linejoin:round; stroke-width:4; stroke-opacity:1; fill:none" points="903.375,1486.45 903.375,1467.55 "/>
<polyline clip-path="url(#clip780)" style="stroke:#000000; stroke-linecap:round; stroke-linejoin:round; stroke-width:4; stroke-opacity:1; fill:none" points="1250.12,1486.45 1250.12,1467.55 "/>
<polyline clip-path="url(#clip780)" style="stroke:#000000; stroke-linecap:round; stroke-linejoin:round; stroke-width:4; stroke-opacity:1; fill:none" points="1596.86,1486.45 1596.86,1467.55 "/>
<polyline clip-path="url(#clip780)" style="stroke:#000000; stroke-linecap:round; stroke-linejoin:round; stroke-width:4; stroke-opacity:1; fill:none" points="1943.6,1486.45 1943.6,1467.55 "/>
<polyline clip-path="url(#clip780)" style="stroke:#000000; stroke-linecap:round; stroke-linejoin:round; stroke-width:4; stroke-opacity:1; fill:none" points="2290.34,1486.45 2290.34,1467.55 "/>
<path clip-path="url(#clip780)" d="M209.891 1517.37 Q206.28 1517.37 204.452 1520.93 Q202.646 1524.47 202.646 1531.6 Q202.646 1538.71 204.452 1542.27 Q206.28 1545.82 209.891 1545.82 Q213.526 1545.82 215.331 1542.27 Q217.16 1538.71 217.16 1531.6 Q217.16 1524.47 215.331 1520.93 Q213.526 1517.37 209.891 1517.37 M209.891 1513.66 Q215.702 1513.66 218.757 1518.27 Q221.836 1522.85 221.836 1531.6 Q221.836 1540.33 218.757 1544.94 Q215.702 1549.52 209.891 1549.52 Q204.081 1549.52 201.003 1544.94 Q197.947 1540.33 197.947 1531.6 Q197.947 1522.85 201.003 1518.27 Q204.081 1513.66 209.891 1513.66 Z" fill="#000000" fill-rule="nonzero" fill-opacity="1" /><path clip-path="url(#clip780)" d="M547.015 1544.91 L554.654 1544.91 L554.654 1518.55 L546.344 1520.21 L546.344 1515.95 L554.608 1514.29 L559.284 1514.29 L559.284 1544.91 L566.923 1544.91 L566.923 1548.85 L547.015 1548.85 L547.015 1544.91 Z" fill="#000000" fill-rule="nonzero" fill-opacity="1" /><path clip-path="url(#clip780)" d="M898.028 1544.91 L914.347 1544.91 L914.347 1548.85 L892.403 1548.85 L892.403 1544.91 Q895.065 1542.16 899.648 1537.53 Q904.255 1532.88 905.435 1531.53 Q907.681 1529.01 908.56 1527.27 Q909.463 1525.51 909.463 1523.82 Q909.463 1521.07 907.519 1519.33 Q905.597 1517.6 902.495 1517.6 Q900.296 1517.6 897.843 1518.36 Q895.412 1519.13 892.634 1520.68 L892.634 1515.95 Q895.458 1514.82 897.912 1514.24 Q900.366 1513.66 902.403 1513.66 Q907.773 1513.66 910.968 1516.35 Q914.162 1519.03 914.162 1523.52 Q914.162 1525.65 913.352 1527.57 Q912.565 1529.47 910.458 1532.07 Q909.88 1532.74 906.778 1535.95 Q903.676 1539.15 898.028 1544.91 Z" fill="#000000" fill-rule="nonzero" fill-opacity="1" /><path clip-path="url(#clip780)" d="M1254.36 1530.21 Q1257.72 1530.93 1259.6 1533.2 Q1261.49 1535.47 1261.49 1538.8 Q1261.49 1543.92 1257.98 1546.72 Q1254.46 1549.52 1247.98 1549.52 Q1245.8 1549.52 1243.49 1549.08 Q1241.19 1548.66 1238.74 1547.81 L1238.74 1543.29 Q1240.68 1544.43 1243 1545.01 Q1245.31 1545.58 1247.84 1545.58 Q1252.23 1545.58 1254.53 1543.85 Q1256.84 1542.11 1256.84 1538.8 Q1256.84 1535.75 1254.69 1534.03 Q1252.56 1532.3 1248.74 1532.3 L1244.71 1532.3 L1244.71 1528.45 L1248.92 1528.45 Q1252.37 1528.45 1254.2 1527.09 Q1256.03 1525.7 1256.03 1523.11 Q1256.03 1520.45 1254.13 1519.03 Q1252.26 1517.6 1248.74 1517.6 Q1246.82 1517.6 1244.62 1518.01 Q1242.42 1518.43 1239.78 1519.31 L1239.78 1515.14 Q1242.44 1514.4 1244.76 1514.03 Q1247.1 1513.66 1249.16 1513.66 Q1254.48 1513.66 1257.58 1516.09 Q1260.68 1518.5 1260.68 1522.62 Q1260.68 1525.49 1259.04 1527.48 Q1257.4 1529.45 1254.36 1530.21 Z" fill="#000000" fill-rule="nonzero" fill-opacity="1" /><path clip-path="url(#clip780)" d="M1599.87 1518.36 L1588.06 1536.81 L1599.87 1536.81 L1599.87 1518.36 M1598.64 1514.29 L1604.52 1514.29 L1604.52 1536.81 L1609.45 1536.81 L1609.45 1540.7 L1604.52 1540.7 L1604.52 1548.85 L1599.87 1548.85 L1599.87 1540.7 L1584.27 1540.7 L1584.27 1536.19 L1598.64 1514.29 Z" fill="#000000" fill-rule="nonzero" fill-opacity="1" /><path clip-path="url(#clip780)" d="M1933.88 1514.29 L1952.23 1514.29 L1952.23 1518.22 L1938.16 1518.22 L1938.16 1526.7 Q1939.18 1526.35 1940.2 1526.19 Q1941.22 1526 1942.23 1526 Q1948.02 1526 1951.4 1529.17 Q1954.78 1532.34 1954.78 1537.76 Q1954.78 1543.34 1951.31 1546.44 Q1947.84 1549.52 1941.52 1549.52 Q1939.34 1549.52 1937.07 1549.15 Q1934.83 1548.78 1932.42 1548.04 L1932.42 1543.34 Q1934.5 1544.47 1936.73 1545.03 Q1938.95 1545.58 1941.42 1545.58 Q1945.43 1545.58 1947.77 1543.48 Q1950.11 1541.37 1950.11 1537.76 Q1950.11 1534.15 1947.77 1532.04 Q1945.43 1529.94 1941.42 1529.94 Q1939.55 1529.94 1937.67 1530.35 Q1935.82 1530.77 1933.88 1531.65 L1933.88 1514.29 Z" fill="#000000" fill-rule="nonzero" fill-opacity="1" /><path clip-path="url(#clip780)" d="M2290.75 1529.7 Q2287.6 1529.7 2285.75 1531.86 Q2283.92 1534.01 2283.92 1537.76 Q2283.92 1541.49 2285.75 1543.66 Q2287.6 1545.82 2290.75 1545.82 Q2293.9 1545.82 2295.72 1543.66 Q2297.58 1541.49 2297.58 1537.76 Q2297.58 1534.01 2295.72 1531.86 Q2293.9 1529.7 2290.75 1529.7 M2300.03 1515.05 L2300.03 1519.31 Q2298.27 1518.48 2296.47 1518.04 Q2294.68 1517.6 2292.92 1517.6 Q2288.29 1517.6 2285.84 1520.72 Q2283.41 1523.85 2283.06 1530.17 Q2284.43 1528.15 2286.49 1527.09 Q2288.55 1526 2291.03 1526 Q2296.23 1526 2299.24 1529.17 Q2302.28 1532.32 2302.28 1537.76 Q2302.28 1543.08 2299.13 1546.3 Q2295.98 1549.52 2290.75 1549.52 Q2284.75 1549.52 2281.58 1544.94 Q2278.41 1540.33 2278.41 1531.6 Q2278.41 1523.41 2282.3 1518.55 Q2286.19 1513.66 2292.74 1513.66 Q2294.5 1513.66 2296.28 1514.01 Q2298.09 1514.36 2300.03 1515.05 Z" fill="#000000" fill-rule="nonzero" fill-opacity="1" /><polyline clip-path="url(#clip782)" style="stroke:#000000; stroke-linecap:round; stroke-linejoin:round; stroke-width:2; stroke-opacity:0.1; fill:none" points="147.478,1445.76 2352.76,1445.76 "/>
<polyline clip-path="url(#clip782)" style="stroke:#000000; stroke-linecap:round; stroke-linejoin:round; stroke-width:2; stroke-opacity:0.1; fill:none" points="147.478,1072.14 2352.76,1072.14 "/>
<polyline clip-path="url(#clip782)" style="stroke:#000000; stroke-linecap:round; stroke-linejoin:round; stroke-width:2; stroke-opacity:0.1; fill:none" points="147.478,698.526 2352.76,698.526 "/>
<polyline clip-path="url(#clip782)" style="stroke:#000000; stroke-linecap:round; stroke-linejoin:round; stroke-width:2; stroke-opacity:0.1; fill:none" points="147.478,324.91 2352.76,324.91 "/>
<polyline clip-path="url(#clip780)" style="stroke:#000000; stroke-linecap:round; stroke-linejoin:round; stroke-width:4; stroke-opacity:1; fill:none" points="147.478,1486.45 147.478,47.2441 "/>
<polyline clip-path="url(#clip780)" style="stroke:#000000; stroke-linecap:round; stroke-linejoin:round; stroke-width:4; stroke-opacity:1; fill:none" points="147.478,1445.76 166.376,1445.76 "/>
<polyline clip-path="url(#clip780)" style="stroke:#000000; stroke-linecap:round; stroke-linejoin:round; stroke-width:4; stroke-opacity:1; fill:none" points="147.478,1072.14 166.376,1072.14 "/>
<polyline clip-path="url(#clip780)" style="stroke:#000000; stroke-linecap:round; stroke-linejoin:round; stroke-width:4; stroke-opacity:1; fill:none" points="147.478,698.526 166.376,698.526 "/>
<polyline clip-path="url(#clip780)" style="stroke:#000000; stroke-linecap:round; stroke-linejoin:round; stroke-width:4; stroke-opacity:1; fill:none" points="147.478,324.91 166.376,324.91 "/>
<path clip-path="url(#clip780)" d="M51.3625 1446.21 L81.0383 1446.21 L81.0383 1450.15 L51.3625 1450.15 L51.3625 1446.21 Z" fill="#000000" fill-rule="nonzero" fill-opacity="1" /><path clip-path="url(#clip780)" d="M95.1586 1459.1 L111.478 1459.1 L111.478 1463.04 L89.5336 1463.04 L89.5336 1459.1 Q92.1956 1456.35 96.7789 1451.72 Q101.385 1447.07 102.566 1445.73 Q104.811 1443.2 105.691 1441.47 Q106.594 1439.71 106.594 1438.02 Q106.594 1435.26 104.649 1433.53 Q102.728 1431.79 99.6261 1431.79 Q97.4271 1431.79 94.9734 1432.55 Q92.5428 1433.32 89.7651 1434.87 L89.7651 1430.15 Q92.5891 1429.01 95.0428 1428.43 Q97.4965 1427.85 99.5335 1427.85 Q104.904 1427.85 108.098 1430.54 Q111.293 1433.23 111.293 1437.72 Q111.293 1439.85 110.483 1441.77 Q109.696 1443.66 107.589 1446.26 Q107.01 1446.93 103.909 1450.15 Q100.807 1453.34 95.1586 1459.1 Z" fill="#000000" fill-rule="nonzero" fill-opacity="1" /><path clip-path="url(#clip780)" d="M50.9921 1072.59 L80.6679 1072.59 L80.6679 1076.53 L50.9921 1076.53 L50.9921 1072.59 Z" fill="#000000" fill-rule="nonzero" fill-opacity="1" /><path clip-path="url(#clip780)" d="M91.5706 1085.49 L99.2095 1085.49 L99.2095 1059.12 L90.8993 1060.79 L90.8993 1056.53 L99.1632 1054.86 L103.839 1054.86 L103.839 1085.49 L111.478 1085.49 L111.478 1089.42 L91.5706 1089.42 L91.5706 1085.49 Z" fill="#000000" fill-rule="nonzero" fill-opacity="1" /><path clip-path="url(#clip780)" d="M99.5335 684.325 Q95.9224 684.325 94.0937 687.89 Q92.2882 691.432 92.2882 698.561 Q92.2882 705.668 94.0937 709.232 Q95.9224 712.774 99.5335 712.774 Q103.168 712.774 104.973 709.232 Q106.802 705.668 106.802 698.561 Q106.802 691.432 104.973 687.89 Q103.168 684.325 99.5335 684.325 M99.5335 680.621 Q105.344 680.621 108.399 685.228 Q111.478 689.811 111.478 698.561 Q111.478 707.288 108.399 711.894 Q105.344 716.478 99.5335 716.478 Q93.7234 716.478 90.6447 711.894 Q87.5892 707.288 87.5892 698.561 Q87.5892 689.811 90.6447 685.228 Q93.7234 680.621 99.5335 680.621 Z" fill="#000000" fill-rule="nonzero" fill-opacity="1" /><path clip-path="url(#clip780)" d="M91.5706 338.255 L99.2095 338.255 L99.2095 311.889 L90.8993 313.556 L90.8993 309.296 L99.1632 307.63 L103.839 307.63 L103.839 338.255 L111.478 338.255 L111.478 342.19 L91.5706 342.19 L91.5706 338.255 Z" fill="#000000" fill-rule="nonzero" fill-opacity="1" /><polyline clip-path="url(#clip782)" style="stroke:#009af9; stroke-linecap:round; stroke-linejoin:round; stroke-width:4; stroke-opacity:1; fill:none" points="209.891,324.91 213.278,314.037 216.664,303.315 220.05,292.755 223.436,282.366 231.264,259.051 239.092,236.807 246.919,215.743 254.747,195.961 262.574,177.565 270.402,160.648 278.23,145.304 286.057,131.618 293.885,119.669 301.712,109.533 309.54,101.276 317.368,94.9587 325.195,90.6341 333.023,88.348 340.851,88.138 348.678,90.0338 358.086,95.1287 367.494,103.317 376.903,114.603 386.311,128.971 395.719,146.389 405.127,166.806 414.535,190.153 423.943,216.343 431.898,240.628 439.852,266.801 447.807,294.779 455.761,324.476 463.716,355.794 471.67,388.63 479.625,422.874 487.579,458.407 496.22,498.326 504.861,539.456 513.501,581.626 522.142,624.656 539.424,712.562 556.705,801.653 572.637,883.493 588.569,963.784 604.502,1041.31 620.434,1114.88 628.974,1152.29 637.514,1188.08 646.055,1222.08 654.595,1254.14 663.136,1284.12 671.676,1311.88 680.217,1337.3 688.757,1360.26 693.705,1372.39 698.652,1383.65 703.599,1394.02 708.547,1403.47 713.494,1412.01 718.442,1419.6 723.389,1426.24 728.337,1431.93 733.284,1436.64 738.232,1440.39 743.179,1443.15 748.127,1444.93 753.074,1445.72 758.022,1445.52 762.969,1444.33 767.917,1442.16 776.71,1435.87 785.503,1426.51 794.297,1414.11 803.09,1398.75 811.884,1380.49 820.677,1359.42 829.471,1335.64 838.264,1309.26 845.975,1284.1 853.686,1257.12 861.397,1228.44 869.108,1198.15 876.819,1166.37 884.53,1133.21 892.241,1098.79 899.953,1063.24 916.767,982.414 933.581,898.188 950.395,811.989 967.21,725.265 984.124,638.949 1001.04,554.99 1009.49,514.325 1017.95,474.757 1026.41,436.444 1034.87,399.537 1044.22,360.54 1053.57,323.618 1062.92,288.94 1072.27,256.661 1081.62,226.922 1090.97,199.845 1100.32,175.541 1109.67,154.099 1118.57,136.424 1127.46,121.457 1136.36,109.234 1145.26,99.7761 1154.15,93.0882 1163.05,89.1624 1171.95,87.9763 1180.84,89.4934 1190.09,93.8837 1199.34,101.071 1208.59,110.969 1217.84,123.478 1227.09,138.483 1236.35,155.859 1245.6,175.466 1254.85,197.157 1262.63,216.915 1270.42,237.937 1278.21,260.12 1285.99,283.358 1293.78,307.541 1301.57,332.556 1309.35,358.291 1317.14,384.629 1336.16,450.755 1355.17,518.099 1374.18,585.005 1393.2,649.892 1401.91,678.533 1410.62,706.31 1419.32,733.1 1428.03,758.788 1436.74,783.266 1445.45,806.438 1454.16,828.214 1462.87,848.516 1470.91,865.899 1478.96,881.92 1487,896.542 1495.04,909.735 1503.09,921.476 1511.13,931.751 1519.17,940.555 1527.22,947.888 1535.36,953.826 1543.51,958.283 1551.66,961.283 1559.81,962.86 1567.95,963.054 1576.1,961.913 1584.25,959.491 1592.4,955.848 1601.53,950.397 1610.66,943.597 1619.79,935.558 1628.92,926.396 1647.19,905.197 1665.45,881.031 1698.55,833.196 1731.64,785.663 1741.12,772.982 1750.59,760.956 1760.06,749.708 1769.54,739.35 1779.01,729.986 1788.49,721.707 1797.96,714.595 1807.43,708.72 1816.21,704.433 1824.98,701.292 1833.75,699.322 1842.52,698.541 1851.29,698.954 1860.06,700.558 1868.84,703.34 1877.61,707.277 1886.26,712.256 1894.9,718.285 1903.55,725.315 1912.2,733.289 1929.5,751.795 1946.79,773.192 1980.38,820.23 2013.96,869.308 2031.18,893.082 2048.39,914.711 2057,924.441 2065.61,933.304 2074.21,941.196 2082.82,948.019 2092.25,954.157 2101.68,958.783 2111.11,961.794 2120.54,963.093 2129.97,962.598 2139.4,960.236 2148.83,955.948 2158.27,949.689 2165.11,943.889 2171.96,937.025 2178.81,929.092 2185.66,920.093 2192.51,910.032 2199.36,898.917 2206.21,886.763 2213.06,873.586 2219.91,859.408 2226.76,844.256 2233.61,828.157 2240.46,811.147 2254.16,774.546 2267.86,734.799 2273.48,717.673 2279.1,700.114 2284.72,682.155 2290.34,663.83 "/>
<polyline clip-path="url(#clip782)" style="stroke:#e26f46; stroke-linecap:round; stroke-linejoin:round; stroke-width:4; stroke-opacity:1; fill:none" points="209.891,324.91 213.278,314.08 216.664,303.483 220.05,293.123 223.436,283.002 231.264,260.539 239.092,239.408 246.919,219.645 254.747,201.285 262.574,184.366 270.402,168.924 278.23,154.994 286.057,142.614 293.885,131.82 301.712,122.648 309.54,115.134 317.368,109.314 325.195,105.226 333.023,102.905 340.851,102.387 348.678,103.709 358.086,107.785 367.494,114.633 376.903,124.319 386.311,136.903 395.719,152.451 405.127,171.024 414.535,192.686 423.943,217.5 431.898,240.986 439.852,266.807 447.807,294.828 455.761,324.681 463.716,356.219 471.67,389.302 479.625,423.791 487.579,459.545 504.861,540.909 522.142,626.143 539.424,713.807 556.705,802.463 572.637,883.833 588.569,963.696 604.502,1040.92 620.434,1114.39 628.974,1151.83 637.514,1187.69 646.055,1221.8 654.595,1253.98 663.136,1284.07 671.676,1311.88 680.217,1336.99 688.757,1359.04 693.705,1370.43 698.652,1380.82 703.599,1390.21 708.547,1398.63 713.494,1406.06 718.442,1412.53 723.389,1418.05 728.337,1422.62 733.284,1426.24 738.232,1428.94 743.179,1430.72 748.127,1431.58 753.074,1431.55 758.022,1430.62 762.969,1428.81 767.917,1426.12 776.71,1419.21 785.503,1409.61 794.297,1397.38 803.09,1382.57 811.884,1365.23 820.677,1345.41 829.471,1323.16 838.264,1298.53 845.975,1275.01 853.686,1249.74 861.397,1222.75 869.108,1194.07 876.819,1163.74 884.53,1131.8 892.241,1098.27 899.953,1063.19 916.767,982.742 933.581,899.7 950.395,815.249 967.21,730.498 984.124,646.061 1001.04,563.573 1009.49,523.411 1017.95,484.16 1026.41,445.961 1034.87,408.954 1044.22,369.596 1053.57,332.059 1062.92,296.534 1072.27,263.212 1081.62,232.282 1090.97,203.937 1100.32,178.366 1109.67,155.761 1118.57,137.18 1127.46,121.62 1136.36,109.245 1145.26,100.119 1154.15,94.1314 1163.05,91.1549 1171.95,91.0631 1180.84,93.7291 1190.09,99.2894 1199.34,107.552 1208.59,118.374 1217.84,131.612 1227.09,147.126 1236.35,164.771 1245.6,184.405 1254.85,205.887 1262.63,225.296 1270.42,245.829 1278.21,267.399 1285.99,289.922 1293.78,313.313 1301.57,337.486 1309.35,362.357 1317.14,387.841 1336.16,452.112 1355.17,518.291 1374.18,584.757 1393.2,647.687 1401.91,675.009 1410.62,701.333 1419.32,726.621 1428.03,750.834 1436.74,773.933 1445.45,795.879 1454.16,816.635 1462.87,836.161 1470.91,853.07 1478.96,868.865 1487,883.519 1495.04,896.999 1503.09,909.275 1511.13,920.318 1519.17,930.096 1527.22,938.579 1535.36,945.82 1543.51,951.67 1551.66,956.097 1559.81,959.069 1567.95,960.554 1576.1,960.521 1584.25,958.938 1592.4,955.774 1601.53,950.406 1610.66,943.684 1619.79,935.805 1628.92,926.883 1647.19,906.375 1665.45,883.08 1698.55,836.747 1731.64,789.772 1750.59,764.708 1769.54,742.261 1779.01,732.339 1788.49,723.458 1797.96,715.745 1807.43,709.329 1816.21,704.656 1824.98,701.308 1833.75,699.403 1842.52,699.01 1851.29,700.053 1860.06,702.443 1868.84,706.095 1877.61,710.921 1886.26,716.743 1894.9,723.538 1903.55,731.224 1912.2,739.716 1929.5,758.788 1946.79,780.087 1980.38,825.308 2013.96,871.537 2031.18,894.039 2048.39,914.867 2057,924.448 2065.61,933.161 2074.21,940.47 2082.82,946.351 2092.25,951.16 2101.68,954.263 2111.11,955.664 2120.54,955.368 2129.97,953.377 2139.4,949.696 2148.83,944.328 2158.27,937.277 2165.11,931.103 2171.96,924.045 2178.81,916.104 2185.66,907.281 2192.51,897.579 2199.36,886.997 2206.21,875.539 2213.06,863.206 2219.91,849.998 2226.76,835.917 2233.61,820.966 2240.46,805.144 2254.16,770.898 2267.86,733.189 2273.48,716.719 2279.1,699.668 2284.72,682.038 2290.34,663.83 "/>
<circle clip-path="url(#clip782)" cx="209.891" cy="324.91" r="14.4" fill="#3da44d" fill-rule="evenodd" fill-opacity="1" stroke="#000000" stroke-opacity="1" stroke-width="3.2"/>
<circle clip-path="url(#clip782)" cx="441.053" cy="270.909" r="14.4" fill="#3da44d" fill-rule="evenodd" fill-opacity="1" stroke="#000000" stroke-opacity="1" stroke-width="3.2"/>
<circle clip-path="url(#clip782)" cx="672.214" cy="1313.55" r="14.4" fill="#3da44d" fill-rule="evenodd" fill-opacity="1" stroke="#000000" stroke-opacity="1" stroke-width="3.2"/>
<circle clip-path="url(#clip782)" cx="903.375" cy="1047.13" r="14.4" fill="#3da44d" fill-rule="evenodd" fill-opacity="1" stroke="#000000" stroke-opacity="1" stroke-width="3.2"/>
<circle clip-path="url(#clip782)" cx="1134.54" cy="111.514" r="14.4" fill="#3da44d" fill-rule="evenodd" fill-opacity="1" stroke="#000000" stroke-opacity="1" stroke-width="3.2"/>
<circle clip-path="url(#clip782)" cx="1365.7" cy="555.302" r="14.4" fill="#3da44d" fill-rule="evenodd" fill-opacity="1" stroke="#000000" stroke-opacity="1" stroke-width="3.2"/>
<circle clip-path="url(#clip782)" cx="1596.86" cy="953.36" r="14.4" fill="#3da44d" fill-rule="evenodd" fill-opacity="1" stroke="#000000" stroke-opacity="1" stroke-width="3.2"/>
<circle clip-path="url(#clip782)" cx="1828.02" cy="700.475" r="14.4" fill="#3da44d" fill-rule="evenodd" fill-opacity="1" stroke="#000000" stroke-opacity="1" stroke-width="3.2"/>
<circle clip-path="url(#clip782)" cx="2059.18" cy="926.774" r="14.4" fill="#3da44d" fill-rule="evenodd" fill-opacity="1" stroke="#000000" stroke-opacity="1" stroke-width="3.2"/>
<circle clip-path="url(#clip782)" cx="2290.34" cy="663.83" r="14.4" fill="#3da44d" fill-rule="evenodd" fill-opacity="1" stroke="#000000" stroke-opacity="1" stroke-width="3.2"/>
<path clip-path="url(#clip780)" d="M1578.24 302.578 L2279.25 302.578 L2279.25 95.2176 L1578.24 95.2176  Z" fill="#ffffff" fill-rule="evenodd" fill-opacity="1"/>
<polyline clip-path="url(#clip780)" style="stroke:#000000; stroke-linecap:round; stroke-linejoin:round; stroke-width:4; stroke-opacity:1; fill:none" points="1578.24,302.578 2279.25,302.578 2279.25,95.2176 1578.24,95.2176 1578.24,302.578 "/>
<polyline clip-path="url(#clip780)" style="stroke:#009af9; stroke-linecap:round; stroke-linejoin:round; stroke-width:4; stroke-opacity:1; fill:none" points="1602.74,147.058 1749.76,147.058 "/>
<path clip-path="url(#clip780)" d="M1790.76 122.914 L1790.76 126.456 L1786.69 126.456 Q1784.4 126.456 1783.5 127.382 Q1782.62 128.308 1782.62 130.715 L1782.62 133.007 L1789.63 133.007 L1789.63 136.317 L1782.62 136.317 L1782.62 158.933 L1778.33 158.933 L1778.33 136.317 L1774.26 136.317 L1774.26 133.007 L1778.33 133.007 L1778.33 131.201 Q1778.33 126.873 1780.35 124.905 Q1782.36 122.914 1786.74 122.914 L1790.76 122.914 Z" fill="#000000" fill-rule="nonzero" fill-opacity="1" /><path clip-path="url(#clip780)" d="M1793.89 148.701 L1793.89 133.007 L1798.15 133.007 L1798.15 148.539 Q1798.15 152.22 1799.58 154.071 Q1801.02 155.9 1803.89 155.9 Q1807.34 155.9 1809.33 153.701 Q1811.34 151.502 1811.34 147.706 L1811.34 133.007 L1815.6 133.007 L1815.6 158.933 L1811.34 158.933 L1811.34 154.951 Q1809.79 157.312 1807.73 158.47 Q1805.7 159.604 1802.99 159.604 Q1798.52 159.604 1796.2 156.826 Q1793.89 154.048 1793.89 148.701 M1804.61 132.382 L1804.61 132.382 Z" fill="#000000" fill-rule="nonzero" fill-opacity="1" /><path clip-path="url(#clip780)" d="M1845.93 143.284 L1845.93 158.933 L1841.67 158.933 L1841.67 143.423 Q1841.67 139.743 1840.23 137.914 Q1838.8 136.085 1835.93 136.085 Q1832.48 136.085 1830.49 138.285 Q1828.5 140.484 1828.5 144.28 L1828.5 158.933 L1824.21 158.933 L1824.21 133.007 L1828.5 133.007 L1828.5 137.035 Q1830.02 134.697 1832.08 133.539 Q1834.17 132.382 1836.88 132.382 Q1841.34 132.382 1843.63 135.16 Q1845.93 137.914 1845.93 143.284 Z" fill="#000000" fill-rule="nonzero" fill-opacity="1" /><path clip-path="url(#clip780)" d="M1854.26 122.914 L1858.54 122.914 L1858.54 144.187 L1871.25 133.007 L1876.69 133.007 L1862.94 145.136 L1877.27 158.933 L1871.71 158.933 L1858.54 146.271 L1858.54 158.933 L1854.26 158.933 L1854.26 122.914 Z" fill="#000000" fill-rule="nonzero" fill-opacity="1" /><path clip-path="url(#clip780)" d="M1900.53 134.002 L1900.53 137.984 Q1898.73 136.988 1896.9 136.502 Q1895.09 135.993 1893.24 135.993 Q1889.1 135.993 1886.81 138.632 Q1884.51 141.247 1884.51 145.993 Q1884.51 150.738 1886.81 153.377 Q1889.1 155.993 1893.24 155.993 Q1895.09 155.993 1896.9 155.507 Q1898.73 154.997 1900.53 154.002 L1900.53 157.937 Q1898.75 158.771 1896.83 159.187 Q1894.93 159.604 1892.78 159.604 Q1886.92 159.604 1883.47 155.923 Q1880.02 152.243 1880.02 145.993 Q1880.02 139.65 1883.5 136.016 Q1886.99 132.382 1893.06 132.382 Q1895.02 132.382 1896.9 132.798 Q1898.77 133.192 1900.53 134.002 Z" fill="#000000" fill-rule="nonzero" fill-opacity="1" /><path clip-path="url(#clip780)" d="M1907.94 133.007 L1912.2 133.007 L1912.2 158.933 L1907.94 158.933 L1907.94 133.007 M1907.94 122.914 L1912.2 122.914 L1912.2 128.308 L1907.94 128.308 L1907.94 122.914 Z" fill="#000000" fill-rule="nonzero" fill-opacity="1" /><path clip-path="url(#clip780)" d="M1921.11 133.007 L1925.37 133.007 L1925.37 159.396 Q1925.37 164.349 1923.47 166.571 Q1921.6 168.794 1917.41 168.794 L1915.79 168.794 L1915.79 165.183 L1916.92 165.183 Q1919.35 165.183 1920.23 164.048 Q1921.11 162.937 1921.11 159.396 L1921.11 133.007 M1921.11 122.914 L1925.37 122.914 L1925.37 128.308 L1921.11 128.308 L1921.11 122.914 Z" fill="#000000" fill-rule="nonzero" fill-opacity="1" /><path clip-path="url(#clip780)" d="M1946.06 145.9 Q1940.9 145.9 1938.91 147.081 Q1936.92 148.261 1936.92 151.109 Q1936.92 153.377 1938.4 154.72 Q1939.91 156.039 1942.48 156.039 Q1946.02 156.039 1948.15 153.539 Q1950.3 151.016 1950.3 146.849 L1950.3 145.9 L1946.06 145.9 M1954.56 144.141 L1954.56 158.933 L1950.3 158.933 L1950.3 154.997 Q1948.84 157.358 1946.67 158.493 Q1944.49 159.604 1941.34 159.604 Q1937.36 159.604 1935 157.382 Q1932.66 155.136 1932.66 151.386 Q1932.66 147.011 1935.58 144.789 Q1938.52 142.567 1944.33 142.567 L1950.3 142.567 L1950.3 142.15 Q1950.3 139.21 1948.36 137.613 Q1946.44 135.993 1942.94 135.993 Q1940.72 135.993 1938.61 136.525 Q1936.5 137.058 1934.56 138.122 L1934.56 134.187 Q1936.9 133.285 1939.1 132.845 Q1941.3 132.382 1943.38 132.382 Q1949 132.382 1951.78 135.298 Q1954.56 138.215 1954.56 144.141 Z" fill="#000000" fill-rule="nonzero" fill-opacity="1" /><path clip-path="url(#clip780)" d="M1997.85 128.413 Q1997.85 129.701 1997.03 130.498 Q1996.23 131.294 1995.23 131.294 Q1994.5 131.294 1993.96 130.849 Q1993.45 130.404 1993.45 129.631 Q1993.45 128.835 1994.05 127.992 Q1994.66 127.148 1996.05 127.031 Q1995.13 126.165 1993.68 126.165 Q1992.95 126.165 1992.34 126.633 Q1991.76 127.078 1991.43 127.804 Q1991.08 128.554 1990.28 132.793 Q1990.03 134.175 1989.79 135.51 Q1989.56 136.845 1989.28 138.251 L1993.26 138.251 Q1993.77 138.251 1993.98 138.274 Q1994.2 138.297 1994.36 138.414 Q1994.55 138.532 1994.55 138.789 Q1994.55 139.445 1994.24 139.609 Q1993.96 139.75 1993.12 139.75 L1989 139.75 L1986.11 154.951 Q1986.04 155.396 1985.74 156.801 Q1985.46 158.183 1984.78 160.455 Q1984.1 162.75 1983.42 164.109 Q1983.05 164.882 1982.55 165.608 Q1982.09 166.357 1981.41 167.107 Q1980.73 167.857 1979.84 168.302 Q1978.95 168.77 1978.01 168.77 Q1976.42 168.77 1975.18 167.88 Q1973.93 166.99 1973.93 165.467 Q1973.93 164.179 1974.73 163.383 Q1975.55 162.586 1976.56 162.586 Q1977.28 162.586 1977.8 163.031 Q1978.34 163.477 1978.34 164.249 Q1978.34 164.577 1978.22 164.952 Q1978.1 165.327 1977.85 165.748 Q1977.59 166.194 1977.03 166.498 Q1976.46 166.802 1975.69 166.849 Q1976.61 167.716 1978.01 167.716 Q1978.46 167.716 1978.85 167.529 Q1979.25 167.365 1979.58 166.943 Q1979.93 166.521 1980.19 166.1 Q1980.45 165.702 1980.7 164.929 Q1980.96 164.179 1981.13 163.617 Q1981.29 163.055 1981.5 162.048 Q1981.73 161.041 1981.85 160.432 Q1981.97 159.846 1982.18 158.698 L1985.76 139.75 L1982.6 139.75 Q1982.04 139.75 1981.8 139.726 Q1981.59 139.703 1981.43 139.586 Q1981.27 139.445 1981.27 139.164 Q1981.27 138.719 1981.45 138.532 Q1981.66 138.321 1981.9 138.297 Q1982.13 138.251 1982.69 138.251 L1986.02 138.251 Q1987.15 132.325 1987.59 130.732 Q1988.11 129.046 1988.9 127.874 Q1989.7 126.68 1990.59 126.118 Q1991.48 125.556 1992.2 125.345 Q1992.95 125.111 1993.68 125.111 Q1995.32 125.111 1996.58 126.001 Q1997.85 126.867 1997.85 128.413 Z" fill="#000000" fill-rule="nonzero" fill-opacity="1" /><path clip-path="url(#clip780)" d="M2004.3 146.94 Q2004.3 138.836 2007.32 132.301 Q2008.61 129.561 2010.42 127.265 Q2012.22 124.97 2013.41 123.963 Q2014.61 122.956 2014.94 122.956 Q2015.4 122.956 2015.43 123.424 Q2015.43 123.658 2014.8 124.244 Q2007.07 132.114 2007.09 146.94 Q2007.09 161.814 2014.61 169.379 Q2015.43 170.199 2015.43 170.456 Q2015.43 170.925 2014.94 170.925 Q2014.61 170.925 2013.46 169.965 Q2012.31 169.004 2010.53 166.802 Q2008.75 164.601 2007.46 161.907 Q2004.3 155.372 2004.3 146.94 Z" fill="#000000" fill-rule="nonzero" fill-opacity="1" /><path clip-path="url(#clip780)" d="M2042.96 140.897 Q2042.96 142.209 2042.14 142.958 Q2041.32 143.685 2040.38 143.685 Q2039.49 143.685 2039.03 143.169 Q2038.56 142.654 2038.56 141.998 Q2038.56 141.108 2039.21 140.335 Q2039.87 139.562 2040.85 139.398 Q2039.89 138.789 2038.46 138.789 Q2037.53 138.789 2036.71 139.281 Q2035.91 139.773 2035.42 140.405 Q2034.95 141.038 2034.53 141.951 Q2034.13 142.841 2033.97 143.38 Q2033.83 143.895 2033.71 144.457 L2032.07 151.016 Q2031.27 154.131 2031.27 155.232 Q2031.27 156.59 2031.93 157.504 Q2032.58 158.394 2033.9 158.394 Q2034.41 158.394 2035 158.253 Q2035.58 158.089 2036.33 157.668 Q2037.1 157.223 2037.78 156.567 Q2038.49 155.888 2039.17 154.74 Q2039.85 153.592 2040.29 152.117 Q2040.43 151.601 2040.9 151.601 Q2041.48 151.601 2041.48 152.07 Q2041.48 152.468 2041.16 153.311 Q2040.85 154.131 2040.17 155.208 Q2039.52 156.262 2038.65 157.223 Q2037.78 158.16 2036.5 158.815 Q2035.21 159.471 2033.8 159.471 Q2031.79 159.471 2030.45 158.394 Q2029.12 157.316 2028.63 155.817 Q2028.51 156.028 2028.34 156.309 Q2028.18 156.59 2027.69 157.223 Q2027.22 157.832 2026.68 158.3 Q2026.14 158.745 2025.3 159.097 Q2024.48 159.471 2023.59 159.471 Q2022.47 159.471 2021.46 159.143 Q2020.47 158.815 2019.77 158.066 Q2019.07 157.316 2019.07 156.286 Q2019.07 155.138 2019.84 154.342 Q2020.64 153.522 2021.72 153.522 Q2022.4 153.522 2022.93 153.92 Q2023.5 154.318 2023.5 155.185 Q2023.5 156.145 2022.84 156.871 Q2022.18 157.597 2021.25 157.785 Q2022.21 158.394 2023.64 158.394 Q2025.18 158.394 2026.4 157.035 Q2027.62 155.677 2028.2 153.405 Q2029.66 147.947 2030.22 145.511 Q2030.78 143.052 2030.78 141.998 Q2030.78 141.014 2030.52 140.335 Q2030.27 139.656 2029.82 139.351 Q2029.4 139.023 2029 138.906 Q2028.63 138.789 2028.2 138.789 Q2027.5 138.789 2026.71 139.07 Q2025.93 139.351 2025 140.007 Q2024.08 140.64 2023.22 141.951 Q2022.35 143.263 2021.76 145.066 Q2021.65 145.605 2021.13 145.605 Q2020.57 145.582 2020.57 145.113 Q2020.57 144.715 2020.87 143.895 Q2021.2 143.052 2021.86 141.998 Q2022.54 140.944 2023.4 140.007 Q2024.29 139.047 2025.58 138.391 Q2026.89 137.735 2028.3 137.735 Q2028.93 137.735 2029.54 137.876 Q2030.17 137.993 2030.92 138.344 Q2031.69 138.696 2032.37 139.469 Q2033.05 140.241 2033.47 141.366 Q2033.76 140.827 2034.13 140.312 Q2034.53 139.796 2035.14 139.164 Q2035.77 138.508 2036.64 138.133 Q2037.53 137.735 2038.51 137.735 Q2039.47 137.735 2040.41 137.993 Q2041.34 138.227 2042.14 139 Q2042.96 139.75 2042.96 140.897 Z" fill="#000000" fill-rule="nonzero" fill-opacity="1" /><path clip-path="url(#clip780)" d="M2047.57 170.456 Q2047.57 170.222 2048.18 169.637 Q2055.91 161.767 2055.91 146.94 Q2055.91 132.067 2048.49 124.548 Q2047.57 123.682 2047.57 123.424 Q2047.57 122.956 2048.04 122.956 Q2048.37 122.956 2049.52 123.916 Q2050.69 124.876 2052.44 127.078 Q2054.22 129.28 2055.54 131.973 Q2058.7 138.508 2058.7 146.94 Q2058.7 155.044 2055.68 161.579 Q2054.39 164.32 2052.59 166.615 Q2050.78 168.911 2049.59 169.918 Q2048.39 170.925 2048.04 170.925 Q2047.57 170.925 2047.57 170.456 Z" fill="#000000" fill-rule="nonzero" fill-opacity="1" /><polyline clip-path="url(#clip780)" style="stroke:#e26f46; stroke-linecap:round; stroke-linejoin:round; stroke-width:4; stroke-opacity:1; fill:none" points="1602.74,198.898 1749.76,198.898 "/>
<path clip-path="url(#clip780)" d="M1774.84 184.847 L1795.07 184.847 L1795.07 188.736 L1779.05 207.37 L1795.07 207.37 L1795.07 210.773 L1774.26 210.773 L1774.26 206.884 L1790.28 188.25 L1774.84 188.25 L1774.84 184.847 Z" fill="#000000" fill-rule="nonzero" fill-opacity="1" /><path clip-path="url(#clip780)" d="M1801.57 174.754 L1805.83 174.754 L1805.83 210.773 L1801.57 210.773 L1801.57 174.754 Z" fill="#000000" fill-rule="nonzero" fill-opacity="1" /><path clip-path="url(#clip780)" d="M1836.92 196.745 L1836.92 198.828 L1817.34 198.828 Q1817.62 203.226 1819.98 205.541 Q1822.36 207.833 1826.6 207.833 Q1829.05 207.833 1831.34 207.231 Q1833.66 206.629 1835.93 205.425 L1835.93 209.453 Q1833.63 210.425 1831.23 210.935 Q1828.82 211.444 1826.34 211.444 Q1820.14 211.444 1816.51 207.833 Q1812.89 204.222 1812.89 198.064 Q1812.89 191.699 1816.32 187.972 Q1819.77 184.222 1825.6 184.222 Q1830.83 184.222 1833.87 187.601 Q1836.92 190.958 1836.92 196.745 M1832.66 195.495 Q1832.62 192 1830.69 189.916 Q1828.8 187.833 1825.65 187.833 Q1822.08 187.833 1819.93 189.847 Q1817.8 191.861 1817.48 195.518 L1832.66 195.495 Z" fill="#000000" fill-rule="nonzero" fill-opacity="1" /><path clip-path="url(#clip780)" d="M1848.03 206.884 L1848.03 220.634 L1843.75 220.634 L1843.75 184.847 L1848.03 184.847 L1848.03 188.782 Q1849.38 186.467 1851.41 185.356 Q1853.47 184.222 1856.32 184.222 Q1861.04 184.222 1863.98 187.972 Q1866.94 191.722 1866.94 197.833 Q1866.94 203.944 1863.98 207.694 Q1861.04 211.444 1856.32 211.444 Q1853.47 211.444 1851.41 210.333 Q1849.38 209.198 1848.03 206.884 M1862.52 197.833 Q1862.52 193.134 1860.58 190.472 Q1858.66 187.787 1855.28 187.787 Q1851.9 187.787 1849.95 190.472 Q1848.03 193.134 1848.03 197.833 Q1848.03 202.532 1849.95 205.217 Q1851.9 207.879 1855.28 207.879 Q1858.66 207.879 1860.58 205.217 Q1862.52 202.532 1862.52 197.833 Z" fill="#000000" fill-rule="nonzero" fill-opacity="1" /><path clip-path="url(#clip780)" d="M1896.18 196.745 L1896.18 198.828 L1876.6 198.828 Q1876.88 203.226 1879.24 205.541 Q1881.62 207.833 1885.86 207.833 Q1888.31 207.833 1890.6 207.231 Q1892.92 206.629 1895.19 205.425 L1895.19 209.453 Q1892.89 210.425 1890.49 210.935 Q1888.08 211.444 1885.6 211.444 Q1879.4 211.444 1875.76 207.833 Q1872.15 204.222 1872.15 198.064 Q1872.15 191.699 1875.58 187.972 Q1879.03 184.222 1884.86 184.222 Q1890.09 184.222 1893.13 187.601 Q1896.18 190.958 1896.18 196.745 M1891.92 195.495 Q1891.88 192 1889.95 189.916 Q1888.06 187.833 1884.91 187.833 Q1881.34 187.833 1879.19 189.847 Q1877.06 191.861 1876.74 195.518 L1891.92 195.495 Z" fill="#000000" fill-rule="nonzero" fill-opacity="1" /><path clip-path="url(#clip780)" d="M1903.01 174.754 L1907.29 174.754 L1907.29 196.027 L1920 184.847 L1925.44 184.847 L1911.69 196.976 L1926.02 210.773 L1920.46 210.773 L1907.29 198.111 L1907.29 210.773 L1903.01 210.773 L1903.01 174.754 Z" fill="#000000" fill-rule="nonzero" fill-opacity="1" /><path clip-path="url(#clip780)" d="M1973.13 178.45 Q1973.13 178.59 1972.99 179.152 L1946.17 209.133 L1954.37 209.133 Q1956.78 209.133 1958.61 208.711 Q1960.43 208.266 1961.7 207.517 Q1962.96 206.767 1963.95 205.479 Q1964.95 204.167 1965.61 202.739 Q1966.27 201.286 1966.94 199.155 Q1967.2 198.335 1967.32 198.148 Q1967.44 197.96 1967.74 197.96 Q1968.05 197.96 1968.21 198.148 Q1968.37 198.312 1968.37 198.499 Q1968.37 198.593 1968.33 198.733 Q1968.3 198.851 1968.26 198.991 Q1968.21 199.132 1968.19 199.202 L1964.77 209.812 Q1964.56 210.491 1964.34 210.632 Q1964.13 210.773 1963.29 210.773 L1942.42 210.773 Q1941.7 210.773 1941.46 210.726 Q1941.23 210.655 1941.23 210.351 L1941.41 209.484 L1968.23 179.504 L1960.41 179.504 Q1958.21 179.504 1956.47 179.902 Q1954.76 180.277 1953.55 180.979 Q1952.33 181.658 1951.39 182.806 Q1950.46 183.93 1949.82 185.242 Q1949.19 186.53 1948.6 188.334 L1948.53 188.451 Q1948.46 188.568 1948.42 188.638 Q1948.37 188.685 1948.25 188.755 Q1948.14 188.802 1948 188.802 Q1947.74 188.802 1947.57 188.662 Q1947.43 188.521 1947.43 188.381 L1947.41 188.264 Q1947.46 187.842 1947.55 187.608 L1950.2 178.965 Q1950.41 178.286 1950.62 178.145 Q1950.83 178.005 1951.67 178.005 L1971.93 178.005 Q1972.68 178.005 1972.89 178.075 Q1973.13 178.145 1973.13 178.45 Z" fill="#000000" fill-rule="nonzero" fill-opacity="1" /><path clip-path="url(#clip780)" d="M1978.07 198.78 Q1978.07 190.676 1981.09 184.141 Q1982.38 181.401 1984.18 179.105 Q1985.98 176.81 1987.18 175.803 Q1988.37 174.796 1988.7 174.796 Q1989.17 174.796 1989.19 175.264 Q1989.19 175.498 1988.56 176.084 Q1980.83 183.954 1980.85 198.78 Q1980.85 213.654 1988.37 221.219 Q1989.19 222.039 1989.19 222.296 Q1989.19 222.765 1988.7 222.765 Q1988.37 222.765 1987.23 221.805 Q1986.08 220.844 1984.3 218.642 Q1982.52 216.441 1981.23 213.747 Q1978.07 207.212 1978.07 198.78 Z" fill="#000000" fill-rule="nonzero" fill-opacity="1" /><path clip-path="url(#clip780)" d="M2016.73 192.737 Q2016.73 194.049 2015.91 194.798 Q2015.09 195.525 2014.15 195.525 Q2013.26 195.525 2012.79 195.009 Q2012.32 194.494 2012.32 193.838 Q2012.32 192.948 2012.98 192.175 Q2013.63 191.402 2014.62 191.238 Q2013.66 190.629 2012.23 190.629 Q2011.29 190.629 2010.47 191.121 Q2009.68 191.613 2009.18 192.245 Q2008.71 192.878 2008.29 193.791 Q2007.9 194.681 2007.73 195.22 Q2007.59 195.735 2007.47 196.297 L2005.83 202.856 Q2005.04 205.971 2005.04 207.072 Q2005.04 208.43 2005.69 209.344 Q2006.35 210.234 2007.66 210.234 Q2008.18 210.234 2008.76 210.093 Q2009.35 209.929 2010.1 209.508 Q2010.87 209.063 2011.55 208.407 Q2012.25 207.728 2012.93 206.58 Q2013.61 205.432 2014.06 203.957 Q2014.2 203.441 2014.66 203.441 Q2015.25 203.441 2015.25 203.91 Q2015.25 204.308 2014.92 205.151 Q2014.62 205.971 2013.94 207.048 Q2013.28 208.102 2012.42 209.063 Q2011.55 210 2010.26 210.655 Q2008.97 211.311 2007.57 211.311 Q2005.55 211.311 2004.22 210.234 Q2002.88 209.156 2002.39 207.657 Q2002.27 207.868 2002.11 208.149 Q2001.95 208.43 2001.45 209.063 Q2000.99 209.672 2000.45 210.14 Q1999.91 210.585 1999.06 210.937 Q1998.25 211.311 1997.36 211.311 Q1996.23 211.311 1995.22 210.983 Q1994.24 210.655 1993.54 209.906 Q1992.83 209.156 1992.83 208.126 Q1992.83 206.978 1993.61 206.182 Q1994.4 205.362 1995.48 205.362 Q1996.16 205.362 1996.7 205.76 Q1997.26 206.158 1997.26 207.025 Q1997.26 207.985 1996.61 208.711 Q1995.95 209.437 1995.01 209.625 Q1995.97 210.234 1997.4 210.234 Q1998.95 210.234 2000.17 208.875 Q2001.38 207.517 2001.97 205.245 Q2003.42 199.787 2003.98 197.351 Q2004.55 194.892 2004.55 193.838 Q2004.55 192.854 2004.29 192.175 Q2004.03 191.496 2003.59 191.191 Q2003.16 190.863 2002.77 190.746 Q2002.39 190.629 2001.97 190.629 Q2001.27 190.629 2000.47 190.91 Q1999.7 191.191 1998.76 191.847 Q1997.85 192.48 1996.98 193.791 Q1996.11 195.103 1995.53 196.906 Q1995.41 197.445 1994.9 197.445 Q1994.33 197.422 1994.33 196.953 Q1994.33 196.555 1994.64 195.735 Q1994.97 194.892 1995.62 193.838 Q1996.3 192.784 1997.17 191.847 Q1998.06 190.887 1999.35 190.231 Q2000.66 189.575 2002.06 189.575 Q2002.7 189.575 2003.3 189.716 Q2003.94 189.833 2004.69 190.184 Q2005.46 190.536 2006.14 191.309 Q2006.82 192.081 2007.24 193.206 Q2007.52 192.667 2007.9 192.152 Q2008.29 191.636 2008.9 191.004 Q2009.53 190.348 2010.4 189.973 Q2011.29 189.575 2012.28 189.575 Q2013.24 189.575 2014.17 189.833 Q2015.11 190.067 2015.91 190.84 Q2016.73 191.59 2016.73 192.737 Z" fill="#000000" fill-rule="nonzero" fill-opacity="1" /><path clip-path="url(#clip780)" d="M2021.34 222.296 Q2021.34 222.062 2021.95 221.477 Q2029.68 213.607 2029.68 198.78 Q2029.68 183.907 2022.25 176.388 Q2021.34 175.522 2021.34 175.264 Q2021.34 174.796 2021.81 174.796 Q2022.13 174.796 2023.28 175.756 Q2024.45 176.716 2026.21 178.918 Q2027.99 181.12 2029.3 183.813 Q2032.46 190.348 2032.46 198.78 Q2032.46 206.884 2029.44 213.419 Q2028.15 216.16 2026.35 218.455 Q2024.55 220.751 2023.35 221.758 Q2022.16 222.765 2021.81 222.765 Q2021.34 222.765 2021.34 222.296 Z" fill="#000000" fill-rule="nonzero" fill-opacity="1" /><circle clip-path="url(#clip780)" cx="1676.25" cy="250.738" r="20.48" fill="#3da44d" fill-rule="evenodd" fill-opacity="1" stroke="#000000" stroke-opacity="1" stroke-width="4.55111"/>
<path clip-path="url(#clip780)" d="M1774.26 242.092 L1778.52 242.092 L1778.52 268.018 L1774.26 268.018 L1774.26 242.092 M1774.26 231.999 L1778.52 231.999 L1778.52 237.393 L1774.26 237.393 L1774.26 231.999 Z" fill="#000000" fill-rule="nonzero" fill-opacity="1" /><path clip-path="url(#clip780)" d="M1808.98 252.369 L1808.98 268.018 L1804.72 268.018 L1804.72 252.508 Q1804.72 248.828 1803.29 246.999 Q1801.85 245.17 1798.98 245.17 Q1795.53 245.17 1793.54 247.37 Q1791.55 249.569 1791.55 253.365 L1791.55 268.018 L1787.27 268.018 L1787.27 242.092 L1791.55 242.092 L1791.55 246.12 Q1793.08 243.782 1795.14 242.624 Q1797.22 241.467 1799.93 241.467 Q1804.4 241.467 1806.69 244.245 Q1808.98 246.999 1808.98 252.369 Z" fill="#000000" fill-rule="nonzero" fill-opacity="1" /><path clip-path="url(#clip780)" d="M1821.69 234.731 L1821.69 242.092 L1830.46 242.092 L1830.46 245.402 L1821.69 245.402 L1821.69 259.476 Q1821.69 262.647 1822.55 263.55 Q1823.43 264.453 1826.09 264.453 L1830.46 264.453 L1830.46 268.018 L1826.09 268.018 Q1821.16 268.018 1819.28 266.189 Q1817.41 264.337 1817.41 259.476 L1817.41 245.402 L1814.28 245.402 L1814.28 242.092 L1817.41 242.092 L1817.41 234.731 L1821.69 234.731 Z" fill="#000000" fill-rule="nonzero" fill-opacity="1" /><path clip-path="url(#clip780)" d="M1858.24 253.99 L1858.24 256.073 L1838.66 256.073 Q1838.94 260.471 1841.3 262.786 Q1843.68 265.078 1847.92 265.078 Q1850.37 265.078 1852.66 264.476 Q1854.98 263.874 1857.25 262.67 L1857.25 266.698 Q1854.95 267.67 1852.55 268.18 Q1850.14 268.689 1847.66 268.689 Q1841.46 268.689 1837.82 265.078 Q1834.21 261.467 1834.21 255.309 Q1834.21 248.944 1837.64 245.217 Q1841.09 241.467 1846.92 241.467 Q1852.15 241.467 1855.19 244.846 Q1858.24 248.203 1858.24 253.99 M1853.98 252.74 Q1853.94 249.245 1852.01 247.161 Q1850.12 245.078 1846.97 245.078 Q1843.4 245.078 1841.25 247.092 Q1839.12 249.106 1838.8 252.763 L1853.98 252.74 Z" fill="#000000" fill-rule="nonzero" fill-opacity="1" /><path clip-path="url(#clip780)" d="M1880.25 246.073 Q1879.54 245.657 1878.68 245.471 Q1877.85 245.263 1876.83 245.263 Q1873.22 245.263 1871.27 247.624 Q1869.35 249.962 1869.35 254.36 L1869.35 268.018 L1865.07 268.018 L1865.07 242.092 L1869.35 242.092 L1869.35 246.12 Q1870.69 243.758 1872.85 242.624 Q1875 241.467 1878.08 241.467 Q1878.52 241.467 1879.05 241.536 Q1879.58 241.583 1880.23 241.698 L1880.25 246.073 Z" fill="#000000" fill-rule="nonzero" fill-opacity="1" /><path clip-path="url(#clip780)" d="M1888.84 264.129 L1888.84 277.879 L1884.56 277.879 L1884.56 242.092 L1888.84 242.092 L1888.84 246.027 Q1890.19 243.712 1892.22 242.601 Q1894.28 241.467 1897.13 241.467 Q1901.85 241.467 1904.79 245.217 Q1907.75 248.967 1907.75 255.078 Q1907.75 261.189 1904.79 264.939 Q1901.85 268.689 1897.13 268.689 Q1894.28 268.689 1892.22 267.578 Q1890.19 266.443 1888.84 264.129 M1903.33 255.078 Q1903.33 250.379 1901.39 247.717 Q1899.47 245.032 1896.09 245.032 Q1892.71 245.032 1890.76 247.717 Q1888.84 250.379 1888.84 255.078 Q1888.84 259.777 1890.76 262.462 Q1892.71 265.124 1896.09 265.124 Q1899.47 265.124 1901.39 262.462 Q1903.33 259.777 1903.33 255.078 Z" fill="#000000" fill-rule="nonzero" fill-opacity="1" /><path clip-path="url(#clip780)" d="M1924.86 245.078 Q1921.44 245.078 1919.44 247.763 Q1917.45 250.425 1917.45 255.078 Q1917.45 259.731 1919.42 262.416 Q1921.41 265.078 1924.86 265.078 Q1928.26 265.078 1930.25 262.393 Q1932.25 259.707 1932.25 255.078 Q1932.25 250.471 1930.25 247.786 Q1928.26 245.078 1924.86 245.078 M1924.86 241.467 Q1930.42 241.467 1933.59 245.078 Q1936.76 248.689 1936.76 255.078 Q1936.76 261.444 1933.59 265.078 Q1930.42 268.689 1924.86 268.689 Q1919.28 268.689 1916.11 265.078 Q1912.96 261.444 1912.96 255.078 Q1912.96 248.689 1916.11 245.078 Q1919.28 241.467 1924.86 241.467 Z" fill="#000000" fill-rule="nonzero" fill-opacity="1" /><path clip-path="url(#clip780)" d="M1943.82 231.999 L1948.08 231.999 L1948.08 268.018 L1943.82 268.018 L1943.82 231.999 Z" fill="#000000" fill-rule="nonzero" fill-opacity="1" /><path clip-path="url(#clip780)" d="M1968.77 254.985 Q1963.61 254.985 1961.62 256.166 Q1959.63 257.346 1959.63 260.194 Q1959.63 262.462 1961.11 263.805 Q1962.62 265.124 1965.18 265.124 Q1968.73 265.124 1970.86 262.624 Q1973.01 260.101 1973.01 255.934 L1973.01 254.985 L1968.77 254.985 M1977.27 253.226 L1977.27 268.018 L1973.01 268.018 L1973.01 264.082 Q1971.55 266.443 1969.37 267.578 Q1967.2 268.689 1964.05 268.689 Q1960.07 268.689 1957.71 266.467 Q1955.37 264.221 1955.37 260.471 Q1955.37 256.096 1958.29 253.874 Q1961.23 251.652 1967.04 251.652 L1973.01 251.652 L1973.01 251.235 Q1973.01 248.295 1971.06 246.698 Q1969.14 245.078 1965.65 245.078 Q1963.43 245.078 1961.32 245.61 Q1959.21 246.143 1957.27 247.207 L1957.27 243.272 Q1959.61 242.37 1961.81 241.93 Q1964 241.467 1966.09 241.467 Q1971.71 241.467 1974.49 244.383 Q1977.27 247.3 1977.27 253.226 Z" fill="#000000" fill-rule="nonzero" fill-opacity="1" /><path clip-path="url(#clip780)" d="M2004.7 243.087 L2004.7 247.069 Q2002.89 246.073 2001.06 245.587 Q1999.26 245.078 1997.41 245.078 Q1993.26 245.078 1990.97 247.717 Q1988.68 250.332 1988.68 255.078 Q1988.68 259.823 1990.97 262.462 Q1993.26 265.078 1997.41 265.078 Q1999.26 265.078 2001.06 264.592 Q2002.89 264.082 2004.7 263.087 L2004.7 267.022 Q2002.92 267.856 2000.99 268.272 Q1999.1 268.689 1996.94 268.689 Q1991.09 268.689 1987.64 265.008 Q1984.19 261.328 1984.19 255.078 Q1984.19 248.735 1987.66 245.101 Q1991.16 241.467 1997.22 241.467 Q1999.19 241.467 2001.06 241.883 Q2002.94 242.277 2004.7 243.087 Z" fill="#000000" fill-rule="nonzero" fill-opacity="1" /><path clip-path="url(#clip780)" d="M2012.11 242.092 L2016.37 242.092 L2016.37 268.018 L2012.11 268.018 L2012.11 242.092 M2012.11 231.999 L2016.37 231.999 L2016.37 237.393 L2012.11 237.393 L2012.11 231.999 Z" fill="#000000" fill-rule="nonzero" fill-opacity="1" /><path clip-path="url(#clip780)" d="M2025.28 242.092 L2029.54 242.092 L2029.54 268.481 Q2029.54 273.434 2027.64 275.656 Q2025.76 277.879 2021.57 277.879 L2019.95 277.879 L2019.95 274.268 L2021.09 274.268 Q2023.52 274.268 2024.4 273.133 Q2025.28 272.022 2025.28 268.481 L2025.28 242.092 M2025.28 231.999 L2029.54 231.999 L2029.54 237.393 L2025.28 237.393 L2025.28 231.999 Z" fill="#000000" fill-rule="nonzero" fill-opacity="1" /><path clip-path="url(#clip780)" d="M2054.98 242.856 L2054.98 246.883 Q2053.17 245.957 2051.23 245.495 Q2049.28 245.032 2047.2 245.032 Q2044.03 245.032 2042.43 246.004 Q2040.86 246.976 2040.86 248.92 Q2040.86 250.402 2041.99 251.258 Q2043.12 252.092 2046.55 252.856 L2048.01 253.18 Q2052.55 254.152 2054.44 255.934 Q2056.36 257.694 2056.36 260.865 Q2056.36 264.476 2053.49 266.582 Q2050.65 268.689 2045.65 268.689 Q2043.56 268.689 2041.3 268.272 Q2039.05 267.879 2036.55 267.068 L2036.55 262.67 Q2038.91 263.897 2041.2 264.522 Q2043.49 265.124 2045.74 265.124 Q2048.75 265.124 2050.37 264.106 Q2051.99 263.064 2051.99 261.189 Q2051.99 259.453 2050.81 258.527 Q2049.65 257.601 2045.69 256.744 L2044.21 256.397 Q2040.25 255.564 2038.49 253.851 Q2036.74 252.115 2036.74 249.106 Q2036.74 245.448 2039.33 243.458 Q2041.92 241.467 2046.69 241.467 Q2049.05 241.467 2051.13 241.814 Q2053.22 242.161 2054.98 242.856 Z" fill="#000000" fill-rule="nonzero" fill-opacity="1" /><path clip-path="url(#clip780)" d="M2062.99 231.999 L2067.27 231.999 L2067.27 253.272 L2079.98 242.092 L2085.42 242.092 L2071.67 254.221 L2085.99 268.018 L2080.44 268.018 L2067.27 255.356 L2067.27 268.018 L2062.99 268.018 L2062.99 231.999 Z" fill="#000000" fill-rule="nonzero" fill-opacity="1" /><path clip-path="url(#clip780)" d="M2111.09 253.99 L2111.09 256.073 L2091.5 256.073 Q2091.78 260.471 2094.14 262.786 Q2096.53 265.078 2100.76 265.078 Q2103.22 265.078 2105.51 264.476 Q2107.82 263.874 2110.09 262.67 L2110.09 266.698 Q2107.8 267.67 2105.39 268.18 Q2102.99 268.689 2100.51 268.689 Q2094.3 268.689 2090.67 265.078 Q2087.06 261.467 2087.06 255.309 Q2087.06 248.944 2090.49 245.217 Q2093.93 241.467 2099.77 241.467 Q2105 241.467 2108.03 244.846 Q2111.09 248.203 2111.09 253.99 M2106.83 252.74 Q2106.78 249.245 2104.86 247.161 Q2102.96 245.078 2099.81 245.078 Q2096.25 245.078 2094.1 247.092 Q2091.97 249.106 2091.64 252.763 L2106.83 252.74 Z" fill="#000000" fill-rule="nonzero" fill-opacity="1" /><path clip-path="url(#clip780)" d="M2137.36 234.731 L2137.36 242.092 L2146.13 242.092 L2146.13 245.402 L2137.36 245.402 L2137.36 259.476 Q2137.36 262.647 2138.22 263.55 Q2139.1 264.453 2141.76 264.453 L2146.13 264.453 L2146.13 268.018 L2141.76 268.018 Q2136.83 268.018 2134.95 266.189 Q2133.08 264.337 2133.08 259.476 L2133.08 245.402 L2129.95 245.402 L2129.95 242.092 L2133.08 242.092 L2133.08 234.731 L2137.36 234.731 Z" fill="#000000" fill-rule="nonzero" fill-opacity="1" /><path clip-path="url(#clip780)" d="M2161.78 245.078 Q2158.36 245.078 2156.36 247.763 Q2154.37 250.425 2154.37 255.078 Q2154.37 259.731 2156.34 262.416 Q2158.33 265.078 2161.78 265.078 Q2165.18 265.078 2167.17 262.393 Q2169.17 259.707 2169.17 255.078 Q2169.17 250.471 2167.17 247.786 Q2165.18 245.078 2161.78 245.078 M2161.78 241.467 Q2167.34 241.467 2170.51 245.078 Q2173.68 248.689 2173.68 255.078 Q2173.68 261.444 2170.51 265.078 Q2167.34 268.689 2161.78 268.689 Q2156.2 268.689 2153.03 265.078 Q2149.88 261.444 2149.88 255.078 Q2149.88 248.689 2153.03 245.078 Q2156.2 241.467 2161.78 241.467 Z" fill="#000000" fill-rule="nonzero" fill-opacity="1" /><path clip-path="url(#clip780)" d="M2199.4 243.087 L2199.4 247.069 Q2197.59 246.073 2195.76 245.587 Q2193.96 245.078 2192.1 245.078 Q2187.96 245.078 2185.67 247.717 Q2183.38 250.332 2183.38 255.078 Q2183.38 259.823 2185.67 262.462 Q2187.96 265.078 2192.1 265.078 Q2193.96 265.078 2195.76 264.592 Q2197.59 264.082 2199.4 263.087 L2199.4 267.022 Q2197.61 267.856 2195.69 268.272 Q2193.79 268.689 2191.64 268.689 Q2185.79 268.689 2182.34 265.008 Q2178.89 261.328 2178.89 255.078 Q2178.89 248.735 2182.36 245.101 Q2185.86 241.467 2191.92 241.467 Q2193.89 241.467 2195.76 241.883 Q2197.64 242.277 2199.4 243.087 M2189.58 238.805 L2183.91 230.101 L2187.13 230.101 L2191.29 235.772 L2195.46 230.101 L2198.68 230.101 L2193.01 238.805 L2189.58 238.805 Z" fill="#000000" fill-rule="nonzero" fill-opacity="1" /><path clip-path="url(#clip780)" d="M2206.64 231.999 L2210.92 231.999 L2210.92 253.272 L2223.63 242.092 L2229.07 242.092 L2215.32 254.221 L2229.65 268.018 L2224.1 268.018 L2210.92 255.356 L2210.92 268.018 L2206.64 268.018 L2206.64 231.999 Z" fill="#000000" fill-rule="nonzero" fill-opacity="1" /><path clip-path="url(#clip780)" d="M2254.74 253.99 L2254.74 256.073 L2235.16 256.073 Q2235.44 260.471 2237.8 262.786 Q2240.18 265.078 2244.42 265.078 Q2246.87 265.078 2249.16 264.476 Q2251.48 263.874 2253.75 262.67 L2253.75 266.698 Q2251.46 267.67 2249.05 268.18 Q2246.64 268.689 2244.16 268.689 Q2237.96 268.689 2234.33 265.078 Q2230.72 261.467 2230.72 255.309 Q2230.72 248.944 2234.14 245.217 Q2237.59 241.467 2243.42 241.467 Q2248.66 241.467 2251.69 244.846 Q2254.74 248.203 2254.74 253.99 M2250.48 252.74 Q2250.44 249.245 2248.52 247.161 Q2246.62 245.078 2243.47 245.078 Q2239.91 245.078 2237.75 247.092 Q2235.62 249.106 2235.3 252.763 L2250.48 252.74 Z" fill="#000000" fill-rule="nonzero" fill-opacity="1" /></svg>
