<?xml version="1.0" encoding="utf-8"?>
<svg xmlns="http://www.w3.org/2000/svg" xmlns:xlink="http://www.w3.org/1999/xlink" width="600" height="400" viewBox="0 0 2400 1600">
<defs>
  <clipPath id="clip680">
    <rect x="0" y="0" width="2400" height="1600"/>
  </clipPath>
</defs>
<path clip-path="url(#clip680)" d="M0 1600 L2400 1600 L2400 0 L0 0  Z" fill="#ffffff" fill-rule="evenodd" fill-opacity="1"/>
<defs>
  <clipPath id="clip681">
    <rect x="480" y="0" width="1681" height="1600"/>
  </clipPath>
</defs>
<path clip-path="url(#clip680)" d="M254.26 1486.45 L2352.76 1486.45 L2352.76 47.2441 L254.26 47.2441  Z" fill="#ffffff" fill-rule="evenodd" fill-opacity="1"/>
<defs>
  <clipPath id="clip682">
    <rect x="254" y="47" width="2099" height="1440"/>
  </clipPath>
</defs>
<polyline clip-path="url(#clip682)" style="stroke:#000000; stroke-linecap:round; stroke-linejoin:round; stroke-width:2; stroke-opacity:0.1; fill:none" points="313.651,1486.45 313.651,47.2441 "/>
<polyline clip-path="url(#clip682)" style="stroke:#000000; stroke-linecap:round; stroke-linejoin:round; stroke-width:2; stroke-opacity:0.1; fill:none" points="973.556,1486.45 973.556,47.2441 "/>
<polyline clip-path="url(#clip682)" style="stroke:#000000; stroke-linecap:round; stroke-linejoin:round; stroke-width:2; stroke-opacity:0.1; fill:none" points="1633.46,1486.45 1633.46,47.2441 "/>
<polyline clip-path="url(#clip682)" style="stroke:#000000; stroke-linecap:round; stroke-linejoin:round; stroke-width:2; stroke-opacity:0.1; fill:none" points="2293.36,1486.45 2293.36,47.2441 "/>
<polyline clip-path="url(#clip680)" style="stroke:#000000; stroke-linecap:round; stroke-linejoin:round; stroke-width:4; stroke-opacity:1; fill:none" points="254.26,1486.45 2352.76,1486.45 "/>
<polyline clip-path="url(#clip680)" style="stroke:#000000; stroke-linecap:round; stroke-linejoin:round; stroke-width:4; stroke-opacity:1; fill:none" points="313.651,1486.45 313.651,1467.55 "/>
<polyline clip-path="url(#clip680)" style="stroke:#000000; stroke-linecap:round; stroke-linejoin:round; stroke-width:4; stroke-opacity:1; fill:none" points="973.556,1486.45 973.556,1467.55 "/>
<polyline clip-path="url(#clip680)" style="stroke:#000000; stroke-linecap:round; stroke-linejoin:round; stroke-width:4; stroke-opacity:1; fill:none" points="1633.46,1486.45 1633.46,1467.55 "/>
<polyline clip-path="url(#clip680)" style="stroke:#000000; stroke-linecap:round; stroke-linejoin:round; stroke-width:4; stroke-opacity:1; fill:none" points="2293.36,1486.45 2293.36,1467.55 "/>
<path clip-path="url(#clip680)" d="M313.651 1517.37 Q310.04 1517.37 308.211 1520.93 Q306.406 1524.47 306.406 1531.6 Q306.406 1538.71 308.211 1542.27 Q310.04 1545.82 313.651 1545.82 Q317.285 1545.82 319.091 1542.27 Q320.92 1538.71 320.92 1531.6 Q320.92 1524.47 319.091 1520.93 Q317.285 1517.37 313.651 1517.37 M313.651 1513.66 Q319.461 1513.66 322.517 1518.27 Q325.596 1522.85 325.596 1531.6 Q325.596 1540.33 322.517 1544.94 Q319.461 1549.52 313.651 1549.52 Q307.841 1549.52 304.762 1544.94 Q301.707 1540.33 301.707 1531.6 Q301.707 1522.85 304.762 1518.27 Q307.841 1513.66 313.651 1513.66 Z" fill="#000000" fill-rule="nonzero" fill-opacity="1" /><path clip-path="url(#clip680)" d="M963.938 1544.91 L971.576 1544.91 L971.576 1518.55 L963.266 1520.21 L963.266 1515.95 L971.53 1514.29 L976.206 1514.29 L976.206 1544.91 L983.845 1544.91 L983.845 1548.85 L963.938 1548.85 L963.938 1544.91 Z" fill="#000000" fill-rule="nonzero" fill-opacity="1" /><path clip-path="url(#clip680)" d="M1628.11 1544.91 L1644.43 1544.91 L1644.43 1548.85 L1622.49 1548.85 L1622.49 1544.91 Q1625.15 1542.16 1629.73 1537.53 Q1634.34 1532.88 1635.52 1531.53 Q1637.77 1529.01 1638.65 1527.27 Q1639.55 1525.51 1639.55 1523.82 Q1639.55 1521.07 1637.6 1519.33 Q1635.68 1517.6 1632.58 1517.6 Q1630.38 1517.6 1627.93 1518.36 Q1625.5 1519.13 1622.72 1520.68 L1622.72 1515.95 Q1625.54 1514.82 1628 1514.24 Q1630.45 1513.66 1632.49 1513.66 Q1637.86 1513.66 1641.05 1516.35 Q1644.25 1519.03 1644.25 1523.52 Q1644.25 1525.65 1643.44 1527.57 Q1642.65 1529.47 1640.54 1532.07 Q1639.96 1532.74 1636.86 1535.95 Q1633.76 1539.15 1628.11 1544.91 Z" fill="#000000" fill-rule="nonzero" fill-opacity="1" /><path clip-path="url(#clip680)" d="M2297.61 1530.21 Q2300.97 1530.93 2302.84 1533.2 Q2304.74 1535.47 2304.74 1538.8 Q2304.74 1543.92 2301.22 1546.72 Q2297.7 1549.52 2291.22 1549.52 Q2289.05 1549.52 2286.73 1549.08 Q2284.44 1548.66 2281.99 1547.81 L2281.99 1543.29 Q2283.93 1544.43 2286.25 1545.01 Q2288.56 1545.58 2291.08 1545.58 Q2295.48 1545.58 2297.77 1543.85 Q2300.09 1542.11 2300.09 1538.8 Q2300.09 1535.75 2297.94 1534.03 Q2295.81 1532.3 2291.99 1532.3 L2287.96 1532.3 L2287.96 1528.45 L2292.17 1528.45 Q2295.62 1528.45 2297.45 1527.09 Q2299.28 1525.7 2299.28 1523.11 Q2299.28 1520.45 2297.38 1519.03 Q2295.51 1517.6 2291.99 1517.6 Q2290.07 1517.6 2287.87 1518.01 Q2285.67 1518.43 2283.03 1519.31 L2283.03 1515.14 Q2285.69 1514.4 2288.01 1514.03 Q2290.34 1513.66 2292.4 1513.66 Q2297.73 1513.66 2300.83 1516.09 Q2303.93 1518.5 2303.93 1522.62 Q2303.93 1525.49 2302.29 1527.48 Q2300.64 1529.45 2297.61 1530.21 Z" fill="#000000" fill-rule="nonzero" fill-opacity="1" /><polyline clip-path="url(#clip682)" style="stroke:#000000; stroke-linecap:round; stroke-linejoin:round; stroke-width:2; stroke-opacity:0.1; fill:none" points="254.26,1479.37 2352.76,1479.37 "/>
<polyline clip-path="url(#clip682)" style="stroke:#000000; stroke-linecap:round; stroke-linejoin:round; stroke-width:2; stroke-opacity:0.1; fill:none" points="254.26,1265.7 2352.76,1265.7 "/>
<polyline clip-path="url(#clip682)" style="stroke:#000000; stroke-linecap:round; stroke-linejoin:round; stroke-width:2; stroke-opacity:0.1; fill:none" points="254.26,1052.02 2352.76,1052.02 "/>
<polyline clip-path="url(#clip682)" style="stroke:#000000; stroke-linecap:round; stroke-linejoin:round; stroke-width:2; stroke-opacity:0.1; fill:none" points="254.26,838.344 2352.76,838.344 "/>
<polyline clip-path="url(#clip682)" style="stroke:#000000; stroke-linecap:round; stroke-linejoin:round; stroke-width:2; stroke-opacity:0.1; fill:none" points="254.26,624.667 2352.76,624.667 "/>
<polyline clip-path="url(#clip682)" style="stroke:#000000; stroke-linecap:round; stroke-linejoin:round; stroke-width:2; stroke-opacity:0.1; fill:none" points="254.26,410.991 2352.76,410.991 "/>
<polyline clip-path="url(#clip682)" style="stroke:#000000; stroke-linecap:round; stroke-linejoin:round; stroke-width:2; stroke-opacity:0.1; fill:none" points="254.26,197.314 2352.76,197.314 "/>
<polyline clip-path="url(#clip680)" style="stroke:#000000; stroke-linecap:round; stroke-linejoin:round; stroke-width:4; stroke-opacity:1; fill:none" points="254.26,1486.45 254.26,47.2441 "/>
<polyline clip-path="url(#clip680)" style="stroke:#000000; stroke-linecap:round; stroke-linejoin:round; stroke-width:4; stroke-opacity:1; fill:none" points="254.26,1479.37 273.157,1479.37 "/>
<polyline clip-path="url(#clip680)" style="stroke:#000000; stroke-linecap:round; stroke-linejoin:round; stroke-width:4; stroke-opacity:1; fill:none" points="254.26,1265.7 273.157,1265.7 "/>
<polyline clip-path="url(#clip680)" style="stroke:#000000; stroke-linecap:round; stroke-linejoin:round; stroke-width:4; stroke-opacity:1; fill:none" points="254.26,1052.02 273.157,1052.02 "/>
<polyline clip-path="url(#clip680)" style="stroke:#000000; stroke-linecap:round; stroke-linejoin:round; stroke-width:4; stroke-opacity:1; fill:none" points="254.26,838.344 273.157,838.344 "/>
<polyline clip-path="url(#clip680)" style="stroke:#000000; stroke-linecap:round; stroke-linejoin:round; stroke-width:4; stroke-opacity:1; fill:none" points="254.26,624.667 273.157,624.667 "/>
<polyline clip-path="url(#clip680)" style="stroke:#000000; stroke-linecap:round; stroke-linejoin:round; stroke-width:4; stroke-opacity:1; fill:none" points="254.26,410.991 273.157,410.991 "/>
<polyline clip-path="url(#clip680)" style="stroke:#000000; stroke-linecap:round; stroke-linejoin:round; stroke-width:4; stroke-opacity:1; fill:none" points="254.26,197.314 273.157,197.314 "/>
<path clip-path="url(#clip680)" d="M51.9875 1479.83 L81.6633 1479.83 L81.6633 1483.76 L51.9875 1483.76 L51.9875 1479.83 Z" fill="#000000" fill-rule="nonzero" fill-opacity="1" /><path clip-path="url(#clip680)" d="M101.756 1465.17 Q98.1447 1465.17 96.316 1468.74 Q94.5104 1472.28 94.5104 1479.41 Q94.5104 1486.51 96.316 1490.08 Q98.1447 1493.62 101.756 1493.62 Q105.39 1493.62 107.196 1490.08 Q109.024 1486.51 109.024 1479.41 Q109.024 1472.28 107.196 1468.74 Q105.39 1465.17 101.756 1465.17 M101.756 1461.47 Q107.566 1461.47 110.621 1466.08 Q113.7 1470.66 113.7 1479.41 Q113.7 1488.14 110.621 1492.74 Q107.566 1497.32 101.756 1497.32 Q95.9456 1497.32 92.8669 1492.74 Q89.8114 1488.14 89.8114 1479.41 Q89.8114 1470.66 92.8669 1466.08 Q95.9456 1461.47 101.756 1461.47 Z" fill="#000000" fill-rule="nonzero" fill-opacity="1" /><path clip-path="url(#clip680)" d="M121.918 1490.77 L126.802 1490.77 L126.802 1496.65 L121.918 1496.65 L121.918 1490.77 Z" fill="#000000" fill-rule="nonzero" fill-opacity="1" /><path clip-path="url(#clip680)" d="M146.987 1465.17 Q143.376 1465.17 141.547 1468.74 Q139.742 1472.28 139.742 1479.41 Q139.742 1486.51 141.547 1490.08 Q143.376 1493.62 146.987 1493.62 Q150.621 1493.62 152.427 1490.08 Q154.255 1486.51 154.255 1479.41 Q154.255 1472.28 152.427 1468.74 Q150.621 1465.17 146.987 1465.17 M146.987 1461.47 Q152.797 1461.47 155.853 1466.08 Q158.931 1470.66 158.931 1479.41 Q158.931 1488.14 155.853 1492.74 Q152.797 1497.32 146.987 1497.32 Q141.177 1497.32 138.098 1492.74 Q135.043 1488.14 135.043 1479.41 Q135.043 1470.66 138.098 1466.08 Q141.177 1461.47 146.987 1461.47 Z" fill="#000000" fill-rule="nonzero" fill-opacity="1" /><path clip-path="url(#clip680)" d="M167.959 1492.72 L175.598 1492.72 L175.598 1466.35 L167.288 1468.02 L167.288 1463.76 L175.552 1462.09 L180.228 1462.09 L180.228 1492.72 L187.866 1492.72 L187.866 1496.65 L167.959 1496.65 L167.959 1492.72 Z" fill="#000000" fill-rule="nonzero" fill-opacity="1" /><path clip-path="url(#clip680)" d="M197.357 1462.09 L215.713 1462.09 L215.713 1466.03 L201.639 1466.03 L201.639 1474.5 Q202.658 1474.15 203.676 1473.99 Q204.695 1473.81 205.714 1473.81 Q211.501 1473.81 214.88 1476.98 Q218.26 1480.15 218.26 1485.57 Q218.26 1491.14 214.788 1494.25 Q211.315 1497.32 204.996 1497.32 Q202.82 1497.32 200.552 1496.95 Q198.306 1496.58 195.899 1495.84 L195.899 1491.14 Q197.982 1492.28 200.204 1492.83 Q202.426 1493.39 204.903 1493.39 Q208.908 1493.39 211.246 1491.28 Q213.584 1489.18 213.584 1485.57 Q213.584 1481.95 211.246 1479.85 Q208.908 1477.74 204.903 1477.74 Q203.028 1477.74 201.153 1478.16 Q199.302 1478.58 197.357 1479.45 L197.357 1462.09 Z" fill="#000000" fill-rule="nonzero" fill-opacity="1" /><path clip-path="url(#clip680)" d="M50.9921 1266.15 L80.6679 1266.15 L80.6679 1270.08 L50.9921 1270.08 L50.9921 1266.15 Z" fill="#000000" fill-rule="nonzero" fill-opacity="1" /><path clip-path="url(#clip680)" d="M100.76 1251.5 Q97.1493 1251.5 95.3206 1255.06 Q93.515 1258.6 93.515 1265.73 Q93.515 1272.84 95.3206 1276.4 Q97.1493 1279.94 100.76 1279.94 Q104.395 1279.94 106.2 1276.4 Q108.029 1272.84 108.029 1265.73 Q108.029 1258.6 106.2 1255.06 Q104.395 1251.5 100.76 1251.5 M100.76 1247.79 Q106.571 1247.79 109.626 1252.4 Q112.705 1256.98 112.705 1265.73 Q112.705 1274.46 109.626 1279.07 Q106.571 1283.65 100.76 1283.65 Q94.9502 1283.65 91.8715 1279.07 Q88.816 1274.46 88.816 1265.73 Q88.816 1256.98 91.8715 1252.4 Q94.9502 1247.79 100.76 1247.79 Z" fill="#000000" fill-rule="nonzero" fill-opacity="1" /><path clip-path="url(#clip680)" d="M120.922 1277.1 L125.807 1277.1 L125.807 1282.98 L120.922 1282.98 L120.922 1277.1 Z" fill="#000000" fill-rule="nonzero" fill-opacity="1" /><path clip-path="url(#clip680)" d="M145.992 1251.5 Q142.381 1251.5 140.552 1255.06 Q138.746 1258.6 138.746 1265.73 Q138.746 1272.84 140.552 1276.4 Q142.381 1279.94 145.992 1279.94 Q149.626 1279.94 151.431 1276.4 Q153.26 1272.84 153.26 1265.73 Q153.26 1258.6 151.431 1255.06 Q149.626 1251.5 145.992 1251.5 M145.992 1247.79 Q151.802 1247.79 154.857 1252.4 Q157.936 1256.98 157.936 1265.73 Q157.936 1274.46 154.857 1279.07 Q151.802 1283.65 145.992 1283.65 Q140.181 1283.65 137.103 1279.07 Q134.047 1274.46 134.047 1265.73 Q134.047 1256.98 137.103 1252.4 Q140.181 1247.79 145.992 1247.79 Z" fill="#000000" fill-rule="nonzero" fill-opacity="1" /><path clip-path="url(#clip680)" d="M166.964 1279.04 L174.603 1279.04 L174.603 1252.68 L166.292 1254.34 L166.292 1250.08 L174.556 1248.42 L179.232 1248.42 L179.232 1279.04 L186.871 1279.04 L186.871 1282.98 L166.964 1282.98 L166.964 1279.04 Z" fill="#000000" fill-rule="nonzero" fill-opacity="1" /><path clip-path="url(#clip680)" d="M206.315 1251.5 Q202.704 1251.5 200.876 1255.06 Q199.07 1258.6 199.07 1265.73 Q199.07 1272.84 200.876 1276.4 Q202.704 1279.94 206.315 1279.94 Q209.95 1279.94 211.755 1276.4 Q213.584 1272.84 213.584 1265.73 Q213.584 1258.6 211.755 1255.06 Q209.95 1251.5 206.315 1251.5 M206.315 1247.79 Q212.126 1247.79 215.181 1252.4 Q218.26 1256.98 218.26 1265.73 Q218.26 1274.46 215.181 1279.07 Q212.126 1283.65 206.315 1283.65 Q200.505 1283.65 197.427 1279.07 Q194.371 1274.46 194.371 1265.73 Q194.371 1256.98 197.427 1252.4 Q200.505 1247.79 206.315 1247.79 Z" fill="#000000" fill-rule="nonzero" fill-opacity="1" /><path clip-path="url(#clip680)" d="M51.9875 1052.47 L81.6633 1052.47 L81.6633 1056.41 L51.9875 1056.41 L51.9875 1052.47 Z" fill="#000000" fill-rule="nonzero" fill-opacity="1" /><path clip-path="url(#clip680)" d="M101.756 1037.82 Q98.1447 1037.82 96.316 1041.38 Q94.5104 1044.93 94.5104 1052.06 Q94.5104 1059.16 96.316 1062.73 Q98.1447 1066.27 101.756 1066.27 Q105.39 1066.27 107.196 1062.73 Q109.024 1059.16 109.024 1052.06 Q109.024 1044.93 107.196 1041.38 Q105.39 1037.82 101.756 1037.82 M101.756 1034.12 Q107.566 1034.12 110.621 1038.72 Q113.7 1043.31 113.7 1052.06 Q113.7 1060.78 110.621 1065.39 Q107.566 1069.97 101.756 1069.97 Q95.9456 1069.97 92.8669 1065.39 Q89.8114 1060.78 89.8114 1052.06 Q89.8114 1043.31 92.8669 1038.72 Q95.9456 1034.12 101.756 1034.12 Z" fill="#000000" fill-rule="nonzero" fill-opacity="1" /><path clip-path="url(#clip680)" d="M121.918 1063.42 L126.802 1063.42 L126.802 1069.3 L121.918 1069.3 L121.918 1063.42 Z" fill="#000000" fill-rule="nonzero" fill-opacity="1" /><path clip-path="url(#clip680)" d="M146.987 1037.82 Q143.376 1037.82 141.547 1041.38 Q139.742 1044.93 139.742 1052.06 Q139.742 1059.16 141.547 1062.73 Q143.376 1066.27 146.987 1066.27 Q150.621 1066.27 152.427 1062.73 Q154.255 1059.16 154.255 1052.06 Q154.255 1044.93 152.427 1041.38 Q150.621 1037.82 146.987 1037.82 M146.987 1034.12 Q152.797 1034.12 155.853 1038.72 Q158.931 1043.31 158.931 1052.06 Q158.931 1060.78 155.853 1065.39 Q152.797 1069.97 146.987 1069.97 Q141.177 1069.97 138.098 1065.39 Q135.043 1060.78 135.043 1052.06 Q135.043 1043.31 138.098 1038.72 Q141.177 1034.12 146.987 1034.12 Z" fill="#000000" fill-rule="nonzero" fill-opacity="1" /><path clip-path="url(#clip680)" d="M177.149 1037.82 Q173.538 1037.82 171.709 1041.38 Q169.904 1044.93 169.904 1052.06 Q169.904 1059.16 171.709 1062.73 Q173.538 1066.27 177.149 1066.27 Q180.783 1066.27 182.589 1062.73 Q184.417 1059.16 184.417 1052.06 Q184.417 1044.93 182.589 1041.38 Q180.783 1037.82 177.149 1037.82 M177.149 1034.12 Q182.959 1034.12 186.015 1038.72 Q189.093 1043.31 189.093 1052.06 Q189.093 1060.78 186.015 1065.39 Q182.959 1069.97 177.149 1069.97 Q171.339 1069.97 168.26 1065.39 Q165.204 1060.78 165.204 1052.06 Q165.204 1043.31 168.26 1038.72 Q171.339 1034.12 177.149 1034.12 Z" fill="#000000" fill-rule="nonzero" fill-opacity="1" /><path clip-path="url(#clip680)" d="M197.357 1034.74 L215.713 1034.74 L215.713 1038.68 L201.639 1038.68 L201.639 1047.15 Q202.658 1046.8 203.676 1046.64 Q204.695 1046.45 205.714 1046.45 Q211.501 1046.45 214.88 1049.62 Q218.26 1052.8 218.26 1058.21 Q218.26 1063.79 214.788 1066.89 Q211.315 1069.97 204.996 1069.97 Q202.82 1069.97 200.552 1069.6 Q198.306 1069.23 195.899 1068.49 L195.899 1063.79 Q197.982 1064.93 200.204 1065.48 Q202.426 1066.04 204.903 1066.04 Q208.908 1066.04 211.246 1063.93 Q213.584 1061.82 213.584 1058.21 Q213.584 1054.6 211.246 1052.5 Q208.908 1050.39 204.903 1050.39 Q203.028 1050.39 201.153 1050.81 Q199.302 1051.22 197.357 1052.1 L197.357 1034.74 Z" fill="#000000" fill-rule="nonzero" fill-opacity="1" /><path clip-path="url(#clip680)" d="M100.76 824.143 Q97.1493 824.143 95.3206 827.707 Q93.515 831.249 93.515 838.379 Q93.515 845.485 95.3206 849.05 Q97.1493 852.592 100.76 852.592 Q104.395 852.592 106.2 849.05 Q108.029 845.485 108.029 838.379 Q108.029 831.249 106.2 827.707 Q104.395 824.143 100.76 824.143 M100.76 820.439 Q106.571 820.439 109.626 825.045 Q112.705 829.629 112.705 838.379 Q112.705 847.105 109.626 851.712 Q106.571 856.295 100.76 856.295 Q94.9502 856.295 91.8715 851.712 Q88.816 847.105 88.816 838.379 Q88.816 829.629 91.8715 825.045 Q94.9502 820.439 100.76 820.439 Z" fill="#000000" fill-rule="nonzero" fill-opacity="1" /><path clip-path="url(#clip680)" d="M120.922 849.744 L125.807 849.744 L125.807 855.624 L120.922 855.624 L120.922 849.744 Z" fill="#000000" fill-rule="nonzero" fill-opacity="1" /><path clip-path="url(#clip680)" d="M145.992 824.143 Q142.381 824.143 140.552 827.707 Q138.746 831.249 138.746 838.379 Q138.746 845.485 140.552 849.05 Q142.381 852.592 145.992 852.592 Q149.626 852.592 151.431 849.05 Q153.26 845.485 153.26 838.379 Q153.26 831.249 151.431 827.707 Q149.626 824.143 145.992 824.143 M145.992 820.439 Q151.802 820.439 154.857 825.045 Q157.936 829.629 157.936 838.379 Q157.936 847.105 154.857 851.712 Q151.802 856.295 145.992 856.295 Q140.181 856.295 137.103 851.712 Q134.047 847.105 134.047 838.379 Q134.047 829.629 137.103 825.045 Q140.181 820.439 145.992 820.439 Z" fill="#000000" fill-rule="nonzero" fill-opacity="1" /><path clip-path="url(#clip680)" d="M176.153 824.143 Q172.542 824.143 170.714 827.707 Q168.908 831.249 168.908 838.379 Q168.908 845.485 170.714 849.05 Q172.542 852.592 176.153 852.592 Q179.788 852.592 181.593 849.05 Q183.422 845.485 183.422 838.379 Q183.422 831.249 181.593 827.707 Q179.788 824.143 176.153 824.143 M176.153 820.439 Q181.964 820.439 185.019 825.045 Q188.098 829.629 188.098 838.379 Q188.098 847.105 185.019 851.712 Q181.964 856.295 176.153 856.295 Q170.343 856.295 167.265 851.712 Q164.209 847.105 164.209 838.379 Q164.209 829.629 167.265 825.045 Q170.343 820.439 176.153 820.439 Z" fill="#000000" fill-rule="nonzero" fill-opacity="1" /><path clip-path="url(#clip680)" d="M206.315 824.143 Q202.704 824.143 200.876 827.707 Q199.07 831.249 199.07 838.379 Q199.07 845.485 200.876 849.05 Q202.704 852.592 206.315 852.592 Q209.95 852.592 211.755 849.05 Q213.584 845.485 213.584 838.379 Q213.584 831.249 211.755 827.707 Q209.95 824.143 206.315 824.143 M206.315 820.439 Q212.126 820.439 215.181 825.045 Q218.26 829.629 218.26 838.379 Q218.26 847.105 215.181 851.712 Q212.126 856.295 206.315 856.295 Q200.505 856.295 197.427 851.712 Q194.371 847.105 194.371 838.379 Q194.371 829.629 197.427 825.045 Q200.505 820.439 206.315 820.439 Z" fill="#000000" fill-rule="nonzero" fill-opacity="1" /><path clip-path="url(#clip680)" d="M101.756 610.466 Q98.1447 610.466 96.316 614.031 Q94.5104 617.572 94.5104 624.702 Q94.5104 631.809 96.316 635.373 Q98.1447 638.915 101.756 638.915 Q105.39 638.915 107.196 635.373 Q109.024 631.809 109.024 624.702 Q109.024 617.572 107.196 614.031 Q105.39 610.466 101.756 610.466 M101.756 606.762 Q107.566 606.762 110.621 611.369 Q113.7 615.952 113.7 624.702 Q113.7 633.429 110.621 638.035 Q107.566 642.619 101.756 642.619 Q95.9456 642.619 92.8669 638.035 Q89.8114 633.429 89.8114 624.702 Q89.8114 615.952 92.8669 611.369 Q95.9456 606.762 101.756 606.762 Z" fill="#000000" fill-rule="nonzero" fill-opacity="1" /><path clip-path="url(#clip680)" d="M121.918 636.068 L126.802 636.068 L126.802 641.947 L121.918 641.947 L121.918 636.068 Z" fill="#000000" fill-rule="nonzero" fill-opacity="1" /><path clip-path="url(#clip680)" d="M146.987 610.466 Q143.376 610.466 141.547 614.031 Q139.742 617.572 139.742 624.702 Q139.742 631.809 141.547 635.373 Q143.376 638.915 146.987 638.915 Q150.621 638.915 152.427 635.373 Q154.255 631.809 154.255 624.702 Q154.255 617.572 152.427 614.031 Q150.621 610.466 146.987 610.466 M146.987 606.762 Q152.797 606.762 155.853 611.369 Q158.931 615.952 158.931 624.702 Q158.931 633.429 155.853 638.035 Q152.797 642.619 146.987 642.619 Q141.177 642.619 138.098 638.035 Q135.043 633.429 135.043 624.702 Q135.043 615.952 138.098 611.369 Q141.177 606.762 146.987 606.762 Z" fill="#000000" fill-rule="nonzero" fill-opacity="1" /><path clip-path="url(#clip680)" d="M177.149 610.466 Q173.538 610.466 171.709 614.031 Q169.904 617.572 169.904 624.702 Q169.904 631.809 171.709 635.373 Q173.538 638.915 177.149 638.915 Q180.783 638.915 182.589 635.373 Q184.417 631.809 184.417 624.702 Q184.417 617.572 182.589 614.031 Q180.783 610.466 177.149 610.466 M177.149 606.762 Q182.959 606.762 186.015 611.369 Q189.093 615.952 189.093 624.702 Q189.093 633.429 186.015 638.035 Q182.959 642.619 177.149 642.619 Q171.339 642.619 168.26 638.035 Q165.204 633.429 165.204 624.702 Q165.204 615.952 168.26 611.369 Q171.339 606.762 177.149 606.762 Z" fill="#000000" fill-rule="nonzero" fill-opacity="1" /><path clip-path="url(#clip680)" d="M197.357 607.387 L215.713 607.387 L215.713 611.323 L201.639 611.323 L201.639 619.795 Q202.658 619.447 203.676 619.285 Q204.695 619.1 205.714 619.1 Q211.501 619.1 214.88 622.272 Q218.26 625.443 218.26 630.859 Q218.26 636.438 214.788 639.54 Q211.315 642.619 204.996 642.619 Q202.82 642.619 200.552 642.248 Q198.306 641.878 195.899 641.137 L195.899 636.438 Q197.982 637.572 200.204 638.128 Q202.426 638.683 204.903 638.683 Q208.908 638.683 211.246 636.577 Q213.584 634.471 213.584 630.859 Q213.584 627.248 211.246 625.142 Q208.908 623.035 204.903 623.035 Q203.028 623.035 201.153 623.452 Q199.302 623.869 197.357 624.748 L197.357 607.387 Z" fill="#000000" fill-rule="nonzero" fill-opacity="1" /><path clip-path="url(#clip680)" d="M100.76 396.789 Q97.1493 396.789 95.3206 400.354 Q93.515 403.896 93.515 411.025 Q93.515 418.132 95.3206 421.697 Q97.1493 425.238 100.76 425.238 Q104.395 425.238 106.2 421.697 Q108.029 418.132 108.029 411.025 Q108.029 403.896 106.2 400.354 Q104.395 396.789 100.76 396.789 M100.76 393.086 Q106.571 393.086 109.626 397.692 Q112.705 402.276 112.705 411.025 Q112.705 419.752 109.626 424.359 Q106.571 428.942 100.76 428.942 Q94.9502 428.942 91.8715 424.359 Q88.816 419.752 88.816 411.025 Q88.816 402.276 91.8715 397.692 Q94.9502 393.086 100.76 393.086 Z" fill="#000000" fill-rule="nonzero" fill-opacity="1" /><path clip-path="url(#clip680)" d="M120.922 422.391 L125.807 422.391 L125.807 428.271 L120.922 428.271 L120.922 422.391 Z" fill="#000000" fill-rule="nonzero" fill-opacity="1" /><path clip-path="url(#clip680)" d="M145.992 396.789 Q142.381 396.789 140.552 400.354 Q138.746 403.896 138.746 411.025 Q138.746 418.132 140.552 421.697 Q142.381 425.238 145.992 425.238 Q149.626 425.238 151.431 421.697 Q153.26 418.132 153.26 411.025 Q153.26 403.896 151.431 400.354 Q149.626 396.789 145.992 396.789 M145.992 393.086 Q151.802 393.086 154.857 397.692 Q157.936 402.276 157.936 411.025 Q157.936 419.752 154.857 424.359 Q151.802 428.942 145.992 428.942 Q140.181 428.942 137.103 424.359 Q134.047 419.752 134.047 411.025 Q134.047 402.276 137.103 397.692 Q140.181 393.086 145.992 393.086 Z" fill="#000000" fill-rule="nonzero" fill-opacity="1" /><path clip-path="url(#clip680)" d="M166.964 424.336 L174.603 424.336 L174.603 397.97 L166.292 399.637 L166.292 395.377 L174.556 393.711 L179.232 393.711 L179.232 424.336 L186.871 424.336 L186.871 428.271 L166.964 428.271 L166.964 424.336 Z" fill="#000000" fill-rule="nonzero" fill-opacity="1" /><path clip-path="url(#clip680)" d="M206.315 396.789 Q202.704 396.789 200.876 400.354 Q199.07 403.896 199.07 411.025 Q199.07 418.132 200.876 421.697 Q202.704 425.238 206.315 425.238 Q209.95 425.238 211.755 421.697 Q213.584 418.132 213.584 411.025 Q213.584 403.896 211.755 400.354 Q209.95 396.789 206.315 396.789 M206.315 393.086 Q212.126 393.086 215.181 397.692 Q218.26 402.276 218.26 411.025 Q218.26 419.752 215.181 424.359 Q212.126 428.942 206.315 428.942 Q200.505 428.942 197.427 424.359 Q194.371 419.752 194.371 411.025 Q194.371 402.276 197.427 397.692 Q200.505 393.086 206.315 393.086 Z" fill="#000000" fill-rule="nonzero" fill-opacity="1" /><path clip-path="url(#clip680)" d="M101.756 183.113 Q98.1447 183.113 96.316 186.678 Q94.5104 190.219 94.5104 197.349 Q94.5104 204.455 96.316 208.02 Q98.1447 211.562 101.756 211.562 Q105.39 211.562 107.196 208.02 Q109.024 204.455 109.024 197.349 Q109.024 190.219 107.196 186.678 Q105.39 183.113 101.756 183.113 M101.756 179.409 Q107.566 179.409 110.621 184.016 Q113.7 188.599 113.7 197.349 Q113.7 206.076 110.621 210.682 Q107.566 215.265 101.756 215.265 Q95.9456 215.265 92.8669 210.682 Q89.8114 206.076 89.8114 197.349 Q89.8114 188.599 92.8669 184.016 Q95.9456 179.409 101.756 179.409 Z" fill="#000000" fill-rule="nonzero" fill-opacity="1" /><path clip-path="url(#clip680)" d="M121.918 208.715 L126.802 208.715 L126.802 214.594 L121.918 214.594 L121.918 208.715 Z" fill="#000000" fill-rule="nonzero" fill-opacity="1" /><path clip-path="url(#clip680)" d="M146.987 183.113 Q143.376 183.113 141.547 186.678 Q139.742 190.219 139.742 197.349 Q139.742 204.455 141.547 208.02 Q143.376 211.562 146.987 211.562 Q150.621 211.562 152.427 208.02 Q154.255 204.455 154.255 197.349 Q154.255 190.219 152.427 186.678 Q150.621 183.113 146.987 183.113 M146.987 179.409 Q152.797 179.409 155.853 184.016 Q158.931 188.599 158.931 197.349 Q158.931 206.076 155.853 210.682 Q152.797 215.265 146.987 215.265 Q141.177 215.265 138.098 210.682 Q135.043 206.076 135.043 197.349 Q135.043 188.599 138.098 184.016 Q141.177 179.409 146.987 179.409 Z" fill="#000000" fill-rule="nonzero" fill-opacity="1" /><path clip-path="url(#clip680)" d="M167.959 210.659 L175.598 210.659 L175.598 184.293 L167.288 185.96 L167.288 181.701 L175.552 180.034 L180.228 180.034 L180.228 210.659 L187.866 210.659 L187.866 214.594 L167.959 214.594 L167.959 210.659 Z" fill="#000000" fill-rule="nonzero" fill-opacity="1" /><path clip-path="url(#clip680)" d="M197.357 180.034 L215.713 180.034 L215.713 183.969 L201.639 183.969 L201.639 192.442 Q202.658 192.094 203.676 191.932 Q204.695 191.747 205.714 191.747 Q211.501 191.747 214.88 194.918 Q218.26 198.09 218.26 203.506 Q218.26 209.085 214.788 212.187 Q211.315 215.265 204.996 215.265 Q202.82 215.265 200.552 214.895 Q198.306 214.525 195.899 213.784 L195.899 209.085 Q197.982 210.219 200.204 210.775 Q202.426 211.33 204.903 211.33 Q208.908 211.33 211.246 209.224 Q213.584 207.117 213.584 203.506 Q213.584 199.895 211.246 197.789 Q208.908 195.682 204.903 195.682 Q203.028 195.682 201.153 196.099 Q199.302 196.516 197.357 197.395 L197.357 180.034 Z" fill="#000000" fill-rule="nonzero" fill-opacity="1" /><polyline clip-path="url(#clip682)" style="stroke:#009af9; stroke-linecap:round; stroke-linejoin:round; stroke-width:4; stroke-opacity:1; fill:none" points="313.651,838.344 316.873,837.988 320.096,836.939 323.318,835.223 326.54,832.869 333.989,825.126 341.437,814.431 348.886,801.093 356.335,785.41 363.783,767.671 371.232,748.151 378.68,727.116 386.129,704.821 401.026,657.41 415.923,607.737 430.821,557.445 445.718,508.008 454.67,479.261 463.623,451.551 472.575,425.112 481.528,400.155 490.481,376.871 499.433,355.431 508.386,335.985 517.338,318.663 524.908,305.756 532.477,294.503 540.046,284.95 547.616,277.132 555.185,271.079 562.754,266.807 570.324,264.325 577.893,263.634 586.115,264.903 594.338,268.251 602.56,273.645 610.782,281.04 619.005,290.379 627.227,301.595 635.45,314.611 643.672,329.339 651.252,344.351 658.833,360.652 666.413,378.153 673.993,396.758 689.154,436.863 704.314,480.081 736.822,578.608 769.33,676.125 778.745,702.493 788.161,727.464 797.577,750.723 806.993,771.951 816.409,790.824 825.824,807.014 830.532,814.001 835.24,820.193 839.948,825.55 844.656,830.03 853.024,835.697 861.391,838.228 869.759,839.361 878.127,843.834 882.311,847.331 886.494,851.622 890.678,856.674 894.862,862.453 903.23,876.059 911.597,892.176 918.935,908.166 926.273,925.709 933.61,944.633 940.948,964.765 955.623,1007.99 970.299,1054.08 986.299,1106.12 1002.3,1158.53 1018.3,1209.86 1034.3,1258.75 1042.35,1282.04 1050.39,1304.24 1058.44,1325.24 1066.49,1344.9 1074.54,1363.1 1082.58,1379.72 1090.63,1394.68 1098.68,1407.87 1107.58,1420.29 1116.48,1430.37 1125.37,1438 1134.27,1443.14 1143.17,1445.72 1152.07,1445.71 1160.96,1443.1 1169.86,1437.9 1178.33,1430.55 1186.79,1420.89 1195.26,1408.97 1203.72,1394.86 1212.19,1378.63 1220.66,1360.36 1229.12,1340.18 1237.59,1318.2 1246.39,1293.59 1255.19,1267.36 1264,1239.72 1272.8,1210.88 1290.4,1150.54 1308.01,1088.46 1322.83,1036.63 1337.65,986.919 1345.06,963.409 1352.47,941.112 1359.88,920.277 1367.29,901.163 1371.81,890.457 1376.33,880.556 1380.86,871.524 1385.38,863.428 1389.9,856.335 1394.43,850.314 1398.95,845.436 1403.47,841.771 1408,839.394 1412.52,838.377 1417.04,838.662 1421.57,839.955 1430.61,845.304 1439.66,853.952 1447.95,864.397 1456.23,876.922 1464.52,891.221 1472.81,907.003 1489.38,941.927 1505.96,979.662 1521.27,1015.45 1536.57,1050.85 1551.88,1084.77 1567.19,1116.29 1574.94,1131.08 1582.7,1144.97 1590.45,1157.87 1598.2,1169.72 1605.96,1180.45 1613.71,1190.02 1621.46,1198.38 1629.22,1205.5 1637.9,1211.98 1646.59,1216.84 1655.28,1220.07 1663.97,1221.67 1672.66,1221.66 1681.35,1220.04 1690.04,1216.86 1698.73,1212.16 1706.6,1206.62 1714.48,1199.91 1722.35,1192.09 1730.22,1183.21 1738.1,1173.32 1745.97,1162.5 1753.85,1150.81 1761.72,1138.34 1779.75,1107.22 1797.78,1073.39 1815.81,1037.93 1833.84,1002.01 1850.53,969.382 1867.23,938.349 1883.92,909.885 1900.61,884.952 1908.84,874.248 1917.07,864.738 1925.3,856.528 1933.53,849.723 1941.76,844.421 1949.99,840.718 1958.22,838.705 1966.45,838.017 1970.44,836.611 1974.44,834.136 1978.43,830.636 1982.43,826.152 1986.42,820.728 1990.42,814.403 1994.41,807.221 1998.41,799.222 2006.4,780.935 2014.39,759.864 2022.38,736.323 2030.37,710.618 2038.56,682.338 2046.75,652.417 2054.94,621.161 2063.13,588.87 2079.51,522.327 2095.89,454.985 2113.84,382.693 2131.79,314.319 2140.76,282.293 2149.73,252.041 2158.71,223.792 2167.68,197.757 2174.2,180.345 2180.72,164.27 2187.24,149.594 2193.75,136.374 2200.27,124.661 2206.79,114.5 2213.31,105.931 2219.83,98.9896 2226.34,93.7034 2232.86,90.0955 2239.38,88.1827 2245.9,87.9763 2252.42,89.4812 2258.93,92.6965 2265.45,97.6154 2271.97,104.225 2277.32,110.898 2282.67,118.683 2288.02,127.563 2293.36,137.519 "/>
<path clip-path="url(#clip680)" d="M1634.14 1438.47 L2282.81 1438.47 L2282.81 1334.79 L1634.14 1334.79  Z" fill="#ffffff" fill-rule="evenodd" fill-opacity="1"/>
<polyline clip-path="url(#clip680)" style="stroke:#000000; stroke-linecap:round; stroke-linejoin:round; stroke-width:4; stroke-opacity:1; fill:none" points="1634.14,1438.47 2282.81,1438.47 2282.81,1334.79 1634.14,1334.79 1634.14,1438.47 "/>
<polyline clip-path="url(#clip680)" style="stroke:#009af9; stroke-linecap:round; stroke-linejoin:round; stroke-width:4; stroke-opacity:1; fill:none" points="1657.46,1386.63 1797.36,1386.63 "/>
<path clip-path="url(#clip680)" d="M1842.39 1382.86 L1842.39 1398.51 L1838.13 1398.51 L1838.13 1383 Q1838.13 1379.32 1836.7 1377.49 Q1835.26 1375.66 1832.39 1375.66 Q1828.94 1375.66 1826.95 1377.86 Q1824.96 1380.06 1824.96 1383.86 L1824.96 1398.51 L1820.68 1398.51 L1820.68 1372.58 L1824.96 1372.58 L1824.96 1376.61 Q1826.49 1374.27 1828.55 1373.12 Q1830.63 1371.96 1833.34 1371.96 Q1837.81 1371.96 1840.1 1374.74 Q1842.39 1377.49 1842.39 1382.86 Z" fill="#000000" fill-rule="nonzero" fill-opacity="1" /><path clip-path="url(#clip680)" d="M1862.67 1385.48 Q1857.51 1385.48 1855.52 1386.66 Q1853.52 1387.84 1853.52 1390.69 Q1853.52 1392.95 1855.01 1394.3 Q1856.51 1395.62 1859.08 1395.62 Q1862.62 1395.62 1864.75 1393.12 Q1866.9 1390.59 1866.9 1386.43 L1866.9 1385.48 L1862.67 1385.48 M1871.16 1383.72 L1871.16 1398.51 L1866.9 1398.51 L1866.9 1394.57 Q1865.45 1396.94 1863.27 1398.07 Q1861.09 1399.18 1857.95 1399.18 Q1853.96 1399.18 1851.6 1396.96 Q1849.27 1394.71 1849.27 1390.96 Q1849.27 1386.59 1852.18 1384.37 Q1855.12 1382.14 1860.93 1382.14 L1866.9 1382.14 L1866.9 1381.73 Q1866.9 1378.79 1864.96 1377.19 Q1863.04 1375.57 1859.54 1375.57 Q1857.32 1375.57 1855.21 1376.1 Q1853.11 1376.63 1851.16 1377.7 L1851.16 1373.76 Q1853.5 1372.86 1855.7 1372.42 Q1857.9 1371.96 1859.98 1371.96 Q1865.61 1371.96 1868.39 1374.88 Q1871.16 1377.79 1871.16 1383.72 Z" fill="#000000" fill-rule="nonzero" fill-opacity="1" /><path clip-path="url(#clip680)" d="M1884.06 1394.62 L1884.06 1408.37 L1879.77 1408.37 L1879.77 1372.58 L1884.06 1372.58 L1884.06 1376.52 Q1885.4 1374.2 1887.44 1373.09 Q1889.5 1371.96 1892.34 1371.96 Q1897.07 1371.96 1900.01 1375.71 Q1902.97 1379.46 1902.97 1385.57 Q1902.97 1391.68 1900.01 1395.43 Q1897.07 1399.18 1892.34 1399.18 Q1889.5 1399.18 1887.44 1398.07 Q1885.4 1396.94 1884.06 1394.62 M1898.55 1385.57 Q1898.55 1380.87 1896.6 1378.21 Q1894.68 1375.52 1891.3 1375.52 Q1887.92 1375.52 1885.98 1378.21 Q1884.06 1380.87 1884.06 1385.57 Q1884.06 1390.27 1885.98 1392.95 Q1887.92 1395.62 1891.3 1395.62 Q1894.68 1395.62 1896.6 1392.95 Q1898.55 1390.27 1898.55 1385.57 Z" fill="#000000" fill-rule="nonzero" fill-opacity="1" /><path clip-path="url(#clip680)" d="M1921.81 1385.48 Q1916.65 1385.48 1914.66 1386.66 Q1912.67 1387.84 1912.67 1390.69 Q1912.67 1392.95 1914.15 1394.3 Q1915.65 1395.62 1918.22 1395.62 Q1921.77 1395.62 1923.89 1393.12 Q1926.05 1390.59 1926.05 1386.43 L1926.05 1385.48 L1921.81 1385.48 M1930.31 1383.72 L1930.31 1398.51 L1926.05 1398.51 L1926.05 1394.57 Q1924.59 1396.94 1922.41 1398.07 Q1920.24 1399.18 1917.09 1399.18 Q1913.11 1399.18 1910.75 1396.96 Q1908.41 1394.71 1908.41 1390.96 Q1908.41 1386.59 1911.33 1384.37 Q1914.27 1382.14 1920.08 1382.14 L1926.05 1382.14 L1926.05 1381.73 Q1926.05 1378.79 1924.1 1377.19 Q1922.18 1375.57 1918.69 1375.57 Q1916.46 1375.57 1914.36 1376.1 Q1912.25 1376.63 1910.31 1377.7 L1910.31 1373.76 Q1912.64 1372.86 1914.84 1372.42 Q1917.04 1371.96 1919.13 1371.96 Q1924.75 1371.96 1927.53 1374.88 Q1930.31 1377.79 1930.31 1383.72 Z" fill="#000000" fill-rule="nonzero" fill-opacity="1" /><path clip-path="url(#clip680)" d="M1938.92 1362.49 L1943.2 1362.49 L1943.2 1383.76 L1955.91 1372.58 L1961.35 1372.58 L1947.6 1384.71 L1961.93 1398.51 L1956.37 1398.51 L1943.2 1385.85 L1943.2 1398.51 L1938.92 1398.51 L1938.92 1362.49 Z" fill="#000000" fill-rule="nonzero" fill-opacity="1" /><path clip-path="url(#clip680)" d="M1977.48 1385.48 Q1972.32 1385.48 1970.33 1386.66 Q1968.34 1387.84 1968.34 1390.69 Q1968.34 1392.95 1969.82 1394.3 Q1971.33 1395.62 1973.89 1395.62 Q1977.44 1395.62 1979.57 1393.12 Q1981.72 1390.59 1981.72 1386.43 L1981.72 1385.48 L1977.48 1385.48 M1985.98 1383.72 L1985.98 1398.51 L1981.72 1398.51 L1981.72 1394.57 Q1980.26 1396.94 1978.08 1398.07 Q1975.91 1399.18 1972.76 1399.18 Q1968.78 1399.18 1966.42 1396.96 Q1964.08 1394.71 1964.08 1390.96 Q1964.08 1386.59 1967 1384.37 Q1969.94 1382.14 1975.75 1382.14 L1981.72 1382.14 L1981.72 1381.73 Q1981.72 1378.79 1979.77 1377.19 Q1977.85 1375.57 1974.36 1375.57 Q1972.14 1375.57 1970.03 1376.1 Q1967.92 1376.63 1965.98 1377.7 L1965.98 1373.76 Q1968.32 1372.86 1970.51 1372.42 Q1972.71 1371.96 1974.8 1371.96 Q1980.42 1371.96 1983.2 1374.88 Q1985.98 1377.79 1985.98 1383.72 Z" fill="#000000" fill-rule="nonzero" fill-opacity="1" /><path clip-path="url(#clip680)" d="M2029.27 1367.99 Q2029.27 1369.28 2028.45 1370.07 Q2027.65 1370.87 2026.64 1370.87 Q2025.92 1370.87 2025.38 1370.43 Q2024.86 1369.98 2024.86 1369.21 Q2024.86 1368.41 2025.47 1367.57 Q2026.08 1366.73 2027.46 1366.61 Q2026.55 1365.74 2025.1 1365.74 Q2024.37 1365.74 2023.76 1366.21 Q2023.18 1366.65 2022.85 1367.38 Q2022.5 1368.13 2021.7 1372.37 Q2021.44 1373.75 2021.21 1375.09 Q2020.98 1376.42 2020.69 1377.83 L2024.68 1377.83 Q2025.19 1377.83 2025.4 1377.85 Q2025.61 1377.87 2025.78 1377.99 Q2025.96 1378.11 2025.96 1378.37 Q2025.96 1379.02 2025.66 1379.19 Q2025.38 1379.33 2024.54 1379.33 L2020.41 1379.33 L2017.53 1394.53 Q2017.46 1394.97 2017.16 1396.38 Q2016.88 1397.76 2016.2 1400.03 Q2015.52 1402.33 2014.84 1403.69 Q2014.46 1404.46 2013.97 1405.18 Q2013.5 1405.93 2012.82 1406.68 Q2012.15 1407.43 2011.26 1407.88 Q2010.37 1408.35 2009.43 1408.35 Q2007.84 1408.35 2006.59 1407.46 Q2005.35 1406.57 2005.35 1405.04 Q2005.35 1403.76 2006.15 1402.96 Q2006.97 1402.16 2007.98 1402.16 Q2008.7 1402.16 2009.22 1402.61 Q2009.76 1403.05 2009.76 1403.83 Q2009.76 1404.15 2009.64 1404.53 Q2009.52 1404.9 2009.26 1405.33 Q2009.01 1405.77 2008.44 1406.07 Q2007.88 1406.38 2007.11 1406.43 Q2008.02 1407.29 2009.43 1407.29 Q2009.87 1407.29 2010.27 1407.11 Q2010.67 1406.94 2011 1406.52 Q2011.35 1406.1 2011.61 1405.68 Q2011.86 1405.28 2012.12 1404.51 Q2012.38 1403.76 2012.54 1403.19 Q2012.71 1402.63 2012.92 1401.62 Q2013.15 1400.62 2013.27 1400.01 Q2013.39 1399.42 2013.6 1398.28 L2017.18 1379.33 L2014.02 1379.33 Q2013.46 1379.33 2013.22 1379.3 Q2013.01 1379.28 2012.85 1379.16 Q2012.68 1379.02 2012.68 1378.74 Q2012.68 1378.3 2012.87 1378.11 Q2013.08 1377.9 2013.32 1377.87 Q2013.55 1377.83 2014.11 1377.83 L2017.44 1377.83 Q2018.56 1371.9 2019.01 1370.31 Q2019.52 1368.62 2020.32 1367.45 Q2021.12 1366.26 2022.01 1365.69 Q2022.9 1365.13 2023.62 1364.92 Q2024.37 1364.69 2025.1 1364.69 Q2026.74 1364.69 2028 1365.58 Q2029.27 1366.44 2029.27 1367.99 Z" fill="#000000" fill-rule="nonzero" fill-opacity="1" /><path clip-path="url(#clip680)" d="M2035.72 1386.52 Q2035.72 1378.41 2038.74 1371.88 Q2040.03 1369.14 2041.83 1366.84 Q2043.64 1364.55 2044.83 1363.54 Q2046.03 1362.53 2046.35 1362.53 Q2046.82 1362.53 2046.85 1363 Q2046.85 1363.24 2046.21 1363.82 Q2038.48 1371.69 2038.51 1386.52 Q2038.51 1401.39 2046.03 1408.96 Q2046.85 1409.78 2046.85 1410.03 Q2046.85 1410.5 2046.35 1410.5 Q2046.03 1410.5 2044.88 1409.54 Q2043.73 1408.58 2041.95 1406.38 Q2040.17 1404.18 2038.88 1401.48 Q2035.72 1394.95 2035.72 1386.52 Z" fill="#000000" fill-rule="nonzero" fill-opacity="1" /><path clip-path="url(#clip680)" d="M2074.38 1380.47 Q2074.38 1381.79 2073.56 1382.54 Q2072.74 1383.26 2071.8 1383.26 Q2070.91 1383.26 2070.44 1382.75 Q2069.97 1382.23 2069.97 1381.57 Q2069.97 1380.68 2070.63 1379.91 Q2071.29 1379.14 2072.27 1378.98 Q2071.31 1378.37 2069.88 1378.37 Q2068.94 1378.37 2068.12 1378.86 Q2067.33 1379.35 2066.84 1379.98 Q2066.37 1380.61 2065.95 1381.53 Q2065.55 1382.42 2065.38 1382.96 Q2065.24 1383.47 2065.13 1384.03 L2063.49 1390.59 Q2062.69 1393.71 2062.69 1394.81 Q2062.69 1396.17 2063.35 1397.08 Q2064 1397.97 2065.31 1397.97 Q2065.83 1397.97 2066.41 1397.83 Q2067 1397.67 2067.75 1397.24 Q2068.52 1396.8 2069.2 1396.14 Q2069.9 1395.46 2070.58 1394.32 Q2071.26 1393.17 2071.71 1391.69 Q2071.85 1391.18 2072.32 1391.18 Q2072.9 1391.18 2072.9 1391.65 Q2072.9 1392.04 2072.57 1392.89 Q2072.27 1393.71 2071.59 1394.79 Q2070.94 1395.84 2070.07 1396.8 Q2069.2 1397.74 2067.91 1398.39 Q2066.63 1399.05 2065.22 1399.05 Q2063.21 1399.05 2061.87 1397.97 Q2060.54 1396.89 2060.04 1395.39 Q2059.93 1395.61 2059.76 1395.89 Q2059.6 1396.17 2059.11 1396.8 Q2058.64 1397.41 2058.1 1397.88 Q2057.56 1398.32 2056.72 1398.67 Q2055.9 1399.05 2055.01 1399.05 Q2053.88 1399.05 2052.88 1398.72 Q2051.89 1398.39 2051.19 1397.64 Q2050.49 1396.89 2050.49 1395.86 Q2050.49 1394.71 2051.26 1393.92 Q2052.06 1393.1 2053.13 1393.1 Q2053.81 1393.1 2054.35 1393.5 Q2054.91 1393.9 2054.91 1394.76 Q2054.91 1395.72 2054.26 1396.45 Q2053.6 1397.17 2052.67 1397.36 Q2053.63 1397.97 2055.05 1397.97 Q2056.6 1397.97 2057.82 1396.61 Q2059.04 1395.25 2059.62 1392.98 Q2061.07 1387.52 2061.64 1385.09 Q2062.2 1382.63 2062.2 1381.57 Q2062.2 1380.59 2061.94 1379.91 Q2061.68 1379.23 2061.24 1378.93 Q2060.82 1378.6 2060.42 1378.48 Q2060.04 1378.37 2059.62 1378.37 Q2058.92 1378.37 2058.12 1378.65 Q2057.35 1378.93 2056.41 1379.58 Q2055.5 1380.22 2054.63 1381.53 Q2053.77 1382.84 2053.18 1384.64 Q2053.06 1385.18 2052.55 1385.18 Q2051.99 1385.16 2051.99 1384.69 Q2051.99 1384.29 2052.29 1383.47 Q2052.62 1382.63 2053.27 1381.57 Q2053.95 1380.52 2054.82 1379.58 Q2055.71 1378.62 2057 1377.97 Q2058.31 1377.31 2059.72 1377.31 Q2060.35 1377.31 2060.96 1377.45 Q2061.59 1377.57 2062.34 1377.92 Q2063.11 1378.27 2063.79 1379.05 Q2064.47 1379.82 2064.89 1380.94 Q2065.17 1380.4 2065.55 1379.89 Q2065.95 1379.37 2066.56 1378.74 Q2067.19 1378.09 2068.05 1377.71 Q2068.94 1377.31 2069.93 1377.31 Q2070.89 1377.31 2071.83 1377.57 Q2072.76 1377.8 2073.56 1378.58 Q2074.38 1379.33 2074.38 1380.47 Z" fill="#000000" fill-rule="nonzero" fill-opacity="1" /><path clip-path="url(#clip680)" d="M2078.99 1410.03 Q2078.99 1409.8 2079.6 1409.21 Q2087.33 1401.34 2087.33 1386.52 Q2087.33 1371.64 2079.9 1364.13 Q2078.99 1363.26 2078.99 1363 Q2078.99 1362.53 2079.46 1362.53 Q2079.79 1362.53 2080.93 1363.49 Q2082.11 1364.45 2083.86 1366.65 Q2085.64 1368.86 2086.95 1371.55 Q2090.12 1378.09 2090.12 1386.52 Q2090.12 1394.62 2087.09 1401.16 Q2085.81 1403.9 2084 1406.19 Q2082.2 1408.49 2081 1409.49 Q2079.81 1410.5 2079.46 1410.5 Q2078.99 1410.5 2078.99 1410.03 Z" fill="#000000" fill-rule="nonzero" fill-opacity="1" /><path clip-path="url(#clip680)" d="M2142.38 1385.84 Q2142.66 1386.12 2142.66 1386.52 Q2142.66 1386.92 2142.38 1387.2 Q2142.1 1387.48 2141.7 1387.48 L2111.67 1387.48 Q2111.27 1387.48 2110.99 1387.2 Q2110.71 1386.92 2110.71 1386.52 Q2110.71 1386.12 2110.99 1385.84 Q2111.27 1385.56 2111.67 1385.56 L2141.7 1385.56 Q2142.1 1385.56 2142.38 1385.84 Z" fill="#000000" fill-rule="nonzero" fill-opacity="1" /><path clip-path="url(#clip680)" d="M2192.86 1366.19 Q2192.86 1366.33 2192.72 1366.89 L2165.9 1396.87 L2174.1 1396.87 Q2176.52 1396.87 2178.34 1396.45 Q2180.17 1396 2181.43 1395.25 Q2182.7 1394.5 2183.68 1393.22 Q2184.69 1391.9 2185.35 1390.48 Q2186 1389.02 2186.68 1386.89 Q2186.94 1386.07 2187.06 1385.88 Q2187.17 1385.7 2187.48 1385.7 Q2187.78 1385.7 2187.95 1385.88 Q2188.11 1386.05 2188.11 1386.24 Q2188.11 1386.33 2188.06 1386.47 Q2188.04 1386.59 2187.99 1386.73 Q2187.95 1386.87 2187.92 1386.94 L2184.5 1397.55 Q2184.29 1398.23 2184.08 1398.37 Q2183.87 1398.51 2183.03 1398.51 L2162.16 1398.51 Q2161.43 1398.51 2161.2 1398.46 Q2160.96 1398.39 2160.96 1398.09 L2161.15 1397.22 L2187.97 1367.24 L2180.15 1367.24 Q2177.94 1367.24 2176.21 1367.64 Q2174.5 1368.01 2173.28 1368.72 Q2172.06 1369.4 2171.13 1370.54 Q2170.19 1371.67 2169.56 1372.98 Q2168.93 1374.27 2168.34 1376.07 L2168.27 1376.19 Q2168.2 1376.3 2168.15 1376.38 Q2168.11 1376.42 2167.99 1376.49 Q2167.87 1376.54 2167.73 1376.54 Q2167.47 1376.54 2167.31 1376.4 Q2167.17 1376.26 2167.17 1376.12 L2167.15 1376 Q2167.19 1375.58 2167.29 1375.34 L2169.93 1366.7 Q2170.14 1366.02 2170.36 1365.88 Q2170.57 1365.74 2171.41 1365.74 L2191.67 1365.74 Q2192.42 1365.74 2192.63 1365.81 Q2192.86 1365.88 2192.86 1366.19 Z" fill="#000000" fill-rule="nonzero" fill-opacity="1" /><path clip-path="url(#clip680)" d="M2197.8 1386.52 Q2197.8 1378.41 2200.82 1371.88 Q2202.11 1369.14 2203.92 1366.84 Q2205.72 1364.55 2206.91 1363.54 Q2208.11 1362.53 2208.44 1362.53 Q2208.91 1362.53 2208.93 1363 Q2208.93 1363.24 2208.3 1363.82 Q2200.57 1371.69 2200.59 1386.52 Q2200.59 1401.39 2208.11 1408.96 Q2208.93 1409.78 2208.93 1410.03 Q2208.93 1410.5 2208.44 1410.5 Q2208.11 1410.5 2206.96 1409.54 Q2205.81 1408.58 2204.03 1406.38 Q2202.25 1404.18 2200.96 1401.48 Q2197.8 1394.95 2197.8 1386.52 Z" fill="#000000" fill-rule="nonzero" fill-opacity="1" /><path clip-path="url(#clip680)" d="M2236.46 1380.47 Q2236.46 1381.79 2235.64 1382.54 Q2234.82 1383.26 2233.88 1383.26 Q2232.99 1383.26 2232.53 1382.75 Q2232.06 1382.23 2232.06 1381.57 Q2232.06 1380.68 2232.71 1379.91 Q2233.37 1379.14 2234.35 1378.98 Q2233.39 1378.37 2231.96 1378.37 Q2231.03 1378.37 2230.21 1378.86 Q2229.41 1379.35 2228.92 1379.98 Q2228.45 1380.61 2228.03 1381.53 Q2227.63 1382.42 2227.47 1382.96 Q2227.33 1383.47 2227.21 1384.03 L2225.57 1390.59 Q2224.77 1393.71 2224.77 1394.81 Q2224.77 1396.17 2225.43 1397.08 Q2226.09 1397.97 2227.4 1397.97 Q2227.91 1397.97 2228.5 1397.83 Q2229.08 1397.67 2229.83 1397.24 Q2230.61 1396.8 2231.28 1396.14 Q2231.99 1395.46 2232.67 1394.32 Q2233.35 1393.17 2233.79 1391.69 Q2233.93 1391.18 2234.4 1391.18 Q2234.99 1391.18 2234.99 1391.65 Q2234.99 1392.04 2234.66 1392.89 Q2234.35 1393.71 2233.67 1394.79 Q2233.02 1395.84 2232.15 1396.8 Q2231.28 1397.74 2230 1398.39 Q2228.71 1399.05 2227.3 1399.05 Q2225.29 1399.05 2223.95 1397.97 Q2222.62 1396.89 2222.13 1395.39 Q2222.01 1395.61 2221.85 1395.89 Q2221.68 1396.17 2221.19 1396.8 Q2220.72 1397.41 2220.18 1397.88 Q2219.64 1398.32 2218.8 1398.67 Q2217.98 1399.05 2217.09 1399.05 Q2215.97 1399.05 2214.96 1398.72 Q2213.98 1398.39 2213.27 1397.64 Q2212.57 1396.89 2212.57 1395.86 Q2212.57 1394.71 2213.34 1393.92 Q2214.14 1393.1 2215.22 1393.1 Q2215.9 1393.1 2216.44 1393.5 Q2217 1393.9 2217 1394.76 Q2217 1395.72 2216.34 1396.45 Q2215.69 1397.17 2214.75 1397.36 Q2215.71 1397.97 2217.14 1397.97 Q2218.68 1397.97 2219.9 1396.61 Q2221.12 1395.25 2221.71 1392.98 Q2223.16 1387.52 2223.72 1385.09 Q2224.28 1382.63 2224.28 1381.57 Q2224.28 1380.59 2224.02 1379.91 Q2223.77 1379.23 2223.32 1378.93 Q2222.9 1378.6 2222.5 1378.48 Q2222.13 1378.37 2221.71 1378.37 Q2221 1378.37 2220.21 1378.65 Q2219.43 1378.93 2218.5 1379.58 Q2217.58 1380.22 2216.72 1381.53 Q2215.85 1382.84 2215.26 1384.64 Q2215.15 1385.18 2214.63 1385.18 Q2214.07 1385.16 2214.07 1384.69 Q2214.07 1384.29 2214.37 1383.47 Q2214.7 1382.63 2215.36 1381.57 Q2216.04 1380.52 2216.9 1379.58 Q2217.79 1378.62 2219.08 1377.97 Q2220.39 1377.31 2221.8 1377.31 Q2222.43 1377.31 2223.04 1377.45 Q2223.67 1377.57 2224.42 1377.92 Q2225.2 1378.27 2225.87 1379.05 Q2226.55 1379.82 2226.98 1380.94 Q2227.26 1380.4 2227.63 1379.89 Q2228.03 1379.37 2228.64 1378.74 Q2229.27 1378.09 2230.14 1377.71 Q2231.03 1377.31 2232.01 1377.31 Q2232.97 1377.31 2233.91 1377.57 Q2234.85 1377.8 2235.64 1378.58 Q2236.46 1379.33 2236.46 1380.47 Z" fill="#000000" fill-rule="nonzero" fill-opacity="1" /><path clip-path="url(#clip680)" d="M2241.07 1410.03 Q2241.07 1409.8 2241.68 1409.21 Q2249.41 1401.34 2249.41 1386.52 Q2249.41 1371.64 2241.99 1364.13 Q2241.07 1363.26 2241.07 1363 Q2241.07 1362.53 2241.54 1362.53 Q2241.87 1362.53 2243.02 1363.49 Q2244.19 1364.45 2245.95 1366.65 Q2247.73 1368.86 2249.04 1371.55 Q2252.2 1378.09 2252.2 1386.52 Q2252.2 1394.62 2249.18 1401.16 Q2247.89 1403.9 2246.09 1406.19 Q2244.28 1408.49 2243.09 1409.49 Q2241.89 1410.5 2241.54 1410.5 Q2241.07 1410.5 2241.07 1410.03 Z" fill="#000000" fill-rule="nonzero" fill-opacity="1" /></svg>
