<?xml version="1.0" encoding="utf-8"?>
<svg xmlns="http://www.w3.org/2000/svg" xmlns:xlink="http://www.w3.org/1999/xlink" width="600" height="400" viewBox="0 0 2400 1600">
<defs>
  <clipPath id="clip860">
    <rect x="0" y="0" width="2400" height="1600"/>
  </clipPath>
</defs>
<path clip-path="url(#clip860)" d="M0 1600 L2400 1600 L2400 0 L0 0  Z" fill="#ffffff" fill-rule="evenodd" fill-opacity="1"/>
<defs>
  <clipPath id="clip861">
    <rect x="480" y="0" width="1681" height="1600"/>
  </clipPath>
</defs>
<path clip-path="url(#clip860)" d="M224.584 1486.45 L2352.76 1486.45 L2352.76 47.2441 L224.584 47.2441  Z" fill="#ffffff" fill-rule="evenodd" fill-opacity="1"/>
<defs>
  <clipPath id="clip862">
    <rect x="224" y="47" width="2129" height="1440"/>
  </clipPath>
</defs>
<polyline clip-path="url(#clip862)" style="stroke:#000000; stroke-linecap:round; stroke-linejoin:round; stroke-width:2; stroke-opacity:0.1; fill:none" points="284.815,1486.45 284.815,47.2441 "/>
<polyline clip-path="url(#clip862)" style="stroke:#000000; stroke-linecap:round; stroke-linejoin:round; stroke-width:2; stroke-opacity:0.1; fill:none" points="619.433,1486.45 619.433,47.2441 "/>
<polyline clip-path="url(#clip862)" style="stroke:#000000; stroke-linecap:round; stroke-linejoin:round; stroke-width:2; stroke-opacity:0.1; fill:none" points="954.052,1486.45 954.052,47.2441 "/>
<polyline clip-path="url(#clip862)" style="stroke:#000000; stroke-linecap:round; stroke-linejoin:round; stroke-width:2; stroke-opacity:0.1; fill:none" points="1288.67,1486.45 1288.67,47.2441 "/>
<polyline clip-path="url(#clip862)" style="stroke:#000000; stroke-linecap:round; stroke-linejoin:round; stroke-width:2; stroke-opacity:0.1; fill:none" points="1623.29,1486.45 1623.29,47.2441 "/>
<polyline clip-path="url(#clip862)" style="stroke:#000000; stroke-linecap:round; stroke-linejoin:round; stroke-width:2; stroke-opacity:0.1; fill:none" points="1957.91,1486.45 1957.91,47.2441 "/>
<polyline clip-path="url(#clip862)" style="stroke:#000000; stroke-linecap:round; stroke-linejoin:round; stroke-width:2; stroke-opacity:0.1; fill:none" points="2292.52,1486.45 2292.52,47.2441 "/>
<polyline clip-path="url(#clip860)" style="stroke:#000000; stroke-linecap:round; stroke-linejoin:round; stroke-width:4; stroke-opacity:1; fill:none" points="224.584,1486.45 2352.76,1486.45 "/>
<polyline clip-path="url(#clip860)" style="stroke:#000000; stroke-linecap:round; stroke-linejoin:round; stroke-width:4; stroke-opacity:1; fill:none" points="284.815,1486.45 284.815,1467.55 "/>
<polyline clip-path="url(#clip860)" style="stroke:#000000; stroke-linecap:round; stroke-linejoin:round; stroke-width:4; stroke-opacity:1; fill:none" points="619.433,1486.45 619.433,1467.55 "/>
<polyline clip-path="url(#clip860)" style="stroke:#000000; stroke-linecap:round; stroke-linejoin:round; stroke-width:4; stroke-opacity:1; fill:none" points="954.052,1486.45 954.052,1467.55 "/>
<polyline clip-path="url(#clip860)" style="stroke:#000000; stroke-linecap:round; stroke-linejoin:round; stroke-width:4; stroke-opacity:1; fill:none" points="1288.67,1486.45 1288.67,1467.55 "/>
<polyline clip-path="url(#clip860)" style="stroke:#000000; stroke-linecap:round; stroke-linejoin:round; stroke-width:4; stroke-opacity:1; fill:none" points="1623.29,1486.45 1623.29,1467.55 "/>
<polyline clip-path="url(#clip860)" style="stroke:#000000; stroke-linecap:round; stroke-linejoin:round; stroke-width:4; stroke-opacity:1; fill:none" points="1957.91,1486.45 1957.91,1467.55 "/>
<polyline clip-path="url(#clip860)" style="stroke:#000000; stroke-linecap:round; stroke-linejoin:round; stroke-width:4; stroke-opacity:1; fill:none" points="2292.52,1486.45 2292.52,1467.55 "/>
<path clip-path="url(#clip860)" d="M284.815 1517.37 Q281.204 1517.37 279.375 1520.93 Q277.57 1524.47 277.57 1531.6 Q277.57 1538.71 279.375 1542.27 Q281.204 1545.82 284.815 1545.82 Q288.45 1545.82 290.255 1542.27 Q292.084 1538.71 292.084 1531.6 Q292.084 1524.47 290.255 1520.93 Q288.45 1517.37 284.815 1517.37 M284.815 1513.66 Q290.625 1513.66 293.681 1518.27 Q296.76 1522.85 296.76 1531.6 Q296.76 1540.33 293.681 1544.94 Q290.625 1549.52 284.815 1549.52 Q279.005 1549.52 275.926 1544.94 Q272.871 1540.33 272.871 1531.6 Q272.871 1522.85 275.926 1518.27 Q279.005 1513.66 284.815 1513.66 Z" fill="#000000" fill-rule="nonzero" fill-opacity="1" /><path clip-path="url(#clip860)" d="M609.815 1544.91 L617.454 1544.91 L617.454 1518.55 L609.144 1520.21 L609.144 1515.95 L617.408 1514.29 L622.084 1514.29 L622.084 1544.91 L629.723 1544.91 L629.723 1548.85 L609.815 1548.85 L609.815 1544.91 Z" fill="#000000" fill-rule="nonzero" fill-opacity="1" /><path clip-path="url(#clip860)" d="M948.705 1544.91 L965.024 1544.91 L965.024 1548.85 L943.08 1548.85 L943.08 1544.91 Q945.742 1542.16 950.325 1537.53 Q954.931 1532.88 956.112 1531.53 Q958.357 1529.01 959.237 1527.27 Q960.14 1525.51 960.14 1523.82 Q960.14 1521.07 958.195 1519.33 Q956.274 1517.6 953.172 1517.6 Q950.973 1517.6 948.519 1518.36 Q946.089 1519.13 943.311 1520.68 L943.311 1515.95 Q946.135 1514.82 948.589 1514.24 Q951.042 1513.66 953.079 1513.66 Q958.45 1513.66 961.644 1516.35 Q964.839 1519.03 964.839 1523.52 Q964.839 1525.65 964.029 1527.57 Q963.241 1529.47 961.135 1532.07 Q960.556 1532.74 957.454 1535.95 Q954.353 1539.15 948.705 1544.91 Z" fill="#000000" fill-rule="nonzero" fill-opacity="1" /><path clip-path="url(#clip860)" d="M1292.92 1530.21 Q1296.27 1530.93 1298.15 1533.2 Q1300.05 1535.47 1300.05 1538.8 Q1300.05 1543.92 1296.53 1546.72 Q1293.01 1549.52 1286.53 1549.52 Q1284.35 1549.52 1282.04 1549.08 Q1279.75 1548.66 1277.29 1547.81 L1277.29 1543.29 Q1279.24 1544.43 1281.55 1545.01 Q1283.87 1545.58 1286.39 1545.58 Q1290.79 1545.58 1293.08 1543.85 Q1295.39 1542.11 1295.39 1538.8 Q1295.39 1535.75 1293.24 1534.03 Q1291.11 1532.3 1287.29 1532.3 L1283.26 1532.3 L1283.26 1528.45 L1287.48 1528.45 Q1290.93 1528.45 1292.76 1527.09 Q1294.58 1525.7 1294.58 1523.11 Q1294.58 1520.45 1292.69 1519.03 Q1290.81 1517.6 1287.29 1517.6 Q1285.37 1517.6 1283.17 1518.01 Q1280.97 1518.43 1278.33 1519.31 L1278.33 1515.14 Q1281 1514.4 1283.31 1514.03 Q1285.65 1513.66 1287.71 1513.66 Q1293.03 1513.66 1296.14 1516.09 Q1299.24 1518.5 1299.24 1522.62 Q1299.24 1525.49 1297.59 1527.48 Q1295.95 1529.45 1292.92 1530.21 Z" fill="#000000" fill-rule="nonzero" fill-opacity="1" /><path clip-path="url(#clip860)" d="M1626.3 1518.36 L1614.49 1536.81 L1626.3 1536.81 L1626.3 1518.36 M1625.07 1514.29 L1630.95 1514.29 L1630.95 1536.81 L1635.88 1536.81 L1635.88 1540.7 L1630.95 1540.7 L1630.95 1548.85 L1626.3 1548.85 L1626.3 1540.7 L1610.7 1540.7 L1610.7 1536.19 L1625.07 1514.29 Z" fill="#000000" fill-rule="nonzero" fill-opacity="1" /><path clip-path="url(#clip860)" d="M1948.18 1514.29 L1966.54 1514.29 L1966.54 1518.22 L1952.47 1518.22 L1952.47 1526.7 Q1953.49 1526.35 1954.5 1526.19 Q1955.52 1526 1956.54 1526 Q1962.33 1526 1965.71 1529.17 Q1969.09 1532.34 1969.09 1537.76 Q1969.09 1543.34 1965.61 1546.44 Q1962.14 1549.52 1955.82 1549.52 Q1953.65 1549.52 1951.38 1549.15 Q1949.13 1548.78 1946.73 1548.04 L1946.73 1543.34 Q1948.81 1544.47 1951.03 1545.03 Q1953.25 1545.58 1955.73 1545.58 Q1959.74 1545.58 1962.07 1543.48 Q1964.41 1541.37 1964.41 1537.76 Q1964.41 1534.15 1962.07 1532.04 Q1959.74 1529.94 1955.73 1529.94 Q1953.86 1529.94 1951.98 1530.35 Q1950.13 1530.77 1948.18 1531.65 L1948.18 1514.29 Z" fill="#000000" fill-rule="nonzero" fill-opacity="1" /><path clip-path="url(#clip860)" d="M2292.93 1529.7 Q2289.78 1529.7 2287.93 1531.86 Q2286.1 1534.01 2286.1 1537.76 Q2286.1 1541.49 2287.93 1543.66 Q2289.78 1545.82 2292.93 1545.82 Q2296.08 1545.82 2297.91 1543.66 Q2299.76 1541.49 2299.76 1537.76 Q2299.76 1534.01 2297.91 1531.86 Q2296.08 1529.7 2292.93 1529.7 M2302.21 1515.05 L2302.21 1519.31 Q2300.45 1518.48 2298.65 1518.04 Q2296.86 1517.6 2295.11 1517.6 Q2290.48 1517.6 2288.02 1520.72 Q2285.59 1523.85 2285.24 1530.17 Q2286.61 1528.15 2288.67 1527.09 Q2290.73 1526 2293.21 1526 Q2298.42 1526 2301.43 1529.17 Q2304.46 1532.32 2304.46 1537.76 Q2304.46 1543.08 2301.31 1546.3 Q2298.16 1549.52 2292.93 1549.52 Q2286.93 1549.52 2283.76 1544.94 Q2280.59 1540.33 2280.59 1531.6 Q2280.59 1523.41 2284.48 1518.55 Q2288.37 1513.66 2294.92 1513.66 Q2296.68 1513.66 2298.46 1514.01 Q2300.27 1514.36 2302.21 1515.05 Z" fill="#000000" fill-rule="nonzero" fill-opacity="1" /><polyline clip-path="url(#clip862)" style="stroke:#000000; stroke-linecap:round; stroke-linejoin:round; stroke-width:2; stroke-opacity:0.1; fill:none" points="224.584,1361.7 2352.76,1361.7 "/>
<polyline clip-path="url(#clip862)" style="stroke:#000000; stroke-linecap:round; stroke-linejoin:round; stroke-width:2; stroke-opacity:0.1; fill:none" points="224.584,1039.65 2352.76,1039.65 "/>
<polyline clip-path="url(#clip862)" style="stroke:#000000; stroke-linecap:round; stroke-linejoin:round; stroke-width:2; stroke-opacity:0.1; fill:none" points="224.584,717.59 2352.76,717.59 "/>
<polyline clip-path="url(#clip862)" style="stroke:#000000; stroke-linecap:round; stroke-linejoin:round; stroke-width:2; stroke-opacity:0.1; fill:none" points="224.584,395.535 2352.76,395.535 "/>
<polyline clip-path="url(#clip862)" style="stroke:#000000; stroke-linecap:round; stroke-linejoin:round; stroke-width:2; stroke-opacity:0.1; fill:none" points="224.584,73.4805 2352.76,73.4805 "/>
<polyline clip-path="url(#clip860)" style="stroke:#000000; stroke-linecap:round; stroke-linejoin:round; stroke-width:4; stroke-opacity:1; fill:none" points="224.584,1486.45 224.584,47.2441 "/>
<polyline clip-path="url(#clip860)" style="stroke:#000000; stroke-linecap:round; stroke-linejoin:round; stroke-width:4; stroke-opacity:1; fill:none" points="224.584,1361.7 243.482,1361.7 "/>
<polyline clip-path="url(#clip860)" style="stroke:#000000; stroke-linecap:round; stroke-linejoin:round; stroke-width:4; stroke-opacity:1; fill:none" points="224.584,1039.65 243.482,1039.65 "/>
<polyline clip-path="url(#clip860)" style="stroke:#000000; stroke-linecap:round; stroke-linejoin:round; stroke-width:4; stroke-opacity:1; fill:none" points="224.584,717.59 243.482,717.59 "/>
<polyline clip-path="url(#clip860)" style="stroke:#000000; stroke-linecap:round; stroke-linejoin:round; stroke-width:4; stroke-opacity:1; fill:none" points="224.584,395.535 243.482,395.535 "/>
<polyline clip-path="url(#clip860)" style="stroke:#000000; stroke-linecap:round; stroke-linejoin:round; stroke-width:4; stroke-opacity:1; fill:none" points="224.584,73.4805 243.482,73.4805 "/>
<path clip-path="url(#clip860)" d="M50.9921 1362.15 L80.6679 1362.15 L80.6679 1366.09 L50.9921 1366.09 L50.9921 1362.15 Z" fill="#000000" fill-rule="nonzero" fill-opacity="1" /><path clip-path="url(#clip860)" d="M100.76 1347.5 Q97.1493 1347.5 95.3206 1351.06 Q93.515 1354.61 93.515 1361.73 Q93.515 1368.84 95.3206 1372.41 Q97.1493 1375.95 100.76 1375.95 Q104.395 1375.95 106.2 1372.41 Q108.029 1368.84 108.029 1361.73 Q108.029 1354.61 106.2 1351.06 Q104.395 1347.5 100.76 1347.5 M100.76 1343.79 Q106.571 1343.79 109.626 1348.4 Q112.705 1352.98 112.705 1361.73 Q112.705 1370.46 109.626 1375.07 Q106.571 1379.65 100.76 1379.65 Q94.9502 1379.65 91.8715 1375.07 Q88.816 1370.46 88.816 1361.73 Q88.816 1352.98 91.8715 1348.4 Q94.9502 1343.79 100.76 1343.79 Z" fill="#000000" fill-rule="nonzero" fill-opacity="1" /><path clip-path="url(#clip860)" d="M120.922 1373.1 L125.807 1373.1 L125.807 1378.98 L120.922 1378.98 L120.922 1373.1 Z" fill="#000000" fill-rule="nonzero" fill-opacity="1" /><path clip-path="url(#clip860)" d="M145.992 1347.5 Q142.381 1347.5 140.552 1351.06 Q138.746 1354.61 138.746 1361.73 Q138.746 1368.84 140.552 1372.41 Q142.381 1375.95 145.992 1375.95 Q149.626 1375.95 151.431 1372.41 Q153.26 1368.84 153.26 1361.73 Q153.26 1354.61 151.431 1351.06 Q149.626 1347.5 145.992 1347.5 M145.992 1343.79 Q151.802 1343.79 154.857 1348.4 Q157.936 1352.98 157.936 1361.73 Q157.936 1370.46 154.857 1375.07 Q151.802 1379.65 145.992 1379.65 Q140.181 1379.65 137.103 1375.07 Q134.047 1370.46 134.047 1361.73 Q134.047 1352.98 137.103 1348.4 Q140.181 1343.79 145.992 1343.79 Z" fill="#000000" fill-rule="nonzero" fill-opacity="1" /><path clip-path="url(#clip860)" d="M179.001 1348.49 L167.195 1366.94 L179.001 1366.94 L179.001 1348.49 M177.774 1344.42 L183.653 1344.42 L183.653 1366.94 L188.584 1366.94 L188.584 1370.83 L183.653 1370.83 L183.653 1378.98 L179.001 1378.98 L179.001 1370.83 L163.399 1370.83 L163.399 1366.32 L177.774 1344.42 Z" fill="#000000" fill-rule="nonzero" fill-opacity="1" /><path clip-path="url(#clip860)" d="M53.0754 1040.1 L82.7512 1040.1 L82.7512 1044.03 L53.0754 1044.03 L53.0754 1040.1 Z" fill="#000000" fill-rule="nonzero" fill-opacity="1" /><path clip-path="url(#clip860)" d="M102.844 1025.44 Q99.2326 1025.44 97.4039 1029.01 Q95.5984 1032.55 95.5984 1039.68 Q95.5984 1046.79 97.4039 1050.35 Q99.2326 1053.89 102.844 1053.89 Q106.478 1053.89 108.283 1050.35 Q110.112 1046.79 110.112 1039.68 Q110.112 1032.55 108.283 1029.01 Q106.478 1025.44 102.844 1025.44 M102.844 1021.74 Q108.654 1021.74 111.709 1026.35 Q114.788 1030.93 114.788 1039.68 Q114.788 1048.41 111.709 1053.01 Q108.654 1057.6 102.844 1057.6 Q97.0335 1057.6 93.9549 1053.01 Q90.8993 1048.41 90.8993 1039.68 Q90.8993 1030.93 93.9549 1026.35 Q97.0335 1021.74 102.844 1021.74 Z" fill="#000000" fill-rule="nonzero" fill-opacity="1" /><path clip-path="url(#clip860)" d="M123.006 1051.05 L127.89 1051.05 L127.89 1056.93 L123.006 1056.93 L123.006 1051.05 Z" fill="#000000" fill-rule="nonzero" fill-opacity="1" /><path clip-path="url(#clip860)" d="M148.075 1025.44 Q144.464 1025.44 142.635 1029.01 Q140.83 1032.55 140.83 1039.68 Q140.83 1046.79 142.635 1050.35 Q144.464 1053.89 148.075 1053.89 Q151.709 1053.89 153.515 1050.35 Q155.343 1046.79 155.343 1039.68 Q155.343 1032.55 153.515 1029.01 Q151.709 1025.44 148.075 1025.44 M148.075 1021.74 Q153.885 1021.74 156.941 1026.35 Q160.019 1030.93 160.019 1039.68 Q160.019 1048.41 156.941 1053.01 Q153.885 1057.6 148.075 1057.6 Q142.265 1057.6 139.186 1053.01 Q136.131 1048.41 136.131 1039.68 Q136.131 1030.93 139.186 1026.35 Q142.265 1021.74 148.075 1021.74 Z" fill="#000000" fill-rule="nonzero" fill-opacity="1" /><path clip-path="url(#clip860)" d="M172.265 1052.99 L188.584 1052.99 L188.584 1056.93 L166.64 1056.93 L166.64 1052.99 Q169.302 1050.24 173.885 1045.61 Q178.491 1040.95 179.672 1039.61 Q181.917 1037.09 182.797 1035.35 Q183.7 1033.59 183.7 1031.9 Q183.7 1029.15 181.755 1027.41 Q179.834 1025.68 176.732 1025.68 Q174.533 1025.68 172.079 1026.44 Q169.649 1027.2 166.871 1028.75 L166.871 1024.03 Q169.695 1022.9 172.149 1022.32 Q174.603 1021.74 176.64 1021.74 Q182.01 1021.74 185.204 1024.43 Q188.399 1027.11 188.399 1031.6 Q188.399 1033.73 187.589 1035.65 Q186.802 1037.55 184.695 1040.14 Q184.116 1040.81 181.015 1044.03 Q177.913 1047.23 172.265 1052.99 Z" fill="#000000" fill-rule="nonzero" fill-opacity="1" /><path clip-path="url(#clip860)" d="M101.246 703.389 Q97.6354 703.389 95.8067 706.954 Q94.0012 710.495 94.0012 717.625 Q94.0012 724.731 95.8067 728.296 Q97.6354 731.838 101.246 731.838 Q104.881 731.838 106.686 728.296 Q108.515 724.731 108.515 717.625 Q108.515 710.495 106.686 706.954 Q104.881 703.389 101.246 703.389 M101.246 699.685 Q107.057 699.685 110.112 704.292 Q113.191 708.875 113.191 717.625 Q113.191 726.352 110.112 730.958 Q107.057 735.541 101.246 735.541 Q95.4363 735.541 92.3576 730.958 Q89.3021 726.352 89.3021 717.625 Q89.3021 708.875 92.3576 704.292 Q95.4363 699.685 101.246 699.685 Z" fill="#000000" fill-rule="nonzero" fill-opacity="1" /><path clip-path="url(#clip860)" d="M121.408 728.991 L126.293 728.991 L126.293 734.87 L121.408 734.87 L121.408 728.991 Z" fill="#000000" fill-rule="nonzero" fill-opacity="1" /><path clip-path="url(#clip860)" d="M146.478 703.389 Q142.867 703.389 141.038 706.954 Q139.232 710.495 139.232 717.625 Q139.232 724.731 141.038 728.296 Q142.867 731.838 146.478 731.838 Q150.112 731.838 151.918 728.296 Q153.746 724.731 153.746 717.625 Q153.746 710.495 151.918 706.954 Q150.112 703.389 146.478 703.389 M146.478 699.685 Q152.288 699.685 155.343 704.292 Q158.422 708.875 158.422 717.625 Q158.422 726.352 155.343 730.958 Q152.288 735.541 146.478 735.541 Q140.668 735.541 137.589 730.958 Q134.533 726.352 134.533 717.625 Q134.533 708.875 137.589 704.292 Q140.668 699.685 146.478 699.685 Z" fill="#000000" fill-rule="nonzero" fill-opacity="1" /><path clip-path="url(#clip860)" d="M176.64 703.389 Q173.029 703.389 171.2 706.954 Q169.394 710.495 169.394 717.625 Q169.394 724.731 171.2 728.296 Q173.029 731.838 176.64 731.838 Q180.274 731.838 182.079 728.296 Q183.908 724.731 183.908 717.625 Q183.908 710.495 182.079 706.954 Q180.274 703.389 176.64 703.389 M176.64 699.685 Q182.45 699.685 185.505 704.292 Q188.584 708.875 188.584 717.625 Q188.584 726.352 185.505 730.958 Q182.45 735.541 176.64 735.541 Q170.829 735.541 167.751 730.958 Q164.695 726.352 164.695 717.625 Q164.695 708.875 167.751 704.292 Q170.829 699.685 176.64 699.685 Z" fill="#000000" fill-rule="nonzero" fill-opacity="1" /><path clip-path="url(#clip860)" d="M102.844 381.334 Q99.2326 381.334 97.4039 384.899 Q95.5984 388.44 95.5984 395.57 Q95.5984 402.677 97.4039 406.241 Q99.2326 409.783 102.844 409.783 Q106.478 409.783 108.283 406.241 Q110.112 402.677 110.112 395.57 Q110.112 388.44 108.283 384.899 Q106.478 381.334 102.844 381.334 M102.844 377.63 Q108.654 377.63 111.709 382.237 Q114.788 386.82 114.788 395.57 Q114.788 404.297 111.709 408.903 Q108.654 413.487 102.844 413.487 Q97.0335 413.487 93.9549 408.903 Q90.8993 404.297 90.8993 395.57 Q90.8993 386.82 93.9549 382.237 Q97.0335 377.63 102.844 377.63 Z" fill="#000000" fill-rule="nonzero" fill-opacity="1" /><path clip-path="url(#clip860)" d="M123.006 406.936 L127.89 406.936 L127.89 412.815 L123.006 412.815 L123.006 406.936 Z" fill="#000000" fill-rule="nonzero" fill-opacity="1" /><path clip-path="url(#clip860)" d="M148.075 381.334 Q144.464 381.334 142.635 384.899 Q140.83 388.44 140.83 395.57 Q140.83 402.677 142.635 406.241 Q144.464 409.783 148.075 409.783 Q151.709 409.783 153.515 406.241 Q155.343 402.677 155.343 395.57 Q155.343 388.44 153.515 384.899 Q151.709 381.334 148.075 381.334 M148.075 377.63 Q153.885 377.63 156.941 382.237 Q160.019 386.82 160.019 395.57 Q160.019 404.297 156.941 408.903 Q153.885 413.487 148.075 413.487 Q142.265 413.487 139.186 408.903 Q136.131 404.297 136.131 395.57 Q136.131 386.82 139.186 382.237 Q142.265 377.63 148.075 377.63 Z" fill="#000000" fill-rule="nonzero" fill-opacity="1" /><path clip-path="url(#clip860)" d="M172.265 408.88 L188.584 408.88 L188.584 412.815 L166.64 412.815 L166.64 408.88 Q169.302 406.126 173.885 401.496 Q178.491 396.843 179.672 395.501 Q181.917 392.977 182.797 391.241 Q183.7 389.482 183.7 387.792 Q183.7 385.038 181.755 383.302 Q179.834 381.566 176.732 381.566 Q174.533 381.566 172.079 382.329 Q169.649 383.093 166.871 384.644 L166.871 379.922 Q169.695 378.788 172.149 378.209 Q174.603 377.63 176.64 377.63 Q182.01 377.63 185.204 380.316 Q188.399 383.001 188.399 387.491 Q188.399 389.621 187.589 391.542 Q186.802 393.44 184.695 396.033 Q184.116 396.704 181.015 399.922 Q177.913 403.116 172.265 408.88 Z" fill="#000000" fill-rule="nonzero" fill-opacity="1" /><path clip-path="url(#clip860)" d="M100.76 59.2792 Q97.1493 59.2792 95.3206 62.844 Q93.515 66.3856 93.515 73.5152 Q93.515 80.6216 95.3206 84.1864 Q97.1493 87.7281 100.76 87.7281 Q104.395 87.7281 106.2 84.1864 Q108.029 80.6216 108.029 73.5152 Q108.029 66.3856 106.2 62.844 Q104.395 59.2792 100.76 59.2792 M100.76 55.5755 Q106.571 55.5755 109.626 60.1819 Q112.705 64.7652 112.705 73.5152 Q112.705 82.242 109.626 86.8485 Q106.571 91.4318 100.76 91.4318 Q94.9502 91.4318 91.8715 86.8485 Q88.816 82.242 88.816 73.5152 Q88.816 64.7652 91.8715 60.1819 Q94.9502 55.5755 100.76 55.5755 Z" fill="#000000" fill-rule="nonzero" fill-opacity="1" /><path clip-path="url(#clip860)" d="M120.922 84.8809 L125.807 84.8809 L125.807 90.7605 L120.922 90.7605 L120.922 84.8809 Z" fill="#000000" fill-rule="nonzero" fill-opacity="1" /><path clip-path="url(#clip860)" d="M145.992 59.2792 Q142.381 59.2792 140.552 62.844 Q138.746 66.3856 138.746 73.5152 Q138.746 80.6216 140.552 84.1864 Q142.381 87.7281 145.992 87.7281 Q149.626 87.7281 151.431 84.1864 Q153.26 80.6216 153.26 73.5152 Q153.26 66.3856 151.431 62.844 Q149.626 59.2792 145.992 59.2792 M145.992 55.5755 Q151.802 55.5755 154.857 60.1819 Q157.936 64.7652 157.936 73.5152 Q157.936 82.242 154.857 86.8485 Q151.802 91.4318 145.992 91.4318 Q140.181 91.4318 137.103 86.8485 Q134.047 82.242 134.047 73.5152 Q134.047 64.7652 137.103 60.1819 Q140.181 55.5755 145.992 55.5755 Z" fill="#000000" fill-rule="nonzero" fill-opacity="1" /><path clip-path="url(#clip860)" d="M179.001 60.2745 L167.195 78.7235 L179.001 78.7235 L179.001 60.2745 M177.774 56.2005 L183.653 56.2005 L183.653 78.7235 L188.584 78.7235 L188.584 82.6124 L183.653 82.6124 L183.653 90.7605 L179.001 90.7605 L179.001 82.6124 L163.399 82.6124 L163.399 78.0985 L177.774 56.2005 Z" fill="#000000" fill-rule="nonzero" fill-opacity="1" /><polyline clip-path="url(#clip862)" style="stroke:#009af9; stroke-linecap:round; stroke-linejoin:round; stroke-width:4; stroke-opacity:1; fill:none" points="284.815,717.59 288.083,715.738 291.351,710.367 294.619,701.751 297.887,690.161 301.664,673.411 305.44,653.454 309.217,630.688 312.994,605.507 316.771,578.293 320.548,549.42 324.325,519.253 328.102,488.142 335.656,424.45 343.21,360.926 346.987,329.978 350.764,299.943 354.541,271.082 358.318,243.638 362.095,217.841 365.872,193.902 369.649,172.013 373.426,152.353 377.203,135.079 380.98,120.33 384.757,108.226 388.534,98.8683 392.311,92.3375 396.088,88.6936 399.865,87.9763 403.642,90.2039 407.419,95.3736 411.196,103.461 414.972,114.419 418.749,128.179 421.019,137.759 423.289,148.294 425.559,159.759 427.829,172.123 430.098,185.353 432.368,199.415 434.638,214.269 436.908,229.873 441.447,263.151 445.987,298.855 450.527,336.541 455.066,375.717 464.145,456.329 473.225,535.779 477.764,573.323 482.304,608.386 484.574,624.73 486.843,640.139 489.113,654.502 491.383,667.705 493.302,677.878 495.221,687.066 497.14,695.196 499.059,702.193 500.978,707.981 502.898,712.482 504.817,715.617 506.736,717.306 510.574,717.21 514.412,715.473 518.25,712.575 522.088,708.761 537.441,688.608 552.794,668.554 561.132,660.356 569.471,654.946 577.81,652.649 586.148,653.524 594.487,657.399 602.826,663.912 611.164,672.547 619.503,682.679 634.878,702.919 650.253,721.382 657.941,728.675 665.628,734.146 673.316,737.536 681.003,738.731 689.245,737.641 697.487,734.417 705.729,729.675 713.97,724.357 722.212,719.767 730.454,717.599 732.514,718.151 734.575,720.597 736.635,724.882 738.696,730.9 740.756,738.545 742.817,747.712 744.877,758.299 746.938,770.207 749.325,785.525 751.712,802.334 754.099,820.487 756.487,839.843 758.874,860.261 761.261,881.607 763.648,903.748 766.036,926.558 775.585,1022.04 785.134,1118.95 789.908,1165.91 794.682,1210.92 799.457,1253.34 804.231,1292.61 806.619,1310.89 809.006,1328.2 811.393,1344.48 813.78,1359.69 816.168,1373.76 818.555,1386.68 820.942,1398.39 823.329,1408.87 825.451,1417.12 827.572,1424.35 829.694,1430.55 831.815,1435.71 833.937,1439.81 836.058,1442.85 838.18,1444.82 840.301,1445.72 842.423,1445.54 844.544,1444.3 846.666,1441.99 848.787,1438.63 850.909,1434.21 853.03,1428.76 855.152,1422.29 857.273,1414.8 859.395,1406.33 861.516,1396.89 863.638,1386.51 865.759,1375.21 870.002,1349.96 874.245,1321.41 878.488,1289.83 882.731,1255.54 886.974,1218.9 891.217,1180.3 898.659,1109.14 906.1,1035.71 913.542,962.797 920.983,893.417 922.843,877.002 924.704,861.064 926.564,845.659 928.424,830.84 932.145,803.186 935.866,778.56 937.726,767.528 939.587,757.43 941.447,748.326 943.307,740.276 945.168,733.343 947.028,727.589 948.888,723.076 950.749,719.869 954.805,717.539 958.862,715.546 962.919,710.788 966.975,703.454 971.032,693.74 975.088,681.852 979.145,668.002 983.202,652.409 987.258,635.294 991.315,616.885 995.371,597.409 999.428,577.096 1007.54,534.876 1015.65,492.043 1023.82,450.118 1031.98,411.06 1036.06,393.105 1040.14,376.444 1044.22,361.25 1048.3,347.68 1052.38,335.88 1056.46,325.981 1060.54,318.098 1064.62,312.328 1068.7,308.753 1072.78,307.436 1076.86,308.419 1080.95,311.726 1085.46,318.088 1089.97,327.263 1094.48,339.187 1098.99,353.761 1103.5,370.849 1108.02,390.279 1112.53,411.836 1117.04,435.269 1126.06,486.544 1135.09,541.243 1144.11,595.806 1153.13,645.956 1157.43,666.841 1161.72,685.003 1163.87,692.865 1166.01,699.804 1168.16,705.734 1170.3,710.568 1172.45,714.213 1174.6,716.578 1176.74,717.566 1178.89,717.121 1181.04,715.329 1183.18,712.285 1185.33,708.079 1187.48,702.8 1191.77,689.362 1196.06,672.628 1200.35,653.218 1204.65,631.713 1213.23,584.55 1221.82,535.035 1230.74,484.605 1239.67,438.273 1244.14,417.425 1248.6,398.464 1253.06,381.597 1257.53,366.996 1261.99,354.799 1266.45,345.106 1270.92,337.99 1275.38,333.487 1279.84,331.607 1284.31,332.327 1288.77,335.601 1293.23,341.352 1296.99,348.042 1300.75,356.345 1304.51,366.178 1308.26,377.448 1312.02,390.05 1315.78,403.871 1319.54,418.791 1323.29,434.68 1330.81,468.815 1338.32,505.112 1345.84,542.327 1353.35,579.158 1357.94,600.88 1362.53,621.652 1367.11,641.165 1371.7,659.114 1376.29,675.197 1380.87,689.115 1385.46,700.58 1390.05,709.311 1394.64,715.039 1399.22,717.509 1401.52,717.878 1403.81,719.733 1406.1,723.222 1408.4,728.249 1410.69,734.718 1412.99,742.535 1415.28,751.606 1417.57,761.84 1419.87,773.145 1422.16,785.434 1424.45,798.618 1426.75,812.611 1430.95,840.069 1435.15,869.454 1439.35,900.279 1443.56,932.078 1451.96,996.832 1460.37,1060.41 1464.57,1090.82 1468.77,1119.86 1472.97,1147.23 1477.17,1172.65 1481.38,1195.86 1485.58,1216.63 1489.78,1234.76 1493.98,1250.08 1497.86,1261.61 1501.75,1270.52 1505.63,1276.75 1509.51,1280.23 1513.39,1280.95 1517.27,1278.89 1521.15,1274.06 1525.03,1266.5 1528.91,1256.27 1532.79,1243.44 1536.68,1228.1 1540.56,1210.38 1544.44,1190.42 1548.32,1168.38 1552.2,1144.44 1556.08,1118.81 1563.94,1062.63 1571.81,1002.57 1579.67,941.094 1587.53,880.984 1591.46,852.4 1595.39,825.348 1599.33,800.261 1603.26,777.594 1605.22,767.315 1607.19,757.818 1609.15,749.165 1611.12,741.419 1613.09,734.644 1615.05,728.903 1617.02,724.263 1618.98,720.79 1623.39,717.59 1627.8,717.179 1632.2,715.942 1636.61,713.838 1641.01,710.845 1645.42,706.961 1649.83,702.199 1654.23,696.591 1663.04,683.032 1671.86,666.806 1680.67,648.611 1689.48,629.28 1697.46,611.554 1705.45,594.376 1713.44,578.472 1721.42,564.548 1725.41,558.536 1729.41,553.26 1733.4,548.789 1737.39,545.189 1741.38,542.516 1745.38,540.819 1749.37,540.139 1753.36,540.507 1757.93,542.241 1762.5,545.391 1767.07,549.952 1771.65,555.896 1776.22,563.175 1780.79,571.716 1785.36,581.421 1789.93,592.167 1799.07,616.149 1808.22,642.112 1817.36,668.023 1826.5,691.344 1830.73,700.43 1834.97,707.966 1839.2,713.582 1843.43,716.883 1845.55,717.534 1847.66,717.391 1849.78,716.241 1851.9,714.127 1854.01,711.117 1856.13,707.275 1858.24,702.665 1860.36,697.35 1864.59,684.843 1868.83,670.218 1873.06,653.91 1877.29,636.329 1885.76,598.854 1894.22,560.542 1902.57,524.222 1910.91,491.2 1915.08,476.4 1919.26,462.947 1923.43,450.97 1927.6,440.575 1931.78,431.846 1935.95,424.848 1940.12,419.627 1944.29,416.208 1948.47,414.598 1952.64,414.787 1956.81,416.747 1960.99,420.435 1965.04,425.612 1969.09,432.293 1973.14,440.399 1977.19,449.839 1981.24,460.51 1985.29,472.3 1989.35,485.087 1993.4,498.742 2009.6,559.188 2025.81,621.506 2029.96,636.512 2034.11,650.771 2038.27,664.104 2042.42,676.336 2046.57,687.294 2050.73,696.81 2054.88,704.721 2059.03,710.872 2063.19,715.113 2067.34,717.304 2071.49,718.283 2075.65,723.733 2077.72,728.347 2079.8,734.128 2081.88,741.007 2083.95,748.916 2088.11,767.553 2092.26,789.512 2096.81,816.779 2101.36,846.768 2105.91,878.85 2110.46,912.424 2119.56,981.773 2128.66,1050.56 2133.21,1083.54 2137.76,1115 2142.31,1144.56 2146.86,1171.86 2149.14,1184.56 2151.41,1196.57 2153.69,1207.87 2155.96,1218.42 2160.51,1237.15 2165.07,1252.55 2168.37,1261.56 2171.68,1268.66 2174.98,1273.82 2178.29,1277.01 2181.59,1278.21 2184.9,1277.4 2188.2,1274.58 2191.51,1269.78 2194.81,1263.01 2198.12,1254.31 2201.42,1243.73 2204.73,1231.33 2208.03,1217.16 2211.34,1201.32 2214.64,1183.89 2217.95,1164.98 2221.25,1144.71 2224.56,1123.19 2227.86,1100.56 2231.17,1076.97 2237.78,1027.55 2244.39,976.327 2251,924.853 2257.61,874.855 2260.91,850.992 2264.22,828.216 2267.52,806.788 2270.83,786.976 2273.54,772.12 2276.25,758.697 2278.96,746.869 2281.68,736.803 2284.39,728.666 2287.1,722.634 2289.81,718.882 2292.52,717.59 "/>
<path clip-path="url(#clip860)" d="M1630.19 198.898 L2281.82 198.898 L2281.82 95.2176 L1630.19 95.2176  Z" fill="#ffffff" fill-rule="evenodd" fill-opacity="1"/>
<polyline clip-path="url(#clip860)" style="stroke:#000000; stroke-linecap:round; stroke-linejoin:round; stroke-width:4; stroke-opacity:1; fill:none" points="1630.19,198.898 2281.82,198.898 2281.82,95.2176 1630.19,95.2176 1630.19,198.898 "/>
<polyline clip-path="url(#clip860)" style="stroke:#009af9; stroke-linecap:round; stroke-linejoin:round; stroke-width:4; stroke-opacity:1; fill:none" points="1653.83,147.058 1795.71,147.058 "/>
<path clip-path="url(#clip860)" d="M1841.07 143.284 L1841.07 158.933 L1836.81 158.933 L1836.81 143.423 Q1836.81 139.743 1835.38 137.914 Q1833.94 136.085 1831.07 136.085 Q1827.62 136.085 1825.63 138.285 Q1823.64 140.484 1823.64 144.28 L1823.64 158.933 L1819.36 158.933 L1819.36 133.007 L1823.64 133.007 L1823.64 137.035 Q1825.17 134.697 1827.23 133.539 Q1829.31 132.382 1832.02 132.382 Q1836.49 132.382 1838.78 135.16 Q1841.07 137.914 1841.07 143.284 Z" fill="#000000" fill-rule="nonzero" fill-opacity="1" /><path clip-path="url(#clip860)" d="M1861.35 145.9 Q1856.19 145.9 1854.2 147.081 Q1852.21 148.261 1852.21 151.109 Q1852.21 153.377 1853.69 154.72 Q1855.19 156.039 1857.76 156.039 Q1861.3 156.039 1863.43 153.539 Q1865.59 151.016 1865.59 146.849 L1865.59 145.9 L1861.35 145.9 M1869.84 144.141 L1869.84 158.933 L1865.59 158.933 L1865.59 154.997 Q1864.13 157.358 1861.95 158.493 Q1859.78 159.604 1856.63 159.604 Q1852.65 159.604 1850.28 157.382 Q1847.95 155.136 1847.95 151.386 Q1847.95 147.011 1850.86 144.789 Q1853.8 142.567 1859.61 142.567 L1865.59 142.567 L1865.59 142.15 Q1865.59 139.21 1863.64 137.613 Q1861.72 135.993 1858.22 135.993 Q1856 135.993 1853.9 136.525 Q1851.79 137.058 1849.84 138.122 L1849.84 134.187 Q1852.18 133.285 1854.38 132.845 Q1856.58 132.382 1858.66 132.382 Q1864.29 132.382 1867.07 135.298 Q1869.84 138.215 1869.84 144.141 Z" fill="#000000" fill-rule="nonzero" fill-opacity="1" /><path clip-path="url(#clip860)" d="M1882.74 155.044 L1882.74 168.794 L1878.46 168.794 L1878.46 133.007 L1882.74 133.007 L1882.74 136.942 Q1884.08 134.627 1886.12 133.516 Q1888.18 132.382 1891.03 132.382 Q1895.75 132.382 1898.69 136.132 Q1901.65 139.882 1901.65 145.993 Q1901.65 152.104 1898.69 155.854 Q1895.75 159.604 1891.03 159.604 Q1888.18 159.604 1886.12 158.493 Q1884.08 157.358 1882.74 155.044 M1897.23 145.993 Q1897.23 141.294 1895.28 138.632 Q1893.36 135.947 1889.98 135.947 Q1886.6 135.947 1884.66 138.632 Q1882.74 141.294 1882.74 145.993 Q1882.74 150.692 1884.66 153.377 Q1886.6 156.039 1889.98 156.039 Q1893.36 156.039 1895.28 153.377 Q1897.23 150.692 1897.23 145.993 Z" fill="#000000" fill-rule="nonzero" fill-opacity="1" /><path clip-path="url(#clip860)" d="M1920.49 145.9 Q1915.33 145.9 1913.34 147.081 Q1911.35 148.261 1911.35 151.109 Q1911.35 153.377 1912.83 154.72 Q1914.34 156.039 1916.9 156.039 Q1920.45 156.039 1922.58 153.539 Q1924.73 151.016 1924.73 146.849 L1924.73 145.9 L1920.49 145.9 M1928.99 144.141 L1928.99 158.933 L1924.73 158.933 L1924.73 154.997 Q1923.27 157.358 1921.09 158.493 Q1918.92 159.604 1915.77 159.604 Q1911.79 159.604 1909.43 157.382 Q1907.09 155.136 1907.09 151.386 Q1907.09 147.011 1910.01 144.789 Q1912.95 142.567 1918.76 142.567 L1924.73 142.567 L1924.73 142.15 Q1924.73 139.21 1922.78 137.613 Q1920.86 135.993 1917.37 135.993 Q1915.15 135.993 1913.04 136.525 Q1910.93 137.058 1908.99 138.122 L1908.99 134.187 Q1911.33 133.285 1913.53 132.845 Q1915.72 132.382 1917.81 132.382 Q1923.43 132.382 1926.21 135.298 Q1928.99 138.215 1928.99 144.141 Z" fill="#000000" fill-rule="nonzero" fill-opacity="1" /><path clip-path="url(#clip860)" d="M1937.6 122.914 L1941.88 122.914 L1941.88 144.187 L1954.59 133.007 L1960.03 133.007 L1946.28 145.136 L1960.61 158.933 L1955.05 158.933 L1941.88 146.271 L1941.88 158.933 L1937.6 158.933 L1937.6 122.914 Z" fill="#000000" fill-rule="nonzero" fill-opacity="1" /><path clip-path="url(#clip860)" d="M1976.16 145.9 Q1971 145.9 1969.01 147.081 Q1967.02 148.261 1967.02 151.109 Q1967.02 153.377 1968.5 154.72 Q1970.01 156.039 1972.58 156.039 Q1976.12 156.039 1978.25 153.539 Q1980.4 151.016 1980.4 146.849 L1980.4 145.9 L1976.16 145.9 M1984.66 144.141 L1984.66 158.933 L1980.4 158.933 L1980.4 154.997 Q1978.94 157.358 1976.77 158.493 Q1974.59 159.604 1971.44 159.604 Q1967.46 159.604 1965.1 157.382 Q1962.76 155.136 1962.76 151.386 Q1962.76 147.011 1965.68 144.789 Q1968.62 142.567 1974.43 142.567 L1980.4 142.567 L1980.4 142.15 Q1980.4 139.21 1978.46 137.613 Q1976.53 135.993 1973.04 135.993 Q1970.82 135.993 1968.71 136.525 Q1966.6 137.058 1964.66 138.122 L1964.66 134.187 Q1967 133.285 1969.2 132.845 Q1971.4 132.382 1973.48 132.382 Q1979.1 132.382 1981.88 135.298 Q1984.66 138.215 1984.66 144.141 Z" fill="#000000" fill-rule="nonzero" fill-opacity="1" /><path clip-path="url(#clip860)" d="M2027.95 128.413 Q2027.95 129.701 2027.13 130.498 Q2026.33 131.294 2025.32 131.294 Q2024.6 131.294 2024.06 130.849 Q2023.54 130.404 2023.54 129.631 Q2023.54 128.835 2024.15 127.992 Q2024.76 127.148 2026.14 127.031 Q2025.23 126.165 2023.78 126.165 Q2023.05 126.165 2022.44 126.633 Q2021.86 127.078 2021.53 127.804 Q2021.18 128.554 2020.38 132.793 Q2020.13 134.175 2019.89 135.51 Q2019.66 136.845 2019.38 138.251 L2023.36 138.251 Q2023.87 138.251 2024.08 138.274 Q2024.29 138.297 2024.46 138.414 Q2024.65 138.532 2024.65 138.789 Q2024.65 139.445 2024.34 139.609 Q2024.06 139.75 2023.22 139.75 L2019.09 139.75 L2016.21 154.951 Q2016.14 155.396 2015.84 156.801 Q2015.56 158.183 2014.88 160.455 Q2014.2 162.75 2013.52 164.109 Q2013.15 164.882 2012.65 165.608 Q2012.18 166.357 2011.51 167.107 Q2010.83 167.857 2009.94 168.302 Q2009.05 168.77 2008.11 168.77 Q2006.52 168.77 2005.28 167.88 Q2004.03 166.99 2004.03 165.467 Q2004.03 164.179 2004.83 163.383 Q2005.65 162.586 2006.66 162.586 Q2007.38 162.586 2007.9 163.031 Q2008.44 163.477 2008.44 164.249 Q2008.44 164.577 2008.32 164.952 Q2008.2 165.327 2007.95 165.748 Q2007.69 166.194 2007.13 166.498 Q2006.56 166.802 2005.79 166.849 Q2006.7 167.716 2008.11 167.716 Q2008.55 167.716 2008.95 167.529 Q2009.35 167.365 2009.68 166.943 Q2010.03 166.521 2010.29 166.1 Q2010.55 165.702 2010.8 164.929 Q2011.06 164.179 2011.22 163.617 Q2011.39 163.055 2011.6 162.048 Q2011.83 161.041 2011.95 160.432 Q2012.07 159.846 2012.28 158.698 L2015.86 139.75 L2012.7 139.75 Q2012.14 139.75 2011.9 139.726 Q2011.69 139.703 2011.53 139.586 Q2011.37 139.445 2011.37 139.164 Q2011.37 138.719 2011.55 138.532 Q2011.76 138.321 2012 138.297 Q2012.23 138.251 2012.79 138.251 L2016.12 138.251 Q2017.24 132.325 2017.69 130.732 Q2018.2 129.046 2019 127.874 Q2019.8 126.68 2020.69 126.118 Q2021.58 125.556 2022.3 125.345 Q2023.05 125.111 2023.78 125.111 Q2025.42 125.111 2026.68 126.001 Q2027.95 126.867 2027.95 128.413 Z" fill="#000000" fill-rule="nonzero" fill-opacity="1" /><path clip-path="url(#clip860)" d="M2034.4 146.94 Q2034.4 138.836 2037.42 132.301 Q2038.71 129.561 2040.51 127.265 Q2042.32 124.97 2043.51 123.963 Q2044.71 122.956 2045.03 122.956 Q2045.5 122.956 2045.53 123.424 Q2045.53 123.658 2044.89 124.244 Q2037.16 132.114 2037.19 146.94 Q2037.19 161.814 2044.71 169.379 Q2045.53 170.199 2045.53 170.456 Q2045.53 170.925 2045.03 170.925 Q2044.71 170.925 2043.56 169.965 Q2042.41 169.004 2040.63 166.802 Q2038.85 164.601 2037.56 161.907 Q2034.4 155.372 2034.4 146.94 Z" fill="#000000" fill-rule="nonzero" fill-opacity="1" /><path clip-path="url(#clip860)" d="M2073.06 140.897 Q2073.06 142.209 2072.24 142.958 Q2071.42 143.685 2070.48 143.685 Q2069.59 143.685 2069.12 143.169 Q2068.66 142.654 2068.66 141.998 Q2068.66 141.108 2069.31 140.335 Q2069.97 139.562 2070.95 139.398 Q2069.99 138.789 2068.56 138.789 Q2067.63 138.789 2066.81 139.281 Q2066.01 139.773 2065.52 140.405 Q2065.05 141.038 2064.63 141.951 Q2064.23 142.841 2064.06 143.38 Q2063.92 143.895 2063.81 144.457 L2062.17 151.016 Q2061.37 154.131 2061.37 155.232 Q2061.37 156.59 2062.03 157.504 Q2062.68 158.394 2063.99 158.394 Q2064.51 158.394 2065.1 158.253 Q2065.68 158.089 2066.43 157.668 Q2067.2 157.223 2067.88 156.567 Q2068.59 155.888 2069.26 154.74 Q2069.94 153.592 2070.39 152.117 Q2070.53 151.601 2071 151.601 Q2071.58 151.601 2071.58 152.07 Q2071.58 152.468 2071.26 153.311 Q2070.95 154.131 2070.27 155.208 Q2069.62 156.262 2068.75 157.223 Q2067.88 158.16 2066.59 158.815 Q2065.31 159.471 2063.9 159.471 Q2061.89 159.471 2060.55 158.394 Q2059.22 157.316 2058.72 155.817 Q2058.61 156.028 2058.44 156.309 Q2058.28 156.59 2057.79 157.223 Q2057.32 157.832 2056.78 158.3 Q2056.24 158.745 2055.4 159.097 Q2054.58 159.471 2053.69 159.471 Q2052.56 159.471 2051.56 159.143 Q2050.57 158.815 2049.87 158.066 Q2049.17 157.316 2049.17 156.286 Q2049.17 155.138 2049.94 154.342 Q2050.74 153.522 2051.82 153.522 Q2052.49 153.522 2053.03 153.92 Q2053.6 154.318 2053.6 155.185 Q2053.6 156.145 2052.94 156.871 Q2052.28 157.597 2051.35 157.785 Q2052.31 158.394 2053.74 158.394 Q2055.28 158.394 2056.5 157.035 Q2057.72 155.677 2058.3 153.405 Q2059.76 147.947 2060.32 145.511 Q2060.88 143.052 2060.88 141.998 Q2060.88 141.014 2060.62 140.335 Q2060.36 139.656 2059.92 139.351 Q2059.5 139.023 2059.1 138.906 Q2058.72 138.789 2058.3 138.789 Q2057.6 138.789 2056.8 139.07 Q2056.03 139.351 2055.09 140.007 Q2054.18 140.64 2053.31 141.951 Q2052.45 143.263 2051.86 145.066 Q2051.74 145.605 2051.23 145.605 Q2050.67 145.582 2050.67 145.113 Q2050.67 144.715 2050.97 143.895 Q2051.3 143.052 2051.96 141.998 Q2052.63 140.944 2053.5 140.007 Q2054.39 139.047 2055.68 138.391 Q2056.99 137.735 2058.4 137.735 Q2059.03 137.735 2059.64 137.876 Q2060.27 137.993 2061.02 138.344 Q2061.79 138.696 2062.47 139.469 Q2063.15 140.241 2063.57 141.366 Q2063.85 140.827 2064.23 140.312 Q2064.63 139.796 2065.24 139.164 Q2065.87 138.508 2066.74 138.133 Q2067.63 137.735 2068.61 137.735 Q2069.57 137.735 2070.51 137.993 Q2071.44 138.227 2072.24 139 Q2073.06 139.75 2073.06 140.897 Z" fill="#000000" fill-rule="nonzero" fill-opacity="1" /><path clip-path="url(#clip860)" d="M2077.67 170.456 Q2077.67 170.222 2078.28 169.637 Q2086.01 161.767 2086.01 146.94 Q2086.01 132.067 2078.59 124.548 Q2077.67 123.682 2077.67 123.424 Q2077.67 122.956 2078.14 122.956 Q2078.47 122.956 2079.62 123.916 Q2080.79 124.876 2082.54 127.078 Q2084.32 129.28 2085.64 131.973 Q2088.8 138.508 2088.8 146.94 Q2088.8 155.044 2085.78 161.579 Q2084.49 164.32 2082.68 166.615 Q2080.88 168.911 2079.69 169.918 Q2078.49 170.925 2078.14 170.925 Q2077.67 170.925 2077.67 170.456 Z" fill="#000000" fill-rule="nonzero" fill-opacity="1" /><path clip-path="url(#clip860)" d="M2141.06 146.261 Q2141.34 146.542 2141.34 146.94 Q2141.34 147.338 2141.06 147.62 Q2140.78 147.901 2140.38 147.901 L2110.35 147.901 Q2109.95 147.901 2109.67 147.62 Q2109.39 147.338 2109.39 146.94 Q2109.39 146.542 2109.67 146.261 Q2109.95 145.98 2110.35 145.98 L2140.38 145.98 Q2140.78 145.98 2141.06 146.261 Z" fill="#000000" fill-rule="nonzero" fill-opacity="1" /><path clip-path="url(#clip860)" d="M2191.55 126.61 Q2191.55 126.75 2191.4 127.312 L2164.59 157.293 L2172.78 157.293 Q2175.2 157.293 2177.02 156.871 Q2178.85 156.426 2180.11 155.677 Q2181.38 154.927 2182.36 153.639 Q2183.37 152.327 2184.03 150.899 Q2184.68 149.446 2185.36 147.315 Q2185.62 146.495 2185.74 146.308 Q2185.85 146.12 2186.16 146.12 Q2186.46 146.12 2186.63 146.308 Q2186.79 146.472 2186.79 146.659 Q2186.79 146.753 2186.74 146.893 Q2186.72 147.011 2186.67 147.151 Q2186.63 147.292 2186.6 147.362 L2183.18 157.972 Q2182.97 158.651 2182.76 158.792 Q2182.55 158.933 2181.71 158.933 L2160.84 158.933 Q2160.11 158.933 2159.88 158.886 Q2159.64 158.815 2159.64 158.511 L2159.83 157.644 L2186.65 127.664 L2178.83 127.664 Q2176.62 127.664 2174.89 128.062 Q2173.18 128.437 2171.96 129.139 Q2170.75 129.818 2169.81 130.966 Q2168.87 132.09 2168.24 133.402 Q2167.61 134.69 2167.02 136.494 L2166.95 136.611 Q2166.88 136.728 2166.83 136.798 Q2166.79 136.845 2166.67 136.915 Q2166.55 136.962 2166.41 136.962 Q2166.16 136.962 2165.99 136.822 Q2165.85 136.681 2165.85 136.541 L2165.83 136.424 Q2165.87 136.002 2165.97 135.768 L2168.61 127.125 Q2168.83 126.446 2169.04 126.305 Q2169.25 126.165 2170.09 126.165 L2190.35 126.165 Q2191.1 126.165 2191.31 126.235 Q2191.55 126.305 2191.55 126.61 Z" fill="#000000" fill-rule="nonzero" fill-opacity="1" /><path clip-path="url(#clip860)" d="M2196.48 146.94 Q2196.48 138.836 2199.51 132.301 Q2200.79 129.561 2202.6 127.265 Q2204.4 124.97 2205.6 123.963 Q2206.79 122.956 2207.12 122.956 Q2207.59 122.956 2207.61 123.424 Q2207.61 123.658 2206.98 124.244 Q2199.25 132.114 2199.27 146.94 Q2199.27 161.814 2206.79 169.379 Q2207.61 170.199 2207.61 170.456 Q2207.61 170.925 2207.12 170.925 Q2206.79 170.925 2205.64 169.965 Q2204.49 169.004 2202.71 166.802 Q2200.93 164.601 2199.65 161.907 Q2196.48 155.372 2196.48 146.94 Z" fill="#000000" fill-rule="nonzero" fill-opacity="1" /><path clip-path="url(#clip860)" d="M2235.14 140.897 Q2235.14 142.209 2234.32 142.958 Q2233.5 143.685 2232.57 143.685 Q2231.68 143.685 2231.21 143.169 Q2230.74 142.654 2230.74 141.998 Q2230.74 141.108 2231.39 140.335 Q2232.05 139.562 2233.03 139.398 Q2232.07 138.789 2230.65 138.789 Q2229.71 138.789 2228.89 139.281 Q2228.09 139.773 2227.6 140.405 Q2227.13 141.038 2226.71 141.951 Q2226.31 142.841 2226.15 143.38 Q2226.01 143.895 2225.89 144.457 L2224.25 151.016 Q2223.45 154.131 2223.45 155.232 Q2223.45 156.59 2224.11 157.504 Q2224.77 158.394 2226.08 158.394 Q2226.59 158.394 2227.18 158.253 Q2227.76 158.089 2228.51 157.668 Q2229.29 157.223 2229.97 156.567 Q2230.67 155.888 2231.35 154.74 Q2232.03 153.592 2232.47 152.117 Q2232.61 151.601 2233.08 151.601 Q2233.67 151.601 2233.67 152.07 Q2233.67 152.468 2233.34 153.311 Q2233.03 154.131 2232.36 155.208 Q2231.7 156.262 2230.83 157.223 Q2229.97 158.16 2228.68 158.815 Q2227.39 159.471 2225.98 159.471 Q2223.97 159.471 2222.63 158.394 Q2221.3 157.316 2220.81 155.817 Q2220.69 156.028 2220.53 156.309 Q2220.36 156.59 2219.87 157.223 Q2219.4 157.832 2218.86 158.3 Q2218.33 158.745 2217.48 159.097 Q2216.66 159.471 2215.77 159.471 Q2214.65 159.471 2213.64 159.143 Q2212.66 158.815 2211.95 158.066 Q2211.25 157.316 2211.25 156.286 Q2211.25 155.138 2212.02 154.342 Q2212.82 153.522 2213.9 153.522 Q2214.58 153.522 2215.12 153.92 Q2215.68 154.318 2215.68 155.185 Q2215.68 156.145 2215.02 156.871 Q2214.37 157.597 2213.43 157.785 Q2214.39 158.394 2215.82 158.394 Q2217.36 158.394 2218.58 157.035 Q2219.8 155.677 2220.39 153.405 Q2221.84 147.947 2222.4 145.511 Q2222.96 143.052 2222.96 141.998 Q2222.96 141.014 2222.71 140.335 Q2222.45 139.656 2222 139.351 Q2221.58 139.023 2221.18 138.906 Q2220.81 138.789 2220.39 138.789 Q2219.68 138.789 2218.89 139.07 Q2218.11 139.351 2217.18 140.007 Q2216.26 140.64 2215.4 141.951 Q2214.53 143.263 2213.95 145.066 Q2213.83 145.605 2213.31 145.605 Q2212.75 145.582 2212.75 145.113 Q2212.75 144.715 2213.06 143.895 Q2213.38 143.052 2214.04 141.998 Q2214.72 140.944 2215.58 140.007 Q2216.47 139.047 2217.76 138.391 Q2219.07 137.735 2220.48 137.735 Q2221.11 137.735 2221.72 137.876 Q2222.35 137.993 2223.1 138.344 Q2223.88 138.696 2224.56 139.469 Q2225.23 140.241 2225.66 141.366 Q2225.94 140.827 2226.31 140.312 Q2226.71 139.796 2227.32 139.164 Q2227.95 138.508 2228.82 138.133 Q2229.71 137.735 2230.69 137.735 Q2231.65 137.735 2232.59 137.993 Q2233.53 138.227 2234.32 139 Q2235.14 139.75 2235.14 140.897 Z" fill="#000000" fill-rule="nonzero" fill-opacity="1" /><path clip-path="url(#clip860)" d="M2239.75 170.456 Q2239.75 170.222 2240.36 169.637 Q2248.09 161.767 2248.09 146.94 Q2248.09 132.067 2240.67 124.548 Q2239.75 123.682 2239.75 123.424 Q2239.75 122.956 2240.22 122.956 Q2240.55 122.956 2241.7 123.916 Q2242.87 124.876 2244.63 127.078 Q2246.41 129.28 2247.72 131.973 Q2250.88 138.508 2250.88 146.94 Q2250.88 155.044 2247.86 161.579 Q2246.57 164.32 2244.77 166.615 Q2242.96 168.911 2241.77 169.918 Q2240.57 170.925 2240.22 170.925 Q2239.75 170.925 2239.75 170.456 Z" fill="#000000" fill-rule="nonzero" fill-opacity="1" /></svg>
