<?xml version="1.0" encoding="utf-8"?>
<svg xmlns="http://www.w3.org/2000/svg" xmlns:xlink="http://www.w3.org/1999/xlink" width="600" height="400" viewBox="0 0 2400 1600">
<defs>
  <clipPath id="clip440">
    <rect x="0" y="0" width="2400" height="1600"/>
  </clipPath>
</defs>
<path clip-path="url(#clip440)" d="M0 1600 L2400 1600 L2400 0 L0 0  Z" fill="#ffffff" fill-rule="evenodd" fill-opacity="1"/>
<defs>
  <clipPath id="clip441">
    <rect x="480" y="0" width="1681" height="1600"/>
  </clipPath>
</defs>
<path clip-path="url(#clip440)" d="M343.39 1486.45 L2352.76 1486.45 L2352.76 47.2441 L343.39 47.2441  Z" fill="#ffffff" fill-rule="evenodd" fill-opacity="1"/>
<defs>
  <clipPath id="clip442">
    <rect x="343" y="47" width="2010" height="1440"/>
  </clipPath>
</defs>
<polyline clip-path="url(#clip442)" style="stroke:#000000; stroke-linecap:round; stroke-linejoin:round; stroke-width:2; stroke-opacity:0.1; fill:none" points="400.259,1486.45 400.259,47.2441 "/>
<polyline clip-path="url(#clip442)" style="stroke:#000000; stroke-linecap:round; stroke-linejoin:round; stroke-width:2; stroke-opacity:0.1; fill:none" points="779.384,1486.45 779.384,47.2441 "/>
<polyline clip-path="url(#clip442)" style="stroke:#000000; stroke-linecap:round; stroke-linejoin:round; stroke-width:2; stroke-opacity:0.1; fill:none" points="1158.51,1486.45 1158.51,47.2441 "/>
<polyline clip-path="url(#clip442)" style="stroke:#000000; stroke-linecap:round; stroke-linejoin:round; stroke-width:2; stroke-opacity:0.1; fill:none" points="1537.64,1486.45 1537.64,47.2441 "/>
<polyline clip-path="url(#clip442)" style="stroke:#000000; stroke-linecap:round; stroke-linejoin:round; stroke-width:2; stroke-opacity:0.1; fill:none" points="1916.76,1486.45 1916.76,47.2441 "/>
<polyline clip-path="url(#clip442)" style="stroke:#000000; stroke-linecap:round; stroke-linejoin:round; stroke-width:2; stroke-opacity:0.1; fill:none" points="2295.89,1486.45 2295.89,47.2441 "/>
<polyline clip-path="url(#clip440)" style="stroke:#000000; stroke-linecap:round; stroke-linejoin:round; stroke-width:4; stroke-opacity:1; fill:none" points="343.39,1486.45 2352.76,1486.45 "/>
<polyline clip-path="url(#clip440)" style="stroke:#000000; stroke-linecap:round; stroke-linejoin:round; stroke-width:4; stroke-opacity:1; fill:none" points="400.259,1486.45 400.259,1467.55 "/>
<polyline clip-path="url(#clip440)" style="stroke:#000000; stroke-linecap:round; stroke-linejoin:round; stroke-width:4; stroke-opacity:1; fill:none" points="779.384,1486.45 779.384,1467.55 "/>
<polyline clip-path="url(#clip440)" style="stroke:#000000; stroke-linecap:round; stroke-linejoin:round; stroke-width:4; stroke-opacity:1; fill:none" points="1158.51,1486.45 1158.51,1467.55 "/>
<polyline clip-path="url(#clip440)" style="stroke:#000000; stroke-linecap:round; stroke-linejoin:round; stroke-width:4; stroke-opacity:1; fill:none" points="1537.64,1486.45 1537.64,1467.55 "/>
<polyline clip-path="url(#clip440)" style="stroke:#000000; stroke-linecap:round; stroke-linejoin:round; stroke-width:4; stroke-opacity:1; fill:none" points="1916.76,1486.45 1916.76,1467.55 "/>
<polyline clip-path="url(#clip440)" style="stroke:#000000; stroke-linecap:round; stroke-linejoin:round; stroke-width:4; stroke-opacity:1; fill:none" points="2295.89,1486.45 2295.89,1467.55 "/>
<path clip-path="url(#clip440)" d="M400.259 1517.37 Q396.648 1517.37 394.819 1520.93 Q393.013 1524.47 393.013 1531.6 Q393.013 1538.71 394.819 1542.27 Q396.648 1545.82 400.259 1545.82 Q403.893 1545.82 405.698 1542.27 Q407.527 1538.71 407.527 1531.6 Q407.527 1524.47 405.698 1520.93 Q403.893 1517.37 400.259 1517.37 M400.259 1513.66 Q406.069 1513.66 409.124 1518.27 Q412.203 1522.85 412.203 1531.6 Q412.203 1540.33 409.124 1544.94 Q406.069 1549.52 400.259 1549.52 Q394.448 1549.52 391.37 1544.94 Q388.314 1540.33 388.314 1531.6 Q388.314 1522.85 391.37 1518.27 Q394.448 1513.66 400.259 1513.66 Z" fill="#000000" fill-rule="nonzero" fill-opacity="1" /><path clip-path="url(#clip440)" d="M769.766 1544.91 L777.405 1544.91 L777.405 1518.55 L769.095 1520.21 L769.095 1515.95 L777.359 1514.29 L782.035 1514.29 L782.035 1544.91 L789.674 1544.91 L789.674 1548.85 L769.766 1548.85 L769.766 1544.91 Z" fill="#000000" fill-rule="nonzero" fill-opacity="1" /><path clip-path="url(#clip440)" d="M1153.16 1544.91 L1169.48 1544.91 L1169.48 1548.85 L1147.54 1548.85 L1147.54 1544.91 Q1150.2 1542.16 1154.78 1537.53 Q1159.39 1532.88 1160.57 1531.53 Q1162.82 1529.01 1163.7 1527.27 Q1164.6 1525.51 1164.6 1523.82 Q1164.6 1521.07 1162.65 1519.33 Q1160.73 1517.6 1157.63 1517.6 Q1155.43 1517.6 1152.98 1518.36 Q1150.55 1519.13 1147.77 1520.68 L1147.77 1515.95 Q1150.59 1514.82 1153.05 1514.24 Q1155.5 1513.66 1157.54 1513.66 Q1162.91 1513.66 1166.1 1516.35 Q1169.3 1519.03 1169.3 1523.52 Q1169.3 1525.65 1168.49 1527.57 Q1167.7 1529.47 1165.59 1532.07 Q1165.01 1532.74 1161.91 1535.95 Q1158.81 1539.15 1153.16 1544.91 Z" fill="#000000" fill-rule="nonzero" fill-opacity="1" /><path clip-path="url(#clip440)" d="M1541.88 1530.21 Q1545.24 1530.93 1547.11 1533.2 Q1549.01 1535.47 1549.01 1538.8 Q1549.01 1543.92 1545.49 1546.72 Q1541.98 1549.52 1535.49 1549.52 Q1533.32 1549.52 1531 1549.08 Q1528.71 1548.66 1526.26 1547.81 L1526.26 1543.29 Q1528.2 1544.43 1530.52 1545.01 Q1532.83 1545.58 1535.36 1545.58 Q1539.75 1545.58 1542.05 1543.85 Q1544.36 1542.11 1544.36 1538.8 Q1544.36 1535.75 1542.21 1534.03 Q1540.08 1532.3 1536.26 1532.3 L1532.23 1532.3 L1532.23 1528.45 L1536.44 1528.45 Q1539.89 1528.45 1541.72 1527.09 Q1543.55 1525.7 1543.55 1523.11 Q1543.55 1520.45 1541.65 1519.03 Q1539.78 1517.6 1536.26 1517.6 Q1534.34 1517.6 1532.14 1518.01 Q1529.94 1518.43 1527.3 1519.31 L1527.3 1515.14 Q1529.96 1514.4 1532.28 1514.03 Q1534.61 1513.66 1536.68 1513.66 Q1542 1513.66 1545.1 1516.09 Q1548.2 1518.5 1548.2 1522.62 Q1548.2 1525.49 1546.56 1527.48 Q1544.92 1529.45 1541.88 1530.21 Z" fill="#000000" fill-rule="nonzero" fill-opacity="1" /><path clip-path="url(#clip440)" d="M1919.77 1518.36 L1907.97 1536.81 L1919.77 1536.81 L1919.77 1518.36 M1918.54 1514.29 L1924.42 1514.29 L1924.42 1536.81 L1929.35 1536.81 L1929.35 1540.7 L1924.42 1540.7 L1924.42 1548.85 L1919.77 1548.85 L1919.77 1540.7 L1904.17 1540.7 L1904.17 1536.19 L1918.54 1514.29 Z" fill="#000000" fill-rule="nonzero" fill-opacity="1" /><path clip-path="url(#clip440)" d="M2286.16 1514.29 L2304.52 1514.29 L2304.52 1518.22 L2290.45 1518.22 L2290.45 1526.7 Q2291.47 1526.35 2292.48 1526.19 Q2293.5 1526 2294.52 1526 Q2300.31 1526 2303.69 1529.17 Q2307.07 1532.34 2307.07 1537.76 Q2307.07 1543.34 2303.6 1546.44 Q2300.12 1549.52 2293.8 1549.52 Q2291.63 1549.52 2289.36 1549.15 Q2287.11 1548.78 2284.71 1548.04 L2284.71 1543.34 Q2286.79 1544.47 2289.01 1545.03 Q2291.23 1545.58 2293.71 1545.58 Q2297.72 1545.58 2300.05 1543.48 Q2302.39 1541.37 2302.39 1537.76 Q2302.39 1534.15 2300.05 1532.04 Q2297.72 1529.94 2293.71 1529.94 Q2291.84 1529.94 2289.96 1530.35 Q2288.11 1530.77 2286.16 1531.65 L2286.16 1514.29 Z" fill="#000000" fill-rule="nonzero" fill-opacity="1" /><polyline clip-path="url(#clip442)" style="stroke:#000000; stroke-linecap:round; stroke-linejoin:round; stroke-width:2; stroke-opacity:0.1; fill:none" points="343.39,1410.69 2352.76,1410.69 "/>
<polyline clip-path="url(#clip442)" style="stroke:#000000; stroke-linecap:round; stroke-linejoin:round; stroke-width:2; stroke-opacity:0.1; fill:none" points="343.39,1078.95 2352.76,1078.95 "/>
<polyline clip-path="url(#clip442)" style="stroke:#000000; stroke-linecap:round; stroke-linejoin:round; stroke-width:2; stroke-opacity:0.1; fill:none" points="343.39,747.202 2352.76,747.202 "/>
<polyline clip-path="url(#clip442)" style="stroke:#000000; stroke-linecap:round; stroke-linejoin:round; stroke-width:2; stroke-opacity:0.1; fill:none" points="343.39,415.456 2352.76,415.456 "/>
<polyline clip-path="url(#clip442)" style="stroke:#000000; stroke-linecap:round; stroke-linejoin:round; stroke-width:2; stroke-opacity:0.1; fill:none" points="343.39,83.7104 2352.76,83.7104 "/>
<polyline clip-path="url(#clip440)" style="stroke:#000000; stroke-linecap:round; stroke-linejoin:round; stroke-width:4; stroke-opacity:1; fill:none" points="343.39,1486.45 343.39,47.2441 "/>
<polyline clip-path="url(#clip440)" style="stroke:#000000; stroke-linecap:round; stroke-linejoin:round; stroke-width:4; stroke-opacity:1; fill:none" points="343.39,1410.69 362.287,1410.69 "/>
<polyline clip-path="url(#clip440)" style="stroke:#000000; stroke-linecap:round; stroke-linejoin:round; stroke-width:4; stroke-opacity:1; fill:none" points="343.39,1078.95 362.287,1078.95 "/>
<polyline clip-path="url(#clip440)" style="stroke:#000000; stroke-linecap:round; stroke-linejoin:round; stroke-width:4; stroke-opacity:1; fill:none" points="343.39,747.202 362.287,747.202 "/>
<polyline clip-path="url(#clip440)" style="stroke:#000000; stroke-linecap:round; stroke-linejoin:round; stroke-width:4; stroke-opacity:1; fill:none" points="343.39,415.456 362.287,415.456 "/>
<polyline clip-path="url(#clip440)" style="stroke:#000000; stroke-linecap:round; stroke-linejoin:round; stroke-width:4; stroke-opacity:1; fill:none" points="343.39,83.7104 362.287,83.7104 "/>
<path clip-path="url(#clip440)" d="M50.9921 1417.59 L80.6679 1417.59 L80.6679 1421.53 L50.9921 1421.53 L50.9921 1417.59 Z" fill="#000000" fill-rule="nonzero" fill-opacity="1" /><path clip-path="url(#clip440)" d="M94.7882 1430.49 L111.108 1430.49 L111.108 1434.42 L89.1632 1434.42 L89.1632 1430.49 Q91.8252 1427.73 96.4085 1423.1 Q101.015 1418.45 102.196 1417.11 Q104.441 1414.58 105.321 1412.85 Q106.223 1411.09 106.223 1409.4 Q106.223 1406.64 104.279 1404.91 Q102.358 1403.17 99.2558 1403.17 Q97.0567 1403.17 94.603 1403.93 Q92.1725 1404.7 89.3947 1406.25 L89.3947 1401.53 Q92.2188 1400.39 94.6724 1399.81 Q97.1261 1399.24 99.1632 1399.24 Q104.534 1399.24 107.728 1401.92 Q110.922 1404.61 110.922 1409.1 Q110.922 1411.23 110.112 1413.15 Q109.325 1415.05 107.219 1417.64 Q106.64 1418.31 103.538 1421.53 Q100.436 1424.72 94.7882 1430.49 Z" fill="#000000" fill-rule="nonzero" fill-opacity="1" /><path clip-path="url(#clip440)" d="M120.922 1428.54 L125.807 1428.54 L125.807 1434.42 L120.922 1434.42 L120.922 1428.54 Z" fill="#000000" fill-rule="nonzero" fill-opacity="1" /><path clip-path="url(#clip440)" d="M145.992 1402.94 Q142.381 1402.94 140.552 1406.5 Q138.746 1410.05 138.746 1417.17 Q138.746 1424.28 140.552 1427.85 Q142.381 1431.39 145.992 1431.39 Q149.626 1431.39 151.431 1427.85 Q153.26 1424.28 153.26 1417.17 Q153.26 1410.05 151.431 1406.5 Q149.626 1402.94 145.992 1402.94 M145.992 1399.24 Q151.802 1399.24 154.857 1403.84 Q157.936 1408.42 157.936 1417.17 Q157.936 1425.9 154.857 1430.51 Q151.802 1435.09 145.992 1435.09 Q140.181 1435.09 137.103 1430.51 Q134.047 1425.9 134.047 1417.17 Q134.047 1408.42 137.103 1403.84 Q140.181 1399.24 145.992 1399.24 Z" fill="#000000" fill-rule="nonzero" fill-opacity="1" /><path clip-path="url(#clip440)" d="M194.325 1408.96 L183.746 1419.58 L194.325 1430.16 L191.57 1432.96 L180.945 1422.34 L170.32 1432.96 L167.589 1430.16 L178.144 1419.58 L167.589 1408.96 L170.32 1406.16 L180.945 1416.78 L191.57 1406.16 L194.325 1408.96 Z" fill="#000000" fill-rule="nonzero" fill-opacity="1" /><path clip-path="url(#clip440)" d="M206.686 1430.49 L214.325 1430.49 L214.325 1404.12 L206.014 1405.79 L206.014 1401.53 L214.278 1399.86 L218.954 1399.86 L218.954 1430.49 L226.593 1430.49 L226.593 1434.42 L206.686 1434.42 L206.686 1430.49 Z" fill="#000000" fill-rule="nonzero" fill-opacity="1" /><path clip-path="url(#clip440)" d="M246.037 1402.94 Q242.426 1402.94 240.598 1406.5 Q238.792 1410.05 238.792 1417.17 Q238.792 1424.28 240.598 1427.85 Q242.426 1431.39 246.037 1431.39 Q249.672 1431.39 251.477 1427.85 Q253.306 1424.28 253.306 1417.17 Q253.306 1410.05 251.477 1406.5 Q249.672 1402.94 246.037 1402.94 M246.037 1399.24 Q251.848 1399.24 254.903 1403.84 Q257.982 1408.42 257.982 1417.17 Q257.982 1425.9 254.903 1430.51 Q251.848 1435.09 246.037 1435.09 Q240.227 1435.09 237.149 1430.51 Q234.093 1425.9 234.093 1417.17 Q234.093 1408.42 237.149 1403.84 Q240.227 1399.24 246.037 1399.24 Z" fill="#000000" fill-rule="nonzero" fill-opacity="1" /><path clip-path="url(#clip440)" d="M257.982 1393.34 L282.093 1393.34 L282.093 1396.53 L257.982 1396.53 L257.982 1393.34 Z" fill="#000000" fill-rule="nonzero" fill-opacity="1" /><path clip-path="url(#clip440)" d="M289.334 1378.93 L307.39 1378.93 L307.39 1380.55 L297.196 1407.01 L293.228 1407.01 L302.819 1382.13 L289.334 1382.13 L289.334 1378.93 Z" fill="#000000" fill-rule="nonzero" fill-opacity="1" /><path clip-path="url(#clip440)" d="M50.9921 1085.85 L80.6679 1085.85 L80.6679 1089.78 L50.9921 1089.78 L50.9921 1085.85 Z" fill="#000000" fill-rule="nonzero" fill-opacity="1" /><path clip-path="url(#clip440)" d="M91.5706 1098.74 L99.2095 1098.74 L99.2095 1072.37 L90.8993 1074.04 L90.8993 1069.78 L99.1632 1068.11 L103.839 1068.11 L103.839 1098.74 L111.478 1098.74 L111.478 1102.67 L91.5706 1102.67 L91.5706 1098.74 Z" fill="#000000" fill-rule="nonzero" fill-opacity="1" /><path clip-path="url(#clip440)" d="M120.922 1096.8 L125.807 1096.8 L125.807 1102.67 L120.922 1102.67 L120.922 1096.8 Z" fill="#000000" fill-rule="nonzero" fill-opacity="1" /><path clip-path="url(#clip440)" d="M145.992 1071.19 Q142.381 1071.19 140.552 1074.76 Q138.746 1078.3 138.746 1085.43 Q138.746 1092.54 140.552 1096.1 Q142.381 1099.64 145.992 1099.64 Q149.626 1099.64 151.431 1096.1 Q153.26 1092.54 153.26 1085.43 Q153.26 1078.3 151.431 1074.76 Q149.626 1071.19 145.992 1071.19 M145.992 1067.49 Q151.802 1067.49 154.857 1072.1 Q157.936 1076.68 157.936 1085.43 Q157.936 1094.16 154.857 1098.76 Q151.802 1103.35 145.992 1103.35 Q140.181 1103.35 137.103 1098.76 Q134.047 1094.16 134.047 1085.43 Q134.047 1076.68 137.103 1072.1 Q140.181 1067.49 145.992 1067.49 Z" fill="#000000" fill-rule="nonzero" fill-opacity="1" /><path clip-path="url(#clip440)" d="M194.325 1077.21 L183.746 1087.84 L194.325 1098.42 L191.57 1101.22 L180.945 1090.59 L170.32 1101.22 L167.589 1098.42 L178.144 1087.84 L167.589 1077.21 L170.32 1074.41 L180.945 1085.04 L191.57 1074.41 L194.325 1077.21 Z" fill="#000000" fill-rule="nonzero" fill-opacity="1" /><path clip-path="url(#clip440)" d="M206.686 1098.74 L214.325 1098.74 L214.325 1072.37 L206.014 1074.04 L206.014 1069.78 L214.278 1068.11 L218.954 1068.11 L218.954 1098.74 L226.593 1098.74 L226.593 1102.67 L206.686 1102.67 L206.686 1098.74 Z" fill="#000000" fill-rule="nonzero" fill-opacity="1" /><path clip-path="url(#clip440)" d="M246.037 1071.19 Q242.426 1071.19 240.598 1074.76 Q238.792 1078.3 238.792 1085.43 Q238.792 1092.54 240.598 1096.1 Q242.426 1099.64 246.037 1099.64 Q249.672 1099.64 251.477 1096.1 Q253.306 1092.54 253.306 1085.43 Q253.306 1078.3 251.477 1074.76 Q249.672 1071.19 246.037 1071.19 M246.037 1067.49 Q251.848 1067.49 254.903 1072.1 Q257.982 1076.68 257.982 1085.43 Q257.982 1094.16 254.903 1098.76 Q251.848 1103.35 246.037 1103.35 Q240.227 1103.35 237.149 1098.76 Q234.093 1094.16 234.093 1085.43 Q234.093 1076.68 237.149 1072.1 Q240.227 1067.49 246.037 1067.49 Z" fill="#000000" fill-rule="nonzero" fill-opacity="1" /><path clip-path="url(#clip440)" d="M257.982 1061.59 L282.093 1061.59 L282.093 1064.79 L257.982 1064.79 L257.982 1061.59 Z" fill="#000000" fill-rule="nonzero" fill-opacity="1" /><path clip-path="url(#clip440)" d="M289.334 1047.18 L307.39 1047.18 L307.39 1048.8 L297.196 1075.26 L293.228 1075.26 L302.819 1050.38 L289.334 1050.38 L289.334 1047.18 Z" fill="#000000" fill-rule="nonzero" fill-opacity="1" /><path clip-path="url(#clip440)" d="M295.445 733 Q291.834 733 290.006 736.565 Q288.2 740.107 288.2 747.236 Q288.2 754.343 290.006 757.907 Q291.834 761.449 295.445 761.449 Q299.08 761.449 300.885 757.907 Q302.714 754.343 302.714 747.236 Q302.714 740.107 300.885 736.565 Q299.08 733 295.445 733 M295.445 729.297 Q301.256 729.297 304.311 733.903 Q307.39 738.486 307.39 747.236 Q307.39 755.963 304.311 760.569 Q301.256 765.153 295.445 765.153 Q289.635 765.153 286.557 760.569 Q283.501 755.963 283.501 747.236 Q283.501 738.486 286.557 733.903 Q289.635 729.297 295.445 729.297 Z" fill="#000000" fill-rule="nonzero" fill-opacity="1" /><path clip-path="url(#clip440)" d="M91.5706 435.248 L99.2095 435.248 L99.2095 408.883 L90.8993 410.549 L90.8993 406.29 L99.1632 404.624 L103.839 404.624 L103.839 435.248 L111.478 435.248 L111.478 439.184 L91.5706 439.184 L91.5706 435.248 Z" fill="#000000" fill-rule="nonzero" fill-opacity="1" /><path clip-path="url(#clip440)" d="M120.922 433.304 L125.807 433.304 L125.807 439.184 L120.922 439.184 L120.922 433.304 Z" fill="#000000" fill-rule="nonzero" fill-opacity="1" /><path clip-path="url(#clip440)" d="M145.992 407.702 Q142.381 407.702 140.552 411.267 Q138.746 414.809 138.746 421.938 Q138.746 429.045 140.552 432.61 Q142.381 436.151 145.992 436.151 Q149.626 436.151 151.431 432.61 Q153.26 429.045 153.26 421.938 Q153.26 414.809 151.431 411.267 Q149.626 407.702 145.992 407.702 M145.992 403.999 Q151.802 403.999 154.857 408.605 Q157.936 413.188 157.936 421.938 Q157.936 430.665 154.857 435.272 Q151.802 439.855 145.992 439.855 Q140.181 439.855 137.103 435.272 Q134.047 430.665 134.047 421.938 Q134.047 413.188 137.103 408.605 Q140.181 403.999 145.992 403.999 Z" fill="#000000" fill-rule="nonzero" fill-opacity="1" /><path clip-path="url(#clip440)" d="M194.325 413.721 L183.746 424.346 L194.325 434.924 L191.57 437.725 L180.945 427.1 L170.32 437.725 L167.589 434.924 L178.144 424.346 L167.589 413.721 L170.32 410.92 L180.945 421.545 L191.57 410.92 L194.325 413.721 Z" fill="#000000" fill-rule="nonzero" fill-opacity="1" /><path clip-path="url(#clip440)" d="M206.686 435.248 L214.325 435.248 L214.325 408.883 L206.014 410.549 L206.014 406.29 L214.278 404.624 L218.954 404.624 L218.954 435.248 L226.593 435.248 L226.593 439.184 L206.686 439.184 L206.686 435.248 Z" fill="#000000" fill-rule="nonzero" fill-opacity="1" /><path clip-path="url(#clip440)" d="M246.037 407.702 Q242.426 407.702 240.598 411.267 Q238.792 414.809 238.792 421.938 Q238.792 429.045 240.598 432.61 Q242.426 436.151 246.037 436.151 Q249.672 436.151 251.477 432.61 Q253.306 429.045 253.306 421.938 Q253.306 414.809 251.477 411.267 Q249.672 407.702 246.037 407.702 M246.037 403.999 Q251.848 403.999 254.903 408.605 Q257.982 413.188 257.982 421.938 Q257.982 430.665 254.903 435.272 Q251.848 439.855 246.037 439.855 Q240.227 439.855 237.149 435.272 Q234.093 430.665 234.093 421.938 Q234.093 413.188 237.149 408.605 Q240.227 403.999 246.037 403.999 Z" fill="#000000" fill-rule="nonzero" fill-opacity="1" /><path clip-path="url(#clip440)" d="M257.982 398.1 L282.093 398.1 L282.093 401.297 L257.982 401.297 L257.982 398.1 Z" fill="#000000" fill-rule="nonzero" fill-opacity="1" /><path clip-path="url(#clip440)" d="M289.334 383.693 L307.39 383.693 L307.39 385.311 L297.196 411.773 L293.228 411.773 L302.819 386.891 L289.334 386.891 L289.334 383.693 Z" fill="#000000" fill-rule="nonzero" fill-opacity="1" /><path clip-path="url(#clip440)" d="M94.7882 103.503 L111.108 103.503 L111.108 107.438 L89.1632 107.438 L89.1632 103.503 Q91.8252 100.748 96.4085 96.1187 Q101.015 91.4659 102.196 90.1233 Q104.441 87.6002 105.321 85.8641 Q106.223 84.1048 106.223 82.415 Q106.223 79.6604 104.279 77.9243 Q102.358 76.1882 99.2558 76.1882 Q97.0567 76.1882 94.603 76.9521 Q92.1725 77.716 89.3947 79.2669 L89.3947 74.5447 Q92.2188 73.4105 94.6724 72.8318 Q97.1261 72.2531 99.1632 72.2531 Q104.534 72.2531 107.728 74.9382 Q110.922 77.6234 110.922 82.1141 Q110.922 84.2437 110.112 86.165 Q109.325 88.0632 107.219 90.6557 Q106.64 91.327 103.538 94.5446 Q100.436 97.739 94.7882 103.503 Z" fill="#000000" fill-rule="nonzero" fill-opacity="1" /><path clip-path="url(#clip440)" d="M120.922 101.558 L125.807 101.558 L125.807 107.438 L120.922 107.438 L120.922 101.558 Z" fill="#000000" fill-rule="nonzero" fill-opacity="1" /><path clip-path="url(#clip440)" d="M145.992 75.9567 Q142.381 75.9567 140.552 79.5215 Q138.746 83.0632 138.746 90.1928 Q138.746 97.2992 140.552 100.864 Q142.381 104.406 145.992 104.406 Q149.626 104.406 151.431 100.864 Q153.26 97.2992 153.26 90.1928 Q153.26 83.0632 151.431 79.5215 Q149.626 75.9567 145.992 75.9567 M145.992 72.2531 Q151.802 72.2531 154.857 76.8595 Q157.936 81.4428 157.936 90.1928 Q157.936 98.9196 154.857 103.526 Q151.802 108.109 145.992 108.109 Q140.181 108.109 137.103 103.526 Q134.047 98.9196 134.047 90.1928 Q134.047 81.4428 137.103 76.8595 Q140.181 72.2531 145.992 72.2531 Z" fill="#000000" fill-rule="nonzero" fill-opacity="1" /><path clip-path="url(#clip440)" d="M194.325 81.9752 L183.746 92.6002 L194.325 103.179 L191.57 105.98 L180.945 95.3548 L170.32 105.98 L167.589 103.179 L178.144 92.6002 L167.589 81.9752 L170.32 79.1743 L180.945 89.7993 L191.57 79.1743 L194.325 81.9752 Z" fill="#000000" fill-rule="nonzero" fill-opacity="1" /><path clip-path="url(#clip440)" d="M206.686 103.503 L214.325 103.503 L214.325 77.1373 L206.014 78.8039 L206.014 74.5447 L214.278 72.878 L218.954 72.878 L218.954 103.503 L226.593 103.503 L226.593 107.438 L206.686 107.438 L206.686 103.503 Z" fill="#000000" fill-rule="nonzero" fill-opacity="1" /><path clip-path="url(#clip440)" d="M246.037 75.9567 Q242.426 75.9567 240.598 79.5215 Q238.792 83.0632 238.792 90.1928 Q238.792 97.2992 240.598 100.864 Q242.426 104.406 246.037 104.406 Q249.672 104.406 251.477 100.864 Q253.306 97.2992 253.306 90.1928 Q253.306 83.0632 251.477 79.5215 Q249.672 75.9567 246.037 75.9567 M246.037 72.2531 Q251.848 72.2531 254.903 76.8595 Q257.982 81.4428 257.982 90.1928 Q257.982 98.9196 254.903 103.526 Q251.848 108.109 246.037 108.109 Q240.227 108.109 237.149 103.526 Q234.093 98.9196 234.093 90.1928 Q234.093 81.4428 237.149 76.8595 Q240.227 72.2531 246.037 72.2531 Z" fill="#000000" fill-rule="nonzero" fill-opacity="1" /><path clip-path="url(#clip440)" d="M257.982 66.3544 L282.093 66.3544 L282.093 69.5517 L257.982 69.5517 L257.982 66.3544 Z" fill="#000000" fill-rule="nonzero" fill-opacity="1" /><path clip-path="url(#clip440)" d="M289.334 51.9476 L307.39 51.9476 L307.39 53.5651 L297.196 80.0276 L293.228 80.0276 L302.819 55.145 L289.334 55.145 L289.334 51.9476 Z" fill="#000000" fill-rule="nonzero" fill-opacity="1" /><polyline clip-path="url(#clip442)" style="stroke:#009af9; stroke-linecap:round; stroke-linejoin:round; stroke-width:4; stroke-opacity:1; fill:none" points="400.259,747.202 400.451,745.979 400.644,742.418 400.837,736.676 401.03,728.909 401.223,719.266 401.416,707.895 401.608,694.939 401.801,680.54 401.994,664.833 402.187,647.951 402.38,630.025 402.573,611.179 402.958,571.216 403.344,528.999 404.115,441.263 404.887,354.326 405.272,312.893 405.658,273.631 406.044,237.077 406.429,203.713 406.622,188.362 406.815,173.963 407.008,160.56 407.201,148.195 407.394,136.904 407.586,126.72 407.779,117.674 407.972,109.792 408.165,103.097 408.358,97.6081 408.551,93.3412 408.743,90.3084 408.936,88.5184 409.129,87.9763 409.322,88.6836 409.515,90.6383 409.708,93.8348 409.9,98.2641 410.093,103.913 410.286,110.766 410.479,118.803 410.672,128.001 410.865,138.333 411.058,149.767 411.25,162.272 411.443,175.808 411.636,190.334 411.829,205.807 412.022,222.177 412.215,239.393 412.407,257.4 412.6,276.139 413.492,370.403 414.383,471.69 415.275,571.222 416.166,658.6 417.058,721.801 417.949,747.18 418.841,724.509 419.732,663.383 420.624,577.486 421.515,478.877 422.407,377.999 423.299,283.678 424.19,203.118 425.082,141.909 425.973,104.022 426.865,91.8157 427.756,106.03 428.648,145.793 429.539,208.618 430.431,290.407 431.322,385.45 432.214,486.426 433.105,584.405 433.997,668.848 434.888,727.609 435.78,746.943 436.671,718.905 437.563,654.772 438.455,567.838 439.346,469.798 440.238,370.745 441.129,279.173 442.021,201.979 442.912,144.463 443.804,110.331 444.695,101.693 445.587,119.07 446.478,161.39 447.37,225.995 448.261,308.636 449.153,403.48 450.044,503.111 450.936,598.529 451.827,679.154 452.719,732.826 453.611,745.898 454.502,713.186 455.394,646.959 456.285,560.019 457.177,463.597 458.068,367.355 458.96,279.391 459.851,206.24 460.743,152.874 461.634,122.708 462.526,117.595 463.417,137.839 464.309,182.186 465.2,247.835 466.092,330.434 466.983,424.087 467.875,521.353 468.767,613.251 469.658,689.259 470.55,737.321 471.441,744.16 472.333,707.578 473.224,640.236 474.116,554.336 475.007,460.56 475.899,368.068 476.79,284.501 477.682,215.985 478.573,167.134 479.465,141.049 480.356,139.327 481.248,162.058 482.139,207.832 483.031,273.74 483.923,355.377 484.814,446.845 485.706,540.756 486.597,628.238 487.489,698.932 488.38,741 489.272,741.879 490.163,702.328 491.055,634.888 491.946,551.074 492.838,460.939 493.729,373.074 494.621,294.613 495.512,231.232 496.404,187.161 497.295,165.179 498.187,166.622 499.078,191.385 499.97,237.926 500.862,303.27 501.753,383.009 502.645,471.313 503.536,560.927 504.428,643.176 505.319,707.972 506.211,743.813 507.102,739.237 507.994,697.69 508.885,631.193 509.777,550.492 510.668,464.943 511.56,382.509 512.451,309.771 513.343,251.929 514.234,212.806 515.126,194.853 516.018,199.153 516.909,225.423 517.801,272.022 518.692,335.95 519.584,412.858 520.475,497.049 521.367,581.481 522.258,657.773 523.15,716.212 524.041,745.751 524.933,736.438 525.824,693.918 526.716,629.41 527.252,584.25 527.787,536.672 528.323,488.429 528.859,441.101 529.395,396.101 529.931,354.672 530.466,317.887 531.002,286.652 531.538,261.705 532.074,243.615 532.609,232.783 533.145,229.446 533.681,233.672 534.217,245.362 534.752,264.253 535.288,289.916 535.824,321.755 536.36,359.012 536.896,400.762 537.431,445.918 537.967,493.227 538.503,541.275 539.039,588.483 539.574,633.111 540.11,673.257 540.646,706.855 541.182,731.68 541.717,745.344 542.253,745.523 542.789,732.838 543.325,709.718 543.861,678.425 544.396,641.063 544.932,599.576 545.468,555.751 546.004,511.215 546.539,467.441 547.075,425.742 547.611,387.274 548.147,353.04 548.683,323.883 549.218,300.494 549.754,283.406 550.29,273 550.826,269.5 551.361,272.978 551.897,283.352 552.433,300.387 552.969,323.696 553.504,352.737 554.04,386.82 554.576,425.101 555.112,466.587 555.648,510.132 556.183,554.441 556.719,598.069 557.255,639.424 557.791,676.761 558.326,708.19 558.862,731.671 559.398,745.018 559.934,746.053 560.47,735.231 561.005,714.782 561.541,686.778 562.077,653.14 562.613,615.649 563.148,575.937 563.684,535.495 564.22,495.668 564.756,457.659 565.291,422.528 565.827,391.193 566.363,364.429 566.899,342.869 567.435,327.007 567.97,317.194 568.506,313.643 569.042,316.426 569.578,325.474 570.113,340.583 570.649,361.408 571.185,387.466 571.721,418.138 572.256,452.665 572.792,490.155 573.328,529.577 573.864,569.766 574.4,609.421 574.935,647.106 575.471,681.252 576.007,710.154 576.543,731.975 577.078,744.745 577.614,746.468 578.15,737.46 578.686,719.746 579.222,695.183 579.757,665.496 580.293,632.281 580.829,597.004 581.365,561.001 581.9,525.48 582.436,491.521 582.972,460.074 583.508,431.964 584.043,407.889 584.579,388.42 585.115,374.002 585.651,364.954 586.187,361.47 586.722,363.623 587.258,371.356 587.794,384.494 588.33,402.736 588.865,425.658 589.401,452.716 589.937,483.243 590.473,516.452 591.008,551.434 591.544,587.16 592.08,622.483 592.616,656.136 593.152,686.732 593.687,712.767 594.223,732.62 594.759,744.552 595.295,746.775 595.748,741.17 596.201,729.89 596.654,713.933 597.107,694.239 597.56,671.689 598.013,647.107 598.466,621.258 598.919,594.849 599.372,568.531 599.825,542.895 600.278,518.477 600.731,495.754 601.184,475.15 601.636,457.028 602.089,441.697 602.542,429.41 602.995,420.363 603.448,414.697 603.901,412.499 604.354,413.798 604.807,418.57 605.26,426.736 605.713,438.161 606.166,452.658 606.619,469.983 607.072,489.842 607.525,511.883 607.978,535.704 608.884,586.805 609.79,638.858 610.243,663.671 610.696,686.735 611.149,707.276 611.602,724.473 612.055,737.452 612.508,745.287 612.961,747.031 613.414,742.888 613.867,733.871 614.32,720.831 614.773,704.567 615.226,685.826 616.132,643.667 617.038,599.359 617.491,577.749 617.944,557.125 618.397,537.892 618.85,520.41 619.303,504.989 619.756,491.892 620.209,481.336 620.662,473.488 621.115,468.472 621.568,466.362 622.021,467.187 622.474,470.93 622.927,477.527 623.38,486.87 623.833,498.803 624.286,513.128 624.739,529.599 625.192,547.927 625.645,567.777 626.098,588.772 627.004,632.459 627.91,675.083 628.363,694.586 628.816,712.044 629.269,726.776 629.722,738.056 630.175,745.118 630.628,747.161 631.081,744.3 631.534,737.445 631.987,727.285 632.44,714.471 632.893,699.611 633.346,683.274 634.252,648.235 635.158,613.1 635.611,596.491 636.064,580.975 636.517,566.841 636.97,554.343 637.423,543.693 637.876,535.067 638.329,528.603 638.782,524.4 639.235,522.521 639.688,522.99 640.14,525.797 640.593,530.892 641.046,538.189 641.499,547.568 641.952,558.871 642.405,571.905 643.311,602.213 644.217,636.239 645.123,671.172 646.029,703.653 646.482,717.774 646.935,729.778 647.388,739.091 647.841,745.111 648.294,747.201 648.747,745.419 649.2,740.589 649.653,733.237 650.106,723.855 650.559,712.904 651.012,700.814 651.465,687.984 651.918,674.784 652.371,661.55 652.824,648.591 653.277,636.184 653.769,623.621 654.261,612.281 654.753,602.401 655.245,594.179 655.738,587.772 656.23,583.3 656.722,580.84 657.214,580.432 657.706,582.078 658.198,585.743 658.69,591.35 659.182,598.789 659.674,607.912 660.166,618.533 660.658,630.431 661.15,643.349 662.134,671.038 663.119,698.841 663.611,711.772 664.103,723.448 664.595,733.371 665.087,741.012 665.579,745.807 666.071,747.173 666.563,745.492 667.055,741.545 667.547,735.774 668.039,728.588 668.531,720.369 669.023,711.465 670.008,692.86 670.992,674.991 671.484,666.901 671.976,659.623 672.468,653.308 672.96,648.082 673.452,644.042 673.944,641.262 674.436,639.788 674.928,639.641 675.42,640.819 675.912,643.294 676.405,647.013 676.897,651.901 677.881,664.762 678.865,680.808 679.849,698.616 680.833,716.416 681.325,724.67 681.817,732.108 682.309,738.419 682.801,743.271 683.294,746.313 683.786,747.189 684.278,746.401 684.77,744.556 685.754,738.542 686.738,730.682 687.722,722.252 688.706,714.281 689.69,707.563 690.675,702.67 691.659,699.965 692.643,699.611 693.627,701.589 694.611,705.702 695.595,711.595 696.579,718.764 697.564,726.567 698.548,734.238 699.532,740.9 700.516,745.573 702.484,747.563 704.453,749.952 706.421,753.706 708.389,757.459 710.358,759.81 712.326,759.715 714.294,756.88 716.262,752.149 717.17,749.918 718.077,748.125 718.984,747.227 719.892,748.928 720.799,754.914 721.706,763.848 722.613,774.452 723.521,785.585 724.428,796.247 725.335,805.592 726.243,812.933 727.15,817.748 728.057,819.695 728.964,818.613 729.872,814.534 730.779,807.688 731.686,798.517 732.594,787.675 733.501,776.043 734.408,764.731 735.316,755.092 736.223,748.727 736.676,747.341 737.13,747.637 737.584,750.255 738.037,754.921 738.491,761.285 738.945,769.013 739.398,777.791 739.852,787.321 740.759,807.54 741.667,827.662 742.574,845.984 743.481,861.114 743.935,867.133 744.388,871.978 744.842,875.566 745.296,877.835 745.749,878.743 746.203,878.274 746.657,876.428 747.11,873.231 747.564,868.73 748.018,862.995 748.471,856.116 748.925,848.21 749.832,829.893 750.74,809.431 751.647,788.598 752.554,769.557 753.008,761.494 753.461,754.872 753.915,750.074 754.369,747.511 754.822,747.729 755.276,751.375 755.73,758.028 756.183,767.169 756.637,778.307 757.091,790.976 757.544,804.741 757.998,819.193 758.905,848.661 759.812,876.676 760.266,889.419 760.72,900.995 761.173,911.196 761.627,919.845 762.081,926.794 762.534,931.928 762.988,935.159 763.442,936.431 763.895,935.721 764.349,933.035 764.803,928.411 765.256,921.919 765.71,913.661 766.164,903.771 766.617,892.415 767.071,879.792 767.978,851.708 768.885,821.776 769.339,806.969 769.793,792.789 770.246,779.673 770.7,768.089 771.154,758.54 771.607,751.567 772.061,747.744 772.515,747.762 772.968,752.291 773.422,760.775 773.876,772.53 774.329,786.909 774.816,804.547 775.302,823.797 775.788,844.003 776.275,864.561 776.761,884.913 777.247,904.555 777.734,923.032 778.22,939.938 778.706,954.922 779.193,967.68 779.679,977.963 780.165,985.573 780.652,990.365 781.138,992.246 781.625,991.177 782.111,987.172 782.597,980.298 783.084,970.678 783.57,958.487 784.056,943.957 784.543,927.374 785.029,909.079 785.515,889.469 786.002,868.999 786.974,827.57 787.947,789.552 788.434,773.56 788.92,760.623 789.406,751.594 789.893,747.387 790.379,749.113 790.865,757.038 791.352,770.129 791.838,787.377 792.324,807.833 792.811,830.607 793.297,854.871 793.783,879.859 794.27,904.865 794.756,929.245 795.243,952.419 795.729,973.866 796.215,993.133 796.702,1009.82 797.188,1023.61 797.674,1034.23 798.161,1041.47 798.647,1045.2 799.133,1045.36 799.62,1041.92 800.106,1034.95 800.592,1024.56 801.079,1010.96 801.565,994.389 802.052,975.175 802.538,953.705 803.024,930.435 803.511,905.887 803.997,880.654 804.483,855.393 804.97,830.832 805.456,807.767 805.942,787.064 806.429,769.655 806.915,756.547 807.401,748.811 807.888,747.63 808.374,753.967 808.861,766.89 809.347,785.178 809.833,807.687 810.32,833.341 810.806,861.137 811.292,890.144 811.779,919.505 812.265,948.435 812.751,976.222 813.238,1002.23 813.724,1025.89 814.21,1046.71 814.697,1064.28 815.183,1078.26 815.67,1088.38 816.156,1094.45 816.642,1096.35 817.129,1094.05 817.615,1087.58 818.101,1077.06 818.588,1062.67 819.074,1044.69 819.56,1023.45 820.047,999.383 820.533,972.987 821.019,944.839 821.992,885.997 822.965,829.059 823.451,803.59 823.938,781.5 824.424,763.923 824.91,752.073 825.397,747.246 825.883,750.829 826.369,762.517 826.856,780.889 827.342,804.604 827.828,832.402 828.315,863.106 828.801,895.619 829.288,928.931 829.774,962.113 830.26,994.321 830.747,1024.79 831.233,1052.85 831.719,1077.91 832.206,1099.46 832.692,1117.07 833.178,1130.41 833.665,1139.23 834.151,1143.37 834.638,1142.73 835.124,1137.34 835.61,1127.28 836.097,1112.73 836.583,1093.97 837.146,1067.43 837.71,1036.41 838.273,1001.76 838.837,964.514 839.4,925.838 839.964,887.072 840.527,849.717 841.091,815.433 841.654,786.042 842.218,763.529 842.781,750.043 843.345,747.926 843.908,758.554 844.472,779.923 845.035,809.666 845.599,845.583 846.162,885.641 846.726,927.972 847.289,970.879 847.853,1012.83 848.416,1052.46 848.98,1088.58 849.543,1120.17 850.107,1146.37 850.67,1166.49 851.234,1180.03 851.797,1186.65 852.361,1186.17 852.924,1178.61 853.488,1164.15 854.051,1143.12 854.615,1116.07 855.178,1083.69 855.742,1046.87 856.305,1006.64 856.869,964.246 857.432,921.089 857.996,878.753 858.559,839 859.123,803.77 859.686,775.181 860.25,755.531 860.813,747.298 861.377,752.887 861.94,771.382 862.504,800.125 863.067,836.633 863.631,878.604 864.194,923.921 864.758,970.649 865.321,1017.04 865.885,1061.51 866.448,1102.7 867.012,1139.41 867.575,1170.61 868.139,1195.5 868.702,1213.43 869.266,1223.94 869.829,1226.78 870.393,1221.88 870.956,1209.34 871.519,1189.47 872.083,1162.76 872.646,1129.9 873.21,1091.75 873.773,1049.38 874.337,1004.04 874.9,957.193 875.464,910.464 876.027,865.688 876.591,824.891 877.154,790.293 877.718,764.305 878.281,749.536 878.845,748.787 879.408,762.921 879.972,789.299 880.535,825.165 881.099,867.957 881.662,915.312 882.226,965.062 882.789,1015.24 883.353,1064.08 883.916,1110 884.48,1151.64 885.043,1187.82 885.607,1217.58 886.17,1240.14 886.734,1254.92 887.297,1261.57 887.861,1259.92 888.424,1249.99 888.988,1232.03 889.551,1206.48 890.115,1173.99 890.678,1135.4 891.242,1091.76 891.805,1044.33 892.369,994.574 892.932,944.16 893.496,894.96 894.059,849.054 894.623,808.728 895.186,776.476 895.75,754.997 896.313,747.202 896.877,755.496 897.44,778.122 898.004,812.061 898.567,854.505 899.131,902.853 899.694,954.717 900.258,1007.92 900.821,1060.49 901.385,1110.67 901.948,1156.92 902.512,1197.9 903.075,1232.49 903.639,1259.78 904.202,1279.08 904.766,1289.91 905.329,1291.99 905.893,1285.27 906.456,1269.91 907.02,1246.28 907.583,1214.98 908.147,1176.81 908.71,1132.78 909.211,1089.74 909.712,1044.07 910.212,996.9 910.713,949.525 911.214,903.359 911.715,859.956 912.215,821.003 912.716,788.326 913.217,763.887 913.718,749.782 914.218,748.239 914.719,760.016 915.22,783.069 915.721,815.204 916.222,854.362 916.722,898.623 917.223,946.205 917.724,995.462 918.225,1044.89 918.725,1093.12 919.226,1138.91 919.727,1181.19 920.228,1218.99 920.728,1251.5 921.229,1278.05 921.73,1298.09 922.231,1311.24 922.731,1317.24 923.232,1315.96 923.733,1307.43 924.234,1291.81 924.735,1269.41 925.235,1240.66 925.736,1206.15 926.237,1166.61 926.738,1122.89 927.238,1076 927.739,1027.09 928.24,977.449 928.741,928.498 929.241,881.811 929.742,839.099 930.243,802.216 930.744,773.156 931.244,754.059 931.745,747.202 932.246,754.365 932.747,774.108 933.248,804.102 933.748,842.158 934.249,886.232 934.75,934.423 935.251,984.97 935.751,1036.26 936.252,1086.82 936.753,1135.32 937.254,1180.59 937.754,1221.56 938.255,1257.36 938.756,1287.23 939.257,1310.55 939.757,1326.87 940.258,1335.86 940.759,1337.36 941.26,1331.32 941.761,1317.87 942.261,1297.26 942.762,1269.89 943.263,1236.32 943.764,1197.25 944.264,1153.5 944.765,1106.07 945.767,1004.83 946.768,904.326 947.269,858.364 947.77,817.693 948.271,784.322 948.771,760.404 949.272,748.239 949.773,750.12 950.274,765.782 950.774,792.841 951.275,828.998 951.776,872.098 952.277,920.135 952.777,971.249 953.278,1023.73 953.779,1076 954.28,1126.66 954.78,1174.44 955.281,1218.2 955.782,1256.98 956.283,1289.94 956.784,1316.42 957.284,1335.88 957.785,1347.93 958.286,1352.34 958.787,1349.04 959.287,1338.07 959.788,1319.65 960.289,1294.14 960.79,1262.04 961.29,1224.02 961.791,1180.87 962.292,1133.56 962.793,1083.19 963.293,1031 963.794,978.397 964.295,926.934 964.796,878.309 965.297,834.371 965.797,797.117 966.298,768.695 966.799,751.402 967.3,747.676 967.8,758.569 968.301,781.963 968.802,815.461 969.303,856.819 969.803,903.94 970.304,954.877 970.805,1007.84 971.306,1061.17 971.807,1113.38 972.307,1163.12 972.808,1209.2 973.247,1245.76 973.686,1278.09 974.125,1305.66 974.565,1328.05 975.004,1344.91 975.443,1355.98 975.882,1361.11 976.321,1360.2 976.76,1353.29 977.199,1340.46 977.638,1321.92 978.078,1297.93 978.517,1268.88 978.956,1235.21 979.395,1197.48 979.834,1156.32 980.273,1112.46 980.712,1066.71 981.151,1019.98 981.591,973.261 982.03,927.637 982.469,884.28 982.908,844.451 983.347,809.501 983.786,780.872 984.225,760.091 984.664,748.779 985.104,748.582 985.543,759.584 985.982,780.158 986.421,808.677 986.86,843.6 987.299,883.48 987.738,926.955 988.177,972.756 988.617,1019.7 989.056,1066.7 989.495,1112.75 989.934,1156.94 990.373,1198.45 990.812,1236.54 991.251,1270.56 991.69,1299.97 992.13,1324.31 992.569,1343.18 993.008,1356.32 993.447,1363.51 993.886,1364.67 994.325,1359.76 994.764,1348.86 995.204,1332.14 995.643,1309.84 996.082,1282.31 996.521,1249.97 996.96,1213.36 997.399,1173.06 997.838,1129.8 998.277,1084.35 998.717,1037.6 999.156,990.504 999.595,944.131 1000.03,899.625 1000.47,858.223 1000.91,821.251 1001.35,790.124 1001.79,766.348 1002.23,751.518 1002.67,747.317 1003.11,754.614 1003.55,772.035 1003.99,797.926 1004.43,830.719 1004.86,868.938 1005.3,911.196 1005.74,956.195 1006.18,1002.73 1006.62,1049.67 1007.06,1096 1007.5,1140.77 1007.94,1183.13 1008.38,1222.33 1008.82,1257.68 1009.26,1288.61 1009.69,1314.63 1010.13,1335.32 1010.57,1350.38 1011.01,1359.58 1011.45,1362.78 1011.89,1359.93 1012.33,1351.09 1012.77,1336.37 1013.21,1316 1013.65,1290.3 1014.09,1259.66 1014.53,1224.56 1014.96,1185.59 1015.4,1143.41 1015.84,1098.78 1016.28,1052.54 1016.72,1005.62 1017.16,959.06 1017.6,913.956 1018.04,871.512 1018.48,833.019 1018.92,799.855 1019.36,773.487 1019.79,755.472 1020.23,747.454 1020.67,750.831 1021.11,764.792 1021.55,787.673 1021.99,817.895 1022.43,853.967 1022.87,894.487 1023.31,938.142 1023.75,983.708 1024.19,1030.05 1024.62,1076.11 1025.06,1120.95 1025.5,1163.68 1025.94,1203.53 1026.38,1239.8 1026.82,1271.88 1027.26,1299.27 1027.7,1321.52 1028.14,1338.31 1028.58,1349.37 1029.02,1354.55 1029.5,1353.4 1029.97,1345.19 1030.45,1330.06 1030.93,1308.28 1031.41,1280.25 1031.89,1246.49 1032.37,1207.63 1032.85,1164.45 1033.33,1117.83 1033.8,1068.79 1034.28,1018.47 1034.76,968.137 1035.24,919.171 1035.72,873.084 1036.2,831.512 1036.68,796.211 1037.16,769.062 1037.63,752.071 1038.11,747.361 1038.59,755.871 1039.07,775.793 1039.55,805.066 1040.03,841.752 1040.51,884.038 1040.99,930.231 1041.46,978.764 1041.94,1028.19 1042.42,1077.19 1042.9,1124.55 1043.38,1169.21 1043.86,1210.21 1044.34,1246.71 1044.82,1278 1045.29,1303.5 1045.77,1322.73 1046.25,1335.36 1046.73,1341.17 1047.21,1340.04 1047.69,1332 1048.17,1317.21 1048.65,1295.91 1049.12,1268.49 1049.6,1235.47 1050.08,1197.48 1050.56,1155.25 1051.04,1109.67 1051.52,1061.73 1052,1012.53 1052.48,963.321 1052.95,915.446 1053.43,870.386 1053.91,829.734 1054.39,795.208 1054.87,768.645 1055.35,752.001 1055.83,747.348 1056.31,755.551 1056.78,774.82 1057.26,803.156 1057.74,838.68 1058.22,879.632 1058.7,924.372 1059.18,971.379 1059.66,1019.25 1060.14,1066.71 1060.61,1112.58 1061.09,1155.84 1061.57,1195.54 1062.05,1230.88 1062.53,1261.19 1063.01,1285.87 1063.49,1304.5 1063.97,1316.72 1064.44,1322.33 1064.92,1321.23 1065.4,1313.45 1065.88,1299.11 1066.36,1278.49 1066.84,1251.94 1067.32,1219.97 1067.8,1183.18 1068.28,1142.31 1068.75,1098.18 1069.23,1051.77 1069.71,1004.15 1070.19,956.511 1070.67,910.168 1071.15,866.547 1071.63,827.191 1072.11,793.759 1072.58,768.026 1073.06,751.885 1073.54,747.335 1074.02,755.158 1074.5,773.599 1074.98,800.741 1075.46,834.778 1075.94,874.022 1076.41,916.898 1076.89,961.949 1077.37,1007.83 1077.85,1053.31 1078.33,1097.27 1078.81,1138.72 1079.29,1176.76 1079.77,1210.63 1080.24,1239.66 1080.72,1263.3 1081.2,1281.14 1081.68,1292.84 1082.16,1298.21 1082.64,1297.15 1083.12,1289.69 1083.6,1275.95 1084.07,1256.18 1084.55,1230.75 1085.03,1200.12 1085.51,1164.87 1085.99,1125.72 1086.47,1083.45 1087.43,993.388 1088.38,903.379 1088.86,861.6 1089.34,823.902 1089.82,791.873 1090.3,767.21 1090.78,751.662 1091.26,747.343 1091.74,754.925 1092.22,772.667 1092.71,798.716 1093.19,831.333 1093.67,868.89 1094.15,909.872 1094.63,952.874 1095.11,996.605 1095.6,1039.88 1096.08,1081.64 1096.56,1120.92 1097.04,1156.87 1097.52,1188.76 1098,1215.96 1098.49,1237.96 1098.97,1254.34 1099.45,1264.83 1099.93,1269.22 1100.41,1267.45 1100.89,1259.56 1101.38,1245.67 1101.86,1226.06 1102.34,1201.08 1102.82,1171.19 1103.3,1136.99 1103.78,1099.15 1104.27,1058.48 1104.75,1015.88 1105.23,972.355 1105.71,929.034 1106.19,887.142 1106.67,848.014 1107.15,813.092 1107.64,783.924 1108.12,762.167 1108.6,749.583 1109.08,747.966 1109.56,757.257 1110.04,775.675 1110.53,801.506 1111.01,833.143 1111.49,869.085 1111.97,907.935 1112.45,948.4 1112.93,989.295 1113.42,1029.54 1113.9,1068.15 1114.38,1104.26 1114.86,1137.09 1115.34,1165.99 1115.82,1190.39 1116.31,1209.82 1116.79,1223.94 1117.27,1232.5 1117.75,1235.33 1118.23,1232.41 1118.71,1223.77 1119.19,1209.59 1119.68,1190.11 1120.16,1165.71 1120.64,1136.83 1121.12,1104.06 1121.6,1068.05 1122.08,1029.57 1122.57,989.482 1123.05,948.761 1123.53,908.472 1124.01,869.782 1124.49,833.96 1124.97,802.373 1125.46,776.487 1125.94,757.869 1126.42,748.185 1126.9,748.955 1127.38,759.471 1127.86,778.056 1128.35,803.147 1128.83,833.282 1129.31,867.097 1129.79,903.322 1130.27,940.788 1130.75,978.421 1131.24,1015.24 1131.72,1050.38 1132.2,1083.04 1132.68,1112.53 1133.16,1138.28 1133.64,1159.77 1134.12,1176.61 1134.61,1188.5 1135.09,1195.21 1135.57,1196.65 1136.05,1192.78 1136.53,1183.67 1137.01,1169.5 1137.5,1150.53 1137.98,1127.1 1138.46,1099.67 1138.94,1068.78 1139.42,1035.06 1139.9,999.231 1140.39,962.118 1140.87,924.629 1141.35,887.768 1141.83,852.628 1142.31,820.394 1142.79,792.343 1143.28,769.843 1143.76,754.352 1144.24,747.419 1144.72,750.148 1145.2,761.377 1145.68,779.604 1146.17,803.434 1146.65,831.556 1147.13,862.752 1147.61,895.89 1148.09,929.93 1148.57,963.916 1149.05,996.982 1149.54,1028.35 1150.02,1057.33 1150.5,1083.32 1150.98,1105.8 1151.46,1124.35 1151.94,1138.61 1152.48,1149.09 1153.01,1153.8 1153.54,1152.64 1154.07,1145.65 1154.61,1132.98 1155.14,1114.92 1155.67,1091.87 1156.2,1064.38 1156.74,1033.11 1157.27,998.849 1157.8,962.505 1158.33,925.118 1158.87,887.849 1159.4,851.982 1159.93,818.923 1160.46,790.203 1161,767.474 1161.53,752.509 1162.06,747.203 1162.59,752.317 1163.13,766.1 1163.66,786.804 1164.19,812.804 1164.72,842.59 1165.26,874.774 1165.79,908.085 1166.32,941.368 1166.85,973.587 1167.39,1003.82 1167.92,1031.28 1168.45,1055.25 1168.98,1075.19 1169.52,1090.62 1170.05,1101.21 1170.58,1106.72 1171.11,1107.06 1171.65,1102.2 1172.18,1092.27 1172.71,1077.5 1173.24,1058.2 1173.78,1034.84 1174.31,1007.97 1174.84,978.263 1175.37,946.493 1175.91,913.55 1176.44,880.432 1176.97,848.245 1177.5,818.203 1178.04,791.628 1178.57,769.949 1179.1,754.702 1179.63,747.53 1180.17,749.62 1180.7,759.651 1181.23,776.057 1181.76,797.399 1182.3,822.346 1182.83,849.667 1183.36,878.238 1183.89,907.034 1184.43,935.134 1184.96,961.718 1185.49,986.067 1186.02,1007.56 1186.56,1025.68 1187.09,1040.02 1187.62,1050.24 1188.15,1056.14 1188.69,1057.58 1189.22,1054.54 1189.75,1047.1 1190.28,1035.43 1190.82,1019.78 1191.35,1000.53 1191.88,978.123 1192.41,953.118 1192.95,926.16 1193.48,897.987 1194.01,869.432 1194.54,841.422 1195.08,814.975 1195.61,791.201 1196.14,771.301 1196.67,756.568 1197.21,748.384 1197.74,748.032 1198.27,754.733 1198.8,767.079 1199.34,783.844 1199.87,803.892 1200.4,826.176 1200.93,849.732 1201.47,873.685 1202,897.246 1202.53,919.711 1203.06,940.459 1203.6,958.956 1204.13,974.751 1204.66,987.476 1205.19,996.846 1205.73,1002.66 1206.26,1004.79 1206.79,1003.21 1207.32,997.947 1207.86,989.132 1208.39,976.963 1208.92,961.722 1209.45,943.768 1209.99,923.539 1210.52,901.55 1211.05,878.395 1211.58,854.742 1212.12,831.337 1212.65,809.002 1213.18,788.634 1213.71,771.203 1214.25,757.754 1214.78,749.407 1215.31,747.324 1215.84,751.236 1216.37,759.876 1216.91,772.253 1217.44,787.447 1217.97,804.61 1219.04,841.791 1220.1,878.39 1220.61,894.307 1221.12,908.723 1221.62,921.314 1222.13,931.811 1222.64,939.998 1223.14,945.714 1223.65,948.85 1224.16,949.351 1224.66,947.213 1225.17,942.484 1225.68,935.264 1226.18,925.704 1226.69,914.005 1227.2,900.419 1227.7,885.248 1228.21,868.841 1229.22,833.973 1230.24,799.591 1230.74,783.974 1231.25,770.24 1231.76,759.075 1232.26,751.21 1232.77,747.422 1233.28,748.142 1233.78,752.371 1234.29,759.416 1234.8,768.67 1235.3,779.57 1235.81,791.6 1236.31,804.281 1237.33,829.905 1238.34,853.469 1238.85,863.73 1239.35,872.657 1239.86,880.061 1240.37,885.792 1240.87,889.738 1241.38,891.828 1241.89,892.024 1242.39,890.331 1242.9,886.788 1243.41,881.471 1243.91,874.493 1244.42,866.003 1245.43,845.257 1246.45,821.123 1247.46,796.036 1248.47,772.965 1248.98,763.256 1249.49,755.398 1249.99,749.906 1250.5,747.325 1251.01,747.828 1251.51,750.465 1252.02,754.795 1252.53,760.441 1253.54,774.33 1254.55,789.698 1255.57,804.545 1256.58,817.294 1257.09,822.501 1257.59,826.777 1258.1,830.037 1258.61,832.219 1259.11,833.288 1259.62,833.226 1260.13,832.044 1260.63,829.77 1261.14,826.456 1261.65,822.174 1262.15,817.018 1262.66,811.101 1263.67,797.537 1264.69,782.781 1265.7,768.425 1266.71,756.346 1267.22,751.82 1267.73,748.688 1268.23,747.256 1268.74,747.44 1269.75,749.878 1270.77,754.031 1271.78,758.929 1272.79,763.801 1273.81,768.06 1274.82,771.289 1275.83,773.226 1276.85,773.751 1277.86,772.873 1278.87,770.712 1279.89,767.491 1280.9,763.514 1282.93,754.862 1284.95,748.375 1286.01,747.205 1287.06,745.926 1288.11,742.328 1289.17,737.235 1290.22,731.429 1291.27,725.623 1292.33,720.444 1293.38,716.417 1294.44,713.948 1295.49,713.305 1296.54,714.6 1297.6,717.778 1298.65,722.59 1299.7,728.584 1300.76,735.085 1301.81,741.177 1302.34,743.713 1302.86,745.686 1303.39,746.905 1303.92,747.121 1304.44,745.375 1304.97,741.645 1305.5,736.309 1306.02,729.726 1307.08,714.147 1308.13,697.347 1309.19,681.405 1310.24,668.021 1310.77,662.712 1311.29,658.501 1311.82,655.486 1312.35,653.739 1312.87,653.306 1313.4,654.201 1313.93,656.415 1314.45,659.905 1314.98,664.603 1315.51,670.408 1316.03,677.188 1316.56,684.783 1317.61,701.61 1318.67,718.952 1319.19,727.066 1319.72,734.34 1320.25,740.381 1320.77,744.759 1321.3,747.008 1321.83,746.414 1322.36,742.191 1322.88,734.906 1323.41,725.192 1323.94,713.646 1324.46,700.824 1324.99,687.243 1326.04,659.668 1327.1,634.245 1327.62,623.196 1328.15,613.628 1328.68,605.766 1329.2,599.79 1329.73,595.837 1330.26,593.999 1330.78,594.322 1331.31,596.808 1331.84,601.409 1332.36,608.034 1332.89,616.541 1333.42,626.742 1334.47,651.229 1335.52,679.006 1336.05,693.133 1336.58,706.784 1337.11,719.421 1337.63,730.453 1338.16,739.234 1338.69,745.067 1339.21,747.201 1339.74,744.48 1340.27,736.909 1340.79,725.415 1341.32,710.869 1341.85,694.086 1342.9,656.786 1343.95,618.884 1344.48,601.13 1345.01,584.817 1345.53,570.348 1346.06,558.069 1346.59,548.264 1347.11,541.155 1347.64,536.904 1348.17,535.608 1348.69,537.301 1349.22,541.955 1349.75,549.476 1350.27,559.708 1350.8,572.427 1351.33,587.344 1351.86,604.106 1352.38,622.29 1352.83,638.343 1353.27,654.731 1353.71,671.091 1354.16,687.026 1354.6,702.102 1355.04,715.855 1355.49,727.782 1355.93,737.346 1356.37,743.974 1356.82,747.059 1357.26,745.803 1357.7,739.879 1358.15,729.98 1358.59,716.798 1359.03,700.989 1359.48,683.172 1360.36,643.796 1361.25,602.871 1361.69,582.973 1362.14,563.988 1362.58,546.268 1363.02,530.129 1363.47,515.845 1363.91,503.655 1364.36,493.754 1364.8,486.301 1365.24,481.414 1365.69,479.171 1366.13,479.61 1366.57,482.729 1367.02,488.484 1367.46,496.791 1367.9,507.526 1368.35,520.523 1368.79,535.575 1369.23,552.431 1369.68,570.801 1370.12,590.353 1371.01,631.456 1371.89,672.226 1372.34,691.202 1372.78,708.466 1373.22,723.385 1373.67,735.282 1374.11,743.436 1374.55,747.083 1375,745.287 1375.44,737.878 1375.88,725.716 1376.33,709.636 1376.77,690.43 1377.22,668.845 1378.1,621.288 1378.99,572.02 1379.43,548.12 1379.88,525.351 1380.32,504.137 1380.76,484.853 1381.21,467.826 1381.65,453.339 1382.09,441.625 1382.54,432.87 1382.98,427.212 1383.42,424.739 1383.87,425.494 1384.31,429.469 1384.75,436.607 1385.2,446.804 1385.64,459.906 1386.08,475.708 1386.53,493.957 1386.97,514.349 1387.41,536.533 1387.86,560.105 1388.74,609.544 1389.63,658.431 1390.08,681.119 1390.52,701.71 1390.96,719.444 1391.41,733.507 1391.85,743.038 1392.29,747.118 1392.74,744.696 1393.18,735.78 1393.62,721.386 1394.07,702.487 1394.51,680.001 1394.95,654.795 1395.4,627.683 1395.84,599.423 1396.28,570.722 1396.73,542.229 1397.17,514.542 1397.61,488.203 1398.06,463.7 1398.5,441.466 1398.94,421.878 1399.39,405.259 1399.83,391.877 1400.27,381.942 1400.72,375.61 1401.16,372.98 1401.6,374.097 1402.05,378.946 1402.49,387.459 1402.94,399.509 1403.38,414.912 1403.82,433.428 1404.27,454.759 1404.71,478.549 1405.15,504.386 1405.6,531.799 1406.48,589.174 1407.37,645.743 1407.81,671.926 1408.26,695.632 1408.7,715.979 1409.14,732.025 1409.68,744.325 1410.23,746.75 1410.77,737.867 1411.31,719.248 1411.85,692.92 1412.39,660.777 1412.93,624.576 1413.47,585.939 1414.02,546.352 1414.56,507.164 1415.1,469.587 1415.64,434.693 1416.18,403.421 1416.72,376.565 1417.26,354.785 1417.81,338.599 1418.35,328.384 1418.89,324.378 1419.43,326.677 1419.97,335.237 1420.51,349.869 1421.05,370.244 1421.6,395.889 1422.14,426.188 1422.68,460.379 1423.22,497.559 1423.76,536.677 1424.3,576.537 1424.84,615.8 1425.39,652.977 1425.93,686.435 1426.47,714.391 1427.01,734.916 1427.55,745.933 1428.09,745.189 1428.63,732.121 1429.18,708.903 1429.72,677.745 1430.26,640.706 1430.8,599.693 1431.34,556.462 1431.88,512.618 1432.42,469.613 1432.96,428.746 1433.51,391.163 1434.05,357.856 1434.59,329.664 1435.13,307.27 1435.67,291.203 1436.21,281.835 1436.75,279.385 1437.3,283.913 1437.84,295.323 1438.38,313.362 1438.92,337.618 1439.46,367.523 1440,402.35 1440.54,441.211 1441.09,483.062 1441.63,526.695 1442.17,570.744 1442.71,613.684 1443.25,653.826 1443.79,689.32 1444.33,718.155 1444.88,738.157 1445.42,746.988 1445.96,742.317 1446.5,724.77 1447.04,696.856 1447.58,660.938 1448.12,619.214 1448.67,573.717 1449.21,526.316 1449.75,478.71 1450.29,432.435 1450.83,388.859 1451.37,349.18 1451.91,314.433 1452.46,285.48 1453,263.016 1453.54,247.57 1454.08,239.496 1454.62,238.983 1455.16,246.047 1455.7,260.534 1456.25,282.12 1456.79,310.308 1457.33,344.429 1457.87,383.645 1458.41,426.94 1458.95,473.13 1459.49,520.855 1460.03,568.581 1460.58,614.602 1461.12,657.035 1461.66,693.824 1462.2,722.736 1462.74,741.363 1463.28,747.117 1463.82,738.008 1464.37,715.827 1464.91,683.244 1465.45,642.748 1465.99,596.65 1466.53,547.086 1467.07,496.009 1467.61,445.196 1468.16,396.243 1468.7,350.566 1469.24,309.404 1469.78,273.811 1470.32,244.662 1470.86,222.652 1471.4,208.293 1471.95,201.914 1472.49,203.665 1473.03,213.511 1473.57,231.234 1474.11,256.432 1474.65,288.522 1475.19,326.734 1475.74,370.115 1476.28,417.527 1476.82,467.648 1477.36,518.968 1477.9,569.794 1478.44,618.245 1478.94,658.786 1479.43,693.874 1479.93,721.653 1480.43,740.132 1480.92,747.188 1481.42,740.964 1481.91,722.559 1482.41,694.188 1482.91,657.932 1483.4,615.739 1483.9,569.424 1484.39,520.667 1484.89,471.016 1485.39,421.885 1485.88,374.551 1486.38,330.159 1486.87,289.72 1487.37,254.106 1487.87,224.06 1488.36,200.184 1488.86,182.948 1489.35,172.684 1489.85,169.592 1490.35,173.731 1490.84,185.027 1491.34,203.268 1491.83,228.107 1492.33,259.059 1492.83,295.501 1493.32,336.674 1493.82,381.682 1494.31,429.491 1494.81,478.928 1495.3,528.684 1495.8,577.311 1496.3,623.221 1496.79,664.69 1497.29,699.855 1497.78,726.711 1498.28,743.119 1498.78,746.791 1499.27,736.471 1499.77,714.049 1500.26,681.81 1500.76,641.897 1501.26,596.313 1501.75,546.92 1502.25,495.443 1502.74,443.462 1503.24,392.418 1503.74,343.611 1504.23,298.2 1504.73,257.203 1505.22,221.494 1505.72,191.809 1506.22,168.739 1506.71,152.735 1507.21,144.104 1507.7,143.013 1508.2,149.483 1508.7,163.397 1509.19,184.491 1509.69,212.359 1510.18,246.454 1510.68,286.084 1511.18,330.412 1511.67,378.46 1512.17,429.105 1512.66,481.081 1513.16,532.975 1513.66,583.234 1514.15,630.158 1514.65,671.903 1515.14,706.479 1515.64,731.753 1516.13,745.448 1516.63,745.197 1517.13,730.75 1517.62,704.431 1518.12,668.569 1518.61,625.347 1519.11,576.804 1519.61,524.831 1520.1,471.173 1520.6,417.43 1521.09,365.055 1521.59,315.354 1522.09,269.487 1522.58,228.467 1523.08,193.159 1523.57,164.283 1524.07,142.41 1524.57,127.964 1525.06,121.222 1525.56,122.314 1526.05,131.22 1526.55,147.774 1527.05,171.663 1527.54,202.423 1528.04,239.443 1528.53,281.966 1529.03,329.082 1529.53,379.736 1530.02,432.724 1530.52,486.691 1531.01,540.134 1531.51,591.403 1532.01,638.696 1532.5,680.063 1533,713.404 1533.49,736.471 1533.99,746.865 1534.49,742.376 1534.98,723.892 1535.48,693.898 1535.97,654.747 1536.47,608.642 1536.97,557.633 1537.46,503.622 1537.96,448.36 1538.45,393.448 1538.95,340.334 1539.44,290.318 1539.94,244.548 1540.44,204.02 1540.93,169.581 1541.43,141.925 1541.92,121.596 1542.38,109.67 1542.84,104.524 1543.3,106.242 1543.76,114.797 1544.21,130.052 1544.67,151.76 1545.13,179.563 1545.59,212.993 1546.05,251.471 1546.51,294.307 1546.96,340.701 1547.42,389.742 1547.88,440.407 1548.34,491.565 1548.8,541.971 1549.25,590.269 1549.71,634.995 1550.17,674.572 1550.63,707.311 1551.09,731.412 1551.54,744.966 1552,745.987 1552.46,734.105 1552.92,711.211 1553.38,679.255 1553.83,640.075 1554.29,595.396 1554.75,546.834 1555.67,443.961 1556.58,342.14 1557.04,294.474 1557.5,250.268 1557.96,210.354 1558.41,175.452 1558.87,146.171 1559.33,123.008 1559.79,106.346 1560.25,96.4589 1560.7,93.5062 1561.16,97.5361 1561.62,108.484 1562.08,126.175 1562.54,150.319 1563,180.516 1563.45,216.252 1563.91,256.903 1564.37,301.728 1564.83,349.88 1565.29,400.394 1565.74,452.195 1566.2,504.095 1566.66,554.794 1567.12,602.879 1567.58,646.824 1568.03,684.991 1568.49,715.629 1568.95,736.874 1569.41,746.751 1569.87,743.445 1570.32,727.652 1570.78,701.401 1571.24,666.623 1571.7,625.136 1572.16,578.647 1572.61,528.747 1573.07,476.917 1573.53,424.524 1573.99,372.822 1574.45,322.952 1574.9,275.941 1575.36,232.707 1575.82,194.049 1576.28,160.659 1576.74,133.111 1577.19,111.87 1577.65,97.2856 1578.11,89.5944 1578.57,88.9209 1579.03,95.2761 1579.48,108.558 1579.94,128.551 1580.4,154.927 1580.86,187.245 1581.32,224.951 1581.78,267.375 1582.23,313.739 1582.69,363.148 1583.15,414.595 1583.61,466.96 1584.07,519.01 1584.52,569.398 1584.98,616.664 1585.44,659.237 1585.9,695.429 1586.36,723.442 1586.81,741.364 1587.27,747.17 1587.73,739.612 1588.19,720.227 1588.65,691.023 1589.1,653.896 1589.56,610.629 1590.02,562.891 1590.48,512.238 1590.94,460.114 1591.39,407.849 1591.85,356.659 1592.31,307.65 1592.77,261.811 1593.23,220.02 1593.68,183.042 1594.14,151.529 1594.6,126.019 1595.06,106.938 1595.52,94.5983 1595.97,89.1995 1596.43,90.828 1596.89,99.4575 1597.35,114.949 1597.81,137.049 1598.27,165.393 1598.72,199.503 1599.18,238.788 1599.64,282.543 1600.1,329.953 1600.56,380.086 1601.02,432.58 1601.48,485.597 1601.95,537.819 1602.41,587.805 1602.88,633.998 1603.34,674.722 1603.8,708.181 1604.27,732.463 1604.73,745.535 1605.2,745.364 1605.66,732.069 1606.12,707.712 1606.59,674.309 1607.05,633.757 1607.52,587.836 1607.98,538.206 1608.44,486.409 1608.91,433.87 1609.37,381.895 1609.84,331.671 1610.3,284.268 1610.76,240.637 1611.23,201.611 1611.69,167.906 1612.16,140.118 1612.62,118.726 1613.08,104.093 1613.55,96.4601 1614.01,95.9539 1614.48,102.582 1614.94,116.233 1615.4,136.68 1615.87,163.577 1616.33,196.461 1616.8,234.751 1617.26,277.749 1617.72,324.637 1618.19,374.484 1618.65,426.238 1619.12,478.73 1619.58,530.676 1620.04,580.673 1620.51,627.201 1620.97,668.622 1621.44,703.182 1621.9,729.011 1622.36,744.12 1622.83,746.441 1623.29,735.58 1623.76,713.481 1624.22,682.147 1624.68,643.464 1625.15,599.202 1625.61,551.014 1626.07,500.435 1626.54,448.887 1627,397.673 1627.47,347.979 1627.93,300.878 1628.39,257.323 1628.86,218.153 1629.32,184.092 1629.79,155.745 1630.25,133.602 1630.71,118.039 1631.18,109.315 1631.64,107.572 1632.11,112.839 1632.57,125.026 1633.03,143.93 1633.5,169.233 1633.96,200.498 1634.43,237.178 1634.89,278.606 1635.35,324.002 1635.82,372.471 1636.75,474.47 1637.67,575.143 1638.14,621.522 1638.6,663.19 1639.07,698.446 1639.53,725.478 1639.99,742.358 1640.46,747.049 1640.92,738.687 1641.39,719.022 1641.85,690.025 1642.31,653.554 1642.78,611.353 1643.24,565.052 1644.17,466.101 1645.1,367.465 1645.56,321.134 1646.03,278.097 1646.49,239.189 1646.95,205.134 1647.42,176.542 1647.88,153.908 1648.35,137.617 1648.81,127.941 1649.27,125.037 1649.74,128.952 1650.2,139.62 1650.67,156.862 1651.13,180.387 1651.59,209.792 1652.06,244.562 1652.52,284.07 1652.99,327.578 1653.45,374.235 1653.91,423.078 1654.38,473.035 1654.84,522.919 1655.31,571.435 1655.77,617.175 1656.23,658.62 1656.7,694.14 1657.16,721.996 1657.63,740.334 1658.09,747.194 1658.55,741.33 1659.02,724.216 1659.48,697.774 1659.95,663.816 1660.47,618.925 1660.99,568.958 1661.51,515.972 1662.03,461.851 1662.55,408.306 1663.07,356.876 1663.59,308.925 1664.11,265.648 1664.63,228.065 1665.15,197.027 1665.67,173.209 1666.19,157.12 1666.71,149.092 1667.23,149.291 1667.75,157.708 1668.27,174.167 1668.79,198.317 1669.31,229.642 1669.83,267.452 1670.35,310.889 1670.87,358.926 1671.39,410.364 1671.91,463.838 1672.43,517.812 1672.95,570.583 1673.47,620.279 1673.99,664.857 1674.51,702.111 1675.03,729.665 1675.55,744.973 1676.07,745.494 1676.59,731.539 1677.11,705.693 1677.63,670.427 1678.15,628.047 1678.67,580.692 1679.19,530.335 1679.71,478.784 1680.23,427.682 1680.75,378.505 1681.27,332.566 1681.79,291.013 1682.31,254.83 1682.83,224.836 1683.35,201.686 1683.87,185.874 1684.39,177.726 1684.91,177.41 1685.43,184.927 1685.95,200.119 1686.47,222.662 1686.99,252.073 1687.51,287.707 1688.03,328.756 1688.55,374.25 1689.07,423.062 1689.59,473.9 1690.11,525.313 1690.63,575.692 1691.15,623.265 1691.67,666.101 1692.19,702.112 1692.71,729.048 1693.23,744.502 1693.75,746.025 1694.27,733.738 1694.79,710.08 1695.31,677.394 1695.83,637.864 1696.35,593.519 1696.87,546.229 1697.39,497.708 1697.91,449.515 1698.43,403.051 1698.95,359.564 1699.47,320.143 1699.99,285.726 1700.51,257.093 1701.03,234.871 1701.55,219.533 1702.07,211.396 1702.59,210.626 1703.11,217.235 1703.63,231.081 1704.15,251.87 1704.67,279.155 1705.19,312.338 1705.71,350.668 1706.23,393.244 1706.75,439.012 1707.27,486.768 1707.79,535.158 1708.31,582.677 1708.83,627.67 1709.35,668.333 1709.87,702.711 1710.39,728.702 1710.91,744.055 1711.43,746.448 1711.95,735.835 1712.47,714.494 1712.99,684.616 1713.51,648.243 1714.03,607.274 1715.07,518.401 1716.11,430.248 1716.63,389.635 1717.15,352.742 1717.67,320.448 1718.19,293.489 1718.71,272.455 1719.23,257.793 1719.75,249.808 1720.27,248.66 1720.79,254.369 1721.31,266.811 1721.83,285.722 1722.35,310.694 1722.87,341.181 1723.39,376.493 1723.91,415.803 1724.43,458.141 1724.95,502.399 1725.47,547.329 1725.99,591.544 1726.51,633.518 1726.98,668.229 1727.45,698.4 1727.92,722.601 1728.39,739.311 1728.86,746.917 1729.33,744.211 1729.81,732.326 1730.28,712.84 1730.75,687.225 1731.22,656.862 1731.69,623.039 1732.16,586.957 1732.63,549.722 1733.1,512.352 1733.58,475.776 1734.05,440.83 1734.52,408.262 1734.99,378.731 1735.46,352.806 1735.93,330.966 1736.4,313.603 1736.87,301.019 1737.35,293.428 1737.82,290.957 1738.29,293.643 1738.76,301.436 1739.23,314.2 1739.7,331.71 1740.17,353.655 1740.64,379.636 1741.11,409.169 1741.59,441.682 1742.06,476.52 1742.53,512.937 1743,550.107 1743.47,587.115 1743.94,622.962 1744.41,656.564 1744.88,686.752 1745.36,712.273 1745.83,731.79 1746.3,743.881 1746.77,747.057 1747.24,741.117 1747.71,727.515 1748.18,707.624 1748.65,682.738 1749.13,654.066 1749.6,622.735 1750.07,589.79 1750.54,556.196 1751.01,522.833 1751.48,490.503 1751.95,459.925 1752.42,431.737 1752.9,406.499 1753.37,384.687 1753.84,366.699 1754.31,352.853 1754.78,343.387 1755.25,338.46 1755.72,338.152 1756.19,342.463 1756.66,351.317 1757.14,364.556 1757.61,381.946 1758.08,403.176 1758.55,427.856 1759.02,455.518 1759.49,485.619 1759.96,517.538 1760.43,550.576 1760.91,583.961 1761.38,616.841 1761.85,648.291 1762.32,677.31 1762.79,702.82 1763.26,723.67 1763.73,738.633 1764.2,746.408 1764.68,745.862 1765.15,737.779 1765.62,723.459 1766.09,704.085 1766.56,680.764 1767.03,654.531 1767.5,626.349 1767.97,597.107 1768.44,567.623 1768.92,538.643 1769.39,510.84 1769.86,484.817 1770.33,461.105 1770.8,440.164 1771.27,422.384 1771.74,408.085 1772.21,397.515 1772.69,390.853 1773.16,388.21 1773.63,389.626 1774.1,395.071 1774.57,404.449 1775.04,417.593 1775.51,434.269 1775.98,454.175 1776.46,476.94 1776.93,502.128 1777.4,529.233 1778.34,586.841 1779.28,644.395 1779.75,671.183 1780.23,695.465 1780.7,716.272 1781.17,732.573 1781.64,743.269 1782.11,747.2 1782.58,743.987 1783.05,734.824 1783.52,720.759 1783.99,702.776 1784.47,681.798 1784.94,658.683 1785.41,634.229 1785.88,609.169 1786.35,584.175 1786.82,559.857 1787.36,533.551 1787.9,509.574 1788.44,488.55 1788.98,470.993 1789.52,457.319 1790.06,447.837 1790.6,442.757 1791.14,442.184 1791.68,446.124 1792.22,454.482 1792.76,467.063 1793.3,483.57 1793.84,503.611 1794.38,526.693 1794.91,552.225 1795.45,579.52 1795.99,607.793 1796.53,636.163 1797.07,663.655 1797.61,689.197 1798.15,711.623 1798.69,729.673 1799.23,741.993 1799.77,747.138 1800.31,744.432 1800.85,735.362 1801.39,721.223 1801.93,703.209 1802.47,682.426 1803.01,659.89 1803.55,636.526 1804.09,613.174 1804.63,590.585 1805.17,569.422 1805.7,550.263 1806.24,533.598 1806.78,519.834 1807.32,509.291 1807.86,502.207 1808.4,498.734 1808.94,498.943 1809.48,502.821 1810.02,510.274 1810.56,521.126 1811.1,535.121 1811.64,551.922 1812.18,571.113 1812.72,592.199 1813.8,637.684 1814.88,682.858 1815.42,703.267 1815.96,720.974 1816.49,734.948 1817.03,744.081 1817.57,747.196 1818.11,744.245 1818.65,736.574 1819.19,725.169 1819.73,710.939 1820.27,694.729 1820.81,677.308 1821.35,659.379 1821.89,641.574 1822.43,624.458 1822.97,608.528 1823.51,594.213 1824.05,581.877 1824.59,571.815 1825.13,564.261 1825.67,559.381 1826.21,557.276 1826.75,557.988 1827.28,561.491 1827.82,567.699 1828.36,576.465 1828.9,587.579 1829.44,600.771 1829.98,615.712 1831.06,649.224 1832.14,684.301 1832.68,700.982 1833.22,716.208 1833.76,729.246 1834.3,739.309 1834.84,745.554 1835.38,747.119 1835.92,744.504 1836.46,738.751 1837,730.54 1837.54,720.496 1838.07,709.196 1838.61,697.167 1839.69,672.778 1840.77,650.555 1841.31,641.056 1841.85,632.963 1842.39,626.469 1842.93,621.719 1843.47,618.817 1844.01,617.818 1844.55,618.738 1845.09,621.548 1845.63,626.176 1846.17,632.51 1846.71,640.396 1847.25,649.641 1848.33,671.232 1849.4,694.947 1849.94,706.704 1850.48,717.843 1851.02,727.903 1851.56,736.39 1852.1,742.776 1852.64,746.495 1853.18,747.058 1853.72,745.34 1854.26,741.996 1854.8,737.399 1855.34,731.891 1855.88,725.785 1856.88,713.834 1857.88,702.308 1858.88,692.408 1859.87,685.019 1860.87,680.724 1861.87,679.814 1862.87,682.31 1863.87,687.968 1864.87,696.296 1865.87,706.571 1866.87,717.847 1867.87,728.973 1868.87,738.603 1869.87,745.213 1870.86,747.187 1871.86,746.588 1873.86,744.19 1875.86,742.2 1877.86,741.712 1879.86,742.714 1881.85,744.523 1883.85,746.231 1885.85,747.143 1887.85,747.22 1888.85,747.675 1889.85,751.873 1890.85,759.227 1891.84,768.396 1892.84,778.174 1893.84,787.505 1894.84,795.5 1895.84,801.45 1896.84,804.835 1897.84,805.344 1898.84,802.885 1899.84,797.602 1900.84,789.884 1901.84,780.382 1902.83,770.022 1903.83,760.022 1904.33,755.619 1904.83,751.899 1905.33,749.101 1905.83,747.487 1906.33,747.429 1906.83,749.847 1907.33,754.551 1907.83,761.116 1908.83,778.251 1909.83,798.321 1910.83,818.779 1911.83,837.48 1912.33,845.612 1912.83,852.687 1913.32,858.556 1913.82,863.094 1914.32,866.208 1914.82,867.832 1915.32,867.926 1915.82,866.484 1916.32,863.525 1916.82,859.102 1917.32,853.296 1917.82,846.22 1918.82,828.863 1919.82,808.566 1920.8,787.679 1921.79,768.411 1922.28,760.3 1922.77,753.76 1923.27,749.247 1923.76,747.253 1924.25,748.599 1924.74,753.728 1925.24,762.003 1925.73,772.806 1926.22,785.55 1926.71,799.687 1927.21,814.706 1927.7,830.133 1928.68,860.497 1929.67,887.74 1930.16,899.41 1930.65,909.441 1931.15,917.63 1931.64,923.812 1932.13,927.865 1932.62,929.708 1933.12,929.299 1933.61,926.639 1934.1,921.773 1934.59,914.787 1935.09,905.809 1935.58,895.013 1936.07,882.614 1936.56,868.872 1937.06,854.093 1937.55,838.627 1938.53,807.258 1939.52,778.478 1940.01,766.421 1940.5,756.74 1941,750.111 1941.49,747.257 1941.98,749.199 1942.47,756.203 1942.97,767.397 1943.46,781.944 1943.95,799.058 1944.44,818 1944.94,838.085 1945.43,858.678 1945.92,879.195 1946.41,899.105 1946.9,917.927 1947.4,935.234 1947.89,950.654 1948.38,963.865 1948.87,974.6 1949.37,982.648 1949.86,987.849 1950.35,990.101 1950.84,989.355 1951.34,985.62 1951.83,978.959 1952.32,969.493 1952.81,957.398 1953.31,942.909 1953.8,926.317 1954.29,907.973 1954.78,888.284 1955.28,867.717 1955.77,846.799 1956.26,826.113 1956.75,806.305 1957.25,788.081 1957.74,772.206 1958.23,759.507 1958.72,750.873 1959.22,747.252 1959.71,749.849 1960.2,758.734 1960.69,772.808 1961.19,791.025 1961.68,812.402 1962.17,836.02 1962.66,861.023 1963.16,886.623 1963.65,912.094 1964.14,936.777 1964.63,960.078 1965.13,981.469 1965.62,1000.49 1966.11,1016.75 1966.6,1029.91 1967.1,1039.72 1967.59,1045.99 1968.08,1048.59 1968.57,1047.48 1969.07,1042.66 1969.56,1034.22 1970.05,1022.31 1970.54,1007.16 1971.04,989.065 1971.53,968.387 1972.02,945.565 1972.51,921.106 1973.01,895.593 1973.5,869.678 1973.99,844.087 1974.48,819.619 1974.98,797.145 1975.47,777.613 1975.96,762.043 1976.45,751.529 1976.95,747.241 1977.44,750.543 1977.93,761.297 1978.42,778.186 1978.92,799.964 1979.41,825.46 1979.9,853.582 1980.39,883.314 1980.89,913.718 1981.38,943.934 1981.87,973.181 1982.36,1000.76 1982.86,1026.04 1983.33,1047.87 1983.81,1066.6 1984.29,1081.88 1984.77,1093.42 1985.25,1101 1985.72,1104.5 1986.2,1103.84 1986.68,1099.03 1987.16,1090.15 1987.64,1077.35 1988.12,1060.87 1988.59,1040.99 1989.07,1018.1 1989.55,992.647 1990.03,965.149 1990.51,936.21 1990.98,906.504 1991.46,876.781 1991.94,847.87 1992.42,820.672 1992.9,796.167 1993.38,775.413 1993.85,759.543 1994.33,749.768 1994.81,747.396 1995.29,753.617 1995.77,767.537 1996.24,787.777 1996.72,813.039 1997.2,842.104 1997.68,873.833 1998.16,907.167 1998.64,941.126 1999.11,974.812 1999.59,1007.41 2000.07,1038.17 2000.55,1066.45 2001.03,1091.68 2001.5,1113.35 2001.98,1131.06 2002.46,1144.49 2002.94,1153.38 2003.42,1157.58 2003.89,1157 2004.37,1151.66 2004.85,1141.64 2005.33,1127.12 2005.81,1108.34 2006.29,1085.66 2006.76,1059.51 2007.24,1030.39 2007.72,998.904 2008.2,965.737 2008.68,931.658 2009.15,897.525 2009.63,864.28 2010.11,832.955 2010.59,804.668 2011.07,780.623 2011.55,762.113 2012.02,750.521 2012.5,747.324 2012.98,753.832 2013.46,769.067 2013.94,791.476 2014.41,819.592 2014.89,852.04 2015.37,887.536 2016.33,962.978 2017.28,1037.44 2017.76,1072.06 2018.24,1103.92 2018.72,1132.37 2019.2,1156.85 2019.67,1176.91 2020.15,1192.17 2020.63,1202.36 2021.11,1207.29 2021.59,1206.86 2022.06,1201.09 2022.54,1190.07 2023.02,1173.99 2023.5,1153.13 2023.98,1127.88 2024.46,1098.72 2024.93,1066.21 2025.41,1031.02 2025.89,993.91 2026.37,955.744 2026.85,917.474 2027.32,880.152 2027.8,844.927 2028.28,813.043 2028.76,785.845 2029.24,764.773 2029.72,751.365 2030.19,747.262 2030.67,753.895 2031.15,770.232 2031.63,794.553 2032.11,825.236 2032.58,860.76 2033.06,899.702 2033.54,940.741 2034.02,982.654 2034.5,1024.32 2034.98,1064.72 2035.45,1102.93 2035.93,1138.13 2036.41,1169.62 2036.89,1196.76 2037.37,1219.04 2037.84,1236.07 2038.32,1247.52 2038.8,1253.19 2039.28,1252.98 2039.76,1246.88 2040.23,1235 2040.71,1217.55 2041.19,1194.83 2041.67,1167.26 2042.15,1135.37 2042.63,1099.77 2043.1,1061.18 2043.58,1020.46 2044.06,978.524 2044.55,935.379 2045.04,893.305 2045.53,853.658 2046.02,817.915 2046.51,787.666 2047,764.623 2047.49,750.613 2047.98,747.599 2048.47,756.856 2048.96,776.815 2049.45,805.488 2049.94,841.002 2050.43,881.608 2050.92,925.675 2051.41,971.692 2051.9,1018.27 2052.39,1064.14 2052.88,1108.15 2053.37,1149.27 2053.86,1186.6 2054.35,1219.36 2054.84,1246.88 2055.33,1268.63 2055.82,1284.18 2056.31,1293.24 2056.8,1295.65 2057.29,1291.34 2057.78,1280.41 2058.27,1263.04 2058.77,1239.56 2059.26,1210.41 2059.75,1176.18 2060.24,1137.55 2060.73,1095.34 2061.22,1050.51 2061.71,1004.12 2062.2,957.38 2062.69,911.602 2063.18,868.24 2063.67,828.87 2064.16,795.195 2064.65,769.045 2065.14,752.377 2065.63,747.277 2066.12,755.361 2066.61,775.203 2067.1,804.654 2067.59,841.694 2068.08,884.432 2068.57,931.104 2069.06,980.076 2069.55,1029.84 2070.04,1079.03 2070.53,1126.4 2071.02,1170.82 2071.51,1211.31 2072,1247.03 2072.49,1277.23 2072.98,1301.34 2073.47,1318.88 2073.96,1329.52 2074.45,1333.07 2074.94,1329.46 2075.43,1318.74 2075.92,1301.11 2076.41,1276.9 2076.9,1246.58 2077.39,1210.72 2077.88,1170.07 2078.37,1125.47 2078.86,1077.92 2079.35,1028.55 2079.84,978.615 2080.33,929.505 2080.82,882.751 2081.31,840.016 2081.8,803.095 2082.29,773.92 2082.78,754.559 2083.27,747.213 2083.76,753.789 2084.25,773.122 2084.74,802.919 2085.23,841.026 2085.72,885.424 2086.21,934.229 2086.7,985.696 2087.2,1038.21 2087.69,1090.31 2088.18,1140.66 2088.67,1188.05 2089.16,1231.43 2089.65,1269.88 2090.14,1302.61 2090.63,1328.97 2091.12,1348.47 2091.61,1360.72 2092.1,1365.51 2092.59,1362.73 2093.08,1352.44 2093.57,1334.82 2094.06,1310.21 2094.55,1279.06 2095.04,1241.99 2095.53,1199.74 2096.02,1153.19 2096.51,1103.39 2097,1051.48 2097.49,998.789 2097.98,946.757 2098.47,896.978 2098.96,851.184 2099.45,811.248 2099.94,779.185 2100.43,757.154 2100.92,747.452 2101.41,752.233 2101.9,770.686 2102.39,800.408 2102.88,839.123 2103.37,884.701 2103.86,935.151 2104.35,988.628 2104.84,1043.43 2105.33,1098 2105.82,1150.92 2106.31,1200.92 2106.8,1246.87 2107.34,1291.41 2107.88,1328.82 2108.41,1358.21 2108.95,1378.91 2109.49,1390.46 2110.02,1392.58 2110.56,1385.23 2111.1,1368.57 2111.64,1342.97 2112.17,1309.01 2112.71,1267.47 2113.25,1219.37 2113.78,1165.89 2114.32,1108.48 2114.86,1048.76 2115.39,988.566 2115.93,929.966 2116.47,875.222 2117.01,826.815 2117.54,787.435 2118.08,759.987 2118.62,747.587 2119.15,753.134 2119.69,775.492 2120.23,811.407 2120.77,857.821 2121.3,911.887 2121.84,970.974 2122.38,1032.66 2122.91,1094.76 2123.45,1155.26 2123.99,1212.4 2124.52,1264.62 2125.06,1310.58 2125.6,1349.15 2126.14,1379.42 2126.67,1400.69 2127.21,1412.47 2127.75,1414.52 2128.28,1406.77 2128.82,1389.4 2129.36,1362.79 2129.89,1327.55 2130.43,1284.5 2130.97,1234.66 2131.51,1179.31 2132.04,1119.91 2132.58,1058.14 2133.12,995.93 2133.65,935.391 2134.19,878.872 2134.73,828.938 2135.27,788.37 2135.8,760.169 2136.34,747.556 2136.88,753.457 2137.41,776.562 2137.95,813.528 2138.49,861.22 2139.02,916.719 2139.56,977.331 2140.1,1040.58 2140.64,1104.2 2141.17,1166.17 2141.71,1224.67 2142.25,1278.1 2142.78,1325.1 2143.32,1364.5 2143.86,1395.38 2144.39,1417.02 2144.93,1428.95 2145.47,1430.89 2146.01,1422.8 2146.54,1404.86 2147.08,1377.46 2147.62,1341.23 2148.15,1297.01 2148.69,1245.87 2149.23,1189.09 2149.77,1128.19 2150.3,1064.9 2150.84,1001.18 2151.38,939.211 2151.91,881.392 2152.45,830.351 2152.99,788.94 2153.52,760.231 2154.06,747.522 2154.6,753.738 2155.14,777.403 2155.67,815.118 2156.21,863.693 2156.75,920.166 2157.28,981.799 2157.82,1046.07 2158.36,1110.7 2158.89,1173.62 2159.43,1232.98 2159.97,1287.18 2160.51,1334.81 2161.04,1374.71 2161.58,1405.94 2162.12,1427.78 2162.65,1439.75 2163.19,1441.57 2163.73,1433.2 2164.27,1414.83 2164.8,1386.86 2165.34,1349.94 2165.88,1304.92 2166.41,1252.89 2166.95,1195.16 2167.49,1133.27 2168.02,1068.98 2168.56,1004.29 2169.1,941.403 2169.64,882.768 2170.17,831.052 2170.71,789.149 2171.25,760.178 2171.78,747.486 2172.32,753.971 2172.86,778.004 2173.4,816.154 2173.93,865.211 2174.47,922.188 2175.01,984.327 2175.54,1049.1 2176.32,1143.19 2177.1,1231.8 2177.88,1309.72 2178.66,1372.75 2179.44,1417.71 2180.22,1442.42 2181,1445.72 2181.78,1427.44 2182.56,1388.46 2183.34,1330.62 2184.12,1256.83 2184.9,1170.95 2185.68,1077.89 2186.47,983.568 2187.25,894.898 2188.03,819.816 2188.81,767.265 2189.59,747.202 2190.37,766.811 2191.15,818.991 2191.93,893.784 2192.71,982.242 2193.49,1076.43 2194.27,1169.42 2195.05,1255.3 2195.83,1329.15 2196.61,1387.1 2197.39,1426.25 2198.17,1444.73 2198.95,1441.67 2199.73,1417.22 2200.51,1372.53 2201.29,1309.76 2202.07,1232.09 2202.85,1143.68 2203.63,1049.74 2204.41,956.457 2205.19,871.028 2205.97,801.666 2206.75,757.586 2207.53,748.908 2208.31,778.815 2209.09,838.02 2209.87,916.941 2210.65,1007 2211.43,1100.62 2212.21,1191.23 2212.99,1273.26 2213.77,1342.16 2214.55,1394.34 2215.33,1427.26 2216.11,1439.34 2216.89,1430.04 2217.67,1399.78 2218.45,1350.01 2219.23,1283.15 2220.01,1202.65 2220.79,1112.94 2221.57,1019.44 2222.35,928.566 2223.13,847.748 2223.91,785.394 2224.69,750.908 2225.47,753.869 2226.25,792.665 2227.03,857.401 2227.81,938.944 2228.59,1029.15 2229.37,1120.86 2230.15,1207.9 2230.93,1285.11 2231.71,1348.27 2232.49,1394.18 2233.27,1420.61 2234.05,1426.33 2234.83,1411.07 2235.61,1375.55 2236.39,1321.47 2237.17,1251.51 2237.95,1169.33 2238.73,1079.57 2239.51,987.843 2240.29,900.73 2241.07,825.794 2241.85,771.572 2242.64,747.567 2243.42,761.526 2244.2,807.64 2244.98,876.322 2245.76,958.952 2246.54,1047.88 2247.32,1136.4 2248.1,1218.81 2248.88,1290.33 2249.66,1347.17 2250.44,1386.47 2251.22,1406.36 2252,1405.92 2252.78,1385.16 2253.56,1345.07 2254.34,1287.6 2255.12,1215.62 2255.9,1132.99 2256.68,1044.48 2257.46,955.836 2258.24,873.739 2259.02,805.817 2259.8,760.64 2260.58,747.693 2261.36,771.204 2262.14,822.95 2262.92,893.947 2263.7,976.142 2264.48,1062.42 2265.26,1146.6 2266.04,1223.43 2266.82,1288.58 2267.6,1338.67 2268.38,1371.22 2269.16,1384.69 2269.94,1378.46 2270.72,1352.84 2271.5,1309.03 2272.28,1249.19 2273.06,1176.36 2273.84,1094.52 2274.62,1008.56 2275.4,924.251 2275.72,891.669 2276.04,860.992 2276.36,832.754 2276.68,807.512 2276.84,796.197 2277,785.852 2277.16,776.554 2277.32,768.383 2277.48,761.417 2277.64,755.74 2277.8,751.434 2277.96,748.585 2278.12,747.279 2278.28,747.581 2278.44,749.422 2278.6,752.717 2278.76,757.381 2278.92,763.334 2279.08,770.493 2279.24,778.781 2279.56,798.435 2279.88,821.698 2280.2,847.996 2280.52,876.783 2281.16,939.755 2281.8,1006.74 2282.44,1074.28 2283.08,1139.3 2283.4,1170.02 2283.72,1199.15 2284.04,1226.41 2284.36,1251.57 2284.68,1274.4 2285,1294.7 2285.32,1312.32 2285.64,1327.11 2285.96,1338.94 2286.28,1347.72 2286.6,1353.4 2286.92,1355.91 2287.24,1355.24 2287.56,1351.41 2287.88,1344.43 2288.2,1334.37 2288.52,1321.31 2288.84,1305.34 2289.17,1286.61 2289.49,1265.27 2289.81,1241.5 2290.13,1215.49 2290.45,1187.49 2290.77,1157.74 2291.41,1094.16 2292.05,1027.26 2292.69,959.965 2293.33,895.59 2293.65,865.638 2293.97,837.836 2294.29,812.706 2294.61,790.798 2294.77,781.23 2294.93,772.684 2295.09,765.236 2295.25,758.962 2295.41,753.941 2295.57,750.252 2295.73,747.978 2295.89,747.202 "/>
<path clip-path="url(#clip440)" d="M1830.7 198.898 L2285.78 198.898 L2285.78 95.2176 L1830.7 95.2176  Z" fill="#ffffff" fill-rule="evenodd" fill-opacity="1"/>
<polyline clip-path="url(#clip440)" style="stroke:#000000; stroke-linecap:round; stroke-linejoin:round; stroke-width:4; stroke-opacity:1; fill:none" points="1830.7,198.898 2285.78,198.898 2285.78,95.2176 1830.7,95.2176 1830.7,198.898 "/>
<polyline clip-path="url(#clip440)" style="stroke:#009af9; stroke-linecap:round; stroke-linejoin:round; stroke-width:4; stroke-opacity:1; fill:none" points="1853.03,147.058 1986.99,147.058 "/>
<path clip-path="url(#clip440)" d="M2033.23 128.413 Q2033.23 129.701 2032.41 130.498 Q2031.61 131.294 2030.61 131.294 Q2029.88 131.294 2029.34 130.849 Q2028.83 130.404 2028.83 129.631 Q2028.83 128.835 2029.43 127.992 Q2030.04 127.148 2031.42 127.031 Q2030.51 126.165 2029.06 126.165 Q2028.33 126.165 2027.72 126.633 Q2027.14 127.078 2026.81 127.804 Q2026.46 128.554 2025.66 132.793 Q2025.41 134.175 2025.17 135.51 Q2024.94 136.845 2024.66 138.251 L2028.64 138.251 Q2029.15 138.251 2029.36 138.274 Q2029.57 138.297 2029.74 138.414 Q2029.93 138.532 2029.93 138.789 Q2029.93 139.445 2029.62 139.609 Q2029.34 139.75 2028.5 139.75 L2024.37 139.75 L2021.49 154.951 Q2021.42 155.396 2021.12 156.801 Q2020.84 158.183 2020.16 160.455 Q2019.48 162.75 2018.8 164.109 Q2018.43 164.882 2017.93 165.608 Q2017.47 166.357 2016.79 167.107 Q2016.11 167.857 2015.22 168.302 Q2014.33 168.77 2013.39 168.77 Q2011.8 168.77 2010.56 167.88 Q2009.31 166.99 2009.31 165.467 Q2009.31 164.179 2010.11 163.383 Q2010.93 162.586 2011.94 162.586 Q2012.66 162.586 2013.18 163.031 Q2013.72 163.477 2013.72 164.249 Q2013.72 164.577 2013.6 164.952 Q2013.48 165.327 2013.23 165.748 Q2012.97 166.194 2012.41 166.498 Q2011.84 166.802 2011.07 166.849 Q2011.98 167.716 2013.39 167.716 Q2013.83 167.716 2014.23 167.529 Q2014.63 167.365 2014.96 166.943 Q2015.31 166.521 2015.57 166.1 Q2015.83 165.702 2016.08 164.929 Q2016.34 164.179 2016.5 163.617 Q2016.67 163.055 2016.88 162.048 Q2017.11 161.041 2017.23 160.432 Q2017.35 159.846 2017.56 158.698 L2021.14 139.75 L2017.98 139.75 Q2017.42 139.75 2017.18 139.726 Q2016.97 139.703 2016.81 139.586 Q2016.65 139.445 2016.65 139.164 Q2016.65 138.719 2016.83 138.532 Q2017.04 138.321 2017.28 138.297 Q2017.51 138.251 2018.07 138.251 L2021.4 138.251 Q2022.52 132.325 2022.97 130.732 Q2023.48 129.046 2024.28 127.874 Q2025.08 126.68 2025.97 126.118 Q2026.86 125.556 2027.58 125.345 Q2028.33 125.111 2029.06 125.111 Q2030.7 125.111 2031.96 126.001 Q2033.23 126.867 2033.23 128.413 Z" fill="#000000" fill-rule="nonzero" fill-opacity="1" /><path clip-path="url(#clip440)" d="M2039.68 146.94 Q2039.68 138.836 2042.7 132.301 Q2043.99 129.561 2045.79 127.265 Q2047.6 124.97 2048.79 123.963 Q2049.99 122.956 2050.31 122.956 Q2050.78 122.956 2050.81 123.424 Q2050.81 123.658 2050.17 124.244 Q2042.44 132.114 2042.47 146.94 Q2042.47 161.814 2049.99 169.379 Q2050.81 170.199 2050.81 170.456 Q2050.81 170.925 2050.31 170.925 Q2049.99 170.925 2048.84 169.965 Q2047.69 169.004 2045.91 166.802 Q2044.13 164.601 2042.84 161.907 Q2039.68 155.372 2039.68 146.94 Z" fill="#000000" fill-rule="nonzero" fill-opacity="1" /><path clip-path="url(#clip440)" d="M2078.34 140.897 Q2078.34 142.209 2077.52 142.958 Q2076.7 143.685 2075.76 143.685 Q2074.87 143.685 2074.4 143.169 Q2073.94 142.654 2073.94 141.998 Q2073.94 141.108 2074.59 140.335 Q2075.25 139.562 2076.23 139.398 Q2075.27 138.789 2073.84 138.789 Q2072.91 138.789 2072.09 139.281 Q2071.29 139.773 2070.8 140.405 Q2070.33 141.038 2069.91 141.951 Q2069.51 142.841 2069.35 143.38 Q2069.2 143.895 2069.09 144.457 L2067.45 151.016 Q2066.65 154.131 2066.65 155.232 Q2066.65 156.59 2067.31 157.504 Q2067.96 158.394 2069.27 158.394 Q2069.79 158.394 2070.38 158.253 Q2070.96 158.089 2071.71 157.668 Q2072.48 157.223 2073.16 156.567 Q2073.87 155.888 2074.55 154.74 Q2075.22 153.592 2075.67 152.117 Q2075.81 151.601 2076.28 151.601 Q2076.86 151.601 2076.86 152.07 Q2076.86 152.468 2076.54 153.311 Q2076.23 154.131 2075.55 155.208 Q2074.9 156.262 2074.03 157.223 Q2073.16 158.16 2071.87 158.815 Q2070.59 159.471 2069.18 159.471 Q2067.17 159.471 2065.83 158.394 Q2064.5 157.316 2064 155.817 Q2063.89 156.028 2063.72 156.309 Q2063.56 156.59 2063.07 157.223 Q2062.6 157.832 2062.06 158.3 Q2061.52 158.745 2060.68 159.097 Q2059.86 159.471 2058.97 159.471 Q2057.84 159.471 2056.84 159.143 Q2055.85 158.815 2055.15 158.066 Q2054.45 157.316 2054.45 156.286 Q2054.45 155.138 2055.22 154.342 Q2056.02 153.522 2057.1 153.522 Q2057.77 153.522 2058.31 153.92 Q2058.88 154.318 2058.88 155.185 Q2058.88 156.145 2058.22 156.871 Q2057.56 157.597 2056.63 157.785 Q2057.59 158.394 2059.02 158.394 Q2060.56 158.394 2061.78 157.035 Q2063 155.677 2063.58 153.405 Q2065.04 147.947 2065.6 145.511 Q2066.16 143.052 2066.16 141.998 Q2066.16 141.014 2065.9 140.335 Q2065.64 139.656 2065.2 139.351 Q2064.78 139.023 2064.38 138.906 Q2064 138.789 2063.58 138.789 Q2062.88 138.789 2062.08 139.07 Q2061.31 139.351 2060.37 140.007 Q2059.46 140.64 2058.59 141.951 Q2057.73 143.263 2057.14 145.066 Q2057.03 145.605 2056.51 145.605 Q2055.95 145.582 2055.95 145.113 Q2055.95 144.715 2056.25 143.895 Q2056.58 143.052 2057.24 141.998 Q2057.92 140.944 2058.78 140.007 Q2059.67 139.047 2060.96 138.391 Q2062.27 137.735 2063.68 137.735 Q2064.31 137.735 2064.92 137.876 Q2065.55 137.993 2066.3 138.344 Q2067.07 138.696 2067.75 139.469 Q2068.43 140.241 2068.85 141.366 Q2069.13 140.827 2069.51 140.312 Q2069.91 139.796 2070.52 139.164 Q2071.15 138.508 2072.02 138.133 Q2072.91 137.735 2073.89 137.735 Q2074.85 137.735 2075.79 137.993 Q2076.72 138.227 2077.52 139 Q2078.34 139.75 2078.34 140.897 Z" fill="#000000" fill-rule="nonzero" fill-opacity="1" /><path clip-path="url(#clip440)" d="M2082.95 170.456 Q2082.95 170.222 2083.56 169.637 Q2091.29 161.767 2091.29 146.94 Q2091.29 132.067 2083.87 124.548 Q2082.95 123.682 2082.95 123.424 Q2082.95 122.956 2083.42 122.956 Q2083.75 122.956 2084.9 123.916 Q2086.07 124.876 2087.82 127.078 Q2089.6 129.28 2090.92 131.973 Q2094.08 138.508 2094.08 146.94 Q2094.08 155.044 2091.06 161.579 Q2089.77 164.32 2087.96 166.615 Q2086.16 168.911 2084.97 169.918 Q2083.77 170.925 2083.42 170.925 Q2082.95 170.925 2082.95 170.456 Z" fill="#000000" fill-rule="nonzero" fill-opacity="1" /><path clip-path="url(#clip440)" d="M2146.34 146.261 Q2146.62 146.542 2146.62 146.94 Q2146.62 147.338 2146.34 147.62 Q2146.06 147.901 2145.66 147.901 L2115.63 147.901 Q2115.23 147.901 2114.95 147.62 Q2114.67 147.338 2114.67 146.94 Q2114.67 146.542 2114.95 146.261 Q2115.23 145.98 2115.63 145.98 L2145.66 145.98 Q2146.06 145.98 2146.34 146.261 Z" fill="#000000" fill-rule="nonzero" fill-opacity="1" /><path clip-path="url(#clip440)" d="M2196.83 126.61 Q2196.83 126.75 2196.68 127.312 L2169.87 157.293 L2178.06 157.293 Q2180.48 157.293 2182.3 156.871 Q2184.13 156.426 2185.4 155.677 Q2186.66 154.927 2187.64 153.639 Q2188.65 152.327 2189.31 150.899 Q2189.96 149.446 2190.64 147.315 Q2190.9 146.495 2191.02 146.308 Q2191.13 146.12 2191.44 146.12 Q2191.74 146.12 2191.91 146.308 Q2192.07 146.472 2192.07 146.659 Q2192.07 146.753 2192.02 146.893 Q2192 147.011 2191.95 147.151 Q2191.91 147.292 2191.88 147.362 L2188.46 157.972 Q2188.25 158.651 2188.04 158.792 Q2187.83 158.933 2186.99 158.933 L2166.12 158.933 Q2165.39 158.933 2165.16 158.886 Q2164.92 158.815 2164.92 158.511 L2165.11 157.644 L2191.93 127.664 L2184.11 127.664 Q2181.91 127.664 2180.17 128.062 Q2178.46 128.437 2177.24 129.139 Q2176.03 129.818 2175.09 130.966 Q2174.15 132.09 2173.52 133.402 Q2172.89 134.69 2172.3 136.494 L2172.23 136.611 Q2172.16 136.728 2172.11 136.798 Q2172.07 136.845 2171.95 136.915 Q2171.83 136.962 2171.69 136.962 Q2171.44 136.962 2171.27 136.822 Q2171.13 136.681 2171.13 136.541 L2171.11 136.424 Q2171.15 136.002 2171.25 135.768 L2173.89 127.125 Q2174.11 126.446 2174.32 126.305 Q2174.53 126.165 2175.37 126.165 L2195.63 126.165 Q2196.38 126.165 2196.59 126.235 Q2196.83 126.305 2196.83 126.61 Z" fill="#000000" fill-rule="nonzero" fill-opacity="1" /><path clip-path="url(#clip440)" d="M2201.76 146.94 Q2201.76 138.836 2204.79 132.301 Q2206.07 129.561 2207.88 127.265 Q2209.68 124.97 2210.88 123.963 Q2212.07 122.956 2212.4 122.956 Q2212.87 122.956 2212.89 123.424 Q2212.89 123.658 2212.26 124.244 Q2204.53 132.114 2204.55 146.94 Q2204.55 161.814 2212.07 169.379 Q2212.89 170.199 2212.89 170.456 Q2212.89 170.925 2212.4 170.925 Q2212.07 170.925 2210.92 169.965 Q2209.77 169.004 2207.99 166.802 Q2206.21 164.601 2204.93 161.907 Q2201.76 155.372 2201.76 146.94 Z" fill="#000000" fill-rule="nonzero" fill-opacity="1" /><path clip-path="url(#clip440)" d="M2240.42 140.897 Q2240.42 142.209 2239.6 142.958 Q2238.78 143.685 2237.85 143.685 Q2236.96 143.685 2236.49 143.169 Q2236.02 142.654 2236.02 141.998 Q2236.02 141.108 2236.68 140.335 Q2237.33 139.562 2238.31 139.398 Q2237.35 138.789 2235.93 138.789 Q2234.99 138.789 2234.17 139.281 Q2233.37 139.773 2232.88 140.405 Q2232.41 141.038 2231.99 141.951 Q2231.59 142.841 2231.43 143.38 Q2231.29 143.895 2231.17 144.457 L2229.53 151.016 Q2228.73 154.131 2228.73 155.232 Q2228.73 156.59 2229.39 157.504 Q2230.05 158.394 2231.36 158.394 Q2231.87 158.394 2232.46 158.253 Q2233.04 158.089 2233.79 157.668 Q2234.57 157.223 2235.25 156.567 Q2235.95 155.888 2236.63 154.74 Q2237.31 153.592 2237.75 152.117 Q2237.89 151.601 2238.36 151.601 Q2238.95 151.601 2238.95 152.07 Q2238.95 152.468 2238.62 153.311 Q2238.31 154.131 2237.64 155.208 Q2236.98 156.262 2236.11 157.223 Q2235.25 158.16 2233.96 158.815 Q2232.67 159.471 2231.26 159.471 Q2229.25 159.471 2227.92 158.394 Q2226.58 157.316 2226.09 155.817 Q2225.97 156.028 2225.81 156.309 Q2225.64 156.59 2225.15 157.223 Q2224.68 157.832 2224.14 158.3 Q2223.61 158.745 2222.76 159.097 Q2221.94 159.471 2221.05 159.471 Q2219.93 159.471 2218.92 159.143 Q2217.94 158.815 2217.23 158.066 Q2216.53 157.316 2216.53 156.286 Q2216.53 155.138 2217.3 154.342 Q2218.1 153.522 2219.18 153.522 Q2219.86 153.522 2220.4 153.92 Q2220.96 154.318 2220.96 155.185 Q2220.96 156.145 2220.3 156.871 Q2219.65 157.597 2218.71 157.785 Q2219.67 158.394 2221.1 158.394 Q2222.65 158.394 2223.86 157.035 Q2225.08 155.677 2225.67 153.405 Q2227.12 147.947 2227.68 145.511 Q2228.24 143.052 2228.24 141.998 Q2228.24 141.014 2227.99 140.335 Q2227.73 139.656 2227.28 139.351 Q2226.86 139.023 2226.46 138.906 Q2226.09 138.789 2225.67 138.789 Q2224.96 138.789 2224.17 139.07 Q2223.39 139.351 2222.46 140.007 Q2221.54 140.64 2220.68 141.951 Q2219.81 143.263 2219.23 145.066 Q2219.11 145.605 2218.59 145.605 Q2218.03 145.582 2218.03 145.113 Q2218.03 144.715 2218.34 143.895 Q2218.66 143.052 2219.32 141.998 Q2220 140.944 2220.86 140.007 Q2221.75 139.047 2223.04 138.391 Q2224.35 137.735 2225.76 137.735 Q2226.39 137.735 2227 137.876 Q2227.63 137.993 2228.38 138.344 Q2229.16 138.696 2229.84 139.469 Q2230.51 140.241 2230.94 141.366 Q2231.22 140.827 2231.59 140.312 Q2231.99 139.796 2232.6 139.164 Q2233.23 138.508 2234.1 138.133 Q2234.99 137.735 2235.97 137.735 Q2236.93 137.735 2237.87 137.993 Q2238.81 138.227 2239.6 139 Q2240.42 139.75 2240.42 140.897 Z" fill="#000000" fill-rule="nonzero" fill-opacity="1" /><path clip-path="url(#clip440)" d="M2245.04 170.456 Q2245.04 170.222 2245.64 169.637 Q2253.37 161.767 2253.37 146.94 Q2253.37 132.067 2245.95 124.548 Q2245.04 123.682 2245.04 123.424 Q2245.04 122.956 2245.5 122.956 Q2245.83 122.956 2246.98 123.916 Q2248.15 124.876 2249.91 127.078 Q2251.69 129.28 2253 131.973 Q2256.16 138.508 2256.16 146.94 Q2256.16 155.044 2253.14 161.579 Q2251.85 164.32 2250.05 166.615 Q2248.24 168.911 2247.05 169.918 Q2245.86 170.925 2245.5 170.925 Q2245.04 170.925 2245.04 170.456 Z" fill="#000000" fill-rule="nonzero" fill-opacity="1" /></svg>
