<?xml version="1.0" encoding="utf-8"?>
<svg xmlns="http://www.w3.org/2000/svg" xmlns:xlink="http://www.w3.org/1999/xlink" width="600" height="400" viewBox="0 0 2400 1600">
<defs>
  <clipPath id="clip100">
    <rect x="0" y="0" width="2400" height="1600"/>
  </clipPath>
</defs>
<path clip-path="url(#clip100)" d="M0 1600 L2400 1600 L2400 0 L0 0  Z" fill="#ffffff" fill-rule="evenodd" fill-opacity="1"/>
<defs>
  <clipPath id="clip101">
    <rect x="480" y="0" width="1681" height="1600"/>
  </clipPath>
</defs>
<path clip-path="url(#clip100)" d="M343.39 1486.45 L2352.76 1486.45 L2352.76 47.2441 L343.39 47.2441  Z" fill="#ffffff" fill-rule="evenodd" fill-opacity="1"/>
<defs>
  <clipPath id="clip102">
    <rect x="343" y="47" width="2010" height="1440"/>
  </clipPath>
</defs>
<polyline clip-path="url(#clip102)" style="stroke:#000000; stroke-linecap:round; stroke-linejoin:round; stroke-width:2; stroke-opacity:0.1; fill:none" points="400.259,1486.45 400.259,47.2441 "/>
<polyline clip-path="url(#clip102)" style="stroke:#000000; stroke-linecap:round; stroke-linejoin:round; stroke-width:2; stroke-opacity:0.1; fill:none" points="779.384,1486.45 779.384,47.2441 "/>
<polyline clip-path="url(#clip102)" style="stroke:#000000; stroke-linecap:round; stroke-linejoin:round; stroke-width:2; stroke-opacity:0.1; fill:none" points="1158.51,1486.45 1158.51,47.2441 "/>
<polyline clip-path="url(#clip102)" style="stroke:#000000; stroke-linecap:round; stroke-linejoin:round; stroke-width:2; stroke-opacity:0.1; fill:none" points="1537.64,1486.45 1537.64,47.2441 "/>
<polyline clip-path="url(#clip102)" style="stroke:#000000; stroke-linecap:round; stroke-linejoin:round; stroke-width:2; stroke-opacity:0.1; fill:none" points="1916.76,1486.45 1916.76,47.2441 "/>
<polyline clip-path="url(#clip102)" style="stroke:#000000; stroke-linecap:round; stroke-linejoin:round; stroke-width:2; stroke-opacity:0.1; fill:none" points="2295.89,1486.45 2295.89,47.2441 "/>
<polyline clip-path="url(#clip100)" style="stroke:#000000; stroke-linecap:round; stroke-linejoin:round; stroke-width:4; stroke-opacity:1; fill:none" points="343.39,1486.45 2352.76,1486.45 "/>
<polyline clip-path="url(#clip100)" style="stroke:#000000; stroke-linecap:round; stroke-linejoin:round; stroke-width:4; stroke-opacity:1; fill:none" points="400.259,1486.45 400.259,1467.55 "/>
<polyline clip-path="url(#clip100)" style="stroke:#000000; stroke-linecap:round; stroke-linejoin:round; stroke-width:4; stroke-opacity:1; fill:none" points="779.384,1486.45 779.384,1467.55 "/>
<polyline clip-path="url(#clip100)" style="stroke:#000000; stroke-linecap:round; stroke-linejoin:round; stroke-width:4; stroke-opacity:1; fill:none" points="1158.51,1486.45 1158.51,1467.55 "/>
<polyline clip-path="url(#clip100)" style="stroke:#000000; stroke-linecap:round; stroke-linejoin:round; stroke-width:4; stroke-opacity:1; fill:none" points="1537.64,1486.45 1537.64,1467.55 "/>
<polyline clip-path="url(#clip100)" style="stroke:#000000; stroke-linecap:round; stroke-linejoin:round; stroke-width:4; stroke-opacity:1; fill:none" points="1916.76,1486.45 1916.76,1467.55 "/>
<polyline clip-path="url(#clip100)" style="stroke:#000000; stroke-linecap:round; stroke-linejoin:round; stroke-width:4; stroke-opacity:1; fill:none" points="2295.89,1486.45 2295.89,1467.55 "/>
<path clip-path="url(#clip100)" d="M400.259 1517.37 Q396.648 1517.37 394.819 1520.93 Q393.013 1524.47 393.013 1531.6 Q393.013 1538.71 394.819 1542.27 Q396.648 1545.82 400.259 1545.82 Q403.893 1545.82 405.698 1542.27 Q407.527 1538.71 407.527 1531.6 Q407.527 1524.47 405.698 1520.93 Q403.893 1517.37 400.259 1517.37 M400.259 1513.66 Q406.069 1513.66 409.124 1518.27 Q412.203 1522.85 412.203 1531.6 Q412.203 1540.33 409.124 1544.94 Q406.069 1549.52 400.259 1549.52 Q394.448 1549.52 391.37 1544.94 Q388.314 1540.33 388.314 1531.6 Q388.314 1522.85 391.37 1518.27 Q394.448 1513.66 400.259 1513.66 Z" fill="#000000" fill-rule="nonzero" fill-opacity="1" /><path clip-path="url(#clip100)" d="M769.766 1544.91 L777.405 1544.91 L777.405 1518.55 L769.095 1520.21 L769.095 1515.95 L777.359 1514.29 L782.035 1514.29 L782.035 1544.91 L789.674 1544.91 L789.674 1548.85 L769.766 1548.85 L769.766 1544.91 Z" fill="#000000" fill-rule="nonzero" fill-opacity="1" /><path clip-path="url(#clip100)" d="M1153.16 1544.91 L1169.48 1544.91 L1169.48 1548.85 L1147.54 1548.85 L1147.54 1544.91 Q1150.2 1542.16 1154.78 1537.53 Q1159.39 1532.88 1160.57 1531.53 Q1162.82 1529.01 1163.7 1527.27 Q1164.6 1525.51 1164.6 1523.82 Q1164.6 1521.07 1162.65 1519.33 Q1160.73 1517.6 1157.63 1517.6 Q1155.43 1517.6 1152.98 1518.36 Q1150.55 1519.13 1147.77 1520.68 L1147.77 1515.95 Q1150.59 1514.82 1153.05 1514.24 Q1155.5 1513.66 1157.54 1513.66 Q1162.91 1513.66 1166.1 1516.35 Q1169.3 1519.03 1169.3 1523.52 Q1169.3 1525.65 1168.49 1527.57 Q1167.7 1529.47 1165.59 1532.07 Q1165.01 1532.74 1161.91 1535.95 Q1158.81 1539.15 1153.16 1544.91 Z" fill="#000000" fill-rule="nonzero" fill-opacity="1" /><path clip-path="url(#clip100)" d="M1541.88 1530.21 Q1545.24 1530.93 1547.11 1533.2 Q1549.01 1535.47 1549.01 1538.8 Q1549.01 1543.92 1545.49 1546.72 Q1541.98 1549.52 1535.49 1549.52 Q1533.32 1549.52 1531 1549.08 Q1528.71 1548.66 1526.26 1547.81 L1526.26 1543.29 Q1528.2 1544.43 1530.52 1545.01 Q1532.83 1545.58 1535.36 1545.58 Q1539.75 1545.58 1542.05 1543.85 Q1544.36 1542.11 1544.36 1538.8 Q1544.36 1535.75 1542.21 1534.03 Q1540.08 1532.3 1536.26 1532.3 L1532.23 1532.3 L1532.23 1528.45 L1536.44 1528.45 Q1539.89 1528.45 1541.72 1527.09 Q1543.55 1525.7 1543.55 1523.11 Q1543.55 1520.45 1541.65 1519.03 Q1539.78 1517.6 1536.26 1517.6 Q1534.34 1517.6 1532.14 1518.01 Q1529.94 1518.43 1527.3 1519.31 L1527.3 1515.14 Q1529.96 1514.4 1532.28 1514.03 Q1534.61 1513.66 1536.68 1513.66 Q1542 1513.66 1545.1 1516.09 Q1548.2 1518.5 1548.2 1522.62 Q1548.2 1525.49 1546.56 1527.48 Q1544.92 1529.45 1541.88 1530.21 Z" fill="#000000" fill-rule="nonzero" fill-opacity="1" /><path clip-path="url(#clip100)" d="M1919.77 1518.36 L1907.97 1536.81 L1919.77 1536.81 L1919.77 1518.36 M1918.54 1514.29 L1924.42 1514.29 L1924.42 1536.81 L1929.35 1536.81 L1929.35 1540.7 L1924.42 1540.7 L1924.42 1548.85 L1919.77 1548.85 L1919.77 1540.7 L1904.17 1540.7 L1904.17 1536.19 L1918.54 1514.29 Z" fill="#000000" fill-rule="nonzero" fill-opacity="1" /><path clip-path="url(#clip100)" d="M2286.16 1514.29 L2304.52 1514.29 L2304.52 1518.22 L2290.45 1518.22 L2290.45 1526.7 Q2291.47 1526.35 2292.48 1526.19 Q2293.5 1526 2294.52 1526 Q2300.31 1526 2303.69 1529.17 Q2307.07 1532.34 2307.07 1537.76 Q2307.07 1543.34 2303.6 1546.44 Q2300.12 1549.52 2293.8 1549.52 Q2291.63 1549.52 2289.36 1549.15 Q2287.11 1548.78 2284.71 1548.04 L2284.71 1543.34 Q2286.79 1544.47 2289.01 1545.03 Q2291.23 1545.58 2293.71 1545.58 Q2297.72 1545.58 2300.05 1543.48 Q2302.39 1541.37 2302.39 1537.76 Q2302.39 1534.15 2300.05 1532.04 Q2297.72 1529.94 2293.71 1529.94 Q2291.84 1529.94 2289.96 1530.35 Q2288.11 1530.77 2286.16 1531.65 L2286.16 1514.29 Z" fill="#000000" fill-rule="nonzero" fill-opacity="1" /><polyline clip-path="url(#clip102)" style="stroke:#000000; stroke-linecap:round; stroke-linejoin:round; stroke-width:2; stroke-opacity:0.1; fill:none" points="343.39,1326.8 2352.76,1326.8 "/>
<polyline clip-path="url(#clip102)" style="stroke:#000000; stroke-linecap:round; stroke-linejoin:round; stroke-width:2; stroke-opacity:0.1; fill:none" points="343.39,1033.22 2352.76,1033.22 "/>
<polyline clip-path="url(#clip102)" style="stroke:#000000; stroke-linecap:round; stroke-linejoin:round; stroke-width:2; stroke-opacity:0.1; fill:none" points="343.39,739.65 2352.76,739.65 "/>
<polyline clip-path="url(#clip102)" style="stroke:#000000; stroke-linecap:round; stroke-linejoin:round; stroke-width:2; stroke-opacity:0.1; fill:none" points="343.39,446.075 2352.76,446.075 "/>
<polyline clip-path="url(#clip102)" style="stroke:#000000; stroke-linecap:round; stroke-linejoin:round; stroke-width:2; stroke-opacity:0.1; fill:none" points="343.39,152.501 2352.76,152.501 "/>
<polyline clip-path="url(#clip100)" style="stroke:#000000; stroke-linecap:round; stroke-linejoin:round; stroke-width:4; stroke-opacity:1; fill:none" points="343.39,1486.45 343.39,47.2441 "/>
<polyline clip-path="url(#clip100)" style="stroke:#000000; stroke-linecap:round; stroke-linejoin:round; stroke-width:4; stroke-opacity:1; fill:none" points="343.39,1326.8 362.287,1326.8 "/>
<polyline clip-path="url(#clip100)" style="stroke:#000000; stroke-linecap:round; stroke-linejoin:round; stroke-width:4; stroke-opacity:1; fill:none" points="343.39,1033.22 362.287,1033.22 "/>
<polyline clip-path="url(#clip100)" style="stroke:#000000; stroke-linecap:round; stroke-linejoin:round; stroke-width:4; stroke-opacity:1; fill:none" points="343.39,739.65 362.287,739.65 "/>
<polyline clip-path="url(#clip100)" style="stroke:#000000; stroke-linecap:round; stroke-linejoin:round; stroke-width:4; stroke-opacity:1; fill:none" points="343.39,446.075 362.287,446.075 "/>
<polyline clip-path="url(#clip100)" style="stroke:#000000; stroke-linecap:round; stroke-linejoin:round; stroke-width:4; stroke-opacity:1; fill:none" points="343.39,152.501 362.287,152.501 "/>
<path clip-path="url(#clip100)" d="M50.9921 1333.7 L80.6679 1333.7 L80.6679 1337.63 L50.9921 1337.63 L50.9921 1333.7 Z" fill="#000000" fill-rule="nonzero" fill-opacity="1" /><path clip-path="url(#clip100)" d="M94.7882 1346.59 L111.108 1346.59 L111.108 1350.53 L89.1632 1350.53 L89.1632 1346.59 Q91.8252 1343.84 96.4085 1339.21 Q101.015 1334.55 102.196 1333.21 Q104.441 1330.69 105.321 1328.95 Q106.223 1327.19 106.223 1325.5 Q106.223 1322.75 104.279 1321.01 Q102.358 1319.28 99.2558 1319.28 Q97.0567 1319.28 94.603 1320.04 Q92.1725 1320.8 89.3947 1322.36 L89.3947 1317.63 Q92.2188 1316.5 94.6724 1315.92 Q97.1261 1315.34 99.1632 1315.34 Q104.534 1315.34 107.728 1318.03 Q110.922 1320.71 110.922 1325.2 Q110.922 1327.33 110.112 1329.25 Q109.325 1331.15 107.219 1333.74 Q106.64 1334.42 103.538 1337.63 Q100.436 1340.83 94.7882 1346.59 Z" fill="#000000" fill-rule="nonzero" fill-opacity="1" /><path clip-path="url(#clip100)" d="M120.922 1344.65 L125.807 1344.65 L125.807 1350.53 L120.922 1350.53 L120.922 1344.65 Z" fill="#000000" fill-rule="nonzero" fill-opacity="1" /><path clip-path="url(#clip100)" d="M145.992 1319.04 Q142.381 1319.04 140.552 1322.61 Q138.746 1326.15 138.746 1333.28 Q138.746 1340.39 140.552 1343.95 Q142.381 1347.49 145.992 1347.49 Q149.626 1347.49 151.431 1343.95 Q153.26 1340.39 153.26 1333.28 Q153.26 1326.15 151.431 1322.61 Q149.626 1319.04 145.992 1319.04 M145.992 1315.34 Q151.802 1315.34 154.857 1319.95 Q157.936 1324.53 157.936 1333.28 Q157.936 1342.01 154.857 1346.61 Q151.802 1351.2 145.992 1351.2 Q140.181 1351.2 137.103 1346.61 Q134.047 1342.01 134.047 1333.28 Q134.047 1324.53 137.103 1319.95 Q140.181 1315.34 145.992 1315.34 Z" fill="#000000" fill-rule="nonzero" fill-opacity="1" /><path clip-path="url(#clip100)" d="M194.325 1325.06 L183.746 1335.69 L194.325 1346.27 L191.57 1349.07 L180.945 1338.44 L170.32 1349.07 L167.589 1346.27 L178.144 1335.69 L167.589 1325.06 L170.32 1322.26 L180.945 1332.89 L191.57 1322.26 L194.325 1325.06 Z" fill="#000000" fill-rule="nonzero" fill-opacity="1" /><path clip-path="url(#clip100)" d="M206.686 1346.59 L214.325 1346.59 L214.325 1320.23 L206.014 1321.89 L206.014 1317.63 L214.278 1315.97 L218.954 1315.97 L218.954 1346.59 L226.593 1346.59 L226.593 1350.53 L206.686 1350.53 L206.686 1346.59 Z" fill="#000000" fill-rule="nonzero" fill-opacity="1" /><path clip-path="url(#clip100)" d="M246.037 1319.04 Q242.426 1319.04 240.598 1322.61 Q238.792 1326.15 238.792 1333.28 Q238.792 1340.39 240.598 1343.95 Q242.426 1347.49 246.037 1347.49 Q249.672 1347.49 251.477 1343.95 Q253.306 1340.39 253.306 1333.28 Q253.306 1326.15 251.477 1322.61 Q249.672 1319.04 246.037 1319.04 M246.037 1315.34 Q251.848 1315.34 254.903 1319.95 Q257.982 1324.53 257.982 1333.28 Q257.982 1342.01 254.903 1346.61 Q251.848 1351.2 246.037 1351.2 Q240.227 1351.2 237.149 1346.61 Q234.093 1342.01 234.093 1333.28 Q234.093 1324.53 237.149 1319.95 Q240.227 1315.34 246.037 1315.34 Z" fill="#000000" fill-rule="nonzero" fill-opacity="1" /><path clip-path="url(#clip100)" d="M257.982 1309.44 L282.093 1309.44 L282.093 1312.64 L257.982 1312.64 L257.982 1309.44 Z" fill="#000000" fill-rule="nonzero" fill-opacity="1" /><path clip-path="url(#clip100)" d="M289.334 1295.04 L307.39 1295.04 L307.39 1296.65 L297.196 1323.12 L293.228 1323.12 L302.819 1298.23 L289.334 1298.23 L289.334 1295.04 Z" fill="#000000" fill-rule="nonzero" fill-opacity="1" /><path clip-path="url(#clip100)" d="M50.9921 1040.12 L80.6679 1040.12 L80.6679 1044.06 L50.9921 1044.06 L50.9921 1040.12 Z" fill="#000000" fill-rule="nonzero" fill-opacity="1" /><path clip-path="url(#clip100)" d="M91.5706 1053.02 L99.2095 1053.02 L99.2095 1026.65 L90.8993 1028.32 L90.8993 1024.06 L99.1632 1022.39 L103.839 1022.39 L103.839 1053.02 L111.478 1053.02 L111.478 1056.95 L91.5706 1056.95 L91.5706 1053.02 Z" fill="#000000" fill-rule="nonzero" fill-opacity="1" /><path clip-path="url(#clip100)" d="M120.922 1051.07 L125.807 1051.07 L125.807 1056.95 L120.922 1056.95 L120.922 1051.07 Z" fill="#000000" fill-rule="nonzero" fill-opacity="1" /><path clip-path="url(#clip100)" d="M145.992 1025.47 Q142.381 1025.47 140.552 1029.04 Q138.746 1032.58 138.746 1039.71 Q138.746 1046.81 140.552 1050.38 Q142.381 1053.92 145.992 1053.92 Q149.626 1053.92 151.431 1050.38 Q153.26 1046.81 153.26 1039.71 Q153.26 1032.58 151.431 1029.04 Q149.626 1025.47 145.992 1025.47 M145.992 1021.77 Q151.802 1021.77 154.857 1026.37 Q157.936 1030.96 157.936 1039.71 Q157.936 1048.43 154.857 1053.04 Q151.802 1057.62 145.992 1057.62 Q140.181 1057.62 137.103 1053.04 Q134.047 1048.43 134.047 1039.71 Q134.047 1030.96 137.103 1026.37 Q140.181 1021.77 145.992 1021.77 Z" fill="#000000" fill-rule="nonzero" fill-opacity="1" /><path clip-path="url(#clip100)" d="M194.325 1031.49 L183.746 1042.11 L194.325 1052.69 L191.57 1055.49 L180.945 1044.87 L170.32 1055.49 L167.589 1052.69 L178.144 1042.11 L167.589 1031.49 L170.32 1028.69 L180.945 1039.31 L191.57 1028.69 L194.325 1031.49 Z" fill="#000000" fill-rule="nonzero" fill-opacity="1" /><path clip-path="url(#clip100)" d="M206.686 1053.02 L214.325 1053.02 L214.325 1026.65 L206.014 1028.32 L206.014 1024.06 L214.278 1022.39 L218.954 1022.39 L218.954 1053.02 L226.593 1053.02 L226.593 1056.95 L206.686 1056.95 L206.686 1053.02 Z" fill="#000000" fill-rule="nonzero" fill-opacity="1" /><path clip-path="url(#clip100)" d="M246.037 1025.47 Q242.426 1025.47 240.598 1029.04 Q238.792 1032.58 238.792 1039.71 Q238.792 1046.81 240.598 1050.38 Q242.426 1053.92 246.037 1053.92 Q249.672 1053.92 251.477 1050.38 Q253.306 1046.81 253.306 1039.71 Q253.306 1032.58 251.477 1029.04 Q249.672 1025.47 246.037 1025.47 M246.037 1021.77 Q251.848 1021.77 254.903 1026.37 Q257.982 1030.96 257.982 1039.71 Q257.982 1048.43 254.903 1053.04 Q251.848 1057.62 246.037 1057.62 Q240.227 1057.62 237.149 1053.04 Q234.093 1048.43 234.093 1039.71 Q234.093 1030.96 237.149 1026.37 Q240.227 1021.77 246.037 1021.77 Z" fill="#000000" fill-rule="nonzero" fill-opacity="1" /><path clip-path="url(#clip100)" d="M257.982 1015.87 L282.093 1015.87 L282.093 1019.07 L257.982 1019.07 L257.982 1015.87 Z" fill="#000000" fill-rule="nonzero" fill-opacity="1" /><path clip-path="url(#clip100)" d="M289.334 1001.46 L307.39 1001.46 L307.39 1003.08 L297.196 1029.54 L293.228 1029.54 L302.819 1004.66 L289.334 1004.66 L289.334 1001.46 Z" fill="#000000" fill-rule="nonzero" fill-opacity="1" /><path clip-path="url(#clip100)" d="M295.445 725.448 Q291.834 725.448 290.006 729.013 Q288.2 732.555 288.2 739.684 Q288.2 746.791 290.006 750.356 Q291.834 753.897 295.445 753.897 Q299.08 753.897 300.885 750.356 Q302.714 746.791 302.714 739.684 Q302.714 732.555 300.885 729.013 Q299.08 725.448 295.445 725.448 M295.445 721.745 Q301.256 721.745 304.311 726.351 Q307.39 730.934 307.39 739.684 Q307.39 748.411 304.311 753.018 Q301.256 757.601 295.445 757.601 Q289.635 757.601 286.557 753.018 Q283.501 748.411 283.501 739.684 Q283.501 730.934 286.557 726.351 Q289.635 721.745 295.445 721.745 Z" fill="#000000" fill-rule="nonzero" fill-opacity="1" /><path clip-path="url(#clip100)" d="M91.5706 465.868 L99.2095 465.868 L99.2095 439.502 L90.8993 441.169 L90.8993 436.909 L99.1632 435.243 L103.839 435.243 L103.839 465.868 L111.478 465.868 L111.478 469.803 L91.5706 469.803 L91.5706 465.868 Z" fill="#000000" fill-rule="nonzero" fill-opacity="1" /><path clip-path="url(#clip100)" d="M120.922 463.923 L125.807 463.923 L125.807 469.803 L120.922 469.803 L120.922 463.923 Z" fill="#000000" fill-rule="nonzero" fill-opacity="1" /><path clip-path="url(#clip100)" d="M145.992 438.321 Q142.381 438.321 140.552 441.886 Q138.746 445.428 138.746 452.557 Q138.746 459.664 140.552 463.229 Q142.381 466.77 145.992 466.77 Q149.626 466.77 151.431 463.229 Q153.26 459.664 153.26 452.557 Q153.26 445.428 151.431 441.886 Q149.626 438.321 145.992 438.321 M145.992 434.618 Q151.802 434.618 154.857 439.224 Q157.936 443.808 157.936 452.557 Q157.936 461.284 154.857 465.891 Q151.802 470.474 145.992 470.474 Q140.181 470.474 137.103 465.891 Q134.047 461.284 134.047 452.557 Q134.047 443.808 137.103 439.224 Q140.181 434.618 145.992 434.618 Z" fill="#000000" fill-rule="nonzero" fill-opacity="1" /><path clip-path="url(#clip100)" d="M194.325 444.34 L183.746 454.965 L194.325 465.543 L191.57 468.344 L180.945 457.719 L170.32 468.344 L167.589 465.543 L178.144 454.965 L167.589 444.34 L170.32 441.539 L180.945 452.164 L191.57 441.539 L194.325 444.34 Z" fill="#000000" fill-rule="nonzero" fill-opacity="1" /><path clip-path="url(#clip100)" d="M206.686 465.868 L214.325 465.868 L214.325 439.502 L206.014 441.169 L206.014 436.909 L214.278 435.243 L218.954 435.243 L218.954 465.868 L226.593 465.868 L226.593 469.803 L206.686 469.803 L206.686 465.868 Z" fill="#000000" fill-rule="nonzero" fill-opacity="1" /><path clip-path="url(#clip100)" d="M246.037 438.321 Q242.426 438.321 240.598 441.886 Q238.792 445.428 238.792 452.557 Q238.792 459.664 240.598 463.229 Q242.426 466.77 246.037 466.77 Q249.672 466.77 251.477 463.229 Q253.306 459.664 253.306 452.557 Q253.306 445.428 251.477 441.886 Q249.672 438.321 246.037 438.321 M246.037 434.618 Q251.848 434.618 254.903 439.224 Q257.982 443.808 257.982 452.557 Q257.982 461.284 254.903 465.891 Q251.848 470.474 246.037 470.474 Q240.227 470.474 237.149 465.891 Q234.093 461.284 234.093 452.557 Q234.093 443.808 237.149 439.224 Q240.227 434.618 246.037 434.618 Z" fill="#000000" fill-rule="nonzero" fill-opacity="1" /><path clip-path="url(#clip100)" d="M257.982 428.719 L282.093 428.719 L282.093 431.916 L257.982 431.916 L257.982 428.719 Z" fill="#000000" fill-rule="nonzero" fill-opacity="1" /><path clip-path="url(#clip100)" d="M289.334 414.312 L307.39 414.312 L307.39 415.93 L297.196 442.392 L293.228 442.392 L302.819 417.51 L289.334 417.51 L289.334 414.312 Z" fill="#000000" fill-rule="nonzero" fill-opacity="1" /><path clip-path="url(#clip100)" d="M94.7882 172.293 L111.108 172.293 L111.108 176.228 L89.1632 176.228 L89.1632 172.293 Q91.8252 169.538 96.4085 164.909 Q101.015 160.256 102.196 158.914 Q104.441 156.39 105.321 154.654 Q106.223 152.895 106.223 151.205 Q106.223 148.451 104.279 146.715 Q102.358 144.978 99.2558 144.978 Q97.0567 144.978 94.603 145.742 Q92.1725 146.506 89.3947 148.057 L89.3947 143.335 Q92.2188 142.201 94.6724 141.622 Q97.1261 141.043 99.1632 141.043 Q104.534 141.043 107.728 143.728 Q110.922 146.414 110.922 150.904 Q110.922 153.034 110.112 154.955 Q109.325 156.853 107.219 159.446 Q106.64 160.117 103.538 163.335 Q100.436 166.529 94.7882 172.293 Z" fill="#000000" fill-rule="nonzero" fill-opacity="1" /><path clip-path="url(#clip100)" d="M120.922 170.349 L125.807 170.349 L125.807 176.228 L120.922 176.228 L120.922 170.349 Z" fill="#000000" fill-rule="nonzero" fill-opacity="1" /><path clip-path="url(#clip100)" d="M145.992 144.747 Q142.381 144.747 140.552 148.312 Q138.746 151.853 138.746 158.983 Q138.746 166.089 140.552 169.654 Q142.381 173.196 145.992 173.196 Q149.626 173.196 151.431 169.654 Q153.26 166.089 153.26 158.983 Q153.26 151.853 151.431 148.312 Q149.626 144.747 145.992 144.747 M145.992 141.043 Q151.802 141.043 154.857 145.65 Q157.936 150.233 157.936 158.983 Q157.936 167.71 154.857 172.316 Q151.802 176.9 145.992 176.9 Q140.181 176.9 137.103 172.316 Q134.047 167.71 134.047 158.983 Q134.047 150.233 137.103 145.65 Q140.181 141.043 145.992 141.043 Z" fill="#000000" fill-rule="nonzero" fill-opacity="1" /><path clip-path="url(#clip100)" d="M194.325 150.765 L183.746 161.39 L194.325 171.969 L191.57 174.77 L180.945 164.145 L170.32 174.77 L167.589 171.969 L178.144 161.39 L167.589 150.765 L170.32 147.964 L180.945 158.589 L191.57 147.964 L194.325 150.765 Z" fill="#000000" fill-rule="nonzero" fill-opacity="1" /><path clip-path="url(#clip100)" d="M206.686 172.293 L214.325 172.293 L214.325 145.927 L206.014 147.594 L206.014 143.335 L214.278 141.668 L218.954 141.668 L218.954 172.293 L226.593 172.293 L226.593 176.228 L206.686 176.228 L206.686 172.293 Z" fill="#000000" fill-rule="nonzero" fill-opacity="1" /><path clip-path="url(#clip100)" d="M246.037 144.747 Q242.426 144.747 240.598 148.312 Q238.792 151.853 238.792 158.983 Q238.792 166.089 240.598 169.654 Q242.426 173.196 246.037 173.196 Q249.672 173.196 251.477 169.654 Q253.306 166.089 253.306 158.983 Q253.306 151.853 251.477 148.312 Q249.672 144.747 246.037 144.747 M246.037 141.043 Q251.848 141.043 254.903 145.65 Q257.982 150.233 257.982 158.983 Q257.982 167.71 254.903 172.316 Q251.848 176.9 246.037 176.9 Q240.227 176.9 237.149 172.316 Q234.093 167.71 234.093 158.983 Q234.093 150.233 237.149 145.65 Q240.227 141.043 246.037 141.043 Z" fill="#000000" fill-rule="nonzero" fill-opacity="1" /><path clip-path="url(#clip100)" d="M257.982 135.145 L282.093 135.145 L282.093 138.342 L257.982 138.342 L257.982 135.145 Z" fill="#000000" fill-rule="nonzero" fill-opacity="1" /><path clip-path="url(#clip100)" d="M289.334 120.738 L307.39 120.738 L307.39 122.355 L297.196 148.818 L293.228 148.818 L302.819 123.935 L289.334 123.935 L289.334 120.738 Z" fill="#000000" fill-rule="nonzero" fill-opacity="1" /><polyline clip-path="url(#clip102)" style="stroke:#009af9; stroke-linecap:round; stroke-linejoin:round; stroke-width:4; stroke-opacity:1; fill:none" points="400.259,739.65 401.03,731.383 401.801,710.879 402.573,683.961 403.344,655.594 403.73,642.179 404.115,629.864 404.501,619.019 404.887,609.956 405.272,602.925 405.658,598.121 406.044,595.676 406.429,595.662 406.815,598.086 407.201,602.897 407.586,609.978 407.972,619.147 408.358,630.159 408.743,642.701 409.129,656.396 409.515,670.797 409.9,685.391 410.286,699.594 410.672,712.755 411.058,724.151 411.25,728.941 411.443,732.987 411.636,736.178 411.829,738.399 412.022,739.529 412.215,739.396 412.407,737.748 412.6,734.698 413.492,706.424 414.383,664.232 415.275,619.05 416.166,579.564 417.058,552.164 417.949,540.898 418.841,547.418 419.732,570.934 420.624,608.159 421.515,653.26 422.407,697.814 423.299,730.748 424.19,738.14 425.082,710.212 425.973,660.054 426.865,602.456 427.756,549.316 428.648,509.588 429.539,489.236 430.431,491.186 431.322,515.273 432.214,558.194 433.105,613.461 433.997,671.35 434.888,718.855 435.78,739.636 436.671,717.451 437.563,662.611 438.455,594.043 439.346,527.154 440.238,473.775 441.129,442.122 442.021,436.743 442.912,458.471 443.804,504.38 444.695,567.735 445.587,637.946 446.478,700.523 447.37,737.026 448.261,726.23 449.153,670.855 450.044,593.573 450.936,513.551 451.827,445.781 452.719,401.03 453.611,385.795 454.502,402.262 455.394,448.254 456.285,517.193 457.177,598.051 458.068,675.308 458.96,728.905 459.851,734.311 460.743,683.364 461.634,600.425 462.526,508.632 463.417,426.372 464.309,367.229 465.2,339.95 466.092,348.392 466.983,391.488 467.875,463.202 468.767,552.485 469.658,643.235 470.55,714.255 471.441,739.19 472.333,698.376 473.224,613.607 474.116,512.155 475.007,415.989 475.899,341.738 476.79,300.651 477.682,298.557 478.573,335.825 479.465,407.324 480.356,502.385 481.248,604.761 482.139,692.589 483.031,738.352 483.923,713.835 484.814,631.78 485.706,523.513 486.597,414.728 487.489,325.277 488.38,269.13 489.272,254.341 490.163,283.01 491.055,351.251 491.946,449.149 492.838,560.73 493.729,663.923 494.621,730.527 495.512,727.468 496.404,653.292 497.295,541.745 498.187,422.33 499.078,318.246 499.97,246.355 500.862,217.151 501.753,234.725 502.645,296.734 503.536,394.366 504.428,512.313 505.319,628.733 506.211,715.223 507.102,736.854 507.994,676.233 508.885,565.563 509.777,438.178 510.668,320.697 511.56,232.995 512.451,188.171 513.343,192.522 514.234,245.513 515.126,339.749 516.018,460.944 516.909,587.898 517.801,692.466 518.692,739.531 519.584,698.507 520.475,593.396 521.367,461.321 522.258,332.336 523.15,229.392 524.041,168.314 524.933,157.77 525.824,199.254 526.716,287.058 527.252,357.013 527.787,435.099 528.323,516.301 528.859,594.659 529.395,663.257 529.931,714.229 530.466,738.755 531.002,728.365 531.538,686.402 532.074,622.287 532.609,544.547 533.145,460.746 533.681,377.481 534.217,300.384 534.752,234.12 535.288,182.381 535.824,147.892 536.36,132.4 536.896,136.681 537.431,160.533 537.967,202.778 538.503,261.257 539.039,332.83 539.574,413.378 540.11,497.793 540.646,579.987 541.182,652.882 541.717,708.412 542.253,737.524 542.789,731.044 543.325,690.933 543.861,626.914 544.396,547.901 544.932,461.814 545.468,375.574 546.004,295.103 546.539,225.321 547.075,170.15 547.611,132.507 548.147,114.305 548.683,116.452 549.218,138.85 549.754,180.391 550.29,238.963 550.826,311.439 551.361,393.683 551.897,480.547 552.433,565.87 552.969,642.474 553.504,702.17 554.04,735.747 554.576,733.513 555.112,695.88 555.648,632.706 556.183,553.228 556.719,465.663 557.255,377.204 557.791,294.022 558.326,221.262 558.862,163.046 559.398,122.469 559.934,101.597 560.47,101.471 561.005,122.101 561.541,162.47 562.077,220.528 562.613,293.196 563.148,376.362 563.684,464.883 564.22,552.579 564.756,632.241 565.291,695.622 565.827,733.44 566.363,735.665 566.899,701.074 567.435,639.463 567.97,560.322 568.506,472.101 569.042,382.215 569.578,297.034 570.113,221.892 570.649,161.081 571.185,117.852 571.721,94.4132 572.256,91.9327 572.792,110.535 573.328,149.301 573.864,206.27 574.4,278.435 574.935,361.748 575.471,451.114 576.007,540.393 576.543,622.402 577.078,688.911 577.614,730.645 578.15,737.41 578.686,706.351 579.222,646.978 579.757,568.96 580.293,480.915 580.829,390.415 581.365,303.987 581.9,227.109 582.436,164.209 582.972,118.672 583.508,92.8322 584.043,87.9763 584.579,104.344 585.115,141.125 585.651,196.465 586.187,267.458 586.722,350.151 587.258,439.544 587.794,529.588 588.33,613.187 588.865,682.198 589.401,727.428 589.937,738.68 590.473,711.557 591.008,655.045 591.544,578.908 592.08,491.863 592.616,401.581 593.152,314.688 593.687,236.76 594.223,172.332 594.759,124.889 595.295,96.8735 595.748,89.4066 596.201,97.1048 596.654,119.696 597.107,156.374 597.56,205.801 598.013,266.103 598.466,334.875 598.919,409.181 599.372,485.547 599.825,559.973 600.278,627.921 600.731,684.325 601.184,723.585 601.636,739.571 602.089,727.592 602.542,691.652 602.995,637.909 603.448,571.991 603.901,498.996 604.354,423.493 604.807,349.518 605.26,280.58 605.713,219.657 606.166,169.201 606.619,131.132 607.072,106.844 607.525,97.1998 607.978,102.538 608.431,122.668 608.884,156.871 609.337,203.904 609.79,261.996 610.243,328.85 610.696,401.643 611.149,477.026 611.602,551.128 612.055,619.549 612.508,677.368 612.961,719.139 613.414,738.893 613.867,731.335 614.32,699.319 614.773,648.954 615.226,585.842 615.679,515.063 616.132,441.176 616.585,368.22 617.038,299.713 617.491,238.654 617.944,187.523 618.397,148.279 618.85,122.366 619.303,110.708 619.756,113.711 620.209,131.267 620.662,162.749 621.115,207.016 621.568,262.409 622.021,326.757 622.474,397.373 622.927,471.057 623.38,544.095 623.833,612.26 624.286,670.815 624.739,714.508 625.192,737.578 625.645,734.412 626.098,706.575 626.551,660.028 627.004,600.295 627.457,532.393 627.91,460.831 628.363,389.609 628.816,322.224 629.269,261.665 629.722,210.417 630.175,170.459 630.628,143.266 631.081,129.813 631.534,130.567 631.987,145.499 632.44,174.073 632.893,215.256 633.346,267.514 633.799,328.814 634.252,396.623 634.705,467.911 635.158,539.152 635.611,606.321 636.064,664.899 636.517,709.871 636.97,735.728 637.423,736.777 637.876,713.274 638.329,670.903 638.782,615.062 639.235,550.655 639.688,482.098 640.14,413.316 640.593,347.748 641.046,288.343 641.499,237.565 641.952,197.391 642.405,169.312 642.858,154.335 643.311,152.985 643.764,165.301 644.217,190.843 644.67,228.687 645.123,277.43 645.576,335.189 646.029,399.602 646.482,467.831 646.935,536.558 647.388,601.991 647.841,659.862 648.294,705.427 648.747,733.47 649.2,738.416 649.653,719.295 650.106,681.373 650.559,629.865 651.012,569.518 651.465,504.61 651.918,438.953 652.371,375.89 652.824,318.302 653.277,268.602 653.769,225.817 654.261,196.516 654.753,181.941 655.245,182.689 655.738,198.718 656.23,229.35 656.722,273.267 657.214,328.516 657.706,392.513 658.198,462.039 658.69,533.244 659.182,601.649 659.674,662.148 660.166,709.009 660.658,735.873 661.15,736.238 661.642,710.998 662.134,666.735 662.627,609.546 663.119,544.912 663.611,477.7 664.103,412.161 664.595,351.935 665.087,300.053 665.579,258.935 666.071,230.395 666.563,215.642 667.055,215.282 667.547,229.316 668.039,257.148 668.531,297.581 669.023,348.823 669.516,408.485 670.008,473.585 670.5,540.549 670.992,605.215 671.484,662.83 671.976,708.056 672.468,734.97 672.96,737.377 673.452,715.538 673.944,675.567 674.436,623.179 674.928,563.516 675.42,501.143 675.912,440.054 676.405,383.674 676.897,334.856 677.389,295.891 677.881,268.502 678.373,253.851 678.865,252.536 679.357,264.6 679.849,289.525 680.341,326.242 680.833,373.124 681.325,427.995 681.817,488.13 682.309,550.255 682.801,610.55 683.294,664.654 683.786,707.661 684.278,734.127 684.77,738.26 685.262,719.784 685.754,684.294 686.246,637.069 686.738,582.856 687.23,525.876 687.722,469.824 688.214,417.869 688.706,372.663 689.198,336.333 689.69,310.492 690.183,296.236 690.675,294.149 691.167,304.302 691.659,326.257 692.151,359.071 692.643,401.292 693.135,450.969 693.627,505.648 694.119,562.376 694.611,617.706 695.103,667.692 695.595,707.901 696.087,733.406 696.579,738.899 697.072,723.684 697.564,692.802 698.056,651.038 698.548,602.7 699.04,551.617 699.532,501.145 700.024,454.168 700.516,413.096 701.008,379.874 701.5,355.981 701.992,342.43 702.484,339.776 702.976,348.112 703.468,367.075 703.961,395.849 704.453,433.162 704.945,477.295 705.437,526.081 705.929,576.906 706.421,626.714 706.913,672.008 707.405,708.852 707.897,732.875 708.389,739.319 708.881,727.201 709.373,700.986 709.865,664.918 710.358,622.817 710.85,578.08 711.342,533.688 711.834,492.199 712.326,455.76 712.818,426.105 713.31,404.556 713.802,392.029 714.294,389.034 714.786,395.679 715.278,411.669 715.77,436.314 716.262,468.525 716.716,503.654 717.17,542.506 717.623,583.346 718.077,624.16 718.531,662.658 718.984,696.27 719.438,722.158 719.892,737.207 720.345,738.322 720.799,726.505 721.252,704.938 721.706,676.436 722.16,643.547 722.613,608.556 723.067,573.492 723.521,540.118 723.974,509.946 724.428,484.229 724.882,463.965 725.335,449.903 725.789,442.539 726.243,442.12 726.696,448.647 727.15,461.875 727.604,481.314 728.057,506.235 728.511,535.665 728.964,568.394 729.418,602.976 729.872,637.728 730.325,670.734 730.779,699.848 731.233,722.691 731.686,736.658 732.14,739.058 732.594,730.477 733.047,713.646 733.501,690.9 733.955,664.354 734.408,635.905 734.862,607.235 735.316,579.812 735.769,554.889 736.223,533.512 736.676,516.515 737.13,504.525 737.584,497.967 738.037,497.058 738.491,501.815 738.945,512.056 739.398,527.4 739.852,547.267 740.306,570.887 740.759,597.294 741.213,625.331 741.667,653.653 742.12,680.726 742.574,704.832 743.028,724.068 743.481,736.348 743.935,739.462 744.388,733.729 744.842,721.445 745.296,704.434 745.749,684.347 746.203,662.665 746.657,640.698 747.11,619.592 747.564,600.322 748.018,583.704 748.471,570.39 748.925,560.871 749.379,555.482 749.832,554.399 750.286,557.646 750.74,565.092 751.193,576.457 751.647,591.309 752.1,609.073 752.554,629.026 753.008,650.3 753.461,671.89 753.915,692.647 754.369,711.286 754.822,726.387 755.276,736.392 755.73,739.625 756.183,736.285 756.637,728.285 757.091,716.911 757.544,703.323 757.998,688.559 758.452,673.537 758.905,659.054 759.359,645.791 759.812,634.313 760.266,625.072 760.72,618.407 761.173,614.551 761.627,613.624 762.081,615.645 762.534,620.525 762.988,628.076 763.442,638.008 763.895,649.934 764.349,663.369 764.803,677.735 765.256,692.36 765.71,706.483 766.164,719.253 766.617,729.732 767.071,736.899 767.524,739.648 767.978,738.186 768.432,734.139 768.885,728.228 769.793,713.334 770.7,697.81 771.154,690.851 771.607,684.849 772.061,680.038 772.515,676.592 772.968,674.625 773.422,674.191 773.876,675.29 774.329,677.867 774.816,682.148 775.302,687.808 775.788,694.587 776.275,702.164 777.247,718.138 778.22,732.047 778.706,736.856 779.193,739.409 779.679,739.557 780.165,739.081 781.138,737.524 782.111,735.964 784.056,734.799 786.002,736.449 787.947,738.836 789.893,739.772 790.865,739.675 791.838,741.615 792.324,745.552 792.811,750.997 793.297,757.437 793.783,764.401 794.756,778.213 795.729,789.519 796.215,793.535 796.702,796.194 797.188,797.367 797.674,796.988 798.161,795.052 798.647,791.62 799.133,786.821 799.62,780.858 800.592,766.615 801.565,752.035 802.052,745.958 802.538,741.578 803.024,739.672 803.511,741.881 803.997,748.956 804.483,759.631 804.97,772.726 805.456,787.163 805.942,801.972 806.429,816.294 806.915,829.38 807.401,840.6 807.888,849.439 808.374,855.505 808.861,858.529 809.347,858.368 809.833,855.008 810.32,848.569 810.806,839.304 811.292,827.601 811.779,813.994 812.265,799.153 812.751,783.9 813.238,769.2 813.724,756.172 814.21,746.088 814.697,740.378 815.183,740.894 815.67,749.285 816.156,763.856 816.642,782.715 817.129,804.139 817.615,826.578 818.101,848.658 818.588,869.183 819.074,887.138 819.56,901.692 820.047,912.199 820.533,918.203 821.019,919.441 821.506,915.842 821.992,907.533 822.479,894.843 822.965,878.299 823.451,858.639 823.938,836.803 824.424,813.946 824.91,791.435 825.397,770.851 825.883,753.997 826.369,742.894 826.856,739.821 827.342,747.43 827.828,764.282 828.315,787.74 828.801,815.4 829.288,845.096 829.774,874.901 830.26,903.132 830.747,928.35 831.233,949.365 831.719,965.237 832.206,975.28 832.692,979.062 833.178,976.41 833.665,967.414 834.151,952.425 834.638,932.063 835.124,907.214 835.61,879.038 836.097,848.967 836.583,818.713 837.146,786.065 837.71,759.42 838.273,742.858 838.837,741.121 839.4,757.24 839.964,786.861 840.527,825.085 841.091,867.549 841.654,910.44 842.218,950.495 842.781,985.007 843.345,1011.83 843.908,1029.39 844.472,1036.68 845.035,1033.28 845.599,1019.33 846.162,995.595 846.726,963.406 847.289,924.702 847.853,882.027 848.416,838.534 848.98,797.991 849.543,764.786 850.107,743.933 850.67,741.179 851.234,759.883 851.797,794.804 852.361,840.077 852.924,890.486 853.488,941.473 854.051,989.143 854.615,1030.27 855.178,1062.28 855.742,1083.32 856.305,1092.17 856.869,1088.33 857.432,1071.98 857.996,1043.99 858.559,1005.96 859.123,960.167 859.686,909.617 860.25,858.029 860.813,809.846 861.377,770.239 861.94,745.11 862.504,741.173 863.067,762.163 863.631,802.011 864.194,853.927 864.758,911.875 865.321,970.583 865.885,1025.54 866.448,1073.03 867.012,1110.08 867.575,1134.52 868.139,1144.96 868.702,1140.81 869.266,1122.27 869.829,1090.34 870.393,1046.82 870.956,994.335 871.519,936.318 872.083,877.02 872.646,821.52 873.21,775.726 873.773,746.38 874.337,741.113 874.9,764.075 875.464,808.441 876.027,866.541 876.591,931.559 877.154,997.545 877.718,1059.41 878.281,1112.95 878.845,1154.82 879.408,1182.57 879.972,1194.61 880.535,1190.28 881.099,1169.78 881.662,1134.23 882.226,1085.63 882.789,1026.9 883.353,961.886 883.916,895.329 884.48,832.899 885.043,781.192 885.607,747.731 886.17,741.008 886.734,765.621 887.297,814.062 887.861,877.836 888.424,949.397 888.988,1022.16 889.551,1090.48 890.115,1149.71 890.678,1196.15 891.242,1227.06 891.805,1240.71 892.369,1236.32 892.932,1214.1 893.496,1175.28 894.059,1122.03 894.623,1057.57 895.186,986.084 895.75,912.78 896.313,843.87 896.877,786.579 897.44,749.151 898.004,740.871 898.567,766.806 899.131,818.851 899.694,887.745 900.258,965.267 900.821,1044.24 901.385,1118.52 901.948,1183.03 902.512,1233.73 903.075,1267.64 903.639,1282.86 904.202,1278.52 904.766,1254.85 905.329,1213.12 905.893,1155.71 906.456,1086.06 907.02,1008.68 907.583,929.203 908.147,854.32 908.71,791.829 909.211,753.856 909.712,739.65 910.212,754.984 910.713,795.412 911.214,853.645 911.715,923.086 912.215,997.837 912.716,1072.7 913.217,1143.17 913.718,1205.45 914.218,1256.46 914.719,1293.79 915.22,1315.78 915.721,1321.46 916.222,1310.57 916.722,1283.56 917.223,1241.61 917.724,1186.61 918.225,1121.16 918.725,1048.61 919.226,972.995 919.727,899.099 920.228,832.426 920.728,779.208 921.229,746.407 921.73,741.69 922.231,767.888 922.731,817.929 923.232,884.34 923.733,960.39 924.234,1040.08 924.735,1118.17 925.235,1190.15 925.736,1252.26 926.237,1301.48 926.738,1335.54 927.238,1352.94 927.739,1352.9 928.24,1335.43 928.741,1301.25 929.241,1251.89 929.742,1189.59 930.243,1117.39 930.744,1039.05 931.244,959.134 931.745,882.942 932.246,816.554 932.747,766.813 933.248,741.333 933.748,747.817 934.249,784.694 934.75,843.779 935.251,917.507 935.751,999.088 936.252,1082.51 936.753,1162.54 937.254,1234.73 937.754,1295.41 938.255,1341.7 938.756,1371.49 939.257,1383.47 939.757,1377.12 940.258,1352.7 940.759,1311.27 941.26,1254.66 941.761,1185.53 942.261,1107.3 942.762,1024.21 943.263,941.272 943.764,864.325 944.264,799.991 944.765,755.694 945.266,739.665 945.767,758.053 946.267,805.085 946.768,872.378 947.269,952.355 947.77,1038.25 948.271,1124.09 948.771,1204.75 949.272,1275.88 949.773,1333.95 950.274,1376.25 950.774,1400.9 951.275,1406.81 951.776,1393.72 952.277,1362.19 952.777,1313.6 953.278,1250.13 953.779,1174.81 954.28,1091.49 954.78,1004.82 955.281,920.292 955.782,844.225 956.283,783.76 956.784,746.865 957.284,742.231 957.785,772.191 958.286,828.56 958.787,902.997 959.287,987.994 959.788,1076.88 960.289,1163.8 960.79,1243.77 961.29,1312.6 961.791,1366.97 962.292,1404.38 962.793,1423.17 963.293,1422.53 963.794,1402.47 964.295,1363.87 964.796,1308.41 965.297,1238.66 965.797,1158 966.298,1070.67 966.799,981.743 967.3,897.144 967.8,823.645 968.301,768.862 968.802,741.261 969.303,749.104 969.803,789.823 970.304,854.458 970.805,934.794 971.306,1023.47 971.807,1113.96 972.307,1200.61 972.808,1278.62 973.247,1336.76 973.686,1383.08 974.125,1415.93 974.565,1434.22 975.004,1437.33 975.443,1425.14 975.882,1398.08 976.321,1357.03 976.76,1303.42 977.199,1239.18 977.638,1166.71 978.078,1088.98 978.517,1009.41 978.956,931.956 979.395,861.086 979.834,801.764 980.273,759.469 980.712,740.185 981.151,749.264 981.591,783.934 982.03,837.994 982.469,905.736 982.908,981.96 983.347,1061.98 983.786,1141.61 984.225,1217.18 984.664,1285.54 985.104,1344.04 985.543,1390.54 985.982,1423.42 986.421,1441.55 986.86,1444.34 987.299,1431.68 987.738,1404.01 988.177,1362.25 988.617,1307.84 989.056,1242.73 989.495,1169.39 989.934,1090.79 990.373,1010.43 990.812,932.305 991.251,860.926 991.69,801.319 992.13,759.021 992.569,740.082 993.008,749.755 993.447,784.968 993.886,839.502 994.325,907.639 994.764,984.174 995.204,1064.41 995.643,1144.18 996.082,1219.8 996.521,1288.13 996.96,1346.51 997.399,1392.82 997.838,1425.44 998.277,1443.27 998.717,1445.72 999.156,1432.69 999.595,1404.63 1000.03,1362.48 1000.47,1307.7 1000.91,1242.25 1001.35,1168.61 1001.79,1089.79 1002.23,1009.28 1002.67,931.103 1003.11,859.789 1003.55,800.377 1003.99,758.422 1004.43,739.987 1004.86,750.174 1005.3,785.645 1005.74,840.215 1006.18,908.2 1006.62,984.433 1007.06,1064.25 1007.5,1143.52 1007.94,1218.58 1008.38,1286.32 1008.82,1344.12 1009.26,1389.88 1009.69,1421.99 1010.13,1439.38 1010.57,1441.46 1011.01,1428.16 1011.45,1399.94 1011.89,1357.74 1012.33,1303.02 1012.77,1237.76 1013.21,1164.42 1013.65,1086 1014.09,1005.98 1014.53,928.383 1014.96,857.703 1015.4,798.963 1015.84,757.685 1016.28,739.901 1016.72,750.51 1017.16,785.947 1017.6,840.107 1018.04,907.393 1018.48,982.712 1018.92,1061.48 1019.36,1139.6 1019.79,1213.51 1020.23,1280.13 1020.67,1336.89 1021.11,1381.73 1021.55,1413.08 1021.99,1429.89 1022.43,1431.59 1022.87,1418.14 1023.31,1389.99 1023.75,1348.08 1024.19,1293.87 1024.62,1229.32 1025.06,1156.86 1025.5,1079.47 1025.94,1000.6 1026.38,924.191 1026.82,854.709 1027.26,797.103 1027.7,756.826 1028.14,739.826 1028.58,750.753 1029.02,785.855 1029.5,844.678 1029.97,918.089 1030.45,999.724 1030.93,1083.92 1031.41,1165.72 1031.89,1240.86 1032.37,1305.77 1032.85,1357.59 1033.33,1394.14 1033.8,1413.96 1034.28,1416.25 1034.76,1400.95 1035.24,1368.65 1035.72,1320.65 1036.2,1258.97 1036.68,1186.27 1037.16,1105.94 1037.63,1022.04 1038.11,939.339 1038.59,863.273 1039.07,799.975 1039.55,756.266 1040.03,739.652 1040.51,755.172 1040.99,797.254 1041.46,858.53 1041.94,932.318 1042.42,1012.62 1042.9,1094.11 1043.38,1172.14 1043.86,1242.77 1044.34,1302.69 1044.82,1349.32 1045.29,1380.7 1045.77,1395.6 1046.25,1393.43 1046.73,1374.29 1047.21,1338.92 1047.69,1288.79 1048.17,1225.98 1048.65,1153.28 1049.12,1074.13 1049.6,992.644 1050.08,913.599 1050.56,842.44 1051.04,785.275 1051.52,748.876 1052,740.605 1052.48,762.712 1052.95,808.492 1053.43,871.024 1053.91,944.048 1054.39,1021.96 1054.87,1099.81 1055.35,1173.3 1055.83,1238.79 1056.31,1293.3 1056.78,1334.49 1057.26,1360.67 1057.74,1370.8 1058.22,1364.49 1058.7,1342.01 1059.18,1304.25 1059.66,1252.75 1060.14,1189.71 1060.61,1117.96 1061.09,1040.97 1061.57,962.858 1062.05,888.363 1062.53,822.876 1063.01,772.419 1063.49,743.649 1063.97,743.379 1064.44,770.798 1064.92,819.015 1065.4,881.598 1065.88,952.742 1066.36,1027.27 1066.84,1100.63 1067.32,1168.9 1067.8,1228.76 1068.28,1277.55 1068.75,1313.19 1069.23,1334.23 1069.71,1339.86 1070.19,1329.87 1070.67,1304.64 1071.15,1265.21 1071.63,1213.21 1072.11,1150.86 1072.58,1081.02 1073.06,1007.15 1073.54,933.307 1074.02,864.16 1074.5,804.978 1074.98,761.636 1075.46,740.605 1075.94,747.502 1076.41,778.893 1076.89,828.266 1077.37,889.711 1077.85,957.912 1078.33,1028.14 1078.81,1096.27 1079.29,1158.74 1079.77,1212.6 1080.24,1255.48 1080.72,1285.58 1081.2,1301.7 1081.68,1303.21 1082.16,1290.06 1082.64,1262.79 1083.12,1222.49 1083.6,1170.86 1084.07,1110.14 1084.55,1043.16 1085.03,973.318 1085.51,904.573 1085.99,841.458 1086.47,789.066 1086.95,753.057 1087.43,739.65 1087.9,752.454 1088.38,786.441 1088.86,835.697 1089.34,894.861 1089.82,959.127 1090.3,1024.24 1090.78,1086.85 1091.26,1143.35 1091.74,1191.1 1092.22,1227.99 1092.71,1252.5 1093.19,1263.64 1093.67,1260.97 1094.15,1244.61 1094.63,1215.24 1095.11,1174.07 1095.6,1122.86 1096.08,1063.91 1096.56,1000.08 1097.04,934.738 1097.52,871.82 1098,815.784 1098.49,771.624 1098.97,744.867 1099.45,741.335 1099.93,761.034 1100.41,798.278 1100.89,847.734 1101.38,904.595 1101.86,964.573 1102.34,1023.9 1102.82,1079.32 1103.3,1128.1 1103.78,1168.02 1104.27,1197.36 1104.75,1214.93 1105.23,1220.03 1105.71,1212.47 1106.19,1192.57 1106.67,1161.15 1107.15,1119.51 1107.64,1069.49 1108.12,1013.38 1108.6,953.988 1109.08,894.616 1109.56,839.047 1110.04,791.553 1110.53,756.895 1111.01,740.314 1111.49,746.048 1111.97,770.742 1112.45,809.266 1112.93,856.998 1113.42,909.786 1113.9,963.952 1114.38,1016.29 1114.86,1064.05 1115.34,1104.96 1115.82,1137.2 1116.31,1159.42 1116.79,1170.74 1117.27,1170.7 1117.75,1159.33 1118.23,1137.1 1118.71,1104.92 1119.19,1064.17 1119.68,1016.66 1120.16,964.654 1120.64,910.844 1121.12,858.375 1121.6,810.823 1122.08,772.203 1122.57,746.96 1123.05,739.934 1123.53,752.279 1124.01,779.486 1124.49,817.211 1124.97,861.535 1125.46,908.956 1125.94,956.393 1126.42,1001.18 1126.9,1041.06 1127.38,1074.2 1127.86,1099.15 1128.35,1114.9 1128.83,1120.82 1129.31,1116.7 1129.79,1102.71 1130.27,1079.43 1130.75,1047.84 1131.24,1009.3 1131.72,965.576 1132.2,918.81 1132.68,871.537 1133.16,826.675 1133.64,787.522 1134.12,757.759 1134.61,741.442 1135.09,742.353 1135.57,758.555 1136.05,785.991 1136.53,821.064 1137.01,860.545 1137.5,901.566 1137.98,941.621 1138.46,978.563 1138.94,1010.6 1139.42,1036.29 1139.9,1054.56 1140.39,1064.67 1140.87,1066.22 1141.35,1059.18 1141.83,1043.84 1142.31,1020.85 1142.79,991.164 1143.28,956.109 1143.76,917.325 1144.24,876.784 1144.72,836.79 1145.2,799.969 1145.68,769.273 1146.17,747.973 1146.65,739.658 1147.13,745.949 1147.61,763.495 1148.09,789.118 1148.57,819.948 1149.05,853.423 1149.54,887.285 1150.02,919.576 1150.5,948.637 1150.98,973.108 1151.46,991.92 1151.94,1004.3 1152.48,1009.92 1153.01,1006.83 1153.54,995.216 1154.07,975.668 1154.61,949.196 1155.14,917.226 1155.67,881.588 1156.2,844.519 1156.74,808.653 1157.27,777.024 1157.8,753.054 1158.33,740.554 1158.87,742.616 1159.4,756.365 1159.93,778.228 1160.46,805.119 1161,834.319 1161.53,863.469 1162.06,890.573 1162.59,913.987 1163.13,932.417 1163.66,944.916 1164.19,950.878 1164.72,950.038 1165.26,942.46 1165.79,928.541 1166.32,909.001 1166.85,884.883 1167.39,857.545 1167.92,828.66 1168.45,800.206 1168.98,774.468 1169.52,754.031 1170.05,741.773 1170.58,740.514 1171.11,748.61 1171.65,763.15 1172.18,781.82 1172.71,802.582 1173.24,823.664 1173.78,843.565 1174.31,861.043 1174.84,875.113 1175.37,885.046 1175.91,890.36 1176.44,890.818 1176.97,886.423 1177.5,877.416 1178.04,864.269 1178.57,847.68 1179.1,828.574 1179.63,808.09 1180.17,787.588 1180.7,768.632 1181.23,752.997 1181.76,742.658 1182.3,739.739 1182.83,743.46 1183.36,751.47 1183.89,762.29 1184.43,774.622 1184.96,787.342 1185.49,799.498 1186.02,810.307 1186.56,819.149 1187.09,825.56 1187.62,829.234 1188.15,830.012 1188.69,827.883 1189.22,822.977 1189.75,815.56 1190.28,806.032 1190.82,794.921 1191.35,782.879 1191.88,770.677 1192.41,759.204 1192.95,749.457 1193.48,742.542 1194.01,739.667 1194.54,740.515 1195.61,746.577 1196.67,754.928 1197.74,762.483 1198.8,767.31 1199.34,768.377 1199.87,768.488 1200.4,767.664 1200.93,765.971 1202,760.448 1203.06,753.203 1204.13,745.976 1205.19,740.827 1206.26,739.279 1207.32,734.614 1208.39,726.747 1209.45,718.2 1210.52,711.116 1211.58,707.126 1212.12,706.624 1212.65,707.202 1213.18,708.857 1213.71,711.526 1214.78,719.348 1215.84,728.848 1216.37,733.331 1216.91,736.995 1217.44,739.251 1217.97,739.164 1218.5,734.58 1219.04,726.227 1219.57,715.334 1220.1,703.017 1220.61,690.892 1221.12,679.15 1221.62,668.454 1222.13,659.363 1222.64,652.33 1223.14,647.697 1223.65,645.691 1224.16,646.422 1224.66,649.882 1225.17,655.935 1225.68,664.321 1226.18,674.648 1226.69,686.391 1227.2,698.887 1227.7,711.332 1228.21,722.781 1228.72,732.138 1229.22,738.158 1229.73,739.36 1230.24,733.45 1230.74,721.425 1231.25,705.131 1231.76,686.25 1232.26,666.291 1232.77,646.592 1233.28,628.313 1233.78,612.435 1234.29,599.752 1234.8,590.877 1235.3,586.229 1235.81,586.034 1236.31,590.324 1236.82,598.929 1237.33,611.477 1237.83,627.389 1238.34,645.877 1238.85,665.942 1239.35,686.365 1239.86,705.712 1240.37,722.325 1240.87,734.318 1241.38,739.579 1241.89,735.33 1242.39,721.535 1242.9,700.864 1243.41,675.765 1243.91,648.441 1244.42,620.848 1244.93,594.689 1245.43,571.415 1245.94,552.217 1246.45,538.025 1246.95,529.507 1247.46,527.061 1247.97,530.816 1248.47,540.628 1248.98,556.075 1249.49,576.455 1249.99,600.784 1250.5,627.791 1251.01,655.915 1251.51,683.304 1252.02,707.809 1252.53,726.982 1253.03,738.075 1253.54,737.857 1254.05,724.556 1254.55,701.239 1255.06,671.156 1255.57,637.24 1256.07,602.102 1256.58,568.032 1257.09,536.991 1257.59,510.612 1258.1,490.194 1258.61,476.7 1259.11,470.755 1259.62,472.642 1260.13,482.297 1260.63,499.31 1261.14,522.919 1261.65,552.008 1262.15,585.104 1262.66,620.373 1263.17,655.619 1263.67,688.278 1264.18,715.42 1264.69,733.739 1265.19,739.543 1265.7,729.276 1266.21,705.337 1266.71,671.803 1267.22,632.365 1267.73,590.323 1268.23,548.584 1268.74,509.659 1269.25,475.66 1269.75,448.299 1270.26,428.881 1270.77,418.304 1271.27,417.056 1271.78,425.211 1272.29,442.428 1272.79,467.945 1273.3,500.579 1273.81,538.722 1274.31,580.337 1274.82,622.958 1275.33,663.685 1275.83,699.18 1276.34,725.668 1276.85,738.93 1277.35,734.339 1277.86,712.06 1278.37,676.886 1278.87,633.283 1279.38,585.261 1279.89,536.374 1280.39,489.711 1280.9,447.898 1281.41,413.093 1281.91,386.985 1282.42,370.791 1282.93,365.249 1283.43,370.623 1283.94,386.695 1284.45,412.76 1284.95,447.632 1285.48,491.42 1286.01,540.461 1286.53,591.728 1287.06,641.61 1287.59,685.914 1288.11,719.86 1288.64,738.074 1289.17,734.671 1289.69,709.357 1290.22,668.144 1290.75,616.719 1291.27,560.16 1291.8,502.937 1292.33,448.906 1292.85,401.305 1293.38,362.755 1293.91,335.252 1294.44,320.168 1294.96,318.245 1295.49,329.595 1296.02,353.691 1296.54,389.372 1297.07,434.834 1297.6,487.629 1298.12,544.662 1298.65,602.187 1299.18,655.806 1299.7,700.463 1300.23,730.446 1300.76,739.362 1301.28,722.478 1301.81,684.684 1302.34,632.608 1302.86,572.204 1303.39,508.747 1303.92,446.836 1304.44,390.382 1304.97,342.616 1305.5,306.077 1306.02,282.614 1306.55,273.38 1307.08,278.835 1307.6,298.735 1308.13,332.135 1308.66,377.386 1309.19,432.128 1309.71,493.292 1310.24,557.095 1310.77,619.036 1311.29,673.898 1311.82,715.739 1312.35,737.893 1312.87,733.293 1313.4,702.397 1313.93,652.541 1314.45,590.564 1314.98,522.567 1315.51,453.911 1316.03,389.214 1316.56,332.347 1317.09,286.432 1317.61,253.843 1318.14,236.197 1318.67,234.356 1319.19,248.424 1319.72,277.742 1320.25,320.889 1320.77,375.676 1321.3,439.146 1321.83,507.572 1322.36,576.45 1322.88,640.502 1323.41,693.672 1323.94,729.12 1324.46,739.215 1324.99,718.981 1325.52,674.55 1326.04,613.648 1326.57,543.205 1327.1,469.357 1327.62,397.441 1328.15,331.996 1328.68,276.756 1329.2,234.654 1329.73,207.812 1330.26,197.545 1330.78,204.357 1331.31,227.936 1331.84,267.157 1332.36,320.074 1332.89,383.923 1333.42,455.116 1333.94,529.241 1334.47,601.059 1335,664.501 1335.52,712.67 1336.05,737.831 1336.58,732.012 1337.11,696.47 1337.63,639.602 1338.16,569.16 1338.69,492.054 1339.21,414.345 1339.74,341.25 1340.27,277.133 1340.79,225.511 1341.32,189.042 1341.85,169.532 1342.37,167.929 1342.9,184.32 1343.43,217.933 1343.95,267.13 1344.48,329.411 1345.01,401.407 1345.53,478.88 1346.06,556.723 1346.59,628.954 1347.11,688.719 1347.64,728.286 1348.17,739.045 1348.69,716.019 1349.22,666.379 1349.75,598.678 1350.27,520.582 1350.8,438.871 1351.33,359.439 1351.86,287.286 1352.38,226.524 1352.83,186.594 1353.27,158.458 1353.71,143.094 1354.16,141.028 1354.6,152.336 1355.04,176.641 1355.49,213.115 1355.93,260.474 1356.37,316.981 1356.82,380.446 1357.26,448.221 1357.7,517.204 1358.15,583.836 1358.59,644.1 1359.03,693.522 1359.48,727.169 1359.92,739.65 1360.36,726.785 1360.81,692.132 1361.25,641.206 1361.69,579.063 1362.14,510.298 1362.58,439.04 1363.02,368.959 1363.47,303.258 1363.91,244.678 1364.36,195.493 1364.8,157.514 1365.24,132.084 1365.69,120.08 1366.13,121.913 1366.57,137.526 1367.02,166.393 1367.46,207.522 1367.9,259.448 1368.35,320.24 1368.79,387.495 1369.23,458.34 1369.68,529.432 1370.12,596.954 1370.56,656.619 1371.01,703.667 1371.45,732.865 1371.89,738.531 1372.34,718.403 1372.78,677.563 1373.22,621.544 1373.67,555.404 1374.11,483.724 1374.55,410.609 1375,339.689 1375.44,274.115 1375.88,216.563 1376.33,169.23 1376.77,133.834 1377.22,111.617 1377.66,103.339 1378.1,109.285 1378.55,129.255 1378.99,162.574 1379.43,208.084 1379.88,264.147 1380.32,328.642 1380.76,398.971 1381.21,472.05 1381.65,544.314 1382.09,611.717 1382.54,669.729 1382.98,713.337 1383.42,737.045 1383.87,735.204 1384.31,708.171 1384.75,661.715 1385.2,601.329 1385.64,532.023 1386.08,458.322 1386.53,384.263 1386.97,313.402 1387.41,248.804 1387.86,193.052 1388.3,148.24 1388.74,115.976 1389.19,97.3802 1389.63,93.0879 1390.08,103.245 1390.52,127.511 1390.96,165.056 1391.41,214.564 1391.85,274.229 1392.29,341.758 1392.74,414.369 1393.18,488.79 1393.62,561.261 1394.07,627.533 1394.51,682.868 1394.95,722.036 1395.4,739.322 1395.84,729.783 1396.28,696.389 1396.73,645.025 1397.17,581.098 1397.61,509.523 1398.06,434.727 1398.5,360.643 1398.94,290.715 1399.39,227.898 1399.83,174.651 1400.27,132.948 1400.72,104.267 1401.16,89.5969 1401.6,89.4359 1402.05,103.79 1402.49,132.173 1402.94,173.608 1403.38,226.627 1403.82,289.27 1404.27,359.085 1404.71,433.128 1405.15,507.965 1405.6,579.668 1406.04,643.819 1406.48,695.507 1406.93,729.33 1407.37,739.399 1407.81,722.491 1408.26,683.432 1408.7,627.985 1409.14,561.42 1409.68,471.996 1410.23,380.799 1410.77,294.439 1411.31,218.436 1411.85,157.217 1412.39,114.116 1412.93,91.3773 1413.47,90.1519 1414.02,110.5 1414.56,151.391 1415.1,210.702 1415.64,285.222 1416.18,370.647 1416.72,461.585 1417.26,551.552 1417.81,632.977 1418.35,697.199 1418.89,734.467 1419.43,734.48 1419.97,697.445 1420.51,633.681 1421.05,552.874 1421.6,463.627 1422.14,373.455 1422.68,288.786 1423.22,214.966 1423.76,156.256 1424.3,115.831 1424.84,95.7847 1425.39,97.1285 1425.93,119.791 1426.47,162.619 1427.01,223.379 1427.55,298.759 1428.09,384.366 1428.63,474.728 1429.18,563.297 1429.72,642.446 1430.26,703.473 1430.8,736.6 1431.34,732.005 1431.88,691.987 1432.42,626.851 1432.96,546.004 1433.51,457.785 1434.05,369.462 1434.59,287.231 1435.13,216.223 1435.67,160.498 1436.21,123.052 1436.75,105.815 1437.3,109.65 1437.84,134.36 1438.38,178.683 1438.92,240.295 1439.46,315.815 1440,400.799 1440.54,489.746 1441.09,576.099 1441.63,652.244 1442.17,709.513 1442.71,738.184 1443.25,729.228 1443.79,686.843 1444.33,621.094 1444.88,541.038 1445.42,454.687 1445.96,369.006 1446.5,289.914 1447.04,222.288 1447.58,169.963 1448.12,135.733 1448.67,121.353 1449.21,127.54 1449.75,153.975 1450.29,199.303 1450.83,261.137 1451.37,336.056 1451.91,419.61 1452.46,506.32 1453,589.678 1453.54,662.152 1454.08,715.184 1454.62,739.193 1455.16,726.273 1455.7,682.196 1456.25,616.621 1456.79,538.188 1457.33,454.521 1457.87,372.233 1458.41,296.926 1458.95,233.191 1459.49,184.612 1460.03,153.766 1460.58,142.227 1461.12,150.566 1461.66,178.352 1462.2,224.157 1462.74,285.555 1463.28,359.124 1463.82,440.45 1464.37,524.127 1464.91,603.759 1465.45,671.964 1465.99,720.371 1466.53,739.628 1467.07,723.276 1467.61,678.232 1468.16,613.633 1468.7,537.64 1469.24,457.439 1469.78,379.247 1470.32,308.31 1470.86,248.906 1471.4,204.348 1471.95,176.985 1472.49,168.206 1473.03,178.439 1473.57,207.158 1474.11,252.879 1474.65,313.167 1475.19,384.638 1475.74,462.956 1476.28,542.844 1476.82,618.078 1477.36,681.493 1477.9,724.986 1478.44,739.525 1478.94,723.126 1479.43,684.18 1479.93,629.353 1480.43,564.658 1480.92,495.455 1481.42,426.456 1481.91,361.722 1482.41,304.668 1482.91,258.063 1483.4,224.032 1483.9,204.059 1484.39,198.985 1484.89,209.012 1485.39,233.706 1485.88,271.996 1486.38,322.177 1486.87,381.91 1487.37,448.227 1487.87,517.528 1488.36,585.589 1488.86,647.557 1489.35,697.955 1489.85,730.684 1490.35,739.075 1490.84,721.036 1491.34,682.611 1491.83,629.981 1492.33,568.711 1492.83,503.755 1493.32,439.456 1493.82,379.549 1494.31,327.161 1494.81,284.813 1495.3,254.424 1495.8,237.311 1496.3,234.191 1496.79,245.182 1497.29,269.808 1497.78,306.995 1498.28,355.079 1498.78,411.806 1499.27,474.331 1499.77,539.223 1500.26,602.464 1500.76,659.456 1501.26,705.018 1501.75,733.388 1502.25,738.384 1502.74,719.308 1503.24,682.057 1503.74,632.286 1504.23,575.081 1504.73,514.958 1505.22,455.868 1505.72,401.199 1506.22,353.775 1506.71,315.861 1507.21,289.163 1507.7,274.831 1508.2,273.461 1508.7,285.097 1509.19,309.232 1509.69,344.811 1510.18,390.234 1510.68,443.355 1511.18,501.486 1511.67,561.401 1512.17,619.334 1512.66,670.984 1513.16,711.514 1513.66,735.559 1514.15,737.553 1514.65,718.068 1515.14,682.641 1515.64,636.366 1516.13,583.822 1516.63,529.062 1517.13,475.627 1517.62,426.54 1518.12,384.312 1518.61,350.944 1519.11,327.928 1519.61,316.248 1520.1,316.386 1520.6,328.321 1521.09,351.532 1521.59,384.999 1522.09,427.209 1522.58,476.153 1523.08,529.334 1523.57,583.763 1524.07,635.965 1524.57,681.982 1525.06,717.372 1525.56,737.213 1526.05,736.692 1526.55,717.44 1527.05,684.47 1527.54,642.295 1528.04,594.955 1528.53,546.028 1529.03,498.624 1529.53,455.393 1530.02,418.525 1530.52,389.753 1531.01,370.354 1531.51,361.152 1532.01,362.522 1532.5,374.389 1533,396.235 1533.49,427.094 1533.99,465.564 1534.49,509.8 1534.98,557.523 1535.48,606.018 1535.97,652.14 1536.47,692.315 1536.97,722.538 1537.46,738.385 1537.96,735.913 1538.45,717.537 1538.95,687.637 1539.44,650.118 1539.94,608.471 1540.44,565.777 1540.93,524.71 1541.43,487.537 1541.92,456.124 1542.38,433.502 1542.84,417.898 1543.3,409.874 1543.76,409.71 1544.21,417.395 1544.67,432.641 1545.13,454.875 1545.59,483.243 1546.05,516.617 1546.51,553.589 1546.96,592.476 1547.42,631.325 1547.88,667.909 1548.34,699.73 1548.8,724.024 1549.25,737.76 1549.71,738.023 1550.17,726.09 1550.63,705.024 1551.09,677.528 1551.54,646.044 1552,612.759 1552.46,579.607 1552.92,548.266 1553.38,520.164 1553.83,496.48 1554.29,478.144 1554.75,465.84 1555.21,460.008 1555.67,460.844 1556.12,468.305 1556.58,482.107 1557.04,501.728 1557.5,526.412 1557.96,555.167 1558.41,586.77 1558.87,619.765 1559.33,652.469 1559.79,682.972 1560.25,709.136 1560.7,728.602 1561.16,738.787 1561.62,737.531 1562.08,726.66 1562.54,708.661 1563,685.715 1563.45,659.79 1563.91,632.642 1564.37,605.819 1564.83,580.659 1565.29,558.294 1565.74,539.651 1566.2,525.457 1566.66,516.234 1567.12,512.309 1567.58,513.807 1568.03,520.66 1568.49,532.606 1568.95,549.191 1569.41,569.77 1569.87,593.509 1570.32,619.387 1570.78,646.2 1571.24,672.559 1571.7,696.894 1572.16,717.455 1572.61,732.314 1573.07,739.367 1573.53,737.282 1573.99,728.1 1574.45,713.697 1574.9,695.731 1575.36,675.696 1575.82,654.918 1576.28,634.56 1576.74,615.624 1577.19,598.953 1577.65,585.229 1578.11,574.98 1578.57,568.579 1579.03,566.247 1579.48,568.052 1579.94,573.914 1580.4,583.607 1580.86,596.758 1581.32,612.851 1581.78,631.228 1582.23,651.091 1582.69,671.504 1583.15,691.394 1583.61,709.555 1584.07,724.647 1584.52,735.199 1584.98,739.611 1585.44,737.411 1585.9,730.508 1586.36,720.177 1586.81,707.557 1587.27,693.669 1587.73,679.416 1588.19,665.584 1588.65,652.845 1589.1,641.758 1589.56,632.771 1590.02,626.224 1590.48,622.35 1590.94,621.276 1591.39,623.024 1591.85,627.518 1592.31,634.579 1592.77,643.932 1593.23,655.206 1594.14,681.556 1595.06,708.804 1595.52,720.866 1595.97,730.703 1596.43,737.321 1596.89,739.647 1597.35,738.039 1597.81,733.962 1598.27,728.119 1598.72,721.139 1599.18,713.581 1599.64,705.932 1600.1,698.611 1600.56,691.968 1601.02,686.227 1601.48,681.709 1601.95,678.585 1602.41,676.96 1602.88,676.879 1603.34,678.33 1603.8,681.244 1604.27,685.497 1605.2,697.264 1606.12,711.625 1606.59,718.947 1607.05,725.831 1607.52,731.828 1607.98,736.447 1608.44,739.164 1608.91,739.601 1609.37,739.121 1609.84,738.272 1610.76,736.067 1611.69,733.925 1613.55,731.81 1615.4,733.191 1617.26,736.444 1619.12,739.054 1620.04,739.582 1620.97,740.379 1621.44,742.8 1621.9,746.537 1622.36,751.214 1622.83,756.482 1623.76,767.521 1624.68,777.403 1625.15,781.344 1625.61,784.384 1626.07,786.394 1626.54,787.286 1627,787.01 1627.47,785.561 1627.93,782.98 1628.39,779.353 1629.32,769.557 1630.25,757.885 1630.71,752.118 1631.18,746.924 1631.64,742.773 1632.11,740.198 1632.57,739.903 1633.03,743.434 1633.5,750.36 1633.96,759.759 1634.89,782.657 1635.82,806.233 1636.28,816.772 1636.75,825.835 1637.21,833.047 1637.67,838.116 1638.14,840.836 1638.6,841.092 1639.07,838.86 1639.53,834.208 1639.99,827.298 1640.46,818.391 1640.92,807.844 1641.39,796.117 1641.85,783.769 1642.31,771.467 1642.78,759.98 1643.24,750.188 1643.71,743.08 1644.17,739.756 1644.63,741.836 1645.1,749.906 1645.56,762.506 1646.03,778.25 1646.49,795.87 1646.95,814.224 1647.42,832.293 1647.88,849.184 1648.35,864.133 1648.81,876.507 1649.27,885.803 1649.74,891.653 1650.2,893.826 1650.67,892.226 1651.13,886.898 1651.59,878.027 1652.06,865.943 1652.52,851.118 1652.99,834.174 1653.45,815.878 1653.91,797.149 1654.38,779.059 1654.84,762.832 1655.31,749.849 1655.77,741.648 1656.23,739.982 1656.7,746.737 1657.16,760.606 1657.63,779.631 1658.09,802.021 1658.55,826.153 1659.02,850.573 1659.48,874.001 1659.95,895.327 1660.47,915.586 1660.99,930.992 1661.51,940.781 1662.03,944.471 1662.55,941.873 1663.07,933.087 1663.59,918.51 1664.11,898.835 1664.63,875.058 1665.15,848.478 1665.67,820.702 1666.19,793.647 1666.71,769.544 1667.23,750.939 1667.75,740.7 1668.27,742.176 1668.79,756.433 1669.31,780.16 1669.83,810.091 1670.35,843.294 1670.87,877.176 1671.39,909.482 1671.91,938.304 1672.43,962.078 1672.95,979.591 1673.47,989.982 1673.99,992.746 1674.51,987.736 1675.03,975.167 1675.55,955.617 1676.07,930.033 1676.59,899.731 1677.11,866.4 1677.63,832.107 1678.15,799.296 1678.67,770.794 1679.19,749.81 1679.71,739.945 1680.23,745.135 1680.75,764.785 1681.27,794.761 1681.79,831.272 1682.31,870.931 1682.83,910.755 1683.35,948.167 1683.87,981.003 1684.39,1007.51 1684.91,1026.35 1685.43,1036.61 1685.95,1037.79 1686.47,1029.81 1686.99,1013.04 1687.51,988.258 1688.03,956.679 1688.55,919.956 1689.07,880.181 1689.59,839.882 1690.11,802.036 1690.63,770.061 1691.15,747.827 1691.67,739.655 1692.19,749.561 1692.71,775.002 1693.23,811.272 1693.75,854.124 1694.27,899.778 1694.79,944.921 1695.31,986.709 1695.83,1022.77 1696.35,1051.21 1696.87,1070.61 1697.39,1080.04 1697.91,1079.03 1698.43,1067.62 1698.95,1046.32 1699.47,1016.15 1699.99,978.613 1700.51,935.697 1701.03,889.902 1701.55,844.224 1702.07,802.162 1702.59,767.722 1703.11,745.415 1703.63,740.295 1704.15,755.577 1704.67,787.015 1705.19,829.456 1705.71,878.27 1706.23,929.346 1706.75,979.102 1707.27,1024.48 1707.79,1062.96 1708.31,1092.53 1708.83,1111.75 1709.35,1119.69 1709.87,1115.97 1710.39,1100.74 1710.91,1074.7 1711.43,1039.11 1711.95,995.761 1712.47,946.998 1712.99,895.723 1713.51,845.393 1714.03,800.02 1714.55,764.178 1715.07,743.003 1715.59,742.17 1716.11,763.223 1716.63,800.677 1717.15,849.013 1717.67,903.281 1718.19,959.112 1718.71,1012.71 1719.23,1060.86 1719.75,1100.92 1720.27,1130.86 1720.79,1149.2 1721.31,1155.07 1721.83,1148.18 1722.35,1128.84 1722.87,1097.96 1723.39,1057.02 1723.91,1008.13 1724.43,953.983 1724.95,897.873 1725.47,843.707 1725.99,795.993 1726.51,759.851 1726.98,741.874 1727.45,742.708 1727.92,762.938 1728.39,797.985 1728.86,843.372 1729.33,895.04 1729.81,949.35 1730.28,1003.08 1730.75,1053.43 1731.22,1098.03 1731.69,1134.91 1732.16,1162.56 1732.63,1179.87 1733.1,1186.16 1733.58,1181.19 1734.05,1165.13 1734.52,1138.6 1734.99,1102.64 1735.46,1058.72 1735.93,1008.75 1736.4,955.08 1736.87,900.481 1737.35,848.168 1737.82,801.796 1738.29,765.455 1738.76,743.677 1739.23,741.407 1739.7,760.21 1740.17,795.447 1740.64,842.299 1741.11,896.394 1741.59,953.805 1742.06,1011.05 1742.53,1065.1 1743,1113.36 1743.47,1153.71 1743.94,1184.47 1744.41,1204.39 1744.88,1212.71 1745.36,1209.1 1745.83,1193.69 1746.3,1167.06 1746.77,1130.25 1747.24,1084.78 1747.71,1032.59 1748.18,976.102 1748.65,918.194 1749.13,862.206 1749.6,811.936 1750.07,771.65 1750.54,746.073 1751.01,740.396 1751.48,757.198 1751.95,791.978 1752.42,839.618 1752.9,895.464 1753.37,955.333 1753.84,1015.51 1754.31,1072.75 1754.78,1124.29 1755.25,1167.82 1755.72,1201.51 1756.19,1224.01 1756.66,1234.45 1757.14,1232.41 1757.61,1217.97 1758.08,1191.68 1758.55,1154.56 1759.02,1108.12 1759.49,1054.33 1759.96,995.672 1760.43,935.076 1760.91,875.968 1761.38,822.256 1761.85,778.326 1762.32,749.051 1762.79,739.788 1763.26,754.071 1763.73,787.781 1764.2,835.539 1764.68,892.452 1765.15,954.112 1765.62,1016.6 1766.09,1076.49 1766.56,1130.84 1767.03,1177.2 1767.5,1213.61 1767.97,1238.6 1768.44,1251.18 1768.92,1250.89 1769.39,1237.71 1769.86,1212.15 1770.33,1175.22 1770.8,1128.38 1771.27,1073.63 1771.74,1013.45 1772.21,950.814 1772.69,889.189 1773.16,832.546 1773.63,785.353 1774.1,752.573 1774.57,739.67 1775.04,750.987 1775.51,783.056 1775.98,830.285 1776.46,887.579 1776.93,950.349 1777.4,1014.5 1777.87,1076.46 1778.34,1133.12 1778.81,1181.91 1779.28,1220.75 1779.75,1248.07 1780.23,1262.79 1780.7,1264.34 1781.17,1252.67 1781.64,1228.21 1782.11,1191.92 1782.58,1145.25 1783.05,1090.16 1783.52,1029.12 1783.99,965.101 1784.47,901.594 1784.94,842.586 1785.41,792.576 1785.88,756.571 1786.35,740.087 1786.82,748.088 1787.36,783.805 1787.9,839.699 1788.44,908.06 1788.98,982.056 1789.52,1055.73 1790.06,1124.01 1790.6,1182.7 1791.14,1228.48 1791.68,1258.9 1792.22,1272.41 1792.76,1268.33 1793.3,1246.85 1793.84,1209.07 1794.38,1156.95 1794.91,1093.33 1795.45,1021.94 1795.99,947.387 1796.53,875.17 1797.07,811.662 1797.61,764.125 1798.15,740.7 1798.69,749.072 1799.23,785.966 1799.77,842.823 1800.31,911.922 1800.85,986.422 1801.39,1060.37 1801.93,1128.69 1802.47,1187.21 1803.01,1232.62 1803.55,1262.52 1804.09,1275.36 1804.63,1270.51 1805.17,1248.21 1805.7,1209.58 1806.24,1156.65 1806.78,1092.3 1807.32,1020.32 1807.86,945.386 1808.4,873.043 1808.94,809.734 1809.48,762.781 1810.02,740.395 1810.56,750.017 1811.1,787.733 1811.64,845.018 1812.18,914.205 1812.72,988.511 1813.26,1062.04 1813.8,1129.77 1814.34,1187.57 1814.88,1232.19 1815.42,1261.27 1815.96,1273.33 1816.49,1267.75 1817.03,1244.83 1817.57,1205.72 1818.11,1152.47 1818.65,1088 1819.19,1016.11 1819.73,941.487 1820.27,869.699 1820.81,807.183 1821.35,761.263 1821.89,740.136 1822.43,750.894 1822.97,789.058 1823.51,846.222 1824.05,914.845 1824.59,988.262 1825.13,1060.68 1825.67,1127.19 1826.21,1183.75 1826.75,1227.18 1827.28,1255.19 1827.82,1266.36 1828.36,1260.13 1828.9,1236.81 1829.44,1197.59 1829.98,1144.52 1830.52,1080.53 1831.06,1009.4 1831.6,935.793 1832.14,865.224 1832.68,804.08 1833.22,759.611 1833.76,739.929 1834.3,751.676 1834.84,789.895 1835.38,846.382 1835.92,913.792 1836.46,985.637 1837,1056.29 1837.54,1120.98 1838.07,1175.78 1838.61,1217.64 1839.15,1244.35 1839.69,1254.55 1840.23,1247.74 1840.77,1224.27 1841.31,1185.32 1841.85,1132.95 1842.39,1070.04 1842.93,1000.34 1843.47,928.421 1844.01,859.717 1844.55,800.495 1845.09,757.866 1845.63,739.78 1846.17,752.335 1846.71,790.201 1847.25,845.455 1847.79,911.013 1848.33,980.623 1848.86,1048.87 1849.4,1111.16 1849.94,1163.73 1850.48,1203.67 1851.02,1228.87 1851.56,1238.04 1852.1,1230.76 1852.64,1207.37 1853.18,1169.09 1853.72,1117.92 1854.26,1056.69 1854.8,989.064 1855.34,919.501 1855.88,853.282 1856.38,800.238 1856.88,760.734 1857.38,740.825 1857.88,746.084 1858.38,773.9 1858.88,818.069 1859.38,872.964 1859.87,933.544 1860.37,995.36 1860.87,1054.55 1861.37,1107.83 1861.87,1152.53 1862.37,1186.52 1862.87,1208.29 1863.37,1216.89 1863.87,1211.97 1864.37,1193.74 1864.87,1163 1865.37,1121.12 1865.87,1070.06 1866.37,1012.34 1866.87,951.054 1867.37,889.88 1867.87,833.057 1868.37,785.397 1868.87,752.279 1869.37,739.651 1869.87,751.294 1870.36,782.61 1870.86,827.856 1871.36,881.852 1871.86,939.977 1872.36,998.172 1872.86,1052.93 1873.36,1101.31 1873.86,1140.93 1874.36,1169.93 1874.86,1187.05 1875.36,1191.55 1875.86,1183.24 1876.36,1162.49 1876.86,1130.21 1877.36,1087.87 1877.86,1037.46 1878.36,981.533 1878.86,923.172 1879.36,866.005 1879.86,814.197 1880.36,772.45 1880.86,746.001 1881.35,740.53 1881.85,757.207 1882.35,790.725 1882.85,835.851 1883.35,887.882 1883.85,942.639 1884.35,996.471 1884.85,1046.25 1885.35,1089.36 1885.85,1123.72 1886.35,1147.77 1886.85,1160.44 1887.35,1161.21 1887.85,1150.05 1888.35,1127.46 1888.85,1094.43 1889.35,1052.47 1889.85,1003.61 1890.35,950.362 1890.85,895.76 1891.35,843.335 1891.84,797.116 1892.34,761.636 1892.84,741.923 1893.34,742.936 1893.84,763.237 1894.34,797.661 1894.84,841.514 1895.34,890.588 1895.84,941.164 1896.34,990.009 1896.84,1034.37 1897.34,1071.99 1897.84,1101.07 1898.34,1120.31 1898.84,1128.87 1899.34,1126.41 1899.84,1113.03 1900.34,1089.33 1900.84,1056.37 1901.34,1015.67 1901.84,969.231 1902.33,919.506 1902.83,869.418 1903.33,822.348 1903.83,782.136 1904.33,753.081 1904.83,739.935 1905.33,746.275 1905.83,768.783 1906.33,802.856 1906.83,844.352 1907.33,889.575 1907.83,935.275 1908.33,978.641 1908.83,1017.3 1909.33,1049.33 1909.83,1073.24 1910.33,1087.95 1910.83,1092.85 1911.33,1087.74 1911.83,1072.85 1912.33,1048.84 1912.83,1016.79 1913.32,978.217 1913.82,935.039 1914.32,889.605 1914.82,844.678 1915.32,803.437 1915.82,769.474 1916.32,746.789 1916.82,739.779 1917.32,749.931 1917.82,773.261 1918.32,805.79 1918.82,843.941 1919.32,884.536 1919.82,924.793 1920.31,961.826 1920.8,994.295 1921.3,1020.66 1921.79,1039.74 1922.28,1050.72 1922.77,1053.16 1923.27,1046.97 1923.76,1032.41 1924.25,1010.13 1924.74,981.096 1925.24,946.655 1925.73,908.495 1926.22,868.655 1926.71,829.522 1927.21,793.828 1927.7,764.649 1928.19,745.403 1928.68,739.82 1929.18,748.79 1929.67,768.817 1930.16,796.591 1930.65,829.131 1931.15,863.784 1931.64,898.228 1932.13,930.465 1932.62,958.819 1933.12,981.937 1933.61,998.786 1934.1,1008.65 1934.59,1011.12 1935.09,1006.12 1935.58,993.864 1936.07,974.887 1936.56,950.027 1937.06,920.429 1937.55,887.54 1938.04,853.105 1938.53,819.172 1939.03,788.084 1939.52,762.477 1940.01,745.28 1940.5,739.705 1941,746.614 1941.49,762.968 1941.98,785.961 1942.47,813.072 1942.97,842.058 1943.46,870.953 1943.95,898.067 1944.44,921.984 1944.94,941.559 1945.43,955.914 1945.92,964.441 1946.41,966.794 1946.9,962.89 1947.4,952.907 1947.89,937.281 1948.38,916.705 1948.87,892.123 1949.37,864.734 1949.86,835.984 1950.35,807.568 1950.84,781.425 1951.34,759.737 1951.83,744.927 1952.32,739.656 1952.81,744.684 1953.31,757.403 1953.8,775.544 1954.29,797.069 1954.78,820.168 1955.28,843.257 1955.77,864.972 1956.26,884.172 1956.75,899.936 1957.25,911.557 1957.74,918.542 1958.23,920.612 1958.72,917.697 1959.22,909.933 1959.71,897.663 1960.2,881.432 1960.69,861.987 1961.19,840.272 1961.68,817.428 1962.17,794.789 1962.66,773.883 1963.16,756.425 1963.65,744.318 1964.14,739.652 1964.63,743.009 1965.13,752.177 1965.62,765.448 1966.11,781.29 1966.6,798.346 1967.1,815.428 1967.59,831.519 1968.08,845.767 1968.57,857.487 1969.07,866.154 1969.56,871.403 1970.05,873.028 1970.54,870.978 1971.04,865.353 1971.53,856.406 1972.02,844.537 1972.51,830.295 1973.01,814.369 1973.5,797.591 1973.99,780.933 1974.48,765.503 1974.98,752.544 1975.47,743.432 1975.96,739.671 1976.45,741.59 1976.95,747.336 1977.44,755.775 1977.93,765.896 1978.42,776.812 1978.92,787.748 1979.41,798.045 1979.9,807.153 1980.39,814.634 1980.89,820.154 1981.38,823.487 1981.87,824.505 1982.36,823.184 1982.86,819.594 1983.33,814.094 1983.81,806.85 1984.29,798.176 1984.77,788.469 1985.25,778.2 1985.72,767.915 1986.2,758.234 1986.68,749.844 1987.16,743.504 1987.64,740.038 1988.12,739.967 1988.59,741.885 1989.55,749.174 1990.51,758.321 1991.46,766.786 1992.42,772.833 1992.9,774.611 1993.38,775.466 1993.85,775.378 1994.33,774.366 1995.29,769.821 1996.24,762.668 1997.2,754.223 1998.16,746.22 1999.11,740.745 2000.07,739.52 2001.03,738.15 2001.98,735.682 2003.89,729.766 2005.81,726.3 2006.76,726.523 2007.72,728.221 2008.68,731.177 2009.63,734.813 2010.59,738.131 2011.55,739.65 2012.02,738.259 2012.5,734.536 2012.98,729.081 2013.46,722.447 2013.94,715.148 2014.41,707.646 2014.89,700.36 2015.37,693.656 2015.85,687.847 2016.33,683.194 2016.81,679.899 2017.28,678.11 2017.76,677.909 2018.24,679.321 2018.72,682.303 2019.2,686.749 2020.15,699.258 2021.11,714.588 2021.59,722.282 2022.06,729.293 2022.54,734.996 2023.02,738.682 2023.5,739.511 2023.98,735.916 2024.46,728.336 2024.93,717.88 2025.89,692.311 2026.85,666.207 2027.32,654.714 2027.8,645.001 2028.28,637.491 2028.76,632.504 2029.24,630.253 2029.72,630.84 2030.19,634.257 2030.67,640.381 2031.15,648.978 2031.63,659.692 2032.11,672.05 2032.58,685.46 2033.06,699.204 2033.54,712.442 2034.02,724.205 2034.5,733.397 2034.98,738.79 2035.45,738.88 2035.93,732.279 2036.41,720.323 2036.89,704.596 2037.37,686.54 2037.84,667.458 2038.32,648.507 2038.8,630.7 2039.28,614.9 2039.76,601.824 2040.23,592.033 2040.71,585.94 2041.19,583.798 2041.67,585.705 2042.15,591.602 2042.63,601.265 2043.1,614.312 2043.58,630.193 2044.06,648.193 2044.55,667.919 2045.04,687.805 2045.53,706.525 2046.02,722.559 2046.51,734.194 2047,739.52 2047.49,736.219 2047.98,724.284 2048.47,706.017 2048.96,683.553 2049.45,658.816 2049.94,633.526 2050.43,609.188 2050.92,587.097 2051.41,568.332 2051.9,553.756 2052.39,544.012 2052.88,539.524 2053.37,540.49 2053.86,546.886 2054.35,558.459 2054.84,574.728 2055.33,594.981 2055.82,618.272 2056.31,643.421 2056.8,669.01 2057.29,693.383 2057.78,714.641 2058.27,730.645 2058.77,739.007 2059.26,736.981 2059.75,724.051 2060.24,702.967 2060.73,676.373 2061.22,646.659 2061.71,615.958 2062.2,586.145 2062.69,558.833 2063.18,535.373 2063.67,516.851 2064.16,504.087 2064.65,497.632 2065.14,497.767 2065.63,504.499 2066.12,517.563 2066.61,536.416 2067.1,560.238 2067.59,587.929 2068.08,618.106 2068.57,649.104 2069.06,678.97 2069.55,705.466 2070.04,726.063 2070.53,737.941 2071.02,737.917 2071.51,724.776 2072,701.57 2072.49,671.444 2072.98,637.242 2073.47,601.506 2073.96,566.474 2074.45,534.078 2074.94,505.941 2075.43,483.377 2075.92,467.39 2076.41,458.669 2076.9,457.587 2077.39,464.202 2077.88,478.253 2078.37,499.159 2078.86,526.014 2079.35,557.591 2079.84,592.337 2080.33,628.37 2080.82,663.479 2081.31,695.123 2081.8,720.428 2082.29,736.184 2082.78,738.81 2083.27,726.246 2083.76,701.646 2084.25,668.637 2084.74,630.502 2085.23,590.181 2085.72,550.267 2086.21,513.003 2086.7,480.286 2087.2,453.657 2087.69,434.308 2088.18,423.073 2088.67,420.43 2089.16,426.501 2089.65,441.047 2090.14,463.466 2090.63,492.795 2091.12,527.705 2091.61,566.503 2092.1,607.125 2092.59,647.139 2093.08,683.743 2093.57,713.761 2094.06,733.642 2094.55,739.45 2095.04,728.241 2095.53,702.991 2096.02,667.786 2096.51,626.33 2097,581.942 2097.49,537.558 2097.98,495.724 2098.47,458.601 2098.96,427.959 2099.45,405.176 2099.94,391.239 2100.43,386.739 2100.92,391.872 2101.41,406.437 2101.9,429.835 2102.39,461.064 2102.88,498.724 2103.37,541.01 2103.86,585.711 2104.35,630.214 2104.84,671.496 2105.33,706.124 2105.82,730.258 2106.31,739.643 2106.8,730.537 2107.34,702.307 2107.88,660.717 2108.41,611.077 2108.95,558.094 2109.49,505.87 2110.02,457.896 2110.56,417.057 2111.1,385.622 2111.64,365.25 2112.17,356.981 2112.71,361.236 2113.25,377.817 2113.78,405.904 2114.32,444.052 2114.86,490.188 2115.39,541.611 2115.93,594.992 2116.47,646.367 2117.01,691.136 2117.54,724.066 2118.08,739.283 2118.62,731.148 2119.15,702.033 2119.69,658.275 2120.23,605.595 2120.77,549.067 2121.3,493.116 2121.84,441.512 2122.38,397.375 2122.91,363.168 2123.45,340.697 2123.99,331.108 2124.52,334.888 2125.06,351.861 2125.6,381.185 2126.14,421.353 2126.67,470.192 2127.21,524.856 2127.75,581.831 2128.28,636.928 2128.82,685.283 2129.36,721.358 2129.89,738.935 2130.43,731.91 2130.97,702.358 2131.51,656.979 2132.04,601.854 2132.58,542.378 2133.12,483.258 2133.65,428.512 2134.19,381.467 2134.73,344.76 2135.27,320.33 2135.8,309.426 2136.34,312.597 2136.88,329.694 2137.41,359.87 2137.95,401.578 2138.49,452.564 2139.02,509.876 2139.56,569.853 2140.1,628.129 2140.64,679.629 2141.17,718.57 2141.71,738.457 2142.25,732.779 2142.78,703.219 2143.32,656.769 2143.86,599.812 2144.39,538.012 2144.93,476.318 2145.47,418.956 2146.01,369.434 2146.54,330.537 2147.08,304.326 2147.62,292.139 2148.15,294.588 2148.69,311.56 2149.23,342.211 2149.77,384.972 2150.3,437.541 2150.84,496.886 2151.38,559.244 2151.91,620.119 2152.45,674.278 2152.99,715.756 2153.52,737.85 2154.06,733.708 2154.6,704.55 2155.14,657.576 2155.67,599.409 2156.21,535.932 2156.75,472.286 2157.28,412.869 2157.82,361.335 2158.36,320.595 2158.89,292.813 2159.43,279.407 2159.97,281.05 2160.51,297.663 2161.04,328.423 2161.58,371.755 2162.12,425.334 2162.65,486.085 2163.19,550.181 2163.73,613.042 2164.27,669.335 2164.8,712.976 2165.34,737.122 2165.88,734.657 2166.41,706.283 2166.95,659.32 2167.49,600.57 2168.02,536.075 2168.56,471.123 2169.1,410.239 2169.64,357.191 2170.17,314.989 2170.71,285.878 2171.25,271.348 2171.78,272.123 2172.32,288.168 2172.86,318.685 2173.4,362.115 2173.93,416.133 2174.47,477.654 2175.01,542.828 2175.54,607.039 2176.32,687.396 2177.1,734.86 2177.88,728.506 2178.66,671.846 2179.44,586.488 2180.22,491.184 2181,401.273 2181.78,328.675 2182.56,281.897 2183.34,266.024 2184.12,282.725 2184.9,330.248 2185.68,403.42 2186.47,493.649 2187.25,588.92 2188.03,673.797 2188.81,729.425 2189.59,734.176 2190.37,685.284 2191.15,603.874 2191.93,509.318 2192.71,417.571 2193.49,341.171 2194.27,289.235 2195.05,267.469 2195.83,278.161 2196.61,320.187 2197.39,389.011 2198.17,476.689 2198.95,571.868 2199.73,659.789 2200.51,722.29 2201.29,737.935 2202.07,697.985 2202.85,621.946 2203.63,529.615 2204.41,437.399 2205.19,358.318 2205.97,302.008 2206.75,274.725 2207.53,279.349 2208.31,315.384 2209.09,378.969 2209.87,462.874 2210.65,556.51 2211.43,645.93 2212.21,713.835 2212.99,739.58 2213.77,709.486 2214.55,640.1 2215.33,551.429 2216.11,460.151 2216.89,379.622 2217.67,319.878 2218.45,287.646 2219.23,286.345 2220.01,316.094 2220.79,373.719 2221.57,452.757 2222.35,543.462 2223.13,632.815 2223.91,704.526 2224.69,739.044 2225.47,719.403 2226.25,657.763 2227.03,574.104 2227.81,485.178 2228.59,404.512 2229.37,342.411 2230.15,305.973 2230.93,299.09 2231.71,322.46 2232.49,373.593 2233.27,446.821 2234.05,533.306 2234.83,621.047 2235.61,694.889 2236.39,736.535 2237.17,727.453 2237.95,674.419 2238.73,596.996 2239.51,511.802 2240.29,432.355 2241.07,369.085 2241.85,329.343 2242.64,317.41 2243.42,334.511 2244.2,378.82 2244.98,445.472 2245.76,526.577 2246.54,611.223 2247.32,685.496 2248.1,732.484 2248.88,733.467 2249.66,689.622 2250.44,619.491 2251.22,539.335 2252,462.475 2252.78,399.302 2253.56,357.294 2254.34,341.022 2255.12,352.165 2255.9,389.522 2256.68,449.023 2257.46,523.744 2258.24,603.916 2259.02,676.94 2259.8,727.4 2260.58,737.401 2261.36,703.015 2262.14,641.022 2262.92,567.098 2263.7,494.164 2264.48,432.405 2265.26,389.279 2266.04,369.536 2266.82,375.223 2267.6,405.708 2268.38,457.687 2269.16,525.202 2269.94,599.652 2270.72,669.813 2271.5,721.846 2272.28,739.347 2273.06,714.343 2273.84,661.087 2274.62,594.434 2275.4,526.702 2275.56,513.609 2275.72,500.962 2275.88,488.829 2276.04,477.273 2276.2,466.351 2276.36,456.118 2276.52,446.623 2276.68,437.911 2277,422.992 2277.32,411.634 2277.48,407.357 2277.64,404.04 2277.8,401.697 2277.96,400.34 2278.12,399.972 2278.28,400.596 2278.44,402.208 2278.6,404.801 2278.76,408.364 2278.92,412.879 2279.08,418.326 2279.24,424.682 2279.56,439.995 2279.88,458.534 2280.2,479.947 2280.52,503.812 2280.84,529.639 2281.16,556.87 2281.48,584.88 2281.8,612.976 2282.12,640.396 2282.44,666.312 2282.76,689.828 2283.08,709.983 2283.24,718.48 2283.4,725.746 2283.56,731.641 2283.72,736.022 2283.88,738.742 2284.04,739.649 2284.2,738.728 2284.36,736.155 2284.52,732.072 2284.68,726.615 2284.84,719.919 2285,712.111 2285.16,703.317 2285.32,693.658 2285.48,683.251 2285.64,672.207 2286.28,623.789 2286.92,573.161 2287.24,548.705 2287.56,525.591 2287.88,504.319 2288.2,485.322 2288.36,476.794 2288.52,468.97 2288.68,461.885 2288.84,455.571 2289.17,445.369 2289.49,438.544 2289.65,436.437 2289.81,435.214 2289.97,434.879 2290.13,435.434 2290.29,436.876 2290.45,439.198 2290.61,442.389 2290.77,446.434 2291.09,457.013 2291.41,470.739 2291.73,487.359 2292.05,506.555 2292.37,527.95 2292.69,551.105 2293.01,575.52 2293.33,600.634 2293.65,625.827 2293.97,650.419 2294.29,673.667 2294.61,694.771 2294.77,704.252 2294.93,712.87 2295.09,720.509 2295.25,727.046 2295.41,732.359 2295.57,736.318 2295.73,738.794 2295.89,739.65 "/>
<path clip-path="url(#clip100)" d="M410.369 1438.47 L865.442 1438.47 L865.442 1334.79 L410.369 1334.79  Z" fill="#ffffff" fill-rule="evenodd" fill-opacity="1"/>
<polyline clip-path="url(#clip100)" style="stroke:#000000; stroke-linecap:round; stroke-linejoin:round; stroke-width:4; stroke-opacity:1; fill:none" points="410.369,1438.47 865.442,1438.47 865.442,1334.79 410.369,1334.79 410.369,1438.47 "/>
<polyline clip-path="url(#clip100)" style="stroke:#009af9; stroke-linecap:round; stroke-linejoin:round; stroke-width:4; stroke-opacity:1; fill:none" points="432.695,1386.63 566.653,1386.63 "/>
<path clip-path="url(#clip100)" d="M612.893 1367.99 Q612.893 1369.28 612.073 1370.07 Q611.277 1370.87 610.27 1370.87 Q609.544 1370.87 609.005 1370.43 Q608.49 1369.98 608.49 1369.21 Q608.49 1368.41 609.099 1367.57 Q609.708 1366.73 611.09 1366.61 Q610.176 1365.74 608.724 1365.74 Q607.998 1365.74 607.389 1366.21 Q606.803 1366.65 606.476 1367.38 Q606.124 1368.13 605.328 1372.37 Q605.07 1373.75 604.836 1375.09 Q604.602 1376.42 604.321 1377.83 L608.302 1377.83 Q608.818 1377.83 609.029 1377.85 Q609.239 1377.87 609.403 1377.99 Q609.591 1378.11 609.591 1378.37 Q609.591 1379.02 609.286 1379.19 Q609.005 1379.33 608.162 1379.33 L604.04 1379.33 L601.159 1394.53 Q601.088 1394.97 600.784 1396.38 Q600.503 1397.76 599.824 1400.03 Q599.144 1402.33 598.465 1403.69 Q598.09 1404.46 597.598 1405.18 Q597.13 1405.93 596.451 1406.68 Q595.771 1407.43 594.881 1407.88 Q593.991 1408.35 593.054 1408.35 Q591.462 1408.35 590.22 1407.46 Q588.979 1406.57 588.979 1405.04 Q588.979 1403.76 589.775 1402.96 Q590.595 1402.16 591.602 1402.16 Q592.328 1402.16 592.844 1402.61 Q593.382 1403.05 593.382 1403.83 Q593.382 1404.15 593.265 1404.53 Q593.148 1404.9 592.891 1405.33 Q592.633 1405.77 592.071 1406.07 Q591.509 1406.38 590.736 1406.43 Q591.649 1407.29 593.054 1407.29 Q593.499 1407.29 593.898 1407.11 Q594.296 1406.94 594.624 1406.52 Q594.975 1406.1 595.233 1405.68 Q595.49 1405.28 595.748 1404.51 Q596.006 1403.76 596.17 1403.19 Q596.334 1402.63 596.544 1401.62 Q596.779 1400.62 596.896 1400.01 Q597.013 1399.42 597.224 1398.28 L600.807 1379.33 L597.645 1379.33 Q597.083 1379.33 596.849 1379.3 Q596.638 1379.28 596.474 1379.16 Q596.31 1379.02 596.31 1378.74 Q596.31 1378.3 596.498 1378.11 Q596.708 1377.9 596.943 1377.87 Q597.177 1377.83 597.739 1377.83 L601.065 1377.83 Q602.189 1371.9 602.634 1370.31 Q603.15 1368.62 603.946 1367.45 Q604.742 1366.26 605.632 1365.69 Q606.522 1365.13 607.248 1364.92 Q607.998 1364.69 608.724 1364.69 Q610.364 1364.69 611.628 1365.58 Q612.893 1366.44 612.893 1367.99 Z" fill="#000000" fill-rule="nonzero" fill-opacity="1" /><path clip-path="url(#clip100)" d="M619.346 1386.52 Q619.346 1378.41 622.367 1371.88 Q623.656 1369.14 625.459 1366.84 Q627.263 1364.55 628.457 1363.54 Q629.652 1362.53 629.98 1362.53 Q630.448 1362.53 630.472 1363 Q630.472 1363.24 629.839 1363.82 Q622.11 1371.69 622.133 1386.52 Q622.133 1401.39 629.652 1408.96 Q630.472 1409.78 630.472 1410.03 Q630.472 1410.5 629.98 1410.5 Q629.652 1410.5 628.504 1409.54 Q627.356 1408.58 625.576 1406.38 Q623.796 1404.18 622.508 1401.48 Q619.346 1394.95 619.346 1386.52 Z" fill="#000000" fill-rule="nonzero" fill-opacity="1" /><path clip-path="url(#clip100)" d="M658.004 1380.47 Q658.004 1381.79 657.185 1382.54 Q656.365 1383.26 655.428 1383.26 Q654.538 1383.26 654.069 1382.75 Q653.601 1382.23 653.601 1381.57 Q653.601 1380.68 654.257 1379.91 Q654.913 1379.14 655.896 1378.98 Q654.936 1378.37 653.507 1378.37 Q652.57 1378.37 651.751 1378.86 Q650.954 1379.35 650.462 1379.98 Q649.994 1380.61 649.572 1381.53 Q649.174 1382.42 649.01 1382.96 Q648.87 1383.47 648.752 1384.03 L647.113 1390.59 Q646.317 1393.71 646.317 1394.81 Q646.317 1396.17 646.972 1397.08 Q647.628 1397.97 648.94 1397.97 Q649.455 1397.97 650.041 1397.83 Q650.626 1397.67 651.376 1397.24 Q652.149 1396.8 652.828 1396.14 Q653.531 1395.46 654.21 1394.32 Q654.889 1393.17 655.334 1391.69 Q655.475 1391.18 655.943 1391.18 Q656.529 1391.18 656.529 1391.65 Q656.529 1392.04 656.201 1392.89 Q655.896 1393.71 655.217 1394.79 Q654.561 1395.84 653.695 1396.8 Q652.828 1397.74 651.54 1398.39 Q650.251 1399.05 648.846 1399.05 Q646.832 1399.05 645.497 1397.97 Q644.162 1396.89 643.67 1395.39 Q643.553 1395.61 643.389 1395.89 Q643.225 1396.17 642.733 1396.8 Q642.264 1397.41 641.726 1397.88 Q641.187 1398.32 640.344 1398.67 Q639.524 1399.05 638.634 1399.05 Q637.51 1399.05 636.503 1398.72 Q635.519 1398.39 634.816 1397.64 Q634.113 1396.89 634.113 1395.86 Q634.113 1394.71 634.886 1393.92 Q635.683 1393.1 636.76 1393.1 Q637.439 1393.1 637.978 1393.5 Q638.54 1393.9 638.54 1394.76 Q638.54 1395.72 637.884 1396.45 Q637.229 1397.17 636.292 1397.36 Q637.252 1397.97 638.681 1397.97 Q640.227 1397.97 641.445 1396.61 Q642.663 1395.25 643.248 1392.98 Q644.7 1387.52 645.263 1385.09 Q645.825 1382.63 645.825 1381.57 Q645.825 1380.59 645.567 1379.91 Q645.309 1379.23 644.864 1378.93 Q644.443 1378.6 644.045 1378.48 Q643.67 1378.37 643.248 1378.37 Q642.546 1378.37 641.749 1378.65 Q640.976 1378.93 640.039 1379.58 Q639.126 1380.22 638.259 1381.53 Q637.393 1382.84 636.807 1384.64 Q636.69 1385.18 636.175 1385.18 Q635.612 1385.16 635.612 1384.69 Q635.612 1384.29 635.917 1383.47 Q636.245 1382.63 636.901 1381.57 Q637.58 1380.52 638.447 1379.58 Q639.337 1378.62 640.625 1377.97 Q641.937 1377.31 643.342 1377.31 Q643.974 1377.31 644.583 1377.45 Q645.216 1377.57 645.965 1377.92 Q646.738 1378.27 647.417 1379.05 Q648.097 1379.82 648.518 1380.94 Q648.799 1380.4 649.174 1379.89 Q649.572 1379.37 650.181 1378.74 Q650.814 1378.09 651.68 1377.71 Q652.57 1377.31 653.554 1377.31 Q654.514 1377.31 655.451 1377.57 Q656.388 1377.8 657.185 1378.58 Q658.004 1379.33 658.004 1380.47 Z" fill="#000000" fill-rule="nonzero" fill-opacity="1" /><path clip-path="url(#clip100)" d="M662.617 1410.03 Q662.617 1409.8 663.226 1409.21 Q670.955 1401.34 670.955 1386.52 Q670.955 1371.64 663.53 1364.13 Q662.617 1363.26 662.617 1363 Q662.617 1362.53 663.085 1362.53 Q663.413 1362.53 664.561 1363.49 Q665.732 1364.45 667.489 1366.65 Q669.269 1368.86 670.58 1371.55 Q673.743 1378.09 673.743 1386.52 Q673.743 1394.62 670.721 1401.16 Q669.433 1403.9 667.629 1406.19 Q665.826 1408.49 664.631 1409.49 Q663.437 1410.5 663.085 1410.5 Q662.617 1410.5 662.617 1410.03 Z" fill="#000000" fill-rule="nonzero" fill-opacity="1" /><path clip-path="url(#clip100)" d="M726.004 1385.84 Q726.285 1386.12 726.285 1386.52 Q726.285 1386.92 726.004 1387.2 Q725.723 1387.48 725.325 1387.48 L695.297 1387.48 Q694.899 1387.48 694.618 1387.2 Q694.337 1386.92 694.337 1386.52 Q694.337 1386.12 694.618 1385.84 Q694.899 1385.56 695.297 1385.56 L725.325 1385.56 Q725.723 1385.56 726.004 1385.84 Z" fill="#000000" fill-rule="nonzero" fill-opacity="1" /><path clip-path="url(#clip100)" d="M776.49 1366.19 Q776.49 1366.33 776.35 1366.89 L749.531 1396.87 L757.729 1396.87 Q760.141 1396.87 761.968 1396.45 Q763.795 1396 765.06 1395.25 Q766.325 1394.5 767.309 1393.22 Q768.316 1391.9 768.972 1390.48 Q769.627 1389.02 770.307 1386.89 Q770.564 1386.07 770.681 1385.88 Q770.799 1385.7 771.103 1385.7 Q771.408 1385.7 771.571 1385.88 Q771.735 1386.05 771.735 1386.24 Q771.735 1386.33 771.689 1386.47 Q771.665 1386.59 771.618 1386.73 Q771.571 1386.87 771.548 1386.94 L768.128 1397.55 Q767.918 1398.23 767.707 1398.37 Q767.496 1398.51 766.653 1398.51 L745.783 1398.51 Q745.057 1398.51 744.823 1398.46 Q744.589 1398.39 744.589 1398.09 L744.776 1397.22 L771.595 1367.24 L763.772 1367.24 Q761.57 1367.24 759.837 1367.64 Q758.127 1368.01 756.909 1368.72 Q755.691 1369.4 754.754 1370.54 Q753.817 1371.67 753.185 1372.98 Q752.552 1374.27 751.967 1376.07 L751.897 1376.19 Q751.826 1376.3 751.779 1376.38 Q751.733 1376.42 751.616 1376.49 Q751.498 1376.54 751.358 1376.54 Q751.1 1376.54 750.936 1376.4 Q750.796 1376.26 750.796 1376.12 L750.772 1376 Q750.819 1375.58 750.913 1375.34 L753.56 1366.7 Q753.77 1366.02 753.981 1365.88 Q754.192 1365.74 755.035 1365.74 L775.296 1365.74 Q776.045 1365.74 776.256 1365.81 Q776.49 1365.88 776.49 1366.19 Z" fill="#000000" fill-rule="nonzero" fill-opacity="1" /><path clip-path="url(#clip100)" d="M781.429 1386.52 Q781.429 1378.41 784.451 1371.88 Q785.739 1369.14 787.542 1366.84 Q789.346 1364.55 790.54 1363.54 Q791.735 1362.53 792.063 1362.53 Q792.531 1362.53 792.555 1363 Q792.555 1363.24 791.922 1363.82 Q784.193 1371.69 784.216 1386.52 Q784.216 1401.39 791.735 1408.96 Q792.555 1409.78 792.555 1410.03 Q792.555 1410.5 792.063 1410.5 Q791.735 1410.5 790.587 1409.54 Q789.44 1408.58 787.659 1406.38 Q785.879 1404.18 784.591 1401.48 Q781.429 1394.95 781.429 1386.52 Z" fill="#000000" fill-rule="nonzero" fill-opacity="1" /><path clip-path="url(#clip100)" d="M820.088 1380.47 Q820.088 1381.79 819.268 1382.54 Q818.448 1383.26 817.511 1383.26 Q816.621 1383.26 816.153 1382.75 Q815.684 1382.23 815.684 1381.57 Q815.684 1380.68 816.34 1379.91 Q816.996 1379.14 817.98 1378.98 Q817.019 1378.37 815.59 1378.37 Q814.654 1378.37 813.834 1378.86 Q813.037 1379.35 812.546 1379.98 Q812.077 1380.61 811.655 1381.53 Q811.257 1382.42 811.093 1382.96 Q810.953 1383.47 810.836 1384.03 L809.196 1390.59 Q808.4 1393.71 808.4 1394.81 Q808.4 1396.17 809.056 1397.08 Q809.711 1397.97 811.023 1397.97 Q811.538 1397.97 812.124 1397.83 Q812.709 1397.67 813.459 1397.24 Q814.232 1396.8 814.911 1396.14 Q815.614 1395.46 816.293 1394.32 Q816.972 1393.17 817.417 1391.69 Q817.558 1391.18 818.026 1391.18 Q818.612 1391.18 818.612 1391.65 Q818.612 1392.04 818.284 1392.89 Q817.98 1393.71 817.3 1394.79 Q816.644 1395.84 815.778 1396.8 Q814.911 1397.74 813.623 1398.39 Q812.335 1399.05 810.929 1399.05 Q808.915 1399.05 807.58 1397.97 Q806.245 1396.89 805.753 1395.39 Q805.636 1395.61 805.472 1395.89 Q805.308 1396.17 804.816 1396.8 Q804.348 1397.41 803.809 1397.88 Q803.27 1398.32 802.427 1398.67 Q801.607 1399.05 800.717 1399.05 Q799.593 1399.05 798.586 1398.72 Q797.602 1398.39 796.899 1397.64 Q796.197 1396.89 796.197 1395.86 Q796.197 1394.71 796.97 1393.92 Q797.766 1393.1 798.843 1393.1 Q799.523 1393.1 800.061 1393.5 Q800.623 1393.9 800.623 1394.76 Q800.623 1395.72 799.968 1396.45 Q799.312 1397.17 798.375 1397.36 Q799.335 1397.97 800.764 1397.97 Q802.31 1397.97 803.528 1396.61 Q804.746 1395.25 805.331 1392.98 Q806.784 1387.52 807.346 1385.09 Q807.908 1382.63 807.908 1381.57 Q807.908 1380.59 807.65 1379.91 Q807.393 1379.23 806.948 1378.93 Q806.526 1378.6 806.128 1378.48 Q805.753 1378.37 805.331 1378.37 Q804.629 1378.37 803.832 1378.65 Q803.059 1378.93 802.123 1379.58 Q801.209 1380.22 800.342 1381.53 Q799.476 1382.84 798.89 1384.64 Q798.773 1385.18 798.258 1385.18 Q797.696 1385.16 797.696 1384.69 Q797.696 1384.29 798 1383.47 Q798.328 1382.63 798.984 1381.57 Q799.663 1380.52 800.53 1379.58 Q801.42 1378.62 802.708 1377.97 Q804.02 1377.31 805.425 1377.31 Q806.057 1377.31 806.666 1377.45 Q807.299 1377.57 808.048 1377.92 Q808.821 1378.27 809.501 1379.05 Q810.18 1379.82 810.601 1380.94 Q810.883 1380.4 811.257 1379.89 Q811.655 1379.37 812.264 1378.74 Q812.897 1378.09 813.763 1377.71 Q814.654 1377.31 815.637 1377.31 Q816.598 1377.31 817.534 1377.57 Q818.471 1377.8 819.268 1378.58 Q820.088 1379.33 820.088 1380.47 Z" fill="#000000" fill-rule="nonzero" fill-opacity="1" /><path clip-path="url(#clip100)" d="M824.7 1410.03 Q824.7 1409.8 825.309 1409.21 Q833.038 1401.34 833.038 1386.52 Q833.038 1371.64 825.614 1364.13 Q824.7 1363.26 824.7 1363 Q824.7 1362.53 825.169 1362.53 Q825.496 1362.53 826.644 1363.49 Q827.815 1364.45 829.572 1366.65 Q831.352 1368.86 832.664 1371.55 Q835.826 1378.09 835.826 1386.52 Q835.826 1394.62 832.804 1401.16 Q831.516 1403.9 829.712 1406.19 Q827.909 1408.49 826.714 1409.49 Q825.52 1410.5 825.169 1410.5 Q824.7 1410.5 824.7 1410.03 Z" fill="#000000" fill-rule="nonzero" fill-opacity="1" /></svg>
