<?xml version="1.0" encoding="utf-8"?>
<svg xmlns="http://www.w3.org/2000/svg" xmlns:xlink="http://www.w3.org/1999/xlink" width="600" height="400" viewBox="0 0 2400 1600">
<defs>
  <clipPath id="clip460">
    <rect x="0" y="0" width="2400" height="1600"/>
  </clipPath>
</defs>
<path clip-path="url(#clip460)" d="M0 1600 L2400 1600 L2400 0 L0 0  Z" fill="#ffffff" fill-rule="evenodd" fill-opacity="1"/>
<defs>
  <clipPath id="clip461">
    <rect x="480" y="0" width="1681" height="1600"/>
  </clipPath>
</defs>
<path clip-path="url(#clip460)" d="M209.029 1486.45 L2352.76 1486.45 L2352.76 47.2441 L209.029 47.2441  Z" fill="#ffffff" fill-rule="evenodd" fill-opacity="1"/>
<defs>
  <clipPath id="clip462">
    <rect x="209" y="47" width="2145" height="1440"/>
  </clipPath>
</defs>
<polyline clip-path="url(#clip462)" style="stroke:#000000; stroke-linecap:round; stroke-linejoin:round; stroke-width:2; stroke-opacity:0.1; fill:none" points="269.7,1486.45 269.7,47.2441 "/>
<polyline clip-path="url(#clip462)" style="stroke:#000000; stroke-linecap:round; stroke-linejoin:round; stroke-width:2; stroke-opacity:0.1; fill:none" points="674.177,1486.45 674.177,47.2441 "/>
<polyline clip-path="url(#clip462)" style="stroke:#000000; stroke-linecap:round; stroke-linejoin:round; stroke-width:2; stroke-opacity:0.1; fill:none" points="1078.65,1486.45 1078.65,47.2441 "/>
<polyline clip-path="url(#clip462)" style="stroke:#000000; stroke-linecap:round; stroke-linejoin:round; stroke-width:2; stroke-opacity:0.1; fill:none" points="1483.13,1486.45 1483.13,47.2441 "/>
<polyline clip-path="url(#clip462)" style="stroke:#000000; stroke-linecap:round; stroke-linejoin:round; stroke-width:2; stroke-opacity:0.1; fill:none" points="1887.61,1486.45 1887.61,47.2441 "/>
<polyline clip-path="url(#clip462)" style="stroke:#000000; stroke-linecap:round; stroke-linejoin:round; stroke-width:2; stroke-opacity:0.1; fill:none" points="2292.08,1486.45 2292.08,47.2441 "/>
<polyline clip-path="url(#clip460)" style="stroke:#000000; stroke-linecap:round; stroke-linejoin:round; stroke-width:4; stroke-opacity:1; fill:none" points="209.029,1486.45 2352.76,1486.45 "/>
<polyline clip-path="url(#clip460)" style="stroke:#000000; stroke-linecap:round; stroke-linejoin:round; stroke-width:4; stroke-opacity:1; fill:none" points="269.7,1486.45 269.7,1467.55 "/>
<polyline clip-path="url(#clip460)" style="stroke:#000000; stroke-linecap:round; stroke-linejoin:round; stroke-width:4; stroke-opacity:1; fill:none" points="674.177,1486.45 674.177,1467.55 "/>
<polyline clip-path="url(#clip460)" style="stroke:#000000; stroke-linecap:round; stroke-linejoin:round; stroke-width:4; stroke-opacity:1; fill:none" points="1078.65,1486.45 1078.65,1467.55 "/>
<polyline clip-path="url(#clip460)" style="stroke:#000000; stroke-linecap:round; stroke-linejoin:round; stroke-width:4; stroke-opacity:1; fill:none" points="1483.13,1486.45 1483.13,1467.55 "/>
<polyline clip-path="url(#clip460)" style="stroke:#000000; stroke-linecap:round; stroke-linejoin:round; stroke-width:4; stroke-opacity:1; fill:none" points="1887.61,1486.45 1887.61,1467.55 "/>
<polyline clip-path="url(#clip460)" style="stroke:#000000; stroke-linecap:round; stroke-linejoin:round; stroke-width:4; stroke-opacity:1; fill:none" points="2292.08,1486.45 2292.08,1467.55 "/>
<path clip-path="url(#clip460)" d="M269.7 1517.37 Q266.089 1517.37 264.26 1520.93 Q262.455 1524.47 262.455 1531.6 Q262.455 1538.71 264.26 1542.27 Q266.089 1545.82 269.7 1545.82 Q273.334 1545.82 275.14 1542.27 Q276.969 1538.71 276.969 1531.6 Q276.969 1524.47 275.14 1520.93 Q273.334 1517.37 269.7 1517.37 M269.7 1513.66 Q275.51 1513.66 278.566 1518.27 Q281.644 1522.85 281.644 1531.6 Q281.644 1540.33 278.566 1544.94 Q275.51 1549.52 269.7 1549.52 Q263.89 1549.52 260.811 1544.94 Q257.756 1540.33 257.756 1531.6 Q257.756 1522.85 260.811 1518.27 Q263.89 1513.66 269.7 1513.66 Z" fill="#000000" fill-rule="nonzero" fill-opacity="1" /><path clip-path="url(#clip460)" d="M664.559 1544.91 L672.198 1544.91 L672.198 1518.55 L663.888 1520.21 L663.888 1515.95 L672.151 1514.29 L676.827 1514.29 L676.827 1544.91 L684.466 1544.91 L684.466 1548.85 L664.559 1548.85 L664.559 1544.91 Z" fill="#000000" fill-rule="nonzero" fill-opacity="1" /><path clip-path="url(#clip460)" d="M1073.31 1544.91 L1089.63 1544.91 L1089.63 1548.85 L1067.68 1548.85 L1067.68 1544.91 Q1070.34 1542.16 1074.93 1537.53 Q1079.53 1532.88 1080.71 1531.53 Q1082.96 1529.01 1083.84 1527.27 Q1084.74 1525.51 1084.74 1523.82 Q1084.74 1521.07 1082.8 1519.33 Q1080.88 1517.6 1077.77 1517.6 Q1075.58 1517.6 1073.12 1518.36 Q1070.69 1519.13 1067.91 1520.68 L1067.91 1515.95 Q1070.74 1514.82 1073.19 1514.24 Q1075.64 1513.66 1077.68 1513.66 Q1083.05 1513.66 1086.25 1516.35 Q1089.44 1519.03 1089.44 1523.52 Q1089.44 1525.65 1088.63 1527.57 Q1087.84 1529.47 1085.74 1532.07 Q1085.16 1532.74 1082.06 1535.95 Q1078.95 1539.15 1073.31 1544.91 Z" fill="#000000" fill-rule="nonzero" fill-opacity="1" /><path clip-path="url(#clip460)" d="M1487.38 1530.21 Q1490.73 1530.93 1492.61 1533.2 Q1494.51 1535.47 1494.51 1538.8 Q1494.51 1543.92 1490.99 1546.72 Q1487.47 1549.52 1480.99 1549.52 Q1478.81 1549.52 1476.5 1549.08 Q1474.21 1548.66 1471.75 1547.81 L1471.75 1543.29 Q1473.7 1544.43 1476.01 1545.01 Q1478.33 1545.58 1480.85 1545.58 Q1485.25 1545.58 1487.54 1543.85 Q1489.86 1542.11 1489.86 1538.8 Q1489.86 1535.75 1487.7 1534.03 Q1485.57 1532.3 1481.75 1532.3 L1477.73 1532.3 L1477.73 1528.45 L1481.94 1528.45 Q1485.39 1528.45 1487.22 1527.09 Q1489.04 1525.7 1489.04 1523.11 Q1489.04 1520.45 1487.15 1519.03 Q1485.27 1517.6 1481.75 1517.6 Q1479.83 1517.6 1477.63 1518.01 Q1475.43 1518.43 1472.8 1519.31 L1472.8 1515.14 Q1475.46 1514.4 1477.77 1514.03 Q1480.11 1513.66 1482.17 1513.66 Q1487.49 1513.66 1490.6 1516.09 Q1493.7 1518.5 1493.7 1522.62 Q1493.7 1525.49 1492.05 1527.48 Q1490.41 1529.45 1487.38 1530.21 Z" fill="#000000" fill-rule="nonzero" fill-opacity="1" /><path clip-path="url(#clip460)" d="M1890.62 1518.36 L1878.81 1536.81 L1890.62 1536.81 L1890.62 1518.36 M1889.39 1514.29 L1895.27 1514.29 L1895.27 1536.81 L1900.2 1536.81 L1900.2 1540.7 L1895.27 1540.7 L1895.27 1548.85 L1890.62 1548.85 L1890.62 1540.7 L1875.01 1540.7 L1875.01 1536.19 L1889.39 1514.29 Z" fill="#000000" fill-rule="nonzero" fill-opacity="1" /><path clip-path="url(#clip460)" d="M2282.36 1514.29 L2300.72 1514.29 L2300.72 1518.22 L2286.64 1518.22 L2286.64 1526.7 Q2287.66 1526.35 2288.68 1526.19 Q2289.7 1526 2290.72 1526 Q2296.51 1526 2299.89 1529.17 Q2303.26 1532.34 2303.26 1537.76 Q2303.26 1543.34 2299.79 1546.44 Q2296.32 1549.52 2290 1549.52 Q2287.83 1549.52 2285.56 1549.15 Q2283.31 1548.78 2280.9 1548.04 L2280.9 1543.34 Q2282.99 1544.47 2285.21 1545.03 Q2287.43 1545.58 2289.91 1545.58 Q2293.91 1545.58 2296.25 1543.48 Q2298.59 1541.37 2298.59 1537.76 Q2298.59 1534.15 2296.25 1532.04 Q2293.91 1529.94 2289.91 1529.94 Q2288.03 1529.94 2286.16 1530.35 Q2284.31 1530.77 2282.36 1531.65 L2282.36 1514.29 Z" fill="#000000" fill-rule="nonzero" fill-opacity="1" /><polyline clip-path="url(#clip462)" style="stroke:#000000; stroke-linecap:round; stroke-linejoin:round; stroke-width:2; stroke-opacity:0.1; fill:none" points="209.029,1467.63 2352.76,1467.63 "/>
<polyline clip-path="url(#clip462)" style="stroke:#000000; stroke-linecap:round; stroke-linejoin:round; stroke-width:2; stroke-opacity:0.1; fill:none" points="209.029,1103.6 2352.76,1103.6 "/>
<polyline clip-path="url(#clip462)" style="stroke:#000000; stroke-linecap:round; stroke-linejoin:round; stroke-width:2; stroke-opacity:0.1; fill:none" points="209.029,739.566 2352.76,739.566 "/>
<polyline clip-path="url(#clip462)" style="stroke:#000000; stroke-linecap:round; stroke-linejoin:round; stroke-width:2; stroke-opacity:0.1; fill:none" points="209.029,375.533 2352.76,375.533 "/>
<polyline clip-path="url(#clip460)" style="stroke:#000000; stroke-linecap:round; stroke-linejoin:round; stroke-width:4; stroke-opacity:1; fill:none" points="209.029,1486.45 209.029,47.2441 "/>
<polyline clip-path="url(#clip460)" style="stroke:#000000; stroke-linecap:round; stroke-linejoin:round; stroke-width:4; stroke-opacity:1; fill:none" points="209.029,1467.63 227.926,1467.63 "/>
<polyline clip-path="url(#clip460)" style="stroke:#000000; stroke-linecap:round; stroke-linejoin:round; stroke-width:4; stroke-opacity:1; fill:none" points="209.029,1103.6 227.926,1103.6 "/>
<polyline clip-path="url(#clip460)" style="stroke:#000000; stroke-linecap:round; stroke-linejoin:round; stroke-width:4; stroke-opacity:1; fill:none" points="209.029,739.566 227.926,739.566 "/>
<polyline clip-path="url(#clip460)" style="stroke:#000000; stroke-linecap:round; stroke-linejoin:round; stroke-width:4; stroke-opacity:1; fill:none" points="209.029,375.533 227.926,375.533 "/>
<path clip-path="url(#clip460)" d="M50.9921 1468.08 L80.6679 1468.08 L80.6679 1472.02 L50.9921 1472.02 L50.9921 1468.08 Z" fill="#000000" fill-rule="nonzero" fill-opacity="1" /><path clip-path="url(#clip460)" d="M91.5706 1480.98 L99.2095 1480.98 L99.2095 1454.61 L90.8993 1456.28 L90.8993 1452.02 L99.1632 1450.35 L103.839 1450.35 L103.839 1480.98 L111.478 1480.98 L111.478 1484.91 L91.5706 1484.91 L91.5706 1480.98 Z" fill="#000000" fill-rule="nonzero" fill-opacity="1" /><path clip-path="url(#clip460)" d="M130.922 1453.43 Q127.311 1453.43 125.482 1456.99 Q123.677 1460.54 123.677 1467.66 Q123.677 1474.77 125.482 1478.34 Q127.311 1481.88 130.922 1481.88 Q134.556 1481.88 136.362 1478.34 Q138.191 1474.77 138.191 1467.66 Q138.191 1460.54 136.362 1456.99 Q134.556 1453.43 130.922 1453.43 M130.922 1449.73 Q136.732 1449.73 139.788 1454.33 Q142.867 1458.92 142.867 1467.66 Q142.867 1476.39 139.788 1481 Q136.732 1485.58 130.922 1485.58 Q125.112 1485.58 122.033 1481 Q118.978 1476.39 118.978 1467.66 Q118.978 1458.92 122.033 1454.33 Q125.112 1449.73 130.922 1449.73 Z" fill="#000000" fill-rule="nonzero" fill-opacity="1" /><path clip-path="url(#clip460)" d="M161.084 1453.43 Q157.473 1453.43 155.644 1456.99 Q153.839 1460.54 153.839 1467.66 Q153.839 1474.77 155.644 1478.34 Q157.473 1481.88 161.084 1481.88 Q164.718 1481.88 166.524 1478.34 Q168.353 1474.77 168.353 1467.66 Q168.353 1460.54 166.524 1456.99 Q164.718 1453.43 161.084 1453.43 M161.084 1449.73 Q166.894 1449.73 169.95 1454.33 Q173.029 1458.92 173.029 1467.66 Q173.029 1476.39 169.95 1481 Q166.894 1485.58 161.084 1485.58 Q155.274 1485.58 152.195 1481 Q149.14 1476.39 149.14 1467.66 Q149.14 1458.92 152.195 1454.33 Q155.274 1449.73 161.084 1449.73 Z" fill="#000000" fill-rule="nonzero" fill-opacity="1" /><path clip-path="url(#clip460)" d="M81.154 1104.05 L110.83 1104.05 L110.83 1107.98 L81.154 1107.98 L81.154 1104.05 Z" fill="#000000" fill-rule="nonzero" fill-opacity="1" /><path clip-path="url(#clip460)" d="M120.969 1086.32 L139.325 1086.32 L139.325 1090.25 L125.251 1090.25 L125.251 1098.73 Q126.27 1098.38 127.288 1098.22 Q128.307 1098.03 129.325 1098.03 Q135.112 1098.03 138.492 1101.2 Q141.871 1104.37 141.871 1109.79 Q141.871 1115.37 138.399 1118.47 Q134.927 1121.55 128.607 1121.55 Q126.432 1121.55 124.163 1121.18 Q121.918 1120.81 119.51 1120.07 L119.51 1115.37 Q121.594 1116.5 123.816 1117.06 Q126.038 1117.61 128.515 1117.61 Q132.519 1117.61 134.857 1115.51 Q137.195 1113.4 137.195 1109.79 Q137.195 1106.18 134.857 1104.07 Q132.519 1101.97 128.515 1101.97 Q126.64 1101.97 124.765 1102.38 Q122.913 1102.8 120.969 1103.68 L120.969 1086.32 Z" fill="#000000" fill-rule="nonzero" fill-opacity="1" /><path clip-path="url(#clip460)" d="M161.084 1089.4 Q157.473 1089.4 155.644 1092.96 Q153.839 1096.5 153.839 1103.63 Q153.839 1110.74 155.644 1114.3 Q157.473 1117.85 161.084 1117.85 Q164.718 1117.85 166.524 1114.3 Q168.353 1110.74 168.353 1103.63 Q168.353 1096.5 166.524 1092.96 Q164.718 1089.4 161.084 1089.4 M161.084 1085.69 Q166.894 1085.69 169.95 1090.3 Q173.029 1094.88 173.029 1103.63 Q173.029 1112.36 169.95 1116.97 Q166.894 1121.55 161.084 1121.55 Q155.274 1121.55 152.195 1116.97 Q149.14 1112.36 149.14 1103.63 Q149.14 1094.88 152.195 1090.3 Q155.274 1085.69 161.084 1085.69 Z" fill="#000000" fill-rule="nonzero" fill-opacity="1" /><path clip-path="url(#clip460)" d="M161.084 725.364 Q157.473 725.364 155.644 728.929 Q153.839 732.471 153.839 739.6 Q153.839 746.707 155.644 750.272 Q157.473 753.813 161.084 753.813 Q164.718 753.813 166.524 750.272 Q168.353 746.707 168.353 739.6 Q168.353 732.471 166.524 728.929 Q164.718 725.364 161.084 725.364 M161.084 721.661 Q166.894 721.661 169.95 726.267 Q173.029 730.85 173.029 739.6 Q173.029 748.327 169.95 752.934 Q166.894 757.517 161.084 757.517 Q155.274 757.517 152.195 752.934 Q149.14 748.327 149.14 739.6 Q149.14 730.85 152.195 726.267 Q155.274 721.661 161.084 721.661 Z" fill="#000000" fill-rule="nonzero" fill-opacity="1" /><path clip-path="url(#clip460)" d="M120.969 358.253 L139.325 358.253 L139.325 362.188 L125.251 362.188 L125.251 370.661 Q126.27 370.313 127.288 370.151 Q128.307 369.966 129.325 369.966 Q135.112 369.966 138.492 373.138 Q141.871 376.309 141.871 381.725 Q141.871 387.304 138.399 390.406 Q134.927 393.485 128.607 393.485 Q126.432 393.485 124.163 393.114 Q121.918 392.744 119.51 392.003 L119.51 387.304 Q121.594 388.438 123.816 388.994 Q126.038 389.549 128.515 389.549 Q132.519 389.549 134.857 387.443 Q137.195 385.337 137.195 381.725 Q137.195 378.114 134.857 376.008 Q132.519 373.901 128.515 373.901 Q126.64 373.901 124.765 374.318 Q122.913 374.735 120.969 375.614 L120.969 358.253 Z" fill="#000000" fill-rule="nonzero" fill-opacity="1" /><path clip-path="url(#clip460)" d="M161.084 361.332 Q157.473 361.332 155.644 364.897 Q153.839 368.438 153.839 375.568 Q153.839 382.674 155.644 386.239 Q157.473 389.781 161.084 389.781 Q164.718 389.781 166.524 386.239 Q168.353 382.674 168.353 375.568 Q168.353 368.438 166.524 364.897 Q164.718 361.332 161.084 361.332 M161.084 357.628 Q166.894 357.628 169.95 362.235 Q173.029 366.818 173.029 375.568 Q173.029 384.295 169.95 388.901 Q166.894 393.485 161.084 393.485 Q155.274 393.485 152.195 388.901 Q149.14 384.295 149.14 375.568 Q149.14 366.818 152.195 362.235 Q155.274 357.628 161.084 357.628 Z" fill="#000000" fill-rule="nonzero" fill-opacity="1" /><polyline clip-path="url(#clip462)" style="stroke:#009af9; stroke-linecap:round; stroke-linejoin:round; stroke-width:4; stroke-opacity:1; fill:none" points="269.7,623.075 272.992,608.694 276.283,594.352 279.575,580.059 282.867,565.821 298.085,500.978 313.303,438.357 320.913,408.133 328.522,378.764 336.131,350.348 343.74,322.975 351.349,296.737 358.958,271.719 366.567,248.005 374.177,225.673 381.786,204.799 389.395,185.452 397.004,167.698 404.613,151.599 413.759,134.517 422.904,119.993 432.05,108.102 441.195,98.9093 450.341,92.4661 459.487,88.8126 468.632,87.9763 477.778,89.9721 485.51,93.871 493.243,99.7905 500.975,107.718 508.707,117.636 516.44,129.517 524.172,143.332 531.905,159.041 539.637,176.603 548.037,197.718 556.436,220.888 564.836,246.032 573.236,273.062 581.635,301.886 590.035,332.4 598.435,364.497 606.834,398.064 614.578,430.207 622.322,463.399 630.065,497.539 637.809,532.522 653.296,604.583 668.784,678.697 685.388,759.392 701.992,840.243 718.596,920.096 735.2,997.805 744.819,1041.4 754.438,1083.69 764.057,1124.48 773.675,1163.56 783.294,1200.74 792.913,1235.85 802.532,1268.71 812.15,1299.17 820.698,1324.1 829.246,1346.92 837.794,1367.54 846.342,1385.88 854.89,1401.88 863.438,1415.46 871.986,1426.59 880.534,1435.21 888.03,1440.68 895.526,1444.19 903.022,1445.72 910.518,1445.26 918.014,1442.83 925.509,1438.42 933.005,1432.05 940.501,1423.73 948.674,1412.49 956.846,1399 965.019,1383.33 973.191,1365.51 981.363,1345.62 989.536,1323.73 997.708,1299.9 1005.88,1274.24 1014.1,1246.65 1022.32,1217.38 1030.54,1186.53 1038.77,1154.22 1046.99,1120.56 1055.21,1085.67 1063.43,1049.66 1071.65,1012.68 1089.83,928.062 1108.01,840.741 1126.19,752.215 1144.36,663.998 1161.66,581.725 1178.96,502.362 1187.61,464.155 1196.25,427.127 1204.9,391.418 1213.55,357.165 1222.54,323.232 1231.54,291.15 1240.53,261.05 1249.52,233.053 1258.51,207.27 1267.51,183.803 1276.5,162.744 1285.49,144.174 1293.06,130.525 1300.63,118.724 1308.2,108.804 1315.77,100.788 1323.34,94.6939 1330.91,90.5349 1338.48,88.3173 1346.05,88.0414 1355.29,90.3287 1364.53,95.48 1373.77,103.46 1383.01,114.222 1392.25,127.703 1401.5,143.833 1410.74,162.525 1419.98,183.684 1428.45,205.141 1436.91,228.486 1445.38,253.624 1453.84,280.45 1462.31,308.853 1470.77,338.717 1479.24,369.922 1487.71,402.34 1503.34,464.968 1518.98,530.431 1534.62,597.841 1550.26,666.286 1566.1,735.733 1581.94,804.349 1597.78,871.198 1613.62,935.376 1622.5,969.847 1631.37,1003.06 1640.25,1034.88 1649.13,1065.18 1658,1093.82 1666.88,1120.7 1675.76,1145.69 1684.63,1168.71 1692.68,1187.78 1700.72,1205.08 1708.76,1220.57 1716.81,1234.2 1724.85,1245.91 1732.89,1255.68 1740.94,1263.48 1748.98,1269.29 1758.19,1273.49 1767.4,1275.05 1776.61,1273.98 1785.82,1270.3 1795.03,1264.04 1804.24,1255.25 1813.44,1243.96 1822.65,1230.26 1831.18,1215.49 1839.71,1198.78 1848.23,1180.21 1856.76,1159.86 1865.29,1137.83 1873.82,1114.22 1882.34,1089.13 1890.87,1062.68 1907.68,1006.96 1924.5,947.341 1941.31,884.816 1958.12,820.438 1974.45,757.176 1990.77,694.171 2007.09,632.41 2023.42,572.853 2031.79,543.484 2040.15,515.058 2048.52,487.692 2056.89,461.497 2065.25,436.581 2073.62,413.043 2081.99,390.981 2090.36,370.483 2099.52,349.921 2108.69,331.438 2117.86,315.123 2127.02,301.057 2136.19,289.307 2145.36,279.932 2154.53,272.976 2163.69,268.474 2170.35,266.755 2177.01,266.347 2183.67,267.251 2190.33,269.464 2196.99,272.98 2203.64,277.792 2210.3,283.885 2216.96,291.246 2223.62,299.854 2230.28,309.687 2236.94,320.721 2243.59,332.927 2250.25,346.274 2256.91,360.726 2263.57,376.248 2270.23,392.799 2275.69,407.12 2281.16,422.08 2286.62,437.653 2292.08,453.814 "/>
<path clip-path="url(#clip460)" d="M1695.76 237.474 L2281.3 237.474 L2281.3 95.2176 L1695.76 95.2176  Z" fill="#ffffff" fill-rule="evenodd" fill-opacity="1"/>
<polyline clip-path="url(#clip460)" style="stroke:#000000; stroke-linecap:round; stroke-linejoin:round; stroke-width:4; stroke-opacity:1; fill:none" points="1695.76,237.474 2281.3,237.474 2281.3,95.2176 1695.76,95.2176 1695.76,237.474 "/>
<polyline clip-path="url(#clip460)" style="stroke:#009af9; stroke-linecap:round; stroke-linejoin:round; stroke-width:4; stroke-opacity:1; fill:none" points="1719.58,166.346 1862.49,166.346 "/>
<path clip-path="url(#clip460)" d="M1901.91 159.549 L1890.11 177.998 L1901.91 177.998 L1901.91 159.549 M1900.68 155.475 L1906.56 155.475 L1906.56 177.998 L1911.49 177.998 L1911.49 181.887 L1906.56 181.887 L1906.56 190.035 L1901.91 190.035 L1901.91 181.887 L1886.31 181.887 L1886.31 177.373 L1900.68 155.475 Z" fill="#000000" fill-rule="nonzero" fill-opacity="1" /><path clip-path="url(#clip460)" d="M1919.23 184.155 L1924.11 184.155 L1924.11 190.035 L1919.23 190.035 L1919.23 184.155 Z" fill="#000000" fill-rule="nonzero" fill-opacity="1" /><path clip-path="url(#clip460)" d="M1958.81 167.095 Q1955.38 167.095 1953.39 169.78 Q1951.4 172.442 1951.4 177.095 Q1951.4 181.748 1953.37 184.433 Q1955.36 187.095 1958.81 187.095 Q1962.21 187.095 1964.2 184.41 Q1966.19 181.725 1966.19 177.095 Q1966.19 172.489 1964.2 169.803 Q1962.21 167.095 1958.81 167.095 M1958.81 163.484 Q1964.37 163.484 1967.54 167.095 Q1970.71 170.706 1970.71 177.095 Q1970.71 183.461 1967.54 187.095 Q1964.37 190.706 1958.81 190.706 Q1953.23 190.706 1950.06 187.095 Q1946.91 183.461 1946.91 177.095 Q1946.91 170.706 1950.06 167.095 Q1953.23 163.484 1958.81 163.484 Z" fill="#000000" fill-rule="nonzero" fill-opacity="1" /><path clip-path="url(#clip460)" d="M1994.83 168.044 L1994.83 154.016 L1999.09 154.016 L1999.09 190.035 L1994.83 190.035 L1994.83 186.146 Q1993.49 188.461 1991.43 189.595 Q1989.39 190.706 1986.52 190.706 Q1981.82 190.706 1978.86 186.956 Q1975.92 183.206 1975.92 177.095 Q1975.92 170.984 1978.86 167.234 Q1981.82 163.484 1986.52 163.484 Q1989.39 163.484 1991.43 164.618 Q1993.49 165.729 1994.83 168.044 M1980.31 177.095 Q1980.31 181.794 1982.24 184.479 Q1984.18 187.141 1987.56 187.141 Q1990.94 187.141 1992.88 184.479 Q1994.83 181.794 1994.83 177.095 Q1994.83 172.396 1992.88 169.734 Q1990.94 167.049 1987.56 167.049 Q1984.18 167.049 1982.24 169.734 Q1980.31 172.396 1980.31 177.095 Z" fill="#000000" fill-rule="nonzero" fill-opacity="1" /><path clip-path="url(#clip460)" d="M2004.8 164.109 L2009.32 164.109 L2017.42 185.868 L2025.52 164.109 L2030.04 164.109 L2020.31 190.035 L2014.53 190.035 L2004.8 164.109 Z" fill="#000000" fill-rule="nonzero" fill-opacity="1" /><path clip-path="url(#clip460)" d="M2045.96 167.095 Q2042.54 167.095 2040.55 169.78 Q2038.55 172.442 2038.55 177.095 Q2038.55 181.748 2040.52 184.433 Q2042.51 187.095 2045.96 187.095 Q2049.36 187.095 2051.36 184.41 Q2053.35 181.725 2053.35 177.095 Q2053.35 172.489 2051.36 169.803 Q2049.36 167.095 2045.96 167.095 M2045.96 163.484 Q2051.52 163.484 2054.69 167.095 Q2057.86 170.706 2057.86 177.095 Q2057.86 183.461 2054.69 187.095 Q2051.52 190.706 2045.96 190.706 Q2040.38 190.706 2037.21 187.095 Q2034.06 183.461 2034.06 177.095 Q2034.06 170.706 2037.21 167.095 Q2040.38 163.484 2045.96 163.484 Z" fill="#000000" fill-rule="nonzero" fill-opacity="1" /><path clip-path="url(#clip460)" d="M2081.98 168.044 L2081.98 154.016 L2086.24 154.016 L2086.24 190.035 L2081.98 190.035 L2081.98 186.146 Q2080.64 188.461 2078.58 189.595 Q2076.54 190.706 2073.67 190.706 Q2068.97 190.706 2066.01 186.956 Q2063.07 183.206 2063.07 177.095 Q2063.07 170.984 2066.01 167.234 Q2068.97 163.484 2073.67 163.484 Q2076.54 163.484 2078.58 164.618 Q2080.64 165.729 2081.98 168.044 M2067.47 177.095 Q2067.47 181.794 2069.39 184.479 Q2071.33 187.141 2074.71 187.141 Q2078.09 187.141 2080.04 184.479 Q2081.98 181.794 2081.98 177.095 Q2081.98 172.396 2080.04 169.734 Q2078.09 167.049 2074.71 167.049 Q2071.33 167.049 2069.39 169.734 Q2067.47 172.396 2067.47 177.095 Z" fill="#000000" fill-rule="nonzero" fill-opacity="1" /><path clip-path="url(#clip460)" d="M2144.6 159.515 Q2144.6 160.804 2143.78 161.6 Q2142.98 162.396 2141.97 162.396 Q2141.25 162.396 2140.71 161.951 Q2140.19 161.506 2140.19 160.733 Q2140.19 159.937 2140.8 159.094 Q2141.41 158.25 2142.79 158.133 Q2141.88 157.267 2140.43 157.267 Q2139.7 157.267 2139.09 157.735 Q2138.51 158.18 2138.18 158.906 Q2137.83 159.656 2137.03 163.895 Q2136.77 165.277 2136.54 166.612 Q2136.31 167.947 2136.03 169.353 L2140.01 169.353 Q2140.52 169.353 2140.73 169.376 Q2140.94 169.4 2141.11 169.517 Q2141.3 169.634 2141.3 169.891 Q2141.3 170.547 2140.99 170.711 Q2140.71 170.852 2139.87 170.852 L2135.74 170.852 L2132.86 186.053 Q2132.79 186.498 2132.49 187.903 Q2132.21 189.285 2131.53 191.557 Q2130.85 193.853 2130.17 195.211 Q2129.79 195.984 2129.3 196.71 Q2128.83 197.46 2128.16 198.209 Q2127.48 198.959 2126.59 199.404 Q2125.7 199.872 2124.76 199.872 Q2123.17 199.872 2121.93 198.982 Q2120.68 198.092 2120.68 196.57 Q2120.68 195.281 2121.48 194.485 Q2122.3 193.689 2123.31 193.689 Q2124.03 193.689 2124.55 194.134 Q2125.09 194.579 2125.09 195.352 Q2125.09 195.68 2124.97 196.054 Q2124.85 196.429 2124.6 196.851 Q2124.34 197.296 2123.78 197.6 Q2123.21 197.905 2122.44 197.952 Q2123.35 198.818 2124.76 198.818 Q2125.2 198.818 2125.6 198.631 Q2126 198.467 2126.33 198.045 Q2126.68 197.624 2126.94 197.202 Q2127.2 196.804 2127.45 196.031 Q2127.71 195.281 2127.87 194.719 Q2128.04 194.157 2128.25 193.15 Q2128.48 192.143 2128.6 191.534 Q2128.72 190.948 2128.93 189.801 L2132.51 170.852 L2129.35 170.852 Q2128.79 170.852 2128.55 170.828 Q2128.34 170.805 2128.18 170.688 Q2128.01 170.547 2128.01 170.266 Q2128.01 169.821 2128.2 169.634 Q2128.41 169.423 2128.65 169.4 Q2128.88 169.353 2129.44 169.353 L2132.77 169.353 Q2133.89 163.427 2134.34 161.834 Q2134.85 160.148 2135.65 158.977 Q2136.45 157.782 2137.34 157.22 Q2138.23 156.658 2138.95 156.447 Q2139.7 156.213 2140.43 156.213 Q2142.07 156.213 2143.33 157.103 Q2144.6 157.969 2144.6 159.515 Z" fill="#000000" fill-rule="nonzero" fill-opacity="1" /><path clip-path="url(#clip460)" d="M2149.48 147.325 Q2149.48 141.652 2151.59 137.077 Q2152.49 135.159 2153.75 133.552 Q2155.02 131.945 2155.85 131.24 Q2156.69 130.535 2156.92 130.535 Q2157.25 130.535 2157.26 130.863 Q2157.26 131.027 2156.82 131.437 Q2151.41 136.946 2151.43 147.325 Q2151.43 157.736 2156.69 163.032 Q2157.26 163.605 2157.26 163.786 Q2157.26 164.114 2156.92 164.114 Q2156.69 164.114 2155.89 163.441 Q2155.08 162.769 2153.84 161.228 Q2152.59 159.687 2151.69 157.801 Q2149.48 153.227 2149.48 147.325 Z" fill="#000000" fill-rule="nonzero" fill-opacity="1" /><path clip-path="url(#clip460)" d="M2159.68 150.177 L2159.68 149.144 L2169.99 133.388 Q2170.25 132.978 2170.66 132.995 Q2171.04 132.995 2171.12 133.142 Q2171.2 133.29 2171.2 133.864 L2171.2 149.144 L2174.57 149.144 L2174.57 150.177 L2171.2 150.177 L2171.2 153.096 Q2171.2 154.063 2171.6 154.375 Q2172.01 154.686 2173.75 154.686 L2174.45 154.686 L2174.45 155.719 Q2173.07 155.621 2169.89 155.621 Q2166.73 155.621 2165.35 155.719 L2165.35 154.686 L2166.06 154.686 Q2167.79 154.686 2168.2 154.391 Q2168.61 154.08 2168.61 153.096 L2168.61 150.177 L2159.68 150.177 M2160.63 149.144 L2168.81 149.144 L2168.81 136.618 L2160.63 149.144 Z" fill="#000000" fill-rule="nonzero" fill-opacity="1" /><path clip-path="url(#clip460)" d="M2177.78 163.786 Q2177.78 163.622 2178.21 163.212 Q2183.62 157.703 2183.62 147.325 Q2183.62 136.913 2178.42 131.65 Q2177.78 131.044 2177.78 130.863 Q2177.78 130.535 2178.11 130.535 Q2178.34 130.535 2179.14 131.208 Q2179.96 131.88 2181.19 133.421 Q2182.44 134.962 2183.36 136.848 Q2185.57 141.422 2185.57 147.325 Q2185.57 152.997 2183.45 157.572 Q2182.55 159.49 2181.29 161.097 Q2180.03 162.704 2179.19 163.409 Q2178.36 164.114 2178.11 164.114 Q2177.78 164.114 2177.78 163.786 Z" fill="#000000" fill-rule="nonzero" fill-opacity="1" /><path clip-path="url(#clip460)" d="M2195.79 178.042 Q2195.79 169.938 2198.81 163.403 Q2200.1 160.663 2201.91 158.368 Q2203.71 156.072 2204.9 155.065 Q2206.1 154.058 2206.43 154.058 Q2206.89 154.058 2206.92 154.526 Q2206.92 154.761 2206.29 155.346 Q2198.56 163.216 2198.58 178.042 Q2198.58 192.916 2206.1 200.481 Q2206.92 201.301 2206.92 201.559 Q2206.92 202.027 2206.43 202.027 Q2206.1 202.027 2204.95 201.067 Q2203.8 200.106 2202.02 197.905 Q2200.24 195.703 2198.95 193.009 Q2195.79 186.475 2195.79 178.042 Z" fill="#000000" fill-rule="nonzero" fill-opacity="1" /><path clip-path="url(#clip460)" d="M2234.45 171.999 Q2234.45 173.311 2233.63 174.061 Q2232.81 174.787 2231.87 174.787 Q2230.98 174.787 2230.52 174.271 Q2230.05 173.756 2230.05 173.1 Q2230.05 172.21 2230.7 171.437 Q2231.36 170.664 2232.34 170.5 Q2231.38 169.891 2229.95 169.891 Q2229.02 169.891 2228.2 170.383 Q2227.4 170.875 2226.91 171.508 Q2226.44 172.14 2226.02 173.053 Q2225.62 173.944 2225.46 174.482 Q2225.32 174.998 2225.2 175.56 L2223.56 182.118 Q2222.76 185.233 2222.76 186.334 Q2222.76 187.692 2223.42 188.606 Q2224.07 189.496 2225.39 189.496 Q2225.9 189.496 2226.49 189.355 Q2227.07 189.192 2227.82 188.77 Q2228.6 188.325 2229.27 187.669 Q2229.98 186.99 2230.66 185.842 Q2231.34 184.694 2231.78 183.219 Q2231.92 182.704 2232.39 182.704 Q2232.98 182.704 2232.98 183.172 Q2232.98 183.57 2232.65 184.413 Q2232.34 185.233 2231.66 186.311 Q2231.01 187.365 2230.14 188.325 Q2229.27 189.262 2227.99 189.918 Q2226.7 190.573 2225.29 190.573 Q2223.28 190.573 2221.94 189.496 Q2220.61 188.419 2220.12 186.92 Q2220 187.13 2219.84 187.411 Q2219.67 187.692 2219.18 188.325 Q2218.71 188.934 2218.17 189.402 Q2217.63 189.847 2216.79 190.199 Q2215.97 190.573 2215.08 190.573 Q2213.96 190.573 2212.95 190.246 Q2211.97 189.918 2211.26 189.168 Q2210.56 188.419 2210.56 187.388 Q2210.56 186.24 2211.33 185.444 Q2212.13 184.624 2213.21 184.624 Q2213.89 184.624 2214.42 185.022 Q2214.99 185.421 2214.99 186.287 Q2214.99 187.247 2214.33 187.974 Q2213.68 188.7 2212.74 188.887 Q2213.7 189.496 2215.13 189.496 Q2216.67 189.496 2217.89 188.138 Q2219.11 186.779 2219.69 184.507 Q2221.15 179.05 2221.71 176.614 Q2222.27 174.154 2222.27 173.1 Q2222.27 172.117 2222.01 171.437 Q2221.76 170.758 2221.31 170.454 Q2220.89 170.126 2220.49 170.009 Q2220.12 169.891 2219.69 169.891 Q2218.99 169.891 2218.2 170.173 Q2217.42 170.454 2216.49 171.109 Q2215.57 171.742 2214.71 173.053 Q2213.84 174.365 2213.25 176.169 Q2213.14 176.707 2212.62 176.707 Q2212.06 176.684 2212.06 176.215 Q2212.06 175.817 2212.36 174.998 Q2212.69 174.154 2213.35 173.1 Q2214.03 172.046 2214.89 171.109 Q2215.78 170.149 2217.07 169.493 Q2218.38 168.837 2219.79 168.837 Q2220.42 168.837 2221.03 168.978 Q2221.66 169.095 2222.41 169.446 Q2223.18 169.798 2223.86 170.571 Q2224.54 171.344 2224.96 172.468 Q2225.25 171.929 2225.62 171.414 Q2226.02 170.899 2226.63 170.266 Q2227.26 169.61 2228.13 169.236 Q2229.02 168.837 2230 168.837 Q2230.96 168.837 2231.9 169.095 Q2232.83 169.329 2233.63 170.102 Q2234.45 170.852 2234.45 171.999 Z" fill="#000000" fill-rule="nonzero" fill-opacity="1" /><path clip-path="url(#clip460)" d="M2239.06 201.559 Q2239.06 201.324 2239.67 200.739 Q2247.4 192.869 2247.4 178.042 Q2247.4 163.169 2239.98 155.651 Q2239.06 154.784 2239.06 154.526 Q2239.06 154.058 2239.53 154.058 Q2239.86 154.058 2241.01 155.018 Q2242.18 155.979 2243.94 158.18 Q2245.72 160.382 2247.03 163.076 Q2250.19 169.61 2250.19 178.042 Q2250.19 186.147 2247.17 192.681 Q2245.88 195.422 2244.08 197.717 Q2242.27 200.013 2241.08 201.02 Q2239.88 202.027 2239.53 202.027 Q2239.06 202.027 2239.06 201.559 Z" fill="#000000" fill-rule="nonzero" fill-opacity="1" /></svg>
