<?xml version="1.0" encoding="utf-8"?>
<svg xmlns="http://www.w3.org/2000/svg" xmlns:xlink="http://www.w3.org/1999/xlink" width="600" height="400" viewBox="0 0 2400 1600">
<defs>
  <clipPath id="clip200">
    <rect x="0" y="0" width="2400" height="1600"/>
  </clipPath>
</defs>
<path clip-path="url(#clip200)" d="M0 1600 L2400 1600 L2400 0 L0 0  Z" fill="#ffffff" fill-rule="evenodd" fill-opacity="1"/>
<defs>
  <clipPath id="clip201">
    <rect x="480" y="0" width="1681" height="1600"/>
  </clipPath>
</defs>
<path clip-path="url(#clip200)" d="M178.867 1486.45 L2352.76 1486.45 L2352.76 47.2441 L178.867 47.2441  Z" fill="#ffffff" fill-rule="evenodd" fill-opacity="1"/>
<defs>
  <clipPath id="clip202">
    <rect x="178" y="47" width="2175" height="1440"/>
  </clipPath>
</defs>
<polyline clip-path="url(#clip202)" style="stroke:#000000; stroke-linecap:round; stroke-linejoin:round; stroke-width:2; stroke-opacity:0.1; fill:none" points="240.392,1486.45 240.392,47.2441 "/>
<polyline clip-path="url(#clip202)" style="stroke:#000000; stroke-linecap:round; stroke-linejoin:round; stroke-width:2; stroke-opacity:0.1; fill:none" points="650.56,1486.45 650.56,47.2441 "/>
<polyline clip-path="url(#clip202)" style="stroke:#000000; stroke-linecap:round; stroke-linejoin:round; stroke-width:2; stroke-opacity:0.1; fill:none" points="1060.73,1486.45 1060.73,47.2441 "/>
<polyline clip-path="url(#clip202)" style="stroke:#000000; stroke-linecap:round; stroke-linejoin:round; stroke-width:2; stroke-opacity:0.1; fill:none" points="1470.9,1486.45 1470.9,47.2441 "/>
<polyline clip-path="url(#clip202)" style="stroke:#000000; stroke-linecap:round; stroke-linejoin:round; stroke-width:2; stroke-opacity:0.1; fill:none" points="1881.06,1486.45 1881.06,47.2441 "/>
<polyline clip-path="url(#clip202)" style="stroke:#000000; stroke-linecap:round; stroke-linejoin:round; stroke-width:2; stroke-opacity:0.1; fill:none" points="2291.23,1486.45 2291.23,47.2441 "/>
<polyline clip-path="url(#clip200)" style="stroke:#000000; stroke-linecap:round; stroke-linejoin:round; stroke-width:4; stroke-opacity:1; fill:none" points="178.867,1486.45 2352.76,1486.45 "/>
<polyline clip-path="url(#clip200)" style="stroke:#000000; stroke-linecap:round; stroke-linejoin:round; stroke-width:4; stroke-opacity:1; fill:none" points="240.392,1486.45 240.392,1467.55 "/>
<polyline clip-path="url(#clip200)" style="stroke:#000000; stroke-linecap:round; stroke-linejoin:round; stroke-width:4; stroke-opacity:1; fill:none" points="650.56,1486.45 650.56,1467.55 "/>
<polyline clip-path="url(#clip200)" style="stroke:#000000; stroke-linecap:round; stroke-linejoin:round; stroke-width:4; stroke-opacity:1; fill:none" points="1060.73,1486.45 1060.73,1467.55 "/>
<polyline clip-path="url(#clip200)" style="stroke:#000000; stroke-linecap:round; stroke-linejoin:round; stroke-width:4; stroke-opacity:1; fill:none" points="1470.9,1486.45 1470.9,1467.55 "/>
<polyline clip-path="url(#clip200)" style="stroke:#000000; stroke-linecap:round; stroke-linejoin:round; stroke-width:4; stroke-opacity:1; fill:none" points="1881.06,1486.45 1881.06,1467.55 "/>
<polyline clip-path="url(#clip200)" style="stroke:#000000; stroke-linecap:round; stroke-linejoin:round; stroke-width:4; stroke-opacity:1; fill:none" points="2291.23,1486.45 2291.23,1467.55 "/>
<path clip-path="url(#clip200)" d="M240.392 1517.37 Q236.781 1517.37 234.952 1520.93 Q233.146 1524.47 233.146 1531.6 Q233.146 1538.71 234.952 1542.27 Q236.781 1545.82 240.392 1545.82 Q244.026 1545.82 245.832 1542.27 Q247.66 1538.71 247.66 1531.6 Q247.66 1524.47 245.832 1520.93 Q244.026 1517.37 240.392 1517.37 M240.392 1513.66 Q246.202 1513.66 249.257 1518.27 Q252.336 1522.85 252.336 1531.6 Q252.336 1540.33 249.257 1544.94 Q246.202 1549.52 240.392 1549.52 Q234.582 1549.52 231.503 1544.94 Q228.447 1540.33 228.447 1531.6 Q228.447 1522.85 231.503 1518.27 Q234.582 1513.66 240.392 1513.66 Z" fill="#000000" fill-rule="nonzero" fill-opacity="1" /><path clip-path="url(#clip200)" d="M640.942 1544.91 L648.58 1544.91 L648.58 1518.55 L640.27 1520.21 L640.27 1515.95 L648.534 1514.29 L653.21 1514.29 L653.21 1544.91 L660.849 1544.91 L660.849 1548.85 L640.942 1548.85 L640.942 1544.91 Z" fill="#000000" fill-rule="nonzero" fill-opacity="1" /><path clip-path="url(#clip200)" d="M1055.38 1544.91 L1071.7 1544.91 L1071.7 1548.85 L1049.76 1548.85 L1049.76 1544.91 Q1052.42 1542.16 1057 1537.53 Q1061.61 1532.88 1062.79 1531.53 Q1065.03 1529.01 1065.91 1527.27 Q1066.82 1525.51 1066.82 1523.82 Q1066.82 1521.07 1064.87 1519.33 Q1062.95 1517.6 1059.85 1517.6 Q1057.65 1517.6 1055.19 1518.36 Q1052.76 1519.13 1049.99 1520.68 L1049.99 1515.95 Q1052.81 1514.82 1055.26 1514.24 Q1057.72 1513.66 1059.76 1513.66 Q1065.13 1513.66 1068.32 1516.35 Q1071.51 1519.03 1071.51 1523.52 Q1071.51 1525.65 1070.7 1527.57 Q1069.92 1529.47 1067.81 1532.07 Q1067.23 1532.74 1064.13 1535.95 Q1061.03 1539.15 1055.38 1544.91 Z" fill="#000000" fill-rule="nonzero" fill-opacity="1" /><path clip-path="url(#clip200)" d="M1475.14 1530.21 Q1478.5 1530.93 1480.37 1533.2 Q1482.27 1535.47 1482.27 1538.8 Q1482.27 1543.92 1478.75 1546.72 Q1475.24 1549.52 1468.75 1549.52 Q1466.58 1549.52 1464.26 1549.08 Q1461.97 1548.66 1459.52 1547.81 L1459.52 1543.29 Q1461.46 1544.43 1463.78 1545.01 Q1466.09 1545.58 1468.62 1545.58 Q1473.01 1545.58 1475.3 1543.85 Q1477.62 1542.11 1477.62 1538.8 Q1477.62 1535.75 1475.47 1534.03 Q1473.34 1532.3 1469.52 1532.3 L1465.49 1532.3 L1465.49 1528.45 L1469.7 1528.45 Q1473.15 1528.45 1474.98 1527.09 Q1476.81 1525.7 1476.81 1523.11 Q1476.81 1520.45 1474.91 1519.03 Q1473.04 1517.6 1469.52 1517.6 Q1467.6 1517.6 1465.4 1518.01 Q1463.2 1518.43 1460.56 1519.31 L1460.56 1515.14 Q1463.22 1514.4 1465.54 1514.03 Q1467.87 1513.66 1469.93 1513.66 Q1475.26 1513.66 1478.36 1516.09 Q1481.46 1518.5 1481.46 1522.62 Q1481.46 1525.49 1479.82 1527.48 Q1478.18 1529.45 1475.14 1530.21 Z" fill="#000000" fill-rule="nonzero" fill-opacity="1" /><path clip-path="url(#clip200)" d="M1884.07 1518.36 L1872.27 1536.81 L1884.07 1536.81 L1884.07 1518.36 M1882.85 1514.29 L1888.72 1514.29 L1888.72 1536.81 L1893.66 1536.81 L1893.66 1540.7 L1888.72 1540.7 L1888.72 1548.85 L1884.07 1548.85 L1884.07 1540.7 L1868.47 1540.7 L1868.47 1536.19 L1882.85 1514.29 Z" fill="#000000" fill-rule="nonzero" fill-opacity="1" /><path clip-path="url(#clip200)" d="M2281.51 1514.29 L2299.86 1514.29 L2299.86 1518.22 L2285.79 1518.22 L2285.79 1526.7 Q2286.81 1526.35 2287.83 1526.19 Q2288.85 1526 2289.87 1526 Q2295.65 1526 2299.03 1529.17 Q2302.41 1532.34 2302.41 1537.76 Q2302.41 1543.34 2298.94 1546.44 Q2295.47 1549.52 2289.15 1549.52 Q2286.97 1549.52 2284.7 1549.15 Q2282.46 1548.78 2280.05 1548.04 L2280.05 1543.34 Q2282.13 1544.47 2284.36 1545.03 Q2286.58 1545.58 2289.05 1545.58 Q2293.06 1545.58 2295.4 1543.48 Q2297.74 1541.37 2297.74 1537.76 Q2297.74 1534.15 2295.4 1532.04 Q2293.06 1529.94 2289.05 1529.94 Q2287.18 1529.94 2285.3 1530.35 Q2283.45 1530.77 2281.51 1531.65 L2281.51 1514.29 Z" fill="#000000" fill-rule="nonzero" fill-opacity="1" /><polyline clip-path="url(#clip202)" style="stroke:#000000; stroke-linecap:round; stroke-linejoin:round; stroke-width:2; stroke-opacity:0.1; fill:none" points="178.867,1363.46 2352.76,1363.46 "/>
<polyline clip-path="url(#clip202)" style="stroke:#000000; stroke-linecap:round; stroke-linejoin:round; stroke-width:2; stroke-opacity:0.1; fill:none" points="178.867,1157.79 2352.76,1157.79 "/>
<polyline clip-path="url(#clip202)" style="stroke:#000000; stroke-linecap:round; stroke-linejoin:round; stroke-width:2; stroke-opacity:0.1; fill:none" points="178.867,952.117 2352.76,952.117 "/>
<polyline clip-path="url(#clip202)" style="stroke:#000000; stroke-linecap:round; stroke-linejoin:round; stroke-width:2; stroke-opacity:0.1; fill:none" points="178.867,746.446 2352.76,746.446 "/>
<polyline clip-path="url(#clip202)" style="stroke:#000000; stroke-linecap:round; stroke-linejoin:round; stroke-width:2; stroke-opacity:0.1; fill:none" points="178.867,540.774 2352.76,540.774 "/>
<polyline clip-path="url(#clip202)" style="stroke:#000000; stroke-linecap:round; stroke-linejoin:round; stroke-width:2; stroke-opacity:0.1; fill:none" points="178.867,335.103 2352.76,335.103 "/>
<polyline clip-path="url(#clip202)" style="stroke:#000000; stroke-linecap:round; stroke-linejoin:round; stroke-width:2; stroke-opacity:0.1; fill:none" points="178.867,129.431 2352.76,129.431 "/>
<polyline clip-path="url(#clip200)" style="stroke:#000000; stroke-linecap:round; stroke-linejoin:round; stroke-width:4; stroke-opacity:1; fill:none" points="178.867,1486.45 178.867,47.2441 "/>
<polyline clip-path="url(#clip200)" style="stroke:#000000; stroke-linecap:round; stroke-linejoin:round; stroke-width:4; stroke-opacity:1; fill:none" points="178.867,1363.46 197.764,1363.46 "/>
<polyline clip-path="url(#clip200)" style="stroke:#000000; stroke-linecap:round; stroke-linejoin:round; stroke-width:4; stroke-opacity:1; fill:none" points="178.867,1157.79 197.764,1157.79 "/>
<polyline clip-path="url(#clip200)" style="stroke:#000000; stroke-linecap:round; stroke-linejoin:round; stroke-width:4; stroke-opacity:1; fill:none" points="178.867,952.117 197.764,952.117 "/>
<polyline clip-path="url(#clip200)" style="stroke:#000000; stroke-linecap:round; stroke-linejoin:round; stroke-width:4; stroke-opacity:1; fill:none" points="178.867,746.446 197.764,746.446 "/>
<polyline clip-path="url(#clip200)" style="stroke:#000000; stroke-linecap:round; stroke-linejoin:round; stroke-width:4; stroke-opacity:1; fill:none" points="178.867,540.774 197.764,540.774 "/>
<polyline clip-path="url(#clip200)" style="stroke:#000000; stroke-linecap:round; stroke-linejoin:round; stroke-width:4; stroke-opacity:1; fill:none" points="178.867,335.103 197.764,335.103 "/>
<polyline clip-path="url(#clip200)" style="stroke:#000000; stroke-linecap:round; stroke-linejoin:round; stroke-width:4; stroke-opacity:1; fill:none" points="178.867,129.431 197.764,129.431 "/>
<path clip-path="url(#clip200)" d="M51.9875 1363.91 L81.6633 1363.91 L81.6633 1367.85 L51.9875 1367.85 L51.9875 1363.91 Z" fill="#000000" fill-rule="nonzero" fill-opacity="1" /><path clip-path="url(#clip200)" d="M92.566 1376.8 L100.205 1376.8 L100.205 1350.44 L91.8947 1352.11 L91.8947 1347.85 L100.159 1346.18 L104.834 1346.18 L104.834 1376.8 L112.473 1376.8 L112.473 1380.74 L92.566 1380.74 L92.566 1376.8 Z" fill="#000000" fill-rule="nonzero" fill-opacity="1" /><path clip-path="url(#clip200)" d="M121.964 1346.18 L140.32 1346.18 L140.32 1350.12 L126.246 1350.12 L126.246 1358.59 Q127.265 1358.24 128.283 1358.08 Q129.302 1357.89 130.32 1357.89 Q136.107 1357.89 139.487 1361.06 Q142.867 1364.24 142.867 1369.65 Q142.867 1375.23 139.394 1378.33 Q135.922 1381.41 129.603 1381.41 Q127.427 1381.41 125.158 1381.04 Q122.913 1380.67 120.506 1379.93 L120.506 1375.23 Q122.589 1376.37 124.811 1376.92 Q127.033 1377.48 129.51 1377.48 Q133.515 1377.48 135.853 1375.37 Q138.191 1373.26 138.191 1369.65 Q138.191 1366.04 135.853 1363.93 Q133.515 1361.83 129.51 1361.83 Q127.635 1361.83 125.76 1362.24 Q123.908 1362.66 121.964 1363.54 L121.964 1346.18 Z" fill="#000000" fill-rule="nonzero" fill-opacity="1" /><path clip-path="url(#clip200)" d="M50.9921 1158.24 L80.6679 1158.24 L80.6679 1162.18 L50.9921 1162.18 L50.9921 1158.24 Z" fill="#000000" fill-rule="nonzero" fill-opacity="1" /><path clip-path="url(#clip200)" d="M91.5706 1171.13 L99.2095 1171.13 L99.2095 1144.77 L90.8993 1146.43 L90.8993 1142.18 L99.1632 1140.51 L103.839 1140.51 L103.839 1171.13 L111.478 1171.13 L111.478 1175.07 L91.5706 1175.07 L91.5706 1171.13 Z" fill="#000000" fill-rule="nonzero" fill-opacity="1" /><path clip-path="url(#clip200)" d="M130.922 1143.59 Q127.311 1143.59 125.482 1147.15 Q123.677 1150.69 123.677 1157.82 Q123.677 1164.93 125.482 1168.49 Q127.311 1172.04 130.922 1172.04 Q134.556 1172.04 136.362 1168.49 Q138.191 1164.93 138.191 1157.82 Q138.191 1150.69 136.362 1147.15 Q134.556 1143.59 130.922 1143.59 M130.922 1139.88 Q136.732 1139.88 139.788 1144.49 Q142.867 1149.07 142.867 1157.82 Q142.867 1166.55 139.788 1171.16 Q136.732 1175.74 130.922 1175.74 Q125.112 1175.74 122.033 1171.16 Q118.978 1166.55 118.978 1157.82 Q118.978 1149.07 122.033 1144.49 Q125.112 1139.88 130.922 1139.88 Z" fill="#000000" fill-rule="nonzero" fill-opacity="1" /><path clip-path="url(#clip200)" d="M82.1494 952.569 L111.825 952.569 L111.825 956.504 L82.1494 956.504 L82.1494 952.569 Z" fill="#000000" fill-rule="nonzero" fill-opacity="1" /><path clip-path="url(#clip200)" d="M121.964 934.837 L140.32 934.837 L140.32 938.772 L126.246 938.772 L126.246 947.244 Q127.265 946.897 128.283 946.735 Q129.302 946.55 130.32 946.55 Q136.107 946.55 139.487 949.721 Q142.867 952.893 142.867 958.309 Q142.867 963.888 139.394 966.99 Q135.922 970.068 129.603 970.068 Q127.427 970.068 125.158 969.698 Q122.913 969.328 120.506 968.587 L120.506 963.888 Q122.589 965.022 124.811 965.578 Q127.033 966.133 129.51 966.133 Q133.515 966.133 135.853 964.027 Q138.191 961.92 138.191 958.309 Q138.191 954.698 135.853 952.592 Q133.515 950.485 129.51 950.485 Q127.635 950.485 125.76 950.902 Q123.908 951.319 121.964 952.198 L121.964 934.837 Z" fill="#000000" fill-rule="nonzero" fill-opacity="1" /><path clip-path="url(#clip200)" d="M130.922 732.244 Q127.311 732.244 125.482 735.809 Q123.677 739.351 123.677 746.48 Q123.677 753.587 125.482 757.152 Q127.311 760.693 130.922 760.693 Q134.556 760.693 136.362 757.152 Q138.191 753.587 138.191 746.48 Q138.191 739.351 136.362 735.809 Q134.556 732.244 130.922 732.244 M130.922 728.541 Q136.732 728.541 139.788 733.147 Q142.867 737.73 142.867 746.48 Q142.867 755.207 139.788 759.814 Q136.732 764.397 130.922 764.397 Q125.112 764.397 122.033 759.814 Q118.978 755.207 118.978 746.48 Q118.978 737.73 122.033 733.147 Q125.112 728.541 130.922 728.541 Z" fill="#000000" fill-rule="nonzero" fill-opacity="1" /><path clip-path="url(#clip200)" d="M121.964 523.494 L140.32 523.494 L140.32 527.429 L126.246 527.429 L126.246 535.902 Q127.265 535.554 128.283 535.392 Q129.302 535.207 130.32 535.207 Q136.107 535.207 139.487 538.378 Q142.867 541.55 142.867 546.966 Q142.867 552.545 139.394 555.647 Q135.922 558.726 129.603 558.726 Q127.427 558.726 125.158 558.355 Q122.913 557.985 120.506 557.244 L120.506 552.545 Q122.589 553.679 124.811 554.235 Q127.033 554.79 129.51 554.79 Q133.515 554.79 135.853 552.684 Q138.191 550.577 138.191 546.966 Q138.191 543.355 135.853 541.249 Q133.515 539.142 129.51 539.142 Q127.635 539.142 125.76 539.559 Q123.908 539.976 121.964 540.855 L121.964 523.494 Z" fill="#000000" fill-rule="nonzero" fill-opacity="1" /><path clip-path="url(#clip200)" d="M91.5706 348.448 L99.2095 348.448 L99.2095 322.082 L90.8993 323.749 L90.8993 319.489 L99.1632 317.823 L103.839 317.823 L103.839 348.448 L111.478 348.448 L111.478 352.383 L91.5706 352.383 L91.5706 348.448 Z" fill="#000000" fill-rule="nonzero" fill-opacity="1" /><path clip-path="url(#clip200)" d="M130.922 320.902 Q127.311 320.902 125.482 324.466 Q123.677 328.008 123.677 335.138 Q123.677 342.244 125.482 345.809 Q127.311 349.35 130.922 349.35 Q134.556 349.35 136.362 345.809 Q138.191 342.244 138.191 335.138 Q138.191 328.008 136.362 324.466 Q134.556 320.902 130.922 320.902 M130.922 317.198 Q136.732 317.198 139.788 321.804 Q142.867 326.388 142.867 335.138 Q142.867 343.864 139.788 348.471 Q136.732 353.054 130.922 353.054 Q125.112 353.054 122.033 348.471 Q118.978 343.864 118.978 335.138 Q118.978 326.388 122.033 321.804 Q125.112 317.198 130.922 317.198 Z" fill="#000000" fill-rule="nonzero" fill-opacity="1" /><path clip-path="url(#clip200)" d="M92.566 142.776 L100.205 142.776 L100.205 116.411 L91.8947 118.077 L91.8947 113.818 L100.159 112.151 L104.834 112.151 L104.834 142.776 L112.473 142.776 L112.473 146.711 L92.566 146.711 L92.566 142.776 Z" fill="#000000" fill-rule="nonzero" fill-opacity="1" /><path clip-path="url(#clip200)" d="M121.964 112.151 L140.32 112.151 L140.32 116.087 L126.246 116.087 L126.246 124.559 Q127.265 124.211 128.283 124.049 Q129.302 123.864 130.32 123.864 Q136.107 123.864 139.487 127.036 Q142.867 130.207 142.867 135.623 Q142.867 141.202 139.394 144.304 Q135.922 147.383 129.603 147.383 Q127.427 147.383 125.158 147.012 Q122.913 146.642 120.506 145.901 L120.506 141.202 Q122.589 142.336 124.811 142.892 Q127.033 143.447 129.51 143.447 Q133.515 143.447 135.853 141.341 Q138.191 139.235 138.191 135.623 Q138.191 132.012 135.853 129.906 Q133.515 127.799 129.51 127.799 Q127.635 127.799 125.76 128.216 Q123.908 128.633 121.964 129.512 L121.964 112.151 Z" fill="#000000" fill-rule="nonzero" fill-opacity="1" /><polyline clip-path="url(#clip202)" style="stroke:#009af9; stroke-linecap:round; stroke-linejoin:round; stroke-width:4; stroke-opacity:1; fill:none" points="240.392,88.2971 243.73,88.0495 247.068,87.9763 250.406,88.0774 253.744,88.3526 269.176,91.8847 284.609,99.1092 292.325,104.092 300.041,109.979 307.757,116.76 315.474,124.425 330.906,142.36 346.338,163.676 361.771,188.246 377.203,215.924 386.477,233.985 395.752,253.073 405.026,273.145 414.3,294.161 432.849,338.843 451.397,386.743 467.08,429.455 482.762,473.926 498.445,519.889 514.127,567.07 548.198,672.416 582.269,779.222 613.68,876.399 645.091,969.964 661.928,1017.85 678.766,1063.74 695.604,1107.3 712.442,1148.25 722.196,1170.66 731.95,1192.05 741.704,1212.36 751.458,1231.56 761.212,1249.59 770.966,1266.42 780.72,1282.01 790.474,1296.31 799.143,1307.93 807.811,1318.49 816.479,1327.97 825.147,1336.36 833.816,1343.64 842.484,1349.79 851.152,1354.82 859.821,1358.71 875.023,1362.74 890.226,1363.22 897.827,1362.13 905.428,1360.15 913.03,1357.28 920.631,1353.53 928.918,1348.45 937.206,1342.33 945.493,1335.19 953.781,1327.04 962.068,1317.89 970.356,1307.76 978.643,1296.66 986.931,1284.61 1003.6,1257.59 1020.28,1227 1028.61,1210.42 1036.95,1193.04 1045.29,1174.86 1053.62,1155.94 1072.06,1111.56 1090.49,1064.01 1108.93,1013.68 1127.36,960.984 1162.44,855.715 1197.52,746.555 1234,632.406 1270.47,521.215 1285.83,476.168 1301.18,432.538 1316.53,390.576 1331.88,350.521 1341.25,327.106 1350.63,304.539 1360,282.867 1369.37,262.137 1378.74,242.394 1388.11,223.68 1397.48,206.036 1406.86,189.5 1415.44,175.354 1424.03,162.195 1432.61,150.046 1441.2,138.929 1449.78,128.865 1458.37,119.873 1466.95,111.969 1475.54,105.168 1483.46,99.8795 1491.39,95.5517 1499.32,92.1925 1507.25,89.8077 1515.18,88.4019 1523.11,87.9781 1531.04,88.5376 1538.97,90.0807 1547,92.6451 1555.03,96.2142 1563.06,100.783 1571.09,106.347 1579.13,112.897 1587.16,120.424 1595.19,128.918 1603.22,138.366 1612.22,150.073 1621.22,162.941 1630.22,176.945 1639.23,192.061 1648.23,208.261 1657.23,225.514 1666.23,243.789 1675.23,263.052 1691.54,300.361 1707.86,340.567 1724.17,383.423 1740.48,428.663 1759.16,483.029 1777.84,539.714 1796.52,598.258 1815.2,658.186 1849.78,771.156 1884.37,884.041 1901.42,938.689 1918.47,992.178 1935.52,1044.14 1952.57,1094.23 1969.12,1140.74 1985.68,1184.86 2002.23,1226.3 2018.78,1264.8 2035.75,1300.96 2052.72,1333.52 2061.21,1348.39 2069.69,1362.27 2078.18,1375.15 2086.66,1387.01 2095.96,1398.8 2105.26,1409.31 2114.55,1418.52 2123.85,1426.42 2133.14,1432.98 2142.44,1438.19 2151.74,1442.05 2161.03,1444.54 2174.54,1445.72 2188.04,1443.99 2201.55,1439.38 2215.05,1431.9 2228.55,1421.58 2242.06,1408.47 2255.56,1392.61 2269.07,1374.09 2274.61,1365.74 2280.15,1356.96 2285.69,1347.75 2291.23,1338.12 "/>
<path clip-path="url(#clip200)" d="M1691.73 237.474 L2280.29 237.474 L2280.29 95.2176 L1691.73 95.2176  Z" fill="#ffffff" fill-rule="evenodd" fill-opacity="1"/>
<polyline clip-path="url(#clip200)" style="stroke:#000000; stroke-linecap:round; stroke-linejoin:round; stroke-width:4; stroke-opacity:1; fill:none" points="1691.73,237.474 2280.29,237.474 2280.29,95.2176 1691.73,95.2176 1691.73,237.474 "/>
<polyline clip-path="url(#clip200)" style="stroke:#009af9; stroke-linecap:round; stroke-linejoin:round; stroke-width:4; stroke-opacity:1; fill:none" points="1715.89,166.346 1860.82,166.346 "/>
<path clip-path="url(#clip200)" d="M1900.57 159.549 L1888.77 177.998 L1900.57 177.998 L1900.57 159.549 M1899.34 155.475 L1905.22 155.475 L1905.22 177.998 L1910.15 177.998 L1910.15 181.887 L1905.22 181.887 L1905.22 190.035 L1900.57 190.035 L1900.57 181.887 L1884.97 181.887 L1884.97 177.373 L1899.34 155.475 Z" fill="#000000" fill-rule="nonzero" fill-opacity="1" /><path clip-path="url(#clip200)" d="M1917.89 184.155 L1922.77 184.155 L1922.77 190.035 L1917.89 190.035 L1917.89 184.155 Z" fill="#000000" fill-rule="nonzero" fill-opacity="1" /><path clip-path="url(#clip200)" d="M1957.47 167.095 Q1954.04 167.095 1952.05 169.78 Q1950.06 172.442 1950.06 177.095 Q1950.06 181.748 1952.03 184.433 Q1954.02 187.095 1957.47 187.095 Q1960.87 187.095 1962.86 184.41 Q1964.85 181.725 1964.85 177.095 Q1964.85 172.489 1962.86 169.803 Q1960.87 167.095 1957.47 167.095 M1957.47 163.484 Q1963.02 163.484 1966.2 167.095 Q1969.37 170.706 1969.37 177.095 Q1969.37 183.461 1966.2 187.095 Q1963.02 190.706 1957.47 190.706 Q1951.89 190.706 1948.72 187.095 Q1945.57 183.461 1945.57 177.095 Q1945.57 170.706 1948.72 167.095 Q1951.89 163.484 1957.47 163.484 Z" fill="#000000" fill-rule="nonzero" fill-opacity="1" /><path clip-path="url(#clip200)" d="M1993.49 168.044 L1993.49 154.016 L1997.75 154.016 L1997.75 190.035 L1993.49 190.035 L1993.49 186.146 Q1992.14 188.461 1990.08 189.595 Q1988.05 190.706 1985.18 190.706 Q1980.48 190.706 1977.52 186.956 Q1974.58 183.206 1974.58 177.095 Q1974.58 170.984 1977.52 167.234 Q1980.48 163.484 1985.18 163.484 Q1988.05 163.484 1990.08 164.618 Q1992.14 165.729 1993.49 168.044 M1978.97 177.095 Q1978.97 181.794 1980.89 184.479 Q1982.84 187.141 1986.22 187.141 Q1989.6 187.141 1991.54 184.479 Q1993.49 181.794 1993.49 177.095 Q1993.49 172.396 1991.54 169.734 Q1989.6 167.049 1986.22 167.049 Q1982.84 167.049 1980.89 169.734 Q1978.97 172.396 1978.97 177.095 Z" fill="#000000" fill-rule="nonzero" fill-opacity="1" /><path clip-path="url(#clip200)" d="M2003.46 164.109 L2007.98 164.109 L2016.08 185.868 L2024.18 164.109 L2028.7 164.109 L2018.97 190.035 L2013.19 190.035 L2003.46 164.109 Z" fill="#000000" fill-rule="nonzero" fill-opacity="1" /><path clip-path="url(#clip200)" d="M2044.62 167.095 Q2041.2 167.095 2039.2 169.78 Q2037.21 172.442 2037.21 177.095 Q2037.21 181.748 2039.18 184.433 Q2041.17 187.095 2044.62 187.095 Q2048.02 187.095 2050.01 184.41 Q2052.01 181.725 2052.01 177.095 Q2052.01 172.489 2050.01 169.803 Q2048.02 167.095 2044.62 167.095 M2044.62 163.484 Q2050.18 163.484 2053.35 167.095 Q2056.52 170.706 2056.52 177.095 Q2056.52 183.461 2053.35 187.095 Q2050.18 190.706 2044.62 190.706 Q2039.04 190.706 2035.87 187.095 Q2032.72 183.461 2032.72 177.095 Q2032.72 170.706 2035.87 167.095 Q2039.04 163.484 2044.62 163.484 Z" fill="#000000" fill-rule="nonzero" fill-opacity="1" /><path clip-path="url(#clip200)" d="M2080.64 168.044 L2080.64 154.016 L2084.9 154.016 L2084.9 190.035 L2080.64 190.035 L2080.64 186.146 Q2079.3 188.461 2077.24 189.595 Q2075.2 190.706 2072.33 190.706 Q2067.63 190.706 2064.67 186.956 Q2061.73 183.206 2061.73 177.095 Q2061.73 170.984 2064.67 167.234 Q2067.63 163.484 2072.33 163.484 Q2075.2 163.484 2077.24 164.618 Q2079.3 165.729 2080.64 168.044 M2066.13 177.095 Q2066.13 181.794 2068.05 184.479 Q2069.99 187.141 2073.37 187.141 Q2076.75 187.141 2078.7 184.479 Q2080.64 181.794 2080.64 177.095 Q2080.64 172.396 2078.7 169.734 Q2076.75 167.049 2073.37 167.049 Q2069.99 167.049 2068.05 169.734 Q2066.13 172.396 2066.13 177.095 Z" fill="#000000" fill-rule="nonzero" fill-opacity="1" /><path clip-path="url(#clip200)" d="M2143.26 159.515 Q2143.26 160.804 2142.44 161.6 Q2141.64 162.396 2140.63 162.396 Q2139.91 162.396 2139.37 161.951 Q2138.85 161.506 2138.85 160.733 Q2138.85 159.937 2139.46 159.094 Q2140.07 158.25 2141.45 158.133 Q2140.54 157.267 2139.09 157.267 Q2138.36 157.267 2137.75 157.735 Q2137.17 158.18 2136.84 158.906 Q2136.49 159.656 2135.69 163.895 Q2135.43 165.277 2135.2 166.612 Q2134.97 167.947 2134.68 169.353 L2138.67 169.353 Q2139.18 169.353 2139.39 169.376 Q2139.6 169.4 2139.77 169.517 Q2139.95 169.634 2139.95 169.891 Q2139.95 170.547 2139.65 170.711 Q2139.37 170.852 2138.53 170.852 L2134.4 170.852 L2131.52 186.053 Q2131.45 186.498 2131.15 187.903 Q2130.87 189.285 2130.19 191.557 Q2129.51 193.853 2128.83 195.211 Q2128.45 195.984 2127.96 196.71 Q2127.49 197.46 2126.81 198.209 Q2126.14 198.959 2125.25 199.404 Q2124.36 199.872 2123.42 199.872 Q2121.83 199.872 2120.58 198.982 Q2119.34 198.092 2119.34 196.57 Q2119.34 195.281 2120.14 194.485 Q2120.96 193.689 2121.97 193.689 Q2122.69 193.689 2123.21 194.134 Q2123.75 194.579 2123.75 195.352 Q2123.75 195.68 2123.63 196.054 Q2123.51 196.429 2123.25 196.851 Q2123 197.296 2122.43 197.6 Q2121.87 197.905 2121.1 197.952 Q2122.01 198.818 2123.42 198.818 Q2123.86 198.818 2124.26 198.631 Q2124.66 198.467 2124.99 198.045 Q2125.34 197.624 2125.6 197.202 Q2125.85 196.804 2126.11 196.031 Q2126.37 195.281 2126.53 194.719 Q2126.7 194.157 2126.91 193.15 Q2127.14 192.143 2127.26 191.534 Q2127.38 190.948 2127.59 189.801 L2131.17 170.852 L2128.01 170.852 Q2127.45 170.852 2127.21 170.828 Q2127 170.805 2126.84 170.688 Q2126.67 170.547 2126.67 170.266 Q2126.67 169.821 2126.86 169.634 Q2127.07 169.423 2127.31 169.4 Q2127.54 169.353 2128.1 169.353 L2131.43 169.353 Q2132.55 163.427 2133 161.834 Q2133.51 160.148 2134.31 158.977 Q2135.11 157.782 2136 157.22 Q2136.89 156.658 2137.61 156.447 Q2138.36 156.213 2139.09 156.213 Q2140.73 156.213 2141.99 157.103 Q2143.26 157.969 2143.26 159.515 Z" fill="#000000" fill-rule="nonzero" fill-opacity="1" /><path clip-path="url(#clip200)" d="M2148.13 147.325 Q2148.13 141.652 2150.25 137.077 Q2151.15 135.159 2152.41 133.552 Q2153.68 131.945 2154.51 131.24 Q2155.35 130.535 2155.58 130.535 Q2155.91 130.535 2155.92 130.863 Q2155.92 131.027 2155.48 131.437 Q2150.07 136.946 2150.09 147.325 Q2150.09 157.736 2155.35 163.032 Q2155.92 163.605 2155.92 163.786 Q2155.92 164.114 2155.58 164.114 Q2155.35 164.114 2154.55 163.441 Q2153.74 162.769 2152.5 161.228 Q2151.25 159.687 2150.35 157.801 Q2148.13 153.227 2148.13 147.325 Z" fill="#000000" fill-rule="nonzero" fill-opacity="1" /><path clip-path="url(#clip200)" d="M2158.34 150.177 L2158.34 149.144 L2168.65 133.388 Q2168.91 132.978 2169.32 132.995 Q2169.7 132.995 2169.78 133.142 Q2169.86 133.29 2169.86 133.864 L2169.86 149.144 L2173.23 149.144 L2173.23 150.177 L2169.86 150.177 L2169.86 153.096 Q2169.86 154.063 2170.26 154.375 Q2170.67 154.686 2172.41 154.686 L2173.11 154.686 L2173.11 155.719 Q2171.73 155.621 2168.55 155.621 Q2165.39 155.621 2164.01 155.719 L2164.01 154.686 L2164.72 154.686 Q2166.45 154.686 2166.86 154.391 Q2167.27 154.08 2167.27 153.096 L2167.27 150.177 L2158.34 150.177 M2159.29 149.144 L2167.47 149.144 L2167.47 136.618 L2159.29 149.144 Z" fill="#000000" fill-rule="nonzero" fill-opacity="1" /><path clip-path="url(#clip200)" d="M2176.44 163.786 Q2176.44 163.622 2176.87 163.212 Q2182.28 157.703 2182.28 147.325 Q2182.28 136.913 2177.08 131.65 Q2176.44 131.044 2176.44 130.863 Q2176.44 130.535 2176.77 130.535 Q2177 130.535 2177.8 131.208 Q2178.62 131.88 2179.85 133.421 Q2181.1 134.962 2182.02 136.848 Q2184.23 141.422 2184.23 147.325 Q2184.23 152.997 2182.11 157.572 Q2181.21 159.49 2179.95 161.097 Q2178.69 162.704 2177.85 163.409 Q2177.02 164.114 2176.77 164.114 Q2176.44 164.114 2176.44 163.786 Z" fill="#000000" fill-rule="nonzero" fill-opacity="1" /><path clip-path="url(#clip200)" d="M2194.45 178.042 Q2194.45 169.938 2197.47 163.403 Q2198.76 160.663 2200.57 158.368 Q2202.37 156.072 2203.56 155.065 Q2204.76 154.058 2205.09 154.058 Q2205.55 154.058 2205.58 154.526 Q2205.58 154.761 2204.95 155.346 Q2197.22 163.216 2197.24 178.042 Q2197.24 192.916 2204.76 200.481 Q2205.58 201.301 2205.58 201.559 Q2205.58 202.027 2205.09 202.027 Q2204.76 202.027 2203.61 201.067 Q2202.46 200.106 2200.68 197.905 Q2198.9 195.703 2197.61 193.009 Q2194.45 186.475 2194.45 178.042 Z" fill="#000000" fill-rule="nonzero" fill-opacity="1" /><path clip-path="url(#clip200)" d="M2233.11 171.999 Q2233.11 173.311 2232.29 174.061 Q2231.47 174.787 2230.53 174.787 Q2229.64 174.787 2229.18 174.271 Q2228.71 173.756 2228.71 173.1 Q2228.71 172.21 2229.36 171.437 Q2230.02 170.664 2231 170.5 Q2230.04 169.891 2228.61 169.891 Q2227.68 169.891 2226.86 170.383 Q2226.06 170.875 2225.57 171.508 Q2225.1 172.14 2224.68 173.053 Q2224.28 173.944 2224.12 174.482 Q2223.98 174.998 2223.86 175.56 L2222.22 182.118 Q2221.42 185.233 2221.42 186.334 Q2221.42 187.692 2222.08 188.606 Q2222.73 189.496 2224.05 189.496 Q2224.56 189.496 2225.15 189.355 Q2225.73 189.192 2226.48 188.77 Q2227.25 188.325 2227.93 187.669 Q2228.64 186.99 2229.32 185.842 Q2230 184.694 2230.44 183.219 Q2230.58 182.704 2231.05 182.704 Q2231.63 182.704 2231.63 183.172 Q2231.63 183.57 2231.31 184.413 Q2231 185.233 2230.32 186.311 Q2229.67 187.365 2228.8 188.325 Q2227.93 189.262 2226.65 189.918 Q2225.36 190.573 2223.95 190.573 Q2221.94 190.573 2220.6 189.496 Q2219.27 188.419 2218.78 186.92 Q2218.66 187.13 2218.49 187.411 Q2218.33 187.692 2217.84 188.325 Q2217.37 188.934 2216.83 189.402 Q2216.29 189.847 2215.45 190.199 Q2214.63 190.573 2213.74 190.573 Q2212.62 190.573 2211.61 190.246 Q2210.62 189.918 2209.92 189.168 Q2209.22 188.419 2209.22 187.388 Q2209.22 186.24 2209.99 185.444 Q2210.79 184.624 2211.87 184.624 Q2212.55 184.624 2213.08 185.022 Q2213.65 185.421 2213.65 186.287 Q2213.65 187.247 2212.99 187.974 Q2212.33 188.7 2211.4 188.887 Q2212.36 189.496 2213.79 189.496 Q2215.33 189.496 2216.55 188.138 Q2217.77 186.779 2218.35 184.507 Q2219.81 179.05 2220.37 176.614 Q2220.93 174.154 2220.93 173.1 Q2220.93 172.117 2220.67 171.437 Q2220.42 170.758 2219.97 170.454 Q2219.55 170.126 2219.15 170.009 Q2218.78 169.891 2218.35 169.891 Q2217.65 169.891 2216.86 170.173 Q2216.08 170.454 2215.15 171.109 Q2214.23 171.742 2213.37 173.053 Q2212.5 174.365 2211.91 176.169 Q2211.8 176.707 2211.28 176.707 Q2210.72 176.684 2210.72 176.215 Q2210.72 175.817 2211.02 174.998 Q2211.35 174.154 2212.01 173.1 Q2212.69 172.046 2213.55 171.109 Q2214.44 170.149 2215.73 169.493 Q2217.04 168.837 2218.45 168.837 Q2219.08 168.837 2219.69 168.978 Q2220.32 169.095 2221.07 169.446 Q2221.84 169.798 2222.52 170.571 Q2223.2 171.344 2223.62 172.468 Q2223.91 171.929 2224.28 171.414 Q2224.68 170.899 2225.29 170.266 Q2225.92 169.61 2226.79 169.236 Q2227.68 168.837 2228.66 168.837 Q2229.62 168.837 2230.56 169.095 Q2231.49 169.329 2232.29 170.102 Q2233.11 170.852 2233.11 171.999 Z" fill="#000000" fill-rule="nonzero" fill-opacity="1" /><path clip-path="url(#clip200)" d="M2237.72 201.559 Q2237.72 201.324 2238.33 200.739 Q2246.06 192.869 2246.06 178.042 Q2246.06 163.169 2238.64 155.651 Q2237.72 154.784 2237.72 154.526 Q2237.72 154.058 2238.19 154.058 Q2238.52 154.058 2239.67 155.018 Q2240.84 155.979 2242.59 158.18 Q2244.38 160.382 2245.69 163.076 Q2248.85 169.61 2248.85 178.042 Q2248.85 186.147 2245.83 192.681 Q2244.54 195.422 2242.74 197.717 Q2240.93 200.013 2239.74 201.02 Q2238.54 202.027 2238.19 202.027 Q2237.72 202.027 2237.72 201.559 Z" fill="#000000" fill-rule="nonzero" fill-opacity="1" /></svg>
