<?xml version="1.0" encoding="utf-8"?>
<svg xmlns="http://www.w3.org/2000/svg" xmlns:xlink="http://www.w3.org/1999/xlink" width="600" height="400" viewBox="0 0 2400 1600">
<defs>
  <clipPath id="clip640">
    <rect x="0" y="0" width="2400" height="1600"/>
  </clipPath>
</defs>
<path clip-path="url(#clip640)" d="M0 1600 L2400 1600 L2400 0 L0 0  Z" fill="#ffffff" fill-rule="evenodd" fill-opacity="1"/>
<defs>
  <clipPath id="clip641">
    <rect x="480" y="0" width="1681" height="1600"/>
  </clipPath>
</defs>
<path clip-path="url(#clip640)" d="M148.057 1486.45 L2352.76 1486.45 L2352.76 47.2441 L148.057 47.2441  Z" fill="#ffffff" fill-rule="evenodd" fill-opacity="1"/>
<defs>
  <clipPath id="clip642">
    <rect x="148" y="47" width="2206" height="1440"/>
  </clipPath>
</defs>
<polyline clip-path="url(#clip642)" style="stroke:#000000; stroke-linecap:round; stroke-linejoin:round; stroke-width:2; stroke-opacity:0.1; fill:none" points="210.454,1486.45 210.454,47.2441 "/>
<polyline clip-path="url(#clip642)" style="stroke:#000000; stroke-linecap:round; stroke-linejoin:round; stroke-width:2; stroke-opacity:0.1; fill:none" points="557.105,1486.45 557.105,47.2441 "/>
<polyline clip-path="url(#clip642)" style="stroke:#000000; stroke-linecap:round; stroke-linejoin:round; stroke-width:2; stroke-opacity:0.1; fill:none" points="903.755,1486.45 903.755,47.2441 "/>
<polyline clip-path="url(#clip642)" style="stroke:#000000; stroke-linecap:round; stroke-linejoin:round; stroke-width:2; stroke-opacity:0.1; fill:none" points="1250.41,1486.45 1250.41,47.2441 "/>
<polyline clip-path="url(#clip642)" style="stroke:#000000; stroke-linecap:round; stroke-linejoin:round; stroke-width:2; stroke-opacity:0.1; fill:none" points="1597.06,1486.45 1597.06,47.2441 "/>
<polyline clip-path="url(#clip642)" style="stroke:#000000; stroke-linecap:round; stroke-linejoin:round; stroke-width:2; stroke-opacity:0.1; fill:none" points="1943.71,1486.45 1943.71,47.2441 "/>
<polyline clip-path="url(#clip642)" style="stroke:#000000; stroke-linecap:round; stroke-linejoin:round; stroke-width:2; stroke-opacity:0.1; fill:none" points="2290.36,1486.45 2290.36,47.2441 "/>
<polyline clip-path="url(#clip642)" style="stroke:#000000; stroke-linecap:round; stroke-linejoin:round; stroke-width:2; stroke-opacity:0.1; fill:none" points="148.057,1465.03 2352.76,1465.03 "/>
<polyline clip-path="url(#clip642)" style="stroke:#000000; stroke-linecap:round; stroke-linejoin:round; stroke-width:2; stroke-opacity:0.1; fill:none" points="148.057,1207.42 2352.76,1207.42 "/>
<polyline clip-path="url(#clip642)" style="stroke:#000000; stroke-linecap:round; stroke-linejoin:round; stroke-width:2; stroke-opacity:0.1; fill:none" points="148.057,949.808 2352.76,949.808 "/>
<polyline clip-path="url(#clip642)" style="stroke:#000000; stroke-linecap:round; stroke-linejoin:round; stroke-width:2; stroke-opacity:0.1; fill:none" points="148.057,692.199 2352.76,692.199 "/>
<polyline clip-path="url(#clip642)" style="stroke:#000000; stroke-linecap:round; stroke-linejoin:round; stroke-width:2; stroke-opacity:0.1; fill:none" points="148.057,434.591 2352.76,434.591 "/>
<polyline clip-path="url(#clip642)" style="stroke:#000000; stroke-linecap:round; stroke-linejoin:round; stroke-width:2; stroke-opacity:0.1; fill:none" points="148.057,176.982 2352.76,176.982 "/>
<polyline clip-path="url(#clip640)" style="stroke:#000000; stroke-linecap:round; stroke-linejoin:round; stroke-width:4; stroke-opacity:1; fill:none" points="148.057,1486.45 2352.76,1486.45 "/>
<polyline clip-path="url(#clip640)" style="stroke:#000000; stroke-linecap:round; stroke-linejoin:round; stroke-width:4; stroke-opacity:1; fill:none" points="210.454,1486.45 210.454,1467.55 "/>
<polyline clip-path="url(#clip640)" style="stroke:#000000; stroke-linecap:round; stroke-linejoin:round; stroke-width:4; stroke-opacity:1; fill:none" points="557.105,1486.45 557.105,1467.55 "/>
<polyline clip-path="url(#clip640)" style="stroke:#000000; stroke-linecap:round; stroke-linejoin:round; stroke-width:4; stroke-opacity:1; fill:none" points="903.755,1486.45 903.755,1467.55 "/>
<polyline clip-path="url(#clip640)" style="stroke:#000000; stroke-linecap:round; stroke-linejoin:round; stroke-width:4; stroke-opacity:1; fill:none" points="1250.41,1486.45 1250.41,1467.55 "/>
<polyline clip-path="url(#clip640)" style="stroke:#000000; stroke-linecap:round; stroke-linejoin:round; stroke-width:4; stroke-opacity:1; fill:none" points="1597.06,1486.45 1597.06,1467.55 "/>
<polyline clip-path="url(#clip640)" style="stroke:#000000; stroke-linecap:round; stroke-linejoin:round; stroke-width:4; stroke-opacity:1; fill:none" points="1943.71,1486.45 1943.71,1467.55 "/>
<polyline clip-path="url(#clip640)" style="stroke:#000000; stroke-linecap:round; stroke-linejoin:round; stroke-width:4; stroke-opacity:1; fill:none" points="2290.36,1486.45 2290.36,1467.55 "/>
<path clip-path="url(#clip640)" d="M210.454 1517.37 Q206.843 1517.37 205.014 1520.93 Q203.208 1524.47 203.208 1531.6 Q203.208 1538.71 205.014 1542.27 Q206.843 1545.82 210.454 1545.82 Q214.088 1545.82 215.894 1542.27 Q217.722 1538.71 217.722 1531.6 Q217.722 1524.47 215.894 1520.93 Q214.088 1517.37 210.454 1517.37 M210.454 1513.66 Q216.264 1513.66 219.319 1518.27 Q222.398 1522.85 222.398 1531.6 Q222.398 1540.33 219.319 1544.94 Q216.264 1549.52 210.454 1549.52 Q204.644 1549.52 201.565 1544.94 Q198.509 1540.33 198.509 1531.6 Q198.509 1522.85 201.565 1518.27 Q204.644 1513.66 210.454 1513.66 Z" fill="#000000" fill-rule="nonzero" fill-opacity="1" /><path clip-path="url(#clip640)" d="M547.487 1544.91 L555.125 1544.91 L555.125 1518.55 L546.815 1520.21 L546.815 1515.95 L555.079 1514.29 L559.755 1514.29 L559.755 1544.91 L567.394 1544.91 L567.394 1548.85 L547.487 1548.85 L547.487 1544.91 Z" fill="#000000" fill-rule="nonzero" fill-opacity="1" /><path clip-path="url(#clip640)" d="M898.408 1544.91 L914.728 1544.91 L914.728 1548.85 L892.783 1548.85 L892.783 1544.91 Q895.445 1542.16 900.029 1537.53 Q904.635 1532.88 905.816 1531.53 Q908.061 1529.01 908.941 1527.27 Q909.843 1525.51 909.843 1523.82 Q909.843 1521.07 907.899 1519.33 Q905.978 1517.6 902.876 1517.6 Q900.677 1517.6 898.223 1518.36 Q895.793 1519.13 893.015 1520.68 L893.015 1515.95 Q895.839 1514.82 898.292 1514.24 Q900.746 1513.66 902.783 1513.66 Q908.154 1513.66 911.348 1516.35 Q914.542 1519.03 914.542 1523.52 Q914.542 1525.65 913.732 1527.57 Q912.945 1529.47 910.839 1532.07 Q910.26 1532.74 907.158 1535.95 Q904.056 1539.15 898.408 1544.91 Z" fill="#000000" fill-rule="nonzero" fill-opacity="1" /><path clip-path="url(#clip640)" d="M1254.65 1530.21 Q1258.01 1530.93 1259.89 1533.2 Q1261.78 1535.47 1261.78 1538.8 Q1261.78 1543.92 1258.27 1546.72 Q1254.75 1549.52 1248.27 1549.52 Q1246.09 1549.52 1243.77 1549.08 Q1241.48 1548.66 1239.03 1547.81 L1239.03 1543.29 Q1240.97 1544.43 1243.29 1545.01 Q1245.6 1545.58 1248.13 1545.58 Q1252.52 1545.58 1254.82 1543.85 Q1257.13 1542.11 1257.13 1538.8 Q1257.13 1535.75 1254.98 1534.03 Q1252.85 1532.3 1249.03 1532.3 L1245 1532.3 L1245 1528.45 L1249.21 1528.45 Q1252.66 1528.45 1254.49 1527.09 Q1256.32 1525.7 1256.32 1523.11 Q1256.32 1520.45 1254.42 1519.03 Q1252.55 1517.6 1249.03 1517.6 Q1247.11 1517.6 1244.91 1518.01 Q1242.71 1518.43 1240.07 1519.31 L1240.07 1515.14 Q1242.73 1514.4 1245.05 1514.03 Q1247.39 1513.66 1249.45 1513.66 Q1254.77 1513.66 1257.87 1516.09 Q1260.97 1518.5 1260.97 1522.62 Q1260.97 1525.49 1259.33 1527.48 Q1257.69 1529.45 1254.65 1530.21 Z" fill="#000000" fill-rule="nonzero" fill-opacity="1" /><path clip-path="url(#clip640)" d="M1600.07 1518.36 L1588.26 1536.81 L1600.07 1536.81 L1600.07 1518.36 M1598.84 1514.29 L1604.72 1514.29 L1604.72 1536.81 L1609.65 1536.81 L1609.65 1540.7 L1604.72 1540.7 L1604.72 1548.85 L1600.07 1548.85 L1600.07 1540.7 L1584.46 1540.7 L1584.46 1536.19 L1598.84 1514.29 Z" fill="#000000" fill-rule="nonzero" fill-opacity="1" /><path clip-path="url(#clip640)" d="M1933.99 1514.29 L1952.34 1514.29 L1952.34 1518.22 L1938.27 1518.22 L1938.27 1526.7 Q1939.29 1526.35 1940.31 1526.19 Q1941.32 1526 1942.34 1526 Q1948.13 1526 1951.51 1529.17 Q1954.89 1532.34 1954.89 1537.76 Q1954.89 1543.34 1951.42 1546.44 Q1947.94 1549.52 1941.62 1549.52 Q1939.45 1549.52 1937.18 1549.15 Q1934.93 1548.78 1932.53 1548.04 L1932.53 1543.34 Q1934.61 1544.47 1936.83 1545.03 Q1939.06 1545.58 1941.53 1545.58 Q1945.54 1545.58 1947.87 1543.48 Q1950.21 1541.37 1950.21 1537.76 Q1950.21 1534.15 1947.87 1532.04 Q1945.54 1529.94 1941.53 1529.94 Q1939.66 1529.94 1937.78 1530.35 Q1935.93 1530.77 1933.99 1531.65 L1933.99 1514.29 Z" fill="#000000" fill-rule="nonzero" fill-opacity="1" /><path clip-path="url(#clip640)" d="M2290.76 1529.7 Q2287.62 1529.7 2285.76 1531.86 Q2283.94 1534.01 2283.94 1537.76 Q2283.94 1541.49 2285.76 1543.66 Q2287.62 1545.82 2290.76 1545.82 Q2293.91 1545.82 2295.74 1543.66 Q2297.59 1541.49 2297.59 1537.76 Q2297.59 1534.01 2295.74 1531.86 Q2293.91 1529.7 2290.76 1529.7 M2300.05 1515.05 L2300.05 1519.31 Q2298.29 1518.48 2296.48 1518.04 Q2294.7 1517.6 2292.94 1517.6 Q2288.31 1517.6 2285.86 1520.72 Q2283.43 1523.85 2283.08 1530.17 Q2284.44 1528.15 2286.5 1527.09 Q2288.56 1526 2291.04 1526 Q2296.25 1526 2299.26 1529.17 Q2302.29 1532.32 2302.29 1537.76 Q2302.29 1543.08 2299.14 1546.3 Q2296 1549.52 2290.76 1549.52 Q2284.77 1549.52 2281.6 1544.94 Q2278.43 1540.33 2278.43 1531.6 Q2278.43 1523.41 2282.31 1518.55 Q2286.2 1513.66 2292.75 1513.66 Q2294.51 1513.66 2296.3 1514.01 Q2298.1 1514.36 2300.05 1515.05 Z" fill="#000000" fill-rule="nonzero" fill-opacity="1" /><polyline clip-path="url(#clip640)" style="stroke:#000000; stroke-linecap:round; stroke-linejoin:round; stroke-width:4; stroke-opacity:1; fill:none" points="148.057,1486.45 148.057,47.2441 "/>
<polyline clip-path="url(#clip640)" style="stroke:#000000; stroke-linecap:round; stroke-linejoin:round; stroke-width:4; stroke-opacity:1; fill:none" points="148.057,1465.03 166.954,1465.03 "/>
<polyline clip-path="url(#clip640)" style="stroke:#000000; stroke-linecap:round; stroke-linejoin:round; stroke-width:4; stroke-opacity:1; fill:none" points="148.057,1207.42 166.954,1207.42 "/>
<polyline clip-path="url(#clip640)" style="stroke:#000000; stroke-linecap:round; stroke-linejoin:round; stroke-width:4; stroke-opacity:1; fill:none" points="148.057,949.808 166.954,949.808 "/>
<polyline clip-path="url(#clip640)" style="stroke:#000000; stroke-linecap:round; stroke-linejoin:round; stroke-width:4; stroke-opacity:1; fill:none" points="148.057,692.199 166.954,692.199 "/>
<polyline clip-path="url(#clip640)" style="stroke:#000000; stroke-linecap:round; stroke-linejoin:round; stroke-width:4; stroke-opacity:1; fill:none" points="148.057,434.591 166.954,434.591 "/>
<polyline clip-path="url(#clip640)" style="stroke:#000000; stroke-linecap:round; stroke-linejoin:round; stroke-width:4; stroke-opacity:1; fill:none" points="148.057,176.982 166.954,176.982 "/>
<path clip-path="url(#clip640)" d="M50.9921 1465.48 L80.6679 1465.48 L80.6679 1469.41 L50.9921 1469.41 L50.9921 1465.48 Z" fill="#000000" fill-rule="nonzero" fill-opacity="1" /><path clip-path="url(#clip640)" d="M104.927 1463.67 Q108.283 1464.39 110.158 1466.66 Q112.057 1468.93 112.057 1472.26 Q112.057 1477.38 108.538 1480.18 Q105.02 1482.98 98.5382 1482.98 Q96.3623 1482.98 94.0475 1482.54 Q91.7558 1482.12 89.3021 1481.26 L89.3021 1476.75 Q91.2465 1477.88 93.5613 1478.46 Q95.8761 1479.04 98.3993 1479.04 Q102.797 1479.04 105.089 1477.31 Q107.404 1475.57 107.404 1472.26 Q107.404 1469.2 105.251 1467.49 Q103.121 1465.75 99.3021 1465.75 L95.2743 1465.75 L95.2743 1461.91 L99.4872 1461.91 Q102.936 1461.91 104.765 1460.55 Q106.594 1459.16 106.594 1456.56 Q106.594 1453.9 104.696 1452.49 Q102.821 1451.06 99.3021 1451.06 Q97.3808 1451.06 95.1817 1451.47 Q92.9826 1451.89 90.3438 1452.77 L90.3438 1448.6 Q93.0058 1447.86 95.3206 1447.49 Q97.6585 1447.12 99.7187 1447.12 Q105.043 1447.12 108.145 1449.55 Q111.246 1451.96 111.246 1456.08 Q111.246 1458.95 109.603 1460.94 Q107.959 1462.91 104.927 1463.67 Z" fill="#000000" fill-rule="nonzero" fill-opacity="1" /><path clip-path="url(#clip640)" d="M51.9412 1207.87 L81.617 1207.87 L81.617 1211.8 L51.9412 1211.8 L51.9412 1207.87 Z" fill="#000000" fill-rule="nonzero" fill-opacity="1" /><path clip-path="url(#clip640)" d="M95.7373 1220.76 L112.057 1220.76 L112.057 1224.7 L90.1123 1224.7 L90.1123 1220.76 Q92.7743 1218.01 97.3576 1213.38 Q101.964 1208.72 103.145 1207.38 Q105.39 1204.86 106.27 1203.12 Q107.172 1201.36 107.172 1199.67 Q107.172 1196.92 105.228 1195.18 Q103.307 1193.45 100.205 1193.45 Q98.0058 1193.45 95.5521 1194.21 Q93.1215 1194.97 90.3438 1196.53 L90.3438 1191.8 Q93.1678 1190.67 95.6215 1190.09 Q98.0752 1189.51 100.112 1189.51 Q105.483 1189.51 108.677 1192.2 Q111.871 1194.88 111.871 1199.37 Q111.871 1201.5 111.061 1203.42 Q110.274 1205.32 108.168 1207.91 Q107.589 1208.59 104.487 1211.8 Q101.385 1215 95.7373 1220.76 Z" fill="#000000" fill-rule="nonzero" fill-opacity="1" /><path clip-path="url(#clip640)" d="M51.5708 950.259 L81.2466 950.259 L81.2466 954.195 L51.5708 954.195 L51.5708 950.259 Z" fill="#000000" fill-rule="nonzero" fill-opacity="1" /><path clip-path="url(#clip640)" d="M92.1493 963.153 L99.7882 963.153 L99.7882 936.787 L91.478 938.454 L91.478 934.195 L99.7419 932.528 L104.418 932.528 L104.418 963.153 L112.057 963.153 L112.057 967.088 L92.1493 967.088 L92.1493 963.153 Z" fill="#000000" fill-rule="nonzero" fill-opacity="1" /><path clip-path="url(#clip640)" d="M100.112 677.998 Q96.5011 677.998 94.6724 681.563 Q92.8669 685.104 92.8669 692.234 Q92.8669 699.341 94.6724 702.905 Q96.5011 706.447 100.112 706.447 Q103.746 706.447 105.552 702.905 Q107.381 699.341 107.381 692.234 Q107.381 685.104 105.552 681.563 Q103.746 677.998 100.112 677.998 M100.112 674.294 Q105.922 674.294 108.978 678.901 Q112.057 683.484 112.057 692.234 Q112.057 700.961 108.978 705.567 Q105.922 710.151 100.112 710.151 Q94.3021 710.151 91.2234 705.567 Q88.1679 700.961 88.1679 692.234 Q88.1679 683.484 91.2234 678.901 Q94.3021 674.294 100.112 674.294 Z" fill="#000000" fill-rule="nonzero" fill-opacity="1" /><path clip-path="url(#clip640)" d="M92.1493 447.935 L99.7882 447.935 L99.7882 421.57 L91.478 423.237 L91.478 418.977 L99.7419 417.311 L104.418 417.311 L104.418 447.935 L112.057 447.935 L112.057 451.871 L92.1493 451.871 L92.1493 447.935 Z" fill="#000000" fill-rule="nonzero" fill-opacity="1" /><path clip-path="url(#clip640)" d="M95.7373 190.327 L112.057 190.327 L112.057 194.262 L90.1123 194.262 L90.1123 190.327 Q92.7743 187.572 97.3576 182.943 Q101.964 178.29 103.145 176.947 Q105.39 174.424 106.27 172.688 Q107.172 170.929 107.172 169.239 Q107.172 166.484 105.228 164.748 Q103.307 163.012 100.205 163.012 Q98.0058 163.012 95.5521 163.776 Q93.1215 164.54 90.3438 166.091 L90.3438 161.369 Q93.1678 160.234 95.6215 159.656 Q98.0752 159.077 100.112 159.077 Q105.483 159.077 108.677 161.762 Q111.871 164.447 111.871 168.938 Q111.871 171.068 111.061 172.989 Q110.274 174.887 108.168 177.48 Q107.589 178.151 104.487 181.368 Q101.385 184.563 95.7373 190.327 Z" fill="#000000" fill-rule="nonzero" fill-opacity="1" /><polyline clip-path="url(#clip642)" style="stroke:#009af9; stroke-linecap:round; stroke-linejoin:round; stroke-width:4; stroke-opacity:1; fill:none" points="210.454,692.199 210.622,650.922 210.789,611.673 210.957,574.383 211.125,538.984 211.293,505.412 211.46,473.602 211.628,443.493 211.796,415.025 211.964,388.139 212.131,362.779 212.299,338.89 212.467,316.419 212.635,295.313 212.802,275.523 212.97,257.001 213.138,239.698 213.306,223.568 213.473,208.568 213.641,194.654 213.809,181.785 213.977,169.919 214.144,159.018 214.312,149.043 214.48,139.957 214.815,124.311 215.151,111.807 215.486,102.188 215.822,95.2144 216.157,90.6595 216.493,88.3127 216.828,87.9763 217.164,89.4655 217.499,92.6075 217.835,97.2412 218.17,103.216 218.506,110.392 219.177,127.832 219.848,148.623 220.519,171.955 221.19,197.134 222.532,250.751 223.874,305.747 225.216,359.524 226.558,410.347 227.229,434.292 227.9,457.136 228.571,478.818 229.242,499.3 229.913,518.565 230.584,536.608 230.92,545.174 231.255,553.439 231.591,561.407 231.926,569.08 232.909,589.897 233.891,608.345 234.874,624.565 235.856,638.711 236.839,650.948 237.821,661.44 238.804,670.351 239.786,677.842 240.769,684.066 241.751,689.169 242.734,693.285 243.716,696.542 245.681,700.929 247.646,703.135 251.576,703.47 255.506,701.192 259.436,698.317 263.366,695.793 271.227,692.761 279.087,691.837 286.947,691.837 294.807,692.032 326.247,692.21 357.688,692.198 386.94,692.199 416.192,692.199 455.401,692.199 494.609,692.199 559.406,692.199 619.661,692.199 695.302,692.199 763.151,692.199 840.815,692.199 898.868,692.199 973.12,692.199 1040.89,692.199 1118.02,692.199 1179.16,692.199 1255.12,692.199 1313.3,692.199 1395.32,692.199 1456.61,692.199 1526.31,692.199 1595.34,692.199 1671.28,692.199 1729.29,692.199 1802.49,692.199 1870.19,692.199 1940.01,692.199 2010.79,692.199 2047.74,692.198 2084.69,692.199 2113.8,692.196 2142.91,692.191 2176.05,692.124 2209.2,692.478 2217.48,692.692 2225.77,692.306 2234.05,690.067 2242.34,683.364 2246.48,679.756 2250.63,678.239 2252.7,678.323 2254.77,680.574 2255.8,682.734 2256.84,685.874 2257.88,689.617 2258.91,695.644 2259.95,701.373 2260.98,709.876 2262.02,720.592 2263.06,731.263 2264.09,744.706 2265.13,762.045 2266.16,781.004 2267.2,804.335 2268.23,829.095 2269.27,857.815 2270.31,889.288 2271.34,925.407 2272.38,965.003 2273.41,1006.97 2274.45,1053.19 2275.48,1103.86 2275.95,1125.02 2276.41,1147.62 2276.65,1160.71 2276.88,1174.81 2277.11,1186.34 2277.34,1197.59 2278.27,1244.76 2279.2,1292.58 2279.67,1313.84 2280.13,1335.9 2280.6,1357.9 2281.06,1375.87 2281.53,1394.79 2281.99,1411.22 2282.46,1423.55 2282.92,1433.92 2283.15,1438.79 2283.39,1443.49 2283.62,1444.01 2283.85,1444.91 2284.08,1445.33 2284.32,1445.72 2284.55,1442.84 2284.78,1441.62 2284.9,1442.11 2285.01,1440.14 2285.13,1435.05 2285.25,1430.65 2285.36,1430.28 2285.48,1425.85 2285.59,1419.19 2285.71,1415.82 2285.94,1402.88 2286.18,1390.43 2286.29,1381.69 2286.41,1378.79 2286.52,1368.11 2286.64,1358.78 2286.76,1351.3 2286.87,1342.09 2286.99,1329.38 2287.1,1320.16 2287.34,1295.88 2287.57,1269.05 2287.8,1240.46 2288.03,1209.32 2288.15,1190.95 2288.27,1174.01 2288.38,1155.24 2288.5,1134.27 2288.62,1115.66 2288.73,1093.51 2288.85,1071.48 2288.96,1049.12 2289.08,1027.28 2289.2,998.697 2289.31,975.601 2289.43,948.837 2289.55,917.542 2289.66,887.36 2289.78,861.874 2289.89,826.384 2290.01,796.842 2290.13,761.382 2290.24,727.282 2290.36,691.438 "/>
<path clip-path="url(#clip640)" d="M1606.86 212.918 L2279.27 212.918 L2279.27 95.2176 L1606.86 95.2176  Z" fill="#ffffff" fill-rule="evenodd" fill-opacity="1"/>
<polyline clip-path="url(#clip640)" style="stroke:#000000; stroke-linecap:round; stroke-linejoin:round; stroke-width:4; stroke-opacity:1; fill:none" points="1606.86,212.918 2279.27,212.918 2279.27,95.2176 1606.86,95.2176 1606.86,212.918 "/>
<polyline clip-path="url(#clip640)" style="stroke:#009af9; stroke-linecap:round; stroke-linejoin:round; stroke-width:4; stroke-opacity:1; fill:none" points="1631.36,154.068 1778.34,154.068 "/>
<path clip-path="url(#clip640)" d="M1818.02 138.323 Q1817.3 137.907 1816.44 137.721 Q1815.61 137.513 1814.59 137.513 Q1810.98 137.513 1809.04 139.874 Q1807.12 142.212 1807.12 146.61 L1807.12 160.268 L1802.83 160.268 L1802.83 134.342 L1807.12 134.342 L1807.12 138.37 Q1808.46 136.008 1810.61 134.874 Q1812.76 133.717 1815.84 133.717 Q1816.28 133.717 1816.81 133.786 Q1817.35 133.833 1818 133.948 L1818.02 138.323 Z" fill="#000000" fill-rule="nonzero" fill-opacity="1" /><path clip-path="url(#clip640)" d="M1834.27 147.235 Q1829.11 147.235 1827.12 148.416 Q1825.12 149.596 1825.12 152.444 Q1825.12 154.712 1826.61 156.055 Q1828.11 157.374 1830.68 157.374 Q1834.22 157.374 1836.35 154.874 Q1838.5 152.351 1838.5 148.184 L1838.5 147.235 L1834.27 147.235 M1842.76 145.476 L1842.76 160.268 L1838.5 160.268 L1838.5 156.332 Q1837.05 158.693 1834.87 159.828 Q1832.69 160.939 1829.55 160.939 Q1825.56 160.939 1823.2 158.717 Q1820.87 156.471 1820.87 152.721 Q1820.87 148.346 1823.78 146.124 Q1826.72 143.902 1832.53 143.902 L1838.5 143.902 L1838.5 143.485 Q1838.5 140.545 1836.56 138.948 Q1834.64 137.328 1831.14 137.328 Q1828.92 137.328 1826.81 137.86 Q1824.71 138.393 1822.76 139.457 L1822.76 135.522 Q1825.1 134.62 1827.3 134.18 Q1829.5 133.717 1831.58 133.717 Q1837.21 133.717 1839.99 136.633 Q1842.76 139.55 1842.76 145.476 Z" fill="#000000" fill-rule="nonzero" fill-opacity="1" /><path clip-path="url(#clip640)" d="M1849.68 134.342 L1869.92 134.342 L1869.92 138.231 L1853.9 156.865 L1869.92 156.865 L1869.92 160.268 L1849.11 160.268 L1849.11 156.379 L1865.12 137.745 L1849.68 137.745 L1849.68 134.342 Z" fill="#000000" fill-rule="nonzero" fill-opacity="1" /><path clip-path="url(#clip640)" d="M1876.42 124.249 L1880.68 124.249 L1880.68 160.268 L1876.42 160.268 L1876.42 124.249 Z" fill="#000000" fill-rule="nonzero" fill-opacity="1" /><path clip-path="url(#clip640)" d="M1889.59 134.342 L1893.85 134.342 L1893.85 160.268 L1889.59 160.268 L1889.59 134.342 M1889.59 124.249 L1893.85 124.249 L1893.85 129.643 L1889.59 129.643 L1889.59 124.249 Z" fill="#000000" fill-rule="nonzero" fill-opacity="1" /><path clip-path="url(#clip640)" d="M1902.6 124.249 L1906.88 124.249 L1906.88 145.522 L1919.59 134.342 L1925.03 134.342 L1911.28 146.471 L1925.61 160.268 L1920.05 160.268 L1906.88 147.606 L1906.88 160.268 L1902.6 160.268 L1902.6 124.249 Z" fill="#000000" fill-rule="nonzero" fill-opacity="1" /><path clip-path="url(#clip640)" d="M1941.17 147.235 Q1936 147.235 1934.01 148.416 Q1932.02 149.596 1932.02 152.444 Q1932.02 154.712 1933.5 156.055 Q1935.01 157.374 1937.58 157.374 Q1941.12 157.374 1943.25 154.874 Q1945.4 152.351 1945.4 148.184 L1945.4 147.235 L1941.17 147.235 M1949.66 145.476 L1949.66 160.268 L1945.4 160.268 L1945.4 156.332 Q1943.94 158.693 1941.77 159.828 Q1939.59 160.939 1936.44 160.939 Q1932.46 160.939 1930.1 158.717 Q1927.76 156.471 1927.76 152.721 Q1927.76 148.346 1930.68 146.124 Q1933.62 143.902 1939.43 143.902 L1945.4 143.902 L1945.4 143.485 Q1945.4 140.545 1943.46 138.948 Q1941.54 137.328 1938.04 137.328 Q1935.82 137.328 1933.71 137.86 Q1931.61 138.393 1929.66 139.457 L1929.66 135.522 Q1932 134.62 1934.2 134.18 Q1936.4 133.717 1938.48 133.717 Q1944.11 133.717 1946.88 136.633 Q1949.66 139.55 1949.66 145.476 Z" fill="#000000" fill-rule="nonzero" fill-opacity="1" /><path clip-path="url(#clip640)" d="M1992.95 129.748 Q1992.95 131.036 1992.13 131.833 Q1991.33 132.629 1990.33 132.629 Q1989.6 132.629 1989.06 132.184 Q1988.55 131.739 1988.55 130.966 Q1988.55 130.17 1989.16 129.327 Q1989.76 128.483 1991.15 128.366 Q1990.23 127.5 1988.78 127.5 Q1988.06 127.5 1987.45 127.968 Q1986.86 128.413 1986.53 129.139 Q1986.18 129.889 1985.38 134.128 Q1985.13 135.51 1984.89 136.845 Q1984.66 138.18 1984.38 139.586 L1988.36 139.586 Q1988.87 139.586 1989.09 139.609 Q1989.3 139.632 1989.46 139.749 Q1989.65 139.867 1989.65 140.124 Q1989.65 140.78 1989.34 140.944 Q1989.06 141.085 1988.22 141.085 L1984.1 141.085 L1981.22 156.286 Q1981.15 156.731 1980.84 158.136 Q1980.56 159.518 1979.88 161.79 Q1979.2 164.085 1978.52 165.444 Q1978.15 166.217 1977.66 166.943 Q1977.19 167.692 1976.51 168.442 Q1975.83 169.192 1974.94 169.637 Q1974.05 170.105 1973.11 170.105 Q1971.52 170.105 1970.28 169.215 Q1969.04 168.325 1969.04 166.802 Q1969.04 165.514 1969.83 164.718 Q1970.65 163.921 1971.66 163.921 Q1972.39 163.921 1972.9 164.366 Q1973.44 164.812 1973.44 165.584 Q1973.44 165.912 1973.32 166.287 Q1973.21 166.662 1972.95 167.083 Q1972.69 167.529 1972.13 167.833 Q1971.57 168.137 1970.79 168.184 Q1971.71 169.051 1973.11 169.051 Q1973.56 169.051 1973.95 168.864 Q1974.35 168.7 1974.68 168.278 Q1975.03 167.856 1975.29 167.435 Q1975.55 167.037 1975.81 166.264 Q1976.06 165.514 1976.23 164.952 Q1976.39 164.39 1976.6 163.383 Q1976.84 162.376 1976.95 161.767 Q1977.07 161.181 1977.28 160.033 L1980.86 141.085 L1977.7 141.085 Q1977.14 141.085 1976.91 141.061 Q1976.7 141.038 1976.53 140.921 Q1976.37 140.78 1976.37 140.499 Q1976.37 140.054 1976.55 139.867 Q1976.77 139.656 1977 139.632 Q1977.23 139.586 1977.8 139.586 L1981.12 139.586 Q1982.25 133.66 1982.69 132.067 Q1983.21 130.381 1984 129.209 Q1984.8 128.015 1985.69 127.453 Q1986.58 126.891 1987.31 126.68 Q1988.06 126.446 1988.78 126.446 Q1990.42 126.446 1991.69 127.336 Q1992.95 128.202 1992.95 129.748 Z" fill="#000000" fill-rule="nonzero" fill-opacity="1" /><path clip-path="url(#clip640)" d="M1999.4 148.275 Q1999.4 140.171 2002.42 133.636 Q2003.71 130.896 2005.52 128.6 Q2007.32 126.305 2008.51 125.298 Q2009.71 124.291 2010.04 124.291 Q2010.51 124.291 2010.53 124.759 Q2010.53 124.993 2009.9 125.579 Q2002.17 133.449 2002.19 148.275 Q2002.19 163.149 2009.71 170.714 Q2010.53 171.534 2010.53 171.791 Q2010.53 172.26 2010.04 172.26 Q2009.71 172.26 2008.56 171.3 Q2007.41 170.339 2005.63 168.137 Q2003.85 165.936 2002.57 163.242 Q1999.4 156.707 1999.4 148.275 Z" fill="#000000" fill-rule="nonzero" fill-opacity="1" /><path clip-path="url(#clip640)" d="M2038.06 142.232 Q2038.06 143.544 2037.24 144.293 Q2036.42 145.02 2035.48 145.02 Q2034.59 145.02 2034.13 144.504 Q2033.66 143.989 2033.66 143.333 Q2033.66 142.443 2034.31 141.67 Q2034.97 140.897 2035.95 140.733 Q2034.99 140.124 2033.56 140.124 Q2032.63 140.124 2031.81 140.616 Q2031.01 141.108 2030.52 141.74 Q2030.05 142.373 2029.63 143.286 Q2029.23 144.176 2029.07 144.715 Q2028.93 145.23 2028.81 145.792 L2027.17 152.351 Q2026.37 155.466 2026.37 156.567 Q2026.37 157.925 2027.03 158.839 Q2027.69 159.729 2029 159.729 Q2029.51 159.729 2030.1 159.588 Q2030.68 159.424 2031.43 159.003 Q2032.21 158.558 2032.89 157.902 Q2033.59 157.223 2034.27 156.075 Q2034.95 154.927 2035.39 153.452 Q2035.53 152.936 2036 152.936 Q2036.59 152.936 2036.59 153.405 Q2036.59 153.803 2036.26 154.646 Q2035.95 155.466 2035.27 156.543 Q2034.62 157.597 2033.75 158.558 Q2032.89 159.495 2031.6 160.15 Q2030.31 160.806 2028.9 160.806 Q2026.89 160.806 2025.55 159.729 Q2024.22 158.651 2023.73 157.152 Q2023.61 157.363 2023.45 157.644 Q2023.28 157.925 2022.79 158.558 Q2022.32 159.167 2021.78 159.635 Q2021.24 160.08 2020.4 160.432 Q2019.58 160.806 2018.69 160.806 Q2017.57 160.806 2016.56 160.478 Q2015.58 160.15 2014.87 159.401 Q2014.17 158.651 2014.17 157.621 Q2014.17 156.473 2014.94 155.677 Q2015.74 154.857 2016.82 154.857 Q2017.5 154.857 2018.04 155.255 Q2018.6 155.653 2018.6 156.52 Q2018.6 157.48 2017.94 158.206 Q2017.29 158.932 2016.35 159.12 Q2017.31 159.729 2018.74 159.729 Q2020.28 159.729 2021.5 158.37 Q2022.72 157.012 2023.31 154.74 Q2024.76 149.282 2025.32 146.846 Q2025.88 144.387 2025.88 143.333 Q2025.88 142.349 2025.62 141.67 Q2025.37 140.991 2024.92 140.686 Q2024.5 140.358 2024.1 140.241 Q2023.73 140.124 2023.31 140.124 Q2022.6 140.124 2021.81 140.405 Q2021.03 140.686 2020.1 141.342 Q2019.18 141.975 2018.32 143.286 Q2017.45 144.598 2016.86 146.401 Q2016.75 146.94 2016.23 146.94 Q2015.67 146.917 2015.67 146.448 Q2015.67 146.05 2015.97 145.23 Q2016.3 144.387 2016.96 143.333 Q2017.64 142.279 2018.5 141.342 Q2019.39 140.382 2020.68 139.726 Q2021.99 139.07 2023.4 139.07 Q2024.03 139.07 2024.64 139.211 Q2025.27 139.328 2026.02 139.679 Q2026.8 140.031 2027.47 140.804 Q2028.15 141.576 2028.58 142.701 Q2028.86 142.162 2029.23 141.647 Q2029.63 141.131 2030.24 140.499 Q2030.87 139.843 2031.74 139.468 Q2032.63 139.07 2033.61 139.07 Q2034.57 139.07 2035.51 139.328 Q2036.45 139.562 2037.24 140.335 Q2038.06 141.085 2038.06 142.232 Z" fill="#000000" fill-rule="nonzero" fill-opacity="1" /><path clip-path="url(#clip640)" d="M2042.67 171.791 Q2042.67 171.557 2043.28 170.972 Q2051.01 163.102 2051.01 148.275 Q2051.01 133.402 2043.59 125.883 Q2042.67 125.017 2042.67 124.759 Q2042.67 124.291 2043.14 124.291 Q2043.47 124.291 2044.62 125.251 Q2045.79 126.211 2047.55 128.413 Q2049.33 130.615 2050.64 133.308 Q2053.8 139.843 2053.8 148.275 Q2053.8 156.379 2050.78 162.914 Q2049.49 165.655 2047.69 167.95 Q2045.88 170.246 2044.69 171.253 Q2043.49 172.26 2043.14 172.26 Q2042.67 172.26 2042.67 171.791 Z" fill="#000000" fill-rule="nonzero" fill-opacity="1" /><path clip-path="url(#clip640)" d="M2106.06 147.596 Q2106.34 147.877 2106.34 148.275 Q2106.34 148.673 2106.06 148.955 Q2105.78 149.236 2105.38 149.236 L2075.35 149.236 Q2074.96 149.236 2074.68 148.955 Q2074.39 148.673 2074.39 148.275 Q2074.39 147.877 2074.68 147.596 Q2074.96 147.315 2075.35 147.315 L2105.38 147.315 Q2105.78 147.315 2106.06 147.596 Z" fill="#000000" fill-rule="nonzero" fill-opacity="1" /><path clip-path="url(#clip640)" d="M2149.71 146.729 Q2149.71 150.149 2147.97 153.452 Q2146.26 156.754 2143.57 158.792 Q2140.88 160.806 2138.14 160.806 Q2136.5 160.806 2135.4 159.916 Q2134.32 159.003 2133.73 157.715 Q2133.29 159.307 2132.33 163.125 Q2131.37 166.943 2131.37 167.318 Q2131.37 167.529 2131.41 167.622 Q2131.46 167.716 2131.67 167.833 Q2131.88 167.974 2132.4 168.02 Q2132.91 168.091 2133.78 168.091 Q2134.23 168.091 2134.39 168.091 Q2134.58 168.114 2134.74 168.231 Q2134.93 168.348 2134.93 168.606 Q2134.93 169.566 2134.06 169.566 Q2133.29 169.566 2131.7 169.496 Q2130.1 169.426 2129.31 169.426 Q2128.63 169.426 2127.27 169.496 Q2125.91 169.566 2125.28 169.566 Q2124.65 169.566 2124.65 169.004 Q2124.65 168.676 2124.74 168.465 Q2124.81 168.278 2125 168.184 Q2125.18 168.114 2125.35 168.091 Q2125.49 168.091 2125.77 168.091 Q2126.85 168.091 2127.32 167.903 Q2127.78 167.739 2127.95 167.388 Q2128.14 167.06 2128.35 166.123 L2133.73 144.762 Q2134.06 143.333 2134.06 142.326 Q2134.06 141.061 2133.66 140.593 Q2133.27 140.124 2132.56 140.124 Q2131.34 140.124 2130.55 141.576 Q2129.75 143.029 2129.07 145.839 Q2128.86 146.612 2128.72 146.776 Q2128.6 146.94 2128.25 146.94 Q2127.67 146.917 2127.67 146.448 Q2127.67 146.331 2127.85 145.582 Q2128.04 144.809 2128.39 143.684 Q2128.77 142.537 2129.17 141.811 Q2129.4 141.319 2129.61 140.991 Q2129.82 140.663 2130.24 140.148 Q2130.69 139.632 2131.32 139.351 Q2131.95 139.07 2132.73 139.07 Q2134.23 139.07 2135.47 139.96 Q2136.71 140.85 2137.04 142.654 Q2138.37 141.085 2140.01 140.077 Q2141.65 139.07 2143.31 139.07 Q2146.08 139.07 2147.88 141.225 Q2149.71 143.357 2149.71 146.729 M2146.24 144.621 Q2146.24 142.49 2145.42 141.319 Q2144.63 140.124 2143.17 140.124 Q2141.37 140.124 2139.28 141.951 Q2137.22 143.684 2136.8 145.301 L2134.44 154.693 L2134.3 155.466 Q2134.3 155.606 2134.37 156.028 Q2134.46 156.426 2134.72 157.082 Q2135 157.738 2135.37 158.323 Q2135.77 158.886 2136.47 159.307 Q2137.2 159.729 2138.09 159.729 Q2139.52 159.729 2141.07 158.464 Q2142.63 157.199 2143.81 154.81 Q2144.53 153.264 2145.37 149.938 Q2146.24 146.589 2146.24 144.621 Z" fill="#000000" fill-rule="nonzero" fill-opacity="1" /><path clip-path="url(#clip640)" d="M2154.58 172.152 Q2154.58 166.872 2157.27 163.642 Q2159.96 160.396 2163.42 160.396 Q2165.43 160.396 2166.55 161.429 Q2167.68 162.445 2167.68 164.019 Q2167.68 164.888 2167.17 165.266 Q2166.66 165.643 2166.14 165.643 Q2165.53 165.643 2165.06 165.233 Q2164.58 164.823 2164.58 164.085 Q2164.58 162.577 2166.43 162.577 Q2165.56 161.232 2163.48 161.232 Q2162.84 161.232 2162.19 161.429 Q2161.53 161.609 2160.68 162.232 Q2159.83 162.855 2159.17 163.839 Q2158.51 164.823 2158.05 166.676 Q2157.6 168.528 2157.6 170.938 L2157.6 171.742 Q2158.97 168.413 2161.79 168.43 Q2164.61 168.43 2166.56 170.578 Q2168.51 172.726 2168.51 175.906 Q2168.51 179.169 2166.48 181.333 Q2164.45 183.498 2161.6 183.498 Q2160.32 183.498 2159.15 182.956 Q2158.01 182.432 2156.92 181.219 Q2155.86 180.005 2155.22 177.677 Q2154.58 175.349 2154.58 172.152 M2157.66 175.169 Q2157.66 178.464 2158.27 180.038 Q2158.37 180.3 2158.58 180.661 Q2158.81 181.022 2159.19 181.497 Q2159.58 181.956 2160.22 182.268 Q2160.86 182.563 2161.6 182.563 Q2163.84 182.563 2164.92 180.382 Q2165.5 179.169 2165.5 175.874 Q2165.5 172.512 2164.89 171.283 Q2163.86 169.2 2161.76 169.2 Q2160.35 169.2 2159.37 170.168 Q2158.4 171.135 2158.02 172.43 Q2157.66 173.726 2157.66 175.169 Z" fill="#000000" fill-rule="nonzero" fill-opacity="1" /><path clip-path="url(#clip640)" d="M2171.34 177.349 Q2171.34 176.349 2171.88 175.972 Q2172.42 175.578 2172.99 175.578 Q2173.76 175.578 2174.21 176.07 Q2174.67 176.546 2174.67 177.218 Q2174.67 177.89 2174.21 178.382 Q2173.76 178.858 2172.99 178.858 Q2172.62 178.858 2172.42 178.792 Q2172.86 180.333 2174.21 181.448 Q2175.57 182.563 2177.36 182.563 Q2179.6 182.563 2180.95 180.382 Q2181.75 178.972 2181.75 175.775 Q2181.75 172.955 2181.14 171.545 Q2180.21 169.397 2178.29 169.397 Q2175.57 169.397 2173.96 171.742 Q2173.76 172.037 2173.53 172.053 Q2173.21 172.053 2173.12 171.873 Q2173.06 171.676 2173.06 171.168 L2173.06 161.232 Q2173.06 160.429 2173.39 160.429 Q2173.52 160.429 2173.8 160.527 Q2175.91 161.462 2178.26 161.478 Q2180.67 161.478 2182.83 160.494 Q2183 160.396 2183.09 160.396 Q2183.42 160.396 2183.44 160.773 Q2183.44 160.904 2183.16 161.298 Q2182.9 161.675 2182.32 162.183 Q2181.75 162.675 2181.01 163.15 Q2180.27 163.626 2179.19 163.954 Q2178.13 164.265 2176.95 164.265 Q2175.54 164.265 2174.09 163.823 L2174.09 170.365 Q2175.83 168.659 2178.36 168.659 Q2181.04 168.659 2182.9 170.824 Q2184.75 172.988 2184.75 176.005 Q2184.75 179.169 2182.55 181.333 Q2180.37 183.498 2177.42 183.498 Q2174.73 183.498 2173.03 181.579 Q2171.34 179.661 2171.34 177.349 Z" fill="#000000" fill-rule="nonzero" fill-opacity="1" /><path clip-path="url(#clip640)" d="M2193.08 148.275 Q2193.08 140.171 2196.1 133.636 Q2197.39 130.896 2199.2 128.6 Q2201 126.305 2202.19 125.298 Q2203.39 124.291 2203.72 124.291 Q2204.19 124.291 2204.21 124.759 Q2204.21 124.993 2203.58 125.579 Q2195.85 133.449 2195.87 148.275 Q2195.87 163.149 2203.39 170.714 Q2204.21 171.534 2204.21 171.791 Q2204.21 172.26 2203.72 172.26 Q2203.39 172.26 2202.24 171.3 Q2201.09 170.339 2199.31 168.137 Q2197.53 165.936 2196.24 163.242 Q2193.08 156.707 2193.08 148.275 Z" fill="#000000" fill-rule="nonzero" fill-opacity="1" /><path clip-path="url(#clip640)" d="M2231.74 142.232 Q2231.74 143.544 2230.92 144.293 Q2230.1 145.02 2229.16 145.02 Q2228.27 145.02 2227.81 144.504 Q2227.34 143.989 2227.34 143.333 Q2227.34 142.443 2227.99 141.67 Q2228.65 140.897 2229.63 140.733 Q2228.67 140.124 2227.24 140.124 Q2226.31 140.124 2225.49 140.616 Q2224.69 141.108 2224.2 141.74 Q2223.73 142.373 2223.31 143.286 Q2222.91 144.176 2222.75 144.715 Q2222.61 145.23 2222.49 145.792 L2220.85 152.351 Q2220.05 155.466 2220.05 156.567 Q2220.05 157.925 2220.71 158.839 Q2221.37 159.729 2222.68 159.729 Q2223.19 159.729 2223.78 159.588 Q2224.36 159.424 2225.11 159.003 Q2225.89 158.558 2226.56 157.902 Q2227.27 157.223 2227.95 156.075 Q2228.63 154.927 2229.07 153.452 Q2229.21 152.936 2229.68 152.936 Q2230.27 152.936 2230.27 153.405 Q2230.27 153.803 2229.94 154.646 Q2229.63 155.466 2228.95 156.543 Q2228.3 157.597 2227.43 158.558 Q2226.56 159.495 2225.28 160.15 Q2223.99 160.806 2222.58 160.806 Q2220.57 160.806 2219.23 159.729 Q2217.9 158.651 2217.41 157.152 Q2217.29 157.363 2217.13 157.644 Q2216.96 157.925 2216.47 158.558 Q2216 159.167 2215.46 159.635 Q2214.92 160.08 2214.08 160.432 Q2213.26 160.806 2212.37 160.806 Q2211.25 160.806 2210.24 160.478 Q2209.26 160.15 2208.55 159.401 Q2207.85 158.651 2207.85 157.621 Q2207.85 156.473 2208.62 155.677 Q2209.42 154.857 2210.5 154.857 Q2211.18 154.857 2211.72 155.255 Q2212.28 155.653 2212.28 156.52 Q2212.28 157.48 2211.62 158.206 Q2210.97 158.932 2210.03 159.12 Q2210.99 159.729 2212.42 159.729 Q2213.96 159.729 2215.18 158.37 Q2216.4 157.012 2216.99 154.74 Q2218.44 149.282 2219 146.846 Q2219.56 144.387 2219.56 143.333 Q2219.56 142.349 2219.3 141.67 Q2219.05 140.991 2218.6 140.686 Q2218.18 140.358 2217.78 140.241 Q2217.41 140.124 2216.99 140.124 Q2216.28 140.124 2215.49 140.405 Q2214.71 140.686 2213.78 141.342 Q2212.86 141.975 2212 143.286 Q2211.13 144.598 2210.54 146.401 Q2210.43 146.94 2209.91 146.94 Q2209.35 146.917 2209.35 146.448 Q2209.35 146.05 2209.65 145.23 Q2209.98 144.387 2210.64 143.333 Q2211.32 142.279 2212.18 141.342 Q2213.07 140.382 2214.36 139.726 Q2215.67 139.07 2217.08 139.07 Q2217.71 139.07 2218.32 139.211 Q2218.95 139.328 2219.7 139.679 Q2220.48 140.031 2221.15 140.804 Q2221.83 141.576 2222.26 142.701 Q2222.54 142.162 2222.91 141.647 Q2223.31 141.131 2223.92 140.499 Q2224.55 139.843 2225.42 139.468 Q2226.31 139.07 2227.29 139.07 Q2228.25 139.07 2229.19 139.328 Q2230.13 139.562 2230.92 140.335 Q2231.74 141.085 2231.74 142.232 Z" fill="#000000" fill-rule="nonzero" fill-opacity="1" /><path clip-path="url(#clip640)" d="M2236.35 171.791 Q2236.35 171.557 2236.96 170.972 Q2244.69 163.102 2244.69 148.275 Q2244.69 133.402 2237.27 125.883 Q2236.35 125.017 2236.35 124.759 Q2236.35 124.291 2236.82 124.291 Q2237.15 124.291 2238.3 125.251 Q2239.47 126.211 2241.23 128.413 Q2243.01 130.615 2244.32 133.308 Q2247.48 139.843 2247.48 148.275 Q2247.48 156.379 2244.46 162.914 Q2243.17 165.655 2241.37 167.95 Q2239.56 170.246 2238.37 171.253 Q2237.17 172.26 2236.82 172.26 Q2236.35 172.26 2236.35 171.791 Z" fill="#000000" fill-rule="nonzero" fill-opacity="1" /></svg>
