<?xml version="1.0" encoding="utf-8"?>
<svg xmlns="http://www.w3.org/2000/svg" xmlns:xlink="http://www.w3.org/1999/xlink" width="600" height="400" viewBox="0 0 2400 1600">
<defs>
  <clipPath id="clip100">
    <rect x="0" y="0" width="2400" height="1600"/>
  </clipPath>
</defs>
<path clip-path="url(#clip100)" d="M0 1600 L2400 1600 L2400 0 L0 0  Z" fill="#ffffff" fill-rule="evenodd" fill-opacity="1"/>
<defs>
  <clipPath id="clip101">
    <rect x="480" y="0" width="1681" height="1600"/>
  </clipPath>
</defs>
<path clip-path="url(#clip100)" d="M147.478 1486.45 L2352.76 1486.45 L2352.76 47.2441 L147.478 47.2441  Z" fill="#ffffff" fill-rule="evenodd" fill-opacity="1"/>
<defs>
  <clipPath id="clip102">
    <rect x="147" y="47" width="2206" height="1440"/>
  </clipPath>
</defs>
<polyline clip-path="url(#clip102)" style="stroke:#000000; stroke-linecap:round; stroke-linejoin:round; stroke-width:2; stroke-opacity:0.1; fill:none" points="209.891,1486.45 209.891,47.2441 "/>
<polyline clip-path="url(#clip102)" style="stroke:#000000; stroke-linecap:round; stroke-linejoin:round; stroke-width:2; stroke-opacity:0.1; fill:none" points="556.633,1486.45 556.633,47.2441 "/>
<polyline clip-path="url(#clip102)" style="stroke:#000000; stroke-linecap:round; stroke-linejoin:round; stroke-width:2; stroke-opacity:0.1; fill:none" points="903.375,1486.45 903.375,47.2441 "/>
<polyline clip-path="url(#clip102)" style="stroke:#000000; stroke-linecap:round; stroke-linejoin:round; stroke-width:2; stroke-opacity:0.1; fill:none" points="1250.12,1486.45 1250.12,47.2441 "/>
<polyline clip-path="url(#clip102)" style="stroke:#000000; stroke-linecap:round; stroke-linejoin:round; stroke-width:2; stroke-opacity:0.1; fill:none" points="1596.86,1486.45 1596.86,47.2441 "/>
<polyline clip-path="url(#clip102)" style="stroke:#000000; stroke-linecap:round; stroke-linejoin:round; stroke-width:2; stroke-opacity:0.1; fill:none" points="1943.6,1486.45 1943.6,47.2441 "/>
<polyline clip-path="url(#clip102)" style="stroke:#000000; stroke-linecap:round; stroke-linejoin:round; stroke-width:2; stroke-opacity:0.1; fill:none" points="2290.34,1486.45 2290.34,47.2441 "/>
<polyline clip-path="url(#clip100)" style="stroke:#000000; stroke-linecap:round; stroke-linejoin:round; stroke-width:4; stroke-opacity:1; fill:none" points="147.478,1486.45 2352.76,1486.45 "/>
<polyline clip-path="url(#clip100)" style="stroke:#000000; stroke-linecap:round; stroke-linejoin:round; stroke-width:4; stroke-opacity:1; fill:none" points="209.891,1486.45 209.891,1467.55 "/>
<polyline clip-path="url(#clip100)" style="stroke:#000000; stroke-linecap:round; stroke-linejoin:round; stroke-width:4; stroke-opacity:1; fill:none" points="556.633,1486.45 556.633,1467.55 "/>
<polyline clip-path="url(#clip100)" style="stroke:#000000; stroke-linecap:round; stroke-linejoin:round; stroke-width:4; stroke-opacity:1; fill:none" points="903.375,1486.45 903.375,1467.55 "/>
<polyline clip-path="url(#clip100)" style="stroke:#000000; stroke-linecap:round; stroke-linejoin:round; stroke-width:4; stroke-opacity:1; fill:none" points="1250.12,1486.45 1250.12,1467.55 "/>
<polyline clip-path="url(#clip100)" style="stroke:#000000; stroke-linecap:round; stroke-linejoin:round; stroke-width:4; stroke-opacity:1; fill:none" points="1596.86,1486.45 1596.86,1467.55 "/>
<polyline clip-path="url(#clip100)" style="stroke:#000000; stroke-linecap:round; stroke-linejoin:round; stroke-width:4; stroke-opacity:1; fill:none" points="1943.6,1486.45 1943.6,1467.55 "/>
<polyline clip-path="url(#clip100)" style="stroke:#000000; stroke-linecap:round; stroke-linejoin:round; stroke-width:4; stroke-opacity:1; fill:none" points="2290.34,1486.45 2290.34,1467.55 "/>
<path clip-path="url(#clip100)" d="M209.891 1517.37 Q206.28 1517.37 204.452 1520.93 Q202.646 1524.47 202.646 1531.6 Q202.646 1538.71 204.452 1542.27 Q206.28 1545.82 209.891 1545.82 Q213.526 1545.82 215.331 1542.27 Q217.16 1538.71 217.16 1531.6 Q217.16 1524.47 215.331 1520.93 Q213.526 1517.37 209.891 1517.37 M209.891 1513.66 Q215.702 1513.66 218.757 1518.27 Q221.836 1522.85 221.836 1531.6 Q221.836 1540.33 218.757 1544.94 Q215.702 1549.52 209.891 1549.52 Q204.081 1549.52 201.003 1544.94 Q197.947 1540.33 197.947 1531.6 Q197.947 1522.85 201.003 1518.27 Q204.081 1513.66 209.891 1513.66 Z" fill="#000000" fill-rule="nonzero" fill-opacity="1" /><path clip-path="url(#clip100)" d="M547.015 1544.91 L554.654 1544.91 L554.654 1518.55 L546.344 1520.21 L546.344 1515.95 L554.608 1514.29 L559.284 1514.29 L559.284 1544.91 L566.923 1544.91 L566.923 1548.85 L547.015 1548.85 L547.015 1544.91 Z" fill="#000000" fill-rule="nonzero" fill-opacity="1" /><path clip-path="url(#clip100)" d="M898.028 1544.91 L914.347 1544.91 L914.347 1548.85 L892.403 1548.85 L892.403 1544.91 Q895.065 1542.16 899.648 1537.53 Q904.255 1532.88 905.435 1531.53 Q907.681 1529.01 908.56 1527.27 Q909.463 1525.51 909.463 1523.82 Q909.463 1521.07 907.519 1519.33 Q905.597 1517.6 902.495 1517.6 Q900.296 1517.6 897.843 1518.36 Q895.412 1519.13 892.634 1520.68 L892.634 1515.95 Q895.458 1514.82 897.912 1514.24 Q900.366 1513.66 902.403 1513.66 Q907.773 1513.66 910.968 1516.35 Q914.162 1519.03 914.162 1523.52 Q914.162 1525.65 913.352 1527.57 Q912.565 1529.47 910.458 1532.07 Q909.88 1532.74 906.778 1535.95 Q903.676 1539.15 898.028 1544.91 Z" fill="#000000" fill-rule="nonzero" fill-opacity="1" /><path clip-path="url(#clip100)" d="M1254.36 1530.21 Q1257.72 1530.93 1259.6 1533.2 Q1261.49 1535.47 1261.49 1538.8 Q1261.49 1543.92 1257.98 1546.72 Q1254.46 1549.52 1247.98 1549.52 Q1245.8 1549.52 1243.49 1549.08 Q1241.19 1548.66 1238.74 1547.81 L1238.74 1543.29 Q1240.68 1544.43 1243 1545.01 Q1245.31 1545.58 1247.84 1545.58 Q1252.23 1545.58 1254.53 1543.85 Q1256.84 1542.11 1256.84 1538.8 Q1256.84 1535.75 1254.69 1534.03 Q1252.56 1532.3 1248.74 1532.3 L1244.71 1532.3 L1244.71 1528.45 L1248.92 1528.45 Q1252.37 1528.45 1254.2 1527.09 Q1256.03 1525.7 1256.03 1523.11 Q1256.03 1520.45 1254.13 1519.03 Q1252.26 1517.6 1248.74 1517.6 Q1246.82 1517.6 1244.62 1518.01 Q1242.42 1518.43 1239.78 1519.31 L1239.78 1515.14 Q1242.44 1514.4 1244.76 1514.03 Q1247.1 1513.66 1249.16 1513.66 Q1254.48 1513.66 1257.58 1516.09 Q1260.68 1518.5 1260.68 1522.62 Q1260.68 1525.49 1259.04 1527.48 Q1257.4 1529.45 1254.36 1530.21 Z" fill="#000000" fill-rule="nonzero" fill-opacity="1" /><path clip-path="url(#clip100)" d="M1599.87 1518.36 L1588.06 1536.81 L1599.87 1536.81 L1599.87 1518.36 M1598.64 1514.29 L1604.52 1514.29 L1604.52 1536.81 L1609.45 1536.81 L1609.45 1540.7 L1604.52 1540.7 L1604.52 1548.85 L1599.87 1548.85 L1599.87 1540.7 L1584.27 1540.7 L1584.27 1536.19 L1598.64 1514.29 Z" fill="#000000" fill-rule="nonzero" fill-opacity="1" /><path clip-path="url(#clip100)" d="M1933.88 1514.29 L1952.23 1514.29 L1952.23 1518.22 L1938.16 1518.22 L1938.16 1526.7 Q1939.18 1526.35 1940.2 1526.19 Q1941.22 1526 1942.23 1526 Q1948.02 1526 1951.4 1529.17 Q1954.78 1532.34 1954.78 1537.76 Q1954.78 1543.34 1951.31 1546.44 Q1947.84 1549.52 1941.52 1549.52 Q1939.34 1549.52 1937.07 1549.15 Q1934.83 1548.78 1932.42 1548.04 L1932.42 1543.34 Q1934.5 1544.47 1936.73 1545.03 Q1938.95 1545.58 1941.42 1545.58 Q1945.43 1545.58 1947.77 1543.48 Q1950.11 1541.37 1950.11 1537.76 Q1950.11 1534.15 1947.77 1532.04 Q1945.43 1529.94 1941.42 1529.94 Q1939.55 1529.94 1937.67 1530.35 Q1935.82 1530.77 1933.88 1531.65 L1933.88 1514.29 Z" fill="#000000" fill-rule="nonzero" fill-opacity="1" /><path clip-path="url(#clip100)" d="M2290.75 1529.7 Q2287.6 1529.7 2285.75 1531.86 Q2283.92 1534.01 2283.92 1537.76 Q2283.92 1541.49 2285.75 1543.66 Q2287.6 1545.82 2290.75 1545.82 Q2293.9 1545.82 2295.72 1543.66 Q2297.58 1541.49 2297.58 1537.76 Q2297.58 1534.01 2295.72 1531.86 Q2293.9 1529.7 2290.75 1529.7 M2300.03 1515.05 L2300.03 1519.31 Q2298.27 1518.48 2296.47 1518.04 Q2294.68 1517.6 2292.92 1517.6 Q2288.29 1517.6 2285.84 1520.72 Q2283.41 1523.85 2283.06 1530.17 Q2284.43 1528.15 2286.49 1527.09 Q2288.55 1526 2291.03 1526 Q2296.23 1526 2299.24 1529.17 Q2302.28 1532.32 2302.28 1537.76 Q2302.28 1543.08 2299.13 1546.3 Q2295.98 1549.52 2290.75 1549.52 Q2284.75 1549.52 2281.58 1544.94 Q2278.41 1540.33 2278.41 1531.6 Q2278.41 1523.41 2282.3 1518.55 Q2286.19 1513.66 2292.74 1513.66 Q2294.5 1513.66 2296.28 1514.01 Q2298.09 1514.36 2300.03 1515.05 Z" fill="#000000" fill-rule="nonzero" fill-opacity="1" /><polyline clip-path="url(#clip102)" style="stroke:#000000; stroke-linecap:round; stroke-linejoin:round; stroke-width:2; stroke-opacity:0.1; fill:none" points="147.478,1445.72 2352.76,1445.72 "/>
<polyline clip-path="url(#clip102)" style="stroke:#000000; stroke-linecap:round; stroke-linejoin:round; stroke-width:2; stroke-opacity:0.1; fill:none" points="147.478,1172.72 2352.76,1172.72 "/>
<polyline clip-path="url(#clip102)" style="stroke:#000000; stroke-linecap:round; stroke-linejoin:round; stroke-width:2; stroke-opacity:0.1; fill:none" points="147.478,899.724 2352.76,899.724 "/>
<polyline clip-path="url(#clip102)" style="stroke:#000000; stroke-linecap:round; stroke-linejoin:round; stroke-width:2; stroke-opacity:0.1; fill:none" points="147.478,626.725 2352.76,626.725 "/>
<polyline clip-path="url(#clip102)" style="stroke:#000000; stroke-linecap:round; stroke-linejoin:round; stroke-width:2; stroke-opacity:0.1; fill:none" points="147.478,353.727 2352.76,353.727 "/>
<polyline clip-path="url(#clip102)" style="stroke:#000000; stroke-linecap:round; stroke-linejoin:round; stroke-width:2; stroke-opacity:0.1; fill:none" points="147.478,80.7287 2352.76,80.7287 "/>
<polyline clip-path="url(#clip100)" style="stroke:#000000; stroke-linecap:round; stroke-linejoin:round; stroke-width:4; stroke-opacity:1; fill:none" points="147.478,1486.45 147.478,47.2441 "/>
<polyline clip-path="url(#clip100)" style="stroke:#000000; stroke-linecap:round; stroke-linejoin:round; stroke-width:4; stroke-opacity:1; fill:none" points="147.478,1445.72 166.376,1445.72 "/>
<polyline clip-path="url(#clip100)" style="stroke:#000000; stroke-linecap:round; stroke-linejoin:round; stroke-width:4; stroke-opacity:1; fill:none" points="147.478,1172.72 166.376,1172.72 "/>
<polyline clip-path="url(#clip100)" style="stroke:#000000; stroke-linecap:round; stroke-linejoin:round; stroke-width:4; stroke-opacity:1; fill:none" points="147.478,899.724 166.376,899.724 "/>
<polyline clip-path="url(#clip100)" style="stroke:#000000; stroke-linecap:round; stroke-linejoin:round; stroke-width:4; stroke-opacity:1; fill:none" points="147.478,626.725 166.376,626.725 "/>
<polyline clip-path="url(#clip100)" style="stroke:#000000; stroke-linecap:round; stroke-linejoin:round; stroke-width:4; stroke-opacity:1; fill:none" points="147.478,353.727 166.376,353.727 "/>
<polyline clip-path="url(#clip100)" style="stroke:#000000; stroke-linecap:round; stroke-linejoin:round; stroke-width:4; stroke-opacity:1; fill:none" points="147.478,80.7287 166.376,80.7287 "/>
<path clip-path="url(#clip100)" d="M51.3625 1446.17 L81.0383 1446.17 L81.0383 1450.11 L51.3625 1450.11 L51.3625 1446.17 Z" fill="#000000" fill-rule="nonzero" fill-opacity="1" /><path clip-path="url(#clip100)" d="M95.1586 1459.06 L111.478 1459.06 L111.478 1463 L89.5336 1463 L89.5336 1459.06 Q92.1956 1456.31 96.7789 1451.68 Q101.385 1447.03 102.566 1445.69 Q104.811 1443.16 105.691 1441.43 Q106.594 1439.67 106.594 1437.98 Q106.594 1435.22 104.649 1433.49 Q102.728 1431.75 99.6261 1431.75 Q97.4271 1431.75 94.9734 1432.51 Q92.5428 1433.28 89.7651 1434.83 L89.7651 1430.11 Q92.5891 1428.97 95.0428 1428.39 Q97.4965 1427.82 99.5335 1427.82 Q104.904 1427.82 108.098 1430.5 Q111.293 1433.19 111.293 1437.68 Q111.293 1439.81 110.483 1441.73 Q109.696 1443.63 107.589 1446.22 Q107.01 1446.89 103.909 1450.11 Q100.807 1453.3 95.1586 1459.06 Z" fill="#000000" fill-rule="nonzero" fill-opacity="1" /><path clip-path="url(#clip100)" d="M50.9921 1173.17 L80.6679 1173.17 L80.6679 1177.11 L50.9921 1177.11 L50.9921 1173.17 Z" fill="#000000" fill-rule="nonzero" fill-opacity="1" /><path clip-path="url(#clip100)" d="M91.5706 1186.07 L99.2095 1186.07 L99.2095 1159.7 L90.8993 1161.37 L90.8993 1157.11 L99.1632 1155.44 L103.839 1155.44 L103.839 1186.07 L111.478 1186.07 L111.478 1190 L91.5706 1190 L91.5706 1186.07 Z" fill="#000000" fill-rule="nonzero" fill-opacity="1" /><path clip-path="url(#clip100)" d="M99.5335 885.522 Q95.9224 885.522 94.0937 889.087 Q92.2882 892.629 92.2882 899.758 Q92.2882 906.865 94.0937 910.429 Q95.9224 913.971 99.5335 913.971 Q103.168 913.971 104.973 910.429 Q106.802 906.865 106.802 899.758 Q106.802 892.629 104.973 889.087 Q103.168 885.522 99.5335 885.522 M99.5335 881.819 Q105.344 881.819 108.399 886.425 Q111.478 891.008 111.478 899.758 Q111.478 908.485 108.399 913.091 Q105.344 917.675 99.5335 917.675 Q93.7234 917.675 90.6447 913.091 Q87.5892 908.485 87.5892 899.758 Q87.5892 891.008 90.6447 886.425 Q93.7234 881.819 99.5335 881.819 Z" fill="#000000" fill-rule="nonzero" fill-opacity="1" /><path clip-path="url(#clip100)" d="M91.5706 640.07 L99.2095 640.07 L99.2095 613.704 L90.8993 615.371 L90.8993 611.112 L99.1632 609.445 L103.839 609.445 L103.839 640.07 L111.478 640.07 L111.478 644.005 L91.5706 644.005 L91.5706 640.07 Z" fill="#000000" fill-rule="nonzero" fill-opacity="1" /><path clip-path="url(#clip100)" d="M95.1586 367.072 L111.478 367.072 L111.478 371.007 L89.5336 371.007 L89.5336 367.072 Q92.1956 364.317 96.7789 359.688 Q101.385 355.035 102.566 353.692 Q104.811 351.169 105.691 349.433 Q106.594 347.674 106.594 345.984 Q106.594 343.229 104.649 341.493 Q102.728 339.757 99.6261 339.757 Q97.4271 339.757 94.9734 340.521 Q92.5428 341.285 89.7651 342.836 L89.7651 338.114 Q92.5891 336.979 95.0428 336.401 Q97.4965 335.822 99.5335 335.822 Q104.904 335.822 108.098 338.507 Q111.293 341.192 111.293 345.683 Q111.293 347.813 110.483 349.734 Q109.696 351.632 107.589 354.225 Q107.01 354.896 103.909 358.114 Q100.807 361.308 95.1586 367.072 Z" fill="#000000" fill-rule="nonzero" fill-opacity="1" /><path clip-path="url(#clip100)" d="M104.348 79.3745 Q107.705 80.0921 109.58 82.3606 Q111.478 84.6291 111.478 87.9625 Q111.478 93.0782 107.959 95.8791 Q104.441 98.68 97.9595 98.68 Q95.7836 98.68 93.4688 98.2402 Q91.1771 97.8235 88.7234 96.967 L88.7234 92.4532 Q90.6678 93.5874 92.9826 94.1661 Q95.2974 94.7448 97.8206 94.7448 Q102.219 94.7448 104.51 93.0087 Q106.825 91.2726 106.825 87.9625 Q106.825 84.9069 104.672 83.194 Q102.543 81.4579 98.7234 81.4579 L94.6956 81.4579 L94.6956 77.6153 L98.9085 77.6153 Q102.358 77.6153 104.186 76.2496 Q106.015 74.8607 106.015 72.2681 Q106.015 69.6061 104.117 68.194 Q102.242 66.7589 98.7234 66.7589 Q96.8021 66.7589 94.603 67.1755 Q92.4039 67.5922 89.7651 68.4718 L89.7651 64.3052 Q92.4271 63.5644 94.7419 63.1941 Q97.0798 62.8237 99.14 62.8237 Q104.464 62.8237 107.566 65.2542 Q110.668 67.6616 110.668 71.782 Q110.668 74.6523 109.024 76.6431 Q107.381 78.6106 104.348 79.3745 Z" fill="#000000" fill-rule="nonzero" fill-opacity="1" /><polyline clip-path="url(#clip102)" style="stroke:#009af9; stroke-linecap:round; stroke-linejoin:round; stroke-width:4; stroke-opacity:1; fill:none" points="209.891,626.725 213.278,618.78 216.664,610.946 220.05,603.23 223.436,595.639 231.264,578.603 239.092,562.35 246.919,546.958 254.747,532.504 262.574,519.061 270.402,506.701 278.23,495.489 286.057,485.488 293.885,476.758 301.712,469.351 309.54,463.318 317.368,458.702 325.195,455.542 333.023,453.872 340.851,453.718 348.678,455.103 358.086,458.826 367.494,464.81 376.903,473.056 386.311,483.555 395.719,496.282 405.127,511.2 414.535,528.259 423.943,547.396 431.898,565.142 439.852,584.265 447.807,604.709 455.761,626.408 463.716,649.292 471.67,673.285 479.625,698.306 487.579,724.271 496.22,753.439 504.861,783.492 513.501,814.305 522.142,845.747 539.424,909.979 556.705,975.077 572.637,1034.88 588.569,1093.54 604.502,1150.19 620.434,1203.95 628.974,1231.29 637.514,1257.44 646.055,1282.28 654.595,1305.71 663.136,1327.61 671.676,1347.89 680.217,1366.47 688.757,1383.24 693.705,1392.11 698.652,1400.34 703.599,1407.91 708.547,1414.82 713.494,1421.06 718.442,1426.6 723.389,1431.46 728.337,1435.61 733.284,1439.06 738.232,1441.79 743.179,1443.81 748.127,1445.11 753.074,1445.69 758.022,1445.54 762.969,1444.67 767.917,1443.09 776.71,1438.49 785.503,1431.65 794.297,1422.6 803.09,1411.37 811.884,1398.03 820.677,1382.63 829.471,1365.25 838.264,1345.98 845.975,1327.59 853.686,1307.88 861.397,1286.93 869.108,1264.8 876.819,1241.57 884.53,1217.34 892.241,1192.2 899.953,1166.22 916.767,1107.16 933.581,1045.61 950.395,982.63 967.21,919.261 984.124,856.191 1001.04,794.843 1009.49,765.129 1017.95,736.218 1026.41,708.223 1034.87,681.255 1044.22,652.76 1053.57,625.781 1062.92,600.442 1072.27,576.857 1081.62,555.126 1090.97,535.342 1100.32,517.582 1109.67,501.915 1118.57,489 1127.46,478.064 1136.36,469.133 1145.26,462.222 1154.15,457.335 1163.05,454.467 1171.95,453.6 1180.84,454.709 1190.09,457.917 1199.34,463.168 1208.59,470.401 1217.84,479.541 1227.09,490.505 1236.35,503.201 1245.6,517.528 1254.85,533.377 1262.63,547.814 1270.42,563.175 1278.21,579.384 1285.99,596.364 1293.78,614.034 1301.57,632.312 1309.35,651.116 1317.14,670.361 1336.16,718.679 1355.17,767.887 1374.18,816.774 1393.2,864.187 1401.91,885.114 1410.62,905.411 1419.32,924.986 1428.03,943.756 1436.74,961.642 1445.45,978.573 1454.16,994.485 1462.87,1009.32 1470.91,1022.02 1478.96,1033.73 1487,1044.41 1495.04,1054.05 1503.09,1062.63 1511.13,1070.14 1519.17,1076.57 1527.22,1081.93 1535.36,1086.27 1543.51,1089.52 1551.66,1091.72 1559.81,1092.87 1567.95,1093.01 1576.1,1092.18 1584.25,1090.41 1592.4,1087.75 1601.53,1083.76 1610.66,1078.79 1619.79,1072.92 1628.92,1066.23 1647.19,1050.74 1665.45,1033.08 1698.55,998.125 1731.64,963.393 1741.12,954.127 1750.59,945.341 1760.06,937.122 1769.54,929.553 1779.01,922.71 1788.49,916.661 1797.96,911.464 1807.43,907.172 1816.21,904.039 1824.98,901.744 1833.75,900.305 1842.52,899.734 1851.29,900.036 1860.06,901.208 1868.84,903.241 1877.61,906.117 1886.26,909.756 1894.9,914.161 1903.55,919.298 1912.2,925.124 1929.5,938.646 1946.79,954.281 1980.38,988.651 2013.96,1024.51 2031.18,1041.88 2048.39,1057.69 2057,1064.8 2065.61,1071.27 2074.21,1077.04 2082.82,1082.03 2092.25,1086.51 2101.68,1089.89 2111.11,1092.09 2120.54,1093.04 2129.97,1092.68 2139.4,1090.95 2148.83,1087.82 2158.27,1083.25 2165.11,1079.01 2171.96,1073.99 2178.81,1068.2 2185.66,1061.62 2192.51,1054.27 2199.36,1046.15 2206.21,1037.27 2213.06,1027.64 2219.91,1017.28 2226.76,1006.21 2233.61,994.444 2240.46,982.015 2254.16,955.271 2267.86,926.228 2273.48,913.713 2279.1,900.883 2284.72,887.761 2290.34,874.371 "/>
<polyline clip-path="url(#clip102)" style="stroke:#e26f46; stroke-linecap:round; stroke-linejoin:round; stroke-width:4; stroke-opacity:1; fill:none" points="209.891,626.725 210.103,681.041 210.315,731.968 210.526,779.653 210.738,824.236 210.95,865.852 211.161,904.633 211.373,940.704 211.585,974.187 211.796,1005.2 212.008,1033.85 212.219,1060.25 212.431,1084.51 212.643,1106.72 212.854,1126.99 213.066,1145.39 213.278,1162.03 213.489,1177 213.701,1190.36 213.913,1202.21 214.124,1212.62 214.336,1221.66 214.547,1229.4 214.759,1235.91 214.971,1241.27 215.182,1245.52 215.394,1248.73 215.606,1250.96 215.817,1252.26 216.241,1252.28 216.664,1249.21 217.087,1243.4 217.51,1235.19 217.934,1224.9 218.357,1212.78 218.78,1199.12 219.204,1184.14 219.627,1168.05 220.05,1151.04 220.897,1114.98 221.743,1077.15 222.166,1057.9 222.59,1038.55 223.013,1019.21 223.436,999.948 224.415,956.137 225.393,913.868 226.372,873.659 227.35,835.859 228.329,800.683 229.307,768.241 230.285,738.559 231.264,711.6 232.242,687.278 233.221,665.472 234.199,646.038 235.178,628.815 236.156,613.633 237.135,600.318 238.113,588.7 239.092,578.61 240.07,569.886 241.048,562.377 242.027,555.938 243.005,550.436 244.962,541.762 246.919,535.502 248.876,530.961 250.833,527.595 252.79,524.983 254.747,522.817 262.574,515.107 270.402,506.038 278.23,495.86 286.057,485.881 293.885,476.945 301.712,469.391 309.54,463.301 317.368,458.68 325.195,455.53 333.023,453.869 340.851,453.719 348.678,455.105 358.086,458.827 367.494,464.81 376.903,473.056 386.311,483.555 395.719,496.282 405.127,511.2 414.535,528.259 423.943,547.396 431.898,565.142 439.852,584.265 447.807,604.709 455.761,626.408 463.716,649.292 471.67,673.285 479.625,698.306 487.579,724.271 504.861,783.492 522.142,845.747 539.424,909.979 556.705,975.077 572.637,1034.88 588.569,1093.54 604.502,1150.19 620.434,1203.95 628.974,1231.29 637.514,1257.44 646.055,1282.28 654.595,1305.71 663.136,1327.61 671.676,1347.89 680.217,1366.47 688.757,1383.24 698.652,1400.34 708.547,1414.82 718.442,1426.6 728.337,1435.61 738.232,1441.79 748.127,1445.11 758.022,1445.54 767.917,1443.09 776.71,1438.49 785.503,1431.65 794.297,1422.6 803.09,1411.37 811.884,1398.03 820.677,1382.63 829.471,1365.25 838.264,1345.98 845.975,1327.59 853.686,1307.88 861.397,1286.93 869.108,1264.8 876.819,1241.57 884.53,1217.34 892.241,1192.2 899.953,1166.22 916.767,1107.16 933.581,1045.61 950.395,982.63 967.21,919.261 984.124,856.191 1001.04,794.843 1017.95,736.218 1034.87,681.255 1044.22,652.76 1053.57,625.781 1062.92,600.442 1072.27,576.857 1081.62,555.126 1090.97,535.342 1100.32,517.582 1109.67,501.915 1118.57,489 1127.46,478.064 1136.36,469.133 1145.26,462.222 1154.15,457.335 1163.05,454.467 1171.95,453.6 1180.84,454.709 1190.09,457.917 1199.34,463.168 1208.59,470.401 1217.84,479.541 1227.09,490.505 1236.35,503.201 1245.6,517.528 1254.85,533.377 1270.42,563.175 1285.99,596.364 1301.57,632.312 1317.14,670.361 1355.17,767.887 1393.2,864.187 1401.91,885.114 1410.62,905.411 1419.32,924.986 1428.03,943.756 1436.74,961.642 1445.45,978.573 1454.16,994.485 1462.87,1009.32 1470.91,1022.02 1478.96,1033.73 1487,1044.41 1495.04,1054.05 1503.09,1062.63 1511.13,1070.14 1519.17,1076.57 1527.22,1081.93 1535.36,1086.27 1543.51,1089.52 1551.66,1091.72 1559.81,1092.87 1567.95,1093.01 1576.1,1092.18 1584.25,1090.41 1592.4,1087.75 1601.53,1083.76 1610.66,1078.79 1619.79,1072.92 1628.92,1066.23 1647.19,1050.74 1665.45,1033.08 1698.55,998.125 1731.64,963.393 1750.59,945.341 1769.54,929.553 1788.49,916.661 1807.43,907.172 1816.21,904.039 1824.98,901.744 1833.75,900.305 1842.52,899.734 1851.29,900.036 1860.06,901.208 1868.84,903.241 1877.61,906.117 1894.9,914.161 1912.2,925.124 1929.5,938.646 1946.79,954.281 1980.38,988.651 2013.96,1024.51 2031.18,1041.88 2048.39,1057.69 2065.61,1071.27 2082.82,1082.03 2092.25,1086.51 2101.68,1089.89 2111.11,1092.1 2120.54,1093.05 2129.97,1092.67 2139.4,1090.97 2148.83,1087.84 2158.27,1083.25 2165.11,1079.03 2171.96,1074.01 2178.81,1068.2 2185.66,1061.58 2199.36,1046.22 2213.06,1026.93 2226.76,1006.65 2240.46,989.587 2243.89,986.582 2247.31,981.829 2249.02,980.499 2250.73,978.317 2252.45,973.517 2254.16,968.72 2255.87,961.405 2257.58,952.035 2258.44,946.637 2259.3,939.269 2260.15,930.324 2261.01,921.731 2261.87,909.692 2262.72,899.108 2263.58,886.487 2264.43,870.975 2265.29,853.658 2266.15,835.614 2267,813.649 2267.86,792.208 2268.21,780.456 2268.56,769.328 2268.91,758.371 2269.26,748.38 2269.97,724.222 2270.67,698.241 2271.37,669.09 2272.07,638.316 2272.78,607.43 2273.48,574.785 2274.18,541.305 2274.88,502.842 2275.59,466.262 2276.29,429.724 2276.99,390.937 2277.7,349.018 2278.05,328.764 2278.4,307.092 2278.75,290.311 2279.1,271.2 2279.8,233.783 2280.51,197.733 2280.68,187.411 2280.86,182.078 2281.03,172.613 2281.21,163.377 2281.56,150.792 2281.91,136.927 2282.26,123.218 2282.61,113.66 2282.79,107.171 2282.96,105.634 2283.14,99.125 2283.32,95.4481 2283.49,93.3148 2283.67,93.9149 2283.84,87.9763 2284.02,89.8958 2284.37,89.677 2284.72,92.2665 2284.9,93.5029 2285.07,98.8484 2285.25,102.73 2285.42,111.67 2285.78,126.363 2286.13,140.89 2286.3,154.069 2286.48,164.58 2286.65,176.439 2286.83,191.948 2287,208.94 2287.18,225.67 2287.36,246.465 2287.53,266.731 2287.71,288.169 2287.88,311.097 2288.06,337.303 2288.23,367.305 2288.41,397.037 2288.59,429.58 2288.76,461.184 2288.94,497.897 2289.11,537.067 2289.29,576.593 2289.46,617.741 2289.64,666.295 2289.82,714.828 2289.99,763.933 2290.17,814.708 2290.34,875.178 "/>
<circle clip-path="url(#clip102)" cx="209.891" cy="626.725" r="14.4" fill="#3da44d" fill-rule="evenodd" fill-opacity="1" stroke="#000000" stroke-opacity="1" stroke-width="3.2"/>
<circle clip-path="url(#clip102)" cx="241.898" cy="556.727" r="14.4" fill="#3da44d" fill-rule="evenodd" fill-opacity="1" stroke="#000000" stroke-opacity="1" stroke-width="3.2"/>
<circle clip-path="url(#clip102)" cx="273.905" cy="501.537" r="14.4" fill="#3da44d" fill-rule="evenodd" fill-opacity="1" stroke="#000000" stroke-opacity="1" stroke-width="3.2"/>
<circle clip-path="url(#clip102)" cx="305.912" cy="465.941" r="14.4" fill="#3da44d" fill-rule="evenodd" fill-opacity="1" stroke="#000000" stroke-opacity="1" stroke-width="3.2"/>
<circle clip-path="url(#clip102)" cx="337.919" cy="453.596" r="14.4" fill="#3da44d" fill-rule="evenodd" fill-opacity="1" stroke="#000000" stroke-opacity="1" stroke-width="3.2"/>
<circle clip-path="url(#clip102)" cx="369.926" cy="466.724" r="14.4" fill="#3da44d" fill-rule="evenodd" fill-opacity="1" stroke="#000000" stroke-opacity="1" stroke-width="3.2"/>
<circle clip-path="url(#clip102)" cx="401.933" cy="505.893" r="14.4" fill="#3da44d" fill-rule="evenodd" fill-opacity="1" stroke="#000000" stroke-opacity="1" stroke-width="3.2"/>
<circle clip-path="url(#clip102)" cx="433.94" cy="569.922" r="14.4" fill="#3da44d" fill-rule="evenodd" fill-opacity="1" stroke="#000000" stroke-opacity="1" stroke-width="3.2"/>
<circle clip-path="url(#clip102)" cx="465.947" cy="655.913" r="14.4" fill="#3da44d" fill-rule="evenodd" fill-opacity="1" stroke="#000000" stroke-opacity="1" stroke-width="3.2"/>
<circle clip-path="url(#clip102)" cx="497.954" cy="759.403" r="14.4" fill="#3da44d" fill-rule="evenodd" fill-opacity="1" stroke="#000000" stroke-opacity="1" stroke-width="3.2"/>
<circle clip-path="url(#clip102)" cx="529.961" cy="874.628" r="14.4" fill="#3da44d" fill-rule="evenodd" fill-opacity="1" stroke="#000000" stroke-opacity="1" stroke-width="3.2"/>
<circle clip-path="url(#clip102)" cx="561.968" cy="994.899" r="14.4" fill="#3da44d" fill-rule="evenodd" fill-opacity="1" stroke="#000000" stroke-opacity="1" stroke-width="3.2"/>
<circle clip-path="url(#clip102)" cx="593.975" cy="1113.03" r="14.4" fill="#3da44d" fill-rule="evenodd" fill-opacity="1" stroke="#000000" stroke-opacity="1" stroke-width="3.2"/>
<circle clip-path="url(#clip102)" cx="625.982" cy="1221.84" r="14.4" fill="#3da44d" fill-rule="evenodd" fill-opacity="1" stroke="#000000" stroke-opacity="1" stroke-width="3.2"/>
<circle clip-path="url(#clip102)" cx="657.989" cy="1314.6" r="14.4" fill="#3da44d" fill-rule="evenodd" fill-opacity="1" stroke="#000000" stroke-opacity="1" stroke-width="3.2"/>
<circle clip-path="url(#clip102)" cx="689.996" cy="1385.52" r="14.4" fill="#3da44d" fill-rule="evenodd" fill-opacity="1" stroke="#000000" stroke-opacity="1" stroke-width="3.2"/>
<circle clip-path="url(#clip102)" cx="722.002" cy="1430.17" r="14.4" fill="#3da44d" fill-rule="evenodd" fill-opacity="1" stroke="#000000" stroke-opacity="1" stroke-width="3.2"/>
<circle clip-path="url(#clip102)" cx="754.009" cy="1445.72" r="14.4" fill="#3da44d" fill-rule="evenodd" fill-opacity="1" stroke="#000000" stroke-opacity="1" stroke-width="3.2"/>
<circle clip-path="url(#clip102)" cx="786.016" cy="1431.18" r="14.4" fill="#3da44d" fill-rule="evenodd" fill-opacity="1" stroke="#000000" stroke-opacity="1" stroke-width="3.2"/>
<circle clip-path="url(#clip102)" cx="818.023" cy="1387.49" r="14.4" fill="#3da44d" fill-rule="evenodd" fill-opacity="1" stroke="#000000" stroke-opacity="1" stroke-width="3.2"/>
<circle clip-path="url(#clip102)" cx="850.03" cy="1317.39" r="14.4" fill="#3da44d" fill-rule="evenodd" fill-opacity="1" stroke="#000000" stroke-opacity="1" stroke-width="3.2"/>
<circle clip-path="url(#clip102)" cx="882.037" cy="1225.28" r="14.4" fill="#3da44d" fill-rule="evenodd" fill-opacity="1" stroke="#000000" stroke-opacity="1" stroke-width="3.2"/>
<circle clip-path="url(#clip102)" cx="914.044" cy="1116.92" r="14.4" fill="#3da44d" fill-rule="evenodd" fill-opacity="1" stroke="#000000" stroke-opacity="1" stroke-width="3.2"/>
<circle clip-path="url(#clip102)" cx="946.051" cy="998.982" r="14.4" fill="#3da44d" fill-rule="evenodd" fill-opacity="1" stroke="#000000" stroke-opacity="1" stroke-width="3.2"/>
<circle clip-path="url(#clip102)" cx="978.058" cy="878.665" r="14.4" fill="#3da44d" fill-rule="evenodd" fill-opacity="1" stroke="#000000" stroke-opacity="1" stroke-width="3.2"/>
<circle clip-path="url(#clip102)" cx="1010.06" cy="763.154" r="14.4" fill="#3da44d" fill-rule="evenodd" fill-opacity="1" stroke="#000000" stroke-opacity="1" stroke-width="3.2"/>
<circle clip-path="url(#clip102)" cx="1042.07" cy="659.166" r="14.4" fill="#3da44d" fill-rule="evenodd" fill-opacity="1" stroke="#000000" stroke-opacity="1" stroke-width="3.2"/>
<circle clip-path="url(#clip102)" cx="1074.08" cy="572.5" r="14.4" fill="#3da44d" fill-rule="evenodd" fill-opacity="1" stroke="#000000" stroke-opacity="1" stroke-width="3.2"/>
<circle clip-path="url(#clip102)" cx="1106.09" cy="507.669" r="14.4" fill="#3da44d" fill-rule="evenodd" fill-opacity="1" stroke="#000000" stroke-opacity="1" stroke-width="3.2"/>
<circle clip-path="url(#clip102)" cx="1138.09" cy="467.628" r="14.4" fill="#3da44d" fill-rule="evenodd" fill-opacity="1" stroke="#000000" stroke-opacity="1" stroke-width="3.2"/>
<circle clip-path="url(#clip102)" cx="1170.1" cy="453.616" r="14.4" fill="#3da44d" fill-rule="evenodd" fill-opacity="1" stroke="#000000" stroke-opacity="1" stroke-width="3.2"/>
<circle clip-path="url(#clip102)" cx="1202.11" cy="465.124" r="14.4" fill="#3da44d" fill-rule="evenodd" fill-opacity="1" stroke="#000000" stroke-opacity="1" stroke-width="3.2"/>
<circle clip-path="url(#clip102)" cx="1234.11" cy="499.984" r="14.4" fill="#3da44d" fill-rule="evenodd" fill-opacity="1" stroke="#000000" stroke-opacity="1" stroke-width="3.2"/>
<circle clip-path="url(#clip102)" cx="1266.12" cy="554.583" r="14.4" fill="#3da44d" fill-rule="evenodd" fill-opacity="1" stroke="#000000" stroke-opacity="1" stroke-width="3.2"/>
<circle clip-path="url(#clip102)" cx="1298.13" cy="624.166" r="14.4" fill="#3da44d" fill-rule="evenodd" fill-opacity="1" stroke="#000000" stroke-opacity="1" stroke-width="3.2"/>
<circle clip-path="url(#clip102)" cx="1330.13" cy="703.223" r="14.4" fill="#3da44d" fill-rule="evenodd" fill-opacity="1" stroke="#000000" stroke-opacity="1" stroke-width="3.2"/>
<circle clip-path="url(#clip102)" cx="1362.14" cy="785.911" r="14.4" fill="#3da44d" fill-rule="evenodd" fill-opacity="1" stroke="#000000" stroke-opacity="1" stroke-width="3.2"/>
<circle clip-path="url(#clip102)" cx="1394.15" cy="866.499" r="14.4" fill="#3da44d" fill-rule="evenodd" fill-opacity="1" stroke="#000000" stroke-opacity="1" stroke-width="3.2"/>
<circle clip-path="url(#clip102)" cx="1426.16" cy="939.78" r="14.4" fill="#3da44d" fill-rule="evenodd" fill-opacity="1" stroke="#000000" stroke-opacity="1" stroke-width="3.2"/>
<circle clip-path="url(#clip102)" cx="1458.16" cy="1001.44" r="14.4" fill="#3da44d" fill-rule="evenodd" fill-opacity="1" stroke="#000000" stroke-opacity="1" stroke-width="3.2"/>
<circle clip-path="url(#clip102)" cx="1490.17" cy="1048.34" r="14.4" fill="#3da44d" fill-rule="evenodd" fill-opacity="1" stroke="#000000" stroke-opacity="1" stroke-width="3.2"/>
<circle clip-path="url(#clip102)" cx="1522.18" cy="1078.7" r="14.4" fill="#3da44d" fill-rule="evenodd" fill-opacity="1" stroke="#000000" stroke-opacity="1" stroke-width="3.2"/>
<circle clip-path="url(#clip102)" cx="1554.18" cy="1092.18" r="14.4" fill="#3da44d" fill-rule="evenodd" fill-opacity="1" stroke="#000000" stroke-opacity="1" stroke-width="3.2"/>
<circle clip-path="url(#clip102)" cx="1586.19" cy="1089.85" r="14.4" fill="#3da44d" fill-rule="evenodd" fill-opacity="1" stroke="#000000" stroke-opacity="1" stroke-width="3.2"/>
<circle clip-path="url(#clip102)" cx="1618.2" cy="1074.01" r="14.4" fill="#3da44d" fill-rule="evenodd" fill-opacity="1" stroke="#000000" stroke-opacity="1" stroke-width="3.2"/>
<circle clip-path="url(#clip102)" cx="1650.2" cy="1047.95" r="14.4" fill="#3da44d" fill-rule="evenodd" fill-opacity="1" stroke="#000000" stroke-opacity="1" stroke-width="3.2"/>
<circle clip-path="url(#clip102)" cx="1682.21" cy="1015.64" r="14.4" fill="#3da44d" fill-rule="evenodd" fill-opacity="1" stroke="#000000" stroke-opacity="1" stroke-width="3.2"/>
<circle clip-path="url(#clip102)" cx="1714.22" cy="981.37" r="14.4" fill="#3da44d" fill-rule="evenodd" fill-opacity="1" stroke="#000000" stroke-opacity="1" stroke-width="3.2"/>
<circle clip-path="url(#clip102)" cx="1746.22" cy="949.325" r="14.4" fill="#3da44d" fill-rule="evenodd" fill-opacity="1" stroke="#000000" stroke-opacity="1" stroke-width="3.2"/>
<circle clip-path="url(#clip102)" cx="1778.23" cy="923.245" r="14.4" fill="#3da44d" fill-rule="evenodd" fill-opacity="1" stroke="#000000" stroke-opacity="1" stroke-width="3.2"/>
<circle clip-path="url(#clip102)" cx="1810.24" cy="906.08" r="14.4" fill="#3da44d" fill-rule="evenodd" fill-opacity="1" stroke="#000000" stroke-opacity="1" stroke-width="3.2"/>
<circle clip-path="url(#clip102)" cx="1842.25" cy="899.739" r="14.4" fill="#3da44d" fill-rule="evenodd" fill-opacity="1" stroke="#000000" stroke-opacity="1" stroke-width="3.2"/>
<circle clip-path="url(#clip102)" cx="1874.25" cy="904.919" r="14.4" fill="#3da44d" fill-rule="evenodd" fill-opacity="1" stroke="#000000" stroke-opacity="1" stroke-width="3.2"/>
<circle clip-path="url(#clip102)" cx="1906.26" cy="921.05" r="14.4" fill="#3da44d" fill-rule="evenodd" fill-opacity="1" stroke="#000000" stroke-opacity="1" stroke-width="3.2"/>
<circle clip-path="url(#clip102)" cx="1938.27" cy="946.342" r="14.4" fill="#3da44d" fill-rule="evenodd" fill-opacity="1" stroke="#000000" stroke-opacity="1" stroke-width="3.2"/>
<circle clip-path="url(#clip102)" cx="1970.27" cy="977.939" r="14.4" fill="#3da44d" fill-rule="evenodd" fill-opacity="1" stroke="#000000" stroke-opacity="1" stroke-width="3.2"/>
<circle clip-path="url(#clip102)" cx="2002.28" cy="1012.17" r="14.4" fill="#3da44d" fill-rule="evenodd" fill-opacity="1" stroke="#000000" stroke-opacity="1" stroke-width="3.2"/>
<circle clip-path="url(#clip102)" cx="2034.29" cy="1044.87" r="14.4" fill="#3da44d" fill-rule="evenodd" fill-opacity="1" stroke="#000000" stroke-opacity="1" stroke-width="3.2"/>
<circle clip-path="url(#clip102)" cx="2066.29" cy="1071.76" r="14.4" fill="#3da44d" fill-rule="evenodd" fill-opacity="1" stroke="#000000" stroke-opacity="1" stroke-width="3.2"/>
<circle clip-path="url(#clip102)" cx="2098.3" cy="1088.81" r="14.4" fill="#3da44d" fill-rule="evenodd" fill-opacity="1" stroke="#000000" stroke-opacity="1" stroke-width="3.2"/>
<circle clip-path="url(#clip102)" cx="2130.31" cy="1092.64" r="14.4" fill="#3da44d" fill-rule="evenodd" fill-opacity="1" stroke="#000000" stroke-opacity="1" stroke-width="3.2"/>
<circle clip-path="url(#clip102)" cx="2162.31" cy="1080.83" r="14.4" fill="#3da44d" fill-rule="evenodd" fill-opacity="1" stroke="#000000" stroke-opacity="1" stroke-width="3.2"/>
<circle clip-path="url(#clip102)" cx="2194.32" cy="1052.2" r="14.4" fill="#3da44d" fill-rule="evenodd" fill-opacity="1" stroke="#000000" stroke-opacity="1" stroke-width="3.2"/>
<circle clip-path="url(#clip102)" cx="2226.33" cy="1006.93" r="14.4" fill="#3da44d" fill-rule="evenodd" fill-opacity="1" stroke="#000000" stroke-opacity="1" stroke-width="3.2"/>
<circle clip-path="url(#clip102)" cx="2258.34" cy="946.649" r="14.4" fill="#3da44d" fill-rule="evenodd" fill-opacity="1" stroke="#000000" stroke-opacity="1" stroke-width="3.2"/>
<circle clip-path="url(#clip102)" cx="2290.34" cy="874.371" r="14.4" fill="#3da44d" fill-rule="evenodd" fill-opacity="1" stroke="#000000" stroke-opacity="1" stroke-width="3.2"/>
<path clip-path="url(#clip100)" d="M220.987 330.618 L651.655 330.618 L651.655 95.2176 L220.987 95.2176  Z" fill="#ffffff" fill-rule="evenodd" fill-opacity="1"/>
<polyline clip-path="url(#clip100)" style="stroke:#000000; stroke-linecap:round; stroke-linejoin:round; stroke-width:4; stroke-opacity:1; fill:none" points="220.987,330.618 651.655,330.618 651.655,95.2176 220.987,95.2176 220.987,330.618 "/>
<polyline clip-path="url(#clip100)" style="stroke:#009af9; stroke-linecap:round; stroke-linejoin:round; stroke-width:4; stroke-opacity:1; fill:none" points="245.49,154.068 392.509,154.068 "/>
<path clip-path="url(#clip100)" d="M440.926 135.423 Q440.926 136.711 440.106 137.508 Q439.31 138.304 438.303 138.304 Q437.577 138.304 437.038 137.859 Q436.523 137.414 436.523 136.641 Q436.523 135.845 437.132 135.002 Q437.741 134.158 439.123 134.041 Q438.209 133.175 436.757 133.175 Q436.031 133.175 435.422 133.643 Q434.836 134.088 434.508 134.814 Q434.157 135.564 433.361 139.803 Q433.103 141.185 432.869 142.52 Q432.635 143.855 432.354 145.261 L436.335 145.261 Q436.851 145.261 437.062 145.284 Q437.272 145.307 437.436 145.424 Q437.624 145.542 437.624 145.799 Q437.624 146.455 437.319 146.619 Q437.038 146.76 436.195 146.76 L432.073 146.76 L429.192 161.961 Q429.121 162.406 428.817 163.811 Q428.536 165.193 427.856 167.465 Q427.177 169.76 426.498 171.119 Q426.123 171.892 425.631 172.618 Q425.163 173.367 424.484 174.117 Q423.804 174.867 422.914 175.312 Q422.024 175.78 421.087 175.78 Q419.495 175.78 418.253 174.89 Q417.012 174 417.012 172.477 Q417.012 171.189 417.808 170.393 Q418.628 169.596 419.635 169.596 Q420.361 169.596 420.877 170.041 Q421.415 170.487 421.415 171.259 Q421.415 171.587 421.298 171.962 Q421.181 172.337 420.923 172.758 Q420.666 173.204 420.104 173.508 Q419.542 173.812 418.769 173.859 Q419.682 174.726 421.087 174.726 Q421.532 174.726 421.931 174.539 Q422.329 174.375 422.657 173.953 Q423.008 173.531 423.266 173.11 Q423.523 172.712 423.781 171.939 Q424.039 171.189 424.203 170.627 Q424.367 170.065 424.577 169.058 Q424.812 168.051 424.929 167.442 Q425.046 166.856 425.257 165.708 L428.84 146.76 L425.678 146.76 Q425.116 146.76 424.882 146.736 Q424.671 146.713 424.507 146.596 Q424.343 146.455 424.343 146.174 Q424.343 145.729 424.53 145.542 Q424.741 145.331 424.976 145.307 Q425.21 145.261 425.772 145.261 L429.098 145.261 Q430.222 139.335 430.667 137.742 Q431.182 136.056 431.979 134.884 Q432.775 133.69 433.665 133.128 Q434.555 132.566 435.281 132.355 Q436.031 132.121 436.757 132.121 Q438.397 132.121 439.661 133.011 Q440.926 133.877 440.926 135.423 Z" fill="#000000" fill-rule="nonzero" fill-opacity="1" /><path clip-path="url(#clip100)" d="M447.379 153.95 Q447.379 145.846 450.4 139.311 Q451.689 136.571 453.492 134.275 Q455.296 131.98 456.49 130.973 Q457.685 129.966 458.013 129.966 Q458.481 129.966 458.504 130.434 Q458.504 130.668 457.872 131.254 Q450.143 139.124 450.166 153.95 Q450.166 168.824 457.685 176.389 Q458.504 177.209 458.504 177.466 Q458.504 177.935 458.013 177.935 Q457.685 177.935 456.537 176.975 Q455.389 176.014 453.609 173.812 Q451.829 171.611 450.541 168.917 Q447.379 162.382 447.379 153.95 Z" fill="#000000" fill-rule="nonzero" fill-opacity="1" /><path clip-path="url(#clip100)" d="M486.037 147.907 Q486.037 149.219 485.217 149.968 Q484.398 150.695 483.461 150.695 Q482.571 150.695 482.102 150.179 Q481.634 149.664 481.634 149.008 Q481.634 148.118 482.29 147.345 Q482.945 146.572 483.929 146.408 Q482.969 145.799 481.54 145.799 Q480.603 145.799 479.783 146.291 Q478.987 146.783 478.495 147.415 Q478.027 148.048 477.605 148.961 Q477.207 149.851 477.043 150.39 Q476.902 150.905 476.785 151.467 L475.146 158.026 Q474.349 161.141 474.349 162.242 Q474.349 163.6 475.005 164.514 Q475.661 165.404 476.973 165.404 Q477.488 165.404 478.074 165.263 Q478.659 165.099 479.409 164.678 Q480.182 164.233 480.861 163.577 Q481.564 162.898 482.243 161.75 Q482.922 160.602 483.367 159.127 Q483.508 158.611 483.976 158.611 Q484.562 158.611 484.562 159.08 Q484.562 159.478 484.234 160.321 Q483.929 161.141 483.25 162.218 Q482.594 163.272 481.728 164.233 Q480.861 165.17 479.573 165.825 Q478.284 166.481 476.879 166.481 Q474.865 166.481 473.53 165.404 Q472.195 164.326 471.703 162.827 Q471.586 163.038 471.422 163.319 Q471.258 163.6 470.766 164.233 Q470.297 164.842 469.759 165.31 Q469.22 165.755 468.377 166.107 Q467.557 166.481 466.667 166.481 Q465.543 166.481 464.535 166.153 Q463.552 165.825 462.849 165.076 Q462.146 164.326 462.146 163.296 Q462.146 162.148 462.919 161.352 Q463.716 160.532 464.793 160.532 Q465.472 160.532 466.011 160.93 Q466.573 161.328 466.573 162.195 Q466.573 163.155 465.917 163.881 Q465.262 164.607 464.325 164.795 Q465.285 165.404 466.714 165.404 Q468.26 165.404 469.478 164.045 Q470.696 162.687 471.281 160.415 Q472.733 154.957 473.295 152.521 Q473.858 150.062 473.858 149.008 Q473.858 148.024 473.6 147.345 Q473.342 146.666 472.897 146.361 Q472.476 146.033 472.077 145.916 Q471.703 145.799 471.281 145.799 Q470.578 145.799 469.782 146.08 Q469.009 146.361 468.072 147.017 Q467.159 147.65 466.292 148.961 Q465.425 150.273 464.84 152.076 Q464.723 152.615 464.208 152.615 Q463.645 152.592 463.645 152.123 Q463.645 151.725 463.95 150.905 Q464.278 150.062 464.934 149.008 Q465.613 147.954 466.48 147.017 Q467.37 146.057 468.658 145.401 Q469.969 144.745 471.375 144.745 Q472.007 144.745 472.616 144.886 Q473.249 145.003 473.998 145.354 Q474.771 145.706 475.45 146.479 Q476.13 147.251 476.551 148.376 Q476.832 147.837 477.207 147.322 Q477.605 146.806 478.214 146.174 Q478.847 145.518 479.713 145.143 Q480.603 144.745 481.587 144.745 Q482.547 144.745 483.484 145.003 Q484.421 145.237 485.217 146.01 Q486.037 146.76 486.037 147.907 Z" fill="#000000" fill-rule="nonzero" fill-opacity="1" /><path clip-path="url(#clip100)" d="M490.65 177.466 Q490.65 177.232 491.259 176.647 Q498.988 168.777 498.988 153.95 Q498.988 139.077 491.563 131.558 Q490.65 130.692 490.65 130.434 Q490.65 129.966 491.118 129.966 Q491.446 129.966 492.594 130.926 Q493.765 131.886 495.522 134.088 Q497.302 136.29 498.613 138.983 Q501.775 145.518 501.775 153.95 Q501.775 162.054 498.754 168.589 Q497.466 171.33 495.662 173.625 Q493.859 175.921 492.664 176.928 Q491.47 177.935 491.118 177.935 Q490.65 177.935 490.65 177.466 Z" fill="#000000" fill-rule="nonzero" fill-opacity="1" /><polyline clip-path="url(#clip100)" style="stroke:#e26f46; stroke-linecap:round; stroke-linejoin:round; stroke-width:4; stroke-opacity:1; fill:none" points="245.49,212.918 392.509,212.918 "/>
<path clip-path="url(#clip100)" d="M442.074 205.579 Q442.074 208.999 440.341 212.302 Q438.631 215.604 435.937 217.642 Q433.244 219.656 430.503 219.656 Q428.864 219.656 427.763 218.766 Q426.685 217.853 426.1 216.565 Q425.655 218.157 424.694 221.975 Q423.734 225.793 423.734 226.168 Q423.734 226.379 423.781 226.472 Q423.828 226.566 424.039 226.683 Q424.249 226.824 424.765 226.87 Q425.28 226.941 426.147 226.941 Q426.592 226.941 426.756 226.941 Q426.943 226.964 427.107 227.081 Q427.294 227.198 427.294 227.456 Q427.294 228.416 426.428 228.416 Q425.655 228.416 424.062 228.346 Q422.469 228.276 421.673 228.276 Q420.994 228.276 419.635 228.346 Q418.277 228.416 417.644 228.416 Q417.012 228.416 417.012 227.854 Q417.012 227.526 417.106 227.315 Q417.176 227.128 417.363 227.034 Q417.551 226.964 417.715 226.941 Q417.855 226.941 418.136 226.941 Q419.214 226.941 419.682 226.753 Q420.15 226.589 420.314 226.238 Q420.502 225.91 420.713 224.973 L426.1 203.612 Q426.428 202.183 426.428 201.176 Q426.428 199.911 426.03 199.443 Q425.631 198.974 424.929 198.974 Q423.711 198.974 422.914 200.426 Q422.118 201.879 421.439 204.689 Q421.228 205.462 421.087 205.626 Q420.97 205.79 420.619 205.79 Q420.033 205.767 420.033 205.298 Q420.033 205.181 420.221 204.432 Q420.408 203.659 420.759 202.534 Q421.134 201.387 421.532 200.661 Q421.767 200.169 421.977 199.841 Q422.188 199.513 422.61 198.998 Q423.055 198.482 423.687 198.201 Q424.32 197.92 425.093 197.92 Q426.592 197.92 427.833 198.81 Q429.074 199.7 429.402 201.504 Q430.737 199.935 432.377 198.927 Q434.017 197.92 435.68 197.92 Q438.443 197.92 440.247 200.075 Q442.074 202.207 442.074 205.579 M438.607 203.471 Q438.607 201.34 437.788 200.169 Q436.991 198.974 435.539 198.974 Q433.736 198.974 431.651 200.801 Q429.59 202.534 429.168 204.151 L426.802 213.543 L426.662 214.316 Q426.662 214.456 426.732 214.878 Q426.826 215.276 427.084 215.932 Q427.365 216.588 427.739 217.173 Q428.138 217.736 428.84 218.157 Q429.566 218.579 430.456 218.579 Q431.885 218.579 433.431 217.314 Q435 216.049 436.171 213.66 Q436.898 212.114 437.741 208.788 Q438.607 205.439 438.607 203.471 Z" fill="#000000" fill-rule="nonzero" fill-opacity="1" /><path clip-path="url(#clip100)" d="M446.944 231.002 Q446.944 225.722 449.633 222.492 Q452.322 219.246 455.782 219.246 Q457.798 219.246 458.913 220.279 Q460.045 221.295 460.045 222.869 Q460.045 223.738 459.536 224.116 Q459.028 224.493 458.503 224.493 Q457.897 224.493 457.421 224.083 Q456.946 223.673 456.946 222.935 Q456.946 221.427 458.798 221.427 Q457.93 220.082 455.847 220.082 Q455.208 220.082 454.552 220.279 Q453.896 220.459 453.044 221.082 Q452.191 221.705 451.535 222.689 Q450.879 223.673 450.42 225.526 Q449.961 227.378 449.961 229.788 L449.961 230.592 Q451.338 227.263 454.159 227.28 Q456.979 227.28 458.93 229.428 Q460.881 231.576 460.881 234.756 Q460.881 238.019 458.848 240.183 Q456.815 242.348 453.962 242.348 Q452.683 242.348 451.519 241.806 Q450.371 241.282 449.289 240.069 Q448.223 238.855 447.584 236.527 Q446.944 234.199 446.944 231.002 M450.027 234.019 Q450.027 237.314 450.633 238.888 Q450.732 239.15 450.945 239.511 Q451.174 239.872 451.552 240.347 Q451.945 240.806 452.585 241.118 Q453.224 241.413 453.962 241.413 Q456.208 241.413 457.29 239.232 Q457.864 238.019 457.864 234.724 Q457.864 231.362 457.257 230.133 Q456.224 228.05 454.126 228.05 Q452.716 228.05 451.732 229.018 Q450.765 229.985 450.387 231.28 Q450.027 232.576 450.027 234.019 Z" fill="#000000" fill-rule="nonzero" fill-opacity="1" /><path clip-path="url(#clip100)" d="M463.704 236.199 Q463.704 235.199 464.245 234.822 Q464.786 234.428 465.36 234.428 Q466.13 234.428 466.573 234.92 Q467.032 235.396 467.032 236.068 Q467.032 236.74 466.573 237.232 Q466.13 237.708 465.36 237.708 Q464.983 237.708 464.786 237.642 Q465.229 239.183 466.573 240.298 Q467.934 241.413 469.721 241.413 Q471.967 241.413 473.312 239.232 Q474.115 237.822 474.115 234.625 Q474.115 231.805 473.508 230.395 Q472.574 228.247 470.656 228.247 Q467.934 228.247 466.327 230.592 Q466.13 230.887 465.901 230.903 Q465.573 230.903 465.491 230.723 Q465.425 230.526 465.425 230.018 L465.425 220.082 Q465.425 219.279 465.753 219.279 Q465.884 219.279 466.163 219.377 Q468.278 220.312 470.623 220.328 Q473.033 220.328 475.197 219.344 Q475.361 219.246 475.46 219.246 Q475.787 219.246 475.804 219.623 Q475.804 219.754 475.525 220.148 Q475.263 220.525 474.689 221.033 Q474.115 221.525 473.377 222 Q472.639 222.476 471.557 222.804 Q470.492 223.115 469.311 223.115 Q467.901 223.115 466.458 222.673 L466.458 229.215 Q468.196 227.509 470.721 227.509 Q473.41 227.509 475.263 229.674 Q477.115 231.838 477.115 234.855 Q477.115 238.019 474.918 240.183 Q472.738 242.348 469.787 242.348 Q467.098 242.348 465.393 240.429 Q463.704 238.511 463.704 236.199 Z" fill="#000000" fill-rule="nonzero" fill-opacity="1" /><path clip-path="url(#clip100)" d="M485.449 207.125 Q485.449 199.021 488.47 192.486 Q489.759 189.746 491.562 187.45 Q493.366 185.155 494.56 184.148 Q495.755 183.141 496.083 183.141 Q496.551 183.141 496.574 183.609 Q496.574 183.843 495.942 184.429 Q488.213 192.299 488.236 207.125 Q488.236 221.999 495.755 229.564 Q496.574 230.384 496.574 230.641 Q496.574 231.11 496.083 231.11 Q495.755 231.11 494.607 230.15 Q493.459 229.189 491.679 226.987 Q489.899 224.786 488.611 222.092 Q485.449 215.557 485.449 207.125 Z" fill="#000000" fill-rule="nonzero" fill-opacity="1" /><path clip-path="url(#clip100)" d="M524.107 201.082 Q524.107 202.394 523.287 203.143 Q522.468 203.87 521.531 203.87 Q520.641 203.87 520.172 203.354 Q519.704 202.839 519.704 202.183 Q519.704 201.293 520.36 200.52 Q521.015 199.747 521.999 199.583 Q521.039 198.974 519.61 198.974 Q518.673 198.974 517.853 199.466 Q517.057 199.958 516.565 200.59 Q516.097 201.223 515.675 202.136 Q515.277 203.026 515.113 203.565 Q514.972 204.08 514.855 204.642 L513.216 211.201 Q512.419 214.316 512.419 215.417 Q512.419 216.775 513.075 217.689 Q513.731 218.579 515.043 218.579 Q515.558 218.579 516.144 218.438 Q516.729 218.274 517.479 217.853 Q518.252 217.408 518.931 216.752 Q519.634 216.073 520.313 214.925 Q520.992 213.777 521.437 212.302 Q521.578 211.786 522.046 211.786 Q522.632 211.786 522.632 212.255 Q522.632 212.653 522.304 213.496 Q521.999 214.316 521.32 215.393 Q520.664 216.447 519.797 217.408 Q518.931 218.345 517.643 219 Q516.354 219.656 514.949 219.656 Q512.935 219.656 511.6 218.579 Q510.265 217.501 509.773 216.002 Q509.656 216.213 509.492 216.494 Q509.328 216.775 508.836 217.408 Q508.367 218.017 507.829 218.485 Q507.29 218.93 506.447 219.282 Q505.627 219.656 504.737 219.656 Q503.613 219.656 502.605 219.328 Q501.622 219 500.919 218.251 Q500.216 217.501 500.216 216.471 Q500.216 215.323 500.989 214.527 Q501.786 213.707 502.863 213.707 Q503.542 213.707 504.081 214.105 Q504.643 214.503 504.643 215.37 Q504.643 216.33 503.987 217.056 Q503.332 217.782 502.395 217.97 Q503.355 218.579 504.784 218.579 Q506.33 218.579 507.548 217.22 Q508.766 215.862 509.351 213.59 Q510.803 208.132 511.365 205.696 Q511.928 203.237 511.928 202.183 Q511.928 201.199 511.67 200.52 Q511.412 199.841 510.967 199.536 Q510.546 199.208 510.147 199.091 Q509.773 198.974 509.351 198.974 Q508.648 198.974 507.852 199.255 Q507.079 199.536 506.142 200.192 Q505.229 200.825 504.362 202.136 Q503.495 203.448 502.91 205.251 Q502.793 205.79 502.277 205.79 Q501.715 205.767 501.715 205.298 Q501.715 204.9 502.02 204.08 Q502.348 203.237 503.004 202.183 Q503.683 201.129 504.549 200.192 Q505.44 199.232 506.728 198.576 Q508.039 197.92 509.445 197.92 Q510.077 197.92 510.686 198.061 Q511.319 198.178 512.068 198.529 Q512.841 198.881 513.52 199.654 Q514.2 200.426 514.621 201.551 Q514.902 201.012 515.277 200.497 Q515.675 199.981 516.284 199.349 Q516.917 198.693 517.783 198.318 Q518.673 197.92 519.657 197.92 Q520.617 197.92 521.554 198.178 Q522.491 198.412 523.287 199.185 Q524.107 199.935 524.107 201.082 Z" fill="#000000" fill-rule="nonzero" fill-opacity="1" /><path clip-path="url(#clip100)" d="M528.72 230.641 Q528.72 230.407 529.329 229.822 Q537.058 221.952 537.058 207.125 Q537.058 192.252 529.633 184.733 Q528.72 183.867 528.72 183.609 Q528.72 183.141 529.188 183.141 Q529.516 183.141 530.664 184.101 Q531.835 185.061 533.592 187.263 Q535.372 189.465 536.683 192.158 Q539.845 198.693 539.845 207.125 Q539.845 215.229 536.824 221.764 Q535.536 224.505 533.732 226.8 Q531.929 229.096 530.734 230.103 Q529.54 231.11 529.188 231.11 Q528.72 231.11 528.72 230.641 Z" fill="#000000" fill-rule="nonzero" fill-opacity="1" /><circle clip-path="url(#clip100)" cx="319" cy="271.768" r="20.48" fill="#3da44d" fill-rule="evenodd" fill-opacity="1" stroke="#000000" stroke-opacity="1" stroke-width="4.55111"/>
<path clip-path="url(#clip100)" d="M417.012 270.541 Q417.012 262.437 420.033 255.902 Q421.322 253.161 423.125 250.866 Q424.929 248.571 426.123 247.563 Q427.318 246.556 427.646 246.556 Q428.114 246.556 428.138 247.025 Q428.138 247.259 427.505 247.845 Q419.776 255.714 419.799 270.541 Q419.799 285.414 427.318 292.98 Q428.138 293.799 428.138 294.057 Q428.138 294.525 427.646 294.525 Q427.318 294.525 426.17 293.565 Q425.022 292.605 423.242 290.403 Q421.462 288.201 420.174 285.508 Q417.012 278.973 417.012 270.541 Z" fill="#000000" fill-rule="nonzero" fill-opacity="1" /><path clip-path="url(#clip100)" d="M459.318 264.498 Q459.318 265.81 458.499 266.559 Q457.679 267.285 456.742 267.285 Q455.852 267.285 455.383 266.77 Q454.915 266.255 454.915 265.599 Q454.915 264.709 455.571 263.936 Q456.227 263.163 457.21 262.999 Q456.25 262.39 454.821 262.39 Q453.884 262.39 453.065 262.882 Q452.268 263.374 451.776 264.006 Q451.308 264.638 450.886 265.552 Q450.488 266.442 450.324 266.981 Q450.184 267.496 450.066 268.058 L448.427 274.616 Q447.631 277.732 447.631 278.832 Q447.631 280.191 448.286 281.104 Q448.942 281.994 450.254 281.994 Q450.769 281.994 451.355 281.854 Q451.94 281.69 452.69 281.268 Q453.463 280.823 454.142 280.168 Q454.845 279.488 455.524 278.341 Q456.203 277.193 456.648 275.717 Q456.789 275.202 457.257 275.202 Q457.843 275.202 457.843 275.67 Q457.843 276.069 457.515 276.912 Q457.21 277.732 456.531 278.809 Q455.875 279.863 455.009 280.823 Q454.142 281.76 452.854 282.416 Q451.565 283.072 450.16 283.072 Q448.146 283.072 446.811 281.994 Q445.476 280.917 444.984 279.418 Q444.867 279.629 444.703 279.91 Q444.539 280.191 444.047 280.823 Q443.578 281.432 443.04 281.901 Q442.501 282.346 441.658 282.697 Q440.838 283.072 439.948 283.072 Q438.824 283.072 437.817 282.744 Q436.833 282.416 436.13 281.667 Q435.427 280.917 435.427 279.886 Q435.427 278.739 436.2 277.942 Q436.997 277.123 438.074 277.123 Q438.753 277.123 439.292 277.521 Q439.854 277.919 439.854 278.786 Q439.854 279.746 439.198 280.472 Q438.543 281.198 437.606 281.385 Q438.566 281.994 439.995 281.994 Q441.541 281.994 442.759 280.636 Q443.977 279.277 444.562 277.005 Q446.014 271.548 446.577 269.112 Q447.139 266.653 447.139 265.599 Q447.139 264.615 446.881 263.936 Q446.623 263.257 446.178 262.952 Q445.757 262.624 445.359 262.507 Q444.984 262.39 444.562 262.39 Q443.859 262.39 443.063 262.671 Q442.29 262.952 441.353 263.608 Q440.44 264.24 439.573 265.552 Q438.707 266.864 438.121 268.667 Q438.004 269.206 437.489 269.206 Q436.926 269.182 436.926 268.714 Q436.926 268.316 437.231 267.496 Q437.559 266.653 438.215 265.599 Q438.894 264.545 439.761 263.608 Q440.651 262.648 441.939 261.992 Q443.251 261.336 444.656 261.336 Q445.288 261.336 445.897 261.476 Q446.53 261.594 447.279 261.945 Q448.052 262.296 448.731 263.069 Q449.411 263.842 449.832 264.966 Q450.113 264.428 450.488 263.912 Q450.886 263.397 451.495 262.765 Q452.128 262.109 452.994 261.734 Q453.884 261.336 454.868 261.336 Q455.828 261.336 456.765 261.594 Q457.702 261.828 458.499 262.601 Q459.318 263.35 459.318 264.498 Z" fill="#000000" fill-rule="nonzero" fill-opacity="1" /><path clip-path="url(#clip100)" d="M472.779 275.269 Q472.779 275.99 472.188 276.531 Q471.615 277.056 470.991 277.056 Q470.418 277.056 470.057 276.711 Q469.713 276.351 469.713 275.842 Q469.713 275.17 470.286 274.613 Q470.86 274.055 471.533 274.055 Q472.09 274.055 472.434 274.4 Q472.779 274.744 472.779 275.269 M473.074 291.451 Q473.074 291.582 472.926 292.107 Q472.779 292.615 472.418 293.402 Q472.074 294.173 471.598 294.894 Q471.123 295.616 470.336 296.124 Q469.565 296.632 468.68 296.632 Q467.483 296.632 466.696 295.845 Q465.925 295.058 465.925 293.878 Q465.925 293.238 466.696 291.189 Q468.926 285.221 469.008 284.975 Q469.385 284.04 469.385 283.22 Q469.385 282.843 469.303 282.614 Q469.221 282.368 469.057 282.286 Q468.893 282.188 468.794 282.171 Q468.712 282.155 468.549 282.155 Q467.581 282.155 466.679 283.138 Q465.778 284.122 465.155 286.319 Q465.023 286.729 464.941 286.828 Q464.859 286.926 464.614 286.926 Q464.204 286.909 464.204 286.582 Q464.204 286.483 464.318 286.106 Q464.433 285.713 464.646 285.122 Q464.859 284.516 465.237 283.893 Q465.614 283.253 466.073 282.696 Q466.548 282.138 467.22 281.778 Q467.893 281.417 468.647 281.417 Q469.877 281.417 470.631 282.22 Q471.401 283.007 471.401 284.171 Q471.401 284.811 470.959 285.942 Q470.418 287.418 470.221 287.893 L468.909 291.418 Q468.434 292.697 468.286 293.091 Q468.155 293.468 468.04 293.927 Q467.942 294.37 467.942 294.779 Q467.942 295.353 468.122 295.616 Q468.319 295.878 468.745 295.878 Q469.926 295.878 470.795 294.714 Q471.664 293.533 472.172 291.73 Q472.188 291.681 472.205 291.599 Q472.336 291.189 472.467 291.14 Q472.533 291.123 472.664 291.123 Q473.074 291.123 473.074 291.451 Z" fill="#000000" fill-rule="nonzero" fill-opacity="1" /><path clip-path="url(#clip100)" d="M478.786 281.76 Q478.106 280.987 478.106 279.98 Q478.106 278.973 478.762 278.223 Q479.442 277.451 480.66 277.451 Q482.088 277.451 482.908 278.832 Q483.728 280.191 483.728 282.486 Q483.728 284.969 482.721 287.265 Q481.714 289.583 480.73 290.684 Q479.746 291.785 479.348 291.785 Q478.879 291.785 478.879 291.27 Q478.879 291.082 479.207 290.731 Q482.65 287.03 482.674 282.486 Q482.674 281.76 482.58 281.76 L482.463 281.854 Q481.643 282.533 480.66 282.533 Q479.465 282.533 478.786 281.76 Z" fill="#000000" fill-rule="nonzero" fill-opacity="1" /><path clip-path="url(#clip100)" d="M522.774 252.014 Q522.774 253.302 521.954 254.098 Q521.158 254.895 520.151 254.895 Q519.425 254.895 518.886 254.45 Q518.371 254.005 518.371 253.232 Q518.371 252.435 518.98 251.592 Q519.589 250.749 520.971 250.632 Q520.057 249.765 518.605 249.765 Q517.879 249.765 517.27 250.234 Q516.684 250.679 516.356 251.405 Q516.005 252.154 515.209 256.394 Q514.951 257.776 514.717 259.111 Q514.483 260.446 514.202 261.851 L518.183 261.851 Q518.699 261.851 518.909 261.875 Q519.12 261.898 519.284 262.015 Q519.472 262.132 519.472 262.39 Q519.472 263.046 519.167 263.21 Q518.886 263.35 518.043 263.35 L513.92 263.35 L511.039 278.551 Q510.969 278.996 510.665 280.402 Q510.384 281.784 509.704 284.056 Q509.025 286.351 508.346 287.71 Q507.971 288.482 507.479 289.209 Q507.011 289.958 506.332 290.708 Q505.652 291.457 504.762 291.902 Q503.872 292.371 502.935 292.371 Q501.343 292.371 500.101 291.481 Q498.86 290.59 498.86 289.068 Q498.86 287.78 499.656 286.983 Q500.476 286.187 501.483 286.187 Q502.209 286.187 502.725 286.632 Q503.263 287.077 503.263 287.85 Q503.263 288.178 503.146 288.553 Q503.029 288.928 502.771 289.349 Q502.514 289.794 501.952 290.099 Q501.389 290.403 500.616 290.45 Q501.53 291.317 502.935 291.317 Q503.38 291.317 503.779 291.129 Q504.177 290.965 504.505 290.544 Q504.856 290.122 505.114 289.7 Q505.371 289.302 505.629 288.529 Q505.887 287.78 506.05 287.218 Q506.214 286.656 506.425 285.648 Q506.659 284.641 506.777 284.032 Q506.894 283.447 507.105 282.299 L510.688 263.35 L507.526 263.35 Q506.964 263.35 506.73 263.327 Q506.519 263.303 506.355 263.186 Q506.191 263.046 506.191 262.765 Q506.191 262.32 506.378 262.132 Q506.589 261.921 506.823 261.898 Q507.058 261.851 507.62 261.851 L510.946 261.851 Q512.07 255.925 512.515 254.333 Q513.03 252.646 513.827 251.475 Q514.623 250.28 515.513 249.718 Q516.403 249.156 517.129 248.945 Q517.879 248.711 518.605 248.711 Q520.244 248.711 521.509 249.601 Q522.774 250.468 522.774 252.014 Z" fill="#000000" fill-rule="nonzero" fill-opacity="1" /><path clip-path="url(#clip100)" d="M529.227 270.541 Q529.227 262.437 532.248 255.902 Q533.536 253.161 535.34 250.866 Q537.144 248.571 538.338 247.563 Q539.533 246.556 539.861 246.556 Q540.329 246.556 540.352 247.025 Q540.352 247.259 539.72 247.845 Q531.991 255.714 532.014 270.541 Q532.014 285.414 539.533 292.98 Q540.352 293.799 540.352 294.057 Q540.352 294.525 539.861 294.525 Q539.533 294.525 538.385 293.565 Q537.237 292.605 535.457 290.403 Q533.677 288.201 532.389 285.508 Q529.227 278.973 529.227 270.541 Z" fill="#000000" fill-rule="nonzero" fill-opacity="1" /><path clip-path="url(#clip100)" d="M571.533 264.498 Q571.533 265.81 570.713 266.559 Q569.894 267.285 568.957 267.285 Q568.067 267.285 567.598 266.77 Q567.13 266.255 567.13 265.599 Q567.13 264.709 567.786 263.936 Q568.441 263.163 569.425 262.999 Q568.465 262.39 567.036 262.39 Q566.099 262.39 565.279 262.882 Q564.483 263.374 563.991 264.006 Q563.523 264.638 563.101 265.552 Q562.703 266.442 562.539 266.981 Q562.398 267.496 562.281 268.058 L560.642 274.616 Q559.845 277.732 559.845 278.832 Q559.845 280.191 560.501 281.104 Q561.157 281.994 562.469 281.994 Q562.984 281.994 563.57 281.854 Q564.155 281.69 564.905 281.268 Q565.678 280.823 566.357 280.168 Q567.059 279.488 567.739 278.341 Q568.418 277.193 568.863 275.717 Q569.004 275.202 569.472 275.202 Q570.058 275.202 570.058 275.67 Q570.058 276.069 569.73 276.912 Q569.425 277.732 568.746 278.809 Q568.09 279.863 567.223 280.823 Q566.357 281.76 565.069 282.416 Q563.78 283.072 562.375 283.072 Q560.361 283.072 559.026 281.994 Q557.69 280.917 557.199 279.418 Q557.082 279.629 556.918 279.91 Q556.754 280.191 556.262 280.823 Q555.793 281.432 555.255 281.901 Q554.716 282.346 553.873 282.697 Q553.053 283.072 552.163 283.072 Q551.039 283.072 550.031 282.744 Q549.048 282.416 548.345 281.667 Q547.642 280.917 547.642 279.886 Q547.642 278.739 548.415 277.942 Q549.212 277.123 550.289 277.123 Q550.968 277.123 551.507 277.521 Q552.069 277.919 552.069 278.786 Q552.069 279.746 551.413 280.472 Q550.757 281.198 549.821 281.385 Q550.781 281.994 552.21 281.994 Q553.756 281.994 554.973 280.636 Q556.191 279.277 556.777 277.005 Q558.229 271.548 558.791 269.112 Q559.353 266.653 559.353 265.599 Q559.353 264.615 559.096 263.936 Q558.838 263.257 558.393 262.952 Q557.972 262.624 557.573 262.507 Q557.199 262.39 556.777 262.39 Q556.074 262.39 555.278 262.671 Q554.505 262.952 553.568 263.608 Q552.655 264.24 551.788 265.552 Q550.921 266.864 550.336 268.667 Q550.219 269.206 549.703 269.206 Q549.141 269.182 549.141 268.714 Q549.141 268.316 549.446 267.496 Q549.774 266.653 550.43 265.599 Q551.109 264.545 551.975 263.608 Q552.865 262.648 554.154 261.992 Q555.465 261.336 556.871 261.336 Q557.503 261.336 558.112 261.476 Q558.745 261.594 559.494 261.945 Q560.267 262.296 560.946 263.069 Q561.625 263.842 562.047 264.966 Q562.328 264.428 562.703 263.912 Q563.101 263.397 563.71 262.765 Q564.342 262.109 565.209 261.734 Q566.099 261.336 567.083 261.336 Q568.043 261.336 568.98 261.594 Q569.917 261.828 570.713 262.601 Q571.533 263.35 571.533 264.498 Z" fill="#000000" fill-rule="nonzero" fill-opacity="1" /><path clip-path="url(#clip100)" d="M584.993 275.269 Q584.993 275.99 584.403 276.531 Q583.829 277.056 583.206 277.056 Q582.632 277.056 582.272 276.711 Q581.927 276.351 581.927 275.842 Q581.927 275.17 582.501 274.613 Q583.075 274.055 583.747 274.055 Q584.305 274.055 584.649 274.4 Q584.993 274.744 584.993 275.269 M585.289 291.451 Q585.289 291.582 585.141 292.107 Q584.993 292.615 584.633 293.402 Q584.288 294.173 583.813 294.894 Q583.338 295.616 582.551 296.124 Q581.78 296.632 580.895 296.632 Q579.698 296.632 578.911 295.845 Q578.14 295.058 578.14 293.878 Q578.14 293.238 578.911 291.189 Q581.14 285.221 581.222 284.975 Q581.6 284.04 581.6 283.22 Q581.6 282.843 581.518 282.614 Q581.436 282.368 581.272 282.286 Q581.108 282.188 581.009 282.171 Q580.927 282.155 580.763 282.155 Q579.796 282.155 578.894 283.138 Q577.993 284.122 577.369 286.319 Q577.238 286.729 577.156 286.828 Q577.074 286.926 576.828 286.926 Q576.419 286.909 576.419 286.582 Q576.419 286.483 576.533 286.106 Q576.648 285.713 576.861 285.122 Q577.074 284.516 577.451 283.893 Q577.829 283.253 578.288 282.696 Q578.763 282.138 579.435 281.778 Q580.108 281.417 580.862 281.417 Q582.091 281.417 582.846 282.22 Q583.616 283.007 583.616 284.171 Q583.616 284.811 583.174 285.942 Q582.632 287.418 582.436 287.893 L581.124 291.418 Q580.649 292.697 580.501 293.091 Q580.37 293.468 580.255 293.927 Q580.157 294.37 580.157 294.779 Q580.157 295.353 580.337 295.616 Q580.534 295.878 580.96 295.878 Q582.141 295.878 583.01 294.714 Q583.879 293.533 584.387 291.73 Q584.403 291.681 584.42 291.599 Q584.551 291.189 584.682 291.14 Q584.748 291.123 584.879 291.123 Q585.289 291.123 585.289 291.451 Z" fill="#000000" fill-rule="nonzero" fill-opacity="1" /><path clip-path="url(#clip100)" d="M590.321 294.057 Q590.321 293.823 590.93 293.237 Q598.66 285.367 598.66 270.541 Q598.66 255.668 591.235 248.149 Q590.321 247.282 590.321 247.025 Q590.321 246.556 590.79 246.556 Q591.118 246.556 592.265 247.517 Q593.437 248.477 595.193 250.679 Q596.973 252.88 598.285 255.574 Q601.447 262.109 601.447 270.541 Q601.447 278.645 598.425 285.18 Q597.137 287.92 595.334 290.216 Q593.53 292.511 592.336 293.518 Q591.141 294.525 590.79 294.525 Q590.321 294.525 590.321 294.057 Z" fill="#000000" fill-rule="nonzero" fill-opacity="1" /><path clip-path="url(#clip100)" d="M608.737 294.057 Q608.737 293.823 609.346 293.237 Q617.075 285.367 617.075 270.541 Q617.075 255.668 609.65 248.149 Q608.737 247.282 608.737 247.025 Q608.737 246.556 609.205 246.556 Q609.533 246.556 610.681 247.517 Q611.852 248.477 613.609 250.679 Q615.389 252.88 616.7 255.574 Q619.863 262.109 619.863 270.541 Q619.863 278.645 616.841 285.18 Q615.553 287.92 613.749 290.216 Q611.946 292.511 610.751 293.518 Q609.557 294.525 609.205 294.525 Q608.737 294.525 608.737 294.057 Z" fill="#000000" fill-rule="nonzero" fill-opacity="1" /></svg>
