<?xml version="1.0" encoding="utf-8"?>
<svg xmlns="http://www.w3.org/2000/svg" xmlns:xlink="http://www.w3.org/1999/xlink" width="600" height="400" viewBox="0 0 2400 1600">
<defs>
  <clipPath id="clip220">
    <rect x="0" y="0" width="2400" height="1600"/>
  </clipPath>
</defs>
<path clip-path="url(#clip220)" d="M0 1600 L2400 1600 L2400 0 L0 0  Z" fill="#ffffff" fill-rule="evenodd" fill-opacity="1"/>
<defs>
  <clipPath id="clip221">
    <rect x="480" y="0" width="1681" height="1600"/>
  </clipPath>
</defs>
<path clip-path="url(#clip220)" d="M156.112 1486.45 L2352.76 1486.45 L2352.76 47.2441 L156.112 47.2441  Z" fill="#ffffff" fill-rule="evenodd" fill-opacity="1"/>
<defs>
  <clipPath id="clip222">
    <rect x="156" y="47" width="2198" height="1440"/>
  </clipPath>
</defs>
<polyline clip-path="url(#clip222)" style="stroke:#000000; stroke-linecap:round; stroke-linejoin:round; stroke-width:2; stroke-opacity:0.1; fill:none" points="218.281,1486.45 218.281,47.2441 "/>
<polyline clip-path="url(#clip222)" style="stroke:#000000; stroke-linecap:round; stroke-linejoin:round; stroke-width:2; stroke-opacity:0.1; fill:none" points="909.05,1486.45 909.05,47.2441 "/>
<polyline clip-path="url(#clip222)" style="stroke:#000000; stroke-linecap:round; stroke-linejoin:round; stroke-width:2; stroke-opacity:0.1; fill:none" points="1599.82,1486.45 1599.82,47.2441 "/>
<polyline clip-path="url(#clip222)" style="stroke:#000000; stroke-linecap:round; stroke-linejoin:round; stroke-width:2; stroke-opacity:0.1; fill:none" points="2290.59,1486.45 2290.59,47.2441 "/>
<polyline clip-path="url(#clip222)" style="stroke:#000000; stroke-linecap:round; stroke-linejoin:round; stroke-width:2; stroke-opacity:0.1; fill:none" points="156.112,1446.11 2352.76,1446.11 "/>
<polyline clip-path="url(#clip222)" style="stroke:#000000; stroke-linecap:round; stroke-linejoin:round; stroke-width:2; stroke-opacity:0.1; fill:none" points="156.112,1106.58 2352.76,1106.58 "/>
<polyline clip-path="url(#clip222)" style="stroke:#000000; stroke-linecap:round; stroke-linejoin:round; stroke-width:2; stroke-opacity:0.1; fill:none" points="156.112,767.042 2352.76,767.042 "/>
<polyline clip-path="url(#clip222)" style="stroke:#000000; stroke-linecap:round; stroke-linejoin:round; stroke-width:2; stroke-opacity:0.1; fill:none" points="156.112,427.509 2352.76,427.509 "/>
<polyline clip-path="url(#clip222)" style="stroke:#000000; stroke-linecap:round; stroke-linejoin:round; stroke-width:2; stroke-opacity:0.1; fill:none" points="156.112,87.9763 2352.76,87.9763 "/>
<polyline clip-path="url(#clip220)" style="stroke:#000000; stroke-linecap:round; stroke-linejoin:round; stroke-width:4; stroke-opacity:1; fill:none" points="156.112,1486.45 2352.76,1486.45 "/>
<polyline clip-path="url(#clip220)" style="stroke:#000000; stroke-linecap:round; stroke-linejoin:round; stroke-width:4; stroke-opacity:1; fill:none" points="218.281,1486.45 218.281,1467.55 "/>
<polyline clip-path="url(#clip220)" style="stroke:#000000; stroke-linecap:round; stroke-linejoin:round; stroke-width:4; stroke-opacity:1; fill:none" points="909.05,1486.45 909.05,1467.55 "/>
<polyline clip-path="url(#clip220)" style="stroke:#000000; stroke-linecap:round; stroke-linejoin:round; stroke-width:4; stroke-opacity:1; fill:none" points="1599.82,1486.45 1599.82,1467.55 "/>
<polyline clip-path="url(#clip220)" style="stroke:#000000; stroke-linecap:round; stroke-linejoin:round; stroke-width:4; stroke-opacity:1; fill:none" points="2290.59,1486.45 2290.59,1467.55 "/>
<path clip-path="url(#clip220)" d="M188.038 1532.02 L217.714 1532.02 L217.714 1535.95 L188.038 1535.95 L188.038 1532.02 Z" fill="#000000" fill-rule="nonzero" fill-opacity="1" /><path clip-path="url(#clip220)" d="M228.617 1544.91 L236.256 1544.91 L236.256 1518.55 L227.946 1520.21 L227.946 1515.95 L236.209 1514.29 L240.885 1514.29 L240.885 1544.91 L248.524 1544.91 L248.524 1548.85 L228.617 1548.85 L228.617 1544.91 Z" fill="#000000" fill-rule="nonzero" fill-opacity="1" /><path clip-path="url(#clip220)" d="M909.05 1517.37 Q905.439 1517.37 903.61 1520.93 Q901.804 1524.47 901.804 1531.6 Q901.804 1538.71 903.61 1542.27 Q905.439 1545.82 909.05 1545.82 Q912.684 1545.82 914.49 1542.27 Q916.318 1538.71 916.318 1531.6 Q916.318 1524.47 914.49 1520.93 Q912.684 1517.37 909.05 1517.37 M909.05 1513.66 Q914.86 1513.66 917.915 1518.27 Q920.994 1522.85 920.994 1531.6 Q920.994 1540.33 917.915 1544.94 Q914.86 1549.52 909.05 1549.52 Q903.24 1549.52 900.161 1544.94 Q897.105 1540.33 897.105 1531.6 Q897.105 1522.85 900.161 1518.27 Q903.24 1513.66 909.05 1513.66 Z" fill="#000000" fill-rule="nonzero" fill-opacity="1" /><path clip-path="url(#clip220)" d="M1590.2 1544.91 L1597.84 1544.91 L1597.84 1518.55 L1589.53 1520.21 L1589.53 1515.95 L1597.79 1514.29 L1602.47 1514.29 L1602.47 1544.91 L1610.11 1544.91 L1610.11 1548.85 L1590.2 1548.85 L1590.2 1544.91 Z" fill="#000000" fill-rule="nonzero" fill-opacity="1" /><path clip-path="url(#clip220)" d="M2285.24 1544.91 L2301.56 1544.91 L2301.56 1548.85 L2279.61 1548.85 L2279.61 1544.91 Q2282.28 1542.16 2286.86 1537.53 Q2291.47 1532.88 2292.65 1531.53 Q2294.89 1529.01 2295.77 1527.27 Q2296.67 1525.51 2296.67 1523.82 Q2296.67 1521.07 2294.73 1519.33 Q2292.81 1517.6 2289.71 1517.6 Q2287.51 1517.6 2285.05 1518.36 Q2282.62 1519.13 2279.85 1520.68 L2279.85 1515.95 Q2282.67 1514.82 2285.12 1514.24 Q2287.58 1513.66 2289.61 1513.66 Q2294.98 1513.66 2298.18 1516.35 Q2301.37 1519.03 2301.37 1523.52 Q2301.37 1525.65 2300.56 1527.57 Q2299.78 1529.47 2297.67 1532.07 Q2297.09 1532.74 2293.99 1535.95 Q2290.89 1539.15 2285.24 1544.91 Z" fill="#000000" fill-rule="nonzero" fill-opacity="1" /><polyline clip-path="url(#clip220)" style="stroke:#000000; stroke-linecap:round; stroke-linejoin:round; stroke-width:4; stroke-opacity:1; fill:none" points="156.112,1486.45 156.112,47.2441 "/>
<polyline clip-path="url(#clip220)" style="stroke:#000000; stroke-linecap:round; stroke-linejoin:round; stroke-width:4; stroke-opacity:1; fill:none" points="156.112,1446.11 175.01,1446.11 "/>
<polyline clip-path="url(#clip220)" style="stroke:#000000; stroke-linecap:round; stroke-linejoin:round; stroke-width:4; stroke-opacity:1; fill:none" points="156.112,1106.58 175.01,1106.58 "/>
<polyline clip-path="url(#clip220)" style="stroke:#000000; stroke-linecap:round; stroke-linejoin:round; stroke-width:4; stroke-opacity:1; fill:none" points="156.112,767.042 175.01,767.042 "/>
<polyline clip-path="url(#clip220)" style="stroke:#000000; stroke-linecap:round; stroke-linejoin:round; stroke-width:4; stroke-opacity:1; fill:none" points="156.112,427.509 175.01,427.509 "/>
<polyline clip-path="url(#clip220)" style="stroke:#000000; stroke-linecap:round; stroke-linejoin:round; stroke-width:4; stroke-opacity:1; fill:none" points="156.112,87.9763 175.01,87.9763 "/>
<path clip-path="url(#clip220)" d="M62.9365 1431.91 Q59.3254 1431.91 57.4967 1435.47 Q55.6912 1439.01 55.6912 1446.14 Q55.6912 1453.25 57.4967 1456.81 Q59.3254 1460.36 62.9365 1460.36 Q66.5707 1460.36 68.3763 1456.81 Q70.205 1453.25 70.205 1446.14 Q70.205 1439.01 68.3763 1435.47 Q66.5707 1431.91 62.9365 1431.91 M62.9365 1428.2 Q68.7467 1428.2 71.8022 1432.81 Q74.8809 1437.39 74.8809 1446.14 Q74.8809 1454.87 71.8022 1459.48 Q68.7467 1464.06 62.9365 1464.06 Q57.1264 1464.06 54.0477 1459.48 Q50.9921 1454.87 50.9921 1446.14 Q50.9921 1437.39 54.0477 1432.81 Q57.1264 1428.2 62.9365 1428.2 Z" fill="#000000" fill-rule="nonzero" fill-opacity="1" /><path clip-path="url(#clip220)" d="M83.0984 1457.51 L87.9827 1457.51 L87.9827 1463.39 L83.0984 1463.39 L83.0984 1457.51 Z" fill="#000000" fill-rule="nonzero" fill-opacity="1" /><path clip-path="url(#clip220)" d="M108.168 1431.91 Q104.557 1431.91 102.728 1435.47 Q100.922 1439.01 100.922 1446.14 Q100.922 1453.25 102.728 1456.81 Q104.557 1460.36 108.168 1460.36 Q111.802 1460.36 113.608 1456.81 Q115.436 1453.25 115.436 1446.14 Q115.436 1439.01 113.608 1435.47 Q111.802 1431.91 108.168 1431.91 M108.168 1428.2 Q113.978 1428.2 117.033 1432.81 Q120.112 1437.39 120.112 1446.14 Q120.112 1454.87 117.033 1459.48 Q113.978 1464.06 108.168 1464.06 Q102.358 1464.06 99.2789 1459.48 Q96.2234 1454.87 96.2234 1446.14 Q96.2234 1437.39 99.2789 1432.81 Q102.358 1428.2 108.168 1428.2 Z" fill="#000000" fill-rule="nonzero" fill-opacity="1" /><path clip-path="url(#clip220)" d="M63.9319 1092.37 Q60.3208 1092.37 58.4921 1095.94 Q56.6865 1099.48 56.6865 1106.61 Q56.6865 1113.72 58.4921 1117.28 Q60.3208 1120.82 63.9319 1120.82 Q67.5661 1120.82 69.3717 1117.28 Q71.2004 1113.72 71.2004 1106.61 Q71.2004 1099.48 69.3717 1095.94 Q67.5661 1092.37 63.9319 1092.37 M63.9319 1088.67 Q69.742 1088.67 72.7976 1093.28 Q75.8763 1097.86 75.8763 1106.61 Q75.8763 1115.34 72.7976 1119.94 Q69.742 1124.53 63.9319 1124.53 Q58.1217 1124.53 55.043 1119.94 Q51.9875 1115.34 51.9875 1106.61 Q51.9875 1097.86 55.043 1093.28 Q58.1217 1088.67 63.9319 1088.67 Z" fill="#000000" fill-rule="nonzero" fill-opacity="1" /><path clip-path="url(#clip220)" d="M84.0938 1117.98 L88.978 1117.98 L88.978 1123.86 L84.0938 1123.86 L84.0938 1117.98 Z" fill="#000000" fill-rule="nonzero" fill-opacity="1" /><path clip-path="url(#clip220)" d="M99.2095 1089.3 L117.566 1089.3 L117.566 1093.23 L103.492 1093.23 L103.492 1101.7 Q104.51 1101.36 105.529 1101.19 Q106.547 1101.01 107.566 1101.01 Q113.353 1101.01 116.733 1104.18 Q120.112 1107.35 120.112 1112.77 Q120.112 1118.35 116.64 1121.45 Q113.168 1124.53 106.848 1124.53 Q104.672 1124.53 102.404 1124.16 Q100.159 1123.79 97.7511 1123.05 L97.7511 1118.35 Q99.8345 1119.48 102.057 1120.04 Q104.279 1120.59 106.756 1120.59 Q110.76 1120.59 113.098 1118.49 Q115.436 1116.38 115.436 1112.77 Q115.436 1109.16 113.098 1107.05 Q110.76 1104.94 106.756 1104.94 Q104.881 1104.94 103.006 1105.36 Q101.154 1105.78 99.2095 1106.66 L99.2095 1089.3 Z" fill="#000000" fill-rule="nonzero" fill-opacity="1" /><path clip-path="url(#clip220)" d="M53.7467 780.387 L61.3856 780.387 L61.3856 754.022 L53.0754 755.688 L53.0754 751.429 L61.3393 749.762 L66.0152 749.762 L66.0152 780.387 L73.654 780.387 L73.654 784.322 L53.7467 784.322 L53.7467 780.387 Z" fill="#000000" fill-rule="nonzero" fill-opacity="1" /><path clip-path="url(#clip220)" d="M83.0984 778.443 L87.9827 778.443 L87.9827 784.322 L83.0984 784.322 L83.0984 778.443 Z" fill="#000000" fill-rule="nonzero" fill-opacity="1" /><path clip-path="url(#clip220)" d="M108.168 752.841 Q104.557 752.841 102.728 756.406 Q100.922 759.947 100.922 767.077 Q100.922 774.183 102.728 777.748 Q104.557 781.29 108.168 781.29 Q111.802 781.29 113.608 777.748 Q115.436 774.183 115.436 767.077 Q115.436 759.947 113.608 756.406 Q111.802 752.841 108.168 752.841 M108.168 749.137 Q113.978 749.137 117.033 753.744 Q120.112 758.327 120.112 767.077 Q120.112 775.804 117.033 780.41 Q113.978 784.994 108.168 784.994 Q102.358 784.994 99.2789 780.41 Q96.2234 775.804 96.2234 767.077 Q96.2234 758.327 99.2789 753.744 Q102.358 749.137 108.168 749.137 Z" fill="#000000" fill-rule="nonzero" fill-opacity="1" /><path clip-path="url(#clip220)" d="M54.7421 440.854 L62.381 440.854 L62.381 414.489 L54.0708 416.155 L54.0708 411.896 L62.3347 410.229 L67.0106 410.229 L67.0106 440.854 L74.6494 440.854 L74.6494 444.789 L54.7421 444.789 L54.7421 440.854 Z" fill="#000000" fill-rule="nonzero" fill-opacity="1" /><path clip-path="url(#clip220)" d="M84.0938 438.91 L88.978 438.91 L88.978 444.789 L84.0938 444.789 L84.0938 438.91 Z" fill="#000000" fill-rule="nonzero" fill-opacity="1" /><path clip-path="url(#clip220)" d="M99.2095 410.229 L117.566 410.229 L117.566 414.164 L103.492 414.164 L103.492 422.637 Q104.51 422.289 105.529 422.127 Q106.547 421.942 107.566 421.942 Q113.353 421.942 116.733 425.113 Q120.112 428.285 120.112 433.701 Q120.112 439.28 116.64 442.382 Q113.168 445.461 106.848 445.461 Q104.672 445.461 102.404 445.09 Q100.159 444.72 97.7511 443.979 L97.7511 439.28 Q99.8345 440.414 102.057 440.97 Q104.279 441.525 106.756 441.525 Q110.76 441.525 113.098 439.419 Q115.436 437.312 115.436 433.701 Q115.436 430.09 113.098 427.984 Q110.76 425.877 106.756 425.877 Q104.881 425.877 103.006 426.294 Q101.154 426.711 99.2095 427.59 L99.2095 410.229 Z" fill="#000000" fill-rule="nonzero" fill-opacity="1" /><path clip-path="url(#clip220)" d="M56.9643 101.321 L73.2837 101.321 L73.2837 105.256 L51.3393 105.256 L51.3393 101.321 Q54.0014 98.5665 58.5847 93.9369 Q63.1911 89.2841 64.3717 87.9416 Q66.617 85.4184 67.4967 83.6823 Q68.3994 81.9231 68.3994 80.2333 Q68.3994 77.4786 66.455 75.7425 Q64.5337 74.0064 61.4319 74.0064 Q59.2328 74.0064 56.7791 74.7703 Q54.3486 75.5342 51.5708 77.0851 L51.5708 72.3629 Q54.3949 71.2287 56.8486 70.65 Q59.3023 70.0713 61.3393 70.0713 Q66.7096 70.0713 69.9041 72.7565 Q73.0985 75.4416 73.0985 79.9323 Q73.0985 82.062 72.2883 83.9832 Q71.5013 85.8814 69.3948 88.474 Q68.8161 89.1453 65.7143 92.3628 Q62.6124 95.5573 56.9643 101.321 Z" fill="#000000" fill-rule="nonzero" fill-opacity="1" /><path clip-path="url(#clip220)" d="M83.0984 99.3767 L87.9827 99.3767 L87.9827 105.256 L83.0984 105.256 L83.0984 99.3767 Z" fill="#000000" fill-rule="nonzero" fill-opacity="1" /><path clip-path="url(#clip220)" d="M108.168 73.775 Q104.557 73.775 102.728 77.3398 Q100.922 80.8814 100.922 88.011 Q100.922 95.1174 102.728 98.6822 Q104.557 102.224 108.168 102.224 Q111.802 102.224 113.608 98.6822 Q115.436 95.1174 115.436 88.011 Q115.436 80.8814 113.608 77.3398 Q111.802 73.775 108.168 73.775 M108.168 70.0713 Q113.978 70.0713 117.033 74.6777 Q120.112 79.261 120.112 88.011 Q120.112 96.7378 117.033 101.344 Q113.978 105.928 108.168 105.928 Q102.358 105.928 99.2789 101.344 Q96.2234 96.7378 96.2234 88.011 Q96.2234 79.261 99.2789 74.6777 Q102.358 70.0713 108.168 70.0713 Z" fill="#000000" fill-rule="nonzero" fill-opacity="1" /><polyline clip-path="url(#clip222)" style="stroke:#009af9; stroke-linecap:round; stroke-linejoin:round; stroke-width:4; stroke-opacity:1; fill:none" points="218.281,767.042 223.63,756.567 228.978,746.174 234.327,735.862 239.675,725.631 271.001,667.345 302.326,611.853 333.652,559.153 364.977,509.247 379.55,486.982 394.122,465.322 408.695,444.266 423.268,423.815 442.8,397.35 462.333,371.972 481.866,347.679 501.399,324.473 533.679,288.501 565.959,255.496 595.976,227.465 625.993,201.999 644.834,187.325 663.675,173.661 682.516,161.008 701.358,149.365 735.159,131.009 768.96,115.906 788.304,108.725 807.649,102.609 826.994,97.5584 846.339,93.5729 875.26,89.6012 904.18,88.01 922.675,88.2405 941.17,89.4446 959.665,91.6223 978.16,94.7736 1011.92,103.037 1045.68,114.544 1064.89,122.541 1084.11,131.588 1103.32,141.686 1122.53,152.834 1152.99,172.663 1183.45,195.132 1202.37,210.419 1221.29,226.726 1240.21,244.051 1259.13,262.395 1288.12,292.468 1317.1,324.932 1337.53,349.253 1357.96,374.762 1378.39,401.459 1398.81,429.344 1429.35,473.234 1459.88,519.778 1494.6,575.934 1529.33,635.521 1563.72,697.915 1598.1,763.675 1617.02,801.284 1635.94,839.911 1654.85,879.557 1673.77,920.222 1702.67,984.309 1731.57,1050.77 1768.03,1138.04 1804.5,1229.09 1821.36,1272.47 1838.23,1316.67 1846.66,1339.07 1855.09,1361.67 1863.52,1384.48 1871.95,1407.49 1876.3,1419.43 1880.65,1431.43 1882.82,1437.45 1885,1443.48 1886.09,1445.72 1887.17,1442.69 1888.26,1439.66 1889.35,1436.63 1893.69,1424.47 1898.04,1412.26 1902.39,1399.99 1906.74,1387.67 1924.13,1337.85 1941.52,1287.17 1976.78,1181.79 2012.04,1072.87 2030.45,1014.6 2048.85,955.363 2067.26,895.162 2085.67,833.996 2100.17,785.133 2114.67,735.673 2129.17,685.613 2143.67,634.955 2176.7,517.357 2209.72,396.656 2242.74,272.85 2275.77,145.94 2279.47,131.508 2283.18,117.036 2286.88,102.526 2290.59,87.9763 "/>
<path clip-path="url(#clip220)" d="M229.334 1438.47 L766.341 1438.47 L766.341 1334.79 L229.334 1334.79  Z" fill="#ffffff" fill-rule="evenodd" fill-opacity="1"/>
<polyline clip-path="url(#clip220)" style="stroke:#000000; stroke-linecap:round; stroke-linejoin:round; stroke-width:4; stroke-opacity:1; fill:none" points="229.334,1438.47 766.341,1438.47 766.341,1334.79 229.334,1334.79 229.334,1438.47 "/>
<polyline clip-path="url(#clip220)" style="stroke:#009af9; stroke-linecap:round; stroke-linejoin:round; stroke-width:4; stroke-opacity:1; fill:none" points="253.741,1386.63 400.184,1386.63 "/>
<path clip-path="url(#clip220)" d="M446.608 1379.99 Q446.608 1380.02 446.467 1380.86 L441.127 1402.15 Q440.846 1403.27 440.05 1404.4 Q439.277 1405.55 438.035 1406.53 Q436.817 1407.54 434.944 1408.15 Q433.093 1408.78 430.962 1408.78 Q427.565 1408.78 426.066 1408.05 Q424.591 1407.35 424.591 1405.85 Q424.591 1404.54 425.411 1403.79 Q426.23 1403.06 427.167 1403.06 Q428.057 1403.06 428.526 1403.58 Q428.994 1404.09 428.994 1404.75 Q428.994 1405.48 428.502 1406.2 Q428.01 1406.95 427.027 1407.23 Q428.596 1407.72 430.868 1407.72 Q435.67 1407.72 437.731 1402.64 Q437.778 1402.57 437.778 1402.55 L439.37 1396.2 L439.3 1396.15 Q438.902 1396.62 438.27 1397.16 Q437.661 1397.68 436.349 1398.31 Q435.037 1398.94 433.749 1398.94 Q431.055 1398.94 429.205 1396.88 Q427.378 1394.8 427.378 1391.35 Q427.378 1388.85 428.385 1386.34 Q429.416 1383.81 431.009 1381.96 Q432.625 1380.09 434.686 1378.91 Q436.77 1377.74 438.785 1377.74 Q440.19 1377.74 441.385 1378.59 Q442.579 1379.41 443.235 1380.77 Q443.352 1379.64 443.985 1379.17 Q444.64 1378.7 445.203 1378.7 Q445.835 1378.7 446.21 1379.06 Q446.608 1379.38 446.608 1379.99 M442.673 1382.92 Q442.673 1382.78 442.579 1382.4 Q442.486 1382.01 442.204 1381.37 Q441.947 1380.74 441.549 1380.18 Q441.15 1379.62 440.424 1379.22 Q439.722 1378.8 438.832 1378.8 Q437.379 1378.8 435.927 1380.02 Q434.475 1381.21 433.468 1383.06 Q432.531 1384.84 431.641 1388.28 Q430.774 1391.73 430.774 1393.48 Q430.774 1395.22 431.524 1396.55 Q432.273 1397.89 433.89 1397.89 Q435.763 1397.89 437.778 1396.15 Q439.862 1394.35 440.214 1392.8 L442.532 1383.65 Q442.673 1383.08 442.673 1382.92 Z" fill="#000000" fill-rule="nonzero" fill-opacity="1" /><path clip-path="url(#clip220)" d="M453.18 1386.95 Q453.18 1378.84 456.201 1372.31 Q457.489 1369.57 459.293 1367.27 Q461.096 1364.98 462.291 1363.97 Q463.485 1362.96 463.813 1362.96 Q464.282 1362.96 464.305 1363.43 Q464.305 1363.67 463.673 1364.25 Q455.943 1372.12 455.967 1386.95 Q455.967 1401.82 463.485 1409.39 Q464.305 1410.21 464.305 1410.46 Q464.305 1410.93 463.813 1410.93 Q463.485 1410.93 462.338 1409.97 Q461.19 1409.01 459.41 1406.81 Q457.63 1404.61 456.342 1401.92 Q453.18 1395.38 453.18 1386.95 Z" fill="#000000" fill-rule="nonzero" fill-opacity="1" /><path clip-path="url(#clip220)" d="M491.838 1380.91 Q491.838 1382.22 491.018 1382.97 Q490.198 1383.69 489.261 1383.69 Q488.371 1383.69 487.903 1383.18 Q487.435 1382.66 487.435 1382.01 Q487.435 1381.12 488.09 1380.34 Q488.746 1379.57 489.73 1379.41 Q488.77 1378.8 487.341 1378.8 Q486.404 1378.8 485.584 1379.29 Q484.788 1379.78 484.296 1380.41 Q483.827 1381.05 483.406 1381.96 Q483.008 1382.85 482.844 1383.39 Q482.703 1383.9 482.586 1384.47 L480.947 1391.02 Q480.15 1394.14 480.15 1395.24 Q480.15 1396.6 480.806 1397.51 Q481.462 1398.4 482.773 1398.4 Q483.289 1398.4 483.874 1398.26 Q484.46 1398.1 485.209 1397.68 Q485.982 1397.23 486.662 1396.58 Q487.364 1395.9 488.044 1394.75 Q488.723 1393.6 489.168 1392.13 Q489.308 1391.61 489.777 1391.61 Q490.362 1391.61 490.362 1392.08 Q490.362 1392.48 490.034 1393.32 Q489.73 1394.14 489.051 1395.22 Q488.395 1396.27 487.528 1397.23 Q486.662 1398.17 485.373 1398.82 Q484.085 1399.48 482.68 1399.48 Q480.665 1399.48 479.33 1398.4 Q477.995 1397.32 477.503 1395.83 Q477.386 1396.04 477.222 1396.32 Q477.058 1396.6 476.567 1397.23 Q476.098 1397.84 475.559 1398.31 Q475.021 1398.75 474.177 1399.11 Q473.358 1399.48 472.468 1399.48 Q471.343 1399.48 470.336 1399.15 Q469.352 1398.82 468.65 1398.07 Q467.947 1397.32 467.947 1396.29 Q467.947 1395.15 468.72 1394.35 Q469.516 1393.53 470.594 1393.53 Q471.273 1393.53 471.812 1393.93 Q472.374 1394.33 472.374 1395.19 Q472.374 1396.15 471.718 1396.88 Q471.062 1397.61 470.125 1397.79 Q471.086 1398.4 472.514 1398.4 Q474.06 1398.4 475.278 1397.04 Q476.496 1395.69 477.082 1393.41 Q478.534 1387.96 479.096 1385.52 Q479.658 1383.06 479.658 1382.01 Q479.658 1381.02 479.401 1380.34 Q479.143 1379.66 478.698 1379.36 Q478.276 1379.03 477.878 1378.91 Q477.503 1378.8 477.082 1378.8 Q476.379 1378.8 475.583 1379.08 Q474.81 1379.36 473.873 1380.02 Q472.959 1380.65 472.093 1381.96 Q471.226 1383.27 470.641 1385.07 Q470.524 1385.61 470.008 1385.61 Q469.446 1385.59 469.446 1385.12 Q469.446 1384.72 469.751 1383.9 Q470.078 1383.06 470.734 1382.01 Q471.414 1380.95 472.28 1380.02 Q473.17 1379.06 474.458 1378.4 Q475.77 1377.74 477.175 1377.74 Q477.808 1377.74 478.417 1377.88 Q479.049 1378 479.799 1378.35 Q480.572 1378.7 481.251 1379.48 Q481.93 1380.25 482.352 1381.37 Q482.633 1380.84 483.008 1380.32 Q483.406 1379.8 484.015 1379.17 Q484.647 1378.52 485.514 1378.14 Q486.404 1377.74 487.388 1377.74 Q488.348 1377.74 489.285 1378 Q490.222 1378.24 491.018 1379.01 Q491.838 1379.76 491.838 1380.91 Z" fill="#000000" fill-rule="nonzero" fill-opacity="1" /><path clip-path="url(#clip220)" d="M496.45 1410.46 Q496.45 1410.23 497.059 1409.65 Q504.789 1401.78 504.789 1386.95 Q504.789 1372.08 497.364 1364.56 Q496.45 1363.69 496.45 1363.43 Q496.45 1362.96 496.919 1362.96 Q497.247 1362.96 498.395 1363.92 Q499.566 1364.88 501.322 1367.09 Q503.102 1369.29 504.414 1371.98 Q507.576 1378.52 507.576 1386.95 Q507.576 1395.05 504.555 1401.59 Q503.266 1404.33 501.463 1406.62 Q499.659 1408.92 498.465 1409.93 Q497.27 1410.93 496.919 1410.93 Q496.45 1410.93 496.45 1410.46 Z" fill="#000000" fill-rule="nonzero" fill-opacity="1" /><path clip-path="url(#clip220)" d="M528.171 1391.66 Q528.218 1391.07 529.131 1391.07 L558.526 1391.07 Q559.908 1391.07 559.932 1391.61 Q559.932 1392.2 558.62 1392.17 L529.459 1392.17 Q528.171 1392.2 528.171 1391.66 M528.171 1382.29 Q528.171 1381.7 529.178 1381.73 L558.479 1381.73 Q559.908 1381.73 559.932 1382.29 Q559.932 1382.83 558.714 1382.83 L529.131 1382.83 Q528.171 1382.83 528.171 1382.29 Z" fill="#000000" fill-rule="nonzero" fill-opacity="1" /><path clip-path="url(#clip220)" d="M578.422 1409.46 L578.422 1364.79 Q578.422 1363.01 579.383 1363.01 Q580.343 1363.01 580.343 1364.44 L580.343 1409.11 Q580.343 1410.89 579.383 1410.89 Q578.422 1410.89 578.422 1409.46 Z" fill="#000000" fill-rule="nonzero" fill-opacity="1" /><path clip-path="url(#clip220)" d="M587.658 1398.94 Q587.658 1398.07 587.728 1397.82 Q587.822 1397.56 588.197 1397.16 L597.402 1386.9 Q602.438 1381.23 602.438 1376.29 Q602.438 1373.08 600.751 1370.79 Q599.088 1368.49 596.02 1368.49 Q593.912 1368.49 592.132 1369.78 Q590.352 1371.07 589.532 1373.36 Q589.672 1373.32 590.164 1373.32 Q591.359 1373.32 592.015 1374.07 Q592.694 1374.82 592.694 1375.82 Q592.694 1377.11 591.851 1377.74 Q591.031 1378.35 590.211 1378.35 Q589.883 1378.35 589.438 1378.28 Q589.016 1378.21 588.337 1377.56 Q587.658 1376.88 587.658 1375.68 Q587.658 1372.33 590.188 1369.66 Q592.741 1366.99 596.629 1366.99 Q601.032 1366.99 603.913 1369.62 Q606.818 1372.22 606.818 1376.29 Q606.818 1377.72 606.372 1379.03 Q605.951 1380.32 605.365 1381.33 Q604.803 1382.33 603.257 1383.95 Q601.711 1385.57 600.47 1386.71 Q599.229 1387.86 596.441 1390.3 L591.359 1395.24 L600.002 1395.24 Q604.218 1395.24 604.546 1394.87 Q605.014 1394.19 605.6 1390.6 L606.818 1390.6 L605.459 1398.94 L587.658 1398.94 Z" fill="#000000" fill-rule="nonzero" fill-opacity="1" /><path clip-path="url(#clip220)" d="M656.38 1386.27 Q656.661 1386.55 656.661 1386.95 Q656.661 1387.35 656.38 1387.63 Q656.099 1387.91 655.701 1387.91 L625.673 1387.91 Q625.275 1387.91 624.994 1387.63 Q624.713 1387.35 624.713 1386.95 Q624.713 1386.55 624.994 1386.27 Q625.275 1385.99 625.673 1385.99 L655.701 1385.99 Q656.099 1385.99 656.38 1386.27 Z" fill="#000000" fill-rule="nonzero" fill-opacity="1" /><path clip-path="url(#clip220)" d="M698.855 1380.91 Q698.855 1382.22 698.035 1382.97 Q697.216 1383.69 696.279 1383.69 Q695.389 1383.69 694.92 1383.18 Q694.452 1382.66 694.452 1382.01 Q694.452 1381.12 695.108 1380.34 Q695.764 1379.57 696.747 1379.41 Q695.787 1378.8 694.358 1378.8 Q693.421 1378.8 692.601 1379.29 Q691.805 1379.78 691.313 1380.41 Q690.845 1381.05 690.423 1381.96 Q690.025 1382.85 689.861 1383.39 Q689.721 1383.9 689.603 1384.47 L687.964 1391.02 Q687.167 1394.14 687.167 1395.24 Q687.167 1396.6 687.823 1397.51 Q688.479 1398.4 689.791 1398.4 Q690.306 1398.4 690.892 1398.26 Q691.477 1398.1 692.227 1397.68 Q693 1397.23 693.679 1396.58 Q694.382 1395.9 695.061 1394.75 Q695.74 1393.6 696.185 1392.13 Q696.326 1391.61 696.794 1391.61 Q697.38 1391.61 697.38 1392.08 Q697.38 1392.48 697.052 1393.32 Q696.747 1394.14 696.068 1395.22 Q695.412 1396.27 694.546 1397.23 Q693.679 1398.17 692.391 1398.82 Q691.102 1399.48 689.697 1399.48 Q687.683 1399.48 686.348 1398.4 Q685.013 1397.32 684.521 1395.83 Q684.404 1396.04 684.24 1396.32 Q684.076 1396.6 683.584 1397.23 Q683.115 1397.84 682.577 1398.31 Q682.038 1398.75 681.195 1399.11 Q680.375 1399.48 679.485 1399.48 Q678.361 1399.48 677.353 1399.15 Q676.37 1398.82 675.667 1398.07 Q674.964 1397.32 674.964 1396.29 Q674.964 1395.15 675.737 1394.35 Q676.534 1393.53 677.611 1393.53 Q678.29 1393.53 678.829 1393.93 Q679.391 1394.33 679.391 1395.19 Q679.391 1396.15 678.735 1396.88 Q678.08 1397.61 677.143 1397.79 Q678.103 1398.4 679.532 1398.4 Q681.078 1398.4 682.296 1397.04 Q683.514 1395.69 684.099 1393.41 Q685.551 1387.96 686.113 1385.52 Q686.676 1383.06 686.676 1382.01 Q686.676 1381.02 686.418 1380.34 Q686.16 1379.66 685.715 1379.36 Q685.294 1379.03 684.895 1378.91 Q684.521 1378.8 684.099 1378.8 Q683.396 1378.8 682.6 1379.08 Q681.827 1379.36 680.89 1380.02 Q679.977 1380.65 679.11 1381.96 Q678.244 1383.27 677.658 1385.07 Q677.541 1385.61 677.026 1385.61 Q676.463 1385.59 676.463 1385.12 Q676.463 1384.72 676.768 1383.9 Q677.096 1383.06 677.752 1382.01 Q678.431 1380.95 679.298 1380.02 Q680.188 1379.06 681.476 1378.4 Q682.787 1377.74 684.193 1377.74 Q684.825 1377.74 685.434 1377.88 Q686.067 1378 686.816 1378.35 Q687.589 1378.7 688.268 1379.48 Q688.948 1380.25 689.369 1381.37 Q689.65 1380.84 690.025 1380.32 Q690.423 1379.8 691.032 1379.17 Q691.665 1378.52 692.531 1378.14 Q693.421 1377.74 694.405 1377.74 Q695.365 1377.74 696.302 1378 Q697.239 1378.24 698.035 1379.01 Q698.855 1379.76 698.855 1380.91 Z" fill="#000000" fill-rule="nonzero" fill-opacity="1" /><path clip-path="url(#clip220)" d="M703.741 1384.6 Q703.741 1383.99 703.79 1383.81 Q703.855 1383.63 704.118 1383.36 L710.561 1376.17 Q714.086 1372.21 714.086 1368.75 Q714.086 1366.5 712.906 1364.89 Q711.742 1363.29 709.594 1363.29 Q708.118 1363.29 706.872 1364.19 Q705.626 1365.09 705.052 1366.7 Q705.151 1366.66 705.495 1366.66 Q706.331 1366.66 706.79 1367.19 Q707.266 1367.71 707.266 1368.42 Q707.266 1369.32 706.675 1369.76 Q706.102 1370.19 705.528 1370.19 Q705.298 1370.19 704.987 1370.14 Q704.692 1370.09 704.216 1369.63 Q703.741 1369.16 703.741 1368.32 Q703.741 1365.98 705.511 1364.11 Q707.298 1362.24 710.02 1362.24 Q713.103 1362.24 715.119 1364.07 Q717.152 1365.89 717.152 1368.75 Q717.152 1369.75 716.841 1370.66 Q716.546 1371.57 716.136 1372.27 Q715.742 1372.98 714.66 1374.11 Q713.578 1375.24 712.709 1376.04 Q711.84 1376.85 709.889 1378.55 L706.331 1382.01 L712.381 1382.01 Q715.332 1382.01 715.562 1381.75 Q715.89 1381.27 716.3 1378.76 L717.152 1378.76 L716.201 1384.6 L703.741 1384.6 Z" fill="#000000" fill-rule="nonzero" fill-opacity="1" /><path clip-path="url(#clip220)" d="M722.139 1409.46 L722.139 1364.79 Q722.139 1363.01 723.099 1363.01 Q724.059 1363.01 724.059 1364.44 L724.059 1409.11 Q724.059 1410.89 723.099 1410.89 Q722.139 1410.89 722.139 1409.46 Z" fill="#000000" fill-rule="nonzero" fill-opacity="1" /></svg>
