<?xml version="1.0" encoding="utf-8"?>
<svg xmlns="http://www.w3.org/2000/svg" xmlns:xlink="http://www.w3.org/1999/xlink" width="600" height="400" viewBox="0 0 2400 1600">
<defs>
  <clipPath id="clip930">
    <rect x="0" y="0" width="2400" height="1600"/>
  </clipPath>
</defs>
<path clip-path="url(#clip930)" d="M0 1600 L2400 1600 L2400 0 L0 0  Z" fill="#ffffff" fill-rule="evenodd" fill-opacity="1"/>
<defs>
  <clipPath id="clip931">
    <rect x="480" y="0" width="1681" height="1600"/>
  </clipPath>
</defs>
<path clip-path="url(#clip930)" d="M156.112 1486.45 L2352.76 1486.45 L2352.76 47.2441 L156.112 47.2441  Z" fill="#ffffff" fill-rule="evenodd" fill-opacity="1"/>
<defs>
  <clipPath id="clip932">
    <rect x="156" y="47" width="2198" height="1440"/>
  </clipPath>
</defs>
<polyline clip-path="url(#clip932)" style="stroke:#000000; stroke-linecap:round; stroke-linejoin:round; stroke-width:2; stroke-opacity:0.1; fill:none" points="218.281,1486.45 218.281,47.2441 "/>
<polyline clip-path="url(#clip932)" style="stroke:#000000; stroke-linecap:round; stroke-linejoin:round; stroke-width:2; stroke-opacity:0.1; fill:none" points="909.05,1486.45 909.05,47.2441 "/>
<polyline clip-path="url(#clip932)" style="stroke:#000000; stroke-linecap:round; stroke-linejoin:round; stroke-width:2; stroke-opacity:0.1; fill:none" points="1599.82,1486.45 1599.82,47.2441 "/>
<polyline clip-path="url(#clip932)" style="stroke:#000000; stroke-linecap:round; stroke-linejoin:round; stroke-width:2; stroke-opacity:0.1; fill:none" points="2290.59,1486.45 2290.59,47.2441 "/>
<polyline clip-path="url(#clip932)" style="stroke:#000000; stroke-linecap:round; stroke-linejoin:round; stroke-width:2; stroke-opacity:0.1; fill:none" points="156.112,1445.72 2352.76,1445.72 "/>
<polyline clip-path="url(#clip932)" style="stroke:#000000; stroke-linecap:round; stroke-linejoin:round; stroke-width:2; stroke-opacity:0.1; fill:none" points="156.112,1106.28 2352.76,1106.28 "/>
<polyline clip-path="url(#clip932)" style="stroke:#000000; stroke-linecap:round; stroke-linejoin:round; stroke-width:2; stroke-opacity:0.1; fill:none" points="156.112,766.847 2352.76,766.847 "/>
<polyline clip-path="url(#clip932)" style="stroke:#000000; stroke-linecap:round; stroke-linejoin:round; stroke-width:2; stroke-opacity:0.1; fill:none" points="156.112,427.411 2352.76,427.411 "/>
<polyline clip-path="url(#clip932)" style="stroke:#000000; stroke-linecap:round; stroke-linejoin:round; stroke-width:2; stroke-opacity:0.1; fill:none" points="156.112,87.9763 2352.76,87.9763 "/>
<polyline clip-path="url(#clip930)" style="stroke:#000000; stroke-linecap:round; stroke-linejoin:round; stroke-width:4; stroke-opacity:1; fill:none" points="156.112,1486.45 2352.76,1486.45 "/>
<polyline clip-path="url(#clip930)" style="stroke:#000000; stroke-linecap:round; stroke-linejoin:round; stroke-width:4; stroke-opacity:1; fill:none" points="218.281,1486.45 218.281,1467.55 "/>
<polyline clip-path="url(#clip930)" style="stroke:#000000; stroke-linecap:round; stroke-linejoin:round; stroke-width:4; stroke-opacity:1; fill:none" points="909.05,1486.45 909.05,1467.55 "/>
<polyline clip-path="url(#clip930)" style="stroke:#000000; stroke-linecap:round; stroke-linejoin:round; stroke-width:4; stroke-opacity:1; fill:none" points="1599.82,1486.45 1599.82,1467.55 "/>
<polyline clip-path="url(#clip930)" style="stroke:#000000; stroke-linecap:round; stroke-linejoin:round; stroke-width:4; stroke-opacity:1; fill:none" points="2290.59,1486.45 2290.59,1467.55 "/>
<path clip-path="url(#clip930)" d="M188.038 1532.02 L217.714 1532.02 L217.714 1535.95 L188.038 1535.95 L188.038 1532.02 Z" fill="#000000" fill-rule="nonzero" fill-opacity="1" /><path clip-path="url(#clip930)" d="M228.617 1544.91 L236.256 1544.91 L236.256 1518.55 L227.946 1520.21 L227.946 1515.95 L236.209 1514.29 L240.885 1514.29 L240.885 1544.91 L248.524 1544.91 L248.524 1548.85 L228.617 1548.85 L228.617 1544.91 Z" fill="#000000" fill-rule="nonzero" fill-opacity="1" /><path clip-path="url(#clip930)" d="M909.05 1517.37 Q905.439 1517.37 903.61 1520.93 Q901.804 1524.47 901.804 1531.6 Q901.804 1538.71 903.61 1542.27 Q905.439 1545.82 909.05 1545.82 Q912.684 1545.82 914.49 1542.27 Q916.318 1538.71 916.318 1531.6 Q916.318 1524.47 914.49 1520.93 Q912.684 1517.37 909.05 1517.37 M909.05 1513.66 Q914.86 1513.66 917.915 1518.27 Q920.994 1522.85 920.994 1531.6 Q920.994 1540.33 917.915 1544.94 Q914.86 1549.52 909.05 1549.52 Q903.24 1549.52 900.161 1544.94 Q897.105 1540.33 897.105 1531.6 Q897.105 1522.85 900.161 1518.27 Q903.24 1513.66 909.05 1513.66 Z" fill="#000000" fill-rule="nonzero" fill-opacity="1" /><path clip-path="url(#clip930)" d="M1590.2 1544.91 L1597.84 1544.91 L1597.84 1518.55 L1589.53 1520.21 L1589.53 1515.95 L1597.79 1514.29 L1602.47 1514.29 L1602.47 1544.91 L1610.11 1544.91 L1610.11 1548.85 L1590.2 1548.85 L1590.2 1544.91 Z" fill="#000000" fill-rule="nonzero" fill-opacity="1" /><path clip-path="url(#clip930)" d="M2285.24 1544.91 L2301.56 1544.91 L2301.56 1548.85 L2279.61 1548.85 L2279.61 1544.91 Q2282.28 1542.16 2286.86 1537.53 Q2291.47 1532.88 2292.65 1531.53 Q2294.89 1529.01 2295.77 1527.27 Q2296.67 1525.51 2296.67 1523.82 Q2296.67 1521.07 2294.73 1519.33 Q2292.81 1517.6 2289.71 1517.6 Q2287.51 1517.6 2285.05 1518.36 Q2282.62 1519.13 2279.85 1520.68 L2279.85 1515.95 Q2282.67 1514.82 2285.12 1514.24 Q2287.58 1513.66 2289.61 1513.66 Q2294.98 1513.66 2298.18 1516.35 Q2301.37 1519.03 2301.37 1523.52 Q2301.37 1525.65 2300.56 1527.57 Q2299.78 1529.47 2297.67 1532.07 Q2297.09 1532.74 2293.99 1535.95 Q2290.89 1539.15 2285.24 1544.91 Z" fill="#000000" fill-rule="nonzero" fill-opacity="1" /><polyline clip-path="url(#clip930)" style="stroke:#000000; stroke-linecap:round; stroke-linejoin:round; stroke-width:4; stroke-opacity:1; fill:none" points="156.112,1486.45 156.112,47.2441 "/>
<polyline clip-path="url(#clip930)" style="stroke:#000000; stroke-linecap:round; stroke-linejoin:round; stroke-width:4; stroke-opacity:1; fill:none" points="156.112,1445.72 175.01,1445.72 "/>
<polyline clip-path="url(#clip930)" style="stroke:#000000; stroke-linecap:round; stroke-linejoin:round; stroke-width:4; stroke-opacity:1; fill:none" points="156.112,1106.28 175.01,1106.28 "/>
<polyline clip-path="url(#clip930)" style="stroke:#000000; stroke-linecap:round; stroke-linejoin:round; stroke-width:4; stroke-opacity:1; fill:none" points="156.112,766.847 175.01,766.847 "/>
<polyline clip-path="url(#clip930)" style="stroke:#000000; stroke-linecap:round; stroke-linejoin:round; stroke-width:4; stroke-opacity:1; fill:none" points="156.112,427.411 175.01,427.411 "/>
<polyline clip-path="url(#clip930)" style="stroke:#000000; stroke-linecap:round; stroke-linejoin:round; stroke-width:4; stroke-opacity:1; fill:none" points="156.112,87.9763 175.01,87.9763 "/>
<path clip-path="url(#clip930)" d="M62.9365 1431.52 Q59.3254 1431.52 57.4967 1435.08 Q55.6912 1438.62 55.6912 1445.75 Q55.6912 1452.86 57.4967 1456.42 Q59.3254 1459.96 62.9365 1459.96 Q66.5707 1459.96 68.3763 1456.42 Q70.205 1452.86 70.205 1445.75 Q70.205 1438.62 68.3763 1435.08 Q66.5707 1431.52 62.9365 1431.52 M62.9365 1427.81 Q68.7467 1427.81 71.8022 1432.42 Q74.8809 1437 74.8809 1445.75 Q74.8809 1454.48 71.8022 1459.08 Q68.7467 1463.67 62.9365 1463.67 Q57.1264 1463.67 54.0477 1459.08 Q50.9921 1454.48 50.9921 1445.75 Q50.9921 1437 54.0477 1432.42 Q57.1264 1427.81 62.9365 1427.81 Z" fill="#000000" fill-rule="nonzero" fill-opacity="1" /><path clip-path="url(#clip930)" d="M83.0984 1457.12 L87.9827 1457.12 L87.9827 1463 L83.0984 1463 L83.0984 1457.12 Z" fill="#000000" fill-rule="nonzero" fill-opacity="1" /><path clip-path="url(#clip930)" d="M108.168 1431.52 Q104.557 1431.52 102.728 1435.08 Q100.922 1438.62 100.922 1445.75 Q100.922 1452.86 102.728 1456.42 Q104.557 1459.96 108.168 1459.96 Q111.802 1459.96 113.608 1456.42 Q115.436 1452.86 115.436 1445.75 Q115.436 1438.62 113.608 1435.08 Q111.802 1431.52 108.168 1431.52 M108.168 1427.81 Q113.978 1427.81 117.033 1432.42 Q120.112 1437 120.112 1445.75 Q120.112 1454.48 117.033 1459.08 Q113.978 1463.67 108.168 1463.67 Q102.358 1463.67 99.2789 1459.08 Q96.2234 1454.48 96.2234 1445.75 Q96.2234 1437 99.2789 1432.42 Q102.358 1427.81 108.168 1427.81 Z" fill="#000000" fill-rule="nonzero" fill-opacity="1" /><path clip-path="url(#clip930)" d="M63.9319 1092.08 Q60.3208 1092.08 58.4921 1095.65 Q56.6865 1099.19 56.6865 1106.32 Q56.6865 1113.42 58.4921 1116.99 Q60.3208 1120.53 63.9319 1120.53 Q67.5661 1120.53 69.3717 1116.99 Q71.2004 1113.42 71.2004 1106.32 Q71.2004 1099.19 69.3717 1095.65 Q67.5661 1092.08 63.9319 1092.08 M63.9319 1088.38 Q69.742 1088.38 72.7976 1092.98 Q75.8763 1097.57 75.8763 1106.32 Q75.8763 1115.04 72.7976 1119.65 Q69.742 1124.23 63.9319 1124.23 Q58.1217 1124.23 55.043 1119.65 Q51.9875 1115.04 51.9875 1106.32 Q51.9875 1097.57 55.043 1092.98 Q58.1217 1088.38 63.9319 1088.38 Z" fill="#000000" fill-rule="nonzero" fill-opacity="1" /><path clip-path="url(#clip930)" d="M84.0938 1117.68 L88.978 1117.68 L88.978 1123.56 L84.0938 1123.56 L84.0938 1117.68 Z" fill="#000000" fill-rule="nonzero" fill-opacity="1" /><path clip-path="url(#clip930)" d="M99.2095 1089 L117.566 1089 L117.566 1092.94 L103.492 1092.94 L103.492 1101.41 Q104.51 1101.06 105.529 1100.9 Q106.547 1100.71 107.566 1100.71 Q113.353 1100.71 116.733 1103.89 Q120.112 1107.06 120.112 1112.47 Q120.112 1118.05 116.64 1121.15 Q113.168 1124.23 106.848 1124.23 Q104.672 1124.23 102.404 1123.86 Q100.159 1123.49 97.7511 1122.75 L97.7511 1118.05 Q99.8345 1119.19 102.057 1119.74 Q104.279 1120.3 106.756 1120.3 Q110.76 1120.3 113.098 1118.19 Q115.436 1116.08 115.436 1112.47 Q115.436 1108.86 113.098 1106.76 Q110.76 1104.65 106.756 1104.65 Q104.881 1104.65 103.006 1105.07 Q101.154 1105.48 99.2095 1106.36 L99.2095 1089 Z" fill="#000000" fill-rule="nonzero" fill-opacity="1" /><path clip-path="url(#clip930)" d="M53.7467 780.191 L61.3856 780.191 L61.3856 753.826 L53.0754 755.492 L53.0754 751.233 L61.3393 749.567 L66.0152 749.567 L66.0152 780.191 L73.654 780.191 L73.654 784.127 L53.7467 784.127 L53.7467 780.191 Z" fill="#000000" fill-rule="nonzero" fill-opacity="1" /><path clip-path="url(#clip930)" d="M83.0984 778.247 L87.9827 778.247 L87.9827 784.127 L83.0984 784.127 L83.0984 778.247 Z" fill="#000000" fill-rule="nonzero" fill-opacity="1" /><path clip-path="url(#clip930)" d="M108.168 752.645 Q104.557 752.645 102.728 756.21 Q100.922 759.752 100.922 766.881 Q100.922 773.988 102.728 777.552 Q104.557 781.094 108.168 781.094 Q111.802 781.094 113.608 777.552 Q115.436 773.988 115.436 766.881 Q115.436 759.752 113.608 756.21 Q111.802 752.645 108.168 752.645 M108.168 748.942 Q113.978 748.942 117.033 753.548 Q120.112 758.131 120.112 766.881 Q120.112 775.608 117.033 780.215 Q113.978 784.798 108.168 784.798 Q102.358 784.798 99.2789 780.215 Q96.2234 775.608 96.2234 766.881 Q96.2234 758.131 99.2789 753.548 Q102.358 748.942 108.168 748.942 Z" fill="#000000" fill-rule="nonzero" fill-opacity="1" /><path clip-path="url(#clip930)" d="M54.7421 440.756 L62.381 440.756 L62.381 414.391 L54.0708 416.057 L54.0708 411.798 L62.3347 410.131 L67.0106 410.131 L67.0106 440.756 L74.6494 440.756 L74.6494 444.691 L54.7421 444.691 L54.7421 440.756 Z" fill="#000000" fill-rule="nonzero" fill-opacity="1" /><path clip-path="url(#clip930)" d="M84.0938 438.812 L88.978 438.812 L88.978 444.691 L84.0938 444.691 L84.0938 438.812 Z" fill="#000000" fill-rule="nonzero" fill-opacity="1" /><path clip-path="url(#clip930)" d="M99.2095 410.131 L117.566 410.131 L117.566 414.067 L103.492 414.067 L103.492 422.539 Q104.51 422.192 105.529 422.029 Q106.547 421.844 107.566 421.844 Q113.353 421.844 116.733 425.016 Q120.112 428.187 120.112 433.604 Q120.112 439.182 116.64 442.284 Q113.168 445.363 106.848 445.363 Q104.672 445.363 102.404 444.992 Q100.159 444.622 97.7511 443.881 L97.7511 439.182 Q99.8345 440.316 102.057 440.872 Q104.279 441.428 106.756 441.428 Q110.76 441.428 113.098 439.321 Q115.436 437.215 115.436 433.604 Q115.436 429.992 113.098 427.886 Q110.76 425.779 106.756 425.779 Q104.881 425.779 103.006 426.196 Q101.154 426.613 99.2095 427.492 L99.2095 410.131 Z" fill="#000000" fill-rule="nonzero" fill-opacity="1" /><path clip-path="url(#clip930)" d="M56.9643 101.321 L73.2837 101.321 L73.2837 105.256 L51.3393 105.256 L51.3393 101.321 Q54.0014 98.5665 58.5847 93.9369 Q63.1911 89.2841 64.3717 87.9416 Q66.617 85.4184 67.4967 83.6823 Q68.3994 81.9231 68.3994 80.2333 Q68.3994 77.4786 66.455 75.7425 Q64.5337 74.0064 61.4319 74.0064 Q59.2328 74.0064 56.7791 74.7703 Q54.3486 75.5342 51.5708 77.0851 L51.5708 72.3629 Q54.3949 71.2287 56.8486 70.65 Q59.3023 70.0713 61.3393 70.0713 Q66.7096 70.0713 69.9041 72.7565 Q73.0985 75.4416 73.0985 79.9323 Q73.0985 82.062 72.2883 83.9832 Q71.5013 85.8814 69.3948 88.474 Q68.8161 89.1453 65.7143 92.3628 Q62.6124 95.5573 56.9643 101.321 Z" fill="#000000" fill-rule="nonzero" fill-opacity="1" /><path clip-path="url(#clip930)" d="M83.0984 99.3767 L87.9827 99.3767 L87.9827 105.256 L83.0984 105.256 L83.0984 99.3767 Z" fill="#000000" fill-rule="nonzero" fill-opacity="1" /><path clip-path="url(#clip930)" d="M108.168 73.775 Q104.557 73.775 102.728 77.3398 Q100.922 80.8814 100.922 88.011 Q100.922 95.1174 102.728 98.6822 Q104.557 102.224 108.168 102.224 Q111.802 102.224 113.608 98.6822 Q115.436 95.1174 115.436 88.011 Q115.436 80.8814 113.608 77.3398 Q111.802 73.775 108.168 73.775 M108.168 70.0713 Q113.978 70.0713 117.033 74.6777 Q120.112 79.261 120.112 88.011 Q120.112 96.7378 117.033 101.344 Q113.978 105.928 108.168 105.928 Q102.358 105.928 99.2789 101.344 Q96.2234 96.7378 96.2234 88.011 Q96.2234 79.261 99.2789 74.6777 Q102.358 70.0713 108.168 70.0713 Z" fill="#000000" fill-rule="nonzero" fill-opacity="1" /><circle clip-path="url(#clip932)" cx="218.281" cy="766.847" r="14.4" fill="#009af9" fill-rule="evenodd" fill-opacity="1" stroke="#000000" stroke-opacity="1" stroke-width="3.2"/>
<circle clip-path="url(#clip932)" cx="736.358" cy="130.406" r="14.4" fill="#009af9" fill-rule="evenodd" fill-opacity="1" stroke="#000000" stroke-opacity="1" stroke-width="3.2"/>
<circle clip-path="url(#clip932)" cx="1254.43" cy="257.694" r="14.4" fill="#009af9" fill-rule="evenodd" fill-opacity="1" stroke="#000000" stroke-opacity="1" stroke-width="3.2"/>
<circle clip-path="url(#clip932)" cx="1513.47" cy="607.736" r="14.4" fill="#009af9" fill-rule="evenodd" fill-opacity="1" stroke="#000000" stroke-opacity="1" stroke-width="3.2"/>
<circle clip-path="url(#clip932)" cx="1772.51" cy="1148.71" r="14.4" fill="#009af9" fill-rule="evenodd" fill-opacity="1" stroke="#000000" stroke-opacity="1" stroke-width="3.2"/>
<circle clip-path="url(#clip932)" cx="1804.89" cy="1229.76" r="14.4" fill="#009af9" fill-rule="evenodd" fill-opacity="1" stroke="#000000" stroke-opacity="1" stroke-width="3.2"/>
<circle clip-path="url(#clip932)" cx="1837.27" cy="1313.79" r="14.4" fill="#009af9" fill-rule="evenodd" fill-opacity="1" stroke="#000000" stroke-opacity="1" stroke-width="3.2"/>
<circle clip-path="url(#clip932)" cx="1853.46" cy="1356.92" r="14.4" fill="#009af9" fill-rule="evenodd" fill-opacity="1" stroke="#000000" stroke-opacity="1" stroke-width="3.2"/>
<circle clip-path="url(#clip932)" cx="1869.65" cy="1400.8" r="14.4" fill="#009af9" fill-rule="evenodd" fill-opacity="1" stroke="#000000" stroke-opacity="1" stroke-width="3.2"/>
<circle clip-path="url(#clip932)" cx="1877.74" cy="1423.02" r="14.4" fill="#009af9" fill-rule="evenodd" fill-opacity="1" stroke="#000000" stroke-opacity="1" stroke-width="3.2"/>
<circle clip-path="url(#clip932)" cx="1885.84" cy="1445.43" r="14.4" fill="#009af9" fill-rule="evenodd" fill-opacity="1" stroke="#000000" stroke-opacity="1" stroke-width="3.2"/>
<circle clip-path="url(#clip932)" cx="1885.87" cy="1445.51" r="14.4" fill="#009af9" fill-rule="evenodd" fill-opacity="1" stroke="#000000" stroke-opacity="1" stroke-width="3.2"/>
<circle clip-path="url(#clip932)" cx="1885.9" cy="1445.6" r="14.4" fill="#009af9" fill-rule="evenodd" fill-opacity="1" stroke="#000000" stroke-opacity="1" stroke-width="3.2"/>
<circle clip-path="url(#clip932)" cx="1885.92" cy="1445.65" r="14.4" fill="#009af9" fill-rule="evenodd" fill-opacity="1" stroke="#000000" stroke-opacity="1" stroke-width="3.2"/>
<circle clip-path="url(#clip932)" cx="1885.93" cy="1445.69" r="14.4" fill="#009af9" fill-rule="evenodd" fill-opacity="1" stroke="#000000" stroke-opacity="1" stroke-width="3.2"/>
<circle clip-path="url(#clip932)" cx="1885.94" cy="1445.7" r="14.4" fill="#009af9" fill-rule="evenodd" fill-opacity="1" stroke="#000000" stroke-opacity="1" stroke-width="3.2"/>
<circle clip-path="url(#clip932)" cx="1885.94" cy="1445.71" r="14.4" fill="#009af9" fill-rule="evenodd" fill-opacity="1" stroke="#000000" stroke-opacity="1" stroke-width="3.2"/>
<circle clip-path="url(#clip932)" cx="1885.94" cy="1445.72" r="14.4" fill="#009af9" fill-rule="evenodd" fill-opacity="1" stroke="#000000" stroke-opacity="1" stroke-width="3.2"/>
<circle clip-path="url(#clip932)" cx="1885.94" cy="1445.72" r="14.4" fill="#009af9" fill-rule="evenodd" fill-opacity="1" stroke="#000000" stroke-opacity="1" stroke-width="3.2"/>
<circle clip-path="url(#clip932)" cx="1885.95" cy="1445.71" r="14.4" fill="#009af9" fill-rule="evenodd" fill-opacity="1" stroke="#000000" stroke-opacity="1" stroke-width="3.2"/>
<circle clip-path="url(#clip932)" cx="1885.95" cy="1445.71" r="14.4" fill="#009af9" fill-rule="evenodd" fill-opacity="1" stroke="#000000" stroke-opacity="1" stroke-width="3.2"/>
<circle clip-path="url(#clip932)" cx="1885.95" cy="1445.7" r="14.4" fill="#009af9" fill-rule="evenodd" fill-opacity="1" stroke="#000000" stroke-opacity="1" stroke-width="3.2"/>
<circle clip-path="url(#clip932)" cx="1885.95" cy="1445.7" r="14.4" fill="#009af9" fill-rule="evenodd" fill-opacity="1" stroke="#000000" stroke-opacity="1" stroke-width="3.2"/>
<circle clip-path="url(#clip932)" cx="1885.96" cy="1445.68" r="14.4" fill="#009af9" fill-rule="evenodd" fill-opacity="1" stroke="#000000" stroke-opacity="1" stroke-width="3.2"/>
<circle clip-path="url(#clip932)" cx="1885.97" cy="1445.66" r="14.4" fill="#009af9" fill-rule="evenodd" fill-opacity="1" stroke="#000000" stroke-opacity="1" stroke-width="3.2"/>
<circle clip-path="url(#clip932)" cx="1886.03" cy="1445.48" r="14.4" fill="#009af9" fill-rule="evenodd" fill-opacity="1" stroke="#000000" stroke-opacity="1" stroke-width="3.2"/>
<circle clip-path="url(#clip932)" cx="1886.09" cy="1445.3" r="14.4" fill="#009af9" fill-rule="evenodd" fill-opacity="1" stroke="#000000" stroke-opacity="1" stroke-width="3.2"/>
<circle clip-path="url(#clip932)" cx="1886.22" cy="1444.95" r="14.4" fill="#009af9" fill-rule="evenodd" fill-opacity="1" stroke="#000000" stroke-opacity="1" stroke-width="3.2"/>
<circle clip-path="url(#clip932)" cx="1886.35" cy="1444.6" r="14.4" fill="#009af9" fill-rule="evenodd" fill-opacity="1" stroke="#000000" stroke-opacity="1" stroke-width="3.2"/>
<circle clip-path="url(#clip932)" cx="1886.6" cy="1443.9" r="14.4" fill="#009af9" fill-rule="evenodd" fill-opacity="1" stroke="#000000" stroke-opacity="1" stroke-width="3.2"/>
<circle clip-path="url(#clip932)" cx="1886.85" cy="1443.19" r="14.4" fill="#009af9" fill-rule="evenodd" fill-opacity="1" stroke="#000000" stroke-opacity="1" stroke-width="3.2"/>
<circle clip-path="url(#clip932)" cx="1887.36" cy="1441.78" r="14.4" fill="#009af9" fill-rule="evenodd" fill-opacity="1" stroke="#000000" stroke-opacity="1" stroke-width="3.2"/>
<circle clip-path="url(#clip932)" cx="1887.86" cy="1440.38" r="14.4" fill="#009af9" fill-rule="evenodd" fill-opacity="1" stroke="#000000" stroke-opacity="1" stroke-width="3.2"/>
<circle clip-path="url(#clip932)" cx="1888.88" cy="1437.56" r="14.4" fill="#009af9" fill-rule="evenodd" fill-opacity="1" stroke="#000000" stroke-opacity="1" stroke-width="3.2"/>
<circle clip-path="url(#clip932)" cx="1889.89" cy="1434.73" r="14.4" fill="#009af9" fill-rule="evenodd" fill-opacity="1" stroke="#000000" stroke-opacity="1" stroke-width="3.2"/>
<circle clip-path="url(#clip932)" cx="1891.91" cy="1429.08" r="14.4" fill="#009af9" fill-rule="evenodd" fill-opacity="1" stroke="#000000" stroke-opacity="1" stroke-width="3.2"/>
<circle clip-path="url(#clip932)" cx="1893.93" cy="1423.41" r="14.4" fill="#009af9" fill-rule="evenodd" fill-opacity="1" stroke="#000000" stroke-opacity="1" stroke-width="3.2"/>
<circle clip-path="url(#clip932)" cx="1897.98" cy="1412.05" r="14.4" fill="#009af9" fill-rule="evenodd" fill-opacity="1" stroke="#000000" stroke-opacity="1" stroke-width="3.2"/>
<circle clip-path="url(#clip932)" cx="1902.03" cy="1400.64" r="14.4" fill="#009af9" fill-rule="evenodd" fill-opacity="1" stroke="#000000" stroke-opacity="1" stroke-width="3.2"/>
<circle clip-path="url(#clip932)" cx="1966.79" cy="1211.69" r="14.4" fill="#009af9" fill-rule="evenodd" fill-opacity="1" stroke="#000000" stroke-opacity="1" stroke-width="3.2"/>
<circle clip-path="url(#clip932)" cx="2031.55" cy="1010.82" r="14.4" fill="#009af9" fill-rule="evenodd" fill-opacity="1" stroke="#000000" stroke-opacity="1" stroke-width="3.2"/>
<circle clip-path="url(#clip932)" cx="2161.07" cy="573.262" r="14.4" fill="#009af9" fill-rule="evenodd" fill-opacity="1" stroke="#000000" stroke-opacity="1" stroke-width="3.2"/>
<circle clip-path="url(#clip932)" cx="2290.59" cy="87.9763" r="14.4" fill="#009af9" fill-rule="evenodd" fill-opacity="1" stroke="#000000" stroke-opacity="1" stroke-width="3.2"/>
<polyline clip-path="url(#clip932)" style="stroke:#e26f46; stroke-linecap:round; stroke-linejoin:round; stroke-width:4; stroke-opacity:1; fill:none" points="218.281,766.847 223.63,756.375 228.978,745.984 234.327,735.675 239.675,725.447 271.001,667.178 302.326,611.702 333.652,559.017 364.977,509.125 379.55,486.867 394.122,465.213 408.695,444.163 423.268,423.718 442.8,397.261 462.333,371.89 481.866,347.604 501.399,324.405 533.679,288.444 565.959,255.448 595.976,227.425 625.993,201.966 644.834,187.297 663.675,173.637 682.516,160.987 701.358,149.347 735.159,130.997 768.96,115.898 788.304,108.719 807.649,102.605 826.994,97.5557 846.339,93.5713 875.26,89.6007 904.18,88.01 922.675,88.2404 941.17,89.4442 959.665,91.6212 978.16,94.7716 1011.92,103.032 1045.68,114.536 1064.89,122.531 1084.11,131.576 1103.32,141.671 1122.53,152.816 1152.99,172.639 1183.45,195.101 1202.37,210.384 1221.29,226.686 1240.21,244.006 1259.13,262.345 1288.12,292.409 1317.1,324.864 1337.53,349.178 1357.96,374.679 1378.39,401.369 1398.81,429.246 1429.35,473.123 1459.88,519.654 1494.6,575.793 1529.33,635.363 1563.72,697.739 1598.1,763.48 1617.02,801.078 1635.94,839.695 1654.85,879.329 1673.77,919.982 1702.67,984.051 1731.57,1050.5 1768.03,1137.74 1804.5,1228.76 1821.36,1272.13 1838.23,1316.31 1846.66,1338.71 1855.09,1361.31 1863.52,1384.11 1871.95,1407.11 1876.3,1419.05 1880.65,1431.04 1882.82,1437.06 1885,1443.09 1886.09,1445.32 1887.17,1442.3 1888.26,1439.27 1889.35,1436.24 1893.69,1424.09 1898.04,1411.88 1902.39,1399.62 1906.74,1387.3 1924.13,1337.49 1941.52,1286.83 1976.78,1181.48 2012.04,1072.59 2030.45,1014.33 2048.85,955.113 2067.26,894.929 2085.67,833.781 2100.17,784.932 2114.67,735.486 2129.17,685.441 2143.67,634.798 2176.7,517.234 2209.72,396.567 2242.74,272.797 2275.77,145.924 2279.47,131.495 2283.18,117.028 2286.88,102.522 2290.59,87.9763 "/>
<path clip-path="url(#clip930)" d="M229.334 1438.47 L967.491 1438.47 L967.491 1282.95 L229.334 1282.95  Z" fill="#ffffff" fill-rule="evenodd" fill-opacity="1"/>
<polyline clip-path="url(#clip930)" style="stroke:#000000; stroke-linecap:round; stroke-linejoin:round; stroke-width:4; stroke-opacity:1; fill:none" points="229.334,1438.47 967.491,1438.47 967.491,1282.95 229.334,1282.95 229.334,1438.47 "/>
<circle clip-path="url(#clip930)" cx="326.962" cy="1334.79" r="20.48" fill="#009af9" fill-rule="evenodd" fill-opacity="1" stroke="#000000" stroke-opacity="1" stroke-width="4.55111"/>
<path clip-path="url(#clip930)" d="M424.591 1316.06 L428.873 1316.06 L428.873 1337.33 L441.581 1326.15 L447.021 1326.15 L433.271 1338.28 L447.6 1352.07 L442.044 1352.07 L428.873 1339.41 L428.873 1352.07 L424.591 1352.07 L424.591 1316.06 Z" fill="#000000" fill-rule="nonzero" fill-opacity="1" /><path clip-path="url(#clip930)" d="M467.229 1330.13 Q466.512 1329.71 465.655 1329.53 Q464.822 1329.32 463.804 1329.32 Q460.192 1329.32 458.248 1331.68 Q456.327 1334.02 456.327 1338.42 L456.327 1352.07 L452.044 1352.07 L452.044 1326.15 L456.327 1326.15 L456.327 1330.18 Q457.669 1327.82 459.822 1326.68 Q461.975 1325.52 465.054 1325.52 Q465.493 1325.52 466.026 1325.59 Q466.558 1325.64 467.206 1325.76 L467.229 1330.13 Z" fill="#000000" fill-rule="nonzero" fill-opacity="1" /><path clip-path="url(#clip930)" d="M483.479 1339.04 Q478.317 1339.04 476.327 1340.22 Q474.336 1341.4 474.336 1344.25 Q474.336 1346.52 475.817 1347.86 Q477.322 1349.18 479.891 1349.18 Q483.433 1349.18 485.563 1346.68 Q487.715 1344.16 487.715 1339.99 L487.715 1339.04 L483.479 1339.04 M491.975 1337.28 L491.975 1352.07 L487.715 1352.07 L487.715 1348.14 Q486.257 1350.5 484.081 1351.63 Q481.905 1352.75 478.757 1352.75 Q474.776 1352.75 472.415 1350.52 Q470.077 1348.28 470.077 1344.53 Q470.077 1340.15 472.993 1337.93 Q475.933 1335.71 481.743 1335.71 L487.715 1335.71 L487.715 1335.29 Q487.715 1332.35 485.771 1330.76 Q483.85 1329.13 480.354 1329.13 Q478.132 1329.13 476.026 1329.67 Q473.919 1330.2 471.975 1331.26 L471.975 1327.33 Q474.313 1326.43 476.512 1325.99 Q478.711 1325.52 480.794 1325.52 Q486.419 1325.52 489.197 1328.44 Q491.975 1331.36 491.975 1337.28 Z" fill="#000000" fill-rule="nonzero" fill-opacity="1" /><path clip-path="url(#clip930)" d="M500.748 1326.15 L505.007 1326.15 L505.007 1352.54 Q505.007 1357.49 503.109 1359.71 Q501.234 1361.94 497.044 1361.94 L495.424 1361.94 L495.424 1358.32 L496.558 1358.32 Q498.989 1358.32 499.868 1357.19 Q500.748 1356.08 500.748 1352.54 L500.748 1326.15 M500.748 1316.06 L505.007 1316.06 L505.007 1321.45 L500.748 1321.45 L500.748 1316.06 Z" fill="#000000" fill-rule="nonzero" fill-opacity="1" /><path clip-path="url(#clip930)" d="M513.919 1326.15 L518.178 1326.15 L518.178 1352.07 L513.919 1352.07 L513.919 1326.15 M513.919 1316.06 L518.178 1316.06 L518.178 1321.45 L513.919 1321.45 L513.919 1316.06 Z" fill="#000000" fill-rule="nonzero" fill-opacity="1" /><path clip-path="url(#clip930)" d="M543.618 1326.91 L543.618 1330.94 Q541.812 1330.01 539.868 1329.55 Q537.924 1329.09 535.84 1329.09 Q532.669 1329.09 531.072 1330.06 Q529.498 1331.03 529.498 1332.98 Q529.498 1334.46 530.632 1335.32 Q531.766 1336.15 535.192 1336.91 L536.65 1337.24 Q541.187 1338.21 543.086 1339.99 Q545.007 1341.75 545.007 1344.92 Q545.007 1348.53 542.136 1350.64 Q539.289 1352.75 534.289 1352.75 Q532.206 1352.75 529.937 1352.33 Q527.692 1351.94 525.192 1351.13 L525.192 1346.73 Q527.553 1347.95 529.845 1348.58 Q532.137 1349.18 534.382 1349.18 Q537.391 1349.18 539.011 1348.16 Q540.632 1347.12 540.632 1345.25 Q540.632 1343.51 539.451 1342.58 Q538.294 1341.66 534.336 1340.8 L532.854 1340.45 Q528.896 1339.62 527.137 1337.91 Q525.377 1336.17 525.377 1333.16 Q525.377 1329.51 527.97 1327.51 Q530.562 1325.52 535.331 1325.52 Q537.692 1325.52 539.775 1325.87 Q541.859 1326.22 543.618 1326.91 M533.757 1322.86 L528.086 1314.16 L531.303 1314.16 L535.47 1319.83 L539.636 1314.16 L542.854 1314.16 L537.183 1322.86 L533.757 1322.86 M535.377 1325.52 L535.377 1325.52 Z" fill="#000000" fill-rule="nonzero" fill-opacity="1" /><path clip-path="url(#clip930)" d="M570.447 1327.14 L570.447 1331.13 Q568.641 1330.13 566.812 1329.64 Q565.007 1329.13 563.155 1329.13 Q559.011 1329.13 556.72 1331.77 Q554.428 1334.39 554.428 1339.13 Q554.428 1343.88 556.72 1346.52 Q559.011 1349.13 563.155 1349.13 Q565.007 1349.13 566.812 1348.65 Q568.641 1348.14 570.447 1347.14 L570.447 1351.08 Q568.664 1351.91 566.743 1352.33 Q564.845 1352.75 562.692 1352.75 Q556.835 1352.75 553.386 1349.07 Q549.937 1345.38 549.937 1339.13 Q549.937 1332.79 553.41 1329.16 Q556.905 1325.52 562.97 1325.52 Q564.937 1325.52 566.812 1325.94 Q568.687 1326.33 570.447 1327.14 M560.632 1322.86 L554.96 1314.16 L558.178 1314.16 L562.345 1319.83 L566.511 1314.16 L569.729 1314.16 L564.058 1322.86 L560.632 1322.86 Z" fill="#000000" fill-rule="nonzero" fill-opacity="1" /><path clip-path="url(#clip930)" d="M589.636 1339.04 Q584.474 1339.04 582.483 1340.22 Q580.493 1341.4 580.493 1344.25 Q580.493 1346.52 581.974 1347.86 Q583.479 1349.18 586.048 1349.18 Q589.59 1349.18 591.72 1346.68 Q593.872 1344.16 593.872 1339.99 L593.872 1339.04 L589.636 1339.04 M598.132 1337.28 L598.132 1352.07 L593.872 1352.07 L593.872 1348.14 Q592.414 1350.5 590.238 1351.63 Q588.062 1352.75 584.914 1352.75 Q580.933 1352.75 578.571 1350.52 Q576.234 1348.28 576.234 1344.53 Q576.234 1340.15 579.15 1337.93 Q582.09 1335.71 587.9 1335.71 L593.872 1335.71 L593.872 1335.29 Q593.872 1332.35 591.928 1330.76 Q590.007 1329.13 586.511 1329.13 Q584.289 1329.13 582.183 1329.67 Q580.076 1330.2 578.132 1331.26 L578.132 1327.33 Q580.47 1326.43 582.669 1325.99 Q584.868 1325.52 586.951 1325.52 Q592.576 1325.52 595.354 1328.44 Q598.132 1331.36 598.132 1337.28 Z" fill="#000000" fill-rule="nonzero" fill-opacity="1" /><path clip-path="url(#clip930)" d="M626.094 1348.19 L626.094 1361.94 L621.812 1361.94 L621.812 1326.15 L626.094 1326.15 L626.094 1330.08 Q627.437 1327.77 629.474 1326.66 Q631.534 1325.52 634.381 1325.52 Q639.104 1325.52 642.043 1329.27 Q645.006 1333.02 645.006 1339.13 Q645.006 1345.25 642.043 1349 Q639.104 1352.75 634.381 1352.75 Q631.534 1352.75 629.474 1351.63 Q627.437 1350.5 626.094 1348.19 M640.585 1339.13 Q640.585 1334.44 638.641 1331.77 Q636.719 1329.09 633.34 1329.09 Q629.96 1329.09 628.016 1331.77 Q626.094 1334.44 626.094 1339.13 Q626.094 1343.83 628.016 1346.52 Q629.96 1349.18 633.34 1349.18 Q636.719 1349.18 638.641 1346.52 Q640.585 1343.83 640.585 1339.13 Z" fill="#000000" fill-rule="nonzero" fill-opacity="1" /><path clip-path="url(#clip930)" d="M662.113 1329.13 Q658.687 1329.13 656.696 1331.82 Q654.705 1334.48 654.705 1339.13 Q654.705 1343.79 656.673 1346.47 Q658.664 1349.13 662.113 1349.13 Q665.515 1349.13 667.506 1346.45 Q669.497 1343.76 669.497 1339.13 Q669.497 1334.53 667.506 1331.84 Q665.515 1329.13 662.113 1329.13 M662.113 1325.52 Q667.668 1325.52 670.839 1329.13 Q674.011 1332.75 674.011 1339.13 Q674.011 1345.5 670.839 1349.13 Q667.668 1352.75 662.113 1352.75 Q656.534 1352.75 653.363 1349.13 Q650.215 1345.5 650.215 1339.13 Q650.215 1332.75 653.363 1329.13 Q656.534 1325.52 662.113 1325.52 Z" fill="#000000" fill-rule="nonzero" fill-opacity="1" /><path clip-path="url(#clip930)" d="M698.131 1330.08 L698.131 1316.06 L702.39 1316.06 L702.39 1352.07 L698.131 1352.07 L698.131 1348.19 Q696.788 1350.5 694.728 1351.63 Q692.691 1352.75 689.821 1352.75 Q685.122 1352.75 682.159 1349 Q679.219 1345.25 679.219 1339.13 Q679.219 1333.02 682.159 1329.27 Q685.122 1325.52 689.821 1325.52 Q692.691 1325.52 694.728 1326.66 Q696.788 1327.77 698.131 1330.08 M683.617 1339.13 Q683.617 1343.83 685.538 1346.52 Q687.483 1349.18 690.863 1349.18 Q694.242 1349.18 696.187 1346.52 Q698.131 1343.83 698.131 1339.13 Q698.131 1334.44 696.187 1331.77 Q694.242 1329.09 690.863 1329.09 Q687.483 1329.09 685.538 1331.77 Q683.617 1334.44 683.617 1339.13 Z" fill="#000000" fill-rule="nonzero" fill-opacity="1" /><path clip-path="url(#clip930)" d="M711.163 1326.15 L715.423 1326.15 L715.423 1352.07 L711.163 1352.07 L711.163 1326.15 M711.163 1316.06 L715.423 1316.06 L715.423 1321.45 L711.163 1321.45 L711.163 1316.06 Z" fill="#000000" fill-rule="nonzero" fill-opacity="1" /><path clip-path="url(#clip930)" d="M745.885 1336.43 L745.885 1352.07 L741.626 1352.07 L741.626 1336.57 Q741.626 1332.88 740.191 1331.06 Q738.756 1329.23 735.885 1329.23 Q732.436 1329.23 730.446 1331.43 Q728.455 1333.63 728.455 1337.42 L728.455 1352.07 L724.173 1352.07 L724.173 1326.15 L728.455 1326.15 L728.455 1330.18 Q729.983 1327.84 732.043 1326.68 Q734.126 1325.52 736.835 1325.52 Q741.302 1325.52 743.594 1328.3 Q745.885 1331.06 745.885 1336.43 Z" fill="#000000" fill-rule="nonzero" fill-opacity="1" /><path clip-path="url(#clip930)" d="M758.594 1318.79 L758.594 1326.15 L767.367 1326.15 L767.367 1329.46 L758.594 1329.46 L758.594 1343.53 Q758.594 1346.7 759.45 1347.61 Q760.33 1348.51 762.992 1348.51 L767.367 1348.51 L767.367 1352.07 L762.992 1352.07 Q758.061 1352.07 756.186 1350.25 Q754.311 1348.39 754.311 1343.53 L754.311 1329.46 L751.186 1329.46 L751.186 1326.15 L754.311 1326.15 L754.311 1318.79 L758.594 1318.79 Z" fill="#000000" fill-rule="nonzero" fill-opacity="1" /><path clip-path="url(#clip930)" d="M795.144 1338.05 L795.144 1340.13 L775.561 1340.13 Q775.839 1344.53 778.2 1346.84 Q780.584 1349.13 784.82 1349.13 Q787.274 1349.13 789.566 1348.53 Q791.881 1347.93 794.149 1346.73 L794.149 1350.75 Q791.857 1351.73 789.45 1352.24 Q787.043 1352.75 784.566 1352.75 Q778.362 1352.75 774.728 1349.13 Q771.117 1345.52 771.117 1339.37 Q771.117 1333 774.543 1329.27 Q777.992 1325.52 783.825 1325.52 Q789.056 1325.52 792.089 1328.9 Q795.144 1332.26 795.144 1338.05 M790.885 1336.8 Q790.839 1333.3 788.918 1331.22 Q787.019 1329.13 783.871 1329.13 Q780.306 1329.13 778.154 1331.15 Q776.024 1333.16 775.7 1336.82 L790.885 1336.8 Z" fill="#000000" fill-rule="nonzero" fill-opacity="1" /><path clip-path="url(#clip930)" d="M817.158 1330.13 Q816.441 1329.71 815.584 1329.53 Q814.751 1329.32 813.732 1329.32 Q810.121 1329.32 808.177 1331.68 Q806.255 1334.02 806.255 1338.42 L806.255 1352.07 L801.973 1352.07 L801.973 1326.15 L806.255 1326.15 L806.255 1330.18 Q807.598 1327.82 809.751 1326.68 Q811.904 1325.52 814.982 1325.52 Q815.422 1325.52 815.954 1325.59 Q816.487 1325.64 817.135 1325.76 L817.158 1330.13 Z" fill="#000000" fill-rule="nonzero" fill-opacity="1" /><path clip-path="url(#clip930)" d="M818.57 1326.15 L823.084 1326.15 L831.186 1347.91 L839.288 1326.15 L843.802 1326.15 L834.079 1352.07 L828.292 1352.07 L818.57 1326.15 Z" fill="#000000" fill-rule="nonzero" fill-opacity="1" /><path clip-path="url(#clip930)" d="M861.463 1339.04 Q856.301 1339.04 854.311 1340.22 Q852.32 1341.4 852.32 1344.25 Q852.32 1346.52 853.801 1347.86 Q855.306 1349.18 857.876 1349.18 Q861.417 1349.18 863.547 1346.68 Q865.7 1344.16 865.7 1339.99 L865.7 1339.04 L861.463 1339.04 M869.959 1337.28 L869.959 1352.07 L865.7 1352.07 L865.7 1348.14 Q864.241 1350.5 862.065 1351.63 Q859.889 1352.75 856.741 1352.75 Q852.76 1352.75 850.399 1350.52 Q848.061 1348.28 848.061 1344.53 Q848.061 1340.15 850.977 1337.93 Q853.917 1335.71 859.727 1335.71 L865.7 1335.71 L865.7 1335.29 Q865.7 1332.35 863.755 1330.76 Q861.834 1329.13 858.338 1329.13 Q856.116 1329.13 854.01 1329.67 Q851.903 1330.2 849.959 1331.26 L849.959 1327.33 Q852.297 1326.43 854.496 1325.99 Q856.695 1325.52 858.778 1325.52 Q864.403 1325.52 867.181 1328.44 Q869.959 1331.36 869.959 1337.28 Z" fill="#000000" fill-rule="nonzero" fill-opacity="1" /><path clip-path="url(#clip930)" d="M878.732 1316.06 L882.991 1316.06 L882.991 1352.07 L878.732 1352.07 L878.732 1316.06 Z" fill="#000000" fill-rule="nonzero" fill-opacity="1" /><path clip-path="url(#clip930)" d="M901.949 1329.13 Q898.523 1329.13 896.533 1331.82 Q894.542 1334.48 894.542 1339.13 Q894.542 1343.79 896.51 1346.47 Q898.5 1349.13 901.949 1349.13 Q905.352 1349.13 907.343 1346.45 Q909.334 1343.76 909.334 1339.13 Q909.334 1334.53 907.343 1331.84 Q905.352 1329.13 901.949 1329.13 M901.949 1325.52 Q907.505 1325.52 910.676 1329.13 Q913.847 1332.75 913.847 1339.13 Q913.847 1345.5 910.676 1349.13 Q907.505 1352.75 901.949 1352.75 Q896.371 1352.75 893.199 1349.13 Q890.051 1345.5 890.051 1339.13 Q890.051 1332.75 893.199 1329.13 Q896.371 1325.52 901.949 1325.52 Z" fill="#000000" fill-rule="nonzero" fill-opacity="1" /><path clip-path="url(#clip930)" d="M917.852 1326.15 L922.366 1326.15 L930.468 1347.91 L938.57 1326.15 L943.083 1326.15 L933.361 1352.07 L927.574 1352.07 L917.852 1326.15 Z" fill="#000000" fill-rule="nonzero" fill-opacity="1" /><polyline clip-path="url(#clip930)" style="stroke:#e26f46; stroke-linecap:round; stroke-linejoin:round; stroke-width:4; stroke-opacity:1; fill:none" points="253.741,1386.63 400.184,1386.63 "/>
<path clip-path="url(#clip930)" d="M448.13 1392.08 Q448.13 1392.27 447.92 1392.99 Q447.709 1393.72 447.193 1394.84 Q446.702 1395.97 446.022 1397 Q445.343 1398 444.219 1398.75 Q443.118 1399.48 441.853 1399.48 Q440.167 1399.48 439.042 1398.36 Q437.918 1397.23 437.918 1395.54 Q437.918 1395.31 437.942 1395.08 Q437.965 1394.84 437.988 1394.7 Q438.012 1394.54 438.082 1394.28 Q438.176 1394 438.199 1393.88 Q438.246 1393.76 438.363 1393.41 Q438.504 1393.04 438.551 1392.9 Q441.525 1385.31 441.525 1382.15 Q441.525 1378.8 438.925 1378.8 Q436.607 1378.8 434.311 1380.48 Q433.257 1381.33 432.25 1382.83 Q431.243 1384.33 431.055 1384.89 Q430.845 1386.11 430.54 1387.04 Q430.4 1387.7 429.72 1390.25 L428.666 1394.58 L427.753 1398.21 Q427.565 1398.73 427.05 1399.11 Q426.535 1399.48 425.973 1399.48 Q425.504 1399.48 425.036 1399.15 Q424.591 1398.85 424.591 1398.12 Q424.591 1397.75 424.778 1397.07 L431.735 1369.43 L431.875 1368.49 Q431.875 1368.21 431.758 1368.07 Q431.664 1367.91 431.102 1367.79 Q430.564 1367.67 429.486 1367.67 Q429.041 1367.67 428.83 1367.65 Q428.643 1367.63 428.479 1367.51 Q428.315 1367.37 428.315 1367.09 Q428.315 1366.69 428.479 1366.48 Q428.666 1366.24 428.807 1366.2 Q428.947 1366.15 429.228 1366.13 Q429.627 1366.1 430.962 1365.99 Q432.297 1365.85 433.444 1365.75 Q434.592 1365.66 435.084 1365.66 Q435.365 1365.66 435.506 1365.8 Q435.67 1365.92 435.693 1366.06 L435.716 1366.17 L431.969 1381.42 Q434.944 1377.74 439.066 1377.74 Q441.736 1377.74 443.165 1379.13 Q444.594 1380.48 444.594 1382.87 Q444.594 1385.61 441.666 1393.41 Q440.799 1395.59 440.799 1396.83 Q440.799 1397.65 441.057 1398.03 Q441.338 1398.4 441.947 1398.4 Q442.884 1398.4 443.704 1397.86 Q444.547 1397.3 445.132 1396.39 Q445.718 1395.45 446.116 1394.51 Q446.538 1393.55 446.842 1392.48 Q447.03 1391.89 447.123 1391.75 Q447.24 1391.61 447.568 1391.61 Q448.13 1391.61 448.13 1392.08 Z" fill="#000000" fill-rule="nonzero" fill-opacity="1" /><path clip-path="url(#clip930)" d="M454.048 1386.95 Q454.048 1378.84 457.069 1372.31 Q458.358 1369.57 460.161 1367.27 Q461.965 1364.98 463.159 1363.97 Q464.354 1362.96 464.682 1362.96 Q465.15 1362.96 465.173 1363.43 Q465.173 1363.67 464.541 1364.25 Q456.812 1372.12 456.835 1386.95 Q456.835 1401.82 464.354 1409.39 Q465.173 1410.21 465.173 1410.46 Q465.173 1410.93 464.682 1410.93 Q464.354 1410.93 463.206 1409.97 Q462.058 1409.01 460.278 1406.81 Q458.498 1404.61 457.21 1401.92 Q454.048 1395.38 454.048 1386.95 Z" fill="#000000" fill-rule="nonzero" fill-opacity="1" /><path clip-path="url(#clip930)" d="M492.706 1380.91 Q492.706 1382.22 491.886 1382.97 Q491.067 1383.69 490.13 1383.69 Q489.24 1383.69 488.771 1383.18 Q488.303 1382.66 488.303 1382.01 Q488.303 1381.12 488.959 1380.34 Q489.614 1379.57 490.598 1379.41 Q489.638 1378.8 488.209 1378.8 Q487.272 1378.8 486.452 1379.29 Q485.656 1379.78 485.164 1380.41 Q484.696 1381.05 484.274 1381.96 Q483.876 1382.85 483.712 1383.39 Q483.571 1383.9 483.454 1384.47 L481.815 1391.02 Q481.018 1394.14 481.018 1395.24 Q481.018 1396.6 481.674 1397.51 Q482.33 1398.4 483.642 1398.4 Q484.157 1398.4 484.743 1398.26 Q485.328 1398.1 486.078 1397.68 Q486.851 1397.23 487.53 1396.58 Q488.233 1395.9 488.912 1394.75 Q489.591 1393.6 490.036 1392.13 Q490.177 1391.61 490.645 1391.61 Q491.231 1391.61 491.231 1392.08 Q491.231 1392.48 490.903 1393.32 Q490.598 1394.14 489.919 1395.22 Q489.263 1396.27 488.396 1397.23 Q487.53 1398.17 486.242 1398.82 Q484.953 1399.48 483.548 1399.48 Q481.534 1399.48 480.199 1398.4 Q478.864 1397.32 478.372 1395.83 Q478.255 1396.04 478.091 1396.32 Q477.927 1396.6 477.435 1397.23 Q476.966 1397.84 476.428 1398.31 Q475.889 1398.75 475.046 1399.11 Q474.226 1399.48 473.336 1399.48 Q472.212 1399.48 471.204 1399.15 Q470.221 1398.82 469.518 1398.07 Q468.815 1397.32 468.815 1396.29 Q468.815 1395.15 469.588 1394.35 Q470.385 1393.53 471.462 1393.53 Q472.141 1393.53 472.68 1393.93 Q473.242 1394.33 473.242 1395.19 Q473.242 1396.15 472.586 1396.88 Q471.93 1397.61 470.994 1397.79 Q471.954 1398.4 473.383 1398.4 Q474.929 1398.4 476.147 1397.04 Q477.365 1395.69 477.95 1393.41 Q479.402 1387.96 479.964 1385.52 Q480.527 1383.06 480.527 1382.01 Q480.527 1381.02 480.269 1380.34 Q480.011 1379.66 479.566 1379.36 Q479.145 1379.03 478.746 1378.91 Q478.372 1378.8 477.95 1378.8 Q477.247 1378.8 476.451 1379.08 Q475.678 1379.36 474.741 1380.02 Q473.828 1380.65 472.961 1381.96 Q472.094 1383.27 471.509 1385.07 Q471.392 1385.61 470.876 1385.61 Q470.314 1385.59 470.314 1385.12 Q470.314 1384.72 470.619 1383.9 Q470.947 1383.06 471.603 1382.01 Q472.282 1380.95 473.148 1380.02 Q474.039 1379.06 475.327 1378.4 Q476.638 1377.74 478.044 1377.74 Q478.676 1377.74 479.285 1377.88 Q479.918 1378 480.667 1378.35 Q481.44 1378.7 482.119 1379.48 Q482.799 1380.25 483.22 1381.37 Q483.501 1380.84 483.876 1380.32 Q484.274 1379.8 484.883 1379.17 Q485.516 1378.52 486.382 1378.14 Q487.272 1377.74 488.256 1377.74 Q489.216 1377.74 490.153 1378 Q491.09 1378.24 491.886 1379.01 Q492.706 1379.76 492.706 1380.91 Z" fill="#000000" fill-rule="nonzero" fill-opacity="1" /><path clip-path="url(#clip930)" d="M497.319 1410.46 Q497.319 1410.23 497.928 1409.65 Q505.657 1401.78 505.657 1386.95 Q505.657 1372.08 498.232 1364.56 Q497.319 1363.69 497.319 1363.43 Q497.319 1362.96 497.787 1362.96 Q498.115 1362.96 499.263 1363.92 Q500.434 1364.88 502.191 1367.09 Q503.971 1369.29 505.282 1371.98 Q508.444 1378.52 508.444 1386.95 Q508.444 1395.05 505.423 1401.59 Q504.135 1404.33 502.331 1406.62 Q500.528 1408.92 499.333 1409.93 Q498.139 1410.93 497.787 1410.93 Q497.319 1410.93 497.319 1410.46 Z" fill="#000000" fill-rule="nonzero" fill-opacity="1" /><path clip-path="url(#clip930)" d="M529.039 1391.66 Q529.086 1391.07 529.999 1391.07 L559.394 1391.07 Q560.776 1391.07 560.8 1391.61 Q560.8 1392.2 559.488 1392.17 L530.327 1392.17 Q529.039 1392.2 529.039 1391.66 M529.039 1382.29 Q529.039 1381.7 530.046 1381.73 L559.348 1381.73 Q560.776 1381.73 560.8 1382.29 Q560.8 1382.83 559.582 1382.83 L529.999 1382.83 Q529.039 1382.83 529.039 1382.29 Z" fill="#000000" fill-rule="nonzero" fill-opacity="1" /><path clip-path="url(#clip930)" d="M579.291 1409.46 L579.291 1364.79 Q579.291 1363.01 580.251 1363.01 Q581.211 1363.01 581.211 1364.44 L581.211 1409.11 Q581.211 1410.89 580.251 1410.89 Q579.291 1410.89 579.291 1409.46 Z" fill="#000000" fill-rule="nonzero" fill-opacity="1" /><path clip-path="url(#clip930)" d="M588.526 1398.94 Q588.526 1398.07 588.596 1397.82 Q588.69 1397.56 589.065 1397.16 L598.27 1386.9 Q603.306 1381.23 603.306 1376.29 Q603.306 1373.08 601.619 1370.79 Q599.956 1368.49 596.888 1368.49 Q594.78 1368.49 593 1369.78 Q591.22 1371.07 590.4 1373.36 Q590.541 1373.32 591.032 1373.32 Q592.227 1373.32 592.883 1374.07 Q593.562 1374.82 593.562 1375.82 Q593.562 1377.11 592.719 1377.74 Q591.899 1378.35 591.079 1378.35 Q590.751 1378.35 590.306 1378.28 Q589.885 1378.21 589.205 1377.56 Q588.526 1376.88 588.526 1375.68 Q588.526 1372.33 591.056 1369.66 Q593.609 1366.99 597.497 1366.99 Q601.9 1366.99 604.781 1369.62 Q607.686 1372.22 607.686 1376.29 Q607.686 1377.72 607.241 1379.03 Q606.819 1380.32 606.234 1381.33 Q605.671 1382.33 604.126 1383.95 Q602.58 1385.57 601.338 1386.71 Q600.097 1387.86 597.31 1390.3 L592.227 1395.24 L600.87 1395.24 Q605.086 1395.24 605.414 1394.87 Q605.882 1394.19 606.468 1390.6 L607.686 1390.6 L606.327 1398.94 L588.526 1398.94 Z" fill="#000000" fill-rule="nonzero" fill-opacity="1" /><path clip-path="url(#clip930)" d="M657.248 1386.27 Q657.529 1386.55 657.529 1386.95 Q657.529 1387.35 657.248 1387.63 Q656.967 1387.91 656.569 1387.91 L626.541 1387.91 Q626.143 1387.91 625.862 1387.63 Q625.581 1387.35 625.581 1386.95 Q625.581 1386.55 625.862 1386.27 Q626.143 1385.99 626.541 1385.99 L656.569 1385.99 Q656.967 1385.99 657.248 1386.27 Z" fill="#000000" fill-rule="nonzero" fill-opacity="1" /><path clip-path="url(#clip930)" d="M699.724 1380.91 Q699.724 1382.22 698.904 1382.97 Q698.084 1383.69 697.147 1383.69 Q696.257 1383.69 695.789 1383.18 Q695.32 1382.66 695.32 1382.01 Q695.32 1381.12 695.976 1380.34 Q696.632 1379.57 697.616 1379.41 Q696.655 1378.8 695.226 1378.8 Q694.29 1378.8 693.47 1379.29 Q692.673 1379.78 692.181 1380.41 Q691.713 1381.05 691.291 1381.96 Q690.893 1382.85 690.729 1383.39 Q690.589 1383.9 690.472 1384.47 L688.832 1391.02 Q688.036 1394.14 688.036 1395.24 Q688.036 1396.6 688.692 1397.51 Q689.347 1398.4 690.659 1398.4 Q691.174 1398.4 691.76 1398.26 Q692.345 1398.1 693.095 1397.68 Q693.868 1397.23 694.547 1396.58 Q695.25 1395.9 695.929 1394.75 Q696.608 1393.6 697.053 1392.13 Q697.194 1391.61 697.662 1391.61 Q698.248 1391.61 698.248 1392.08 Q698.248 1392.48 697.92 1393.32 Q697.616 1394.14 696.936 1395.22 Q696.28 1396.27 695.414 1397.23 Q694.547 1398.17 693.259 1398.82 Q691.971 1399.48 690.565 1399.48 Q688.551 1399.48 687.216 1398.4 Q685.881 1397.32 685.389 1395.83 Q685.272 1396.04 685.108 1396.32 Q684.944 1396.6 684.452 1397.23 Q683.984 1397.84 683.445 1398.31 Q682.906 1398.75 682.063 1399.11 Q681.243 1399.48 680.353 1399.48 Q679.229 1399.48 678.222 1399.15 Q677.238 1398.82 676.535 1398.07 Q675.833 1397.32 675.833 1396.29 Q675.833 1395.15 676.606 1394.35 Q677.402 1393.53 678.479 1393.53 Q679.159 1393.53 679.697 1393.93 Q680.259 1394.33 680.259 1395.19 Q680.259 1396.15 679.604 1396.88 Q678.948 1397.61 678.011 1397.79 Q678.971 1398.4 680.4 1398.4 Q681.946 1398.4 683.164 1397.04 Q684.382 1395.69 684.967 1393.41 Q686.42 1387.96 686.982 1385.52 Q687.544 1383.06 687.544 1382.01 Q687.544 1381.02 687.286 1380.34 Q687.029 1379.66 686.584 1379.36 Q686.162 1379.03 685.764 1378.91 Q685.389 1378.8 684.967 1378.8 Q684.265 1378.8 683.468 1379.08 Q682.695 1379.36 681.759 1380.02 Q680.845 1380.65 679.978 1381.96 Q679.112 1383.27 678.526 1385.07 Q678.409 1385.61 677.894 1385.61 Q677.332 1385.59 677.332 1385.12 Q677.332 1384.72 677.636 1383.9 Q677.964 1383.06 678.62 1382.01 Q679.299 1380.95 680.166 1380.02 Q681.056 1379.06 682.344 1378.4 Q683.656 1377.74 685.061 1377.74 Q685.693 1377.74 686.302 1377.88 Q686.935 1378 687.684 1378.35 Q688.457 1378.7 689.137 1379.48 Q689.816 1380.25 690.237 1381.37 Q690.519 1380.84 690.893 1380.32 Q691.291 1379.8 691.9 1379.17 Q692.533 1378.52 693.399 1378.14 Q694.29 1377.74 695.273 1377.74 Q696.234 1377.74 697.17 1378 Q698.107 1378.24 698.904 1379.01 Q699.724 1379.76 699.724 1380.91 Z" fill="#000000" fill-rule="nonzero" fill-opacity="1" /><path clip-path="url(#clip930)" d="M704.609 1384.6 Q704.609 1383.99 704.658 1383.81 Q704.724 1383.63 704.986 1383.36 L711.429 1376.17 Q714.955 1372.21 714.955 1368.75 Q714.955 1366.5 713.774 1364.89 Q712.61 1363.29 710.462 1363.29 Q708.987 1363.29 707.74 1364.19 Q706.494 1365.09 705.921 1366.7 Q706.019 1366.66 706.363 1366.66 Q707.199 1366.66 707.658 1367.19 Q708.134 1367.71 708.134 1368.42 Q708.134 1369.32 707.544 1369.76 Q706.97 1370.19 706.396 1370.19 Q706.166 1370.19 705.855 1370.14 Q705.56 1370.09 705.084 1369.63 Q704.609 1369.16 704.609 1368.32 Q704.609 1365.98 706.38 1364.11 Q708.167 1362.24 710.888 1362.24 Q713.971 1362.24 715.988 1364.07 Q718.021 1365.89 718.021 1368.75 Q718.021 1369.75 717.709 1370.66 Q717.414 1371.57 717.004 1372.27 Q716.611 1372.98 715.528 1374.11 Q714.446 1375.24 713.577 1376.04 Q712.708 1376.85 710.757 1378.55 L707.199 1382.01 L713.249 1382.01 Q716.201 1382.01 716.43 1381.75 Q716.758 1381.27 717.168 1378.76 L718.021 1378.76 L717.07 1384.6 L704.609 1384.6 Z" fill="#000000" fill-rule="nonzero" fill-opacity="1" /><path clip-path="url(#clip930)" d="M723.007 1409.46 L723.007 1364.79 Q723.007 1363.01 723.967 1363.01 Q724.928 1363.01 724.928 1364.44 L724.928 1409.11 Q724.928 1410.89 723.967 1410.89 Q723.007 1410.89 723.007 1409.46 Z" fill="#000000" fill-rule="nonzero" fill-opacity="1" /></svg>
