<?xml version="1.0" encoding="utf-8"?>
<svg xmlns="http://www.w3.org/2000/svg" xmlns:xlink="http://www.w3.org/1999/xlink" width="600" height="400" viewBox="0 0 2400 1600">
<defs>
  <clipPath id="clip650">
    <rect x="0" y="0" width="2400" height="1600"/>
  </clipPath>
</defs>
<path clip-path="url(#clip650)" d="M0 1600 L2400 1600 L2400 0 L0 0  Z" fill="#ffffff" fill-rule="evenodd" fill-opacity="1"/>
<defs>
  <clipPath id="clip651">
    <rect x="480" y="0" width="1681" height="1600"/>
  </clipPath>
</defs>
<path clip-path="url(#clip650)" d="M276.876 1410.9 L2352.76 1410.9 L2352.76 47.2441 L276.876 47.2441  Z" fill="#ffffff" fill-rule="evenodd" fill-opacity="1"/>
<defs>
  <clipPath id="clip652">
    <rect x="276" y="47" width="2077" height="1365"/>
  </clipPath>
</defs>
<polyline clip-path="url(#clip652)" style="stroke:#000000; stroke-linecap:round; stroke-linejoin:round; stroke-width:2; stroke-opacity:0.1; fill:none" points="1126.41,1410.9 1126.41,47.2441 "/>
<polyline clip-path="url(#clip652)" style="stroke:#000000; stroke-linecap:round; stroke-linejoin:round; stroke-width:2; stroke-opacity:0.1; fill:none" points="2286.04,1410.9 2286.04,47.2441 "/>
<polyline clip-path="url(#clip652)" style="stroke:#000000; stroke-linecap:round; stroke-linejoin:round; stroke-width:2; stroke-opacity:0.1; fill:none" points="276.876,1185.11 2352.76,1185.11 "/>
<polyline clip-path="url(#clip652)" style="stroke:#000000; stroke-linecap:round; stroke-linejoin:round; stroke-width:2; stroke-opacity:0.1; fill:none" points="276.876,556.591 2352.76,556.591 "/>
<polyline clip-path="url(#clip650)" style="stroke:#000000; stroke-linecap:round; stroke-linejoin:round; stroke-width:4; stroke-opacity:1; fill:none" points="276.876,1410.9 2352.76,1410.9 "/>
<polyline clip-path="url(#clip650)" style="stroke:#000000; stroke-linecap:round; stroke-linejoin:round; stroke-width:4; stroke-opacity:1; fill:none" points="1126.41,1410.9 1126.41,1392 "/>
<polyline clip-path="url(#clip650)" style="stroke:#000000; stroke-linecap:round; stroke-linejoin:round; stroke-width:4; stroke-opacity:1; fill:none" points="2286.04,1410.9 2286.04,1392 "/>
<path clip-path="url(#clip650)" d="M1091.85 1485.02 L1099.49 1485.02 L1099.49 1458.66 L1091.18 1460.32 L1091.18 1456.06 L1099.44 1454.4 L1104.12 1454.4 L1104.12 1485.02 L1111.76 1485.02 L1111.76 1488.96 L1091.85 1488.96 L1091.85 1485.02 Z" fill="#000000" fill-rule="nonzero" fill-opacity="1" /><path clip-path="url(#clip650)" d="M1131.2 1457.48 Q1127.59 1457.48 1125.76 1461.04 Q1123.96 1464.58 1123.96 1471.71 Q1123.96 1478.82 1125.76 1482.38 Q1127.59 1485.92 1131.2 1485.92 Q1134.83 1485.92 1136.64 1482.38 Q1138.47 1478.82 1138.47 1471.71 Q1138.47 1464.58 1136.64 1461.04 Q1134.83 1457.48 1131.2 1457.48 M1131.2 1453.77 Q1137.01 1453.77 1140.07 1458.38 Q1143.14 1462.96 1143.14 1471.71 Q1143.14 1480.44 1140.07 1485.04 Q1137.01 1489.63 1131.2 1489.63 Q1125.39 1489.63 1122.31 1485.04 Q1119.26 1480.44 1119.26 1471.71 Q1119.26 1462.96 1122.31 1458.38 Q1125.39 1453.77 1131.2 1453.77 Z" fill="#000000" fill-rule="nonzero" fill-opacity="1" /><path clip-path="url(#clip650)" d="M1155.84 1446.41 Q1158.57 1446.99 1160.09 1448.83 Q1161.63 1450.68 1161.63 1453.38 Q1161.63 1457.54 1158.77 1459.82 Q1155.92 1462.09 1150.65 1462.09 Q1148.88 1462.09 1147 1461.73 Q1145.14 1461.4 1143.14 1460.7 L1143.14 1457.03 Q1144.72 1457.95 1146.61 1458.42 Q1148.49 1458.89 1150.54 1458.89 Q1154.11 1458.89 1155.97 1457.48 Q1157.85 1456.07 1157.85 1453.38 Q1157.85 1450.9 1156.1 1449.51 Q1154.37 1448.1 1151.27 1448.1 L1148 1448.1 L1148 1444.98 L1151.42 1444.98 Q1154.22 1444.98 1155.71 1443.87 Q1157.19 1442.74 1157.19 1440.63 Q1157.19 1438.47 1155.65 1437.32 Q1154.13 1436.16 1151.27 1436.16 Q1149.71 1436.16 1147.92 1436.49 Q1146.14 1436.83 1143.99 1437.55 L1143.99 1434.16 Q1146.15 1433.56 1148.03 1433.26 Q1149.93 1432.96 1151.61 1432.96 Q1155.93 1432.96 1158.45 1434.93 Q1160.97 1436.89 1160.97 1440.24 Q1160.97 1442.57 1159.64 1444.19 Q1158.3 1445.79 1155.84 1446.41 Z" fill="#000000" fill-rule="nonzero" fill-opacity="1" /><path clip-path="url(#clip650)" d="M2251.03 1485.02 L2258.67 1485.02 L2258.67 1458.66 L2250.36 1460.32 L2250.36 1456.06 L2258.63 1454.4 L2263.3 1454.4 L2263.3 1485.02 L2270.94 1485.02 L2270.94 1488.96 L2251.03 1488.96 L2251.03 1485.02 Z" fill="#000000" fill-rule="nonzero" fill-opacity="1" /><path clip-path="url(#clip650)" d="M2290.39 1457.48 Q2286.77 1457.48 2284.95 1461.04 Q2283.14 1464.58 2283.14 1471.71 Q2283.14 1478.82 2284.95 1482.38 Q2286.77 1485.92 2290.39 1485.92 Q2294.02 1485.92 2295.83 1482.38 Q2297.65 1478.82 2297.65 1471.71 Q2297.65 1464.58 2295.83 1461.04 Q2294.02 1457.48 2290.39 1457.48 M2290.39 1453.77 Q2296.2 1453.77 2299.25 1458.38 Q2302.33 1462.96 2302.33 1471.71 Q2302.33 1480.44 2299.25 1485.04 Q2296.2 1489.63 2290.39 1489.63 Q2284.58 1489.63 2281.5 1485.04 Q2278.44 1480.44 2278.44 1471.71 Q2278.44 1462.96 2281.5 1458.38 Q2284.58 1453.77 2290.39 1453.77 Z" fill="#000000" fill-rule="nonzero" fill-opacity="1" /><path clip-path="url(#clip650)" d="M2312.35 1445.99 Q2309.8 1445.99 2308.29 1447.74 Q2306.81 1449.49 2306.81 1452.54 Q2306.81 1455.57 2308.29 1457.33 Q2309.8 1459.08 2312.35 1459.08 Q2314.91 1459.08 2316.4 1457.33 Q2317.9 1455.57 2317.9 1452.54 Q2317.9 1449.49 2316.4 1447.74 Q2314.91 1445.99 2312.35 1445.99 M2319.9 1434.09 L2319.9 1437.55 Q2318.47 1436.87 2317 1436.51 Q2315.55 1436.16 2314.12 1436.16 Q2310.36 1436.16 2308.37 1438.69 Q2306.39 1441.23 2306.11 1446.37 Q2307.22 1444.73 2308.89 1443.87 Q2310.57 1442.98 2312.58 1442.98 Q2316.81 1442.98 2319.26 1445.56 Q2321.72 1448.12 2321.72 1452.54 Q2321.72 1456.86 2319.16 1459.48 Q2316.61 1462.09 2312.35 1462.09 Q2307.48 1462.09 2304.91 1458.37 Q2302.33 1454.62 2302.33 1447.53 Q2302.33 1440.88 2305.49 1436.93 Q2308.65 1432.96 2313.97 1432.96 Q2315.4 1432.96 2316.85 1433.24 Q2318.32 1433.52 2319.9 1434.09 Z" fill="#000000" fill-rule="nonzero" fill-opacity="1" /><path clip-path="url(#clip650)" d="M883.762 1539.59 L883.762 1545.13 Q881.279 1543.85 878.606 1543.22 Q875.932 1542.58 873.067 1542.58 Q868.707 1542.58 866.511 1543.92 Q864.346 1545.25 864.346 1547.93 Q864.346 1549.96 865.906 1551.14 Q867.466 1552.29 872.176 1553.34 L874.181 1553.78 Q880.42 1555.12 883.03 1557.57 Q885.672 1559.99 885.672 1564.35 Q885.672 1569.32 881.725 1572.21 Q877.81 1575.11 870.935 1575.11 Q868.07 1575.11 864.951 1574.54 Q861.864 1573.99 858.426 1572.88 L858.426 1566.83 Q861.673 1568.52 864.824 1569.38 Q867.975 1570.21 871.062 1570.21 Q875.2 1570.21 877.428 1568.81 Q879.656 1567.37 879.656 1564.8 Q879.656 1562.41 878.033 1561.14 Q876.441 1559.86 870.999 1558.68 L868.962 1558.21 Q863.519 1557.06 861.1 1554.71 Q858.681 1552.32 858.681 1548.18 Q858.681 1543.15 862.246 1540.42 Q865.811 1537.68 872.367 1537.68 Q875.614 1537.68 878.478 1538.16 Q881.343 1538.63 883.762 1539.59 M870.203 1534.02 L862.405 1522.05 L866.829 1522.05 L872.558 1529.85 L878.287 1522.05 L882.712 1522.05 L874.914 1534.02 L870.203 1534.02 M872.431 1537.68 L872.431 1537.68 Z" fill="#000000" fill-rule="nonzero" fill-opacity="1" /><path clip-path="url(#clip650)" d="M900.79 1528.42 L900.79 1538.54 L912.853 1538.54 L912.853 1543.09 L900.79 1543.09 L900.79 1562.44 Q900.79 1566.8 901.968 1568.04 Q903.177 1569.28 906.838 1569.28 L912.853 1569.28 L912.853 1574.19 L906.838 1574.19 Q900.058 1574.19 897.48 1571.67 Q894.902 1569.12 894.902 1562.44 L894.902 1543.09 L890.605 1543.09 L890.605 1538.54 L894.902 1538.54 L894.902 1528.42 L900.79 1528.42 Z" fill="#000000" fill-rule="nonzero" fill-opacity="1" /><path clip-path="url(#clip650)" d="M951.047 1554.9 L951.047 1557.76 L924.12 1557.76 Q924.502 1563.81 927.749 1566.99 Q931.027 1570.14 936.852 1570.14 Q940.226 1570.14 943.377 1569.32 Q946.56 1568.49 949.679 1566.83 L949.679 1572.37 Q946.528 1573.71 943.218 1574.41 Q939.907 1575.11 936.502 1575.11 Q927.972 1575.11 922.975 1570.14 Q918.009 1565.18 918.009 1556.71 Q918.009 1547.96 922.72 1542.83 Q927.462 1537.68 935.483 1537.68 Q942.676 1537.68 946.846 1542.33 Q951.047 1546.94 951.047 1554.9 M945.191 1553.18 Q945.127 1548.37 942.486 1545.51 Q939.876 1542.64 935.547 1542.64 Q930.645 1542.64 927.685 1545.41 Q924.757 1548.18 924.311 1553.21 L945.191 1553.18 Z" fill="#000000" fill-rule="nonzero" fill-opacity="1" /><path clip-path="url(#clip650)" d="M956.458 1538.54 L962.665 1538.54 L973.805 1568.46 L984.945 1538.54 L991.151 1538.54 L977.783 1574.19 L969.826 1574.19 L956.458 1538.54 Z" fill="#000000" fill-rule="nonzero" fill-opacity="1" /><path clip-path="url(#clip650)" d="M999.236 1538.54 L1005.09 1538.54 L1005.09 1574.19 L999.236 1574.19 L999.236 1538.54 M999.236 1524.66 L1005.09 1524.66 L1005.09 1532.08 L999.236 1532.08 L999.236 1524.66 Z" fill="#000000" fill-rule="nonzero" fill-opacity="1" /><path clip-path="url(#clip650)" d="M1017.35 1524.66 L1023.2 1524.66 L1023.2 1574.19 L1017.35 1574.19 L1017.35 1524.66 Z" fill="#000000" fill-rule="nonzero" fill-opacity="1" /><path clip-path="url(#clip650)" d="M1049.27 1542.64 Q1044.56 1542.64 1041.82 1546.34 Q1039.09 1550 1039.09 1556.39 Q1039.09 1562.79 1041.79 1566.48 Q1044.53 1570.14 1049.27 1570.14 Q1053.95 1570.14 1056.69 1566.45 Q1059.42 1562.76 1059.42 1556.39 Q1059.42 1550.06 1056.69 1546.37 Q1053.95 1542.64 1049.27 1542.64 M1049.27 1537.68 Q1056.91 1537.68 1061.27 1542.64 Q1065.63 1547.61 1065.63 1556.39 Q1065.63 1565.15 1061.27 1570.14 Q1056.91 1575.11 1049.27 1575.11 Q1041.6 1575.11 1037.24 1570.14 Q1032.91 1565.15 1032.91 1556.39 Q1032.91 1547.61 1037.24 1542.64 Q1041.6 1537.68 1049.27 1537.68 Z" fill="#000000" fill-rule="nonzero" fill-opacity="1" /><path clip-path="url(#clip650)" d="M1114.1 1524.66 L1114.1 1529.53 L1108.5 1529.53 Q1105.35 1529.53 1104.11 1530.8 Q1102.9 1532.08 1102.9 1535.39 L1102.9 1538.54 L1112.55 1538.54 L1112.55 1543.09 L1102.9 1543.09 L1102.9 1574.19 L1097.01 1574.19 L1097.01 1543.09 L1091.41 1543.09 L1091.41 1538.54 L1097.01 1538.54 L1097.01 1536.05 Q1097.01 1530.1 1099.78 1527.4 Q1102.55 1524.66 1108.57 1524.66 L1114.1 1524.66 Z" fill="#000000" fill-rule="nonzero" fill-opacity="1" /><path clip-path="url(#clip650)" d="M1118.4 1560.12 L1118.4 1538.54 L1124.26 1538.54 L1124.26 1559.89 Q1124.26 1564.96 1126.23 1567.5 Q1128.21 1570.02 1132.15 1570.02 Q1136.89 1570.02 1139.63 1566.99 Q1142.4 1563.97 1142.4 1558.75 L1142.4 1538.54 L1148.26 1538.54 L1148.26 1574.19 L1142.4 1574.19 L1142.4 1568.71 Q1140.27 1571.96 1137.44 1573.55 Q1134.63 1575.11 1130.91 1575.11 Q1124.77 1575.11 1121.58 1571.29 Q1118.4 1567.47 1118.4 1560.12 M1133.14 1537.68 L1133.14 1537.68 Z" fill="#000000" fill-rule="nonzero" fill-opacity="1" /><path clip-path="url(#clip650)" d="M1189.95 1552.67 L1189.95 1574.19 L1184.1 1574.19 L1184.1 1552.86 Q1184.1 1547.8 1182.12 1545.29 Q1180.15 1542.77 1176.2 1542.77 Q1171.46 1542.77 1168.72 1545.79 Q1165.99 1548.82 1165.99 1554.04 L1165.99 1574.19 L1160.1 1574.19 L1160.1 1538.54 L1165.99 1538.54 L1165.99 1544.08 Q1168.09 1540.86 1170.92 1539.27 Q1173.78 1537.68 1177.51 1537.68 Q1183.65 1537.68 1186.8 1541.5 Q1189.95 1545.29 1189.95 1552.67 Z" fill="#000000" fill-rule="nonzero" fill-opacity="1" /><path clip-path="url(#clip650)" d="M1201.41 1524.66 L1207.3 1524.66 L1207.3 1553.91 L1224.77 1538.54 L1232.25 1538.54 L1213.35 1555.22 L1233.05 1574.19 L1225.41 1574.19 L1207.3 1556.78 L1207.3 1574.19 L1201.41 1574.19 L1201.41 1524.66 Z" fill="#000000" fill-rule="nonzero" fill-opacity="1" /><path clip-path="url(#clip650)" d="M1265.04 1539.91 L1265.04 1545.38 Q1262.55 1544.01 1260.04 1543.34 Q1257.56 1542.64 1255.01 1542.64 Q1249.31 1542.64 1246.16 1546.27 Q1243.01 1549.87 1243.01 1556.39 Q1243.01 1562.92 1246.16 1566.55 Q1249.31 1570.14 1255.01 1570.14 Q1257.56 1570.14 1260.04 1569.47 Q1262.55 1568.77 1265.04 1567.41 L1265.04 1572.82 Q1262.59 1573.96 1259.94 1574.54 Q1257.33 1575.11 1254.37 1575.11 Q1246.32 1575.11 1241.58 1570.05 Q1236.84 1564.99 1236.84 1556.39 Q1236.84 1547.67 1241.61 1542.68 Q1246.42 1537.68 1254.76 1537.68 Q1257.46 1537.68 1260.04 1538.25 Q1262.62 1538.79 1265.04 1539.91 Z" fill="#000000" fill-rule="nonzero" fill-opacity="1" /><path clip-path="url(#clip650)" d="M1275.22 1538.54 L1281.08 1538.54 L1281.08 1574.19 L1275.22 1574.19 L1275.22 1538.54 M1275.22 1524.66 L1281.08 1524.66 L1281.08 1532.08 L1275.22 1532.08 L1275.22 1524.66 Z" fill="#000000" fill-rule="nonzero" fill-opacity="1" /><path clip-path="url(#clip650)" d="M1293.33 1538.54 L1299.19 1538.54 L1299.19 1574.82 Q1299.19 1581.63 1296.58 1584.69 Q1294 1587.74 1288.24 1587.74 L1286.01 1587.74 L1286.01 1582.78 L1287.57 1582.78 Q1290.91 1582.78 1292.12 1581.22 Q1293.33 1579.69 1293.33 1574.82 L1293.33 1538.54 M1293.33 1524.66 L1299.19 1524.66 L1299.19 1532.08 L1293.33 1532.08 L1293.33 1524.66 Z" fill="#000000" fill-rule="nonzero" fill-opacity="1" /><path clip-path="url(#clip650)" d="M1334.17 1539.59 L1334.17 1545.13 Q1331.68 1543.85 1329.01 1543.22 Q1326.34 1542.58 1323.47 1542.58 Q1319.11 1542.58 1316.92 1543.92 Q1314.75 1545.25 1314.75 1547.93 Q1314.75 1549.96 1316.31 1551.14 Q1317.87 1552.29 1322.58 1553.34 L1324.59 1553.78 Q1330.83 1555.12 1333.44 1557.57 Q1336.08 1559.99 1336.08 1564.35 Q1336.08 1569.32 1332.13 1572.21 Q1328.22 1575.11 1321.34 1575.11 Q1318.48 1575.11 1315.36 1574.54 Q1312.27 1573.99 1308.83 1572.88 L1308.83 1566.83 Q1312.08 1568.52 1315.23 1569.38 Q1318.38 1570.21 1321.47 1570.21 Q1325.61 1570.21 1327.83 1568.81 Q1330.06 1567.37 1330.06 1564.8 Q1330.06 1562.41 1328.44 1561.14 Q1326.85 1559.86 1321.4 1558.68 L1319.37 1558.21 Q1313.92 1557.06 1311.51 1554.71 Q1309.09 1552.32 1309.09 1548.18 Q1309.09 1543.15 1312.65 1540.42 Q1316.22 1537.68 1322.77 1537.68 Q1326.02 1537.68 1328.88 1538.16 Q1331.75 1538.63 1334.17 1539.59 Z" fill="#000000" fill-rule="nonzero" fill-opacity="1" /><path clip-path="url(#clip650)" d="M1345.18 1524.66 L1351.07 1524.66 L1351.07 1553.91 L1368.54 1538.54 L1376.02 1538.54 L1357.12 1555.22 L1376.82 1574.19 L1369.18 1574.19 L1351.07 1556.78 L1351.07 1574.19 L1345.18 1574.19 L1345.18 1524.66 Z" fill="#000000" fill-rule="nonzero" fill-opacity="1" /><path clip-path="url(#clip650)" d="M1383.15 1538.54 L1389.01 1538.54 L1389.01 1574.19 L1383.15 1574.19 L1383.15 1538.54 M1383.15 1524.66 L1389.01 1524.66 L1389.01 1532.08 L1383.15 1532.08 L1383.15 1524.66 Z" fill="#000000" fill-rule="nonzero" fill-opacity="1" /><path clip-path="url(#clip650)" d="M1430.89 1552.67 L1430.89 1574.19 L1425.04 1574.19 L1425.04 1552.86 Q1425.04 1547.8 1423.06 1545.29 Q1421.09 1542.77 1417.14 1542.77 Q1412.4 1542.77 1409.66 1545.79 Q1406.93 1548.82 1406.93 1554.04 L1406.93 1574.19 L1401.04 1574.19 L1401.04 1524.66 L1406.93 1524.66 L1406.93 1544.08 Q1409.03 1540.86 1411.86 1539.27 Q1414.73 1537.68 1418.45 1537.68 Q1424.59 1537.68 1427.74 1541.5 Q1430.89 1545.29 1430.89 1552.67 Z" fill="#000000" fill-rule="nonzero" fill-opacity="1" /><path clip-path="url(#clip650)" d="M1463.3 1538.54 L1469.15 1538.54 L1469.15 1574.19 L1463.3 1574.19 L1463.3 1538.54 M1463.3 1524.66 L1469.15 1524.66 L1469.15 1532.08 L1463.3 1532.08 L1463.3 1524.66 Z" fill="#000000" fill-rule="nonzero" fill-opacity="1" /><path clip-path="url(#clip650)" d="M1478.86 1538.54 L1506.68 1538.54 L1506.68 1543.88 L1484.65 1569.51 L1506.68 1569.51 L1506.68 1574.19 L1478.06 1574.19 L1478.06 1568.84 L1500.09 1543.22 L1478.86 1543.22 L1478.86 1538.54 Z" fill="#000000" fill-rule="nonzero" fill-opacity="1" /><path clip-path="url(#clip650)" d="M1536.28 1544.01 Q1535.29 1543.44 1534.11 1543.18 Q1532.97 1542.9 1531.57 1542.9 Q1526.6 1542.9 1523.93 1546.14 Q1521.29 1549.36 1521.29 1555.41 L1521.29 1574.19 L1515.4 1574.19 L1515.4 1538.54 L1521.29 1538.54 L1521.29 1544.08 Q1523.13 1540.83 1526.09 1539.27 Q1529.05 1537.68 1533.29 1537.68 Q1533.89 1537.68 1534.62 1537.77 Q1535.36 1537.84 1536.25 1538 L1536.28 1544.01 Z" fill="#000000" fill-rule="nonzero" fill-opacity="1" /><path clip-path="url(#clip650)" d="M1558.62 1556.27 Q1551.52 1556.27 1548.79 1557.89 Q1546.05 1559.51 1546.05 1563.43 Q1546.05 1566.55 1548.09 1568.39 Q1550.16 1570.21 1553.69 1570.21 Q1558.56 1570.21 1561.49 1566.77 Q1564.45 1563.3 1564.45 1557.57 L1564.45 1556.27 L1558.62 1556.27 M1570.3 1553.85 L1570.3 1574.19 L1564.45 1574.19 L1564.45 1568.77 Q1562.44 1572.02 1559.45 1573.58 Q1556.46 1575.11 1552.13 1575.11 Q1546.65 1575.11 1543.41 1572.05 Q1540.19 1568.97 1540.19 1563.81 Q1540.19 1557.79 1544.2 1554.74 Q1548.25 1551.68 1556.24 1551.68 L1564.45 1551.68 L1564.45 1551.11 Q1564.45 1547.07 1561.77 1544.87 Q1559.13 1542.64 1554.33 1542.64 Q1551.27 1542.64 1548.37 1543.38 Q1545.48 1544.11 1542.8 1545.57 L1542.8 1540.16 Q1546.02 1538.92 1549.04 1538.31 Q1552.07 1537.68 1554.93 1537.68 Q1562.66 1537.68 1566.48 1541.69 Q1570.3 1545.7 1570.3 1553.85 Z" fill="#000000" fill-rule="nonzero" fill-opacity="1" /><path clip-path="url(#clip650)" d="M1608.02 1539.91 L1608.02 1545.38 Q1605.54 1544.01 1603.02 1543.34 Q1600.54 1542.64 1597.99 1542.64 Q1592.3 1542.64 1589.15 1546.27 Q1585.99 1549.87 1585.99 1556.39 Q1585.99 1562.92 1589.15 1566.55 Q1592.3 1570.14 1597.99 1570.14 Q1600.54 1570.14 1603.02 1569.47 Q1605.54 1568.77 1608.02 1567.41 L1608.02 1572.82 Q1605.57 1573.96 1602.93 1574.54 Q1600.32 1575.11 1597.36 1575.11 Q1589.3 1575.11 1584.56 1570.05 Q1579.82 1564.99 1579.82 1556.39 Q1579.82 1547.67 1584.59 1542.68 Q1589.4 1537.68 1597.74 1537.68 Q1600.44 1537.68 1603.02 1538.25 Q1605.6 1538.79 1608.02 1539.91 M1594.52 1534.02 L1586.73 1522.05 L1591.15 1522.05 L1596.88 1529.85 L1602.61 1522.05 L1607.03 1522.05 L1599.24 1534.02 L1594.52 1534.02 Z" fill="#000000" fill-rule="nonzero" fill-opacity="1" /><path clip-path="url(#clip650)" d="M1617.6 1560.12 L1617.6 1538.54 L1623.46 1538.54 L1623.46 1559.89 Q1623.46 1564.96 1625.43 1567.5 Q1627.4 1570.02 1631.35 1570.02 Q1636.09 1570.02 1638.83 1566.99 Q1641.6 1563.97 1641.6 1558.75 L1641.6 1538.54 L1647.46 1538.54 L1647.46 1574.19 L1641.6 1574.19 L1641.6 1568.71 Q1639.47 1571.96 1636.63 1573.55 Q1633.83 1575.11 1630.11 1575.11 Q1623.97 1575.11 1620.78 1571.29 Q1617.6 1567.47 1617.6 1560.12 M1632.34 1537.68 L1632.34 1537.68 Z" fill="#000000" fill-rule="nonzero" fill-opacity="1" /><path clip-path="url(#clip650)" d="M1689.15 1552.67 L1689.15 1574.19 L1683.29 1574.19 L1683.29 1552.86 Q1683.29 1547.8 1681.32 1545.29 Q1679.35 1542.77 1675.4 1542.77 Q1670.66 1542.77 1667.92 1545.79 Q1665.18 1548.82 1665.18 1554.04 L1665.18 1574.19 L1659.3 1574.19 L1659.3 1538.54 L1665.18 1538.54 L1665.18 1544.08 Q1667.28 1540.86 1670.12 1539.27 Q1672.98 1537.68 1676.71 1537.68 Q1682.85 1537.68 1686 1541.5 Q1689.15 1545.29 1689.15 1552.67 Z" fill="#000000" fill-rule="nonzero" fill-opacity="1" /><path clip-path="url(#clip650)" d="M1714.65 1542.64 Q1709.94 1542.64 1707.2 1546.34 Q1704.46 1550 1704.46 1556.39 Q1704.46 1562.79 1707.17 1566.48 Q1709.9 1570.14 1714.65 1570.14 Q1719.32 1570.14 1722.06 1566.45 Q1724.8 1562.76 1724.8 1556.39 Q1724.8 1550.06 1722.06 1546.37 Q1719.32 1542.64 1714.65 1542.64 M1714.65 1537.68 Q1722.28 1537.68 1726.65 1542.64 Q1731.01 1547.61 1731.01 1556.39 Q1731.01 1565.15 1726.65 1570.14 Q1722.28 1575.11 1714.65 1575.11 Q1706.98 1575.11 1702.61 1570.14 Q1698.29 1565.15 1698.29 1556.39 Q1698.29 1547.61 1702.61 1542.64 Q1706.98 1537.68 1714.65 1537.68 Z" fill="#000000" fill-rule="nonzero" fill-opacity="1" /><path clip-path="url(#clip650)" d="M1736.51 1538.54 L1742.72 1538.54 L1753.86 1568.46 L1765 1538.54 L1771.21 1538.54 L1757.84 1574.19 L1749.88 1574.19 L1736.51 1538.54 Z" fill="#000000" fill-rule="nonzero" fill-opacity="1" /><polyline clip-path="url(#clip650)" style="stroke:#000000; stroke-linecap:round; stroke-linejoin:round; stroke-width:4; stroke-opacity:1; fill:none" points="276.876,1410.9 276.876,47.2441 "/>
<polyline clip-path="url(#clip650)" style="stroke:#000000; stroke-linecap:round; stroke-linejoin:round; stroke-width:4; stroke-opacity:1; fill:none" points="276.876,1185.11 295.773,1185.11 "/>
<polyline clip-path="url(#clip650)" style="stroke:#000000; stroke-linecap:round; stroke-linejoin:round; stroke-width:4; stroke-opacity:1; fill:none" points="276.876,556.591 295.773,556.591 "/>
<path clip-path="url(#clip650)" d="M114.931 1204.9 L122.57 1204.9 L122.57 1178.53 L114.26 1180.2 L114.26 1175.94 L122.524 1174.27 L127.2 1174.27 L127.2 1204.9 L134.839 1204.9 L134.839 1208.83 L114.931 1208.83 L114.931 1204.9 Z" fill="#000000" fill-rule="nonzero" fill-opacity="1" /><path clip-path="url(#clip650)" d="M154.283 1177.35 Q150.672 1177.35 148.843 1180.92 Q147.038 1184.46 147.038 1191.59 Q147.038 1198.69 148.843 1202.26 Q150.672 1205.8 154.283 1205.8 Q157.917 1205.8 159.723 1202.26 Q161.552 1198.69 161.552 1191.59 Q161.552 1184.46 159.723 1180.92 Q157.917 1177.35 154.283 1177.35 M154.283 1173.65 Q160.093 1173.65 163.149 1178.25 Q166.227 1182.84 166.227 1191.59 Q166.227 1200.31 163.149 1204.92 Q160.093 1209.5 154.283 1209.5 Q148.473 1209.5 145.394 1204.92 Q142.339 1200.31 142.339 1191.59 Q142.339 1182.84 145.394 1178.25 Q148.473 1173.65 154.283 1173.65 Z" fill="#000000" fill-rule="nonzero" fill-opacity="1" /><path clip-path="url(#clip650)" d="M166.227 1167.75 L190.339 1167.75 L190.339 1170.95 L166.227 1170.95 L166.227 1167.75 Z" fill="#000000" fill-rule="nonzero" fill-opacity="1" /><path clip-path="url(#clip650)" d="M199.197 1178.23 L205.404 1178.23 L205.404 1156.8 L198.652 1158.16 L198.652 1154.7 L205.366 1153.34 L209.166 1153.34 L209.166 1178.23 L215.372 1178.23 L215.372 1181.42 L199.197 1181.42 L199.197 1178.23 Z" fill="#000000" fill-rule="nonzero" fill-opacity="1" /><path clip-path="url(#clip650)" d="M231.171 1155.84 Q228.237 1155.84 226.751 1158.74 Q225.284 1161.62 225.284 1167.41 Q225.284 1173.18 226.751 1176.08 Q228.237 1178.96 231.171 1178.96 Q234.124 1178.96 235.591 1176.08 Q237.076 1173.18 237.076 1167.41 Q237.076 1161.62 235.591 1158.74 Q234.124 1155.84 231.171 1155.84 M231.171 1152.83 Q235.891 1152.83 238.374 1156.58 Q240.876 1160.3 240.876 1167.41 Q240.876 1174.5 238.374 1178.24 Q235.891 1181.97 231.171 1181.97 Q226.45 1181.97 223.949 1178.24 Q221.466 1174.5 221.466 1167.41 Q221.466 1160.3 223.949 1156.58 Q226.45 1152.83 231.171 1152.83 Z" fill="#000000" fill-rule="nonzero" fill-opacity="1" /><path clip-path="url(#clip650)" d="M140.247 576.384 L147.886 576.384 L147.886 550.018 L139.575 551.685 L139.575 547.426 L147.839 545.759 L152.515 545.759 L152.515 576.384 L160.154 576.384 L160.154 580.319 L140.247 580.319 L140.247 576.384 Z" fill="#000000" fill-rule="nonzero" fill-opacity="1" /><path clip-path="url(#clip650)" d="M179.598 548.838 Q175.987 548.838 174.159 552.402 Q172.353 555.944 172.353 563.074 Q172.353 570.18 174.159 573.745 Q175.987 577.287 179.598 577.287 Q183.233 577.287 185.038 573.745 Q186.867 570.18 186.867 563.074 Q186.867 555.944 185.038 552.402 Q183.233 548.838 179.598 548.838 M179.598 545.134 Q185.409 545.134 188.464 549.74 Q191.543 554.324 191.543 563.074 Q191.543 571.8 188.464 576.407 Q185.409 580.99 179.598 580.99 Q173.788 580.99 170.71 576.407 Q167.654 571.8 167.654 563.074 Q167.654 554.324 170.71 549.74 Q173.788 545.134 179.598 545.134 Z" fill="#000000" fill-rule="nonzero" fill-opacity="1" /><path clip-path="url(#clip650)" d="M191.543 539.235 L215.654 539.235 L215.654 542.433 L191.543 542.433 L191.543 539.235 Z" fill="#000000" fill-rule="nonzero" fill-opacity="1" /><path clip-path="url(#clip650)" d="M223.892 524.829 L238.807 524.829 L238.807 528.026 L227.372 528.026 L227.372 534.91 Q228.199 534.627 229.027 534.496 Q229.854 534.345 230.682 534.345 Q235.384 534.345 238.13 536.922 Q240.876 539.499 240.876 543.9 Q240.876 548.432 238.054 550.953 Q235.233 553.454 230.099 553.454 Q228.331 553.454 226.488 553.153 Q224.663 552.852 222.707 552.25 L222.707 548.432 Q224.4 549.354 226.205 549.805 Q228.011 550.257 230.023 550.257 Q233.277 550.257 235.177 548.545 Q237.076 546.834 237.076 543.9 Q237.076 540.966 235.177 539.254 Q233.277 537.543 230.023 537.543 Q228.5 537.543 226.977 537.881 Q225.472 538.22 223.892 538.934 L223.892 524.829 Z" fill="#000000" fill-rule="nonzero" fill-opacity="1" /><path clip-path="url(#clip650)" d="M42.4881 812.859 L64.0042 812.859 L64.0042 818.715 L42.679 818.715 Q37.6183 818.715 35.1038 820.689 Q32.5894 822.662 32.5894 826.609 Q32.5894 831.351 35.6131 834.089 Q38.6368 836.826 43.8567 836.826 L64.0042 836.826 L64.0042 842.714 L28.3562 842.714 L28.3562 836.826 L33.8944 836.826 Q30.6797 834.725 29.0883 831.892 Q27.4968 829.028 27.4968 825.304 Q27.4968 819.161 31.3163 816.01 Q35.1038 812.859 42.4881 812.859 Z" fill="#000000" fill-rule="nonzero" fill-opacity="1" /><path clip-path="url(#clip650)" d="M46.0847 784.977 Q46.0847 792.075 47.7079 794.812 Q49.3312 797.549 53.2461 797.549 Q56.3653 797.549 58.2114 795.512 Q60.0256 793.444 60.0256 789.911 Q60.0256 785.041 56.5881 782.113 Q53.1188 779.153 47.3897 779.153 L46.0847 779.153 L46.0847 784.977 M43.6657 773.296 L64.0042 773.296 L64.0042 779.153 L58.5933 779.153 Q61.8398 781.158 63.3994 784.15 Q64.9272 787.142 64.9272 791.47 Q64.9272 796.945 61.8716 800.191 Q58.7843 803.406 53.6281 803.406 Q47.6125 803.406 44.5569 799.396 Q41.5014 795.353 41.5014 787.364 L41.5014 779.153 L40.9285 779.153 Q36.8862 779.153 34.6901 781.826 Q32.4621 784.468 32.4621 789.274 Q32.4621 792.33 33.1941 795.226 Q33.9262 798.122 35.3903 800.796 L29.9795 800.796 Q28.7381 797.581 28.1334 794.558 Q27.4968 791.534 27.4968 788.669 Q27.4968 780.935 31.5072 777.116 Q35.5176 773.296 43.6657 773.296 Z" fill="#000000" fill-rule="nonzero" fill-opacity="1" /><path clip-path="url(#clip650)" d="M58.657 755.568 L77.5631 755.568 L77.5631 761.456 L28.3562 761.456 L28.3562 755.568 L33.7671 755.568 Q30.5842 753.722 29.0564 750.921 Q27.4968 748.088 27.4968 744.173 Q27.4968 737.68 32.6531 733.638 Q37.8093 729.564 46.212 729.564 Q54.6147 729.564 59.771 733.638 Q64.9272 737.68 64.9272 744.173 Q64.9272 748.088 63.3994 750.921 Q61.8398 753.722 58.657 755.568 M46.212 735.643 Q39.7508 735.643 36.0905 738.317 Q32.3984 740.958 32.3984 745.605 Q32.3984 750.252 36.0905 752.926 Q39.7508 755.568 46.212 755.568 Q52.6732 755.568 56.3653 752.926 Q60.0256 750.252 60.0256 745.605 Q60.0256 740.958 56.3653 738.317 Q52.6732 735.643 46.212 735.643 Z" fill="#000000" fill-rule="nonzero" fill-opacity="1" /><path clip-path="url(#clip650)" d="M46.0847 703.655 Q46.0847 710.753 47.7079 713.49 Q49.3312 716.228 53.2461 716.228 Q56.3653 716.228 58.2114 714.191 Q60.0256 712.122 60.0256 708.589 Q60.0256 703.719 56.5881 700.791 Q53.1188 697.831 47.3897 697.831 L46.0847 697.831 L46.0847 703.655 M43.6657 691.974 L64.0042 691.974 L64.0042 697.831 L58.5933 697.831 Q61.8398 699.836 63.3994 702.828 Q64.9272 705.82 64.9272 710.148 Q64.9272 715.623 61.8716 718.869 Q58.7843 722.084 53.6281 722.084 Q47.6125 722.084 44.5569 718.074 Q41.5014 714.031 41.5014 706.042 L41.5014 697.831 L40.9285 697.831 Q36.8862 697.831 34.6901 700.504 Q32.4621 703.146 32.4621 707.952 Q32.4621 711.008 33.1941 713.904 Q33.9262 716.8 35.3903 719.474 L29.9795 719.474 Q28.7381 716.259 28.1334 713.236 Q27.4968 710.212 27.4968 707.347 Q27.4968 699.613 31.5072 695.794 Q35.5176 691.974 43.6657 691.974 Z" fill="#000000" fill-rule="nonzero" fill-opacity="1" /><path clip-path="url(#clip650)" d="M14.479 680.134 L14.479 674.246 L43.7294 674.246 L28.3562 656.772 L28.3562 649.292 L45.0344 668.198 L64.0042 648.496 L64.0042 656.135 L46.5939 674.246 L64.0042 674.246 L64.0042 680.134 L14.479 680.134 Z" fill="#000000" fill-rule="nonzero" fill-opacity="1" /><path clip-path="url(#clip650)" d="M46.0847 627.108 Q46.0847 634.205 47.7079 636.943 Q49.3312 639.68 53.2461 639.68 Q56.3653 639.68 58.2114 637.643 Q60.0256 635.574 60.0256 632.041 Q60.0256 627.171 56.5881 624.243 Q53.1188 621.283 47.3897 621.283 L46.0847 621.283 L46.0847 627.108 M43.6657 615.427 L64.0042 615.427 L64.0042 621.283 L58.5933 621.283 Q61.8398 623.288 63.3994 626.28 Q64.9272 629.272 64.9272 633.601 Q64.9272 639.075 61.8716 642.322 Q58.7843 645.536 53.6281 645.536 Q47.6125 645.536 44.5569 641.526 Q41.5014 637.484 41.5014 629.495 L41.5014 621.283 L40.9285 621.283 Q36.8862 621.283 34.6901 623.957 Q32.4621 626.598 32.4621 631.405 Q32.4621 634.46 33.1941 637.356 Q33.9262 640.253 35.3903 642.926 L29.9795 642.926 Q28.7381 639.712 28.1334 636.688 Q27.4968 633.664 27.4968 630.8 Q27.4968 623.065 31.5072 619.246 Q35.5176 615.427 43.6657 615.427 Z" fill="#000000" fill-rule="nonzero" fill-opacity="1" /><circle clip-path="url(#clip652)" cx="335.627" cy="85.838" r="14.4" fill="#009af9" fill-rule="evenodd" fill-opacity="1" stroke="#000000" stroke-opacity="1" stroke-width="3.2"/>
<circle clip-path="url(#clip652)" cx="442.393" cy="444.936" r="14.4" fill="#009af9" fill-rule="evenodd" fill-opacity="1" stroke="#000000" stroke-opacity="1" stroke-width="3.2"/>
<circle clip-path="url(#clip652)" cx="553.743" cy="269.097" r="14.4" fill="#009af9" fill-rule="evenodd" fill-opacity="1" stroke="#000000" stroke-opacity="1" stroke-width="3.2"/>
<circle clip-path="url(#clip652)" cx="667.542" cy="311.917" r="14.4" fill="#009af9" fill-rule="evenodd" fill-opacity="1" stroke="#000000" stroke-opacity="1" stroke-width="3.2"/>
<circle clip-path="url(#clip652)" cx="782.608" cy="406.117" r="14.4" fill="#009af9" fill-rule="evenodd" fill-opacity="1" stroke="#000000" stroke-opacity="1" stroke-width="3.2"/>
<circle clip-path="url(#clip652)" cx="898.318" cy="485.314" r="14.4" fill="#009af9" fill-rule="evenodd" fill-opacity="1" stroke="#000000" stroke-opacity="1" stroke-width="3.2"/>
<circle clip-path="url(#clip652)" cx="1014.35" cy="568.625" r="14.4" fill="#009af9" fill-rule="evenodd" fill-opacity="1" stroke="#000000" stroke-opacity="1" stroke-width="3.2"/>
<circle clip-path="url(#clip652)" cx="1130.55" cy="662.844" r="14.4" fill="#009af9" fill-rule="evenodd" fill-opacity="1" stroke="#000000" stroke-opacity="1" stroke-width="3.2"/>
<circle clip-path="url(#clip652)" cx="1246.83" cy="812.264" r="14.4" fill="#009af9" fill-rule="evenodd" fill-opacity="1" stroke="#000000" stroke-opacity="1" stroke-width="3.2"/>
<circle clip-path="url(#clip652)" cx="1363.15" cy="816.911" r="14.4" fill="#009af9" fill-rule="evenodd" fill-opacity="1" stroke="#000000" stroke-opacity="1" stroke-width="3.2"/>
<circle clip-path="url(#clip652)" cx="1479.49" cy="844.693" r="14.4" fill="#009af9" fill-rule="evenodd" fill-opacity="1" stroke="#000000" stroke-opacity="1" stroke-width="3.2"/>
<circle clip-path="url(#clip652)" cx="1595.84" cy="991.42" r="14.4" fill="#009af9" fill-rule="evenodd" fill-opacity="1" stroke="#000000" stroke-opacity="1" stroke-width="3.2"/>
<circle clip-path="url(#clip652)" cx="1712.2" cy="1002.43" r="14.4" fill="#009af9" fill-rule="evenodd" fill-opacity="1" stroke="#000000" stroke-opacity="1" stroke-width="3.2"/>
<circle clip-path="url(#clip652)" cx="442.393" cy="145.511" r="14.4" fill="#e26f46" fill-rule="evenodd" fill-opacity="1" stroke="#000000" stroke-opacity="1" stroke-width="3.2"/>
<circle clip-path="url(#clip652)" cx="553.743" cy="252.85" r="14.4" fill="#e26f46" fill-rule="evenodd" fill-opacity="1" stroke="#000000" stroke-opacity="1" stroke-width="3.2"/>
<circle clip-path="url(#clip652)" cx="667.542" cy="339.533" r="14.4" fill="#e26f46" fill-rule="evenodd" fill-opacity="1" stroke="#000000" stroke-opacity="1" stroke-width="3.2"/>
<circle clip-path="url(#clip652)" cx="782.608" cy="342.531" r="14.4" fill="#e26f46" fill-rule="evenodd" fill-opacity="1" stroke="#000000" stroke-opacity="1" stroke-width="3.2"/>
<circle clip-path="url(#clip652)" cx="898.318" cy="617.559" r="14.4" fill="#e26f46" fill-rule="evenodd" fill-opacity="1" stroke="#000000" stroke-opacity="1" stroke-width="3.2"/>
<circle clip-path="url(#clip652)" cx="1014.35" cy="656.486" r="14.4" fill="#e26f46" fill-rule="evenodd" fill-opacity="1" stroke="#000000" stroke-opacity="1" stroke-width="3.2"/>
<circle clip-path="url(#clip652)" cx="1130.55" cy="696.568" r="14.4" fill="#e26f46" fill-rule="evenodd" fill-opacity="1" stroke="#000000" stroke-opacity="1" stroke-width="3.2"/>
<circle clip-path="url(#clip652)" cx="1246.83" cy="739.188" r="14.4" fill="#e26f46" fill-rule="evenodd" fill-opacity="1" stroke="#000000" stroke-opacity="1" stroke-width="3.2"/>
<circle clip-path="url(#clip652)" cx="1363.15" cy="788.062" r="14.4" fill="#e26f46" fill-rule="evenodd" fill-opacity="1" stroke="#000000" stroke-opacity="1" stroke-width="3.2"/>
<circle clip-path="url(#clip652)" cx="1479.49" cy="858.339" r="14.4" fill="#e26f46" fill-rule="evenodd" fill-opacity="1" stroke="#000000" stroke-opacity="1" stroke-width="3.2"/>
<circle clip-path="url(#clip652)" cx="1595.84" cy="922.011" r="14.4" fill="#e26f46" fill-rule="evenodd" fill-opacity="1" stroke="#000000" stroke-opacity="1" stroke-width="3.2"/>
<circle clip-path="url(#clip652)" cx="1712.2" cy="1006.66" r="14.4" fill="#e26f46" fill-rule="evenodd" fill-opacity="1" stroke="#000000" stroke-opacity="1" stroke-width="3.2"/>
<circle clip-path="url(#clip652)" cx="1828.56" cy="1167.5" r="14.4" fill="#e26f46" fill-rule="evenodd" fill-opacity="1" stroke="#000000" stroke-opacity="1" stroke-width="3.2"/>
<circle clip-path="url(#clip652)" cx="548.578" cy="293.171" r="14.4" fill="#3da44d" fill-rule="evenodd" fill-opacity="1" stroke="#000000" stroke-opacity="1" stroke-width="3.2"/>
<circle clip-path="url(#clip652)" cx="664.939" cy="296.039" r="14.4" fill="#3da44d" fill-rule="evenodd" fill-opacity="1" stroke="#000000" stroke-opacity="1" stroke-width="3.2"/>
<circle clip-path="url(#clip652)" cx="781.301" cy="425.757" r="14.4" fill="#3da44d" fill-rule="evenodd" fill-opacity="1" stroke="#000000" stroke-opacity="1" stroke-width="3.2"/>
<circle clip-path="url(#clip652)" cx="897.663" cy="434.61" r="14.4" fill="#3da44d" fill-rule="evenodd" fill-opacity="1" stroke="#000000" stroke-opacity="1" stroke-width="3.2"/>
<circle clip-path="url(#clip652)" cx="1014.02" cy="548.955" r="14.4" fill="#3da44d" fill-rule="evenodd" fill-opacity="1" stroke="#000000" stroke-opacity="1" stroke-width="3.2"/>
<circle clip-path="url(#clip652)" cx="1130.39" cy="730.334" r="14.4" fill="#3da44d" fill-rule="evenodd" fill-opacity="1" stroke="#000000" stroke-opacity="1" stroke-width="3.2"/>
<circle clip-path="url(#clip652)" cx="1246.75" cy="729.362" r="14.4" fill="#3da44d" fill-rule="evenodd" fill-opacity="1" stroke="#000000" stroke-opacity="1" stroke-width="3.2"/>
<circle clip-path="url(#clip652)" cx="1363.11" cy="782.913" r="14.4" fill="#3da44d" fill-rule="evenodd" fill-opacity="1" stroke="#000000" stroke-opacity="1" stroke-width="3.2"/>
<circle clip-path="url(#clip652)" cx="1479.47" cy="857.176" r="14.4" fill="#3da44d" fill-rule="evenodd" fill-opacity="1" stroke="#000000" stroke-opacity="1" stroke-width="3.2"/>
<circle clip-path="url(#clip652)" cx="1595.83" cy="935.991" r="14.4" fill="#3da44d" fill-rule="evenodd" fill-opacity="1" stroke="#000000" stroke-opacity="1" stroke-width="3.2"/>
<circle clip-path="url(#clip652)" cx="1712.2" cy="1019.87" r="14.4" fill="#3da44d" fill-rule="evenodd" fill-opacity="1" stroke="#000000" stroke-opacity="1" stroke-width="3.2"/>
<circle clip-path="url(#clip652)" cx="1828.56" cy="1125.5" r="14.4" fill="#3da44d" fill-rule="evenodd" fill-opacity="1" stroke="#000000" stroke-opacity="1" stroke-width="3.2"/>
<circle clip-path="url(#clip652)" cx="1944.92" cy="1193.91" r="14.4" fill="#3da44d" fill-rule="evenodd" fill-opacity="1" stroke="#000000" stroke-opacity="1" stroke-width="3.2"/>
<circle clip-path="url(#clip652)" cx="2061.28" cy="1224.56" r="14.4" fill="#3da44d" fill-rule="evenodd" fill-opacity="1" stroke="#000000" stroke-opacity="1" stroke-width="3.2"/>
<circle clip-path="url(#clip652)" cx="2177.64" cy="1303.41" r="14.4" fill="#3da44d" fill-rule="evenodd" fill-opacity="1" stroke="#000000" stroke-opacity="1" stroke-width="3.2"/>
<circle clip-path="url(#clip652)" cx="2294" cy="1372.3" r="14.4" fill="#3da44d" fill-rule="evenodd" fill-opacity="1" stroke="#000000" stroke-opacity="1" stroke-width="3.2"/>
<path clip-path="url(#clip650)" d="M1178.15 300.059 L2283.56 300.059 L2283.56 92.6992 L1178.15 92.6992  Z" fill="#ffffff" fill-rule="evenodd" fill-opacity="1"/>
<polyline clip-path="url(#clip650)" style="stroke:#000000; stroke-linecap:round; stroke-linejoin:round; stroke-width:4; stroke-opacity:1; fill:none" points="1178.15,300.059 2283.56,300.059 2283.56,92.6992 1178.15,92.6992 1178.15,300.059 "/>
<circle clip-path="url(#clip650)" cx="1270.41" cy="144.539" r="20.48" fill="#009af9" fill-rule="evenodd" fill-opacity="1" stroke="#000000" stroke-opacity="1" stroke-width="4.55111"/>
<path clip-path="url(#clip650)" d="M1384.39 146.171 L1384.39 161.819 L1380.13 161.819 L1380.13 146.31 Q1380.13 142.629 1378.69 140.801 Q1377.26 138.972 1374.39 138.972 Q1370.94 138.972 1368.95 141.171 Q1366.96 143.37 1366.96 147.166 L1366.96 161.819 L1362.68 161.819 L1362.68 135.893 L1366.96 135.893 L1366.96 139.921 Q1368.49 137.583 1370.55 136.426 Q1372.63 135.268 1375.34 135.268 Q1379.8 135.268 1382.1 138.046 Q1384.39 140.801 1384.39 146.171 Z" fill="#000000" fill-rule="nonzero" fill-opacity="1" /><path clip-path="url(#clip650)" d="M1404.67 148.787 Q1399.5 148.787 1397.51 149.967 Q1395.52 151.148 1395.52 153.995 Q1395.52 156.264 1397 157.606 Q1398.51 158.926 1401.08 158.926 Q1404.62 158.926 1406.75 156.426 Q1408.9 153.903 1408.9 149.736 L1408.9 148.787 L1404.67 148.787 M1413.16 147.028 L1413.16 161.819 L1408.9 161.819 L1408.9 157.884 Q1407.44 160.245 1405.27 161.379 Q1403.09 162.49 1399.94 162.49 Q1395.96 162.49 1393.6 160.268 Q1391.26 158.023 1391.26 154.273 Q1391.26 149.898 1394.18 147.676 Q1397.12 145.454 1402.93 145.454 L1408.9 145.454 L1408.9 145.037 Q1408.9 142.097 1406.96 140.5 Q1405.04 138.879 1401.54 138.879 Q1399.32 138.879 1397.21 139.412 Q1395.11 139.944 1393.16 141.009 L1393.16 137.074 Q1395.5 136.171 1397.7 135.731 Q1399.9 135.268 1401.98 135.268 Q1407.61 135.268 1410.38 138.185 Q1413.16 141.102 1413.16 147.028 Z" fill="#000000" fill-rule="nonzero" fill-opacity="1" /><path clip-path="url(#clip650)" d="M1426.05 157.93 L1426.05 171.68 L1421.77 171.68 L1421.77 135.893 L1426.05 135.893 L1426.05 139.829 Q1427.4 137.514 1429.43 136.403 Q1431.49 135.268 1434.34 135.268 Q1439.06 135.268 1442 139.018 Q1444.97 142.768 1444.97 148.879 Q1444.97 154.991 1442 158.74 Q1439.06 162.49 1434.34 162.49 Q1431.49 162.49 1429.43 161.379 Q1427.4 160.245 1426.05 157.93 M1440.55 148.879 Q1440.55 144.18 1438.6 141.518 Q1436.68 138.833 1433.3 138.833 Q1429.92 138.833 1427.98 141.518 Q1426.05 144.18 1426.05 148.879 Q1426.05 153.578 1427.98 156.264 Q1429.92 158.926 1433.3 158.926 Q1436.68 158.926 1438.6 156.264 Q1440.55 153.578 1440.55 148.879 Z" fill="#000000" fill-rule="nonzero" fill-opacity="1" /><path clip-path="url(#clip650)" d="M1463.81 148.787 Q1458.65 148.787 1456.66 149.967 Q1454.67 151.148 1454.67 153.995 Q1454.67 156.264 1456.15 157.606 Q1457.65 158.926 1460.22 158.926 Q1463.76 158.926 1465.89 156.426 Q1468.05 153.903 1468.05 149.736 L1468.05 148.787 L1463.81 148.787 M1472.3 147.028 L1472.3 161.819 L1468.05 161.819 L1468.05 157.884 Q1466.59 160.245 1464.41 161.379 Q1462.23 162.49 1459.09 162.49 Q1455.11 162.49 1452.74 160.268 Q1450.41 158.023 1450.41 154.273 Q1450.41 149.898 1453.32 147.676 Q1456.26 145.454 1462.07 145.454 L1468.05 145.454 L1468.05 145.037 Q1468.05 142.097 1466.1 140.5 Q1464.18 138.879 1460.68 138.879 Q1458.46 138.879 1456.36 139.412 Q1454.25 139.944 1452.3 141.009 L1452.3 137.074 Q1454.64 136.171 1456.84 135.731 Q1459.04 135.268 1461.12 135.268 Q1466.75 135.268 1469.53 138.185 Q1472.3 141.102 1472.3 147.028 Z" fill="#000000" fill-rule="nonzero" fill-opacity="1" /><path clip-path="url(#clip650)" d="M1480.92 125.801 L1485.2 125.801 L1485.2 147.074 L1497.91 135.893 L1503.35 135.893 L1489.6 148.023 L1503.92 161.819 L1498.37 161.819 L1485.2 149.157 L1485.2 161.819 L1480.92 161.819 L1480.92 125.801 Z" fill="#000000" fill-rule="nonzero" fill-opacity="1" /><path clip-path="url(#clip650)" d="M1519.48 148.787 Q1514.32 148.787 1512.33 149.967 Q1510.34 151.148 1510.34 153.995 Q1510.34 156.264 1511.82 157.606 Q1513.32 158.926 1515.89 158.926 Q1519.43 158.926 1521.56 156.426 Q1523.72 153.903 1523.72 149.736 L1523.72 148.787 L1519.48 148.787 M1527.98 147.028 L1527.98 161.819 L1523.72 161.819 L1523.72 157.884 Q1522.26 160.245 1520.08 161.379 Q1517.91 162.49 1514.76 162.49 Q1510.78 162.49 1508.42 160.268 Q1506.08 158.023 1506.08 154.273 Q1506.08 149.898 1508.99 147.676 Q1511.93 145.454 1517.74 145.454 L1523.72 145.454 L1523.72 145.037 Q1523.72 142.097 1521.77 140.5 Q1519.85 138.879 1516.36 138.879 Q1514.13 138.879 1512.03 139.412 Q1509.92 139.944 1507.98 141.009 L1507.98 137.074 Q1510.31 136.171 1512.51 135.731 Q1514.71 135.268 1516.79 135.268 Q1522.42 135.268 1525.2 138.185 Q1527.98 141.102 1527.98 147.028 Z" fill="#000000" fill-rule="nonzero" fill-opacity="1" /><path clip-path="url(#clip650)" d="M1556.03 128.532 L1556.03 135.893 L1564.8 135.893 L1564.8 139.204 L1556.03 139.204 L1556.03 153.278 Q1556.03 156.449 1556.89 157.352 Q1557.77 158.254 1560.43 158.254 L1564.8 158.254 L1564.8 161.819 L1560.43 161.819 Q1555.5 161.819 1553.62 159.99 Q1551.75 158.139 1551.75 153.278 L1551.75 139.204 L1548.62 139.204 L1548.62 135.893 L1551.75 135.893 L1551.75 128.532 L1556.03 128.532 Z" fill="#000000" fill-rule="nonzero" fill-opacity="1" /><path clip-path="url(#clip650)" d="M1585.43 139.875 Q1584.71 139.458 1583.85 139.273 Q1583.02 139.065 1582 139.065 Q1578.39 139.065 1576.45 141.426 Q1574.53 143.764 1574.53 148.162 L1574.53 161.819 L1570.24 161.819 L1570.24 135.893 L1574.53 135.893 L1574.53 139.921 Q1575.87 137.56 1578.02 136.426 Q1580.17 135.268 1583.25 135.268 Q1583.69 135.268 1584.23 135.338 Q1584.76 135.384 1585.41 135.5 L1585.43 139.875 Z" fill="#000000" fill-rule="nonzero" fill-opacity="1" /><path clip-path="url(#clip650)" d="M1601.68 148.787 Q1596.52 148.787 1594.53 149.967 Q1592.54 151.148 1592.54 153.995 Q1592.54 156.264 1594.02 157.606 Q1595.52 158.926 1598.09 158.926 Q1601.63 158.926 1603.76 156.426 Q1605.91 153.903 1605.91 149.736 L1605.91 148.787 L1601.68 148.787 M1610.17 147.028 L1610.17 161.819 L1605.91 161.819 L1605.91 157.884 Q1604.46 160.245 1602.28 161.379 Q1600.1 162.49 1596.96 162.49 Q1592.97 162.49 1590.61 160.268 Q1588.28 158.023 1588.28 154.273 Q1588.28 149.898 1591.19 147.676 Q1594.13 145.454 1599.94 145.454 L1605.91 145.454 L1605.91 145.037 Q1605.91 142.097 1603.97 140.5 Q1602.05 138.879 1598.55 138.879 Q1596.33 138.879 1594.22 139.412 Q1592.12 139.944 1590.17 141.009 L1590.17 137.074 Q1592.51 136.171 1594.71 135.731 Q1596.91 135.268 1598.99 135.268 Q1604.62 135.268 1607.4 138.185 Q1610.17 141.102 1610.17 147.028 Z" fill="#000000" fill-rule="nonzero" fill-opacity="1" /><path clip-path="url(#clip650)" d="M1623.07 157.93 L1623.07 171.68 L1618.79 171.68 L1618.79 135.893 L1623.07 135.893 L1623.07 139.829 Q1624.41 137.514 1626.45 136.403 Q1628.51 135.268 1631.35 135.268 Q1636.08 135.268 1639.02 139.018 Q1641.98 142.768 1641.98 148.879 Q1641.98 154.991 1639.02 158.74 Q1636.08 162.49 1631.35 162.49 Q1628.51 162.49 1626.45 161.379 Q1624.41 160.245 1623.07 157.93 M1637.56 148.879 Q1637.56 144.18 1635.61 141.518 Q1633.69 138.833 1630.31 138.833 Q1626.93 138.833 1624.99 141.518 Q1623.07 144.18 1623.07 148.879 Q1623.07 153.578 1624.99 156.264 Q1626.93 158.926 1630.31 158.926 Q1633.69 158.926 1635.61 156.264 Q1637.56 153.578 1637.56 148.879 Z" fill="#000000" fill-rule="nonzero" fill-opacity="1" /><path clip-path="url(#clip650)" d="M1671.22 147.791 L1671.22 149.875 L1651.63 149.875 Q1651.91 154.273 1654.27 156.588 Q1656.66 158.879 1660.89 158.879 Q1663.34 158.879 1665.64 158.278 Q1667.95 157.676 1670.22 156.472 L1670.22 160.5 Q1667.93 161.472 1665.52 161.981 Q1663.11 162.49 1660.64 162.49 Q1654.43 162.49 1650.8 158.879 Q1647.19 155.268 1647.19 149.111 Q1647.19 142.745 1650.61 139.018 Q1654.06 135.268 1659.9 135.268 Q1665.13 135.268 1668.16 138.648 Q1671.22 142.004 1671.22 147.791 M1666.96 146.541 Q1666.91 143.046 1664.99 140.963 Q1663.09 138.879 1659.94 138.879 Q1656.38 138.879 1654.22 140.893 Q1652.1 142.907 1651.77 146.565 L1666.96 146.541 Z" fill="#000000" fill-rule="nonzero" fill-opacity="1" /><path clip-path="url(#clip650)" d="M1676.35 135.893 L1696.59 135.893 L1696.59 139.782 L1680.57 158.416 L1696.59 158.416 L1696.59 161.819 L1675.78 161.819 L1675.78 157.93 L1691.79 139.296 L1676.35 139.296 L1676.35 135.893 Z" fill="#000000" fill-rule="nonzero" fill-opacity="1" /><path clip-path="url(#clip650)" d="M1724.64 146.171 L1724.64 161.819 L1720.38 161.819 L1720.38 146.31 Q1720.38 142.629 1718.95 140.801 Q1717.51 138.972 1714.64 138.972 Q1711.19 138.972 1709.2 141.171 Q1707.21 143.37 1707.21 147.166 L1707.21 161.819 L1702.93 161.819 L1702.93 135.893 L1707.21 135.893 L1707.21 139.921 Q1708.74 137.583 1710.8 136.426 Q1712.88 135.268 1715.59 135.268 Q1720.06 135.268 1722.35 138.046 Q1724.64 140.801 1724.64 146.171 Z" fill="#000000" fill-rule="nonzero" fill-opacity="1" /><path clip-path="url(#clip650)" d="M1755.31 147.791 L1755.31 149.875 L1735.73 149.875 Q1736.01 154.273 1738.37 156.588 Q1740.75 158.879 1744.99 158.879 Q1747.44 158.879 1749.73 158.278 Q1752.05 157.676 1754.32 156.472 L1754.32 160.5 Q1752.03 161.472 1749.62 161.981 Q1747.21 162.49 1744.73 162.49 Q1738.53 162.49 1734.9 158.879 Q1731.28 155.268 1731.28 149.111 Q1731.28 142.745 1734.71 139.018 Q1738.16 135.268 1743.99 135.268 Q1749.22 135.268 1752.26 138.648 Q1755.31 142.004 1755.31 147.791 M1751.05 146.541 Q1751.01 143.046 1749.09 140.963 Q1747.19 138.879 1744.04 138.879 Q1740.47 138.879 1738.32 140.893 Q1736.19 142.907 1735.87 146.565 L1751.05 146.541 Z" fill="#000000" fill-rule="nonzero" fill-opacity="1" /><path clip-path="url(#clip650)" d="M1790.5 125.801 L1790.5 129.343 L1786.42 129.343 Q1784.13 129.343 1783.23 130.268 Q1782.35 131.194 1782.35 133.602 L1782.35 135.893 L1789.36 135.893 L1789.36 139.204 L1782.35 139.204 L1782.35 161.819 L1778.07 161.819 L1778.07 139.204 L1773.99 139.204 L1773.99 135.893 L1778.07 135.893 L1778.07 134.088 Q1778.07 129.759 1780.08 127.792 Q1782.09 125.801 1786.47 125.801 L1790.5 125.801 Z" fill="#000000" fill-rule="nonzero" fill-opacity="1" /><path clip-path="url(#clip650)" d="M1804.11 138.879 Q1800.68 138.879 1798.69 141.565 Q1796.7 144.227 1796.7 148.879 Q1796.7 153.532 1798.67 156.217 Q1800.66 158.879 1804.11 158.879 Q1807.51 158.879 1809.5 156.194 Q1811.49 153.509 1811.49 148.879 Q1811.49 144.273 1809.5 141.588 Q1807.51 138.879 1804.11 138.879 M1804.11 135.268 Q1809.66 135.268 1812.83 138.879 Q1816.01 142.491 1816.01 148.879 Q1816.01 155.245 1812.83 158.879 Q1809.66 162.49 1804.11 162.49 Q1798.53 162.49 1795.36 158.879 Q1792.21 155.245 1792.21 148.879 Q1792.21 142.491 1795.36 138.879 Q1798.53 135.268 1804.11 135.268 Z" fill="#000000" fill-rule="nonzero" fill-opacity="1" /><path clip-path="url(#clip650)" d="M1838.09 139.875 Q1837.37 139.458 1836.52 139.273 Q1835.68 139.065 1834.66 139.065 Q1831.05 139.065 1829.11 141.426 Q1827.19 143.764 1827.19 148.162 L1827.19 161.819 L1822.9 161.819 L1822.9 135.893 L1827.19 135.893 L1827.19 139.921 Q1828.53 137.56 1830.68 136.426 Q1832.83 135.268 1835.91 135.268 Q1836.35 135.268 1836.89 135.338 Q1837.42 135.384 1838.07 135.5 L1838.09 139.875 Z" fill="#000000" fill-rule="nonzero" fill-opacity="1" /><path clip-path="url(#clip650)" d="M1861.91 140.87 Q1863.51 138 1865.73 136.634 Q1867.95 135.268 1870.96 135.268 Q1875.01 135.268 1877.21 138.116 Q1879.41 140.94 1879.41 146.171 L1879.41 161.819 L1875.13 161.819 L1875.13 146.31 Q1875.13 142.583 1873.81 140.778 Q1872.49 138.972 1869.78 138.972 Q1866.47 138.972 1864.55 141.171 Q1862.63 143.37 1862.63 147.166 L1862.63 161.819 L1858.34 161.819 L1858.34 146.31 Q1858.34 142.56 1857.02 140.778 Q1855.71 138.972 1852.95 138.972 Q1849.69 138.972 1847.77 141.194 Q1845.84 143.393 1845.84 147.166 L1845.84 161.819 L1841.56 161.819 L1841.56 135.893 L1845.84 135.893 L1845.84 139.921 Q1847.3 137.537 1849.34 136.403 Q1851.38 135.268 1854.18 135.268 Q1857 135.268 1858.97 136.704 Q1860.96 138.139 1861.91 140.87 Z" fill="#000000" fill-rule="nonzero" fill-opacity="1" /><path clip-path="url(#clip650)" d="M1887.46 151.588 L1887.46 135.893 L1891.72 135.893 L1891.72 151.426 Q1891.72 155.106 1893.16 156.958 Q1894.59 158.787 1897.46 158.787 Q1900.91 158.787 1902.9 156.588 Q1904.92 154.389 1904.92 150.592 L1904.92 135.893 L1909.18 135.893 L1909.18 161.819 L1904.92 161.819 L1904.92 157.838 Q1903.37 160.199 1901.31 161.356 Q1899.27 162.49 1896.56 162.49 Q1892.09 162.49 1889.78 159.713 Q1887.46 156.935 1887.46 151.588 M1898.18 135.268 L1898.18 135.268 Z" fill="#000000" fill-rule="nonzero" fill-opacity="1" /><path clip-path="url(#clip650)" d="M1917.95 125.801 L1922.21 125.801 L1922.21 161.819 L1917.95 161.819 L1917.95 125.801 Z" fill="#000000" fill-rule="nonzero" fill-opacity="1" /><path clip-path="url(#clip650)" d="M1953.3 147.791 L1953.3 149.875 L1933.71 149.875 Q1933.99 154.273 1936.35 156.588 Q1938.74 158.879 1942.97 158.879 Q1945.43 158.879 1947.72 158.278 Q1950.03 157.676 1952.3 156.472 L1952.3 160.5 Q1950.01 161.472 1947.6 161.981 Q1945.2 162.49 1942.72 162.49 Q1936.51 162.49 1932.88 158.879 Q1929.27 155.268 1929.27 149.111 Q1929.27 142.745 1932.7 139.018 Q1936.14 135.268 1941.98 135.268 Q1947.21 135.268 1950.24 138.648 Q1953.3 142.004 1953.3 147.791 M1949.04 146.541 Q1948.99 143.046 1947.07 140.963 Q1945.17 138.879 1942.02 138.879 Q1938.46 138.879 1936.31 140.893 Q1934.18 142.907 1933.85 146.565 L1949.04 146.541 Z" fill="#000000" fill-rule="nonzero" fill-opacity="1" /><circle clip-path="url(#clip650)" cx="1270.41" cy="196.379" r="20.48" fill="#e26f46" fill-rule="evenodd" fill-opacity="1" stroke="#000000" stroke-opacity="1" stroke-width="4.55111"/>
<path clip-path="url(#clip650)" d="M1384.39 198.011 L1384.39 213.659 L1380.13 213.659 L1380.13 198.15 Q1380.13 194.469 1378.69 192.641 Q1377.26 190.812 1374.39 190.812 Q1370.94 190.812 1368.95 193.011 Q1366.96 195.21 1366.96 199.006 L1366.96 213.659 L1362.68 213.659 L1362.68 187.733 L1366.96 187.733 L1366.96 191.761 Q1368.49 189.423 1370.55 188.266 Q1372.63 187.108 1375.34 187.108 Q1379.8 187.108 1382.1 189.886 Q1384.39 192.641 1384.39 198.011 Z" fill="#000000" fill-rule="nonzero" fill-opacity="1" /><path clip-path="url(#clip650)" d="M1404.67 200.627 Q1399.5 200.627 1397.51 201.807 Q1395.52 202.988 1395.52 205.835 Q1395.52 208.104 1397 209.446 Q1398.51 210.766 1401.08 210.766 Q1404.62 210.766 1406.75 208.266 Q1408.9 205.743 1408.9 201.576 L1408.9 200.627 L1404.67 200.627 M1413.16 198.868 L1413.16 213.659 L1408.9 213.659 L1408.9 209.724 Q1407.44 212.085 1405.27 213.219 Q1403.09 214.33 1399.94 214.33 Q1395.96 214.33 1393.6 212.108 Q1391.26 209.863 1391.26 206.113 Q1391.26 201.738 1394.18 199.516 Q1397.12 197.294 1402.93 197.294 L1408.9 197.294 L1408.9 196.877 Q1408.9 193.937 1406.96 192.34 Q1405.04 190.719 1401.54 190.719 Q1399.32 190.719 1397.21 191.252 Q1395.11 191.784 1393.16 192.849 L1393.16 188.914 Q1395.5 188.011 1397.7 187.571 Q1399.9 187.108 1401.98 187.108 Q1407.61 187.108 1410.38 190.025 Q1413.16 192.942 1413.16 198.868 Z" fill="#000000" fill-rule="nonzero" fill-opacity="1" /><path clip-path="url(#clip650)" d="M1426.05 209.77 L1426.05 223.52 L1421.77 223.52 L1421.77 187.733 L1426.05 187.733 L1426.05 191.669 Q1427.4 189.354 1429.43 188.243 Q1431.49 187.108 1434.34 187.108 Q1439.06 187.108 1442 190.858 Q1444.97 194.608 1444.97 200.719 Q1444.97 206.831 1442 210.58 Q1439.06 214.33 1434.34 214.33 Q1431.49 214.33 1429.43 213.219 Q1427.4 212.085 1426.05 209.77 M1440.55 200.719 Q1440.55 196.02 1438.6 193.358 Q1436.68 190.673 1433.3 190.673 Q1429.92 190.673 1427.98 193.358 Q1426.05 196.02 1426.05 200.719 Q1426.05 205.418 1427.98 208.104 Q1429.92 210.766 1433.3 210.766 Q1436.68 210.766 1438.6 208.104 Q1440.55 205.418 1440.55 200.719 Z" fill="#000000" fill-rule="nonzero" fill-opacity="1" /><path clip-path="url(#clip650)" d="M1463.81 200.627 Q1458.65 200.627 1456.66 201.807 Q1454.67 202.988 1454.67 205.835 Q1454.67 208.104 1456.15 209.446 Q1457.65 210.766 1460.22 210.766 Q1463.76 210.766 1465.89 208.266 Q1468.05 205.743 1468.05 201.576 L1468.05 200.627 L1463.81 200.627 M1472.3 198.868 L1472.3 213.659 L1468.05 213.659 L1468.05 209.724 Q1466.59 212.085 1464.41 213.219 Q1462.23 214.33 1459.09 214.33 Q1455.11 214.33 1452.74 212.108 Q1450.41 209.863 1450.41 206.113 Q1450.41 201.738 1453.32 199.516 Q1456.26 197.294 1462.07 197.294 L1468.05 197.294 L1468.05 196.877 Q1468.05 193.937 1466.1 192.34 Q1464.18 190.719 1460.68 190.719 Q1458.46 190.719 1456.36 191.252 Q1454.25 191.784 1452.3 192.849 L1452.3 188.914 Q1454.64 188.011 1456.84 187.571 Q1459.04 187.108 1461.12 187.108 Q1466.75 187.108 1469.53 190.025 Q1472.3 192.942 1472.3 198.868 Z" fill="#000000" fill-rule="nonzero" fill-opacity="1" /><path clip-path="url(#clip650)" d="M1480.92 177.641 L1485.2 177.641 L1485.2 198.914 L1497.91 187.733 L1503.35 187.733 L1489.6 199.863 L1503.92 213.659 L1498.37 213.659 L1485.2 200.997 L1485.2 213.659 L1480.92 213.659 L1480.92 177.641 Z" fill="#000000" fill-rule="nonzero" fill-opacity="1" /><path clip-path="url(#clip650)" d="M1519.48 200.627 Q1514.32 200.627 1512.33 201.807 Q1510.34 202.988 1510.34 205.835 Q1510.34 208.104 1511.82 209.446 Q1513.32 210.766 1515.89 210.766 Q1519.43 210.766 1521.56 208.266 Q1523.72 205.743 1523.72 201.576 L1523.72 200.627 L1519.48 200.627 M1527.98 198.868 L1527.98 213.659 L1523.72 213.659 L1523.72 209.724 Q1522.26 212.085 1520.08 213.219 Q1517.91 214.33 1514.76 214.33 Q1510.78 214.33 1508.42 212.108 Q1506.08 209.863 1506.08 206.113 Q1506.08 201.738 1508.99 199.516 Q1511.93 197.294 1517.74 197.294 L1523.72 197.294 L1523.72 196.877 Q1523.72 193.937 1521.77 192.34 Q1519.85 190.719 1516.36 190.719 Q1514.13 190.719 1512.03 191.252 Q1509.92 191.784 1507.98 192.849 L1507.98 188.914 Q1510.31 188.011 1512.51 187.571 Q1514.71 187.108 1516.79 187.108 Q1522.42 187.108 1525.2 190.025 Q1527.98 192.942 1527.98 198.868 Z" fill="#000000" fill-rule="nonzero" fill-opacity="1" /><path clip-path="url(#clip650)" d="M1572.72 180.233 L1572.72 184.794 Q1570.06 183.52 1567.7 182.895 Q1565.34 182.27 1563.14 182.27 Q1559.32 182.27 1557.23 183.752 Q1555.17 185.233 1555.17 187.965 Q1555.17 190.257 1556.54 191.437 Q1557.93 192.594 1561.77 193.312 L1564.6 193.891 Q1569.83 194.886 1572.3 197.409 Q1574.8 199.909 1574.8 204.122 Q1574.8 209.145 1571.42 211.738 Q1568.07 214.33 1561.56 214.33 Q1559.11 214.33 1556.33 213.775 Q1553.58 213.219 1550.61 212.131 L1550.61 207.317 Q1553.46 208.914 1556.19 209.724 Q1558.92 210.534 1561.56 210.534 Q1565.57 210.534 1567.74 208.96 Q1569.92 207.386 1569.92 204.469 Q1569.92 201.923 1568.35 200.488 Q1566.79 199.053 1563.23 198.335 L1560.38 197.78 Q1555.15 196.738 1552.81 194.516 Q1550.48 192.294 1550.48 188.335 Q1550.48 183.752 1553.69 181.113 Q1556.93 178.474 1562.6 178.474 Q1565.04 178.474 1567.56 178.914 Q1570.08 179.354 1572.72 180.233 Z" fill="#000000" fill-rule="nonzero" fill-opacity="1" /><path clip-path="url(#clip650)" d="M1581.91 187.733 L1586.17 187.733 L1586.17 213.659 L1581.91 213.659 L1581.91 187.733 M1581.91 177.641 L1586.17 177.641 L1586.17 183.034 L1581.91 183.034 L1581.91 177.641 Z" fill="#000000" fill-rule="nonzero" fill-opacity="1" /><path clip-path="url(#clip650)" d="M1615.27 192.71 Q1616.86 189.84 1619.09 188.474 Q1621.31 187.108 1624.32 187.108 Q1628.37 187.108 1630.57 189.956 Q1632.77 192.78 1632.77 198.011 L1632.77 213.659 L1628.48 213.659 L1628.48 198.15 Q1628.48 194.423 1627.16 192.618 Q1625.85 190.812 1623.14 190.812 Q1619.83 190.812 1617.91 193.011 Q1615.98 195.21 1615.98 199.006 L1615.98 213.659 L1611.7 213.659 L1611.7 198.15 Q1611.7 194.4 1610.38 192.618 Q1609.06 190.812 1606.31 190.812 Q1603.04 190.812 1601.12 193.034 Q1599.2 195.233 1599.2 199.006 L1599.2 213.659 L1594.92 213.659 L1594.92 187.733 L1599.2 187.733 L1599.2 191.761 Q1600.66 189.377 1602.7 188.243 Q1604.73 187.108 1607.54 187.108 Q1610.36 187.108 1612.33 188.544 Q1614.32 189.979 1615.27 192.71 Z" fill="#000000" fill-rule="nonzero" fill-opacity="1" /><path clip-path="url(#clip650)" d="M1645.38 209.77 L1645.38 223.52 L1641.1 223.52 L1641.1 187.733 L1645.38 187.733 L1645.38 191.669 Q1646.72 189.354 1648.76 188.243 Q1650.82 187.108 1653.67 187.108 Q1658.39 187.108 1661.33 190.858 Q1664.29 194.608 1664.29 200.719 Q1664.29 206.831 1661.33 210.58 Q1658.39 214.33 1653.67 214.33 Q1650.82 214.33 1648.76 213.219 Q1646.72 212.085 1645.38 209.77 M1659.87 200.719 Q1659.87 196.02 1657.93 193.358 Q1656.01 190.673 1652.63 190.673 Q1649.25 190.673 1647.3 193.358 Q1645.38 196.02 1645.38 200.719 Q1645.38 205.418 1647.3 208.104 Q1649.25 210.766 1652.63 210.766 Q1656.01 210.766 1657.93 208.104 Q1659.87 205.418 1659.87 200.719 Z" fill="#000000" fill-rule="nonzero" fill-opacity="1" /><path clip-path="url(#clip650)" d="M1687.88 188.497 L1687.88 192.525 Q1686.08 191.599 1684.13 191.136 Q1682.19 190.673 1680.1 190.673 Q1676.93 190.673 1675.34 191.645 Q1673.76 192.618 1673.76 194.562 Q1673.76 196.044 1674.9 196.9 Q1676.03 197.733 1679.46 198.497 L1680.91 198.821 Q1685.45 199.794 1687.35 201.576 Q1689.27 203.335 1689.27 206.506 Q1689.27 210.118 1686.4 212.224 Q1683.55 214.33 1678.55 214.33 Q1676.47 214.33 1674.2 213.914 Q1671.96 213.52 1669.46 212.71 L1669.46 208.312 Q1671.82 209.539 1674.11 210.164 Q1676.4 210.766 1678.65 210.766 Q1681.66 210.766 1683.28 209.747 Q1684.9 208.706 1684.9 206.831 Q1684.9 205.094 1683.72 204.168 Q1682.56 203.243 1678.6 202.386 L1677.12 202.039 Q1673.16 201.206 1671.4 199.493 Q1669.64 197.756 1669.64 194.747 Q1669.64 191.09 1672.23 189.099 Q1674.83 187.108 1679.59 187.108 Q1681.96 187.108 1684.04 187.456 Q1686.12 187.803 1687.88 188.497 Z" fill="#000000" fill-rule="nonzero" fill-opacity="1" /><path clip-path="url(#clip650)" d="M1706.1 190.719 Q1702.67 190.719 1700.68 193.405 Q1698.69 196.067 1698.69 200.719 Q1698.69 205.372 1700.66 208.057 Q1702.65 210.719 1706.1 210.719 Q1709.5 210.719 1711.49 208.034 Q1713.48 205.349 1713.48 200.719 Q1713.48 196.113 1711.49 193.428 Q1709.5 190.719 1706.1 190.719 M1706.1 187.108 Q1711.65 187.108 1714.83 190.719 Q1718 194.331 1718 200.719 Q1718 207.085 1714.83 210.719 Q1711.65 214.33 1706.1 214.33 Q1700.52 214.33 1697.35 210.719 Q1694.2 207.085 1694.2 200.719 Q1694.2 194.331 1697.35 190.719 Q1700.52 187.108 1706.1 187.108 Z" fill="#000000" fill-rule="nonzero" fill-opacity="1" /><path clip-path="url(#clip650)" d="M1746.61 198.011 L1746.61 213.659 L1742.35 213.659 L1742.35 198.15 Q1742.35 194.469 1740.91 192.641 Q1739.48 190.812 1736.61 190.812 Q1733.16 190.812 1731.17 193.011 Q1729.18 195.21 1729.18 199.006 L1729.18 213.659 L1724.9 213.659 L1724.9 187.733 L1729.18 187.733 L1729.18 191.761 Q1730.71 189.423 1732.77 188.266 Q1734.85 187.108 1737.56 187.108 Q1742.03 187.108 1744.32 189.886 Q1746.61 192.641 1746.61 198.011 Z" fill="#000000" fill-rule="nonzero" fill-opacity="1" /><path clip-path="url(#clip650)" d="M1765.15 190.719 Q1761.72 190.719 1759.73 193.405 Q1757.74 196.067 1757.74 200.719 Q1757.74 205.372 1759.71 208.057 Q1761.7 210.719 1765.15 210.719 Q1768.55 210.719 1770.54 208.034 Q1772.53 205.349 1772.53 200.719 Q1772.53 196.113 1770.54 193.428 Q1768.55 190.719 1765.15 190.719 M1765.15 187.108 Q1770.71 187.108 1773.88 190.719 Q1777.05 194.331 1777.05 200.719 Q1777.05 207.085 1773.88 210.719 Q1770.71 214.33 1765.15 214.33 Q1759.57 214.33 1756.4 210.719 Q1753.25 207.085 1753.25 200.719 Q1753.25 194.331 1756.4 190.719 Q1759.57 187.108 1765.15 187.108 Z" fill="#000000" fill-rule="nonzero" fill-opacity="1" /><path clip-path="url(#clip650)" d="M1781.05 187.733 L1785.57 187.733 L1793.67 209.493 L1801.77 187.733 L1806.28 187.733 L1796.56 213.659 L1790.77 213.659 L1781.05 187.733 Z" fill="#000000" fill-rule="nonzero" fill-opacity="1" /><path clip-path="url(#clip650)" d="M1834.34 199.631 L1834.34 201.715 L1814.76 201.715 Q1815.03 206.113 1817.4 208.428 Q1819.78 210.719 1824.02 210.719 Q1826.47 210.719 1828.76 210.118 Q1831.08 209.516 1833.34 208.312 L1833.34 212.34 Q1831.05 213.312 1828.65 213.821 Q1826.24 214.33 1823.76 214.33 Q1817.56 214.33 1813.92 210.719 Q1810.31 207.108 1810.31 200.951 Q1810.31 194.585 1813.74 190.858 Q1817.19 187.108 1823.02 187.108 Q1828.25 187.108 1831.28 190.488 Q1834.34 193.844 1834.34 199.631 M1830.08 198.381 Q1830.03 194.886 1828.11 192.803 Q1826.21 190.719 1823.07 190.719 Q1819.5 190.719 1817.35 192.733 Q1815.22 194.747 1814.9 198.405 L1830.08 198.381 Z" fill="#000000" fill-rule="nonzero" fill-opacity="1" /><path clip-path="url(#clip650)" d="M1869.52 177.641 L1869.52 181.183 L1865.45 181.183 Q1863.16 181.183 1862.26 182.108 Q1861.38 183.034 1861.38 185.442 L1861.38 187.733 L1868.39 187.733 L1868.39 191.044 L1861.38 191.044 L1861.38 213.659 L1857.09 213.659 L1857.09 191.044 L1853.02 191.044 L1853.02 187.733 L1857.09 187.733 L1857.09 185.928 Q1857.09 181.599 1859.11 179.632 Q1861.12 177.641 1865.5 177.641 L1869.52 177.641 Z" fill="#000000" fill-rule="nonzero" fill-opacity="1" /><path clip-path="url(#clip650)" d="M1883.14 190.719 Q1879.71 190.719 1877.72 193.405 Q1875.73 196.067 1875.73 200.719 Q1875.73 205.372 1877.7 208.057 Q1879.69 210.719 1883.14 210.719 Q1886.54 210.719 1888.53 208.034 Q1890.52 205.349 1890.52 200.719 Q1890.52 196.113 1888.53 193.428 Q1886.54 190.719 1883.14 190.719 M1883.14 187.108 Q1888.69 187.108 1891.86 190.719 Q1895.03 194.331 1895.03 200.719 Q1895.03 207.085 1891.86 210.719 Q1888.69 214.33 1883.14 214.33 Q1877.56 214.33 1874.39 210.719 Q1871.24 207.085 1871.24 200.719 Q1871.24 194.331 1874.39 190.719 Q1877.56 187.108 1883.14 187.108 Z" fill="#000000" fill-rule="nonzero" fill-opacity="1" /><path clip-path="url(#clip650)" d="M1917.12 191.715 Q1916.4 191.298 1915.54 191.113 Q1914.71 190.905 1913.69 190.905 Q1910.08 190.905 1908.14 193.266 Q1906.21 195.604 1906.21 200.002 L1906.21 213.659 L1901.93 213.659 L1901.93 187.733 L1906.21 187.733 L1906.21 191.761 Q1907.56 189.4 1909.71 188.266 Q1911.86 187.108 1914.94 187.108 Q1915.38 187.108 1915.91 187.178 Q1916.45 187.224 1917.09 187.34 L1917.12 191.715 Z" fill="#000000" fill-rule="nonzero" fill-opacity="1" /><path clip-path="url(#clip650)" d="M1940.94 192.71 Q1942.53 189.84 1944.76 188.474 Q1946.98 187.108 1949.99 187.108 Q1954.04 187.108 1956.24 189.956 Q1958.44 192.78 1958.44 198.011 L1958.44 213.659 L1954.15 213.659 L1954.15 198.15 Q1954.15 194.423 1952.83 192.618 Q1951.51 190.812 1948.81 190.812 Q1945.5 190.812 1943.57 193.011 Q1941.65 195.21 1941.65 199.006 L1941.65 213.659 L1937.37 213.659 L1937.37 198.15 Q1937.37 194.4 1936.05 192.618 Q1934.73 190.812 1931.98 190.812 Q1928.71 190.812 1926.79 193.034 Q1924.87 195.233 1924.87 199.006 L1924.87 213.659 L1920.59 213.659 L1920.59 187.733 L1924.87 187.733 L1924.87 191.761 Q1926.33 189.377 1928.37 188.243 Q1930.4 187.108 1933.2 187.108 Q1936.03 187.108 1938 188.544 Q1939.99 189.979 1940.94 192.71 Z" fill="#000000" fill-rule="nonzero" fill-opacity="1" /><path clip-path="url(#clip650)" d="M1966.49 203.428 L1966.49 187.733 L1970.75 187.733 L1970.75 203.266 Q1970.75 206.946 1972.19 208.798 Q1973.62 210.627 1976.49 210.627 Q1979.94 210.627 1981.93 208.428 Q1983.95 206.229 1983.95 202.432 L1983.95 187.733 L1988.2 187.733 L1988.2 213.659 L1983.95 213.659 L1983.95 209.678 Q1982.39 212.039 1980.33 213.196 Q1978.3 214.33 1975.59 214.33 Q1971.12 214.33 1968.81 211.553 Q1966.49 208.775 1966.49 203.428 M1977.21 187.108 L1977.21 187.108 Z" fill="#000000" fill-rule="nonzero" fill-opacity="1" /><path clip-path="url(#clip650)" d="M1996.98 177.641 L2001.24 177.641 L2001.24 213.659 L1996.98 213.659 L1996.98 177.641 Z" fill="#000000" fill-rule="nonzero" fill-opacity="1" /><path clip-path="url(#clip650)" d="M2032.32 199.631 L2032.32 201.715 L2012.74 201.715 Q2013.02 206.113 2015.38 208.428 Q2017.76 210.719 2022 210.719 Q2024.45 210.719 2026.75 210.118 Q2029.06 209.516 2031.33 208.312 L2031.33 212.34 Q2029.04 213.312 2026.63 213.821 Q2024.22 214.33 2021.75 214.33 Q2015.54 214.33 2011.91 210.719 Q2008.3 207.108 2008.3 200.951 Q2008.3 194.585 2011.72 190.858 Q2015.17 187.108 2021.01 187.108 Q2026.24 187.108 2029.27 190.488 Q2032.32 193.844 2032.32 199.631 M2028.07 198.381 Q2028.02 194.886 2026.1 192.803 Q2024.2 190.719 2021.05 190.719 Q2017.49 190.719 2015.33 192.733 Q2013.2 194.747 2012.88 198.405 L2028.07 198.381 Z" fill="#000000" fill-rule="nonzero" fill-opacity="1" /><circle clip-path="url(#clip650)" cx="1270.41" cy="248.219" r="20.48" fill="#3da44d" fill-rule="evenodd" fill-opacity="1" stroke="#000000" stroke-opacity="1" stroke-width="4.55111"/>
<path clip-path="url(#clip650)" d="M1384.39 249.851 L1384.39 265.499 L1380.13 265.499 L1380.13 249.99 Q1380.13 246.309 1378.69 244.481 Q1377.26 242.652 1374.39 242.652 Q1370.94 242.652 1368.95 244.851 Q1366.96 247.05 1366.96 250.846 L1366.96 265.499 L1362.68 265.499 L1362.68 239.573 L1366.96 239.573 L1366.96 243.601 Q1368.49 241.263 1370.55 240.106 Q1372.63 238.948 1375.34 238.948 Q1379.8 238.948 1382.1 241.726 Q1384.39 244.481 1384.39 249.851 Z" fill="#000000" fill-rule="nonzero" fill-opacity="1" /><path clip-path="url(#clip650)" d="M1404.67 252.467 Q1399.5 252.467 1397.51 253.647 Q1395.52 254.828 1395.52 257.675 Q1395.52 259.944 1397 261.286 Q1398.51 262.606 1401.08 262.606 Q1404.62 262.606 1406.75 260.106 Q1408.9 257.583 1408.9 253.416 L1408.9 252.467 L1404.67 252.467 M1413.16 250.708 L1413.16 265.499 L1408.9 265.499 L1408.9 261.564 Q1407.44 263.925 1405.27 265.059 Q1403.09 266.17 1399.94 266.17 Q1395.96 266.17 1393.6 263.948 Q1391.26 261.703 1391.26 257.953 Q1391.26 253.578 1394.18 251.356 Q1397.12 249.134 1402.93 249.134 L1408.9 249.134 L1408.9 248.717 Q1408.9 245.777 1406.96 244.18 Q1405.04 242.559 1401.54 242.559 Q1399.32 242.559 1397.21 243.092 Q1395.11 243.624 1393.16 244.689 L1393.16 240.754 Q1395.5 239.851 1397.7 239.411 Q1399.9 238.948 1401.98 238.948 Q1407.61 238.948 1410.38 241.865 Q1413.16 244.782 1413.16 250.708 Z" fill="#000000" fill-rule="nonzero" fill-opacity="1" /><path clip-path="url(#clip650)" d="M1426.05 261.61 L1426.05 275.36 L1421.77 275.36 L1421.77 239.573 L1426.05 239.573 L1426.05 243.509 Q1427.4 241.194 1429.43 240.083 Q1431.49 238.948 1434.34 238.948 Q1439.06 238.948 1442 242.698 Q1444.97 246.448 1444.97 252.559 Q1444.97 258.671 1442 262.42 Q1439.06 266.17 1434.34 266.17 Q1431.49 266.17 1429.43 265.059 Q1427.4 263.925 1426.05 261.61 M1440.55 252.559 Q1440.55 247.86 1438.6 245.198 Q1436.68 242.513 1433.3 242.513 Q1429.92 242.513 1427.98 245.198 Q1426.05 247.86 1426.05 252.559 Q1426.05 257.258 1427.98 259.944 Q1429.92 262.606 1433.3 262.606 Q1436.68 262.606 1438.6 259.944 Q1440.55 257.258 1440.55 252.559 Z" fill="#000000" fill-rule="nonzero" fill-opacity="1" /><path clip-path="url(#clip650)" d="M1463.81 252.467 Q1458.65 252.467 1456.66 253.647 Q1454.67 254.828 1454.67 257.675 Q1454.67 259.944 1456.15 261.286 Q1457.65 262.606 1460.22 262.606 Q1463.76 262.606 1465.89 260.106 Q1468.05 257.583 1468.05 253.416 L1468.05 252.467 L1463.81 252.467 M1472.3 250.708 L1472.3 265.499 L1468.05 265.499 L1468.05 261.564 Q1466.59 263.925 1464.41 265.059 Q1462.23 266.17 1459.09 266.17 Q1455.11 266.17 1452.74 263.948 Q1450.41 261.703 1450.41 257.953 Q1450.41 253.578 1453.32 251.356 Q1456.26 249.134 1462.07 249.134 L1468.05 249.134 L1468.05 248.717 Q1468.05 245.777 1466.1 244.18 Q1464.18 242.559 1460.68 242.559 Q1458.46 242.559 1456.36 243.092 Q1454.25 243.624 1452.3 244.689 L1452.3 240.754 Q1454.64 239.851 1456.84 239.411 Q1459.04 238.948 1461.12 238.948 Q1466.75 238.948 1469.53 241.865 Q1472.3 244.782 1472.3 250.708 Z" fill="#000000" fill-rule="nonzero" fill-opacity="1" /><path clip-path="url(#clip650)" d="M1480.92 229.481 L1485.2 229.481 L1485.2 250.754 L1497.91 239.573 L1503.35 239.573 L1489.6 251.703 L1503.92 265.499 L1498.37 265.499 L1485.2 252.837 L1485.2 265.499 L1480.92 265.499 L1480.92 229.481 Z" fill="#000000" fill-rule="nonzero" fill-opacity="1" /><path clip-path="url(#clip650)" d="M1519.48 252.467 Q1514.32 252.467 1512.33 253.647 Q1510.34 254.828 1510.34 257.675 Q1510.34 259.944 1511.82 261.286 Q1513.32 262.606 1515.89 262.606 Q1519.43 262.606 1521.56 260.106 Q1523.72 257.583 1523.72 253.416 L1523.72 252.467 L1519.48 252.467 M1527.98 250.708 L1527.98 265.499 L1523.72 265.499 L1523.72 261.564 Q1522.26 263.925 1520.08 265.059 Q1517.91 266.17 1514.76 266.17 Q1510.78 266.17 1508.42 263.948 Q1506.08 261.703 1506.08 257.953 Q1506.08 253.578 1508.99 251.356 Q1511.93 249.134 1517.74 249.134 L1523.72 249.134 L1523.72 248.717 Q1523.72 245.777 1521.77 244.18 Q1519.85 242.559 1516.36 242.559 Q1514.13 242.559 1512.03 243.092 Q1509.92 243.624 1507.98 244.689 L1507.98 240.754 Q1510.31 239.851 1512.51 239.411 Q1514.71 238.948 1516.79 238.948 Q1522.42 238.948 1525.2 241.865 Q1527.98 244.782 1527.98 250.708 Z" fill="#000000" fill-rule="nonzero" fill-opacity="1" /><path clip-path="url(#clip650)" d="M1575.57 260.569 L1575.57 251.286 L1567.93 251.286 L1567.93 247.444 L1580.2 247.444 L1580.2 262.282 Q1577.49 264.203 1574.23 265.198 Q1570.96 266.17 1567.26 266.17 Q1559.16 266.17 1554.57 261.448 Q1550.01 256.703 1550.01 248.254 Q1550.01 239.782 1554.57 235.06 Q1559.16 230.314 1567.26 230.314 Q1570.64 230.314 1573.67 231.148 Q1576.73 231.981 1579.29 233.601 L1579.29 238.578 Q1576.7 236.379 1573.79 235.268 Q1570.87 234.157 1567.65 234.157 Q1561.31 234.157 1558.11 237.698 Q1554.94 241.24 1554.94 248.254 Q1554.94 255.245 1558.11 258.786 Q1561.31 262.328 1567.65 262.328 Q1570.13 262.328 1572.07 261.911 Q1574.02 261.471 1575.57 260.569 Z" fill="#000000" fill-rule="nonzero" fill-opacity="1" /><path clip-path="url(#clip650)" d="M1600.34 252.467 Q1595.17 252.467 1593.18 253.647 Q1591.19 254.828 1591.19 257.675 Q1591.19 259.944 1592.67 261.286 Q1594.18 262.606 1596.75 262.606 Q1600.29 262.606 1602.42 260.106 Q1604.57 257.583 1604.57 253.416 L1604.57 252.467 L1600.34 252.467 M1608.83 250.708 L1608.83 265.499 L1604.57 265.499 L1604.57 261.564 Q1603.11 263.925 1600.94 265.059 Q1598.76 266.17 1595.61 266.17 Q1591.63 266.17 1589.27 263.948 Q1586.93 261.703 1586.93 257.953 Q1586.93 253.578 1589.85 251.356 Q1592.79 249.134 1598.6 249.134 L1604.57 249.134 L1604.57 248.717 Q1604.57 245.777 1602.63 244.18 Q1600.71 242.559 1597.21 242.559 Q1594.99 242.559 1592.88 243.092 Q1590.78 243.624 1588.83 244.689 L1588.83 240.754 Q1591.17 239.851 1593.37 239.411 Q1595.57 238.948 1597.65 238.948 Q1603.28 238.948 1606.05 241.865 Q1608.83 244.782 1608.83 250.708 Z" fill="#000000" fill-rule="nonzero" fill-opacity="1" /><path clip-path="url(#clip650)" d="M1617.16 255.268 L1617.16 239.573 L1621.42 239.573 L1621.42 255.106 Q1621.42 258.786 1622.86 260.638 Q1624.29 262.467 1627.16 262.467 Q1630.61 262.467 1632.6 260.268 Q1634.62 258.069 1634.62 254.272 L1634.62 239.573 L1638.88 239.573 L1638.88 265.499 L1634.62 265.499 L1634.62 261.518 Q1633.07 263.879 1631.01 265.036 Q1628.97 266.17 1626.26 266.17 Q1621.79 266.17 1619.48 263.393 Q1617.16 260.615 1617.16 255.268 M1627.88 238.948 L1627.88 238.948 Z" fill="#000000" fill-rule="nonzero" fill-opacity="1" /><path clip-path="url(#clip650)" d="M1664.18 240.337 L1664.18 244.365 Q1662.37 243.439 1660.43 242.976 Q1658.48 242.513 1656.4 242.513 Q1653.23 242.513 1651.63 243.485 Q1650.06 244.458 1650.06 246.402 Q1650.06 247.884 1651.19 248.74 Q1652.33 249.573 1655.75 250.337 L1657.21 250.661 Q1661.75 251.634 1663.65 253.416 Q1665.57 255.175 1665.57 258.346 Q1665.57 261.958 1662.7 264.064 Q1659.85 266.17 1654.85 266.17 Q1652.77 266.17 1650.5 265.754 Q1648.25 265.36 1645.75 264.55 L1645.75 260.152 Q1648.11 261.379 1650.41 262.004 Q1652.7 262.606 1654.94 262.606 Q1657.95 262.606 1659.57 261.587 Q1661.19 260.546 1661.19 258.671 Q1661.19 256.934 1660.01 256.008 Q1658.85 255.083 1654.9 254.226 L1653.41 253.879 Q1649.46 253.046 1647.7 251.333 Q1645.94 249.596 1645.94 246.587 Q1645.94 242.93 1648.53 240.939 Q1651.12 238.948 1655.89 238.948 Q1658.25 238.948 1660.34 239.296 Q1662.42 239.643 1664.18 240.337 Z" fill="#000000" fill-rule="nonzero" fill-opacity="1" /><path clip-path="url(#clip650)" d="M1688.88 240.337 L1688.88 244.365 Q1687.07 243.439 1685.13 242.976 Q1683.18 242.513 1681.1 242.513 Q1677.93 242.513 1676.33 243.485 Q1674.76 244.458 1674.76 246.402 Q1674.76 247.884 1675.89 248.74 Q1677.03 249.573 1680.45 250.337 L1681.91 250.661 Q1686.45 251.634 1688.34 253.416 Q1690.27 255.175 1690.27 258.346 Q1690.27 261.958 1687.4 264.064 Q1684.55 266.17 1679.55 266.17 Q1677.47 266.17 1675.2 265.754 Q1672.95 265.36 1670.45 264.55 L1670.45 260.152 Q1672.81 261.379 1675.1 262.004 Q1677.4 262.606 1679.64 262.606 Q1682.65 262.606 1684.27 261.587 Q1685.89 260.546 1685.89 258.671 Q1685.89 256.934 1684.71 256.008 Q1683.55 255.083 1679.59 254.226 L1678.11 253.879 Q1674.16 253.046 1672.4 251.333 Q1670.64 249.596 1670.64 246.587 Q1670.64 242.93 1673.23 240.939 Q1675.82 238.948 1680.59 238.948 Q1682.95 238.948 1685.03 239.296 Q1687.12 239.643 1688.88 240.337 Z" fill="#000000" fill-rule="nonzero" fill-opacity="1" /><path clip-path="url(#clip650)" d="M1694.9 250.615 L1707.37 250.615 L1707.37 254.411 L1694.9 254.411 L1694.9 250.615 Z" fill="#000000" fill-rule="nonzero" fill-opacity="1" /><path clip-path="url(#clip650)" d="M1714.34 230.939 L1719.02 230.939 L1719.02 261.564 L1735.84 261.564 L1735.84 265.499 L1714.34 265.499 L1714.34 230.939 Z" fill="#000000" fill-rule="nonzero" fill-opacity="1" /><path clip-path="url(#clip650)" d="M1761.91 251.471 L1761.91 253.555 L1742.33 253.555 Q1742.6 257.953 1744.96 260.268 Q1747.35 262.559 1751.59 262.559 Q1754.04 262.559 1756.33 261.958 Q1758.65 261.356 1760.91 260.152 L1760.91 264.18 Q1758.62 265.152 1756.21 265.661 Q1753.81 266.17 1751.33 266.17 Q1745.13 266.17 1741.49 262.559 Q1737.88 258.948 1737.88 252.791 Q1737.88 246.425 1741.31 242.698 Q1744.76 238.948 1750.59 238.948 Q1755.82 238.948 1758.85 242.328 Q1761.91 245.684 1761.91 251.471 M1757.65 250.221 Q1757.6 246.726 1755.68 244.643 Q1753.78 242.559 1750.64 242.559 Q1747.07 242.559 1744.92 244.573 Q1742.79 246.587 1742.46 250.245 L1757.65 250.221 Z" fill="#000000" fill-rule="nonzero" fill-opacity="1" /><path clip-path="url(#clip650)" d="M1785.96 252.235 Q1785.96 247.606 1784.04 245.059 Q1782.14 242.513 1778.69 242.513 Q1775.27 242.513 1773.34 245.059 Q1771.45 247.606 1771.45 252.235 Q1771.45 256.842 1773.34 259.388 Q1775.27 261.934 1778.69 261.934 Q1782.14 261.934 1784.04 259.388 Q1785.96 256.842 1785.96 252.235 M1790.22 262.282 Q1790.22 268.902 1787.28 272.12 Q1784.34 275.36 1778.27 275.36 Q1776.03 275.36 1774.04 275.013 Q1772.05 274.689 1770.17 273.995 L1770.17 269.851 Q1772.05 270.87 1773.88 271.356 Q1775.71 271.842 1777.6 271.842 Q1781.79 271.842 1783.88 269.643 Q1785.96 267.467 1785.96 263.045 L1785.96 260.939 Q1784.64 263.231 1782.58 264.365 Q1780.52 265.499 1777.65 265.499 Q1772.88 265.499 1769.96 261.865 Q1767.05 258.231 1767.05 252.235 Q1767.05 246.217 1769.96 242.583 Q1772.88 238.948 1777.65 238.948 Q1780.52 238.948 1782.58 240.083 Q1784.64 241.217 1785.96 243.509 L1785.96 239.573 L1790.22 239.573 L1790.22 262.282 Z" fill="#000000" fill-rule="nonzero" fill-opacity="1" /><path clip-path="url(#clip650)" d="M1821.17 251.471 L1821.17 253.555 L1801.58 253.555 Q1801.86 257.953 1804.22 260.268 Q1806.61 262.559 1810.84 262.559 Q1813.3 262.559 1815.59 261.958 Q1817.9 261.356 1820.17 260.152 L1820.17 264.18 Q1817.88 265.152 1815.47 265.661 Q1813.07 266.17 1810.59 266.17 Q1804.39 266.17 1800.75 262.559 Q1797.14 258.948 1797.14 252.791 Q1797.14 246.425 1800.57 242.698 Q1804.02 238.948 1809.85 238.948 Q1815.08 238.948 1818.11 242.328 Q1821.17 245.684 1821.17 251.471 M1816.91 250.221 Q1816.86 246.726 1814.94 244.643 Q1813.04 242.559 1809.9 242.559 Q1806.33 242.559 1804.18 244.573 Q1802.05 246.587 1801.72 250.245 L1816.91 250.221 Z" fill="#000000" fill-rule="nonzero" fill-opacity="1" /><path clip-path="url(#clip650)" d="M1849.71 249.851 L1849.71 265.499 L1845.45 265.499 L1845.45 249.99 Q1845.45 246.309 1844.02 244.481 Q1842.58 242.652 1839.71 242.652 Q1836.26 242.652 1834.27 244.851 Q1832.28 247.05 1832.28 250.846 L1832.28 265.499 L1828 265.499 L1828 239.573 L1832.28 239.573 L1832.28 243.601 Q1833.81 241.263 1835.87 240.106 Q1837.95 238.948 1840.66 238.948 Q1845.13 238.948 1847.42 241.726 Q1849.71 244.481 1849.71 249.851 Z" fill="#000000" fill-rule="nonzero" fill-opacity="1" /><path clip-path="url(#clip650)" d="M1875.27 243.509 L1875.27 229.481 L1879.52 229.481 L1879.52 265.499 L1875.27 265.499 L1875.27 261.61 Q1873.92 263.925 1871.86 265.059 Q1869.83 266.17 1866.95 266.17 Q1862.26 266.17 1859.29 262.42 Q1856.35 258.671 1856.35 252.559 Q1856.35 246.448 1859.29 242.698 Q1862.26 238.948 1866.95 238.948 Q1869.83 238.948 1871.86 240.083 Q1873.92 241.194 1875.27 243.509 M1860.75 252.559 Q1860.75 257.258 1862.67 259.944 Q1864.62 262.606 1868 262.606 Q1871.38 262.606 1873.32 259.944 Q1875.27 257.258 1875.27 252.559 Q1875.27 247.86 1873.32 245.198 Q1871.38 242.513 1868 242.513 Q1864.62 242.513 1862.67 245.198 Q1860.75 247.86 1860.75 252.559 Z" fill="#000000" fill-rule="nonzero" fill-opacity="1" /><path clip-path="url(#clip650)" d="M1903.32 243.555 Q1902.6 243.138 1901.75 242.953 Q1900.91 242.745 1899.89 242.745 Q1896.28 242.745 1894.34 245.106 Q1892.42 247.444 1892.42 251.842 L1892.42 265.499 L1888.14 265.499 L1888.14 239.573 L1892.42 239.573 L1892.42 243.601 Q1893.76 241.24 1895.91 240.106 Q1898.07 238.948 1901.14 238.948 Q1901.58 238.948 1902.12 239.018 Q1902.65 239.064 1903.3 239.18 L1903.32 243.555 Z" fill="#000000" fill-rule="nonzero" fill-opacity="1" /><path clip-path="url(#clip650)" d="M1916.79 242.559 Q1913.37 242.559 1911.38 245.245 Q1909.39 247.907 1909.39 252.559 Q1909.39 257.212 1911.35 259.897 Q1913.34 262.559 1916.79 262.559 Q1920.2 262.559 1922.19 259.874 Q1924.18 257.189 1924.18 252.559 Q1924.18 247.953 1922.19 245.268 Q1920.2 242.559 1916.79 242.559 M1916.79 238.948 Q1922.35 238.948 1925.52 242.559 Q1928.69 246.171 1928.69 252.559 Q1928.69 258.925 1925.52 262.559 Q1922.35 266.17 1916.79 266.17 Q1911.21 266.17 1908.04 262.559 Q1904.89 258.925 1904.89 252.559 Q1904.89 246.171 1908.04 242.559 Q1911.21 238.948 1916.79 238.948 Z" fill="#000000" fill-rule="nonzero" fill-opacity="1" /><path clip-path="url(#clip650)" d="M1932.7 239.573 L1937.21 239.573 L1945.31 261.333 L1953.41 239.573 L1957.93 239.573 L1948.2 265.499 L1942.42 265.499 L1932.7 239.573 Z" fill="#000000" fill-rule="nonzero" fill-opacity="1" /><path clip-path="url(#clip650)" d="M1985.98 251.471 L1985.98 253.555 L1966.4 253.555 Q1966.68 257.953 1969.04 260.268 Q1971.42 262.559 1975.66 262.559 Q1978.11 262.559 1980.4 261.958 Q1982.72 261.356 1984.99 260.152 L1984.99 264.18 Q1982.7 265.152 1980.29 265.661 Q1977.88 266.17 1975.4 266.17 Q1969.2 266.17 1965.57 262.559 Q1961.95 258.948 1961.95 252.791 Q1961.95 246.425 1965.38 242.698 Q1968.83 238.948 1974.66 238.948 Q1979.89 238.948 1982.93 242.328 Q1985.98 245.684 1985.98 251.471 M1981.72 250.221 Q1981.68 246.726 1979.76 244.643 Q1977.86 242.559 1974.71 242.559 Q1971.14 242.559 1968.99 244.573 Q1966.86 246.587 1966.54 250.245 L1981.72 250.221 Z" fill="#000000" fill-rule="nonzero" fill-opacity="1" /><path clip-path="url(#clip650)" d="M2007.88 229.481 L2012.16 229.481 L2012.16 250.754 L2024.87 239.573 L2030.31 239.573 L2016.56 251.703 L2030.89 265.499 L2025.33 265.499 L2012.16 252.837 L2012.16 265.499 L2007.88 265.499 L2007.88 229.481 Z" fill="#000000" fill-rule="nonzero" fill-opacity="1" /><path clip-path="url(#clip650)" d="M2032.44 239.573 L2036.95 239.573 L2045.06 261.333 L2053.16 239.573 L2057.67 239.573 L2047.95 265.499 L2042.16 265.499 L2032.44 239.573 Z" fill="#000000" fill-rule="nonzero" fill-opacity="1" /><path clip-path="url(#clip650)" d="M2075.33 252.467 Q2070.17 252.467 2068.18 253.647 Q2066.19 254.828 2066.19 257.675 Q2066.19 259.944 2067.67 261.286 Q2069.18 262.606 2071.75 262.606 Q2075.29 262.606 2077.42 260.106 Q2079.57 257.583 2079.57 253.416 L2079.57 252.467 L2075.33 252.467 M2083.83 250.708 L2083.83 265.499 L2079.57 265.499 L2079.57 261.564 Q2078.11 263.925 2075.94 265.059 Q2073.76 266.17 2070.61 266.17 Q2066.63 266.17 2064.27 263.948 Q2061.93 261.703 2061.93 257.953 Q2061.93 253.578 2064.85 251.356 Q2067.79 249.134 2073.6 249.134 L2079.57 249.134 L2079.57 248.717 Q2079.57 245.777 2077.63 244.18 Q2075.7 242.559 2072.21 242.559 Q2069.99 242.559 2067.88 243.092 Q2065.77 243.624 2063.83 244.689 L2063.83 240.754 Q2066.17 239.851 2068.37 239.411 Q2070.57 238.948 2072.65 238.948 Q2078.27 238.948 2081.05 241.865 Q2083.83 244.782 2083.83 250.708 Z" fill="#000000" fill-rule="nonzero" fill-opacity="1" /><path clip-path="url(#clip650)" d="M2109.66 243.509 L2109.66 229.481 L2113.92 229.481 L2113.92 265.499 L2109.66 265.499 L2109.66 261.61 Q2108.32 263.925 2106.26 265.059 Q2104.22 266.17 2101.35 266.17 Q2096.65 266.17 2093.69 262.42 Q2090.75 258.671 2090.75 252.559 Q2090.75 246.448 2093.69 242.698 Q2096.65 238.948 2101.35 238.948 Q2104.22 238.948 2106.26 240.083 Q2108.32 241.194 2109.66 243.509 M2095.15 252.559 Q2095.15 257.258 2097.07 259.944 Q2099.01 262.606 2102.39 262.606 Q2105.77 262.606 2107.72 259.944 Q2109.66 257.258 2109.66 252.559 Q2109.66 247.86 2107.72 245.198 Q2105.77 242.513 2102.39 242.513 Q2099.01 242.513 2097.07 245.198 Q2095.15 247.86 2095.15 252.559 Z" fill="#000000" fill-rule="nonzero" fill-opacity="1" /><path clip-path="url(#clip650)" d="M2137.72 243.555 Q2137 243.138 2136.14 242.953 Q2135.31 242.745 2134.29 242.745 Q2130.68 242.745 2128.74 245.106 Q2126.81 247.444 2126.81 251.842 L2126.81 265.499 L2122.53 265.499 L2122.53 239.573 L2126.81 239.573 L2126.81 243.601 Q2128.16 241.24 2130.31 240.106 Q2132.46 238.948 2135.54 238.948 Q2135.98 238.948 2136.51 239.018 Q2137.05 239.064 2137.69 239.18 L2137.72 243.555 Z" fill="#000000" fill-rule="nonzero" fill-opacity="1" /><path clip-path="url(#clip650)" d="M2153.97 252.467 Q2148.81 252.467 2146.81 253.647 Q2144.82 254.828 2144.82 257.675 Q2144.82 259.944 2146.31 261.286 Q2147.81 262.606 2150.38 262.606 Q2153.92 262.606 2156.05 260.106 Q2158.2 257.583 2158.2 253.416 L2158.2 252.467 L2153.97 252.467 M2162.46 250.708 L2162.46 265.499 L2158.2 265.499 L2158.2 261.564 Q2156.75 263.925 2154.57 265.059 Q2152.39 266.17 2149.25 266.17 Q2145.26 266.17 2142.9 263.948 Q2140.56 261.703 2140.56 257.953 Q2140.56 253.578 2143.48 251.356 Q2146.42 249.134 2152.23 249.134 L2158.2 249.134 L2158.2 248.717 Q2158.2 245.777 2156.26 244.18 Q2154.34 242.559 2150.84 242.559 Q2148.62 242.559 2146.51 243.092 Q2144.41 243.624 2142.46 244.689 L2142.46 240.754 Q2144.8 239.851 2147 239.411 Q2149.2 238.948 2151.28 238.948 Q2156.91 238.948 2159.68 241.865 Q2162.46 244.782 2162.46 250.708 Z" fill="#000000" fill-rule="nonzero" fill-opacity="1" /><path clip-path="url(#clip650)" d="M2175.45 232.212 L2175.45 239.573 L2184.22 239.573 L2184.22 242.884 L2175.45 242.884 L2175.45 256.958 Q2175.45 260.129 2176.31 261.032 Q2177.18 261.934 2179.85 261.934 L2184.22 261.934 L2184.22 265.499 L2179.85 265.499 Q2174.92 265.499 2173.04 263.67 Q2171.17 261.819 2171.17 256.958 L2171.17 242.884 L2168.04 242.884 L2168.04 239.573 L2171.17 239.573 L2171.17 232.212 L2175.45 232.212 Z" fill="#000000" fill-rule="nonzero" fill-opacity="1" /><path clip-path="url(#clip650)" d="M2189.38 255.268 L2189.38 239.573 L2193.64 239.573 L2193.64 255.106 Q2193.64 258.786 2195.08 260.638 Q2196.51 262.467 2199.38 262.467 Q2202.83 262.467 2204.82 260.268 Q2206.84 258.069 2206.84 254.272 L2206.84 239.573 L2211.1 239.573 L2211.1 265.499 L2206.84 265.499 L2206.84 261.518 Q2205.29 263.879 2203.23 265.036 Q2201.19 266.17 2198.48 266.17 Q2194.01 266.17 2191.7 263.393 Q2189.38 260.615 2189.38 255.268 M2200.1 238.948 L2200.1 238.948 Z" fill="#000000" fill-rule="nonzero" fill-opacity="1" /><path clip-path="url(#clip650)" d="M2234.89 243.555 Q2234.18 243.138 2233.32 242.953 Q2232.49 242.745 2231.47 242.745 Q2227.86 242.745 2225.91 245.106 Q2223.99 247.444 2223.99 251.842 L2223.99 265.499 L2219.71 265.499 L2219.71 239.573 L2223.99 239.573 L2223.99 243.601 Q2225.33 241.24 2227.49 240.106 Q2229.64 238.948 2232.72 238.948 Q2233.16 238.948 2233.69 239.018 Q2234.22 239.064 2234.87 239.18 L2234.89 243.555 Z" fill="#000000" fill-rule="nonzero" fill-opacity="1" /><path clip-path="url(#clip650)" d="M2260.49 251.471 L2260.49 253.555 L2240.91 253.555 Q2241.19 257.953 2243.55 260.268 Q2245.93 262.559 2250.17 262.559 Q2252.62 262.559 2254.92 261.958 Q2257.23 261.356 2259.5 260.152 L2259.5 264.18 Q2257.21 265.152 2254.8 265.661 Q2252.39 266.17 2249.92 266.17 Q2243.71 266.17 2240.08 262.559 Q2236.47 258.948 2236.47 252.791 Q2236.47 246.425 2239.89 242.698 Q2243.34 238.948 2249.18 238.948 Q2254.41 238.948 2257.44 242.328 Q2260.49 245.684 2260.49 251.471 M2256.24 250.221 Q2256.19 246.726 2254.27 244.643 Q2252.37 242.559 2249.22 242.559 Q2245.66 242.559 2243.5 244.573 Q2241.37 246.587 2241.05 250.245 L2256.24 250.221 Z" fill="#000000" fill-rule="nonzero" fill-opacity="1" /></svg>
