<?xml version="1.0" encoding="utf-8"?>
<svg xmlns="http://www.w3.org/2000/svg" xmlns:xlink="http://www.w3.org/1999/xlink" width="600" height="400" viewBox="0 0 2400 1600">
<defs>
  <clipPath id="clip670">
    <rect x="0" y="0" width="2400" height="1600"/>
  </clipPath>
</defs>
<path clip-path="url(#clip670)" d="M0 1600 L2400 1600 L2400 0 L0 0  Z" fill="#ffffff" fill-rule="evenodd" fill-opacity="1"/>
<defs>
  <clipPath id="clip671">
    <rect x="480" y="0" width="1681" height="1600"/>
  </clipPath>
</defs>
<path clip-path="url(#clip670)" d="M276.876 1410.9 L2352.76 1410.9 L2352.76 47.2441 L276.876 47.2441  Z" fill="#ffffff" fill-rule="evenodd" fill-opacity="1"/>
<defs>
  <clipPath id="clip672">
    <rect x="276" y="47" width="2077" height="1365"/>
  </clipPath>
</defs>
<polyline clip-path="url(#clip672)" style="stroke:#000000; stroke-linecap:round; stroke-linejoin:round; stroke-width:2; stroke-opacity:0.1; fill:none" points="884.553,1410.9 884.553,47.2441 "/>
<polyline clip-path="url(#clip672)" style="stroke:#000000; stroke-linecap:round; stroke-linejoin:round; stroke-width:2; stroke-opacity:0.1; fill:none" points="1885.41,1410.9 1885.41,47.2441 "/>
<polyline clip-path="url(#clip672)" style="stroke:#000000; stroke-linecap:round; stroke-linejoin:round; stroke-width:2; stroke-opacity:0.1; fill:none" points="276.876,197.222 2352.76,197.222 "/>
<polyline clip-path="url(#clip672)" style="stroke:#000000; stroke-linecap:round; stroke-linejoin:round; stroke-width:2; stroke-opacity:0.1; fill:none" points="276.876,496.25 2352.76,496.25 "/>
<polyline clip-path="url(#clip672)" style="stroke:#000000; stroke-linecap:round; stroke-linejoin:round; stroke-width:2; stroke-opacity:0.1; fill:none" points="276.876,795.278 2352.76,795.278 "/>
<polyline clip-path="url(#clip672)" style="stroke:#000000; stroke-linecap:round; stroke-linejoin:round; stroke-width:2; stroke-opacity:0.1; fill:none" points="276.876,1094.31 2352.76,1094.31 "/>
<polyline clip-path="url(#clip672)" style="stroke:#000000; stroke-linecap:round; stroke-linejoin:round; stroke-width:2; stroke-opacity:0.1; fill:none" points="276.876,1393.33 2352.76,1393.33 "/>
<polyline clip-path="url(#clip670)" style="stroke:#000000; stroke-linecap:round; stroke-linejoin:round; stroke-width:4; stroke-opacity:1; fill:none" points="276.876,1410.9 2352.76,1410.9 "/>
<polyline clip-path="url(#clip670)" style="stroke:#000000; stroke-linecap:round; stroke-linejoin:round; stroke-width:4; stroke-opacity:1; fill:none" points="884.553,1410.9 884.553,1392 "/>
<polyline clip-path="url(#clip670)" style="stroke:#000000; stroke-linecap:round; stroke-linejoin:round; stroke-width:4; stroke-opacity:1; fill:none" points="1885.41,1410.9 1885.41,1392 "/>
<path clip-path="url(#clip670)" d="M850.325 1485.02 L857.964 1485.02 L857.964 1458.66 L849.654 1460.32 L849.654 1456.06 L857.918 1454.4 L862.594 1454.4 L862.594 1485.02 L870.233 1485.02 L870.233 1488.96 L850.325 1488.96 L850.325 1485.02 Z" fill="#000000" fill-rule="nonzero" fill-opacity="1" /><path clip-path="url(#clip670)" d="M889.677 1457.48 Q886.066 1457.48 884.237 1461.04 Q882.432 1464.58 882.432 1471.71 Q882.432 1478.82 884.237 1482.38 Q886.066 1485.92 889.677 1485.92 Q893.311 1485.92 895.117 1482.38 Q896.945 1478.82 896.945 1471.71 Q896.945 1464.58 895.117 1461.04 Q893.311 1457.48 889.677 1457.48 M889.677 1453.77 Q895.487 1453.77 898.543 1458.38 Q901.621 1462.96 901.621 1471.71 Q901.621 1480.44 898.543 1485.04 Q895.487 1489.63 889.677 1489.63 Q883.867 1489.63 880.788 1485.04 Q877.733 1480.44 877.733 1471.71 Q877.733 1462.96 880.788 1458.38 Q883.867 1453.77 889.677 1453.77 Z" fill="#000000" fill-rule="nonzero" fill-opacity="1" /><path clip-path="url(#clip670)" d="M906.192 1458.35 L919.451 1458.35 L919.451 1461.55 L901.621 1461.55 L901.621 1458.35 Q903.784 1456.11 907.508 1452.35 Q911.251 1448.57 912.21 1447.48 Q914.034 1445.43 914.749 1444.02 Q915.483 1442.59 915.483 1441.22 Q915.483 1438.98 913.903 1437.57 Q912.342 1436.16 909.822 1436.16 Q908.035 1436.16 906.041 1436.78 Q904.066 1437.4 901.809 1438.66 L901.809 1434.82 Q904.104 1433.9 906.098 1433.43 Q908.091 1432.96 909.746 1432.96 Q914.11 1432.96 916.705 1435.14 Q919.301 1437.32 919.301 1440.97 Q919.301 1442.7 918.642 1444.26 Q918.003 1445.8 916.291 1447.91 Q915.821 1448.46 913.301 1451.07 Q910.781 1453.67 906.192 1458.35 Z" fill="#000000" fill-rule="nonzero" fill-opacity="1" /><path clip-path="url(#clip670)" d="M1849.87 1485.02 L1857.51 1485.02 L1857.51 1458.66 L1849.2 1460.32 L1849.2 1456.06 L1857.46 1454.4 L1862.14 1454.4 L1862.14 1485.02 L1869.77 1485.02 L1869.77 1488.96 L1849.87 1488.96 L1849.87 1485.02 Z" fill="#000000" fill-rule="nonzero" fill-opacity="1" /><path clip-path="url(#clip670)" d="M1889.22 1457.48 Q1885.61 1457.48 1883.78 1461.04 Q1881.97 1464.58 1881.97 1471.71 Q1881.97 1478.82 1883.78 1482.38 Q1885.61 1485.92 1889.22 1485.92 Q1892.85 1485.92 1894.66 1482.38 Q1896.49 1478.82 1896.49 1471.71 Q1896.49 1464.58 1894.66 1461.04 Q1892.85 1457.48 1889.22 1457.48 M1889.22 1453.77 Q1895.03 1453.77 1898.08 1458.38 Q1901.16 1462.96 1901.16 1471.71 Q1901.16 1480.44 1898.08 1485.04 Q1895.03 1489.63 1889.22 1489.63 Q1883.41 1489.63 1880.33 1485.04 Q1877.27 1480.44 1877.27 1471.71 Q1877.27 1462.96 1880.33 1458.38 Q1883.41 1453.77 1889.22 1453.77 Z" fill="#000000" fill-rule="nonzero" fill-opacity="1" /><path clip-path="url(#clip670)" d="M1913.84 1436.78 L1904.25 1451.77 L1913.84 1451.77 L1913.84 1436.78 M1912.84 1433.47 L1917.62 1433.47 L1917.62 1451.77 L1921.63 1451.77 L1921.63 1454.93 L1917.62 1454.93 L1917.62 1461.55 L1913.84 1461.55 L1913.84 1454.93 L1901.16 1454.93 L1901.16 1451.26 L1912.84 1433.47 Z" fill="#000000" fill-rule="nonzero" fill-opacity="1" /><path clip-path="url(#clip670)" d="M883.762 1539.59 L883.762 1545.13 Q881.279 1543.85 878.606 1543.22 Q875.932 1542.58 873.067 1542.58 Q868.707 1542.58 866.511 1543.92 Q864.346 1545.25 864.346 1547.93 Q864.346 1549.96 865.906 1551.14 Q867.466 1552.29 872.176 1553.34 L874.181 1553.78 Q880.42 1555.12 883.03 1557.57 Q885.672 1559.99 885.672 1564.35 Q885.672 1569.32 881.725 1572.21 Q877.81 1575.11 870.935 1575.11 Q868.07 1575.11 864.951 1574.54 Q861.864 1573.99 858.426 1572.88 L858.426 1566.83 Q861.673 1568.52 864.824 1569.38 Q867.975 1570.21 871.062 1570.21 Q875.2 1570.21 877.428 1568.81 Q879.656 1567.37 879.656 1564.8 Q879.656 1562.41 878.033 1561.14 Q876.441 1559.86 870.999 1558.68 L868.962 1558.21 Q863.519 1557.06 861.1 1554.71 Q858.681 1552.32 858.681 1548.18 Q858.681 1543.15 862.246 1540.42 Q865.811 1537.68 872.367 1537.68 Q875.614 1537.68 878.478 1538.16 Q881.343 1538.63 883.762 1539.59 M870.203 1534.02 L862.405 1522.05 L866.829 1522.05 L872.558 1529.85 L878.287 1522.05 L882.712 1522.05 L874.914 1534.02 L870.203 1534.02 M872.431 1537.68 L872.431 1537.68 Z" fill="#000000" fill-rule="nonzero" fill-opacity="1" /><path clip-path="url(#clip670)" d="M900.79 1528.42 L900.79 1538.54 L912.853 1538.54 L912.853 1543.09 L900.79 1543.09 L900.79 1562.44 Q900.79 1566.8 901.968 1568.04 Q903.177 1569.28 906.838 1569.28 L912.853 1569.28 L912.853 1574.19 L906.838 1574.19 Q900.058 1574.19 897.48 1571.67 Q894.902 1569.12 894.902 1562.44 L894.902 1543.09 L890.605 1543.09 L890.605 1538.54 L894.902 1538.54 L894.902 1528.42 L900.79 1528.42 Z" fill="#000000" fill-rule="nonzero" fill-opacity="1" /><path clip-path="url(#clip670)" d="M951.047 1554.9 L951.047 1557.76 L924.12 1557.76 Q924.502 1563.81 927.749 1566.99 Q931.027 1570.14 936.852 1570.14 Q940.226 1570.14 943.377 1569.32 Q946.56 1568.49 949.679 1566.83 L949.679 1572.37 Q946.528 1573.71 943.218 1574.41 Q939.907 1575.11 936.502 1575.11 Q927.972 1575.11 922.975 1570.14 Q918.009 1565.18 918.009 1556.71 Q918.009 1547.96 922.72 1542.83 Q927.462 1537.68 935.483 1537.68 Q942.676 1537.68 946.846 1542.33 Q951.047 1546.94 951.047 1554.9 M945.191 1553.18 Q945.127 1548.37 942.486 1545.51 Q939.876 1542.64 935.547 1542.64 Q930.645 1542.64 927.685 1545.41 Q924.757 1548.18 924.311 1553.21 L945.191 1553.18 Z" fill="#000000" fill-rule="nonzero" fill-opacity="1" /><path clip-path="url(#clip670)" d="M956.458 1538.54 L962.665 1538.54 L973.805 1568.46 L984.945 1538.54 L991.151 1538.54 L977.783 1574.19 L969.826 1574.19 L956.458 1538.54 Z" fill="#000000" fill-rule="nonzero" fill-opacity="1" /><path clip-path="url(#clip670)" d="M999.236 1538.54 L1005.09 1538.54 L1005.09 1574.19 L999.236 1574.19 L999.236 1538.54 M999.236 1524.66 L1005.09 1524.66 L1005.09 1532.08 L999.236 1532.08 L999.236 1524.66 Z" fill="#000000" fill-rule="nonzero" fill-opacity="1" /><path clip-path="url(#clip670)" d="M1017.35 1524.66 L1023.2 1524.66 L1023.2 1574.19 L1017.35 1574.19 L1017.35 1524.66 Z" fill="#000000" fill-rule="nonzero" fill-opacity="1" /><path clip-path="url(#clip670)" d="M1049.27 1542.64 Q1044.56 1542.64 1041.82 1546.34 Q1039.09 1550 1039.09 1556.39 Q1039.09 1562.79 1041.79 1566.48 Q1044.53 1570.14 1049.27 1570.14 Q1053.95 1570.14 1056.69 1566.45 Q1059.42 1562.76 1059.42 1556.39 Q1059.42 1550.06 1056.69 1546.37 Q1053.95 1542.64 1049.27 1542.64 M1049.27 1537.68 Q1056.91 1537.68 1061.27 1542.64 Q1065.63 1547.61 1065.63 1556.39 Q1065.63 1565.15 1061.27 1570.14 Q1056.91 1575.11 1049.27 1575.11 Q1041.6 1575.11 1037.24 1570.14 Q1032.91 1565.15 1032.91 1556.39 Q1032.91 1547.61 1037.24 1542.64 Q1041.6 1537.68 1049.27 1537.68 Z" fill="#000000" fill-rule="nonzero" fill-opacity="1" /><path clip-path="url(#clip670)" d="M1114.1 1524.66 L1114.1 1529.53 L1108.5 1529.53 Q1105.35 1529.53 1104.11 1530.8 Q1102.9 1532.08 1102.9 1535.39 L1102.9 1538.54 L1112.55 1538.54 L1112.55 1543.09 L1102.9 1543.09 L1102.9 1574.19 L1097.01 1574.19 L1097.01 1543.09 L1091.41 1543.09 L1091.41 1538.54 L1097.01 1538.54 L1097.01 1536.05 Q1097.01 1530.1 1099.78 1527.4 Q1102.55 1524.66 1108.57 1524.66 L1114.1 1524.66 Z" fill="#000000" fill-rule="nonzero" fill-opacity="1" /><path clip-path="url(#clip670)" d="M1118.4 1560.12 L1118.4 1538.54 L1124.26 1538.54 L1124.26 1559.89 Q1124.26 1564.96 1126.23 1567.5 Q1128.21 1570.02 1132.15 1570.02 Q1136.89 1570.02 1139.63 1566.99 Q1142.4 1563.97 1142.4 1558.75 L1142.4 1538.54 L1148.26 1538.54 L1148.26 1574.19 L1142.4 1574.19 L1142.4 1568.71 Q1140.27 1571.96 1137.44 1573.55 Q1134.63 1575.11 1130.91 1575.11 Q1124.77 1575.11 1121.58 1571.29 Q1118.4 1567.47 1118.4 1560.12 M1133.14 1537.68 L1133.14 1537.68 Z" fill="#000000" fill-rule="nonzero" fill-opacity="1" /><path clip-path="url(#clip670)" d="M1189.95 1552.67 L1189.95 1574.19 L1184.1 1574.19 L1184.1 1552.86 Q1184.1 1547.8 1182.12 1545.29 Q1180.15 1542.77 1176.2 1542.77 Q1171.46 1542.77 1168.72 1545.79 Q1165.99 1548.82 1165.99 1554.04 L1165.99 1574.19 L1160.1 1574.19 L1160.1 1538.54 L1165.99 1538.54 L1165.99 1544.08 Q1168.09 1540.86 1170.92 1539.27 Q1173.78 1537.68 1177.51 1537.68 Q1183.65 1537.68 1186.8 1541.5 Q1189.95 1545.29 1189.95 1552.67 Z" fill="#000000" fill-rule="nonzero" fill-opacity="1" /><path clip-path="url(#clip670)" d="M1201.41 1524.66 L1207.3 1524.66 L1207.3 1553.91 L1224.77 1538.54 L1232.25 1538.54 L1213.35 1555.22 L1233.05 1574.19 L1225.41 1574.19 L1207.3 1556.78 L1207.3 1574.19 L1201.41 1574.19 L1201.41 1524.66 Z" fill="#000000" fill-rule="nonzero" fill-opacity="1" /><path clip-path="url(#clip670)" d="M1265.04 1539.91 L1265.04 1545.38 Q1262.55 1544.01 1260.04 1543.34 Q1257.56 1542.64 1255.01 1542.64 Q1249.31 1542.64 1246.16 1546.27 Q1243.01 1549.87 1243.01 1556.39 Q1243.01 1562.92 1246.16 1566.55 Q1249.31 1570.14 1255.01 1570.14 Q1257.56 1570.14 1260.04 1569.47 Q1262.55 1568.77 1265.04 1567.41 L1265.04 1572.82 Q1262.59 1573.96 1259.94 1574.54 Q1257.33 1575.11 1254.37 1575.11 Q1246.32 1575.11 1241.58 1570.05 Q1236.84 1564.99 1236.84 1556.39 Q1236.84 1547.67 1241.61 1542.68 Q1246.42 1537.68 1254.76 1537.68 Q1257.46 1537.68 1260.04 1538.25 Q1262.62 1538.79 1265.04 1539.91 Z" fill="#000000" fill-rule="nonzero" fill-opacity="1" /><path clip-path="url(#clip670)" d="M1275.22 1538.54 L1281.08 1538.54 L1281.08 1574.19 L1275.22 1574.19 L1275.22 1538.54 M1275.22 1524.66 L1281.08 1524.66 L1281.08 1532.08 L1275.22 1532.08 L1275.22 1524.66 Z" fill="#000000" fill-rule="nonzero" fill-opacity="1" /><path clip-path="url(#clip670)" d="M1293.33 1538.54 L1299.19 1538.54 L1299.19 1574.82 Q1299.19 1581.63 1296.58 1584.69 Q1294 1587.74 1288.24 1587.74 L1286.01 1587.74 L1286.01 1582.78 L1287.57 1582.78 Q1290.91 1582.78 1292.12 1581.22 Q1293.33 1579.69 1293.33 1574.82 L1293.33 1538.54 M1293.33 1524.66 L1299.19 1524.66 L1299.19 1532.08 L1293.33 1532.08 L1293.33 1524.66 Z" fill="#000000" fill-rule="nonzero" fill-opacity="1" /><path clip-path="url(#clip670)" d="M1334.17 1539.59 L1334.17 1545.13 Q1331.68 1543.85 1329.01 1543.22 Q1326.34 1542.58 1323.47 1542.58 Q1319.11 1542.58 1316.92 1543.92 Q1314.75 1545.25 1314.75 1547.93 Q1314.75 1549.96 1316.31 1551.14 Q1317.87 1552.29 1322.58 1553.34 L1324.59 1553.78 Q1330.83 1555.12 1333.44 1557.57 Q1336.08 1559.99 1336.08 1564.35 Q1336.08 1569.32 1332.13 1572.21 Q1328.22 1575.11 1321.34 1575.11 Q1318.48 1575.11 1315.36 1574.54 Q1312.27 1573.99 1308.83 1572.88 L1308.83 1566.83 Q1312.08 1568.52 1315.23 1569.38 Q1318.38 1570.21 1321.47 1570.21 Q1325.61 1570.21 1327.83 1568.81 Q1330.06 1567.37 1330.06 1564.8 Q1330.06 1562.41 1328.44 1561.14 Q1326.85 1559.86 1321.4 1558.68 L1319.37 1558.21 Q1313.92 1557.06 1311.51 1554.71 Q1309.09 1552.32 1309.09 1548.18 Q1309.09 1543.15 1312.65 1540.42 Q1316.22 1537.68 1322.77 1537.68 Q1326.02 1537.68 1328.88 1538.16 Q1331.75 1538.63 1334.17 1539.59 Z" fill="#000000" fill-rule="nonzero" fill-opacity="1" /><path clip-path="url(#clip670)" d="M1345.18 1524.66 L1351.07 1524.66 L1351.07 1553.91 L1368.54 1538.54 L1376.02 1538.54 L1357.12 1555.22 L1376.82 1574.19 L1369.18 1574.19 L1351.07 1556.78 L1351.07 1574.19 L1345.18 1574.19 L1345.18 1524.66 Z" fill="#000000" fill-rule="nonzero" fill-opacity="1" /><path clip-path="url(#clip670)" d="M1383.15 1538.54 L1389.01 1538.54 L1389.01 1574.19 L1383.15 1574.19 L1383.15 1538.54 M1383.15 1524.66 L1389.01 1524.66 L1389.01 1532.08 L1383.15 1532.08 L1383.15 1524.66 Z" fill="#000000" fill-rule="nonzero" fill-opacity="1" /><path clip-path="url(#clip670)" d="M1430.89 1552.67 L1430.89 1574.19 L1425.04 1574.19 L1425.04 1552.86 Q1425.04 1547.8 1423.06 1545.29 Q1421.09 1542.77 1417.14 1542.77 Q1412.4 1542.77 1409.66 1545.79 Q1406.93 1548.82 1406.93 1554.04 L1406.93 1574.19 L1401.04 1574.19 L1401.04 1524.66 L1406.93 1524.66 L1406.93 1544.08 Q1409.03 1540.86 1411.86 1539.27 Q1414.73 1537.68 1418.45 1537.68 Q1424.59 1537.68 1427.74 1541.5 Q1430.89 1545.29 1430.89 1552.67 Z" fill="#000000" fill-rule="nonzero" fill-opacity="1" /><path clip-path="url(#clip670)" d="M1463.3 1538.54 L1469.15 1538.54 L1469.15 1574.19 L1463.3 1574.19 L1463.3 1538.54 M1463.3 1524.66 L1469.15 1524.66 L1469.15 1532.08 L1463.3 1532.08 L1463.3 1524.66 Z" fill="#000000" fill-rule="nonzero" fill-opacity="1" /><path clip-path="url(#clip670)" d="M1478.86 1538.54 L1506.68 1538.54 L1506.68 1543.88 L1484.65 1569.51 L1506.68 1569.51 L1506.68 1574.19 L1478.06 1574.19 L1478.06 1568.84 L1500.09 1543.22 L1478.86 1543.22 L1478.86 1538.54 Z" fill="#000000" fill-rule="nonzero" fill-opacity="1" /><path clip-path="url(#clip670)" d="M1536.28 1544.01 Q1535.29 1543.44 1534.11 1543.18 Q1532.97 1542.9 1531.57 1542.9 Q1526.6 1542.9 1523.93 1546.14 Q1521.29 1549.36 1521.29 1555.41 L1521.29 1574.19 L1515.4 1574.19 L1515.4 1538.54 L1521.29 1538.54 L1521.29 1544.08 Q1523.13 1540.83 1526.09 1539.27 Q1529.05 1537.68 1533.29 1537.68 Q1533.89 1537.68 1534.62 1537.77 Q1535.36 1537.84 1536.25 1538 L1536.28 1544.01 Z" fill="#000000" fill-rule="nonzero" fill-opacity="1" /><path clip-path="url(#clip670)" d="M1558.62 1556.27 Q1551.52 1556.27 1548.79 1557.89 Q1546.05 1559.51 1546.05 1563.43 Q1546.05 1566.55 1548.09 1568.39 Q1550.16 1570.21 1553.69 1570.21 Q1558.56 1570.21 1561.49 1566.77 Q1564.45 1563.3 1564.45 1557.57 L1564.45 1556.27 L1558.62 1556.27 M1570.3 1553.85 L1570.3 1574.19 L1564.45 1574.19 L1564.45 1568.77 Q1562.44 1572.02 1559.45 1573.58 Q1556.46 1575.11 1552.13 1575.11 Q1546.65 1575.11 1543.41 1572.05 Q1540.19 1568.97 1540.19 1563.81 Q1540.19 1557.79 1544.2 1554.74 Q1548.25 1551.68 1556.24 1551.68 L1564.45 1551.68 L1564.45 1551.11 Q1564.45 1547.07 1561.77 1544.87 Q1559.13 1542.64 1554.33 1542.64 Q1551.27 1542.64 1548.37 1543.38 Q1545.48 1544.11 1542.8 1545.57 L1542.8 1540.16 Q1546.02 1538.92 1549.04 1538.31 Q1552.07 1537.68 1554.93 1537.68 Q1562.66 1537.68 1566.48 1541.69 Q1570.3 1545.7 1570.3 1553.85 Z" fill="#000000" fill-rule="nonzero" fill-opacity="1" /><path clip-path="url(#clip670)" d="M1608.02 1539.91 L1608.02 1545.38 Q1605.54 1544.01 1603.02 1543.34 Q1600.54 1542.64 1597.99 1542.64 Q1592.3 1542.64 1589.15 1546.27 Q1585.99 1549.87 1585.99 1556.39 Q1585.99 1562.92 1589.15 1566.55 Q1592.3 1570.14 1597.99 1570.14 Q1600.54 1570.14 1603.02 1569.47 Q1605.54 1568.77 1608.02 1567.41 L1608.02 1572.82 Q1605.57 1573.96 1602.93 1574.54 Q1600.32 1575.11 1597.36 1575.11 Q1589.3 1575.11 1584.56 1570.05 Q1579.82 1564.99 1579.82 1556.39 Q1579.82 1547.67 1584.59 1542.68 Q1589.4 1537.68 1597.74 1537.68 Q1600.44 1537.68 1603.02 1538.25 Q1605.6 1538.79 1608.02 1539.91 M1594.52 1534.02 L1586.73 1522.05 L1591.15 1522.05 L1596.88 1529.85 L1602.61 1522.05 L1607.03 1522.05 L1599.24 1534.02 L1594.52 1534.02 Z" fill="#000000" fill-rule="nonzero" fill-opacity="1" /><path clip-path="url(#clip670)" d="M1617.6 1560.12 L1617.6 1538.54 L1623.46 1538.54 L1623.46 1559.89 Q1623.46 1564.96 1625.43 1567.5 Q1627.4 1570.02 1631.35 1570.02 Q1636.09 1570.02 1638.83 1566.99 Q1641.6 1563.97 1641.6 1558.75 L1641.6 1538.54 L1647.46 1538.54 L1647.46 1574.19 L1641.6 1574.19 L1641.6 1568.71 Q1639.47 1571.96 1636.63 1573.55 Q1633.83 1575.11 1630.11 1575.11 Q1623.97 1575.11 1620.78 1571.29 Q1617.6 1567.47 1617.6 1560.12 M1632.34 1537.68 L1632.34 1537.68 Z" fill="#000000" fill-rule="nonzero" fill-opacity="1" /><path clip-path="url(#clip670)" d="M1689.15 1552.67 L1689.15 1574.19 L1683.29 1574.19 L1683.29 1552.86 Q1683.29 1547.8 1681.32 1545.29 Q1679.35 1542.77 1675.4 1542.77 Q1670.66 1542.77 1667.92 1545.79 Q1665.18 1548.82 1665.18 1554.04 L1665.18 1574.19 L1659.3 1574.19 L1659.3 1538.54 L1665.18 1538.54 L1665.18 1544.08 Q1667.28 1540.86 1670.12 1539.27 Q1672.98 1537.68 1676.71 1537.68 Q1682.85 1537.68 1686 1541.5 Q1689.15 1545.29 1689.15 1552.67 Z" fill="#000000" fill-rule="nonzero" fill-opacity="1" /><path clip-path="url(#clip670)" d="M1714.65 1542.64 Q1709.94 1542.64 1707.2 1546.34 Q1704.46 1550 1704.46 1556.39 Q1704.46 1562.79 1707.17 1566.48 Q1709.9 1570.14 1714.65 1570.14 Q1719.32 1570.14 1722.06 1566.45 Q1724.8 1562.76 1724.8 1556.39 Q1724.8 1550.06 1722.06 1546.37 Q1719.32 1542.64 1714.65 1542.64 M1714.65 1537.68 Q1722.28 1537.68 1726.65 1542.64 Q1731.01 1547.61 1731.01 1556.39 Q1731.01 1565.15 1726.65 1570.14 Q1722.28 1575.11 1714.65 1575.11 Q1706.98 1575.11 1702.61 1570.14 Q1698.29 1565.15 1698.29 1556.39 Q1698.29 1547.61 1702.61 1542.64 Q1706.98 1537.68 1714.65 1537.68 Z" fill="#000000" fill-rule="nonzero" fill-opacity="1" /><path clip-path="url(#clip670)" d="M1736.51 1538.54 L1742.72 1538.54 L1753.86 1568.46 L1765 1538.54 L1771.21 1538.54 L1757.84 1574.19 L1749.88 1574.19 L1736.51 1538.54 Z" fill="#000000" fill-rule="nonzero" fill-opacity="1" /><polyline clip-path="url(#clip670)" style="stroke:#000000; stroke-linecap:round; stroke-linejoin:round; stroke-width:4; stroke-opacity:1; fill:none" points="276.876,1410.9 276.876,47.2441 "/>
<polyline clip-path="url(#clip670)" style="stroke:#000000; stroke-linecap:round; stroke-linejoin:round; stroke-width:4; stroke-opacity:1; fill:none" points="276.876,197.222 295.773,197.222 "/>
<polyline clip-path="url(#clip670)" style="stroke:#000000; stroke-linecap:round; stroke-linejoin:round; stroke-width:4; stroke-opacity:1; fill:none" points="276.876,496.25 295.773,496.25 "/>
<polyline clip-path="url(#clip670)" style="stroke:#000000; stroke-linecap:round; stroke-linejoin:round; stroke-width:4; stroke-opacity:1; fill:none" points="276.876,795.278 295.773,795.278 "/>
<polyline clip-path="url(#clip670)" style="stroke:#000000; stroke-linecap:round; stroke-linejoin:round; stroke-width:4; stroke-opacity:1; fill:none" points="276.876,1094.31 295.773,1094.31 "/>
<polyline clip-path="url(#clip670)" style="stroke:#000000; stroke-linecap:round; stroke-linejoin:round; stroke-width:4; stroke-opacity:1; fill:none" points="276.876,1393.33 295.773,1393.33 "/>
<path clip-path="url(#clip670)" d="M140.736 217.014 L148.375 217.014 L148.375 190.649 L140.064 192.315 L140.064 188.056 L148.328 186.389 L153.004 186.389 L153.004 217.014 L160.643 217.014 L160.643 220.949 L140.736 220.949 L140.736 217.014 Z" fill="#000000" fill-rule="nonzero" fill-opacity="1" /><path clip-path="url(#clip670)" d="M180.087 189.468 Q176.476 189.468 174.648 193.033 Q172.842 196.574 172.842 203.704 Q172.842 210.81 174.648 214.375 Q176.476 217.917 180.087 217.917 Q183.722 217.917 185.527 214.375 Q187.356 210.81 187.356 203.704 Q187.356 196.574 185.527 193.033 Q183.722 189.468 180.087 189.468 M180.087 185.764 Q185.898 185.764 188.953 190.371 Q192.032 194.954 192.032 203.704 Q192.032 212.431 188.953 217.037 Q185.898 221.621 180.087 221.621 Q174.277 221.621 171.199 217.037 Q168.143 212.431 168.143 203.704 Q168.143 194.954 171.199 190.371 Q174.277 185.764 180.087 185.764 Z" fill="#000000" fill-rule="nonzero" fill-opacity="1" /><path clip-path="url(#clip670)" d="M192.032 179.866 L216.143 179.866 L216.143 183.063 L192.032 183.063 L192.032 179.866 Z" fill="#000000" fill-rule="nonzero" fill-opacity="1" /><path clip-path="url(#clip670)" d="M227.616 190.342 L240.876 190.342 L240.876 193.539 L223.046 193.539 L223.046 190.342 Q225.209 188.103 228.933 184.342 Q232.675 180.562 233.635 179.471 Q235.459 177.421 236.174 176.01 Q236.907 174.581 236.907 173.208 Q236.907 170.97 235.327 169.559 Q233.766 168.148 231.246 168.148 Q229.459 168.148 227.466 168.769 Q225.491 169.39 223.234 170.65 L223.234 166.813 Q225.528 165.892 227.522 165.421 Q229.516 164.951 231.171 164.951 Q235.534 164.951 238.13 167.133 Q240.725 169.315 240.725 172.963 Q240.725 174.694 240.067 176.255 Q239.427 177.797 237.716 179.903 Q237.246 180.449 234.725 183.063 Q232.205 185.658 227.616 190.342 Z" fill="#000000" fill-rule="nonzero" fill-opacity="1" /><path clip-path="url(#clip670)" d="M139.043 516.042 L146.682 516.042 L146.682 489.677 L138.372 491.343 L138.372 487.084 L146.636 485.417 L151.311 485.417 L151.311 516.042 L158.95 516.042 L158.95 519.977 L139.043 519.977 L139.043 516.042 Z" fill="#000000" fill-rule="nonzero" fill-opacity="1" /><path clip-path="url(#clip670)" d="M178.395 488.496 Q174.784 488.496 172.955 492.061 Q171.149 495.603 171.149 502.732 Q171.149 509.839 172.955 513.403 Q174.784 516.945 178.395 516.945 Q182.029 516.945 183.834 513.403 Q185.663 509.839 185.663 502.732 Q185.663 495.603 183.834 492.061 Q182.029 488.496 178.395 488.496 M178.395 484.792 Q184.205 484.792 187.26 489.399 Q190.339 493.982 190.339 502.732 Q190.339 511.459 187.26 516.065 Q184.205 520.649 178.395 520.649 Q172.584 520.649 169.506 516.065 Q166.45 511.459 166.45 502.732 Q166.45 493.982 169.506 489.399 Q172.584 484.792 178.395 484.792 Z" fill="#000000" fill-rule="nonzero" fill-opacity="1" /><path clip-path="url(#clip670)" d="M190.339 478.894 L214.451 478.894 L214.451 482.091 L190.339 482.091 L190.339 478.894 Z" fill="#000000" fill-rule="nonzero" fill-opacity="1" /><path clip-path="url(#clip670)" d="M233.089 467.797 L223.497 482.787 L233.089 482.787 L233.089 467.797 M232.092 464.487 L236.869 464.487 L236.869 482.787 L240.876 482.787 L240.876 485.947 L236.869 485.947 L236.869 492.567 L233.089 492.567 L233.089 485.947 L220.413 485.947 L220.413 482.279 L232.092 464.487 Z" fill="#000000" fill-rule="nonzero" fill-opacity="1" /><path clip-path="url(#clip670)" d="M139.306 815.07 L146.945 815.07 L146.945 788.705 L138.635 790.371 L138.635 786.112 L146.899 784.446 L151.575 784.446 L151.575 815.07 L159.214 815.07 L159.214 819.006 L139.306 819.006 L139.306 815.07 Z" fill="#000000" fill-rule="nonzero" fill-opacity="1" /><path clip-path="url(#clip670)" d="M178.658 787.524 Q175.047 787.524 173.218 791.089 Q171.413 794.631 171.413 801.76 Q171.413 808.867 173.218 812.432 Q175.047 815.973 178.658 815.973 Q182.292 815.973 184.098 812.432 Q185.926 808.867 185.926 801.76 Q185.926 794.631 184.098 791.089 Q182.292 787.524 178.658 787.524 M178.658 783.821 Q184.468 783.821 187.524 788.427 Q190.602 793.01 190.602 801.76 Q190.602 810.487 187.524 815.094 Q184.468 819.677 178.658 819.677 Q172.848 819.677 169.769 815.094 Q166.714 810.487 166.714 801.76 Q166.714 793.01 169.769 788.427 Q172.848 783.821 178.658 783.821 Z" fill="#000000" fill-rule="nonzero" fill-opacity="1" /><path clip-path="url(#clip670)" d="M190.602 777.922 L214.714 777.922 L214.714 781.119 L190.602 781.119 L190.602 777.922 Z" fill="#000000" fill-rule="nonzero" fill-opacity="1" /><path clip-path="url(#clip670)" d="M231.509 776.041 Q228.951 776.041 227.447 777.79 Q225.961 779.539 225.961 782.586 Q225.961 785.614 227.447 787.382 Q228.951 789.131 231.509 789.131 Q234.067 789.131 235.553 787.382 Q237.058 785.614 237.058 782.586 Q237.058 779.539 235.553 777.79 Q234.067 776.041 231.509 776.041 M239.051 764.136 L239.051 767.596 Q237.622 766.919 236.155 766.562 Q234.707 766.205 233.277 766.205 Q229.516 766.205 227.522 768.744 Q225.547 771.283 225.265 776.417 Q226.375 774.781 228.049 773.916 Q229.723 773.032 231.735 773.032 Q235.967 773.032 238.412 775.609 Q240.876 778.166 240.876 782.586 Q240.876 786.912 238.318 789.526 Q235.76 792.141 231.509 792.141 Q226.638 792.141 224.061 788.417 Q221.485 784.674 221.485 777.583 Q221.485 770.925 224.644 766.976 Q227.804 763.007 233.127 763.007 Q234.556 763.007 236.004 763.289 Q237.471 763.572 239.051 764.136 Z" fill="#000000" fill-rule="nonzero" fill-opacity="1" /><path clip-path="url(#clip670)" d="M139.513 1114.1 L147.152 1114.1 L147.152 1087.73 L138.842 1089.4 L138.842 1085.14 L147.106 1083.47 L151.782 1083.47 L151.782 1114.1 L159.421 1114.1 L159.421 1118.03 L139.513 1118.03 L139.513 1114.1 Z" fill="#000000" fill-rule="nonzero" fill-opacity="1" /><path clip-path="url(#clip670)" d="M178.865 1086.55 Q175.254 1086.55 173.425 1090.12 Q171.62 1093.66 171.62 1100.79 Q171.62 1107.89 173.425 1111.46 Q175.254 1115 178.865 1115 Q182.499 1115 184.305 1111.46 Q186.133 1107.89 186.133 1100.79 Q186.133 1093.66 184.305 1090.12 Q182.499 1086.55 178.865 1086.55 M178.865 1082.85 Q184.675 1082.85 187.731 1087.46 Q190.809 1092.04 190.809 1100.79 Q190.809 1109.52 187.731 1114.12 Q184.675 1118.71 178.865 1118.71 Q173.055 1118.71 169.976 1114.12 Q166.92 1109.52 166.92 1100.79 Q166.92 1092.04 169.976 1087.46 Q173.055 1082.85 178.865 1082.85 Z" fill="#000000" fill-rule="nonzero" fill-opacity="1" /><path clip-path="url(#clip670)" d="M190.809 1076.95 L214.921 1076.95 L214.921 1080.15 L190.809 1080.15 L190.809 1076.95 Z" fill="#000000" fill-rule="nonzero" fill-opacity="1" /><path clip-path="url(#clip670)" d="M231.246 1077.29 Q228.538 1077.29 226.977 1078.74 Q225.434 1080.19 225.434 1082.72 Q225.434 1085.26 226.977 1086.71 Q228.538 1088.16 231.246 1088.16 Q233.954 1088.16 235.515 1086.71 Q237.076 1085.24 237.076 1082.72 Q237.076 1080.19 235.515 1078.74 Q233.973 1077.29 231.246 1077.29 M227.447 1075.67 Q225.002 1075.07 223.629 1073.4 Q222.275 1071.72 222.275 1069.31 Q222.275 1065.95 224.663 1063.99 Q227.071 1062.04 231.246 1062.04 Q235.44 1062.04 237.829 1063.99 Q240.217 1065.95 240.217 1069.31 Q240.217 1071.72 238.844 1073.4 Q237.49 1075.07 235.064 1075.67 Q237.81 1076.31 239.333 1078.17 Q240.876 1080.03 240.876 1082.72 Q240.876 1086.81 238.374 1088.99 Q235.891 1091.17 231.246 1091.17 Q226.6 1091.17 224.099 1088.99 Q221.616 1086.81 221.616 1082.72 Q221.616 1080.03 223.159 1078.17 Q224.701 1076.31 227.447 1075.67 M226.055 1069.67 Q226.055 1071.85 227.409 1073.08 Q228.782 1074.3 231.246 1074.3 Q233.691 1074.3 235.064 1073.08 Q236.456 1071.85 236.456 1069.67 Q236.456 1067.49 235.064 1066.27 Q233.691 1065.04 231.246 1065.04 Q228.782 1065.04 227.409 1066.27 Q226.055 1067.49 226.055 1069.67 Z" fill="#000000" fill-rule="nonzero" fill-opacity="1" /><path clip-path="url(#clip670)" d="M114.931 1413.13 L122.57 1413.13 L122.57 1386.76 L114.26 1388.43 L114.26 1384.17 L122.524 1382.5 L127.2 1382.5 L127.2 1413.13 L134.839 1413.13 L134.839 1417.06 L114.931 1417.06 L114.931 1413.13 Z" fill="#000000" fill-rule="nonzero" fill-opacity="1" /><path clip-path="url(#clip670)" d="M154.283 1385.58 Q150.672 1385.58 148.843 1389.15 Q147.038 1392.69 147.038 1399.82 Q147.038 1406.92 148.843 1410.49 Q150.672 1414.03 154.283 1414.03 Q157.917 1414.03 159.723 1410.49 Q161.552 1406.92 161.552 1399.82 Q161.552 1392.69 159.723 1389.15 Q157.917 1385.58 154.283 1385.58 M154.283 1381.88 Q160.093 1381.88 163.149 1386.48 Q166.227 1391.07 166.227 1399.82 Q166.227 1408.54 163.149 1413.15 Q160.093 1417.73 154.283 1417.73 Q148.473 1417.73 145.394 1413.15 Q142.339 1408.54 142.339 1399.82 Q142.339 1391.07 145.394 1386.48 Q148.473 1381.88 154.283 1381.88 Z" fill="#000000" fill-rule="nonzero" fill-opacity="1" /><path clip-path="url(#clip670)" d="M166.227 1375.98 L190.339 1375.98 L190.339 1379.18 L166.227 1379.18 L166.227 1375.98 Z" fill="#000000" fill-rule="nonzero" fill-opacity="1" /><path clip-path="url(#clip670)" d="M199.197 1386.45 L205.404 1386.45 L205.404 1365.03 L198.652 1366.39 L198.652 1362.93 L205.366 1361.57 L209.166 1361.57 L209.166 1386.45 L215.372 1386.45 L215.372 1389.65 L199.197 1389.65 L199.197 1386.45 Z" fill="#000000" fill-rule="nonzero" fill-opacity="1" /><path clip-path="url(#clip670)" d="M231.171 1364.07 Q228.237 1364.07 226.751 1366.97 Q225.284 1369.85 225.284 1375.64 Q225.284 1381.41 226.751 1384.31 Q228.237 1387.19 231.171 1387.19 Q234.124 1387.19 235.591 1384.31 Q237.076 1381.41 237.076 1375.64 Q237.076 1369.85 235.591 1366.97 Q234.124 1364.07 231.171 1364.07 M231.171 1361.06 Q235.891 1361.06 238.374 1364.81 Q240.876 1368.53 240.876 1375.64 Q240.876 1382.73 238.374 1386.47 Q235.891 1390.2 231.171 1390.2 Q226.45 1390.2 223.949 1386.47 Q221.466 1382.73 221.466 1375.64 Q221.466 1368.53 223.949 1364.81 Q226.45 1361.06 231.171 1361.06 Z" fill="#000000" fill-rule="nonzero" fill-opacity="1" /><path clip-path="url(#clip670)" d="M42.4881 812.859 L64.0042 812.859 L64.0042 818.715 L42.679 818.715 Q37.6183 818.715 35.1038 820.689 Q32.5894 822.662 32.5894 826.609 Q32.5894 831.351 35.6131 834.089 Q38.6368 836.826 43.8567 836.826 L64.0042 836.826 L64.0042 842.714 L28.3562 842.714 L28.3562 836.826 L33.8944 836.826 Q30.6797 834.725 29.0883 831.892 Q27.4968 829.028 27.4968 825.304 Q27.4968 819.161 31.3163 816.01 Q35.1038 812.859 42.4881 812.859 Z" fill="#000000" fill-rule="nonzero" fill-opacity="1" /><path clip-path="url(#clip670)" d="M46.0847 784.977 Q46.0847 792.075 47.7079 794.812 Q49.3312 797.549 53.2461 797.549 Q56.3653 797.549 58.2114 795.512 Q60.0256 793.444 60.0256 789.911 Q60.0256 785.041 56.5881 782.113 Q53.1188 779.153 47.3897 779.153 L46.0847 779.153 L46.0847 784.977 M43.6657 773.296 L64.0042 773.296 L64.0042 779.153 L58.5933 779.153 Q61.8398 781.158 63.3994 784.15 Q64.9272 787.142 64.9272 791.47 Q64.9272 796.945 61.8716 800.191 Q58.7843 803.406 53.6281 803.406 Q47.6125 803.406 44.5569 799.396 Q41.5014 795.353 41.5014 787.364 L41.5014 779.153 L40.9285 779.153 Q36.8862 779.153 34.6901 781.826 Q32.4621 784.468 32.4621 789.274 Q32.4621 792.33 33.1941 795.226 Q33.9262 798.122 35.3903 800.796 L29.9795 800.796 Q28.7381 797.581 28.1334 794.558 Q27.4968 791.534 27.4968 788.669 Q27.4968 780.935 31.5072 777.116 Q35.5176 773.296 43.6657 773.296 Z" fill="#000000" fill-rule="nonzero" fill-opacity="1" /><path clip-path="url(#clip670)" d="M58.657 755.568 L77.5631 755.568 L77.5631 761.456 L28.3562 761.456 L28.3562 755.568 L33.7671 755.568 Q30.5842 753.722 29.0564 750.921 Q27.4968 748.088 27.4968 744.173 Q27.4968 737.68 32.6531 733.638 Q37.8093 729.564 46.212 729.564 Q54.6147 729.564 59.771 733.638 Q64.9272 737.68 64.9272 744.173 Q64.9272 748.088 63.3994 750.921 Q61.8398 753.722 58.657 755.568 M46.212 735.643 Q39.7508 735.643 36.0905 738.317 Q32.3984 740.958 32.3984 745.605 Q32.3984 750.252 36.0905 752.926 Q39.7508 755.568 46.212 755.568 Q52.6732 755.568 56.3653 752.926 Q60.0256 750.252 60.0256 745.605 Q60.0256 740.958 56.3653 738.317 Q52.6732 735.643 46.212 735.643 Z" fill="#000000" fill-rule="nonzero" fill-opacity="1" /><path clip-path="url(#clip670)" d="M46.0847 703.655 Q46.0847 710.753 47.7079 713.49 Q49.3312 716.228 53.2461 716.228 Q56.3653 716.228 58.2114 714.191 Q60.0256 712.122 60.0256 708.589 Q60.0256 703.719 56.5881 700.791 Q53.1188 697.831 47.3897 697.831 L46.0847 697.831 L46.0847 703.655 M43.6657 691.974 L64.0042 691.974 L64.0042 697.831 L58.5933 697.831 Q61.8398 699.836 63.3994 702.828 Q64.9272 705.82 64.9272 710.148 Q64.9272 715.623 61.8716 718.869 Q58.7843 722.084 53.6281 722.084 Q47.6125 722.084 44.5569 718.074 Q41.5014 714.031 41.5014 706.042 L41.5014 697.831 L40.9285 697.831 Q36.8862 697.831 34.6901 700.504 Q32.4621 703.146 32.4621 707.952 Q32.4621 711.008 33.1941 713.904 Q33.9262 716.8 35.3903 719.474 L29.9795 719.474 Q28.7381 716.259 28.1334 713.236 Q27.4968 710.212 27.4968 707.347 Q27.4968 699.613 31.5072 695.794 Q35.5176 691.974 43.6657 691.974 Z" fill="#000000" fill-rule="nonzero" fill-opacity="1" /><path clip-path="url(#clip670)" d="M14.479 680.134 L14.479 674.246 L43.7294 674.246 L28.3562 656.772 L28.3562 649.292 L45.0344 668.198 L64.0042 648.496 L64.0042 656.135 L46.5939 674.246 L64.0042 674.246 L64.0042 680.134 L14.479 680.134 Z" fill="#000000" fill-rule="nonzero" fill-opacity="1" /><path clip-path="url(#clip670)" d="M46.0847 627.108 Q46.0847 634.205 47.7079 636.943 Q49.3312 639.68 53.2461 639.68 Q56.3653 639.68 58.2114 637.643 Q60.0256 635.574 60.0256 632.041 Q60.0256 627.171 56.5881 624.243 Q53.1188 621.283 47.3897 621.283 L46.0847 621.283 L46.0847 627.108 M43.6657 615.427 L64.0042 615.427 L64.0042 621.283 L58.5933 621.283 Q61.8398 623.288 63.3994 626.28 Q64.9272 629.272 64.9272 633.601 Q64.9272 639.075 61.8716 642.322 Q58.7843 645.536 53.6281 645.536 Q47.6125 645.536 44.5569 641.526 Q41.5014 637.484 41.5014 629.495 L41.5014 621.283 L40.9285 621.283 Q36.8862 621.283 34.6901 623.957 Q32.4621 626.598 32.4621 631.405 Q32.4621 634.46 33.1941 637.356 Q33.9262 640.253 35.3903 642.926 L29.9795 642.926 Q28.7381 639.712 28.1334 636.688 Q27.4968 633.664 27.4968 630.8 Q27.4968 623.065 31.5072 619.246 Q35.5176 615.427 43.6657 615.427 Z" fill="#000000" fill-rule="nonzero" fill-opacity="1" /><circle clip-path="url(#clip672)" cx="361.225" cy="85.838" r="14.4" fill="#009af9" fill-rule="evenodd" fill-opacity="1" stroke="#000000" stroke-opacity="1" stroke-width="3.2"/>
<circle clip-path="url(#clip672)" cx="499.447" cy="512.958" r="14.4" fill="#009af9" fill-rule="evenodd" fill-opacity="1" stroke="#000000" stroke-opacity="1" stroke-width="3.2"/>
<circle clip-path="url(#clip672)" cx="643.603" cy="303.811" r="14.4" fill="#009af9" fill-rule="evenodd" fill-opacity="1" stroke="#000000" stroke-opacity="1" stroke-width="3.2"/>
<circle clip-path="url(#clip672)" cx="790.929" cy="354.743" r="14.4" fill="#009af9" fill-rule="evenodd" fill-opacity="1" stroke="#000000" stroke-opacity="1" stroke-width="3.2"/>
<circle clip-path="url(#clip672)" cx="939.895" cy="466.786" r="14.4" fill="#009af9" fill-rule="evenodd" fill-opacity="1" stroke="#000000" stroke-opacity="1" stroke-width="3.2"/>
<circle clip-path="url(#clip672)" cx="1089.7" cy="560.985" r="14.4" fill="#009af9" fill-rule="evenodd" fill-opacity="1" stroke="#000000" stroke-opacity="1" stroke-width="3.2"/>
<circle clip-path="url(#clip672)" cx="1239.92" cy="660.077" r="14.4" fill="#009af9" fill-rule="evenodd" fill-opacity="1" stroke="#000000" stroke-opacity="1" stroke-width="3.2"/>
<circle clip-path="url(#clip672)" cx="1390.35" cy="772.144" r="14.4" fill="#009af9" fill-rule="evenodd" fill-opacity="1" stroke="#000000" stroke-opacity="1" stroke-width="3.2"/>
<circle clip-path="url(#clip672)" cx="1540.89" cy="949.867" r="14.4" fill="#009af9" fill-rule="evenodd" fill-opacity="1" stroke="#000000" stroke-opacity="1" stroke-width="3.2"/>
<circle clip-path="url(#clip672)" cx="1691.48" cy="955.394" r="14.4" fill="#009af9" fill-rule="evenodd" fill-opacity="1" stroke="#000000" stroke-opacity="1" stroke-width="3.2"/>
<circle clip-path="url(#clip672)" cx="1842.1" cy="988.44" r="14.4" fill="#009af9" fill-rule="evenodd" fill-opacity="1" stroke="#000000" stroke-opacity="1" stroke-width="3.2"/>
<circle clip-path="url(#clip672)" cx="1992.73" cy="1162.96" r="14.4" fill="#009af9" fill-rule="evenodd" fill-opacity="1" stroke="#000000" stroke-opacity="1" stroke-width="3.2"/>
<circle clip-path="url(#clip672)" cx="2143.36" cy="1176.06" r="14.4" fill="#009af9" fill-rule="evenodd" fill-opacity="1" stroke="#000000" stroke-opacity="1" stroke-width="3.2"/>
<circle clip-path="url(#clip672)" cx="499.447" cy="156.814" r="14.4" fill="#e26f46" fill-rule="evenodd" fill-opacity="1" stroke="#000000" stroke-opacity="1" stroke-width="3.2"/>
<circle clip-path="url(#clip672)" cx="643.603" cy="284.486" r="14.4" fill="#e26f46" fill-rule="evenodd" fill-opacity="1" stroke="#000000" stroke-opacity="1" stroke-width="3.2"/>
<circle clip-path="url(#clip672)" cx="790.929" cy="387.589" r="14.4" fill="#e26f46" fill-rule="evenodd" fill-opacity="1" stroke="#000000" stroke-opacity="1" stroke-width="3.2"/>
<circle clip-path="url(#clip672)" cx="939.895" cy="391.155" r="14.4" fill="#e26f46" fill-rule="evenodd" fill-opacity="1" stroke="#000000" stroke-opacity="1" stroke-width="3.2"/>
<circle clip-path="url(#clip672)" cx="1089.7" cy="718.28" r="14.4" fill="#e26f46" fill-rule="evenodd" fill-opacity="1" stroke="#000000" stroke-opacity="1" stroke-width="3.2"/>
<circle clip-path="url(#clip672)" cx="1239.92" cy="764.581" r="14.4" fill="#e26f46" fill-rule="evenodd" fill-opacity="1" stroke="#000000" stroke-opacity="1" stroke-width="3.2"/>
<circle clip-path="url(#clip672)" cx="1390.35" cy="812.256" r="14.4" fill="#e26f46" fill-rule="evenodd" fill-opacity="1" stroke="#000000" stroke-opacity="1" stroke-width="3.2"/>
<circle clip-path="url(#clip672)" cx="1540.89" cy="862.949" r="14.4" fill="#e26f46" fill-rule="evenodd" fill-opacity="1" stroke="#000000" stroke-opacity="1" stroke-width="3.2"/>
<circle clip-path="url(#clip672)" cx="1691.48" cy="921.081" r="14.4" fill="#e26f46" fill-rule="evenodd" fill-opacity="1" stroke="#000000" stroke-opacity="1" stroke-width="3.2"/>
<circle clip-path="url(#clip672)" cx="1842.1" cy="1004.67" r="14.4" fill="#e26f46" fill-rule="evenodd" fill-opacity="1" stroke="#000000" stroke-opacity="1" stroke-width="3.2"/>
<circle clip-path="url(#clip672)" cx="1992.73" cy="1080.4" r="14.4" fill="#e26f46" fill-rule="evenodd" fill-opacity="1" stroke="#000000" stroke-opacity="1" stroke-width="3.2"/>
<circle clip-path="url(#clip672)" cx="2143.36" cy="1181.09" r="14.4" fill="#e26f46" fill-rule="evenodd" fill-opacity="1" stroke="#000000" stroke-opacity="1" stroke-width="3.2"/>
<circle clip-path="url(#clip672)" cx="2294" cy="1372.3" r="14.4" fill="#e26f46" fill-rule="evenodd" fill-opacity="1" stroke="#000000" stroke-opacity="1" stroke-width="3.2"/>
<circle clip-path="url(#clip672)" cx="335.627" cy="175.584" r="14.4" fill="#3da44d" fill-rule="evenodd" fill-opacity="1" stroke="#000000" stroke-opacity="1" stroke-width="3.2"/>
<circle clip-path="url(#clip672)" cx="486.271" cy="165.685" r="14.4" fill="#3da44d" fill-rule="evenodd" fill-opacity="1" stroke="#000000" stroke-opacity="1" stroke-width="3.2"/>
<circle clip-path="url(#clip672)" cx="636.915" cy="332.445" r="14.4" fill="#3da44d" fill-rule="evenodd" fill-opacity="1" stroke="#000000" stroke-opacity="1" stroke-width="3.2"/>
<circle clip-path="url(#clip672)" cx="787.559" cy="335.857" r="14.4" fill="#3da44d" fill-rule="evenodd" fill-opacity="1" stroke="#000000" stroke-opacity="1" stroke-width="3.2"/>
<circle clip-path="url(#clip672)" cx="938.204" cy="490.146" r="14.4" fill="#3da44d" fill-rule="evenodd" fill-opacity="1" stroke="#000000" stroke-opacity="1" stroke-width="3.2"/>
<circle clip-path="url(#clip672)" cx="1088.85" cy="500.676" r="14.4" fill="#3da44d" fill-rule="evenodd" fill-opacity="1" stroke="#000000" stroke-opacity="1" stroke-width="3.2"/>
<circle clip-path="url(#clip672)" cx="1239.49" cy="636.681" r="14.4" fill="#3da44d" fill-rule="evenodd" fill-opacity="1" stroke="#000000" stroke-opacity="1" stroke-width="3.2"/>
<circle clip-path="url(#clip672)" cx="1390.14" cy="852.418" r="14.4" fill="#3da44d" fill-rule="evenodd" fill-opacity="1" stroke="#000000" stroke-opacity="1" stroke-width="3.2"/>
<circle clip-path="url(#clip672)" cx="1540.78" cy="851.261" r="14.4" fill="#3da44d" fill-rule="evenodd" fill-opacity="1" stroke="#000000" stroke-opacity="1" stroke-width="3.2"/>
<circle clip-path="url(#clip672)" cx="1691.42" cy="914.957" r="14.4" fill="#3da44d" fill-rule="evenodd" fill-opacity="1" stroke="#000000" stroke-opacity="1" stroke-width="3.2"/>
<circle clip-path="url(#clip672)" cx="1842.07" cy="1003.29" r="14.4" fill="#3da44d" fill-rule="evenodd" fill-opacity="1" stroke="#000000" stroke-opacity="1" stroke-width="3.2"/>
<circle clip-path="url(#clip672)" cx="1992.71" cy="1097.03" r="14.4" fill="#3da44d" fill-rule="evenodd" fill-opacity="1" stroke="#000000" stroke-opacity="1" stroke-width="3.2"/>
<circle clip-path="url(#clip672)" cx="2143.36" cy="1196.8" r="14.4" fill="#3da44d" fill-rule="evenodd" fill-opacity="1" stroke="#000000" stroke-opacity="1" stroke-width="3.2"/>
<path clip-path="url(#clip670)" d="M1148.99 300.059 L2283.56 300.059 L2283.56 92.6992 L1148.99 92.6992  Z" fill="#ffffff" fill-rule="evenodd" fill-opacity="1"/>
<polyline clip-path="url(#clip670)" style="stroke:#000000; stroke-linecap:round; stroke-linejoin:round; stroke-width:4; stroke-opacity:1; fill:none" points="1148.99,300.059 2283.56,300.059 2283.56,92.6992 1148.99,92.6992 1148.99,300.059 "/>
<circle clip-path="url(#clip670)" cx="1241.25" cy="144.539" r="20.48" fill="#009af9" fill-rule="evenodd" fill-opacity="1" stroke="#000000" stroke-opacity="1" stroke-width="4.55111"/>
<path clip-path="url(#clip670)" d="M1355.22 146.171 L1355.22 161.819 L1350.96 161.819 L1350.96 146.31 Q1350.96 142.629 1349.53 140.801 Q1348.09 138.972 1345.22 138.972 Q1341.77 138.972 1339.78 141.171 Q1337.79 143.37 1337.79 147.166 L1337.79 161.819 L1333.51 161.819 L1333.51 135.893 L1337.79 135.893 L1337.79 139.921 Q1339.32 137.583 1341.38 136.426 Q1343.46 135.268 1346.17 135.268 Q1350.64 135.268 1352.93 138.046 Q1355.22 140.801 1355.22 146.171 Z" fill="#000000" fill-rule="nonzero" fill-opacity="1" /><path clip-path="url(#clip670)" d="M1375.5 148.787 Q1370.34 148.787 1368.35 149.967 Q1366.36 151.148 1366.36 153.995 Q1366.36 156.264 1367.84 157.606 Q1369.34 158.926 1371.91 158.926 Q1375.45 158.926 1377.58 156.426 Q1379.74 153.903 1379.74 149.736 L1379.74 148.787 L1375.5 148.787 M1383.99 147.028 L1383.99 161.819 L1379.74 161.819 L1379.74 157.884 Q1378.28 160.245 1376.1 161.379 Q1373.93 162.49 1370.78 162.49 Q1366.8 162.49 1364.43 160.268 Q1362.1 158.023 1362.1 154.273 Q1362.1 149.898 1365.01 147.676 Q1367.95 145.454 1373.76 145.454 L1379.74 145.454 L1379.74 145.037 Q1379.74 142.097 1377.79 140.5 Q1375.87 138.879 1372.37 138.879 Q1370.15 138.879 1368.05 139.412 Q1365.94 139.944 1363.99 141.009 L1363.99 137.074 Q1366.33 136.171 1368.53 135.731 Q1370.73 135.268 1372.81 135.268 Q1378.44 135.268 1381.22 138.185 Q1383.99 141.102 1383.99 147.028 Z" fill="#000000" fill-rule="nonzero" fill-opacity="1" /><path clip-path="url(#clip670)" d="M1396.89 157.93 L1396.89 171.68 L1392.61 171.68 L1392.61 135.893 L1396.89 135.893 L1396.89 139.829 Q1398.23 137.514 1400.27 136.403 Q1402.33 135.268 1405.18 135.268 Q1409.9 135.268 1412.84 139.018 Q1415.8 142.768 1415.8 148.879 Q1415.8 154.991 1412.84 158.74 Q1409.9 162.49 1405.18 162.49 Q1402.33 162.49 1400.27 161.379 Q1398.23 160.245 1396.89 157.93 M1411.38 148.879 Q1411.38 144.18 1409.43 141.518 Q1407.51 138.833 1404.13 138.833 Q1400.75 138.833 1398.81 141.518 Q1396.89 144.18 1396.89 148.879 Q1396.89 153.578 1398.81 156.264 Q1400.75 158.926 1404.13 158.926 Q1407.51 158.926 1409.43 156.264 Q1411.38 153.578 1411.38 148.879 Z" fill="#000000" fill-rule="nonzero" fill-opacity="1" /><path clip-path="url(#clip670)" d="M1434.64 148.787 Q1429.48 148.787 1427.49 149.967 Q1425.5 151.148 1425.5 153.995 Q1425.5 156.264 1426.98 157.606 Q1428.49 158.926 1431.05 158.926 Q1434.6 158.926 1436.73 156.426 Q1438.88 153.903 1438.88 149.736 L1438.88 148.787 L1434.64 148.787 M1443.14 147.028 L1443.14 161.819 L1438.88 161.819 L1438.88 157.884 Q1437.42 160.245 1435.24 161.379 Q1433.07 162.49 1429.92 162.49 Q1425.94 162.49 1423.58 160.268 Q1421.24 158.023 1421.24 154.273 Q1421.24 149.898 1424.16 147.676 Q1427.1 145.454 1432.91 145.454 L1438.88 145.454 L1438.88 145.037 Q1438.88 142.097 1436.93 140.5 Q1435.01 138.879 1431.52 138.879 Q1429.3 138.879 1427.19 139.412 Q1425.08 139.944 1423.14 141.009 L1423.14 137.074 Q1425.48 136.171 1427.67 135.731 Q1429.87 135.268 1431.96 135.268 Q1437.58 135.268 1440.36 138.185 Q1443.14 141.102 1443.14 147.028 Z" fill="#000000" fill-rule="nonzero" fill-opacity="1" /><path clip-path="url(#clip670)" d="M1451.75 125.801 L1456.03 125.801 L1456.03 147.074 L1468.74 135.893 L1474.18 135.893 L1460.43 148.023 L1474.76 161.819 L1469.2 161.819 L1456.03 149.157 L1456.03 161.819 L1451.75 161.819 L1451.75 125.801 Z" fill="#000000" fill-rule="nonzero" fill-opacity="1" /><path clip-path="url(#clip670)" d="M1490.31 148.787 Q1485.15 148.787 1483.16 149.967 Q1481.17 151.148 1481.17 153.995 Q1481.17 156.264 1482.65 157.606 Q1484.16 158.926 1486.73 158.926 Q1490.27 158.926 1492.4 156.426 Q1494.55 153.903 1494.55 149.736 L1494.55 148.787 L1490.31 148.787 M1498.81 147.028 L1498.81 161.819 L1494.55 161.819 L1494.55 157.884 Q1493.09 160.245 1490.92 161.379 Q1488.74 162.49 1485.59 162.49 Q1481.61 162.49 1479.25 160.268 Q1476.91 158.023 1476.91 154.273 Q1476.91 149.898 1479.83 147.676 Q1482.77 145.454 1488.58 145.454 L1494.55 145.454 L1494.55 145.037 Q1494.55 142.097 1492.61 140.5 Q1490.68 138.879 1487.19 138.879 Q1484.97 138.879 1482.86 139.412 Q1480.75 139.944 1478.81 141.009 L1478.81 137.074 Q1481.15 136.171 1483.35 135.731 Q1485.55 135.268 1487.63 135.268 Q1493.25 135.268 1496.03 138.185 Q1498.81 141.102 1498.81 147.028 Z" fill="#000000" fill-rule="nonzero" fill-opacity="1" /><path clip-path="url(#clip670)" d="M1526.86 128.532 L1526.86 135.893 L1535.64 135.893 L1535.64 139.204 L1526.86 139.204 L1526.86 153.278 Q1526.86 156.449 1527.72 157.352 Q1528.6 158.254 1531.26 158.254 L1535.64 158.254 L1535.64 161.819 L1531.26 161.819 Q1526.33 161.819 1524.46 159.99 Q1522.58 158.139 1522.58 153.278 L1522.58 139.204 L1519.46 139.204 L1519.46 135.893 L1522.58 135.893 L1522.58 128.532 L1526.86 128.532 Z" fill="#000000" fill-rule="nonzero" fill-opacity="1" /><path clip-path="url(#clip670)" d="M1556.26 139.875 Q1555.54 139.458 1554.69 139.273 Q1553.85 139.065 1552.84 139.065 Q1549.23 139.065 1547.28 141.426 Q1545.36 143.764 1545.36 148.162 L1545.36 161.819 L1541.08 161.819 L1541.08 135.893 L1545.36 135.893 L1545.36 139.921 Q1546.7 137.56 1548.85 136.426 Q1551.01 135.268 1554.09 135.268 Q1554.53 135.268 1555.06 135.338 Q1555.59 135.384 1556.24 135.5 L1556.26 139.875 Z" fill="#000000" fill-rule="nonzero" fill-opacity="1" /><path clip-path="url(#clip670)" d="M1572.51 148.787 Q1567.35 148.787 1565.36 149.967 Q1563.37 151.148 1563.37 153.995 Q1563.37 156.264 1564.85 157.606 Q1566.35 158.926 1568.92 158.926 Q1572.47 158.926 1574.6 156.426 Q1576.75 153.903 1576.75 149.736 L1576.75 148.787 L1572.51 148.787 M1581.01 147.028 L1581.01 161.819 L1576.75 161.819 L1576.75 157.884 Q1575.29 160.245 1573.11 161.379 Q1570.94 162.49 1567.79 162.49 Q1563.81 162.49 1561.45 160.268 Q1559.11 158.023 1559.11 154.273 Q1559.11 149.898 1562.03 147.676 Q1564.97 145.454 1570.78 145.454 L1576.75 145.454 L1576.75 145.037 Q1576.75 142.097 1574.8 140.5 Q1572.88 138.879 1569.39 138.879 Q1567.16 138.879 1565.06 139.412 Q1562.95 139.944 1561.01 141.009 L1561.01 137.074 Q1563.35 136.171 1565.54 135.731 Q1567.74 135.268 1569.83 135.268 Q1575.45 135.268 1578.23 138.185 Q1581.01 141.102 1581.01 147.028 Z" fill="#000000" fill-rule="nonzero" fill-opacity="1" /><path clip-path="url(#clip670)" d="M1593.9 157.93 L1593.9 171.68 L1589.62 171.68 L1589.62 135.893 L1593.9 135.893 L1593.9 139.829 Q1595.24 137.514 1597.28 136.403 Q1599.34 135.268 1602.19 135.268 Q1606.91 135.268 1609.85 139.018 Q1612.81 142.768 1612.81 148.879 Q1612.81 154.991 1609.85 158.74 Q1606.91 162.49 1602.19 162.49 Q1599.34 162.49 1597.28 161.379 Q1595.24 160.245 1593.9 157.93 M1608.39 148.879 Q1608.39 144.18 1606.45 141.518 Q1604.53 138.833 1601.15 138.833 Q1597.77 138.833 1595.82 141.518 Q1593.9 144.18 1593.9 148.879 Q1593.9 153.578 1595.82 156.264 Q1597.77 158.926 1601.15 158.926 Q1604.53 158.926 1606.45 156.264 Q1608.39 153.578 1608.39 148.879 Z" fill="#000000" fill-rule="nonzero" fill-opacity="1" /><path clip-path="url(#clip670)" d="M1642.05 147.791 L1642.05 149.875 L1622.47 149.875 Q1622.74 154.273 1625.1 156.588 Q1627.49 158.879 1631.72 158.879 Q1634.18 158.879 1636.47 158.278 Q1638.78 157.676 1641.05 156.472 L1641.05 160.5 Q1638.76 161.472 1636.35 161.981 Q1633.95 162.49 1631.47 162.49 Q1625.27 162.49 1621.63 158.879 Q1618.02 155.268 1618.02 149.111 Q1618.02 142.745 1621.45 139.018 Q1624.9 135.268 1630.73 135.268 Q1635.96 135.268 1638.99 138.648 Q1642.05 142.004 1642.05 147.791 M1637.79 146.541 Q1637.74 143.046 1635.82 140.963 Q1633.92 138.879 1630.78 138.879 Q1627.21 138.879 1625.06 140.893 Q1622.93 142.907 1622.6 146.565 L1637.79 146.541 Z" fill="#000000" fill-rule="nonzero" fill-opacity="1" /><path clip-path="url(#clip670)" d="M1647.19 135.893 L1667.42 135.893 L1667.42 139.782 L1651.4 158.416 L1667.42 158.416 L1667.42 161.819 L1646.61 161.819 L1646.61 157.93 L1662.63 139.296 L1647.19 139.296 L1647.19 135.893 Z" fill="#000000" fill-rule="nonzero" fill-opacity="1" /><path clip-path="url(#clip670)" d="M1695.47 146.171 L1695.47 161.819 L1691.22 161.819 L1691.22 146.31 Q1691.22 142.629 1689.78 140.801 Q1688.34 138.972 1685.47 138.972 Q1682.03 138.972 1680.03 141.171 Q1678.04 143.37 1678.04 147.166 L1678.04 161.819 L1673.76 161.819 L1673.76 135.893 L1678.04 135.893 L1678.04 139.921 Q1679.57 137.583 1681.63 136.426 Q1683.72 135.268 1686.42 135.268 Q1690.89 135.268 1693.18 138.046 Q1695.47 140.801 1695.47 146.171 Z" fill="#000000" fill-rule="nonzero" fill-opacity="1" /><path clip-path="url(#clip670)" d="M1726.15 147.791 L1726.15 149.875 L1706.56 149.875 Q1706.84 154.273 1709.2 156.588 Q1711.59 158.879 1715.82 158.879 Q1718.28 158.879 1720.57 158.278 Q1722.88 157.676 1725.15 156.472 L1725.15 160.5 Q1722.86 161.472 1720.45 161.981 Q1718.04 162.49 1715.57 162.49 Q1709.36 162.49 1705.73 158.879 Q1702.12 155.268 1702.12 149.111 Q1702.12 142.745 1705.54 139.018 Q1708.99 135.268 1714.83 135.268 Q1720.06 135.268 1723.09 138.648 Q1726.15 142.004 1726.15 147.791 M1721.89 146.541 Q1721.84 143.046 1719.92 140.963 Q1718.02 138.879 1714.87 138.879 Q1711.31 138.879 1709.15 140.893 Q1707.03 142.907 1706.7 146.565 L1721.89 146.541 Z" fill="#000000" fill-rule="nonzero" fill-opacity="1" /><path clip-path="url(#clip670)" d="M1761.33 125.801 L1761.33 129.343 L1757.26 129.343 Q1754.96 129.343 1754.06 130.268 Q1753.18 131.194 1753.18 133.602 L1753.18 135.893 L1760.2 135.893 L1760.2 139.204 L1753.18 139.204 L1753.18 161.819 L1748.9 161.819 L1748.9 139.204 L1744.83 139.204 L1744.83 135.893 L1748.9 135.893 L1748.9 134.088 Q1748.9 129.759 1750.91 127.792 Q1752.93 125.801 1757.3 125.801 L1761.33 125.801 Z" fill="#000000" fill-rule="nonzero" fill-opacity="1" /><path clip-path="url(#clip670)" d="M1774.94 138.879 Q1771.52 138.879 1769.52 141.565 Q1767.53 144.227 1767.53 148.879 Q1767.53 153.532 1769.5 156.217 Q1771.49 158.879 1774.94 158.879 Q1778.34 158.879 1780.34 156.194 Q1782.33 153.509 1782.33 148.879 Q1782.33 144.273 1780.34 141.588 Q1778.34 138.879 1774.94 138.879 M1774.94 135.268 Q1780.5 135.268 1783.67 138.879 Q1786.84 142.491 1786.84 148.879 Q1786.84 155.245 1783.67 158.879 Q1780.5 162.49 1774.94 162.49 Q1769.36 162.49 1766.19 158.879 Q1763.04 155.245 1763.04 148.879 Q1763.04 142.491 1766.19 138.879 Q1769.36 135.268 1774.94 135.268 Z" fill="#000000" fill-rule="nonzero" fill-opacity="1" /><path clip-path="url(#clip670)" d="M1808.92 139.875 Q1808.21 139.458 1807.35 139.273 Q1806.52 139.065 1805.5 139.065 Q1801.89 139.065 1799.94 141.426 Q1798.02 143.764 1798.02 148.162 L1798.02 161.819 L1793.74 161.819 L1793.74 135.893 L1798.02 135.893 L1798.02 139.921 Q1799.36 137.56 1801.52 136.426 Q1803.67 135.268 1806.75 135.268 Q1807.19 135.268 1807.72 135.338 Q1808.25 135.384 1808.9 135.5 L1808.92 139.875 Z" fill="#000000" fill-rule="nonzero" fill-opacity="1" /><path clip-path="url(#clip670)" d="M1832.74 140.87 Q1834.34 138 1836.56 136.634 Q1838.78 135.268 1841.79 135.268 Q1845.84 135.268 1848.04 138.116 Q1850.24 140.94 1850.24 146.171 L1850.24 161.819 L1845.96 161.819 L1845.96 146.31 Q1845.96 142.583 1844.64 140.778 Q1843.32 138.972 1840.61 138.972 Q1837.3 138.972 1835.38 141.171 Q1833.46 143.37 1833.46 147.166 L1833.46 161.819 L1829.18 161.819 L1829.18 146.31 Q1829.18 142.56 1827.86 140.778 Q1826.54 138.972 1823.78 138.972 Q1820.52 138.972 1818.6 141.194 Q1816.68 143.393 1816.68 147.166 L1816.68 161.819 L1812.4 161.819 L1812.4 135.893 L1816.68 135.893 L1816.68 139.921 Q1818.14 137.537 1820.17 136.403 Q1822.21 135.268 1825.01 135.268 Q1827.83 135.268 1829.8 136.704 Q1831.79 138.139 1832.74 140.87 Z" fill="#000000" fill-rule="nonzero" fill-opacity="1" /><path clip-path="url(#clip670)" d="M1858.3 151.588 L1858.3 135.893 L1862.56 135.893 L1862.56 151.426 Q1862.56 155.106 1863.99 156.958 Q1865.43 158.787 1868.3 158.787 Q1871.75 158.787 1873.74 156.588 Q1875.75 154.389 1875.75 150.592 L1875.75 135.893 L1880.01 135.893 L1880.01 161.819 L1875.75 161.819 L1875.75 157.838 Q1874.2 160.199 1872.14 161.356 Q1870.1 162.49 1867.39 162.49 Q1862.93 162.49 1860.61 159.713 Q1858.3 156.935 1858.3 151.588 M1869.02 135.268 L1869.02 135.268 Z" fill="#000000" fill-rule="nonzero" fill-opacity="1" /><path clip-path="url(#clip670)" d="M1888.78 125.801 L1893.04 125.801 L1893.04 161.819 L1888.78 161.819 L1888.78 125.801 Z" fill="#000000" fill-rule="nonzero" fill-opacity="1" /><path clip-path="url(#clip670)" d="M1924.13 147.791 L1924.13 149.875 L1904.55 149.875 Q1904.83 154.273 1907.19 156.588 Q1909.57 158.879 1913.81 158.879 Q1916.26 158.879 1918.55 158.278 Q1920.87 157.676 1923.14 156.472 L1923.14 160.5 Q1920.84 161.472 1918.44 161.981 Q1916.03 162.49 1913.55 162.49 Q1907.35 162.49 1903.71 158.879 Q1900.1 155.268 1900.1 149.111 Q1900.1 142.745 1903.53 139.018 Q1906.98 135.268 1912.81 135.268 Q1918.04 135.268 1921.08 138.648 Q1924.13 142.004 1924.13 147.791 M1919.87 146.541 Q1919.83 143.046 1917.9 140.963 Q1916.01 138.879 1912.86 138.879 Q1909.29 138.879 1907.14 140.893 Q1905.01 142.907 1904.69 146.565 L1919.87 146.541 Z" fill="#000000" fill-rule="nonzero" fill-opacity="1" /><circle clip-path="url(#clip670)" cx="1241.25" cy="196.379" r="20.48" fill="#e26f46" fill-rule="evenodd" fill-opacity="1" stroke="#000000" stroke-opacity="1" stroke-width="4.55111"/>
<path clip-path="url(#clip670)" d="M1355.22 198.011 L1355.22 213.659 L1350.96 213.659 L1350.96 198.15 Q1350.96 194.469 1349.53 192.641 Q1348.09 190.812 1345.22 190.812 Q1341.77 190.812 1339.78 193.011 Q1337.79 195.21 1337.79 199.006 L1337.79 213.659 L1333.51 213.659 L1333.51 187.733 L1337.79 187.733 L1337.79 191.761 Q1339.32 189.423 1341.38 188.266 Q1343.46 187.108 1346.17 187.108 Q1350.64 187.108 1352.93 189.886 Q1355.22 192.641 1355.22 198.011 Z" fill="#000000" fill-rule="nonzero" fill-opacity="1" /><path clip-path="url(#clip670)" d="M1375.5 200.627 Q1370.34 200.627 1368.35 201.807 Q1366.36 202.988 1366.36 205.835 Q1366.36 208.104 1367.84 209.446 Q1369.34 210.766 1371.91 210.766 Q1375.45 210.766 1377.58 208.266 Q1379.74 205.743 1379.74 201.576 L1379.74 200.627 L1375.5 200.627 M1383.99 198.868 L1383.99 213.659 L1379.74 213.659 L1379.74 209.724 Q1378.28 212.085 1376.1 213.219 Q1373.93 214.33 1370.78 214.33 Q1366.8 214.33 1364.43 212.108 Q1362.1 209.863 1362.1 206.113 Q1362.1 201.738 1365.01 199.516 Q1367.95 197.294 1373.76 197.294 L1379.74 197.294 L1379.74 196.877 Q1379.74 193.937 1377.79 192.34 Q1375.87 190.719 1372.37 190.719 Q1370.15 190.719 1368.05 191.252 Q1365.94 191.784 1363.99 192.849 L1363.99 188.914 Q1366.33 188.011 1368.53 187.571 Q1370.73 187.108 1372.81 187.108 Q1378.44 187.108 1381.22 190.025 Q1383.99 192.942 1383.99 198.868 Z" fill="#000000" fill-rule="nonzero" fill-opacity="1" /><path clip-path="url(#clip670)" d="M1396.89 209.77 L1396.89 223.52 L1392.61 223.52 L1392.61 187.733 L1396.89 187.733 L1396.89 191.669 Q1398.23 189.354 1400.27 188.243 Q1402.33 187.108 1405.18 187.108 Q1409.9 187.108 1412.84 190.858 Q1415.8 194.608 1415.8 200.719 Q1415.8 206.831 1412.84 210.58 Q1409.9 214.33 1405.18 214.33 Q1402.33 214.33 1400.27 213.219 Q1398.23 212.085 1396.89 209.77 M1411.38 200.719 Q1411.38 196.02 1409.43 193.358 Q1407.51 190.673 1404.13 190.673 Q1400.75 190.673 1398.81 193.358 Q1396.89 196.02 1396.89 200.719 Q1396.89 205.418 1398.81 208.104 Q1400.75 210.766 1404.13 210.766 Q1407.51 210.766 1409.43 208.104 Q1411.38 205.418 1411.38 200.719 Z" fill="#000000" fill-rule="nonzero" fill-opacity="1" /><path clip-path="url(#clip670)" d="M1434.64 200.627 Q1429.48 200.627 1427.49 201.807 Q1425.5 202.988 1425.5 205.835 Q1425.5 208.104 1426.98 209.446 Q1428.49 210.766 1431.05 210.766 Q1434.6 210.766 1436.73 208.266 Q1438.88 205.743 1438.88 201.576 L1438.88 200.627 L1434.64 200.627 M1443.14 198.868 L1443.14 213.659 L1438.88 213.659 L1438.88 209.724 Q1437.42 212.085 1435.24 213.219 Q1433.07 214.33 1429.92 214.33 Q1425.94 214.33 1423.58 212.108 Q1421.24 209.863 1421.24 206.113 Q1421.24 201.738 1424.16 199.516 Q1427.1 197.294 1432.91 197.294 L1438.88 197.294 L1438.88 196.877 Q1438.88 193.937 1436.93 192.34 Q1435.01 190.719 1431.52 190.719 Q1429.3 190.719 1427.19 191.252 Q1425.08 191.784 1423.14 192.849 L1423.14 188.914 Q1425.48 188.011 1427.67 187.571 Q1429.87 187.108 1431.96 187.108 Q1437.58 187.108 1440.36 190.025 Q1443.14 192.942 1443.14 198.868 Z" fill="#000000" fill-rule="nonzero" fill-opacity="1" /><path clip-path="url(#clip670)" d="M1451.75 177.641 L1456.03 177.641 L1456.03 198.914 L1468.74 187.733 L1474.18 187.733 L1460.43 199.863 L1474.76 213.659 L1469.2 213.659 L1456.03 200.997 L1456.03 213.659 L1451.75 213.659 L1451.75 177.641 Z" fill="#000000" fill-rule="nonzero" fill-opacity="1" /><path clip-path="url(#clip670)" d="M1490.31 200.627 Q1485.15 200.627 1483.16 201.807 Q1481.17 202.988 1481.17 205.835 Q1481.17 208.104 1482.65 209.446 Q1484.16 210.766 1486.73 210.766 Q1490.27 210.766 1492.4 208.266 Q1494.55 205.743 1494.55 201.576 L1494.55 200.627 L1490.31 200.627 M1498.81 198.868 L1498.81 213.659 L1494.55 213.659 L1494.55 209.724 Q1493.09 212.085 1490.92 213.219 Q1488.74 214.33 1485.59 214.33 Q1481.61 214.33 1479.25 212.108 Q1476.91 209.863 1476.91 206.113 Q1476.91 201.738 1479.83 199.516 Q1482.77 197.294 1488.58 197.294 L1494.55 197.294 L1494.55 196.877 Q1494.55 193.937 1492.61 192.34 Q1490.68 190.719 1487.19 190.719 Q1484.97 190.719 1482.86 191.252 Q1480.75 191.784 1478.81 192.849 L1478.81 188.914 Q1481.15 188.011 1483.35 187.571 Q1485.55 187.108 1487.63 187.108 Q1493.25 187.108 1496.03 190.025 Q1498.81 192.942 1498.81 198.868 Z" fill="#000000" fill-rule="nonzero" fill-opacity="1" /><path clip-path="url(#clip670)" d="M1543.55 180.233 L1543.55 184.794 Q1540.89 183.52 1538.53 182.895 Q1536.17 182.27 1533.97 182.27 Q1530.15 182.27 1528.07 183.752 Q1526.01 185.233 1526.01 187.965 Q1526.01 190.257 1527.37 191.437 Q1528.76 192.594 1532.6 193.312 L1535.43 193.891 Q1540.66 194.886 1543.14 197.409 Q1545.64 199.909 1545.64 204.122 Q1545.64 209.145 1542.26 211.738 Q1538.9 214.33 1532.4 214.33 Q1529.94 214.33 1527.17 213.775 Q1524.41 213.219 1521.45 212.131 L1521.45 207.317 Q1524.29 208.914 1527.03 209.724 Q1529.76 210.534 1532.4 210.534 Q1536.4 210.534 1538.58 208.96 Q1540.75 207.386 1540.75 204.469 Q1540.75 201.923 1539.18 200.488 Q1537.63 199.053 1534.06 198.335 L1531.22 197.78 Q1525.98 196.738 1523.65 194.516 Q1521.31 192.294 1521.31 188.335 Q1521.31 183.752 1524.53 181.113 Q1527.77 178.474 1533.44 178.474 Q1535.87 178.474 1538.39 178.914 Q1540.92 179.354 1543.55 180.233 Z" fill="#000000" fill-rule="nonzero" fill-opacity="1" /><path clip-path="url(#clip670)" d="M1552.74 187.733 L1557 187.733 L1557 213.659 L1552.74 213.659 L1552.74 187.733 M1552.74 177.641 L1557 177.641 L1557 183.034 L1552.74 183.034 L1552.74 177.641 Z" fill="#000000" fill-rule="nonzero" fill-opacity="1" /><path clip-path="url(#clip670)" d="M1586.1 192.71 Q1587.7 189.84 1589.92 188.474 Q1592.14 187.108 1595.15 187.108 Q1599.2 187.108 1601.4 189.956 Q1603.6 192.78 1603.6 198.011 L1603.6 213.659 L1599.32 213.659 L1599.32 198.15 Q1599.32 194.423 1598 192.618 Q1596.68 190.812 1593.97 190.812 Q1590.66 190.812 1588.74 193.011 Q1586.82 195.21 1586.82 199.006 L1586.82 213.659 L1582.54 213.659 L1582.54 198.15 Q1582.54 194.4 1581.22 192.618 Q1579.9 190.812 1577.14 190.812 Q1573.88 190.812 1571.96 193.034 Q1570.04 195.233 1570.04 199.006 L1570.04 213.659 L1565.75 213.659 L1565.75 187.733 L1570.04 187.733 L1570.04 191.761 Q1571.49 189.377 1573.53 188.243 Q1575.57 187.108 1578.37 187.108 Q1581.19 187.108 1583.16 188.544 Q1585.15 189.979 1586.1 192.71 Z" fill="#000000" fill-rule="nonzero" fill-opacity="1" /><path clip-path="url(#clip670)" d="M1616.22 209.77 L1616.22 223.52 L1611.93 223.52 L1611.93 187.733 L1616.22 187.733 L1616.22 191.669 Q1617.56 189.354 1619.6 188.243 Q1621.66 187.108 1624.5 187.108 Q1629.22 187.108 1632.16 190.858 Q1635.13 194.608 1635.13 200.719 Q1635.13 206.831 1632.16 210.58 Q1629.22 214.33 1624.5 214.33 Q1621.66 214.33 1619.6 213.219 Q1617.56 212.085 1616.22 209.77 M1630.71 200.719 Q1630.71 196.02 1628.76 193.358 Q1626.84 190.673 1623.46 190.673 Q1620.08 190.673 1618.14 193.358 Q1616.22 196.02 1616.22 200.719 Q1616.22 205.418 1618.14 208.104 Q1620.08 210.766 1623.46 210.766 Q1626.84 210.766 1628.76 208.104 Q1630.71 205.418 1630.71 200.719 Z" fill="#000000" fill-rule="nonzero" fill-opacity="1" /><path clip-path="url(#clip670)" d="M1658.72 188.497 L1658.72 192.525 Q1656.91 191.599 1654.97 191.136 Q1653.02 190.673 1650.94 190.673 Q1647.77 190.673 1646.17 191.645 Q1644.6 192.618 1644.6 194.562 Q1644.6 196.044 1645.73 196.9 Q1646.86 197.733 1650.29 198.497 L1651.75 198.821 Q1656.28 199.794 1658.18 201.576 Q1660.1 203.335 1660.1 206.506 Q1660.1 210.118 1657.23 212.224 Q1654.39 214.33 1649.39 214.33 Q1647.3 214.33 1645.03 213.914 Q1642.79 213.52 1640.29 212.71 L1640.29 208.312 Q1642.65 209.539 1644.94 210.164 Q1647.23 210.766 1649.48 210.766 Q1652.49 210.766 1654.11 209.747 Q1655.73 208.706 1655.73 206.831 Q1655.73 205.094 1654.55 204.168 Q1653.39 203.243 1649.43 202.386 L1647.95 202.039 Q1643.99 201.206 1642.23 199.493 Q1640.47 197.756 1640.47 194.747 Q1640.47 191.09 1643.07 189.099 Q1645.66 187.108 1650.43 187.108 Q1652.79 187.108 1654.87 187.456 Q1656.96 187.803 1658.72 188.497 Z" fill="#000000" fill-rule="nonzero" fill-opacity="1" /><path clip-path="url(#clip670)" d="M1676.93 190.719 Q1673.51 190.719 1671.52 193.405 Q1669.53 196.067 1669.53 200.719 Q1669.53 205.372 1671.49 208.057 Q1673.48 210.719 1676.93 210.719 Q1680.34 210.719 1682.33 208.034 Q1684.32 205.349 1684.32 200.719 Q1684.32 196.113 1682.33 193.428 Q1680.34 190.719 1676.93 190.719 M1676.93 187.108 Q1682.49 187.108 1685.66 190.719 Q1688.83 194.331 1688.83 200.719 Q1688.83 207.085 1685.66 210.719 Q1682.49 214.33 1676.93 214.33 Q1671.35 214.33 1668.18 210.719 Q1665.03 207.085 1665.03 200.719 Q1665.03 194.331 1668.18 190.719 Q1671.35 187.108 1676.93 187.108 Z" fill="#000000" fill-rule="nonzero" fill-opacity="1" /><path clip-path="url(#clip670)" d="M1717.44 198.011 L1717.44 213.659 L1713.18 213.659 L1713.18 198.15 Q1713.18 194.469 1711.75 192.641 Q1710.31 190.812 1707.44 190.812 Q1703.99 190.812 1702 193.011 Q1700.01 195.21 1700.01 199.006 L1700.01 213.659 L1695.73 213.659 L1695.73 187.733 L1700.01 187.733 L1700.01 191.761 Q1701.54 189.423 1703.6 188.266 Q1705.68 187.108 1708.39 187.108 Q1712.86 187.108 1715.15 189.886 Q1717.44 192.641 1717.44 198.011 Z" fill="#000000" fill-rule="nonzero" fill-opacity="1" /><path clip-path="url(#clip670)" d="M1735.98 190.719 Q1732.56 190.719 1730.57 193.405 Q1728.58 196.067 1728.58 200.719 Q1728.58 205.372 1730.54 208.057 Q1732.53 210.719 1735.98 210.719 Q1739.39 210.719 1741.38 208.034 Q1743.37 205.349 1743.37 200.719 Q1743.37 196.113 1741.38 193.428 Q1739.39 190.719 1735.98 190.719 M1735.98 187.108 Q1741.54 187.108 1744.71 190.719 Q1747.88 194.331 1747.88 200.719 Q1747.88 207.085 1744.71 210.719 Q1741.54 214.33 1735.98 214.33 Q1730.4 214.33 1727.23 210.719 Q1724.09 207.085 1724.09 200.719 Q1724.09 194.331 1727.23 190.719 Q1730.4 187.108 1735.98 187.108 Z" fill="#000000" fill-rule="nonzero" fill-opacity="1" /><path clip-path="url(#clip670)" d="M1751.89 187.733 L1756.4 187.733 L1764.5 209.493 L1772.6 187.733 L1777.12 187.733 L1767.4 213.659 L1761.61 213.659 L1751.89 187.733 Z" fill="#000000" fill-rule="nonzero" fill-opacity="1" /><path clip-path="url(#clip670)" d="M1805.17 199.631 L1805.17 201.715 L1785.59 201.715 Q1785.87 206.113 1788.23 208.428 Q1790.61 210.719 1794.85 210.719 Q1797.3 210.719 1799.59 210.118 Q1801.91 209.516 1804.18 208.312 L1804.18 212.34 Q1801.89 213.312 1799.48 213.821 Q1797.07 214.33 1794.59 214.33 Q1788.39 214.33 1784.76 210.719 Q1781.15 207.108 1781.15 200.951 Q1781.15 194.585 1784.57 190.858 Q1788.02 187.108 1793.85 187.108 Q1799.08 187.108 1802.12 190.488 Q1805.17 193.844 1805.17 199.631 M1800.91 198.381 Q1800.87 194.886 1798.95 192.803 Q1797.05 190.719 1793.9 190.719 Q1790.34 190.719 1788.18 192.733 Q1786.05 194.747 1785.73 198.405 L1800.91 198.381 Z" fill="#000000" fill-rule="nonzero" fill-opacity="1" /><path clip-path="url(#clip670)" d="M1840.36 177.641 L1840.36 181.183 L1836.28 181.183 Q1833.99 181.183 1833.09 182.108 Q1832.21 183.034 1832.21 185.442 L1832.21 187.733 L1839.22 187.733 L1839.22 191.044 L1832.21 191.044 L1832.21 213.659 L1827.93 213.659 L1827.93 191.044 L1823.85 191.044 L1823.85 187.733 L1827.93 187.733 L1827.93 185.928 Q1827.93 181.599 1829.94 179.632 Q1831.96 177.641 1836.33 177.641 L1840.36 177.641 Z" fill="#000000" fill-rule="nonzero" fill-opacity="1" /><path clip-path="url(#clip670)" d="M1853.97 190.719 Q1850.54 190.719 1848.55 193.405 Q1846.56 196.067 1846.56 200.719 Q1846.56 205.372 1848.53 208.057 Q1850.52 210.719 1853.97 210.719 Q1857.37 210.719 1859.36 208.034 Q1861.35 205.349 1861.35 200.719 Q1861.35 196.113 1859.36 193.428 Q1857.37 190.719 1853.97 190.719 M1853.97 187.108 Q1859.52 187.108 1862.7 190.719 Q1865.87 194.331 1865.87 200.719 Q1865.87 207.085 1862.7 210.719 Q1859.52 214.33 1853.97 214.33 Q1848.39 214.33 1845.22 210.719 Q1842.07 207.085 1842.07 200.719 Q1842.07 194.331 1845.22 190.719 Q1848.39 187.108 1853.97 187.108 Z" fill="#000000" fill-rule="nonzero" fill-opacity="1" /><path clip-path="url(#clip670)" d="M1887.95 191.715 Q1887.23 191.298 1886.38 191.113 Q1885.54 190.905 1884.52 190.905 Q1880.91 190.905 1878.97 193.266 Q1877.05 195.604 1877.05 200.002 L1877.05 213.659 L1872.77 213.659 L1872.77 187.733 L1877.05 187.733 L1877.05 191.761 Q1878.39 189.4 1880.54 188.266 Q1882.7 187.108 1885.77 187.108 Q1886.21 187.108 1886.75 187.178 Q1887.28 187.224 1887.93 187.34 L1887.95 191.715 Z" fill="#000000" fill-rule="nonzero" fill-opacity="1" /><path clip-path="url(#clip670)" d="M1911.77 192.71 Q1913.37 189.84 1915.59 188.474 Q1917.81 187.108 1920.82 187.108 Q1924.87 187.108 1927.07 189.956 Q1929.27 192.78 1929.27 198.011 L1929.27 213.659 L1924.99 213.659 L1924.99 198.15 Q1924.99 194.423 1923.67 192.618 Q1922.35 190.812 1919.64 190.812 Q1916.33 190.812 1914.41 193.011 Q1912.49 195.21 1912.49 199.006 L1912.49 213.659 L1908.2 213.659 L1908.2 198.15 Q1908.2 194.4 1906.89 192.618 Q1905.57 190.812 1902.81 190.812 Q1899.55 190.812 1897.63 193.034 Q1895.7 195.233 1895.7 199.006 L1895.7 213.659 L1891.42 213.659 L1891.42 187.733 L1895.7 187.733 L1895.7 191.761 Q1897.16 189.377 1899.2 188.243 Q1901.24 187.108 1904.04 187.108 Q1906.86 187.108 1908.83 188.544 Q1910.82 189.979 1911.77 192.71 Z" fill="#000000" fill-rule="nonzero" fill-opacity="1" /><path clip-path="url(#clip670)" d="M1937.32 203.428 L1937.32 187.733 L1941.58 187.733 L1941.58 203.266 Q1941.58 206.946 1943.02 208.798 Q1944.45 210.627 1947.32 210.627 Q1950.77 210.627 1952.76 208.428 Q1954.78 206.229 1954.78 202.432 L1954.78 187.733 L1959.04 187.733 L1959.04 213.659 L1954.78 213.659 L1954.78 209.678 Q1953.23 212.039 1951.17 213.196 Q1949.13 214.33 1946.42 214.33 Q1941.95 214.33 1939.64 211.553 Q1937.32 208.775 1937.32 203.428 M1948.04 187.108 L1948.04 187.108 Z" fill="#000000" fill-rule="nonzero" fill-opacity="1" /><path clip-path="url(#clip670)" d="M1967.81 177.641 L1972.07 177.641 L1972.07 213.659 L1967.81 213.659 L1967.81 177.641 Z" fill="#000000" fill-rule="nonzero" fill-opacity="1" /><path clip-path="url(#clip670)" d="M2003.16 199.631 L2003.16 201.715 L1983.57 201.715 Q1983.85 206.113 1986.21 208.428 Q1988.6 210.719 1992.83 210.719 Q1995.29 210.719 1997.58 210.118 Q1999.89 209.516 2002.16 208.312 L2002.16 212.34 Q1999.87 213.312 1997.46 213.821 Q1995.06 214.33 1992.58 214.33 Q1986.38 214.33 1982.74 210.719 Q1979.13 207.108 1979.13 200.951 Q1979.13 194.585 1982.56 190.858 Q1986.01 187.108 1991.84 187.108 Q1997.07 187.108 2000.1 190.488 Q2003.16 193.844 2003.16 199.631 M1998.9 198.381 Q1998.85 194.886 1996.93 192.803 Q1995.03 190.719 1991.88 190.719 Q1988.32 190.719 1986.17 192.733 Q1984.04 194.747 1983.71 198.405 L1998.9 198.381 Z" fill="#000000" fill-rule="nonzero" fill-opacity="1" /><circle clip-path="url(#clip670)" cx="1241.25" cy="248.219" r="20.48" fill="#3da44d" fill-rule="evenodd" fill-opacity="1" stroke="#000000" stroke-opacity="1" stroke-width="4.55111"/>
<path clip-path="url(#clip670)" d="M1355.22 249.851 L1355.22 265.499 L1350.96 265.499 L1350.96 249.99 Q1350.96 246.309 1349.53 244.481 Q1348.09 242.652 1345.22 242.652 Q1341.77 242.652 1339.78 244.851 Q1337.79 247.05 1337.79 250.846 L1337.79 265.499 L1333.51 265.499 L1333.51 239.573 L1337.79 239.573 L1337.79 243.601 Q1339.32 241.263 1341.38 240.106 Q1343.46 238.948 1346.17 238.948 Q1350.64 238.948 1352.93 241.726 Q1355.22 244.481 1355.22 249.851 Z" fill="#000000" fill-rule="nonzero" fill-opacity="1" /><path clip-path="url(#clip670)" d="M1375.5 252.467 Q1370.34 252.467 1368.35 253.647 Q1366.36 254.828 1366.36 257.675 Q1366.36 259.944 1367.84 261.286 Q1369.34 262.606 1371.91 262.606 Q1375.45 262.606 1377.58 260.106 Q1379.74 257.583 1379.74 253.416 L1379.74 252.467 L1375.5 252.467 M1383.99 250.708 L1383.99 265.499 L1379.74 265.499 L1379.74 261.564 Q1378.28 263.925 1376.1 265.059 Q1373.93 266.17 1370.78 266.17 Q1366.8 266.17 1364.43 263.948 Q1362.1 261.703 1362.1 257.953 Q1362.1 253.578 1365.01 251.356 Q1367.95 249.134 1373.76 249.134 L1379.74 249.134 L1379.74 248.717 Q1379.74 245.777 1377.79 244.18 Q1375.87 242.559 1372.37 242.559 Q1370.15 242.559 1368.05 243.092 Q1365.94 243.624 1363.99 244.689 L1363.99 240.754 Q1366.33 239.851 1368.53 239.411 Q1370.73 238.948 1372.81 238.948 Q1378.44 238.948 1381.22 241.865 Q1383.99 244.782 1383.99 250.708 Z" fill="#000000" fill-rule="nonzero" fill-opacity="1" /><path clip-path="url(#clip670)" d="M1396.89 261.61 L1396.89 275.36 L1392.61 275.36 L1392.61 239.573 L1396.89 239.573 L1396.89 243.509 Q1398.23 241.194 1400.27 240.083 Q1402.33 238.948 1405.18 238.948 Q1409.9 238.948 1412.84 242.698 Q1415.8 246.448 1415.8 252.559 Q1415.8 258.671 1412.84 262.42 Q1409.9 266.17 1405.18 266.17 Q1402.33 266.17 1400.27 265.059 Q1398.23 263.925 1396.89 261.61 M1411.38 252.559 Q1411.38 247.86 1409.43 245.198 Q1407.51 242.513 1404.13 242.513 Q1400.75 242.513 1398.81 245.198 Q1396.89 247.86 1396.89 252.559 Q1396.89 257.258 1398.81 259.944 Q1400.75 262.606 1404.13 262.606 Q1407.51 262.606 1409.43 259.944 Q1411.38 257.258 1411.38 252.559 Z" fill="#000000" fill-rule="nonzero" fill-opacity="1" /><path clip-path="url(#clip670)" d="M1434.64 252.467 Q1429.48 252.467 1427.49 253.647 Q1425.5 254.828 1425.5 257.675 Q1425.5 259.944 1426.98 261.286 Q1428.49 262.606 1431.05 262.606 Q1434.6 262.606 1436.73 260.106 Q1438.88 257.583 1438.88 253.416 L1438.88 252.467 L1434.64 252.467 M1443.14 250.708 L1443.14 265.499 L1438.88 265.499 L1438.88 261.564 Q1437.42 263.925 1435.24 265.059 Q1433.07 266.17 1429.92 266.17 Q1425.94 266.17 1423.58 263.948 Q1421.24 261.703 1421.24 257.953 Q1421.24 253.578 1424.16 251.356 Q1427.1 249.134 1432.91 249.134 L1438.88 249.134 L1438.88 248.717 Q1438.88 245.777 1436.93 244.18 Q1435.01 242.559 1431.52 242.559 Q1429.3 242.559 1427.19 243.092 Q1425.08 243.624 1423.14 244.689 L1423.14 240.754 Q1425.48 239.851 1427.67 239.411 Q1429.87 238.948 1431.96 238.948 Q1437.58 238.948 1440.36 241.865 Q1443.14 244.782 1443.14 250.708 Z" fill="#000000" fill-rule="nonzero" fill-opacity="1" /><path clip-path="url(#clip670)" d="M1451.75 229.481 L1456.03 229.481 L1456.03 250.754 L1468.74 239.573 L1474.18 239.573 L1460.43 251.703 L1474.76 265.499 L1469.2 265.499 L1456.03 252.837 L1456.03 265.499 L1451.75 265.499 L1451.75 229.481 Z" fill="#000000" fill-rule="nonzero" fill-opacity="1" /><path clip-path="url(#clip670)" d="M1490.31 252.467 Q1485.15 252.467 1483.16 253.647 Q1481.17 254.828 1481.17 257.675 Q1481.17 259.944 1482.65 261.286 Q1484.16 262.606 1486.73 262.606 Q1490.27 262.606 1492.4 260.106 Q1494.55 257.583 1494.55 253.416 L1494.55 252.467 L1490.31 252.467 M1498.81 250.708 L1498.81 265.499 L1494.55 265.499 L1494.55 261.564 Q1493.09 263.925 1490.92 265.059 Q1488.74 266.17 1485.59 266.17 Q1481.61 266.17 1479.25 263.948 Q1476.91 261.703 1476.91 257.953 Q1476.91 253.578 1479.83 251.356 Q1482.77 249.134 1488.58 249.134 L1494.55 249.134 L1494.55 248.717 Q1494.55 245.777 1492.61 244.18 Q1490.68 242.559 1487.19 242.559 Q1484.97 242.559 1482.86 243.092 Q1480.75 243.624 1478.81 244.689 L1478.81 240.754 Q1481.15 239.851 1483.35 239.411 Q1485.55 238.948 1487.63 238.948 Q1493.25 238.948 1496.03 241.865 Q1498.81 244.782 1498.81 250.708 Z" fill="#000000" fill-rule="nonzero" fill-opacity="1" /><path clip-path="url(#clip670)" d="M1546.4 260.569 L1546.4 251.286 L1538.76 251.286 L1538.76 247.444 L1551.03 247.444 L1551.03 262.282 Q1548.32 264.203 1545.06 265.198 Q1541.79 266.17 1538.09 266.17 Q1529.99 266.17 1525.41 261.448 Q1520.85 256.703 1520.85 248.254 Q1520.85 239.782 1525.41 235.06 Q1529.99 230.314 1538.09 230.314 Q1541.47 230.314 1544.5 231.148 Q1547.56 231.981 1550.13 233.601 L1550.13 238.578 Q1547.54 236.379 1544.62 235.268 Q1541.7 234.157 1538.48 234.157 Q1532.14 234.157 1528.95 237.698 Q1525.78 241.24 1525.78 248.254 Q1525.78 255.245 1528.95 258.786 Q1532.14 262.328 1538.48 262.328 Q1540.96 262.328 1542.91 261.911 Q1544.85 261.471 1546.4 260.569 Z" fill="#000000" fill-rule="nonzero" fill-opacity="1" /><path clip-path="url(#clip670)" d="M1571.17 252.467 Q1566.01 252.467 1564.02 253.647 Q1562.03 254.828 1562.03 257.675 Q1562.03 259.944 1563.51 261.286 Q1565.01 262.606 1567.58 262.606 Q1571.12 262.606 1573.25 260.106 Q1575.41 257.583 1575.41 253.416 L1575.41 252.467 L1571.17 252.467 M1579.66 250.708 L1579.66 265.499 L1575.41 265.499 L1575.41 261.564 Q1573.95 263.925 1571.77 265.059 Q1569.6 266.17 1566.45 266.17 Q1562.47 266.17 1560.1 263.948 Q1557.77 261.703 1557.77 257.953 Q1557.77 253.578 1560.68 251.356 Q1563.62 249.134 1569.43 249.134 L1575.41 249.134 L1575.41 248.717 Q1575.41 245.777 1573.46 244.18 Q1571.54 242.559 1568.04 242.559 Q1565.82 242.559 1563.72 243.092 Q1561.61 243.624 1559.66 244.689 L1559.66 240.754 Q1562 239.851 1564.2 239.411 Q1566.4 238.948 1568.48 238.948 Q1574.11 238.948 1576.89 241.865 Q1579.66 244.782 1579.66 250.708 Z" fill="#000000" fill-rule="nonzero" fill-opacity="1" /><path clip-path="url(#clip670)" d="M1588 255.268 L1588 239.573 L1592.26 239.573 L1592.26 255.106 Q1592.26 258.786 1593.69 260.638 Q1595.13 262.467 1598 262.467 Q1601.45 262.467 1603.44 260.268 Q1605.45 258.069 1605.45 254.272 L1605.45 239.573 L1609.71 239.573 L1609.71 265.499 L1605.45 265.499 L1605.45 261.518 Q1603.9 263.879 1601.84 265.036 Q1599.8 266.17 1597.1 266.17 Q1592.63 266.17 1590.31 263.393 Q1588 260.615 1588 255.268 M1598.72 238.948 L1598.72 238.948 Z" fill="#000000" fill-rule="nonzero" fill-opacity="1" /><path clip-path="url(#clip670)" d="M1635.01 240.337 L1635.01 244.365 Q1633.21 243.439 1631.26 242.976 Q1629.32 242.513 1627.23 242.513 Q1624.06 242.513 1622.47 243.485 Q1620.89 244.458 1620.89 246.402 Q1620.89 247.884 1622.03 248.74 Q1623.16 249.573 1626.59 250.337 L1628.04 250.661 Q1632.58 251.634 1634.48 253.416 Q1636.4 255.175 1636.4 258.346 Q1636.4 261.958 1633.53 264.064 Q1630.68 266.17 1625.68 266.17 Q1623.6 266.17 1621.33 265.754 Q1619.09 265.36 1616.59 264.55 L1616.59 260.152 Q1618.95 261.379 1621.24 262.004 Q1623.53 262.606 1625.78 262.606 Q1628.78 262.606 1630.41 261.587 Q1632.03 260.546 1632.03 258.671 Q1632.03 256.934 1630.85 256.008 Q1629.69 255.083 1625.73 254.226 L1624.25 253.879 Q1620.29 253.046 1618.53 251.333 Q1616.77 249.596 1616.77 246.587 Q1616.77 242.93 1619.36 240.939 Q1621.96 238.948 1626.72 238.948 Q1629.09 238.948 1631.17 239.296 Q1633.25 239.643 1635.01 240.337 Z" fill="#000000" fill-rule="nonzero" fill-opacity="1" /><path clip-path="url(#clip670)" d="M1659.71 240.337 L1659.71 244.365 Q1657.91 243.439 1655.96 242.976 Q1654.02 242.513 1651.93 242.513 Q1648.76 242.513 1647.16 243.485 Q1645.59 244.458 1645.59 246.402 Q1645.59 247.884 1646.72 248.74 Q1647.86 249.573 1651.28 250.337 L1652.74 250.661 Q1657.28 251.634 1659.18 253.416 Q1661.1 255.175 1661.1 258.346 Q1661.1 261.958 1658.23 264.064 Q1655.38 266.17 1650.38 266.17 Q1648.3 266.17 1646.03 265.754 Q1643.78 265.36 1641.28 264.55 L1641.28 260.152 Q1643.65 261.379 1645.94 262.004 Q1648.23 262.606 1650.47 262.606 Q1653.48 262.606 1655.1 261.587 Q1656.72 260.546 1656.72 258.671 Q1656.72 256.934 1655.54 256.008 Q1654.39 255.083 1650.43 254.226 L1648.95 253.879 Q1644.99 253.046 1643.23 251.333 Q1641.47 249.596 1641.47 246.587 Q1641.47 242.93 1644.06 240.939 Q1646.66 238.948 1651.42 238.948 Q1653.78 238.948 1655.87 239.296 Q1657.95 239.643 1659.71 240.337 Z" fill="#000000" fill-rule="nonzero" fill-opacity="1" /><path clip-path="url(#clip670)" d="M1665.73 250.615 L1678.21 250.615 L1678.21 254.411 L1665.73 254.411 L1665.73 250.615 Z" fill="#000000" fill-rule="nonzero" fill-opacity="1" /><path clip-path="url(#clip670)" d="M1685.17 230.939 L1689.85 230.939 L1689.85 261.564 L1706.68 261.564 L1706.68 265.499 L1685.17 265.499 L1685.17 230.939 Z" fill="#000000" fill-rule="nonzero" fill-opacity="1" /><path clip-path="url(#clip670)" d="M1732.74 251.471 L1732.74 253.555 L1713.16 253.555 Q1713.44 257.953 1715.8 260.268 Q1718.18 262.559 1722.42 262.559 Q1724.87 262.559 1727.16 261.958 Q1729.48 261.356 1731.75 260.152 L1731.75 264.18 Q1729.46 265.152 1727.05 265.661 Q1724.64 266.17 1722.16 266.17 Q1715.96 266.17 1712.33 262.559 Q1708.72 258.948 1708.72 252.791 Q1708.72 246.425 1712.14 242.698 Q1715.59 238.948 1721.42 238.948 Q1726.65 238.948 1729.69 242.328 Q1732.74 245.684 1732.74 251.471 M1728.48 250.221 Q1728.44 246.726 1726.52 244.643 Q1724.62 242.559 1721.47 242.559 Q1717.9 242.559 1715.75 244.573 Q1713.62 246.587 1713.3 250.245 L1728.48 250.221 Z" fill="#000000" fill-rule="nonzero" fill-opacity="1" /><path clip-path="url(#clip670)" d="M1756.79 252.235 Q1756.79 247.606 1754.87 245.059 Q1752.97 242.513 1749.53 242.513 Q1746.1 242.513 1744.18 245.059 Q1742.28 247.606 1742.28 252.235 Q1742.28 256.842 1744.18 259.388 Q1746.1 261.934 1749.53 261.934 Q1752.97 261.934 1754.87 259.388 Q1756.79 256.842 1756.79 252.235 M1761.05 262.282 Q1761.05 268.902 1758.11 272.12 Q1755.17 275.36 1749.11 275.36 Q1746.86 275.36 1744.87 275.013 Q1742.88 274.689 1741.01 273.995 L1741.01 269.851 Q1742.88 270.87 1744.71 271.356 Q1746.54 271.842 1748.44 271.842 Q1752.63 271.842 1754.71 269.643 Q1756.79 267.467 1756.79 263.045 L1756.79 260.939 Q1755.47 263.231 1753.41 264.365 Q1751.35 265.499 1748.48 265.499 Q1743.71 265.499 1740.8 261.865 Q1737.88 258.231 1737.88 252.235 Q1737.88 246.217 1740.8 242.583 Q1743.71 238.948 1748.48 238.948 Q1751.35 238.948 1753.41 240.083 Q1755.47 241.217 1756.79 243.509 L1756.79 239.573 L1761.05 239.573 L1761.05 262.282 Z" fill="#000000" fill-rule="nonzero" fill-opacity="1" /><path clip-path="url(#clip670)" d="M1792 251.471 L1792 253.555 L1772.42 253.555 Q1772.7 257.953 1775.06 260.268 Q1777.44 262.559 1781.68 262.559 Q1784.13 262.559 1786.42 261.958 Q1788.74 261.356 1791.01 260.152 L1791.01 264.18 Q1788.71 265.152 1786.31 265.661 Q1783.9 266.17 1781.42 266.17 Q1775.22 266.17 1771.59 262.559 Q1767.97 258.948 1767.97 252.791 Q1767.97 246.425 1771.4 242.698 Q1774.85 238.948 1780.68 238.948 Q1785.91 238.948 1788.95 242.328 Q1792 245.684 1792 251.471 M1787.74 250.221 Q1787.7 246.726 1785.77 244.643 Q1783.88 242.559 1780.73 242.559 Q1777.16 242.559 1775.01 244.573 Q1772.88 246.587 1772.56 250.245 L1787.74 250.221 Z" fill="#000000" fill-rule="nonzero" fill-opacity="1" /><path clip-path="url(#clip670)" d="M1820.54 249.851 L1820.54 265.499 L1816.28 265.499 L1816.28 249.99 Q1816.28 246.309 1814.85 244.481 Q1813.41 242.652 1810.54 242.652 Q1807.09 242.652 1805.1 244.851 Q1803.11 247.05 1803.11 250.846 L1803.11 265.499 L1798.83 265.499 L1798.83 239.573 L1803.11 239.573 L1803.11 243.601 Q1804.64 241.263 1806.7 240.106 Q1808.78 238.948 1811.49 238.948 Q1815.96 238.948 1818.25 241.726 Q1820.54 244.481 1820.54 249.851 Z" fill="#000000" fill-rule="nonzero" fill-opacity="1" /><path clip-path="url(#clip670)" d="M1846.1 243.509 L1846.1 229.481 L1850.36 229.481 L1850.36 265.499 L1846.1 265.499 L1846.1 261.61 Q1844.76 263.925 1842.7 265.059 Q1840.66 266.17 1837.79 266.17 Q1833.09 266.17 1830.13 262.42 Q1827.19 258.671 1827.19 252.559 Q1827.19 246.448 1830.13 242.698 Q1833.09 238.948 1837.79 238.948 Q1840.66 238.948 1842.7 240.083 Q1844.76 241.194 1846.1 243.509 M1831.58 252.559 Q1831.58 257.258 1833.51 259.944 Q1835.45 262.606 1838.83 262.606 Q1842.21 262.606 1844.15 259.944 Q1846.1 257.258 1846.1 252.559 Q1846.1 247.86 1844.15 245.198 Q1842.21 242.513 1838.83 242.513 Q1835.45 242.513 1833.51 245.198 Q1831.58 247.86 1831.58 252.559 Z" fill="#000000" fill-rule="nonzero" fill-opacity="1" /><path clip-path="url(#clip670)" d="M1874.15 243.555 Q1873.44 243.138 1872.58 242.953 Q1871.75 242.745 1870.73 242.745 Q1867.12 242.745 1865.17 245.106 Q1863.25 247.444 1863.25 251.842 L1863.25 265.499 L1858.97 265.499 L1858.97 239.573 L1863.25 239.573 L1863.25 243.601 Q1864.59 241.24 1866.75 240.106 Q1868.9 238.948 1871.98 238.948 Q1872.42 238.948 1872.95 239.018 Q1873.48 239.064 1874.13 239.18 L1874.15 243.555 Z" fill="#000000" fill-rule="nonzero" fill-opacity="1" /><path clip-path="url(#clip670)" d="M1899.76 251.471 L1899.76 253.555 L1880.17 253.555 Q1880.45 257.953 1882.81 260.268 Q1885.2 262.559 1889.43 262.559 Q1891.89 262.559 1894.18 261.958 Q1896.49 261.356 1898.76 260.152 L1898.76 264.18 Q1896.47 265.152 1894.06 265.661 Q1891.65 266.17 1889.18 266.17 Q1882.97 266.17 1879.34 262.559 Q1875.73 258.948 1875.73 252.791 Q1875.73 246.425 1879.15 242.698 Q1882.6 238.948 1888.44 238.948 Q1893.67 238.948 1896.7 242.328 Q1899.76 245.684 1899.76 251.471 M1895.5 250.221 Q1895.45 246.726 1893.53 244.643 Q1891.63 242.559 1888.48 242.559 Q1884.92 242.559 1882.77 244.573 Q1880.64 246.587 1880.31 250.245 L1895.5 250.221 Z" fill="#000000" fill-rule="nonzero" fill-opacity="1" /><path clip-path="url(#clip670)" d="M1916.79 242.559 Q1913.37 242.559 1911.38 245.245 Q1909.39 247.907 1909.39 252.559 Q1909.39 257.212 1911.35 259.897 Q1913.34 262.559 1916.79 262.559 Q1920.2 262.559 1922.19 259.874 Q1924.18 257.189 1924.18 252.559 Q1924.18 247.953 1922.19 245.268 Q1920.2 242.559 1916.79 242.559 M1916.79 238.948 Q1922.35 238.948 1925.52 242.559 Q1928.69 246.171 1928.69 252.559 Q1928.69 258.925 1925.52 262.559 Q1922.35 266.17 1916.79 266.17 Q1911.21 266.17 1908.04 262.559 Q1904.89 258.925 1904.89 252.559 Q1904.89 246.171 1908.04 242.559 Q1911.21 238.948 1916.79 238.948 Z" fill="#000000" fill-rule="nonzero" fill-opacity="1" /><path clip-path="url(#clip670)" d="M1932.7 239.573 L1937.21 239.573 L1945.31 261.333 L1953.41 239.573 L1957.93 239.573 L1948.2 265.499 L1942.42 265.499 L1932.7 239.573 Z" fill="#000000" fill-rule="nonzero" fill-opacity="1" /><path clip-path="url(#clip670)" d="M1985.98 251.471 L1985.98 253.555 L1966.4 253.555 Q1966.68 257.953 1969.04 260.268 Q1971.42 262.559 1975.66 262.559 Q1978.11 262.559 1980.4 261.958 Q1982.72 261.356 1984.99 260.152 L1984.99 264.18 Q1982.7 265.152 1980.29 265.661 Q1977.88 266.17 1975.4 266.17 Q1969.2 266.17 1965.57 262.559 Q1961.95 258.948 1961.95 252.791 Q1961.95 246.425 1965.38 242.698 Q1968.83 238.948 1974.66 238.948 Q1979.89 238.948 1982.93 242.328 Q1985.98 245.684 1985.98 251.471 M1981.72 250.221 Q1981.68 246.726 1979.76 244.643 Q1977.86 242.559 1974.71 242.559 Q1971.14 242.559 1968.99 244.573 Q1966.86 246.587 1966.54 250.245 L1981.72 250.221 Z" fill="#000000" fill-rule="nonzero" fill-opacity="1" /><path clip-path="url(#clip670)" d="M2007.88 229.481 L2012.16 229.481 L2012.16 250.754 L2024.87 239.573 L2030.31 239.573 L2016.56 251.703 L2030.89 265.499 L2025.33 265.499 L2012.16 252.837 L2012.16 265.499 L2007.88 265.499 L2007.88 229.481 Z" fill="#000000" fill-rule="nonzero" fill-opacity="1" /><path clip-path="url(#clip670)" d="M2032.44 239.573 L2036.95 239.573 L2045.06 261.333 L2053.16 239.573 L2057.67 239.573 L2047.95 265.499 L2042.16 265.499 L2032.44 239.573 Z" fill="#000000" fill-rule="nonzero" fill-opacity="1" /><path clip-path="url(#clip670)" d="M2075.33 252.467 Q2070.17 252.467 2068.18 253.647 Q2066.19 254.828 2066.19 257.675 Q2066.19 259.944 2067.67 261.286 Q2069.18 262.606 2071.75 262.606 Q2075.29 262.606 2077.42 260.106 Q2079.57 257.583 2079.57 253.416 L2079.57 252.467 L2075.33 252.467 M2083.83 250.708 L2083.83 265.499 L2079.57 265.499 L2079.57 261.564 Q2078.11 263.925 2075.94 265.059 Q2073.76 266.17 2070.61 266.17 Q2066.63 266.17 2064.27 263.948 Q2061.93 261.703 2061.93 257.953 Q2061.93 253.578 2064.85 251.356 Q2067.79 249.134 2073.6 249.134 L2079.57 249.134 L2079.57 248.717 Q2079.57 245.777 2077.63 244.18 Q2075.7 242.559 2072.21 242.559 Q2069.99 242.559 2067.88 243.092 Q2065.77 243.624 2063.83 244.689 L2063.83 240.754 Q2066.17 239.851 2068.37 239.411 Q2070.57 238.948 2072.65 238.948 Q2078.27 238.948 2081.05 241.865 Q2083.83 244.782 2083.83 250.708 Z" fill="#000000" fill-rule="nonzero" fill-opacity="1" /><path clip-path="url(#clip670)" d="M2109.66 243.509 L2109.66 229.481 L2113.92 229.481 L2113.92 265.499 L2109.66 265.499 L2109.66 261.61 Q2108.32 263.925 2106.26 265.059 Q2104.22 266.17 2101.35 266.17 Q2096.65 266.17 2093.69 262.42 Q2090.75 258.671 2090.75 252.559 Q2090.75 246.448 2093.69 242.698 Q2096.65 238.948 2101.35 238.948 Q2104.22 238.948 2106.26 240.083 Q2108.32 241.194 2109.66 243.509 M2095.15 252.559 Q2095.15 257.258 2097.07 259.944 Q2099.01 262.606 2102.39 262.606 Q2105.77 262.606 2107.72 259.944 Q2109.66 257.258 2109.66 252.559 Q2109.66 247.86 2107.72 245.198 Q2105.77 242.513 2102.39 242.513 Q2099.01 242.513 2097.07 245.198 Q2095.15 247.86 2095.15 252.559 Z" fill="#000000" fill-rule="nonzero" fill-opacity="1" /><path clip-path="url(#clip670)" d="M2137.72 243.555 Q2137 243.138 2136.14 242.953 Q2135.31 242.745 2134.29 242.745 Q2130.68 242.745 2128.74 245.106 Q2126.81 247.444 2126.81 251.842 L2126.81 265.499 L2122.53 265.499 L2122.53 239.573 L2126.81 239.573 L2126.81 243.601 Q2128.16 241.24 2130.31 240.106 Q2132.46 238.948 2135.54 238.948 Q2135.98 238.948 2136.51 239.018 Q2137.05 239.064 2137.69 239.18 L2137.72 243.555 Z" fill="#000000" fill-rule="nonzero" fill-opacity="1" /><path clip-path="url(#clip670)" d="M2153.97 252.467 Q2148.81 252.467 2146.81 253.647 Q2144.82 254.828 2144.82 257.675 Q2144.82 259.944 2146.31 261.286 Q2147.81 262.606 2150.38 262.606 Q2153.92 262.606 2156.05 260.106 Q2158.2 257.583 2158.2 253.416 L2158.2 252.467 L2153.97 252.467 M2162.46 250.708 L2162.46 265.499 L2158.2 265.499 L2158.2 261.564 Q2156.75 263.925 2154.57 265.059 Q2152.39 266.17 2149.25 266.17 Q2145.26 266.17 2142.9 263.948 Q2140.56 261.703 2140.56 257.953 Q2140.56 253.578 2143.48 251.356 Q2146.42 249.134 2152.23 249.134 L2158.2 249.134 L2158.2 248.717 Q2158.2 245.777 2156.26 244.18 Q2154.34 242.559 2150.84 242.559 Q2148.62 242.559 2146.51 243.092 Q2144.41 243.624 2142.46 244.689 L2142.46 240.754 Q2144.8 239.851 2147 239.411 Q2149.2 238.948 2151.28 238.948 Q2156.91 238.948 2159.68 241.865 Q2162.46 244.782 2162.46 250.708 Z" fill="#000000" fill-rule="nonzero" fill-opacity="1" /><path clip-path="url(#clip670)" d="M2175.45 232.212 L2175.45 239.573 L2184.22 239.573 L2184.22 242.884 L2175.45 242.884 L2175.45 256.958 Q2175.45 260.129 2176.31 261.032 Q2177.18 261.934 2179.85 261.934 L2184.22 261.934 L2184.22 265.499 L2179.85 265.499 Q2174.92 265.499 2173.04 263.67 Q2171.17 261.819 2171.17 256.958 L2171.17 242.884 L2168.04 242.884 L2168.04 239.573 L2171.17 239.573 L2171.17 232.212 L2175.45 232.212 Z" fill="#000000" fill-rule="nonzero" fill-opacity="1" /><path clip-path="url(#clip670)" d="M2189.38 255.268 L2189.38 239.573 L2193.64 239.573 L2193.64 255.106 Q2193.64 258.786 2195.08 260.638 Q2196.51 262.467 2199.38 262.467 Q2202.83 262.467 2204.82 260.268 Q2206.84 258.069 2206.84 254.272 L2206.84 239.573 L2211.1 239.573 L2211.1 265.499 L2206.84 265.499 L2206.84 261.518 Q2205.29 263.879 2203.23 265.036 Q2201.19 266.17 2198.48 266.17 Q2194.01 266.17 2191.7 263.393 Q2189.38 260.615 2189.38 255.268 M2200.1 238.948 L2200.1 238.948 Z" fill="#000000" fill-rule="nonzero" fill-opacity="1" /><path clip-path="url(#clip670)" d="M2234.89 243.555 Q2234.18 243.138 2233.32 242.953 Q2232.49 242.745 2231.47 242.745 Q2227.86 242.745 2225.91 245.106 Q2223.99 247.444 2223.99 251.842 L2223.99 265.499 L2219.71 265.499 L2219.71 239.573 L2223.99 239.573 L2223.99 243.601 Q2225.33 241.24 2227.49 240.106 Q2229.64 238.948 2232.72 238.948 Q2233.16 238.948 2233.69 239.018 Q2234.22 239.064 2234.87 239.18 L2234.89 243.555 Z" fill="#000000" fill-rule="nonzero" fill-opacity="1" /><path clip-path="url(#clip670)" d="M2260.49 251.471 L2260.49 253.555 L2240.91 253.555 Q2241.19 257.953 2243.55 260.268 Q2245.93 262.559 2250.17 262.559 Q2252.62 262.559 2254.92 261.958 Q2257.23 261.356 2259.5 260.152 L2259.5 264.18 Q2257.21 265.152 2254.8 265.661 Q2252.39 266.17 2249.92 266.17 Q2243.71 266.17 2240.08 262.559 Q2236.47 258.948 2236.47 252.791 Q2236.47 246.425 2239.89 242.698 Q2243.34 238.948 2249.18 238.948 Q2254.41 238.948 2257.44 242.328 Q2260.49 245.684 2260.49 251.471 M2256.24 250.221 Q2256.19 246.726 2254.27 244.643 Q2252.37 242.559 2249.22 242.559 Q2245.66 242.559 2243.5 244.573 Q2241.37 246.587 2241.05 250.245 L2256.24 250.221 Z" fill="#000000" fill-rule="nonzero" fill-opacity="1" /></svg>
