<?xml version="1.0" encoding="utf-8"?>
<svg xmlns="http://www.w3.org/2000/svg" xmlns:xlink="http://www.w3.org/1999/xlink" width="600" height="400" viewBox="0 0 2400 1600">
<defs>
  <clipPath id="clip620">
    <rect x="0" y="0" width="2400" height="1600"/>
  </clipPath>
</defs>
<path clip-path="url(#clip620)" d="M0 1600 L2400 1600 L2400 0 L0 0  Z" fill="#ffffff" fill-rule="evenodd" fill-opacity="1"/>
<defs>
  <clipPath id="clip621">
    <rect x="480" y="0" width="1681" height="1600"/>
  </clipPath>
</defs>
<path clip-path="url(#clip620)" d="M216.436 1486.45 L2352.76 1486.45 L2352.76 47.2441 L216.436 47.2441  Z" fill="#ffffff" fill-rule="evenodd" fill-opacity="1"/>
<defs>
  <clipPath id="clip622">
    <rect x="216" y="47" width="2137" height="1440"/>
  </clipPath>
</defs>
<polyline clip-path="url(#clip622)" style="stroke:#000000; stroke-linecap:round; stroke-linejoin:round; stroke-width:2; stroke-opacity:0.1; fill:none" points="617.871,1486.45 617.871,47.2441 "/>
<polyline clip-path="url(#clip622)" style="stroke:#000000; stroke-linecap:round; stroke-linejoin:round; stroke-width:2; stroke-opacity:0.1; fill:none" points="1023.79,1486.45 1023.79,47.2441 "/>
<polyline clip-path="url(#clip622)" style="stroke:#000000; stroke-linecap:round; stroke-linejoin:round; stroke-width:2; stroke-opacity:0.1; fill:none" points="1429.71,1486.45 1429.71,47.2441 "/>
<polyline clip-path="url(#clip622)" style="stroke:#000000; stroke-linecap:round; stroke-linejoin:round; stroke-width:2; stroke-opacity:0.1; fill:none" points="1835.63,1486.45 1835.63,47.2441 "/>
<polyline clip-path="url(#clip622)" style="stroke:#000000; stroke-linecap:round; stroke-linejoin:round; stroke-width:2; stroke-opacity:0.1; fill:none" points="2241.55,1486.45 2241.55,47.2441 "/>
<polyline clip-path="url(#clip622)" style="stroke:#000000; stroke-linecap:round; stroke-linejoin:round; stroke-width:2; stroke-opacity:0.1; fill:none" points="216.436,1453.65 2352.76,1453.65 "/>
<polyline clip-path="url(#clip622)" style="stroke:#000000; stroke-linecap:round; stroke-linejoin:round; stroke-width:2; stroke-opacity:0.1; fill:none" points="216.436,1039.3 2352.76,1039.3 "/>
<polyline clip-path="url(#clip622)" style="stroke:#000000; stroke-linecap:round; stroke-linejoin:round; stroke-width:2; stroke-opacity:0.1; fill:none" points="216.436,624.943 2352.76,624.943 "/>
<polyline clip-path="url(#clip622)" style="stroke:#000000; stroke-linecap:round; stroke-linejoin:round; stroke-width:2; stroke-opacity:0.1; fill:none" points="216.436,210.59 2352.76,210.59 "/>
<polyline clip-path="url(#clip620)" style="stroke:#000000; stroke-linecap:round; stroke-linejoin:round; stroke-width:4; stroke-opacity:1; fill:none" points="216.436,1486.45 2352.76,1486.45 "/>
<polyline clip-path="url(#clip620)" style="stroke:#000000; stroke-linecap:round; stroke-linejoin:round; stroke-width:4; stroke-opacity:1; fill:none" points="617.871,1486.45 617.871,1467.55 "/>
<polyline clip-path="url(#clip620)" style="stroke:#000000; stroke-linecap:round; stroke-linejoin:round; stroke-width:4; stroke-opacity:1; fill:none" points="1023.79,1486.45 1023.79,1467.55 "/>
<polyline clip-path="url(#clip620)" style="stroke:#000000; stroke-linecap:round; stroke-linejoin:round; stroke-width:4; stroke-opacity:1; fill:none" points="1429.71,1486.45 1429.71,1467.55 "/>
<polyline clip-path="url(#clip620)" style="stroke:#000000; stroke-linecap:round; stroke-linejoin:round; stroke-width:4; stroke-opacity:1; fill:none" points="1835.63,1486.45 1835.63,1467.55 "/>
<polyline clip-path="url(#clip620)" style="stroke:#000000; stroke-linecap:round; stroke-linejoin:round; stroke-width:4; stroke-opacity:1; fill:none" points="2241.55,1486.45 2241.55,1467.55 "/>
<path clip-path="url(#clip620)" d="M581.563 1544.91 L597.883 1544.91 L597.883 1548.85 L575.939 1548.85 L575.939 1544.91 Q578.601 1542.16 583.184 1537.53 Q587.79 1532.88 588.971 1531.53 Q591.216 1529.01 592.096 1527.27 Q592.999 1525.51 592.999 1523.82 Q592.999 1521.07 591.054 1519.33 Q589.133 1517.6 586.031 1517.6 Q583.832 1517.6 581.378 1518.36 Q578.948 1519.13 576.17 1520.68 L576.17 1515.95 Q578.994 1514.82 581.448 1514.24 Q583.901 1513.66 585.938 1513.66 Q591.309 1513.66 594.503 1516.35 Q597.698 1519.03 597.698 1523.52 Q597.698 1525.65 596.887 1527.57 Q596.1 1529.47 593.994 1532.07 Q593.415 1532.74 590.313 1535.95 Q587.212 1539.15 581.563 1544.91 Z" fill="#000000" fill-rule="nonzero" fill-opacity="1" /><path clip-path="url(#clip620)" d="M617.698 1517.37 Q614.086 1517.37 612.258 1520.93 Q610.452 1524.47 610.452 1531.6 Q610.452 1538.71 612.258 1542.27 Q614.086 1545.82 617.698 1545.82 Q621.332 1545.82 623.137 1542.27 Q624.966 1538.71 624.966 1531.6 Q624.966 1524.47 623.137 1520.93 Q621.332 1517.37 617.698 1517.37 M617.698 1513.66 Q623.508 1513.66 626.563 1518.27 Q629.642 1522.85 629.642 1531.6 Q629.642 1540.33 626.563 1544.94 Q623.508 1549.52 617.698 1549.52 Q611.887 1549.52 608.809 1544.94 Q605.753 1540.33 605.753 1531.6 Q605.753 1522.85 608.809 1518.27 Q611.887 1513.66 617.698 1513.66 Z" fill="#000000" fill-rule="nonzero" fill-opacity="1" /><path clip-path="url(#clip620)" d="M647.859 1517.37 Q644.248 1517.37 642.42 1520.93 Q640.614 1524.47 640.614 1531.6 Q640.614 1538.71 642.42 1542.27 Q644.248 1545.82 647.859 1545.82 Q651.494 1545.82 653.299 1542.27 Q655.128 1538.71 655.128 1531.6 Q655.128 1524.47 653.299 1520.93 Q651.494 1517.37 647.859 1517.37 M647.859 1513.66 Q653.67 1513.66 656.725 1518.27 Q659.804 1522.85 659.804 1531.6 Q659.804 1540.33 656.725 1544.94 Q653.67 1549.52 647.859 1549.52 Q642.049 1549.52 638.971 1544.94 Q635.915 1540.33 635.915 1531.6 Q635.915 1522.85 638.971 1518.27 Q642.049 1513.66 647.859 1513.66 Z" fill="#000000" fill-rule="nonzero" fill-opacity="1" /><path clip-path="url(#clip620)" d="M996.882 1518.36 L985.077 1536.81 L996.882 1536.81 L996.882 1518.36 M995.655 1514.29 L1001.54 1514.29 L1001.54 1536.81 L1006.47 1536.81 L1006.47 1540.7 L1001.54 1540.7 L1001.54 1548.85 L996.882 1548.85 L996.882 1540.7 L981.28 1540.7 L981.28 1536.19 L995.655 1514.29 Z" fill="#000000" fill-rule="nonzero" fill-opacity="1" /><path clip-path="url(#clip620)" d="M1024.2 1517.37 Q1020.59 1517.37 1018.76 1520.93 Q1016.95 1524.47 1016.95 1531.6 Q1016.95 1538.71 1018.76 1542.27 Q1020.59 1545.82 1024.2 1545.82 Q1027.83 1545.82 1029.64 1542.27 Q1031.47 1538.71 1031.47 1531.6 Q1031.47 1524.47 1029.64 1520.93 Q1027.83 1517.37 1024.2 1517.37 M1024.2 1513.66 Q1030.01 1513.66 1033.06 1518.27 Q1036.14 1522.85 1036.14 1531.6 Q1036.14 1540.33 1033.06 1544.94 Q1030.01 1549.52 1024.2 1549.52 Q1018.39 1549.52 1015.31 1544.94 Q1012.25 1540.33 1012.25 1531.6 Q1012.25 1522.85 1015.31 1518.27 Q1018.39 1513.66 1024.2 1513.66 Z" fill="#000000" fill-rule="nonzero" fill-opacity="1" /><path clip-path="url(#clip620)" d="M1054.36 1517.37 Q1050.75 1517.37 1048.92 1520.93 Q1047.11 1524.47 1047.11 1531.6 Q1047.11 1538.71 1048.92 1542.27 Q1050.75 1545.82 1054.36 1545.82 Q1057.99 1545.82 1059.8 1542.27 Q1061.63 1538.71 1061.63 1531.6 Q1061.63 1524.47 1059.8 1520.93 Q1057.99 1517.37 1054.36 1517.37 M1054.36 1513.66 Q1060.17 1513.66 1063.22 1518.27 Q1066.3 1522.85 1066.3 1531.6 Q1066.3 1540.33 1063.22 1544.94 Q1060.17 1549.52 1054.36 1549.52 Q1048.55 1549.52 1045.47 1544.94 Q1042.41 1540.33 1042.41 1531.6 Q1042.41 1522.85 1045.47 1518.27 Q1048.55 1513.66 1054.36 1513.66 Z" fill="#000000" fill-rule="nonzero" fill-opacity="1" /><path clip-path="url(#clip620)" d="M1400.04 1529.7 Q1396.89 1529.7 1395.04 1531.86 Q1393.21 1534.01 1393.21 1537.76 Q1393.21 1541.49 1395.04 1543.66 Q1396.89 1545.82 1400.04 1545.82 Q1403.18 1545.82 1405.01 1543.66 Q1406.87 1541.49 1406.87 1537.76 Q1406.87 1534.01 1405.01 1531.86 Q1403.18 1529.7 1400.04 1529.7 M1409.32 1515.05 L1409.32 1519.31 Q1407.56 1518.48 1405.75 1518.04 Q1403.97 1517.6 1402.21 1517.6 Q1397.58 1517.6 1395.13 1520.72 Q1392.7 1523.85 1392.35 1530.17 Q1393.72 1528.15 1395.78 1527.09 Q1397.84 1526 1400.31 1526 Q1405.52 1526 1408.53 1529.17 Q1411.56 1532.32 1411.56 1537.76 Q1411.56 1543.08 1408.42 1546.3 Q1405.27 1549.52 1400.04 1549.52 Q1394.04 1549.52 1390.87 1544.94 Q1387.7 1540.33 1387.7 1531.6 Q1387.7 1523.41 1391.59 1518.55 Q1395.48 1513.66 1402.03 1513.66 Q1403.79 1513.66 1405.57 1514.01 Q1407.37 1514.36 1409.32 1515.05 Z" fill="#000000" fill-rule="nonzero" fill-opacity="1" /><path clip-path="url(#clip620)" d="M1429.62 1517.37 Q1426.01 1517.37 1424.18 1520.93 Q1422.37 1524.47 1422.37 1531.6 Q1422.37 1538.71 1424.18 1542.27 Q1426.01 1545.82 1429.62 1545.82 Q1433.25 1545.82 1435.06 1542.27 Q1436.89 1538.71 1436.89 1531.6 Q1436.89 1524.47 1435.06 1520.93 Q1433.25 1517.37 1429.62 1517.37 M1429.62 1513.66 Q1435.43 1513.66 1438.49 1518.27 Q1441.56 1522.85 1441.56 1531.6 Q1441.56 1540.33 1438.49 1544.94 Q1435.43 1549.52 1429.62 1549.52 Q1423.81 1549.52 1420.73 1544.94 Q1417.68 1540.33 1417.68 1531.6 Q1417.68 1522.85 1420.73 1518.27 Q1423.81 1513.66 1429.62 1513.66 Z" fill="#000000" fill-rule="nonzero" fill-opacity="1" /><path clip-path="url(#clip620)" d="M1459.78 1517.37 Q1456.17 1517.37 1454.34 1520.93 Q1452.54 1524.47 1452.54 1531.6 Q1452.54 1538.71 1454.34 1542.27 Q1456.17 1545.82 1459.78 1545.82 Q1463.42 1545.82 1465.22 1542.27 Q1467.05 1538.71 1467.05 1531.6 Q1467.05 1524.47 1465.22 1520.93 Q1463.42 1517.37 1459.78 1517.37 M1459.78 1513.66 Q1465.59 1513.66 1468.65 1518.27 Q1471.73 1522.85 1471.73 1531.6 Q1471.73 1540.33 1468.65 1544.94 Q1465.59 1549.52 1459.78 1549.52 Q1453.97 1549.52 1450.89 1544.94 Q1447.84 1540.33 1447.84 1531.6 Q1447.84 1522.85 1450.89 1518.27 Q1453.97 1513.66 1459.78 1513.66 Z" fill="#000000" fill-rule="nonzero" fill-opacity="1" /><path clip-path="url(#clip620)" d="M1805.43 1532.44 Q1802.09 1532.44 1800.17 1534.22 Q1798.27 1536 1798.27 1539.13 Q1798.27 1542.25 1800.17 1544.03 Q1802.09 1545.82 1805.43 1545.82 Q1808.76 1545.82 1810.68 1544.03 Q1812.6 1542.23 1812.6 1539.13 Q1812.6 1536 1810.68 1534.22 Q1808.78 1532.44 1805.43 1532.44 M1800.75 1530.45 Q1797.74 1529.7 1796.05 1527.64 Q1794.38 1525.58 1794.38 1522.62 Q1794.38 1518.48 1797.32 1516.07 Q1800.29 1513.66 1805.43 1513.66 Q1810.59 1513.66 1813.53 1516.07 Q1816.47 1518.48 1816.47 1522.62 Q1816.47 1525.58 1814.78 1527.64 Q1813.11 1529.7 1810.12 1530.45 Q1813.5 1531.23 1815.38 1533.52 Q1817.28 1535.82 1817.28 1539.13 Q1817.28 1544.15 1814.2 1546.83 Q1811.14 1549.52 1805.43 1549.52 Q1799.71 1549.52 1796.63 1546.83 Q1793.57 1544.15 1793.57 1539.13 Q1793.57 1535.82 1795.47 1533.52 Q1797.37 1531.23 1800.75 1530.45 M1799.04 1523.06 Q1799.04 1525.75 1800.7 1527.25 Q1802.39 1528.76 1805.43 1528.76 Q1808.43 1528.76 1810.12 1527.25 Q1811.84 1525.75 1811.84 1523.06 Q1811.84 1520.38 1810.12 1518.87 Q1808.43 1517.37 1805.43 1517.37 Q1802.39 1517.37 1800.7 1518.87 Q1799.04 1520.38 1799.04 1523.06 Z" fill="#000000" fill-rule="nonzero" fill-opacity="1" /><path clip-path="url(#clip620)" d="M1835.59 1517.37 Q1831.98 1517.37 1830.15 1520.93 Q1828.34 1524.47 1828.34 1531.6 Q1828.34 1538.71 1830.15 1542.27 Q1831.98 1545.82 1835.59 1545.82 Q1839.22 1545.82 1841.03 1542.27 Q1842.86 1538.71 1842.86 1531.6 Q1842.86 1524.47 1841.03 1520.93 Q1839.22 1517.37 1835.59 1517.37 M1835.59 1513.66 Q1841.4 1513.66 1844.45 1518.27 Q1847.53 1522.85 1847.53 1531.6 Q1847.53 1540.33 1844.45 1544.94 Q1841.4 1549.52 1835.59 1549.52 Q1829.78 1549.52 1826.7 1544.94 Q1823.64 1540.33 1823.64 1531.6 Q1823.64 1522.85 1826.7 1518.27 Q1829.78 1513.66 1835.59 1513.66 Z" fill="#000000" fill-rule="nonzero" fill-opacity="1" /><path clip-path="url(#clip620)" d="M1865.75 1517.37 Q1862.14 1517.37 1860.31 1520.93 Q1858.5 1524.47 1858.5 1531.6 Q1858.5 1538.71 1860.31 1542.27 Q1862.14 1545.82 1865.75 1545.82 Q1869.38 1545.82 1871.19 1542.27 Q1873.02 1538.71 1873.02 1531.6 Q1873.02 1524.47 1871.19 1520.93 Q1869.38 1517.37 1865.75 1517.37 M1865.75 1513.66 Q1871.56 1513.66 1874.61 1518.27 Q1877.69 1522.85 1877.69 1531.6 Q1877.69 1540.33 1874.61 1544.94 Q1871.56 1549.52 1865.75 1549.52 Q1859.94 1549.52 1856.86 1544.94 Q1853.8 1540.33 1853.8 1531.6 Q1853.8 1522.85 1856.86 1518.27 Q1859.94 1513.66 1865.75 1513.66 Z" fill="#000000" fill-rule="nonzero" fill-opacity="1" /><path clip-path="url(#clip620)" d="M2186.08 1544.91 L2193.72 1544.91 L2193.72 1518.55 L2185.41 1520.21 L2185.41 1515.95 L2193.67 1514.29 L2198.35 1514.29 L2198.35 1544.91 L2205.99 1544.91 L2205.99 1548.85 L2186.08 1548.85 L2186.08 1544.91 Z" fill="#000000" fill-rule="nonzero" fill-opacity="1" /><path clip-path="url(#clip620)" d="M2225.43 1517.37 Q2221.82 1517.37 2219.99 1520.93 Q2218.19 1524.47 2218.19 1531.6 Q2218.19 1538.71 2219.99 1542.27 Q2221.82 1545.82 2225.43 1545.82 Q2229.07 1545.82 2230.87 1542.27 Q2232.7 1538.71 2232.7 1531.6 Q2232.7 1524.47 2230.87 1520.93 Q2229.07 1517.37 2225.43 1517.37 M2225.43 1513.66 Q2231.24 1513.66 2234.3 1518.27 Q2237.38 1522.85 2237.38 1531.6 Q2237.38 1540.33 2234.3 1544.94 Q2231.24 1549.52 2225.43 1549.52 Q2219.62 1549.52 2216.54 1544.94 Q2213.49 1540.33 2213.49 1531.6 Q2213.49 1522.85 2216.54 1518.27 Q2219.62 1513.66 2225.43 1513.66 Z" fill="#000000" fill-rule="nonzero" fill-opacity="1" /><path clip-path="url(#clip620)" d="M2255.59 1517.37 Q2251.98 1517.37 2250.15 1520.93 Q2248.35 1524.47 2248.35 1531.6 Q2248.35 1538.71 2250.15 1542.27 Q2251.98 1545.82 2255.59 1545.82 Q2259.23 1545.82 2261.03 1542.27 Q2262.86 1538.71 2262.86 1531.6 Q2262.86 1524.47 2261.03 1520.93 Q2259.23 1517.37 2255.59 1517.37 M2255.59 1513.66 Q2261.4 1513.66 2264.46 1518.27 Q2267.54 1522.85 2267.54 1531.6 Q2267.54 1540.33 2264.46 1544.94 Q2261.4 1549.52 2255.59 1549.52 Q2249.78 1549.52 2246.7 1544.94 Q2243.65 1540.33 2243.65 1531.6 Q2243.65 1522.85 2246.7 1518.27 Q2249.78 1513.66 2255.59 1513.66 Z" fill="#000000" fill-rule="nonzero" fill-opacity="1" /><path clip-path="url(#clip620)" d="M2285.76 1517.37 Q2282.14 1517.37 2280.32 1520.93 Q2278.51 1524.47 2278.51 1531.6 Q2278.51 1538.71 2280.32 1542.27 Q2282.14 1545.82 2285.76 1545.82 Q2289.39 1545.82 2291.19 1542.27 Q2293.02 1538.71 2293.02 1531.6 Q2293.02 1524.47 2291.19 1520.93 Q2289.39 1517.37 2285.76 1517.37 M2285.76 1513.66 Q2291.57 1513.66 2294.62 1518.27 Q2297.7 1522.85 2297.7 1531.6 Q2297.7 1540.33 2294.62 1544.94 Q2291.57 1549.52 2285.76 1549.52 Q2279.94 1549.52 2276.87 1544.94 Q2273.81 1540.33 2273.81 1531.6 Q2273.81 1522.85 2276.87 1518.27 Q2279.94 1513.66 2285.76 1513.66 Z" fill="#000000" fill-rule="nonzero" fill-opacity="1" /><polyline clip-path="url(#clip620)" style="stroke:#000000; stroke-linecap:round; stroke-linejoin:round; stroke-width:4; stroke-opacity:1; fill:none" points="216.436,1486.45 216.436,47.2441 "/>
<polyline clip-path="url(#clip620)" style="stroke:#000000; stroke-linecap:round; stroke-linejoin:round; stroke-width:4; stroke-opacity:1; fill:none" points="216.436,1453.65 235.334,1453.65 "/>
<polyline clip-path="url(#clip620)" style="stroke:#000000; stroke-linecap:round; stroke-linejoin:round; stroke-width:4; stroke-opacity:1; fill:none" points="216.436,1039.3 235.334,1039.3 "/>
<polyline clip-path="url(#clip620)" style="stroke:#000000; stroke-linecap:round; stroke-linejoin:round; stroke-width:4; stroke-opacity:1; fill:none" points="216.436,624.943 235.334,624.943 "/>
<polyline clip-path="url(#clip620)" style="stroke:#000000; stroke-linecap:round; stroke-linejoin:round; stroke-width:4; stroke-opacity:1; fill:none" points="216.436,210.59 235.334,210.59 "/>
<path clip-path="url(#clip620)" d="M62.9365 1439.45 Q59.3254 1439.45 57.4967 1443.01 Q55.6912 1446.56 55.6912 1453.68 Q55.6912 1460.79 57.4967 1464.36 Q59.3254 1467.9 62.9365 1467.9 Q66.5707 1467.9 68.3763 1464.36 Q70.205 1460.79 70.205 1453.68 Q70.205 1446.56 68.3763 1443.01 Q66.5707 1439.45 62.9365 1439.45 M62.9365 1435.74 Q68.7467 1435.74 71.8022 1440.35 Q74.8809 1444.93 74.8809 1453.68 Q74.8809 1462.41 71.8022 1467.02 Q68.7467 1471.6 62.9365 1471.6 Q57.1264 1471.6 54.0477 1467.02 Q50.9921 1462.41 50.9921 1453.68 Q50.9921 1444.93 54.0477 1440.35 Q57.1264 1435.74 62.9365 1435.74 Z" fill="#000000" fill-rule="nonzero" fill-opacity="1" /><path clip-path="url(#clip620)" d="M83.0984 1465.05 L87.9827 1465.05 L87.9827 1470.93 L83.0984 1470.93 L83.0984 1465.05 Z" fill="#000000" fill-rule="nonzero" fill-opacity="1" /><path clip-path="url(#clip620)" d="M108.168 1439.45 Q104.557 1439.45 102.728 1443.01 Q100.922 1446.56 100.922 1453.68 Q100.922 1460.79 102.728 1464.36 Q104.557 1467.9 108.168 1467.9 Q111.802 1467.9 113.608 1464.36 Q115.436 1460.79 115.436 1453.68 Q115.436 1446.56 113.608 1443.01 Q111.802 1439.45 108.168 1439.45 M108.168 1435.74 Q113.978 1435.74 117.033 1440.35 Q120.112 1444.93 120.112 1453.68 Q120.112 1462.41 117.033 1467.02 Q113.978 1471.6 108.168 1471.6 Q102.358 1471.6 99.2789 1467.02 Q96.2234 1462.41 96.2234 1453.68 Q96.2234 1444.93 99.2789 1440.35 Q102.358 1435.74 108.168 1435.74 Z" fill="#000000" fill-rule="nonzero" fill-opacity="1" /><path clip-path="url(#clip620)" d="M138.33 1439.45 Q134.719 1439.45 132.89 1443.01 Q131.084 1446.56 131.084 1453.68 Q131.084 1460.79 132.89 1464.36 Q134.719 1467.9 138.33 1467.9 Q141.964 1467.9 143.769 1464.36 Q145.598 1460.79 145.598 1453.68 Q145.598 1446.56 143.769 1443.01 Q141.964 1439.45 138.33 1439.45 M138.33 1435.74 Q144.14 1435.74 147.195 1440.35 Q150.274 1444.93 150.274 1453.68 Q150.274 1462.41 147.195 1467.02 Q144.14 1471.6 138.33 1471.6 Q132.519 1471.6 129.441 1467.02 Q126.385 1462.41 126.385 1453.68 Q126.385 1444.93 129.441 1440.35 Q132.519 1435.74 138.33 1435.74 Z" fill="#000000" fill-rule="nonzero" fill-opacity="1" /><path clip-path="url(#clip620)" d="M168.491 1439.45 Q164.88 1439.45 163.052 1443.01 Q161.246 1446.56 161.246 1453.68 Q161.246 1460.79 163.052 1464.36 Q164.88 1467.9 168.491 1467.9 Q172.126 1467.9 173.931 1464.36 Q175.76 1460.79 175.76 1453.68 Q175.76 1446.56 173.931 1443.01 Q172.126 1439.45 168.491 1439.45 M168.491 1435.74 Q174.302 1435.74 177.357 1440.35 Q180.436 1444.93 180.436 1453.68 Q180.436 1462.41 177.357 1467.02 Q174.302 1471.6 168.491 1471.6 Q162.681 1471.6 159.603 1467.02 Q156.547 1462.41 156.547 1453.68 Q156.547 1444.93 159.603 1440.35 Q162.681 1435.74 168.491 1435.74 Z" fill="#000000" fill-rule="nonzero" fill-opacity="1" /><path clip-path="url(#clip620)" d="M64.1634 1025.1 Q60.5523 1025.1 58.7236 1028.66 Q56.918 1032.2 56.918 1039.33 Q56.918 1046.44 58.7236 1050 Q60.5523 1053.54 64.1634 1053.54 Q67.7976 1053.54 69.6031 1050 Q71.4318 1046.44 71.4318 1039.33 Q71.4318 1032.2 69.6031 1028.66 Q67.7976 1025.1 64.1634 1025.1 M64.1634 1021.39 Q69.9735 1021.39 73.029 1026 Q76.1077 1030.58 76.1077 1039.33 Q76.1077 1048.06 73.029 1052.66 Q69.9735 1057.25 64.1634 1057.25 Q58.3532 1057.25 55.2745 1052.66 Q52.219 1048.06 52.219 1039.33 Q52.219 1030.58 55.2745 1026 Q58.3532 1021.39 64.1634 1021.39 Z" fill="#000000" fill-rule="nonzero" fill-opacity="1" /><path clip-path="url(#clip620)" d="M84.3253 1050.7 L89.2095 1050.7 L89.2095 1056.58 L84.3253 1056.58 L84.3253 1050.7 Z" fill="#000000" fill-rule="nonzero" fill-opacity="1" /><path clip-path="url(#clip620)" d="M109.395 1025.1 Q105.783 1025.1 103.955 1028.66 Q102.149 1032.2 102.149 1039.33 Q102.149 1046.44 103.955 1050 Q105.783 1053.54 109.395 1053.54 Q113.029 1053.54 114.834 1050 Q116.663 1046.44 116.663 1039.33 Q116.663 1032.2 114.834 1028.66 Q113.029 1025.1 109.395 1025.1 M109.395 1021.39 Q115.205 1021.39 118.26 1026 Q121.339 1030.58 121.339 1039.33 Q121.339 1048.06 118.26 1052.66 Q115.205 1057.25 109.395 1057.25 Q103.584 1057.25 100.506 1052.66 Q97.4502 1048.06 97.4502 1039.33 Q97.4502 1030.58 100.506 1026 Q103.584 1021.39 109.395 1021.39 Z" fill="#000000" fill-rule="nonzero" fill-opacity="1" /><path clip-path="url(#clip620)" d="M139.556 1025.1 Q135.945 1025.1 134.117 1028.66 Q132.311 1032.2 132.311 1039.33 Q132.311 1046.44 134.117 1050 Q135.945 1053.54 139.556 1053.54 Q143.191 1053.54 144.996 1050 Q146.825 1046.44 146.825 1039.33 Q146.825 1032.2 144.996 1028.66 Q143.191 1025.1 139.556 1025.1 M139.556 1021.39 Q145.367 1021.39 148.422 1026 Q151.501 1030.58 151.501 1039.33 Q151.501 1048.06 148.422 1052.66 Q145.367 1057.25 139.556 1057.25 Q133.746 1057.25 130.668 1052.66 Q127.612 1048.06 127.612 1039.33 Q127.612 1030.58 130.668 1026 Q133.746 1021.39 139.556 1021.39 Z" fill="#000000" fill-rule="nonzero" fill-opacity="1" /><path clip-path="url(#clip620)" d="M160.529 1052.64 L168.167 1052.64 L168.167 1026.28 L159.857 1027.94 L159.857 1023.68 L168.121 1022.02 L172.797 1022.02 L172.797 1052.64 L180.436 1052.64 L180.436 1056.58 L160.529 1056.58 L160.529 1052.64 Z" fill="#000000" fill-rule="nonzero" fill-opacity="1" /><path clip-path="url(#clip620)" d="M64.5337 610.742 Q60.9226 610.742 59.0939 614.307 Q57.2884 617.848 57.2884 624.978 Q57.2884 632.084 59.0939 635.649 Q60.9226 639.191 64.5337 639.191 Q68.168 639.191 69.9735 635.649 Q71.8022 632.084 71.8022 624.978 Q71.8022 617.848 69.9735 614.307 Q68.168 610.742 64.5337 610.742 M64.5337 607.038 Q70.3439 607.038 73.3994 611.645 Q76.4781 616.228 76.4781 624.978 Q76.4781 633.705 73.3994 638.311 Q70.3439 642.894 64.5337 642.894 Q58.7236 642.894 55.6449 638.311 Q52.5893 633.705 52.5893 624.978 Q52.5893 616.228 55.6449 611.645 Q58.7236 607.038 64.5337 607.038 Z" fill="#000000" fill-rule="nonzero" fill-opacity="1" /><path clip-path="url(#clip620)" d="M84.6956 636.344 L89.5799 636.344 L89.5799 642.223 L84.6956 642.223 L84.6956 636.344 Z" fill="#000000" fill-rule="nonzero" fill-opacity="1" /><path clip-path="url(#clip620)" d="M109.765 610.742 Q106.154 610.742 104.325 614.307 Q102.52 617.848 102.52 624.978 Q102.52 632.084 104.325 635.649 Q106.154 639.191 109.765 639.191 Q113.399 639.191 115.205 635.649 Q117.033 632.084 117.033 624.978 Q117.033 617.848 115.205 614.307 Q113.399 610.742 109.765 610.742 M109.765 607.038 Q115.575 607.038 118.631 611.645 Q121.709 616.228 121.709 624.978 Q121.709 633.705 118.631 638.311 Q115.575 642.894 109.765 642.894 Q103.955 642.894 100.876 638.311 Q97.8206 633.705 97.8206 624.978 Q97.8206 616.228 100.876 611.645 Q103.955 607.038 109.765 607.038 Z" fill="#000000" fill-rule="nonzero" fill-opacity="1" /><path clip-path="url(#clip620)" d="M139.927 610.742 Q136.316 610.742 134.487 614.307 Q132.682 617.848 132.682 624.978 Q132.682 632.084 134.487 635.649 Q136.316 639.191 139.927 639.191 Q143.561 639.191 145.367 635.649 Q147.195 632.084 147.195 624.978 Q147.195 617.848 145.367 614.307 Q143.561 610.742 139.927 610.742 M139.927 607.038 Q145.737 607.038 148.793 611.645 Q151.871 616.228 151.871 624.978 Q151.871 633.705 148.793 638.311 Q145.737 642.894 139.927 642.894 Q134.117 642.894 131.038 638.311 Q127.982 633.705 127.982 624.978 Q127.982 616.228 131.038 611.645 Q134.117 607.038 139.927 607.038 Z" fill="#000000" fill-rule="nonzero" fill-opacity="1" /><path clip-path="url(#clip620)" d="M164.117 638.288 L180.436 638.288 L180.436 642.223 L158.492 642.223 L158.492 638.288 Q161.154 635.533 165.737 630.904 Q170.343 626.251 171.524 624.908 Q173.769 622.385 174.649 620.649 Q175.552 618.89 175.552 617.2 Q175.552 614.446 173.607 612.709 Q171.686 610.973 168.584 610.973 Q166.385 610.973 163.931 611.737 Q161.501 612.501 158.723 614.052 L158.723 609.33 Q161.547 608.196 164.001 607.617 Q166.454 607.038 168.491 607.038 Q173.862 607.038 177.056 609.723 Q180.251 612.409 180.251 616.899 Q180.251 619.029 179.441 620.95 Q178.653 622.848 176.547 625.441 Q175.968 626.112 172.866 629.33 Q169.765 632.524 164.117 638.288 Z" fill="#000000" fill-rule="nonzero" fill-opacity="1" /><path clip-path="url(#clip620)" d="M63.5847 196.389 Q59.9736 196.389 58.1449 199.953 Q56.3393 203.495 56.3393 210.625 Q56.3393 217.731 58.1449 221.296 Q59.9736 224.837 63.5847 224.837 Q67.2189 224.837 69.0244 221.296 Q70.8531 217.731 70.8531 210.625 Q70.8531 203.495 69.0244 199.953 Q67.2189 196.389 63.5847 196.389 M63.5847 192.685 Q69.3948 192.685 72.4503 197.291 Q75.529 201.875 75.529 210.625 Q75.529 219.351 72.4503 223.958 Q69.3948 228.541 63.5847 228.541 Q57.7745 228.541 54.6958 223.958 Q51.6403 219.351 51.6403 210.625 Q51.6403 201.875 54.6958 197.291 Q57.7745 192.685 63.5847 192.685 Z" fill="#000000" fill-rule="nonzero" fill-opacity="1" /><path clip-path="url(#clip620)" d="M83.7466 221.99 L88.6308 221.99 L88.6308 227.87 L83.7466 227.87 L83.7466 221.99 Z" fill="#000000" fill-rule="nonzero" fill-opacity="1" /><path clip-path="url(#clip620)" d="M108.816 196.389 Q105.205 196.389 103.376 199.953 Q101.571 203.495 101.571 210.625 Q101.571 217.731 103.376 221.296 Q105.205 224.837 108.816 224.837 Q112.45 224.837 114.256 221.296 Q116.084 217.731 116.084 210.625 Q116.084 203.495 114.256 199.953 Q112.45 196.389 108.816 196.389 M108.816 192.685 Q114.626 192.685 117.682 197.291 Q120.76 201.875 120.76 210.625 Q120.76 219.351 117.682 223.958 Q114.626 228.541 108.816 228.541 Q103.006 228.541 99.927 223.958 Q96.8715 219.351 96.8715 210.625 Q96.8715 201.875 99.927 197.291 Q103.006 192.685 108.816 192.685 Z" fill="#000000" fill-rule="nonzero" fill-opacity="1" /><path clip-path="url(#clip620)" d="M138.978 196.389 Q135.367 196.389 133.538 199.953 Q131.732 203.495 131.732 210.625 Q131.732 217.731 133.538 221.296 Q135.367 224.837 138.978 224.837 Q142.612 224.837 144.418 221.296 Q146.246 217.731 146.246 210.625 Q146.246 203.495 144.418 199.953 Q142.612 196.389 138.978 196.389 M138.978 192.685 Q144.788 192.685 147.843 197.291 Q150.922 201.875 150.922 210.625 Q150.922 219.351 147.843 223.958 Q144.788 228.541 138.978 228.541 Q133.168 228.541 130.089 223.958 Q127.033 219.351 127.033 210.625 Q127.033 201.875 130.089 197.291 Q133.168 192.685 138.978 192.685 Z" fill="#000000" fill-rule="nonzero" fill-opacity="1" /><path clip-path="url(#clip620)" d="M173.306 209.236 Q176.663 209.953 178.538 212.222 Q180.436 214.49 180.436 217.824 Q180.436 222.939 176.917 225.74 Q173.399 228.541 166.917 228.541 Q164.742 228.541 162.427 228.101 Q160.135 227.685 157.681 226.828 L157.681 222.314 Q159.626 223.449 161.941 224.027 Q164.255 224.606 166.779 224.606 Q171.177 224.606 173.468 222.87 Q175.783 221.134 175.783 217.824 Q175.783 214.768 173.63 213.055 Q171.501 211.319 167.681 211.319 L163.654 211.319 L163.654 207.476 L167.866 207.476 Q171.316 207.476 173.144 206.111 Q174.973 204.722 174.973 202.129 Q174.973 199.467 173.075 198.055 Q171.2 196.62 167.681 196.62 Q165.76 196.62 163.561 197.037 Q161.362 197.453 158.723 198.333 L158.723 194.166 Q161.385 193.426 163.7 193.055 Q166.038 192.685 168.098 192.685 Q173.422 192.685 176.524 195.115 Q179.626 197.523 179.626 201.643 Q179.626 204.513 177.982 206.504 Q176.339 208.472 173.306 209.236 Z" fill="#000000" fill-rule="nonzero" fill-opacity="1" /><circle clip-path="url(#clip622)" cx="278.927" cy="87.9763" r="14.4" fill="#009af9" fill-rule="evenodd" fill-opacity="1" stroke="#000000" stroke-opacity="1" stroke-width="3.2"/>
<circle clip-path="url(#clip622)" cx="343.875" cy="733.301" r="14.4" fill="#009af9" fill-rule="evenodd" fill-opacity="1" stroke="#000000" stroke-opacity="1" stroke-width="3.2"/>
<circle clip-path="url(#clip622)" cx="473.769" cy="1418.04" r="14.4" fill="#009af9" fill-rule="evenodd" fill-opacity="1" stroke="#000000" stroke-opacity="1" stroke-width="3.2"/>
<circle clip-path="url(#clip622)" cx="733.559" cy="1369.42" r="14.4" fill="#009af9" fill-rule="evenodd" fill-opacity="1" stroke="#000000" stroke-opacity="1" stroke-width="3.2"/>
<circle clip-path="url(#clip622)" cx="1253.14" cy="1440.23" r="14.4" fill="#009af9" fill-rule="evenodd" fill-opacity="1" stroke="#000000" stroke-opacity="1" stroke-width="3.2"/>
<circle clip-path="url(#clip622)" cx="2292.29" cy="1255.17" r="14.4" fill="#009af9" fill-rule="evenodd" fill-opacity="1" stroke="#000000" stroke-opacity="1" stroke-width="3.2"/>
<circle clip-path="url(#clip622)" cx="278.927" cy="1049.93" r="14.4" fill="#e26f46" fill-rule="evenodd" fill-opacity="1" stroke="#000000" stroke-opacity="1" stroke-width="3.2"/>
<circle clip-path="url(#clip622)" cx="343.875" cy="360.942" r="14.4" fill="#e26f46" fill-rule="evenodd" fill-opacity="1" stroke="#000000" stroke-opacity="1" stroke-width="3.2"/>
<circle clip-path="url(#clip622)" cx="473.769" cy="296.352" r="14.4" fill="#e26f46" fill-rule="evenodd" fill-opacity="1" stroke="#000000" stroke-opacity="1" stroke-width="3.2"/>
<circle clip-path="url(#clip622)" cx="733.559" cy="1299.97" r="14.4" fill="#e26f46" fill-rule="evenodd" fill-opacity="1" stroke="#000000" stroke-opacity="1" stroke-width="3.2"/>
<circle clip-path="url(#clip622)" cx="1253.14" cy="1304.25" r="14.4" fill="#e26f46" fill-rule="evenodd" fill-opacity="1" stroke="#000000" stroke-opacity="1" stroke-width="3.2"/>
<circle clip-path="url(#clip622)" cx="2292.29" cy="1233.69" r="14.4" fill="#e26f46" fill-rule="evenodd" fill-opacity="1" stroke="#000000" stroke-opacity="1" stroke-width="3.2"/>
<circle clip-path="url(#clip622)" cx="276.898" cy="1445.72" r="14.4" fill="#3da44d" fill-rule="evenodd" fill-opacity="1" stroke="#000000" stroke-opacity="1" stroke-width="3.2"/>
<circle clip-path="url(#clip622)" cx="341.845" cy="286.294" r="14.4" fill="#3da44d" fill-rule="evenodd" fill-opacity="1" stroke="#000000" stroke-opacity="1" stroke-width="3.2"/>
<circle clip-path="url(#clip622)" cx="471.74" cy="596.673" r="14.4" fill="#3da44d" fill-rule="evenodd" fill-opacity="1" stroke="#000000" stroke-opacity="1" stroke-width="3.2"/>
<circle clip-path="url(#clip622)" cx="731.529" cy="1329.67" r="14.4" fill="#3da44d" fill-rule="evenodd" fill-opacity="1" stroke="#000000" stroke-opacity="1" stroke-width="3.2"/>
<circle clip-path="url(#clip622)" cx="1251.11" cy="903.535" r="14.4" fill="#3da44d" fill-rule="evenodd" fill-opacity="1" stroke="#000000" stroke-opacity="1" stroke-width="3.2"/>
<circle clip-path="url(#clip622)" cx="2290.26" cy="1036.32" r="14.4" fill="#3da44d" fill-rule="evenodd" fill-opacity="1" stroke="#000000" stroke-opacity="1" stroke-width="3.2"/>
<path clip-path="url(#clip620)" d="M1140.93 302.578 L2281.55 302.578 L2281.55 95.2176 L1140.93 95.2176  Z" fill="#ffffff" fill-rule="evenodd" fill-opacity="1"/>
<polyline clip-path="url(#clip620)" style="stroke:#000000; stroke-linecap:round; stroke-linejoin:round; stroke-width:4; stroke-opacity:1; fill:none" points="1140.93,302.578 2281.55,302.578 2281.55,95.2176 1140.93,95.2176 1140.93,302.578 "/>
<circle clip-path="url(#clip620)" cx="1235.88" cy="147.058" r="20.48" fill="#009af9" fill-rule="evenodd" fill-opacity="1" stroke="#000000" stroke-opacity="1" stroke-width="4.55111"/>
<path clip-path="url(#clip620)" d="M1352.54 148.689 L1352.54 164.338 L1348.28 164.338 L1348.28 148.828 Q1348.28 145.148 1346.84 143.319 Q1345.41 141.49 1342.54 141.49 Q1339.09 141.49 1337.1 143.69 Q1335.1 145.889 1335.1 149.685 L1335.1 164.338 L1330.82 164.338 L1330.82 138.412 L1335.1 138.412 L1335.1 142.44 Q1336.63 140.102 1338.69 138.944 Q1340.78 137.787 1343.48 137.787 Q1347.95 137.787 1350.24 140.565 Q1352.54 143.319 1352.54 148.689 Z" fill="#000000" fill-rule="nonzero" fill-opacity="1" /><path clip-path="url(#clip620)" d="M1372.81 151.305 Q1367.65 151.305 1365.66 152.486 Q1363.67 153.666 1363.67 156.514 Q1363.67 158.782 1365.15 160.125 Q1366.66 161.444 1369.23 161.444 Q1372.77 161.444 1374.9 158.944 Q1377.05 156.421 1377.05 152.254 L1377.05 151.305 L1372.81 151.305 M1381.31 149.546 L1381.31 164.338 L1377.05 164.338 L1377.05 160.402 Q1375.59 162.763 1373.41 163.898 Q1371.24 165.009 1368.09 165.009 Q1364.11 165.009 1361.75 162.787 Q1359.41 160.541 1359.41 156.791 Q1359.41 152.416 1362.33 150.194 Q1365.27 147.972 1371.08 147.972 L1377.05 147.972 L1377.05 147.555 Q1377.05 144.615 1375.1 143.018 Q1373.18 141.398 1369.69 141.398 Q1367.47 141.398 1365.36 141.93 Q1363.25 142.463 1361.31 143.527 L1361.31 139.592 Q1363.65 138.69 1365.85 138.25 Q1368.04 137.787 1370.13 137.787 Q1375.75 137.787 1378.53 140.703 Q1381.31 143.62 1381.31 149.546 Z" fill="#000000" fill-rule="nonzero" fill-opacity="1" /><path clip-path="url(#clip620)" d="M1394.2 160.449 L1394.2 174.199 L1389.92 174.199 L1389.92 138.412 L1394.2 138.412 L1394.2 142.347 Q1395.54 140.032 1397.58 138.921 Q1399.64 137.787 1402.49 137.787 Q1407.21 137.787 1410.15 141.537 Q1413.11 145.287 1413.11 151.398 Q1413.11 157.509 1410.15 161.259 Q1407.21 165.009 1402.49 165.009 Q1399.64 165.009 1397.58 163.898 Q1395.54 162.763 1394.2 160.449 M1408.69 151.398 Q1408.69 146.699 1406.75 144.037 Q1404.83 141.352 1401.45 141.352 Q1398.07 141.352 1396.12 144.037 Q1394.2 146.699 1394.2 151.398 Q1394.2 156.097 1396.12 158.782 Q1398.07 161.444 1401.45 161.444 Q1404.83 161.444 1406.75 158.782 Q1408.69 156.097 1408.69 151.398 Z" fill="#000000" fill-rule="nonzero" fill-opacity="1" /><path clip-path="url(#clip620)" d="M1431.96 151.305 Q1426.79 151.305 1424.8 152.486 Q1422.81 153.666 1422.81 156.514 Q1422.81 158.782 1424.29 160.125 Q1425.8 161.444 1428.37 161.444 Q1431.91 161.444 1434.04 158.944 Q1436.19 156.421 1436.19 152.254 L1436.19 151.305 L1431.96 151.305 M1440.45 149.546 L1440.45 164.338 L1436.19 164.338 L1436.19 160.402 Q1434.73 162.763 1432.56 163.898 Q1430.38 165.009 1427.23 165.009 Q1423.25 165.009 1420.89 162.787 Q1418.55 160.541 1418.55 156.791 Q1418.55 152.416 1421.47 150.194 Q1424.41 147.972 1430.22 147.972 L1436.19 147.972 L1436.19 147.555 Q1436.19 144.615 1434.25 143.018 Q1432.33 141.398 1428.83 141.398 Q1426.61 141.398 1424.5 141.93 Q1422.4 142.463 1420.45 143.527 L1420.45 139.592 Q1422.79 138.69 1424.99 138.25 Q1427.19 137.787 1429.27 137.787 Q1434.9 137.787 1437.67 140.703 Q1440.45 143.62 1440.45 149.546 Z" fill="#000000" fill-rule="nonzero" fill-opacity="1" /><path clip-path="url(#clip620)" d="M1449.06 128.319 L1453.35 128.319 L1453.35 149.592 L1466.05 138.412 L1471.49 138.412 L1457.74 150.541 L1472.07 164.338 L1466.52 164.338 L1453.35 151.676 L1453.35 164.338 L1449.06 164.338 L1449.06 128.319 Z" fill="#000000" fill-rule="nonzero" fill-opacity="1" /><path clip-path="url(#clip620)" d="M1487.63 151.305 Q1482.47 151.305 1480.47 152.486 Q1478.48 153.666 1478.48 156.514 Q1478.48 158.782 1479.97 160.125 Q1481.47 161.444 1484.04 161.444 Q1487.58 161.444 1489.71 158.944 Q1491.86 156.421 1491.86 152.254 L1491.86 151.305 L1487.63 151.305 M1496.12 149.546 L1496.12 164.338 L1491.86 164.338 L1491.86 160.402 Q1490.41 162.763 1488.23 163.898 Q1486.05 165.009 1482.91 165.009 Q1478.92 165.009 1476.56 162.787 Q1474.22 160.541 1474.22 156.791 Q1474.22 152.416 1477.14 150.194 Q1480.08 147.972 1485.89 147.972 L1491.86 147.972 L1491.86 147.555 Q1491.86 144.615 1489.92 143.018 Q1488 141.398 1484.5 141.398 Q1482.28 141.398 1480.17 141.93 Q1478.07 142.463 1476.12 143.527 L1476.12 139.592 Q1478.46 138.69 1480.66 138.25 Q1482.86 137.787 1484.94 137.787 Q1490.57 137.787 1493.34 140.703 Q1496.12 143.62 1496.12 149.546 Z" fill="#000000" fill-rule="nonzero" fill-opacity="1" /><path clip-path="url(#clip620)" d="M1524.18 131.051 L1524.18 138.412 L1532.95 138.412 L1532.95 141.722 L1524.18 141.722 L1524.18 155.796 Q1524.18 158.967 1525.03 159.87 Q1525.91 160.773 1528.58 160.773 L1532.95 160.773 L1532.95 164.338 L1528.58 164.338 Q1523.65 164.338 1521.77 162.509 Q1519.9 160.657 1519.9 155.796 L1519.9 141.722 L1516.77 141.722 L1516.77 138.412 L1519.9 138.412 L1519.9 131.051 L1524.18 131.051 Z" fill="#000000" fill-rule="nonzero" fill-opacity="1" /><path clip-path="url(#clip620)" d="M1553.58 142.393 Q1552.86 141.977 1552 141.791 Q1551.17 141.583 1550.15 141.583 Q1546.54 141.583 1544.59 143.944 Q1542.67 146.282 1542.67 150.68 L1542.67 164.338 L1538.39 164.338 L1538.39 138.412 L1542.67 138.412 L1542.67 142.44 Q1544.02 140.078 1546.17 138.944 Q1548.32 137.787 1551.4 137.787 Q1551.84 137.787 1552.37 137.856 Q1552.9 137.903 1553.55 138.018 L1553.58 142.393 Z" fill="#000000" fill-rule="nonzero" fill-opacity="1" /><path clip-path="url(#clip620)" d="M1569.83 151.305 Q1564.66 151.305 1562.67 152.486 Q1560.68 153.666 1560.68 156.514 Q1560.68 158.782 1562.16 160.125 Q1563.67 161.444 1566.24 161.444 Q1569.78 161.444 1571.91 158.944 Q1574.06 156.421 1574.06 152.254 L1574.06 151.305 L1569.83 151.305 M1578.32 149.546 L1578.32 164.338 L1574.06 164.338 L1574.06 160.402 Q1572.6 162.763 1570.43 163.898 Q1568.25 165.009 1565.1 165.009 Q1561.12 165.009 1558.76 162.787 Q1556.42 160.541 1556.42 156.791 Q1556.42 152.416 1559.34 150.194 Q1562.28 147.972 1568.09 147.972 L1574.06 147.972 L1574.06 147.555 Q1574.06 144.615 1572.12 143.018 Q1570.2 141.398 1566.7 141.398 Q1564.48 141.398 1562.37 141.93 Q1560.27 142.463 1558.32 143.527 L1558.32 139.592 Q1560.66 138.69 1562.86 138.25 Q1565.06 137.787 1567.14 137.787 Q1572.77 137.787 1575.54 140.703 Q1578.32 143.62 1578.32 149.546 Z" fill="#000000" fill-rule="nonzero" fill-opacity="1" /><path clip-path="url(#clip620)" d="M1591.21 160.449 L1591.21 174.199 L1586.93 174.199 L1586.93 138.412 L1591.21 138.412 L1591.21 142.347 Q1592.56 140.032 1594.59 138.921 Q1596.65 137.787 1599.5 137.787 Q1604.22 137.787 1607.16 141.537 Q1610.13 145.287 1610.13 151.398 Q1610.13 157.509 1607.16 161.259 Q1604.22 165.009 1599.5 165.009 Q1596.65 165.009 1594.59 163.898 Q1592.56 162.763 1591.21 160.449 M1605.71 151.398 Q1605.71 146.699 1603.76 144.037 Q1601.84 141.352 1598.46 141.352 Q1595.08 141.352 1593.14 144.037 Q1591.21 146.699 1591.21 151.398 Q1591.21 156.097 1593.14 158.782 Q1595.08 161.444 1598.46 161.444 Q1601.84 161.444 1603.76 158.782 Q1605.71 156.097 1605.71 151.398 Z" fill="#000000" fill-rule="nonzero" fill-opacity="1" /><path clip-path="url(#clip620)" d="M1639.36 150.31 L1639.36 152.393 L1619.78 152.393 Q1620.06 156.791 1622.42 159.106 Q1624.8 161.398 1629.04 161.398 Q1631.49 161.398 1633.78 160.796 Q1636.1 160.194 1638.37 158.99 L1638.37 163.018 Q1636.08 163.99 1633.67 164.5 Q1631.26 165.009 1628.78 165.009 Q1622.58 165.009 1618.95 161.398 Q1615.33 157.787 1615.33 151.629 Q1615.33 145.264 1618.76 141.537 Q1622.21 137.787 1628.04 137.787 Q1633.27 137.787 1636.31 141.166 Q1639.36 144.523 1639.36 150.31 M1635.1 149.06 Q1635.06 145.565 1633.14 143.481 Q1631.24 141.398 1628.09 141.398 Q1624.52 141.398 1622.37 143.412 Q1620.24 145.426 1619.92 149.083 L1635.1 149.06 Z" fill="#000000" fill-rule="nonzero" fill-opacity="1" /><path clip-path="url(#clip620)" d="M1644.5 138.412 L1664.73 138.412 L1664.73 142.301 L1648.71 160.935 L1664.73 160.935 L1664.73 164.338 L1643.92 164.338 L1643.92 160.449 L1659.94 141.815 L1644.5 141.815 L1644.5 138.412 Z" fill="#000000" fill-rule="nonzero" fill-opacity="1" /><path clip-path="url(#clip620)" d="M1692.79 148.689 L1692.79 164.338 L1688.53 164.338 L1688.53 148.828 Q1688.53 145.148 1687.09 143.319 Q1685.66 141.49 1682.79 141.49 Q1679.34 141.49 1677.35 143.69 Q1675.36 145.889 1675.36 149.685 L1675.36 164.338 L1671.08 164.338 L1671.08 138.412 L1675.36 138.412 L1675.36 142.44 Q1676.89 140.102 1678.95 138.944 Q1681.03 137.787 1683.74 137.787 Q1688.2 137.787 1690.5 140.565 Q1692.79 143.319 1692.79 148.689 Z" fill="#000000" fill-rule="nonzero" fill-opacity="1" /><path clip-path="url(#clip620)" d="M1723.46 150.31 L1723.46 152.393 L1703.88 152.393 Q1704.15 156.791 1706.52 159.106 Q1708.9 161.398 1713.14 161.398 Q1715.59 161.398 1717.88 160.796 Q1720.2 160.194 1722.46 158.99 L1722.46 163.018 Q1720.17 163.99 1717.76 164.5 Q1715.36 165.009 1712.88 165.009 Q1706.68 165.009 1703.04 161.398 Q1699.43 157.787 1699.43 151.629 Q1699.43 145.264 1702.86 141.537 Q1706.31 137.787 1712.14 137.787 Q1717.37 137.787 1720.4 141.166 Q1723.46 144.523 1723.46 150.31 M1719.2 149.06 Q1719.15 145.565 1717.23 143.481 Q1715.33 141.398 1712.19 141.398 Q1708.62 141.398 1706.47 143.412 Q1704.34 145.426 1704.02 149.083 L1719.2 149.06 Z" fill="#000000" fill-rule="nonzero" fill-opacity="1" /><path clip-path="url(#clip620)" d="M1747.51 151.074 Q1747.51 146.444 1745.59 143.898 Q1743.69 141.352 1740.24 141.352 Q1736.82 141.352 1734.89 143.898 Q1733 146.444 1733 151.074 Q1733 155.68 1734.89 158.226 Q1736.82 160.773 1740.24 160.773 Q1743.69 160.773 1745.59 158.226 Q1747.51 155.68 1747.51 151.074 M1751.77 161.12 Q1751.77 167.74 1748.83 170.958 Q1745.89 174.199 1739.83 174.199 Q1737.58 174.199 1735.59 173.851 Q1733.6 173.527 1731.72 172.833 L1731.72 168.689 Q1733.6 169.708 1735.43 170.194 Q1737.26 170.68 1739.15 170.68 Q1743.34 170.68 1745.43 168.481 Q1747.51 166.305 1747.51 161.884 L1747.51 159.777 Q1746.19 162.069 1744.13 163.203 Q1742.07 164.338 1739.2 164.338 Q1734.43 164.338 1731.51 160.703 Q1728.6 157.069 1728.6 151.074 Q1728.6 145.055 1731.51 141.421 Q1734.43 137.787 1739.2 137.787 Q1742.07 137.787 1744.13 138.921 Q1746.19 140.055 1747.51 142.347 L1747.51 138.412 L1751.77 138.412 L1751.77 161.12 Z" fill="#000000" fill-rule="nonzero" fill-opacity="1" /><path clip-path="url(#clip620)" d="M1772.32 151.305 Q1767.16 151.305 1765.17 152.486 Q1763.18 153.666 1763.18 156.514 Q1763.18 158.782 1764.66 160.125 Q1766.17 161.444 1768.74 161.444 Q1772.28 161.444 1774.41 158.944 Q1776.56 156.421 1776.56 152.254 L1776.56 151.305 L1772.32 151.305 M1780.82 149.546 L1780.82 164.338 L1776.56 164.338 L1776.56 160.402 Q1775.1 162.763 1772.93 163.898 Q1770.75 165.009 1767.6 165.009 Q1763.62 165.009 1761.26 162.787 Q1758.92 160.541 1758.92 156.791 Q1758.92 152.416 1761.84 150.194 Q1764.78 147.972 1770.59 147.972 L1776.56 147.972 L1776.56 147.555 Q1776.56 144.615 1774.62 143.018 Q1772.7 141.398 1769.2 141.398 Q1766.98 141.398 1764.87 141.93 Q1762.76 142.463 1760.82 143.527 L1760.82 139.592 Q1763.16 138.69 1765.36 138.25 Q1767.56 137.787 1769.64 137.787 Q1775.26 137.787 1778.04 140.703 Q1780.82 143.62 1780.82 149.546 Z" fill="#000000" fill-rule="nonzero" fill-opacity="1" /><path clip-path="url(#clip620)" d="M1808.78 160.449 L1808.78 174.199 L1804.5 174.199 L1804.5 138.412 L1808.78 138.412 L1808.78 142.347 Q1810.13 140.032 1812.16 138.921 Q1814.22 137.787 1817.07 137.787 Q1821.79 137.787 1824.73 141.537 Q1827.69 145.287 1827.69 151.398 Q1827.69 157.509 1824.73 161.259 Q1821.79 165.009 1817.07 165.009 Q1814.22 165.009 1812.16 163.898 Q1810.13 162.763 1808.78 160.449 M1823.27 151.398 Q1823.27 146.699 1821.33 144.037 Q1819.41 141.352 1816.03 141.352 Q1812.65 141.352 1810.7 144.037 Q1808.78 146.699 1808.78 151.398 Q1808.78 156.097 1810.7 158.782 Q1812.65 161.444 1816.03 161.444 Q1819.41 161.444 1821.33 158.782 Q1823.27 156.097 1823.27 151.398 Z" fill="#000000" fill-rule="nonzero" fill-opacity="1" /><path clip-path="url(#clip620)" d="M1849.78 142.393 Q1849.06 141.977 1848.2 141.791 Q1847.37 141.583 1846.35 141.583 Q1842.74 141.583 1840.8 143.944 Q1838.88 146.282 1838.88 150.68 L1838.88 164.338 L1834.59 164.338 L1834.59 138.412 L1838.88 138.412 L1838.88 142.44 Q1840.22 140.078 1842.37 138.944 Q1844.52 137.787 1847.6 137.787 Q1848.04 137.787 1848.57 137.856 Q1849.11 137.903 1849.75 138.018 L1849.78 142.393 Z" fill="#000000" fill-rule="nonzero" fill-opacity="1" /><path clip-path="url(#clip620)" d="M1866.03 151.305 Q1860.87 151.305 1858.88 152.486 Q1856.88 153.666 1856.88 156.514 Q1856.88 158.782 1858.37 160.125 Q1859.87 161.444 1862.44 161.444 Q1865.98 161.444 1868.11 158.944 Q1870.26 156.421 1870.26 152.254 L1870.26 151.305 L1866.03 151.305 M1874.52 149.546 L1874.52 164.338 L1870.26 164.338 L1870.26 160.402 Q1868.81 162.763 1866.63 163.898 Q1864.45 165.009 1861.31 165.009 Q1857.32 165.009 1854.96 162.787 Q1852.63 160.541 1852.63 156.791 Q1852.63 152.416 1855.54 150.194 Q1858.48 147.972 1864.29 147.972 L1870.26 147.972 L1870.26 147.555 Q1870.26 144.615 1868.32 143.018 Q1866.4 141.398 1862.9 141.398 Q1860.68 141.398 1858.57 141.93 Q1856.47 142.463 1854.52 143.527 L1854.52 139.592 Q1856.86 138.69 1859.06 138.25 Q1861.26 137.787 1863.34 137.787 Q1868.97 137.787 1871.75 140.703 Q1874.52 143.62 1874.52 149.546 Z" fill="#000000" fill-rule="nonzero" fill-opacity="1" /><path clip-path="url(#clip620)" d="M1880.24 138.412 L1884.75 138.412 L1892.86 160.171 L1900.96 138.412 L1905.47 138.412 L1895.75 164.338 L1889.96 164.338 L1880.24 138.412 Z" fill="#000000" fill-rule="nonzero" fill-opacity="1" /><path clip-path="url(#clip620)" d="M1911.35 138.412 L1915.61 138.412 L1915.61 164.338 L1911.35 164.338 L1911.35 138.412 M1911.35 128.319 L1915.61 128.319 L1915.61 133.713 L1911.35 133.713 L1911.35 128.319 Z" fill="#000000" fill-rule="nonzero" fill-opacity="1" /><path clip-path="url(#clip620)" d="M1924.52 128.319 L1928.78 128.319 L1928.78 164.338 L1924.52 164.338 L1924.52 128.319 Z" fill="#000000" fill-rule="nonzero" fill-opacity="1" /><path clip-path="url(#clip620)" d="M1949.48 151.305 Q1944.31 151.305 1942.32 152.486 Q1940.33 153.666 1940.33 156.514 Q1940.33 158.782 1941.81 160.125 Q1943.32 161.444 1945.89 161.444 Q1949.43 161.444 1951.56 158.944 Q1953.71 156.421 1953.71 152.254 L1953.71 151.305 L1949.48 151.305 M1957.97 149.546 L1957.97 164.338 L1953.71 164.338 L1953.71 160.402 Q1952.25 162.763 1950.08 163.898 Q1947.9 165.009 1944.75 165.009 Q1940.77 165.009 1938.41 162.787 Q1936.07 160.541 1936.07 156.791 Q1936.07 152.416 1938.99 150.194 Q1941.93 147.972 1947.74 147.972 L1953.71 147.972 L1953.71 147.555 Q1953.71 144.615 1951.77 143.018 Q1949.85 141.398 1946.35 141.398 Q1944.13 141.398 1942.02 141.93 Q1939.92 142.463 1937.97 143.527 L1937.97 139.592 Q1940.31 138.69 1942.51 138.25 Q1944.71 137.787 1946.79 137.787 Q1952.42 137.787 1955.19 140.703 Q1957.97 143.62 1957.97 149.546 Z" fill="#000000" fill-rule="nonzero" fill-opacity="1" /><circle clip-path="url(#clip620)" cx="1235.88" cy="198.898" r="20.48" fill="#e26f46" fill-rule="evenodd" fill-opacity="1" stroke="#000000" stroke-opacity="1" stroke-width="4.55111"/>
<path clip-path="url(#clip620)" d="M1352.54 200.529 L1352.54 216.178 L1348.28 216.178 L1348.28 200.668 Q1348.28 196.988 1346.84 195.159 Q1345.41 193.33 1342.54 193.33 Q1339.09 193.33 1337.1 195.53 Q1335.1 197.729 1335.1 201.525 L1335.1 216.178 L1330.82 216.178 L1330.82 190.252 L1335.1 190.252 L1335.1 194.28 Q1336.63 191.942 1338.69 190.784 Q1340.78 189.627 1343.48 189.627 Q1347.95 189.627 1350.24 192.405 Q1352.54 195.159 1352.54 200.529 Z" fill="#000000" fill-rule="nonzero" fill-opacity="1" /><path clip-path="url(#clip620)" d="M1372.81 203.145 Q1367.65 203.145 1365.66 204.326 Q1363.67 205.506 1363.67 208.354 Q1363.67 210.622 1365.15 211.965 Q1366.66 213.284 1369.23 213.284 Q1372.77 213.284 1374.9 210.784 Q1377.05 208.261 1377.05 204.094 L1377.05 203.145 L1372.81 203.145 M1381.31 201.386 L1381.31 216.178 L1377.05 216.178 L1377.05 212.242 Q1375.59 214.603 1373.41 215.738 Q1371.24 216.849 1368.09 216.849 Q1364.11 216.849 1361.75 214.627 Q1359.41 212.381 1359.41 208.631 Q1359.41 204.256 1362.33 202.034 Q1365.27 199.812 1371.08 199.812 L1377.05 199.812 L1377.05 199.395 Q1377.05 196.455 1375.1 194.858 Q1373.18 193.238 1369.69 193.238 Q1367.47 193.238 1365.36 193.77 Q1363.25 194.303 1361.31 195.367 L1361.31 191.432 Q1363.65 190.53 1365.85 190.09 Q1368.04 189.627 1370.13 189.627 Q1375.75 189.627 1378.53 192.543 Q1381.31 195.46 1381.31 201.386 Z" fill="#000000" fill-rule="nonzero" fill-opacity="1" /><path clip-path="url(#clip620)" d="M1394.2 212.289 L1394.2 226.039 L1389.92 226.039 L1389.92 190.252 L1394.2 190.252 L1394.2 194.187 Q1395.54 191.872 1397.58 190.761 Q1399.64 189.627 1402.49 189.627 Q1407.21 189.627 1410.15 193.377 Q1413.11 197.127 1413.11 203.238 Q1413.11 209.349 1410.15 213.099 Q1407.21 216.849 1402.49 216.849 Q1399.64 216.849 1397.58 215.738 Q1395.54 214.603 1394.2 212.289 M1408.69 203.238 Q1408.69 198.539 1406.75 195.877 Q1404.83 193.192 1401.45 193.192 Q1398.07 193.192 1396.12 195.877 Q1394.2 198.539 1394.2 203.238 Q1394.2 207.937 1396.12 210.622 Q1398.07 213.284 1401.45 213.284 Q1404.83 213.284 1406.75 210.622 Q1408.69 207.937 1408.69 203.238 Z" fill="#000000" fill-rule="nonzero" fill-opacity="1" /><path clip-path="url(#clip620)" d="M1431.96 203.145 Q1426.79 203.145 1424.8 204.326 Q1422.81 205.506 1422.81 208.354 Q1422.81 210.622 1424.29 211.965 Q1425.8 213.284 1428.37 213.284 Q1431.91 213.284 1434.04 210.784 Q1436.19 208.261 1436.19 204.094 L1436.19 203.145 L1431.96 203.145 M1440.45 201.386 L1440.45 216.178 L1436.19 216.178 L1436.19 212.242 Q1434.73 214.603 1432.56 215.738 Q1430.38 216.849 1427.23 216.849 Q1423.25 216.849 1420.89 214.627 Q1418.55 212.381 1418.55 208.631 Q1418.55 204.256 1421.47 202.034 Q1424.41 199.812 1430.22 199.812 L1436.19 199.812 L1436.19 199.395 Q1436.19 196.455 1434.25 194.858 Q1432.33 193.238 1428.83 193.238 Q1426.61 193.238 1424.5 193.77 Q1422.4 194.303 1420.45 195.367 L1420.45 191.432 Q1422.79 190.53 1424.99 190.09 Q1427.19 189.627 1429.27 189.627 Q1434.9 189.627 1437.67 192.543 Q1440.45 195.46 1440.45 201.386 Z" fill="#000000" fill-rule="nonzero" fill-opacity="1" /><path clip-path="url(#clip620)" d="M1449.06 180.159 L1453.35 180.159 L1453.35 201.432 L1466.05 190.252 L1471.49 190.252 L1457.74 202.381 L1472.07 216.178 L1466.52 216.178 L1453.35 203.516 L1453.35 216.178 L1449.06 216.178 L1449.06 180.159 Z" fill="#000000" fill-rule="nonzero" fill-opacity="1" /><path clip-path="url(#clip620)" d="M1487.63 203.145 Q1482.47 203.145 1480.47 204.326 Q1478.48 205.506 1478.48 208.354 Q1478.48 210.622 1479.97 211.965 Q1481.47 213.284 1484.04 213.284 Q1487.58 213.284 1489.71 210.784 Q1491.86 208.261 1491.86 204.094 L1491.86 203.145 L1487.63 203.145 M1496.12 201.386 L1496.12 216.178 L1491.86 216.178 L1491.86 212.242 Q1490.41 214.603 1488.23 215.738 Q1486.05 216.849 1482.91 216.849 Q1478.92 216.849 1476.56 214.627 Q1474.22 212.381 1474.22 208.631 Q1474.22 204.256 1477.14 202.034 Q1480.08 199.812 1485.89 199.812 L1491.86 199.812 L1491.86 199.395 Q1491.86 196.455 1489.92 194.858 Q1488 193.238 1484.5 193.238 Q1482.28 193.238 1480.17 193.77 Q1478.07 194.303 1476.12 195.367 L1476.12 191.432 Q1478.46 190.53 1480.66 190.09 Q1482.86 189.627 1484.94 189.627 Q1490.57 189.627 1493.34 192.543 Q1496.12 195.46 1496.12 201.386 Z" fill="#000000" fill-rule="nonzero" fill-opacity="1" /><path clip-path="url(#clip620)" d="M1540.87 182.752 L1540.87 187.312 Q1538.21 186.039 1535.84 185.414 Q1533.48 184.789 1531.28 184.789 Q1527.47 184.789 1525.38 186.27 Q1523.32 187.752 1523.32 190.483 Q1523.32 192.775 1524.69 193.955 Q1526.08 195.113 1529.92 195.83 L1532.74 196.409 Q1537.97 197.405 1540.45 199.928 Q1542.95 202.428 1542.95 206.641 Q1542.95 211.664 1539.57 214.256 Q1536.21 216.849 1529.71 216.849 Q1527.26 216.849 1524.48 216.293 Q1521.72 215.738 1518.76 214.65 L1518.76 209.835 Q1521.61 211.432 1524.34 212.242 Q1527.07 213.053 1529.71 213.053 Q1533.72 213.053 1535.89 211.479 Q1538.07 209.904 1538.07 206.988 Q1538.07 204.442 1536.49 203.006 Q1534.94 201.571 1531.38 200.854 L1528.53 200.298 Q1523.3 199.256 1520.96 197.034 Q1518.62 194.812 1518.62 190.854 Q1518.62 186.27 1521.84 183.631 Q1525.08 180.993 1530.75 180.993 Q1533.18 180.993 1535.71 181.432 Q1538.23 181.872 1540.87 182.752 Z" fill="#000000" fill-rule="nonzero" fill-opacity="1" /><path clip-path="url(#clip620)" d="M1550.06 190.252 L1554.32 190.252 L1554.32 216.178 L1550.06 216.178 L1550.06 190.252 M1550.06 180.159 L1554.32 180.159 L1554.32 185.553 L1550.06 185.553 L1550.06 180.159 Z" fill="#000000" fill-rule="nonzero" fill-opacity="1" /><path clip-path="url(#clip620)" d="M1583.41 195.229 Q1585.01 192.358 1587.23 190.993 Q1589.46 189.627 1592.46 189.627 Q1596.52 189.627 1598.71 192.474 Q1600.91 195.298 1600.91 200.529 L1600.91 216.178 L1596.63 216.178 L1596.63 200.668 Q1596.63 196.942 1595.31 195.136 Q1593.99 193.33 1591.28 193.33 Q1587.97 193.33 1586.05 195.53 Q1584.13 197.729 1584.13 201.525 L1584.13 216.178 L1579.85 216.178 L1579.85 200.668 Q1579.85 196.918 1578.53 195.136 Q1577.21 193.33 1574.46 193.33 Q1571.19 193.33 1569.27 195.553 Q1567.35 197.752 1567.35 201.525 L1567.35 216.178 L1563.07 216.178 L1563.07 190.252 L1567.35 190.252 L1567.35 194.28 Q1568.81 191.895 1570.84 190.761 Q1572.88 189.627 1575.68 189.627 Q1578.51 189.627 1580.47 191.062 Q1582.46 192.497 1583.41 195.229 Z" fill="#000000" fill-rule="nonzero" fill-opacity="1" /><path clip-path="url(#clip620)" d="M1613.53 212.289 L1613.53 226.039 L1609.25 226.039 L1609.25 190.252 L1613.53 190.252 L1613.53 194.187 Q1614.87 191.872 1616.91 190.761 Q1618.97 189.627 1621.82 189.627 Q1626.54 189.627 1629.48 193.377 Q1632.44 197.127 1632.44 203.238 Q1632.44 209.349 1629.48 213.099 Q1626.54 216.849 1621.82 216.849 Q1618.97 216.849 1616.91 215.738 Q1614.87 214.603 1613.53 212.289 M1628.02 203.238 Q1628.02 198.539 1626.08 195.877 Q1624.15 193.192 1620.77 193.192 Q1617.4 193.192 1615.45 195.877 Q1613.53 198.539 1613.53 203.238 Q1613.53 207.937 1615.45 210.622 Q1617.4 213.284 1620.77 213.284 Q1624.15 213.284 1626.08 210.622 Q1628.02 207.937 1628.02 203.238 Z" fill="#000000" fill-rule="nonzero" fill-opacity="1" /><path clip-path="url(#clip620)" d="M1656.03 191.016 L1656.03 195.043 Q1654.22 194.117 1652.28 193.655 Q1650.33 193.192 1648.25 193.192 Q1645.08 193.192 1643.48 194.164 Q1641.91 195.136 1641.91 197.08 Q1641.91 198.562 1643.04 199.418 Q1644.18 200.252 1647.6 201.016 L1649.06 201.34 Q1653.6 202.312 1655.5 204.094 Q1657.42 205.854 1657.42 209.025 Q1657.42 212.636 1654.55 214.742 Q1651.7 216.849 1646.7 216.849 Q1644.62 216.849 1642.35 216.432 Q1640.1 216.039 1637.6 215.228 L1637.6 210.83 Q1639.96 212.057 1642.26 212.682 Q1644.55 213.284 1646.79 213.284 Q1649.8 213.284 1651.42 212.266 Q1653.04 211.224 1653.04 209.349 Q1653.04 207.613 1651.86 206.687 Q1650.71 205.761 1646.75 204.904 L1645.27 204.557 Q1641.31 203.724 1639.55 202.011 Q1637.79 200.275 1637.79 197.266 Q1637.79 193.608 1640.38 191.618 Q1642.97 189.627 1647.74 189.627 Q1650.1 189.627 1652.19 189.974 Q1654.27 190.321 1656.03 191.016 Z" fill="#000000" fill-rule="nonzero" fill-opacity="1" /><path clip-path="url(#clip620)" d="M1674.25 193.238 Q1670.82 193.238 1668.83 195.923 Q1666.84 198.585 1666.84 203.238 Q1666.84 207.891 1668.81 210.576 Q1670.8 213.238 1674.25 213.238 Q1677.65 213.238 1679.64 210.553 Q1681.63 207.867 1681.63 203.238 Q1681.63 198.631 1679.64 195.946 Q1677.65 193.238 1674.25 193.238 M1674.25 189.627 Q1679.8 189.627 1682.97 193.238 Q1686.14 196.849 1686.14 203.238 Q1686.14 209.604 1682.97 213.238 Q1679.8 216.849 1674.25 216.849 Q1668.67 216.849 1665.5 213.238 Q1662.35 209.604 1662.35 203.238 Q1662.35 196.849 1665.5 193.238 Q1668.67 189.627 1674.25 189.627 Z" fill="#000000" fill-rule="nonzero" fill-opacity="1" /><path clip-path="url(#clip620)" d="M1714.76 200.529 L1714.76 216.178 L1710.5 216.178 L1710.5 200.668 Q1710.5 196.988 1709.06 195.159 Q1707.63 193.33 1704.76 193.33 Q1701.31 193.33 1699.32 195.53 Q1697.33 197.729 1697.33 201.525 L1697.33 216.178 L1693.04 216.178 L1693.04 190.252 L1697.33 190.252 L1697.33 194.28 Q1698.85 191.942 1700.91 190.784 Q1703 189.627 1705.7 189.627 Q1710.17 189.627 1712.46 192.405 Q1714.76 195.159 1714.76 200.529 Z" fill="#000000" fill-rule="nonzero" fill-opacity="1" /><path clip-path="url(#clip620)" d="M1733.3 193.238 Q1729.87 193.238 1727.88 195.923 Q1725.89 198.585 1725.89 203.238 Q1725.89 207.891 1727.86 210.576 Q1729.85 213.238 1733.3 213.238 Q1736.7 213.238 1738.69 210.553 Q1740.68 207.867 1740.68 203.238 Q1740.68 198.631 1738.69 195.946 Q1736.7 193.238 1733.3 193.238 M1733.3 189.627 Q1738.85 189.627 1742.02 193.238 Q1745.2 196.849 1745.2 203.238 Q1745.2 209.604 1742.02 213.238 Q1738.85 216.849 1733.3 216.849 Q1727.72 216.849 1724.55 213.238 Q1721.4 209.604 1721.4 203.238 Q1721.4 196.849 1724.55 193.238 Q1727.72 189.627 1733.3 189.627 Z" fill="#000000" fill-rule="nonzero" fill-opacity="1" /><path clip-path="url(#clip620)" d="M1749.2 190.252 L1753.71 190.252 L1761.82 212.011 L1769.92 190.252 L1774.43 190.252 L1764.71 216.178 L1758.92 216.178 L1749.2 190.252 Z" fill="#000000" fill-rule="nonzero" fill-opacity="1" /><path clip-path="url(#clip620)" d="M1802.49 202.15 L1802.49 204.233 L1782.9 204.233 Q1783.18 208.631 1785.54 210.946 Q1787.93 213.238 1792.16 213.238 Q1794.62 213.238 1796.91 212.636 Q1799.22 212.034 1801.49 210.83 L1801.49 214.858 Q1799.2 215.83 1796.79 216.34 Q1794.38 216.849 1791.91 216.849 Q1785.7 216.849 1782.07 213.238 Q1778.46 209.627 1778.46 203.469 Q1778.46 197.104 1781.88 193.377 Q1785.33 189.627 1791.17 189.627 Q1796.4 189.627 1799.43 193.006 Q1802.49 196.363 1802.49 202.15 M1798.23 200.9 Q1798.18 197.405 1796.26 195.321 Q1794.36 193.238 1791.21 193.238 Q1787.65 193.238 1785.5 195.252 Q1783.37 197.266 1783.04 200.923 L1798.23 200.9 Z" fill="#000000" fill-rule="nonzero" fill-opacity="1" /><path clip-path="url(#clip620)" d="M1826.54 202.914 Q1826.54 198.284 1824.62 195.738 Q1822.72 193.192 1819.27 193.192 Q1815.84 193.192 1813.92 195.738 Q1812.02 198.284 1812.02 202.914 Q1812.02 207.52 1813.92 210.066 Q1815.84 212.613 1819.27 212.613 Q1822.72 212.613 1824.62 210.066 Q1826.54 207.52 1826.54 202.914 M1830.8 212.96 Q1830.8 219.58 1827.86 222.798 Q1824.92 226.039 1818.85 226.039 Q1816.61 226.039 1814.62 225.691 Q1812.63 225.367 1810.75 224.673 L1810.75 220.529 Q1812.63 221.548 1814.45 222.034 Q1816.28 222.52 1818.18 222.52 Q1822.37 222.52 1824.45 220.321 Q1826.54 218.145 1826.54 213.724 L1826.54 211.617 Q1825.22 213.909 1823.16 215.043 Q1821.1 216.178 1818.23 216.178 Q1813.46 216.178 1810.54 212.543 Q1807.63 208.909 1807.63 202.914 Q1807.63 196.895 1810.54 193.261 Q1813.46 189.627 1818.23 189.627 Q1821.1 189.627 1823.16 190.761 Q1825.22 191.895 1826.54 194.187 L1826.54 190.252 L1830.8 190.252 L1830.8 212.96 Z" fill="#000000" fill-rule="nonzero" fill-opacity="1" /><path clip-path="url(#clip620)" d="M1851.35 203.145 Q1846.19 203.145 1844.2 204.326 Q1842.21 205.506 1842.21 208.354 Q1842.21 210.622 1843.69 211.965 Q1845.19 213.284 1847.76 213.284 Q1851.31 213.284 1853.44 210.784 Q1855.59 208.261 1855.59 204.094 L1855.59 203.145 L1851.35 203.145 M1859.85 201.386 L1859.85 216.178 L1855.59 216.178 L1855.59 212.242 Q1854.13 214.603 1851.95 215.738 Q1849.78 216.849 1846.63 216.849 Q1842.65 216.849 1840.29 214.627 Q1837.95 212.381 1837.95 208.631 Q1837.95 204.256 1840.87 202.034 Q1843.81 199.812 1849.62 199.812 L1855.59 199.812 L1855.59 199.395 Q1855.59 196.455 1853.64 194.858 Q1851.72 193.238 1848.23 193.238 Q1846 193.238 1843.9 193.77 Q1841.79 194.303 1839.85 195.367 L1839.85 191.432 Q1842.19 190.53 1844.38 190.09 Q1846.58 189.627 1848.67 189.627 Q1854.29 189.627 1857.07 192.543 Q1859.85 195.46 1859.85 201.386 Z" fill="#000000" fill-rule="nonzero" fill-opacity="1" /><path clip-path="url(#clip620)" d="M1887.81 212.289 L1887.81 226.039 L1883.53 226.039 L1883.53 190.252 L1887.81 190.252 L1887.81 194.187 Q1889.15 191.872 1891.19 190.761 Q1893.25 189.627 1896.1 189.627 Q1900.82 189.627 1903.76 193.377 Q1906.72 197.127 1906.72 203.238 Q1906.72 209.349 1903.76 213.099 Q1900.82 216.849 1896.1 216.849 Q1893.25 216.849 1891.19 215.738 Q1889.15 214.603 1887.81 212.289 M1902.3 203.238 Q1902.3 198.539 1900.36 195.877 Q1898.44 193.192 1895.06 193.192 Q1891.68 193.192 1889.73 195.877 Q1887.81 198.539 1887.81 203.238 Q1887.81 207.937 1889.73 210.622 Q1891.68 213.284 1895.06 213.284 Q1898.44 213.284 1900.36 210.622 Q1902.3 207.937 1902.3 203.238 Z" fill="#000000" fill-rule="nonzero" fill-opacity="1" /><path clip-path="url(#clip620)" d="M1928.81 194.233 Q1928.09 193.817 1927.23 193.631 Q1926.4 193.423 1925.38 193.423 Q1921.77 193.423 1919.82 195.784 Q1917.9 198.122 1917.9 202.52 L1917.9 216.178 L1913.62 216.178 L1913.62 190.252 L1917.9 190.252 L1917.9 194.28 Q1919.25 191.918 1921.4 190.784 Q1923.55 189.627 1926.63 189.627 Q1927.07 189.627 1927.6 189.696 Q1928.13 189.743 1928.78 189.858 L1928.81 194.233 Z" fill="#000000" fill-rule="nonzero" fill-opacity="1" /><path clip-path="url(#clip620)" d="M1945.06 203.145 Q1939.89 203.145 1937.9 204.326 Q1935.91 205.506 1935.91 208.354 Q1935.91 210.622 1937.39 211.965 Q1938.9 213.284 1941.47 213.284 Q1945.01 213.284 1947.14 210.784 Q1949.29 208.261 1949.29 204.094 L1949.29 203.145 L1945.06 203.145 M1953.55 201.386 L1953.55 216.178 L1949.29 216.178 L1949.29 212.242 Q1947.83 214.603 1945.66 215.738 Q1943.48 216.849 1940.33 216.849 Q1936.35 216.849 1933.99 214.627 Q1931.65 212.381 1931.65 208.631 Q1931.65 204.256 1934.57 202.034 Q1937.51 199.812 1943.32 199.812 L1949.29 199.812 L1949.29 199.395 Q1949.29 196.455 1947.35 194.858 Q1945.43 193.238 1941.93 193.238 Q1939.71 193.238 1937.6 193.77 Q1935.5 194.303 1933.55 195.367 L1933.55 191.432 Q1935.89 190.53 1938.09 190.09 Q1940.29 189.627 1942.37 189.627 Q1948 189.627 1950.77 192.543 Q1953.55 195.46 1953.55 201.386 Z" fill="#000000" fill-rule="nonzero" fill-opacity="1" /><path clip-path="url(#clip620)" d="M1959.27 190.252 L1963.78 190.252 L1971.88 212.011 L1979.99 190.252 L1984.5 190.252 L1974.78 216.178 L1968.99 216.178 L1959.27 190.252 Z" fill="#000000" fill-rule="nonzero" fill-opacity="1" /><path clip-path="url(#clip620)" d="M1990.38 190.252 L1994.64 190.252 L1994.64 216.178 L1990.38 216.178 L1990.38 190.252 M1990.38 180.159 L1994.64 180.159 L1994.64 185.553 L1990.38 185.553 L1990.38 180.159 Z" fill="#000000" fill-rule="nonzero" fill-opacity="1" /><path clip-path="url(#clip620)" d="M2003.55 180.159 L2007.81 180.159 L2007.81 216.178 L2003.55 216.178 L2003.55 180.159 Z" fill="#000000" fill-rule="nonzero" fill-opacity="1" /><path clip-path="url(#clip620)" d="M2028.5 203.145 Q2023.34 203.145 2021.35 204.326 Q2019.36 205.506 2019.36 208.354 Q2019.36 210.622 2020.84 211.965 Q2022.35 213.284 2024.92 213.284 Q2028.46 213.284 2030.59 210.784 Q2032.74 208.261 2032.74 204.094 L2032.74 203.145 L2028.5 203.145 M2037 201.386 L2037 216.178 L2032.74 216.178 L2032.74 212.242 Q2031.28 214.603 2029.11 215.738 Q2026.93 216.849 2023.78 216.849 Q2019.8 216.849 2017.44 214.627 Q2015.1 212.381 2015.1 208.631 Q2015.1 204.256 2018.02 202.034 Q2020.96 199.812 2026.77 199.812 L2032.74 199.812 L2032.74 199.395 Q2032.74 196.455 2030.8 194.858 Q2028.87 193.238 2025.38 193.238 Q2023.16 193.238 2021.05 193.77 Q2018.94 194.303 2017 195.367 L2017 191.432 Q2019.34 190.53 2021.54 190.09 Q2023.74 189.627 2025.82 189.627 Q2031.44 189.627 2034.22 192.543 Q2037 195.46 2037 201.386 Z" fill="#000000" fill-rule="nonzero" fill-opacity="1" /><circle clip-path="url(#clip620)" cx="1235.88" cy="250.738" r="20.48" fill="#3da44d" fill-rule="evenodd" fill-opacity="1" stroke="#000000" stroke-opacity="1" stroke-width="4.55111"/>
<path clip-path="url(#clip620)" d="M1352.54 252.369 L1352.54 268.018 L1348.28 268.018 L1348.28 252.508 Q1348.28 248.828 1346.84 246.999 Q1345.41 245.17 1342.54 245.17 Q1339.09 245.17 1337.1 247.37 Q1335.1 249.569 1335.1 253.365 L1335.1 268.018 L1330.82 268.018 L1330.82 242.092 L1335.1 242.092 L1335.1 246.12 Q1336.63 243.782 1338.69 242.624 Q1340.78 241.467 1343.48 241.467 Q1347.95 241.467 1350.24 244.245 Q1352.54 246.999 1352.54 252.369 Z" fill="#000000" fill-rule="nonzero" fill-opacity="1" /><path clip-path="url(#clip620)" d="M1372.81 254.985 Q1367.65 254.985 1365.66 256.166 Q1363.67 257.346 1363.67 260.194 Q1363.67 262.462 1365.15 263.805 Q1366.66 265.124 1369.23 265.124 Q1372.77 265.124 1374.9 262.624 Q1377.05 260.101 1377.05 255.934 L1377.05 254.985 L1372.81 254.985 M1381.31 253.226 L1381.31 268.018 L1377.05 268.018 L1377.05 264.082 Q1375.59 266.443 1373.41 267.578 Q1371.24 268.689 1368.09 268.689 Q1364.11 268.689 1361.75 266.467 Q1359.41 264.221 1359.41 260.471 Q1359.41 256.096 1362.33 253.874 Q1365.27 251.652 1371.08 251.652 L1377.05 251.652 L1377.05 251.235 Q1377.05 248.295 1375.1 246.698 Q1373.18 245.078 1369.69 245.078 Q1367.47 245.078 1365.36 245.61 Q1363.25 246.143 1361.31 247.207 L1361.31 243.272 Q1363.65 242.37 1365.85 241.93 Q1368.04 241.467 1370.13 241.467 Q1375.75 241.467 1378.53 244.383 Q1381.31 247.3 1381.31 253.226 Z" fill="#000000" fill-rule="nonzero" fill-opacity="1" /><path clip-path="url(#clip620)" d="M1394.2 264.129 L1394.2 277.879 L1389.92 277.879 L1389.92 242.092 L1394.2 242.092 L1394.2 246.027 Q1395.54 243.712 1397.58 242.601 Q1399.64 241.467 1402.49 241.467 Q1407.21 241.467 1410.15 245.217 Q1413.11 248.967 1413.11 255.078 Q1413.11 261.189 1410.15 264.939 Q1407.21 268.689 1402.49 268.689 Q1399.64 268.689 1397.58 267.578 Q1395.54 266.443 1394.2 264.129 M1408.69 255.078 Q1408.69 250.379 1406.75 247.717 Q1404.83 245.032 1401.45 245.032 Q1398.07 245.032 1396.12 247.717 Q1394.2 250.379 1394.2 255.078 Q1394.2 259.777 1396.12 262.462 Q1398.07 265.124 1401.45 265.124 Q1404.83 265.124 1406.75 262.462 Q1408.69 259.777 1408.69 255.078 Z" fill="#000000" fill-rule="nonzero" fill-opacity="1" /><path clip-path="url(#clip620)" d="M1431.96 254.985 Q1426.79 254.985 1424.8 256.166 Q1422.81 257.346 1422.81 260.194 Q1422.81 262.462 1424.29 263.805 Q1425.8 265.124 1428.37 265.124 Q1431.91 265.124 1434.04 262.624 Q1436.19 260.101 1436.19 255.934 L1436.19 254.985 L1431.96 254.985 M1440.45 253.226 L1440.45 268.018 L1436.19 268.018 L1436.19 264.082 Q1434.73 266.443 1432.56 267.578 Q1430.38 268.689 1427.23 268.689 Q1423.25 268.689 1420.89 266.467 Q1418.55 264.221 1418.55 260.471 Q1418.55 256.096 1421.47 253.874 Q1424.41 251.652 1430.22 251.652 L1436.19 251.652 L1436.19 251.235 Q1436.19 248.295 1434.25 246.698 Q1432.33 245.078 1428.83 245.078 Q1426.61 245.078 1424.5 245.61 Q1422.4 246.143 1420.45 247.207 L1420.45 243.272 Q1422.79 242.37 1424.99 241.93 Q1427.19 241.467 1429.27 241.467 Q1434.9 241.467 1437.67 244.383 Q1440.45 247.3 1440.45 253.226 Z" fill="#000000" fill-rule="nonzero" fill-opacity="1" /><path clip-path="url(#clip620)" d="M1449.06 231.999 L1453.35 231.999 L1453.35 253.272 L1466.05 242.092 L1471.49 242.092 L1457.74 254.221 L1472.07 268.018 L1466.52 268.018 L1453.35 255.356 L1453.35 268.018 L1449.06 268.018 L1449.06 231.999 Z" fill="#000000" fill-rule="nonzero" fill-opacity="1" /><path clip-path="url(#clip620)" d="M1487.63 254.985 Q1482.47 254.985 1480.47 256.166 Q1478.48 257.346 1478.48 260.194 Q1478.48 262.462 1479.97 263.805 Q1481.47 265.124 1484.04 265.124 Q1487.58 265.124 1489.71 262.624 Q1491.86 260.101 1491.86 255.934 L1491.86 254.985 L1487.63 254.985 M1496.12 253.226 L1496.12 268.018 L1491.86 268.018 L1491.86 264.082 Q1490.41 266.443 1488.23 267.578 Q1486.05 268.689 1482.91 268.689 Q1478.92 268.689 1476.56 266.467 Q1474.22 264.221 1474.22 260.471 Q1474.22 256.096 1477.14 253.874 Q1480.08 251.652 1485.89 251.652 L1491.86 251.652 L1491.86 251.235 Q1491.86 248.295 1489.92 246.698 Q1488 245.078 1484.5 245.078 Q1482.28 245.078 1480.17 245.61 Q1478.07 246.143 1476.12 247.207 L1476.12 243.272 Q1478.46 242.37 1480.66 241.93 Q1482.86 241.467 1484.94 241.467 Q1490.57 241.467 1493.34 244.383 Q1496.12 247.3 1496.12 253.226 Z" fill="#000000" fill-rule="nonzero" fill-opacity="1" /><path clip-path="url(#clip620)" d="M1543.71 263.087 L1543.71 253.805 L1536.08 253.805 L1536.08 249.962 L1548.34 249.962 L1548.34 264.8 Q1545.64 266.721 1542.37 267.717 Q1539.11 268.689 1535.4 268.689 Q1527.3 268.689 1522.72 263.967 Q1518.16 259.221 1518.16 250.772 Q1518.16 242.3 1522.72 237.578 Q1527.3 232.833 1535.4 232.833 Q1538.78 232.833 1541.82 233.666 Q1544.87 234.499 1547.44 236.12 L1547.44 241.096 Q1544.85 238.897 1541.93 237.786 Q1539.02 236.675 1535.8 236.675 Q1529.46 236.675 1526.26 240.217 Q1523.09 243.758 1523.09 250.772 Q1523.09 257.763 1526.26 261.305 Q1529.46 264.846 1535.8 264.846 Q1538.28 264.846 1540.22 264.43 Q1542.16 263.99 1543.71 263.087 Z" fill="#000000" fill-rule="nonzero" fill-opacity="1" /><path clip-path="url(#clip620)" d="M1568.48 254.985 Q1563.32 254.985 1561.33 256.166 Q1559.34 257.346 1559.34 260.194 Q1559.34 262.462 1560.82 263.805 Q1562.33 265.124 1564.9 265.124 Q1568.44 265.124 1570.57 262.624 Q1572.72 260.101 1572.72 255.934 L1572.72 254.985 L1568.48 254.985 M1576.98 253.226 L1576.98 268.018 L1572.72 268.018 L1572.72 264.082 Q1571.26 266.443 1569.09 267.578 Q1566.91 268.689 1563.76 268.689 Q1559.78 268.689 1557.42 266.467 Q1555.08 264.221 1555.08 260.471 Q1555.08 256.096 1558 253.874 Q1560.94 251.652 1566.75 251.652 L1572.72 251.652 L1572.72 251.235 Q1572.72 248.295 1570.77 246.698 Q1568.85 245.078 1565.36 245.078 Q1563.14 245.078 1561.03 245.61 Q1558.92 246.143 1556.98 247.207 L1556.98 243.272 Q1559.32 242.37 1561.52 241.93 Q1563.71 241.467 1565.8 241.467 Q1571.42 241.467 1574.2 244.383 Q1576.98 247.3 1576.98 253.226 Z" fill="#000000" fill-rule="nonzero" fill-opacity="1" /><path clip-path="url(#clip620)" d="M1585.31 257.786 L1585.31 242.092 L1589.57 242.092 L1589.57 257.624 Q1589.57 261.305 1591.01 263.156 Q1592.44 264.985 1595.31 264.985 Q1598.76 264.985 1600.75 262.786 Q1602.77 260.587 1602.77 256.791 L1602.77 242.092 L1607.02 242.092 L1607.02 268.018 L1602.77 268.018 L1602.77 264.036 Q1601.21 266.397 1599.15 267.555 Q1597.12 268.689 1594.41 268.689 Q1589.94 268.689 1587.63 265.911 Q1585.31 263.133 1585.31 257.786 M1596.03 241.467 L1596.03 241.467 Z" fill="#000000" fill-rule="nonzero" fill-opacity="1" /><path clip-path="url(#clip620)" d="M1632.33 242.856 L1632.33 246.883 Q1630.52 245.957 1628.58 245.495 Q1626.63 245.032 1624.55 245.032 Q1621.38 245.032 1619.78 246.004 Q1618.21 246.976 1618.21 248.92 Q1618.21 250.402 1619.34 251.258 Q1620.47 252.092 1623.9 252.856 L1625.36 253.18 Q1629.9 254.152 1631.79 255.934 Q1633.71 257.694 1633.71 260.865 Q1633.71 264.476 1630.84 266.582 Q1628 268.689 1623 268.689 Q1620.91 268.689 1618.65 268.272 Q1616.4 267.879 1613.9 267.068 L1613.9 262.67 Q1616.26 263.897 1618.55 264.522 Q1620.84 265.124 1623.09 265.124 Q1626.1 265.124 1627.72 264.106 Q1629.34 263.064 1629.34 261.189 Q1629.34 259.453 1628.16 258.527 Q1627 257.601 1623.04 256.744 L1621.56 256.397 Q1617.6 255.564 1615.84 253.851 Q1614.08 252.115 1614.08 249.106 Q1614.08 245.448 1616.68 243.458 Q1619.27 241.467 1624.04 241.467 Q1626.4 241.467 1628.48 241.814 Q1630.57 242.161 1632.33 242.856 Z" fill="#000000" fill-rule="nonzero" fill-opacity="1" /><path clip-path="url(#clip620)" d="M1657.02 242.856 L1657.02 246.883 Q1655.22 245.957 1653.27 245.495 Q1651.33 245.032 1649.25 245.032 Q1646.08 245.032 1644.48 246.004 Q1642.9 246.976 1642.9 248.92 Q1642.9 250.402 1644.04 251.258 Q1645.17 252.092 1648.6 252.856 L1650.06 253.18 Q1654.59 254.152 1656.49 255.934 Q1658.41 257.694 1658.41 260.865 Q1658.41 264.476 1655.54 266.582 Q1652.7 268.689 1647.7 268.689 Q1645.61 268.689 1643.34 268.272 Q1641.1 267.879 1638.6 267.068 L1638.6 262.67 Q1640.96 263.897 1643.25 264.522 Q1645.54 265.124 1647.79 265.124 Q1650.8 265.124 1652.42 264.106 Q1654.04 263.064 1654.04 261.189 Q1654.04 259.453 1652.86 258.527 Q1651.7 257.601 1647.74 256.744 L1646.26 256.397 Q1642.3 255.564 1640.54 253.851 Q1638.78 252.115 1638.78 249.106 Q1638.78 245.448 1641.38 243.458 Q1643.97 241.467 1648.74 241.467 Q1651.1 241.467 1653.18 241.814 Q1655.27 242.161 1657.02 242.856 Z" fill="#000000" fill-rule="nonzero" fill-opacity="1" /><path clip-path="url(#clip620)" d="M1663.04 253.133 L1675.52 253.133 L1675.52 256.93 L1663.04 256.93 L1663.04 253.133 Z" fill="#000000" fill-rule="nonzero" fill-opacity="1" /><path clip-path="url(#clip620)" d="M1682.49 233.458 L1687.16 233.458 L1687.16 264.082 L1703.99 264.082 L1703.99 268.018 L1682.49 268.018 L1682.49 233.458 Z" fill="#000000" fill-rule="nonzero" fill-opacity="1" /><path clip-path="url(#clip620)" d="M1730.06 253.99 L1730.06 256.073 L1710.47 256.073 Q1710.75 260.471 1713.11 262.786 Q1715.5 265.078 1719.73 265.078 Q1722.19 265.078 1724.48 264.476 Q1726.79 263.874 1729.06 262.67 L1729.06 266.698 Q1726.77 267.67 1724.36 268.18 Q1721.95 268.689 1719.48 268.689 Q1713.27 268.689 1709.64 265.078 Q1706.03 261.467 1706.03 255.309 Q1706.03 248.944 1709.45 245.217 Q1712.9 241.467 1718.74 241.467 Q1723.97 241.467 1727 244.846 Q1730.06 248.203 1730.06 253.99 M1725.8 252.74 Q1725.75 249.245 1723.83 247.161 Q1721.93 245.078 1718.78 245.078 Q1715.22 245.078 1713.07 247.092 Q1710.94 249.106 1710.61 252.763 L1725.8 252.74 Z" fill="#000000" fill-rule="nonzero" fill-opacity="1" /><path clip-path="url(#clip620)" d="M1754.11 254.754 Q1754.11 250.124 1752.19 247.578 Q1750.29 245.032 1746.84 245.032 Q1743.41 245.032 1741.49 247.578 Q1739.59 250.124 1739.59 254.754 Q1739.59 259.36 1741.49 261.906 Q1743.41 264.453 1746.84 264.453 Q1750.29 264.453 1752.19 261.906 Q1754.11 259.36 1754.11 254.754 M1758.37 264.8 Q1758.37 271.42 1755.43 274.638 Q1752.49 277.879 1746.42 277.879 Q1744.18 277.879 1742.19 277.531 Q1740.2 277.207 1738.32 276.513 L1738.32 272.369 Q1740.2 273.388 1742.02 273.874 Q1743.85 274.36 1745.75 274.36 Q1749.94 274.36 1752.02 272.161 Q1754.11 269.985 1754.11 265.564 L1754.11 263.457 Q1752.79 265.749 1750.73 266.883 Q1748.67 268.018 1745.8 268.018 Q1741.03 268.018 1738.11 264.383 Q1735.2 260.749 1735.2 254.754 Q1735.2 248.735 1738.11 245.101 Q1741.03 241.467 1745.8 241.467 Q1748.67 241.467 1750.73 242.601 Q1752.79 243.735 1754.11 246.027 L1754.11 242.092 L1758.37 242.092 L1758.37 264.8 Z" fill="#000000" fill-rule="nonzero" fill-opacity="1" /><path clip-path="url(#clip620)" d="M1789.32 253.99 L1789.32 256.073 L1769.73 256.073 Q1770.01 260.471 1772.37 262.786 Q1774.76 265.078 1778.99 265.078 Q1781.45 265.078 1783.74 264.476 Q1786.05 263.874 1788.32 262.67 L1788.32 266.698 Q1786.03 267.67 1783.62 268.18 Q1781.21 268.689 1778.74 268.689 Q1772.53 268.689 1768.9 265.078 Q1765.29 261.467 1765.29 255.309 Q1765.29 248.944 1768.71 245.217 Q1772.16 241.467 1778 241.467 Q1783.23 241.467 1786.26 244.846 Q1789.32 248.203 1789.32 253.99 M1785.06 252.74 Q1785.01 249.245 1783.09 247.161 Q1781.19 245.078 1778.04 245.078 Q1774.48 245.078 1772.32 247.092 Q1770.2 249.106 1769.87 252.763 L1785.06 252.74 Z" fill="#000000" fill-rule="nonzero" fill-opacity="1" /><path clip-path="url(#clip620)" d="M1817.86 252.369 L1817.86 268.018 L1813.6 268.018 L1813.6 252.508 Q1813.6 248.828 1812.16 246.999 Q1810.73 245.17 1807.86 245.17 Q1804.41 245.17 1802.42 247.37 Q1800.43 249.569 1800.43 253.365 L1800.43 268.018 L1796.14 268.018 L1796.14 242.092 L1800.43 242.092 L1800.43 246.12 Q1801.95 243.782 1804.01 242.624 Q1806.1 241.467 1808.81 241.467 Q1813.27 241.467 1815.57 244.245 Q1817.86 246.999 1817.86 252.369 Z" fill="#000000" fill-rule="nonzero" fill-opacity="1" /><path clip-path="url(#clip620)" d="M1843.41 246.027 L1843.41 231.999 L1847.67 231.999 L1847.67 268.018 L1843.41 268.018 L1843.41 264.129 Q1842.07 266.443 1840.01 267.578 Q1837.97 268.689 1835.1 268.689 Q1830.4 268.689 1827.44 264.939 Q1824.5 261.189 1824.5 255.078 Q1824.5 248.967 1827.44 245.217 Q1830.4 241.467 1835.1 241.467 Q1837.97 241.467 1840.01 242.601 Q1842.07 243.712 1843.41 246.027 M1828.9 255.078 Q1828.9 259.777 1830.82 262.462 Q1832.76 265.124 1836.14 265.124 Q1839.52 265.124 1841.47 262.462 Q1843.41 259.777 1843.41 255.078 Q1843.41 250.379 1841.47 247.717 Q1839.52 245.032 1836.14 245.032 Q1832.76 245.032 1830.82 247.717 Q1828.9 250.379 1828.9 255.078 Z" fill="#000000" fill-rule="nonzero" fill-opacity="1" /><path clip-path="url(#clip620)" d="M1871.47 246.073 Q1870.75 245.657 1869.89 245.471 Q1869.06 245.263 1868.04 245.263 Q1864.43 245.263 1862.49 247.624 Q1860.57 249.962 1860.57 254.36 L1860.57 268.018 L1856.28 268.018 L1856.28 242.092 L1860.57 242.092 L1860.57 246.12 Q1861.91 243.758 1864.06 242.624 Q1866.21 241.467 1869.29 241.467 Q1869.73 241.467 1870.26 241.536 Q1870.8 241.583 1871.44 241.698 L1871.47 246.073 Z" fill="#000000" fill-rule="nonzero" fill-opacity="1" /><path clip-path="url(#clip620)" d="M1897.07 253.99 L1897.07 256.073 L1877.49 256.073 Q1877.76 260.471 1880.13 262.786 Q1882.51 265.078 1886.75 265.078 Q1889.2 265.078 1891.49 264.476 Q1893.81 263.874 1896.07 262.67 L1896.07 266.698 Q1893.78 267.67 1891.38 268.18 Q1888.97 268.689 1886.49 268.689 Q1880.29 268.689 1876.65 265.078 Q1873.04 261.467 1873.04 255.309 Q1873.04 248.944 1876.47 245.217 Q1879.92 241.467 1885.75 241.467 Q1890.98 241.467 1894.01 244.846 Q1897.07 248.203 1897.07 253.99 M1892.81 252.74 Q1892.76 249.245 1890.84 247.161 Q1888.94 245.078 1885.8 245.078 Q1882.23 245.078 1880.08 247.092 Q1877.95 249.106 1877.63 252.763 L1892.81 252.74 Z" fill="#000000" fill-rule="nonzero" fill-opacity="1" /><path clip-path="url(#clip620)" d="M1914.11 245.078 Q1910.68 245.078 1908.69 247.763 Q1906.7 250.425 1906.7 255.078 Q1906.7 259.731 1908.67 262.416 Q1910.66 265.078 1914.11 265.078 Q1917.51 265.078 1919.5 262.393 Q1921.49 259.707 1921.49 255.078 Q1921.49 250.471 1919.5 247.786 Q1917.51 245.078 1914.11 245.078 M1914.11 241.467 Q1919.66 241.467 1922.83 245.078 Q1926 248.689 1926 255.078 Q1926 261.444 1922.83 265.078 Q1919.66 268.689 1914.11 268.689 Q1908.53 268.689 1905.36 265.078 Q1902.21 261.444 1902.21 255.078 Q1902.21 248.689 1905.36 245.078 Q1908.53 241.467 1914.11 241.467 Z" fill="#000000" fill-rule="nonzero" fill-opacity="1" /><path clip-path="url(#clip620)" d="M1930.01 242.092 L1934.52 242.092 L1942.62 263.851 L1950.73 242.092 L1955.24 242.092 L1945.52 268.018 L1939.73 268.018 L1930.01 242.092 Z" fill="#000000" fill-rule="nonzero" fill-opacity="1" /><path clip-path="url(#clip620)" d="M1983.3 253.99 L1983.3 256.073 L1963.71 256.073 Q1963.99 260.471 1966.35 262.786 Q1968.74 265.078 1972.97 265.078 Q1975.43 265.078 1977.72 264.476 Q1980.03 263.874 1982.3 262.67 L1982.3 266.698 Q1980.01 267.67 1977.6 268.18 Q1975.19 268.689 1972.72 268.689 Q1966.51 268.689 1962.88 265.078 Q1959.27 261.467 1959.27 255.309 Q1959.27 248.944 1962.69 245.217 Q1966.14 241.467 1971.98 241.467 Q1977.21 241.467 1980.24 244.846 Q1983.3 248.203 1983.3 253.99 M1979.04 252.74 Q1978.99 249.245 1977.07 247.161 Q1975.17 245.078 1972.02 245.078 Q1968.46 245.078 1966.31 247.092 Q1964.18 249.106 1963.85 252.763 L1979.04 252.74 Z" fill="#000000" fill-rule="nonzero" fill-opacity="1" /><path clip-path="url(#clip620)" d="M2005.19 231.999 L2009.48 231.999 L2009.48 253.272 L2022.18 242.092 L2027.62 242.092 L2013.87 254.221 L2028.2 268.018 L2022.65 268.018 L2009.48 255.356 L2009.48 268.018 L2005.19 268.018 L2005.19 231.999 Z" fill="#000000" fill-rule="nonzero" fill-opacity="1" /><path clip-path="url(#clip620)" d="M2029.75 242.092 L2034.27 242.092 L2042.37 263.851 L2050.47 242.092 L2054.99 242.092 L2045.26 268.018 L2039.48 268.018 L2029.75 242.092 Z" fill="#000000" fill-rule="nonzero" fill-opacity="1" /><path clip-path="url(#clip620)" d="M2072.65 254.985 Q2067.49 254.985 2065.49 256.166 Q2063.5 257.346 2063.5 260.194 Q2063.5 262.462 2064.99 263.805 Q2066.49 265.124 2069.06 265.124 Q2072.6 265.124 2074.73 262.624 Q2076.88 260.101 2076.88 255.934 L2076.88 254.985 L2072.65 254.985 M2081.14 253.226 L2081.14 268.018 L2076.88 268.018 L2076.88 264.082 Q2075.43 266.443 2073.25 267.578 Q2071.07 268.689 2067.93 268.689 Q2063.94 268.689 2061.58 266.467 Q2059.24 264.221 2059.24 260.471 Q2059.24 256.096 2062.16 253.874 Q2065.1 251.652 2070.91 251.652 L2076.88 251.652 L2076.88 251.235 Q2076.88 248.295 2074.94 246.698 Q2073.02 245.078 2069.52 245.078 Q2067.3 245.078 2065.19 245.61 Q2063.09 246.143 2061.14 247.207 L2061.14 243.272 Q2063.48 242.37 2065.68 241.93 Q2067.88 241.467 2069.96 241.467 Q2075.59 241.467 2078.36 244.383 Q2081.14 247.3 2081.14 253.226 Z" fill="#000000" fill-rule="nonzero" fill-opacity="1" /><path clip-path="url(#clip620)" d="M2106.98 246.027 L2106.98 231.999 L2111.24 231.999 L2111.24 268.018 L2106.98 268.018 L2106.98 264.129 Q2105.63 266.443 2103.57 267.578 Q2101.54 268.689 2098.67 268.689 Q2093.97 268.689 2091 264.939 Q2088.06 261.189 2088.06 255.078 Q2088.06 248.967 2091 245.217 Q2093.97 241.467 2098.67 241.467 Q2101.54 241.467 2103.57 242.601 Q2105.63 243.712 2106.98 246.027 M2092.46 255.078 Q2092.46 259.777 2094.38 262.462 Q2096.33 265.124 2099.71 265.124 Q2103.09 265.124 2105.03 262.462 Q2106.98 259.777 2106.98 255.078 Q2106.98 250.379 2105.03 247.717 Q2103.09 245.032 2099.71 245.032 Q2096.33 245.032 2094.38 247.717 Q2092.46 250.379 2092.46 255.078 Z" fill="#000000" fill-rule="nonzero" fill-opacity="1" /><path clip-path="url(#clip620)" d="M2135.03 246.073 Q2134.31 245.657 2133.46 245.471 Q2132.62 245.263 2131.61 245.263 Q2127.99 245.263 2126.05 247.624 Q2124.13 249.962 2124.13 254.36 L2124.13 268.018 L2119.85 268.018 L2119.85 242.092 L2124.13 242.092 L2124.13 246.12 Q2125.47 243.758 2127.62 242.624 Q2129.78 241.467 2132.86 241.467 Q2133.3 241.467 2133.83 241.536 Q2134.36 241.583 2135.01 241.698 L2135.03 246.073 Z" fill="#000000" fill-rule="nonzero" fill-opacity="1" /><path clip-path="url(#clip620)" d="M2151.28 254.985 Q2146.12 254.985 2144.13 256.166 Q2142.14 257.346 2142.14 260.194 Q2142.14 262.462 2143.62 263.805 Q2145.12 265.124 2147.69 265.124 Q2151.23 265.124 2153.36 262.624 Q2155.52 260.101 2155.52 255.934 L2155.52 254.985 L2151.28 254.985 M2159.78 253.226 L2159.78 268.018 L2155.52 268.018 L2155.52 264.082 Q2154.06 266.443 2151.88 267.578 Q2149.71 268.689 2146.56 268.689 Q2142.58 268.689 2140.22 266.467 Q2137.88 264.221 2137.88 260.471 Q2137.88 256.096 2140.8 253.874 Q2143.73 251.652 2149.55 251.652 L2155.52 251.652 L2155.52 251.235 Q2155.52 248.295 2153.57 246.698 Q2151.65 245.078 2148.16 245.078 Q2145.93 245.078 2143.83 245.61 Q2141.72 246.143 2139.78 247.207 L2139.78 243.272 Q2142.11 242.37 2144.31 241.93 Q2146.51 241.467 2148.6 241.467 Q2154.22 241.467 2157 244.383 Q2159.78 247.3 2159.78 253.226 Z" fill="#000000" fill-rule="nonzero" fill-opacity="1" /><path clip-path="url(#clip620)" d="M2172.76 234.731 L2172.76 242.092 L2181.54 242.092 L2181.54 245.402 L2172.76 245.402 L2172.76 259.476 Q2172.76 262.647 2173.62 263.55 Q2174.5 264.453 2177.16 264.453 L2181.54 264.453 L2181.54 268.018 L2177.16 268.018 Q2172.23 268.018 2170.36 266.189 Q2168.48 264.337 2168.48 259.476 L2168.48 245.402 L2165.36 245.402 L2165.36 242.092 L2168.48 242.092 L2168.48 234.731 L2172.76 234.731 Z" fill="#000000" fill-rule="nonzero" fill-opacity="1" /><path clip-path="url(#clip620)" d="M2186.7 257.786 L2186.7 242.092 L2190.96 242.092 L2190.96 257.624 Q2190.96 261.305 2192.39 263.156 Q2193.83 264.985 2196.7 264.985 Q2200.15 264.985 2202.14 262.786 Q2204.15 260.587 2204.15 256.791 L2204.15 242.092 L2208.41 242.092 L2208.41 268.018 L2204.15 268.018 L2204.15 264.036 Q2202.6 266.397 2200.54 267.555 Q2198.5 268.689 2195.79 268.689 Q2191.33 268.689 2189.01 265.911 Q2186.7 263.133 2186.7 257.786 M2197.42 241.467 L2197.42 241.467 Z" fill="#000000" fill-rule="nonzero" fill-opacity="1" /><path clip-path="url(#clip620)" d="M2232.21 246.073 Q2231.49 245.657 2230.63 245.471 Q2229.8 245.263 2228.78 245.263 Q2225.17 245.263 2223.23 247.624 Q2221.3 249.962 2221.3 254.36 L2221.3 268.018 L2217.02 268.018 L2217.02 242.092 L2221.3 242.092 L2221.3 246.12 Q2222.65 243.758 2224.8 242.624 Q2226.95 241.467 2230.03 241.467 Q2230.47 241.467 2231 241.536 Q2231.54 241.583 2232.18 241.698 L2232.21 246.073 Z" fill="#000000" fill-rule="nonzero" fill-opacity="1" /><path clip-path="url(#clip620)" d="M2257.81 253.99 L2257.81 256.073 L2238.23 256.073 Q2238.5 260.471 2240.86 262.786 Q2243.25 265.078 2247.48 265.078 Q2249.94 265.078 2252.23 264.476 Q2254.54 263.874 2256.81 262.67 L2256.81 266.698 Q2254.52 267.67 2252.11 268.18 Q2249.71 268.689 2247.23 268.689 Q2241.03 268.689 2237.39 265.078 Q2233.78 261.467 2233.78 255.309 Q2233.78 248.944 2237.21 245.217 Q2240.66 241.467 2246.49 241.467 Q2251.72 241.467 2254.75 244.846 Q2257.81 248.203 2257.81 253.99 M2253.55 252.74 Q2253.5 249.245 2251.58 247.161 Q2249.68 245.078 2246.54 245.078 Q2242.97 245.078 2240.82 247.092 Q2238.69 249.106 2238.36 252.763 L2253.55 252.74 Z" fill="#000000" fill-rule="nonzero" fill-opacity="1" /></svg>
