<?xml version="1.0" encoding="utf-8"?>
<svg xmlns="http://www.w3.org/2000/svg" xmlns:xlink="http://www.w3.org/1999/xlink" width="600" height="400" viewBox="0 0 2400 1600">
<defs>
  <clipPath id="clip140">
    <rect x="0" y="0" width="2400" height="1600"/>
  </clipPath>
</defs>
<path clip-path="url(#clip140)" d="M0 1600 L2400 1600 L2400 0 L0 0  Z" fill="#ffffff" fill-rule="evenodd" fill-opacity="1"/>
<defs>
  <clipPath id="clip141">
    <rect x="480" y="0" width="1681" height="1600"/>
  </clipPath>
</defs>
<path clip-path="url(#clip140)" d="M276.876 1410.9 L2352.76 1410.9 L2352.76 47.2441 L276.876 47.2441  Z" fill="#ffffff" fill-rule="evenodd" fill-opacity="1"/>
<defs>
  <clipPath id="clip142">
    <rect x="276" y="47" width="2077" height="1365"/>
  </clipPath>
</defs>
<polyline clip-path="url(#clip142)" style="stroke:#000000; stroke-linecap:round; stroke-linejoin:round; stroke-width:2; stroke-opacity:0.1; fill:none" points="696.898,1410.9 696.898,47.2441 "/>
<polyline clip-path="url(#clip142)" style="stroke:#000000; stroke-linecap:round; stroke-linejoin:round; stroke-width:2; stroke-opacity:0.1; fill:none" points="1387.82,1410.9 1387.82,47.2441 "/>
<polyline clip-path="url(#clip142)" style="stroke:#000000; stroke-linecap:round; stroke-linejoin:round; stroke-width:2; stroke-opacity:0.1; fill:none" points="2078.75,1410.9 2078.75,47.2441 "/>
<polyline clip-path="url(#clip142)" style="stroke:#000000; stroke-linecap:round; stroke-linejoin:round; stroke-width:2; stroke-opacity:0.1; fill:none" points="276.876,84.3111 2352.76,84.3111 "/>
<polyline clip-path="url(#clip142)" style="stroke:#000000; stroke-linecap:round; stroke-linejoin:round; stroke-width:2; stroke-opacity:0.1; fill:none" points="276.876,495.716 2352.76,495.716 "/>
<polyline clip-path="url(#clip142)" style="stroke:#000000; stroke-linecap:round; stroke-linejoin:round; stroke-width:2; stroke-opacity:0.1; fill:none" points="276.876,907.122 2352.76,907.122 "/>
<polyline clip-path="url(#clip142)" style="stroke:#000000; stroke-linecap:round; stroke-linejoin:round; stroke-width:2; stroke-opacity:0.1; fill:none" points="276.876,1318.53 2352.76,1318.53 "/>
<polyline clip-path="url(#clip140)" style="stroke:#000000; stroke-linecap:round; stroke-linejoin:round; stroke-width:4; stroke-opacity:1; fill:none" points="276.876,1410.9 2352.76,1410.9 "/>
<polyline clip-path="url(#clip140)" style="stroke:#000000; stroke-linecap:round; stroke-linejoin:round; stroke-width:4; stroke-opacity:1; fill:none" points="696.898,1410.9 696.898,1392 "/>
<polyline clip-path="url(#clip140)" style="stroke:#000000; stroke-linecap:round; stroke-linejoin:round; stroke-width:4; stroke-opacity:1; fill:none" points="1387.82,1410.9 1387.82,1392 "/>
<polyline clip-path="url(#clip140)" style="stroke:#000000; stroke-linecap:round; stroke-linejoin:round; stroke-width:4; stroke-opacity:1; fill:none" points="2078.75,1410.9 2078.75,1392 "/>
<path clip-path="url(#clip140)" d="M663.225 1485.02 L670.864 1485.02 L670.864 1458.66 L662.554 1460.32 L662.554 1456.06 L670.818 1454.4 L675.494 1454.4 L675.494 1485.02 L683.133 1485.02 L683.133 1488.96 L663.225 1488.96 L663.225 1485.02 Z" fill="#000000" fill-rule="nonzero" fill-opacity="1" /><path clip-path="url(#clip140)" d="M702.577 1457.48 Q698.966 1457.48 697.137 1461.04 Q695.332 1464.58 695.332 1471.71 Q695.332 1478.82 697.137 1482.38 Q698.966 1485.92 702.577 1485.92 Q706.211 1485.92 708.017 1482.38 Q709.846 1478.82 709.846 1471.71 Q709.846 1464.58 708.017 1461.04 Q706.211 1457.48 702.577 1457.48 M702.577 1453.77 Q708.387 1453.77 711.443 1458.38 Q714.521 1462.96 714.521 1471.71 Q714.521 1480.44 711.443 1485.04 Q708.387 1489.63 702.577 1489.63 Q696.767 1489.63 693.688 1485.04 Q690.633 1480.44 690.633 1471.71 Q690.633 1462.96 693.688 1458.38 Q696.767 1453.77 702.577 1453.77 Z" fill="#000000" fill-rule="nonzero" fill-opacity="1" /><path clip-path="url(#clip140)" d="M715.067 1458.35 L721.273 1458.35 L721.273 1436.93 L714.521 1438.28 L714.521 1434.82 L721.236 1433.47 L725.035 1433.47 L725.035 1458.35 L731.242 1458.35 L731.242 1461.55 L715.067 1461.55 L715.067 1458.35 Z" fill="#000000" fill-rule="nonzero" fill-opacity="1" /><path clip-path="url(#clip140)" d="M1353.6 1485.02 L1361.24 1485.02 L1361.24 1458.66 L1352.93 1460.32 L1352.93 1456.06 L1361.19 1454.4 L1365.87 1454.4 L1365.87 1485.02 L1373.5 1485.02 L1373.5 1488.96 L1353.6 1488.96 L1353.6 1485.02 Z" fill="#000000" fill-rule="nonzero" fill-opacity="1" /><path clip-path="url(#clip140)" d="M1392.95 1457.48 Q1389.34 1457.48 1387.51 1461.04 Q1385.7 1464.58 1385.7 1471.71 Q1385.7 1478.82 1387.51 1482.38 Q1389.34 1485.92 1392.95 1485.92 Q1396.58 1485.92 1398.39 1482.38 Q1400.22 1478.82 1400.22 1471.71 Q1400.22 1464.58 1398.39 1461.04 Q1396.58 1457.48 1392.95 1457.48 M1392.95 1453.77 Q1398.76 1453.77 1401.81 1458.38 Q1404.89 1462.96 1404.89 1471.71 Q1404.89 1480.44 1401.81 1485.04 Q1398.76 1489.63 1392.95 1489.63 Q1387.14 1489.63 1384.06 1485.04 Q1381 1480.44 1381 1471.71 Q1381 1462.96 1384.06 1458.38 Q1387.14 1453.77 1392.95 1453.77 Z" fill="#000000" fill-rule="nonzero" fill-opacity="1" /><path clip-path="url(#clip140)" d="M1409.46 1458.35 L1422.72 1458.35 L1422.72 1461.55 L1404.89 1461.55 L1404.89 1458.35 Q1407.06 1456.11 1410.78 1452.35 Q1414.52 1448.57 1415.48 1447.48 Q1417.31 1445.43 1418.02 1444.02 Q1418.75 1442.59 1418.75 1441.22 Q1418.75 1438.98 1417.18 1437.57 Q1415.61 1436.16 1413.09 1436.16 Q1411.31 1436.16 1409.31 1436.78 Q1407.34 1437.4 1405.08 1438.66 L1405.08 1434.82 Q1407.38 1433.9 1409.37 1433.43 Q1411.36 1432.96 1413.02 1432.96 Q1417.38 1432.96 1419.98 1435.14 Q1422.57 1437.32 1422.57 1440.97 Q1422.57 1442.7 1421.91 1444.26 Q1421.28 1445.8 1419.56 1447.91 Q1419.09 1448.46 1416.57 1451.07 Q1414.05 1453.67 1409.46 1458.35 Z" fill="#000000" fill-rule="nonzero" fill-opacity="1" /><path clip-path="url(#clip140)" d="M2044.2 1485.02 L2051.83 1485.02 L2051.83 1458.66 L2043.52 1460.32 L2043.52 1456.06 L2051.79 1454.4 L2056.46 1454.4 L2056.46 1485.02 L2064.1 1485.02 L2064.1 1488.96 L2044.2 1488.96 L2044.2 1485.02 Z" fill="#000000" fill-rule="nonzero" fill-opacity="1" /><path clip-path="url(#clip140)" d="M2083.55 1457.48 Q2079.94 1457.48 2078.11 1461.04 Q2076.3 1464.58 2076.3 1471.71 Q2076.3 1478.82 2078.11 1482.38 Q2079.94 1485.92 2083.55 1485.92 Q2087.18 1485.92 2088.99 1482.38 Q2090.82 1478.82 2090.82 1471.71 Q2090.82 1464.58 2088.99 1461.04 Q2087.18 1457.48 2083.55 1457.48 M2083.55 1453.77 Q2089.36 1453.77 2092.41 1458.38 Q2095.49 1462.96 2095.49 1471.71 Q2095.49 1480.44 2092.41 1485.04 Q2089.36 1489.63 2083.55 1489.63 Q2077.74 1489.63 2074.66 1485.04 Q2071.6 1480.44 2071.6 1471.71 Q2071.6 1462.96 2074.66 1458.38 Q2077.74 1453.77 2083.55 1453.77 Z" fill="#000000" fill-rule="nonzero" fill-opacity="1" /><path clip-path="url(#clip140)" d="M2108.19 1446.41 Q2110.91 1446.99 2112.44 1448.83 Q2113.98 1450.68 2113.98 1453.38 Q2113.98 1457.54 2111.12 1459.82 Q2108.26 1462.09 2103 1462.09 Q2101.23 1462.09 2099.35 1461.73 Q2097.49 1461.4 2095.49 1460.7 L2095.49 1457.03 Q2097.07 1457.95 2098.95 1458.42 Q2100.83 1458.89 2102.88 1458.89 Q2106.46 1458.89 2108.32 1457.48 Q2110.2 1456.07 2110.2 1453.38 Q2110.2 1450.9 2108.45 1449.51 Q2106.72 1448.1 2103.62 1448.1 L2100.34 1448.1 L2100.34 1444.98 L2103.77 1444.98 Q2106.57 1444.98 2108.06 1443.87 Q2109.54 1442.74 2109.54 1440.63 Q2109.54 1438.47 2108 1437.32 Q2106.48 1436.16 2103.62 1436.16 Q2102.06 1436.16 2100.27 1436.49 Q2098.48 1436.83 2096.34 1437.55 L2096.34 1434.16 Q2098.5 1433.56 2100.38 1433.26 Q2102.28 1432.96 2103.95 1432.96 Q2108.28 1432.96 2110.8 1434.93 Q2113.32 1436.89 2113.32 1440.24 Q2113.32 1442.57 2111.99 1444.19 Q2110.65 1445.79 2108.19 1446.41 Z" fill="#000000" fill-rule="nonzero" fill-opacity="1" /><path clip-path="url(#clip140)" d="M883.762 1539.59 L883.762 1545.13 Q881.279 1543.85 878.606 1543.22 Q875.932 1542.58 873.067 1542.58 Q868.707 1542.58 866.511 1543.92 Q864.346 1545.25 864.346 1547.93 Q864.346 1549.96 865.906 1551.14 Q867.466 1552.29 872.176 1553.34 L874.181 1553.78 Q880.42 1555.12 883.03 1557.57 Q885.672 1559.99 885.672 1564.35 Q885.672 1569.32 881.725 1572.21 Q877.81 1575.11 870.935 1575.11 Q868.07 1575.11 864.951 1574.54 Q861.864 1573.99 858.426 1572.88 L858.426 1566.83 Q861.673 1568.52 864.824 1569.38 Q867.975 1570.21 871.062 1570.21 Q875.2 1570.21 877.428 1568.81 Q879.656 1567.37 879.656 1564.8 Q879.656 1562.41 878.033 1561.14 Q876.441 1559.86 870.999 1558.68 L868.962 1558.21 Q863.519 1557.06 861.1 1554.71 Q858.681 1552.32 858.681 1548.18 Q858.681 1543.15 862.246 1540.42 Q865.811 1537.68 872.367 1537.68 Q875.614 1537.68 878.478 1538.16 Q881.343 1538.63 883.762 1539.59 M870.203 1534.02 L862.405 1522.05 L866.829 1522.05 L872.558 1529.85 L878.287 1522.05 L882.712 1522.05 L874.914 1534.02 L870.203 1534.02 M872.431 1537.68 L872.431 1537.68 Z" fill="#000000" fill-rule="nonzero" fill-opacity="1" /><path clip-path="url(#clip140)" d="M900.79 1528.42 L900.79 1538.54 L912.853 1538.54 L912.853 1543.09 L900.79 1543.09 L900.79 1562.44 Q900.79 1566.8 901.968 1568.04 Q903.177 1569.28 906.838 1569.28 L912.853 1569.28 L912.853 1574.19 L906.838 1574.19 Q900.058 1574.19 897.48 1571.67 Q894.902 1569.12 894.902 1562.44 L894.902 1543.09 L890.605 1543.09 L890.605 1538.54 L894.902 1538.54 L894.902 1528.42 L900.79 1528.42 Z" fill="#000000" fill-rule="nonzero" fill-opacity="1" /><path clip-path="url(#clip140)" d="M951.047 1554.9 L951.047 1557.76 L924.12 1557.76 Q924.502 1563.81 927.749 1566.99 Q931.027 1570.14 936.852 1570.14 Q940.226 1570.14 943.377 1569.32 Q946.56 1568.49 949.679 1566.83 L949.679 1572.37 Q946.528 1573.71 943.218 1574.41 Q939.907 1575.11 936.502 1575.11 Q927.972 1575.11 922.975 1570.14 Q918.009 1565.18 918.009 1556.71 Q918.009 1547.96 922.72 1542.83 Q927.462 1537.68 935.483 1537.68 Q942.676 1537.68 946.846 1542.33 Q951.047 1546.94 951.047 1554.9 M945.191 1553.18 Q945.127 1548.37 942.486 1545.51 Q939.876 1542.64 935.547 1542.64 Q930.645 1542.64 927.685 1545.41 Q924.757 1548.18 924.311 1553.21 L945.191 1553.18 Z" fill="#000000" fill-rule="nonzero" fill-opacity="1" /><path clip-path="url(#clip140)" d="M956.458 1538.54 L962.665 1538.54 L973.805 1568.46 L984.945 1538.54 L991.151 1538.54 L977.783 1574.19 L969.826 1574.19 L956.458 1538.54 Z" fill="#000000" fill-rule="nonzero" fill-opacity="1" /><path clip-path="url(#clip140)" d="M999.236 1538.54 L1005.09 1538.54 L1005.09 1574.19 L999.236 1574.19 L999.236 1538.54 M999.236 1524.66 L1005.09 1524.66 L1005.09 1532.08 L999.236 1532.08 L999.236 1524.66 Z" fill="#000000" fill-rule="nonzero" fill-opacity="1" /><path clip-path="url(#clip140)" d="M1017.35 1524.66 L1023.2 1524.66 L1023.2 1574.19 L1017.35 1574.19 L1017.35 1524.66 Z" fill="#000000" fill-rule="nonzero" fill-opacity="1" /><path clip-path="url(#clip140)" d="M1049.27 1542.64 Q1044.56 1542.64 1041.82 1546.34 Q1039.09 1550 1039.09 1556.39 Q1039.09 1562.79 1041.79 1566.48 Q1044.53 1570.14 1049.27 1570.14 Q1053.95 1570.14 1056.69 1566.45 Q1059.42 1562.76 1059.42 1556.39 Q1059.42 1550.06 1056.69 1546.37 Q1053.95 1542.64 1049.27 1542.64 M1049.27 1537.68 Q1056.91 1537.68 1061.27 1542.64 Q1065.63 1547.61 1065.63 1556.39 Q1065.63 1565.15 1061.27 1570.14 Q1056.91 1575.11 1049.27 1575.11 Q1041.6 1575.11 1037.24 1570.14 Q1032.91 1565.15 1032.91 1556.39 Q1032.91 1547.61 1037.24 1542.64 Q1041.6 1537.68 1049.27 1537.68 Z" fill="#000000" fill-rule="nonzero" fill-opacity="1" /><path clip-path="url(#clip140)" d="M1114.1 1524.66 L1114.1 1529.53 L1108.5 1529.53 Q1105.35 1529.53 1104.11 1530.8 Q1102.9 1532.08 1102.9 1535.39 L1102.9 1538.54 L1112.55 1538.54 L1112.55 1543.09 L1102.9 1543.09 L1102.9 1574.19 L1097.01 1574.19 L1097.01 1543.09 L1091.41 1543.09 L1091.41 1538.54 L1097.01 1538.54 L1097.01 1536.05 Q1097.01 1530.1 1099.78 1527.4 Q1102.55 1524.66 1108.57 1524.66 L1114.1 1524.66 Z" fill="#000000" fill-rule="nonzero" fill-opacity="1" /><path clip-path="url(#clip140)" d="M1118.4 1560.12 L1118.4 1538.54 L1124.26 1538.54 L1124.26 1559.89 Q1124.26 1564.96 1126.23 1567.5 Q1128.21 1570.02 1132.15 1570.02 Q1136.89 1570.02 1139.63 1566.99 Q1142.4 1563.97 1142.4 1558.75 L1142.4 1538.54 L1148.26 1538.54 L1148.26 1574.19 L1142.4 1574.19 L1142.4 1568.71 Q1140.27 1571.96 1137.44 1573.55 Q1134.63 1575.11 1130.91 1575.11 Q1124.77 1575.11 1121.58 1571.29 Q1118.4 1567.47 1118.4 1560.12 M1133.14 1537.68 L1133.14 1537.68 Z" fill="#000000" fill-rule="nonzero" fill-opacity="1" /><path clip-path="url(#clip140)" d="M1189.95 1552.67 L1189.95 1574.19 L1184.1 1574.19 L1184.1 1552.86 Q1184.1 1547.8 1182.12 1545.29 Q1180.15 1542.77 1176.2 1542.77 Q1171.46 1542.77 1168.72 1545.79 Q1165.99 1548.82 1165.99 1554.04 L1165.99 1574.19 L1160.1 1574.19 L1160.1 1538.54 L1165.99 1538.54 L1165.99 1544.08 Q1168.09 1540.86 1170.92 1539.27 Q1173.78 1537.68 1177.51 1537.68 Q1183.65 1537.68 1186.8 1541.5 Q1189.95 1545.29 1189.95 1552.67 Z" fill="#000000" fill-rule="nonzero" fill-opacity="1" /><path clip-path="url(#clip140)" d="M1201.41 1524.66 L1207.3 1524.66 L1207.3 1553.91 L1224.77 1538.54 L1232.25 1538.54 L1213.35 1555.22 L1233.05 1574.19 L1225.41 1574.19 L1207.3 1556.78 L1207.3 1574.19 L1201.41 1574.19 L1201.41 1524.66 Z" fill="#000000" fill-rule="nonzero" fill-opacity="1" /><path clip-path="url(#clip140)" d="M1265.04 1539.91 L1265.04 1545.38 Q1262.55 1544.01 1260.04 1543.34 Q1257.56 1542.64 1255.01 1542.64 Q1249.31 1542.64 1246.16 1546.27 Q1243.01 1549.87 1243.01 1556.39 Q1243.01 1562.92 1246.16 1566.55 Q1249.31 1570.14 1255.01 1570.14 Q1257.56 1570.14 1260.04 1569.47 Q1262.55 1568.77 1265.04 1567.41 L1265.04 1572.82 Q1262.59 1573.96 1259.94 1574.54 Q1257.33 1575.11 1254.37 1575.11 Q1246.32 1575.11 1241.58 1570.05 Q1236.84 1564.99 1236.84 1556.39 Q1236.84 1547.67 1241.61 1542.68 Q1246.42 1537.68 1254.76 1537.68 Q1257.46 1537.68 1260.04 1538.25 Q1262.62 1538.79 1265.04 1539.91 Z" fill="#000000" fill-rule="nonzero" fill-opacity="1" /><path clip-path="url(#clip140)" d="M1275.22 1538.54 L1281.08 1538.54 L1281.08 1574.19 L1275.22 1574.19 L1275.22 1538.54 M1275.22 1524.66 L1281.08 1524.66 L1281.08 1532.08 L1275.22 1532.08 L1275.22 1524.66 Z" fill="#000000" fill-rule="nonzero" fill-opacity="1" /><path clip-path="url(#clip140)" d="M1293.33 1538.54 L1299.19 1538.54 L1299.19 1574.82 Q1299.19 1581.63 1296.58 1584.69 Q1294 1587.74 1288.24 1587.74 L1286.01 1587.74 L1286.01 1582.78 L1287.57 1582.78 Q1290.91 1582.78 1292.12 1581.22 Q1293.33 1579.69 1293.33 1574.82 L1293.33 1538.54 M1293.33 1524.66 L1299.19 1524.66 L1299.19 1532.08 L1293.33 1532.08 L1293.33 1524.66 Z" fill="#000000" fill-rule="nonzero" fill-opacity="1" /><path clip-path="url(#clip140)" d="M1334.17 1539.59 L1334.17 1545.13 Q1331.68 1543.85 1329.01 1543.22 Q1326.34 1542.58 1323.47 1542.58 Q1319.11 1542.58 1316.92 1543.92 Q1314.75 1545.25 1314.75 1547.93 Q1314.75 1549.96 1316.31 1551.14 Q1317.87 1552.29 1322.58 1553.34 L1324.59 1553.78 Q1330.83 1555.12 1333.44 1557.57 Q1336.08 1559.99 1336.08 1564.35 Q1336.08 1569.32 1332.13 1572.21 Q1328.22 1575.11 1321.34 1575.11 Q1318.48 1575.11 1315.36 1574.54 Q1312.27 1573.99 1308.83 1572.88 L1308.83 1566.83 Q1312.08 1568.52 1315.23 1569.38 Q1318.38 1570.21 1321.47 1570.21 Q1325.61 1570.21 1327.83 1568.81 Q1330.06 1567.37 1330.06 1564.8 Q1330.06 1562.41 1328.44 1561.14 Q1326.85 1559.86 1321.4 1558.68 L1319.37 1558.21 Q1313.92 1557.06 1311.51 1554.71 Q1309.09 1552.32 1309.09 1548.18 Q1309.09 1543.15 1312.65 1540.42 Q1316.22 1537.68 1322.77 1537.68 Q1326.02 1537.68 1328.88 1538.16 Q1331.75 1538.63 1334.17 1539.59 Z" fill="#000000" fill-rule="nonzero" fill-opacity="1" /><path clip-path="url(#clip140)" d="M1345.18 1524.66 L1351.07 1524.66 L1351.07 1553.91 L1368.54 1538.54 L1376.02 1538.54 L1357.12 1555.22 L1376.82 1574.19 L1369.18 1574.19 L1351.07 1556.78 L1351.07 1574.19 L1345.18 1574.19 L1345.18 1524.66 Z" fill="#000000" fill-rule="nonzero" fill-opacity="1" /><path clip-path="url(#clip140)" d="M1383.15 1538.54 L1389.01 1538.54 L1389.01 1574.19 L1383.15 1574.19 L1383.15 1538.54 M1383.15 1524.66 L1389.01 1524.66 L1389.01 1532.08 L1383.15 1532.08 L1383.15 1524.66 Z" fill="#000000" fill-rule="nonzero" fill-opacity="1" /><path clip-path="url(#clip140)" d="M1430.89 1552.67 L1430.89 1574.19 L1425.04 1574.19 L1425.04 1552.86 Q1425.04 1547.8 1423.06 1545.29 Q1421.09 1542.77 1417.14 1542.77 Q1412.4 1542.77 1409.66 1545.79 Q1406.93 1548.82 1406.93 1554.04 L1406.93 1574.19 L1401.04 1574.19 L1401.04 1524.66 L1406.93 1524.66 L1406.93 1544.08 Q1409.03 1540.86 1411.86 1539.27 Q1414.73 1537.68 1418.45 1537.68 Q1424.59 1537.68 1427.74 1541.5 Q1430.89 1545.29 1430.89 1552.67 Z" fill="#000000" fill-rule="nonzero" fill-opacity="1" /><path clip-path="url(#clip140)" d="M1463.3 1538.54 L1469.15 1538.54 L1469.15 1574.19 L1463.3 1574.19 L1463.3 1538.54 M1463.3 1524.66 L1469.15 1524.66 L1469.15 1532.08 L1463.3 1532.08 L1463.3 1524.66 Z" fill="#000000" fill-rule="nonzero" fill-opacity="1" /><path clip-path="url(#clip140)" d="M1478.86 1538.54 L1506.68 1538.54 L1506.68 1543.88 L1484.65 1569.51 L1506.68 1569.51 L1506.68 1574.19 L1478.06 1574.19 L1478.06 1568.84 L1500.09 1543.22 L1478.86 1543.22 L1478.86 1538.54 Z" fill="#000000" fill-rule="nonzero" fill-opacity="1" /><path clip-path="url(#clip140)" d="M1536.28 1544.01 Q1535.29 1543.44 1534.11 1543.18 Q1532.97 1542.9 1531.57 1542.9 Q1526.6 1542.9 1523.93 1546.14 Q1521.29 1549.36 1521.29 1555.41 L1521.29 1574.19 L1515.4 1574.19 L1515.4 1538.54 L1521.29 1538.54 L1521.29 1544.08 Q1523.13 1540.83 1526.09 1539.27 Q1529.05 1537.68 1533.29 1537.68 Q1533.89 1537.68 1534.62 1537.77 Q1535.36 1537.84 1536.25 1538 L1536.28 1544.01 Z" fill="#000000" fill-rule="nonzero" fill-opacity="1" /><path clip-path="url(#clip140)" d="M1558.62 1556.27 Q1551.52 1556.27 1548.79 1557.89 Q1546.05 1559.51 1546.05 1563.43 Q1546.05 1566.55 1548.09 1568.39 Q1550.16 1570.21 1553.69 1570.21 Q1558.56 1570.21 1561.49 1566.77 Q1564.45 1563.3 1564.45 1557.57 L1564.45 1556.27 L1558.62 1556.27 M1570.3 1553.85 L1570.3 1574.19 L1564.45 1574.19 L1564.45 1568.77 Q1562.44 1572.02 1559.45 1573.58 Q1556.46 1575.11 1552.13 1575.11 Q1546.65 1575.11 1543.41 1572.05 Q1540.19 1568.97 1540.19 1563.81 Q1540.19 1557.79 1544.2 1554.74 Q1548.25 1551.68 1556.24 1551.68 L1564.45 1551.68 L1564.45 1551.11 Q1564.45 1547.07 1561.77 1544.87 Q1559.13 1542.64 1554.33 1542.64 Q1551.27 1542.64 1548.37 1543.38 Q1545.48 1544.11 1542.8 1545.57 L1542.8 1540.16 Q1546.02 1538.92 1549.04 1538.31 Q1552.07 1537.68 1554.93 1537.68 Q1562.66 1537.68 1566.48 1541.69 Q1570.3 1545.7 1570.3 1553.85 Z" fill="#000000" fill-rule="nonzero" fill-opacity="1" /><path clip-path="url(#clip140)" d="M1608.02 1539.91 L1608.02 1545.38 Q1605.54 1544.01 1603.02 1543.34 Q1600.54 1542.64 1597.99 1542.64 Q1592.3 1542.64 1589.15 1546.27 Q1585.99 1549.87 1585.99 1556.39 Q1585.99 1562.92 1589.15 1566.55 Q1592.3 1570.14 1597.99 1570.14 Q1600.54 1570.14 1603.02 1569.47 Q1605.54 1568.77 1608.02 1567.41 L1608.02 1572.82 Q1605.57 1573.96 1602.93 1574.54 Q1600.32 1575.11 1597.36 1575.11 Q1589.3 1575.11 1584.56 1570.05 Q1579.82 1564.99 1579.82 1556.39 Q1579.82 1547.67 1584.59 1542.68 Q1589.4 1537.68 1597.74 1537.68 Q1600.44 1537.68 1603.02 1538.25 Q1605.6 1538.79 1608.02 1539.91 M1594.52 1534.02 L1586.73 1522.05 L1591.15 1522.05 L1596.88 1529.85 L1602.61 1522.05 L1607.03 1522.05 L1599.24 1534.02 L1594.52 1534.02 Z" fill="#000000" fill-rule="nonzero" fill-opacity="1" /><path clip-path="url(#clip140)" d="M1617.6 1560.12 L1617.6 1538.54 L1623.46 1538.54 L1623.46 1559.89 Q1623.46 1564.96 1625.43 1567.5 Q1627.4 1570.02 1631.35 1570.02 Q1636.09 1570.02 1638.83 1566.99 Q1641.6 1563.97 1641.6 1558.75 L1641.6 1538.54 L1647.46 1538.54 L1647.46 1574.19 L1641.6 1574.19 L1641.6 1568.71 Q1639.47 1571.96 1636.63 1573.55 Q1633.83 1575.11 1630.11 1575.11 Q1623.97 1575.11 1620.78 1571.29 Q1617.6 1567.47 1617.6 1560.12 M1632.34 1537.68 L1632.34 1537.68 Z" fill="#000000" fill-rule="nonzero" fill-opacity="1" /><path clip-path="url(#clip140)" d="M1689.15 1552.67 L1689.15 1574.19 L1683.29 1574.19 L1683.29 1552.86 Q1683.29 1547.8 1681.32 1545.29 Q1679.35 1542.77 1675.4 1542.77 Q1670.66 1542.77 1667.92 1545.79 Q1665.18 1548.82 1665.18 1554.04 L1665.18 1574.19 L1659.3 1574.19 L1659.3 1538.54 L1665.18 1538.54 L1665.18 1544.08 Q1667.28 1540.86 1670.12 1539.27 Q1672.98 1537.68 1676.71 1537.68 Q1682.85 1537.68 1686 1541.5 Q1689.15 1545.29 1689.15 1552.67 Z" fill="#000000" fill-rule="nonzero" fill-opacity="1" /><path clip-path="url(#clip140)" d="M1714.65 1542.64 Q1709.94 1542.64 1707.2 1546.34 Q1704.46 1550 1704.46 1556.39 Q1704.46 1562.79 1707.17 1566.48 Q1709.9 1570.14 1714.65 1570.14 Q1719.32 1570.14 1722.06 1566.45 Q1724.8 1562.76 1724.8 1556.39 Q1724.8 1550.06 1722.06 1546.37 Q1719.32 1542.64 1714.65 1542.64 M1714.65 1537.68 Q1722.28 1537.68 1726.65 1542.64 Q1731.01 1547.61 1731.01 1556.39 Q1731.01 1565.15 1726.65 1570.14 Q1722.28 1575.11 1714.65 1575.11 Q1706.98 1575.11 1702.61 1570.14 Q1698.29 1565.15 1698.29 1556.39 Q1698.29 1547.61 1702.61 1542.64 Q1706.98 1537.68 1714.65 1537.68 Z" fill="#000000" fill-rule="nonzero" fill-opacity="1" /><path clip-path="url(#clip140)" d="M1736.51 1538.54 L1742.72 1538.54 L1753.86 1568.46 L1765 1538.54 L1771.21 1538.54 L1757.84 1574.19 L1749.88 1574.19 L1736.51 1538.54 Z" fill="#000000" fill-rule="nonzero" fill-opacity="1" /><polyline clip-path="url(#clip140)" style="stroke:#000000; stroke-linecap:round; stroke-linejoin:round; stroke-width:4; stroke-opacity:1; fill:none" points="276.876,1410.9 276.876,47.2441 "/>
<polyline clip-path="url(#clip140)" style="stroke:#000000; stroke-linecap:round; stroke-linejoin:round; stroke-width:4; stroke-opacity:1; fill:none" points="276.876,84.3111 295.773,84.3111 "/>
<polyline clip-path="url(#clip140)" style="stroke:#000000; stroke-linecap:round; stroke-linejoin:round; stroke-width:4; stroke-opacity:1; fill:none" points="276.876,495.716 295.773,495.716 "/>
<polyline clip-path="url(#clip140)" style="stroke:#000000; stroke-linecap:round; stroke-linejoin:round; stroke-width:4; stroke-opacity:1; fill:none" points="276.876,907.122 295.773,907.122 "/>
<polyline clip-path="url(#clip140)" style="stroke:#000000; stroke-linecap:round; stroke-linejoin:round; stroke-width:4; stroke-opacity:1; fill:none" points="276.876,1318.53 295.773,1318.53 "/>
<path clip-path="url(#clip140)" d="M170.17 104.104 L177.809 104.104 L177.809 77.7379 L169.499 79.4046 L169.499 75.1454 L177.762 73.4787 L182.438 73.4787 L182.438 104.104 L190.077 104.104 L190.077 108.039 L170.17 108.039 L170.17 104.104 Z" fill="#000000" fill-rule="nonzero" fill-opacity="1" /><path clip-path="url(#clip140)" d="M209.522 76.5574 Q205.91 76.5574 204.082 80.1222 Q202.276 83.6638 202.276 90.7934 Q202.276 97.8999 204.082 101.465 Q205.91 105.006 209.522 105.006 Q213.156 105.006 214.961 101.465 Q216.79 97.8999 216.79 90.7934 Q216.79 83.6638 214.961 80.1222 Q213.156 76.5574 209.522 76.5574 M209.522 72.8537 Q215.332 72.8537 218.387 77.4602 Q221.466 82.0435 221.466 90.7934 Q221.466 99.5202 218.387 104.127 Q215.332 108.71 209.522 108.71 Q203.711 108.71 200.633 104.127 Q197.577 99.5202 197.577 90.7934 Q197.577 82.0435 200.633 77.4602 Q203.711 72.8537 209.522 72.8537 Z" fill="#000000" fill-rule="nonzero" fill-opacity="1" /><path clip-path="url(#clip140)" d="M231.171 55.0497 Q228.237 55.0497 226.751 57.9461 Q225.284 60.8237 225.284 66.6165 Q225.284 72.3905 226.751 75.2869 Q228.237 78.1645 231.171 78.1645 Q234.124 78.1645 235.591 75.2869 Q237.076 72.3905 237.076 66.6165 Q237.076 60.8237 235.591 57.9461 Q234.124 55.0497 231.171 55.0497 M231.171 52.0405 Q235.891 52.0405 238.374 55.7832 Q240.876 59.5072 240.876 66.6165 Q240.876 73.707 238.374 77.4498 Q235.891 81.1737 231.171 81.1737 Q226.45 81.1737 223.949 77.4498 Q221.466 73.707 221.466 66.6165 Q221.466 59.5072 223.949 55.7832 Q226.45 52.0405 231.171 52.0405 Z" fill="#000000" fill-rule="nonzero" fill-opacity="1" /><path clip-path="url(#clip140)" d="M140.247 515.509 L147.886 515.509 L147.886 489.143 L139.575 490.81 L139.575 486.551 L147.839 484.884 L152.515 484.884 L152.515 515.509 L160.154 515.509 L160.154 519.444 L140.247 519.444 L140.247 515.509 Z" fill="#000000" fill-rule="nonzero" fill-opacity="1" /><path clip-path="url(#clip140)" d="M179.598 487.963 Q175.987 487.963 174.159 491.528 Q172.353 495.069 172.353 502.199 Q172.353 509.305 174.159 512.87 Q175.987 516.412 179.598 516.412 Q183.233 516.412 185.038 512.87 Q186.867 509.305 186.867 502.199 Q186.867 495.069 185.038 491.528 Q183.233 487.963 179.598 487.963 M179.598 484.259 Q185.409 484.259 188.464 488.865 Q191.543 493.449 191.543 502.199 Q191.543 510.926 188.464 515.532 Q185.409 520.115 179.598 520.115 Q173.788 520.115 170.71 515.532 Q167.654 510.926 167.654 502.199 Q167.654 493.449 170.71 488.865 Q173.788 484.259 179.598 484.259 Z" fill="#000000" fill-rule="nonzero" fill-opacity="1" /><path clip-path="url(#clip140)" d="M191.543 478.36 L215.654 478.36 L215.654 481.558 L191.543 481.558 L191.543 478.36 Z" fill="#000000" fill-rule="nonzero" fill-opacity="1" /><path clip-path="url(#clip140)" d="M223.892 463.954 L238.807 463.954 L238.807 467.151 L227.372 467.151 L227.372 474.035 Q228.199 473.752 229.027 473.621 Q229.854 473.47 230.682 473.47 Q235.384 473.47 238.13 476.047 Q240.876 478.624 240.876 483.025 Q240.876 487.557 238.054 490.078 Q235.233 492.579 230.099 492.579 Q228.331 492.579 226.488 492.278 Q224.663 491.977 222.707 491.375 L222.707 487.557 Q224.4 488.479 226.205 488.93 Q228.011 489.382 230.023 489.382 Q233.277 489.382 235.177 487.67 Q237.076 485.959 237.076 483.025 Q237.076 480.091 235.177 478.379 Q233.277 476.668 230.023 476.668 Q228.5 476.668 226.977 477.006 Q225.472 477.345 223.892 478.059 L223.892 463.954 Z" fill="#000000" fill-rule="nonzero" fill-opacity="1" /><path clip-path="url(#clip140)" d="M114.931 926.914 L122.57 926.914 L122.57 900.549 L114.26 902.215 L114.26 897.956 L122.524 896.289 L127.2 896.289 L127.2 926.914 L134.839 926.914 L134.839 930.849 L114.931 930.849 L114.931 926.914 Z" fill="#000000" fill-rule="nonzero" fill-opacity="1" /><path clip-path="url(#clip140)" d="M154.283 899.368 Q150.672 899.368 148.843 902.933 Q147.038 906.475 147.038 913.604 Q147.038 920.711 148.843 924.275 Q150.672 927.817 154.283 927.817 Q157.917 927.817 159.723 924.275 Q161.552 920.711 161.552 913.604 Q161.552 906.475 159.723 902.933 Q157.917 899.368 154.283 899.368 M154.283 895.664 Q160.093 895.664 163.149 900.271 Q166.227 904.854 166.227 913.604 Q166.227 922.331 163.149 926.937 Q160.093 931.521 154.283 931.521 Q148.473 931.521 145.394 926.937 Q142.339 922.331 142.339 913.604 Q142.339 904.854 145.394 900.271 Q148.473 895.664 154.283 895.664 Z" fill="#000000" fill-rule="nonzero" fill-opacity="1" /><path clip-path="url(#clip140)" d="M166.227 889.766 L190.339 889.766 L190.339 892.963 L166.227 892.963 L166.227 889.766 Z" fill="#000000" fill-rule="nonzero" fill-opacity="1" /><path clip-path="url(#clip140)" d="M199.197 900.242 L205.404 900.242 L205.404 878.82 L198.652 880.174 L198.652 876.713 L205.366 875.359 L209.166 875.359 L209.166 900.242 L215.372 900.242 L215.372 903.439 L199.197 903.439 L199.197 900.242 Z" fill="#000000" fill-rule="nonzero" fill-opacity="1" /><path clip-path="url(#clip140)" d="M231.171 877.86 Q228.237 877.86 226.751 880.757 Q225.284 883.634 225.284 889.427 Q225.284 895.201 226.751 898.098 Q228.237 900.975 231.171 900.975 Q234.124 900.975 235.591 898.098 Q237.076 895.201 237.076 889.427 Q237.076 883.634 235.591 880.757 Q234.124 877.86 231.171 877.86 M231.171 874.851 Q235.891 874.851 238.374 878.594 Q240.876 882.318 240.876 889.427 Q240.876 896.518 238.374 900.26 Q235.891 903.984 231.171 903.984 Q226.45 903.984 223.949 900.26 Q221.466 896.518 221.466 889.427 Q221.466 882.318 223.949 878.594 Q226.45 874.851 231.171 874.851 Z" fill="#000000" fill-rule="nonzero" fill-opacity="1" /><path clip-path="url(#clip140)" d="M115.74 1338.32 L123.379 1338.32 L123.379 1311.95 L115.069 1313.62 L115.069 1309.36 L123.333 1307.69 L128.009 1307.69 L128.009 1338.32 L135.647 1338.32 L135.647 1342.25 L115.74 1342.25 L115.74 1338.32 Z" fill="#000000" fill-rule="nonzero" fill-opacity="1" /><path clip-path="url(#clip140)" d="M155.092 1310.77 Q151.481 1310.77 149.652 1314.34 Q147.846 1317.88 147.846 1325.01 Q147.846 1332.12 149.652 1335.68 Q151.481 1339.22 155.092 1339.22 Q158.726 1339.22 160.532 1335.68 Q162.36 1332.12 162.36 1325.01 Q162.36 1317.88 160.532 1314.34 Q158.726 1310.77 155.092 1310.77 M155.092 1307.07 Q160.902 1307.07 163.958 1311.68 Q167.036 1316.26 167.036 1325.01 Q167.036 1333.74 163.958 1338.34 Q160.902 1342.93 155.092 1342.93 Q149.282 1342.93 146.203 1338.34 Q143.147 1333.74 143.147 1325.01 Q143.147 1316.26 146.203 1311.68 Q149.282 1307.07 155.092 1307.07 Z" fill="#000000" fill-rule="nonzero" fill-opacity="1" /><path clip-path="url(#clip140)" d="M167.036 1301.17 L191.148 1301.17 L191.148 1304.37 L167.036 1304.37 L167.036 1301.17 Z" fill="#000000" fill-rule="nonzero" fill-opacity="1" /><path clip-path="url(#clip140)" d="M200.006 1311.65 L206.213 1311.65 L206.213 1290.22 L199.461 1291.58 L199.461 1288.12 L206.175 1286.76 L209.974 1286.76 L209.974 1311.65 L216.181 1311.65 L216.181 1314.84 L200.006 1314.84 L200.006 1311.65 Z" fill="#000000" fill-rule="nonzero" fill-opacity="1" /><path clip-path="url(#clip140)" d="M223.892 1286.76 L238.807 1286.76 L238.807 1289.96 L227.372 1289.96 L227.372 1296.85 Q228.199 1296.56 229.027 1296.43 Q229.854 1296.28 230.682 1296.28 Q235.384 1296.28 238.13 1298.86 Q240.876 1301.43 240.876 1305.84 Q240.876 1310.37 238.054 1312.89 Q235.233 1315.39 230.099 1315.39 Q228.331 1315.39 226.488 1315.09 Q224.663 1314.79 222.707 1314.19 L222.707 1310.37 Q224.4 1311.29 226.205 1311.74 Q228.011 1312.19 230.023 1312.19 Q233.277 1312.19 235.177 1310.48 Q237.076 1308.77 237.076 1305.84 Q237.076 1302.9 235.177 1301.19 Q233.277 1299.48 230.023 1299.48 Q228.5 1299.48 226.977 1299.82 Q225.472 1300.16 223.892 1300.87 L223.892 1286.76 Z" fill="#000000" fill-rule="nonzero" fill-opacity="1" /><path clip-path="url(#clip140)" d="M42.4881 812.859 L64.0042 812.859 L64.0042 818.715 L42.679 818.715 Q37.6183 818.715 35.1038 820.689 Q32.5894 822.662 32.5894 826.609 Q32.5894 831.351 35.6131 834.089 Q38.6368 836.826 43.8567 836.826 L64.0042 836.826 L64.0042 842.714 L28.3562 842.714 L28.3562 836.826 L33.8944 836.826 Q30.6797 834.725 29.0883 831.892 Q27.4968 829.028 27.4968 825.304 Q27.4968 819.161 31.3163 816.01 Q35.1038 812.859 42.4881 812.859 Z" fill="#000000" fill-rule="nonzero" fill-opacity="1" /><path clip-path="url(#clip140)" d="M46.0847 784.977 Q46.0847 792.075 47.7079 794.812 Q49.3312 797.549 53.2461 797.549 Q56.3653 797.549 58.2114 795.512 Q60.0256 793.444 60.0256 789.911 Q60.0256 785.041 56.5881 782.113 Q53.1188 779.153 47.3897 779.153 L46.0847 779.153 L46.0847 784.977 M43.6657 773.296 L64.0042 773.296 L64.0042 779.153 L58.5933 779.153 Q61.8398 781.158 63.3994 784.15 Q64.9272 787.142 64.9272 791.47 Q64.9272 796.945 61.8716 800.191 Q58.7843 803.406 53.6281 803.406 Q47.6125 803.406 44.5569 799.396 Q41.5014 795.353 41.5014 787.364 L41.5014 779.153 L40.9285 779.153 Q36.8862 779.153 34.6901 781.826 Q32.4621 784.468 32.4621 789.274 Q32.4621 792.33 33.1941 795.226 Q33.9262 798.122 35.3903 800.796 L29.9795 800.796 Q28.7381 797.581 28.1334 794.558 Q27.4968 791.534 27.4968 788.669 Q27.4968 780.935 31.5072 777.116 Q35.5176 773.296 43.6657 773.296 Z" fill="#000000" fill-rule="nonzero" fill-opacity="1" /><path clip-path="url(#clip140)" d="M58.657 755.568 L77.5631 755.568 L77.5631 761.456 L28.3562 761.456 L28.3562 755.568 L33.7671 755.568 Q30.5842 753.722 29.0564 750.921 Q27.4968 748.088 27.4968 744.173 Q27.4968 737.68 32.6531 733.638 Q37.8093 729.564 46.212 729.564 Q54.6147 729.564 59.771 733.638 Q64.9272 737.68 64.9272 744.173 Q64.9272 748.088 63.3994 750.921 Q61.8398 753.722 58.657 755.568 M46.212 735.643 Q39.7508 735.643 36.0905 738.317 Q32.3984 740.958 32.3984 745.605 Q32.3984 750.252 36.0905 752.926 Q39.7508 755.568 46.212 755.568 Q52.6732 755.568 56.3653 752.926 Q60.0256 750.252 60.0256 745.605 Q60.0256 740.958 56.3653 738.317 Q52.6732 735.643 46.212 735.643 Z" fill="#000000" fill-rule="nonzero" fill-opacity="1" /><path clip-path="url(#clip140)" d="M46.0847 703.655 Q46.0847 710.753 47.7079 713.49 Q49.3312 716.228 53.2461 716.228 Q56.3653 716.228 58.2114 714.191 Q60.0256 712.122 60.0256 708.589 Q60.0256 703.719 56.5881 700.791 Q53.1188 697.831 47.3897 697.831 L46.0847 697.831 L46.0847 703.655 M43.6657 691.974 L64.0042 691.974 L64.0042 697.831 L58.5933 697.831 Q61.8398 699.836 63.3994 702.828 Q64.9272 705.82 64.9272 710.148 Q64.9272 715.623 61.8716 718.869 Q58.7843 722.084 53.6281 722.084 Q47.6125 722.084 44.5569 718.074 Q41.5014 714.031 41.5014 706.042 L41.5014 697.831 L40.9285 697.831 Q36.8862 697.831 34.6901 700.504 Q32.4621 703.146 32.4621 707.952 Q32.4621 711.008 33.1941 713.904 Q33.9262 716.8 35.3903 719.474 L29.9795 719.474 Q28.7381 716.259 28.1334 713.236 Q27.4968 710.212 27.4968 707.347 Q27.4968 699.613 31.5072 695.794 Q35.5176 691.974 43.6657 691.974 Z" fill="#000000" fill-rule="nonzero" fill-opacity="1" /><path clip-path="url(#clip140)" d="M14.479 680.134 L14.479 674.246 L43.7294 674.246 L28.3562 656.772 L28.3562 649.292 L45.0344 668.198 L64.0042 648.496 L64.0042 656.135 L46.5939 674.246 L64.0042 674.246 L64.0042 680.134 L14.479 680.134 Z" fill="#000000" fill-rule="nonzero" fill-opacity="1" /><path clip-path="url(#clip140)" d="M46.0847 627.108 Q46.0847 634.205 47.7079 636.943 Q49.3312 639.68 53.2461 639.68 Q56.3653 639.68 58.2114 637.643 Q60.0256 635.574 60.0256 632.041 Q60.0256 627.171 56.5881 624.243 Q53.1188 621.283 47.3897 621.283 L46.0847 621.283 L46.0847 627.108 M43.6657 615.427 L64.0042 615.427 L64.0042 621.283 L58.5933 621.283 Q61.8398 623.288 63.3994 626.28 Q64.9272 629.272 64.9272 633.601 Q64.9272 639.075 61.8716 642.322 Q58.7843 645.536 53.6281 645.536 Q47.6125 645.536 44.5569 641.526 Q41.5014 637.484 41.5014 629.495 L41.5014 621.283 L40.9285 621.283 Q36.8862 621.283 34.6901 623.957 Q32.4621 626.598 32.4621 631.405 Q32.4621 634.46 33.1941 637.356 Q33.9262 640.253 35.3903 642.926 L29.9795 642.926 Q28.7381 639.712 28.1334 636.688 Q27.4968 633.664 27.4968 630.8 Q27.4968 623.065 31.5072 619.246 Q35.5176 615.427 43.6657 615.427 Z" fill="#000000" fill-rule="nonzero" fill-opacity="1" /><circle clip-path="url(#clip142)" cx="665.283" cy="179.585" r="14.4" fill="#009af9" fill-rule="evenodd" fill-opacity="1" stroke="#000000" stroke-opacity="1" stroke-width="3.2"/>
<circle clip-path="url(#clip142)" cx="856.121" cy="231.336" r="14.4" fill="#009af9" fill-rule="evenodd" fill-opacity="1" stroke="#000000" stroke-opacity="1" stroke-width="3.2"/>
<circle clip-path="url(#clip142)" cx="1055.15" cy="281.406" r="14.4" fill="#009af9" fill-rule="evenodd" fill-opacity="1" stroke="#000000" stroke-opacity="1" stroke-width="3.2"/>
<circle clip-path="url(#clip142)" cx="1258.56" cy="331.075" r="14.4" fill="#009af9" fill-rule="evenodd" fill-opacity="1" stroke="#000000" stroke-opacity="1" stroke-width="3.2"/>
<circle clip-path="url(#clip142)" cx="1464.23" cy="380.646" r="14.4" fill="#009af9" fill-rule="evenodd" fill-opacity="1" stroke="#000000" stroke-opacity="1" stroke-width="3.2"/>
<circle clip-path="url(#clip142)" cx="1671.06" cy="430.192" r="14.4" fill="#009af9" fill-rule="evenodd" fill-opacity="1" stroke="#000000" stroke-opacity="1" stroke-width="3.2"/>
<circle clip-path="url(#clip142)" cx="1878.46" cy="479.732" r="14.4" fill="#009af9" fill-rule="evenodd" fill-opacity="1" stroke="#000000" stroke-opacity="1" stroke-width="3.2"/>
<circle clip-path="url(#clip142)" cx="2086.16" cy="529.271" r="14.4" fill="#009af9" fill-rule="evenodd" fill-opacity="1" stroke="#000000" stroke-opacity="1" stroke-width="3.2"/>
<circle clip-path="url(#clip142)" cx="856.121" cy="319.339" r="14.4" fill="#e26f46" fill-rule="evenodd" fill-opacity="1" stroke="#000000" stroke-opacity="1" stroke-width="3.2"/>
<circle clip-path="url(#clip142)" cx="1055.15" cy="421.258" r="14.4" fill="#e26f46" fill-rule="evenodd" fill-opacity="1" stroke="#000000" stroke-opacity="1" stroke-width="3.2"/>
<circle clip-path="url(#clip142)" cx="1258.56" cy="521.093" r="14.4" fill="#e26f46" fill-rule="evenodd" fill-opacity="1" stroke="#000000" stroke-opacity="1" stroke-width="3.2"/>
<circle clip-path="url(#clip142)" cx="1464.23" cy="620.36" r="14.4" fill="#e26f46" fill-rule="evenodd" fill-opacity="1" stroke="#000000" stroke-opacity="1" stroke-width="3.2"/>
<circle clip-path="url(#clip142)" cx="1671.06" cy="719.485" r="14.4" fill="#e26f46" fill-rule="evenodd" fill-opacity="1" stroke="#000000" stroke-opacity="1" stroke-width="3.2"/>
<circle clip-path="url(#clip142)" cx="1878.46" cy="818.573" r="14.4" fill="#e26f46" fill-rule="evenodd" fill-opacity="1" stroke="#000000" stroke-opacity="1" stroke-width="3.2"/>
<circle clip-path="url(#clip142)" cx="2086.16" cy="917.652" r="14.4" fill="#e26f46" fill-rule="evenodd" fill-opacity="1" stroke="#000000" stroke-opacity="1" stroke-width="3.2"/>
<circle clip-path="url(#clip142)" cx="2294" cy="1016.72" r="14.4" fill="#e26f46" fill-rule="evenodd" fill-opacity="1" stroke="#000000" stroke-opacity="1" stroke-width="3.2"/>
<circle clip-path="url(#clip142)" cx="335.627" cy="85.838" r="14.4" fill="#3da44d" fill-rule="evenodd" fill-opacity="1" stroke="#000000" stroke-opacity="1" stroke-width="3.2"/>
<circle clip-path="url(#clip142)" cx="421.95" cy="145.018" r="14.4" fill="#3da44d" fill-rule="evenodd" fill-opacity="1" stroke="#000000" stroke-opacity="1" stroke-width="3.2"/>
<circle clip-path="url(#clip142)" cx="488.908" cy="221.534" r="14.4" fill="#3da44d" fill-rule="evenodd" fill-opacity="1" stroke="#000000" stroke-opacity="1" stroke-width="3.2"/>
<circle clip-path="url(#clip142)" cx="543.617" cy="251.411" r="14.4" fill="#3da44d" fill-rule="evenodd" fill-opacity="1" stroke="#000000" stroke-opacity="1" stroke-width="3.2"/>
<circle clip-path="url(#clip142)" cx="589.872" cy="353.378" r="14.4" fill="#3da44d" fill-rule="evenodd" fill-opacity="1" stroke="#000000" stroke-opacity="1" stroke-width="3.2"/>
<circle clip-path="url(#clip142)" cx="629.94" cy="417.725" r="14.4" fill="#3da44d" fill-rule="evenodd" fill-opacity="1" stroke="#000000" stroke-opacity="1" stroke-width="3.2"/>
<circle clip-path="url(#clip142)" cx="665.283" cy="491.005" r="14.4" fill="#3da44d" fill-rule="evenodd" fill-opacity="1" stroke="#000000" stroke-opacity="1" stroke-width="3.2"/>
<circle clip-path="url(#clip142)" cx="696.898" cy="678.95" r="14.4" fill="#3da44d" fill-rule="evenodd" fill-opacity="1" stroke="#000000" stroke-opacity="1" stroke-width="3.2"/>
<circle clip-path="url(#clip142)" cx="725.497" cy="672.254" r="14.4" fill="#3da44d" fill-rule="evenodd" fill-opacity="1" stroke="#000000" stroke-opacity="1" stroke-width="3.2"/>
<circle clip-path="url(#clip142)" cx="751.606" cy="791.075" r="14.4" fill="#3da44d" fill-rule="evenodd" fill-opacity="1" stroke="#000000" stroke-opacity="1" stroke-width="3.2"/>
<circle clip-path="url(#clip142)" cx="775.624" cy="883.817" r="14.4" fill="#3da44d" fill-rule="evenodd" fill-opacity="1" stroke="#000000" stroke-opacity="1" stroke-width="3.2"/>
<circle clip-path="url(#clip142)" cx="797.862" cy="976.579" r="14.4" fill="#3da44d" fill-rule="evenodd" fill-opacity="1" stroke="#000000" stroke-opacity="1" stroke-width="3.2"/>
<circle clip-path="url(#clip142)" cx="818.564" cy="1142.69" r="14.4" fill="#3da44d" fill-rule="evenodd" fill-opacity="1" stroke="#000000" stroke-opacity="1" stroke-width="3.2"/>
<circle clip-path="url(#clip142)" cx="837.93" cy="1188.78" r="14.4" fill="#3da44d" fill-rule="evenodd" fill-opacity="1" stroke="#000000" stroke-opacity="1" stroke-width="3.2"/>
<circle clip-path="url(#clip142)" cx="856.121" cy="1347.53" r="14.4" fill="#3da44d" fill-rule="evenodd" fill-opacity="1" stroke="#000000" stroke-opacity="1" stroke-width="3.2"/>
<circle clip-path="url(#clip142)" cx="873.273" cy="1333.04" r="14.4" fill="#3da44d" fill-rule="evenodd" fill-opacity="1" stroke="#000000" stroke-opacity="1" stroke-width="3.2"/>
<circle clip-path="url(#clip142)" cx="889.496" cy="1372.3" r="14.4" fill="#3da44d" fill-rule="evenodd" fill-opacity="1" stroke="#000000" stroke-opacity="1" stroke-width="3.2"/>
<circle clip-path="url(#clip142)" cx="904.888" cy="1333.04" r="14.4" fill="#3da44d" fill-rule="evenodd" fill-opacity="1" stroke="#000000" stroke-opacity="1" stroke-width="3.2"/>
<path clip-path="url(#clip140)" d="M1178.15 1365.44 L2283.56 1365.44 L2283.56 1158.08 L1178.15 1158.08  Z" fill="#ffffff" fill-rule="evenodd" fill-opacity="1"/>
<polyline clip-path="url(#clip140)" style="stroke:#000000; stroke-linecap:round; stroke-linejoin:round; stroke-width:4; stroke-opacity:1; fill:none" points="1178.15,1365.44 2283.56,1365.44 2283.56,1158.08 1178.15,1158.08 1178.15,1365.44 "/>
<circle clip-path="url(#clip140)" cx="1270.41" cy="1209.92" r="20.48" fill="#009af9" fill-rule="evenodd" fill-opacity="1" stroke="#000000" stroke-opacity="1" stroke-width="4.55111"/>
<path clip-path="url(#clip140)" d="M1384.39 1211.55 L1384.39 1227.2 L1380.13 1227.2 L1380.13 1211.69 Q1380.13 1208.01 1378.69 1206.18 Q1377.26 1204.35 1374.39 1204.35 Q1370.94 1204.35 1368.95 1206.55 Q1366.96 1208.75 1366.96 1212.55 L1366.96 1227.2 L1362.68 1227.2 L1362.68 1201.28 L1366.96 1201.28 L1366.96 1205.3 Q1368.49 1202.97 1370.55 1201.81 Q1372.63 1200.65 1375.34 1200.65 Q1379.8 1200.65 1382.1 1203.43 Q1384.39 1206.18 1384.39 1211.55 Z" fill="#000000" fill-rule="nonzero" fill-opacity="1" /><path clip-path="url(#clip140)" d="M1404.67 1214.17 Q1399.5 1214.17 1397.51 1215.35 Q1395.52 1216.53 1395.52 1219.38 Q1395.52 1221.65 1397 1222.99 Q1398.51 1224.31 1401.08 1224.31 Q1404.62 1224.31 1406.75 1221.81 Q1408.9 1219.28 1408.9 1215.12 L1408.9 1214.17 L1404.67 1214.17 M1413.16 1212.41 L1413.16 1227.2 L1408.9 1227.2 L1408.9 1223.27 Q1407.44 1225.63 1405.27 1226.76 Q1403.09 1227.87 1399.94 1227.87 Q1395.96 1227.87 1393.6 1225.65 Q1391.26 1223.41 1391.26 1219.66 Q1391.26 1215.28 1394.18 1213.06 Q1397.12 1210.84 1402.93 1210.84 L1408.9 1210.84 L1408.9 1210.42 Q1408.9 1207.48 1406.96 1205.88 Q1405.04 1204.26 1401.54 1204.26 Q1399.32 1204.26 1397.21 1204.79 Q1395.11 1205.33 1393.16 1206.39 L1393.16 1202.46 Q1395.5 1201.55 1397.7 1201.11 Q1399.9 1200.65 1401.98 1200.65 Q1407.61 1200.65 1410.38 1203.57 Q1413.16 1206.48 1413.16 1212.41 Z" fill="#000000" fill-rule="nonzero" fill-opacity="1" /><path clip-path="url(#clip140)" d="M1426.05 1223.31 L1426.05 1237.06 L1421.77 1237.06 L1421.77 1201.28 L1426.05 1201.28 L1426.05 1205.21 Q1427.4 1202.9 1429.43 1201.79 Q1431.49 1200.65 1434.34 1200.65 Q1439.06 1200.65 1442 1204.4 Q1444.97 1208.15 1444.97 1214.26 Q1444.97 1220.37 1442 1224.12 Q1439.06 1227.87 1434.34 1227.87 Q1431.49 1227.87 1429.43 1226.76 Q1427.4 1225.63 1426.05 1223.31 M1440.55 1214.26 Q1440.55 1209.56 1438.6 1206.9 Q1436.68 1204.22 1433.3 1204.22 Q1429.92 1204.22 1427.98 1206.9 Q1426.05 1209.56 1426.05 1214.26 Q1426.05 1218.96 1427.98 1221.65 Q1429.92 1224.31 1433.3 1224.31 Q1436.68 1224.31 1438.6 1221.65 Q1440.55 1218.96 1440.55 1214.26 Z" fill="#000000" fill-rule="nonzero" fill-opacity="1" /><path clip-path="url(#clip140)" d="M1463.81 1214.17 Q1458.65 1214.17 1456.66 1215.35 Q1454.67 1216.53 1454.67 1219.38 Q1454.67 1221.65 1456.15 1222.99 Q1457.65 1224.31 1460.22 1224.31 Q1463.76 1224.31 1465.89 1221.81 Q1468.05 1219.28 1468.05 1215.12 L1468.05 1214.17 L1463.81 1214.17 M1472.3 1212.41 L1472.3 1227.2 L1468.05 1227.2 L1468.05 1223.27 Q1466.59 1225.63 1464.41 1226.76 Q1462.23 1227.87 1459.09 1227.87 Q1455.11 1227.87 1452.74 1225.65 Q1450.41 1223.41 1450.41 1219.66 Q1450.41 1215.28 1453.32 1213.06 Q1456.26 1210.84 1462.07 1210.84 L1468.05 1210.84 L1468.05 1210.42 Q1468.05 1207.48 1466.1 1205.88 Q1464.18 1204.26 1460.68 1204.26 Q1458.46 1204.26 1456.36 1204.79 Q1454.25 1205.33 1452.3 1206.39 L1452.3 1202.46 Q1454.64 1201.55 1456.84 1201.11 Q1459.04 1200.65 1461.12 1200.65 Q1466.75 1200.65 1469.53 1203.57 Q1472.3 1206.48 1472.3 1212.41 Z" fill="#000000" fill-rule="nonzero" fill-opacity="1" /><path clip-path="url(#clip140)" d="M1480.92 1191.18 L1485.2 1191.18 L1485.2 1212.46 L1497.91 1201.28 L1503.35 1201.28 L1489.6 1213.41 L1503.92 1227.2 L1498.37 1227.2 L1485.2 1214.54 L1485.2 1227.2 L1480.92 1227.2 L1480.92 1191.18 Z" fill="#000000" fill-rule="nonzero" fill-opacity="1" /><path clip-path="url(#clip140)" d="M1519.48 1214.17 Q1514.32 1214.17 1512.33 1215.35 Q1510.34 1216.53 1510.34 1219.38 Q1510.34 1221.65 1511.82 1222.99 Q1513.32 1224.31 1515.89 1224.31 Q1519.43 1224.31 1521.56 1221.81 Q1523.72 1219.28 1523.72 1215.12 L1523.72 1214.17 L1519.48 1214.17 M1527.98 1212.41 L1527.98 1227.2 L1523.72 1227.2 L1523.72 1223.27 Q1522.26 1225.63 1520.08 1226.76 Q1517.91 1227.87 1514.76 1227.87 Q1510.78 1227.87 1508.42 1225.65 Q1506.08 1223.41 1506.08 1219.66 Q1506.08 1215.28 1508.99 1213.06 Q1511.93 1210.84 1517.74 1210.84 L1523.72 1210.84 L1523.72 1210.42 Q1523.72 1207.48 1521.77 1205.88 Q1519.85 1204.26 1516.36 1204.26 Q1514.13 1204.26 1512.03 1204.79 Q1509.92 1205.33 1507.98 1206.39 L1507.98 1202.46 Q1510.31 1201.55 1512.51 1201.11 Q1514.71 1200.65 1516.79 1200.65 Q1522.42 1200.65 1525.2 1203.57 Q1527.98 1206.48 1527.98 1212.41 Z" fill="#000000" fill-rule="nonzero" fill-opacity="1" /><path clip-path="url(#clip140)" d="M1556.03 1193.91 L1556.03 1201.28 L1564.8 1201.28 L1564.8 1204.59 L1556.03 1204.59 L1556.03 1218.66 Q1556.03 1221.83 1556.89 1222.73 Q1557.77 1223.64 1560.43 1223.64 L1564.8 1223.64 L1564.8 1227.2 L1560.43 1227.2 Q1555.5 1227.2 1553.62 1225.37 Q1551.75 1223.52 1551.75 1218.66 L1551.75 1204.59 L1548.62 1204.59 L1548.62 1201.28 L1551.75 1201.28 L1551.75 1193.91 L1556.03 1193.91 Z" fill="#000000" fill-rule="nonzero" fill-opacity="1" /><path clip-path="url(#clip140)" d="M1585.43 1205.26 Q1584.71 1204.84 1583.85 1204.66 Q1583.02 1204.45 1582 1204.45 Q1578.39 1204.45 1576.45 1206.81 Q1574.53 1209.15 1574.53 1213.54 L1574.53 1227.2 L1570.24 1227.2 L1570.24 1201.28 L1574.53 1201.28 L1574.53 1205.3 Q1575.87 1202.94 1578.02 1201.81 Q1580.17 1200.65 1583.25 1200.65 Q1583.69 1200.65 1584.23 1200.72 Q1584.76 1200.77 1585.41 1200.88 L1585.43 1205.26 Z" fill="#000000" fill-rule="nonzero" fill-opacity="1" /><path clip-path="url(#clip140)" d="M1601.68 1214.17 Q1596.52 1214.17 1594.53 1215.35 Q1592.54 1216.53 1592.54 1219.38 Q1592.54 1221.65 1594.02 1222.99 Q1595.52 1224.31 1598.09 1224.31 Q1601.63 1224.31 1603.76 1221.81 Q1605.91 1219.28 1605.91 1215.12 L1605.91 1214.17 L1601.68 1214.17 M1610.17 1212.41 L1610.17 1227.2 L1605.91 1227.2 L1605.91 1223.27 Q1604.46 1225.63 1602.28 1226.76 Q1600.1 1227.87 1596.96 1227.87 Q1592.97 1227.87 1590.61 1225.65 Q1588.28 1223.41 1588.28 1219.66 Q1588.28 1215.28 1591.19 1213.06 Q1594.13 1210.84 1599.94 1210.84 L1605.91 1210.84 L1605.91 1210.42 Q1605.91 1207.48 1603.97 1205.88 Q1602.05 1204.26 1598.55 1204.26 Q1596.33 1204.26 1594.22 1204.79 Q1592.12 1205.33 1590.17 1206.39 L1590.17 1202.46 Q1592.51 1201.55 1594.71 1201.11 Q1596.91 1200.65 1598.99 1200.65 Q1604.62 1200.65 1607.4 1203.57 Q1610.17 1206.48 1610.17 1212.41 Z" fill="#000000" fill-rule="nonzero" fill-opacity="1" /><path clip-path="url(#clip140)" d="M1623.07 1223.31 L1623.07 1237.06 L1618.79 1237.06 L1618.79 1201.28 L1623.07 1201.28 L1623.07 1205.21 Q1624.41 1202.9 1626.45 1201.79 Q1628.51 1200.65 1631.35 1200.65 Q1636.08 1200.65 1639.02 1204.4 Q1641.98 1208.15 1641.98 1214.26 Q1641.98 1220.37 1639.02 1224.12 Q1636.08 1227.87 1631.35 1227.87 Q1628.51 1227.87 1626.45 1226.76 Q1624.41 1225.63 1623.07 1223.31 M1637.56 1214.26 Q1637.56 1209.56 1635.61 1206.9 Q1633.69 1204.22 1630.31 1204.22 Q1626.93 1204.22 1624.99 1206.9 Q1623.07 1209.56 1623.07 1214.26 Q1623.07 1218.96 1624.99 1221.65 Q1626.93 1224.31 1630.31 1224.31 Q1633.69 1224.31 1635.61 1221.65 Q1637.56 1218.96 1637.56 1214.26 Z" fill="#000000" fill-rule="nonzero" fill-opacity="1" /><path clip-path="url(#clip140)" d="M1671.22 1213.17 L1671.22 1215.26 L1651.63 1215.26 Q1651.91 1219.66 1654.27 1221.97 Q1656.66 1224.26 1660.89 1224.26 Q1663.34 1224.26 1665.64 1223.66 Q1667.95 1223.06 1670.22 1221.85 L1670.22 1225.88 Q1667.93 1226.85 1665.52 1227.36 Q1663.11 1227.87 1660.64 1227.87 Q1654.43 1227.87 1650.8 1224.26 Q1647.19 1220.65 1647.19 1214.49 Q1647.19 1208.13 1650.61 1204.4 Q1654.06 1200.65 1659.9 1200.65 Q1665.13 1200.65 1668.16 1204.03 Q1671.22 1207.39 1671.22 1213.17 M1666.96 1211.92 Q1666.91 1208.43 1664.99 1206.35 Q1663.09 1204.26 1659.94 1204.26 Q1656.38 1204.26 1654.22 1206.28 Q1652.1 1208.29 1651.77 1211.95 L1666.96 1211.92 Z" fill="#000000" fill-rule="nonzero" fill-opacity="1" /><path clip-path="url(#clip140)" d="M1676.35 1201.28 L1696.59 1201.28 L1696.59 1205.16 L1680.57 1223.8 L1696.59 1223.8 L1696.59 1227.2 L1675.78 1227.2 L1675.78 1223.31 L1691.79 1204.68 L1676.35 1204.68 L1676.35 1201.28 Z" fill="#000000" fill-rule="nonzero" fill-opacity="1" /><path clip-path="url(#clip140)" d="M1724.64 1211.55 L1724.64 1227.2 L1720.38 1227.2 L1720.38 1211.69 Q1720.38 1208.01 1718.95 1206.18 Q1717.51 1204.35 1714.64 1204.35 Q1711.19 1204.35 1709.2 1206.55 Q1707.21 1208.75 1707.21 1212.55 L1707.21 1227.2 L1702.93 1227.2 L1702.93 1201.28 L1707.21 1201.28 L1707.21 1205.3 Q1708.74 1202.97 1710.8 1201.81 Q1712.88 1200.65 1715.59 1200.65 Q1720.06 1200.65 1722.35 1203.43 Q1724.64 1206.18 1724.64 1211.55 Z" fill="#000000" fill-rule="nonzero" fill-opacity="1" /><path clip-path="url(#clip140)" d="M1755.31 1213.17 L1755.31 1215.26 L1735.73 1215.26 Q1736.01 1219.66 1738.37 1221.97 Q1740.75 1224.26 1744.99 1224.26 Q1747.44 1224.26 1749.73 1223.66 Q1752.05 1223.06 1754.32 1221.85 L1754.32 1225.88 Q1752.03 1226.85 1749.62 1227.36 Q1747.21 1227.87 1744.73 1227.87 Q1738.53 1227.87 1734.9 1224.26 Q1731.28 1220.65 1731.28 1214.49 Q1731.28 1208.13 1734.71 1204.4 Q1738.16 1200.65 1743.99 1200.65 Q1749.22 1200.65 1752.26 1204.03 Q1755.31 1207.39 1755.31 1213.17 M1751.05 1211.92 Q1751.01 1208.43 1749.09 1206.35 Q1747.19 1204.26 1744.04 1204.26 Q1740.47 1204.26 1738.32 1206.28 Q1736.19 1208.29 1735.87 1211.95 L1751.05 1211.92 Z" fill="#000000" fill-rule="nonzero" fill-opacity="1" /><path clip-path="url(#clip140)" d="M1790.5 1191.18 L1790.5 1194.72 L1786.42 1194.72 Q1784.13 1194.72 1783.23 1195.65 Q1782.35 1196.58 1782.35 1198.98 L1782.35 1201.28 L1789.36 1201.28 L1789.36 1204.59 L1782.35 1204.59 L1782.35 1227.2 L1778.07 1227.2 L1778.07 1204.59 L1773.99 1204.59 L1773.99 1201.28 L1778.07 1201.28 L1778.07 1199.47 Q1778.07 1195.14 1780.08 1193.17 Q1782.09 1191.18 1786.47 1191.18 L1790.5 1191.18 Z" fill="#000000" fill-rule="nonzero" fill-opacity="1" /><path clip-path="url(#clip140)" d="M1804.11 1204.26 Q1800.68 1204.26 1798.69 1206.95 Q1796.7 1209.61 1796.7 1214.26 Q1796.7 1218.91 1798.67 1221.6 Q1800.66 1224.26 1804.11 1224.26 Q1807.51 1224.26 1809.5 1221.58 Q1811.49 1218.89 1811.49 1214.26 Q1811.49 1209.66 1809.5 1206.97 Q1807.51 1204.26 1804.11 1204.26 M1804.11 1200.65 Q1809.66 1200.65 1812.83 1204.26 Q1816.01 1207.87 1816.01 1214.26 Q1816.01 1220.63 1812.83 1224.26 Q1809.66 1227.87 1804.11 1227.87 Q1798.53 1227.87 1795.36 1224.26 Q1792.21 1220.63 1792.21 1214.26 Q1792.21 1207.87 1795.36 1204.26 Q1798.53 1200.65 1804.11 1200.65 Z" fill="#000000" fill-rule="nonzero" fill-opacity="1" /><path clip-path="url(#clip140)" d="M1838.09 1205.26 Q1837.37 1204.84 1836.52 1204.66 Q1835.68 1204.45 1834.66 1204.45 Q1831.05 1204.45 1829.11 1206.81 Q1827.19 1209.15 1827.19 1213.54 L1827.19 1227.2 L1822.9 1227.2 L1822.9 1201.28 L1827.19 1201.28 L1827.19 1205.3 Q1828.53 1202.94 1830.68 1201.81 Q1832.83 1200.65 1835.91 1200.65 Q1836.35 1200.65 1836.89 1200.72 Q1837.42 1200.77 1838.07 1200.88 L1838.09 1205.26 Z" fill="#000000" fill-rule="nonzero" fill-opacity="1" /><path clip-path="url(#clip140)" d="M1861.91 1206.25 Q1863.51 1203.38 1865.73 1202.02 Q1867.95 1200.65 1870.96 1200.65 Q1875.01 1200.65 1877.21 1203.5 Q1879.41 1206.32 1879.41 1211.55 L1879.41 1227.2 L1875.13 1227.2 L1875.13 1211.69 Q1875.13 1207.97 1873.81 1206.16 Q1872.49 1204.35 1869.78 1204.35 Q1866.47 1204.35 1864.55 1206.55 Q1862.63 1208.75 1862.63 1212.55 L1862.63 1227.2 L1858.34 1227.2 L1858.34 1211.69 Q1858.34 1207.94 1857.02 1206.16 Q1855.71 1204.35 1852.95 1204.35 Q1849.69 1204.35 1847.77 1206.58 Q1845.84 1208.78 1845.84 1212.55 L1845.84 1227.2 L1841.56 1227.2 L1841.56 1201.28 L1845.84 1201.28 L1845.84 1205.3 Q1847.3 1202.92 1849.34 1201.79 Q1851.38 1200.65 1854.18 1200.65 Q1857 1200.65 1858.97 1202.09 Q1860.96 1203.52 1861.91 1206.25 Z" fill="#000000" fill-rule="nonzero" fill-opacity="1" /><path clip-path="url(#clip140)" d="M1887.46 1216.97 L1887.46 1201.28 L1891.72 1201.28 L1891.72 1216.81 Q1891.72 1220.49 1893.16 1222.34 Q1894.59 1224.17 1897.46 1224.17 Q1900.91 1224.17 1902.9 1221.97 Q1904.92 1219.77 1904.92 1215.97 L1904.92 1201.28 L1909.18 1201.28 L1909.18 1227.2 L1904.92 1227.2 L1904.92 1223.22 Q1903.37 1225.58 1901.31 1226.74 Q1899.27 1227.87 1896.56 1227.87 Q1892.09 1227.87 1889.78 1225.1 Q1887.46 1222.32 1887.46 1216.97 M1898.18 1200.65 L1898.18 1200.65 Z" fill="#000000" fill-rule="nonzero" fill-opacity="1" /><path clip-path="url(#clip140)" d="M1917.95 1191.18 L1922.21 1191.18 L1922.21 1227.2 L1917.95 1227.2 L1917.95 1191.18 Z" fill="#000000" fill-rule="nonzero" fill-opacity="1" /><path clip-path="url(#clip140)" d="M1953.3 1213.17 L1953.3 1215.26 L1933.71 1215.26 Q1933.99 1219.66 1936.35 1221.97 Q1938.74 1224.26 1942.97 1224.26 Q1945.43 1224.26 1947.72 1223.66 Q1950.03 1223.06 1952.3 1221.85 L1952.3 1225.88 Q1950.01 1226.85 1947.6 1227.36 Q1945.2 1227.87 1942.72 1227.87 Q1936.51 1227.87 1932.88 1224.26 Q1929.27 1220.65 1929.27 1214.49 Q1929.27 1208.13 1932.7 1204.4 Q1936.14 1200.65 1941.98 1200.65 Q1947.21 1200.65 1950.24 1204.03 Q1953.3 1207.39 1953.3 1213.17 M1949.04 1211.92 Q1948.99 1208.43 1947.07 1206.35 Q1945.17 1204.26 1942.02 1204.26 Q1938.46 1204.26 1936.31 1206.28 Q1934.18 1208.29 1933.85 1211.95 L1949.04 1211.92 Z" fill="#000000" fill-rule="nonzero" fill-opacity="1" /><circle clip-path="url(#clip140)" cx="1270.41" cy="1261.76" r="20.48" fill="#e26f46" fill-rule="evenodd" fill-opacity="1" stroke="#000000" stroke-opacity="1" stroke-width="4.55111"/>
<path clip-path="url(#clip140)" d="M1384.39 1263.39 L1384.39 1279.04 L1380.13 1279.04 L1380.13 1263.53 Q1380.13 1259.85 1378.69 1258.02 Q1377.26 1256.19 1374.39 1256.19 Q1370.94 1256.19 1368.95 1258.39 Q1366.96 1260.59 1366.96 1264.39 L1366.96 1279.04 L1362.68 1279.04 L1362.68 1253.12 L1366.96 1253.12 L1366.96 1257.14 Q1368.49 1254.81 1370.55 1253.65 Q1372.63 1252.49 1375.34 1252.49 Q1379.8 1252.49 1382.1 1255.27 Q1384.39 1258.02 1384.39 1263.39 Z" fill="#000000" fill-rule="nonzero" fill-opacity="1" /><path clip-path="url(#clip140)" d="M1404.67 1266.01 Q1399.5 1266.01 1397.51 1267.19 Q1395.52 1268.37 1395.52 1271.22 Q1395.52 1273.49 1397 1274.83 Q1398.51 1276.15 1401.08 1276.15 Q1404.62 1276.15 1406.75 1273.65 Q1408.9 1271.12 1408.9 1266.96 L1408.9 1266.01 L1404.67 1266.01 M1413.16 1264.25 L1413.16 1279.04 L1408.9 1279.04 L1408.9 1275.11 Q1407.44 1277.47 1405.27 1278.6 Q1403.09 1279.71 1399.94 1279.71 Q1395.96 1279.71 1393.6 1277.49 Q1391.26 1275.25 1391.26 1271.5 Q1391.26 1267.12 1394.18 1264.9 Q1397.12 1262.68 1402.93 1262.68 L1408.9 1262.68 L1408.9 1262.26 Q1408.9 1259.32 1406.96 1257.72 Q1405.04 1256.1 1401.54 1256.1 Q1399.32 1256.1 1397.21 1256.63 Q1395.11 1257.17 1393.16 1258.23 L1393.16 1254.3 Q1395.5 1253.39 1397.7 1252.95 Q1399.9 1252.49 1401.98 1252.49 Q1407.61 1252.49 1410.38 1255.41 Q1413.16 1258.32 1413.16 1264.25 Z" fill="#000000" fill-rule="nonzero" fill-opacity="1" /><path clip-path="url(#clip140)" d="M1426.05 1275.15 L1426.05 1288.9 L1421.77 1288.9 L1421.77 1253.12 L1426.05 1253.12 L1426.05 1257.05 Q1427.4 1254.74 1429.43 1253.63 Q1431.49 1252.49 1434.34 1252.49 Q1439.06 1252.49 1442 1256.24 Q1444.97 1259.99 1444.97 1266.1 Q1444.97 1272.21 1442 1275.96 Q1439.06 1279.71 1434.34 1279.71 Q1431.49 1279.71 1429.43 1278.6 Q1427.4 1277.47 1426.05 1275.15 M1440.55 1266.1 Q1440.55 1261.4 1438.6 1258.74 Q1436.68 1256.06 1433.3 1256.06 Q1429.92 1256.06 1427.98 1258.74 Q1426.05 1261.4 1426.05 1266.1 Q1426.05 1270.8 1427.98 1273.49 Q1429.92 1276.15 1433.3 1276.15 Q1436.68 1276.15 1438.6 1273.49 Q1440.55 1270.8 1440.55 1266.1 Z" fill="#000000" fill-rule="nonzero" fill-opacity="1" /><path clip-path="url(#clip140)" d="M1463.81 1266.01 Q1458.65 1266.01 1456.66 1267.19 Q1454.67 1268.37 1454.67 1271.22 Q1454.67 1273.49 1456.15 1274.83 Q1457.65 1276.15 1460.22 1276.15 Q1463.76 1276.15 1465.89 1273.65 Q1468.05 1271.12 1468.05 1266.96 L1468.05 1266.01 L1463.81 1266.01 M1472.3 1264.25 L1472.3 1279.04 L1468.05 1279.04 L1468.05 1275.11 Q1466.59 1277.47 1464.41 1278.6 Q1462.23 1279.71 1459.09 1279.71 Q1455.11 1279.71 1452.74 1277.49 Q1450.41 1275.25 1450.41 1271.5 Q1450.41 1267.12 1453.32 1264.9 Q1456.26 1262.68 1462.07 1262.68 L1468.05 1262.68 L1468.05 1262.26 Q1468.05 1259.32 1466.1 1257.72 Q1464.18 1256.1 1460.68 1256.1 Q1458.46 1256.1 1456.36 1256.63 Q1454.25 1257.17 1452.3 1258.23 L1452.3 1254.3 Q1454.64 1253.39 1456.84 1252.95 Q1459.04 1252.49 1461.12 1252.49 Q1466.75 1252.49 1469.53 1255.41 Q1472.3 1258.32 1472.3 1264.25 Z" fill="#000000" fill-rule="nonzero" fill-opacity="1" /><path clip-path="url(#clip140)" d="M1480.92 1243.02 L1485.2 1243.02 L1485.2 1264.3 L1497.91 1253.12 L1503.35 1253.12 L1489.6 1265.25 L1503.92 1279.04 L1498.37 1279.04 L1485.2 1266.38 L1485.2 1279.04 L1480.92 1279.04 L1480.92 1243.02 Z" fill="#000000" fill-rule="nonzero" fill-opacity="1" /><path clip-path="url(#clip140)" d="M1519.48 1266.01 Q1514.32 1266.01 1512.33 1267.19 Q1510.34 1268.37 1510.34 1271.22 Q1510.34 1273.49 1511.82 1274.83 Q1513.32 1276.15 1515.89 1276.15 Q1519.43 1276.15 1521.56 1273.65 Q1523.72 1271.12 1523.72 1266.96 L1523.72 1266.01 L1519.48 1266.01 M1527.98 1264.25 L1527.98 1279.04 L1523.72 1279.04 L1523.72 1275.11 Q1522.26 1277.47 1520.08 1278.6 Q1517.91 1279.71 1514.76 1279.71 Q1510.78 1279.71 1508.42 1277.49 Q1506.08 1275.25 1506.08 1271.5 Q1506.08 1267.12 1508.99 1264.9 Q1511.93 1262.68 1517.74 1262.68 L1523.72 1262.68 L1523.72 1262.26 Q1523.72 1259.32 1521.77 1257.72 Q1519.85 1256.1 1516.36 1256.1 Q1514.13 1256.1 1512.03 1256.63 Q1509.92 1257.17 1507.98 1258.23 L1507.98 1254.3 Q1510.31 1253.39 1512.51 1252.95 Q1514.71 1252.49 1516.79 1252.49 Q1522.42 1252.49 1525.2 1255.41 Q1527.98 1258.32 1527.98 1264.25 Z" fill="#000000" fill-rule="nonzero" fill-opacity="1" /><path clip-path="url(#clip140)" d="M1572.72 1245.62 L1572.72 1250.18 Q1570.06 1248.9 1567.7 1248.28 Q1565.34 1247.65 1563.14 1247.65 Q1559.32 1247.65 1557.23 1249.13 Q1555.17 1250.62 1555.17 1253.35 Q1555.17 1255.64 1556.54 1256.82 Q1557.93 1257.98 1561.77 1258.69 L1564.6 1259.27 Q1569.83 1260.27 1572.3 1262.79 Q1574.8 1265.29 1574.8 1269.5 Q1574.8 1274.53 1571.42 1277.12 Q1568.07 1279.71 1561.56 1279.71 Q1559.11 1279.71 1556.33 1279.16 Q1553.58 1278.6 1550.61 1277.51 L1550.61 1272.7 Q1553.46 1274.3 1556.19 1275.11 Q1558.92 1275.92 1561.56 1275.92 Q1565.57 1275.92 1567.74 1274.34 Q1569.92 1272.77 1569.92 1269.85 Q1569.92 1267.31 1568.35 1265.87 Q1566.79 1264.44 1563.23 1263.72 L1560.38 1263.16 Q1555.15 1262.12 1552.81 1259.9 Q1550.48 1257.68 1550.48 1253.72 Q1550.48 1249.13 1553.69 1246.5 Q1556.93 1243.86 1562.6 1243.86 Q1565.04 1243.86 1567.56 1244.3 Q1570.08 1244.74 1572.72 1245.62 Z" fill="#000000" fill-rule="nonzero" fill-opacity="1" /><path clip-path="url(#clip140)" d="M1581.91 1253.12 L1586.17 1253.12 L1586.17 1279.04 L1581.91 1279.04 L1581.91 1253.12 M1581.91 1243.02 L1586.17 1243.02 L1586.17 1248.42 L1581.91 1248.42 L1581.91 1243.02 Z" fill="#000000" fill-rule="nonzero" fill-opacity="1" /><path clip-path="url(#clip140)" d="M1615.27 1258.09 Q1616.86 1255.22 1619.09 1253.86 Q1621.31 1252.49 1624.32 1252.49 Q1628.37 1252.49 1630.57 1255.34 Q1632.77 1258.16 1632.77 1263.39 L1632.77 1279.04 L1628.48 1279.04 L1628.48 1263.53 Q1628.48 1259.81 1627.16 1258 Q1625.85 1256.19 1623.14 1256.19 Q1619.83 1256.19 1617.91 1258.39 Q1615.98 1260.59 1615.98 1264.39 L1615.98 1279.04 L1611.7 1279.04 L1611.7 1263.53 Q1611.7 1259.78 1610.38 1258 Q1609.06 1256.19 1606.31 1256.19 Q1603.04 1256.19 1601.12 1258.42 Q1599.2 1260.62 1599.2 1264.39 L1599.2 1279.04 L1594.92 1279.04 L1594.92 1253.12 L1599.2 1253.12 L1599.2 1257.14 Q1600.66 1254.76 1602.7 1253.63 Q1604.73 1252.49 1607.54 1252.49 Q1610.36 1252.49 1612.33 1253.93 Q1614.32 1255.36 1615.27 1258.09 Z" fill="#000000" fill-rule="nonzero" fill-opacity="1" /><path clip-path="url(#clip140)" d="M1645.38 1275.15 L1645.38 1288.9 L1641.1 1288.9 L1641.1 1253.12 L1645.38 1253.12 L1645.38 1257.05 Q1646.72 1254.74 1648.76 1253.63 Q1650.82 1252.49 1653.67 1252.49 Q1658.39 1252.49 1661.33 1256.24 Q1664.29 1259.99 1664.29 1266.1 Q1664.29 1272.21 1661.33 1275.96 Q1658.39 1279.71 1653.67 1279.71 Q1650.82 1279.71 1648.76 1278.6 Q1646.72 1277.47 1645.38 1275.15 M1659.87 1266.1 Q1659.87 1261.4 1657.93 1258.74 Q1656.01 1256.06 1652.63 1256.06 Q1649.25 1256.06 1647.3 1258.74 Q1645.38 1261.4 1645.38 1266.1 Q1645.38 1270.8 1647.3 1273.49 Q1649.25 1276.15 1652.63 1276.15 Q1656.01 1276.15 1657.93 1273.49 Q1659.87 1270.8 1659.87 1266.1 Z" fill="#000000" fill-rule="nonzero" fill-opacity="1" /><path clip-path="url(#clip140)" d="M1687.88 1253.88 L1687.88 1257.91 Q1686.08 1256.98 1684.13 1256.52 Q1682.19 1256.06 1680.1 1256.06 Q1676.93 1256.06 1675.34 1257.03 Q1673.76 1258 1673.76 1259.94 Q1673.76 1261.43 1674.9 1262.28 Q1676.03 1263.12 1679.46 1263.88 L1680.91 1264.2 Q1685.45 1265.18 1687.35 1266.96 Q1689.27 1268.72 1689.27 1271.89 Q1689.27 1275.5 1686.4 1277.61 Q1683.55 1279.71 1678.55 1279.71 Q1676.47 1279.71 1674.2 1279.3 Q1671.96 1278.9 1669.46 1278.09 L1669.46 1273.69 Q1671.82 1274.92 1674.11 1275.55 Q1676.4 1276.15 1678.65 1276.15 Q1681.66 1276.15 1683.28 1275.13 Q1684.9 1274.09 1684.9 1272.21 Q1684.9 1270.48 1683.72 1269.55 Q1682.56 1268.62 1678.6 1267.77 L1677.12 1267.42 Q1673.16 1266.59 1671.4 1264.87 Q1669.64 1263.14 1669.64 1260.13 Q1669.64 1256.47 1672.23 1254.48 Q1674.83 1252.49 1679.59 1252.49 Q1681.96 1252.49 1684.04 1252.84 Q1686.12 1253.19 1687.88 1253.88 Z" fill="#000000" fill-rule="nonzero" fill-opacity="1" /><path clip-path="url(#clip140)" d="M1706.1 1256.1 Q1702.67 1256.1 1700.68 1258.79 Q1698.69 1261.45 1698.69 1266.1 Q1698.69 1270.75 1700.66 1273.44 Q1702.65 1276.1 1706.1 1276.1 Q1709.5 1276.1 1711.49 1273.42 Q1713.48 1270.73 1713.48 1266.1 Q1713.48 1261.5 1711.49 1258.81 Q1709.5 1256.1 1706.1 1256.1 M1706.1 1252.49 Q1711.65 1252.49 1714.83 1256.1 Q1718 1259.71 1718 1266.1 Q1718 1272.47 1714.83 1276.1 Q1711.65 1279.71 1706.1 1279.71 Q1700.52 1279.71 1697.35 1276.1 Q1694.2 1272.47 1694.2 1266.1 Q1694.2 1259.71 1697.35 1256.1 Q1700.52 1252.49 1706.1 1252.49 Z" fill="#000000" fill-rule="nonzero" fill-opacity="1" /><path clip-path="url(#clip140)" d="M1746.61 1263.39 L1746.61 1279.04 L1742.35 1279.04 L1742.35 1263.53 Q1742.35 1259.85 1740.91 1258.02 Q1739.48 1256.19 1736.61 1256.19 Q1733.16 1256.19 1731.17 1258.39 Q1729.18 1260.59 1729.18 1264.39 L1729.18 1279.04 L1724.9 1279.04 L1724.9 1253.12 L1729.18 1253.12 L1729.18 1257.14 Q1730.71 1254.81 1732.77 1253.65 Q1734.85 1252.49 1737.56 1252.49 Q1742.03 1252.49 1744.32 1255.27 Q1746.61 1258.02 1746.61 1263.39 Z" fill="#000000" fill-rule="nonzero" fill-opacity="1" /><path clip-path="url(#clip140)" d="M1765.15 1256.1 Q1761.72 1256.1 1759.73 1258.79 Q1757.74 1261.45 1757.74 1266.1 Q1757.74 1270.75 1759.71 1273.44 Q1761.7 1276.1 1765.15 1276.1 Q1768.55 1276.1 1770.54 1273.42 Q1772.53 1270.73 1772.53 1266.1 Q1772.53 1261.5 1770.54 1258.81 Q1768.55 1256.1 1765.15 1256.1 M1765.15 1252.49 Q1770.71 1252.49 1773.88 1256.1 Q1777.05 1259.71 1777.05 1266.1 Q1777.05 1272.47 1773.88 1276.1 Q1770.71 1279.71 1765.15 1279.71 Q1759.57 1279.71 1756.4 1276.1 Q1753.25 1272.47 1753.25 1266.1 Q1753.25 1259.71 1756.4 1256.1 Q1759.57 1252.49 1765.15 1252.49 Z" fill="#000000" fill-rule="nonzero" fill-opacity="1" /><path clip-path="url(#clip140)" d="M1781.05 1253.12 L1785.57 1253.12 L1793.67 1274.87 L1801.77 1253.12 L1806.28 1253.12 L1796.56 1279.04 L1790.77 1279.04 L1781.05 1253.12 Z" fill="#000000" fill-rule="nonzero" fill-opacity="1" /><path clip-path="url(#clip140)" d="M1834.34 1265.01 L1834.34 1267.1 L1814.76 1267.1 Q1815.03 1271.5 1817.4 1273.81 Q1819.78 1276.1 1824.02 1276.1 Q1826.47 1276.1 1828.76 1275.5 Q1831.08 1274.9 1833.34 1273.69 L1833.34 1277.72 Q1831.05 1278.69 1828.65 1279.2 Q1826.24 1279.71 1823.76 1279.71 Q1817.56 1279.71 1813.92 1276.1 Q1810.31 1272.49 1810.31 1266.33 Q1810.31 1259.97 1813.74 1256.24 Q1817.19 1252.49 1823.02 1252.49 Q1828.25 1252.49 1831.28 1255.87 Q1834.34 1259.23 1834.34 1265.01 M1830.08 1263.76 Q1830.03 1260.27 1828.11 1258.19 Q1826.21 1256.1 1823.07 1256.1 Q1819.5 1256.1 1817.35 1258.12 Q1815.22 1260.13 1814.9 1263.79 L1830.08 1263.76 Z" fill="#000000" fill-rule="nonzero" fill-opacity="1" /><path clip-path="url(#clip140)" d="M1869.52 1243.02 L1869.52 1246.56 L1865.45 1246.56 Q1863.16 1246.56 1862.26 1247.49 Q1861.38 1248.42 1861.38 1250.82 L1861.38 1253.12 L1868.39 1253.12 L1868.39 1256.43 L1861.38 1256.43 L1861.38 1279.04 L1857.09 1279.04 L1857.09 1256.43 L1853.02 1256.43 L1853.02 1253.12 L1857.09 1253.12 L1857.09 1251.31 Q1857.09 1246.98 1859.11 1245.01 Q1861.12 1243.02 1865.5 1243.02 L1869.52 1243.02 Z" fill="#000000" fill-rule="nonzero" fill-opacity="1" /><path clip-path="url(#clip140)" d="M1883.14 1256.1 Q1879.71 1256.1 1877.72 1258.79 Q1875.73 1261.45 1875.73 1266.1 Q1875.73 1270.75 1877.7 1273.44 Q1879.69 1276.1 1883.14 1276.1 Q1886.54 1276.1 1888.53 1273.42 Q1890.52 1270.73 1890.52 1266.1 Q1890.52 1261.5 1888.53 1258.81 Q1886.54 1256.1 1883.14 1256.1 M1883.14 1252.49 Q1888.69 1252.49 1891.86 1256.1 Q1895.03 1259.71 1895.03 1266.1 Q1895.03 1272.47 1891.86 1276.1 Q1888.69 1279.71 1883.14 1279.71 Q1877.56 1279.71 1874.39 1276.1 Q1871.24 1272.47 1871.24 1266.1 Q1871.24 1259.71 1874.39 1256.1 Q1877.56 1252.49 1883.14 1252.49 Z" fill="#000000" fill-rule="nonzero" fill-opacity="1" /><path clip-path="url(#clip140)" d="M1917.12 1257.1 Q1916.4 1256.68 1915.54 1256.5 Q1914.71 1256.29 1913.69 1256.29 Q1910.08 1256.29 1908.14 1258.65 Q1906.21 1260.99 1906.21 1265.38 L1906.21 1279.04 L1901.93 1279.04 L1901.93 1253.12 L1906.21 1253.12 L1906.21 1257.14 Q1907.56 1254.78 1909.71 1253.65 Q1911.86 1252.49 1914.94 1252.49 Q1915.38 1252.49 1915.91 1252.56 Q1916.45 1252.61 1917.09 1252.72 L1917.12 1257.1 Z" fill="#000000" fill-rule="nonzero" fill-opacity="1" /><path clip-path="url(#clip140)" d="M1940.94 1258.09 Q1942.53 1255.22 1944.76 1253.86 Q1946.98 1252.49 1949.99 1252.49 Q1954.04 1252.49 1956.24 1255.34 Q1958.44 1258.16 1958.44 1263.39 L1958.44 1279.04 L1954.15 1279.04 L1954.15 1263.53 Q1954.15 1259.81 1952.83 1258 Q1951.51 1256.19 1948.81 1256.19 Q1945.5 1256.19 1943.57 1258.39 Q1941.65 1260.59 1941.65 1264.39 L1941.65 1279.04 L1937.37 1279.04 L1937.37 1263.53 Q1937.37 1259.78 1936.05 1258 Q1934.73 1256.19 1931.98 1256.19 Q1928.71 1256.19 1926.79 1258.42 Q1924.87 1260.62 1924.87 1264.39 L1924.87 1279.04 L1920.59 1279.04 L1920.59 1253.12 L1924.87 1253.12 L1924.87 1257.14 Q1926.33 1254.76 1928.37 1253.63 Q1930.4 1252.49 1933.2 1252.49 Q1936.03 1252.49 1938 1253.93 Q1939.99 1255.36 1940.94 1258.09 Z" fill="#000000" fill-rule="nonzero" fill-opacity="1" /><path clip-path="url(#clip140)" d="M1966.49 1268.81 L1966.49 1253.12 L1970.75 1253.12 L1970.75 1268.65 Q1970.75 1272.33 1972.19 1274.18 Q1973.62 1276.01 1976.49 1276.01 Q1979.94 1276.01 1981.93 1273.81 Q1983.95 1271.61 1983.95 1267.81 L1983.95 1253.12 L1988.2 1253.12 L1988.2 1279.04 L1983.95 1279.04 L1983.95 1275.06 Q1982.39 1277.42 1980.33 1278.58 Q1978.3 1279.71 1975.59 1279.71 Q1971.12 1279.71 1968.81 1276.94 Q1966.49 1274.16 1966.49 1268.81 M1977.21 1252.49 L1977.21 1252.49 Z" fill="#000000" fill-rule="nonzero" fill-opacity="1" /><path clip-path="url(#clip140)" d="M1996.98 1243.02 L2001.24 1243.02 L2001.24 1279.04 L1996.98 1279.04 L1996.98 1243.02 Z" fill="#000000" fill-rule="nonzero" fill-opacity="1" /><path clip-path="url(#clip140)" d="M2032.32 1265.01 L2032.32 1267.1 L2012.74 1267.1 Q2013.02 1271.5 2015.38 1273.81 Q2017.76 1276.1 2022 1276.1 Q2024.45 1276.1 2026.75 1275.5 Q2029.06 1274.9 2031.33 1273.69 L2031.33 1277.72 Q2029.04 1278.69 2026.63 1279.2 Q2024.22 1279.71 2021.75 1279.71 Q2015.54 1279.71 2011.91 1276.1 Q2008.3 1272.49 2008.3 1266.33 Q2008.3 1259.97 2011.72 1256.24 Q2015.17 1252.49 2021.01 1252.49 Q2026.24 1252.49 2029.27 1255.87 Q2032.32 1259.23 2032.32 1265.01 M2028.07 1263.76 Q2028.02 1260.27 2026.1 1258.19 Q2024.2 1256.1 2021.05 1256.1 Q2017.49 1256.1 2015.33 1258.12 Q2013.2 1260.13 2012.88 1263.79 L2028.07 1263.76 Z" fill="#000000" fill-rule="nonzero" fill-opacity="1" /><circle clip-path="url(#clip140)" cx="1270.41" cy="1313.6" r="20.48" fill="#3da44d" fill-rule="evenodd" fill-opacity="1" stroke="#000000" stroke-opacity="1" stroke-width="4.55111"/>
<path clip-path="url(#clip140)" d="M1384.39 1315.23 L1384.39 1330.88 L1380.13 1330.88 L1380.13 1315.37 Q1380.13 1311.69 1378.69 1309.86 Q1377.26 1308.03 1374.39 1308.03 Q1370.94 1308.03 1368.95 1310.23 Q1366.96 1312.43 1366.96 1316.23 L1366.96 1330.88 L1362.68 1330.88 L1362.68 1304.96 L1366.96 1304.96 L1366.96 1308.98 Q1368.49 1306.65 1370.55 1305.49 Q1372.63 1304.33 1375.34 1304.33 Q1379.8 1304.33 1382.1 1307.11 Q1384.39 1309.86 1384.39 1315.23 Z" fill="#000000" fill-rule="nonzero" fill-opacity="1" /><path clip-path="url(#clip140)" d="M1404.67 1317.85 Q1399.5 1317.85 1397.51 1319.03 Q1395.52 1320.21 1395.52 1323.06 Q1395.52 1325.33 1397 1326.67 Q1398.51 1327.99 1401.08 1327.99 Q1404.62 1327.99 1406.75 1325.49 Q1408.9 1322.96 1408.9 1318.8 L1408.9 1317.85 L1404.67 1317.85 M1413.16 1316.09 L1413.16 1330.88 L1408.9 1330.88 L1408.9 1326.95 Q1407.44 1329.31 1405.27 1330.44 Q1403.09 1331.55 1399.94 1331.55 Q1395.96 1331.55 1393.6 1329.33 Q1391.26 1327.09 1391.26 1323.34 Q1391.26 1318.96 1394.18 1316.74 Q1397.12 1314.52 1402.93 1314.52 L1408.9 1314.52 L1408.9 1314.1 Q1408.9 1311.16 1406.96 1309.56 Q1405.04 1307.94 1401.54 1307.94 Q1399.32 1307.94 1397.21 1308.47 Q1395.11 1309.01 1393.16 1310.07 L1393.16 1306.14 Q1395.5 1305.23 1397.7 1304.79 Q1399.9 1304.33 1401.98 1304.33 Q1407.61 1304.33 1410.38 1307.25 Q1413.16 1310.16 1413.16 1316.09 Z" fill="#000000" fill-rule="nonzero" fill-opacity="1" /><path clip-path="url(#clip140)" d="M1426.05 1326.99 L1426.05 1340.74 L1421.77 1340.74 L1421.77 1304.96 L1426.05 1304.96 L1426.05 1308.89 Q1427.4 1306.58 1429.43 1305.47 Q1431.49 1304.33 1434.34 1304.33 Q1439.06 1304.33 1442 1308.08 Q1444.97 1311.83 1444.97 1317.94 Q1444.97 1324.05 1442 1327.8 Q1439.06 1331.55 1434.34 1331.55 Q1431.49 1331.55 1429.43 1330.44 Q1427.4 1329.31 1426.05 1326.99 M1440.55 1317.94 Q1440.55 1313.24 1438.6 1310.58 Q1436.68 1307.9 1433.3 1307.9 Q1429.92 1307.9 1427.98 1310.58 Q1426.05 1313.24 1426.05 1317.94 Q1426.05 1322.64 1427.98 1325.33 Q1429.92 1327.99 1433.3 1327.99 Q1436.68 1327.99 1438.6 1325.33 Q1440.55 1322.64 1440.55 1317.94 Z" fill="#000000" fill-rule="nonzero" fill-opacity="1" /><path clip-path="url(#clip140)" d="M1463.81 1317.85 Q1458.65 1317.85 1456.66 1319.03 Q1454.67 1320.21 1454.67 1323.06 Q1454.67 1325.33 1456.15 1326.67 Q1457.65 1327.99 1460.22 1327.99 Q1463.76 1327.99 1465.89 1325.49 Q1468.05 1322.96 1468.05 1318.8 L1468.05 1317.85 L1463.81 1317.85 M1472.3 1316.09 L1472.3 1330.88 L1468.05 1330.88 L1468.05 1326.95 Q1466.59 1329.31 1464.41 1330.44 Q1462.23 1331.55 1459.09 1331.55 Q1455.11 1331.55 1452.74 1329.33 Q1450.41 1327.09 1450.41 1323.34 Q1450.41 1318.96 1453.32 1316.74 Q1456.26 1314.52 1462.07 1314.52 L1468.05 1314.52 L1468.05 1314.1 Q1468.05 1311.16 1466.1 1309.56 Q1464.18 1307.94 1460.68 1307.94 Q1458.46 1307.94 1456.36 1308.47 Q1454.25 1309.01 1452.3 1310.07 L1452.3 1306.14 Q1454.64 1305.23 1456.84 1304.79 Q1459.04 1304.33 1461.12 1304.33 Q1466.75 1304.33 1469.53 1307.25 Q1472.3 1310.16 1472.3 1316.09 Z" fill="#000000" fill-rule="nonzero" fill-opacity="1" /><path clip-path="url(#clip140)" d="M1480.92 1294.86 L1485.2 1294.86 L1485.2 1316.14 L1497.91 1304.96 L1503.35 1304.96 L1489.6 1317.09 L1503.92 1330.88 L1498.37 1330.88 L1485.2 1318.22 L1485.2 1330.88 L1480.92 1330.88 L1480.92 1294.86 Z" fill="#000000" fill-rule="nonzero" fill-opacity="1" /><path clip-path="url(#clip140)" d="M1519.48 1317.85 Q1514.32 1317.85 1512.33 1319.03 Q1510.34 1320.21 1510.34 1323.06 Q1510.34 1325.33 1511.82 1326.67 Q1513.32 1327.99 1515.89 1327.99 Q1519.43 1327.99 1521.56 1325.49 Q1523.72 1322.96 1523.72 1318.8 L1523.72 1317.85 L1519.48 1317.85 M1527.98 1316.09 L1527.98 1330.88 L1523.72 1330.88 L1523.72 1326.95 Q1522.26 1329.31 1520.08 1330.44 Q1517.91 1331.55 1514.76 1331.55 Q1510.78 1331.55 1508.42 1329.33 Q1506.08 1327.09 1506.08 1323.34 Q1506.08 1318.96 1508.99 1316.74 Q1511.93 1314.52 1517.74 1314.52 L1523.72 1314.52 L1523.72 1314.1 Q1523.72 1311.16 1521.77 1309.56 Q1519.85 1307.94 1516.36 1307.94 Q1514.13 1307.94 1512.03 1308.47 Q1509.92 1309.01 1507.98 1310.07 L1507.98 1306.14 Q1510.31 1305.23 1512.51 1304.79 Q1514.71 1304.33 1516.79 1304.33 Q1522.42 1304.33 1525.2 1307.25 Q1527.98 1310.16 1527.98 1316.09 Z" fill="#000000" fill-rule="nonzero" fill-opacity="1" /><path clip-path="url(#clip140)" d="M1575.57 1325.95 L1575.57 1316.67 L1567.93 1316.67 L1567.93 1312.83 L1580.2 1312.83 L1580.2 1327.66 Q1577.49 1329.59 1574.23 1330.58 Q1570.96 1331.55 1567.26 1331.55 Q1559.16 1331.55 1554.57 1326.83 Q1550.01 1322.09 1550.01 1313.64 Q1550.01 1305.16 1554.57 1300.44 Q1559.16 1295.7 1567.26 1295.7 Q1570.64 1295.7 1573.67 1296.53 Q1576.73 1297.36 1579.29 1298.98 L1579.29 1303.96 Q1576.7 1301.76 1573.79 1300.65 Q1570.87 1299.54 1567.65 1299.54 Q1561.31 1299.54 1558.11 1303.08 Q1554.94 1306.62 1554.94 1313.64 Q1554.94 1320.63 1558.11 1324.17 Q1561.31 1327.71 1567.65 1327.71 Q1570.13 1327.71 1572.07 1327.29 Q1574.02 1326.85 1575.57 1325.95 Z" fill="#000000" fill-rule="nonzero" fill-opacity="1" /><path clip-path="url(#clip140)" d="M1600.34 1317.85 Q1595.17 1317.85 1593.18 1319.03 Q1591.19 1320.21 1591.19 1323.06 Q1591.19 1325.33 1592.67 1326.67 Q1594.18 1327.99 1596.75 1327.99 Q1600.29 1327.99 1602.42 1325.49 Q1604.57 1322.96 1604.57 1318.8 L1604.57 1317.85 L1600.34 1317.85 M1608.83 1316.09 L1608.83 1330.88 L1604.57 1330.88 L1604.57 1326.95 Q1603.11 1329.31 1600.94 1330.44 Q1598.76 1331.55 1595.61 1331.55 Q1591.63 1331.55 1589.27 1329.33 Q1586.93 1327.09 1586.93 1323.34 Q1586.93 1318.96 1589.85 1316.74 Q1592.79 1314.52 1598.6 1314.52 L1604.57 1314.52 L1604.57 1314.1 Q1604.57 1311.16 1602.63 1309.56 Q1600.71 1307.94 1597.21 1307.94 Q1594.99 1307.94 1592.88 1308.47 Q1590.78 1309.01 1588.83 1310.07 L1588.83 1306.14 Q1591.17 1305.23 1593.37 1304.79 Q1595.57 1304.33 1597.65 1304.33 Q1603.28 1304.33 1606.05 1307.25 Q1608.83 1310.16 1608.83 1316.09 Z" fill="#000000" fill-rule="nonzero" fill-opacity="1" /><path clip-path="url(#clip140)" d="M1617.16 1320.65 L1617.16 1304.96 L1621.42 1304.96 L1621.42 1320.49 Q1621.42 1324.17 1622.86 1326.02 Q1624.29 1327.85 1627.16 1327.85 Q1630.61 1327.85 1632.6 1325.65 Q1634.62 1323.45 1634.62 1319.65 L1634.62 1304.96 L1638.88 1304.96 L1638.88 1330.88 L1634.62 1330.88 L1634.62 1326.9 Q1633.07 1329.26 1631.01 1330.42 Q1628.97 1331.55 1626.26 1331.55 Q1621.79 1331.55 1619.48 1328.78 Q1617.16 1326 1617.16 1320.65 M1627.88 1304.33 L1627.88 1304.33 Z" fill="#000000" fill-rule="nonzero" fill-opacity="1" /><path clip-path="url(#clip140)" d="M1664.18 1305.72 L1664.18 1309.75 Q1662.37 1308.82 1660.43 1308.36 Q1658.48 1307.9 1656.4 1307.9 Q1653.23 1307.9 1651.63 1308.87 Q1650.06 1309.84 1650.06 1311.78 Q1650.06 1313.27 1651.19 1314.12 Q1652.33 1314.96 1655.75 1315.72 L1657.21 1316.04 Q1661.75 1317.02 1663.65 1318.8 Q1665.57 1320.56 1665.57 1323.73 Q1665.57 1327.34 1662.7 1329.45 Q1659.85 1331.55 1654.85 1331.55 Q1652.77 1331.55 1650.5 1331.14 Q1648.25 1330.74 1645.75 1329.93 L1645.75 1325.53 Q1648.11 1326.76 1650.41 1327.39 Q1652.7 1327.99 1654.94 1327.99 Q1657.95 1327.99 1659.57 1326.97 Q1661.19 1325.93 1661.19 1324.05 Q1661.19 1322.32 1660.01 1321.39 Q1658.85 1320.46 1654.9 1319.61 L1653.41 1319.26 Q1649.46 1318.43 1647.7 1316.71 Q1645.94 1314.98 1645.94 1311.97 Q1645.94 1308.31 1648.53 1306.32 Q1651.12 1304.33 1655.89 1304.33 Q1658.25 1304.33 1660.34 1304.68 Q1662.42 1305.03 1664.18 1305.72 Z" fill="#000000" fill-rule="nonzero" fill-opacity="1" /><path clip-path="url(#clip140)" d="M1688.88 1305.72 L1688.88 1309.75 Q1687.07 1308.82 1685.13 1308.36 Q1683.18 1307.9 1681.1 1307.9 Q1677.93 1307.9 1676.33 1308.87 Q1674.76 1309.84 1674.76 1311.78 Q1674.76 1313.27 1675.89 1314.12 Q1677.03 1314.96 1680.45 1315.72 L1681.91 1316.04 Q1686.45 1317.02 1688.34 1318.8 Q1690.27 1320.56 1690.27 1323.73 Q1690.27 1327.34 1687.4 1329.45 Q1684.55 1331.55 1679.55 1331.55 Q1677.47 1331.55 1675.2 1331.14 Q1672.95 1330.74 1670.45 1329.93 L1670.45 1325.53 Q1672.81 1326.76 1675.1 1327.39 Q1677.4 1327.99 1679.64 1327.99 Q1682.65 1327.99 1684.27 1326.97 Q1685.89 1325.93 1685.89 1324.05 Q1685.89 1322.32 1684.71 1321.39 Q1683.55 1320.46 1679.59 1319.61 L1678.11 1319.26 Q1674.16 1318.43 1672.4 1316.71 Q1670.64 1314.98 1670.64 1311.97 Q1670.64 1308.31 1673.23 1306.32 Q1675.82 1304.33 1680.59 1304.33 Q1682.95 1304.33 1685.03 1304.68 Q1687.12 1305.03 1688.88 1305.72 Z" fill="#000000" fill-rule="nonzero" fill-opacity="1" /><path clip-path="url(#clip140)" d="M1694.9 1316 L1707.37 1316 L1707.37 1319.79 L1694.9 1319.79 L1694.9 1316 Z" fill="#000000" fill-rule="nonzero" fill-opacity="1" /><path clip-path="url(#clip140)" d="M1714.34 1296.32 L1719.02 1296.32 L1719.02 1326.95 L1735.84 1326.95 L1735.84 1330.88 L1714.34 1330.88 L1714.34 1296.32 Z" fill="#000000" fill-rule="nonzero" fill-opacity="1" /><path clip-path="url(#clip140)" d="M1761.91 1316.85 L1761.91 1318.94 L1742.33 1318.94 Q1742.6 1323.34 1744.96 1325.65 Q1747.35 1327.94 1751.59 1327.94 Q1754.04 1327.94 1756.33 1327.34 Q1758.65 1326.74 1760.91 1325.53 L1760.91 1329.56 Q1758.62 1330.53 1756.21 1331.04 Q1753.81 1331.55 1751.33 1331.55 Q1745.13 1331.55 1741.49 1327.94 Q1737.88 1324.33 1737.88 1318.17 Q1737.88 1311.81 1741.31 1308.08 Q1744.76 1304.33 1750.59 1304.33 Q1755.82 1304.33 1758.85 1307.71 Q1761.91 1311.07 1761.91 1316.85 M1757.65 1315.6 Q1757.6 1312.11 1755.68 1310.03 Q1753.78 1307.94 1750.64 1307.94 Q1747.07 1307.94 1744.92 1309.96 Q1742.79 1311.97 1742.46 1315.63 L1757.65 1315.6 Z" fill="#000000" fill-rule="nonzero" fill-opacity="1" /><path clip-path="url(#clip140)" d="M1785.96 1317.62 Q1785.96 1312.99 1784.04 1310.44 Q1782.14 1307.9 1778.69 1307.9 Q1775.27 1307.9 1773.34 1310.44 Q1771.45 1312.99 1771.45 1317.62 Q1771.45 1322.22 1773.34 1324.77 Q1775.27 1327.32 1778.69 1327.32 Q1782.14 1327.32 1784.04 1324.77 Q1785.96 1322.22 1785.96 1317.62 M1790.22 1327.66 Q1790.22 1334.28 1787.28 1337.5 Q1784.34 1340.74 1778.27 1340.74 Q1776.03 1340.74 1774.04 1340.4 Q1772.05 1340.07 1770.17 1339.38 L1770.17 1335.23 Q1772.05 1336.25 1773.88 1336.74 Q1775.71 1337.22 1777.6 1337.22 Q1781.79 1337.22 1783.88 1335.03 Q1785.96 1332.85 1785.96 1328.43 L1785.96 1326.32 Q1784.64 1328.61 1782.58 1329.75 Q1780.52 1330.88 1777.65 1330.88 Q1772.88 1330.88 1769.96 1327.25 Q1767.05 1323.61 1767.05 1317.62 Q1767.05 1311.6 1769.96 1307.97 Q1772.88 1304.33 1777.65 1304.33 Q1780.52 1304.33 1782.58 1305.47 Q1784.64 1306.6 1785.96 1308.89 L1785.96 1304.96 L1790.22 1304.96 L1790.22 1327.66 Z" fill="#000000" fill-rule="nonzero" fill-opacity="1" /><path clip-path="url(#clip140)" d="M1821.17 1316.85 L1821.17 1318.94 L1801.58 1318.94 Q1801.86 1323.34 1804.22 1325.65 Q1806.61 1327.94 1810.84 1327.94 Q1813.3 1327.94 1815.59 1327.34 Q1817.9 1326.74 1820.17 1325.53 L1820.17 1329.56 Q1817.88 1330.53 1815.47 1331.04 Q1813.07 1331.55 1810.59 1331.55 Q1804.39 1331.55 1800.75 1327.94 Q1797.14 1324.33 1797.14 1318.17 Q1797.14 1311.81 1800.57 1308.08 Q1804.02 1304.33 1809.85 1304.33 Q1815.08 1304.33 1818.11 1307.71 Q1821.17 1311.07 1821.17 1316.85 M1816.91 1315.6 Q1816.86 1312.11 1814.94 1310.03 Q1813.04 1307.94 1809.9 1307.94 Q1806.33 1307.94 1804.18 1309.96 Q1802.05 1311.97 1801.72 1315.63 L1816.91 1315.6 Z" fill="#000000" fill-rule="nonzero" fill-opacity="1" /><path clip-path="url(#clip140)" d="M1849.71 1315.23 L1849.71 1330.88 L1845.45 1330.88 L1845.45 1315.37 Q1845.45 1311.69 1844.02 1309.86 Q1842.58 1308.03 1839.71 1308.03 Q1836.26 1308.03 1834.27 1310.23 Q1832.28 1312.43 1832.28 1316.23 L1832.28 1330.88 L1828 1330.88 L1828 1304.96 L1832.28 1304.96 L1832.28 1308.98 Q1833.81 1306.65 1835.87 1305.49 Q1837.95 1304.33 1840.66 1304.33 Q1845.13 1304.33 1847.42 1307.11 Q1849.71 1309.86 1849.71 1315.23 Z" fill="#000000" fill-rule="nonzero" fill-opacity="1" /><path clip-path="url(#clip140)" d="M1875.27 1308.89 L1875.27 1294.86 L1879.52 1294.86 L1879.52 1330.88 L1875.27 1330.88 L1875.27 1326.99 Q1873.92 1329.31 1871.86 1330.44 Q1869.83 1331.55 1866.95 1331.55 Q1862.26 1331.55 1859.29 1327.8 Q1856.35 1324.05 1856.35 1317.94 Q1856.35 1311.83 1859.29 1308.08 Q1862.26 1304.33 1866.95 1304.33 Q1869.83 1304.33 1871.86 1305.47 Q1873.92 1306.58 1875.27 1308.89 M1860.75 1317.94 Q1860.75 1322.64 1862.67 1325.33 Q1864.62 1327.99 1868 1327.99 Q1871.38 1327.99 1873.32 1325.33 Q1875.27 1322.64 1875.27 1317.94 Q1875.27 1313.24 1873.32 1310.58 Q1871.38 1307.9 1868 1307.9 Q1864.62 1307.9 1862.67 1310.58 Q1860.75 1313.24 1860.75 1317.94 Z" fill="#000000" fill-rule="nonzero" fill-opacity="1" /><path clip-path="url(#clip140)" d="M1903.32 1308.94 Q1902.6 1308.52 1901.75 1308.34 Q1900.91 1308.13 1899.89 1308.13 Q1896.28 1308.13 1894.34 1310.49 Q1892.42 1312.83 1892.42 1317.22 L1892.42 1330.88 L1888.14 1330.88 L1888.14 1304.96 L1892.42 1304.96 L1892.42 1308.98 Q1893.76 1306.62 1895.91 1305.49 Q1898.07 1304.33 1901.14 1304.33 Q1901.58 1304.33 1902.12 1304.4 Q1902.65 1304.45 1903.3 1304.56 L1903.32 1308.94 Z" fill="#000000" fill-rule="nonzero" fill-opacity="1" /><path clip-path="url(#clip140)" d="M1916.79 1307.94 Q1913.37 1307.94 1911.38 1310.63 Q1909.39 1313.29 1909.39 1317.94 Q1909.39 1322.59 1911.35 1325.28 Q1913.34 1327.94 1916.79 1327.94 Q1920.2 1327.94 1922.19 1325.26 Q1924.18 1322.57 1924.18 1317.94 Q1924.18 1313.34 1922.19 1310.65 Q1920.2 1307.94 1916.79 1307.94 M1916.79 1304.33 Q1922.35 1304.33 1925.52 1307.94 Q1928.69 1311.55 1928.69 1317.94 Q1928.69 1324.31 1925.52 1327.94 Q1922.35 1331.55 1916.79 1331.55 Q1911.21 1331.55 1908.04 1327.94 Q1904.89 1324.31 1904.89 1317.94 Q1904.89 1311.55 1908.04 1307.94 Q1911.21 1304.33 1916.79 1304.33 Z" fill="#000000" fill-rule="nonzero" fill-opacity="1" /><path clip-path="url(#clip140)" d="M1932.7 1304.96 L1937.21 1304.96 L1945.31 1326.71 L1953.41 1304.96 L1957.93 1304.96 L1948.2 1330.88 L1942.42 1330.88 L1932.7 1304.96 Z" fill="#000000" fill-rule="nonzero" fill-opacity="1" /><path clip-path="url(#clip140)" d="M1985.98 1316.85 L1985.98 1318.94 L1966.4 1318.94 Q1966.68 1323.34 1969.04 1325.65 Q1971.42 1327.94 1975.66 1327.94 Q1978.11 1327.94 1980.4 1327.34 Q1982.72 1326.74 1984.99 1325.53 L1984.99 1329.56 Q1982.7 1330.53 1980.29 1331.04 Q1977.88 1331.55 1975.4 1331.55 Q1969.2 1331.55 1965.57 1327.94 Q1961.95 1324.33 1961.95 1318.17 Q1961.95 1311.81 1965.38 1308.08 Q1968.83 1304.33 1974.66 1304.33 Q1979.89 1304.33 1982.93 1307.71 Q1985.98 1311.07 1985.98 1316.85 M1981.72 1315.6 Q1981.68 1312.11 1979.76 1310.03 Q1977.86 1307.94 1974.71 1307.94 Q1971.14 1307.94 1968.99 1309.96 Q1966.86 1311.97 1966.54 1315.63 L1981.72 1315.6 Z" fill="#000000" fill-rule="nonzero" fill-opacity="1" /><path clip-path="url(#clip140)" d="M2007.88 1294.86 L2012.16 1294.86 L2012.16 1316.14 L2024.87 1304.96 L2030.31 1304.96 L2016.56 1317.09 L2030.89 1330.88 L2025.33 1330.88 L2012.16 1318.22 L2012.16 1330.88 L2007.88 1330.88 L2007.88 1294.86 Z" fill="#000000" fill-rule="nonzero" fill-opacity="1" /><path clip-path="url(#clip140)" d="M2032.44 1304.96 L2036.95 1304.96 L2045.06 1326.71 L2053.16 1304.96 L2057.67 1304.96 L2047.95 1330.88 L2042.16 1330.88 L2032.44 1304.96 Z" fill="#000000" fill-rule="nonzero" fill-opacity="1" /><path clip-path="url(#clip140)" d="M2075.33 1317.85 Q2070.17 1317.85 2068.18 1319.03 Q2066.19 1320.21 2066.19 1323.06 Q2066.19 1325.33 2067.67 1326.67 Q2069.18 1327.99 2071.75 1327.99 Q2075.29 1327.99 2077.42 1325.49 Q2079.57 1322.96 2079.57 1318.8 L2079.57 1317.85 L2075.33 1317.85 M2083.83 1316.09 L2083.83 1330.88 L2079.57 1330.88 L2079.57 1326.95 Q2078.11 1329.31 2075.94 1330.44 Q2073.76 1331.55 2070.61 1331.55 Q2066.63 1331.55 2064.27 1329.33 Q2061.93 1327.09 2061.93 1323.34 Q2061.93 1318.96 2064.85 1316.74 Q2067.79 1314.52 2073.6 1314.52 L2079.57 1314.52 L2079.57 1314.1 Q2079.57 1311.16 2077.63 1309.56 Q2075.7 1307.94 2072.21 1307.94 Q2069.99 1307.94 2067.88 1308.47 Q2065.77 1309.01 2063.83 1310.07 L2063.83 1306.14 Q2066.17 1305.23 2068.37 1304.79 Q2070.57 1304.33 2072.65 1304.33 Q2078.27 1304.33 2081.05 1307.25 Q2083.83 1310.16 2083.83 1316.09 Z" fill="#000000" fill-rule="nonzero" fill-opacity="1" /><path clip-path="url(#clip140)" d="M2109.66 1308.89 L2109.66 1294.86 L2113.92 1294.86 L2113.92 1330.88 L2109.66 1330.88 L2109.66 1326.99 Q2108.32 1329.31 2106.26 1330.44 Q2104.22 1331.55 2101.35 1331.55 Q2096.65 1331.55 2093.69 1327.8 Q2090.75 1324.05 2090.75 1317.94 Q2090.75 1311.83 2093.69 1308.08 Q2096.65 1304.33 2101.35 1304.33 Q2104.22 1304.33 2106.26 1305.47 Q2108.32 1306.58 2109.66 1308.89 M2095.15 1317.94 Q2095.15 1322.64 2097.07 1325.33 Q2099.01 1327.99 2102.39 1327.99 Q2105.77 1327.99 2107.72 1325.33 Q2109.66 1322.64 2109.66 1317.94 Q2109.66 1313.24 2107.72 1310.58 Q2105.77 1307.9 2102.39 1307.9 Q2099.01 1307.9 2097.07 1310.58 Q2095.15 1313.24 2095.15 1317.94 Z" fill="#000000" fill-rule="nonzero" fill-opacity="1" /><path clip-path="url(#clip140)" d="M2137.72 1308.94 Q2137 1308.52 2136.14 1308.34 Q2135.31 1308.13 2134.29 1308.13 Q2130.68 1308.13 2128.74 1310.49 Q2126.81 1312.83 2126.81 1317.22 L2126.81 1330.88 L2122.53 1330.88 L2122.53 1304.96 L2126.81 1304.96 L2126.81 1308.98 Q2128.16 1306.62 2130.31 1305.49 Q2132.46 1304.33 2135.54 1304.33 Q2135.98 1304.33 2136.51 1304.4 Q2137.05 1304.45 2137.69 1304.56 L2137.72 1308.94 Z" fill="#000000" fill-rule="nonzero" fill-opacity="1" /><path clip-path="url(#clip140)" d="M2153.97 1317.85 Q2148.81 1317.85 2146.81 1319.03 Q2144.82 1320.21 2144.82 1323.06 Q2144.82 1325.33 2146.31 1326.67 Q2147.81 1327.99 2150.38 1327.99 Q2153.92 1327.99 2156.05 1325.49 Q2158.2 1322.96 2158.2 1318.8 L2158.2 1317.85 L2153.97 1317.85 M2162.46 1316.09 L2162.46 1330.88 L2158.2 1330.88 L2158.2 1326.95 Q2156.75 1329.31 2154.57 1330.44 Q2152.39 1331.55 2149.25 1331.55 Q2145.26 1331.55 2142.9 1329.33 Q2140.56 1327.09 2140.56 1323.34 Q2140.56 1318.96 2143.48 1316.74 Q2146.42 1314.52 2152.23 1314.52 L2158.2 1314.52 L2158.2 1314.1 Q2158.2 1311.16 2156.26 1309.56 Q2154.34 1307.94 2150.84 1307.94 Q2148.62 1307.94 2146.51 1308.47 Q2144.41 1309.01 2142.46 1310.07 L2142.46 1306.14 Q2144.8 1305.23 2147 1304.79 Q2149.2 1304.33 2151.28 1304.33 Q2156.91 1304.33 2159.68 1307.25 Q2162.46 1310.16 2162.46 1316.09 Z" fill="#000000" fill-rule="nonzero" fill-opacity="1" /><path clip-path="url(#clip140)" d="M2175.45 1297.59 L2175.45 1304.96 L2184.22 1304.96 L2184.22 1308.27 L2175.45 1308.27 L2175.45 1322.34 Q2175.45 1325.51 2176.31 1326.41 Q2177.18 1327.32 2179.85 1327.32 L2184.22 1327.32 L2184.22 1330.88 L2179.85 1330.88 Q2174.92 1330.88 2173.04 1329.05 Q2171.17 1327.2 2171.17 1322.34 L2171.17 1308.27 L2168.04 1308.27 L2168.04 1304.96 L2171.17 1304.96 L2171.17 1297.59 L2175.45 1297.59 Z" fill="#000000" fill-rule="nonzero" fill-opacity="1" /><path clip-path="url(#clip140)" d="M2189.38 1320.65 L2189.38 1304.96 L2193.64 1304.96 L2193.64 1320.49 Q2193.64 1324.17 2195.08 1326.02 Q2196.51 1327.85 2199.38 1327.85 Q2202.83 1327.85 2204.82 1325.65 Q2206.84 1323.45 2206.84 1319.65 L2206.84 1304.96 L2211.1 1304.96 L2211.1 1330.88 L2206.84 1330.88 L2206.84 1326.9 Q2205.29 1329.26 2203.23 1330.42 Q2201.19 1331.55 2198.48 1331.55 Q2194.01 1331.55 2191.7 1328.78 Q2189.38 1326 2189.38 1320.65 M2200.1 1304.33 L2200.1 1304.33 Z" fill="#000000" fill-rule="nonzero" fill-opacity="1" /><path clip-path="url(#clip140)" d="M2234.89 1308.94 Q2234.18 1308.52 2233.32 1308.34 Q2232.49 1308.13 2231.47 1308.13 Q2227.86 1308.13 2225.91 1310.49 Q2223.99 1312.83 2223.99 1317.22 L2223.99 1330.88 L2219.71 1330.88 L2219.71 1304.96 L2223.99 1304.96 L2223.99 1308.98 Q2225.33 1306.62 2227.49 1305.49 Q2229.64 1304.33 2232.72 1304.33 Q2233.16 1304.33 2233.69 1304.4 Q2234.22 1304.45 2234.87 1304.56 L2234.89 1308.94 Z" fill="#000000" fill-rule="nonzero" fill-opacity="1" /><path clip-path="url(#clip140)" d="M2260.49 1316.85 L2260.49 1318.94 L2240.91 1318.94 Q2241.19 1323.34 2243.55 1325.65 Q2245.93 1327.94 2250.17 1327.94 Q2252.62 1327.94 2254.92 1327.34 Q2257.23 1326.74 2259.5 1325.53 L2259.5 1329.56 Q2257.21 1330.53 2254.8 1331.04 Q2252.39 1331.55 2249.92 1331.55 Q2243.71 1331.55 2240.08 1327.94 Q2236.47 1324.33 2236.47 1318.17 Q2236.47 1311.81 2239.89 1308.08 Q2243.34 1304.33 2249.18 1304.33 Q2254.41 1304.33 2257.44 1307.71 Q2260.49 1311.07 2260.49 1316.85 M2256.24 1315.6 Q2256.19 1312.11 2254.27 1310.03 Q2252.37 1307.94 2249.22 1307.94 Q2245.66 1307.94 2243.5 1309.96 Q2241.37 1311.97 2241.05 1315.63 L2256.24 1315.6 Z" fill="#000000" fill-rule="nonzero" fill-opacity="1" /></svg>
