<?xml version="1.0" encoding="utf-8"?>
<svg xmlns="http://www.w3.org/2000/svg" xmlns:xlink="http://www.w3.org/1999/xlink" width="600" height="400" viewBox="0 0 2400 1600">
<defs>
  <clipPath id="clip780">
    <rect x="0" y="0" width="2400" height="1600"/>
  </clipPath>
</defs>
<path clip-path="url(#clip780)" d="M0 1600 L2400 1600 L2400 0 L0 0  Z" fill="#ffffff" fill-rule="evenodd" fill-opacity="1"/>
<defs>
  <clipPath id="clip781">
    <rect x="480" y="0" width="1681" height="1600"/>
  </clipPath>
</defs>
<path clip-path="url(#clip780)" d="M216.922 1486.45 L2352.76 1486.45 L2352.76 47.2441 L216.922 47.2441  Z" fill="#ffffff" fill-rule="evenodd" fill-opacity="1"/>
<defs>
  <clipPath id="clip782">
    <rect x="216" y="47" width="2137" height="1440"/>
  </clipPath>
</defs>
<polyline clip-path="url(#clip782)" style="stroke:#000000; stroke-linecap:round; stroke-linejoin:round; stroke-width:2; stroke-opacity:0.1; fill:none" points="618.266,1486.45 618.266,47.2441 "/>
<polyline clip-path="url(#clip782)" style="stroke:#000000; stroke-linecap:round; stroke-linejoin:round; stroke-width:2; stroke-opacity:0.1; fill:none" points="1024.09,1486.45 1024.09,47.2441 "/>
<polyline clip-path="url(#clip782)" style="stroke:#000000; stroke-linecap:round; stroke-linejoin:round; stroke-width:2; stroke-opacity:0.1; fill:none" points="1429.92,1486.45 1429.92,47.2441 "/>
<polyline clip-path="url(#clip782)" style="stroke:#000000; stroke-linecap:round; stroke-linejoin:round; stroke-width:2; stroke-opacity:0.1; fill:none" points="1835.75,1486.45 1835.75,47.2441 "/>
<polyline clip-path="url(#clip782)" style="stroke:#000000; stroke-linecap:round; stroke-linejoin:round; stroke-width:2; stroke-opacity:0.1; fill:none" points="2241.58,1486.45 2241.58,47.2441 "/>
<polyline clip-path="url(#clip782)" style="stroke:#000000; stroke-linecap:round; stroke-linejoin:round; stroke-width:2; stroke-opacity:0.1; fill:none" points="216.922,1468.63 2352.76,1468.63 "/>
<polyline clip-path="url(#clip782)" style="stroke:#000000; stroke-linecap:round; stroke-linejoin:round; stroke-width:2; stroke-opacity:0.1; fill:none" points="216.922,1161.63 2352.76,1161.63 "/>
<polyline clip-path="url(#clip782)" style="stroke:#000000; stroke-linecap:round; stroke-linejoin:round; stroke-width:2; stroke-opacity:0.1; fill:none" points="216.922,854.631 2352.76,854.631 "/>
<polyline clip-path="url(#clip782)" style="stroke:#000000; stroke-linecap:round; stroke-linejoin:round; stroke-width:2; stroke-opacity:0.1; fill:none" points="216.922,547.631 2352.76,547.631 "/>
<polyline clip-path="url(#clip782)" style="stroke:#000000; stroke-linecap:round; stroke-linejoin:round; stroke-width:2; stroke-opacity:0.1; fill:none" points="216.922,240.631 2352.76,240.631 "/>
<polyline clip-path="url(#clip780)" style="stroke:#000000; stroke-linecap:round; stroke-linejoin:round; stroke-width:4; stroke-opacity:1; fill:none" points="216.922,1486.45 2352.76,1486.45 "/>
<polyline clip-path="url(#clip780)" style="stroke:#000000; stroke-linecap:round; stroke-linejoin:round; stroke-width:4; stroke-opacity:1; fill:none" points="618.266,1486.45 618.266,1467.55 "/>
<polyline clip-path="url(#clip780)" style="stroke:#000000; stroke-linecap:round; stroke-linejoin:round; stroke-width:4; stroke-opacity:1; fill:none" points="1024.09,1486.45 1024.09,1467.55 "/>
<polyline clip-path="url(#clip780)" style="stroke:#000000; stroke-linecap:round; stroke-linejoin:round; stroke-width:4; stroke-opacity:1; fill:none" points="1429.92,1486.45 1429.92,1467.55 "/>
<polyline clip-path="url(#clip780)" style="stroke:#000000; stroke-linecap:round; stroke-linejoin:round; stroke-width:4; stroke-opacity:1; fill:none" points="1835.75,1486.45 1835.75,1467.55 "/>
<polyline clip-path="url(#clip780)" style="stroke:#000000; stroke-linecap:round; stroke-linejoin:round; stroke-width:4; stroke-opacity:1; fill:none" points="2241.58,1486.45 2241.58,1467.55 "/>
<path clip-path="url(#clip780)" d="M581.958 1544.91 L598.278 1544.91 L598.278 1548.85 L576.333 1548.85 L576.333 1544.91 Q578.995 1542.16 583.579 1537.53 Q588.185 1532.88 589.366 1531.53 Q591.611 1529.01 592.491 1527.27 Q593.393 1525.51 593.393 1523.82 Q593.393 1521.07 591.449 1519.33 Q589.528 1517.6 586.426 1517.6 Q584.227 1517.6 581.773 1518.36 Q579.343 1519.13 576.565 1520.68 L576.565 1515.95 Q579.389 1514.82 581.842 1514.24 Q584.296 1513.66 586.333 1513.66 Q591.704 1513.66 594.898 1516.35 Q598.092 1519.03 598.092 1523.52 Q598.092 1525.65 597.282 1527.57 Q596.495 1529.47 594.389 1532.07 Q593.81 1532.74 590.708 1535.95 Q587.606 1539.15 581.958 1544.91 Z" fill="#000000" fill-rule="nonzero" fill-opacity="1" /><path clip-path="url(#clip780)" d="M618.092 1517.37 Q614.481 1517.37 612.653 1520.93 Q610.847 1524.47 610.847 1531.6 Q610.847 1538.71 612.653 1542.27 Q614.481 1545.82 618.092 1545.82 Q621.727 1545.82 623.532 1542.27 Q625.361 1538.71 625.361 1531.6 Q625.361 1524.47 623.532 1520.93 Q621.727 1517.37 618.092 1517.37 M618.092 1513.66 Q623.902 1513.66 626.958 1518.27 Q630.037 1522.85 630.037 1531.6 Q630.037 1540.33 626.958 1544.94 Q623.902 1549.52 618.092 1549.52 Q612.282 1549.52 609.203 1544.94 Q606.148 1540.33 606.148 1531.6 Q606.148 1522.85 609.203 1518.27 Q612.282 1513.66 618.092 1513.66 Z" fill="#000000" fill-rule="nonzero" fill-opacity="1" /><path clip-path="url(#clip780)" d="M648.254 1517.37 Q644.643 1517.37 642.814 1520.93 Q641.009 1524.47 641.009 1531.6 Q641.009 1538.71 642.814 1542.27 Q644.643 1545.82 648.254 1545.82 Q651.888 1545.82 653.694 1542.27 Q655.523 1538.71 655.523 1531.6 Q655.523 1524.47 653.694 1520.93 Q651.888 1517.37 648.254 1517.37 M648.254 1513.66 Q654.064 1513.66 657.12 1518.27 Q660.199 1522.85 660.199 1531.6 Q660.199 1540.33 657.12 1544.94 Q654.064 1549.52 648.254 1549.52 Q642.444 1549.52 639.365 1544.94 Q636.31 1540.33 636.31 1531.6 Q636.31 1522.85 639.365 1518.27 Q642.444 1513.66 648.254 1513.66 Z" fill="#000000" fill-rule="nonzero" fill-opacity="1" /><path clip-path="url(#clip780)" d="M997.185 1518.36 L985.379 1536.81 L997.185 1536.81 L997.185 1518.36 M995.958 1514.29 L1001.84 1514.29 L1001.84 1536.81 L1006.77 1536.81 L1006.77 1540.7 L1001.84 1540.7 L1001.84 1548.85 L997.185 1548.85 L997.185 1540.7 L981.583 1540.7 L981.583 1536.19 L995.958 1514.29 Z" fill="#000000" fill-rule="nonzero" fill-opacity="1" /><path clip-path="url(#clip780)" d="M1024.5 1517.37 Q1020.89 1517.37 1019.06 1520.93 Q1017.25 1524.47 1017.25 1531.6 Q1017.25 1538.71 1019.06 1542.27 Q1020.89 1545.82 1024.5 1545.82 Q1028.13 1545.82 1029.94 1542.27 Q1031.77 1538.71 1031.77 1531.6 Q1031.77 1524.47 1029.94 1520.93 Q1028.13 1517.37 1024.5 1517.37 M1024.5 1513.66 Q1030.31 1513.66 1033.37 1518.27 Q1036.44 1522.85 1036.44 1531.6 Q1036.44 1540.33 1033.37 1544.94 Q1030.31 1549.52 1024.5 1549.52 Q1018.69 1549.52 1015.61 1544.94 Q1012.55 1540.33 1012.55 1531.6 Q1012.55 1522.85 1015.61 1518.27 Q1018.69 1513.66 1024.5 1513.66 Z" fill="#000000" fill-rule="nonzero" fill-opacity="1" /><path clip-path="url(#clip780)" d="M1054.66 1517.37 Q1051.05 1517.37 1049.22 1520.93 Q1047.42 1524.47 1047.42 1531.6 Q1047.42 1538.71 1049.22 1542.27 Q1051.05 1545.82 1054.66 1545.82 Q1058.3 1545.82 1060.1 1542.27 Q1061.93 1538.71 1061.93 1531.6 Q1061.93 1524.47 1060.1 1520.93 Q1058.3 1517.37 1054.66 1517.37 M1054.66 1513.66 Q1060.47 1513.66 1063.53 1518.27 Q1066.61 1522.85 1066.61 1531.6 Q1066.61 1540.33 1063.53 1544.94 Q1060.47 1549.52 1054.66 1549.52 Q1048.85 1549.52 1045.77 1544.94 Q1042.72 1540.33 1042.72 1531.6 Q1042.72 1522.85 1045.77 1518.27 Q1048.85 1513.66 1054.66 1513.66 Z" fill="#000000" fill-rule="nonzero" fill-opacity="1" /><path clip-path="url(#clip780)" d="M1400.25 1529.7 Q1397.1 1529.7 1395.25 1531.86 Q1393.42 1534.01 1393.42 1537.76 Q1393.42 1541.49 1395.25 1543.66 Q1397.1 1545.82 1400.25 1545.82 Q1403.39 1545.82 1405.22 1543.66 Q1407.08 1541.49 1407.08 1537.76 Q1407.08 1534.01 1405.22 1531.86 Q1403.39 1529.7 1400.25 1529.7 M1409.53 1515.05 L1409.53 1519.31 Q1407.77 1518.48 1405.96 1518.04 Q1404.18 1517.6 1402.42 1517.6 Q1397.79 1517.6 1395.34 1520.72 Q1392.91 1523.85 1392.56 1530.17 Q1393.93 1528.15 1395.99 1527.09 Q1398.05 1526 1400.52 1526 Q1405.73 1526 1408.74 1529.17 Q1411.77 1532.32 1411.77 1537.76 Q1411.77 1543.08 1408.63 1546.3 Q1405.48 1549.52 1400.25 1549.52 Q1394.25 1549.52 1391.08 1544.94 Q1387.91 1540.33 1387.91 1531.6 Q1387.91 1523.41 1391.8 1518.55 Q1395.69 1513.66 1402.24 1513.66 Q1404 1513.66 1405.78 1514.01 Q1407.58 1514.36 1409.53 1515.05 Z" fill="#000000" fill-rule="nonzero" fill-opacity="1" /><path clip-path="url(#clip780)" d="M1429.83 1517.37 Q1426.22 1517.37 1424.39 1520.93 Q1422.58 1524.47 1422.58 1531.6 Q1422.58 1538.71 1424.39 1542.27 Q1426.22 1545.82 1429.83 1545.82 Q1433.46 1545.82 1435.27 1542.27 Q1437.1 1538.71 1437.1 1531.6 Q1437.1 1524.47 1435.27 1520.93 Q1433.46 1517.37 1429.83 1517.37 M1429.83 1513.66 Q1435.64 1513.66 1438.7 1518.27 Q1441.77 1522.85 1441.77 1531.6 Q1441.77 1540.33 1438.7 1544.94 Q1435.64 1549.52 1429.83 1549.52 Q1424.02 1549.52 1420.94 1544.94 Q1417.89 1540.33 1417.89 1531.6 Q1417.89 1522.85 1420.94 1518.27 Q1424.02 1513.66 1429.83 1513.66 Z" fill="#000000" fill-rule="nonzero" fill-opacity="1" /><path clip-path="url(#clip780)" d="M1459.99 1517.37 Q1456.38 1517.37 1454.55 1520.93 Q1452.75 1524.47 1452.75 1531.6 Q1452.75 1538.71 1454.55 1542.27 Q1456.38 1545.82 1459.99 1545.82 Q1463.63 1545.82 1465.43 1542.27 Q1467.26 1538.71 1467.26 1531.6 Q1467.26 1524.47 1465.43 1520.93 Q1463.63 1517.37 1459.99 1517.37 M1459.99 1513.66 Q1465.8 1513.66 1468.86 1518.27 Q1471.94 1522.85 1471.94 1531.6 Q1471.94 1540.33 1468.86 1544.94 Q1465.8 1549.52 1459.99 1549.52 Q1454.18 1549.52 1451.1 1544.94 Q1448.05 1540.33 1448.05 1531.6 Q1448.05 1522.85 1451.1 1518.27 Q1454.18 1513.66 1459.99 1513.66 Z" fill="#000000" fill-rule="nonzero" fill-opacity="1" /><path clip-path="url(#clip780)" d="M1805.54 1532.44 Q1802.21 1532.44 1800.29 1534.22 Q1798.39 1536 1798.39 1539.13 Q1798.39 1542.25 1800.29 1544.03 Q1802.21 1545.82 1805.54 1545.82 Q1808.88 1545.82 1810.8 1544.03 Q1812.72 1542.23 1812.72 1539.13 Q1812.72 1536 1810.8 1534.22 Q1808.9 1532.44 1805.54 1532.44 M1800.87 1530.45 Q1797.86 1529.7 1796.17 1527.64 Q1794.5 1525.58 1794.5 1522.62 Q1794.5 1518.48 1797.44 1516.07 Q1800.4 1513.66 1805.54 1513.66 Q1810.7 1513.66 1813.64 1516.07 Q1816.58 1518.48 1816.58 1522.62 Q1816.58 1525.58 1814.89 1527.64 Q1813.23 1529.7 1810.24 1530.45 Q1813.62 1531.23 1815.5 1533.52 Q1817.39 1535.82 1817.39 1539.13 Q1817.39 1544.15 1814.32 1546.83 Q1811.26 1549.52 1805.54 1549.52 Q1799.83 1549.52 1796.75 1546.83 Q1793.69 1544.15 1793.69 1539.13 Q1793.69 1535.82 1795.59 1533.52 Q1797.49 1531.23 1800.87 1530.45 M1799.15 1523.06 Q1799.15 1525.75 1800.82 1527.25 Q1802.51 1528.76 1805.54 1528.76 Q1808.55 1528.76 1810.24 1527.25 Q1811.95 1525.75 1811.95 1523.06 Q1811.95 1520.38 1810.24 1518.87 Q1808.55 1517.37 1805.54 1517.37 Q1802.51 1517.37 1800.82 1518.87 Q1799.15 1520.38 1799.15 1523.06 Z" fill="#000000" fill-rule="nonzero" fill-opacity="1" /><path clip-path="url(#clip780)" d="M1835.7 1517.37 Q1832.09 1517.37 1830.26 1520.93 Q1828.46 1524.47 1828.46 1531.6 Q1828.46 1538.71 1830.26 1542.27 Q1832.09 1545.82 1835.7 1545.82 Q1839.34 1545.82 1841.14 1542.27 Q1842.97 1538.71 1842.97 1531.6 Q1842.97 1524.47 1841.14 1520.93 Q1839.34 1517.37 1835.7 1517.37 M1835.7 1513.66 Q1841.51 1513.66 1844.57 1518.27 Q1847.65 1522.85 1847.65 1531.6 Q1847.65 1540.33 1844.57 1544.94 Q1841.51 1549.52 1835.7 1549.52 Q1829.89 1549.52 1826.82 1544.94 Q1823.76 1540.33 1823.76 1531.6 Q1823.76 1522.85 1826.82 1518.27 Q1829.89 1513.66 1835.7 1513.66 Z" fill="#000000" fill-rule="nonzero" fill-opacity="1" /><path clip-path="url(#clip780)" d="M1865.87 1517.37 Q1862.26 1517.37 1860.43 1520.93 Q1858.62 1524.47 1858.62 1531.6 Q1858.62 1538.71 1860.43 1542.27 Q1862.26 1545.82 1865.87 1545.82 Q1869.5 1545.82 1871.31 1542.27 Q1873.13 1538.71 1873.13 1531.6 Q1873.13 1524.47 1871.31 1520.93 Q1869.5 1517.37 1865.87 1517.37 M1865.87 1513.66 Q1871.68 1513.66 1874.73 1518.27 Q1877.81 1522.85 1877.81 1531.6 Q1877.81 1540.33 1874.73 1544.94 Q1871.68 1549.52 1865.87 1549.52 Q1860.06 1549.52 1856.98 1544.94 Q1853.92 1540.33 1853.92 1531.6 Q1853.92 1522.85 1856.98 1518.27 Q1860.06 1513.66 1865.87 1513.66 Z" fill="#000000" fill-rule="nonzero" fill-opacity="1" /><path clip-path="url(#clip780)" d="M2186.1 1544.91 L2193.74 1544.91 L2193.74 1518.55 L2185.43 1520.21 L2185.43 1515.95 L2193.7 1514.29 L2198.37 1514.29 L2198.37 1544.91 L2206.01 1544.91 L2206.01 1548.85 L2186.1 1548.85 L2186.1 1544.91 Z" fill="#000000" fill-rule="nonzero" fill-opacity="1" /><path clip-path="url(#clip780)" d="M2225.46 1517.37 Q2221.85 1517.37 2220.02 1520.93 Q2218.21 1524.47 2218.21 1531.6 Q2218.21 1538.71 2220.02 1542.27 Q2221.85 1545.82 2225.46 1545.82 Q2229.09 1545.82 2230.9 1542.27 Q2232.73 1538.71 2232.73 1531.6 Q2232.73 1524.47 2230.9 1520.93 Q2229.09 1517.37 2225.46 1517.37 M2225.46 1513.66 Q2231.27 1513.66 2234.32 1518.27 Q2237.4 1522.85 2237.4 1531.6 Q2237.4 1540.33 2234.32 1544.94 Q2231.27 1549.52 2225.46 1549.52 Q2219.65 1549.52 2216.57 1544.94 Q2213.51 1540.33 2213.51 1531.6 Q2213.51 1522.85 2216.57 1518.27 Q2219.65 1513.66 2225.46 1513.66 Z" fill="#000000" fill-rule="nonzero" fill-opacity="1" /><path clip-path="url(#clip780)" d="M2255.62 1517.37 Q2252.01 1517.37 2250.18 1520.93 Q2248.37 1524.47 2248.37 1531.6 Q2248.37 1538.71 2250.18 1542.27 Q2252.01 1545.82 2255.62 1545.82 Q2259.25 1545.82 2261.06 1542.27 Q2262.89 1538.71 2262.89 1531.6 Q2262.89 1524.47 2261.06 1520.93 Q2259.25 1517.37 2255.62 1517.37 M2255.62 1513.66 Q2261.43 1513.66 2264.48 1518.27 Q2267.56 1522.85 2267.56 1531.6 Q2267.56 1540.33 2264.48 1544.94 Q2261.43 1549.52 2255.62 1549.52 Q2249.81 1549.52 2246.73 1544.94 Q2243.67 1540.33 2243.67 1531.6 Q2243.67 1522.85 2246.73 1518.27 Q2249.81 1513.66 2255.62 1513.66 Z" fill="#000000" fill-rule="nonzero" fill-opacity="1" /><path clip-path="url(#clip780)" d="M2285.78 1517.37 Q2282.17 1517.37 2280.34 1520.93 Q2278.54 1524.47 2278.54 1531.6 Q2278.54 1538.71 2280.34 1542.27 Q2282.17 1545.82 2285.78 1545.82 Q2289.41 1545.82 2291.22 1542.27 Q2293.05 1538.71 2293.05 1531.6 Q2293.05 1524.47 2291.22 1520.93 Q2289.41 1517.37 2285.78 1517.37 M2285.78 1513.66 Q2291.59 1513.66 2294.65 1518.27 Q2297.72 1522.85 2297.72 1531.6 Q2297.72 1540.33 2294.65 1544.94 Q2291.59 1549.52 2285.78 1549.52 Q2279.97 1549.52 2276.89 1544.94 Q2273.84 1540.33 2273.84 1531.6 Q2273.84 1522.85 2276.89 1518.27 Q2279.97 1513.66 2285.78 1513.66 Z" fill="#000000" fill-rule="nonzero" fill-opacity="1" /><polyline clip-path="url(#clip780)" style="stroke:#000000; stroke-linecap:round; stroke-linejoin:round; stroke-width:4; stroke-opacity:1; fill:none" points="216.922,1486.45 216.922,47.2441 "/>
<polyline clip-path="url(#clip780)" style="stroke:#000000; stroke-linecap:round; stroke-linejoin:round; stroke-width:4; stroke-opacity:1; fill:none" points="216.922,1468.63 235.82,1468.63 "/>
<polyline clip-path="url(#clip780)" style="stroke:#000000; stroke-linecap:round; stroke-linejoin:round; stroke-width:4; stroke-opacity:1; fill:none" points="216.922,1161.63 235.82,1161.63 "/>
<polyline clip-path="url(#clip780)" style="stroke:#000000; stroke-linecap:round; stroke-linejoin:round; stroke-width:4; stroke-opacity:1; fill:none" points="216.922,854.631 235.82,854.631 "/>
<polyline clip-path="url(#clip780)" style="stroke:#000000; stroke-linecap:round; stroke-linejoin:round; stroke-width:4; stroke-opacity:1; fill:none" points="216.922,547.631 235.82,547.631 "/>
<polyline clip-path="url(#clip780)" style="stroke:#000000; stroke-linecap:round; stroke-linejoin:round; stroke-width:4; stroke-opacity:1; fill:none" points="216.922,240.631 235.82,240.631 "/>
<path clip-path="url(#clip780)" d="M63.4226 1454.43 Q59.8115 1454.43 57.9828 1457.99 Q56.1773 1461.54 56.1773 1468.66 Q56.1773 1475.77 57.9828 1479.34 Q59.8115 1482.88 63.4226 1482.88 Q67.0569 1482.88 68.8624 1479.34 Q70.6911 1475.77 70.6911 1468.66 Q70.6911 1461.54 68.8624 1457.99 Q67.0569 1454.43 63.4226 1454.43 M63.4226 1450.73 Q69.2328 1450.73 72.2883 1455.33 Q75.367 1459.91 75.367 1468.66 Q75.367 1477.39 72.2883 1482 Q69.2328 1486.58 63.4226 1486.58 Q57.6125 1486.58 54.5338 1482 Q51.4782 1477.39 51.4782 1468.66 Q51.4782 1459.91 54.5338 1455.33 Q57.6125 1450.73 63.4226 1450.73 Z" fill="#000000" fill-rule="nonzero" fill-opacity="1" /><path clip-path="url(#clip780)" d="M83.5845 1480.03 L88.4688 1480.03 L88.4688 1485.91 L83.5845 1485.91 L83.5845 1480.03 Z" fill="#000000" fill-rule="nonzero" fill-opacity="1" /><path clip-path="url(#clip780)" d="M108.654 1454.43 Q105.043 1454.43 103.214 1457.99 Q101.409 1461.54 101.409 1468.66 Q101.409 1475.77 103.214 1479.34 Q105.043 1482.88 108.654 1482.88 Q112.288 1482.88 114.094 1479.34 Q115.922 1475.77 115.922 1468.66 Q115.922 1461.54 114.094 1457.99 Q112.288 1454.43 108.654 1454.43 M108.654 1450.73 Q114.464 1450.73 117.52 1455.33 Q120.598 1459.91 120.598 1468.66 Q120.598 1477.39 117.52 1482 Q114.464 1486.58 108.654 1486.58 Q102.844 1486.58 99.765 1482 Q96.7095 1477.39 96.7095 1468.66 Q96.7095 1459.91 99.765 1455.33 Q102.844 1450.73 108.654 1450.73 Z" fill="#000000" fill-rule="nonzero" fill-opacity="1" /><path clip-path="url(#clip780)" d="M138.816 1454.43 Q135.205 1454.43 133.376 1457.99 Q131.57 1461.54 131.57 1468.66 Q131.57 1475.77 133.376 1479.34 Q135.205 1482.88 138.816 1482.88 Q142.45 1482.88 144.256 1479.34 Q146.084 1475.77 146.084 1468.66 Q146.084 1461.54 144.256 1457.99 Q142.45 1454.43 138.816 1454.43 M138.816 1450.73 Q144.626 1450.73 147.681 1455.33 Q150.76 1459.91 150.76 1468.66 Q150.76 1477.39 147.681 1482 Q144.626 1486.58 138.816 1486.58 Q133.006 1486.58 129.927 1482 Q126.871 1477.39 126.871 1468.66 Q126.871 1459.91 129.927 1455.33 Q133.006 1450.73 138.816 1450.73 Z" fill="#000000" fill-rule="nonzero" fill-opacity="1" /><path clip-path="url(#clip780)" d="M168.978 1454.43 Q165.367 1454.43 163.538 1457.99 Q161.732 1461.54 161.732 1468.66 Q161.732 1475.77 163.538 1479.34 Q165.367 1482.88 168.978 1482.88 Q172.612 1482.88 174.417 1479.34 Q176.246 1475.77 176.246 1468.66 Q176.246 1461.54 174.417 1457.99 Q172.612 1454.43 168.978 1454.43 M168.978 1450.73 Q174.788 1450.73 177.843 1455.33 Q180.922 1459.91 180.922 1468.66 Q180.922 1477.39 177.843 1482 Q174.788 1486.58 168.978 1486.58 Q163.167 1486.58 160.089 1482 Q157.033 1477.39 157.033 1468.66 Q157.033 1459.91 160.089 1455.33 Q163.167 1450.73 168.978 1450.73 Z" fill="#000000" fill-rule="nonzero" fill-opacity="1" /><path clip-path="url(#clip780)" d="M65.0198 1147.43 Q61.4087 1147.43 59.58 1150.99 Q57.7745 1154.54 57.7745 1161.67 Q57.7745 1168.77 59.58 1172.34 Q61.4087 1175.88 65.0198 1175.88 Q68.6541 1175.88 70.4596 1172.34 Q72.2883 1168.77 72.2883 1161.67 Q72.2883 1154.54 70.4596 1150.99 Q68.6541 1147.43 65.0198 1147.43 M65.0198 1143.73 Q70.83 1143.73 73.8855 1148.33 Q76.9642 1152.92 76.9642 1161.67 Q76.9642 1170.39 73.8855 1175 Q70.83 1179.58 65.0198 1179.58 Q59.2097 1179.58 56.131 1175 Q53.0754 1170.39 53.0754 1161.67 Q53.0754 1152.92 56.131 1148.33 Q59.2097 1143.73 65.0198 1143.73 Z" fill="#000000" fill-rule="nonzero" fill-opacity="1" /><path clip-path="url(#clip780)" d="M85.1818 1173.03 L90.066 1173.03 L90.066 1178.91 L85.1818 1178.91 L85.1818 1173.03 Z" fill="#000000" fill-rule="nonzero" fill-opacity="1" /><path clip-path="url(#clip780)" d="M110.251 1147.43 Q106.64 1147.43 104.811 1150.99 Q103.006 1154.54 103.006 1161.67 Q103.006 1168.77 104.811 1172.34 Q106.64 1175.88 110.251 1175.88 Q113.885 1175.88 115.691 1172.34 Q117.52 1168.77 117.52 1161.67 Q117.52 1154.54 115.691 1150.99 Q113.885 1147.43 110.251 1147.43 M110.251 1143.73 Q116.061 1143.73 119.117 1148.33 Q122.195 1152.92 122.195 1161.67 Q122.195 1170.39 119.117 1175 Q116.061 1179.58 110.251 1179.58 Q104.441 1179.58 101.362 1175 Q98.3067 1170.39 98.3067 1161.67 Q98.3067 1152.92 101.362 1148.33 Q104.441 1143.73 110.251 1143.73 Z" fill="#000000" fill-rule="nonzero" fill-opacity="1" /><path clip-path="url(#clip780)" d="M140.413 1147.43 Q136.802 1147.43 134.973 1150.99 Q133.168 1154.54 133.168 1161.67 Q133.168 1168.77 134.973 1172.34 Q136.802 1175.88 140.413 1175.88 Q144.047 1175.88 145.853 1172.34 Q147.681 1168.77 147.681 1161.67 Q147.681 1154.54 145.853 1150.99 Q144.047 1147.43 140.413 1147.43 M140.413 1143.73 Q146.223 1143.73 149.279 1148.33 Q152.357 1152.92 152.357 1161.67 Q152.357 1170.39 149.279 1175 Q146.223 1179.58 140.413 1179.58 Q134.603 1179.58 131.524 1175 Q128.469 1170.39 128.469 1161.67 Q128.469 1152.92 131.524 1148.33 Q134.603 1143.73 140.413 1143.73 Z" fill="#000000" fill-rule="nonzero" fill-opacity="1" /><path clip-path="url(#clip780)" d="M164.603 1174.98 L180.922 1174.98 L180.922 1178.91 L158.978 1178.91 L158.978 1174.98 Q161.64 1172.22 166.223 1167.59 Q170.829 1162.94 172.01 1161.6 Q174.255 1159.07 175.135 1157.34 Q176.038 1155.58 176.038 1153.89 Q176.038 1151.13 174.093 1149.4 Q172.172 1147.66 169.07 1147.66 Q166.871 1147.66 164.417 1148.42 Q161.987 1149.19 159.209 1150.74 L159.209 1146.02 Q162.033 1144.88 164.487 1144.3 Q166.941 1143.73 168.978 1143.73 Q174.348 1143.73 177.542 1146.41 Q180.737 1149.1 180.737 1153.59 Q180.737 1155.72 179.927 1157.64 Q179.14 1159.54 177.033 1162.13 Q176.454 1162.8 173.353 1166.02 Q170.251 1169.21 164.603 1174.98 Z" fill="#000000" fill-rule="nonzero" fill-opacity="1" /><path clip-path="url(#clip780)" d="M62.9365 840.429 Q59.3254 840.429 57.4967 843.994 Q55.6912 847.536 55.6912 854.665 Q55.6912 861.772 57.4967 865.337 Q59.3254 868.878 62.9365 868.878 Q66.5707 868.878 68.3763 865.337 Q70.205 861.772 70.205 854.665 Q70.205 847.536 68.3763 843.994 Q66.5707 840.429 62.9365 840.429 M62.9365 836.726 Q68.7467 836.726 71.8022 841.332 Q74.8809 845.915 74.8809 854.665 Q74.8809 863.392 71.8022 867.999 Q68.7467 872.582 62.9365 872.582 Q57.1264 872.582 54.0477 867.999 Q50.9921 863.392 50.9921 854.665 Q50.9921 845.915 54.0477 841.332 Q57.1264 836.726 62.9365 836.726 Z" fill="#000000" fill-rule="nonzero" fill-opacity="1" /><path clip-path="url(#clip780)" d="M83.0984 866.031 L87.9827 866.031 L87.9827 871.911 L83.0984 871.911 L83.0984 866.031 Z" fill="#000000" fill-rule="nonzero" fill-opacity="1" /><path clip-path="url(#clip780)" d="M108.168 840.429 Q104.557 840.429 102.728 843.994 Q100.922 847.536 100.922 854.665 Q100.922 861.772 102.728 865.337 Q104.557 868.878 108.168 868.878 Q111.802 868.878 113.608 865.337 Q115.436 861.772 115.436 854.665 Q115.436 847.536 113.608 843.994 Q111.802 840.429 108.168 840.429 M108.168 836.726 Q113.978 836.726 117.033 841.332 Q120.112 845.915 120.112 854.665 Q120.112 863.392 117.033 867.999 Q113.978 872.582 108.168 872.582 Q102.358 872.582 99.2789 867.999 Q96.2234 863.392 96.2234 854.665 Q96.2234 845.915 99.2789 841.332 Q102.358 836.726 108.168 836.726 Z" fill="#000000" fill-rule="nonzero" fill-opacity="1" /><path clip-path="url(#clip780)" d="M138.33 840.429 Q134.719 840.429 132.89 843.994 Q131.084 847.536 131.084 854.665 Q131.084 861.772 132.89 865.337 Q134.719 868.878 138.33 868.878 Q141.964 868.878 143.769 865.337 Q145.598 861.772 145.598 854.665 Q145.598 847.536 143.769 843.994 Q141.964 840.429 138.33 840.429 M138.33 836.726 Q144.14 836.726 147.195 841.332 Q150.274 845.915 150.274 854.665 Q150.274 863.392 147.195 867.999 Q144.14 872.582 138.33 872.582 Q132.519 872.582 129.441 867.999 Q126.385 863.392 126.385 854.665 Q126.385 845.915 129.441 841.332 Q132.519 836.726 138.33 836.726 Z" fill="#000000" fill-rule="nonzero" fill-opacity="1" /><path clip-path="url(#clip780)" d="M171.339 841.425 L159.533 859.874 L171.339 859.874 L171.339 841.425 M170.112 837.351 L175.991 837.351 L175.991 859.874 L180.922 859.874 L180.922 863.762 L175.991 863.762 L175.991 871.911 L171.339 871.911 L171.339 863.762 L155.737 863.762 L155.737 859.249 L170.112 837.351 Z" fill="#000000" fill-rule="nonzero" fill-opacity="1" /><path clip-path="url(#clip780)" d="M63.2606 533.43 Q59.6495 533.43 57.8208 536.994 Q56.0152 540.536 56.0152 547.666 Q56.0152 554.772 57.8208 558.337 Q59.6495 561.878 63.2606 561.878 Q66.8948 561.878 68.7004 558.337 Q70.5291 554.772 70.5291 547.666 Q70.5291 540.536 68.7004 536.994 Q66.8948 533.43 63.2606 533.43 M63.2606 529.726 Q69.0707 529.726 72.1263 534.332 Q75.205 538.916 75.205 547.666 Q75.205 556.392 72.1263 560.999 Q69.0707 565.582 63.2606 565.582 Q57.4504 565.582 54.3717 560.999 Q51.3162 556.392 51.3162 547.666 Q51.3162 538.916 54.3717 534.332 Q57.4504 529.726 63.2606 529.726 Z" fill="#000000" fill-rule="nonzero" fill-opacity="1" /><path clip-path="url(#clip780)" d="M83.4225 559.031 L88.3067 559.031 L88.3067 564.911 L83.4225 564.911 L83.4225 559.031 Z" fill="#000000" fill-rule="nonzero" fill-opacity="1" /><path clip-path="url(#clip780)" d="M108.492 533.43 Q104.881 533.43 103.052 536.994 Q101.246 540.536 101.246 547.666 Q101.246 554.772 103.052 558.337 Q104.881 561.878 108.492 561.878 Q112.126 561.878 113.932 558.337 Q115.76 554.772 115.76 547.666 Q115.76 540.536 113.932 536.994 Q112.126 533.43 108.492 533.43 M108.492 529.726 Q114.302 529.726 117.358 534.332 Q120.436 538.916 120.436 547.666 Q120.436 556.392 117.358 560.999 Q114.302 565.582 108.492 565.582 Q102.682 565.582 99.603 560.999 Q96.5474 556.392 96.5474 547.666 Q96.5474 538.916 99.603 534.332 Q102.682 529.726 108.492 529.726 Z" fill="#000000" fill-rule="nonzero" fill-opacity="1" /><path clip-path="url(#clip780)" d="M138.654 533.43 Q135.043 533.43 133.214 536.994 Q131.408 540.536 131.408 547.666 Q131.408 554.772 133.214 558.337 Q135.043 561.878 138.654 561.878 Q142.288 561.878 144.093 558.337 Q145.922 554.772 145.922 547.666 Q145.922 540.536 144.093 536.994 Q142.288 533.43 138.654 533.43 M138.654 529.726 Q144.464 529.726 147.519 534.332 Q150.598 538.916 150.598 547.666 Q150.598 556.392 147.519 560.999 Q144.464 565.582 138.654 565.582 Q132.844 565.582 129.765 560.999 Q126.709 556.392 126.709 547.666 Q126.709 538.916 129.765 534.332 Q132.844 529.726 138.654 529.726 Z" fill="#000000" fill-rule="nonzero" fill-opacity="1" /><path clip-path="url(#clip780)" d="M169.394 545.767 Q166.246 545.767 164.394 547.92 Q162.566 550.073 162.566 553.823 Q162.566 557.55 164.394 559.726 Q166.246 561.878 169.394 561.878 Q172.542 561.878 174.371 559.726 Q176.223 557.55 176.223 553.823 Q176.223 550.073 174.371 547.92 Q172.542 545.767 169.394 545.767 M178.677 531.115 L178.677 535.374 Q176.917 534.541 175.112 534.101 Q173.329 533.661 171.57 533.661 Q166.941 533.661 164.487 536.786 Q162.056 539.911 161.709 546.23 Q163.075 544.217 165.135 543.152 Q167.195 542.064 169.672 542.064 Q174.88 542.064 177.89 545.235 Q180.922 548.383 180.922 553.823 Q180.922 559.147 177.774 562.365 Q174.626 565.582 169.394 565.582 Q163.399 565.582 160.228 560.999 Q157.056 556.392 157.056 547.666 Q157.056 539.471 160.945 534.61 Q164.834 529.726 171.385 529.726 Q173.144 529.726 174.927 530.073 Q176.732 530.42 178.677 531.115 Z" fill="#000000" fill-rule="nonzero" fill-opacity="1" /><path clip-path="url(#clip780)" d="M63.5152 226.43 Q59.9041 226.43 58.0754 229.995 Q56.2699 233.536 56.2699 240.666 Q56.2699 247.772 58.0754 251.337 Q59.9041 254.879 63.5152 254.879 Q67.1494 254.879 68.955 251.337 Q70.7837 247.772 70.7837 240.666 Q70.7837 233.536 68.955 229.995 Q67.1494 226.43 63.5152 226.43 M63.5152 222.726 Q69.3254 222.726 72.3809 227.333 Q75.4596 231.916 75.4596 240.666 Q75.4596 249.393 72.3809 253.999 Q69.3254 258.582 63.5152 258.582 Q57.7051 258.582 54.6264 253.999 Q51.5708 249.393 51.5708 240.666 Q51.5708 231.916 54.6264 227.333 Q57.7051 222.726 63.5152 222.726 Z" fill="#000000" fill-rule="nonzero" fill-opacity="1" /><path clip-path="url(#clip780)" d="M83.6771 252.031 L88.5614 252.031 L88.5614 257.911 L83.6771 257.911 L83.6771 252.031 Z" fill="#000000" fill-rule="nonzero" fill-opacity="1" /><path clip-path="url(#clip780)" d="M108.746 226.43 Q105.135 226.43 103.307 229.995 Q101.501 233.536 101.501 240.666 Q101.501 247.772 103.307 251.337 Q105.135 254.879 108.746 254.879 Q112.381 254.879 114.186 251.337 Q116.015 247.772 116.015 240.666 Q116.015 233.536 114.186 229.995 Q112.381 226.43 108.746 226.43 M108.746 222.726 Q114.557 222.726 117.612 227.333 Q120.691 231.916 120.691 240.666 Q120.691 249.393 117.612 253.999 Q114.557 258.582 108.746 258.582 Q102.936 258.582 99.8576 253.999 Q96.8021 249.393 96.8021 240.666 Q96.8021 231.916 99.8576 227.333 Q102.936 222.726 108.746 222.726 Z" fill="#000000" fill-rule="nonzero" fill-opacity="1" /><path clip-path="url(#clip780)" d="M138.908 226.43 Q135.297 226.43 133.469 229.995 Q131.663 233.536 131.663 240.666 Q131.663 247.772 133.469 251.337 Q135.297 254.879 138.908 254.879 Q142.543 254.879 144.348 251.337 Q146.177 247.772 146.177 240.666 Q146.177 233.536 144.348 229.995 Q142.543 226.43 138.908 226.43 M138.908 222.726 Q144.718 222.726 147.774 227.333 Q150.853 231.916 150.853 240.666 Q150.853 249.393 147.774 253.999 Q144.718 258.582 138.908 258.582 Q133.098 258.582 130.019 253.999 Q126.964 249.393 126.964 240.666 Q126.964 231.916 130.019 227.333 Q133.098 222.726 138.908 222.726 Z" fill="#000000" fill-rule="nonzero" fill-opacity="1" /><path clip-path="url(#clip780)" d="M169.07 241.499 Q165.737 241.499 163.816 243.282 Q161.917 245.064 161.917 248.189 Q161.917 251.314 163.816 253.096 Q165.737 254.879 169.07 254.879 Q172.404 254.879 174.325 253.096 Q176.246 251.291 176.246 248.189 Q176.246 245.064 174.325 243.282 Q172.427 241.499 169.07 241.499 M164.394 239.508 Q161.385 238.768 159.695 236.707 Q158.029 234.647 158.029 231.684 Q158.029 227.541 160.968 225.133 Q163.931 222.726 169.07 222.726 Q174.232 222.726 177.172 225.133 Q180.112 227.541 180.112 231.684 Q180.112 234.647 178.422 236.707 Q176.755 238.768 173.769 239.508 Q177.149 240.295 179.024 242.587 Q180.922 244.879 180.922 248.189 Q180.922 253.212 177.843 255.897 Q174.788 258.582 169.07 258.582 Q163.353 258.582 160.274 255.897 Q157.218 253.212 157.218 248.189 Q157.218 244.879 159.117 242.587 Q161.015 240.295 164.394 239.508 M162.681 232.124 Q162.681 234.809 164.348 236.314 Q166.038 237.819 169.07 237.819 Q172.079 237.819 173.769 236.314 Q175.482 234.809 175.482 232.124 Q175.482 229.439 173.769 227.934 Q172.079 226.43 169.07 226.43 Q166.038 226.43 164.348 227.934 Q162.681 229.439 162.681 232.124 Z" fill="#000000" fill-rule="nonzero" fill-opacity="1" /><circle clip-path="url(#clip782)" cx="279.399" cy="1042.98" r="14.4" fill="#009af9" fill-rule="evenodd" fill-opacity="1" stroke="#000000" stroke-opacity="1" stroke-width="3.2"/>
<circle clip-path="url(#clip782)" cx="344.332" cy="1445.72" r="14.4" fill="#009af9" fill-rule="evenodd" fill-opacity="1" stroke="#000000" stroke-opacity="1" stroke-width="3.2"/>
<circle clip-path="url(#clip782)" cx="474.197" cy="1217.43" r="14.4" fill="#009af9" fill-rule="evenodd" fill-opacity="1" stroke="#000000" stroke-opacity="1" stroke-width="3.2"/>
<circle clip-path="url(#clip782)" cx="733.927" cy="1123.02" r="14.4" fill="#009af9" fill-rule="evenodd" fill-opacity="1" stroke="#000000" stroke-opacity="1" stroke-width="3.2"/>
<circle clip-path="url(#clip782)" cx="1253.39" cy="1262.07" r="14.4" fill="#009af9" fill-rule="evenodd" fill-opacity="1" stroke="#000000" stroke-opacity="1" stroke-width="3.2"/>
<circle clip-path="url(#clip782)" cx="2292.31" cy="1438.94" r="14.4" fill="#009af9" fill-rule="evenodd" fill-opacity="1" stroke="#000000" stroke-opacity="1" stroke-width="3.2"/>
<circle clip-path="url(#clip782)" cx="279.399" cy="858.122" r="14.4" fill="#e26f46" fill-rule="evenodd" fill-opacity="1" stroke="#000000" stroke-opacity="1" stroke-width="3.2"/>
<circle clip-path="url(#clip782)" cx="344.332" cy="1131.41" r="14.4" fill="#e26f46" fill-rule="evenodd" fill-opacity="1" stroke="#000000" stroke-opacity="1" stroke-width="3.2"/>
<circle clip-path="url(#clip782)" cx="474.197" cy="1329.78" r="14.4" fill="#e26f46" fill-rule="evenodd" fill-opacity="1" stroke="#000000" stroke-opacity="1" stroke-width="3.2"/>
<circle clip-path="url(#clip782)" cx="733.927" cy="1365.2" r="14.4" fill="#e26f46" fill-rule="evenodd" fill-opacity="1" stroke="#000000" stroke-opacity="1" stroke-width="3.2"/>
<circle clip-path="url(#clip782)" cx="1253.39" cy="1307.48" r="14.4" fill="#e26f46" fill-rule="evenodd" fill-opacity="1" stroke="#000000" stroke-opacity="1" stroke-width="3.2"/>
<circle clip-path="url(#clip782)" cx="2292.31" cy="1428.59" r="14.4" fill="#e26f46" fill-rule="evenodd" fill-opacity="1" stroke="#000000" stroke-opacity="1" stroke-width="3.2"/>
<circle clip-path="url(#clip782)" cx="277.37" cy="87.9763" r="14.4" fill="#3da44d" fill-rule="evenodd" fill-opacity="1" stroke="#000000" stroke-opacity="1" stroke-width="3.2"/>
<circle clip-path="url(#clip782)" cx="342.303" cy="1185.94" r="14.4" fill="#3da44d" fill-rule="evenodd" fill-opacity="1" stroke="#000000" stroke-opacity="1" stroke-width="3.2"/>
<circle clip-path="url(#clip782)" cx="472.168" cy="824.583" r="14.4" fill="#3da44d" fill-rule="evenodd" fill-opacity="1" stroke="#000000" stroke-opacity="1" stroke-width="3.2"/>
<circle clip-path="url(#clip782)" cx="731.898" cy="1358.06" r="14.4" fill="#3da44d" fill-rule="evenodd" fill-opacity="1" stroke="#000000" stroke-opacity="1" stroke-width="3.2"/>
<circle clip-path="url(#clip782)" cx="1251.36" cy="1406.16" r="14.4" fill="#3da44d" fill-rule="evenodd" fill-opacity="1" stroke="#000000" stroke-opacity="1" stroke-width="3.2"/>
<circle clip-path="url(#clip782)" cx="2290.28" cy="1379.17" r="14.4" fill="#3da44d" fill-rule="evenodd" fill-opacity="1" stroke="#000000" stroke-opacity="1" stroke-width="3.2"/>
<path clip-path="url(#clip780)" d="M1140.99 302.578 L2281.56 302.578 L2281.56 95.2176 L1140.99 95.2176  Z" fill="#ffffff" fill-rule="evenodd" fill-opacity="1"/>
<polyline clip-path="url(#clip780)" style="stroke:#000000; stroke-linecap:round; stroke-linejoin:round; stroke-width:4; stroke-opacity:1; fill:none" points="1140.99,302.578 2281.56,302.578 2281.56,95.2176 1140.99,95.2176 1140.99,302.578 "/>
<circle clip-path="url(#clip780)" cx="1235.92" cy="147.058" r="20.48" fill="#009af9" fill-rule="evenodd" fill-opacity="1" stroke="#000000" stroke-opacity="1" stroke-width="4.55111"/>
<path clip-path="url(#clip780)" d="M1352.56 148.689 L1352.56 164.338 L1348.3 164.338 L1348.3 148.828 Q1348.3 145.148 1346.86 143.319 Q1345.43 141.49 1342.56 141.49 Q1339.11 141.49 1337.12 143.69 Q1335.13 145.889 1335.13 149.685 L1335.13 164.338 L1330.84 164.338 L1330.84 138.412 L1335.13 138.412 L1335.13 142.44 Q1336.65 140.102 1338.71 138.944 Q1340.8 137.787 1343.51 137.787 Q1347.97 137.787 1350.27 140.565 Q1352.56 143.319 1352.56 148.689 Z" fill="#000000" fill-rule="nonzero" fill-opacity="1" /><path clip-path="url(#clip780)" d="M1372.83 151.305 Q1367.67 151.305 1365.68 152.486 Q1363.69 153.666 1363.69 156.514 Q1363.69 158.782 1365.17 160.125 Q1366.68 161.444 1369.25 161.444 Q1372.79 161.444 1374.92 158.944 Q1377.07 156.421 1377.07 152.254 L1377.07 151.305 L1372.83 151.305 M1381.33 149.546 L1381.33 164.338 L1377.07 164.338 L1377.07 160.402 Q1375.61 162.763 1373.44 163.898 Q1371.26 165.009 1368.11 165.009 Q1364.13 165.009 1361.77 162.787 Q1359.43 160.541 1359.43 156.791 Q1359.43 152.416 1362.35 150.194 Q1365.29 147.972 1371.1 147.972 L1377.07 147.972 L1377.07 147.555 Q1377.07 144.615 1375.13 143.018 Q1373.21 141.398 1369.71 141.398 Q1367.49 141.398 1365.38 141.93 Q1363.27 142.463 1361.33 143.527 L1361.33 139.592 Q1363.67 138.69 1365.87 138.25 Q1368.07 137.787 1370.15 137.787 Q1375.77 137.787 1378.55 140.703 Q1381.33 143.62 1381.33 149.546 Z" fill="#000000" fill-rule="nonzero" fill-opacity="1" /><path clip-path="url(#clip780)" d="M1394.22 160.449 L1394.22 174.199 L1389.94 174.199 L1389.94 138.412 L1394.22 138.412 L1394.22 142.347 Q1395.57 140.032 1397.6 138.921 Q1399.66 137.787 1402.51 137.787 Q1407.23 137.787 1410.17 141.537 Q1413.14 145.287 1413.14 151.398 Q1413.14 157.509 1410.17 161.259 Q1407.23 165.009 1402.51 165.009 Q1399.66 165.009 1397.6 163.898 Q1395.57 162.763 1394.22 160.449 M1408.71 151.398 Q1408.71 146.699 1406.77 144.037 Q1404.85 141.352 1401.47 141.352 Q1398.09 141.352 1396.14 144.037 Q1394.22 146.699 1394.22 151.398 Q1394.22 156.097 1396.14 158.782 Q1398.09 161.444 1401.47 161.444 Q1404.85 161.444 1406.77 158.782 Q1408.71 156.097 1408.71 151.398 Z" fill="#000000" fill-rule="nonzero" fill-opacity="1" /><path clip-path="url(#clip780)" d="M1431.98 151.305 Q1426.82 151.305 1424.83 152.486 Q1422.83 153.666 1422.83 156.514 Q1422.83 158.782 1424.32 160.125 Q1425.82 161.444 1428.39 161.444 Q1431.93 161.444 1434.06 158.944 Q1436.21 156.421 1436.21 152.254 L1436.21 151.305 L1431.98 151.305 M1440.47 149.546 L1440.47 164.338 L1436.21 164.338 L1436.21 160.402 Q1434.76 162.763 1432.58 163.898 Q1430.4 165.009 1427.26 165.009 Q1423.27 165.009 1420.91 162.787 Q1418.58 160.541 1418.58 156.791 Q1418.58 152.416 1421.49 150.194 Q1424.43 147.972 1430.24 147.972 L1436.21 147.972 L1436.21 147.555 Q1436.21 144.615 1434.27 143.018 Q1432.35 141.398 1428.85 141.398 Q1426.63 141.398 1424.52 141.93 Q1422.42 142.463 1420.47 143.527 L1420.47 139.592 Q1422.81 138.69 1425.01 138.25 Q1427.21 137.787 1429.29 137.787 Q1434.92 137.787 1437.7 140.703 Q1440.47 143.62 1440.47 149.546 Z" fill="#000000" fill-rule="nonzero" fill-opacity="1" /><path clip-path="url(#clip780)" d="M1449.08 128.319 L1453.37 128.319 L1453.37 149.592 L1466.07 138.412 L1471.51 138.412 L1457.76 150.541 L1472.09 164.338 L1466.54 164.338 L1453.37 151.676 L1453.37 164.338 L1449.08 164.338 L1449.08 128.319 Z" fill="#000000" fill-rule="nonzero" fill-opacity="1" /><path clip-path="url(#clip780)" d="M1487.65 151.305 Q1482.49 151.305 1480.5 152.486 Q1478.51 153.666 1478.51 156.514 Q1478.51 158.782 1479.99 160.125 Q1481.49 161.444 1484.06 161.444 Q1487.6 161.444 1489.73 158.944 Q1491.88 156.421 1491.88 152.254 L1491.88 151.305 L1487.65 151.305 M1496.14 149.546 L1496.14 164.338 L1491.88 164.338 L1491.88 160.402 Q1490.43 162.763 1488.25 163.898 Q1486.07 165.009 1482.93 165.009 Q1478.95 165.009 1476.58 162.787 Q1474.25 160.541 1474.25 156.791 Q1474.25 152.416 1477.16 150.194 Q1480.1 147.972 1485.91 147.972 L1491.88 147.972 L1491.88 147.555 Q1491.88 144.615 1489.94 143.018 Q1488.02 141.398 1484.52 141.398 Q1482.3 141.398 1480.2 141.93 Q1478.09 142.463 1476.14 143.527 L1476.14 139.592 Q1478.48 138.69 1480.68 138.25 Q1482.88 137.787 1484.96 137.787 Q1490.59 137.787 1493.37 140.703 Q1496.14 143.62 1496.14 149.546 Z" fill="#000000" fill-rule="nonzero" fill-opacity="1" /><path clip-path="url(#clip780)" d="M1524.2 131.051 L1524.2 138.412 L1532.97 138.412 L1532.97 141.722 L1524.2 141.722 L1524.2 155.796 Q1524.2 158.967 1525.06 159.87 Q1525.94 160.773 1528.6 160.773 L1532.97 160.773 L1532.97 164.338 L1528.6 164.338 Q1523.67 164.338 1521.79 162.509 Q1519.92 160.657 1519.92 155.796 L1519.92 141.722 L1516.79 141.722 L1516.79 138.412 L1519.92 138.412 L1519.92 131.051 L1524.2 131.051 Z" fill="#000000" fill-rule="nonzero" fill-opacity="1" /><path clip-path="url(#clip780)" d="M1553.6 142.393 Q1552.88 141.977 1552.02 141.791 Q1551.19 141.583 1550.17 141.583 Q1546.56 141.583 1544.62 143.944 Q1542.69 146.282 1542.69 150.68 L1542.69 164.338 L1538.41 164.338 L1538.41 138.412 L1542.69 138.412 L1542.69 142.44 Q1544.04 140.078 1546.19 138.944 Q1548.34 137.787 1551.42 137.787 Q1551.86 137.787 1552.39 137.856 Q1552.93 137.903 1553.57 138.018 L1553.6 142.393 Z" fill="#000000" fill-rule="nonzero" fill-opacity="1" /><path clip-path="url(#clip780)" d="M1569.85 151.305 Q1564.69 151.305 1562.69 152.486 Q1560.7 153.666 1560.7 156.514 Q1560.7 158.782 1562.19 160.125 Q1563.69 161.444 1566.26 161.444 Q1569.8 161.444 1571.93 158.944 Q1574.08 156.421 1574.08 152.254 L1574.08 151.305 L1569.85 151.305 M1578.34 149.546 L1578.34 164.338 L1574.08 164.338 L1574.08 160.402 Q1572.63 162.763 1570.45 163.898 Q1568.27 165.009 1565.13 165.009 Q1561.14 165.009 1558.78 162.787 Q1556.44 160.541 1556.44 156.791 Q1556.44 152.416 1559.36 150.194 Q1562.3 147.972 1568.11 147.972 L1574.08 147.972 L1574.08 147.555 Q1574.08 144.615 1572.14 143.018 Q1570.22 141.398 1566.72 141.398 Q1564.5 141.398 1562.39 141.93 Q1560.29 142.463 1558.34 143.527 L1558.34 139.592 Q1560.68 138.69 1562.88 138.25 Q1565.08 137.787 1567.16 137.787 Q1572.79 137.787 1575.57 140.703 Q1578.34 143.62 1578.34 149.546 Z" fill="#000000" fill-rule="nonzero" fill-opacity="1" /><path clip-path="url(#clip780)" d="M1591.24 160.449 L1591.24 174.199 L1586.95 174.199 L1586.95 138.412 L1591.24 138.412 L1591.24 142.347 Q1592.58 140.032 1594.62 138.921 Q1596.68 137.787 1599.52 137.787 Q1604.25 137.787 1607.19 141.537 Q1610.15 145.287 1610.15 151.398 Q1610.15 157.509 1607.19 161.259 Q1604.25 165.009 1599.52 165.009 Q1596.68 165.009 1594.62 163.898 Q1592.58 162.763 1591.24 160.449 M1605.73 151.398 Q1605.73 146.699 1603.78 144.037 Q1601.86 141.352 1598.48 141.352 Q1595.1 141.352 1593.16 144.037 Q1591.24 146.699 1591.24 151.398 Q1591.24 156.097 1593.16 158.782 Q1595.1 161.444 1598.48 161.444 Q1601.86 161.444 1603.78 158.782 Q1605.73 156.097 1605.73 151.398 Z" fill="#000000" fill-rule="nonzero" fill-opacity="1" /><path clip-path="url(#clip780)" d="M1639.38 150.31 L1639.38 152.393 L1619.8 152.393 Q1620.08 156.791 1622.44 159.106 Q1624.82 161.398 1629.06 161.398 Q1631.51 161.398 1633.81 160.796 Q1636.12 160.194 1638.39 158.99 L1638.39 163.018 Q1636.1 163.99 1633.69 164.5 Q1631.28 165.009 1628.81 165.009 Q1622.6 165.009 1618.97 161.398 Q1615.36 157.787 1615.36 151.629 Q1615.36 145.264 1618.78 141.537 Q1622.23 137.787 1628.06 137.787 Q1633.3 137.787 1636.33 141.166 Q1639.38 144.523 1639.38 150.31 M1635.12 149.06 Q1635.08 145.565 1633.16 143.481 Q1631.26 141.398 1628.11 141.398 Q1624.55 141.398 1622.39 143.412 Q1620.26 145.426 1619.94 149.083 L1635.12 149.06 Z" fill="#000000" fill-rule="nonzero" fill-opacity="1" /><path clip-path="url(#clip780)" d="M1644.52 138.412 L1664.75 138.412 L1664.75 142.301 L1648.74 160.935 L1664.75 160.935 L1664.75 164.338 L1643.94 164.338 L1643.94 160.449 L1659.96 141.815 L1644.52 141.815 L1644.52 138.412 Z" fill="#000000" fill-rule="nonzero" fill-opacity="1" /><path clip-path="url(#clip780)" d="M1692.81 148.689 L1692.81 164.338 L1688.55 164.338 L1688.55 148.828 Q1688.55 145.148 1687.12 143.319 Q1685.68 141.49 1682.81 141.49 Q1679.36 141.49 1677.37 143.69 Q1675.38 145.889 1675.38 149.685 L1675.38 164.338 L1671.1 164.338 L1671.1 138.412 L1675.38 138.412 L1675.38 142.44 Q1676.91 140.102 1678.97 138.944 Q1681.05 137.787 1683.76 137.787 Q1688.23 137.787 1690.52 140.565 Q1692.81 143.319 1692.81 148.689 Z" fill="#000000" fill-rule="nonzero" fill-opacity="1" /><path clip-path="url(#clip780)" d="M1723.48 150.31 L1723.48 152.393 L1703.9 152.393 Q1704.18 156.791 1706.54 159.106 Q1708.92 161.398 1713.16 161.398 Q1715.61 161.398 1717.9 160.796 Q1720.22 160.194 1722.49 158.99 L1722.49 163.018 Q1720.19 163.99 1717.79 164.5 Q1715.38 165.009 1712.9 165.009 Q1706.7 165.009 1703.06 161.398 Q1699.45 157.787 1699.45 151.629 Q1699.45 145.264 1702.88 141.537 Q1706.33 137.787 1712.16 137.787 Q1717.39 137.787 1720.43 141.166 Q1723.48 144.523 1723.48 150.31 M1719.22 149.06 Q1719.18 145.565 1717.25 143.481 Q1715.36 141.398 1712.21 141.398 Q1708.64 141.398 1706.49 143.412 Q1704.36 145.426 1704.04 149.083 L1719.22 149.06 Z" fill="#000000" fill-rule="nonzero" fill-opacity="1" /><path clip-path="url(#clip780)" d="M1747.53 151.074 Q1747.53 146.444 1745.61 143.898 Q1743.71 141.352 1740.26 141.352 Q1736.84 141.352 1734.92 143.898 Q1733.02 146.444 1733.02 151.074 Q1733.02 155.68 1734.92 158.226 Q1736.84 160.773 1740.26 160.773 Q1743.71 160.773 1745.61 158.226 Q1747.53 155.68 1747.53 151.074 M1751.79 161.12 Q1751.79 167.74 1748.85 170.958 Q1745.91 174.199 1739.85 174.199 Q1737.6 174.199 1735.61 173.851 Q1733.62 173.527 1731.74 172.833 L1731.74 168.689 Q1733.62 169.708 1735.45 170.194 Q1737.28 170.68 1739.18 170.68 Q1743.37 170.68 1745.45 168.481 Q1747.53 166.305 1747.53 161.884 L1747.53 159.777 Q1746.21 162.069 1744.15 163.203 Q1742.09 164.338 1739.22 164.338 Q1734.45 164.338 1731.54 160.703 Q1728.62 157.069 1728.62 151.074 Q1728.62 145.055 1731.54 141.421 Q1734.45 137.787 1739.22 137.787 Q1742.09 137.787 1744.15 138.921 Q1746.21 140.055 1747.53 142.347 L1747.53 138.412 L1751.79 138.412 L1751.79 161.12 Z" fill="#000000" fill-rule="nonzero" fill-opacity="1" /><path clip-path="url(#clip780)" d="M1772.35 151.305 Q1767.18 151.305 1765.19 152.486 Q1763.2 153.666 1763.2 156.514 Q1763.2 158.782 1764.68 160.125 Q1766.19 161.444 1768.76 161.444 Q1772.3 161.444 1774.43 158.944 Q1776.58 156.421 1776.58 152.254 L1776.58 151.305 L1772.35 151.305 M1780.84 149.546 L1780.84 164.338 L1776.58 164.338 L1776.58 160.402 Q1775.12 162.763 1772.95 163.898 Q1770.77 165.009 1767.62 165.009 Q1763.64 165.009 1761.28 162.787 Q1758.94 160.541 1758.94 156.791 Q1758.94 152.416 1761.86 150.194 Q1764.8 147.972 1770.61 147.972 L1776.58 147.972 L1776.58 147.555 Q1776.58 144.615 1774.64 143.018 Q1772.72 141.398 1769.22 141.398 Q1767 141.398 1764.89 141.93 Q1762.79 142.463 1760.84 143.527 L1760.84 139.592 Q1763.18 138.69 1765.38 138.25 Q1767.58 137.787 1769.66 137.787 Q1775.29 137.787 1778.06 140.703 Q1780.84 143.62 1780.84 149.546 Z" fill="#000000" fill-rule="nonzero" fill-opacity="1" /><path clip-path="url(#clip780)" d="M1808.8 160.449 L1808.8 174.199 L1804.52 174.199 L1804.52 138.412 L1808.8 138.412 L1808.8 142.347 Q1810.15 140.032 1812.18 138.921 Q1814.24 137.787 1817.09 137.787 Q1821.81 137.787 1824.75 141.537 Q1827.72 145.287 1827.72 151.398 Q1827.72 157.509 1824.75 161.259 Q1821.81 165.009 1817.09 165.009 Q1814.24 165.009 1812.18 163.898 Q1810.15 162.763 1808.8 160.449 M1823.3 151.398 Q1823.3 146.699 1821.35 144.037 Q1819.43 141.352 1816.05 141.352 Q1812.67 141.352 1810.73 144.037 Q1808.8 146.699 1808.8 151.398 Q1808.8 156.097 1810.73 158.782 Q1812.67 161.444 1816.05 161.444 Q1819.43 161.444 1821.35 158.782 Q1823.3 156.097 1823.3 151.398 Z" fill="#000000" fill-rule="nonzero" fill-opacity="1" /><path clip-path="url(#clip780)" d="M1849.8 142.393 Q1849.08 141.977 1848.23 141.791 Q1847.39 141.583 1846.37 141.583 Q1842.76 141.583 1840.82 143.944 Q1838.9 146.282 1838.9 150.68 L1838.9 164.338 L1834.61 164.338 L1834.61 138.412 L1838.9 138.412 L1838.9 142.44 Q1840.24 140.078 1842.39 138.944 Q1844.55 137.787 1847.62 137.787 Q1848.06 137.787 1848.6 137.856 Q1849.13 137.903 1849.78 138.018 L1849.8 142.393 Z" fill="#000000" fill-rule="nonzero" fill-opacity="1" /><path clip-path="url(#clip780)" d="M1866.05 151.305 Q1860.89 151.305 1858.9 152.486 Q1856.91 153.666 1856.91 156.514 Q1856.91 158.782 1858.39 160.125 Q1859.89 161.444 1862.46 161.444 Q1866 161.444 1868.13 158.944 Q1870.29 156.421 1870.29 152.254 L1870.29 151.305 L1866.05 151.305 M1874.54 149.546 L1874.54 164.338 L1870.29 164.338 L1870.29 160.402 Q1868.83 162.763 1866.65 163.898 Q1864.48 165.009 1861.33 165.009 Q1857.35 165.009 1854.98 162.787 Q1852.65 160.541 1852.65 156.791 Q1852.65 152.416 1855.56 150.194 Q1858.5 147.972 1864.31 147.972 L1870.29 147.972 L1870.29 147.555 Q1870.29 144.615 1868.34 143.018 Q1866.42 141.398 1862.92 141.398 Q1860.7 141.398 1858.6 141.93 Q1856.49 142.463 1854.55 143.527 L1854.55 139.592 Q1856.88 138.69 1859.08 138.25 Q1861.28 137.787 1863.36 137.787 Q1868.99 137.787 1871.77 140.703 Q1874.54 143.62 1874.54 149.546 Z" fill="#000000" fill-rule="nonzero" fill-opacity="1" /><path clip-path="url(#clip780)" d="M1880.26 138.412 L1884.78 138.412 L1892.88 160.171 L1900.98 138.412 L1905.49 138.412 L1895.77 164.338 L1889.98 164.338 L1880.26 138.412 Z" fill="#000000" fill-rule="nonzero" fill-opacity="1" /><path clip-path="url(#clip780)" d="M1911.37 138.412 L1915.63 138.412 L1915.63 164.338 L1911.37 164.338 L1911.37 138.412 M1911.37 128.319 L1915.63 128.319 L1915.63 133.713 L1911.37 133.713 L1911.37 128.319 Z" fill="#000000" fill-rule="nonzero" fill-opacity="1" /><path clip-path="url(#clip780)" d="M1924.54 128.319 L1928.8 128.319 L1928.8 164.338 L1924.54 164.338 L1924.54 128.319 Z" fill="#000000" fill-rule="nonzero" fill-opacity="1" /><path clip-path="url(#clip780)" d="M1949.5 151.305 Q1944.34 151.305 1942.35 152.486 Q1940.35 153.666 1940.35 156.514 Q1940.35 158.782 1941.84 160.125 Q1943.34 161.444 1945.91 161.444 Q1949.45 161.444 1951.58 158.944 Q1953.73 156.421 1953.73 152.254 L1953.73 151.305 L1949.5 151.305 M1957.99 149.546 L1957.99 164.338 L1953.73 164.338 L1953.73 160.402 Q1952.28 162.763 1950.1 163.898 Q1947.92 165.009 1944.78 165.009 Q1940.79 165.009 1938.43 162.787 Q1936.1 160.541 1936.1 156.791 Q1936.1 152.416 1939.01 150.194 Q1941.95 147.972 1947.76 147.972 L1953.73 147.972 L1953.73 147.555 Q1953.73 144.615 1951.79 143.018 Q1949.87 141.398 1946.37 141.398 Q1944.15 141.398 1942.04 141.93 Q1939.94 142.463 1937.99 143.527 L1937.99 139.592 Q1940.33 138.69 1942.53 138.25 Q1944.73 137.787 1946.81 137.787 Q1952.44 137.787 1955.22 140.703 Q1957.99 143.62 1957.99 149.546 Z" fill="#000000" fill-rule="nonzero" fill-opacity="1" /><circle clip-path="url(#clip780)" cx="1235.92" cy="198.898" r="20.48" fill="#e26f46" fill-rule="evenodd" fill-opacity="1" stroke="#000000" stroke-opacity="1" stroke-width="4.55111"/>
<path clip-path="url(#clip780)" d="M1352.56 200.529 L1352.56 216.178 L1348.3 216.178 L1348.3 200.668 Q1348.3 196.988 1346.86 195.159 Q1345.43 193.33 1342.56 193.33 Q1339.11 193.33 1337.12 195.53 Q1335.13 197.729 1335.13 201.525 L1335.13 216.178 L1330.84 216.178 L1330.84 190.252 L1335.13 190.252 L1335.13 194.28 Q1336.65 191.942 1338.71 190.784 Q1340.8 189.627 1343.51 189.627 Q1347.97 189.627 1350.27 192.405 Q1352.56 195.159 1352.56 200.529 Z" fill="#000000" fill-rule="nonzero" fill-opacity="1" /><path clip-path="url(#clip780)" d="M1372.83 203.145 Q1367.67 203.145 1365.68 204.326 Q1363.69 205.506 1363.69 208.354 Q1363.69 210.622 1365.17 211.965 Q1366.68 213.284 1369.25 213.284 Q1372.79 213.284 1374.92 210.784 Q1377.07 208.261 1377.07 204.094 L1377.07 203.145 L1372.83 203.145 M1381.33 201.386 L1381.33 216.178 L1377.07 216.178 L1377.07 212.242 Q1375.61 214.603 1373.44 215.738 Q1371.26 216.849 1368.11 216.849 Q1364.13 216.849 1361.77 214.627 Q1359.43 212.381 1359.43 208.631 Q1359.43 204.256 1362.35 202.034 Q1365.29 199.812 1371.1 199.812 L1377.07 199.812 L1377.07 199.395 Q1377.07 196.455 1375.13 194.858 Q1373.21 193.238 1369.71 193.238 Q1367.49 193.238 1365.38 193.77 Q1363.27 194.303 1361.33 195.367 L1361.33 191.432 Q1363.67 190.53 1365.87 190.09 Q1368.07 189.627 1370.15 189.627 Q1375.77 189.627 1378.55 192.543 Q1381.33 195.46 1381.33 201.386 Z" fill="#000000" fill-rule="nonzero" fill-opacity="1" /><path clip-path="url(#clip780)" d="M1394.22 212.289 L1394.22 226.039 L1389.94 226.039 L1389.94 190.252 L1394.22 190.252 L1394.22 194.187 Q1395.57 191.872 1397.6 190.761 Q1399.66 189.627 1402.51 189.627 Q1407.23 189.627 1410.17 193.377 Q1413.14 197.127 1413.14 203.238 Q1413.14 209.349 1410.17 213.099 Q1407.23 216.849 1402.51 216.849 Q1399.66 216.849 1397.6 215.738 Q1395.57 214.603 1394.22 212.289 M1408.71 203.238 Q1408.71 198.539 1406.77 195.877 Q1404.85 193.192 1401.47 193.192 Q1398.09 193.192 1396.14 195.877 Q1394.22 198.539 1394.22 203.238 Q1394.22 207.937 1396.14 210.622 Q1398.09 213.284 1401.47 213.284 Q1404.85 213.284 1406.77 210.622 Q1408.71 207.937 1408.71 203.238 Z" fill="#000000" fill-rule="nonzero" fill-opacity="1" /><path clip-path="url(#clip780)" d="M1431.98 203.145 Q1426.82 203.145 1424.83 204.326 Q1422.83 205.506 1422.83 208.354 Q1422.83 210.622 1424.32 211.965 Q1425.82 213.284 1428.39 213.284 Q1431.93 213.284 1434.06 210.784 Q1436.21 208.261 1436.21 204.094 L1436.21 203.145 L1431.98 203.145 M1440.47 201.386 L1440.47 216.178 L1436.21 216.178 L1436.21 212.242 Q1434.76 214.603 1432.58 215.738 Q1430.4 216.849 1427.26 216.849 Q1423.27 216.849 1420.91 214.627 Q1418.58 212.381 1418.58 208.631 Q1418.58 204.256 1421.49 202.034 Q1424.43 199.812 1430.24 199.812 L1436.21 199.812 L1436.21 199.395 Q1436.21 196.455 1434.27 194.858 Q1432.35 193.238 1428.85 193.238 Q1426.63 193.238 1424.52 193.77 Q1422.42 194.303 1420.47 195.367 L1420.47 191.432 Q1422.81 190.53 1425.01 190.09 Q1427.21 189.627 1429.29 189.627 Q1434.92 189.627 1437.7 192.543 Q1440.47 195.46 1440.47 201.386 Z" fill="#000000" fill-rule="nonzero" fill-opacity="1" /><path clip-path="url(#clip780)" d="M1449.08 180.159 L1453.37 180.159 L1453.37 201.432 L1466.07 190.252 L1471.51 190.252 L1457.76 202.381 L1472.09 216.178 L1466.54 216.178 L1453.37 203.516 L1453.37 216.178 L1449.08 216.178 L1449.08 180.159 Z" fill="#000000" fill-rule="nonzero" fill-opacity="1" /><path clip-path="url(#clip780)" d="M1487.65 203.145 Q1482.49 203.145 1480.5 204.326 Q1478.51 205.506 1478.51 208.354 Q1478.51 210.622 1479.99 211.965 Q1481.49 213.284 1484.06 213.284 Q1487.6 213.284 1489.73 210.784 Q1491.88 208.261 1491.88 204.094 L1491.88 203.145 L1487.65 203.145 M1496.14 201.386 L1496.14 216.178 L1491.88 216.178 L1491.88 212.242 Q1490.43 214.603 1488.25 215.738 Q1486.07 216.849 1482.93 216.849 Q1478.95 216.849 1476.58 214.627 Q1474.25 212.381 1474.25 208.631 Q1474.25 204.256 1477.16 202.034 Q1480.1 199.812 1485.91 199.812 L1491.88 199.812 L1491.88 199.395 Q1491.88 196.455 1489.94 194.858 Q1488.02 193.238 1484.52 193.238 Q1482.3 193.238 1480.2 193.77 Q1478.09 194.303 1476.14 195.367 L1476.14 191.432 Q1478.48 190.53 1480.68 190.09 Q1482.88 189.627 1484.96 189.627 Q1490.59 189.627 1493.37 192.543 Q1496.14 195.46 1496.14 201.386 Z" fill="#000000" fill-rule="nonzero" fill-opacity="1" /><path clip-path="url(#clip780)" d="M1540.89 182.752 L1540.89 187.312 Q1538.23 186.039 1535.87 185.414 Q1533.51 184.789 1531.31 184.789 Q1527.49 184.789 1525.4 186.27 Q1523.34 187.752 1523.34 190.483 Q1523.34 192.775 1524.71 193.955 Q1526.1 195.113 1529.94 195.83 L1532.76 196.409 Q1538 197.405 1540.47 199.928 Q1542.97 202.428 1542.97 206.641 Q1542.97 211.664 1539.59 214.256 Q1536.24 216.849 1529.73 216.849 Q1527.28 216.849 1524.5 216.293 Q1521.75 215.738 1518.78 214.65 L1518.78 209.835 Q1521.63 211.432 1524.36 212.242 Q1527.09 213.053 1529.73 213.053 Q1533.74 213.053 1535.91 211.479 Q1538.09 209.904 1538.09 206.988 Q1538.09 204.442 1536.51 203.006 Q1534.96 201.571 1531.4 200.854 L1528.55 200.298 Q1523.32 199.256 1520.98 197.034 Q1518.64 194.812 1518.64 190.854 Q1518.64 186.27 1521.86 183.631 Q1525.1 180.993 1530.77 180.993 Q1533.2 180.993 1535.73 181.432 Q1538.25 181.872 1540.89 182.752 Z" fill="#000000" fill-rule="nonzero" fill-opacity="1" /><path clip-path="url(#clip780)" d="M1550.08 190.252 L1554.34 190.252 L1554.34 216.178 L1550.08 216.178 L1550.08 190.252 M1550.08 180.159 L1554.34 180.159 L1554.34 185.553 L1550.08 185.553 L1550.08 180.159 Z" fill="#000000" fill-rule="nonzero" fill-opacity="1" /><path clip-path="url(#clip780)" d="M1583.44 195.229 Q1585.03 192.358 1587.25 190.993 Q1589.48 189.627 1592.49 189.627 Q1596.54 189.627 1598.74 192.474 Q1600.94 195.298 1600.94 200.529 L1600.94 216.178 L1596.65 216.178 L1596.65 200.668 Q1596.65 196.942 1595.33 195.136 Q1594.01 193.33 1591.31 193.33 Q1588 193.33 1586.07 195.53 Q1584.15 197.729 1584.15 201.525 L1584.15 216.178 L1579.87 216.178 L1579.87 200.668 Q1579.87 196.918 1578.55 195.136 Q1577.23 193.33 1574.48 193.33 Q1571.21 193.33 1569.29 195.553 Q1567.37 197.752 1567.37 201.525 L1567.37 216.178 L1563.09 216.178 L1563.09 190.252 L1567.37 190.252 L1567.37 194.28 Q1568.83 191.895 1570.87 190.761 Q1572.9 189.627 1575.7 189.627 Q1578.53 189.627 1580.5 191.062 Q1582.49 192.497 1583.44 195.229 Z" fill="#000000" fill-rule="nonzero" fill-opacity="1" /><path clip-path="url(#clip780)" d="M1613.55 212.289 L1613.55 226.039 L1609.27 226.039 L1609.27 190.252 L1613.55 190.252 L1613.55 194.187 Q1614.89 191.872 1616.93 190.761 Q1618.99 189.627 1621.84 189.627 Q1626.56 189.627 1629.5 193.377 Q1632.46 197.127 1632.46 203.238 Q1632.46 209.349 1629.5 213.099 Q1626.56 216.849 1621.84 216.849 Q1618.99 216.849 1616.93 215.738 Q1614.89 214.603 1613.55 212.289 M1628.04 203.238 Q1628.04 198.539 1626.1 195.877 Q1624.18 193.192 1620.8 193.192 Q1617.42 193.192 1615.47 195.877 Q1613.55 198.539 1613.55 203.238 Q1613.55 207.937 1615.47 210.622 Q1617.42 213.284 1620.8 213.284 Q1624.18 213.284 1626.1 210.622 Q1628.04 207.937 1628.04 203.238 Z" fill="#000000" fill-rule="nonzero" fill-opacity="1" /><path clip-path="url(#clip780)" d="M1656.05 191.016 L1656.05 195.043 Q1654.25 194.117 1652.3 193.655 Q1650.36 193.192 1648.27 193.192 Q1645.1 193.192 1643.5 194.164 Q1641.93 195.136 1641.93 197.08 Q1641.93 198.562 1643.06 199.418 Q1644.2 200.252 1647.62 201.016 L1649.08 201.34 Q1653.62 202.312 1655.52 204.094 Q1657.44 205.854 1657.44 209.025 Q1657.44 212.636 1654.57 214.742 Q1651.72 216.849 1646.72 216.849 Q1644.64 216.849 1642.37 216.432 Q1640.12 216.039 1637.62 215.228 L1637.62 210.83 Q1639.99 212.057 1642.28 212.682 Q1644.57 213.284 1646.81 213.284 Q1649.82 213.284 1651.44 212.266 Q1653.06 211.224 1653.06 209.349 Q1653.06 207.613 1651.88 206.687 Q1650.73 205.761 1646.77 204.904 L1645.29 204.557 Q1641.33 203.724 1639.57 202.011 Q1637.81 200.275 1637.81 197.266 Q1637.81 193.608 1640.4 191.618 Q1643 189.627 1647.76 189.627 Q1650.12 189.627 1652.21 189.974 Q1654.29 190.321 1656.05 191.016 Z" fill="#000000" fill-rule="nonzero" fill-opacity="1" /><path clip-path="url(#clip780)" d="M1674.27 193.238 Q1670.84 193.238 1668.85 195.923 Q1666.86 198.585 1666.86 203.238 Q1666.86 207.891 1668.83 210.576 Q1670.82 213.238 1674.27 213.238 Q1677.67 213.238 1679.66 210.553 Q1681.65 207.867 1681.65 203.238 Q1681.65 198.631 1679.66 195.946 Q1677.67 193.238 1674.27 193.238 M1674.27 189.627 Q1679.82 189.627 1683 193.238 Q1686.17 196.849 1686.17 203.238 Q1686.17 209.604 1683 213.238 Q1679.82 216.849 1674.27 216.849 Q1668.69 216.849 1665.52 213.238 Q1662.37 209.604 1662.37 203.238 Q1662.37 196.849 1665.52 193.238 Q1668.69 189.627 1674.27 189.627 Z" fill="#000000" fill-rule="nonzero" fill-opacity="1" /><path clip-path="url(#clip780)" d="M1714.78 200.529 L1714.78 216.178 L1710.52 216.178 L1710.52 200.668 Q1710.52 196.988 1709.08 195.159 Q1707.65 193.33 1704.78 193.33 Q1701.33 193.33 1699.34 195.53 Q1697.35 197.729 1697.35 201.525 L1697.35 216.178 L1693.06 216.178 L1693.06 190.252 L1697.35 190.252 L1697.35 194.28 Q1698.87 191.942 1700.93 190.784 Q1703.02 189.627 1705.73 189.627 Q1710.19 189.627 1712.49 192.405 Q1714.78 195.159 1714.78 200.529 Z" fill="#000000" fill-rule="nonzero" fill-opacity="1" /><path clip-path="url(#clip780)" d="M1733.32 193.238 Q1729.89 193.238 1727.9 195.923 Q1725.91 198.585 1725.91 203.238 Q1725.91 207.891 1727.88 210.576 Q1729.87 213.238 1733.32 213.238 Q1736.72 213.238 1738.71 210.553 Q1740.7 207.867 1740.7 203.238 Q1740.7 198.631 1738.71 195.946 Q1736.72 193.238 1733.32 193.238 M1733.32 189.627 Q1738.87 189.627 1742.05 193.238 Q1745.22 196.849 1745.22 203.238 Q1745.22 209.604 1742.05 213.238 Q1738.87 216.849 1733.32 216.849 Q1727.74 216.849 1724.57 213.238 Q1721.42 209.604 1721.42 203.238 Q1721.42 196.849 1724.57 193.238 Q1727.74 189.627 1733.32 189.627 Z" fill="#000000" fill-rule="nonzero" fill-opacity="1" /><path clip-path="url(#clip780)" d="M1749.22 190.252 L1753.74 190.252 L1761.84 212.011 L1769.94 190.252 L1774.45 190.252 L1764.73 216.178 L1758.94 216.178 L1749.22 190.252 Z" fill="#000000" fill-rule="nonzero" fill-opacity="1" /><path clip-path="url(#clip780)" d="M1802.51 202.15 L1802.51 204.233 L1782.93 204.233 Q1783.2 208.631 1785.56 210.946 Q1787.95 213.238 1792.18 213.238 Q1794.64 213.238 1796.93 212.636 Q1799.24 212.034 1801.51 210.83 L1801.51 214.858 Q1799.22 215.83 1796.81 216.34 Q1794.41 216.849 1791.93 216.849 Q1785.73 216.849 1782.09 213.238 Q1778.48 209.627 1778.48 203.469 Q1778.48 197.104 1781.91 193.377 Q1785.36 189.627 1791.19 189.627 Q1796.42 189.627 1799.45 193.006 Q1802.51 196.363 1802.51 202.15 M1798.25 200.9 Q1798.2 197.405 1796.28 195.321 Q1794.38 193.238 1791.24 193.238 Q1787.67 193.238 1785.52 195.252 Q1783.39 197.266 1783.06 200.923 L1798.25 200.9 Z" fill="#000000" fill-rule="nonzero" fill-opacity="1" /><path clip-path="url(#clip780)" d="M1826.56 202.914 Q1826.56 198.284 1824.64 195.738 Q1822.74 193.192 1819.29 193.192 Q1815.86 193.192 1813.94 195.738 Q1812.05 198.284 1812.05 202.914 Q1812.05 207.52 1813.94 210.066 Q1815.86 212.613 1819.29 212.613 Q1822.74 212.613 1824.64 210.066 Q1826.56 207.52 1826.56 202.914 M1830.82 212.96 Q1830.82 219.58 1827.88 222.798 Q1824.94 226.039 1818.87 226.039 Q1816.63 226.039 1814.64 225.691 Q1812.65 225.367 1810.77 224.673 L1810.77 220.529 Q1812.65 221.548 1814.48 222.034 Q1816.3 222.52 1818.2 222.52 Q1822.39 222.52 1824.48 220.321 Q1826.56 218.145 1826.56 213.724 L1826.56 211.617 Q1825.24 213.909 1823.18 215.043 Q1821.12 216.178 1818.25 216.178 Q1813.48 216.178 1810.56 212.543 Q1807.65 208.909 1807.65 202.914 Q1807.65 196.895 1810.56 193.261 Q1813.48 189.627 1818.25 189.627 Q1821.12 189.627 1823.18 190.761 Q1825.24 191.895 1826.56 194.187 L1826.56 190.252 L1830.82 190.252 L1830.82 212.96 Z" fill="#000000" fill-rule="nonzero" fill-opacity="1" /><path clip-path="url(#clip780)" d="M1851.37 203.145 Q1846.21 203.145 1844.22 204.326 Q1842.23 205.506 1842.23 208.354 Q1842.23 210.622 1843.71 211.965 Q1845.22 213.284 1847.79 213.284 Q1851.33 213.284 1853.46 210.784 Q1855.61 208.261 1855.61 204.094 L1855.61 203.145 L1851.37 203.145 M1859.87 201.386 L1859.87 216.178 L1855.61 216.178 L1855.61 212.242 Q1854.15 214.603 1851.98 215.738 Q1849.8 216.849 1846.65 216.849 Q1842.67 216.849 1840.31 214.627 Q1837.97 212.381 1837.97 208.631 Q1837.97 204.256 1840.89 202.034 Q1843.83 199.812 1849.64 199.812 L1855.61 199.812 L1855.61 199.395 Q1855.61 196.455 1853.67 194.858 Q1851.74 193.238 1848.25 193.238 Q1846.03 193.238 1843.92 193.77 Q1841.81 194.303 1839.87 195.367 L1839.87 191.432 Q1842.21 190.53 1844.41 190.09 Q1846.61 189.627 1848.69 189.627 Q1854.31 189.627 1857.09 192.543 Q1859.87 195.46 1859.87 201.386 Z" fill="#000000" fill-rule="nonzero" fill-opacity="1" /><path clip-path="url(#clip780)" d="M1887.83 212.289 L1887.83 226.039 L1883.55 226.039 L1883.55 190.252 L1887.83 190.252 L1887.83 194.187 Q1889.17 191.872 1891.21 190.761 Q1893.27 189.627 1896.12 189.627 Q1900.84 189.627 1903.78 193.377 Q1906.74 197.127 1906.74 203.238 Q1906.74 209.349 1903.78 213.099 Q1900.84 216.849 1896.12 216.849 Q1893.27 216.849 1891.21 215.738 Q1889.17 214.603 1887.83 212.289 M1902.32 203.238 Q1902.32 198.539 1900.38 195.877 Q1898.46 193.192 1895.08 193.192 Q1891.7 193.192 1889.75 195.877 Q1887.83 198.539 1887.83 203.238 Q1887.83 207.937 1889.75 210.622 Q1891.7 213.284 1895.08 213.284 Q1898.46 213.284 1900.38 210.622 Q1902.32 207.937 1902.32 203.238 Z" fill="#000000" fill-rule="nonzero" fill-opacity="1" /><path clip-path="url(#clip780)" d="M1928.83 194.233 Q1928.11 193.817 1927.25 193.631 Q1926.42 193.423 1925.4 193.423 Q1921.79 193.423 1919.85 195.784 Q1917.92 198.122 1917.92 202.52 L1917.92 216.178 L1913.64 216.178 L1913.64 190.252 L1917.92 190.252 L1917.92 194.28 Q1919.27 191.918 1921.42 190.784 Q1923.57 189.627 1926.65 189.627 Q1927.09 189.627 1927.62 189.696 Q1928.16 189.743 1928.8 189.858 L1928.83 194.233 Z" fill="#000000" fill-rule="nonzero" fill-opacity="1" /><path clip-path="url(#clip780)" d="M1945.08 203.145 Q1939.91 203.145 1937.92 204.326 Q1935.93 205.506 1935.93 208.354 Q1935.93 210.622 1937.42 211.965 Q1938.92 213.284 1941.49 213.284 Q1945.03 213.284 1947.16 210.784 Q1949.31 208.261 1949.31 204.094 L1949.31 203.145 L1945.08 203.145 M1953.57 201.386 L1953.57 216.178 L1949.31 216.178 L1949.31 212.242 Q1947.85 214.603 1945.68 215.738 Q1943.5 216.849 1940.35 216.849 Q1936.37 216.849 1934.01 214.627 Q1931.67 212.381 1931.67 208.631 Q1931.67 204.256 1934.59 202.034 Q1937.53 199.812 1943.34 199.812 L1949.31 199.812 L1949.31 199.395 Q1949.31 196.455 1947.37 194.858 Q1945.45 193.238 1941.95 193.238 Q1939.73 193.238 1937.62 193.77 Q1935.52 194.303 1933.57 195.367 L1933.57 191.432 Q1935.91 190.53 1938.11 190.09 Q1940.31 189.627 1942.39 189.627 Q1948.02 189.627 1950.79 192.543 Q1953.57 195.46 1953.57 201.386 Z" fill="#000000" fill-rule="nonzero" fill-opacity="1" /><path clip-path="url(#clip780)" d="M1959.29 190.252 L1963.8 190.252 L1971.91 212.011 L1980.01 190.252 L1984.52 190.252 L1974.8 216.178 L1969.01 216.178 L1959.29 190.252 Z" fill="#000000" fill-rule="nonzero" fill-opacity="1" /><path clip-path="url(#clip780)" d="M1990.4 190.252 L1994.66 190.252 L1994.66 216.178 L1990.4 216.178 L1990.4 190.252 M1990.4 180.159 L1994.66 180.159 L1994.66 185.553 L1990.4 185.553 L1990.4 180.159 Z" fill="#000000" fill-rule="nonzero" fill-opacity="1" /><path clip-path="url(#clip780)" d="M2003.57 180.159 L2007.83 180.159 L2007.83 216.178 L2003.57 216.178 L2003.57 180.159 Z" fill="#000000" fill-rule="nonzero" fill-opacity="1" /><path clip-path="url(#clip780)" d="M2028.53 203.145 Q2023.36 203.145 2021.37 204.326 Q2019.38 205.506 2019.38 208.354 Q2019.38 210.622 2020.86 211.965 Q2022.37 213.284 2024.94 213.284 Q2028.48 213.284 2030.61 210.784 Q2032.76 208.261 2032.76 204.094 L2032.76 203.145 L2028.53 203.145 M2037.02 201.386 L2037.02 216.178 L2032.76 216.178 L2032.76 212.242 Q2031.3 214.603 2029.13 215.738 Q2026.95 216.849 2023.8 216.849 Q2019.82 216.849 2017.46 214.627 Q2015.12 212.381 2015.12 208.631 Q2015.12 204.256 2018.04 202.034 Q2020.98 199.812 2026.79 199.812 L2032.76 199.812 L2032.76 199.395 Q2032.76 196.455 2030.82 194.858 Q2028.9 193.238 2025.4 193.238 Q2023.18 193.238 2021.07 193.77 Q2018.97 194.303 2017.02 195.367 L2017.02 191.432 Q2019.36 190.53 2021.56 190.09 Q2023.76 189.627 2025.84 189.627 Q2031.47 189.627 2034.24 192.543 Q2037.02 195.46 2037.02 201.386 Z" fill="#000000" fill-rule="nonzero" fill-opacity="1" /><circle clip-path="url(#clip780)" cx="1235.92" cy="250.738" r="20.48" fill="#3da44d" fill-rule="evenodd" fill-opacity="1" stroke="#000000" stroke-opacity="1" stroke-width="4.55111"/>
<path clip-path="url(#clip780)" d="M1352.56 252.369 L1352.56 268.018 L1348.3 268.018 L1348.3 252.508 Q1348.3 248.828 1346.86 246.999 Q1345.43 245.17 1342.56 245.17 Q1339.11 245.17 1337.12 247.37 Q1335.13 249.569 1335.13 253.365 L1335.13 268.018 L1330.84 268.018 L1330.84 242.092 L1335.13 242.092 L1335.13 246.12 Q1336.65 243.782 1338.71 242.624 Q1340.8 241.467 1343.51 241.467 Q1347.97 241.467 1350.27 244.245 Q1352.56 246.999 1352.56 252.369 Z" fill="#000000" fill-rule="nonzero" fill-opacity="1" /><path clip-path="url(#clip780)" d="M1372.83 254.985 Q1367.67 254.985 1365.68 256.166 Q1363.69 257.346 1363.69 260.194 Q1363.69 262.462 1365.17 263.805 Q1366.68 265.124 1369.25 265.124 Q1372.79 265.124 1374.92 262.624 Q1377.07 260.101 1377.07 255.934 L1377.07 254.985 L1372.83 254.985 M1381.33 253.226 L1381.33 268.018 L1377.07 268.018 L1377.07 264.082 Q1375.61 266.443 1373.44 267.578 Q1371.26 268.689 1368.11 268.689 Q1364.13 268.689 1361.77 266.467 Q1359.43 264.221 1359.43 260.471 Q1359.43 256.096 1362.35 253.874 Q1365.29 251.652 1371.1 251.652 L1377.07 251.652 L1377.07 251.235 Q1377.07 248.295 1375.13 246.698 Q1373.21 245.078 1369.71 245.078 Q1367.49 245.078 1365.38 245.61 Q1363.27 246.143 1361.33 247.207 L1361.33 243.272 Q1363.67 242.37 1365.87 241.93 Q1368.07 241.467 1370.15 241.467 Q1375.77 241.467 1378.55 244.383 Q1381.33 247.3 1381.33 253.226 Z" fill="#000000" fill-rule="nonzero" fill-opacity="1" /><path clip-path="url(#clip780)" d="M1394.22 264.129 L1394.22 277.879 L1389.94 277.879 L1389.94 242.092 L1394.22 242.092 L1394.22 246.027 Q1395.57 243.712 1397.6 242.601 Q1399.66 241.467 1402.51 241.467 Q1407.23 241.467 1410.17 245.217 Q1413.14 248.967 1413.14 255.078 Q1413.14 261.189 1410.17 264.939 Q1407.23 268.689 1402.51 268.689 Q1399.66 268.689 1397.6 267.578 Q1395.57 266.443 1394.22 264.129 M1408.71 255.078 Q1408.71 250.379 1406.77 247.717 Q1404.85 245.032 1401.47 245.032 Q1398.09 245.032 1396.14 247.717 Q1394.22 250.379 1394.22 255.078 Q1394.22 259.777 1396.14 262.462 Q1398.09 265.124 1401.47 265.124 Q1404.85 265.124 1406.77 262.462 Q1408.71 259.777 1408.71 255.078 Z" fill="#000000" fill-rule="nonzero" fill-opacity="1" /><path clip-path="url(#clip780)" d="M1431.98 254.985 Q1426.82 254.985 1424.83 256.166 Q1422.83 257.346 1422.83 260.194 Q1422.83 262.462 1424.32 263.805 Q1425.82 265.124 1428.39 265.124 Q1431.93 265.124 1434.06 262.624 Q1436.21 260.101 1436.21 255.934 L1436.21 254.985 L1431.98 254.985 M1440.47 253.226 L1440.47 268.018 L1436.21 268.018 L1436.21 264.082 Q1434.76 266.443 1432.58 267.578 Q1430.4 268.689 1427.26 268.689 Q1423.27 268.689 1420.91 266.467 Q1418.58 264.221 1418.58 260.471 Q1418.58 256.096 1421.49 253.874 Q1424.43 251.652 1430.24 251.652 L1436.21 251.652 L1436.21 251.235 Q1436.21 248.295 1434.27 246.698 Q1432.35 245.078 1428.85 245.078 Q1426.63 245.078 1424.52 245.61 Q1422.42 246.143 1420.47 247.207 L1420.47 243.272 Q1422.81 242.37 1425.01 241.93 Q1427.21 241.467 1429.29 241.467 Q1434.92 241.467 1437.7 244.383 Q1440.47 247.3 1440.47 253.226 Z" fill="#000000" fill-rule="nonzero" fill-opacity="1" /><path clip-path="url(#clip780)" d="M1449.08 231.999 L1453.37 231.999 L1453.37 253.272 L1466.07 242.092 L1471.51 242.092 L1457.76 254.221 L1472.09 268.018 L1466.54 268.018 L1453.37 255.356 L1453.37 268.018 L1449.08 268.018 L1449.08 231.999 Z" fill="#000000" fill-rule="nonzero" fill-opacity="1" /><path clip-path="url(#clip780)" d="M1487.65 254.985 Q1482.49 254.985 1480.5 256.166 Q1478.51 257.346 1478.51 260.194 Q1478.51 262.462 1479.99 263.805 Q1481.49 265.124 1484.06 265.124 Q1487.6 265.124 1489.73 262.624 Q1491.88 260.101 1491.88 255.934 L1491.88 254.985 L1487.65 254.985 M1496.14 253.226 L1496.14 268.018 L1491.88 268.018 L1491.88 264.082 Q1490.43 266.443 1488.25 267.578 Q1486.07 268.689 1482.93 268.689 Q1478.95 268.689 1476.58 266.467 Q1474.25 264.221 1474.25 260.471 Q1474.25 256.096 1477.16 253.874 Q1480.1 251.652 1485.91 251.652 L1491.88 251.652 L1491.88 251.235 Q1491.88 248.295 1489.94 246.698 Q1488.02 245.078 1484.52 245.078 Q1482.3 245.078 1480.2 245.61 Q1478.09 246.143 1476.14 247.207 L1476.14 243.272 Q1478.48 242.37 1480.68 241.93 Q1482.88 241.467 1484.96 241.467 Q1490.59 241.467 1493.37 244.383 Q1496.14 247.3 1496.14 253.226 Z" fill="#000000" fill-rule="nonzero" fill-opacity="1" /><path clip-path="url(#clip780)" d="M1543.74 263.087 L1543.74 253.805 L1536.1 253.805 L1536.1 249.962 L1548.37 249.962 L1548.37 264.8 Q1545.66 266.721 1542.39 267.717 Q1539.13 268.689 1535.43 268.689 Q1527.32 268.689 1522.74 263.967 Q1518.18 259.221 1518.18 250.772 Q1518.18 242.3 1522.74 237.578 Q1527.32 232.833 1535.43 232.833 Q1538.81 232.833 1541.84 233.666 Q1544.89 234.499 1547.46 236.12 L1547.46 241.096 Q1544.87 238.897 1541.95 237.786 Q1539.04 236.675 1535.82 236.675 Q1529.48 236.675 1526.28 240.217 Q1523.11 243.758 1523.11 250.772 Q1523.11 257.763 1526.28 261.305 Q1529.48 264.846 1535.82 264.846 Q1538.3 264.846 1540.24 264.43 Q1542.19 263.99 1543.74 263.087 Z" fill="#000000" fill-rule="nonzero" fill-opacity="1" /><path clip-path="url(#clip780)" d="M1568.5 254.985 Q1563.34 254.985 1561.35 256.166 Q1559.36 257.346 1559.36 260.194 Q1559.36 262.462 1560.84 263.805 Q1562.35 265.124 1564.92 265.124 Q1568.46 265.124 1570.59 262.624 Q1572.74 260.101 1572.74 255.934 L1572.74 254.985 L1568.5 254.985 M1577 253.226 L1577 268.018 L1572.74 268.018 L1572.74 264.082 Q1571.28 266.443 1569.11 267.578 Q1566.93 268.689 1563.78 268.689 Q1559.8 268.689 1557.44 266.467 Q1555.1 264.221 1555.1 260.471 Q1555.1 256.096 1558.02 253.874 Q1560.96 251.652 1566.77 251.652 L1572.74 251.652 L1572.74 251.235 Q1572.74 248.295 1570.8 246.698 Q1568.88 245.078 1565.38 245.078 Q1563.16 245.078 1561.05 245.61 Q1558.94 246.143 1557 247.207 L1557 243.272 Q1559.34 242.37 1561.54 241.93 Q1563.74 241.467 1565.82 241.467 Q1571.44 241.467 1574.22 244.383 Q1577 247.3 1577 253.226 Z" fill="#000000" fill-rule="nonzero" fill-opacity="1" /><path clip-path="url(#clip780)" d="M1585.33 257.786 L1585.33 242.092 L1589.59 242.092 L1589.59 257.624 Q1589.59 261.305 1591.03 263.156 Q1592.46 264.985 1595.33 264.985 Q1598.78 264.985 1600.77 262.786 Q1602.79 260.587 1602.79 256.791 L1602.79 242.092 L1607.05 242.092 L1607.05 268.018 L1602.79 268.018 L1602.79 264.036 Q1601.24 266.397 1599.18 267.555 Q1597.14 268.689 1594.43 268.689 Q1589.96 268.689 1587.65 265.911 Q1585.33 263.133 1585.33 257.786 M1596.05 241.467 L1596.05 241.467 Z" fill="#000000" fill-rule="nonzero" fill-opacity="1" /><path clip-path="url(#clip780)" d="M1632.35 242.856 L1632.35 246.883 Q1630.54 245.957 1628.6 245.495 Q1626.65 245.032 1624.57 245.032 Q1621.4 245.032 1619.8 246.004 Q1618.23 246.976 1618.23 248.92 Q1618.23 250.402 1619.36 251.258 Q1620.5 252.092 1623.92 252.856 L1625.38 253.18 Q1629.92 254.152 1631.81 255.934 Q1633.74 257.694 1633.74 260.865 Q1633.74 264.476 1630.87 266.582 Q1628.02 268.689 1623.02 268.689 Q1620.94 268.689 1618.67 268.272 Q1616.42 267.879 1613.92 267.068 L1613.92 262.67 Q1616.28 263.897 1618.57 264.522 Q1620.87 265.124 1623.11 265.124 Q1626.12 265.124 1627.74 264.106 Q1629.36 263.064 1629.36 261.189 Q1629.36 259.453 1628.18 258.527 Q1627.02 257.601 1623.06 256.744 L1621.58 256.397 Q1617.63 255.564 1615.87 253.851 Q1614.11 252.115 1614.11 249.106 Q1614.11 245.448 1616.7 243.458 Q1619.29 241.467 1624.06 241.467 Q1626.42 241.467 1628.5 241.814 Q1630.59 242.161 1632.35 242.856 Z" fill="#000000" fill-rule="nonzero" fill-opacity="1" /><path clip-path="url(#clip780)" d="M1657.05 242.856 L1657.05 246.883 Q1655.24 245.957 1653.3 245.495 Q1651.35 245.032 1649.27 245.032 Q1646.1 245.032 1644.5 246.004 Q1642.93 246.976 1642.93 248.92 Q1642.93 250.402 1644.06 251.258 Q1645.19 252.092 1648.62 252.856 L1650.08 253.18 Q1654.62 254.152 1656.51 255.934 Q1658.44 257.694 1658.44 260.865 Q1658.44 264.476 1655.56 266.582 Q1652.72 268.689 1647.72 268.689 Q1645.63 268.689 1643.37 268.272 Q1641.12 267.879 1638.62 267.068 L1638.62 262.67 Q1640.98 263.897 1643.27 264.522 Q1645.56 265.124 1647.81 265.124 Q1650.82 265.124 1652.44 264.106 Q1654.06 263.064 1654.06 261.189 Q1654.06 259.453 1652.88 258.527 Q1651.72 257.601 1647.76 256.744 L1646.28 256.397 Q1642.32 255.564 1640.56 253.851 Q1638.81 252.115 1638.81 249.106 Q1638.81 245.448 1641.4 243.458 Q1643.99 241.467 1648.76 241.467 Q1651.12 241.467 1653.2 241.814 Q1655.29 242.161 1657.05 242.856 Z" fill="#000000" fill-rule="nonzero" fill-opacity="1" /><path clip-path="url(#clip780)" d="M1663.06 253.133 L1675.54 253.133 L1675.54 256.93 L1663.06 256.93 L1663.06 253.133 Z" fill="#000000" fill-rule="nonzero" fill-opacity="1" /><path clip-path="url(#clip780)" d="M1682.51 233.458 L1687.18 233.458 L1687.18 264.082 L1704.01 264.082 L1704.01 268.018 L1682.51 268.018 L1682.51 233.458 Z" fill="#000000" fill-rule="nonzero" fill-opacity="1" /><path clip-path="url(#clip780)" d="M1730.08 253.99 L1730.08 256.073 L1710.49 256.073 Q1710.77 260.471 1713.13 262.786 Q1715.52 265.078 1719.75 265.078 Q1722.21 265.078 1724.5 264.476 Q1726.81 263.874 1729.08 262.67 L1729.08 266.698 Q1726.79 267.67 1724.38 268.18 Q1721.98 268.689 1719.5 268.689 Q1713.3 268.689 1709.66 265.078 Q1706.05 261.467 1706.05 255.309 Q1706.05 248.944 1709.48 245.217 Q1712.93 241.467 1718.76 241.467 Q1723.99 241.467 1727.02 244.846 Q1730.08 248.203 1730.08 253.99 M1725.82 252.74 Q1725.77 249.245 1723.85 247.161 Q1721.95 245.078 1718.81 245.078 Q1715.24 245.078 1713.09 247.092 Q1710.96 249.106 1710.63 252.763 L1725.82 252.74 Z" fill="#000000" fill-rule="nonzero" fill-opacity="1" /><path clip-path="url(#clip780)" d="M1754.13 254.754 Q1754.13 250.124 1752.21 247.578 Q1750.31 245.032 1746.86 245.032 Q1743.43 245.032 1741.51 247.578 Q1739.62 250.124 1739.62 254.754 Q1739.62 259.36 1741.51 261.906 Q1743.43 264.453 1746.86 264.453 Q1750.31 264.453 1752.21 261.906 Q1754.13 259.36 1754.13 254.754 M1758.39 264.8 Q1758.39 271.42 1755.45 274.638 Q1752.51 277.879 1746.44 277.879 Q1744.2 277.879 1742.21 277.531 Q1740.22 277.207 1738.34 276.513 L1738.34 272.369 Q1740.22 273.388 1742.05 273.874 Q1743.87 274.36 1745.77 274.36 Q1749.96 274.36 1752.05 272.161 Q1754.13 269.985 1754.13 265.564 L1754.13 263.457 Q1752.81 265.749 1750.75 266.883 Q1748.69 268.018 1745.82 268.018 Q1741.05 268.018 1738.13 264.383 Q1735.22 260.749 1735.22 254.754 Q1735.22 248.735 1738.13 245.101 Q1741.05 241.467 1745.82 241.467 Q1748.69 241.467 1750.75 242.601 Q1752.81 243.735 1754.13 246.027 L1754.13 242.092 L1758.39 242.092 L1758.39 264.8 Z" fill="#000000" fill-rule="nonzero" fill-opacity="1" /><path clip-path="url(#clip780)" d="M1789.34 253.99 L1789.34 256.073 L1769.75 256.073 Q1770.03 260.471 1772.39 262.786 Q1774.78 265.078 1779.01 265.078 Q1781.47 265.078 1783.76 264.476 Q1786.07 263.874 1788.34 262.67 L1788.34 266.698 Q1786.05 267.67 1783.64 268.18 Q1781.24 268.689 1778.76 268.689 Q1772.55 268.689 1768.92 265.078 Q1765.31 261.467 1765.31 255.309 Q1765.31 248.944 1768.74 245.217 Q1772.18 241.467 1778.02 241.467 Q1783.25 241.467 1786.28 244.846 Q1789.34 248.203 1789.34 253.99 M1785.08 252.74 Q1785.03 249.245 1783.11 247.161 Q1781.21 245.078 1778.06 245.078 Q1774.5 245.078 1772.35 247.092 Q1770.22 249.106 1769.89 252.763 L1785.08 252.74 Z" fill="#000000" fill-rule="nonzero" fill-opacity="1" /><path clip-path="url(#clip780)" d="M1817.88 252.369 L1817.88 268.018 L1813.62 268.018 L1813.62 252.508 Q1813.62 248.828 1812.18 246.999 Q1810.75 245.17 1807.88 245.17 Q1804.43 245.17 1802.44 247.37 Q1800.45 249.569 1800.45 253.365 L1800.45 268.018 L1796.17 268.018 L1796.17 242.092 L1800.45 242.092 L1800.45 246.12 Q1801.98 243.782 1804.04 242.624 Q1806.12 241.467 1808.83 241.467 Q1813.3 241.467 1815.59 244.245 Q1817.88 246.999 1817.88 252.369 Z" fill="#000000" fill-rule="nonzero" fill-opacity="1" /><path clip-path="url(#clip780)" d="M1843.43 246.027 L1843.43 231.999 L1847.69 231.999 L1847.69 268.018 L1843.43 268.018 L1843.43 264.129 Q1842.09 266.443 1840.03 267.578 Q1837.99 268.689 1835.12 268.689 Q1830.42 268.689 1827.46 264.939 Q1824.52 261.189 1824.52 255.078 Q1824.52 248.967 1827.46 245.217 Q1830.42 241.467 1835.12 241.467 Q1837.99 241.467 1840.03 242.601 Q1842.09 243.712 1843.43 246.027 M1828.92 255.078 Q1828.92 259.777 1830.84 262.462 Q1832.79 265.124 1836.17 265.124 Q1839.55 265.124 1841.49 262.462 Q1843.43 259.777 1843.43 255.078 Q1843.43 250.379 1841.49 247.717 Q1839.55 245.032 1836.17 245.032 Q1832.79 245.032 1830.84 247.717 Q1828.92 250.379 1828.92 255.078 Z" fill="#000000" fill-rule="nonzero" fill-opacity="1" /><path clip-path="url(#clip780)" d="M1871.49 246.073 Q1870.77 245.657 1869.92 245.471 Q1869.08 245.263 1868.06 245.263 Q1864.45 245.263 1862.51 247.624 Q1860.59 249.962 1860.59 254.36 L1860.59 268.018 L1856.3 268.018 L1856.3 242.092 L1860.59 242.092 L1860.59 246.12 Q1861.93 243.758 1864.08 242.624 Q1866.23 241.467 1869.31 241.467 Q1869.75 241.467 1870.29 241.536 Q1870.82 241.583 1871.47 241.698 L1871.49 246.073 Z" fill="#000000" fill-rule="nonzero" fill-opacity="1" /><path clip-path="url(#clip780)" d="M1897.09 253.99 L1897.09 256.073 L1877.51 256.073 Q1877.79 260.471 1880.15 262.786 Q1882.53 265.078 1886.77 265.078 Q1889.22 265.078 1891.51 264.476 Q1893.83 263.874 1896.1 262.67 L1896.1 266.698 Q1893.8 267.67 1891.4 268.18 Q1888.99 268.689 1886.51 268.689 Q1880.31 268.689 1876.67 265.078 Q1873.06 261.467 1873.06 255.309 Q1873.06 248.944 1876.49 245.217 Q1879.94 241.467 1885.77 241.467 Q1891 241.467 1894.04 244.846 Q1897.09 248.203 1897.09 253.99 M1892.83 252.74 Q1892.79 249.245 1890.86 247.161 Q1888.97 245.078 1885.82 245.078 Q1882.25 245.078 1880.1 247.092 Q1877.97 249.106 1877.65 252.763 L1892.83 252.74 Z" fill="#000000" fill-rule="nonzero" fill-opacity="1" /><path clip-path="url(#clip780)" d="M1914.13 245.078 Q1910.7 245.078 1908.71 247.763 Q1906.72 250.425 1906.72 255.078 Q1906.72 259.731 1908.69 262.416 Q1910.68 265.078 1914.13 265.078 Q1917.53 265.078 1919.52 262.393 Q1921.51 259.707 1921.51 255.078 Q1921.51 250.471 1919.52 247.786 Q1917.53 245.078 1914.13 245.078 M1914.13 241.467 Q1919.68 241.467 1922.85 245.078 Q1926.03 248.689 1926.03 255.078 Q1926.03 261.444 1922.85 265.078 Q1919.68 268.689 1914.13 268.689 Q1908.55 268.689 1905.38 265.078 Q1902.23 261.444 1902.23 255.078 Q1902.23 248.689 1905.38 245.078 Q1908.55 241.467 1914.13 241.467 Z" fill="#000000" fill-rule="nonzero" fill-opacity="1" /><path clip-path="url(#clip780)" d="M1930.03 242.092 L1934.54 242.092 L1942.65 263.851 L1950.75 242.092 L1955.26 242.092 L1945.54 268.018 L1939.75 268.018 L1930.03 242.092 Z" fill="#000000" fill-rule="nonzero" fill-opacity="1" /><path clip-path="url(#clip780)" d="M1983.32 253.99 L1983.32 256.073 L1963.73 256.073 Q1964.01 260.471 1966.37 262.786 Q1968.76 265.078 1972.99 265.078 Q1975.45 265.078 1977.74 264.476 Q1980.05 263.874 1982.32 262.67 L1982.32 266.698 Q1980.03 267.67 1977.62 268.18 Q1975.22 268.689 1972.74 268.689 Q1966.54 268.689 1962.9 265.078 Q1959.29 261.467 1959.29 255.309 Q1959.29 248.944 1962.72 245.217 Q1966.16 241.467 1972 241.467 Q1977.23 241.467 1980.26 244.846 Q1983.32 248.203 1983.32 253.99 M1979.06 252.74 Q1979.01 249.245 1977.09 247.161 Q1975.19 245.078 1972.04 245.078 Q1968.48 245.078 1966.33 247.092 Q1964.2 249.106 1963.87 252.763 L1979.06 252.74 Z" fill="#000000" fill-rule="nonzero" fill-opacity="1" /><path clip-path="url(#clip780)" d="M2005.22 231.999 L2009.5 231.999 L2009.5 253.272 L2022.21 242.092 L2027.65 242.092 L2013.9 254.221 L2028.22 268.018 L2022.67 268.018 L2009.5 255.356 L2009.5 268.018 L2005.22 268.018 L2005.22 231.999 Z" fill="#000000" fill-rule="nonzero" fill-opacity="1" /><path clip-path="url(#clip780)" d="M2029.78 242.092 L2034.29 242.092 L2042.39 263.851 L2050.49 242.092 L2055.01 242.092 L2045.28 268.018 L2039.5 268.018 L2029.78 242.092 Z" fill="#000000" fill-rule="nonzero" fill-opacity="1" /><path clip-path="url(#clip780)" d="M2072.67 254.985 Q2067.51 254.985 2065.52 256.166 Q2063.53 257.346 2063.53 260.194 Q2063.53 262.462 2065.01 263.805 Q2066.51 265.124 2069.08 265.124 Q2072.62 265.124 2074.75 262.624 Q2076.9 260.101 2076.9 255.934 L2076.9 254.985 L2072.67 254.985 M2081.16 253.226 L2081.16 268.018 L2076.9 268.018 L2076.9 264.082 Q2075.45 266.443 2073.27 267.578 Q2071.09 268.689 2067.95 268.689 Q2063.97 268.689 2061.6 266.467 Q2059.27 264.221 2059.27 260.471 Q2059.27 256.096 2062.18 253.874 Q2065.12 251.652 2070.93 251.652 L2076.9 251.652 L2076.9 251.235 Q2076.9 248.295 2074.96 246.698 Q2073.04 245.078 2069.54 245.078 Q2067.32 245.078 2065.22 245.61 Q2063.11 246.143 2061.16 247.207 L2061.16 243.272 Q2063.5 242.37 2065.7 241.93 Q2067.9 241.467 2069.98 241.467 Q2075.61 241.467 2078.39 244.383 Q2081.16 247.3 2081.16 253.226 Z" fill="#000000" fill-rule="nonzero" fill-opacity="1" /><path clip-path="url(#clip780)" d="M2107 246.027 L2107 231.999 L2111.26 231.999 L2111.26 268.018 L2107 268.018 L2107 264.129 Q2105.65 266.443 2103.59 267.578 Q2101.56 268.689 2098.69 268.689 Q2093.99 268.689 2091.03 264.939 Q2088.09 261.189 2088.09 255.078 Q2088.09 248.967 2091.03 245.217 Q2093.99 241.467 2098.69 241.467 Q2101.56 241.467 2103.59 242.601 Q2105.65 243.712 2107 246.027 M2092.48 255.078 Q2092.48 259.777 2094.4 262.462 Q2096.35 265.124 2099.73 265.124 Q2103.11 265.124 2105.05 262.462 Q2107 259.777 2107 255.078 Q2107 250.379 2105.05 247.717 Q2103.11 245.032 2099.73 245.032 Q2096.35 245.032 2094.4 247.717 Q2092.48 250.379 2092.48 255.078 Z" fill="#000000" fill-rule="nonzero" fill-opacity="1" /><path clip-path="url(#clip780)" d="M2135.05 246.073 Q2134.34 245.657 2133.48 245.471 Q2132.65 245.263 2131.63 245.263 Q2128.02 245.263 2126.07 247.624 Q2124.15 249.962 2124.15 254.36 L2124.15 268.018 L2119.87 268.018 L2119.87 242.092 L2124.15 242.092 L2124.15 246.12 Q2125.49 243.758 2127.65 242.624 Q2129.8 241.467 2132.88 241.467 Q2133.32 241.467 2133.85 241.536 Q2134.38 241.583 2135.03 241.698 L2135.05 246.073 Z" fill="#000000" fill-rule="nonzero" fill-opacity="1" /><path clip-path="url(#clip780)" d="M2151.3 254.985 Q2146.14 254.985 2144.15 256.166 Q2142.16 257.346 2142.16 260.194 Q2142.16 262.462 2143.64 263.805 Q2145.15 265.124 2147.71 265.124 Q2151.26 265.124 2153.39 262.624 Q2155.54 260.101 2155.54 255.934 L2155.54 254.985 L2151.3 254.985 M2159.8 253.226 L2159.8 268.018 L2155.54 268.018 L2155.54 264.082 Q2154.08 266.443 2151.9 267.578 Q2149.73 268.689 2146.58 268.689 Q2142.6 268.689 2140.24 266.467 Q2137.9 264.221 2137.9 260.471 Q2137.9 256.096 2140.82 253.874 Q2143.76 251.652 2149.57 251.652 L2155.54 251.652 L2155.54 251.235 Q2155.54 248.295 2153.59 246.698 Q2151.67 245.078 2148.18 245.078 Q2145.96 245.078 2143.85 245.61 Q2141.74 246.143 2139.8 247.207 L2139.8 243.272 Q2142.14 242.37 2144.34 241.93 Q2146.53 241.467 2148.62 241.467 Q2154.24 241.467 2157.02 244.383 Q2159.8 247.3 2159.8 253.226 Z" fill="#000000" fill-rule="nonzero" fill-opacity="1" /><path clip-path="url(#clip780)" d="M2172.78 234.731 L2172.78 242.092 L2181.56 242.092 L2181.56 245.402 L2172.78 245.402 L2172.78 259.476 Q2172.78 262.647 2173.64 263.55 Q2174.52 264.453 2177.18 264.453 L2181.56 264.453 L2181.56 268.018 L2177.18 268.018 Q2172.25 268.018 2170.38 266.189 Q2168.5 264.337 2168.5 259.476 L2168.5 245.402 L2165.38 245.402 L2165.38 242.092 L2168.5 242.092 L2168.5 234.731 L2172.78 234.731 Z" fill="#000000" fill-rule="nonzero" fill-opacity="1" /><path clip-path="url(#clip780)" d="M2186.72 257.786 L2186.72 242.092 L2190.98 242.092 L2190.98 257.624 Q2190.98 261.305 2192.41 263.156 Q2193.85 264.985 2196.72 264.985 Q2200.17 264.985 2202.16 262.786 Q2204.17 260.587 2204.17 256.791 L2204.17 242.092 L2208.43 242.092 L2208.43 268.018 L2204.17 268.018 L2204.17 264.036 Q2202.62 266.397 2200.56 267.555 Q2198.52 268.689 2195.82 268.689 Q2191.35 268.689 2189.03 265.911 Q2186.72 263.133 2186.72 257.786 M2197.44 241.467 L2197.44 241.467 Z" fill="#000000" fill-rule="nonzero" fill-opacity="1" /><path clip-path="url(#clip780)" d="M2232.23 246.073 Q2231.51 245.657 2230.65 245.471 Q2229.82 245.263 2228.8 245.263 Q2225.19 245.263 2223.25 247.624 Q2221.33 249.962 2221.33 254.36 L2221.33 268.018 L2217.04 268.018 L2217.04 242.092 L2221.33 242.092 L2221.33 246.12 Q2222.67 243.758 2224.82 242.624 Q2226.97 241.467 2230.05 241.467 Q2230.49 241.467 2231.02 241.536 Q2231.56 241.583 2232.21 241.698 L2232.23 246.073 Z" fill="#000000" fill-rule="nonzero" fill-opacity="1" /><path clip-path="url(#clip780)" d="M2257.83 253.99 L2257.83 256.073 L2238.25 256.073 Q2238.52 260.471 2240.89 262.786 Q2243.27 265.078 2247.51 265.078 Q2249.96 265.078 2252.25 264.476 Q2254.57 263.874 2256.83 262.67 L2256.83 266.698 Q2254.54 267.67 2252.14 268.18 Q2249.73 268.689 2247.25 268.689 Q2241.05 268.689 2237.41 265.078 Q2233.8 261.467 2233.8 255.309 Q2233.8 248.944 2237.23 245.217 Q2240.68 241.467 2246.51 241.467 Q2251.74 241.467 2254.77 244.846 Q2257.83 248.203 2257.83 253.99 M2253.57 252.74 Q2253.52 249.245 2251.6 247.161 Q2249.7 245.078 2246.56 245.078 Q2242.99 245.078 2240.84 247.092 Q2238.71 249.106 2238.39 252.763 L2253.57 252.74 Z" fill="#000000" fill-rule="nonzero" fill-opacity="1" /></svg>
