<?xml version="1.0" encoding="utf-8"?>
<svg xmlns="http://www.w3.org/2000/svg" xmlns:xlink="http://www.w3.org/1999/xlink" width="600" height="400" viewBox="0 0 2400 1600">
<defs>
  <clipPath id="clip900">
    <rect x="0" y="0" width="2400" height="1600"/>
  </clipPath>
</defs>
<path clip-path="url(#clip900)" d="M0 1600 L2400 1600 L2400 0 L0 0  Z" fill="#ffffff" fill-rule="evenodd" fill-opacity="1"/>
<defs>
  <clipPath id="clip901">
    <rect x="480" y="0" width="1681" height="1600"/>
  </clipPath>
</defs>
<path clip-path="url(#clip900)" d="M186.274 1486.45 L2352.76 1486.45 L2352.76 47.2441 L186.274 47.2441  Z" fill="#ffffff" fill-rule="evenodd" fill-opacity="1"/>
<defs>
  <clipPath id="clip902">
    <rect x="186" y="47" width="2167" height="1440"/>
  </clipPath>
</defs>
<polyline clip-path="url(#clip902)" style="stroke:#000000; stroke-linecap:round; stroke-linejoin:round; stroke-width:2; stroke-opacity:0.1; fill:none" points="247.59,1486.45 247.59,47.2441 "/>
<polyline clip-path="url(#clip902)" style="stroke:#000000; stroke-linecap:round; stroke-linejoin:round; stroke-width:2; stroke-opacity:0.1; fill:none" points="758.552,1486.45 758.552,47.2441 "/>
<polyline clip-path="url(#clip902)" style="stroke:#000000; stroke-linecap:round; stroke-linejoin:round; stroke-width:2; stroke-opacity:0.1; fill:none" points="1269.51,1486.45 1269.51,47.2441 "/>
<polyline clip-path="url(#clip902)" style="stroke:#000000; stroke-linecap:round; stroke-linejoin:round; stroke-width:2; stroke-opacity:0.1; fill:none" points="1780.48,1486.45 1780.48,47.2441 "/>
<polyline clip-path="url(#clip902)" style="stroke:#000000; stroke-linecap:round; stroke-linejoin:round; stroke-width:2; stroke-opacity:0.1; fill:none" points="2291.44,1486.45 2291.44,47.2441 "/>
<polyline clip-path="url(#clip902)" style="stroke:#000000; stroke-linecap:round; stroke-linejoin:round; stroke-width:2; stroke-opacity:0.1; fill:none" points="186.274,1445.72 2352.76,1445.72 "/>
<polyline clip-path="url(#clip902)" style="stroke:#000000; stroke-linecap:round; stroke-linejoin:round; stroke-width:2; stroke-opacity:0.1; fill:none" points="186.274,1106.27 2352.76,1106.27 "/>
<polyline clip-path="url(#clip902)" style="stroke:#000000; stroke-linecap:round; stroke-linejoin:round; stroke-width:2; stroke-opacity:0.1; fill:none" points="186.274,766.828 2352.76,766.828 "/>
<polyline clip-path="url(#clip902)" style="stroke:#000000; stroke-linecap:round; stroke-linejoin:round; stroke-width:2; stroke-opacity:0.1; fill:none" points="186.274,427.383 2352.76,427.383 "/>
<polyline clip-path="url(#clip902)" style="stroke:#000000; stroke-linecap:round; stroke-linejoin:round; stroke-width:2; stroke-opacity:0.1; fill:none" points="186.274,87.9394 2352.76,87.9394 "/>
<polyline clip-path="url(#clip900)" style="stroke:#000000; stroke-linecap:round; stroke-linejoin:round; stroke-width:4; stroke-opacity:1; fill:none" points="186.274,1486.45 2352.76,1486.45 "/>
<polyline clip-path="url(#clip900)" style="stroke:#000000; stroke-linecap:round; stroke-linejoin:round; stroke-width:4; stroke-opacity:1; fill:none" points="247.59,1486.45 247.59,1467.55 "/>
<polyline clip-path="url(#clip900)" style="stroke:#000000; stroke-linecap:round; stroke-linejoin:round; stroke-width:4; stroke-opacity:1; fill:none" points="758.552,1486.45 758.552,1467.55 "/>
<polyline clip-path="url(#clip900)" style="stroke:#000000; stroke-linecap:round; stroke-linejoin:round; stroke-width:4; stroke-opacity:1; fill:none" points="1269.51,1486.45 1269.51,1467.55 "/>
<polyline clip-path="url(#clip900)" style="stroke:#000000; stroke-linecap:round; stroke-linejoin:round; stroke-width:4; stroke-opacity:1; fill:none" points="1780.48,1486.45 1780.48,1467.55 "/>
<polyline clip-path="url(#clip900)" style="stroke:#000000; stroke-linecap:round; stroke-linejoin:round; stroke-width:4; stroke-opacity:1; fill:none" points="2291.44,1486.45 2291.44,1467.55 "/>
<path clip-path="url(#clip900)" d="M224.974 1517.37 Q221.363 1517.37 219.534 1520.93 Q217.729 1524.47 217.729 1531.6 Q217.729 1538.71 219.534 1542.27 Q221.363 1545.82 224.974 1545.82 Q228.608 1545.82 230.414 1542.27 Q232.242 1538.71 232.242 1531.6 Q232.242 1524.47 230.414 1520.93 Q228.608 1517.37 224.974 1517.37 M224.974 1513.66 Q230.784 1513.66 233.84 1518.27 Q236.918 1522.85 236.918 1531.6 Q236.918 1540.33 233.84 1544.94 Q230.784 1549.52 224.974 1549.52 Q219.164 1549.52 216.085 1544.94 Q213.03 1540.33 213.03 1531.6 Q213.03 1522.85 216.085 1518.27 Q219.164 1513.66 224.974 1513.66 Z" fill="#000000" fill-rule="nonzero" fill-opacity="1" /><path clip-path="url(#clip900)" d="M245.136 1542.97 L250.02 1542.97 L250.02 1548.85 L245.136 1548.85 L245.136 1542.97 Z" fill="#000000" fill-rule="nonzero" fill-opacity="1" /><path clip-path="url(#clip900)" d="M270.205 1517.37 Q266.594 1517.37 264.765 1520.93 Q262.96 1524.47 262.96 1531.6 Q262.96 1538.71 264.765 1542.27 Q266.594 1545.82 270.205 1545.82 Q273.839 1545.82 275.645 1542.27 Q277.474 1538.71 277.474 1531.6 Q277.474 1524.47 275.645 1520.93 Q273.839 1517.37 270.205 1517.37 M270.205 1513.66 Q276.015 1513.66 279.071 1518.27 Q282.15 1522.85 282.15 1531.6 Q282.15 1540.33 279.071 1544.94 Q276.015 1549.52 270.205 1549.52 Q264.395 1549.52 261.316 1544.94 Q258.261 1540.33 258.261 1531.6 Q258.261 1522.85 261.316 1518.27 Q264.395 1513.66 270.205 1513.66 Z" fill="#000000" fill-rule="nonzero" fill-opacity="1" /><path clip-path="url(#clip900)" d="M736.434 1517.37 Q732.823 1517.37 730.995 1520.93 Q729.189 1524.47 729.189 1531.6 Q729.189 1538.71 730.995 1542.27 Q732.823 1545.82 736.434 1545.82 Q740.069 1545.82 741.874 1542.27 Q743.703 1538.71 743.703 1531.6 Q743.703 1524.47 741.874 1520.93 Q740.069 1517.37 736.434 1517.37 M736.434 1513.66 Q742.244 1513.66 745.3 1518.27 Q748.379 1522.85 748.379 1531.6 Q748.379 1540.33 745.3 1544.94 Q742.244 1549.52 736.434 1549.52 Q730.624 1549.52 727.545 1544.94 Q724.49 1540.33 724.49 1531.6 Q724.49 1522.85 727.545 1518.27 Q730.624 1513.66 736.434 1513.66 Z" fill="#000000" fill-rule="nonzero" fill-opacity="1" /><path clip-path="url(#clip900)" d="M756.596 1542.97 L761.48 1542.97 L761.48 1548.85 L756.596 1548.85 L756.596 1542.97 Z" fill="#000000" fill-rule="nonzero" fill-opacity="1" /><path clip-path="url(#clip900)" d="M771.712 1514.29 L790.068 1514.29 L790.068 1518.22 L775.994 1518.22 L775.994 1526.7 Q777.013 1526.35 778.031 1526.19 Q779.05 1526 780.068 1526 Q785.855 1526 789.235 1529.17 Q792.615 1532.34 792.615 1537.76 Q792.615 1543.34 789.142 1546.44 Q785.67 1549.52 779.351 1549.52 Q777.175 1549.52 774.906 1549.15 Q772.661 1548.78 770.254 1548.04 L770.254 1543.34 Q772.337 1544.47 774.559 1545.03 Q776.781 1545.58 779.258 1545.58 Q783.263 1545.58 785.601 1543.48 Q787.939 1541.37 787.939 1537.76 Q787.939 1534.15 785.601 1532.04 Q783.263 1529.94 779.258 1529.94 Q777.383 1529.94 775.508 1530.35 Q773.656 1530.77 771.712 1531.65 L771.712 1514.29 Z" fill="#000000" fill-rule="nonzero" fill-opacity="1" /><path clip-path="url(#clip900)" d="M1236.67 1544.91 L1244.31 1544.91 L1244.31 1518.55 L1236 1520.21 L1236 1515.95 L1244.26 1514.29 L1248.94 1514.29 L1248.94 1544.91 L1256.58 1544.91 L1256.58 1548.85 L1236.67 1548.85 L1236.67 1544.91 Z" fill="#000000" fill-rule="nonzero" fill-opacity="1" /><path clip-path="url(#clip900)" d="M1266.02 1542.97 L1270.9 1542.97 L1270.9 1548.85 L1266.02 1548.85 L1266.02 1542.97 Z" fill="#000000" fill-rule="nonzero" fill-opacity="1" /><path clip-path="url(#clip900)" d="M1291.09 1517.37 Q1287.48 1517.37 1285.65 1520.93 Q1283.84 1524.47 1283.84 1531.6 Q1283.84 1538.71 1285.65 1542.27 Q1287.48 1545.82 1291.09 1545.82 Q1294.72 1545.82 1296.53 1542.27 Q1298.36 1538.71 1298.36 1531.6 Q1298.36 1524.47 1296.53 1520.93 Q1294.72 1517.37 1291.09 1517.37 M1291.09 1513.66 Q1296.9 1513.66 1299.95 1518.27 Q1303.03 1522.85 1303.03 1531.6 Q1303.03 1540.33 1299.95 1544.94 Q1296.9 1549.52 1291.09 1549.52 Q1285.28 1549.52 1282.2 1544.94 Q1279.14 1540.33 1279.14 1531.6 Q1279.14 1522.85 1282.2 1518.27 Q1285.28 1513.66 1291.09 1513.66 Z" fill="#000000" fill-rule="nonzero" fill-opacity="1" /><path clip-path="url(#clip900)" d="M1748.13 1544.91 L1755.77 1544.91 L1755.77 1518.55 L1747.46 1520.21 L1747.46 1515.95 L1755.72 1514.29 L1760.4 1514.29 L1760.4 1544.91 L1768.04 1544.91 L1768.04 1548.85 L1748.13 1548.85 L1748.13 1544.91 Z" fill="#000000" fill-rule="nonzero" fill-opacity="1" /><path clip-path="url(#clip900)" d="M1777.48 1542.97 L1782.36 1542.97 L1782.36 1548.85 L1777.48 1548.85 L1777.48 1542.97 Z" fill="#000000" fill-rule="nonzero" fill-opacity="1" /><path clip-path="url(#clip900)" d="M1792.6 1514.29 L1810.95 1514.29 L1810.95 1518.22 L1796.88 1518.22 L1796.88 1526.7 Q1797.9 1526.35 1798.92 1526.19 Q1799.93 1526 1800.95 1526 Q1806.74 1526 1810.12 1529.17 Q1813.5 1532.34 1813.5 1537.76 Q1813.5 1543.34 1810.03 1546.44 Q1806.55 1549.52 1800.23 1549.52 Q1798.06 1549.52 1795.79 1549.15 Q1793.54 1548.78 1791.14 1548.04 L1791.14 1543.34 Q1793.22 1544.47 1795.44 1545.03 Q1797.67 1545.58 1800.14 1545.58 Q1804.15 1545.58 1806.48 1543.48 Q1808.82 1541.37 1808.82 1537.76 Q1808.82 1534.15 1806.48 1532.04 Q1804.15 1529.94 1800.14 1529.94 Q1798.27 1529.94 1796.39 1530.35 Q1794.54 1530.77 1792.6 1531.65 L1792.6 1514.29 Z" fill="#000000" fill-rule="nonzero" fill-opacity="1" /><path clip-path="url(#clip900)" d="M2262.68 1544.91 L2279 1544.91 L2279 1548.85 L2257.05 1548.85 L2257.05 1544.91 Q2259.72 1542.16 2264.3 1537.53 Q2268.91 1532.88 2270.09 1531.53 Q2272.33 1529.01 2273.21 1527.27 Q2274.11 1525.51 2274.11 1523.82 Q2274.11 1521.07 2272.17 1519.33 Q2270.25 1517.6 2267.15 1517.6 Q2264.95 1517.6 2262.49 1518.36 Q2260.06 1519.13 2257.29 1520.68 L2257.29 1515.95 Q2260.11 1514.82 2262.56 1514.24 Q2265.02 1513.66 2267.05 1513.66 Q2272.42 1513.66 2275.62 1516.35 Q2278.81 1519.03 2278.81 1523.52 Q2278.81 1525.65 2278 1527.57 Q2277.22 1529.47 2275.11 1532.07 Q2274.53 1532.74 2271.43 1535.95 Q2268.33 1539.15 2262.68 1544.91 Z" fill="#000000" fill-rule="nonzero" fill-opacity="1" /><path clip-path="url(#clip900)" d="M2288.81 1542.97 L2293.7 1542.97 L2293.7 1548.85 L2288.81 1548.85 L2288.81 1542.97 Z" fill="#000000" fill-rule="nonzero" fill-opacity="1" /><path clip-path="url(#clip900)" d="M2313.88 1517.37 Q2310.27 1517.37 2308.44 1520.93 Q2306.64 1524.47 2306.64 1531.6 Q2306.64 1538.71 2308.44 1542.27 Q2310.27 1545.82 2313.88 1545.82 Q2317.52 1545.82 2319.32 1542.27 Q2321.15 1538.71 2321.15 1531.6 Q2321.15 1524.47 2319.32 1520.93 Q2317.52 1517.37 2313.88 1517.37 M2313.88 1513.66 Q2319.69 1513.66 2322.75 1518.27 Q2325.83 1522.85 2325.83 1531.6 Q2325.83 1540.33 2322.75 1544.94 Q2319.69 1549.52 2313.88 1549.52 Q2308.07 1549.52 2304.99 1544.94 Q2301.94 1540.33 2301.94 1531.6 Q2301.94 1522.85 2304.99 1518.27 Q2308.07 1513.66 2313.88 1513.66 Z" fill="#000000" fill-rule="nonzero" fill-opacity="1" /><polyline clip-path="url(#clip900)" style="stroke:#000000; stroke-linecap:round; stroke-linejoin:round; stroke-width:4; stroke-opacity:1; fill:none" points="186.274,1486.45 186.274,47.2441 "/>
<polyline clip-path="url(#clip900)" style="stroke:#000000; stroke-linecap:round; stroke-linejoin:round; stroke-width:4; stroke-opacity:1; fill:none" points="186.274,1445.72 205.172,1445.72 "/>
<polyline clip-path="url(#clip900)" style="stroke:#000000; stroke-linecap:round; stroke-linejoin:round; stroke-width:4; stroke-opacity:1; fill:none" points="186.274,1106.27 205.172,1106.27 "/>
<polyline clip-path="url(#clip900)" style="stroke:#000000; stroke-linecap:round; stroke-linejoin:round; stroke-width:4; stroke-opacity:1; fill:none" points="186.274,766.828 205.172,766.828 "/>
<polyline clip-path="url(#clip900)" style="stroke:#000000; stroke-linecap:round; stroke-linejoin:round; stroke-width:4; stroke-opacity:1; fill:none" points="186.274,427.383 205.172,427.383 "/>
<polyline clip-path="url(#clip900)" style="stroke:#000000; stroke-linecap:round; stroke-linejoin:round; stroke-width:4; stroke-opacity:1; fill:none" points="186.274,87.9394 205.172,87.9394 "/>
<path clip-path="url(#clip900)" d="M62.9365 1431.51 Q59.3254 1431.51 57.4967 1435.08 Q55.6912 1438.62 55.6912 1445.75 Q55.6912 1452.86 57.4967 1456.42 Q59.3254 1459.96 62.9365 1459.96 Q66.5707 1459.96 68.3763 1456.42 Q70.205 1452.86 70.205 1445.75 Q70.205 1438.62 68.3763 1435.08 Q66.5707 1431.51 62.9365 1431.51 M62.9365 1427.81 Q68.7467 1427.81 71.8022 1432.42 Q74.8809 1437 74.8809 1445.75 Q74.8809 1454.48 71.8022 1459.08 Q68.7467 1463.67 62.9365 1463.67 Q57.1264 1463.67 54.0477 1459.08 Q50.9921 1454.48 50.9921 1445.75 Q50.9921 1437 54.0477 1432.42 Q57.1264 1427.81 62.9365 1427.81 Z" fill="#000000" fill-rule="nonzero" fill-opacity="1" /><path clip-path="url(#clip900)" d="M83.0984 1457.12 L87.9827 1457.12 L87.9827 1463 L83.0984 1463 L83.0984 1457.12 Z" fill="#000000" fill-rule="nonzero" fill-opacity="1" /><path clip-path="url(#clip900)" d="M108.168 1431.51 Q104.557 1431.51 102.728 1435.08 Q100.922 1438.62 100.922 1445.75 Q100.922 1452.86 102.728 1456.42 Q104.557 1459.96 108.168 1459.96 Q111.802 1459.96 113.608 1456.42 Q115.436 1452.86 115.436 1445.75 Q115.436 1438.62 113.608 1435.08 Q111.802 1431.51 108.168 1431.51 M108.168 1427.81 Q113.978 1427.81 117.033 1432.42 Q120.112 1437 120.112 1445.75 Q120.112 1454.48 117.033 1459.08 Q113.978 1463.67 108.168 1463.67 Q102.358 1463.67 99.2789 1459.08 Q96.2234 1454.48 96.2234 1445.75 Q96.2234 1437 99.2789 1432.42 Q102.358 1427.81 108.168 1427.81 Z" fill="#000000" fill-rule="nonzero" fill-opacity="1" /><path clip-path="url(#clip900)" d="M138.33 1431.51 Q134.719 1431.51 132.89 1435.08 Q131.084 1438.62 131.084 1445.75 Q131.084 1452.86 132.89 1456.42 Q134.719 1459.96 138.33 1459.96 Q141.964 1459.96 143.769 1456.42 Q145.598 1452.86 145.598 1445.75 Q145.598 1438.62 143.769 1435.08 Q141.964 1431.51 138.33 1431.51 M138.33 1427.81 Q144.14 1427.81 147.195 1432.42 Q150.274 1437 150.274 1445.75 Q150.274 1454.48 147.195 1459.08 Q144.14 1463.67 138.33 1463.67 Q132.519 1463.67 129.441 1459.08 Q126.385 1454.48 126.385 1445.75 Q126.385 1437 129.441 1432.42 Q132.519 1427.81 138.33 1427.81 Z" fill="#000000" fill-rule="nonzero" fill-opacity="1" /><path clip-path="url(#clip900)" d="M63.9319 1092.07 Q60.3208 1092.07 58.4921 1095.64 Q56.6865 1099.18 56.6865 1106.31 Q56.6865 1113.41 58.4921 1116.98 Q60.3208 1120.52 63.9319 1120.52 Q67.5661 1120.52 69.3717 1116.98 Q71.2004 1113.41 71.2004 1106.31 Q71.2004 1099.18 69.3717 1095.64 Q67.5661 1092.07 63.9319 1092.07 M63.9319 1088.37 Q69.742 1088.37 72.7976 1092.97 Q75.8763 1097.56 75.8763 1106.31 Q75.8763 1115.03 72.7976 1119.64 Q69.742 1124.22 63.9319 1124.22 Q58.1217 1124.22 55.043 1119.64 Q51.9875 1115.03 51.9875 1106.31 Q51.9875 1097.56 55.043 1092.97 Q58.1217 1088.37 63.9319 1088.37 Z" fill="#000000" fill-rule="nonzero" fill-opacity="1" /><path clip-path="url(#clip900)" d="M84.0938 1117.67 L88.978 1117.67 L88.978 1123.55 L84.0938 1123.55 L84.0938 1117.67 Z" fill="#000000" fill-rule="nonzero" fill-opacity="1" /><path clip-path="url(#clip900)" d="M103.191 1119.62 L119.51 1119.62 L119.51 1123.55 L97.566 1123.55 L97.566 1119.62 Q100.228 1116.86 104.811 1112.23 Q109.418 1107.58 110.598 1106.24 Q112.844 1103.71 113.723 1101.98 Q114.626 1100.22 114.626 1098.53 Q114.626 1095.77 112.682 1094.04 Q110.76 1092.3 107.658 1092.3 Q105.459 1092.3 103.006 1093.07 Q100.575 1093.83 97.7974 1095.38 L97.7974 1090.66 Q100.621 1089.52 103.075 1088.95 Q105.529 1088.37 107.566 1088.37 Q112.936 1088.37 116.131 1091.05 Q119.325 1093.74 119.325 1098.23 Q119.325 1100.36 118.515 1102.28 Q117.728 1104.18 115.621 1106.77 Q115.043 1107.44 111.941 1110.66 Q108.839 1113.85 103.191 1119.62 Z" fill="#000000" fill-rule="nonzero" fill-opacity="1" /><path clip-path="url(#clip900)" d="M129.371 1088.99 L147.728 1088.99 L147.728 1092.93 L133.654 1092.93 L133.654 1101.4 Q134.672 1101.05 135.691 1100.89 Q136.709 1100.7 137.728 1100.7 Q143.515 1100.7 146.894 1103.88 Q150.274 1107.05 150.274 1112.46 Q150.274 1118.04 146.802 1121.14 Q143.33 1124.22 137.01 1124.22 Q134.834 1124.22 132.566 1123.85 Q130.32 1123.48 127.913 1122.74 L127.913 1118.04 Q129.996 1119.18 132.219 1119.73 Q134.441 1120.29 136.918 1120.29 Q140.922 1120.29 143.26 1118.18 Q145.598 1116.07 145.598 1112.46 Q145.598 1108.85 143.26 1106.75 Q140.922 1104.64 136.918 1104.64 Q135.043 1104.64 133.168 1105.06 Q131.316 1105.47 129.371 1106.35 L129.371 1088.99 Z" fill="#000000" fill-rule="nonzero" fill-opacity="1" /><path clip-path="url(#clip900)" d="M62.9365 752.626 Q59.3254 752.626 57.4967 756.191 Q55.6912 759.733 55.6912 766.862 Q55.6912 773.969 57.4967 777.533 Q59.3254 781.075 62.9365 781.075 Q66.5707 781.075 68.3763 777.533 Q70.205 773.969 70.205 766.862 Q70.205 759.733 68.3763 756.191 Q66.5707 752.626 62.9365 752.626 M62.9365 748.923 Q68.7467 748.923 71.8022 753.529 Q74.8809 758.112 74.8809 766.862 Q74.8809 775.589 71.8022 780.196 Q68.7467 784.779 62.9365 784.779 Q57.1264 784.779 54.0477 780.196 Q50.9921 775.589 50.9921 766.862 Q50.9921 758.112 54.0477 753.529 Q57.1264 748.923 62.9365 748.923 Z" fill="#000000" fill-rule="nonzero" fill-opacity="1" /><path clip-path="url(#clip900)" d="M83.0984 778.228 L87.9827 778.228 L87.9827 784.108 L83.0984 784.108 L83.0984 778.228 Z" fill="#000000" fill-rule="nonzero" fill-opacity="1" /><path clip-path="url(#clip900)" d="M98.2141 749.548 L116.57 749.548 L116.57 753.483 L102.496 753.483 L102.496 761.955 Q103.515 761.608 104.534 761.446 Q105.552 761.26 106.571 761.26 Q112.358 761.26 115.737 764.432 Q119.117 767.603 119.117 773.02 Q119.117 778.598 115.645 781.7 Q112.172 784.779 105.853 784.779 Q103.677 784.779 101.409 784.408 Q99.1632 784.038 96.7558 783.297 L96.7558 778.598 Q98.8391 779.733 101.061 780.288 Q103.284 780.844 105.76 780.844 Q109.765 780.844 112.103 778.737 Q114.441 776.631 114.441 773.02 Q114.441 769.409 112.103 767.302 Q109.765 765.196 105.76 765.196 Q103.885 765.196 102.01 765.612 Q100.159 766.029 98.2141 766.909 L98.2141 749.548 Z" fill="#000000" fill-rule="nonzero" fill-opacity="1" /><path clip-path="url(#clip900)" d="M138.33 752.626 Q134.719 752.626 132.89 756.191 Q131.084 759.733 131.084 766.862 Q131.084 773.969 132.89 777.533 Q134.719 781.075 138.33 781.075 Q141.964 781.075 143.769 777.533 Q145.598 773.969 145.598 766.862 Q145.598 759.733 143.769 756.191 Q141.964 752.626 138.33 752.626 M138.33 748.923 Q144.14 748.923 147.195 753.529 Q150.274 758.112 150.274 766.862 Q150.274 775.589 147.195 780.196 Q144.14 784.779 138.33 784.779 Q132.519 784.779 129.441 780.196 Q126.385 775.589 126.385 766.862 Q126.385 758.112 129.441 753.529 Q132.519 748.923 138.33 748.923 Z" fill="#000000" fill-rule="nonzero" fill-opacity="1" /><path clip-path="url(#clip900)" d="M63.9319 413.182 Q60.3208 413.182 58.4921 416.747 Q56.6865 420.289 56.6865 427.418 Q56.6865 434.525 58.4921 438.089 Q60.3208 441.631 63.9319 441.631 Q67.5661 441.631 69.3717 438.089 Q71.2004 434.525 71.2004 427.418 Q71.2004 420.289 69.3717 416.747 Q67.5661 413.182 63.9319 413.182 M63.9319 409.478 Q69.742 409.478 72.7976 414.085 Q75.8763 418.668 75.8763 427.418 Q75.8763 436.145 72.7976 440.751 Q69.742 445.335 63.9319 445.335 Q58.1217 445.335 55.043 440.751 Q51.9875 436.145 51.9875 427.418 Q51.9875 418.668 55.043 414.085 Q58.1217 409.478 63.9319 409.478 Z" fill="#000000" fill-rule="nonzero" fill-opacity="1" /><path clip-path="url(#clip900)" d="M84.0938 438.784 L88.978 438.784 L88.978 444.663 L84.0938 444.663 L84.0938 438.784 Z" fill="#000000" fill-rule="nonzero" fill-opacity="1" /><path clip-path="url(#clip900)" d="M97.9826 410.103 L120.205 410.103 L120.205 412.094 L107.658 444.663 L102.774 444.663 L114.58 414.039 L97.9826 414.039 L97.9826 410.103 Z" fill="#000000" fill-rule="nonzero" fill-opacity="1" /><path clip-path="url(#clip900)" d="M129.371 410.103 L147.728 410.103 L147.728 414.039 L133.654 414.039 L133.654 422.511 Q134.672 422.164 135.691 422.002 Q136.709 421.816 137.728 421.816 Q143.515 421.816 146.894 424.988 Q150.274 428.159 150.274 433.576 Q150.274 439.154 146.802 442.256 Q143.33 445.335 137.01 445.335 Q134.834 445.335 132.566 444.964 Q130.32 444.594 127.913 443.853 L127.913 439.154 Q129.996 440.288 132.219 440.844 Q134.441 441.4 136.918 441.4 Q140.922 441.4 143.26 439.293 Q145.598 437.187 145.598 433.576 Q145.598 429.964 143.26 427.858 Q140.922 425.752 136.918 425.752 Q135.043 425.752 133.168 426.168 Q131.316 426.585 129.371 427.464 L129.371 410.103 Z" fill="#000000" fill-rule="nonzero" fill-opacity="1" /><path clip-path="url(#clip900)" d="M53.7467 101.284 L61.3856 101.284 L61.3856 74.9186 L53.0754 76.5853 L53.0754 72.326 L61.3393 70.6594 L66.0152 70.6594 L66.0152 101.284 L73.654 101.284 L73.654 105.219 L53.7467 105.219 L53.7467 101.284 Z" fill="#000000" fill-rule="nonzero" fill-opacity="1" /><path clip-path="url(#clip900)" d="M83.0984 99.3398 L87.9827 99.3398 L87.9827 105.219 L83.0984 105.219 L83.0984 99.3398 Z" fill="#000000" fill-rule="nonzero" fill-opacity="1" /><path clip-path="url(#clip900)" d="M108.168 73.7381 Q104.557 73.7381 102.728 77.3029 Q100.922 80.8445 100.922 87.9741 Q100.922 95.0805 102.728 98.6453 Q104.557 102.187 108.168 102.187 Q111.802 102.187 113.608 98.6453 Q115.436 95.0805 115.436 87.9741 Q115.436 80.8445 113.608 77.3029 Q111.802 73.7381 108.168 73.7381 M108.168 70.0344 Q113.978 70.0344 117.033 74.6408 Q120.112 79.2241 120.112 87.9741 Q120.112 96.7009 117.033 101.307 Q113.978 105.891 108.168 105.891 Q102.358 105.891 99.2789 101.307 Q96.2234 96.7009 96.2234 87.9741 Q96.2234 79.2241 99.2789 74.6408 Q102.358 70.0344 108.168 70.0344 Z" fill="#000000" fill-rule="nonzero" fill-opacity="1" /><path clip-path="url(#clip900)" d="M138.33 73.7381 Q134.719 73.7381 132.89 77.3029 Q131.084 80.8445 131.084 87.9741 Q131.084 95.0805 132.89 98.6453 Q134.719 102.187 138.33 102.187 Q141.964 102.187 143.769 98.6453 Q145.598 95.0805 145.598 87.9741 Q145.598 80.8445 143.769 77.3029 Q141.964 73.7381 138.33 73.7381 M138.33 70.0344 Q144.14 70.0344 147.195 74.6408 Q150.274 79.2241 150.274 87.9741 Q150.274 96.7009 147.195 101.307 Q144.14 105.891 138.33 105.891 Q132.519 105.891 129.441 101.307 Q126.385 96.7009 126.385 87.9741 Q126.385 79.2241 129.441 74.6408 Q132.519 70.0344 138.33 70.0344 Z" fill="#000000" fill-rule="nonzero" fill-opacity="1" /><polyline clip-path="url(#clip902)" style="stroke:#009af9; stroke-linecap:round; stroke-linejoin:round; stroke-width:4; stroke-opacity:1; fill:none" points="247.59,1445.72 268.69,1417.68 392.271,1254.13 449.761,1178.85 526.819,1079.32 590.493,998.62 649.703,925.13 724.033,835.376 790.706,757.6 867.024,672.187 924.071,611.132 960.553,573.438 997.035,536.855 1030.33,504.476 1063.63,473.096 1101.53,438.64 1139.42,405.569 1169.46,380.366 1199.51,356.085 1236.83,327.232 1274.15,299.87 1302.73,279.947 1331.32,260.936 1371.62,235.711 1411.91,212.367 1442.03,196.173 1472.14,181.064 1506.39,165.216 1540.63,150.806 1574.55,137.969 1608.47,126.572 1645.78,115.712 1683.09,106.625 1711.59,100.885 1740.09,96.1923 1776.06,91.7684 1812.03,89.0213 1845.29,87.9763 1878.56,88.3697 1912.86,90.2818 1947.17,93.7213 1981.94,98.7624 2016.72,105.363 2053.03,113.911 2089.34,124.141 2117.94,133.375 2146.54,143.636 2179.11,156.562 2211.68,170.798 2244.25,186.328 2276.82,203.138 2280.48,205.103 2284.13,207.084 2287.79,209.081 2291.44,211.093 "/>
<circle clip-path="url(#clip902)" cx="247.59" cy="1443.99" r="14.4" fill="#e26f46" fill-rule="evenodd" fill-opacity="1" stroke="#000000" stroke-opacity="1" stroke-width="3.2"/>
<circle clip-path="url(#clip902)" cx="474.684" cy="1139.9" r="14.4" fill="#e26f46" fill-rule="evenodd" fill-opacity="1" stroke="#000000" stroke-opacity="1" stroke-width="3.2"/>
<circle clip-path="url(#clip902)" cx="701.779" cy="877.771" r="14.4" fill="#e26f46" fill-rule="evenodd" fill-opacity="1" stroke="#000000" stroke-opacity="1" stroke-width="3.2"/>
<circle clip-path="url(#clip902)" cx="928.873" cy="621.95" r="14.4" fill="#e26f46" fill-rule="evenodd" fill-opacity="1" stroke="#000000" stroke-opacity="1" stroke-width="3.2"/>
<circle clip-path="url(#clip902)" cx="1155.97" cy="395.03" r="14.4" fill="#e26f46" fill-rule="evenodd" fill-opacity="1" stroke="#000000" stroke-opacity="1" stroke-width="3.2"/>
<circle clip-path="url(#clip902)" cx="1383.06" cy="216.155" r="14.4" fill="#e26f46" fill-rule="evenodd" fill-opacity="1" stroke="#000000" stroke-opacity="1" stroke-width="3.2"/>
<circle clip-path="url(#clip902)" cx="1610.16" cy="124.424" r="14.4" fill="#e26f46" fill-rule="evenodd" fill-opacity="1" stroke="#000000" stroke-opacity="1" stroke-width="3.2"/>
<circle clip-path="url(#clip902)" cx="1837.25" cy="94.1911" r="14.4" fill="#e26f46" fill-rule="evenodd" fill-opacity="1" stroke="#000000" stroke-opacity="1" stroke-width="3.2"/>
<circle clip-path="url(#clip902)" cx="2064.35" cy="140.342" r="14.4" fill="#e26f46" fill-rule="evenodd" fill-opacity="1" stroke="#000000" stroke-opacity="1" stroke-width="3.2"/>
<circle clip-path="url(#clip902)" cx="2291.44" cy="242.102" r="14.4" fill="#e26f46" fill-rule="evenodd" fill-opacity="1" stroke="#000000" stroke-opacity="1" stroke-width="3.2"/>
<path clip-path="url(#clip900)" d="M258.49 250.738 L1037.62 250.738 L1037.62 95.2176 L258.49 95.2176  Z" fill="#ffffff" fill-rule="evenodd" fill-opacity="1"/>
<polyline clip-path="url(#clip900)" style="stroke:#000000; stroke-linecap:round; stroke-linejoin:round; stroke-width:4; stroke-opacity:1; fill:none" points="258.49,250.738 1037.62,250.738 1037.62,95.2176 258.49,95.2176 258.49,250.738 "/>
<polyline clip-path="url(#clip900)" style="stroke:#009af9; stroke-linecap:round; stroke-linejoin:round; stroke-width:4; stroke-opacity:1; fill:none" points="282.562,147.058 426.994,147.058 "/>
<path clip-path="url(#clip900)" d="M474.981 128.413 Q474.981 129.701 474.161 130.498 Q473.364 131.294 472.357 131.294 Q471.631 131.294 471.092 130.849 Q470.577 130.404 470.577 129.631 Q470.577 128.835 471.186 127.992 Q471.795 127.148 473.177 127.031 Q472.264 126.165 470.811 126.165 Q470.085 126.165 469.476 126.633 Q468.891 127.078 468.563 127.804 Q468.211 128.554 467.415 132.793 Q467.157 134.175 466.923 135.51 Q466.689 136.845 466.408 138.251 L470.39 138.251 Q470.905 138.251 471.116 138.274 Q471.327 138.297 471.491 138.414 Q471.678 138.532 471.678 138.789 Q471.678 139.445 471.373 139.609 Q471.092 139.75 470.249 139.75 L466.127 139.75 L463.246 154.951 Q463.176 155.396 462.871 156.801 Q462.59 158.183 461.911 160.455 Q461.232 162.75 460.552 164.109 Q460.178 164.882 459.686 165.608 Q459.217 166.357 458.538 167.107 Q457.859 167.857 456.969 168.302 Q456.079 168.77 455.142 168.77 Q453.549 168.77 452.308 167.88 Q451.066 166.99 451.066 165.467 Q451.066 164.179 451.863 163.383 Q452.682 162.586 453.69 162.586 Q454.416 162.586 454.931 163.031 Q455.47 163.477 455.47 164.249 Q455.47 164.577 455.353 164.952 Q455.235 165.327 454.978 165.748 Q454.72 166.194 454.158 166.498 Q453.596 166.802 452.823 166.849 Q453.736 167.716 455.142 167.716 Q455.587 167.716 455.985 167.529 Q456.383 167.365 456.711 166.943 Q457.062 166.521 457.32 166.1 Q457.578 165.702 457.835 164.929 Q458.093 164.179 458.257 163.617 Q458.421 163.055 458.632 162.048 Q458.866 161.041 458.983 160.432 Q459.1 159.846 459.311 158.698 L462.895 139.75 L459.733 139.75 Q459.17 139.75 458.936 139.726 Q458.725 139.703 458.561 139.586 Q458.397 139.445 458.397 139.164 Q458.397 138.719 458.585 138.532 Q458.796 138.321 459.03 138.297 Q459.264 138.251 459.826 138.251 L463.152 138.251 Q464.276 132.325 464.722 130.732 Q465.237 129.046 466.033 127.874 Q466.83 126.68 467.72 126.118 Q468.61 125.556 469.336 125.345 Q470.085 125.111 470.811 125.111 Q472.451 125.111 473.716 126.001 Q474.981 126.867 474.981 128.413 Z" fill="#000000" fill-rule="nonzero" fill-opacity="1" /><path clip-path="url(#clip900)" d="M481.433 146.94 Q481.433 138.836 484.455 132.301 Q485.743 129.561 487.546 127.265 Q489.35 124.97 490.545 123.963 Q491.739 122.956 492.067 122.956 Q492.535 122.956 492.559 123.424 Q492.559 123.658 491.926 124.244 Q484.197 132.114 484.22 146.94 Q484.22 161.814 491.739 169.379 Q492.559 170.199 492.559 170.456 Q492.559 170.925 492.067 170.925 Q491.739 170.925 490.591 169.965 Q489.444 169.004 487.664 166.802 Q485.883 164.601 484.595 161.907 Q481.433 155.372 481.433 146.94 Z" fill="#000000" fill-rule="nonzero" fill-opacity="1" /><path clip-path="url(#clip900)" d="M520.092 140.897 Q520.092 142.209 519.272 142.958 Q518.452 143.685 517.515 143.685 Q516.625 143.685 516.157 143.169 Q515.688 142.654 515.688 141.998 Q515.688 141.108 516.344 140.335 Q517 139.562 517.984 139.398 Q517.023 138.789 515.594 138.789 Q514.658 138.789 513.838 139.281 Q513.041 139.773 512.55 140.405 Q512.081 141.038 511.66 141.951 Q511.261 142.841 511.097 143.38 Q510.957 143.895 510.84 144.457 L509.2 151.016 Q508.404 154.131 508.404 155.232 Q508.404 156.59 509.06 157.504 Q509.715 158.394 511.027 158.394 Q511.542 158.394 512.128 158.253 Q512.714 158.089 513.463 157.668 Q514.236 157.223 514.915 156.567 Q515.618 155.888 516.297 154.74 Q516.976 153.592 517.421 152.117 Q517.562 151.601 518.03 151.601 Q518.616 151.601 518.616 152.07 Q518.616 152.468 518.288 153.311 Q517.984 154.131 517.304 155.208 Q516.648 156.262 515.782 157.223 Q514.915 158.16 513.627 158.815 Q512.339 159.471 510.933 159.471 Q508.919 159.471 507.584 158.394 Q506.249 157.316 505.757 155.817 Q505.64 156.028 505.476 156.309 Q505.312 156.59 504.82 157.223 Q504.352 157.832 503.813 158.3 Q503.274 158.745 502.431 159.097 Q501.611 159.471 500.721 159.471 Q499.597 159.471 498.59 159.143 Q497.606 158.815 496.903 158.066 Q496.201 157.316 496.201 156.286 Q496.201 155.138 496.974 154.342 Q497.77 153.522 498.847 153.522 Q499.527 153.522 500.065 153.92 Q500.628 154.318 500.628 155.185 Q500.628 156.145 499.972 156.871 Q499.316 157.597 498.379 157.785 Q499.339 158.394 500.768 158.394 Q502.314 158.394 503.532 157.035 Q504.75 155.677 505.335 153.405 Q506.788 147.947 507.35 145.511 Q507.912 143.052 507.912 141.998 Q507.912 141.014 507.654 140.335 Q507.397 139.656 506.952 139.351 Q506.53 139.023 506.132 138.906 Q505.757 138.789 505.335 138.789 Q504.633 138.789 503.836 139.07 Q503.063 139.351 502.127 140.007 Q501.213 140.64 500.346 141.951 Q499.48 143.263 498.894 145.066 Q498.777 145.605 498.262 145.605 Q497.7 145.582 497.7 145.113 Q497.7 144.715 498.004 143.895 Q498.332 143.052 498.988 141.998 Q499.667 140.944 500.534 140.007 Q501.424 139.047 502.712 138.391 Q504.024 137.735 505.429 137.735 Q506.062 137.735 506.671 137.876 Q507.303 137.993 508.052 138.344 Q508.825 138.696 509.505 139.469 Q510.184 140.241 510.606 141.366 Q510.887 140.827 511.261 140.312 Q511.66 139.796 512.268 139.164 Q512.901 138.508 513.768 138.133 Q514.658 137.735 515.641 137.735 Q516.602 137.735 517.539 137.993 Q518.475 138.227 519.272 139 Q520.092 139.75 520.092 140.897 Z" fill="#000000" fill-rule="nonzero" fill-opacity="1" /><path clip-path="url(#clip900)" d="M524.704 170.456 Q524.704 170.222 525.313 169.637 Q533.043 161.767 533.043 146.94 Q533.043 132.067 525.618 124.548 Q524.704 123.682 524.704 123.424 Q524.704 122.956 525.173 122.956 Q525.5 122.956 526.648 123.916 Q527.819 124.876 529.576 127.078 Q531.356 129.28 532.668 131.973 Q535.83 138.508 535.83 146.94 Q535.83 155.044 532.808 161.579 Q531.52 164.32 529.717 166.615 Q527.913 168.911 526.718 169.918 Q525.524 170.925 525.173 170.925 Q524.704 170.925 524.704 170.456 Z" fill="#000000" fill-rule="nonzero" fill-opacity="1" /><path clip-path="url(#clip900)" d="M556.424 151.648 Q556.471 151.063 557.385 151.063 L586.78 151.063 Q588.162 151.063 588.185 151.601 Q588.185 152.187 586.874 152.163 L557.713 152.163 Q556.424 152.187 556.424 151.648 M556.424 142.279 Q556.424 141.694 557.432 141.717 L586.733 141.717 Q588.162 141.717 588.185 142.279 Q588.185 142.818 586.967 142.818 L557.385 142.818 Q556.424 142.818 556.424 142.279 Z" fill="#000000" fill-rule="nonzero" fill-opacity="1" /><path clip-path="url(#clip900)" d="M612.378 158.3 L612.378 151.976 Q612.378 151.437 612.402 151.25 Q612.425 151.063 612.565 150.922 Q612.706 150.782 612.987 150.782 Q613.315 150.782 613.432 150.922 Q613.573 151.063 613.666 151.601 Q614.392 154.904 615.938 156.661 Q617.508 158.394 620.342 158.394 Q623.035 158.394 624.394 157.199 Q625.752 156.005 625.752 154.037 Q625.752 150.524 620.763 149.634 Q617.882 149.048 616.688 148.674 Q615.493 148.275 614.439 147.409 Q612.378 145.722 612.378 143.333 Q612.378 140.944 614.182 139.187 Q616.009 137.431 620.037 137.431 Q622.731 137.431 624.558 138.789 Q625.096 138.368 625.378 138.016 Q626.01 137.431 626.338 137.431 Q626.713 137.431 626.783 137.688 Q626.853 137.923 626.853 138.602 L626.853 143.427 Q626.853 143.966 626.83 144.153 Q626.806 144.34 626.666 144.481 Q626.525 144.598 626.221 144.598 Q625.682 144.598 625.659 144.153 Q625.284 138.344 620.037 138.344 Q617.203 138.344 615.938 139.445 Q614.673 140.523 614.673 141.998 Q614.673 142.818 615.048 143.45 Q615.446 144.059 615.938 144.434 Q616.454 144.785 617.39 145.137 Q618.327 145.465 618.89 145.582 Q619.475 145.699 620.576 145.933 Q624.417 146.659 626.033 148.228 Q628.048 150.243 628.048 152.796 Q628.048 155.63 626.127 157.551 Q624.206 159.471 620.342 159.471 Q617.227 159.471 615.048 157.387 Q614.767 157.668 614.556 157.925 Q614.346 158.16 614.252 158.253 Q614.182 158.347 614.158 158.417 Q614.135 158.464 614.088 158.511 Q613.128 159.471 612.893 159.471 Q612.519 159.471 612.448 159.214 Q612.378 158.979 612.378 158.3 Z" fill="#000000" fill-rule="nonzero" fill-opacity="1" /><path clip-path="url(#clip900)" d="M629.92 158.933 L629.92 157.457 Q632.473 157.457 633.059 157.152 Q633.644 156.825 633.644 155.279 L633.644 142.373 Q633.644 140.593 633.035 140.171 Q632.45 139.75 630.107 139.75 L630.107 138.251 L636.806 137.735 L636.806 155.325 Q636.806 156.754 637.321 157.106 Q637.837 157.457 640.179 157.457 L640.179 158.933 Q635.284 158.792 635.19 158.792 Q634.534 158.792 629.92 158.933 M631.934 129.373 Q631.934 128.413 632.66 127.64 Q633.41 126.844 634.464 126.844 Q635.518 126.844 636.267 127.57 Q637.017 128.273 637.017 129.397 Q637.017 130.498 636.267 131.224 Q635.518 131.926 634.464 131.926 Q633.363 131.926 632.637 131.154 Q631.934 130.381 631.934 129.373 Z" fill="#000000" fill-rule="nonzero" fill-opacity="1" /><path clip-path="url(#clip900)" d="M643.455 158.933 L643.455 157.457 Q646.008 157.457 646.593 157.152 Q647.179 156.825 647.179 155.279 L647.179 142.42 Q647.179 140.64 646.546 140.195 Q645.937 139.75 643.455 139.75 L643.455 138.251 L650.2 137.735 L650.2 142.771 Q652.449 137.735 657.297 137.735 Q660.904 137.735 662.333 139.515 Q663.387 140.71 663.598 142.045 Q663.832 143.38 663.832 146.847 L663.832 156.005 Q663.879 157.012 664.652 157.246 Q665.425 157.457 667.58 157.457 L667.58 158.933 Q662.684 158.792 662.193 158.792 Q661.818 158.792 656.782 158.933 L656.782 157.457 Q659.335 157.457 659.921 157.152 Q660.53 156.825 660.53 155.279 L660.53 144.106 Q660.53 141.67 659.78 140.241 Q659.03 138.789 656.969 138.789 Q654.487 138.789 652.496 140.874 Q650.505 142.958 650.505 146.472 L650.505 155.279 Q650.505 156.825 651.09 157.152 Q651.699 157.457 654.229 157.457 L654.229 158.933 Q649.334 158.792 648.865 158.792 Q648.49 158.792 643.455 158.933 Z" fill="#000000" fill-rule="nonzero" fill-opacity="1" /><path clip-path="url(#clip900)" d="M675.504 146.94 Q675.504 138.836 678.526 132.301 Q679.814 129.561 681.617 127.265 Q683.421 124.97 684.616 123.963 Q685.81 122.956 686.138 122.956 Q686.606 122.956 686.63 123.424 Q686.63 123.658 685.997 124.244 Q678.268 132.114 678.292 146.94 Q678.292 161.814 685.81 169.379 Q686.63 170.199 686.63 170.456 Q686.63 170.925 686.138 170.925 Q685.81 170.925 684.662 169.965 Q683.515 169.004 681.735 166.802 Q679.955 164.601 678.666 161.907 Q675.504 155.372 675.504 146.94 Z" fill="#000000" fill-rule="nonzero" fill-opacity="1" /><path clip-path="url(#clip900)" d="M714.163 140.897 Q714.163 142.209 713.343 142.958 Q712.523 143.685 711.586 143.685 Q710.696 143.685 710.228 143.169 Q709.759 142.654 709.759 141.998 Q709.759 141.108 710.415 140.335 Q711.071 139.562 712.055 139.398 Q711.094 138.789 709.666 138.789 Q708.729 138.789 707.909 139.281 Q707.113 139.773 706.621 140.405 Q706.152 141.038 705.731 141.951 Q705.332 142.841 705.168 143.38 Q705.028 143.895 704.911 144.457 L703.271 151.016 Q702.475 154.131 702.475 155.232 Q702.475 156.59 703.131 157.504 Q703.787 158.394 705.098 158.394 Q705.613 158.394 706.199 158.253 Q706.785 158.089 707.534 157.668 Q708.307 157.223 708.986 156.567 Q709.689 155.888 710.368 154.74 Q711.047 153.592 711.493 152.117 Q711.633 151.601 712.101 151.601 Q712.687 151.601 712.687 152.07 Q712.687 152.468 712.359 153.311 Q712.055 154.131 711.375 155.208 Q710.72 156.262 709.853 157.223 Q708.986 158.16 707.698 158.815 Q706.41 159.471 705.004 159.471 Q702.99 159.471 701.655 158.394 Q700.32 157.316 699.828 155.817 Q699.711 156.028 699.547 156.309 Q699.383 156.59 698.891 157.223 Q698.423 157.832 697.884 158.3 Q697.345 158.745 696.502 159.097 Q695.682 159.471 694.792 159.471 Q693.668 159.471 692.661 159.143 Q691.677 158.815 690.974 158.066 Q690.272 157.316 690.272 156.286 Q690.272 155.138 691.045 154.342 Q691.841 153.522 692.919 153.522 Q693.598 153.522 694.136 153.92 Q694.699 154.318 694.699 155.185 Q694.699 156.145 694.043 156.871 Q693.387 157.597 692.45 157.785 Q693.41 158.394 694.839 158.394 Q696.385 158.394 697.603 157.035 Q698.821 155.677 699.407 153.405 Q700.859 147.947 701.421 145.511 Q701.983 143.052 701.983 141.998 Q701.983 141.014 701.725 140.335 Q701.468 139.656 701.023 139.351 Q700.601 139.023 700.203 138.906 Q699.828 138.789 699.407 138.789 Q698.704 138.789 697.907 139.07 Q697.135 139.351 696.198 140.007 Q695.284 140.64 694.418 141.951 Q693.551 143.263 692.965 145.066 Q692.848 145.605 692.333 145.605 Q691.771 145.582 691.771 145.113 Q691.771 144.715 692.075 143.895 Q692.403 143.052 693.059 141.998 Q693.738 140.944 694.605 140.007 Q695.495 139.047 696.783 138.391 Q698.095 137.735 699.5 137.735 Q700.133 137.735 700.742 137.876 Q701.374 137.993 702.124 138.344 Q702.896 138.696 703.576 139.469 Q704.255 140.241 704.677 141.366 Q704.958 140.827 705.332 140.312 Q705.731 139.796 706.34 139.164 Q706.972 138.508 707.839 138.133 Q708.729 137.735 709.712 137.735 Q710.673 137.735 711.61 137.993 Q712.547 138.227 713.343 139 Q714.163 139.75 714.163 140.897 Z" fill="#000000" fill-rule="nonzero" fill-opacity="1" /><path clip-path="url(#clip900)" d="M718.775 170.456 Q718.775 170.222 719.384 169.637 Q727.114 161.767 727.114 146.94 Q727.114 132.067 719.689 124.548 Q718.775 123.682 718.775 123.424 Q718.775 122.956 719.244 122.956 Q719.572 122.956 720.719 123.916 Q721.89 124.876 723.647 127.078 Q725.427 129.28 726.739 131.973 Q729.901 138.508 729.901 146.94 Q729.901 155.044 726.879 161.579 Q725.591 164.32 723.788 166.615 Q721.984 168.911 720.79 169.918 Q719.595 170.925 719.244 170.925 Q718.775 170.925 718.775 170.456 Z" fill="#000000" fill-rule="nonzero" fill-opacity="1" /><circle clip-path="url(#clip900)" cx="354.778" cy="198.898" r="20.48" fill="#e26f46" fill-rule="evenodd" fill-opacity="1" stroke="#000000" stroke-opacity="1" stroke-width="4.55111"/>
<path clip-path="url(#clip900)" d="M474.981 180.253 Q474.981 181.541 474.161 182.338 Q473.364 183.134 472.357 183.134 Q471.631 183.134 471.092 182.689 Q470.577 182.244 470.577 181.471 Q470.577 180.675 471.186 179.832 Q471.795 178.988 473.177 178.871 Q472.264 178.005 470.811 178.005 Q470.085 178.005 469.476 178.473 Q468.891 178.918 468.563 179.644 Q468.211 180.394 467.415 184.633 Q467.157 186.015 466.923 187.35 Q466.689 188.685 466.408 190.091 L470.39 190.091 Q470.905 190.091 471.116 190.114 Q471.327 190.137 471.491 190.254 Q471.678 190.372 471.678 190.629 Q471.678 191.285 471.373 191.449 Q471.092 191.59 470.249 191.59 L466.127 191.59 L463.246 206.791 Q463.176 207.236 462.871 208.641 Q462.59 210.023 461.911 212.295 Q461.232 214.59 460.552 215.949 Q460.178 216.722 459.686 217.448 Q459.217 218.197 458.538 218.947 Q457.859 219.697 456.969 220.142 Q456.079 220.61 455.142 220.61 Q453.549 220.61 452.308 219.72 Q451.066 218.83 451.066 217.307 Q451.066 216.019 451.863 215.223 Q452.682 214.426 453.69 214.426 Q454.416 214.426 454.931 214.871 Q455.47 215.317 455.47 216.089 Q455.47 216.417 455.353 216.792 Q455.235 217.167 454.978 217.588 Q454.72 218.034 454.158 218.338 Q453.596 218.642 452.823 218.689 Q453.736 219.556 455.142 219.556 Q455.587 219.556 455.985 219.369 Q456.383 219.205 456.711 218.783 Q457.062 218.361 457.32 217.94 Q457.578 217.542 457.835 216.769 Q458.093 216.019 458.257 215.457 Q458.421 214.895 458.632 213.888 Q458.866 212.881 458.983 212.272 Q459.1 211.686 459.311 210.538 L462.895 191.59 L459.733 191.59 Q459.17 191.59 458.936 191.566 Q458.725 191.543 458.561 191.426 Q458.397 191.285 458.397 191.004 Q458.397 190.559 458.585 190.372 Q458.796 190.161 459.03 190.137 Q459.264 190.091 459.826 190.091 L463.152 190.091 Q464.276 184.165 464.722 182.572 Q465.237 180.886 466.033 179.714 Q466.83 178.52 467.72 177.958 Q468.61 177.396 469.336 177.185 Q470.085 176.951 470.811 176.951 Q472.451 176.951 473.716 177.841 Q474.981 178.707 474.981 180.253 Z" fill="#000000" fill-rule="nonzero" fill-opacity="1" /><path clip-path="url(#clip900)" d="M481.433 198.78 Q481.433 190.676 484.455 184.141 Q485.743 181.401 487.546 179.105 Q489.35 176.81 490.545 175.803 Q491.739 174.796 492.067 174.796 Q492.535 174.796 492.559 175.264 Q492.559 175.498 491.926 176.084 Q484.197 183.954 484.22 198.78 Q484.22 213.654 491.739 221.219 Q492.559 222.039 492.559 222.296 Q492.559 222.765 492.067 222.765 Q491.739 222.765 490.591 221.805 Q489.444 220.844 487.664 218.642 Q485.883 216.441 484.595 213.747 Q481.433 207.212 481.433 198.78 Z" fill="#000000" fill-rule="nonzero" fill-opacity="1" /><path clip-path="url(#clip900)" d="M520.092 192.737 Q520.092 194.049 519.272 194.798 Q518.452 195.525 517.515 195.525 Q516.625 195.525 516.157 195.009 Q515.688 194.494 515.688 193.838 Q515.688 192.948 516.344 192.175 Q517 191.402 517.984 191.238 Q517.023 190.629 515.594 190.629 Q514.658 190.629 513.838 191.121 Q513.041 191.613 512.55 192.245 Q512.081 192.878 511.66 193.791 Q511.261 194.681 511.097 195.22 Q510.957 195.735 510.84 196.297 L509.2 202.856 Q508.404 205.971 508.404 207.072 Q508.404 208.43 509.06 209.344 Q509.715 210.234 511.027 210.234 Q511.542 210.234 512.128 210.093 Q512.714 209.929 513.463 209.508 Q514.236 209.063 514.915 208.407 Q515.618 207.728 516.297 206.58 Q516.976 205.432 517.421 203.957 Q517.562 203.441 518.03 203.441 Q518.616 203.441 518.616 203.91 Q518.616 204.308 518.288 205.151 Q517.984 205.971 517.304 207.048 Q516.648 208.102 515.782 209.063 Q514.915 210 513.627 210.655 Q512.339 211.311 510.933 211.311 Q508.919 211.311 507.584 210.234 Q506.249 209.156 505.757 207.657 Q505.64 207.868 505.476 208.149 Q505.312 208.43 504.82 209.063 Q504.352 209.672 503.813 210.14 Q503.274 210.585 502.431 210.937 Q501.611 211.311 500.721 211.311 Q499.597 211.311 498.59 210.983 Q497.606 210.655 496.903 209.906 Q496.201 209.156 496.201 208.126 Q496.201 206.978 496.974 206.182 Q497.77 205.362 498.847 205.362 Q499.527 205.362 500.065 205.76 Q500.628 206.158 500.628 207.025 Q500.628 207.985 499.972 208.711 Q499.316 209.437 498.379 209.625 Q499.339 210.234 500.768 210.234 Q502.314 210.234 503.532 208.875 Q504.75 207.517 505.335 205.245 Q506.788 199.787 507.35 197.351 Q507.912 194.892 507.912 193.838 Q507.912 192.854 507.654 192.175 Q507.397 191.496 506.952 191.191 Q506.53 190.863 506.132 190.746 Q505.757 190.629 505.335 190.629 Q504.633 190.629 503.836 190.91 Q503.063 191.191 502.127 191.847 Q501.213 192.48 500.346 193.791 Q499.48 195.103 498.894 196.906 Q498.777 197.445 498.262 197.445 Q497.7 197.422 497.7 196.953 Q497.7 196.555 498.004 195.735 Q498.332 194.892 498.988 193.838 Q499.667 192.784 500.534 191.847 Q501.424 190.887 502.712 190.231 Q504.024 189.575 505.429 189.575 Q506.062 189.575 506.671 189.716 Q507.303 189.833 508.052 190.184 Q508.825 190.536 509.505 191.309 Q510.184 192.081 510.606 193.206 Q510.887 192.667 511.261 192.152 Q511.66 191.636 512.268 191.004 Q512.901 190.348 513.768 189.973 Q514.658 189.575 515.641 189.575 Q516.602 189.575 517.539 189.833 Q518.475 190.067 519.272 190.84 Q520.092 191.59 520.092 192.737 Z" fill="#000000" fill-rule="nonzero" fill-opacity="1" /><path clip-path="url(#clip900)" d="M524.704 222.296 Q524.704 222.062 525.313 221.477 Q533.043 213.607 533.043 198.78 Q533.043 183.907 525.618 176.388 Q524.704 175.522 524.704 175.264 Q524.704 174.796 525.173 174.796 Q525.5 174.796 526.648 175.756 Q527.819 176.716 529.576 178.918 Q531.356 181.12 532.668 183.813 Q535.83 190.348 535.83 198.78 Q535.83 206.884 532.808 213.419 Q531.52 216.16 529.717 218.455 Q527.913 220.751 526.718 221.758 Q525.524 222.765 525.173 222.765 Q524.704 222.765 524.704 222.296 Z" fill="#000000" fill-rule="nonzero" fill-opacity="1" /><path clip-path="url(#clip900)" d="M557.525 199.366 Q556.424 199.366 556.424 198.78 Q556.424 198.195 557.572 198.195 Q557.713 198.195 557.947 198.218 Q558.204 198.242 558.251 198.242 L571.766 198.242 L571.766 184.68 Q571.766 184.633 571.743 184.422 Q571.719 184.188 571.719 184.048 Q571.719 182.9 572.281 182.9 Q572.867 182.9 572.867 184.048 L572.867 198.242 L586.405 198.242 Q586.452 198.242 586.686 198.218 Q586.92 198.195 587.061 198.195 Q588.162 198.195 588.162 198.78 Q588.185 199.366 587.014 199.366 Q586.874 199.366 586.663 199.342 Q586.452 199.319 586.405 199.319 L572.867 199.319 L572.867 213.56 Q572.867 214.661 572.281 214.661 Q571.719 214.661 571.719 213.513 Q571.719 213.372 571.743 213.138 Q571.766 212.927 571.766 212.881 L571.766 199.319 L558.251 199.319 Q558.204 199.319 557.923 199.342 Q557.666 199.366 557.525 199.366 Z" fill="#000000" fill-rule="nonzero" fill-opacity="1" /><path clip-path="url(#clip900)" d="M646.213 178.543 Q646.213 178.965 646.049 179.199 Q645.909 179.41 645.745 179.457 Q645.581 179.48 645.159 179.504 Q641.81 179.668 639.069 181.94 Q638.39 182.525 636.68 184.352 Q634.994 186.179 632.745 188.615 Q630.52 191.051 629.232 192.363 L635.415 207.165 Q635.673 207.751 635.767 208.009 Q635.884 208.243 636.118 208.547 Q636.376 208.852 636.563 208.946 Q636.774 209.039 637.219 209.156 Q637.687 209.25 638.156 209.274 Q638.648 209.274 639.538 209.297 Q639.819 209.297 639.936 209.32 Q640.076 209.32 640.24 209.461 Q640.404 209.578 640.404 209.859 Q640.404 210.281 640.217 210.515 Q640.053 210.726 639.889 210.749 Q639.749 210.773 639.491 210.773 Q638.882 210.773 636.821 210.702 Q634.76 210.632 634.174 210.632 L628.131 210.773 Q627.405 210.773 627.405 210.187 Q627.405 209.883 627.452 209.719 Q627.522 209.531 627.686 209.461 Q627.85 209.367 627.967 209.344 Q628.084 209.32 628.365 209.297 Q629.232 209.203 629.888 208.946 Q630.567 208.665 630.848 208.383 Q631.153 208.102 631.153 207.892 L630.918 207.212 L626.07 195.759 L621.737 200.467 L616.841 205.643 Q615.553 207.025 615.553 207.798 Q615.553 209.086 617.474 209.297 Q618.059 209.344 618.059 209.812 Q618.059 210.257 617.872 210.491 Q617.708 210.702 617.544 210.749 Q617.404 210.773 617.193 210.773 Q616.326 210.773 614.499 210.702 Q612.696 210.632 611.806 210.632 Q611.056 210.632 609.534 210.702 Q608.011 210.773 607.308 210.773 Q607.027 210.773 606.863 210.632 Q606.699 210.491 606.699 210.351 L606.676 210.234 Q606.676 209.906 606.723 209.719 Q606.793 209.531 606.981 209.437 Q607.191 209.344 607.285 209.344 Q607.379 209.32 607.73 209.297 Q609.721 209.18 611.407 208.407 Q613.117 207.634 614.78 205.83 Q614.921 205.713 615.085 205.573 Q615.272 205.432 615.413 205.315 L625.531 194.424 L619.863 181.026 Q619.605 180.417 619.371 180.159 Q619.137 179.878 618.411 179.691 Q617.685 179.504 616.279 179.504 Q615.881 179.504 615.694 179.48 Q615.506 179.457 615.342 179.34 Q615.178 179.223 615.178 178.965 Q615.178 178.52 615.342 178.309 Q615.53 178.075 615.67 178.051 Q615.834 178.005 616.045 178.005 Q616.631 178.005 618.715 178.075 Q620.8 178.145 621.409 178.145 Q622.416 178.145 624.43 178.075 Q626.468 178.005 627.452 178.005 Q628.178 178.005 628.178 178.59 Q628.178 178.965 628.014 179.176 Q627.85 179.386 627.686 179.433 Q627.522 179.48 627.218 179.504 Q626.304 179.597 625.601 179.902 Q624.922 180.183 624.641 180.464 Q624.383 180.722 624.383 180.886 L624.618 181.518 L628.646 191.051 L636.423 182.712 Q637.336 181.682 637.336 180.979 Q637.336 179.714 635.415 179.504 Q634.83 179.41 634.83 178.965 Q634.83 178.52 635.017 178.309 Q635.205 178.075 635.345 178.051 Q635.509 178.005 635.743 178.005 Q636.61 178.005 638.39 178.075 Q640.194 178.145 641.084 178.145 Q641.833 178.145 643.356 178.075 Q644.878 178.005 645.581 178.005 Q645.862 178.005 646.026 178.145 Q646.19 178.262 646.19 178.403 L646.213 178.543 Z" fill="#000000" fill-rule="nonzero" fill-opacity="1" /><path clip-path="url(#clip900)" d="M646.715 194.4 Q645.989 193.627 645.989 192.62 Q645.989 191.613 646.715 190.887 Q647.441 190.137 648.542 190.137 Q649.596 190.137 650.299 190.84 Q651.025 191.519 651.025 192.644 Q651.025 193.744 650.252 194.471 Q649.502 195.173 648.542 195.173 Q647.441 195.173 646.715 194.4 M646.715 210 Q646.036 209.227 646.036 208.22 Q646.036 207.212 646.691 206.463 Q647.371 205.69 648.589 205.69 Q650.017 205.69 650.837 207.072 Q651.657 208.43 651.657 210.726 Q651.657 213.208 650.65 215.504 Q649.643 217.823 648.659 218.924 Q647.675 220.024 647.277 220.024 Q646.809 220.024 646.809 219.509 Q646.809 219.322 647.137 218.97 Q650.58 215.27 650.603 210.726 Q650.603 210 650.509 210 L650.392 210.093 Q649.572 210.773 648.589 210.773 Q647.394 210.773 646.715 210 Z" fill="#000000" fill-rule="nonzero" fill-opacity="1" /><path clip-path="url(#clip900)" d="M744.339 178.543 Q744.339 178.965 744.175 179.199 Q744.035 179.41 743.871 179.457 Q743.707 179.48 743.285 179.504 Q739.936 179.668 737.195 181.94 Q736.516 182.525 734.806 184.352 Q733.12 186.179 730.871 188.615 Q728.646 191.051 727.358 192.363 L733.541 207.165 Q733.799 207.751 733.893 208.009 Q734.01 208.243 734.244 208.547 Q734.502 208.852 734.689 208.946 Q734.9 209.039 735.345 209.156 Q735.813 209.25 736.282 209.274 Q736.774 209.274 737.664 209.297 Q737.945 209.297 738.062 209.32 Q738.202 209.32 738.366 209.461 Q738.53 209.578 738.53 209.859 Q738.53 210.281 738.343 210.515 Q738.179 210.726 738.015 210.749 Q737.874 210.773 737.617 210.773 Q737.008 210.773 734.947 210.702 Q732.885 210.632 732.3 210.632 L726.257 210.773 Q725.531 210.773 725.531 210.187 Q725.531 209.883 725.578 209.719 Q725.648 209.531 725.812 209.461 Q725.976 209.367 726.093 209.344 Q726.21 209.32 726.491 209.297 Q727.358 209.203 728.014 208.946 Q728.693 208.665 728.974 208.383 Q729.278 208.102 729.278 207.892 L729.044 207.212 L724.196 195.759 L719.863 200.467 L714.967 205.643 Q713.679 207.025 713.679 207.798 Q713.679 209.086 715.6 209.297 Q716.185 209.344 716.185 209.812 Q716.185 210.257 715.998 210.491 Q715.834 210.702 715.67 210.749 Q715.529 210.773 715.319 210.773 Q714.452 210.773 712.625 210.702 Q710.822 210.632 709.931 210.632 Q709.182 210.632 707.659 210.702 Q706.137 210.773 705.434 210.773 Q705.153 210.773 704.989 210.632 Q704.825 210.491 704.825 210.351 L704.802 210.234 Q704.802 209.906 704.849 209.719 Q704.919 209.531 705.106 209.437 Q705.317 209.344 705.411 209.344 Q705.505 209.32 705.856 209.297 Q707.847 209.18 709.533 208.407 Q711.243 207.634 712.906 205.83 Q713.047 205.713 713.211 205.573 Q713.398 205.432 713.539 205.315 L723.657 194.424 L717.989 181.026 Q717.731 180.417 717.497 180.159 Q717.263 179.878 716.537 179.691 Q715.811 179.504 714.405 179.504 Q714.007 179.504 713.82 179.48 Q713.632 179.457 713.468 179.34 Q713.304 179.223 713.304 178.965 Q713.304 178.52 713.468 178.309 Q713.656 178.075 713.796 178.051 Q713.96 178.005 714.171 178.005 Q714.756 178.005 716.841 178.075 Q718.926 178.145 719.535 178.145 Q720.542 178.145 722.556 178.075 Q724.594 178.005 725.578 178.005 Q726.304 178.005 726.304 178.59 Q726.304 178.965 726.14 179.176 Q725.976 179.386 725.812 179.433 Q725.648 179.48 725.343 179.504 Q724.43 179.597 723.727 179.902 Q723.048 180.183 722.767 180.464 Q722.509 180.722 722.509 180.886 L722.744 181.518 L726.772 191.051 L734.548 182.712 Q735.462 181.682 735.462 180.979 Q735.462 179.714 733.541 179.504 Q732.956 179.41 732.956 178.965 Q732.956 178.52 733.143 178.309 Q733.33 178.075 733.471 178.051 Q733.635 178.005 733.869 178.005 Q734.736 178.005 736.516 178.075 Q738.319 178.145 739.21 178.145 Q739.959 178.145 741.482 178.075 Q743.004 178.005 743.707 178.005 Q743.988 178.005 744.152 178.145 Q744.316 178.262 744.316 178.403 L744.339 178.543 Z" fill="#000000" fill-rule="nonzero" fill-opacity="1" /><path clip-path="url(#clip900)" d="M789.11 193.791 Q788.969 198.124 787.681 200.537 Q786.393 202.926 783.418 203.91 Q782.153 204.238 781.263 204.238 Q777.469 204.238 772.433 199.694 Q771.426 198.804 770.77 198.265 Q770.114 197.726 769.131 197.094 Q768.17 196.438 767.257 196.134 Q766.343 195.806 765.43 195.806 Q764.516 195.806 763.931 196.04 Q761.308 196.906 759.972 198.71 Q758.661 200.49 758.567 203.769 Q758.567 204.003 758.38 204.191 Q758.192 204.355 757.982 204.355 Q757.747 204.355 757.583 204.191 Q757.419 204.027 757.419 203.769 Q757.56 199.436 758.848 197.047 Q760.16 194.634 763.158 193.651 Q764.352 193.323 765.289 193.323 Q769.06 193.323 774.096 197.867 Q775.103 198.757 775.759 199.296 Q776.415 199.834 777.375 200.49 Q778.359 201.123 779.273 201.45 Q780.186 201.755 781.099 201.755 Q781.966 201.755 782.645 201.521 Q785.222 200.654 786.533 198.874 Q787.869 197.07 787.962 193.791 Q787.962 193.557 788.15 193.393 Q788.337 193.206 788.548 193.206 Q788.782 193.206 788.946 193.37 Q789.11 193.534 789.11 193.791 Z" fill="#000000" fill-rule="nonzero" fill-opacity="1" /><path clip-path="url(#clip900)" d="M847.819 178.543 Q847.819 179.504 847 179.504 Q844.353 179.597 843.276 180.487 Q842.222 181.354 841.823 183.04 L835.125 209.765 Q834.89 210.609 834.75 210.702 Q834.609 210.773 834.352 210.773 Q834.024 210.773 833.836 210.609 Q833.672 210.445 833.438 209.859 L821.493 181.612 Q821.399 181.424 821.282 181.167 Q821.165 180.909 821.071 180.745 L814.724 206.065 Q814.536 206.791 814.536 207.165 Q814.536 208.079 815.169 208.665 Q815.824 209.227 817.698 209.297 Q818.659 209.297 818.659 209.812 Q818.659 210.773 817.792 210.773 Q816.996 210.773 815.333 210.702 Q813.67 210.632 812.85 210.632 Q812.053 210.632 810.437 210.702 Q808.821 210.773 808.048 210.773 Q807.439 210.773 807.439 210.234 Q807.439 209.812 807.603 209.601 Q807.767 209.367 807.908 209.344 Q808.048 209.297 808.259 209.297 Q809.664 209.25 810.625 208.969 Q811.585 208.688 812.124 208.149 Q812.686 207.611 812.943 207.072 Q813.225 206.51 813.435 205.69 L819.853 179.925 Q819.853 179.504 816.597 179.504 Q816.035 179.504 815.801 179.48 Q815.59 179.457 815.426 179.34 Q815.262 179.223 815.262 178.965 Q815.262 178.309 815.543 178.169 Q815.824 178.005 816.644 178.005 L823.085 178.005 Q823.905 178.005 824.116 178.145 Q824.327 178.262 824.608 178.918 L835.218 203.957 L840.582 182.619 Q840.722 182.197 840.722 181.612 Q840.722 180.675 840.02 180.113 Q839.341 179.527 837.467 179.504 Q836.6 179.504 836.6 178.965 Q836.6 178.52 836.764 178.309 Q836.951 178.075 837.092 178.051 Q837.256 178.005 837.467 178.005 Q838.263 178.005 839.903 178.075 Q841.542 178.145 842.362 178.145 Q843.158 178.145 844.775 178.075 Q846.414 178.005 847.21 178.005 Q847.492 178.005 847.632 178.145 Q847.796 178.262 847.819 178.403 L847.819 178.543 Z" fill="#000000" fill-rule="nonzero" fill-opacity="1" /><path clip-path="url(#clip900)" d="M852.673 198.78 Q852.673 190.676 855.695 184.141 Q856.983 181.401 858.786 179.105 Q860.59 176.81 861.784 175.803 Q862.979 174.796 863.307 174.796 Q863.775 174.796 863.799 175.264 Q863.799 175.498 863.166 176.084 Q855.437 183.954 855.46 198.78 Q855.46 213.654 862.979 221.219 Q863.799 222.039 863.799 222.296 Q863.799 222.765 863.307 222.765 Q862.979 222.765 861.831 221.805 Q860.684 220.844 858.903 218.642 Q857.123 216.441 855.835 213.747 Q852.673 207.212 852.673 198.78 Z" fill="#000000" fill-rule="nonzero" fill-opacity="1" /><path clip-path="url(#clip900)" d="M868.401 195.431 Q868.401 188.381 870.181 184.539 Q872.663 178.824 878.519 178.824 Q879.76 178.824 881.049 179.176 Q882.36 179.504 884 180.792 Q885.663 182.08 886.67 184.188 Q888.591 188.264 888.591 195.431 Q888.591 202.434 886.811 206.252 Q884.211 211.827 878.472 211.827 Q876.317 211.827 874.116 210.726 Q871.937 209.625 870.555 206.978 Q868.401 203.02 868.401 195.431 M872.382 194.845 Q872.382 202.083 872.898 204.964 Q873.483 208.079 875.076 209.437 Q876.692 210.773 878.472 210.773 Q880.393 210.773 881.986 209.344 Q883.602 207.892 884.094 204.776 Q884.632 201.708 884.609 194.845 Q884.609 188.17 884.14 185.5 Q883.508 182.385 881.822 181.143 Q880.159 179.878 878.472 179.878 Q877.84 179.878 877.161 180.066 Q876.505 180.253 875.544 180.792 Q874.584 181.331 873.835 182.666 Q873.109 184.001 872.757 186.015 Q872.382 188.615 872.382 194.845 Z" fill="#000000" fill-rule="nonzero" fill-opacity="1" /><path clip-path="url(#clip900)" d="M892.83 210 Q892.151 209.227 892.151 208.22 Q892.151 207.212 892.806 206.463 Q893.486 205.69 894.704 205.69 Q896.132 205.69 896.952 207.072 Q897.772 208.43 897.772 210.726 Q897.772 213.208 896.765 215.504 Q895.758 217.823 894.774 218.924 Q893.79 220.024 893.392 220.024 Q892.924 220.024 892.924 219.509 Q892.924 219.322 893.251 218.97 Q896.695 215.27 896.718 210.726 Q896.718 210 896.624 210 L896.507 210.093 Q895.687 210.773 894.704 210.773 Q893.509 210.773 892.83 210 Z" fill="#000000" fill-rule="nonzero" fill-opacity="1" /><path clip-path="url(#clip900)" d="M912.904 195.431 Q912.904 188.381 914.684 184.539 Q917.167 178.824 923.022 178.824 Q924.264 178.824 925.552 179.176 Q926.864 179.504 928.503 180.792 Q930.166 182.08 931.173 184.188 Q933.094 188.264 933.094 195.431 Q933.094 202.434 931.314 206.252 Q928.714 211.827 922.976 211.827 Q920.821 211.827 918.619 210.726 Q916.441 209.625 915.059 206.978 Q912.904 203.02 912.904 195.431 M916.886 194.845 Q916.886 202.083 917.401 204.964 Q917.987 208.079 919.579 209.437 Q921.195 210.773 922.976 210.773 Q924.896 210.773 926.489 209.344 Q928.105 207.892 928.597 204.776 Q929.136 201.708 929.112 194.845 Q929.112 188.17 928.644 185.5 Q928.011 182.385 926.325 181.143 Q924.662 179.878 922.976 179.878 Q922.343 179.878 921.664 180.066 Q921.008 180.253 920.048 180.792 Q919.087 181.331 918.338 182.666 Q917.612 184.001 917.26 186.015 Q916.886 188.615 916.886 194.845 Z" fill="#000000" fill-rule="nonzero" fill-opacity="1" /><path clip-path="url(#clip900)" d="M937.38 210 Q936.654 209.227 936.654 208.22 Q936.654 207.212 937.38 206.486 Q938.106 205.737 939.207 205.737 Q940.261 205.737 940.964 206.439 Q941.69 207.119 941.69 208.243 Q941.69 209.344 940.917 210.07 Q940.167 210.773 939.207 210.773 Q938.106 210.773 937.38 210 Z" fill="#000000" fill-rule="nonzero" fill-opacity="1" /><path clip-path="url(#clip900)" d="M949.851 195.431 Q949.851 188.381 951.631 184.539 Q954.114 178.824 959.969 178.824 Q961.211 178.824 962.499 179.176 Q963.811 179.504 965.45 180.792 Q967.113 182.08 968.12 184.188 Q970.041 188.264 970.041 195.431 Q970.041 202.434 968.261 206.252 Q965.661 211.827 959.923 211.827 Q957.768 211.827 955.566 210.726 Q953.388 209.625 952.006 206.978 Q949.851 203.02 949.851 195.431 M953.833 194.845 Q953.833 202.083 954.348 204.964 Q954.934 208.079 956.526 209.437 Q958.142 210.773 959.923 210.773 Q961.843 210.773 963.436 209.344 Q965.052 207.892 965.544 204.776 Q966.083 201.708 966.059 194.845 Q966.059 188.17 965.591 185.5 Q964.958 182.385 963.272 181.143 Q961.609 179.878 959.923 179.878 Q959.29 179.878 958.611 180.066 Q957.955 180.253 956.995 180.792 Q956.034 181.331 955.285 182.666 Q954.559 184.001 954.208 186.015 Q953.833 188.615 953.833 194.845 Z" fill="#000000" fill-rule="nonzero" fill-opacity="1" /><path clip-path="url(#clip900)" d="M972.146 183.392 L972.146 181.893 Q977.908 181.893 980.883 178.824 Q981.702 178.824 981.843 179.012 Q981.983 179.199 981.983 180.066 L981.983 206.978 Q981.983 208.407 982.686 208.852 Q983.389 209.297 986.457 209.297 L987.98 209.297 L987.98 210.773 Q986.293 210.632 980.203 210.632 Q974.113 210.632 972.45 210.773 L972.45 209.297 L973.973 209.297 Q976.994 209.297 977.72 208.875 Q978.447 208.43 978.447 206.978 L978.447 182.127 Q975.94 183.392 972.146 183.392 Z" fill="#000000" fill-rule="nonzero" fill-opacity="1" /><path clip-path="url(#clip900)" d="M995.128 222.296 Q995.128 222.062 995.737 221.477 Q1003.47 213.607 1003.47 198.78 Q1003.47 183.907 996.041 176.388 Q995.128 175.522 995.128 175.264 Q995.128 174.796 995.596 174.796 Q995.924 174.796 997.072 175.756 Q998.243 176.716 1000 178.918 Q1001.78 181.12 1003.09 183.813 Q1006.25 190.348 1006.25 198.78 Q1006.25 206.884 1003.23 213.419 Q1001.94 216.16 1000.14 218.455 Q998.337 220.751 997.142 221.758 Q995.948 222.765 995.596 222.765 Q995.128 222.765 995.128 222.296 Z" fill="#000000" fill-rule="nonzero" fill-opacity="1" /></svg>
