<?xml version="1.0" encoding="utf-8"?>
<svg xmlns="http://www.w3.org/2000/svg" xmlns:xlink="http://www.w3.org/1999/xlink" width="600" height="400" viewBox="0 0 2400 1600">
<defs>
  <clipPath id="clip140">
    <rect x="0" y="0" width="2400" height="1600"/>
  </clipPath>
</defs>
<path clip-path="url(#clip140)" d="M0 1600 L2400 1600 L2400 0 L0 0  Z" fill="#ffffff" fill-rule="evenodd" fill-opacity="1"/>
<defs>
  <clipPath id="clip141">
    <rect x="480" y="0" width="1681" height="1600"/>
  </clipPath>
</defs>
<path clip-path="url(#clip140)" d="M156.112 1486.45 L2352.76 1486.45 L2352.76 47.2441 L156.112 47.2441  Z" fill="#ffffff" fill-rule="evenodd" fill-opacity="1"/>
<defs>
  <clipPath id="clip142">
    <rect x="156" y="47" width="2198" height="1440"/>
  </clipPath>
</defs>
<polyline clip-path="url(#clip142)" style="stroke:#000000; stroke-linecap:round; stroke-linejoin:round; stroke-width:2; stroke-opacity:0.1; fill:none" points="218.281,1486.45 218.281,47.2441 "/>
<polyline clip-path="url(#clip142)" style="stroke:#000000; stroke-linecap:round; stroke-linejoin:round; stroke-width:2; stroke-opacity:0.1; fill:none" points="736.358,1486.45 736.358,47.2441 "/>
<polyline clip-path="url(#clip142)" style="stroke:#000000; stroke-linecap:round; stroke-linejoin:round; stroke-width:2; stroke-opacity:0.1; fill:none" points="1254.43,1486.45 1254.43,47.2441 "/>
<polyline clip-path="url(#clip142)" style="stroke:#000000; stroke-linecap:round; stroke-linejoin:round; stroke-width:2; stroke-opacity:0.1; fill:none" points="1772.51,1486.45 1772.51,47.2441 "/>
<polyline clip-path="url(#clip142)" style="stroke:#000000; stroke-linecap:round; stroke-linejoin:round; stroke-width:2; stroke-opacity:0.1; fill:none" points="2290.59,1486.45 2290.59,47.2441 "/>
<polyline clip-path="url(#clip140)" style="stroke:#000000; stroke-linecap:round; stroke-linejoin:round; stroke-width:4; stroke-opacity:1; fill:none" points="156.112,1486.45 2352.76,1486.45 "/>
<polyline clip-path="url(#clip140)" style="stroke:#000000; stroke-linecap:round; stroke-linejoin:round; stroke-width:4; stroke-opacity:1; fill:none" points="218.281,1486.45 218.281,1467.55 "/>
<polyline clip-path="url(#clip140)" style="stroke:#000000; stroke-linecap:round; stroke-linejoin:round; stroke-width:4; stroke-opacity:1; fill:none" points="736.358,1486.45 736.358,1467.55 "/>
<polyline clip-path="url(#clip140)" style="stroke:#000000; stroke-linecap:round; stroke-linejoin:round; stroke-width:4; stroke-opacity:1; fill:none" points="1254.43,1486.45 1254.43,1467.55 "/>
<polyline clip-path="url(#clip140)" style="stroke:#000000; stroke-linecap:round; stroke-linejoin:round; stroke-width:4; stroke-opacity:1; fill:none" points="1772.51,1486.45 1772.51,1467.55 "/>
<polyline clip-path="url(#clip140)" style="stroke:#000000; stroke-linecap:round; stroke-linejoin:round; stroke-width:4; stroke-opacity:1; fill:none" points="2290.59,1486.45 2290.59,1467.55 "/>
<path clip-path="url(#clip140)" d="M180.585 1517.37 Q176.974 1517.37 175.145 1520.93 Q173.339 1524.47 173.339 1531.6 Q173.339 1538.71 175.145 1542.27 Q176.974 1545.82 180.585 1545.82 Q184.219 1545.82 186.025 1542.27 Q187.853 1538.71 187.853 1531.6 Q187.853 1524.47 186.025 1520.93 Q184.219 1517.37 180.585 1517.37 M180.585 1513.66 Q186.395 1513.66 189.45 1518.27 Q192.529 1522.85 192.529 1531.6 Q192.529 1540.33 189.45 1544.94 Q186.395 1549.52 180.585 1549.52 Q174.775 1549.52 171.696 1544.94 Q168.64 1540.33 168.64 1531.6 Q168.64 1522.85 171.696 1518.27 Q174.775 1513.66 180.585 1513.66 Z" fill="#000000" fill-rule="nonzero" fill-opacity="1" /><path clip-path="url(#clip140)" d="M200.747 1542.97 L205.631 1542.97 L205.631 1548.85 L200.747 1548.85 L200.747 1542.97 Z" fill="#000000" fill-rule="nonzero" fill-opacity="1" /><path clip-path="url(#clip140)" d="M225.816 1517.37 Q222.205 1517.37 220.376 1520.93 Q218.571 1524.47 218.571 1531.6 Q218.571 1538.71 220.376 1542.27 Q222.205 1545.82 225.816 1545.82 Q229.45 1545.82 231.256 1542.27 Q233.084 1538.71 233.084 1531.6 Q233.084 1524.47 231.256 1520.93 Q229.45 1517.37 225.816 1517.37 M225.816 1513.66 Q231.626 1513.66 234.682 1518.27 Q237.76 1522.85 237.76 1531.6 Q237.76 1540.33 234.682 1544.94 Q231.626 1549.52 225.816 1549.52 Q220.006 1549.52 216.927 1544.94 Q213.872 1540.33 213.872 1531.6 Q213.872 1522.85 216.927 1518.27 Q220.006 1513.66 225.816 1513.66 Z" fill="#000000" fill-rule="nonzero" fill-opacity="1" /><path clip-path="url(#clip140)" d="M255.978 1517.37 Q252.367 1517.37 250.538 1520.93 Q248.733 1524.47 248.733 1531.6 Q248.733 1538.71 250.538 1542.27 Q252.367 1545.82 255.978 1545.82 Q259.612 1545.82 261.418 1542.27 Q263.246 1538.71 263.246 1531.6 Q263.246 1524.47 261.418 1520.93 Q259.612 1517.37 255.978 1517.37 M255.978 1513.66 Q261.788 1513.66 264.844 1518.27 Q267.922 1522.85 267.922 1531.6 Q267.922 1540.33 264.844 1544.94 Q261.788 1549.52 255.978 1549.52 Q250.168 1549.52 247.089 1544.94 Q244.033 1540.33 244.033 1531.6 Q244.033 1522.85 247.089 1518.27 Q250.168 1513.66 255.978 1513.66 Z" fill="#000000" fill-rule="nonzero" fill-opacity="1" /><path clip-path="url(#clip140)" d="M699.159 1517.37 Q695.548 1517.37 693.719 1520.93 Q691.913 1524.47 691.913 1531.6 Q691.913 1538.71 693.719 1542.27 Q695.548 1545.82 699.159 1545.82 Q702.793 1545.82 704.599 1542.27 Q706.427 1538.71 706.427 1531.6 Q706.427 1524.47 704.599 1520.93 Q702.793 1517.37 699.159 1517.37 M699.159 1513.66 Q704.969 1513.66 708.024 1518.27 Q711.103 1522.85 711.103 1531.6 Q711.103 1540.33 708.024 1544.94 Q704.969 1549.52 699.159 1549.52 Q693.349 1549.52 690.27 1544.94 Q687.214 1540.33 687.214 1531.6 Q687.214 1522.85 690.27 1518.27 Q693.349 1513.66 699.159 1513.66 Z" fill="#000000" fill-rule="nonzero" fill-opacity="1" /><path clip-path="url(#clip140)" d="M719.321 1542.97 L724.205 1542.97 L724.205 1548.85 L719.321 1548.85 L719.321 1542.97 Z" fill="#000000" fill-rule="nonzero" fill-opacity="1" /><path clip-path="url(#clip140)" d="M738.418 1544.91 L754.737 1544.91 L754.737 1548.85 L732.793 1548.85 L732.793 1544.91 Q735.455 1542.16 740.038 1537.53 Q744.645 1532.88 745.825 1531.53 Q748.071 1529.01 748.95 1527.27 Q749.853 1525.51 749.853 1523.82 Q749.853 1521.07 747.909 1519.33 Q745.987 1517.6 742.885 1517.6 Q740.686 1517.6 738.233 1518.36 Q735.802 1519.13 733.024 1520.68 L733.024 1515.95 Q735.848 1514.82 738.302 1514.24 Q740.756 1513.66 742.793 1513.66 Q748.163 1513.66 751.358 1516.35 Q754.552 1519.03 754.552 1523.52 Q754.552 1525.65 753.742 1527.57 Q752.955 1529.47 750.848 1532.07 Q750.27 1532.74 747.168 1535.95 Q744.066 1539.15 738.418 1544.91 Z" fill="#000000" fill-rule="nonzero" fill-opacity="1" /><path clip-path="url(#clip140)" d="M764.598 1514.29 L782.955 1514.29 L782.955 1518.22 L768.881 1518.22 L768.881 1526.7 Q769.899 1526.35 770.918 1526.19 Q771.936 1526 772.955 1526 Q778.742 1526 782.121 1529.17 Q785.501 1532.34 785.501 1537.76 Q785.501 1543.34 782.029 1546.44 Q778.557 1549.52 772.237 1549.52 Q770.061 1549.52 767.793 1549.15 Q765.547 1548.78 763.14 1548.04 L763.14 1543.34 Q765.223 1544.47 767.445 1545.03 Q769.668 1545.58 772.144 1545.58 Q776.149 1545.58 778.487 1543.48 Q780.825 1541.37 780.825 1537.76 Q780.825 1534.15 778.487 1532.04 Q776.149 1529.94 772.144 1529.94 Q770.27 1529.94 768.395 1530.35 Q766.543 1530.77 764.598 1531.65 L764.598 1514.29 Z" fill="#000000" fill-rule="nonzero" fill-opacity="1" /><path clip-path="url(#clip140)" d="M1216.74 1517.37 Q1213.13 1517.37 1211.3 1520.93 Q1209.49 1524.47 1209.49 1531.6 Q1209.49 1538.71 1211.3 1542.27 Q1213.13 1545.82 1216.74 1545.82 Q1220.37 1545.82 1222.18 1542.27 Q1224.01 1538.71 1224.01 1531.6 Q1224.01 1524.47 1222.18 1520.93 Q1220.37 1517.37 1216.74 1517.37 M1216.74 1513.66 Q1222.55 1513.66 1225.6 1518.27 Q1228.68 1522.85 1228.68 1531.6 Q1228.68 1540.33 1225.6 1544.94 Q1222.55 1549.52 1216.74 1549.52 Q1210.93 1549.52 1207.85 1544.94 Q1204.79 1540.33 1204.79 1531.6 Q1204.79 1522.85 1207.85 1518.27 Q1210.93 1513.66 1216.74 1513.66 Z" fill="#000000" fill-rule="nonzero" fill-opacity="1" /><path clip-path="url(#clip140)" d="M1236.9 1542.97 L1241.78 1542.97 L1241.78 1548.85 L1236.9 1548.85 L1236.9 1542.97 Z" fill="#000000" fill-rule="nonzero" fill-opacity="1" /><path clip-path="url(#clip140)" d="M1252.02 1514.29 L1270.37 1514.29 L1270.37 1518.22 L1256.3 1518.22 L1256.3 1526.7 Q1257.32 1526.35 1258.33 1526.19 Q1259.35 1526 1260.37 1526 Q1266.16 1526 1269.54 1529.17 Q1272.92 1532.34 1272.92 1537.76 Q1272.92 1543.34 1269.45 1546.44 Q1265.97 1549.52 1259.65 1549.52 Q1257.48 1549.52 1255.21 1549.15 Q1252.96 1548.78 1250.56 1548.04 L1250.56 1543.34 Q1252.64 1544.47 1254.86 1545.03 Q1257.08 1545.58 1259.56 1545.58 Q1263.57 1545.58 1265.9 1543.48 Q1268.24 1541.37 1268.24 1537.76 Q1268.24 1534.15 1265.9 1532.04 Q1263.57 1529.94 1259.56 1529.94 Q1257.69 1529.94 1255.81 1530.35 Q1253.96 1530.77 1252.02 1531.65 L1252.02 1514.29 Z" fill="#000000" fill-rule="nonzero" fill-opacity="1" /><path clip-path="url(#clip140)" d="M1292.13 1517.37 Q1288.52 1517.37 1286.69 1520.93 Q1284.89 1524.47 1284.89 1531.6 Q1284.89 1538.71 1286.69 1542.27 Q1288.52 1545.82 1292.13 1545.82 Q1295.76 1545.82 1297.57 1542.27 Q1299.4 1538.71 1299.4 1531.6 Q1299.4 1524.47 1297.57 1520.93 Q1295.76 1517.37 1292.13 1517.37 M1292.13 1513.66 Q1297.94 1513.66 1301 1518.27 Q1304.07 1522.85 1304.07 1531.6 Q1304.07 1540.33 1301 1544.94 Q1297.94 1549.52 1292.13 1549.52 Q1286.32 1549.52 1283.24 1544.94 Q1280.19 1540.33 1280.19 1531.6 Q1280.19 1522.85 1283.24 1518.27 Q1286.32 1513.66 1292.13 1513.66 Z" fill="#000000" fill-rule="nonzero" fill-opacity="1" /><path clip-path="url(#clip140)" d="M1735.31 1517.37 Q1731.7 1517.37 1729.87 1520.93 Q1728.07 1524.47 1728.07 1531.6 Q1728.07 1538.71 1729.87 1542.27 Q1731.7 1545.82 1735.31 1545.82 Q1738.95 1545.82 1740.75 1542.27 Q1742.58 1538.71 1742.58 1531.6 Q1742.58 1524.47 1740.75 1520.93 Q1738.95 1517.37 1735.31 1517.37 M1735.31 1513.66 Q1741.12 1513.66 1744.18 1518.27 Q1747.26 1522.85 1747.26 1531.6 Q1747.26 1540.33 1744.18 1544.94 Q1741.12 1549.52 1735.31 1549.52 Q1729.5 1549.52 1726.42 1544.94 Q1723.37 1540.33 1723.37 1531.6 Q1723.37 1522.85 1726.42 1518.27 Q1729.5 1513.66 1735.31 1513.66 Z" fill="#000000" fill-rule="nonzero" fill-opacity="1" /><path clip-path="url(#clip140)" d="M1755.47 1542.97 L1760.36 1542.97 L1760.36 1548.85 L1755.47 1548.85 L1755.47 1542.97 Z" fill="#000000" fill-rule="nonzero" fill-opacity="1" /><path clip-path="url(#clip140)" d="M1769.36 1514.29 L1791.58 1514.29 L1791.58 1516.28 L1779.04 1548.85 L1774.15 1548.85 L1785.96 1518.22 L1769.36 1518.22 L1769.36 1514.29 Z" fill="#000000" fill-rule="nonzero" fill-opacity="1" /><path clip-path="url(#clip140)" d="M1800.75 1514.29 L1819.11 1514.29 L1819.11 1518.22 L1805.03 1518.22 L1805.03 1526.7 Q1806.05 1526.35 1807.07 1526.19 Q1808.09 1526 1809.11 1526 Q1814.89 1526 1818.27 1529.17 Q1821.65 1532.34 1821.65 1537.76 Q1821.65 1543.34 1818.18 1546.44 Q1814.71 1549.52 1808.39 1549.52 Q1806.21 1549.52 1803.95 1549.15 Q1801.7 1548.78 1799.29 1548.04 L1799.29 1543.34 Q1801.38 1544.47 1803.6 1545.03 Q1805.82 1545.58 1808.3 1545.58 Q1812.3 1545.58 1814.64 1543.48 Q1816.98 1541.37 1816.98 1537.76 Q1816.98 1534.15 1814.64 1532.04 Q1812.3 1529.94 1808.3 1529.94 Q1806.42 1529.94 1804.55 1530.35 Q1802.7 1530.77 1800.75 1531.65 L1800.75 1514.29 Z" fill="#000000" fill-rule="nonzero" fill-opacity="1" /><path clip-path="url(#clip140)" d="M2242.66 1544.91 L2250.3 1544.91 L2250.3 1518.55 L2241.99 1520.21 L2241.99 1515.95 L2250.25 1514.29 L2254.93 1514.29 L2254.93 1544.91 L2262.57 1544.91 L2262.57 1548.85 L2242.66 1548.85 L2242.66 1544.91 Z" fill="#000000" fill-rule="nonzero" fill-opacity="1" /><path clip-path="url(#clip140)" d="M2272.01 1542.97 L2276.89 1542.97 L2276.89 1548.85 L2272.01 1548.85 L2272.01 1542.97 Z" fill="#000000" fill-rule="nonzero" fill-opacity="1" /><path clip-path="url(#clip140)" d="M2297.08 1517.37 Q2293.47 1517.37 2291.64 1520.93 Q2289.83 1524.47 2289.83 1531.6 Q2289.83 1538.71 2291.64 1542.27 Q2293.47 1545.82 2297.08 1545.82 Q2300.71 1545.82 2302.52 1542.27 Q2304.35 1538.71 2304.35 1531.6 Q2304.35 1524.47 2302.52 1520.93 Q2300.71 1517.37 2297.08 1517.37 M2297.08 1513.66 Q2302.89 1513.66 2305.95 1518.27 Q2309.02 1522.85 2309.02 1531.6 Q2309.02 1540.33 2305.95 1544.94 Q2302.89 1549.52 2297.08 1549.52 Q2291.27 1549.52 2288.19 1544.94 Q2285.14 1540.33 2285.14 1531.6 Q2285.14 1522.85 2288.19 1518.27 Q2291.27 1513.66 2297.08 1513.66 Z" fill="#000000" fill-rule="nonzero" fill-opacity="1" /><path clip-path="url(#clip140)" d="M2327.24 1517.37 Q2323.63 1517.37 2321.8 1520.93 Q2320 1524.47 2320 1531.6 Q2320 1538.71 2321.8 1542.27 Q2323.63 1545.82 2327.24 1545.82 Q2330.88 1545.82 2332.68 1542.27 Q2334.51 1538.71 2334.51 1531.6 Q2334.51 1524.47 2332.68 1520.93 Q2330.88 1517.37 2327.24 1517.37 M2327.24 1513.66 Q2333.05 1513.66 2336.11 1518.27 Q2339.19 1522.85 2339.19 1531.6 Q2339.19 1540.33 2336.11 1544.94 Q2333.05 1549.52 2327.24 1549.52 Q2321.43 1549.52 2318.35 1544.94 Q2315.3 1540.33 2315.3 1531.6 Q2315.3 1522.85 2318.35 1518.27 Q2321.43 1513.66 2327.24 1513.66 Z" fill="#000000" fill-rule="nonzero" fill-opacity="1" /><polyline clip-path="url(#clip142)" style="stroke:#000000; stroke-linecap:round; stroke-linejoin:round; stroke-width:2; stroke-opacity:0.1; fill:none" points="156.112,1445.72 2352.76,1445.72 "/>
<polyline clip-path="url(#clip142)" style="stroke:#000000; stroke-linecap:round; stroke-linejoin:round; stroke-width:2; stroke-opacity:0.1; fill:none" points="156.112,1076.64 2352.76,1076.64 "/>
<polyline clip-path="url(#clip142)" style="stroke:#000000; stroke-linecap:round; stroke-linejoin:round; stroke-width:2; stroke-opacity:0.1; fill:none" points="156.112,707.572 2352.76,707.572 "/>
<polyline clip-path="url(#clip142)" style="stroke:#000000; stroke-linecap:round; stroke-linejoin:round; stroke-width:2; stroke-opacity:0.1; fill:none" points="156.112,338.5 2352.76,338.5 "/>
<polyline clip-path="url(#clip140)" style="stroke:#000000; stroke-linecap:round; stroke-linejoin:round; stroke-width:4; stroke-opacity:1; fill:none" points="156.112,1486.45 156.112,47.2441 "/>
<polyline clip-path="url(#clip140)" style="stroke:#000000; stroke-linecap:round; stroke-linejoin:round; stroke-width:4; stroke-opacity:1; fill:none" points="156.112,1445.72 175.01,1445.72 "/>
<polyline clip-path="url(#clip140)" style="stroke:#000000; stroke-linecap:round; stroke-linejoin:round; stroke-width:4; stroke-opacity:1; fill:none" points="156.112,1076.64 175.01,1076.64 "/>
<polyline clip-path="url(#clip140)" style="stroke:#000000; stroke-linecap:round; stroke-linejoin:round; stroke-width:4; stroke-opacity:1; fill:none" points="156.112,707.572 175.01,707.572 "/>
<polyline clip-path="url(#clip140)" style="stroke:#000000; stroke-linecap:round; stroke-linejoin:round; stroke-width:4; stroke-opacity:1; fill:none" points="156.112,338.5 175.01,338.5 "/>
<path clip-path="url(#clip140)" d="M62.9365 1431.51 Q59.3254 1431.51 57.4967 1435.08 Q55.6912 1438.62 55.6912 1445.75 Q55.6912 1452.86 57.4967 1456.42 Q59.3254 1459.96 62.9365 1459.96 Q66.5707 1459.96 68.3763 1456.42 Q70.205 1452.86 70.205 1445.75 Q70.205 1438.62 68.3763 1435.08 Q66.5707 1431.51 62.9365 1431.51 M62.9365 1427.81 Q68.7467 1427.81 71.8022 1432.42 Q74.8809 1437 74.8809 1445.75 Q74.8809 1454.48 71.8022 1459.08 Q68.7467 1463.67 62.9365 1463.67 Q57.1264 1463.67 54.0477 1459.08 Q50.9921 1454.48 50.9921 1445.75 Q50.9921 1437 54.0477 1432.42 Q57.1264 1427.81 62.9365 1427.81 Z" fill="#000000" fill-rule="nonzero" fill-opacity="1" /><path clip-path="url(#clip140)" d="M83.0984 1457.12 L87.9827 1457.12 L87.9827 1463 L83.0984 1463 L83.0984 1457.12 Z" fill="#000000" fill-rule="nonzero" fill-opacity="1" /><path clip-path="url(#clip140)" d="M108.168 1431.51 Q104.557 1431.51 102.728 1435.08 Q100.922 1438.62 100.922 1445.75 Q100.922 1452.86 102.728 1456.42 Q104.557 1459.96 108.168 1459.96 Q111.802 1459.96 113.608 1456.42 Q115.436 1452.86 115.436 1445.75 Q115.436 1438.62 113.608 1435.08 Q111.802 1431.51 108.168 1431.51 M108.168 1427.81 Q113.978 1427.81 117.033 1432.42 Q120.112 1437 120.112 1445.75 Q120.112 1454.48 117.033 1459.08 Q113.978 1463.67 108.168 1463.67 Q102.358 1463.67 99.2789 1459.08 Q96.2234 1454.48 96.2234 1445.75 Q96.2234 1437 99.2789 1432.42 Q102.358 1427.81 108.168 1427.81 Z" fill="#000000" fill-rule="nonzero" fill-opacity="1" /><path clip-path="url(#clip140)" d="M64.1634 1062.44 Q60.5523 1062.44 58.7236 1066.01 Q56.918 1069.55 56.918 1076.68 Q56.918 1083.79 58.7236 1087.35 Q60.5523 1090.89 64.1634 1090.89 Q67.7976 1090.89 69.6031 1087.35 Q71.4318 1083.79 71.4318 1076.68 Q71.4318 1069.55 69.6031 1066.01 Q67.7976 1062.44 64.1634 1062.44 M64.1634 1058.74 Q69.9735 1058.74 73.029 1063.35 Q76.1077 1067.93 76.1077 1076.68 Q76.1077 1085.41 73.029 1090.01 Q69.9735 1094.6 64.1634 1094.6 Q58.3532 1094.6 55.2745 1090.01 Q52.219 1085.41 52.219 1076.68 Q52.219 1067.93 55.2745 1063.35 Q58.3532 1058.74 64.1634 1058.74 Z" fill="#000000" fill-rule="nonzero" fill-opacity="1" /><path clip-path="url(#clip140)" d="M84.3253 1088.04 L89.2095 1088.04 L89.2095 1093.92 L84.3253 1093.92 L84.3253 1088.04 Z" fill="#000000" fill-rule="nonzero" fill-opacity="1" /><path clip-path="url(#clip140)" d="M100.205 1089.99 L107.844 1089.99 L107.844 1063.62 L99.5335 1065.29 L99.5335 1061.03 L107.797 1059.36 L112.473 1059.36 L112.473 1089.99 L120.112 1089.99 L120.112 1093.92 L100.205 1093.92 L100.205 1089.99 Z" fill="#000000" fill-rule="nonzero" fill-opacity="1" /><path clip-path="url(#clip140)" d="M64.5337 693.371 Q60.9226 693.371 59.0939 696.935 Q57.2884 700.477 57.2884 707.607 Q57.2884 714.713 59.0939 718.278 Q60.9226 721.82 64.5337 721.82 Q68.168 721.82 69.9735 718.278 Q71.8022 714.713 71.8022 707.607 Q71.8022 700.477 69.9735 696.935 Q68.168 693.371 64.5337 693.371 M64.5337 689.667 Q70.3439 689.667 73.3994 694.273 Q76.4781 698.857 76.4781 707.607 Q76.4781 716.334 73.3994 720.94 Q70.3439 725.523 64.5337 725.523 Q58.7236 725.523 55.6449 720.94 Q52.5893 716.334 52.5893 707.607 Q52.5893 698.857 55.6449 694.273 Q58.7236 689.667 64.5337 689.667 Z" fill="#000000" fill-rule="nonzero" fill-opacity="1" /><path clip-path="url(#clip140)" d="M84.6956 718.972 L89.5799 718.972 L89.5799 724.852 L84.6956 724.852 L84.6956 718.972 Z" fill="#000000" fill-rule="nonzero" fill-opacity="1" /><path clip-path="url(#clip140)" d="M103.793 720.917 L120.112 720.917 L120.112 724.852 L98.1678 724.852 L98.1678 720.917 Q100.83 718.162 105.413 713.533 Q110.02 708.88 111.2 707.537 Q113.445 705.014 114.325 703.278 Q115.228 701.519 115.228 699.829 Q115.228 697.074 113.283 695.338 Q111.362 693.602 108.26 693.602 Q106.061 693.602 103.608 694.366 Q101.177 695.13 98.3993 696.681 L98.3993 691.959 Q101.223 690.824 103.677 690.246 Q106.131 689.667 108.168 689.667 Q113.538 689.667 116.733 692.352 Q119.927 695.037 119.927 699.528 Q119.927 701.658 119.117 703.579 Q118.33 705.477 116.223 708.07 Q115.645 708.741 112.543 711.959 Q109.441 715.153 103.793 720.917 Z" fill="#000000" fill-rule="nonzero" fill-opacity="1" /><path clip-path="url(#clip140)" d="M63.5847 324.299 Q59.9736 324.299 58.1449 327.864 Q56.3393 331.405 56.3393 338.535 Q56.3393 345.641 58.1449 349.206 Q59.9736 352.748 63.5847 352.748 Q67.2189 352.748 69.0244 349.206 Q70.8531 345.641 70.8531 338.535 Q70.8531 331.405 69.0244 327.864 Q67.2189 324.299 63.5847 324.299 M63.5847 320.595 Q69.3948 320.595 72.4503 325.202 Q75.529 329.785 75.529 338.535 Q75.529 347.262 72.4503 351.868 Q69.3948 356.451 63.5847 356.451 Q57.7745 356.451 54.6958 351.868 Q51.6403 347.262 51.6403 338.535 Q51.6403 329.785 54.6958 325.202 Q57.7745 320.595 63.5847 320.595 Z" fill="#000000" fill-rule="nonzero" fill-opacity="1" /><path clip-path="url(#clip140)" d="M83.7466 349.901 L88.6308 349.901 L88.6308 355.78 L83.7466 355.78 L83.7466 349.901 Z" fill="#000000" fill-rule="nonzero" fill-opacity="1" /><path clip-path="url(#clip140)" d="M112.983 337.146 Q116.339 337.864 118.214 340.132 Q120.112 342.401 120.112 345.734 Q120.112 350.85 116.594 353.651 Q113.075 356.451 106.594 356.451 Q104.418 356.451 102.103 356.012 Q99.8113 355.595 97.3576 354.739 L97.3576 350.225 Q99.3021 351.359 101.617 351.938 Q103.932 352.516 106.455 352.516 Q110.853 352.516 113.145 350.78 Q115.459 349.044 115.459 345.734 Q115.459 342.678 113.307 340.965 Q111.177 339.229 107.358 339.229 L103.33 339.229 L103.33 335.387 L107.543 335.387 Q110.992 335.387 112.82 334.021 Q114.649 332.632 114.649 330.04 Q114.649 327.378 112.751 325.966 Q110.876 324.53 107.358 324.53 Q105.436 324.53 103.237 324.947 Q101.038 325.364 98.3993 326.243 L98.3993 322.077 Q101.061 321.336 103.376 320.966 Q105.714 320.595 107.774 320.595 Q113.098 320.595 116.2 323.026 Q119.302 325.433 119.302 329.553 Q119.302 332.424 117.658 334.415 Q116.015 336.382 112.983 337.146 Z" fill="#000000" fill-rule="nonzero" fill-opacity="1" /><polyline clip-path="url(#clip142)" style="stroke:#009af9; stroke-linecap:round; stroke-linejoin:round; stroke-width:4; stroke-opacity:1; fill:none" points="231.773,1445.72 356.525,1445.72 431.495,1445.72 494.882,1445.72 563.737,1445.72 627.216,1445.72 695.272,1445.72 774.122,1445.67 844.194,1445.01 905.641,1441.93 939.137,1437.86 972.634,1431.01 989.482,1426.23 1006.33,1420.38 1023.18,1413.38 1040.03,1405.11 1058.65,1394.41 1077.28,1381.97 1095.91,1367.74 1114.54,1351.67 1132.26,1334.67 1149.98,1316.01 1167.71,1295.73 1185.43,1273.87 1203.86,1249.56 1222.29,1223.72 1240.72,1196.46 1259.14,1167.91 1274.66,1142.97 1290.17,1117.28 1305.68,1090.94 1321.2,1064.03 1396.95,927.202 1466.35,799.745 1498.4,742.011 1530.45,685.69 1562.91,630.499 1595.38,577.529 1613.57,548.924 1631.76,521.145 1649.95,494.224 1668.14,468.19 1701.11,423.335 1734.08,381.552 1752.95,359.033 1771.82,337.537 1790.7,317.063 1809.57,297.604 1844.52,264.222 1879.47,234.213 1913.92,207.829 1948.38,184.505 1981.83,164.66 2015.29,147.445 2049.58,132.385 2083.88,119.797 2121.45,108.668 2159.03,100.132 2186.32,95.4485 2213.61,91.9615 2240.9,89.6008 2268.19,88.2992 2273.79,88.1571 2279.39,88.0563 2284.99,87.9962 2290.59,87.9763 "/>
<path clip-path="url(#clip140)" d="M1609.2 1438.47 L2279.53 1438.47 L2279.53 1334.79 L1609.2 1334.79  Z" fill="#ffffff" fill-rule="evenodd" fill-opacity="1"/>
<polyline clip-path="url(#clip140)" style="stroke:#000000; stroke-linecap:round; stroke-linejoin:round; stroke-width:4; stroke-opacity:1; fill:none" points="1609.2,1438.47 2279.53,1438.47 2279.53,1334.79 1609.2,1334.79 1609.2,1438.47 "/>
<polyline clip-path="url(#clip140)" style="stroke:#009af9; stroke-linecap:round; stroke-linejoin:round; stroke-width:4; stroke-opacity:1; fill:none" points="1633.61,1386.63 1780.05,1386.63 "/>
<path clip-path="url(#clip140)" d="M1808.74 1400.03 L1808.74 1413.78 L1804.46 1413.78 L1804.46 1377.99 L1808.74 1377.99 L1808.74 1381.92 Q1810.08 1379.61 1812.12 1378.5 Q1814.18 1377.36 1817.03 1377.36 Q1821.75 1377.36 1824.69 1381.11 Q1827.65 1384.86 1827.65 1390.97 Q1827.65 1397.09 1824.69 1400.84 Q1821.75 1404.59 1817.03 1404.59 Q1814.18 1404.59 1812.12 1403.47 Q1810.08 1402.34 1808.74 1400.03 M1823.23 1390.97 Q1823.23 1386.28 1821.29 1383.61 Q1819.37 1380.93 1815.99 1380.93 Q1812.61 1380.93 1810.66 1383.61 Q1808.74 1386.28 1808.74 1390.97 Q1808.74 1395.67 1810.66 1398.36 Q1812.61 1401.02 1815.99 1401.02 Q1819.37 1401.02 1821.29 1398.36 Q1823.23 1395.67 1823.23 1390.97 Z" fill="#000000" fill-rule="nonzero" fill-opacity="1" /><path clip-path="url(#clip140)" d="M1849.74 1381.97 Q1849.02 1381.55 1848.16 1381.37 Q1847.33 1381.16 1846.31 1381.16 Q1842.7 1381.16 1840.75 1383.52 Q1838.83 1385.86 1838.83 1390.26 L1838.83 1403.91 L1834.55 1403.91 L1834.55 1377.99 L1838.83 1377.99 L1838.83 1382.02 Q1840.18 1379.66 1842.33 1378.52 Q1844.48 1377.36 1847.56 1377.36 Q1848 1377.36 1848.53 1377.43 Q1849.06 1377.48 1849.71 1377.6 L1849.74 1381.97 Z" fill="#000000" fill-rule="nonzero" fill-opacity="1" /><path clip-path="url(#clip140)" d="M1875.34 1389.89 L1875.34 1391.97 L1855.75 1391.97 Q1856.03 1396.37 1858.39 1398.68 Q1860.78 1400.97 1865.01 1400.97 Q1867.47 1400.97 1869.76 1400.37 Q1872.07 1399.77 1874.34 1398.57 L1874.34 1402.59 Q1872.05 1403.57 1869.64 1404.08 Q1867.24 1404.59 1864.76 1404.59 Q1858.56 1404.59 1854.92 1400.97 Q1851.31 1397.36 1851.31 1391.21 Q1851.31 1384.84 1854.74 1381.11 Q1858.18 1377.36 1864.02 1377.36 Q1869.25 1377.36 1872.28 1380.74 Q1875.34 1384.1 1875.34 1389.89 M1871.08 1388.64 Q1871.03 1385.14 1869.11 1383.06 Q1867.21 1380.97 1864.06 1380.97 Q1860.5 1380.97 1858.35 1382.99 Q1856.22 1385 1855.89 1388.66 L1871.08 1388.64 Z" fill="#000000" fill-rule="nonzero" fill-opacity="1" /><path clip-path="url(#clip140)" d="M1898.86 1378.75 L1898.86 1382.78 Q1897.05 1381.85 1895.11 1381.39 Q1893.16 1380.93 1891.08 1380.93 Q1887.91 1380.93 1886.31 1381.9 Q1884.74 1382.87 1884.74 1384.82 Q1884.74 1386.3 1885.87 1387.16 Q1887 1387.99 1890.43 1388.75 L1891.89 1389.08 Q1896.43 1390.05 1898.32 1391.83 Q1900.24 1393.59 1900.24 1396.76 Q1900.24 1400.37 1897.37 1402.48 Q1894.53 1404.59 1889.53 1404.59 Q1887.44 1404.59 1885.18 1404.17 Q1882.93 1403.78 1880.43 1402.97 L1880.43 1398.57 Q1882.79 1399.79 1885.08 1400.42 Q1887.37 1401.02 1889.62 1401.02 Q1892.63 1401.02 1894.25 1400 Q1895.87 1398.96 1895.87 1397.09 Q1895.87 1395.35 1894.69 1394.42 Q1893.53 1393.5 1889.57 1392.64 L1888.09 1392.29 Q1884.13 1391.46 1882.37 1389.75 Q1880.62 1388.01 1880.62 1385 Q1880.62 1381.35 1883.21 1379.35 Q1885.8 1377.36 1890.57 1377.36 Q1892.93 1377.36 1895.01 1377.71 Q1897.1 1378.06 1898.86 1378.75 Z" fill="#000000" fill-rule="nonzero" fill-opacity="1" /><path clip-path="url(#clip140)" d="M1907.03 1367.9 L1911.29 1367.9 L1911.29 1403.91 L1907.03 1403.91 L1907.03 1367.9 Z" fill="#000000" fill-rule="nonzero" fill-opacity="1" /><path clip-path="url(#clip140)" d="M1920.2 1377.99 L1924.46 1377.99 L1924.46 1403.91 L1920.2 1403.91 L1920.2 1377.99 M1920.2 1367.9 L1924.46 1367.9 L1924.46 1373.29 L1920.2 1373.29 L1920.2 1367.9 Z" fill="#000000" fill-rule="nonzero" fill-opacity="1" /><path clip-path="url(#clip140)" d="M1933.21 1367.9 L1937.49 1367.9 L1937.49 1389.17 L1950.2 1377.99 L1955.64 1377.99 L1941.89 1390.12 L1956.22 1403.91 L1950.66 1403.91 L1937.49 1391.25 L1937.49 1403.91 L1933.21 1403.91 L1933.21 1367.9 Z" fill="#000000" fill-rule="nonzero" fill-opacity="1" /><path clip-path="url(#clip140)" d="M1971.77 1390.88 Q1966.61 1390.88 1964.62 1392.06 Q1962.63 1393.24 1962.63 1396.09 Q1962.63 1398.36 1964.11 1399.7 Q1965.61 1401.02 1968.18 1401.02 Q1971.73 1401.02 1973.86 1398.52 Q1976.01 1396 1976.01 1391.83 L1976.01 1390.88 L1971.77 1390.88 M1980.27 1389.12 L1980.27 1403.91 L1976.01 1403.91 L1976.01 1399.98 Q1974.55 1402.34 1972.37 1403.47 Q1970.2 1404.59 1967.05 1404.59 Q1963.07 1404.59 1960.71 1402.36 Q1958.37 1400.12 1958.37 1396.37 Q1958.37 1391.99 1961.29 1389.77 Q1964.23 1387.55 1970.04 1387.55 L1976.01 1387.55 L1976.01 1387.13 Q1976.01 1384.19 1974.06 1382.6 Q1972.14 1380.97 1968.65 1380.97 Q1966.43 1380.97 1964.32 1381.51 Q1962.21 1382.04 1960.27 1383.1 L1960.27 1379.17 Q1962.61 1378.27 1964.8 1377.83 Q1967 1377.36 1969.09 1377.36 Q1974.71 1377.36 1977.49 1380.28 Q1980.27 1383.2 1980.27 1389.12 Z" fill="#000000" fill-rule="nonzero" fill-opacity="1" /><path clip-path="url(#clip140)" d="M2010.59 1388.27 L2010.59 1403.91 L2006.33 1403.91 L2006.33 1388.41 Q2006.33 1384.72 2004.9 1382.9 Q2003.46 1381.07 2000.59 1381.07 Q1997.14 1381.07 1995.15 1383.27 Q1993.16 1385.47 1993.16 1389.26 L1993.16 1403.91 L1988.88 1403.91 L1988.88 1377.99 L1993.16 1377.99 L1993.16 1382.02 Q1994.69 1379.68 1996.75 1378.52 Q1998.83 1377.36 2001.54 1377.36 Q2006.01 1377.36 2008.3 1380.14 Q2010.59 1382.9 2010.59 1388.27 Z" fill="#000000" fill-rule="nonzero" fill-opacity="1" /><path clip-path="url(#clip140)" d="M2034.16 1377.99 L2038.42 1377.99 L2038.42 1403.91 L2034.16 1403.91 L2034.16 1377.99 M2034.16 1367.9 L2038.42 1367.9 L2038.42 1373.29 L2034.16 1373.29 L2034.16 1367.9 Z" fill="#000000" fill-rule="nonzero" fill-opacity="1" /><path clip-path="url(#clip140)" d="M2068.88 1388.27 L2068.88 1403.91 L2064.62 1403.91 L2064.62 1388.41 Q2064.62 1384.72 2063.18 1382.9 Q2061.75 1381.07 2058.88 1381.07 Q2055.43 1381.07 2053.44 1383.27 Q2051.45 1385.47 2051.45 1389.26 L2051.45 1403.91 L2047.17 1403.91 L2047.17 1377.99 L2051.45 1377.99 L2051.45 1382.02 Q2052.98 1379.68 2055.04 1378.52 Q2057.12 1377.36 2059.83 1377.36 Q2064.29 1377.36 2066.59 1380.14 Q2068.88 1382.9 2068.88 1388.27 Z" fill="#000000" fill-rule="nonzero" fill-opacity="1" /><path clip-path="url(#clip140)" d="M2081.59 1370.63 L2081.59 1377.99 L2090.36 1377.99 L2090.36 1381.3 L2081.59 1381.3 L2081.59 1395.37 Q2081.59 1398.54 2082.44 1399.45 Q2083.32 1400.35 2085.98 1400.35 L2090.36 1400.35 L2090.36 1403.91 L2085.98 1403.91 Q2081.05 1403.91 2079.18 1402.09 Q2077.3 1400.23 2077.3 1395.37 L2077.3 1381.3 L2074.18 1381.3 L2074.18 1377.99 L2077.3 1377.99 L2077.3 1370.63 L2081.59 1370.63 Z" fill="#000000" fill-rule="nonzero" fill-opacity="1" /><path clip-path="url(#clip140)" d="M2118.14 1389.89 L2118.14 1391.97 L2098.55 1391.97 Q2098.83 1396.37 2101.19 1398.68 Q2103.58 1400.97 2107.81 1400.97 Q2110.27 1400.97 2112.56 1400.37 Q2114.87 1399.77 2117.14 1398.57 L2117.14 1402.59 Q2114.85 1403.57 2112.44 1404.08 Q2110.04 1404.59 2107.56 1404.59 Q2101.35 1404.59 2097.72 1400.97 Q2094.11 1397.36 2094.11 1391.21 Q2094.11 1384.84 2097.54 1381.11 Q2100.98 1377.36 2106.82 1377.36 Q2112.05 1377.36 2115.08 1380.74 Q2118.14 1384.1 2118.14 1389.89 M2113.88 1388.64 Q2113.83 1385.14 2111.91 1383.06 Q2110.01 1380.97 2106.86 1380.97 Q2103.3 1380.97 2101.15 1382.99 Q2099.02 1385 2098.69 1388.66 L2113.88 1388.64 Z" fill="#000000" fill-rule="nonzero" fill-opacity="1" /><path clip-path="url(#clip140)" d="M2142.19 1390.65 Q2142.19 1386.02 2140.27 1383.47 Q2138.37 1380.93 2134.92 1380.93 Q2131.49 1380.93 2129.57 1383.47 Q2127.67 1386.02 2127.67 1390.65 Q2127.67 1395.26 2129.57 1397.8 Q2131.49 1400.35 2134.92 1400.35 Q2138.37 1400.35 2140.27 1397.8 Q2142.19 1395.26 2142.19 1390.65 M2146.45 1400.7 Q2146.45 1407.32 2143.51 1410.53 Q2140.57 1413.78 2134.5 1413.78 Q2132.26 1413.78 2130.27 1413.43 Q2128.28 1413.1 2126.4 1412.41 L2126.4 1408.27 Q2128.28 1409.28 2130.1 1409.77 Q2131.93 1410.26 2133.83 1410.26 Q2138.02 1410.26 2140.1 1408.06 Q2142.19 1405.88 2142.19 1401.46 L2142.19 1399.35 Q2140.87 1401.65 2138.81 1402.78 Q2136.75 1403.91 2133.88 1403.91 Q2129.11 1403.91 2126.19 1400.28 Q2123.28 1396.65 2123.28 1390.65 Q2123.28 1384.63 2126.19 1381 Q2129.11 1377.36 2133.88 1377.36 Q2136.75 1377.36 2138.81 1378.5 Q2140.87 1379.63 2142.19 1381.92 L2142.19 1377.99 L2146.45 1377.99 L2146.45 1400.7 Z" fill="#000000" fill-rule="nonzero" fill-opacity="1" /><path clip-path="url(#clip140)" d="M2170.24 1381.97 Q2169.53 1381.55 2168.67 1381.37 Q2167.84 1381.16 2166.82 1381.16 Q2163.21 1381.16 2161.26 1383.52 Q2159.34 1385.86 2159.34 1390.26 L2159.34 1403.91 L2155.06 1403.91 L2155.06 1377.99 L2159.34 1377.99 L2159.34 1382.02 Q2160.68 1379.66 2162.84 1378.52 Q2164.99 1377.36 2168.07 1377.36 Q2168.51 1377.36 2169.04 1377.43 Q2169.57 1377.48 2170.22 1377.6 L2170.24 1381.97 Z" fill="#000000" fill-rule="nonzero" fill-opacity="1" /><path clip-path="url(#clip140)" d="M2186.49 1390.88 Q2181.33 1390.88 2179.34 1392.06 Q2177.35 1393.24 2177.35 1396.09 Q2177.35 1398.36 2178.83 1399.7 Q2180.34 1401.02 2182.91 1401.02 Q2186.45 1401.02 2188.58 1398.52 Q2190.73 1396 2190.73 1391.83 L2190.73 1390.88 L2186.49 1390.88 M2194.99 1389.12 L2194.99 1403.91 L2190.73 1403.91 L2190.73 1399.98 Q2189.27 1402.34 2187.1 1403.47 Q2184.92 1404.59 2181.77 1404.59 Q2177.79 1404.59 2175.43 1402.36 Q2173.09 1400.12 2173.09 1396.37 Q2173.09 1391.99 2176.01 1389.77 Q2178.95 1387.55 2184.76 1387.55 L2190.73 1387.55 L2190.73 1387.13 Q2190.73 1384.19 2188.79 1382.6 Q2186.86 1380.97 2183.37 1380.97 Q2181.15 1380.97 2179.04 1381.51 Q2176.93 1382.04 2174.99 1383.1 L2174.99 1379.17 Q2177.33 1378.27 2179.53 1377.83 Q2181.72 1377.36 2183.81 1377.36 Q2189.43 1377.36 2192.21 1380.28 Q2194.99 1383.2 2194.99 1389.12 Z" fill="#000000" fill-rule="nonzero" fill-opacity="1" /><path clip-path="url(#clip140)" d="M2225.31 1388.27 L2225.31 1403.91 L2221.05 1403.91 L2221.05 1388.41 Q2221.05 1384.72 2219.62 1382.9 Q2218.18 1381.07 2215.31 1381.07 Q2211.86 1381.07 2209.87 1383.27 Q2207.88 1385.47 2207.88 1389.26 L2207.88 1403.91 L2203.6 1403.91 L2203.6 1377.99 L2207.88 1377.99 L2207.88 1382.02 Q2209.41 1379.68 2211.47 1378.52 Q2213.55 1377.36 2216.26 1377.36 Q2220.73 1377.36 2223.02 1380.14 Q2225.31 1382.9 2225.31 1388.27 Z" fill="#000000" fill-rule="nonzero" fill-opacity="1" /><path clip-path="url(#clip140)" d="M2250.87 1381.92 L2250.87 1367.9 L2255.13 1367.9 L2255.13 1403.91 L2250.87 1403.91 L2250.87 1400.03 Q2249.53 1402.34 2247.47 1403.47 Q2245.43 1404.59 2242.56 1404.59 Q2237.86 1404.59 2234.9 1400.84 Q2231.96 1397.09 2231.96 1390.97 Q2231.96 1384.86 2234.9 1381.11 Q2237.86 1377.36 2242.56 1377.36 Q2245.43 1377.36 2247.47 1378.5 Q2249.53 1379.61 2250.87 1381.92 M2236.35 1390.97 Q2236.35 1395.67 2238.28 1398.36 Q2240.22 1401.02 2243.6 1401.02 Q2246.98 1401.02 2248.92 1398.36 Q2250.87 1395.67 2250.87 1390.97 Q2250.87 1386.28 2248.92 1383.61 Q2246.98 1380.93 2243.6 1380.93 Q2240.22 1380.93 2238.28 1383.61 Q2236.35 1386.28 2236.35 1390.97 Z" fill="#000000" fill-rule="nonzero" fill-opacity="1" /></svg>
