<?xml version="1.0" encoding="utf-8"?>
<svg xmlns="http://www.w3.org/2000/svg" xmlns:xlink="http://www.w3.org/1999/xlink" width="600" height="400" viewBox="0 0 2400 1600">
<defs>
  <clipPath id="clip290">
    <rect x="0" y="0" width="2400" height="1600"/>
  </clipPath>
</defs>
<path clip-path="url(#clip290)" d="M0 1600 L2400 1600 L2400 0 L0 0  Z" fill="#ffffff" fill-rule="evenodd" fill-opacity="1"/>
<defs>
  <clipPath id="clip291">
    <rect x="480" y="0" width="1681" height="1600"/>
  </clipPath>
</defs>
<path clip-path="url(#clip290)" d="M193.936 1486.45 L2352.76 1486.45 L2352.76 47.2441 L193.936 47.2441  Z" fill="#ffffff" fill-rule="evenodd" fill-opacity="1"/>
<defs>
  <clipPath id="clip292">
    <rect x="193" y="47" width="2160" height="1440"/>
  </clipPath>
</defs>
<polyline clip-path="url(#clip292)" style="stroke:#000000; stroke-linecap:round; stroke-linejoin:round; stroke-width:2; stroke-opacity:0.1; fill:none" points="255.035,1486.45 255.035,47.2441 "/>
<polyline clip-path="url(#clip292)" style="stroke:#000000; stroke-linecap:round; stroke-linejoin:round; stroke-width:2; stroke-opacity:0.1; fill:none" points="933.909,1486.45 933.909,47.2441 "/>
<polyline clip-path="url(#clip292)" style="stroke:#000000; stroke-linecap:round; stroke-linejoin:round; stroke-width:2; stroke-opacity:0.1; fill:none" points="1612.78,1486.45 1612.78,47.2441 "/>
<polyline clip-path="url(#clip292)" style="stroke:#000000; stroke-linecap:round; stroke-linejoin:round; stroke-width:2; stroke-opacity:0.1; fill:none" points="2291.66,1486.45 2291.66,47.2441 "/>
<polyline clip-path="url(#clip292)" style="stroke:#000000; stroke-linecap:round; stroke-linejoin:round; stroke-width:2; stroke-opacity:0.1; fill:none" points="193.936,1445.72 2352.76,1445.72 "/>
<polyline clip-path="url(#clip292)" style="stroke:#000000; stroke-linecap:round; stroke-linejoin:round; stroke-width:2; stroke-opacity:0.1; fill:none" points="193.936,1106.29 2352.76,1106.29 "/>
<polyline clip-path="url(#clip292)" style="stroke:#000000; stroke-linecap:round; stroke-linejoin:round; stroke-width:2; stroke-opacity:0.1; fill:none" points="193.936,766.849 2352.76,766.849 "/>
<polyline clip-path="url(#clip292)" style="stroke:#000000; stroke-linecap:round; stroke-linejoin:round; stroke-width:2; stroke-opacity:0.1; fill:none" points="193.936,427.413 2352.76,427.413 "/>
<polyline clip-path="url(#clip292)" style="stroke:#000000; stroke-linecap:round; stroke-linejoin:round; stroke-width:2; stroke-opacity:0.1; fill:none" points="193.936,87.9763 2352.76,87.9763 "/>
<polyline clip-path="url(#clip290)" style="stroke:#000000; stroke-linecap:round; stroke-linejoin:round; stroke-width:4; stroke-opacity:1; fill:none" points="193.936,1486.45 2352.76,1486.45 "/>
<polyline clip-path="url(#clip290)" style="stroke:#000000; stroke-linecap:round; stroke-linejoin:round; stroke-width:4; stroke-opacity:1; fill:none" points="255.035,1486.45 255.035,1467.55 "/>
<polyline clip-path="url(#clip290)" style="stroke:#000000; stroke-linecap:round; stroke-linejoin:round; stroke-width:4; stroke-opacity:1; fill:none" points="933.909,1486.45 933.909,1467.55 "/>
<polyline clip-path="url(#clip290)" style="stroke:#000000; stroke-linecap:round; stroke-linejoin:round; stroke-width:4; stroke-opacity:1; fill:none" points="1612.78,1486.45 1612.78,1467.55 "/>
<polyline clip-path="url(#clip290)" style="stroke:#000000; stroke-linecap:round; stroke-linejoin:round; stroke-width:4; stroke-opacity:1; fill:none" points="2291.66,1486.45 2291.66,1467.55 "/>
<path clip-path="url(#clip290)" d="M255.035 1517.37 Q251.424 1517.37 249.595 1520.93 Q247.789 1524.47 247.789 1531.6 Q247.789 1538.71 249.595 1542.27 Q251.424 1545.82 255.035 1545.82 Q258.669 1545.82 260.474 1542.27 Q262.303 1538.71 262.303 1531.6 Q262.303 1524.47 260.474 1520.93 Q258.669 1517.37 255.035 1517.37 M255.035 1513.66 Q260.845 1513.66 263.9 1518.27 Q266.979 1522.85 266.979 1531.6 Q266.979 1540.33 263.9 1544.94 Q260.845 1549.52 255.035 1549.52 Q249.225 1549.52 246.146 1544.94 Q243.09 1540.33 243.09 1531.6 Q243.09 1522.85 246.146 1518.27 Q249.225 1513.66 255.035 1513.66 Z" fill="#000000" fill-rule="nonzero" fill-opacity="1" /><path clip-path="url(#clip290)" d="M924.291 1544.91 L931.93 1544.91 L931.93 1518.55 L923.62 1520.21 L923.62 1515.95 L931.883 1514.29 L936.559 1514.29 L936.559 1544.91 L944.198 1544.91 L944.198 1548.85 L924.291 1548.85 L924.291 1544.91 Z" fill="#000000" fill-rule="nonzero" fill-opacity="1" /><path clip-path="url(#clip290)" d="M1607.44 1544.91 L1623.76 1544.91 L1623.76 1548.85 L1601.81 1548.85 L1601.81 1544.91 Q1604.47 1542.16 1609.06 1537.53 Q1613.66 1532.88 1614.84 1531.53 Q1617.09 1529.01 1617.97 1527.27 Q1618.87 1525.51 1618.87 1523.82 Q1618.87 1521.07 1616.93 1519.33 Q1615.01 1517.6 1611.9 1517.6 Q1609.7 1517.6 1607.25 1518.36 Q1604.82 1519.13 1602.04 1520.68 L1602.04 1515.95 Q1604.87 1514.82 1607.32 1514.24 Q1609.77 1513.66 1611.81 1513.66 Q1617.18 1513.66 1620.38 1516.35 Q1623.57 1519.03 1623.57 1523.52 Q1623.57 1525.65 1622.76 1527.57 Q1621.97 1529.47 1619.87 1532.07 Q1619.29 1532.74 1616.19 1535.95 Q1613.08 1539.15 1607.44 1544.91 Z" fill="#000000" fill-rule="nonzero" fill-opacity="1" /><path clip-path="url(#clip290)" d="M2295.9 1530.21 Q2299.26 1530.93 2301.14 1533.2 Q2303.03 1535.47 2303.03 1538.8 Q2303.03 1543.92 2299.52 1546.72 Q2296 1549.52 2289.52 1549.52 Q2287.34 1549.52 2285.03 1549.08 Q2282.73 1548.66 2280.28 1547.81 L2280.28 1543.29 Q2282.22 1544.43 2284.54 1545.01 Q2286.85 1545.58 2289.38 1545.58 Q2293.78 1545.58 2296.07 1543.85 Q2298.38 1542.11 2298.38 1538.8 Q2298.38 1535.75 2296.23 1534.03 Q2294.1 1532.3 2290.28 1532.3 L2286.25 1532.3 L2286.25 1528.45 L2290.47 1528.45 Q2293.91 1528.45 2295.74 1527.09 Q2297.57 1525.7 2297.57 1523.11 Q2297.57 1520.45 2295.67 1519.03 Q2293.8 1517.6 2290.28 1517.6 Q2288.36 1517.6 2286.16 1518.01 Q2283.96 1518.43 2281.32 1519.31 L2281.32 1515.14 Q2283.98 1514.4 2286.3 1514.03 Q2288.64 1513.66 2290.7 1513.66 Q2296.02 1513.66 2299.12 1516.09 Q2302.22 1518.5 2302.22 1522.62 Q2302.22 1525.49 2300.58 1527.48 Q2298.94 1529.45 2295.9 1530.21 Z" fill="#000000" fill-rule="nonzero" fill-opacity="1" /><polyline clip-path="url(#clip290)" style="stroke:#000000; stroke-linecap:round; stroke-linejoin:round; stroke-width:4; stroke-opacity:1; fill:none" points="193.936,1486.45 193.936,47.2441 "/>
<polyline clip-path="url(#clip290)" style="stroke:#000000; stroke-linecap:round; stroke-linejoin:round; stroke-width:4; stroke-opacity:1; fill:none" points="193.936,1445.72 212.834,1445.72 "/>
<polyline clip-path="url(#clip290)" style="stroke:#000000; stroke-linecap:round; stroke-linejoin:round; stroke-width:4; stroke-opacity:1; fill:none" points="193.936,1106.29 212.834,1106.29 "/>
<polyline clip-path="url(#clip290)" style="stroke:#000000; stroke-linecap:round; stroke-linejoin:round; stroke-width:4; stroke-opacity:1; fill:none" points="193.936,766.849 212.834,766.849 "/>
<polyline clip-path="url(#clip290)" style="stroke:#000000; stroke-linecap:round; stroke-linejoin:round; stroke-width:4; stroke-opacity:1; fill:none" points="193.936,427.413 212.834,427.413 "/>
<polyline clip-path="url(#clip290)" style="stroke:#000000; stroke-linecap:round; stroke-linejoin:round; stroke-width:4; stroke-opacity:1; fill:none" points="193.936,87.9763 212.834,87.9763 "/>
<path clip-path="url(#clip290)" d="M50.9921 1446.17 L80.6679 1446.17 L80.6679 1450.11 L50.9921 1450.11 L50.9921 1446.17 Z" fill="#000000" fill-rule="nonzero" fill-opacity="1" /><path clip-path="url(#clip290)" d="M91.5706 1459.07 L99.2095 1459.07 L99.2095 1432.7 L90.8993 1434.37 L90.8993 1430.11 L99.1632 1428.44 L103.839 1428.44 L103.839 1459.07 L111.478 1459.07 L111.478 1463 L91.5706 1463 L91.5706 1459.07 Z" fill="#000000" fill-rule="nonzero" fill-opacity="1" /><path clip-path="url(#clip290)" d="M120.922 1457.12 L125.807 1457.12 L125.807 1463 L120.922 1463 L120.922 1457.12 Z" fill="#000000" fill-rule="nonzero" fill-opacity="1" /><path clip-path="url(#clip290)" d="M145.992 1431.52 Q142.381 1431.52 140.552 1435.09 Q138.746 1438.63 138.746 1445.76 Q138.746 1452.86 140.552 1456.43 Q142.381 1459.97 145.992 1459.97 Q149.626 1459.97 151.431 1456.43 Q153.26 1452.86 153.26 1445.76 Q153.26 1438.63 151.431 1435.09 Q149.626 1431.52 145.992 1431.52 M145.992 1427.82 Q151.802 1427.82 154.857 1432.42 Q157.936 1437.01 157.936 1445.76 Q157.936 1454.48 154.857 1459.09 Q151.802 1463.67 145.992 1463.67 Q140.181 1463.67 137.103 1459.09 Q134.047 1454.48 134.047 1445.76 Q134.047 1437.01 137.103 1432.42 Q140.181 1427.82 145.992 1427.82 Z" fill="#000000" fill-rule="nonzero" fill-opacity="1" /><path clip-path="url(#clip290)" d="M51.9875 1106.74 L81.6633 1106.74 L81.6633 1110.67 L51.9875 1110.67 L51.9875 1106.74 Z" fill="#000000" fill-rule="nonzero" fill-opacity="1" /><path clip-path="url(#clip290)" d="M101.756 1092.08 Q98.1447 1092.08 96.316 1095.65 Q94.5104 1099.19 94.5104 1106.32 Q94.5104 1113.43 96.316 1116.99 Q98.1447 1120.53 101.756 1120.53 Q105.39 1120.53 107.196 1116.99 Q109.024 1113.43 109.024 1106.32 Q109.024 1099.19 107.196 1095.65 Q105.39 1092.08 101.756 1092.08 M101.756 1088.38 Q107.566 1088.38 110.621 1092.99 Q113.7 1097.57 113.7 1106.32 Q113.7 1115.05 110.621 1119.65 Q107.566 1124.24 101.756 1124.24 Q95.9456 1124.24 92.8669 1119.65 Q89.8114 1115.05 89.8114 1106.32 Q89.8114 1097.57 92.8669 1092.99 Q95.9456 1088.38 101.756 1088.38 Z" fill="#000000" fill-rule="nonzero" fill-opacity="1" /><path clip-path="url(#clip290)" d="M121.918 1117.69 L126.802 1117.69 L126.802 1123.57 L121.918 1123.57 L121.918 1117.69 Z" fill="#000000" fill-rule="nonzero" fill-opacity="1" /><path clip-path="url(#clip290)" d="M137.033 1089.01 L155.39 1089.01 L155.39 1092.94 L141.316 1092.94 L141.316 1101.41 Q142.334 1101.07 143.353 1100.9 Q144.371 1100.72 145.39 1100.72 Q151.177 1100.72 154.556 1103.89 Q157.936 1107.06 157.936 1112.48 Q157.936 1118.06 154.464 1121.16 Q150.992 1124.24 144.672 1124.24 Q142.496 1124.24 140.228 1123.87 Q137.982 1123.5 135.575 1122.76 L135.575 1118.06 Q137.658 1119.19 139.881 1119.75 Q142.103 1120.3 144.58 1120.3 Q148.584 1120.3 150.922 1118.2 Q153.26 1116.09 153.26 1112.48 Q153.26 1108.87 150.922 1106.76 Q148.584 1104.65 144.58 1104.65 Q142.705 1104.65 140.83 1105.07 Q138.978 1105.49 137.033 1106.37 L137.033 1089.01 Z" fill="#000000" fill-rule="nonzero" fill-opacity="1" /><path clip-path="url(#clip290)" d="M100.76 752.648 Q97.1493 752.648 95.3206 756.213 Q93.515 759.754 93.515 766.884 Q93.515 773.99 95.3206 777.555 Q97.1493 781.097 100.76 781.097 Q104.395 781.097 106.2 777.555 Q108.029 773.99 108.029 766.884 Q108.029 759.754 106.2 756.213 Q104.395 752.648 100.76 752.648 M100.76 748.944 Q106.571 748.944 109.626 753.551 Q112.705 758.134 112.705 766.884 Q112.705 775.611 109.626 780.217 Q106.571 784.8 100.76 784.8 Q94.9502 784.8 91.8715 780.217 Q88.816 775.611 88.816 766.884 Q88.816 758.134 91.8715 753.551 Q94.9502 748.944 100.76 748.944 Z" fill="#000000" fill-rule="nonzero" fill-opacity="1" /><path clip-path="url(#clip290)" d="M120.922 778.25 L125.807 778.25 L125.807 784.129 L120.922 784.129 L120.922 778.25 Z" fill="#000000" fill-rule="nonzero" fill-opacity="1" /><path clip-path="url(#clip290)" d="M145.992 752.648 Q142.381 752.648 140.552 756.213 Q138.746 759.754 138.746 766.884 Q138.746 773.99 140.552 777.555 Q142.381 781.097 145.992 781.097 Q149.626 781.097 151.431 777.555 Q153.26 773.99 153.26 766.884 Q153.26 759.754 151.431 756.213 Q149.626 752.648 145.992 752.648 M145.992 748.944 Q151.802 748.944 154.857 753.551 Q157.936 758.134 157.936 766.884 Q157.936 775.611 154.857 780.217 Q151.802 784.8 145.992 784.8 Q140.181 784.8 137.103 780.217 Q134.047 775.611 134.047 766.884 Q134.047 758.134 137.103 753.551 Q140.181 748.944 145.992 748.944 Z" fill="#000000" fill-rule="nonzero" fill-opacity="1" /><path clip-path="url(#clip290)" d="M101.756 413.211 Q98.1447 413.211 96.316 416.776 Q94.5104 420.318 94.5104 427.447 Q94.5104 434.554 96.316 438.119 Q98.1447 441.66 101.756 441.66 Q105.39 441.66 107.196 438.119 Q109.024 434.554 109.024 427.447 Q109.024 420.318 107.196 416.776 Q105.39 413.211 101.756 413.211 M101.756 409.508 Q107.566 409.508 110.621 414.114 Q113.7 418.697 113.7 427.447 Q113.7 436.174 110.621 440.781 Q107.566 445.364 101.756 445.364 Q95.9456 445.364 92.8669 440.781 Q89.8114 436.174 89.8114 427.447 Q89.8114 418.697 92.8669 414.114 Q95.9456 409.508 101.756 409.508 Z" fill="#000000" fill-rule="nonzero" fill-opacity="1" /><path clip-path="url(#clip290)" d="M121.918 438.813 L126.802 438.813 L126.802 444.693 L121.918 444.693 L121.918 438.813 Z" fill="#000000" fill-rule="nonzero" fill-opacity="1" /><path clip-path="url(#clip290)" d="M137.033 410.133 L155.39 410.133 L155.39 414.068 L141.316 414.068 L141.316 422.54 Q142.334 422.193 143.353 422.031 Q144.371 421.846 145.39 421.846 Q151.177 421.846 154.556 425.017 Q157.936 428.188 157.936 433.605 Q157.936 439.183 154.464 442.285 Q150.992 445.364 144.672 445.364 Q142.496 445.364 140.228 444.994 Q137.982 444.623 135.575 443.883 L135.575 439.183 Q137.658 440.318 139.881 440.873 Q142.103 441.429 144.58 441.429 Q148.584 441.429 150.922 439.322 Q153.26 437.216 153.26 433.605 Q153.26 429.994 150.922 427.887 Q148.584 425.781 144.58 425.781 Q142.705 425.781 140.83 426.197 Q138.978 426.614 137.033 427.494 L137.033 410.133 Z" fill="#000000" fill-rule="nonzero" fill-opacity="1" /><path clip-path="url(#clip290)" d="M91.5706 101.321 L99.2095 101.321 L99.2095 74.9555 L90.8993 76.6221 L90.8993 72.3629 L99.1632 70.6963 L103.839 70.6963 L103.839 101.321 L111.478 101.321 L111.478 105.256 L91.5706 105.256 L91.5706 101.321 Z" fill="#000000" fill-rule="nonzero" fill-opacity="1" /><path clip-path="url(#clip290)" d="M120.922 99.3767 L125.807 99.3767 L125.807 105.256 L120.922 105.256 L120.922 99.3767 Z" fill="#000000" fill-rule="nonzero" fill-opacity="1" /><path clip-path="url(#clip290)" d="M145.992 73.7749 Q142.381 73.7749 140.552 77.3397 Q138.746 80.8814 138.746 88.011 Q138.746 95.1174 140.552 98.6822 Q142.381 102.224 145.992 102.224 Q149.626 102.224 151.431 98.6822 Q153.26 95.1174 153.26 88.011 Q153.26 80.8814 151.431 77.3397 Q149.626 73.7749 145.992 73.7749 M145.992 70.0713 Q151.802 70.0713 154.857 74.6777 Q157.936 79.261 157.936 88.011 Q157.936 96.7378 154.857 101.344 Q151.802 105.928 145.992 105.928 Q140.181 105.928 137.103 101.344 Q134.047 96.7378 134.047 88.011 Q134.047 79.261 137.103 74.6777 Q140.181 70.0713 145.992 70.0713 Z" fill="#000000" fill-rule="nonzero" fill-opacity="1" /><path clip-path="url(#clip292)" d="M255.035 766.849 L260.291 766.808 L265.547 766.686 L270.804 766.483 L276.06 766.198 L306.846 762.895 L337.632 756.8 L368.418 747.915 L399.205 736.243 L427.848 722.889 L456.491 707.144 L475.688 695.264 L494.884 682.329 L514.081 668.351 L533.277 653.345 L565.001 626.345 L596.726 596.703 L626.226 566.901 L655.726 535.104 L692.76 492.673 L729.793 447.914 L763.012 406.299 L796.231 363.872 L834.254 315.162 L872.278 267.414 L900.701 233.151 L929.123 200.807 L947.3 181.441 L965.476 163.329 L983.653 146.668 L1001.83 131.659 L1018.42 119.579 L1035.01 109.21 L1051.6 100.714 L1068.19 94.2518 L1087.07 89.5765 L1105.95 87.9763 L1124.83 89.6755 L1143.71 94.8873 L1158.68 101.646 L1173.65 110.828 L1188.62 122.515 L1203.58 136.777 L1212.88 146.961 L1222.18 158.175 L1231.48 170.428 L1240.77 183.728 L1250.07 198.081 L1259.37 213.489 L1268.67 229.954 L1277.97 247.472 L1292.21 276.334 L1306.45 307.623 L1320.69 341.29 L1334.93 377.266 L1344.97 403.968 L1355.01 431.739 L1365.05 460.538 L1375.09 490.317 L1395.16 552.606 L1415.24 618.128 L1445.25 720.84 L1475.26 827.271 L1509.38 949.464 L1543.51 1068.62 L1560.4 1125 L1577.3 1178.82 L1585.75 1204.56 L1594.2 1229.43 L1602.65 1253.33 L1611.1 1276.19 L1620.39 1300.05 L1629.69 1322.44 L1638.98 1343.28 L1648.28 1362.45 L1657.57 1379.86 L1666.87 1395.43 L1676.17 1409.04 L1685.46 1420.64 L1692.56 1428.07 L1699.66 1434.25 L1706.76 1439.13 L1713.86 1442.68 L1720.96 1444.89 L1728.06 1445.72 L1735.16 1445.15 L1742.26 1443.16 L1751.22 1438.61 L1760.18 1431.75 L1769.14 1422.57 L1778.1 1411.05 L1787.06 1397.2 L1796.02 1381.03 L1804.98 1362.55 L1813.94 1341.8 L1822.23 1320.61 L1830.51 1297.55 L1838.8 1272.65 L1847.09 1245.99 L1855.37 1217.61 L1863.66 1187.58 L1871.95 1155.99 L1880.23 1122.92 L1888.78 1087.36 L1897.33 1050.44 L1905.87 1012.27 L1914.42 972.975 L1931.51 891.579 L1948.6 807.416 L1965.93 720.591 L1983.25 633.656 L2000.58 548.107 L2017.91 465.49 L2026.95 424.045 L2036 384.051 L2045.04 345.728 L2054.09 309.295 L2063.13 274.965 L2072.18 242.946 L2081.22 213.439 L2090.27 186.635 L2097.4 167.544 L2104.52 150.326 L2111.65 135.062 L2118.77 121.826 L2125.9 110.684 L2133.02 101.7 L2140.15 94.9279 L2147.27 90.4173 L2155.39 88.087 L2163.5 88.7909 L2171.62 92.5649 L2179.73 99.4308 L2187.84 109.396 L2195.96 122.453 L2204.07 138.58 L2212.18 157.738 L2220.3 179.872 L2228.41 204.913 L2236.52 232.774 L2244.64 263.354 L2252.75 296.533 L2260.86 332.178 L2268.98 370.138 L2277.09 410.25 L2280.73 428.903 L2284.37 447.937 L2288.02 467.333 L2291.66 487.073 L2291.66 766.849 L2288.02 766.849 L2284.37 766.849 L2280.73 766.849 L2277.09 766.849 L2268.98 766.849 L2260.86 766.849 L2252.75 766.849 L2244.64 766.849 L2236.52 766.849 L2228.41 766.849 L2220.3 766.849 L2212.18 766.849 L2204.07 766.849 L2195.96 766.849 L2187.84 766.849 L2179.73 766.849 L2171.62 766.849 L2163.5 766.849 L2155.39 766.849 L2147.27 766.849 L2140.15 766.849 L2133.02 766.849 L2125.9 766.849 L2118.77 766.849 L2111.65 766.849 L2104.52 766.849 L2097.4 766.849 L2090.27 766.849 L2081.22 766.849 L2072.18 766.849 L2063.13 766.849 L2054.09 766.849 L2045.04 766.849 L2036 766.849 L2026.95 766.849 L2017.91 766.849 L2000.58 766.849 L1983.25 766.849 L1965.93 766.849 L1948.6 766.849 L1931.51 766.849 L1914.42 766.849 L1905.87 766.849 L1897.33 766.849 L1888.78 766.849 L1880.23 766.849 L1871.95 766.849 L1863.66 766.849 L1855.37 766.849 L1847.09 766.849 L1838.8 766.849 L1830.51 766.849 L1822.23 766.849 L1813.94 766.849 L1804.98 766.849 L1796.02 766.849 L1787.06 766.849 L1778.1 766.849 L1769.14 766.849 L1760.18 766.849 L1751.22 766.849 L1742.26 766.849 L1735.16 766.849 L1728.06 766.849 L1720.96 766.849 L1713.86 766.849 L1706.76 766.849 L1699.66 766.849 L1692.56 766.849 L1685.46 766.849 L1676.17 766.849 L1666.87 766.849 L1657.57 766.849 L1648.28 766.849 L1638.98 766.849 L1629.69 766.849 L1620.39 766.849 L1611.1 766.849 L1602.65 766.849 L1594.2 766.849 L1585.75 766.849 L1577.3 766.849 L1560.4 766.849 L1543.51 766.849 L1509.38 766.849 L1475.26 766.849 L1445.25 766.849 L1415.24 766.849 L1395.16 766.849 L1375.09 766.849 L1365.05 766.849 L1355.01 766.849 L1344.97 766.849 L1334.93 766.849 L1320.69 766.849 L1306.45 766.849 L1292.21 766.849 L1277.97 766.849 L1268.67 766.849 L1259.37 766.849 L1250.07 766.849 L1240.77 766.849 L1231.48 766.849 L1222.18 766.849 L1212.88 766.849 L1203.58 766.849 L1188.62 766.849 L1173.65 766.849 L1158.68 766.849 L1143.71 766.849 L1124.83 766.849 L1105.95 766.849 L1087.07 766.849 L1068.19 766.849 L1051.6 766.849 L1035.01 766.849 L1018.42 766.849 L1001.83 766.849 L983.653 766.849 L965.476 766.849 L947.3 766.849 L929.123 766.849 L900.701 766.849 L872.278 766.849 L834.254 766.849 L796.231 766.849 L763.012 766.849 L729.793 766.849 L692.76 766.849 L655.726 766.849 L626.226 766.849 L596.726 766.849 L565.001 766.849 L533.277 766.849 L514.081 766.849 L494.884 766.849 L475.688 766.849 L456.491 766.849 L427.848 766.849 L399.205 766.849 L368.418 766.849 L337.632 766.849 L306.846 766.849 L276.06 766.849 L270.804 766.849 L265.547 766.849 L260.291 766.849 L255.035 766.849  Z" fill="#009af9" fill-rule="evenodd" fill-opacity="0.4"/>
<polyline clip-path="url(#clip292)" style="stroke:#009af9; stroke-linecap:round; stroke-linejoin:round; stroke-width:4; stroke-opacity:1; fill:none" points="255.035,766.849 260.291,766.808 265.547,766.686 270.804,766.483 276.06,766.198 306.846,762.895 337.632,756.8 368.418,747.915 399.205,736.243 427.848,722.889 456.491,707.144 475.688,695.264 494.884,682.329 514.081,668.351 533.277,653.345 565.001,626.345 596.726,596.703 626.226,566.901 655.726,535.104 692.76,492.673 729.793,447.914 763.012,406.299 796.231,363.872 834.254,315.162 872.278,267.414 900.701,233.151 929.123,200.807 947.3,181.441 965.476,163.329 983.653,146.668 1001.83,131.659 1018.42,119.579 1035.01,109.21 1051.6,100.714 1068.19,94.2518 1087.07,89.5765 1105.95,87.9763 1124.83,89.6755 1143.71,94.8873 1158.68,101.646 1173.65,110.828 1188.62,122.515 1203.58,136.777 1212.88,146.961 1222.18,158.175 1231.48,170.428 1240.77,183.728 1250.07,198.081 1259.37,213.489 1268.67,229.954 1277.97,247.472 1292.21,276.334 1306.45,307.623 1320.69,341.29 1334.93,377.266 1344.97,403.968 1355.01,431.739 1365.05,460.538 1375.09,490.317 1395.16,552.606 1415.24,618.128 1445.25,720.84 1475.26,827.271 1509.38,949.464 1543.51,1068.62 1560.4,1125 1577.3,1178.82 1585.75,1204.56 1594.2,1229.43 1602.65,1253.33 1611.1,1276.19 1620.39,1300.05 1629.69,1322.44 1638.98,1343.28 1648.28,1362.45 1657.57,1379.86 1666.87,1395.43 1676.17,1409.04 1685.46,1420.64 1692.56,1428.07 1699.66,1434.25 1706.76,1439.13 1713.86,1442.68 1720.96,1444.89 1728.06,1445.72 1735.16,1445.15 1742.26,1443.16 1751.22,1438.61 1760.18,1431.75 1769.14,1422.57 1778.1,1411.05 1787.06,1397.2 1796.02,1381.03 1804.98,1362.55 1813.94,1341.8 1822.23,1320.61 1830.51,1297.55 1838.8,1272.65 1847.09,1245.99 1855.37,1217.61 1863.66,1187.58 1871.95,1155.99 1880.23,1122.92 1888.78,1087.36 1897.33,1050.44 1905.87,1012.27 1914.42,972.975 1931.51,891.579 1948.6,807.416 1965.93,720.591 1983.25,633.656 2000.58,548.107 2017.91,465.49 2026.95,424.045 2036,384.051 2045.04,345.728 2054.09,309.295 2063.13,274.965 2072.18,242.946 2081.22,213.439 2090.27,186.635 2097.4,167.544 2104.52,150.326 2111.65,135.062 2118.77,121.826 2125.9,110.684 2133.02,101.7 2140.15,94.9279 2147.27,90.4173 2155.39,88.087 2163.5,88.7909 2171.62,92.5649 2179.73,99.4308 2187.84,109.396 2195.96,122.453 2204.07,138.58 2212.18,157.738 2220.3,179.872 2228.41,204.913 2236.52,232.774 2244.64,263.354 2252.75,296.533 2260.86,332.178 2268.98,370.138 2277.09,410.25 2280.73,428.903 2284.37,447.937 2288.02,467.333 2291.66,487.073 "/>
<path clip-path="url(#clip290)" d="M265.897 381.742 L729.856 381.742 L729.856 95.2176 L265.897 95.2176  Z" fill="#ffffff" fill-rule="evenodd" fill-opacity="1"/>
<polyline clip-path="url(#clip290)" style="stroke:#000000; stroke-linecap:round; stroke-linejoin:round; stroke-width:4; stroke-opacity:1; fill:none" points="265.897,381.742 729.856,381.742 729.856,95.2176 265.897,95.2176 265.897,381.742 "/>
<path clip-path="url(#clip290)" d="M289.884 295.785 L433.805 295.785 L433.805 181.175 L289.884 181.175 L289.884 295.785  Z" fill="#009af9" fill-rule="evenodd" fill-opacity="0.4"/>
<polyline clip-path="url(#clip290)" style="stroke:#009af9; stroke-linecap:round; stroke-linejoin:round; stroke-width:4; stroke-opacity:1; fill:none" points="289.884,181.175 433.805,181.175 "/>
<path clip-path="url(#clip290)" d="M492.809 210.119 Q492.809 211.378 492.048 212.051 Q491.287 212.695 490.291 212.695 Q489.325 212.695 488.564 212.051 Q487.832 211.378 487.832 210.177 Q487.832 209.357 488.359 208.625 Q488.886 207.864 490.057 207.718 Q488.593 206.459 486.28 206.459 Q485.138 206.459 484.348 206.898 Q483.586 207.308 482.825 208.567 Q482.064 209.826 481.537 212.402 Q481.039 214.979 480.717 218.99 L479.575 233.922 Q479.224 238.987 477.965 248.941 Q476.735 258.867 476.15 261.15 Q475.623 263.317 474.832 265.103 Q474.042 266.889 472.871 268.441 Q471.7 270.022 470.001 270.9 Q468.303 271.778 466.254 271.778 Q463.531 271.778 461.599 270.344 Q459.666 268.938 459.666 266.801 Q459.666 265.542 460.428 264.869 Q461.189 264.224 462.184 264.224 Q463.15 264.224 463.882 264.869 Q464.644 265.542 464.644 266.742 Q464.644 267.562 464.117 268.294 Q463.59 269.055 462.418 269.202 Q463.882 270.461 466.254 270.461 Q468.069 270.461 469.269 269.407 Q470.47 268.353 471.348 265.542 Q472.227 262.731 472.607 257.93 L473.749 242.998 Q474.13 237.728 475.359 227.92 Q476.618 218.112 477.175 215.535 Q479.517 205.141 486.221 205.141 Q488.944 205.141 490.877 206.576 Q492.809 207.981 492.809 210.119 Z" fill="#000000" fill-rule="nonzero" fill-opacity="1" /><path clip-path="url(#clip290)" d="M465.766 298.639 Q465.766 293.704 467.012 291.015 Q468.75 287.014 472.849 287.014 Q473.718 287.014 474.62 287.26 Q475.538 287.49 476.685 288.391 Q477.849 289.293 478.555 290.769 Q479.899 293.622 479.899 298.639 Q479.899 303.541 478.653 306.214 Q476.833 310.116 472.816 310.116 Q471.308 310.116 469.766 309.345 Q468.242 308.575 467.274 306.722 Q465.766 303.951 465.766 298.639 M468.553 298.229 Q468.553 303.295 468.914 305.312 Q469.324 307.492 470.439 308.443 Q471.57 309.378 472.816 309.378 Q474.16 309.378 475.275 308.378 Q476.407 307.361 476.751 305.181 Q477.128 303.033 477.112 298.229 Q477.112 293.556 476.784 291.687 Q476.341 289.506 475.161 288.637 Q473.996 287.752 472.816 287.752 Q472.373 287.752 471.898 287.883 Q471.439 288.014 470.767 288.391 Q470.094 288.768 469.57 289.703 Q469.061 290.638 468.815 292.048 Q468.553 293.868 468.553 298.229 Z" fill="#000000" fill-rule="nonzero" fill-opacity="1" /><path clip-path="url(#clip290)" d="M465.864 184.472 Q465.864 183.472 466.438 182.996 Q467.012 182.521 467.75 182.521 Q468.52 182.521 469.061 183.029 Q469.619 183.521 469.619 184.39 Q469.619 185.324 468.963 185.849 Q468.324 186.374 467.405 186.243 Q468.209 187.587 469.684 188.194 Q471.176 188.8 472.554 188.8 Q473.997 188.8 475.161 187.554 Q476.341 186.308 476.341 183.259 Q476.341 180.668 475.325 179.176 Q474.324 177.684 472.341 177.684 L470.865 177.684 Q470.357 177.684 470.209 177.635 Q470.062 177.586 470.062 177.307 Q470.062 176.979 470.57 176.913 Q471.078 176.913 471.882 176.815 Q473.833 176.749 474.866 175.061 Q475.8 173.487 475.8 171.24 Q475.8 169.191 474.816 168.338 Q473.849 167.469 472.587 167.469 Q471.406 167.469 470.111 167.961 Q468.816 168.453 468.11 169.552 Q470.193 169.552 470.193 171.24 Q470.193 171.978 469.717 172.47 Q469.258 172.946 468.488 172.946 Q467.75 172.946 467.258 172.487 Q466.766 172.011 466.766 171.208 Q466.766 169.289 468.471 167.961 Q470.193 166.633 472.718 166.633 Q475.21 166.633 477.046 167.945 Q478.899 169.257 478.899 171.273 Q478.899 173.257 477.587 174.88 Q476.276 176.504 474.193 177.176 Q476.751 177.684 478.276 179.422 Q479.801 181.144 479.801 183.259 Q479.801 185.882 477.735 187.817 Q475.669 189.735 472.652 189.735 Q469.865 189.735 467.865 188.226 Q465.864 186.718 465.864 184.472 Z" fill="#000000" fill-rule="nonzero" fill-opacity="1" /><path clip-path="url(#clip290)" d="M508.436 252.788 L508.436 246.464 Q508.436 245.926 508.46 245.738 Q508.483 245.551 508.624 245.41 Q508.764 245.27 509.045 245.27 Q509.373 245.27 509.49 245.41 Q509.631 245.551 509.725 246.09 Q510.451 249.392 511.997 251.149 Q513.566 252.882 516.4 252.882 Q519.094 252.882 520.452 251.688 Q521.811 250.493 521.811 248.526 Q521.811 245.012 516.822 244.122 Q513.941 243.537 512.746 243.162 Q511.552 242.764 510.498 241.897 Q508.436 240.211 508.436 237.822 Q508.436 235.432 510.24 233.676 Q512.067 231.919 516.096 231.919 Q518.789 231.919 520.616 233.278 Q521.155 232.856 521.436 232.505 Q522.068 231.919 522.396 231.919 Q522.771 231.919 522.841 232.177 Q522.912 232.411 522.912 233.09 L522.912 237.915 Q522.912 238.454 522.888 238.641 Q522.865 238.829 522.724 238.969 Q522.584 239.086 522.279 239.086 Q521.74 239.086 521.717 238.641 Q521.342 232.833 516.096 232.833 Q513.261 232.833 511.997 233.933 Q510.732 235.011 510.732 236.486 Q510.732 237.306 511.107 237.939 Q511.505 238.548 511.997 238.922 Q512.512 239.274 513.449 239.625 Q514.386 239.953 514.948 240.07 Q515.533 240.187 516.634 240.421 Q520.476 241.148 522.092 242.717 Q524.106 244.731 524.106 247.284 Q524.106 250.118 522.185 252.039 Q520.265 253.96 516.4 253.96 Q513.285 253.96 511.107 251.875 Q510.826 252.156 510.615 252.414 Q510.404 252.648 510.31 252.742 Q510.24 252.835 510.217 252.906 Q510.193 252.952 510.146 252.999 Q509.186 253.96 508.952 253.96 Q508.577 253.96 508.507 253.702 Q508.436 253.468 508.436 252.788 Z" fill="#000000" fill-rule="nonzero" fill-opacity="1" /><path clip-path="url(#clip290)" d="M525.978 253.421 L525.978 251.945 Q528.531 251.945 529.117 251.641 Q529.702 251.313 529.702 249.767 L529.702 236.861 Q529.702 235.081 529.093 234.659 Q528.508 234.238 526.166 234.238 L526.166 232.739 L532.864 232.224 L532.864 249.814 Q532.864 251.243 533.38 251.594 Q533.895 251.945 536.237 251.945 L536.237 253.421 Q531.342 253.28 531.248 253.28 Q530.593 253.28 525.978 253.421 M527.993 223.862 Q527.993 222.901 528.719 222.128 Q529.468 221.332 530.522 221.332 Q531.576 221.332 532.326 222.058 Q533.075 222.761 533.075 223.885 Q533.075 224.986 532.326 225.712 Q531.576 226.415 530.522 226.415 Q529.421 226.415 528.695 225.642 Q527.993 224.869 527.993 223.862 Z" fill="#000000" fill-rule="nonzero" fill-opacity="1" /><path clip-path="url(#clip290)" d="M539.513 253.421 L539.513 251.945 Q542.066 251.945 542.652 251.641 Q543.237 251.313 543.237 249.767 L543.237 236.908 Q543.237 235.128 542.605 234.683 Q541.996 234.238 539.513 234.238 L539.513 232.739 L546.259 232.224 L546.259 237.259 Q548.507 232.224 553.356 232.224 Q556.963 232.224 558.391 234.004 Q559.445 235.198 559.656 236.533 Q559.89 237.868 559.89 241.335 L559.89 250.493 Q559.937 251.5 560.71 251.734 Q561.483 251.945 563.638 251.945 L563.638 253.421 Q558.743 253.28 558.251 253.28 Q557.876 253.28 552.84 253.421 L552.84 251.945 Q555.393 251.945 555.979 251.641 Q556.588 251.313 556.588 249.767 L556.588 238.594 Q556.588 236.159 555.838 234.73 Q555.089 233.278 553.028 233.278 Q550.545 233.278 548.554 235.362 Q546.563 237.447 546.563 240.96 L546.563 249.767 Q546.563 251.313 547.149 251.641 Q547.758 251.945 550.287 251.945 L550.287 253.421 Q545.392 253.28 544.924 253.28 Q544.549 253.28 539.513 253.421 Z" fill="#000000" fill-rule="nonzero" fill-opacity="1" /><path clip-path="url(#clip290)" d="M571.563 241.429 Q571.563 233.324 574.584 226.79 Q575.872 224.049 577.676 221.754 Q579.479 219.458 580.674 218.451 Q581.868 217.444 582.196 217.444 Q582.665 217.444 582.688 217.912 Q582.688 218.147 582.056 218.732 Q574.326 226.602 574.35 241.429 Q574.35 256.302 581.868 263.867 Q582.688 264.687 582.688 264.945 Q582.688 265.413 582.196 265.413 Q581.868 265.413 580.721 264.453 Q579.573 263.493 577.793 261.291 Q576.013 259.089 574.725 256.396 Q571.563 249.861 571.563 241.429 Z" fill="#000000" fill-rule="nonzero" fill-opacity="1" /><path clip-path="url(#clip290)" d="M613.869 235.386 Q613.869 236.697 613.049 237.447 Q612.229 238.173 611.293 238.173 Q610.402 238.173 609.934 237.658 Q609.466 237.142 609.466 236.486 Q609.466 235.596 610.121 234.823 Q610.777 234.051 611.761 233.887 Q610.801 233.278 609.372 233.278 Q608.435 233.278 607.615 233.769 Q606.819 234.261 606.327 234.894 Q605.859 235.526 605.437 236.44 Q605.039 237.33 604.875 237.868 Q604.734 238.384 604.617 238.946 L602.978 245.504 Q602.181 248.619 602.181 249.72 Q602.181 251.079 602.837 251.992 Q603.493 252.882 604.805 252.882 Q605.32 252.882 605.905 252.742 Q606.491 252.578 607.24 252.156 Q608.013 251.711 608.693 251.055 Q609.395 250.376 610.075 249.228 Q610.754 248.081 611.199 246.605 Q611.339 246.09 611.808 246.09 Q612.393 246.09 612.393 246.558 Q612.393 246.956 612.065 247.799 Q611.761 248.619 611.082 249.697 Q610.426 250.751 609.559 251.711 Q608.693 252.648 607.404 253.304 Q606.116 253.96 604.711 253.96 Q602.697 253.96 601.361 252.882 Q600.026 251.805 599.534 250.306 Q599.417 250.516 599.253 250.798 Q599.089 251.079 598.598 251.711 Q598.129 252.32 597.59 252.788 Q597.052 253.233 596.208 253.585 Q595.389 253.96 594.499 253.96 Q593.374 253.96 592.367 253.632 Q591.383 253.304 590.681 252.554 Q589.978 251.805 589.978 250.774 Q589.978 249.626 590.751 248.83 Q591.547 248.01 592.625 248.01 Q593.304 248.01 593.843 248.408 Q594.405 248.807 594.405 249.673 Q594.405 250.634 593.749 251.36 Q593.093 252.086 592.156 252.273 Q593.117 252.882 594.545 252.882 Q596.091 252.882 597.309 251.524 Q598.527 250.165 599.113 247.893 Q600.565 242.436 601.127 240 Q601.689 237.54 601.689 236.486 Q601.689 235.503 601.432 234.823 Q601.174 234.144 600.729 233.84 Q600.307 233.512 599.909 233.395 Q599.534 233.278 599.113 233.278 Q598.41 233.278 597.614 233.559 Q596.841 233.84 595.904 234.496 Q594.991 235.128 594.124 236.44 Q593.257 237.751 592.672 239.555 Q592.555 240.094 592.039 240.094 Q591.477 240.07 591.477 239.602 Q591.477 239.203 591.782 238.384 Q592.11 237.54 592.765 236.486 Q593.445 235.432 594.311 234.496 Q595.201 233.535 596.49 232.879 Q597.801 232.224 599.207 232.224 Q599.839 232.224 600.448 232.364 Q601.08 232.481 601.83 232.833 Q602.603 233.184 603.282 233.957 Q603.961 234.73 604.383 235.854 Q604.664 235.315 605.039 234.8 Q605.437 234.285 606.046 233.652 Q606.678 232.997 607.545 232.622 Q608.435 232.224 609.419 232.224 Q610.379 232.224 611.316 232.481 Q612.253 232.715 613.049 233.488 Q613.869 234.238 613.869 235.386 Z" fill="#000000" fill-rule="nonzero" fill-opacity="1" /><path clip-path="url(#clip290)" d="M618.754 239.081 Q618.754 238.474 618.804 238.294 Q618.869 238.114 619.131 237.835 L625.575 230.654 Q629.1 226.686 629.1 223.226 Q629.1 220.98 627.92 219.373 Q626.755 217.767 624.608 217.767 Q623.132 217.767 621.886 218.668 Q620.64 219.57 620.066 221.177 Q620.164 221.144 620.509 221.144 Q621.345 221.144 621.804 221.669 Q622.279 222.193 622.279 222.898 Q622.279 223.8 621.689 224.243 Q621.115 224.669 620.541 224.669 Q620.312 224.669 620 224.62 Q619.705 224.571 619.23 224.112 Q618.754 223.636 618.754 222.8 Q618.754 220.456 620.525 218.586 Q622.312 216.717 625.034 216.717 Q628.116 216.717 630.133 218.554 Q632.166 220.374 632.166 223.226 Q632.166 224.227 631.855 225.145 Q631.559 226.046 631.15 226.751 Q630.756 227.456 629.674 228.588 Q628.592 229.719 627.723 230.522 Q626.854 231.326 624.903 233.031 L621.345 236.491 L627.395 236.491 Q630.346 236.491 630.576 236.228 Q630.904 235.753 631.313 233.244 L632.166 233.244 L631.215 239.081 L618.754 239.081 Z" fill="#000000" fill-rule="nonzero" fill-opacity="1" /><path clip-path="url(#clip290)" d="M637.152 264.945 Q637.152 264.71 637.761 264.125 Q645.491 256.255 645.491 241.429 Q645.491 226.555 638.066 219.037 Q637.152 218.17 637.152 217.912 Q637.152 217.444 637.621 217.444 Q637.949 217.444 639.097 218.404 Q640.268 219.365 642.024 221.566 Q643.804 223.768 645.116 226.462 Q648.278 232.997 648.278 241.429 Q648.278 249.533 645.257 256.068 Q643.968 258.808 642.165 261.103 Q640.361 263.399 639.167 264.406 Q637.972 265.413 637.621 265.413 Q637.152 265.413 637.152 264.945 Z" fill="#000000" fill-rule="nonzero" fill-opacity="1" /><path clip-path="url(#clip290)" d="M677.637 220.653 L670.727 248.385 Q670.446 249.626 670.446 250.68 Q670.446 252.882 671.875 252.882 Q672.578 252.882 673.14 252.437 Q673.702 251.992 674.147 251.055 Q674.592 250.118 674.873 249.252 Q675.154 248.362 675.529 246.956 Q675.646 246.394 675.74 246.254 Q675.857 246.09 676.185 246.09 Q676.77 246.09 676.77 246.558 Q676.138 249.58 675.318 251.313 Q674.006 253.96 671.781 253.96 Q670.095 253.96 668.9 252.929 Q667.706 251.898 667.425 250.353 Q664.356 253.96 661.171 253.96 Q658.36 253.96 656.58 251.828 Q654.8 249.673 654.8 246.277 Q654.8 242.857 656.486 239.578 Q658.196 236.299 660.89 234.261 Q663.583 232.224 666.347 232.224 Q669.275 232.224 670.774 235.292 L673.655 223.909 L673.796 222.972 Q673.796 222.691 673.679 222.55 Q673.585 222.386 673.023 222.269 Q672.484 222.152 671.407 222.152 Q670.962 222.152 670.751 222.128 Q670.563 222.105 670.399 221.988 Q670.235 221.847 670.235 221.566 Q670.235 220.747 670.915 220.653 Q675.412 220.138 677.004 220.138 Q677.286 220.138 677.45 220.278 Q677.613 220.395 677.613 220.536 L677.637 220.653 M670.189 237.494 Q670.189 237.283 670.025 236.697 Q669.861 236.112 669.486 235.292 Q669.111 234.472 668.291 233.887 Q667.495 233.278 666.418 233.278 Q664.965 233.278 663.443 234.519 Q661.944 235.76 660.843 237.868 Q660 239.555 659.086 243.092 Q658.196 246.628 658.196 248.385 Q658.196 249.462 658.43 250.423 Q658.688 251.36 659.414 252.133 Q660.14 252.882 661.265 252.882 Q664.005 252.882 666.699 249.486 Q667.214 248.9 667.331 248.666 Q667.472 248.408 667.659 247.706 L670.048 238.313 Q670.189 237.611 670.189 237.494 Z" fill="#000000" fill-rule="nonzero" fill-opacity="1" /><path clip-path="url(#clip290)" d="M702.601 235.386 Q702.601 236.697 701.781 237.447 Q700.961 238.173 700.024 238.173 Q699.134 238.173 698.666 237.658 Q698.197 237.142 698.197 236.486 Q698.197 235.596 698.853 234.823 Q699.509 234.051 700.493 233.887 Q699.532 233.278 698.104 233.278 Q697.167 233.278 696.347 233.769 Q695.55 234.261 695.059 234.894 Q694.59 235.526 694.169 236.44 Q693.77 237.33 693.606 237.868 Q693.466 238.384 693.349 238.946 L691.709 245.504 Q690.913 248.619 690.913 249.72 Q690.913 251.079 691.569 251.992 Q692.225 252.882 693.536 252.882 Q694.051 252.882 694.637 252.742 Q695.223 252.578 695.972 252.156 Q696.745 251.711 697.424 251.055 Q698.127 250.376 698.806 249.228 Q699.485 248.081 699.93 246.605 Q700.071 246.09 700.539 246.09 Q701.125 246.09 701.125 246.558 Q701.125 246.956 700.797 247.799 Q700.493 248.619 699.813 249.697 Q699.158 250.751 698.291 251.711 Q697.424 252.648 696.136 253.304 Q694.848 253.96 693.442 253.96 Q691.428 253.96 690.093 252.882 Q688.758 251.805 688.266 250.306 Q688.149 250.516 687.985 250.798 Q687.821 251.079 687.329 251.711 Q686.861 252.32 686.322 252.788 Q685.783 253.233 684.94 253.585 Q684.12 253.96 683.23 253.96 Q682.106 253.96 681.099 253.632 Q680.115 253.304 679.412 252.554 Q678.71 251.805 678.71 250.774 Q678.71 249.626 679.483 248.83 Q680.279 248.01 681.356 248.01 Q682.036 248.01 682.574 248.408 Q683.137 248.807 683.137 249.673 Q683.137 250.634 682.481 251.36 Q681.825 252.086 680.888 252.273 Q681.848 252.882 683.277 252.882 Q684.823 252.882 686.041 251.524 Q687.259 250.165 687.845 247.893 Q689.297 242.436 689.859 240 Q690.421 237.54 690.421 236.486 Q690.421 235.503 690.163 234.823 Q689.906 234.144 689.461 233.84 Q689.039 233.512 688.641 233.395 Q688.266 233.278 687.845 233.278 Q687.142 233.278 686.345 233.559 Q685.573 233.84 684.636 234.496 Q683.722 235.128 682.856 236.44 Q681.989 237.751 681.403 239.555 Q681.286 240.094 680.771 240.094 Q680.209 240.07 680.209 239.602 Q680.209 239.203 680.513 238.384 Q680.841 237.54 681.497 236.486 Q682.176 235.432 683.043 234.496 Q683.933 233.535 685.221 232.879 Q686.533 232.224 687.938 232.224 Q688.571 232.224 689.18 232.364 Q689.812 232.481 690.562 232.833 Q691.334 233.184 692.014 233.957 Q692.693 234.73 693.115 235.854 Q693.396 235.315 693.77 234.8 Q694.169 234.285 694.778 233.652 Q695.41 232.997 696.277 232.622 Q697.167 232.224 698.15 232.224 Q699.111 232.224 700.048 232.481 Q700.984 232.715 701.781 233.488 Q702.601 234.238 702.601 235.386 Z" fill="#000000" fill-rule="nonzero" fill-opacity="1" /></svg>
