<?xml version="1.0" encoding="utf-8"?>
<svg xmlns="http://www.w3.org/2000/svg" xmlns:xlink="http://www.w3.org/1999/xlink" width="600" height="400" viewBox="0 0 2400 1600">
<defs>
  <clipPath id="clip740">
    <rect x="0" y="0" width="2400" height="1600"/>
  </clipPath>
</defs>
<path clip-path="url(#clip740)" d="M0 1600 L2400 1600 L2400 0 L0 0  Z" fill="#ffffff" fill-rule="evenodd" fill-opacity="1"/>
<defs>
  <clipPath id="clip741">
    <rect x="480" y="0" width="1681" height="1600"/>
  </clipPath>
</defs>
<path clip-path="url(#clip740)" d="M186.274 1552.76 L2352.76 1552.76 L2352.76 47.2441 L186.274 47.2441  Z" fill="#ffffff" fill-rule="evenodd" fill-opacity="1"/>
<defs>
  <clipPath id="clip742">
    <rect x="186" y="47" width="2167" height="1507"/>
  </clipPath>
</defs>
<polyline clip-path="url(#clip742)" style="stroke:#000000; stroke-linecap:round; stroke-linejoin:round; stroke-width:2; stroke-opacity:0.1; fill:none" points="186.274,1510.15 2352.76,1510.15 "/>
<polyline clip-path="url(#clip742)" style="stroke:#000000; stroke-linecap:round; stroke-linejoin:round; stroke-width:2; stroke-opacity:0.1; fill:none" points="186.274,1154.18 2352.76,1154.18 "/>
<polyline clip-path="url(#clip742)" style="stroke:#000000; stroke-linecap:round; stroke-linejoin:round; stroke-width:2; stroke-opacity:0.1; fill:none" points="186.274,798.217 2352.76,798.217 "/>
<polyline clip-path="url(#clip742)" style="stroke:#000000; stroke-linecap:round; stroke-linejoin:round; stroke-width:2; stroke-opacity:0.1; fill:none" points="186.274,442.251 2352.76,442.251 "/>
<polyline clip-path="url(#clip742)" style="stroke:#000000; stroke-linecap:round; stroke-linejoin:round; stroke-width:2; stroke-opacity:0.1; fill:none" points="186.274,86.2861 2352.76,86.2861 "/>
<polyline clip-path="url(#clip740)" style="stroke:#000000; stroke-linecap:round; stroke-linejoin:round; stroke-width:4; stroke-opacity:1; fill:none" points="186.274,1510.15 2352.76,1510.15 "/>
<path clip-path="url(#clip742)" d="M592.489 827.512 L606.468 814.648 L688.341 740.841 L726.428 707.448 L777.479 663.69 L819.663 628.437 L858.89 596.422 L908.133 557.322 L952.304 523.319 L1002.86 485.689 L1040.66 458.491 L1089 424.9 L1133.12 395.448 L1183.33 363.37 L1223.13 339.059 L1272.59 310.268 L1310.46 289.298 L1363.85 261.36 L1403.75 241.748 L1449.13 220.784 L1494.07 201.449 L1543.51 181.843 L1581.27 168.059 L1628.93 152.156 L1673 138.944 L1718.46 126.84 L1764.54 116.162 L1788.59 111.227 L1812.65 106.734 L1831.6 103.507 L1850.55 100.555 L1893.7 94.8635 L1936.86 90.6095 L1941.7 90.2222 L1946.54 89.8529 L1946.54 1510.15 L1941.7 1510.15 L1936.86 1510.15 L1893.7 1510.15 L1850.55 1510.15 L1831.6 1510.15 L1812.65 1510.15 L1788.59 1510.15 L1764.54 1510.15 L1718.46 1510.15 L1673 1510.15 L1628.93 1510.15 L1581.27 1510.15 L1543.51 1510.15 L1494.07 1510.15 L1449.13 1510.15 L1403.75 1510.15 L1363.85 1510.15 L1310.46 1510.15 L1272.59 1510.15 L1223.13 1510.15 L1183.33 1510.15 L1133.12 1510.15 L1089 1510.15 L1040.66 1510.15 L1002.86 1510.15 L952.304 1510.15 L908.133 1510.15 L858.89 1510.15 L819.663 1510.15 L777.479 1510.15 L726.428 1510.15 L688.341 1510.15 L606.468 1510.15 L592.489 1510.15  Z" fill="#009af9" fill-rule="evenodd" fill-opacity="0.1"/>
<polyline clip-path="url(#clip742)" style="stroke:#009af9; stroke-linecap:round; stroke-linejoin:round; stroke-width:4; stroke-opacity:1; fill:none" points="592.489,827.512 606.468,814.648 688.341,740.841 726.428,707.448 777.479,663.69 819.663,628.437 858.89,596.422 908.133,557.322 952.304,523.319 1002.86,485.689 1040.66,458.491 1089,424.9 1133.12,395.448 1183.33,363.37 1223.13,339.059 1272.59,310.268 1310.46,289.298 1363.85,261.36 1403.75,241.748 1449.13,220.784 1494.07,201.449 1543.51,181.843 1581.27,168.059 1628.93,152.156 1673,138.944 1718.46,126.84 1764.54,116.162 1788.59,111.227 1812.65,106.734 1831.6,103.507 1850.55,100.555 1893.7,94.8635 1936.86,90.6095 1941.7,90.2222 1946.54,89.8529 "/>
<path clip-path="url(#clip742)" d="M592.489 827.512 L1946.54 89.8529 L1946.54 1510.15 L592.489 1510.15  Z" fill="#00a9ad" fill-rule="evenodd" fill-opacity="1"/>
<polyline clip-path="url(#clip742)" style="stroke:#000000; stroke-linecap:round; stroke-linejoin:round; stroke-width:4; stroke-opacity:1; fill:none" points="592.489,827.512 1946.54,89.8529 "/>
<polyline clip-path="url(#clip742)" style="stroke:#000000; stroke-linecap:round; stroke-linejoin:round; stroke-width:4; stroke-opacity:1; fill:none" points="592.489,1510.15 592.489,827.512 "/>
<polyline clip-path="url(#clip742)" style="stroke:#000000; stroke-linecap:round; stroke-linejoin:round; stroke-width:4; stroke-opacity:1; fill:none" points="1946.54,1510.15 1946.54,89.8529 "/>
<polyline clip-path="url(#clip742)" style="stroke:#000000; stroke-linecap:round; stroke-linejoin:round; stroke-width:4; stroke-opacity:1; fill:none" points="592.489,1510.15 1946.54,1510.15 "/>
<path clip-path="url(#clip740)" d="M258.49 497.388 L877.798 497.388 L877.798 97.4278 L258.49 97.4278  Z" fill="#ffffff" fill-rule="evenodd" fill-opacity="1"/>
<polyline clip-path="url(#clip740)" style="stroke:#000000; stroke-linecap:round; stroke-linejoin:round; stroke-width:4; stroke-opacity:1; fill:none" points="258.49,497.388 877.798,497.388 877.798,97.4278 258.49,97.4278 258.49,497.388 "/>
<path clip-path="url(#clip740)" d="M282.562 284.076 L426.994 284.076 L426.994 177.42 L282.562 177.42 L282.562 284.076  Z" fill="#009af9" fill-rule="evenodd" fill-opacity="0.1"/>
<polyline clip-path="url(#clip740)" style="stroke:#009af9; stroke-linecap:round; stroke-linejoin:round; stroke-width:4; stroke-opacity:1; fill:none" points="282.562,177.42 426.994,177.42 "/>
<path clip-path="url(#clip740)" d="M486.701 208.966 Q486.701 210.225 485.94 210.898 Q485.179 211.542 484.184 211.542 Q483.217 211.542 482.456 210.898 Q481.724 210.225 481.724 209.024 Q481.724 208.204 482.251 207.472 Q482.778 206.711 483.949 206.565 Q482.485 205.306 480.172 205.306 Q479.031 205.306 478.24 205.745 Q477.479 206.155 476.718 207.414 Q475.956 208.673 475.429 211.249 Q474.932 213.826 474.61 217.837 L473.468 232.769 Q473.116 237.834 471.858 247.788 Q470.628 257.714 470.042 259.997 Q469.515 262.164 468.725 263.95 Q467.934 265.736 466.763 267.288 Q465.592 268.869 463.894 269.747 Q462.196 270.625 460.146 270.625 Q457.423 270.625 455.491 269.191 Q453.559 267.785 453.559 265.648 Q453.559 264.389 454.32 263.716 Q455.081 263.071 456.077 263.071 Q457.043 263.071 457.775 263.716 Q458.536 264.389 458.536 265.589 Q458.536 266.409 458.009 267.141 Q457.482 267.902 456.311 268.049 Q457.775 269.308 460.146 269.308 Q461.962 269.308 463.162 268.254 Q464.362 267.2 465.241 264.389 Q466.119 261.578 466.5 256.777 L467.641 241.845 Q468.022 236.575 469.252 226.767 Q470.511 216.959 471.067 214.382 Q473.409 203.988 480.114 203.988 Q482.837 203.988 484.769 205.423 Q486.701 206.828 486.701 208.966 Z" fill="#000000" fill-rule="nonzero" fill-opacity="1" /><path clip-path="url(#clip740)" d="M474.419 292.232 Q473.977 294.347 473.403 295.56 Q472.485 297.413 470.927 297.413 Q469.747 297.413 468.911 296.692 Q468.074 295.97 467.878 294.888 Q465.73 297.413 463.5 297.413 Q461.532 297.413 460.286 295.921 Q459.04 294.413 459.04 292.035 Q459.04 289.641 460.221 287.346 Q461.418 285.051 463.303 283.624 Q465.189 282.198 467.123 282.198 Q469.173 282.198 470.222 284.346 Q470.304 283.755 470.681 283.313 Q471.058 282.87 471.632 282.87 Q472.075 282.87 472.337 283.116 Q472.6 283.345 472.6 283.772 Q472.6 283.985 472.37 284.919 L471.157 289.609 L470.419 292.642 Q470.14 293.757 470.058 294.167 Q469.993 294.576 469.993 295.118 Q469.993 296.659 470.993 296.659 Q471.485 296.659 471.878 296.347 Q472.272 296.036 472.583 295.38 Q472.895 294.724 473.091 294.117 Q473.288 293.494 473.551 292.511 Q473.633 292.117 473.698 292.019 Q473.78 291.904 474.01 291.904 Q474.419 291.904 474.419 292.232 M469.812 285.887 Q469.812 285.739 469.698 285.329 Q469.583 284.919 469.32 284.346 Q469.058 283.772 468.484 283.362 Q467.927 282.936 467.173 282.936 Q466.156 282.936 465.09 283.804 Q464.041 284.673 463.27 286.149 Q462.68 287.33 462.041 289.805 Q461.418 292.281 461.418 293.511 Q461.418 294.265 461.582 294.937 Q461.762 295.593 462.27 296.134 Q462.779 296.659 463.566 296.659 Q465.484 296.659 467.369 294.281 Q467.73 293.871 467.812 293.707 Q467.91 293.527 468.042 293.035 L469.714 286.461 Q469.812 285.969 469.812 285.887 Z" fill="#000000" fill-rule="nonzero" fill-opacity="1" /><path clip-path="url(#clip740)" d="M472.896 177.678 Q472.896 180.039 471.699 182.351 Q470.518 184.646 468.616 186.089 Q466.731 187.532 464.796 187.532 Q462.911 187.532 461.714 186.089 Q460.533 184.63 460.533 182.253 Q460.533 181.416 460.632 180.826 Q460.73 180.236 461.074 178.859 L463.829 167.906 Q464.304 165.857 464.304 165.841 Q464.304 165.644 464.222 165.545 Q464.157 165.431 463.763 165.349 Q463.37 165.267 462.616 165.267 Q462.304 165.267 462.156 165.25 Q462.025 165.234 461.911 165.152 Q461.812 165.054 461.812 164.857 Q461.812 164.578 461.927 164.431 Q462.058 164.267 462.156 164.234 Q462.255 164.201 462.452 164.185 Q462.73 164.168 463.665 164.086 Q464.599 163.988 465.403 163.922 Q466.206 163.857 466.551 163.857 Q466.747 163.857 466.846 163.955 Q466.96 164.037 466.96 164.135 L466.977 164.217 L464.501 174.334 Q466.452 172.317 468.436 172.317 Q470.42 172.317 471.65 173.842 Q472.896 175.366 472.896 177.678 M470.469 176.203 Q470.469 174.645 469.879 173.858 Q469.305 173.055 468.354 173.055 Q467.551 173.055 466.501 173.661 Q465.452 174.268 464.337 175.744 Q464.124 176.022 464.042 176.186 Q463.976 176.35 463.829 176.908 L463.091 180.006 Q462.55 182.121 462.55 183.4 Q462.55 185.138 463.189 185.958 Q463.829 186.778 464.796 186.778 Q465.813 186.778 466.878 185.876 Q467.944 184.974 468.764 183.335 Q469.272 182.253 469.862 179.924 Q470.469 177.58 470.469 176.203 Z" fill="#000000" fill-rule="nonzero" fill-opacity="1" /><path clip-path="url(#clip740)" d="M520.541 221.748 Q520.541 223.037 519.721 223.833 Q518.925 224.629 517.918 224.629 Q517.192 224.629 516.653 224.184 Q516.138 223.739 516.138 222.966 Q516.138 222.17 516.747 221.327 Q517.356 220.484 518.738 220.366 Q517.824 219.5 516.372 219.5 Q515.646 219.5 515.037 219.968 Q514.451 220.413 514.123 221.139 Q513.772 221.889 512.976 226.128 Q512.718 227.51 512.484 228.845 Q512.25 230.18 511.969 231.586 L515.95 231.586 Q516.466 231.586 516.676 231.609 Q516.887 231.633 517.051 231.75 Q517.239 231.867 517.239 232.125 Q517.239 232.78 516.934 232.944 Q516.653 233.085 515.81 233.085 L511.687 233.085 L508.807 248.286 Q508.736 248.731 508.432 250.136 Q508.151 251.518 507.471 253.79 Q506.792 256.086 506.113 257.444 Q505.738 258.217 505.246 258.943 Q504.778 259.693 504.099 260.442 Q503.419 261.192 502.529 261.637 Q501.639 262.105 500.702 262.105 Q499.11 262.105 497.868 261.215 Q496.627 260.325 496.627 258.803 Q496.627 257.514 497.423 256.718 Q498.243 255.922 499.25 255.922 Q499.976 255.922 500.492 256.367 Q501.03 256.812 501.03 257.585 Q501.03 257.913 500.913 258.287 Q500.796 258.662 500.538 259.084 Q500.281 259.529 499.719 259.833 Q499.156 260.138 498.384 260.185 Q499.297 261.051 500.702 261.051 Q501.147 261.051 501.546 260.864 Q501.944 260.7 502.272 260.278 Q502.623 259.857 502.881 259.435 Q503.138 259.037 503.396 258.264 Q503.654 257.514 503.818 256.952 Q503.982 256.39 504.192 255.383 Q504.427 254.376 504.544 253.767 Q504.661 253.181 504.872 252.034 L508.455 233.085 L505.293 233.085 Q504.731 233.085 504.497 233.061 Q504.286 233.038 504.122 232.921 Q503.958 232.78 503.958 232.499 Q503.958 232.054 504.145 231.867 Q504.356 231.656 504.59 231.633 Q504.825 231.586 505.387 231.586 L508.713 231.586 Q509.837 225.66 510.282 224.067 Q510.797 222.381 511.594 221.21 Q512.39 220.015 513.28 219.453 Q514.17 218.891 514.896 218.68 Q515.646 218.446 516.372 218.446 Q518.012 218.446 519.276 219.336 Q520.541 220.203 520.541 221.748 Z" fill="#000000" fill-rule="nonzero" fill-opacity="1" /><path clip-path="url(#clip740)" d="M526.994 240.276 Q526.994 232.171 530.015 225.637 Q531.304 222.896 533.107 220.601 Q534.911 218.305 536.105 217.298 Q537.3 216.291 537.628 216.291 Q538.096 216.291 538.119 216.759 Q538.119 216.994 537.487 217.579 Q529.758 225.449 529.781 240.276 Q529.781 255.149 537.3 262.714 Q538.119 263.534 538.119 263.792 Q538.119 264.26 537.628 264.26 Q537.3 264.26 536.152 263.3 Q535.004 262.34 533.224 260.138 Q531.444 257.936 530.156 255.243 Q526.994 248.708 526.994 240.276 Z" fill="#000000" fill-rule="nonzero" fill-opacity="1" /><path clip-path="url(#clip740)" d="M565.652 234.233 Q565.652 235.544 564.832 236.294 Q564.013 237.02 563.076 237.02 Q562.186 237.02 561.717 236.505 Q561.249 235.989 561.249 235.333 Q561.249 234.443 561.905 233.67 Q562.56 232.897 563.544 232.734 Q562.584 232.125 561.155 232.125 Q560.218 232.125 559.398 232.616 Q558.602 233.108 558.11 233.741 Q557.642 234.373 557.22 235.287 Q556.822 236.177 556.658 236.715 Q556.517 237.231 556.4 237.793 L554.761 244.351 Q553.964 247.466 553.964 248.567 Q553.964 249.926 554.62 250.839 Q555.276 251.729 556.588 251.729 Q557.103 251.729 557.689 251.589 Q558.274 251.425 559.024 251.003 Q559.797 250.558 560.476 249.902 Q561.179 249.223 561.858 248.075 Q562.537 246.928 562.982 245.452 Q563.123 244.937 563.591 244.937 Q564.177 244.937 564.177 245.405 Q564.177 245.803 563.849 246.646 Q563.544 247.466 562.865 248.544 Q562.209 249.598 561.342 250.558 Q560.476 251.495 559.188 252.151 Q557.899 252.807 556.494 252.807 Q554.48 252.807 553.145 251.729 Q551.81 250.652 551.318 249.153 Q551.201 249.363 551.037 249.645 Q550.873 249.926 550.381 250.558 Q549.912 251.167 549.374 251.635 Q548.835 252.08 547.992 252.432 Q547.172 252.807 546.282 252.807 Q545.158 252.807 544.15 252.479 Q543.167 252.151 542.464 251.401 Q541.761 250.652 541.761 249.621 Q541.761 248.473 542.534 247.677 Q543.331 246.857 544.408 246.857 Q545.087 246.857 545.626 247.255 Q546.188 247.654 546.188 248.52 Q546.188 249.481 545.532 250.207 Q544.877 250.933 543.94 251.12 Q544.9 251.729 546.329 251.729 Q547.875 251.729 549.093 250.371 Q550.311 249.012 550.896 246.74 Q552.348 241.283 552.91 238.847 Q553.473 236.387 553.473 235.333 Q553.473 234.35 553.215 233.67 Q552.957 232.991 552.512 232.687 Q552.091 232.359 551.692 232.242 Q551.318 232.125 550.896 232.125 Q550.193 232.125 549.397 232.406 Q548.624 232.687 547.687 233.343 Q546.774 233.975 545.907 235.287 Q545.04 236.598 544.455 238.402 Q544.338 238.94 543.823 238.94 Q543.26 238.917 543.26 238.449 Q543.26 238.05 543.565 237.231 Q543.893 236.387 544.549 235.333 Q545.228 234.279 546.094 233.343 Q546.985 232.382 548.273 231.726 Q549.584 231.071 550.99 231.071 Q551.622 231.071 552.231 231.211 Q552.864 231.328 553.613 231.68 Q554.386 232.031 555.065 232.804 Q555.745 233.577 556.166 234.701 Q556.447 234.162 556.822 233.647 Q557.22 233.132 557.829 232.499 Q558.462 231.843 559.328 231.469 Q560.218 231.071 561.202 231.071 Q562.162 231.071 563.099 231.328 Q564.036 231.562 564.832 232.335 Q565.652 233.085 565.652 234.233 Z" fill="#000000" fill-rule="nonzero" fill-opacity="1" /><path clip-path="url(#clip740)" d="M570.265 263.792 Q570.265 263.557 570.874 262.972 Q578.603 255.102 578.603 240.276 Q578.603 225.402 571.178 217.884 Q570.265 217.017 570.265 216.759 Q570.265 216.291 570.733 216.291 Q571.061 216.291 572.209 217.251 Q573.38 218.212 575.137 220.413 Q576.917 222.615 578.228 225.309 Q581.39 231.843 581.39 240.276 Q581.39 248.38 578.369 254.915 Q577.081 257.655 575.277 259.95 Q573.474 262.246 572.279 263.253 Q571.085 264.26 570.733 264.26 Q570.265 264.26 570.265 263.792 Z" fill="#000000" fill-rule="nonzero" fill-opacity="1" /><path clip-path="url(#clip740)" d="M610.749 219.5 L603.84 247.232 Q603.558 248.473 603.558 249.527 Q603.558 251.729 604.987 251.729 Q605.69 251.729 606.252 251.284 Q606.814 250.839 607.259 249.902 Q607.704 248.965 607.985 248.099 Q608.266 247.209 608.641 245.803 Q608.758 245.241 608.852 245.101 Q608.969 244.937 609.297 244.937 Q609.883 244.937 609.883 245.405 Q609.25 248.427 608.43 250.16 Q607.119 252.807 604.894 252.807 Q603.207 252.807 602.013 251.776 Q600.818 250.745 600.537 249.2 Q597.469 252.807 594.283 252.807 Q591.472 252.807 589.692 250.675 Q587.912 248.52 587.912 245.124 Q587.912 241.704 589.599 238.425 Q591.309 235.146 594.002 233.108 Q596.696 231.071 599.46 231.071 Q602.387 231.071 603.886 234.139 L606.767 222.756 L606.908 221.819 Q606.908 221.538 606.791 221.397 Q606.697 221.233 606.135 221.116 Q605.596 220.999 604.519 220.999 Q604.074 220.999 603.863 220.975 Q603.676 220.952 603.512 220.835 Q603.348 220.694 603.348 220.413 Q603.348 219.594 604.027 219.5 Q608.524 218.985 610.117 218.985 Q610.398 218.985 610.562 219.125 Q610.726 219.242 610.726 219.383 L610.749 219.5 M603.301 236.341 Q603.301 236.13 603.137 235.544 Q602.973 234.959 602.598 234.139 Q602.223 233.319 601.404 232.734 Q600.607 232.125 599.53 232.125 Q598.078 232.125 596.555 233.366 Q595.056 234.607 593.955 236.715 Q593.112 238.402 592.199 241.939 Q591.309 245.475 591.309 247.232 Q591.309 248.309 591.543 249.27 Q591.8 250.207 592.526 250.98 Q593.253 251.729 594.377 251.729 Q597.117 251.729 599.811 248.333 Q600.326 247.747 600.443 247.513 Q600.584 247.255 600.771 246.553 L603.16 237.16 Q603.301 236.458 603.301 236.341 Z" fill="#000000" fill-rule="nonzero" fill-opacity="1" /><path clip-path="url(#clip740)" d="M635.713 234.233 Q635.713 235.544 634.893 236.294 Q634.073 237.02 633.136 237.02 Q632.246 237.02 631.778 236.505 Q631.309 235.989 631.309 235.333 Q631.309 234.443 631.965 233.67 Q632.621 232.897 633.605 232.734 Q632.645 232.125 631.216 232.125 Q630.279 232.125 629.459 232.616 Q628.663 233.108 628.171 233.741 Q627.702 234.373 627.281 235.287 Q626.883 236.177 626.719 236.715 Q626.578 237.231 626.461 237.793 L624.821 244.351 Q624.025 247.466 624.025 248.567 Q624.025 249.926 624.681 250.839 Q625.337 251.729 626.648 251.729 Q627.164 251.729 627.749 251.589 Q628.335 251.425 629.084 251.003 Q629.857 250.558 630.537 249.902 Q631.239 249.223 631.918 248.075 Q632.598 246.928 633.043 245.452 Q633.183 244.937 633.652 244.937 Q634.237 244.937 634.237 245.405 Q634.237 245.803 633.909 246.646 Q633.605 247.466 632.926 248.544 Q632.27 249.598 631.403 250.558 Q630.537 251.495 629.248 252.151 Q627.96 252.807 626.555 252.807 Q624.54 252.807 623.205 251.729 Q621.87 250.652 621.378 249.153 Q621.261 249.363 621.097 249.645 Q620.933 249.926 620.441 250.558 Q619.973 251.167 619.434 251.635 Q618.896 252.08 618.052 252.432 Q617.233 252.807 616.343 252.807 Q615.218 252.807 614.211 252.479 Q613.227 252.151 612.525 251.401 Q611.822 250.652 611.822 249.621 Q611.822 248.473 612.595 247.677 Q613.391 246.857 614.469 246.857 Q615.148 246.857 615.687 247.255 Q616.249 247.654 616.249 248.52 Q616.249 249.481 615.593 250.207 Q614.937 250.933 614 251.12 Q614.961 251.729 616.389 251.729 Q617.935 251.729 619.153 250.371 Q620.371 249.012 620.957 246.74 Q622.409 241.283 622.971 238.847 Q623.533 236.387 623.533 235.333 Q623.533 234.35 623.276 233.67 Q623.018 232.991 622.573 232.687 Q622.151 232.359 621.753 232.242 Q621.378 232.125 620.957 232.125 Q620.254 232.125 619.458 232.406 Q618.685 232.687 617.748 233.343 Q616.834 233.975 615.968 235.287 Q615.101 236.598 614.516 238.402 Q614.398 238.94 613.883 238.94 Q613.321 238.917 613.321 238.449 Q613.321 238.05 613.626 237.231 Q613.953 236.387 614.609 235.333 Q615.289 234.279 616.155 233.343 Q617.045 232.382 618.333 231.726 Q619.645 231.071 621.05 231.071 Q621.683 231.071 622.292 231.211 Q622.924 231.328 623.674 231.68 Q624.447 232.031 625.126 232.804 Q625.805 233.577 626.227 234.701 Q626.508 234.162 626.883 233.647 Q627.281 233.132 627.89 232.499 Q628.522 231.843 629.389 231.469 Q630.279 231.071 631.263 231.071 Q632.223 231.071 633.16 231.328 Q634.097 231.562 634.893 232.335 Q635.713 233.085 635.713 234.233 Z" fill="#000000" fill-rule="nonzero" fill-opacity="1" /><path clip-path="url(#clip740)" d="M282.562 417.396 L426.994 417.396 L426.994 310.74 L282.562 310.74 L282.562 417.396  Z" fill="#00a9ad" fill-rule="evenodd" fill-opacity="1"/>
<polyline clip-path="url(#clip740)" style="stroke:#000000; stroke-linecap:round; stroke-linejoin:round; stroke-width:4; stroke-opacity:1; fill:none" points="282.562,310.74 426.994,310.74 "/>
<path clip-path="url(#clip740)" d="M458.474 348.061 L458.474 355.422 L467.247 355.422 L467.247 358.732 L458.474 358.732 L458.474 372.806 Q458.474 375.977 459.33 376.88 Q460.21 377.783 462.872 377.783 L467.247 377.783 L467.247 381.348 L462.872 381.348 Q457.941 381.348 456.066 379.519 Q454.191 377.667 454.191 372.806 L454.191 358.732 L451.066 358.732 L451.066 355.422 L454.191 355.422 L454.191 348.061 L458.474 348.061 Z" fill="#000000" fill-rule="nonzero" fill-opacity="1" /><path clip-path="url(#clip740)" d="M487.872 359.403 Q487.154 358.987 486.298 358.801 Q485.464 358.593 484.446 358.593 Q480.835 358.593 478.89 360.954 Q476.969 363.292 476.969 367.69 L476.969 381.348 L472.686 381.348 L472.686 355.422 L476.969 355.422 L476.969 359.45 Q478.311 357.089 480.464 355.954 Q482.617 354.797 485.696 354.797 Q486.135 354.797 486.668 354.866 Q487.2 354.913 487.848 355.028 L487.872 359.403 Z" fill="#000000" fill-rule="nonzero" fill-opacity="1" /><path clip-path="url(#clip740)" d="M504.122 368.315 Q498.959 368.315 496.969 369.496 Q494.978 370.676 494.978 373.524 Q494.978 375.792 496.46 377.135 Q497.964 378.454 500.534 378.454 Q504.075 378.454 506.205 375.954 Q508.358 373.431 508.358 369.264 L508.358 368.315 L504.122 368.315 M512.617 366.556 L512.617 381.348 L508.358 381.348 L508.358 377.413 Q506.899 379.774 504.723 380.908 Q502.547 382.019 499.399 382.019 Q495.418 382.019 493.057 379.797 Q490.719 377.551 490.719 373.801 Q490.719 369.426 493.635 367.204 Q496.575 364.982 502.385 364.982 L508.358 364.982 L508.358 364.565 Q508.358 361.626 506.413 360.028 Q504.492 358.408 500.997 358.408 Q498.774 358.408 496.668 358.94 Q494.561 359.473 492.617 360.538 L492.617 356.602 Q494.955 355.7 497.154 355.26 Q499.353 354.797 501.436 354.797 Q507.061 354.797 509.839 357.714 Q512.617 360.63 512.617 366.556 Z" fill="#000000" fill-rule="nonzero" fill-opacity="1" /><path clip-path="url(#clip740)" d="M525.51 377.459 L525.51 391.209 L521.228 391.209 L521.228 355.422 L525.51 355.422 L525.51 359.357 Q526.853 357.042 528.89 355.931 Q530.95 354.797 533.797 354.797 Q538.519 354.797 541.459 358.547 Q544.422 362.297 544.422 368.408 Q544.422 374.519 541.459 378.269 Q538.519 382.019 533.797 382.019 Q530.95 382.019 528.89 380.908 Q526.853 379.774 525.51 377.459 M540.001 368.408 Q540.001 363.709 538.057 361.047 Q536.135 358.362 532.756 358.362 Q529.376 358.362 527.432 361.047 Q525.51 363.709 525.51 368.408 Q525.51 373.107 527.432 375.792 Q529.376 378.454 532.756 378.454 Q536.135 378.454 538.057 375.792 Q540.001 373.107 540.001 368.408 Z" fill="#000000" fill-rule="nonzero" fill-opacity="1" /><path clip-path="url(#clip740)" d="M573.658 367.32 L573.658 369.403 L554.075 369.403 Q554.353 373.801 556.714 376.116 Q559.098 378.408 563.334 378.408 Q565.788 378.408 568.079 377.806 Q570.394 377.204 572.663 376 L572.663 380.028 Q570.371 381 567.964 381.51 Q565.556 382.019 563.08 382.019 Q556.876 382.019 553.242 378.408 Q549.631 374.797 549.631 368.639 Q549.631 362.274 553.056 358.547 Q556.505 354.797 562.339 354.797 Q567.57 354.797 570.603 358.176 Q573.658 361.533 573.658 367.32 M569.399 366.07 Q569.353 362.575 567.431 360.491 Q565.533 358.408 562.385 358.408 Q558.82 358.408 556.668 360.422 Q554.538 362.436 554.214 366.093 L569.399 366.07 Z" fill="#000000" fill-rule="nonzero" fill-opacity="1" /><path clip-path="url(#clip740)" d="M578.797 355.422 L599.028 355.422 L599.028 359.311 L583.01 377.945 L599.028 377.945 L599.028 381.348 L578.218 381.348 L578.218 377.459 L594.237 358.825 L578.797 358.825 L578.797 355.422 Z" fill="#000000" fill-rule="nonzero" fill-opacity="1" /><path clip-path="url(#clip740)" d="M627.084 365.7 L627.084 381.348 L622.825 381.348 L622.825 365.838 Q622.825 362.158 621.389 360.329 Q619.954 358.501 617.084 358.501 Q613.635 358.501 611.644 360.7 Q609.653 362.899 609.653 366.695 L609.653 381.348 L605.371 381.348 L605.371 355.422 L609.653 355.422 L609.653 359.45 Q611.181 357.112 613.241 355.954 Q615.325 354.797 618.033 354.797 Q622.501 354.797 624.792 357.575 Q627.084 360.329 627.084 365.7 Z" fill="#000000" fill-rule="nonzero" fill-opacity="1" /><path clip-path="url(#clip740)" d="M647.361 368.315 Q642.199 368.315 640.209 369.496 Q638.218 370.676 638.218 373.524 Q638.218 375.792 639.699 377.135 Q641.204 378.454 643.774 378.454 Q647.315 378.454 649.445 375.954 Q651.598 373.431 651.598 369.264 L651.598 368.315 L647.361 368.315 M655.857 366.556 L655.857 381.348 L651.598 381.348 L651.598 377.413 Q650.139 379.774 647.963 380.908 Q645.787 382.019 642.639 382.019 Q638.658 382.019 636.297 379.797 Q633.959 377.551 633.959 373.801 Q633.959 369.426 636.875 367.204 Q639.815 364.982 645.625 364.982 L651.598 364.982 L651.598 364.565 Q651.598 361.626 649.653 360.028 Q647.732 358.408 644.236 358.408 Q642.014 358.408 639.908 358.94 Q637.801 359.473 635.857 360.538 L635.857 356.602 Q638.195 355.7 640.394 355.26 Q642.593 354.797 644.676 354.797 Q650.301 354.797 653.079 357.714 Q655.857 360.63 655.857 366.556 Z" fill="#000000" fill-rule="nonzero" fill-opacity="1" /><path clip-path="url(#clip740)" d="M692.824 345.329 L692.824 348.871 L688.75 348.871 Q686.458 348.871 685.556 349.797 Q684.676 350.723 684.676 353.13 L684.676 355.422 L691.69 355.422 L691.69 358.732 L684.676 358.732 L684.676 381.348 L680.394 381.348 L680.394 358.732 L676.32 358.732 L676.32 355.422 L680.394 355.422 L680.394 353.616 Q680.394 349.288 682.408 347.32 Q684.421 345.329 688.796 345.329 L692.824 345.329 Z" fill="#000000" fill-rule="nonzero" fill-opacity="1" /><path clip-path="url(#clip740)" d="M706.435 358.408 Q703.009 358.408 701.019 361.093 Q699.028 363.755 699.028 368.408 Q699.028 373.061 700.995 375.746 Q702.986 378.408 706.435 378.408 Q709.838 378.408 711.829 375.723 Q713.819 373.038 713.819 368.408 Q713.819 363.801 711.829 361.116 Q709.838 358.408 706.435 358.408 M706.435 354.797 Q711.991 354.797 715.162 358.408 Q718.333 362.019 718.333 368.408 Q718.333 374.774 715.162 378.408 Q711.991 382.019 706.435 382.019 Q700.857 382.019 697.685 378.408 Q694.537 374.774 694.537 368.408 Q694.537 362.019 697.685 358.408 Q700.857 354.797 706.435 354.797 Z" fill="#000000" fill-rule="nonzero" fill-opacity="1" /><path clip-path="url(#clip740)" d="M740.417 359.403 Q739.699 358.987 738.842 358.801 Q738.009 358.593 736.991 358.593 Q733.38 358.593 731.435 360.954 Q729.514 363.292 729.514 367.69 L729.514 381.348 L725.231 381.348 L725.231 355.422 L729.514 355.422 L729.514 359.45 Q730.856 357.089 733.009 355.954 Q735.162 354.797 738.241 354.797 Q738.68 354.797 739.213 354.866 Q739.745 354.913 740.393 355.028 L740.417 359.403 Z" fill="#000000" fill-rule="nonzero" fill-opacity="1" /><path clip-path="url(#clip740)" d="M764.236 360.399 Q765.833 357.528 768.055 356.163 Q770.277 354.797 773.287 354.797 Q777.338 354.797 779.537 357.644 Q781.736 360.468 781.736 365.7 L781.736 381.348 L777.453 381.348 L777.453 365.838 Q777.453 362.112 776.134 360.306 Q774.814 358.501 772.106 358.501 Q768.796 358.501 766.875 360.7 Q764.953 362.899 764.953 366.695 L764.953 381.348 L760.671 381.348 L760.671 365.838 Q760.671 362.089 759.352 360.306 Q758.032 358.501 755.278 358.501 Q752.014 358.501 750.092 360.723 Q748.171 362.922 748.171 366.695 L748.171 381.348 L743.889 381.348 L743.889 355.422 L748.171 355.422 L748.171 359.45 Q749.629 357.065 751.666 355.931 Q753.704 354.797 756.504 354.797 Q759.328 354.797 761.296 356.232 Q763.287 357.667 764.236 360.399 Z" fill="#000000" fill-rule="nonzero" fill-opacity="1" /><path clip-path="url(#clip740)" d="M789.791 371.116 L789.791 355.422 L794.051 355.422 L794.051 370.954 Q794.051 374.635 795.486 376.487 Q796.921 378.315 799.791 378.315 Q803.24 378.315 805.231 376.116 Q807.245 373.917 807.245 370.121 L807.245 355.422 L811.504 355.422 L811.504 381.348 L807.245 381.348 L807.245 377.366 Q805.694 379.727 803.634 380.885 Q801.597 382.019 798.888 382.019 Q794.421 382.019 792.106 379.241 Q789.791 376.463 789.791 371.116 M800.509 354.797 L800.509 354.797 Z" fill="#000000" fill-rule="nonzero" fill-opacity="1" /><path clip-path="url(#clip740)" d="M820.277 345.329 L824.536 345.329 L824.536 381.348 L820.277 381.348 L820.277 345.329 Z" fill="#000000" fill-rule="nonzero" fill-opacity="1" /><path clip-path="url(#clip740)" d="M845.231 368.315 Q840.069 368.315 838.078 369.496 Q836.087 370.676 836.087 373.524 Q836.087 375.792 837.569 377.135 Q839.073 378.454 841.643 378.454 Q845.184 378.454 847.314 375.954 Q849.467 373.431 849.467 369.264 L849.467 368.315 L845.231 368.315 M853.726 366.556 L853.726 381.348 L849.467 381.348 L849.467 377.413 Q848.009 379.774 845.833 380.908 Q843.657 382.019 840.509 382.019 Q836.527 382.019 834.166 379.797 Q831.828 377.551 831.828 373.801 Q831.828 369.426 834.745 367.204 Q837.685 364.982 843.495 364.982 L849.467 364.982 L849.467 364.565 Q849.467 361.626 847.522 360.028 Q845.601 358.408 842.106 358.408 Q839.884 358.408 837.777 358.94 Q835.671 359.473 833.726 360.538 L833.726 356.602 Q836.064 355.7 838.263 355.26 Q840.462 354.797 842.546 354.797 Q848.171 354.797 850.948 357.714 Q853.726 360.63 853.726 366.556 Z" fill="#000000" fill-rule="nonzero" fill-opacity="1" /><path clip-path="url(#clip740)" d="M608.955 1558.75 Q607.848 1564.04 606.413 1567.07 Q604.118 1571.7 600.224 1571.7 Q597.273 1571.7 595.182 1569.9 Q593.092 1568.1 592.6 1565.39 Q587.23 1571.7 581.656 1571.7 Q576.737 1571.7 573.622 1567.97 Q570.507 1564.2 570.507 1558.26 Q570.507 1552.28 573.458 1546.54 Q576.45 1540.8 581.164 1537.23 Q585.878 1533.67 590.714 1533.67 Q595.838 1533.67 598.461 1539.04 Q598.666 1537.56 599.609 1536.45 Q600.552 1535.35 601.986 1535.35 Q603.093 1535.35 603.749 1535.96 Q604.405 1536.54 604.405 1537.6 Q604.405 1538.13 603.831 1540.47 L600.798 1552.19 L598.953 1559.78 Q598.256 1562.56 598.051 1563.59 Q597.887 1564.61 597.887 1565.97 Q597.887 1569.82 600.388 1569.82 Q601.617 1569.82 602.601 1569.04 Q603.585 1568.26 604.364 1566.62 Q605.143 1564.98 605.634 1563.47 Q606.126 1561.91 606.782 1559.45 Q606.987 1558.46 607.151 1558.22 Q607.356 1557.93 607.93 1557.93 Q608.955 1557.93 608.955 1558.75 M597.437 1542.89 Q597.437 1542.52 597.15 1541.5 Q596.863 1540.47 596.207 1539.04 Q595.551 1537.6 594.116 1536.58 Q592.723 1535.51 590.837 1535.51 Q588.296 1535.51 585.632 1537.68 Q583.008 1539.86 581.082 1543.54 Q579.606 1546.5 578.008 1552.69 Q576.45 1558.87 576.45 1561.95 Q576.45 1563.83 576.86 1565.51 Q577.311 1567.15 578.582 1568.51 Q579.852 1569.82 581.82 1569.82 Q586.615 1569.82 591.329 1563.88 Q592.231 1562.85 592.436 1562.44 Q592.682 1561.99 593.01 1560.76 L597.191 1544.32 Q597.437 1543.09 597.437 1542.89 Z" fill="#000000" fill-rule="nonzero" fill-opacity="1" /><path clip-path="url(#clip740)" d="M1959.62 1557.55 Q1959.62 1563.45 1956.63 1569.23 Q1953.68 1574.97 1948.93 1578.57 Q1944.21 1582.18 1939.38 1582.18 Q1934.66 1582.18 1931.67 1578.57 Q1928.72 1574.93 1928.72 1568.98 Q1928.72 1566.89 1928.96 1565.42 Q1929.21 1563.94 1930.07 1560.5 L1936.96 1533.12 Q1938.15 1527.99 1938.15 1527.95 Q1938.15 1527.46 1937.94 1527.21 Q1937.78 1526.93 1936.79 1526.72 Q1935.81 1526.52 1933.92 1526.52 Q1933.15 1526.52 1932.78 1526.48 Q1932.45 1526.44 1932.16 1526.23 Q1931.92 1525.98 1931.92 1525.49 Q1931.92 1524.8 1932.2 1524.43 Q1932.53 1524.02 1932.78 1523.93 Q1933.02 1523.85 1933.51 1523.81 Q1934.21 1523.77 1936.55 1523.57 Q1938.88 1523.32 1940.89 1523.16 Q1942.9 1522.99 1943.76 1522.99 Q1944.25 1522.99 1944.5 1523.24 Q1944.79 1523.44 1944.79 1523.69 L1944.83 1523.89 L1938.64 1549.18 Q1943.52 1544.14 1948.48 1544.14 Q1953.44 1544.14 1956.51 1547.95 Q1959.62 1551.77 1959.62 1557.55 M1953.56 1553.86 Q1953.56 1549.96 1952.08 1548 Q1950.65 1545.99 1948.27 1545.99 Q1946.26 1545.99 1943.64 1547.5 Q1941.02 1549.02 1938.23 1552.71 Q1937.7 1553.41 1937.49 1553.82 Q1937.33 1554.23 1936.96 1555.62 L1935.11 1563.37 Q1933.76 1568.65 1933.76 1571.85 Q1933.76 1576.2 1935.36 1578.25 Q1936.96 1580.3 1939.38 1580.3 Q1941.92 1580.3 1944.58 1578.04 Q1947.25 1575.79 1949.3 1571.69 Q1950.57 1568.98 1952.04 1563.16 Q1953.56 1557.3 1953.56 1553.86 Z" fill="#000000" fill-rule="nonzero" fill-opacity="1" /><path clip-path="url(#clip740)" d="M419.991 780.653 Q419.991 782.908 418.557 784.301 Q417.163 785.695 415.401 785.695 Q414.13 785.695 413.187 784.916 Q412.285 784.137 412.285 782.785 Q412.285 781.391 413.351 779.915 Q414.417 778.44 416.835 778.235 Q415.237 776.718 412.695 776.718 Q411.425 776.718 410.359 777.538 Q409.334 778.317 408.76 779.587 Q408.146 780.899 406.752 788.318 Q406.301 790.737 405.891 793.073 Q405.481 795.409 404.989 797.869 L411.958 797.869 Q412.859 797.869 413.228 797.91 Q413.597 797.951 413.884 798.156 Q414.212 798.361 414.212 798.811 Q414.212 799.959 413.679 800.246 Q413.187 800.492 411.712 800.492 L404.497 800.492 L399.456 827.094 Q399.333 827.873 398.8 830.332 Q398.308 832.751 397.119 836.727 Q395.931 840.743 394.742 843.121 Q394.086 844.474 393.225 845.744 Q392.406 847.056 391.217 848.367 Q390.028 849.679 388.471 850.458 Q386.913 851.278 385.274 851.278 Q382.486 851.278 380.314 849.72 Q378.141 848.163 378.141 845.498 Q378.141 843.244 379.535 841.85 Q380.97 840.457 382.732 840.457 Q384.003 840.457 384.905 841.235 Q385.847 842.014 385.847 843.367 Q385.847 843.941 385.642 844.596 Q385.437 845.252 384.987 845.99 Q384.536 846.769 383.552 847.302 Q382.568 847.835 381.216 847.917 Q382.814 849.433 385.274 849.433 Q386.052 849.433 386.749 849.105 Q387.446 848.818 388.02 848.081 Q388.635 847.343 389.086 846.605 Q389.536 845.908 389.987 844.555 Q390.438 843.244 390.725 842.26 Q391.012 841.276 391.381 839.514 Q391.791 837.751 391.996 836.686 Q392.201 835.661 392.57 833.652 L398.841 800.492 L393.307 800.492 Q392.324 800.492 391.914 800.451 Q391.545 800.41 391.258 800.205 Q390.971 799.959 390.971 799.467 Q390.971 798.688 391.299 798.361 Q391.668 797.992 392.078 797.951 Q392.488 797.869 393.471 797.869 L399.292 797.869 Q401.259 787.498 402.038 784.711 Q402.94 781.76 404.334 779.71 Q405.727 777.62 407.285 776.636 Q408.842 775.653 410.113 775.284 Q411.425 774.874 412.695 774.874 Q415.565 774.874 417.778 776.431 Q419.991 777.948 419.991 780.653 Z" fill="#000000" fill-rule="nonzero" fill-opacity="1" /><path clip-path="url(#clip740)" d="M431.291 813.076 Q431.291 798.893 436.579 787.457 Q438.833 782.662 441.989 778.645 Q445.146 774.628 447.236 772.865 Q449.326 771.103 449.9 771.103 Q450.72 771.103 450.761 771.922 Q450.761 772.332 449.654 773.357 Q436.128 787.13 436.169 813.076 Q436.169 839.104 449.326 852.343 Q450.761 853.778 450.761 854.229 Q450.761 855.049 449.9 855.049 Q449.326 855.049 447.318 853.368 Q445.31 851.688 442.194 847.835 Q439.079 843.982 436.825 839.268 Q431.291 827.832 431.291 813.076 Z" fill="#000000" fill-rule="nonzero" fill-opacity="1" /><path clip-path="url(#clip740)" d="M496.932 822.052 Q495.826 827.34 494.391 830.373 Q492.096 835.005 488.202 835.005 Q485.25 835.005 483.16 833.201 Q481.069 831.398 480.578 828.693 Q475.208 835.005 469.633 835.005 Q464.715 835.005 461.6 831.275 Q458.484 827.504 458.484 821.56 Q458.484 815.576 461.436 809.838 Q464.428 804.099 469.142 800.533 Q473.855 796.967 478.692 796.967 Q483.816 796.967 486.439 802.337 Q486.644 800.861 487.587 799.754 Q488.53 798.647 489.964 798.647 Q491.071 798.647 491.727 799.262 Q492.383 799.836 492.383 800.902 Q492.383 801.435 491.809 803.771 L488.775 815.494 L486.931 823.077 Q486.234 825.864 486.029 826.889 Q485.865 827.914 485.865 829.266 Q485.865 833.119 488.366 833.119 Q489.595 833.119 490.579 832.341 Q491.563 831.562 492.342 829.922 Q493.12 828.283 493.612 826.766 Q494.104 825.209 494.76 822.749 Q494.965 821.765 495.129 821.52 Q495.334 821.233 495.908 821.233 Q496.932 821.233 496.932 822.052 M485.414 806.19 Q485.414 805.821 485.127 804.796 Q484.841 803.771 484.185 802.337 Q483.529 800.902 482.094 799.877 Q480.701 798.811 478.815 798.811 Q476.274 798.811 473.609 800.984 Q470.986 803.156 469.06 806.845 Q467.584 809.797 465.985 815.986 Q464.428 822.175 464.428 825.25 Q464.428 827.135 464.838 828.816 Q465.289 830.455 466.559 831.808 Q467.83 833.119 469.797 833.119 Q474.593 833.119 479.307 827.176 Q480.209 826.151 480.414 825.741 Q480.66 825.291 480.988 824.061 L485.168 807.624 Q485.414 806.394 485.414 806.19 Z" fill="#000000" fill-rule="nonzero" fill-opacity="1" /><path clip-path="url(#clip740)" d="M503.794 854.229 Q503.794 853.819 504.86 852.794 Q518.386 839.022 518.386 813.076 Q518.386 787.048 505.392 773.89 Q503.794 772.373 503.794 771.922 Q503.794 771.103 504.614 771.103 Q505.188 771.103 507.196 772.783 Q509.245 774.464 512.32 778.317 Q515.435 782.17 517.73 786.884 Q523.264 798.32 523.264 813.076 Q523.264 827.258 517.976 838.694 Q515.722 843.49 512.566 847.507 Q509.409 851.524 507.319 853.286 Q505.228 855.049 504.614 855.049 Q503.794 855.049 503.794 854.229 Z" fill="#000000" fill-rule="nonzero" fill-opacity="1" /><path clip-path="url(#clip740)" d="M2048.85 42.9943 Q2048.85 45.2488 2047.41 46.6424 Q2046.02 48.036 2044.26 48.036 Q2042.98 48.036 2042.04 47.2572 Q2041.14 46.4784 2041.14 45.1258 Q2041.14 43.7322 2042.21 42.2565 Q2043.27 40.7809 2045.69 40.576 Q2044.09 39.0594 2041.55 39.0594 Q2040.28 39.0594 2039.21 39.8792 Q2038.19 40.658 2037.61 41.9286 Q2037 43.2403 2035.61 50.6593 Q2035.16 53.0777 2034.75 55.4141 Q2034.34 57.7505 2033.84 60.2098 L2040.81 60.2098 Q2041.71 60.2098 2042.08 60.2508 Q2042.45 60.2918 2042.74 60.4968 Q2043.07 60.7017 2043.07 61.1526 Q2043.07 62.3003 2042.53 62.5872 Q2042.04 62.8332 2040.57 62.8332 L2033.35 62.8332 L2028.31 89.4352 Q2028.19 90.214 2027.65 92.6733 Q2027.16 95.0917 2025.97 99.0677 Q2024.79 103.085 2023.6 105.462 Q2022.94 106.815 2022.08 108.085 Q2021.26 109.397 2020.07 110.709 Q2018.88 112.02 2017.33 112.799 Q2015.77 113.619 2014.13 113.619 Q2011.34 113.619 2009.17 112.061 Q2007 110.504 2007 107.839 Q2007 105.585 2008.39 104.191 Q2009.82 102.798 2011.59 102.798 Q2012.86 102.798 2013.76 103.576 Q2014.7 104.355 2014.7 105.708 Q2014.7 106.282 2014.5 106.938 Q2014.29 107.593 2013.84 108.331 Q2013.39 109.11 2012.41 109.643 Q2011.42 110.176 2010.07 110.258 Q2011.67 111.774 2014.13 111.774 Q2014.91 111.774 2015.6 111.446 Q2016.3 111.16 2016.87 110.422 Q2017.49 109.684 2017.94 108.946 Q2018.39 108.249 2018.84 106.897 Q2019.29 105.585 2019.58 104.601 Q2019.87 103.617 2020.24 101.855 Q2020.65 100.092 2020.85 99.0267 Q2021.06 98.002 2021.42 95.9935 L2027.7 62.8332 L2022.16 62.8332 Q2021.18 62.8332 2020.77 62.7922 Q2020.4 62.7512 2020.11 62.5462 Q2019.83 62.3003 2019.83 61.8084 Q2019.83 61.0296 2020.15 60.7017 Q2020.52 60.3328 2020.93 60.2918 Q2021.34 60.2098 2022.33 60.2098 L2028.15 60.2098 Q2030.11 49.8396 2030.89 47.0523 Q2031.79 44.1011 2033.19 42.0516 Q2034.58 39.9611 2036.14 38.9774 Q2037.7 37.9937 2038.97 37.6247 Q2040.28 37.2149 2041.55 37.2149 Q2044.42 37.2149 2046.63 38.7724 Q2048.85 40.2891 2048.85 42.9943 Z" fill="#000000" fill-rule="nonzero" fill-opacity="1" /><path clip-path="url(#clip740)" d="M2060.15 75.4169 Q2060.15 61.2346 2065.43 49.7986 Q2067.69 45.0028 2070.84 40.9859 Q2074 36.9689 2076.09 35.2064 Q2078.18 33.4438 2078.75 33.4438 Q2079.57 33.4438 2079.62 34.2636 Q2079.62 34.6735 2078.51 35.6983 Q2064.98 49.4706 2065.02 75.4169 Q2065.02 101.445 2078.18 114.685 Q2079.62 116.119 2079.62 116.57 Q2079.62 117.39 2078.75 117.39 Q2078.18 117.39 2076.17 115.709 Q2074.16 114.029 2071.05 110.176 Q2067.93 106.323 2065.68 101.609 Q2060.15 90.173 2060.15 75.4169 Z" fill="#000000" fill-rule="nonzero" fill-opacity="1" /><path clip-path="url(#clip740)" d="M2118.58 72.7116 Q2118.58 78.614 2115.59 84.3935 Q2112.64 90.132 2107.88 93.7391 Q2103.17 97.3461 2098.33 97.3461 Q2093.62 97.3461 2090.63 93.7391 Q2087.67 90.091 2087.67 84.1476 Q2087.67 82.0571 2087.92 80.5815 Q2088.17 79.1059 2089.03 75.6628 L2095.91 48.282 Q2097.1 43.1583 2097.1 43.1173 Q2097.1 42.6254 2096.9 42.3795 Q2096.73 42.0926 2095.75 41.8876 Q2094.77 41.6827 2092.88 41.6827 Q2092.1 41.6827 2091.73 41.6417 Q2091.4 41.6007 2091.12 41.3958 Q2090.87 41.1498 2090.87 40.658 Q2090.87 39.9611 2091.16 39.5922 Q2091.49 39.1823 2091.73 39.1004 Q2091.98 39.0184 2092.47 38.9774 Q2093.17 38.9364 2095.5 38.7315 Q2097.84 38.4855 2099.85 38.3216 Q2101.86 38.1576 2102.72 38.1576 Q2103.21 38.1576 2103.46 38.4035 Q2103.74 38.6085 2103.74 38.8544 L2103.78 39.0594 L2097.59 64.3498 Q2102.47 59.3081 2107.43 59.3081 Q2112.39 59.3081 2115.47 63.1201 Q2118.58 66.9321 2118.58 72.7116 M2112.51 69.0225 Q2112.51 65.1286 2111.04 63.1611 Q2109.6 61.1526 2107.23 61.1526 Q2105.22 61.1526 2102.6 62.6692 Q2099.97 64.1858 2097.18 67.8748 Q2096.65 68.5717 2096.45 68.9815 Q2096.28 69.3914 2095.91 70.7851 L2094.07 78.532 Q2092.72 83.8197 2092.72 87.0168 Q2092.72 91.3617 2094.32 93.4112 Q2095.91 95.4606 2098.33 95.4606 Q2100.87 95.4606 2103.54 93.2062 Q2106.2 90.9518 2108.25 86.8529 Q2109.52 84.1476 2111 78.3271 Q2112.51 72.4656 2112.51 69.0225 Z" fill="#000000" fill-rule="nonzero" fill-opacity="1" /><path clip-path="url(#clip740)" d="M2124.66 116.57 Q2124.66 116.16 2125.73 115.135 Q2139.25 101.363 2139.25 75.4169 Q2139.25 49.3887 2126.26 36.2311 Q2124.66 34.7145 2124.66 34.2636 Q2124.66 33.4438 2125.48 33.4438 Q2126.06 33.4438 2128.06 35.1244 Q2130.11 36.805 2133.19 40.658 Q2136.3 44.5109 2138.6 49.2247 Q2144.13 60.6607 2144.13 75.4169 Q2144.13 89.5992 2138.84 101.035 Q2136.59 105.831 2133.43 109.848 Q2130.28 113.865 2128.19 115.627 Q2126.1 117.39 2125.48 117.39 Q2124.66 117.39 2124.66 116.57 Z" fill="#000000" fill-rule="nonzero" fill-opacity="1" /><path clip-path="url(#clip740)" d="M757.373 1187.27 Q757.373 1189.47 756.041 1190.65 Q754.709 1191.78 752.967 1191.78 Q751.276 1191.78 749.944 1190.65 Q748.663 1189.47 748.663 1187.37 Q748.663 1185.94 749.585 1184.66 Q750.508 1183.32 752.557 1183.07 Q749.995 1180.86 745.948 1180.86 Q743.949 1180.86 742.566 1181.63 Q741.234 1182.35 739.902 1184.55 Q738.569 1186.76 737.647 1191.27 Q736.776 1195.77 736.213 1202.79 L734.214 1228.92 Q733.6 1237.79 731.396 1255.21 Q729.244 1272.58 728.22 1276.57 Q727.297 1280.37 725.914 1283.49 Q724.531 1286.62 722.481 1289.33 Q720.432 1292.1 717.46 1293.64 Q714.488 1295.17 710.902 1295.17 Q706.137 1295.17 702.755 1292.66 Q699.373 1290.2 699.373 1286.46 Q699.373 1284.26 700.706 1283.08 Q702.038 1281.95 703.78 1281.95 Q705.471 1281.95 706.752 1283.08 Q708.084 1284.26 708.084 1286.36 Q708.084 1287.8 707.161 1289.08 Q706.239 1290.41 704.19 1290.66 Q706.752 1292.87 710.902 1292.87 Q714.078 1292.87 716.179 1291.02 Q718.28 1289.18 719.817 1284.26 Q721.354 1279.34 722.02 1270.94 L724.018 1244.81 Q724.684 1235.59 726.836 1218.42 Q729.039 1201.26 730.013 1196.75 Q734.112 1178.56 745.845 1178.56 Q750.61 1178.56 753.992 1181.07 Q757.373 1183.53 757.373 1187.27 Z" fill="#000000" fill-rule="nonzero" fill-opacity="1" /><path clip-path="url(#clip740)" d="M735.867 1332.98 Q735.092 1336.68 734.088 1338.8 Q732.481 1342.04 729.755 1342.04 Q727.689 1342.04 726.226 1340.78 Q724.763 1339.52 724.418 1337.63 Q720.659 1342.04 716.757 1342.04 Q713.314 1342.04 711.134 1339.43 Q708.953 1336.79 708.953 1332.63 Q708.953 1328.44 711.019 1324.43 Q713.113 1320.41 716.413 1317.91 Q719.713 1315.42 723.098 1315.42 Q726.685 1315.42 728.521 1319.18 Q728.665 1318.14 729.325 1317.37 Q729.985 1316.59 730.989 1316.59 Q731.763 1316.59 732.223 1317.02 Q732.682 1317.43 732.682 1318.17 Q732.682 1318.55 732.28 1320.18 L730.157 1328.39 L728.866 1333.7 Q728.378 1335.65 728.234 1336.36 Q728.12 1337.08 728.12 1338.03 Q728.12 1340.72 729.87 1340.72 Q730.731 1340.72 731.419 1340.18 Q732.108 1339.63 732.653 1338.49 Q733.198 1337.34 733.542 1336.28 Q733.887 1335.19 734.346 1333.47 Q734.489 1332.78 734.604 1332.6 Q734.748 1332.4 735.149 1332.4 Q735.867 1332.4 735.867 1332.98 M727.804 1321.87 Q727.804 1321.62 727.603 1320.9 Q727.402 1320.18 726.943 1319.18 Q726.484 1318.17 725.48 1317.46 Q724.504 1316.71 723.184 1316.71 Q721.405 1316.71 719.54 1318.23 Q717.704 1319.75 716.356 1322.33 Q715.323 1324.4 714.204 1328.73 Q713.113 1333.06 713.113 1335.22 Q713.113 1336.54 713.4 1337.71 Q713.716 1338.86 714.605 1339.81 Q715.495 1340.72 716.872 1340.72 Q720.229 1340.72 723.529 1336.56 Q724.16 1335.85 724.303 1335.56 Q724.476 1335.24 724.705 1334.38 L727.632 1322.88 Q727.804 1322.02 727.804 1321.87 Z" fill="#000000" fill-rule="nonzero" fill-opacity="1" /><path clip-path="url(#clip740)" d="M733.201 1132.51 Q733.201 1136.64 731.107 1140.68 Q729.041 1144.7 725.712 1147.23 Q722.413 1149.75 719.027 1149.75 Q715.727 1149.75 713.633 1147.23 Q711.567 1144.67 711.567 1140.51 Q711.567 1139.05 711.739 1138.01 Q711.911 1136.98 712.514 1134.57 L717.334 1115.41 Q718.166 1111.82 718.166 1111.79 Q718.166 1111.45 718.023 1111.27 Q717.908 1111.07 717.219 1110.93 Q716.531 1110.79 715.211 1110.79 Q714.666 1110.79 714.408 1110.76 Q714.178 1110.73 713.977 1110.58 Q713.805 1110.41 713.805 1110.07 Q713.805 1109.58 714.006 1109.32 Q714.235 1109.04 714.408 1108.98 Q714.58 1108.92 714.924 1108.89 Q715.412 1108.86 717.047 1108.72 Q718.683 1108.55 720.089 1108.43 Q721.495 1108.32 722.097 1108.32 Q722.441 1108.32 722.614 1108.49 Q722.814 1108.63 722.814 1108.81 L722.843 1108.95 L718.511 1126.65 Q721.925 1123.12 725.397 1123.12 Q728.869 1123.12 731.021 1125.79 Q733.201 1128.46 733.201 1132.51 M728.955 1129.92 Q728.955 1127.2 727.922 1125.82 Q726.917 1124.41 725.253 1124.41 Q723.847 1124.41 722.011 1125.48 Q720.175 1126.54 718.224 1129.12 Q717.851 1129.61 717.707 1129.89 Q717.592 1130.18 717.334 1131.16 L716.043 1136.58 Q715.096 1140.28 715.096 1142.52 Q715.096 1145.56 716.215 1147 Q717.334 1148.43 719.027 1148.43 Q720.806 1148.43 722.671 1146.85 Q724.536 1145.27 725.971 1142.4 Q726.86 1140.51 727.893 1136.44 Q728.955 1132.33 728.955 1129.92 Z" fill="#000000" fill-rule="nonzero" fill-opacity="1" /><path clip-path="url(#clip740)" d="M816.581 1209.64 Q816.581 1211.89 815.146 1213.29 Q813.753 1214.68 811.99 1214.68 Q810.72 1214.68 809.777 1213.9 Q808.875 1213.12 808.875 1211.77 Q808.875 1210.38 809.941 1208.9 Q811.006 1207.43 813.425 1207.22 Q811.826 1205.7 809.285 1205.7 Q808.014 1205.7 806.949 1206.52 Q805.924 1207.3 805.35 1208.57 Q804.735 1209.88 803.341 1217.3 Q802.891 1219.72 802.481 1222.06 Q802.071 1224.4 801.579 1226.85 L808.547 1226.85 Q809.449 1226.85 809.818 1226.9 Q810.187 1226.94 810.474 1227.14 Q810.802 1227.35 810.802 1227.8 Q810.802 1228.94 810.269 1229.23 Q809.777 1229.48 808.301 1229.48 L801.087 1229.48 L796.045 1256.08 Q795.922 1256.86 795.39 1259.32 Q794.898 1261.74 793.709 1265.71 Q792.52 1269.73 791.332 1272.11 Q790.676 1273.46 789.815 1274.73 Q788.995 1276.04 787.807 1277.35 Q786.618 1278.66 785.06 1279.44 Q783.503 1280.26 781.863 1280.26 Q779.076 1280.26 776.903 1278.71 Q774.731 1277.15 774.731 1274.48 Q774.731 1272.23 776.125 1270.84 Q777.559 1269.44 779.322 1269.44 Q780.592 1269.44 781.494 1270.22 Q782.437 1271 782.437 1272.35 Q782.437 1272.93 782.232 1273.58 Q782.027 1274.24 781.576 1274.98 Q781.125 1275.75 780.142 1276.29 Q779.158 1276.82 777.805 1276.9 Q779.404 1278.42 781.863 1278.42 Q782.642 1278.42 783.339 1278.09 Q784.036 1277.8 784.609 1277.07 Q785.224 1276.33 785.675 1275.59 Q786.126 1274.89 786.577 1273.54 Q787.028 1272.23 787.315 1271.25 Q787.602 1270.26 787.971 1268.5 Q788.38 1266.74 788.585 1265.67 Q788.79 1264.65 789.159 1262.64 L795.431 1229.48 L789.897 1229.48 Q788.913 1229.48 788.503 1229.44 Q788.134 1229.4 787.848 1229.19 Q787.561 1228.94 787.561 1228.45 Q787.561 1227.67 787.889 1227.35 Q788.257 1226.98 788.667 1226.94 Q789.077 1226.85 790.061 1226.85 L795.881 1226.85 Q797.849 1216.48 798.628 1213.7 Q799.529 1210.75 800.923 1208.7 Q802.317 1206.61 803.874 1205.62 Q805.432 1204.64 806.703 1204.27 Q808.014 1203.86 809.285 1203.86 Q812.154 1203.86 814.368 1205.42 Q816.581 1206.93 816.581 1209.64 Z" fill="#000000" fill-rule="nonzero" fill-opacity="1" /><path clip-path="url(#clip740)" d="M827.881 1242.06 Q827.881 1227.88 833.168 1216.44 Q835.423 1211.65 838.579 1207.63 Q841.735 1203.61 843.826 1201.85 Q845.916 1200.09 846.49 1200.09 Q847.31 1200.09 847.351 1200.91 Q847.351 1201.32 846.244 1202.34 Q832.717 1216.12 832.758 1242.06 Q832.758 1268.09 845.916 1281.33 Q847.351 1282.76 847.351 1283.21 Q847.351 1284.03 846.49 1284.03 Q845.916 1284.03 843.908 1282.35 Q841.899 1280.67 838.784 1276.82 Q835.669 1272.97 833.414 1268.25 Q827.881 1256.82 827.881 1242.06 Z" fill="#000000" fill-rule="nonzero" fill-opacity="1" /><path clip-path="url(#clip740)" d="M895.539 1231.49 Q895.539 1233.78 894.104 1235.09 Q892.67 1236.36 891.03 1236.36 Q889.473 1236.36 888.653 1235.46 Q887.833 1234.56 887.833 1233.41 Q887.833 1231.86 888.981 1230.5 Q890.128 1229.15 891.85 1228.86 Q890.169 1227.8 887.669 1227.8 Q886.03 1227.8 884.595 1228.66 Q883.201 1229.52 882.341 1230.63 Q881.521 1231.73 880.783 1233.33 Q880.086 1234.89 879.799 1235.83 Q879.553 1236.73 879.348 1237.72 L876.479 1249.19 Q875.085 1254.65 875.085 1256.57 Q875.085 1258.95 876.233 1260.55 Q877.381 1262.11 879.676 1262.11 Q880.578 1262.11 881.603 1261.86 Q882.627 1261.57 883.939 1260.83 Q885.292 1260.06 886.48 1258.91 Q887.71 1257.72 888.899 1255.71 Q890.087 1253.7 890.866 1251.12 Q891.112 1250.22 891.932 1250.22 Q892.957 1250.22 892.957 1251.04 Q892.957 1251.73 892.383 1253.21 Q891.85 1254.65 890.661 1256.53 Q889.514 1258.38 887.997 1260.06 Q886.48 1261.7 884.226 1262.84 Q881.972 1263.99 879.512 1263.99 Q875.987 1263.99 873.651 1262.11 Q871.314 1260.22 870.454 1257.6 Q870.249 1257.97 869.962 1258.46 Q869.675 1258.95 868.814 1260.06 Q867.994 1261.12 867.052 1261.94 Q866.109 1262.72 864.633 1263.33 Q863.199 1263.99 861.641 1263.99 Q859.673 1263.99 857.911 1263.42 Q856.189 1262.84 854.96 1261.53 Q853.73 1260.22 853.73 1258.42 Q853.73 1256.41 855.083 1255.01 Q856.476 1253.58 858.362 1253.58 Q859.55 1253.58 860.493 1254.28 Q861.477 1254.97 861.477 1256.49 Q861.477 1258.17 860.329 1259.44 Q859.182 1260.71 857.542 1261.04 Q859.223 1262.11 861.723 1262.11 Q864.428 1262.11 866.56 1259.73 Q868.691 1257.35 869.716 1253.37 Q872.257 1243.82 873.241 1239.56 Q874.225 1235.26 874.225 1233.41 Q874.225 1231.69 873.774 1230.5 Q873.323 1229.31 872.544 1228.78 Q871.806 1228.21 871.109 1228 Q870.454 1227.8 869.716 1227.8 Q868.486 1227.8 867.092 1228.29 Q865.74 1228.78 864.1 1229.93 Q862.502 1231.04 860.985 1233.33 Q859.468 1235.63 858.444 1238.78 Q858.239 1239.73 857.337 1239.73 Q856.353 1239.68 856.353 1238.86 Q856.353 1238.17 856.886 1236.73 Q857.46 1235.26 858.608 1233.41 Q859.796 1231.57 861.313 1229.93 Q862.871 1228.25 865.125 1227.1 Q867.42 1225.95 869.88 1225.95 Q870.986 1225.95 872.052 1226.2 Q873.159 1226.4 874.471 1227.02 Q875.823 1227.63 877.012 1228.99 Q878.201 1230.34 878.938 1232.31 Q879.43 1231.36 880.086 1230.46 Q880.783 1229.56 881.849 1228.45 Q882.955 1227.31 884.472 1226.65 Q886.03 1225.95 887.751 1225.95 Q889.432 1225.95 891.071 1226.4 Q892.711 1226.81 894.104 1228.17 Q895.539 1229.48 895.539 1231.49 Z" fill="#000000" fill-rule="nonzero" fill-opacity="1" /><path clip-path="url(#clip740)" d="M903.62 1283.21 Q903.62 1282.8 904.686 1281.78 Q918.212 1268.01 918.212 1242.06 Q918.212 1216.03 905.218 1202.88 Q903.62 1201.36 903.62 1200.91 Q903.62 1200.09 904.44 1200.09 Q905.014 1200.09 907.022 1201.77 Q909.071 1203.45 912.146 1207.3 Q915.261 1211.16 917.556 1215.87 Q923.09 1227.31 923.09 1242.06 Q923.09 1256.24 917.802 1267.68 Q915.548 1272.48 912.392 1276.49 Q909.235 1280.51 907.145 1282.27 Q905.055 1284.03 904.44 1284.03 Q903.62 1284.03 903.62 1283.21 Z" fill="#000000" fill-rule="nonzero" fill-opacity="1" /><path clip-path="url(#clip740)" d="M974.474 1205.7 L962.382 1254.24 Q961.89 1256.41 961.89 1258.25 Q961.89 1262.11 964.39 1262.11 Q965.62 1262.11 966.604 1261.33 Q967.587 1260.55 968.366 1258.91 Q969.145 1257.27 969.637 1255.75 Q970.129 1254.19 970.785 1251.73 Q970.99 1250.75 971.154 1250.51 Q971.359 1250.22 971.932 1250.22 Q972.957 1250.22 972.957 1251.04 Q971.85 1256.33 970.416 1259.36 Q968.12 1263.99 964.226 1263.99 Q961.275 1263.99 959.185 1262.19 Q957.094 1260.38 956.602 1257.68 Q951.233 1263.99 945.658 1263.99 Q940.74 1263.99 937.624 1260.26 Q934.509 1256.49 934.509 1250.55 Q934.509 1244.56 937.46 1238.82 Q940.453 1233.08 945.166 1229.52 Q949.88 1225.95 954.717 1225.95 Q959.841 1225.95 962.464 1231.32 L967.506 1211.4 L967.751 1209.76 Q967.751 1209.27 967.547 1209.02 Q967.383 1208.74 966.399 1208.53 Q965.456 1208.33 963.571 1208.33 Q962.792 1208.33 962.423 1208.29 Q962.095 1208.25 961.808 1208.04 Q961.521 1207.79 961.521 1207.3 Q961.521 1205.87 962.71 1205.7 Q970.58 1204.8 973.367 1204.8 Q973.859 1204.8 974.146 1205.05 Q974.433 1205.25 974.433 1205.5 L974.474 1205.7 M961.439 1235.18 Q961.439 1234.81 961.152 1233.78 Q960.865 1232.76 960.209 1231.32 Q959.554 1229.89 958.119 1228.86 Q956.725 1227.8 954.84 1227.8 Q952.298 1227.8 949.634 1229.97 Q947.011 1232.14 945.084 1235.83 Q943.609 1238.78 942.01 1244.97 Q940.453 1251.16 940.453 1254.24 Q940.453 1256.12 940.862 1257.8 Q941.313 1259.44 942.584 1260.79 Q943.855 1262.11 945.822 1262.11 Q950.618 1262.11 955.332 1256.16 Q956.233 1255.14 956.438 1254.73 Q956.684 1254.28 957.012 1253.05 L961.193 1236.61 Q961.439 1235.38 961.439 1235.18 Z" fill="#000000" fill-rule="nonzero" fill-opacity="1" /><path clip-path="url(#clip740)" d="M1018.17 1231.49 Q1018.17 1233.78 1016.73 1235.09 Q1015.3 1236.36 1013.66 1236.36 Q1012.1 1236.36 1011.28 1235.46 Q1010.46 1234.56 1010.46 1233.41 Q1010.46 1231.86 1011.61 1230.5 Q1012.76 1229.15 1014.48 1228.86 Q1012.8 1227.8 1010.3 1227.8 Q1008.66 1227.8 1007.22 1228.66 Q1005.83 1229.52 1004.97 1230.63 Q1004.15 1231.73 1003.41 1233.33 Q1002.72 1234.89 1002.43 1235.83 Q1002.18 1236.73 1001.98 1237.72 L999.108 1249.19 Q997.715 1254.65 997.715 1256.57 Q997.715 1258.95 998.862 1260.55 Q1000.01 1262.11 1002.31 1262.11 Q1003.21 1262.11 1004.23 1261.86 Q1005.26 1261.57 1006.57 1260.83 Q1007.92 1260.06 1009.11 1258.91 Q1010.34 1257.72 1011.53 1255.71 Q1012.72 1253.7 1013.5 1251.12 Q1013.74 1250.22 1014.56 1250.22 Q1015.59 1250.22 1015.59 1251.04 Q1015.59 1251.73 1015.01 1253.21 Q1014.48 1254.65 1013.29 1256.53 Q1012.14 1258.38 1010.63 1260.06 Q1009.11 1261.7 1006.86 1262.84 Q1004.6 1263.99 1002.14 1263.99 Q998.616 1263.99 996.28 1262.11 Q993.944 1260.22 993.083 1257.6 Q992.878 1257.97 992.591 1258.46 Q992.304 1258.95 991.443 1260.06 Q990.624 1261.12 989.681 1261.94 Q988.738 1262.72 987.262 1263.33 Q985.828 1263.99 984.27 1263.99 Q982.303 1263.99 980.54 1263.42 Q978.819 1262.84 977.589 1261.53 Q976.359 1260.22 976.359 1258.42 Q976.359 1256.41 977.712 1255.01 Q979.106 1253.58 980.991 1253.58 Q982.18 1253.58 983.123 1254.28 Q984.106 1254.97 984.106 1256.49 Q984.106 1258.17 982.959 1259.44 Q981.811 1260.71 980.171 1261.04 Q981.852 1262.11 984.352 1262.11 Q987.057 1262.11 989.189 1259.73 Q991.32 1257.35 992.345 1253.37 Q994.886 1243.82 995.87 1239.56 Q996.854 1235.26 996.854 1233.41 Q996.854 1231.69 996.403 1230.5 Q995.952 1229.31 995.173 1228.78 Q994.436 1228.21 993.739 1228 Q993.083 1227.8 992.345 1227.8 Q991.115 1227.8 989.722 1228.29 Q988.369 1228.78 986.73 1229.93 Q985.131 1231.04 983.614 1233.33 Q982.098 1235.63 981.073 1238.78 Q980.868 1239.73 979.966 1239.73 Q978.983 1239.68 978.983 1238.86 Q978.983 1238.17 979.515 1236.73 Q980.089 1235.26 981.237 1233.41 Q982.426 1231.57 983.942 1229.93 Q985.5 1228.25 987.754 1227.1 Q990.05 1225.95 992.509 1225.95 Q993.616 1225.95 994.682 1226.2 Q995.788 1226.4 997.1 1227.02 Q998.453 1227.63 999.641 1228.99 Q1000.83 1230.34 1001.57 1232.31 Q1002.06 1231.36 1002.72 1230.46 Q1003.41 1229.56 1004.48 1228.45 Q1005.58 1227.31 1007.1 1226.65 Q1008.66 1225.95 1010.38 1225.95 Q1012.06 1225.95 1013.7 1226.4 Q1015.34 1226.81 1016.73 1228.17 Q1018.17 1229.48 1018.17 1231.49 Z" fill="#000000" fill-rule="nonzero" fill-opacity="1" /><path clip-path="url(#clip740)" d="M1102.65 1226.28 L1102.65 1226.44 Q1101.33 1232.59 1098.67 1236 Q1096.05 1239.4 1091.01 1240.63 Q1089.73 1240.95 1088.05 1240.95 Q1084.49 1240.95 1081 1239.27 Q1077.52 1237.55 1073.63 1234.6 Q1071.21 1232.8 1069.81 1231.86 Q1068.42 1230.91 1066.17 1229.97 Q1063.95 1228.99 1062.03 1228.99 Q1060.96 1228.99 1059.85 1229.23 Q1055.39 1230.38 1052.76 1232.76 Q1050.18 1235.13 1049.2 1239.64 Q1049.03 1240.38 1048.17 1240.38 Q1047.76 1240.38 1047.47 1240.09 Q1047.19 1239.81 1047.19 1239.36 L1047.19 1239.19 Q1048.5 1233.04 1051.12 1229.64 Q1053.79 1226.24 1058.83 1225.01 Q1060.18 1224.68 1061.78 1224.68 Q1065.3 1224.68 1068.79 1226.4 Q1072.27 1228.08 1076.21 1231.08 Q1078.01 1232.43 1079.04 1233.17 Q1080.1 1233.86 1081.74 1234.85 Q1083.38 1235.83 1084.9 1236.28 Q1086.41 1236.69 1087.89 1236.69 Q1088.87 1236.69 1089.98 1236.45 Q1094.45 1235.3 1097.03 1232.92 Q1099.65 1230.54 1100.64 1226.03 Q1100.97 1225.26 1101.66 1225.26 Q1102.07 1225.26 1102.36 1225.54 Q1102.65 1225.83 1102.65 1226.28 M1102.65 1244.77 L1102.65 1244.93 Q1101.33 1251.08 1098.67 1254.48 Q1096.05 1257.88 1091.01 1259.11 Q1089.73 1259.44 1088.05 1259.44 Q1084.53 1259.44 1081.04 1257.76 Q1077.56 1256.04 1073.63 1253.05 Q1071.21 1251.24 1069.81 1250.3 Q1068.42 1249.36 1066.17 1248.41 Q1063.95 1247.43 1062.03 1247.43 Q1060.96 1247.43 1059.85 1247.68 Q1055.39 1248.82 1052.76 1251.2 Q1050.18 1253.58 1049.2 1258.09 Q1049.03 1258.87 1048.17 1258.87 Q1047.76 1258.87 1047.47 1258.58 Q1047.19 1258.29 1047.19 1257.84 L1047.19 1257.68 Q1048.5 1251.53 1051.12 1248.13 Q1053.79 1244.73 1058.83 1243.5 Q1060.18 1243.17 1061.78 1243.17 Q1065.35 1243.17 1068.83 1244.89 Q1072.31 1246.57 1076.21 1249.52 Q1078.01 1250.87 1079.04 1251.61 Q1080.1 1252.31 1081.74 1253.29 Q1083.38 1254.28 1084.9 1254.73 Q1086.41 1255.14 1087.89 1255.14 Q1088.87 1255.14 1089.98 1254.89 Q1094.45 1253.74 1097.03 1251.37 Q1099.65 1248.99 1100.64 1244.48 Q1100.92 1243.74 1101.66 1243.74 Q1102.07 1243.74 1102.36 1244.03 Q1102.65 1244.32 1102.65 1244.77 Z" fill="#000000" fill-rule="nonzero" fill-opacity="1" /><path clip-path="url(#clip740)" d="M1183.57 1197.48 Q1183.57 1203.38 1180.58 1209.16 Q1177.62 1214.9 1172.87 1218.5 Q1168.16 1222.11 1163.32 1222.11 Q1158.61 1222.11 1155.61 1218.5 Q1152.66 1214.86 1152.66 1208.91 Q1152.66 1206.82 1152.91 1205.35 Q1153.15 1203.87 1154.01 1200.43 L1160.9 1173.05 Q1162.09 1167.92 1162.09 1167.88 Q1162.09 1167.39 1161.88 1167.15 Q1161.72 1166.86 1160.74 1166.65 Q1159.75 1166.45 1157.87 1166.45 Q1157.09 1166.45 1156.72 1166.41 Q1156.39 1166.37 1156.1 1166.16 Q1155.86 1165.92 1155.86 1165.42 Q1155.86 1164.73 1156.15 1164.36 Q1156.47 1163.95 1156.72 1163.87 Q1156.97 1163.78 1157.46 1163.74 Q1158.15 1163.7 1160.49 1163.5 Q1162.83 1163.25 1164.84 1163.09 Q1166.84 1162.92 1167.7 1162.92 Q1168.2 1162.92 1168.44 1163.17 Q1168.73 1163.37 1168.73 1163.62 L1168.77 1163.83 L1162.58 1189.12 Q1167.46 1184.07 1172.42 1184.07 Q1177.38 1184.07 1180.45 1187.89 Q1183.57 1191.7 1183.57 1197.48 M1177.5 1193.79 Q1177.5 1189.89 1176.03 1187.93 Q1174.59 1185.92 1172.21 1185.92 Q1170.21 1185.92 1167.58 1187.44 Q1164.96 1188.95 1162.17 1192.64 Q1161.64 1193.34 1161.43 1193.75 Q1161.27 1194.16 1160.9 1195.55 L1159.06 1203.3 Q1157.7 1208.59 1157.7 1211.78 Q1157.7 1216.13 1159.3 1218.18 Q1160.9 1220.23 1163.32 1220.23 Q1165.86 1220.23 1168.52 1217.97 Q1171.19 1215.72 1173.24 1211.62 Q1174.51 1208.91 1175.98 1203.09 Q1177.5 1197.23 1177.5 1193.79 Z" fill="#000000" fill-rule="nonzero" fill-opacity="1" /><path clip-path="url(#clip740)" d="M1267.01 1198.99 Q1267.5 1199.49 1267.5 1200.18 Q1267.5 1200.88 1267.01 1201.37 Q1266.52 1201.86 1265.82 1201.86 L1213.28 1201.86 Q1212.58 1201.86 1212.09 1201.37 Q1211.6 1200.88 1211.6 1200.18 Q1211.6 1199.49 1212.09 1198.99 Q1212.58 1198.5 1213.28 1198.5 L1265.82 1198.5 Q1266.52 1198.5 1267.01 1198.99 Z" fill="#000000" fill-rule="nonzero" fill-opacity="1" /><path clip-path="url(#clip740)" d="M1338 1209.16 Q1336.9 1214.45 1335.46 1217.48 Q1333.17 1222.11 1329.27 1222.11 Q1326.32 1222.11 1324.23 1220.31 Q1322.14 1218.5 1321.65 1215.8 Q1316.28 1222.11 1310.7 1222.11 Q1305.79 1222.11 1302.67 1218.38 Q1299.56 1214.61 1299.56 1208.67 Q1299.56 1202.68 1302.51 1196.94 Q1305.5 1191.21 1310.21 1187.64 Q1314.93 1184.07 1319.76 1184.07 Q1324.89 1184.07 1327.51 1189.44 Q1327.72 1187.97 1328.66 1186.86 Q1329.6 1185.75 1331.04 1185.75 Q1332.14 1185.75 1332.8 1186.37 Q1333.45 1186.94 1333.45 1188.01 Q1333.45 1188.54 1332.88 1190.88 L1329.85 1202.6 L1328 1210.18 Q1327.31 1212.97 1327.1 1214 Q1326.94 1215.02 1326.94 1216.37 Q1326.94 1220.23 1329.44 1220.23 Q1330.67 1220.23 1331.65 1219.45 Q1332.63 1218.67 1333.41 1217.03 Q1334.19 1215.39 1334.68 1213.87 Q1335.18 1212.32 1335.83 1209.86 Q1336.04 1208.87 1336.2 1208.63 Q1336.4 1208.34 1336.98 1208.34 Q1338 1208.34 1338 1209.16 M1326.49 1193.3 Q1326.49 1192.93 1326.2 1191.9 Q1325.91 1190.88 1325.26 1189.44 Q1324.6 1188.01 1323.17 1186.98 Q1321.77 1185.92 1319.89 1185.92 Q1317.34 1185.92 1314.68 1188.09 Q1312.06 1190.26 1310.13 1193.95 Q1308.66 1196.9 1307.06 1203.09 Q1305.5 1209.28 1305.5 1212.36 Q1305.5 1214.24 1305.91 1215.92 Q1306.36 1217.56 1307.63 1218.91 Q1308.9 1220.23 1310.87 1220.23 Q1315.66 1220.23 1320.38 1214.28 Q1321.28 1213.26 1321.48 1212.85 Q1321.73 1212.4 1322.06 1211.17 L1326.24 1194.73 Q1326.49 1193.5 1326.49 1193.3 Z" fill="#000000" fill-rule="nonzero" fill-opacity="1" /><path clip-path="url(#clip740)" d="M1152.66 1244.51 L1346.59 1244.51 L1346.59 1240.03 L1152.66 1240.03  Z" fill="#000000" fill-rule="evenodd" fill-opacity="1"/>
<path clip-path="url(#clip740)" d="M1228.66 1317.8 Q1228.66 1316.29 1228.78 1315.83 Q1228.95 1315.38 1229.6 1314.69 L1245.71 1296.73 Q1254.53 1286.81 1254.53 1278.17 Q1254.53 1272.55 1251.57 1268.53 Q1248.66 1264.52 1243.29 1264.52 Q1239.61 1264.52 1236.49 1266.77 Q1233.38 1269.02 1231.94 1273.04 Q1232.19 1272.96 1233.05 1272.96 Q1235.14 1272.96 1236.29 1274.27 Q1237.47 1275.58 1237.47 1277.35 Q1237.47 1279.6 1236 1280.71 Q1234.56 1281.77 1233.13 1281.77 Q1232.56 1281.77 1231.78 1281.65 Q1231.04 1281.53 1229.85 1280.38 Q1228.66 1279.19 1228.66 1277.1 Q1228.66 1271.24 1233.09 1266.57 Q1237.56 1261.89 1244.36 1261.89 Q1252.07 1261.89 1257.11 1266.48 Q1262.19 1271.03 1262.19 1278.17 Q1262.19 1280.67 1261.41 1282.96 Q1260.67 1285.22 1259.65 1286.98 Q1258.67 1288.74 1255.96 1291.57 Q1253.26 1294.4 1251.08 1296.41 Q1248.91 1298.41 1244.03 1302.68 L1235.14 1311.33 L1250.26 1311.33 Q1257.64 1311.33 1258.21 1310.67 Q1259.03 1309.48 1260.06 1303.21 L1262.19 1303.21 L1259.81 1317.8 L1228.66 1317.8 Z" fill="#000000" fill-rule="nonzero" fill-opacity="1" /><path clip-path="url(#clip740)" d="M1355.55 1242.06 Q1355.55 1227.88 1360.84 1216.44 Q1363.1 1211.65 1366.25 1207.63 Q1369.41 1203.61 1371.5 1201.85 Q1373.59 1200.09 1374.16 1200.09 Q1374.98 1200.09 1375.02 1200.91 Q1375.02 1201.32 1373.92 1202.34 Q1360.39 1216.12 1360.43 1242.06 Q1360.43 1268.09 1373.59 1281.33 Q1375.02 1282.76 1375.02 1283.21 Q1375.02 1284.03 1374.16 1284.03 Q1373.59 1284.03 1371.58 1282.35 Q1369.57 1280.67 1366.46 1276.82 Q1363.34 1272.97 1361.09 1268.25 Q1355.55 1256.82 1355.55 1242.06 Z" fill="#000000" fill-rule="nonzero" fill-opacity="1" /><path clip-path="url(#clip740)" d="M1438.6 1209.64 Q1438.6 1211.89 1437.16 1213.29 Q1435.77 1214.68 1434.01 1214.68 Q1432.74 1214.68 1431.79 1213.9 Q1430.89 1213.12 1430.89 1211.77 Q1430.89 1210.38 1431.96 1208.9 Q1433.02 1207.43 1435.44 1207.22 Q1433.84 1205.7 1431.3 1205.7 Q1430.03 1205.7 1428.96 1206.52 Q1427.94 1207.3 1427.37 1208.57 Q1426.75 1209.88 1425.36 1217.3 Q1424.91 1219.72 1424.5 1222.06 Q1424.09 1224.4 1423.59 1226.85 L1430.56 1226.85 Q1431.46 1226.85 1431.83 1226.9 Q1432.2 1226.94 1432.49 1227.14 Q1432.82 1227.35 1432.82 1227.8 Q1432.82 1228.94 1432.28 1229.23 Q1431.79 1229.48 1430.32 1229.48 L1423.1 1229.48 L1418.06 1256.08 Q1417.94 1256.86 1417.41 1259.32 Q1416.91 1261.74 1415.72 1265.71 Q1414.54 1269.73 1413.35 1272.11 Q1412.69 1273.46 1411.83 1274.73 Q1411.01 1276.04 1409.82 1277.35 Q1408.63 1278.66 1407.08 1279.44 Q1405.52 1280.26 1403.88 1280.26 Q1401.09 1280.26 1398.92 1278.71 Q1396.75 1277.15 1396.75 1274.48 Q1396.75 1272.23 1398.14 1270.84 Q1399.58 1269.44 1401.34 1269.44 Q1402.61 1269.44 1403.51 1270.22 Q1404.45 1271 1404.45 1272.35 Q1404.45 1272.93 1404.25 1273.58 Q1404.04 1274.24 1403.59 1274.98 Q1403.14 1275.75 1402.16 1276.29 Q1401.17 1276.82 1399.82 1276.9 Q1401.42 1278.42 1403.88 1278.42 Q1404.66 1278.42 1405.35 1278.09 Q1406.05 1277.8 1406.63 1277.07 Q1407.24 1276.33 1407.69 1275.59 Q1408.14 1274.89 1408.59 1273.54 Q1409.04 1272.23 1409.33 1271.25 Q1409.62 1270.26 1409.99 1268.5 Q1410.4 1266.74 1410.6 1265.67 Q1410.81 1264.65 1411.18 1262.64 L1417.45 1229.48 L1411.91 1229.48 Q1410.93 1229.48 1410.52 1229.44 Q1410.15 1229.4 1409.86 1229.19 Q1409.58 1228.94 1409.58 1228.45 Q1409.58 1227.67 1409.9 1227.35 Q1410.27 1226.98 1410.68 1226.94 Q1411.09 1226.85 1412.08 1226.85 L1417.9 1226.85 Q1419.86 1216.48 1420.64 1213.7 Q1421.55 1210.75 1422.94 1208.7 Q1424.33 1206.61 1425.89 1205.62 Q1427.45 1204.64 1428.72 1204.27 Q1430.03 1203.86 1431.3 1203.86 Q1434.17 1203.86 1436.38 1205.42 Q1438.6 1206.93 1438.6 1209.64 Z" fill="#000000" fill-rule="nonzero" fill-opacity="1" /><path clip-path="url(#clip740)" d="M1449.9 1242.06 Q1449.9 1227.88 1455.18 1216.44 Q1457.44 1211.65 1460.59 1207.63 Q1463.75 1203.61 1465.84 1201.85 Q1467.93 1200.09 1468.51 1200.09 Q1469.33 1200.09 1469.37 1200.91 Q1469.37 1201.32 1468.26 1202.34 Q1454.73 1216.12 1454.77 1242.06 Q1454.77 1268.09 1467.93 1281.33 Q1469.37 1282.76 1469.37 1283.21 Q1469.37 1284.03 1468.51 1284.03 Q1467.93 1284.03 1465.92 1282.35 Q1463.91 1280.67 1460.8 1276.82 Q1457.68 1272.97 1455.43 1268.25 Q1449.9 1256.82 1449.9 1242.06 Z" fill="#000000" fill-rule="nonzero" fill-opacity="1" /><path clip-path="url(#clip740)" d="M1515.54 1251.04 Q1514.43 1256.33 1513 1259.36 Q1510.7 1263.99 1506.81 1263.99 Q1503.86 1263.99 1501.77 1262.19 Q1499.67 1260.38 1499.18 1257.68 Q1493.81 1263.99 1488.24 1263.99 Q1483.32 1263.99 1480.21 1260.26 Q1477.09 1256.49 1477.09 1250.55 Q1477.09 1244.56 1480.04 1238.82 Q1483.03 1233.08 1487.75 1229.52 Q1492.46 1225.95 1497.3 1225.95 Q1502.42 1225.95 1505.04 1231.32 Q1505.25 1229.85 1506.19 1228.74 Q1507.13 1227.63 1508.57 1227.63 Q1509.68 1227.63 1510.33 1228.25 Q1510.99 1228.82 1510.99 1229.89 Q1510.99 1230.42 1510.41 1232.76 L1507.38 1244.48 L1505.54 1252.06 Q1504.84 1254.85 1504.63 1255.87 Q1504.47 1256.9 1504.47 1258.25 Q1504.47 1262.11 1506.97 1262.11 Q1508.2 1262.11 1509.18 1261.33 Q1510.17 1260.55 1510.95 1258.91 Q1511.73 1257.27 1512.22 1255.75 Q1512.71 1254.19 1513.37 1251.73 Q1513.57 1250.75 1513.73 1250.51 Q1513.94 1250.22 1514.51 1250.22 Q1515.54 1250.22 1515.54 1251.04 M1504.02 1235.18 Q1504.02 1234.81 1503.73 1233.78 Q1503.45 1232.76 1502.79 1231.32 Q1502.13 1229.89 1500.7 1228.86 Q1499.31 1227.8 1497.42 1227.8 Q1494.88 1227.8 1492.21 1229.97 Q1489.59 1232.14 1487.67 1235.83 Q1486.19 1238.78 1484.59 1244.97 Q1483.03 1251.16 1483.03 1254.24 Q1483.03 1256.12 1483.44 1257.8 Q1483.89 1259.44 1485.16 1260.79 Q1486.44 1262.11 1488.4 1262.11 Q1493.2 1262.11 1497.91 1256.16 Q1498.81 1255.14 1499.02 1254.73 Q1499.27 1254.28 1499.59 1253.05 L1503.77 1236.61 Q1504.02 1235.38 1504.02 1235.18 Z" fill="#000000" fill-rule="nonzero" fill-opacity="1" /><path clip-path="url(#clip740)" d="M1522.4 1283.21 Q1522.4 1282.8 1523.47 1281.78 Q1536.99 1268.01 1536.99 1242.06 Q1536.99 1216.03 1524 1202.88 Q1522.4 1201.36 1522.4 1200.91 Q1522.4 1200.09 1523.22 1200.09 Q1523.79 1200.09 1525.8 1201.77 Q1527.85 1203.45 1530.93 1207.3 Q1534.04 1211.16 1536.34 1215.87 Q1541.87 1227.31 1541.87 1242.06 Q1541.87 1256.24 1536.58 1267.68 Q1534.33 1272.48 1531.17 1276.49 Q1528.01 1280.51 1525.92 1282.27 Q1523.83 1284.03 1523.22 1284.03 Q1522.4 1284.03 1522.4 1283.21 Z" fill="#000000" fill-rule="nonzero" fill-opacity="1" /><path clip-path="url(#clip740)" d="M1579.85 1243.09 Q1577.92 1243.09 1577.92 1242.06 Q1577.92 1241.04 1579.93 1241.04 Q1580.18 1241.04 1580.59 1241.08 Q1581.04 1241.12 1581.12 1241.12 L1604.77 1241.12 L1604.77 1217.39 Q1604.77 1217.3 1604.73 1216.93 Q1604.69 1216.53 1604.69 1216.28 Q1604.69 1214.27 1605.67 1214.27 Q1606.7 1214.27 1606.7 1216.28 L1606.7 1241.12 L1630.39 1241.12 Q1630.47 1241.12 1630.88 1241.08 Q1631.29 1241.04 1631.54 1241.04 Q1633.46 1241.04 1633.46 1242.06 Q1633.5 1243.09 1631.46 1243.09 Q1631.21 1243.09 1630.84 1243.05 Q1630.47 1243 1630.39 1243 L1606.7 1243 L1606.7 1267.93 Q1606.7 1269.85 1605.67 1269.85 Q1604.69 1269.85 1604.69 1267.84 Q1604.69 1267.6 1604.73 1267.19 Q1604.77 1266.82 1604.77 1266.74 L1604.77 1243 L1581.12 1243 Q1581.04 1243 1580.55 1243.05 Q1580.1 1243.09 1579.85 1243.09 Z" fill="#000000" fill-rule="nonzero" fill-opacity="1" /><path clip-path="url(#clip740)" d="M1707.73 1209.64 Q1707.73 1211.89 1706.3 1213.29 Q1704.9 1214.68 1703.14 1214.68 Q1701.87 1214.68 1700.93 1213.9 Q1700.03 1213.12 1700.03 1211.77 Q1700.03 1210.38 1701.09 1208.9 Q1702.16 1207.43 1704.58 1207.22 Q1702.98 1205.7 1700.44 1205.7 Q1699.17 1205.7 1698.1 1206.52 Q1697.08 1207.3 1696.5 1208.57 Q1695.89 1209.88 1694.49 1217.3 Q1694.04 1219.72 1693.63 1222.06 Q1693.22 1224.4 1692.73 1226.85 L1699.7 1226.85 Q1700.6 1226.85 1700.97 1226.9 Q1701.34 1226.94 1701.63 1227.14 Q1701.95 1227.35 1701.95 1227.8 Q1701.95 1228.94 1701.42 1229.23 Q1700.93 1229.48 1699.45 1229.48 L1692.24 1229.48 L1687.2 1256.08 Q1687.07 1256.86 1686.54 1259.32 Q1686.05 1261.74 1684.86 1265.71 Q1683.67 1269.73 1682.48 1272.11 Q1681.83 1273.46 1680.97 1274.73 Q1680.15 1276.04 1678.96 1277.35 Q1677.77 1278.66 1676.21 1279.44 Q1674.65 1280.26 1673.02 1280.26 Q1670.23 1280.26 1668.06 1278.71 Q1665.88 1277.15 1665.88 1274.48 Q1665.88 1272.23 1667.28 1270.84 Q1668.71 1269.44 1670.47 1269.44 Q1671.74 1269.44 1672.65 1270.22 Q1673.59 1271 1673.59 1272.35 Q1673.59 1272.93 1673.38 1273.58 Q1673.18 1274.24 1672.73 1274.98 Q1672.28 1275.75 1671.29 1276.29 Q1670.31 1276.82 1668.96 1276.9 Q1670.56 1278.42 1673.02 1278.42 Q1673.79 1278.42 1674.49 1278.09 Q1675.19 1277.8 1675.76 1277.07 Q1676.38 1276.33 1676.83 1275.59 Q1677.28 1274.89 1677.73 1273.54 Q1678.18 1272.23 1678.47 1271.25 Q1678.75 1270.26 1679.12 1268.5 Q1679.53 1266.74 1679.74 1265.67 Q1679.94 1264.65 1680.31 1262.64 L1686.58 1229.48 L1681.05 1229.48 Q1680.07 1229.48 1679.66 1229.44 Q1679.29 1229.4 1679 1229.19 Q1678.71 1228.94 1678.71 1228.45 Q1678.71 1227.67 1679.04 1227.35 Q1679.41 1226.98 1679.82 1226.94 Q1680.23 1226.85 1681.21 1226.85 L1687.03 1226.85 Q1689 1216.48 1689.78 1213.7 Q1690.68 1210.75 1692.08 1208.7 Q1693.47 1206.61 1695.03 1205.62 Q1696.58 1204.64 1697.85 1204.27 Q1699.17 1203.86 1700.44 1203.86 Q1703.31 1203.86 1705.52 1205.42 Q1707.73 1206.93 1707.73 1209.64 Z" fill="#000000" fill-rule="nonzero" fill-opacity="1" /><path clip-path="url(#clip740)" d="M1719.03 1242.06 Q1719.03 1227.88 1724.32 1216.44 Q1726.57 1211.65 1729.73 1207.63 Q1732.89 1203.61 1734.98 1201.85 Q1737.07 1200.09 1737.64 1200.09 Q1738.46 1200.09 1738.5 1200.91 Q1738.5 1201.32 1737.4 1202.34 Q1723.87 1216.12 1723.91 1242.06 Q1723.91 1268.09 1737.07 1281.33 Q1738.5 1282.76 1738.5 1283.21 Q1738.5 1284.03 1737.64 1284.03 Q1737.07 1284.03 1735.06 1282.35 Q1733.05 1280.67 1729.94 1276.82 Q1726.82 1272.97 1724.57 1268.25 Q1719.03 1256.82 1719.03 1242.06 Z" fill="#000000" fill-rule="nonzero" fill-opacity="1" /><path clip-path="url(#clip740)" d="M1777.47 1239.36 Q1777.47 1245.26 1774.48 1251.04 Q1771.52 1256.78 1766.77 1260.38 Q1762.06 1263.99 1757.22 1263.99 Q1752.51 1263.99 1749.51 1260.38 Q1746.56 1256.74 1746.56 1250.79 Q1746.56 1248.7 1746.81 1247.23 Q1747.05 1245.75 1747.91 1242.31 L1754.8 1214.93 Q1755.99 1209.8 1755.99 1209.76 Q1755.99 1209.27 1755.78 1209.02 Q1755.62 1208.74 1754.64 1208.53 Q1753.65 1208.33 1751.77 1208.33 Q1750.99 1208.33 1750.62 1208.29 Q1750.29 1208.25 1750.01 1208.04 Q1749.76 1207.79 1749.76 1207.3 Q1749.76 1206.61 1750.05 1206.24 Q1750.37 1205.83 1750.62 1205.74 Q1750.87 1205.66 1751.36 1205.62 Q1752.05 1205.58 1754.39 1205.38 Q1756.73 1205.13 1758.74 1204.97 Q1760.74 1204.8 1761.61 1204.8 Q1762.1 1204.8 1762.34 1205.05 Q1762.63 1205.25 1762.63 1205.5 L1762.67 1205.7 L1756.48 1230.99 Q1761.36 1225.95 1766.32 1225.95 Q1771.28 1225.95 1774.35 1229.76 Q1777.47 1233.58 1777.47 1239.36 M1771.4 1235.67 Q1771.4 1231.77 1769.93 1229.81 Q1768.49 1227.8 1766.11 1227.8 Q1764.11 1227.8 1761.48 1229.31 Q1758.86 1230.83 1756.07 1234.52 Q1755.54 1235.22 1755.33 1235.63 Q1755.17 1236.04 1754.8 1237.43 L1752.96 1245.18 Q1751.6 1250.46 1751.6 1253.66 Q1751.6 1258.01 1753.2 1260.06 Q1754.8 1262.11 1757.22 1262.11 Q1759.76 1262.11 1762.42 1259.85 Q1765.09 1257.6 1767.14 1253.5 Q1768.41 1250.79 1769.88 1244.97 Q1771.4 1239.11 1771.4 1235.67 Z" fill="#000000" fill-rule="nonzero" fill-opacity="1" /><path clip-path="url(#clip740)" d="M1783.55 1283.21 Q1783.55 1282.8 1784.62 1281.78 Q1798.14 1268.01 1798.14 1242.06 Q1798.14 1216.03 1785.15 1202.88 Q1783.55 1201.36 1783.55 1200.91 Q1783.55 1200.09 1784.37 1200.09 Q1784.94 1200.09 1786.95 1201.77 Q1789 1203.45 1792.08 1207.3 Q1795.19 1211.16 1797.49 1215.87 Q1803.02 1227.31 1803.02 1242.06 Q1803.02 1256.24 1797.73 1267.68 Q1795.48 1272.48 1792.32 1276.49 Q1789.16 1280.51 1787.07 1282.27 Q1784.98 1284.03 1784.37 1284.03 Q1783.55 1284.03 1783.55 1283.21 Z" fill="#000000" fill-rule="nonzero" fill-opacity="1" /><path clip-path="url(#clip740)" d="M1811.79 1283.21 Q1811.79 1282.8 1812.86 1281.78 Q1826.38 1268.01 1826.38 1242.06 Q1826.38 1216.03 1813.39 1202.88 Q1811.79 1201.36 1811.79 1200.91 Q1811.79 1200.09 1812.61 1200.09 Q1813.18 1200.09 1815.19 1201.77 Q1817.24 1203.45 1820.32 1207.3 Q1823.43 1211.16 1825.73 1215.87 Q1831.26 1227.31 1831.26 1242.06 Q1831.26 1256.24 1825.97 1267.68 Q1823.72 1272.48 1820.56 1276.49 Q1817.41 1280.51 1815.32 1282.27 Q1813.23 1284.03 1812.61 1284.03 Q1811.79 1284.03 1811.79 1283.21 Z" fill="#000000" fill-rule="nonzero" fill-opacity="1" /></svg>
