<?xml version="1.0" encoding="utf-8"?>
<svg xmlns="http://www.w3.org/2000/svg" xmlns:xlink="http://www.w3.org/1999/xlink" width="600" height="400" viewBox="0 0 2400 1600">
<defs>
  <clipPath id="clip210">
    <rect x="0" y="0" width="2400" height="1600"/>
  </clipPath>
</defs>
<path clip-path="url(#clip210)" d="M0 1600 L2400 1600 L2400 0 L0 0  Z" fill="#ffffff" fill-rule="evenodd" fill-opacity="1"/>
<defs>
  <clipPath id="clip211">
    <rect x="480" y="0" width="1681" height="1600"/>
  </clipPath>
</defs>
<path clip-path="url(#clip210)" d="M189.496 1410.9 L2352.76 1410.9 L2352.76 47.2441 L189.496 47.2441  Z" fill="#ffffff" fill-rule="evenodd" fill-opacity="1"/>
<defs>
  <clipPath id="clip212">
    <rect x="189" y="47" width="2164" height="1365"/>
  </clipPath>
</defs>
<polyline clip-path="url(#clip212)" style="stroke:#000000; stroke-linecap:round; stroke-linejoin:round; stroke-width:2; stroke-opacity:0.1; fill:none" points="698.027,1410.9 698.027,47.2441 "/>
<polyline clip-path="url(#clip212)" style="stroke:#000000; stroke-linecap:round; stroke-linejoin:round; stroke-width:2; stroke-opacity:0.1; fill:none" points="1601.95,1410.9 1601.95,47.2441 "/>
<polyline clip-path="url(#clip210)" style="stroke:#000000; stroke-linecap:round; stroke-linejoin:round; stroke-width:4; stroke-opacity:1; fill:none" points="189.496,1410.9 2352.76,1410.9 "/>
<polyline clip-path="url(#clip210)" style="stroke:#000000; stroke-linecap:round; stroke-linejoin:round; stroke-width:4; stroke-opacity:1; fill:none" points="698.027,1410.9 698.027,1392 "/>
<polyline clip-path="url(#clip210)" style="stroke:#000000; stroke-linecap:round; stroke-linejoin:round; stroke-width:4; stroke-opacity:1; fill:none" points="1601.95,1410.9 1601.95,1392 "/>
<path clip-path="url(#clip210)" d="M662.483 1485.02 L670.122 1485.02 L670.122 1458.66 L661.812 1460.32 L661.812 1456.06 L670.076 1454.4 L674.752 1454.4 L674.752 1485.02 L682.39 1485.02 L682.39 1488.96 L662.483 1488.96 L662.483 1485.02 Z" fill="#000000" fill-rule="nonzero" fill-opacity="1" /><path clip-path="url(#clip210)" d="M701.835 1457.48 Q698.224 1457.48 696.395 1461.04 Q694.589 1464.58 694.589 1471.71 Q694.589 1478.82 696.395 1482.38 Q698.224 1485.92 701.835 1485.92 Q705.469 1485.92 707.275 1482.38 Q709.103 1478.82 709.103 1471.71 Q709.103 1464.58 707.275 1461.04 Q705.469 1457.48 701.835 1457.48 M701.835 1453.77 Q707.645 1453.77 710.701 1458.38 Q713.779 1462.96 713.779 1471.71 Q713.779 1480.44 710.701 1485.04 Q707.645 1489.63 701.835 1489.63 Q696.025 1489.63 692.946 1485.04 Q689.89 1480.44 689.89 1471.71 Q689.89 1462.96 692.946 1458.38 Q696.025 1453.77 701.835 1453.77 Z" fill="#000000" fill-rule="nonzero" fill-opacity="1" /><path clip-path="url(#clip210)" d="M726.456 1436.78 L716.864 1451.77 L726.456 1451.77 L726.456 1436.78 M725.459 1433.47 L730.236 1433.47 L730.236 1451.77 L734.242 1451.77 L734.242 1454.93 L730.236 1454.93 L730.236 1461.55 L726.456 1461.55 L726.456 1454.93 L713.779 1454.93 L713.779 1451.26 L725.459 1433.47 Z" fill="#000000" fill-rule="nonzero" fill-opacity="1" /><path clip-path="url(#clip210)" d="M1566.94 1485.02 L1574.58 1485.02 L1574.58 1458.66 L1566.27 1460.32 L1566.27 1456.06 L1574.54 1454.4 L1579.21 1454.4 L1579.21 1485.02 L1586.85 1485.02 L1586.85 1488.96 L1566.94 1488.96 L1566.94 1485.02 Z" fill="#000000" fill-rule="nonzero" fill-opacity="1" /><path clip-path="url(#clip210)" d="M1606.29 1457.48 Q1602.68 1457.48 1600.85 1461.04 Q1599.05 1464.58 1599.05 1471.71 Q1599.05 1478.82 1600.85 1482.38 Q1602.68 1485.92 1606.29 1485.92 Q1609.93 1485.92 1611.73 1482.38 Q1613.56 1478.82 1613.56 1471.71 Q1613.56 1464.58 1611.73 1461.04 Q1609.93 1457.48 1606.29 1457.48 M1606.29 1453.77 Q1612.1 1453.77 1615.16 1458.38 Q1618.24 1462.96 1618.24 1471.71 Q1618.24 1480.44 1615.16 1485.04 Q1612.1 1489.63 1606.29 1489.63 Q1600.48 1489.63 1597.41 1485.04 Q1594.35 1480.44 1594.35 1471.71 Q1594.35 1462.96 1597.41 1458.38 Q1600.48 1453.77 1606.29 1453.77 Z" fill="#000000" fill-rule="nonzero" fill-opacity="1" /><path clip-path="url(#clip210)" d="M1628.26 1445.99 Q1625.71 1445.99 1624.2 1447.74 Q1622.72 1449.49 1622.72 1452.54 Q1622.72 1455.57 1624.2 1457.33 Q1625.71 1459.08 1628.26 1459.08 Q1630.82 1459.08 1632.31 1457.33 Q1633.81 1455.57 1633.81 1452.54 Q1633.81 1449.49 1632.31 1447.74 Q1630.82 1445.99 1628.26 1445.99 M1635.81 1434.09 L1635.81 1437.55 Q1634.38 1436.87 1632.91 1436.51 Q1631.46 1436.16 1630.03 1436.16 Q1626.27 1436.16 1624.28 1438.69 Q1622.3 1441.23 1622.02 1446.37 Q1623.13 1444.73 1624.8 1443.87 Q1626.48 1442.98 1628.49 1442.98 Q1632.72 1442.98 1635.17 1445.56 Q1637.63 1448.12 1637.63 1452.54 Q1637.63 1456.86 1635.07 1459.48 Q1632.51 1462.09 1628.26 1462.09 Q1623.39 1462.09 1620.82 1458.37 Q1618.24 1454.62 1618.24 1447.53 Q1618.24 1440.88 1621.4 1436.93 Q1624.56 1432.96 1629.88 1432.96 Q1631.31 1432.96 1632.76 1433.24 Q1634.23 1433.52 1635.81 1434.09 Z" fill="#000000" fill-rule="nonzero" fill-opacity="1" /><path clip-path="url(#clip210)" d="M886.351 1539.59 L886.351 1545.13 Q883.868 1543.85 881.195 1543.22 Q878.521 1542.58 875.656 1542.58 Q871.296 1542.58 869.1 1543.92 Q866.935 1545.25 866.935 1547.93 Q866.935 1549.96 868.495 1551.14 Q870.055 1552.29 874.765 1553.34 L876.77 1553.78 Q883.009 1555.12 885.619 1557.57 Q888.26 1559.99 888.26 1564.35 Q888.26 1569.32 884.314 1572.21 Q880.399 1575.11 873.524 1575.11 Q870.659 1575.11 867.54 1574.54 Q864.453 1573.99 861.015 1572.88 L861.015 1566.83 Q864.262 1568.52 867.413 1569.38 Q870.564 1570.21 873.651 1570.21 Q877.789 1570.21 880.017 1568.81 Q882.245 1567.37 882.245 1564.8 Q882.245 1562.41 880.622 1561.14 Q879.03 1559.86 873.588 1558.68 L871.551 1558.21 Q866.108 1557.06 863.689 1554.71 Q861.27 1552.32 861.27 1548.18 Q861.27 1543.15 864.835 1540.42 Q868.399 1537.68 874.956 1537.68 Q878.203 1537.68 881.067 1538.16 Q883.932 1538.63 886.351 1539.59 M872.792 1534.02 L864.994 1522.05 L869.418 1522.05 L875.147 1529.85 L880.876 1522.05 L885.3 1522.05 L877.502 1534.02 L872.792 1534.02 M875.02 1537.68 L875.02 1537.68 Z" fill="#000000" fill-rule="nonzero" fill-opacity="1" /><path clip-path="url(#clip210)" d="M903.379 1528.42 L903.379 1538.54 L915.442 1538.54 L915.442 1543.09 L903.379 1543.09 L903.379 1562.44 Q903.379 1566.8 904.557 1568.04 Q905.766 1569.28 909.426 1569.28 L915.442 1569.28 L915.442 1574.19 L909.426 1574.19 Q902.647 1574.19 900.069 1571.67 Q897.491 1569.12 897.491 1562.44 L897.491 1543.09 L893.194 1543.09 L893.194 1538.54 L897.491 1538.54 L897.491 1528.42 L903.379 1528.42 Z" fill="#000000" fill-rule="nonzero" fill-opacity="1" /><path clip-path="url(#clip210)" d="M953.636 1554.9 L953.636 1557.76 L926.709 1557.76 Q927.091 1563.81 930.338 1566.99 Q933.616 1570.14 939.441 1570.14 Q942.815 1570.14 945.966 1569.32 Q949.148 1568.49 952.268 1566.83 L952.268 1572.37 Q949.117 1573.71 945.806 1574.41 Q942.496 1575.11 939.091 1575.11 Q930.561 1575.11 925.564 1570.14 Q920.598 1565.18 920.598 1556.71 Q920.598 1547.96 925.309 1542.83 Q930.051 1537.68 938.072 1537.68 Q945.265 1537.68 949.435 1542.33 Q953.636 1546.94 953.636 1554.9 M947.78 1553.18 Q947.716 1548.37 945.074 1545.51 Q942.464 1542.64 938.136 1542.64 Q933.234 1542.64 930.274 1545.41 Q927.346 1548.18 926.9 1553.21 L947.78 1553.18 Z" fill="#000000" fill-rule="nonzero" fill-opacity="1" /><path clip-path="url(#clip210)" d="M959.047 1538.54 L965.254 1538.54 L976.394 1568.46 L987.534 1538.54 L993.74 1538.54 L980.372 1574.19 L972.415 1574.19 L959.047 1538.54 Z" fill="#000000" fill-rule="nonzero" fill-opacity="1" /><path clip-path="url(#clip210)" d="M1001.82 1538.54 L1007.68 1538.54 L1007.68 1574.19 L1001.82 1574.19 L1001.82 1538.54 M1001.82 1524.66 L1007.68 1524.66 L1007.68 1532.08 L1001.82 1532.08 L1001.82 1524.66 Z" fill="#000000" fill-rule="nonzero" fill-opacity="1" /><path clip-path="url(#clip210)" d="M1019.94 1524.66 L1025.79 1524.66 L1025.79 1574.19 L1019.94 1574.19 L1019.94 1524.66 Z" fill="#000000" fill-rule="nonzero" fill-opacity="1" /><path clip-path="url(#clip210)" d="M1051.86 1542.64 Q1047.15 1542.64 1044.41 1546.34 Q1041.67 1550 1041.67 1556.39 Q1041.67 1562.79 1044.38 1566.48 Q1047.12 1570.14 1051.86 1570.14 Q1056.54 1570.14 1059.28 1566.45 Q1062.01 1562.76 1062.01 1556.39 Q1062.01 1550.06 1059.28 1546.37 Q1056.54 1542.64 1051.86 1542.64 M1051.86 1537.68 Q1059.5 1537.68 1063.86 1542.64 Q1068.22 1547.61 1068.22 1556.39 Q1068.22 1565.15 1063.86 1570.14 Q1059.5 1575.11 1051.86 1575.11 Q1044.19 1575.11 1039.83 1570.14 Q1035.5 1565.15 1035.5 1556.39 Q1035.5 1547.61 1039.83 1542.64 Q1044.19 1537.68 1051.86 1537.68 Z" fill="#000000" fill-rule="nonzero" fill-opacity="1" /><path clip-path="url(#clip210)" d="M1098.65 1538.54 L1104.5 1538.54 L1104.5 1574.19 L1098.65 1574.19 L1098.65 1538.54 M1098.65 1524.66 L1104.5 1524.66 L1104.5 1532.08 L1098.65 1532.08 L1098.65 1524.66 Z" fill="#000000" fill-rule="nonzero" fill-opacity="1" /><path clip-path="url(#clip210)" d="M1114.21 1538.54 L1142.03 1538.54 L1142.03 1543.88 L1120 1569.51 L1142.03 1569.51 L1142.03 1574.19 L1113.42 1574.19 L1113.42 1568.84 L1135.44 1543.22 L1114.21 1543.22 L1114.21 1538.54 Z" fill="#000000" fill-rule="nonzero" fill-opacity="1" /><path clip-path="url(#clip210)" d="M1171.63 1544.01 Q1170.64 1543.44 1169.47 1543.18 Q1168.32 1542.9 1166.92 1542.9 Q1161.95 1542.9 1159.28 1546.14 Q1156.64 1549.36 1156.64 1555.41 L1156.64 1574.19 L1150.75 1574.19 L1150.75 1538.54 L1156.64 1538.54 L1156.64 1544.08 Q1158.48 1540.83 1161.44 1539.27 Q1164.4 1537.68 1168.64 1537.68 Q1169.24 1537.68 1169.97 1537.77 Q1170.71 1537.84 1171.6 1538 L1171.63 1544.01 Z" fill="#000000" fill-rule="nonzero" fill-opacity="1" /><path clip-path="url(#clip210)" d="M1193.97 1556.27 Q1186.88 1556.27 1184.14 1557.89 Q1181.4 1559.51 1181.4 1563.43 Q1181.4 1566.55 1183.44 1568.39 Q1185.51 1570.21 1189.04 1570.21 Q1193.91 1570.21 1196.84 1566.77 Q1199.8 1563.3 1199.8 1557.57 L1199.8 1556.27 L1193.97 1556.27 M1205.65 1553.85 L1205.65 1574.19 L1199.8 1574.19 L1199.8 1568.77 Q1197.79 1572.02 1194.8 1573.58 Q1191.81 1575.11 1187.48 1575.11 Q1182.01 1575.11 1178.76 1572.05 Q1175.54 1568.97 1175.54 1563.81 Q1175.54 1557.79 1179.56 1554.74 Q1183.6 1551.68 1191.59 1551.68 L1199.8 1551.68 L1199.8 1551.11 Q1199.8 1547.07 1197.12 1544.87 Q1194.48 1542.64 1189.68 1542.64 Q1186.62 1542.64 1183.72 1543.38 Q1180.83 1544.11 1178.15 1545.57 L1178.15 1540.16 Q1181.37 1538.92 1184.39 1538.31 Q1187.42 1537.68 1190.28 1537.68 Q1198.02 1537.68 1201.84 1541.69 Q1205.65 1545.7 1205.65 1553.85 Z" fill="#000000" fill-rule="nonzero" fill-opacity="1" /><path clip-path="url(#clip210)" d="M1243.37 1539.91 L1243.37 1545.38 Q1240.89 1544.01 1238.37 1543.34 Q1235.89 1542.64 1233.35 1542.64 Q1227.65 1542.64 1224.5 1546.27 Q1221.35 1549.87 1221.35 1556.39 Q1221.35 1562.92 1224.5 1566.55 Q1227.65 1570.14 1233.35 1570.14 Q1235.89 1570.14 1238.37 1569.47 Q1240.89 1568.77 1243.37 1567.41 L1243.37 1572.82 Q1240.92 1573.96 1238.28 1574.54 Q1235.67 1575.11 1232.71 1575.11 Q1224.66 1575.11 1219.91 1570.05 Q1215.17 1564.99 1215.17 1556.39 Q1215.17 1547.67 1219.95 1542.68 Q1224.75 1537.68 1233.09 1537.68 Q1235.8 1537.68 1238.37 1538.25 Q1240.95 1538.79 1243.37 1539.91 M1229.88 1534.02 L1222.08 1522.05 L1226.5 1522.05 L1232.23 1529.85 L1237.96 1522.05 L1242.38 1522.05 L1234.59 1534.02 L1229.88 1534.02 Z" fill="#000000" fill-rule="nonzero" fill-opacity="1" /><path clip-path="url(#clip210)" d="M1252.95 1560.12 L1252.95 1538.54 L1258.81 1538.54 L1258.81 1559.89 Q1258.81 1564.96 1260.78 1567.5 Q1262.76 1570.02 1266.7 1570.02 Q1271.44 1570.02 1274.18 1566.99 Q1276.95 1563.97 1276.95 1558.75 L1276.95 1538.54 L1282.81 1538.54 L1282.81 1574.19 L1276.95 1574.19 L1276.95 1568.71 Q1274.82 1571.96 1271.99 1573.55 Q1269.18 1575.11 1265.46 1575.11 Q1259.32 1575.11 1256.13 1571.29 Q1252.95 1567.47 1252.95 1560.12 M1267.69 1537.68 L1267.69 1537.68 Z" fill="#000000" fill-rule="nonzero" fill-opacity="1" /><path clip-path="url(#clip210)" d="M1324.5 1552.67 L1324.5 1574.19 L1318.65 1574.19 L1318.65 1552.86 Q1318.65 1547.8 1316.67 1545.29 Q1314.7 1542.77 1310.75 1542.77 Q1306.01 1542.77 1303.27 1545.79 Q1300.54 1548.82 1300.54 1554.04 L1300.54 1574.19 L1294.65 1574.19 L1294.65 1538.54 L1300.54 1538.54 L1300.54 1544.08 Q1302.64 1540.86 1305.47 1539.27 Q1308.33 1537.68 1312.06 1537.68 Q1318.2 1537.68 1321.35 1541.5 Q1324.5 1545.29 1324.5 1552.67 Z" fill="#000000" fill-rule="nonzero" fill-opacity="1" /><path clip-path="url(#clip210)" d="M1350 1542.64 Q1345.29 1542.64 1342.55 1546.34 Q1339.81 1550 1339.81 1556.39 Q1339.81 1562.79 1342.52 1566.48 Q1345.25 1570.14 1350 1570.14 Q1354.68 1570.14 1357.41 1566.45 Q1360.15 1562.76 1360.15 1556.39 Q1360.15 1550.06 1357.41 1546.37 Q1354.68 1542.64 1350 1542.64 M1350 1537.68 Q1357.64 1537.68 1362 1542.64 Q1366.36 1547.61 1366.36 1556.39 Q1366.36 1565.15 1362 1570.14 Q1357.64 1575.11 1350 1575.11 Q1342.33 1575.11 1337.97 1570.14 Q1333.64 1565.15 1333.64 1556.39 Q1333.64 1547.61 1337.97 1542.64 Q1342.33 1537.68 1350 1537.68 Z" fill="#000000" fill-rule="nonzero" fill-opacity="1" /><path clip-path="url(#clip210)" d="M1371.86 1538.54 L1378.07 1538.54 L1389.21 1568.46 L1400.35 1538.54 L1406.56 1538.54 L1393.19 1574.19 L1385.23 1574.19 L1371.86 1538.54 Z" fill="#000000" fill-rule="nonzero" fill-opacity="1" /><path clip-path="url(#clip210)" d="M1453.41 1524.66 L1453.41 1529.53 L1447.81 1529.53 Q1444.66 1529.53 1443.41 1530.8 Q1442.2 1532.08 1442.2 1535.39 L1442.2 1538.54 L1451.85 1538.54 L1451.85 1543.09 L1442.2 1543.09 L1442.2 1574.19 L1436.32 1574.19 L1436.32 1543.09 L1430.71 1543.09 L1430.71 1538.54 L1436.32 1538.54 L1436.32 1536.05 Q1436.32 1530.1 1439.09 1527.4 Q1441.85 1524.66 1447.87 1524.66 L1453.41 1524.66 Z" fill="#000000" fill-rule="nonzero" fill-opacity="1" /><path clip-path="url(#clip210)" d="M1457.7 1560.12 L1457.7 1538.54 L1463.56 1538.54 L1463.56 1559.89 Q1463.56 1564.96 1465.53 1567.5 Q1467.51 1570.02 1471.45 1570.02 Q1476.2 1570.02 1478.93 1566.99 Q1481.7 1563.97 1481.7 1558.75 L1481.7 1538.54 L1487.56 1538.54 L1487.56 1574.19 L1481.7 1574.19 L1481.7 1568.71 Q1479.57 1571.96 1476.74 1573.55 Q1473.94 1575.11 1470.21 1575.11 Q1464.07 1575.11 1460.89 1571.29 Q1457.7 1567.47 1457.7 1560.12 M1472.44 1537.68 L1472.44 1537.68 Z" fill="#000000" fill-rule="nonzero" fill-opacity="1" /><path clip-path="url(#clip210)" d="M1529.26 1552.67 L1529.26 1574.19 L1523.4 1574.19 L1523.4 1552.86 Q1523.4 1547.8 1521.43 1545.29 Q1519.45 1542.77 1515.51 1542.77 Q1510.76 1542.77 1508.03 1545.79 Q1505.29 1548.82 1505.29 1554.04 L1505.29 1574.19 L1499.4 1574.19 L1499.4 1538.54 L1505.29 1538.54 L1505.29 1544.08 Q1507.39 1540.86 1510.22 1539.27 Q1513.09 1537.68 1516.81 1537.68 Q1522.95 1537.68 1526.1 1541.5 Q1529.26 1545.29 1529.26 1552.67 Z" fill="#000000" fill-rule="nonzero" fill-opacity="1" /><path clip-path="url(#clip210)" d="M1540.71 1524.66 L1546.6 1524.66 L1546.6 1553.91 L1564.08 1538.54 L1571.56 1538.54 L1552.65 1555.22 L1572.35 1574.19 L1564.71 1574.19 L1546.6 1556.78 L1546.6 1574.19 L1540.71 1574.19 L1540.71 1524.66 Z" fill="#000000" fill-rule="nonzero" fill-opacity="1" /><path clip-path="url(#clip210)" d="M1604.34 1539.91 L1604.34 1545.38 Q1601.86 1544.01 1599.34 1543.34 Q1596.86 1542.64 1594.31 1542.64 Q1588.62 1542.64 1585.46 1546.27 Q1582.31 1549.87 1582.31 1556.39 Q1582.31 1562.92 1585.46 1566.55 Q1588.62 1570.14 1594.31 1570.14 Q1596.86 1570.14 1599.34 1569.47 Q1601.86 1568.77 1604.34 1567.41 L1604.34 1572.82 Q1601.89 1573.96 1599.25 1574.54 Q1596.64 1575.11 1593.68 1575.11 Q1585.62 1575.11 1580.88 1570.05 Q1576.14 1564.99 1576.14 1556.39 Q1576.14 1547.67 1580.91 1542.68 Q1585.72 1537.68 1594.06 1537.68 Q1596.76 1537.68 1599.34 1538.25 Q1601.92 1538.79 1604.34 1539.91 Z" fill="#000000" fill-rule="nonzero" fill-opacity="1" /><path clip-path="url(#clip210)" d="M1614.52 1538.54 L1620.38 1538.54 L1620.38 1574.19 L1614.52 1574.19 L1614.52 1538.54 M1614.52 1524.66 L1620.38 1524.66 L1620.38 1532.08 L1614.52 1532.08 L1614.52 1524.66 Z" fill="#000000" fill-rule="nonzero" fill-opacity="1" /><path clip-path="url(#clip210)" d="M1632.63 1538.54 L1638.49 1538.54 L1638.49 1574.82 Q1638.49 1581.63 1635.88 1584.69 Q1633.3 1587.74 1627.54 1587.74 L1625.31 1587.74 L1625.31 1582.78 L1626.87 1582.78 Q1630.22 1582.78 1631.42 1581.22 Q1632.63 1579.69 1632.63 1574.82 L1632.63 1538.54 M1632.63 1524.66 L1638.49 1524.66 L1638.49 1532.08 L1632.63 1532.08 L1632.63 1524.66 Z" fill="#000000" fill-rule="nonzero" fill-opacity="1" /><path clip-path="url(#clip210)" d="M1681.24 1554.9 L1681.24 1557.76 L1654.31 1557.76 Q1654.69 1563.81 1657.94 1566.99 Q1661.22 1570.14 1667.04 1570.14 Q1670.41 1570.14 1673.57 1569.32 Q1676.75 1568.49 1679.87 1566.83 L1679.87 1572.37 Q1676.72 1573.71 1673.41 1574.41 Q1670.1 1575.11 1666.69 1575.11 Q1658.16 1575.11 1653.16 1570.14 Q1648.2 1565.18 1648.2 1556.71 Q1648.2 1547.96 1652.91 1542.83 Q1657.65 1537.68 1665.67 1537.68 Q1672.87 1537.68 1677.04 1542.33 Q1681.24 1546.94 1681.24 1554.9 M1675.38 1553.18 Q1675.32 1548.37 1672.67 1545.51 Q1670.06 1542.64 1665.74 1542.64 Q1660.83 1542.64 1657.87 1545.41 Q1654.95 1548.18 1654.5 1553.21 L1675.38 1553.18 Z" fill="#000000" fill-rule="nonzero" fill-opacity="1" /><polyline clip-path="url(#clip212)" style="stroke:#000000; stroke-linecap:round; stroke-linejoin:round; stroke-width:2; stroke-opacity:0.1; fill:none" points="189.496,852.301 2352.76,852.301 "/>
<polyline clip-path="url(#clip212)" style="stroke:#000000; stroke-linecap:round; stroke-linejoin:round; stroke-width:2; stroke-opacity:0.1; fill:none" points="189.496,103.18 2352.76,103.18 "/>
<polyline clip-path="url(#clip210)" style="stroke:#000000; stroke-linecap:round; stroke-linejoin:round; stroke-width:4; stroke-opacity:1; fill:none" points="189.496,1410.9 189.496,47.2441 "/>
<polyline clip-path="url(#clip210)" style="stroke:#000000; stroke-linecap:round; stroke-linejoin:round; stroke-width:4; stroke-opacity:1; fill:none" points="189.496,852.301 208.394,852.301 "/>
<polyline clip-path="url(#clip210)" style="stroke:#000000; stroke-linecap:round; stroke-linejoin:round; stroke-width:4; stroke-opacity:1; fill:none" points="189.496,103.18 208.394,103.18 "/>
<path clip-path="url(#clip210)" d="M51.6634 872.093 L59.3023 872.093 L59.3023 845.728 L50.9921 847.394 L50.9921 843.135 L59.256 841.468 L63.9319 841.468 L63.9319 872.093 L71.5707 872.093 L71.5707 876.028 L51.6634 876.028 L51.6634 872.093 Z" fill="#000000" fill-rule="nonzero" fill-opacity="1" /><path clip-path="url(#clip210)" d="M91.0151 844.547 Q87.404 844.547 85.5753 848.112 Q83.7697 851.653 83.7697 858.783 Q83.7697 865.89 85.5753 869.454 Q87.404 872.996 91.0151 872.996 Q94.6493 872.996 96.4548 869.454 Q98.2835 865.89 98.2835 858.783 Q98.2835 851.653 96.4548 848.112 Q94.6493 844.547 91.0151 844.547 M91.0151 840.843 Q96.8252 840.843 99.8808 845.45 Q102.959 850.033 102.959 858.783 Q102.959 867.51 99.8808 872.116 Q96.8252 876.7 91.0151 876.7 Q85.2049 876.7 82.1262 872.116 Q79.0707 867.51 79.0707 858.783 Q79.0707 850.033 82.1262 845.45 Q85.2049 840.843 91.0151 840.843 Z" fill="#000000" fill-rule="nonzero" fill-opacity="1" /><path clip-path="url(#clip210)" d="M102.959 834.945 L127.071 834.945 L127.071 838.142 L102.959 838.142 L102.959 834.945 Z" fill="#000000" fill-rule="nonzero" fill-opacity="1" /><path clip-path="url(#clip210)" d="M145.71 823.848 L136.118 838.838 L145.71 838.838 L145.71 823.848 M144.713 820.538 L149.49 820.538 L149.49 838.838 L153.496 838.838 L153.496 841.998 L149.49 841.998 L149.49 848.618 L145.71 848.618 L145.71 841.998 L133.033 841.998 L133.033 838.33 L144.713 820.538 Z" fill="#000000" fill-rule="nonzero" fill-opacity="1" /><path clip-path="url(#clip210)" d="M53.3561 122.972 L60.995 122.972 L60.995 96.6065 L52.6848 98.2732 L52.6848 94.014 L60.9487 92.3473 L65.6246 92.3473 L65.6246 122.972 L73.2634 122.972 L73.2634 126.907 L53.3561 126.907 L53.3561 122.972 Z" fill="#000000" fill-rule="nonzero" fill-opacity="1" /><path clip-path="url(#clip210)" d="M92.7078 95.426 Q89.0967 95.426 87.268 98.9908 Q85.4624 102.532 85.4624 109.662 Q85.4624 116.768 87.268 120.333 Q89.0967 123.875 92.7078 123.875 Q96.342 123.875 98.1475 120.333 Q99.9762 116.768 99.9762 109.662 Q99.9762 102.532 98.1475 98.9908 Q96.342 95.426 92.7078 95.426 M92.7078 91.7223 Q98.5179 91.7223 101.573 96.3288 Q104.652 100.912 104.652 109.662 Q104.652 118.389 101.573 122.995 Q98.5179 127.579 92.7078 127.579 Q86.8976 127.579 83.8189 122.995 Q80.7634 118.389 80.7634 109.662 Q80.7634 100.912 83.8189 96.3288 Q86.8976 91.7223 92.7078 91.7223 Z" fill="#000000" fill-rule="nonzero" fill-opacity="1" /><path clip-path="url(#clip210)" d="M104.652 85.8237 L128.764 85.8237 L128.764 89.021 L104.652 89.021 L104.652 85.8237 Z" fill="#000000" fill-rule="nonzero" fill-opacity="1" /><path clip-path="url(#clip210)" d="M140.236 96.2996 L153.496 96.2996 L153.496 99.4969 L135.666 99.4969 L135.666 96.2996 Q137.829 94.0615 141.553 90.2999 Q145.296 86.5195 146.255 85.4287 Q148.079 83.3786 148.794 81.9681 Q149.527 80.5387 149.527 79.1657 Q149.527 76.9276 147.948 75.517 Q146.387 74.1064 143.866 74.1064 Q142.08 74.1064 140.086 74.7271 Q138.111 75.3477 135.854 76.6078 L135.854 72.7711 Q138.149 71.8495 140.142 71.3793 Q142.136 70.9091 143.791 70.9091 Q148.155 70.9091 150.75 73.0908 Q153.345 75.2725 153.345 78.9212 Q153.345 80.6515 152.687 82.2126 Q152.048 83.7548 150.336 85.8613 Q149.866 86.4067 147.346 89.021 Q144.826 91.6164 140.236 96.2996 Z" fill="#000000" fill-rule="nonzero" fill-opacity="1" /><circle clip-path="url(#clip212)" cx="417.988" cy="387.296" r="14.4" fill="#009af9" fill-rule="evenodd" fill-opacity="1" stroke="#000000" stroke-opacity="1" stroke-width="3.2"/>
<circle clip-path="url(#clip212)" cx="615.304" cy="527.801" r="14.4" fill="#009af9" fill-rule="evenodd" fill-opacity="1" stroke="#000000" stroke-opacity="1" stroke-width="3.2"/>
<circle clip-path="url(#clip212)" cx="772.859" cy="637.233" r="14.4" fill="#009af9" fill-rule="evenodd" fill-opacity="1" stroke="#000000" stroke-opacity="1" stroke-width="3.2"/>
<circle clip-path="url(#clip212)" cx="904.019" cy="726.994" r="14.4" fill="#009af9" fill-rule="evenodd" fill-opacity="1" stroke="#000000" stroke-opacity="1" stroke-width="3.2"/>
<circle clip-path="url(#clip212)" cx="1016.37" cy="803.233" r="14.4" fill="#009af9" fill-rule="evenodd" fill-opacity="1" stroke="#000000" stroke-opacity="1" stroke-width="3.2"/>
<circle clip-path="url(#clip212)" cx="1114.64" cy="869.656" r="14.4" fill="#009af9" fill-rule="evenodd" fill-opacity="1" stroke="#000000" stroke-opacity="1" stroke-width="3.2"/>
<circle clip-path="url(#clip212)" cx="1201.97" cy="928.677" r="14.4" fill="#009af9" fill-rule="evenodd" fill-opacity="1" stroke="#000000" stroke-opacity="1" stroke-width="3.2"/>
<circle clip-path="url(#clip212)" cx="1280.55" cy="981.963" r="14.4" fill="#009af9" fill-rule="evenodd" fill-opacity="1" stroke="#000000" stroke-opacity="1" stroke-width="3.2"/>
<circle clip-path="url(#clip212)" cx="1351.98" cy="1030.72" r="14.4" fill="#009af9" fill-rule="evenodd" fill-opacity="1" stroke="#000000" stroke-opacity="1" stroke-width="3.2"/>
<circle clip-path="url(#clip212)" cx="1417.44" cy="1075.87" r="14.4" fill="#009af9" fill-rule="evenodd" fill-opacity="1" stroke="#000000" stroke-opacity="1" stroke-width="3.2"/>
<circle clip-path="url(#clip212)" cx="1477.87" cy="1118.11" r="14.4" fill="#009af9" fill-rule="evenodd" fill-opacity="1" stroke="#000000" stroke-opacity="1" stroke-width="3.2"/>
<circle clip-path="url(#clip212)" cx="1533.97" cy="1158.02" r="14.4" fill="#009af9" fill-rule="evenodd" fill-opacity="1" stroke="#000000" stroke-opacity="1" stroke-width="3.2"/>
<circle clip-path="url(#clip212)" cx="1586.33" cy="1196.08" r="14.4" fill="#009af9" fill-rule="evenodd" fill-opacity="1" stroke="#000000" stroke-opacity="1" stroke-width="3.2"/>
<circle clip-path="url(#clip212)" cx="1635.42" cy="1232.71" r="14.4" fill="#009af9" fill-rule="evenodd" fill-opacity="1" stroke="#000000" stroke-opacity="1" stroke-width="3.2"/>
<circle clip-path="url(#clip212)" cx="1681.62" cy="1268.29" r="14.4" fill="#009af9" fill-rule="evenodd" fill-opacity="1" stroke="#000000" stroke-opacity="1" stroke-width="3.2"/>
<circle clip-path="url(#clip212)" cx="1725.25" cy="1303.18" r="14.4" fill="#009af9" fill-rule="evenodd" fill-opacity="1" stroke="#000000" stroke-opacity="1" stroke-width="3.2"/>
<circle clip-path="url(#clip212)" cx="1766.58" cy="1337.72" r="14.4" fill="#009af9" fill-rule="evenodd" fill-opacity="1" stroke="#000000" stroke-opacity="1" stroke-width="3.2"/>
<circle clip-path="url(#clip212)" cx="1805.85" cy="1372.3" r="14.4" fill="#009af9" fill-rule="evenodd" fill-opacity="1" stroke="#000000" stroke-opacity="1" stroke-width="3.2"/>
<circle clip-path="url(#clip212)" cx="250.72" cy="85.838" r="14.4" fill="#e26f46" fill-rule="evenodd" fill-opacity="1" stroke="#000000" stroke-opacity="1" stroke-width="3.2"/>
<circle clip-path="url(#clip212)" cx="386.774" cy="569.555" r="14.4" fill="#e26f46" fill-rule="evenodd" fill-opacity="1" stroke="#000000" stroke-opacity="1" stroke-width="3.2"/>
<circle clip-path="url(#clip212)" cx="522.828" cy="614.636" r="14.4" fill="#e26f46" fill-rule="evenodd" fill-opacity="1" stroke="#000000" stroke-opacity="1" stroke-width="3.2"/>
<circle clip-path="url(#clip212)" cx="658.883" cy="231.558" r="14.4" fill="#e26f46" fill-rule="evenodd" fill-opacity="1" stroke="#000000" stroke-opacity="1" stroke-width="3.2"/>
<circle clip-path="url(#clip212)" cx="794.937" cy="418.325" r="14.4" fill="#e26f46" fill-rule="evenodd" fill-opacity="1" stroke="#000000" stroke-opacity="1" stroke-width="3.2"/>
<circle clip-path="url(#clip212)" cx="930.991" cy="407.24" r="14.4" fill="#e26f46" fill-rule="evenodd" fill-opacity="1" stroke="#000000" stroke-opacity="1" stroke-width="3.2"/>
<circle clip-path="url(#clip212)" cx="1067.04" cy="700.174" r="14.4" fill="#e26f46" fill-rule="evenodd" fill-opacity="1" stroke="#000000" stroke-opacity="1" stroke-width="3.2"/>
<circle clip-path="url(#clip212)" cx="1203.1" cy="437.82" r="14.4" fill="#e26f46" fill-rule="evenodd" fill-opacity="1" stroke="#000000" stroke-opacity="1" stroke-width="3.2"/>
<circle clip-path="url(#clip212)" cx="1339.15" cy="747.476" r="14.4" fill="#e26f46" fill-rule="evenodd" fill-opacity="1" stroke="#000000" stroke-opacity="1" stroke-width="3.2"/>
<circle clip-path="url(#clip212)" cx="1475.21" cy="1051.87" r="14.4" fill="#e26f46" fill-rule="evenodd" fill-opacity="1" stroke="#000000" stroke-opacity="1" stroke-width="3.2"/>
<circle clip-path="url(#clip212)" cx="1611.26" cy="1038.06" r="14.4" fill="#e26f46" fill-rule="evenodd" fill-opacity="1" stroke="#000000" stroke-opacity="1" stroke-width="3.2"/>
<circle clip-path="url(#clip212)" cx="1747.32" cy="686.144" r="14.4" fill="#e26f46" fill-rule="evenodd" fill-opacity="1" stroke="#000000" stroke-opacity="1" stroke-width="3.2"/>
<circle clip-path="url(#clip212)" cx="1883.37" cy="893.273" r="14.4" fill="#e26f46" fill-rule="evenodd" fill-opacity="1" stroke="#000000" stroke-opacity="1" stroke-width="3.2"/>
<circle clip-path="url(#clip212)" cx="2019.42" cy="1090.43" r="14.4" fill="#e26f46" fill-rule="evenodd" fill-opacity="1" stroke="#000000" stroke-opacity="1" stroke-width="3.2"/>
<circle clip-path="url(#clip212)" cx="2155.48" cy="1284.47" r="14.4" fill="#e26f46" fill-rule="evenodd" fill-opacity="1" stroke="#000000" stroke-opacity="1" stroke-width="3.2"/>
<circle clip-path="url(#clip212)" cx="2291.53" cy="1029.34" r="14.4" fill="#e26f46" fill-rule="evenodd" fill-opacity="1" stroke="#000000" stroke-opacity="1" stroke-width="3.2"/>
<path clip-path="url(#clip210)" d="M1680.39 248.219 L2280.65 248.219 L2280.65 92.6992 L1680.39 92.6992  Z" fill="#ffffff" fill-rule="evenodd" fill-opacity="1"/>
<polyline clip-path="url(#clip210)" style="stroke:#000000; stroke-linecap:round; stroke-linejoin:round; stroke-width:4; stroke-opacity:1; fill:none" points="1680.39,248.219 2280.65,248.219 2280.65,92.6992 1680.39,92.6992 1680.39,248.219 "/>
<circle clip-path="url(#clip210)" cx="1776.53" cy="144.539" r="20.48" fill="#009af9" fill-rule="evenodd" fill-opacity="1" stroke="#000000" stroke-opacity="1" stroke-width="4.55111"/>
<path clip-path="url(#clip210)" d="M1894.39 146.171 L1894.39 161.819 L1890.13 161.819 L1890.13 146.31 Q1890.13 142.629 1888.7 140.801 Q1887.26 138.972 1884.39 138.972 Q1880.94 138.972 1878.95 141.171 Q1876.96 143.37 1876.96 147.166 L1876.96 161.819 L1872.68 161.819 L1872.68 135.893 L1876.96 135.893 L1876.96 139.921 Q1878.49 137.583 1880.55 136.426 Q1882.63 135.268 1885.34 135.268 Q1889.81 135.268 1892.1 138.046 Q1894.39 140.801 1894.39 146.171 Z" fill="#000000" fill-rule="nonzero" fill-opacity="1" /><path clip-path="url(#clip210)" d="M1914.67 148.787 Q1909.51 148.787 1907.52 149.967 Q1905.52 151.148 1905.52 153.995 Q1905.52 156.264 1907.01 157.606 Q1908.51 158.926 1911.08 158.926 Q1914.62 158.926 1916.75 156.426 Q1918.9 153.903 1918.9 149.736 L1918.9 148.787 L1914.67 148.787 M1923.16 147.028 L1923.16 161.819 L1918.9 161.819 L1918.9 157.884 Q1917.45 160.245 1915.27 161.379 Q1913.09 162.49 1909.95 162.49 Q1905.96 162.49 1903.6 160.268 Q1901.27 158.023 1901.27 154.273 Q1901.27 149.898 1904.18 147.676 Q1907.12 145.454 1912.93 145.454 L1918.9 145.454 L1918.9 145.037 Q1918.9 142.097 1916.96 140.5 Q1915.04 138.879 1911.54 138.879 Q1909.32 138.879 1907.21 139.412 Q1905.11 139.944 1903.16 141.009 L1903.16 137.074 Q1905.5 136.171 1907.7 135.731 Q1909.9 135.268 1911.98 135.268 Q1917.61 135.268 1920.39 138.185 Q1923.16 141.102 1923.16 147.028 Z" fill="#000000" fill-rule="nonzero" fill-opacity="1" /><path clip-path="url(#clip210)" d="M1936.06 157.93 L1936.06 171.68 L1931.77 171.68 L1931.77 135.893 L1936.06 135.893 L1936.06 139.829 Q1937.4 137.514 1939.44 136.403 Q1941.5 135.268 1944.34 135.268 Q1949.07 135.268 1952.01 139.018 Q1954.97 142.768 1954.97 148.879 Q1954.97 154.991 1952.01 158.74 Q1949.07 162.49 1944.34 162.49 Q1941.5 162.49 1939.44 161.379 Q1937.4 160.245 1936.06 157.93 M1950.55 148.879 Q1950.55 144.18 1948.6 141.518 Q1946.68 138.833 1943.3 138.833 Q1939.92 138.833 1937.98 141.518 Q1936.06 144.18 1936.06 148.879 Q1936.06 153.578 1937.98 156.264 Q1939.92 158.926 1943.3 158.926 Q1946.68 158.926 1948.6 156.264 Q1950.55 153.578 1950.55 148.879 Z" fill="#000000" fill-rule="nonzero" fill-opacity="1" /><path clip-path="url(#clip210)" d="M1973.81 148.787 Q1968.65 148.787 1966.66 149.967 Q1964.67 151.148 1964.67 153.995 Q1964.67 156.264 1966.15 157.606 Q1967.65 158.926 1970.22 158.926 Q1973.77 158.926 1975.89 156.426 Q1978.05 153.903 1978.05 149.736 L1978.05 148.787 L1973.81 148.787 M1982.31 147.028 L1982.31 161.819 L1978.05 161.819 L1978.05 157.884 Q1976.59 160.245 1974.41 161.379 Q1972.24 162.49 1969.09 162.49 Q1965.11 162.49 1962.75 160.268 Q1960.41 158.023 1960.41 154.273 Q1960.41 149.898 1963.33 147.676 Q1966.27 145.454 1972.08 145.454 L1978.05 145.454 L1978.05 145.037 Q1978.05 142.097 1976.1 140.5 Q1974.18 138.879 1970.69 138.879 Q1968.46 138.879 1966.36 139.412 Q1964.25 139.944 1962.31 141.009 L1962.31 137.074 Q1964.64 136.171 1966.84 135.731 Q1969.04 135.268 1971.13 135.268 Q1976.75 135.268 1979.53 138.185 Q1982.31 141.102 1982.31 147.028 Z" fill="#000000" fill-rule="nonzero" fill-opacity="1" /><path clip-path="url(#clip210)" d="M1990.92 125.801 L1995.2 125.801 L1995.2 147.074 L2007.91 135.893 L2013.35 135.893 L1999.6 148.023 L2013.93 161.819 L2008.37 161.819 L1995.2 149.157 L1995.2 161.819 L1990.92 161.819 L1990.92 125.801 Z" fill="#000000" fill-rule="nonzero" fill-opacity="1" /><path clip-path="url(#clip210)" d="M2029.48 148.787 Q2024.32 148.787 2022.33 149.967 Q2020.34 151.148 2020.34 153.995 Q2020.34 156.264 2021.82 157.606 Q2023.33 158.926 2025.89 158.926 Q2029.44 158.926 2031.57 156.426 Q2033.72 153.903 2033.72 149.736 L2033.72 148.787 L2029.48 148.787 M2037.98 147.028 L2037.98 161.819 L2033.72 161.819 L2033.72 157.884 Q2032.26 160.245 2030.08 161.379 Q2027.91 162.49 2024.76 162.49 Q2020.78 162.49 2018.42 160.268 Q2016.08 158.023 2016.08 154.273 Q2016.08 149.898 2019 147.676 Q2021.94 145.454 2027.75 145.454 L2033.72 145.454 L2033.72 145.037 Q2033.72 142.097 2031.77 140.5 Q2029.85 138.879 2026.36 138.879 Q2024.14 138.879 2022.03 139.412 Q2019.92 139.944 2017.98 141.009 L2017.98 137.074 Q2020.32 136.171 2022.52 135.731 Q2024.71 135.268 2026.8 135.268 Q2032.42 135.268 2035.2 138.185 Q2037.98 141.102 2037.98 147.028 Z" fill="#000000" fill-rule="nonzero" fill-opacity="1" /><path clip-path="url(#clip210)" d="M2082.72 128.393 L2082.72 132.954 Q2080.06 131.68 2077.7 131.055 Q2075.34 130.43 2073.14 130.43 Q2069.32 130.43 2067.24 131.912 Q2065.18 133.393 2065.18 136.125 Q2065.18 138.417 2066.54 139.597 Q2067.93 140.754 2071.77 141.472 L2074.6 142.051 Q2079.83 143.046 2082.31 145.569 Q2084.81 148.069 2084.81 152.282 Q2084.81 157.305 2081.43 159.898 Q2078.07 162.49 2071.57 162.49 Q2069.11 162.49 2066.33 161.935 Q2063.58 161.379 2060.62 160.291 L2060.62 155.477 Q2063.46 157.074 2066.2 157.884 Q2068.93 158.694 2071.57 158.694 Q2075.57 158.694 2077.75 157.12 Q2079.92 155.546 2079.92 152.629 Q2079.92 150.083 2078.35 148.648 Q2076.8 147.213 2073.23 146.495 L2070.39 145.94 Q2065.15 144.898 2062.82 142.676 Q2060.48 140.454 2060.48 136.495 Q2060.48 131.912 2063.7 129.273 Q2066.94 126.634 2072.61 126.634 Q2075.04 126.634 2077.56 127.074 Q2080.08 127.514 2082.72 128.393 Z" fill="#000000" fill-rule="nonzero" fill-opacity="1" /><path clip-path="url(#clip210)" d="M2091.91 135.893 L2096.17 135.893 L2096.17 161.819 L2091.91 161.819 L2091.91 135.893 M2091.91 125.801 L2096.17 125.801 L2096.17 131.194 L2091.91 131.194 L2091.91 125.801 Z" fill="#000000" fill-rule="nonzero" fill-opacity="1" /><path clip-path="url(#clip210)" d="M2125.27 140.87 Q2126.87 138 2129.09 136.634 Q2131.31 135.268 2134.32 135.268 Q2138.37 135.268 2140.57 138.116 Q2142.77 140.94 2142.77 146.171 L2142.77 161.819 L2138.49 161.819 L2138.49 146.31 Q2138.49 142.583 2137.17 140.778 Q2135.85 138.972 2133.14 138.972 Q2129.83 138.972 2127.91 141.171 Q2125.99 143.37 2125.99 147.166 L2125.99 161.819 L2121.7 161.819 L2121.7 146.31 Q2121.7 142.56 2120.38 140.778 Q2119.07 138.972 2116.31 138.972 Q2113.05 138.972 2111.13 141.194 Q2109.2 143.393 2109.2 147.166 L2109.2 161.819 L2104.92 161.819 L2104.92 135.893 L2109.2 135.893 L2109.2 139.921 Q2110.66 137.537 2112.7 136.403 Q2114.74 135.268 2117.54 135.268 Q2120.36 135.268 2122.33 136.704 Q2124.32 138.139 2125.27 140.87 Z" fill="#000000" fill-rule="nonzero" fill-opacity="1" /><path clip-path="url(#clip210)" d="M2155.38 157.93 L2155.38 171.68 L2151.1 171.68 L2151.1 135.893 L2155.38 135.893 L2155.38 139.829 Q2156.73 137.514 2158.76 136.403 Q2160.82 135.268 2163.67 135.268 Q2168.39 135.268 2171.33 139.018 Q2174.3 142.768 2174.3 148.879 Q2174.3 154.991 2171.33 158.74 Q2168.39 162.49 2163.67 162.49 Q2160.82 162.49 2158.76 161.379 Q2156.73 160.245 2155.38 157.93 M2169.88 148.879 Q2169.88 144.18 2167.93 141.518 Q2166.01 138.833 2162.63 138.833 Q2159.25 138.833 2157.31 141.518 Q2155.38 144.18 2155.38 148.879 Q2155.38 153.578 2157.31 156.264 Q2159.25 158.926 2162.63 158.926 Q2166.01 158.926 2167.93 156.264 Q2169.88 153.578 2169.88 148.879 Z" fill="#000000" fill-rule="nonzero" fill-opacity="1" /><path clip-path="url(#clip210)" d="M2197.88 136.657 L2197.88 140.685 Q2196.08 139.759 2194.13 139.296 Q2192.19 138.833 2190.11 138.833 Q2186.94 138.833 2185.34 139.805 Q2183.76 140.778 2183.76 142.722 Q2183.76 144.204 2184.9 145.06 Q2186.03 145.893 2189.46 146.657 L2190.92 146.981 Q2195.45 147.954 2197.35 149.736 Q2199.27 151.495 2199.27 154.666 Q2199.27 158.278 2196.4 160.384 Q2193.56 162.49 2188.56 162.49 Q2186.47 162.49 2184.2 162.074 Q2181.96 161.68 2179.46 160.87 L2179.46 156.472 Q2181.82 157.699 2184.11 158.324 Q2186.4 158.926 2188.65 158.926 Q2191.66 158.926 2193.28 157.907 Q2194.9 156.866 2194.9 154.991 Q2194.9 153.254 2193.72 152.328 Q2192.56 151.403 2188.6 150.546 L2187.12 150.199 Q2183.16 149.366 2181.4 147.653 Q2179.64 145.916 2179.64 142.907 Q2179.64 139.25 2182.24 137.259 Q2184.83 135.268 2189.6 135.268 Q2191.96 135.268 2194.04 135.616 Q2196.13 135.963 2197.88 136.657 Z" fill="#000000" fill-rule="nonzero" fill-opacity="1" /><path clip-path="url(#clip210)" d="M2216.1 138.879 Q2212.68 138.879 2210.69 141.565 Q2208.69 144.227 2208.69 148.879 Q2208.69 153.532 2210.66 156.217 Q2212.65 158.879 2216.1 158.879 Q2219.5 158.879 2221.5 156.194 Q2223.49 153.509 2223.49 148.879 Q2223.49 144.273 2221.5 141.588 Q2219.5 138.879 2216.1 138.879 M2216.1 135.268 Q2221.66 135.268 2224.83 138.879 Q2228 142.491 2228 148.879 Q2228 155.245 2224.83 158.879 Q2221.66 162.49 2216.1 162.49 Q2210.52 162.49 2207.35 158.879 Q2204.2 155.245 2204.2 148.879 Q2204.2 142.491 2207.35 138.879 Q2210.52 135.268 2216.1 135.268 Z" fill="#000000" fill-rule="nonzero" fill-opacity="1" /><path clip-path="url(#clip210)" d="M2256.61 146.171 L2256.61 161.819 L2252.35 161.819 L2252.35 146.31 Q2252.35 142.629 2250.92 140.801 Q2249.48 138.972 2246.61 138.972 Q2243.16 138.972 2241.17 141.171 Q2239.18 143.37 2239.18 147.166 L2239.18 161.819 L2234.9 161.819 L2234.9 135.893 L2239.18 135.893 L2239.18 139.921 Q2240.71 137.583 2242.77 136.426 Q2244.85 135.268 2247.56 135.268 Q2252.03 135.268 2254.32 138.046 Q2256.61 140.801 2256.61 146.171 Z" fill="#000000" fill-rule="nonzero" fill-opacity="1" /><circle clip-path="url(#clip210)" cx="1776.53" cy="196.379" r="20.48" fill="#e26f46" fill-rule="evenodd" fill-opacity="1" stroke="#000000" stroke-opacity="1" stroke-width="4.55111"/>
<path clip-path="url(#clip210)" d="M1894.39 198.011 L1894.39 213.659 L1890.13 213.659 L1890.13 198.15 Q1890.13 194.469 1888.7 192.641 Q1887.26 190.812 1884.39 190.812 Q1880.94 190.812 1878.95 193.011 Q1876.96 195.21 1876.96 199.006 L1876.96 213.659 L1872.68 213.659 L1872.68 187.733 L1876.96 187.733 L1876.96 191.761 Q1878.49 189.423 1880.55 188.266 Q1882.63 187.108 1885.34 187.108 Q1889.81 187.108 1892.1 189.886 Q1894.39 192.641 1894.39 198.011 Z" fill="#000000" fill-rule="nonzero" fill-opacity="1" /><path clip-path="url(#clip210)" d="M1914.67 200.627 Q1909.51 200.627 1907.52 201.807 Q1905.52 202.988 1905.52 205.835 Q1905.52 208.104 1907.01 209.446 Q1908.51 210.766 1911.08 210.766 Q1914.62 210.766 1916.75 208.266 Q1918.9 205.743 1918.9 201.576 L1918.9 200.627 L1914.67 200.627 M1923.16 198.868 L1923.16 213.659 L1918.9 213.659 L1918.9 209.724 Q1917.45 212.085 1915.27 213.219 Q1913.09 214.33 1909.95 214.33 Q1905.96 214.33 1903.6 212.108 Q1901.27 209.863 1901.27 206.113 Q1901.27 201.738 1904.18 199.516 Q1907.12 197.294 1912.93 197.294 L1918.9 197.294 L1918.9 196.877 Q1918.9 193.937 1916.96 192.34 Q1915.04 190.719 1911.54 190.719 Q1909.32 190.719 1907.21 191.252 Q1905.11 191.784 1903.16 192.849 L1903.16 188.914 Q1905.5 188.011 1907.7 187.571 Q1909.9 187.108 1911.98 187.108 Q1917.61 187.108 1920.39 190.025 Q1923.16 192.942 1923.16 198.868 Z" fill="#000000" fill-rule="nonzero" fill-opacity="1" /><path clip-path="url(#clip210)" d="M1936.06 209.77 L1936.06 223.52 L1931.77 223.52 L1931.77 187.733 L1936.06 187.733 L1936.06 191.669 Q1937.4 189.354 1939.44 188.243 Q1941.5 187.108 1944.34 187.108 Q1949.07 187.108 1952.01 190.858 Q1954.97 194.608 1954.97 200.719 Q1954.97 206.831 1952.01 210.58 Q1949.07 214.33 1944.34 214.33 Q1941.5 214.33 1939.44 213.219 Q1937.4 212.085 1936.06 209.77 M1950.55 200.719 Q1950.55 196.02 1948.6 193.358 Q1946.68 190.673 1943.3 190.673 Q1939.92 190.673 1937.98 193.358 Q1936.06 196.02 1936.06 200.719 Q1936.06 205.418 1937.98 208.104 Q1939.92 210.766 1943.3 210.766 Q1946.68 210.766 1948.6 208.104 Q1950.55 205.418 1950.55 200.719 Z" fill="#000000" fill-rule="nonzero" fill-opacity="1" /><path clip-path="url(#clip210)" d="M1973.81 200.627 Q1968.65 200.627 1966.66 201.807 Q1964.67 202.988 1964.67 205.835 Q1964.67 208.104 1966.15 209.446 Q1967.65 210.766 1970.22 210.766 Q1973.77 210.766 1975.89 208.266 Q1978.05 205.743 1978.05 201.576 L1978.05 200.627 L1973.81 200.627 M1982.31 198.868 L1982.31 213.659 L1978.05 213.659 L1978.05 209.724 Q1976.59 212.085 1974.41 213.219 Q1972.24 214.33 1969.09 214.33 Q1965.11 214.33 1962.75 212.108 Q1960.41 209.863 1960.41 206.113 Q1960.41 201.738 1963.33 199.516 Q1966.27 197.294 1972.08 197.294 L1978.05 197.294 L1978.05 196.877 Q1978.05 193.937 1976.1 192.34 Q1974.18 190.719 1970.69 190.719 Q1968.46 190.719 1966.36 191.252 Q1964.25 191.784 1962.31 192.849 L1962.31 188.914 Q1964.64 188.011 1966.84 187.571 Q1969.04 187.108 1971.13 187.108 Q1976.75 187.108 1979.53 190.025 Q1982.31 192.942 1982.31 198.868 Z" fill="#000000" fill-rule="nonzero" fill-opacity="1" /><path clip-path="url(#clip210)" d="M1990.92 177.641 L1995.2 177.641 L1995.2 198.914 L2007.91 187.733 L2013.35 187.733 L1999.6 199.863 L2013.93 213.659 L2008.37 213.659 L1995.2 200.997 L1995.2 213.659 L1990.92 213.659 L1990.92 177.641 Z" fill="#000000" fill-rule="nonzero" fill-opacity="1" /><path clip-path="url(#clip210)" d="M2029.48 200.627 Q2024.32 200.627 2022.33 201.807 Q2020.34 202.988 2020.34 205.835 Q2020.34 208.104 2021.82 209.446 Q2023.33 210.766 2025.89 210.766 Q2029.44 210.766 2031.57 208.266 Q2033.72 205.743 2033.72 201.576 L2033.72 200.627 L2029.48 200.627 M2037.98 198.868 L2037.98 213.659 L2033.72 213.659 L2033.72 209.724 Q2032.26 212.085 2030.08 213.219 Q2027.91 214.33 2024.76 214.33 Q2020.78 214.33 2018.42 212.108 Q2016.08 209.863 2016.08 206.113 Q2016.08 201.738 2019 199.516 Q2021.94 197.294 2027.75 197.294 L2033.72 197.294 L2033.72 196.877 Q2033.72 193.937 2031.77 192.34 Q2029.85 190.719 2026.36 190.719 Q2024.14 190.719 2022.03 191.252 Q2019.92 191.784 2017.98 192.849 L2017.98 188.914 Q2020.32 188.011 2022.52 187.571 Q2024.71 187.108 2026.8 187.108 Q2032.42 187.108 2035.2 190.025 Q2037.98 192.942 2037.98 198.868 Z" fill="#000000" fill-rule="nonzero" fill-opacity="1" /><path clip-path="url(#clip210)" d="M2062.01 179.099 L2068.97 179.099 L2077.79 202.618 L2086.66 179.099 L2093.63 179.099 L2093.63 213.659 L2089.07 213.659 L2089.07 183.312 L2080.15 207.016 L2075.45 207.016 L2066.54 183.312 L2066.54 213.659 L2062.01 213.659 L2062.01 179.099 Z" fill="#000000" fill-rule="nonzero" fill-opacity="1" /><path clip-path="url(#clip210)" d="M2128.79 181.761 L2128.79 186.692 Q2126.43 184.493 2123.74 183.405 Q2121.08 182.317 2118.07 182.317 Q2112.14 182.317 2109 185.951 Q2105.85 189.562 2105.85 196.414 Q2105.85 203.243 2109 206.877 Q2112.14 210.488 2118.07 210.488 Q2121.08 210.488 2123.74 209.4 Q2126.43 208.312 2128.79 206.113 L2128.79 210.997 Q2126.33 212.664 2123.58 213.497 Q2120.85 214.33 2117.79 214.33 Q2109.95 214.33 2105.43 209.539 Q2100.92 204.724 2100.92 196.414 Q2100.92 188.081 2105.43 183.289 Q2109.95 178.474 2117.79 178.474 Q2120.89 178.474 2123.63 179.308 Q2126.38 180.118 2128.79 181.761 Z" fill="#000000" fill-rule="nonzero" fill-opacity="1" /></svg>
