<?xml version="1.0" encoding="utf-8"?>
<svg xmlns="http://www.w3.org/2000/svg" xmlns:xlink="http://www.w3.org/1999/xlink" width="600" height="400" viewBox="0 0 2400 1600">
<defs>
  <clipPath id="clip690">
    <rect x="0" y="0" width="2400" height="1600"/>
  </clipPath>
</defs>
<path clip-path="url(#clip690)" d="M0 1600 L2400 1600 L2400 0 L0 0  Z" fill="#ffffff" fill-rule="evenodd" fill-opacity="1"/>
<defs>
  <clipPath id="clip691">
    <rect x="480" y="0" width="1681" height="1600"/>
  </clipPath>
</defs>
<path clip-path="url(#clip690)" d="M189.496 1474.16 L2352.76 1474.16 L2352.76 47.2441 L189.496 47.2441  Z" fill="#ffffff" fill-rule="evenodd" fill-opacity="1"/>
<defs>
  <clipPath id="clip692">
    <rect x="189" y="47" width="2164" height="1428"/>
  </clipPath>
</defs>
<polyline clip-path="url(#clip692)" style="stroke:#000000; stroke-linecap:round; stroke-linejoin:round; stroke-width:2; stroke-opacity:0.1; fill:none" points="698.027,1474.16 698.027,47.2441 "/>
<polyline clip-path="url(#clip692)" style="stroke:#000000; stroke-linecap:round; stroke-linejoin:round; stroke-width:2; stroke-opacity:0.1; fill:none" points="1601.95,1474.16 1601.95,47.2441 "/>
<polyline clip-path="url(#clip690)" style="stroke:#000000; stroke-linecap:round; stroke-linejoin:round; stroke-width:4; stroke-opacity:1; fill:none" points="189.496,1474.16 2352.76,1474.16 "/>
<polyline clip-path="url(#clip690)" style="stroke:#000000; stroke-linecap:round; stroke-linejoin:round; stroke-width:4; stroke-opacity:1; fill:none" points="698.027,1474.16 698.027,1455.27 "/>
<polyline clip-path="url(#clip690)" style="stroke:#000000; stroke-linecap:round; stroke-linejoin:round; stroke-width:4; stroke-opacity:1; fill:none" points="1601.95,1474.16 1601.95,1455.27 "/>
<path clip-path="url(#clip690)" d="M662.483 1548.29 L670.122 1548.29 L670.122 1521.92 L661.812 1523.59 L661.812 1519.33 L670.076 1517.66 L674.752 1517.66 L674.752 1548.29 L682.39 1548.29 L682.39 1552.22 L662.483 1552.22 L662.483 1548.29 Z" fill="#000000" fill-rule="nonzero" fill-opacity="1" /><path clip-path="url(#clip690)" d="M701.835 1520.74 Q698.224 1520.74 696.395 1524.31 Q694.589 1527.85 694.589 1534.98 Q694.589 1542.09 696.395 1545.65 Q698.224 1549.19 701.835 1549.19 Q705.469 1549.19 707.275 1545.65 Q709.103 1542.09 709.103 1534.98 Q709.103 1527.85 707.275 1524.31 Q705.469 1520.74 701.835 1520.74 M701.835 1517.04 Q707.645 1517.04 710.701 1521.65 Q713.779 1526.23 713.779 1534.98 Q713.779 1543.71 710.701 1548.31 Q707.645 1552.9 701.835 1552.9 Q696.025 1552.9 692.946 1548.31 Q689.89 1543.71 689.89 1534.98 Q689.89 1526.23 692.946 1521.65 Q696.025 1517.04 701.835 1517.04 Z" fill="#000000" fill-rule="nonzero" fill-opacity="1" /><path clip-path="url(#clip690)" d="M726.456 1500.04 L716.864 1515.03 L726.456 1515.03 L726.456 1500.04 M725.459 1496.73 L730.236 1496.73 L730.236 1515.03 L734.242 1515.03 L734.242 1518.19 L730.236 1518.19 L730.236 1524.81 L726.456 1524.81 L726.456 1518.19 L713.779 1518.19 L713.779 1514.53 L725.459 1496.73 Z" fill="#000000" fill-rule="nonzero" fill-opacity="1" /><path clip-path="url(#clip690)" d="M1566.94 1548.29 L1574.58 1548.29 L1574.58 1521.92 L1566.27 1523.59 L1566.27 1519.33 L1574.54 1517.66 L1579.21 1517.66 L1579.21 1548.29 L1586.85 1548.29 L1586.85 1552.22 L1566.94 1552.22 L1566.94 1548.29 Z" fill="#000000" fill-rule="nonzero" fill-opacity="1" /><path clip-path="url(#clip690)" d="M1606.29 1520.74 Q1602.68 1520.74 1600.85 1524.31 Q1599.05 1527.85 1599.05 1534.98 Q1599.05 1542.09 1600.85 1545.65 Q1602.68 1549.19 1606.29 1549.19 Q1609.93 1549.19 1611.73 1545.65 Q1613.56 1542.09 1613.56 1534.98 Q1613.56 1527.85 1611.73 1524.31 Q1609.93 1520.74 1606.29 1520.74 M1606.29 1517.04 Q1612.1 1517.04 1615.16 1521.65 Q1618.24 1526.23 1618.24 1534.98 Q1618.24 1543.71 1615.16 1548.31 Q1612.1 1552.9 1606.29 1552.9 Q1600.48 1552.9 1597.41 1548.31 Q1594.35 1543.71 1594.35 1534.98 Q1594.35 1526.23 1597.41 1521.65 Q1600.48 1517.04 1606.29 1517.04 Z" fill="#000000" fill-rule="nonzero" fill-opacity="1" /><path clip-path="url(#clip690)" d="M1628.26 1509.26 Q1625.71 1509.26 1624.2 1511.01 Q1622.72 1512.76 1622.72 1515.81 Q1622.72 1518.83 1624.2 1520.6 Q1625.71 1522.35 1628.26 1522.35 Q1630.82 1522.35 1632.31 1520.6 Q1633.81 1518.83 1633.81 1515.81 Q1633.81 1512.76 1632.31 1511.01 Q1630.82 1509.26 1628.26 1509.26 M1635.81 1497.35 L1635.81 1500.82 Q1634.38 1500.14 1632.91 1499.78 Q1631.46 1499.42 1630.03 1499.42 Q1626.27 1499.42 1624.28 1501.96 Q1622.3 1504.5 1622.02 1509.64 Q1623.13 1508 1624.8 1507.13 Q1626.48 1506.25 1628.49 1506.25 Q1632.72 1506.25 1635.17 1508.83 Q1637.63 1511.39 1637.63 1515.81 Q1637.63 1520.13 1635.07 1522.75 Q1632.51 1525.36 1628.26 1525.36 Q1623.39 1525.36 1620.82 1521.64 Q1618.24 1517.89 1618.24 1510.8 Q1618.24 1504.14 1621.4 1500.19 Q1624.56 1496.23 1629.88 1496.23 Q1631.31 1496.23 1632.76 1496.51 Q1634.23 1496.79 1635.81 1497.35 Z" fill="#000000" fill-rule="nonzero" fill-opacity="1" /><polyline clip-path="url(#clip692)" style="stroke:#000000; stroke-linecap:round; stroke-linejoin:round; stroke-width:2; stroke-opacity:0.1; fill:none" points="189.496,912.296 2352.76,912.296 "/>
<polyline clip-path="url(#clip692)" style="stroke:#000000; stroke-linecap:round; stroke-linejoin:round; stroke-width:2; stroke-opacity:0.1; fill:none" points="189.496,106.287 2352.76,106.287 "/>
<polyline clip-path="url(#clip690)" style="stroke:#000000; stroke-linecap:round; stroke-linejoin:round; stroke-width:4; stroke-opacity:1; fill:none" points="189.496,1474.16 189.496,47.2441 "/>
<polyline clip-path="url(#clip690)" style="stroke:#000000; stroke-linecap:round; stroke-linejoin:round; stroke-width:4; stroke-opacity:1; fill:none" points="189.496,912.296 208.394,912.296 "/>
<polyline clip-path="url(#clip690)" style="stroke:#000000; stroke-linecap:round; stroke-linejoin:round; stroke-width:4; stroke-opacity:1; fill:none" points="189.496,106.287 208.394,106.287 "/>
<path clip-path="url(#clip690)" d="M51.6634 932.089 L59.3023 932.089 L59.3023 905.723 L50.9921 907.39 L50.9921 903.131 L59.256 901.464 L63.9319 901.464 L63.9319 932.089 L71.5707 932.089 L71.5707 936.024 L51.6634 936.024 L51.6634 932.089 Z" fill="#000000" fill-rule="nonzero" fill-opacity="1" /><path clip-path="url(#clip690)" d="M91.0151 904.543 Q87.404 904.543 85.5753 908.107 Q83.7697 911.649 83.7697 918.779 Q83.7697 925.885 85.5753 929.45 Q87.404 932.992 91.0151 932.992 Q94.6493 932.992 96.4548 929.45 Q98.2835 925.885 98.2835 918.779 Q98.2835 911.649 96.4548 908.107 Q94.6493 904.543 91.0151 904.543 M91.0151 900.839 Q96.8252 900.839 99.8808 905.445 Q102.959 910.029 102.959 918.779 Q102.959 927.505 99.8808 932.112 Q96.8252 936.695 91.0151 936.695 Q85.2049 936.695 82.1262 932.112 Q79.0707 927.505 79.0707 918.779 Q79.0707 910.029 82.1262 905.445 Q85.2049 900.839 91.0151 900.839 Z" fill="#000000" fill-rule="nonzero" fill-opacity="1" /><path clip-path="url(#clip690)" d="M102.959 894.94 L127.071 894.94 L127.071 898.138 L102.959 898.138 L102.959 894.94 Z" fill="#000000" fill-rule="nonzero" fill-opacity="1" /><path clip-path="url(#clip690)" d="M145.71 883.844 L136.118 898.834 L145.71 898.834 L145.71 883.844 M144.713 880.534 L149.49 880.534 L149.49 898.834 L153.496 898.834 L153.496 901.993 L149.49 901.993 L149.49 908.614 L145.71 908.614 L145.71 901.993 L133.033 901.993 L133.033 898.326 L144.713 880.534 Z" fill="#000000" fill-rule="nonzero" fill-opacity="1" /><path clip-path="url(#clip690)" d="M53.3561 126.08 L60.995 126.08 L60.995 99.7141 L52.6848 101.381 L52.6848 97.1215 L60.9487 95.4548 L65.6246 95.4548 L65.6246 126.08 L73.2634 126.08 L73.2634 130.015 L53.3561 130.015 L53.3561 126.08 Z" fill="#000000" fill-rule="nonzero" fill-opacity="1" /><path clip-path="url(#clip690)" d="M92.7078 98.5335 Q89.0967 98.5335 87.268 102.098 Q85.4624 105.64 85.4624 112.77 Q85.4624 119.876 87.268 123.441 Q89.0967 126.982 92.7078 126.982 Q96.342 126.982 98.1475 123.441 Q99.9762 119.876 99.9762 112.77 Q99.9762 105.64 98.1475 102.098 Q96.342 98.5335 92.7078 98.5335 M92.7078 94.8298 Q98.5179 94.8298 101.573 99.4363 Q104.652 104.02 104.652 112.77 Q104.652 121.496 101.573 126.103 Q98.5179 130.686 92.7078 130.686 Q86.8976 130.686 83.8189 126.103 Q80.7634 121.496 80.7634 112.77 Q80.7634 104.02 83.8189 99.4363 Q86.8976 94.8298 92.7078 94.8298 Z" fill="#000000" fill-rule="nonzero" fill-opacity="1" /><path clip-path="url(#clip690)" d="M104.652 88.9312 L128.764 88.9312 L128.764 92.1285 L104.652 92.1285 L104.652 88.9312 Z" fill="#000000" fill-rule="nonzero" fill-opacity="1" /><path clip-path="url(#clip690)" d="M140.236 99.4071 L153.496 99.4071 L153.496 102.604 L135.666 102.604 L135.666 99.4071 Q137.829 97.169 141.553 93.4074 Q145.296 89.6271 146.255 88.5362 Q148.079 86.4862 148.794 85.0756 Q149.527 83.6462 149.527 82.2732 Q149.527 80.0351 147.948 78.6245 Q146.387 77.2139 143.866 77.2139 Q142.08 77.2139 140.086 77.8346 Q138.111 78.4553 135.854 79.7154 L135.854 75.8786 Q138.149 74.957 140.142 74.4868 Q142.136 74.0166 143.791 74.0166 Q148.155 74.0166 150.75 76.1983 Q153.345 78.38 153.345 82.0287 Q153.345 83.759 152.687 85.3201 Q152.048 86.8623 150.336 88.9688 Q149.866 89.5142 147.346 92.1285 Q144.826 94.724 140.236 99.4071 Z" fill="#000000" fill-rule="nonzero" fill-opacity="1" /><circle clip-path="url(#clip692)" cx="417.988" cy="411.879" r="14.4" fill="#009af9" fill-rule="evenodd" fill-opacity="1" stroke="#000000" stroke-opacity="1" stroke-width="3.2"/>
<circle clip-path="url(#clip692)" cx="615.304" cy="562.919" r="14.4" fill="#009af9" fill-rule="evenodd" fill-opacity="1" stroke="#000000" stroke-opacity="1" stroke-width="3.2"/>
<circle clip-path="url(#clip692)" cx="772.859" cy="680.435" r="14.4" fill="#009af9" fill-rule="evenodd" fill-opacity="1" stroke="#000000" stroke-opacity="1" stroke-width="3.2"/>
<circle clip-path="url(#clip692)" cx="904.019" cy="776.672" r="14.4" fill="#009af9" fill-rule="evenodd" fill-opacity="1" stroke="#000000" stroke-opacity="1" stroke-width="3.2"/>
<circle clip-path="url(#clip692)" cx="1016.37" cy="858.223" r="14.4" fill="#009af9" fill-rule="evenodd" fill-opacity="1" stroke="#000000" stroke-opacity="1" stroke-width="3.2"/>
<circle clip-path="url(#clip692)" cx="1114.64" cy="929.048" r="14.4" fill="#009af9" fill-rule="evenodd" fill-opacity="1" stroke="#000000" stroke-opacity="1" stroke-width="3.2"/>
<circle clip-path="url(#clip692)" cx="1201.97" cy="991.718" r="14.4" fill="#009af9" fill-rule="evenodd" fill-opacity="1" stroke="#000000" stroke-opacity="1" stroke-width="3.2"/>
<circle clip-path="url(#clip692)" cx="1280.55" cy="1047.99" r="14.4" fill="#009af9" fill-rule="evenodd" fill-opacity="1" stroke="#000000" stroke-opacity="1" stroke-width="3.2"/>
<circle clip-path="url(#clip692)" cx="1351.98" cy="1099.14" r="14.4" fill="#009af9" fill-rule="evenodd" fill-opacity="1" stroke="#000000" stroke-opacity="1" stroke-width="3.2"/>
<circle clip-path="url(#clip692)" cx="1417.44" cy="1146.11" r="14.4" fill="#009af9" fill-rule="evenodd" fill-opacity="1" stroke="#000000" stroke-opacity="1" stroke-width="3.2"/>
<circle clip-path="url(#clip692)" cx="1477.87" cy="1189.61" r="14.4" fill="#009af9" fill-rule="evenodd" fill-opacity="1" stroke="#000000" stroke-opacity="1" stroke-width="3.2"/>
<circle clip-path="url(#clip692)" cx="1533.97" cy="1230.21" r="14.4" fill="#009af9" fill-rule="evenodd" fill-opacity="1" stroke="#000000" stroke-opacity="1" stroke-width="3.2"/>
<circle clip-path="url(#clip692)" cx="1586.33" cy="1268.37" r="14.4" fill="#009af9" fill-rule="evenodd" fill-opacity="1" stroke="#000000" stroke-opacity="1" stroke-width="3.2"/>
<circle clip-path="url(#clip692)" cx="1635.42" cy="1304.46" r="14.4" fill="#009af9" fill-rule="evenodd" fill-opacity="1" stroke="#000000" stroke-opacity="1" stroke-width="3.2"/>
<circle clip-path="url(#clip692)" cx="1681.62" cy="1338.8" r="14.4" fill="#009af9" fill-rule="evenodd" fill-opacity="1" stroke="#000000" stroke-opacity="1" stroke-width="3.2"/>
<circle clip-path="url(#clip692)" cx="1725.25" cy="1371.65" r="14.4" fill="#009af9" fill-rule="evenodd" fill-opacity="1" stroke="#000000" stroke-opacity="1" stroke-width="3.2"/>
<circle clip-path="url(#clip692)" cx="1766.58" cy="1403.24" r="14.4" fill="#009af9" fill-rule="evenodd" fill-opacity="1" stroke="#000000" stroke-opacity="1" stroke-width="3.2"/>
<circle clip-path="url(#clip692)" cx="1805.85" cy="1433.78" r="14.4" fill="#009af9" fill-rule="evenodd" fill-opacity="1" stroke="#000000" stroke-opacity="1" stroke-width="3.2"/>
<circle clip-path="url(#clip692)" cx="250.72" cy="87.6286" r="14.4" fill="#e26f46" fill-rule="evenodd" fill-opacity="1" stroke="#000000" stroke-opacity="1" stroke-width="3.2"/>
<circle clip-path="url(#clip692)" cx="386.774" cy="608.079" r="14.4" fill="#e26f46" fill-rule="evenodd" fill-opacity="1" stroke="#000000" stroke-opacity="1" stroke-width="3.2"/>
<circle clip-path="url(#clip692)" cx="522.828" cy="656.583" r="14.4" fill="#e26f46" fill-rule="evenodd" fill-opacity="1" stroke="#000000" stroke-opacity="1" stroke-width="3.2"/>
<circle clip-path="url(#clip692)" cx="658.883" cy="244.415" r="14.4" fill="#e26f46" fill-rule="evenodd" fill-opacity="1" stroke="#000000" stroke-opacity="1" stroke-width="3.2"/>
<circle clip-path="url(#clip692)" cx="794.937" cy="445.365" r="14.4" fill="#e26f46" fill-rule="evenodd" fill-opacity="1" stroke="#000000" stroke-opacity="1" stroke-width="3.2"/>
<circle clip-path="url(#clip692)" cx="930.991" cy="433.438" r="14.4" fill="#e26f46" fill-rule="evenodd" fill-opacity="1" stroke="#000000" stroke-opacity="1" stroke-width="3.2"/>
<circle clip-path="url(#clip692)" cx="1067.04" cy="748.617" r="14.4" fill="#e26f46" fill-rule="evenodd" fill-opacity="1" stroke="#000000" stroke-opacity="1" stroke-width="3.2"/>
<circle clip-path="url(#clip692)" cx="1203.1" cy="466.34" r="14.4" fill="#e26f46" fill-rule="evenodd" fill-opacity="1" stroke="#000000" stroke-opacity="1" stroke-width="3.2"/>
<circle clip-path="url(#clip692)" cx="1339.15" cy="799.511" r="14.4" fill="#e26f46" fill-rule="evenodd" fill-opacity="1" stroke="#000000" stroke-opacity="1" stroke-width="3.2"/>
<circle clip-path="url(#clip692)" cx="1475.21" cy="1127.02" r="14.4" fill="#e26f46" fill-rule="evenodd" fill-opacity="1" stroke="#000000" stroke-opacity="1" stroke-width="3.2"/>
<circle clip-path="url(#clip692)" cx="1611.26" cy="1112.17" r="14.4" fill="#e26f46" fill-rule="evenodd" fill-opacity="1" stroke="#000000" stroke-opacity="1" stroke-width="3.2"/>
<circle clip-path="url(#clip692)" cx="1747.32" cy="733.522" r="14.4" fill="#e26f46" fill-rule="evenodd" fill-opacity="1" stroke="#000000" stroke-opacity="1" stroke-width="3.2"/>
<circle clip-path="url(#clip692)" cx="1883.37" cy="956.38" r="14.4" fill="#e26f46" fill-rule="evenodd" fill-opacity="1" stroke="#000000" stroke-opacity="1" stroke-width="3.2"/>
<circle clip-path="url(#clip692)" cx="2019.42" cy="1168.51" r="14.4" fill="#e26f46" fill-rule="evenodd" fill-opacity="1" stroke="#000000" stroke-opacity="1" stroke-width="3.2"/>
<circle clip-path="url(#clip692)" cx="2155.48" cy="1377.28" r="14.4" fill="#e26f46" fill-rule="evenodd" fill-opacity="1" stroke="#000000" stroke-opacity="1" stroke-width="3.2"/>
<circle clip-path="url(#clip692)" cx="2291.53" cy="1102.77" r="14.4" fill="#e26f46" fill-rule="evenodd" fill-opacity="1" stroke="#000000" stroke-opacity="1" stroke-width="3.2"/>
<path clip-path="url(#clip690)" d="M1680.39 250.328 L2280.65 250.328 L2280.65 94.8081 L1680.39 94.8081  Z" fill="#ffffff" fill-rule="evenodd" fill-opacity="1"/>
<polyline clip-path="url(#clip690)" style="stroke:#000000; stroke-linecap:round; stroke-linejoin:round; stroke-width:4; stroke-opacity:1; fill:none" points="1680.39,250.328 2280.65,250.328 2280.65,94.8081 1680.39,94.8081 1680.39,250.328 "/>
<circle clip-path="url(#clip690)" cx="1776.53" cy="146.648" r="20.48" fill="#009af9" fill-rule="evenodd" fill-opacity="1" stroke="#000000" stroke-opacity="1" stroke-width="4.55111"/>
<path clip-path="url(#clip690)" d="M1894.39 148.28 L1894.39 163.928 L1890.13 163.928 L1890.13 148.419 Q1890.13 144.738 1888.7 142.91 Q1887.26 141.081 1884.39 141.081 Q1880.94 141.081 1878.95 143.28 Q1876.96 145.479 1876.96 149.275 L1876.96 163.928 L1872.68 163.928 L1872.68 138.002 L1876.96 138.002 L1876.96 142.03 Q1878.49 139.692 1880.55 138.535 Q1882.63 137.377 1885.34 137.377 Q1889.81 137.377 1892.1 140.155 Q1894.39 142.91 1894.39 148.28 Z" fill="#000000" fill-rule="nonzero" fill-opacity="1" /><path clip-path="url(#clip690)" d="M1914.67 150.896 Q1909.51 150.896 1907.52 152.076 Q1905.52 153.257 1905.52 156.104 Q1905.52 158.373 1907.01 159.715 Q1908.51 161.035 1911.08 161.035 Q1914.62 161.035 1916.75 158.535 Q1918.9 156.011 1918.9 151.845 L1918.9 150.896 L1914.67 150.896 M1923.16 149.137 L1923.16 163.928 L1918.9 163.928 L1918.9 159.993 Q1917.45 162.354 1915.27 163.488 Q1913.09 164.599 1909.95 164.599 Q1905.96 164.599 1903.6 162.377 Q1901.27 160.132 1901.27 156.382 Q1901.27 152.007 1904.18 149.785 Q1907.12 147.562 1912.93 147.562 L1918.9 147.562 L1918.9 147.146 Q1918.9 144.206 1916.96 142.609 Q1915.04 140.988 1911.54 140.988 Q1909.32 140.988 1907.21 141.521 Q1905.11 142.053 1903.16 143.118 L1903.16 139.183 Q1905.5 138.28 1907.7 137.84 Q1909.9 137.377 1911.98 137.377 Q1917.61 137.377 1920.39 140.294 Q1923.16 143.211 1923.16 149.137 Z" fill="#000000" fill-rule="nonzero" fill-opacity="1" /><path clip-path="url(#clip690)" d="M1936.06 160.039 L1936.06 173.789 L1931.77 173.789 L1931.77 138.002 L1936.06 138.002 L1936.06 141.937 Q1937.4 139.623 1939.44 138.512 Q1941.5 137.377 1944.34 137.377 Q1949.07 137.377 1952.01 141.127 Q1954.97 144.877 1954.97 150.988 Q1954.97 157.099 1952.01 160.849 Q1949.07 164.599 1944.34 164.599 Q1941.5 164.599 1939.44 163.488 Q1937.4 162.354 1936.06 160.039 M1950.55 150.988 Q1950.55 146.289 1948.6 143.627 Q1946.68 140.942 1943.3 140.942 Q1939.92 140.942 1937.98 143.627 Q1936.06 146.289 1936.06 150.988 Q1936.06 155.687 1937.98 158.373 Q1939.92 161.035 1943.3 161.035 Q1946.68 161.035 1948.6 158.373 Q1950.55 155.687 1950.55 150.988 Z" fill="#000000" fill-rule="nonzero" fill-opacity="1" /><path clip-path="url(#clip690)" d="M1973.81 150.896 Q1968.65 150.896 1966.66 152.076 Q1964.67 153.257 1964.67 156.104 Q1964.67 158.373 1966.15 159.715 Q1967.65 161.035 1970.22 161.035 Q1973.77 161.035 1975.89 158.535 Q1978.05 156.011 1978.05 151.845 L1978.05 150.896 L1973.81 150.896 M1982.31 149.137 L1982.31 163.928 L1978.05 163.928 L1978.05 159.993 Q1976.59 162.354 1974.41 163.488 Q1972.24 164.599 1969.09 164.599 Q1965.11 164.599 1962.75 162.377 Q1960.41 160.132 1960.41 156.382 Q1960.41 152.007 1963.33 149.785 Q1966.27 147.562 1972.08 147.562 L1978.05 147.562 L1978.05 147.146 Q1978.05 144.206 1976.1 142.609 Q1974.18 140.988 1970.69 140.988 Q1968.46 140.988 1966.36 141.521 Q1964.25 142.053 1962.31 143.118 L1962.31 139.183 Q1964.64 138.28 1966.84 137.84 Q1969.04 137.377 1971.13 137.377 Q1976.75 137.377 1979.53 140.294 Q1982.31 143.211 1982.31 149.137 Z" fill="#000000" fill-rule="nonzero" fill-opacity="1" /><path clip-path="url(#clip690)" d="M1990.92 127.91 L1995.2 127.91 L1995.2 149.183 L2007.91 138.002 L2013.35 138.002 L1999.6 150.132 L2013.93 163.928 L2008.37 163.928 L1995.2 151.266 L1995.2 163.928 L1990.92 163.928 L1990.92 127.91 Z" fill="#000000" fill-rule="nonzero" fill-opacity="1" /><path clip-path="url(#clip690)" d="M2029.48 150.896 Q2024.32 150.896 2022.33 152.076 Q2020.34 153.257 2020.34 156.104 Q2020.34 158.373 2021.82 159.715 Q2023.33 161.035 2025.89 161.035 Q2029.44 161.035 2031.57 158.535 Q2033.72 156.011 2033.72 151.845 L2033.72 150.896 L2029.48 150.896 M2037.98 149.137 L2037.98 163.928 L2033.72 163.928 L2033.72 159.993 Q2032.26 162.354 2030.08 163.488 Q2027.91 164.599 2024.76 164.599 Q2020.78 164.599 2018.42 162.377 Q2016.08 160.132 2016.08 156.382 Q2016.08 152.007 2019 149.785 Q2021.94 147.562 2027.75 147.562 L2033.72 147.562 L2033.72 147.146 Q2033.72 144.206 2031.77 142.609 Q2029.85 140.988 2026.36 140.988 Q2024.14 140.988 2022.03 141.521 Q2019.92 142.053 2017.98 143.118 L2017.98 139.183 Q2020.32 138.28 2022.52 137.84 Q2024.71 137.377 2026.8 137.377 Q2032.42 137.377 2035.2 140.294 Q2037.98 143.211 2037.98 149.137 Z" fill="#000000" fill-rule="nonzero" fill-opacity="1" /><path clip-path="url(#clip690)" d="M2082.72 130.502 L2082.72 135.063 Q2080.06 133.789 2077.7 133.164 Q2075.34 132.539 2073.14 132.539 Q2069.32 132.539 2067.24 134.021 Q2065.18 135.502 2065.18 138.234 Q2065.18 140.525 2066.54 141.706 Q2067.93 142.863 2071.77 143.581 L2074.6 144.16 Q2079.83 145.155 2082.31 147.678 Q2084.81 150.178 2084.81 154.391 Q2084.81 159.414 2081.43 162.007 Q2078.07 164.599 2071.57 164.599 Q2069.11 164.599 2066.33 164.044 Q2063.58 163.488 2060.62 162.4 L2060.62 157.586 Q2063.46 159.183 2066.2 159.993 Q2068.93 160.803 2071.57 160.803 Q2075.57 160.803 2077.75 159.229 Q2079.92 157.655 2079.92 154.738 Q2079.92 152.192 2078.35 150.757 Q2076.8 149.322 2073.23 148.604 L2070.39 148.049 Q2065.15 147.007 2062.82 144.785 Q2060.48 142.562 2060.48 138.604 Q2060.48 134.021 2063.7 131.382 Q2066.94 128.743 2072.61 128.743 Q2075.04 128.743 2077.56 129.183 Q2080.08 129.623 2082.72 130.502 Z" fill="#000000" fill-rule="nonzero" fill-opacity="1" /><path clip-path="url(#clip690)" d="M2091.91 138.002 L2096.17 138.002 L2096.17 163.928 L2091.91 163.928 L2091.91 138.002 M2091.91 127.91 L2096.17 127.91 L2096.17 133.303 L2091.91 133.303 L2091.91 127.91 Z" fill="#000000" fill-rule="nonzero" fill-opacity="1" /><path clip-path="url(#clip690)" d="M2125.27 142.979 Q2126.87 140.109 2129.09 138.743 Q2131.31 137.377 2134.32 137.377 Q2138.37 137.377 2140.57 140.225 Q2142.77 143.049 2142.77 148.28 L2142.77 163.928 L2138.49 163.928 L2138.49 148.419 Q2138.49 144.692 2137.17 142.887 Q2135.85 141.081 2133.14 141.081 Q2129.83 141.081 2127.91 143.28 Q2125.99 145.479 2125.99 149.275 L2125.99 163.928 L2121.7 163.928 L2121.7 148.419 Q2121.7 144.669 2120.38 142.887 Q2119.07 141.081 2116.31 141.081 Q2113.05 141.081 2111.13 143.303 Q2109.2 145.502 2109.2 149.275 L2109.2 163.928 L2104.92 163.928 L2104.92 138.002 L2109.2 138.002 L2109.2 142.03 Q2110.66 139.646 2112.7 138.512 Q2114.74 137.377 2117.54 137.377 Q2120.36 137.377 2122.33 138.813 Q2124.32 140.248 2125.27 142.979 Z" fill="#000000" fill-rule="nonzero" fill-opacity="1" /><path clip-path="url(#clip690)" d="M2155.38 160.039 L2155.38 173.789 L2151.1 173.789 L2151.1 138.002 L2155.38 138.002 L2155.38 141.937 Q2156.73 139.623 2158.76 138.512 Q2160.82 137.377 2163.67 137.377 Q2168.39 137.377 2171.33 141.127 Q2174.3 144.877 2174.3 150.988 Q2174.3 157.099 2171.33 160.849 Q2168.39 164.599 2163.67 164.599 Q2160.82 164.599 2158.76 163.488 Q2156.73 162.354 2155.38 160.039 M2169.88 150.988 Q2169.88 146.289 2167.93 143.627 Q2166.01 140.942 2162.63 140.942 Q2159.25 140.942 2157.31 143.627 Q2155.38 146.289 2155.38 150.988 Q2155.38 155.687 2157.31 158.373 Q2159.25 161.035 2162.63 161.035 Q2166.01 161.035 2167.93 158.373 Q2169.88 155.687 2169.88 150.988 Z" fill="#000000" fill-rule="nonzero" fill-opacity="1" /><path clip-path="url(#clip690)" d="M2197.88 138.766 L2197.88 142.794 Q2196.08 141.868 2194.13 141.405 Q2192.19 140.942 2190.11 140.942 Q2186.94 140.942 2185.34 141.914 Q2183.76 142.887 2183.76 144.831 Q2183.76 146.312 2184.9 147.169 Q2186.03 148.002 2189.46 148.766 L2190.92 149.09 Q2195.45 150.062 2197.35 151.845 Q2199.27 153.604 2199.27 156.775 Q2199.27 160.386 2196.4 162.493 Q2193.56 164.599 2188.56 164.599 Q2186.47 164.599 2184.2 164.183 Q2181.96 163.789 2179.46 162.979 L2179.46 158.581 Q2181.82 159.808 2184.11 160.433 Q2186.4 161.035 2188.65 161.035 Q2191.66 161.035 2193.28 160.016 Q2194.9 158.974 2194.9 157.099 Q2194.9 155.363 2193.72 154.437 Q2192.56 153.512 2188.6 152.655 L2187.12 152.308 Q2183.16 151.474 2181.4 149.762 Q2179.64 148.025 2179.64 145.016 Q2179.64 141.359 2182.24 139.368 Q2184.83 137.377 2189.6 137.377 Q2191.96 137.377 2194.04 137.725 Q2196.13 138.072 2197.88 138.766 Z" fill="#000000" fill-rule="nonzero" fill-opacity="1" /><path clip-path="url(#clip690)" d="M2216.1 140.988 Q2212.68 140.988 2210.69 143.674 Q2208.69 146.336 2208.69 150.988 Q2208.69 155.641 2210.66 158.326 Q2212.65 160.988 2216.1 160.988 Q2219.5 160.988 2221.5 158.303 Q2223.49 155.618 2223.49 150.988 Q2223.49 146.382 2221.5 143.697 Q2219.5 140.988 2216.1 140.988 M2216.1 137.377 Q2221.66 137.377 2224.83 140.988 Q2228 144.6 2228 150.988 Q2228 157.354 2224.83 160.988 Q2221.66 164.599 2216.1 164.599 Q2210.52 164.599 2207.35 160.988 Q2204.2 157.354 2204.2 150.988 Q2204.2 144.6 2207.35 140.988 Q2210.52 137.377 2216.1 137.377 Z" fill="#000000" fill-rule="nonzero" fill-opacity="1" /><path clip-path="url(#clip690)" d="M2256.61 148.28 L2256.61 163.928 L2252.35 163.928 L2252.35 148.419 Q2252.35 144.738 2250.92 142.91 Q2249.48 141.081 2246.61 141.081 Q2243.16 141.081 2241.17 143.28 Q2239.18 145.479 2239.18 149.275 L2239.18 163.928 L2234.9 163.928 L2234.9 138.002 L2239.18 138.002 L2239.18 142.03 Q2240.71 139.692 2242.77 138.535 Q2244.85 137.377 2247.56 137.377 Q2252.03 137.377 2254.32 140.155 Q2256.61 142.91 2256.61 148.28 Z" fill="#000000" fill-rule="nonzero" fill-opacity="1" /><circle clip-path="url(#clip690)" cx="1776.53" cy="198.488" r="20.48" fill="#e26f46" fill-rule="evenodd" fill-opacity="1" stroke="#000000" stroke-opacity="1" stroke-width="4.55111"/>
<path clip-path="url(#clip690)" d="M1894.39 200.12 L1894.39 215.768 L1890.13 215.768 L1890.13 200.259 Q1890.13 196.578 1888.7 194.75 Q1887.26 192.921 1884.39 192.921 Q1880.94 192.921 1878.95 195.12 Q1876.96 197.319 1876.96 201.115 L1876.96 215.768 L1872.68 215.768 L1872.68 189.842 L1876.96 189.842 L1876.96 193.87 Q1878.49 191.532 1880.55 190.375 Q1882.63 189.217 1885.34 189.217 Q1889.81 189.217 1892.1 191.995 Q1894.39 194.75 1894.39 200.12 Z" fill="#000000" fill-rule="nonzero" fill-opacity="1" /><path clip-path="url(#clip690)" d="M1914.67 202.736 Q1909.51 202.736 1907.52 203.916 Q1905.52 205.097 1905.52 207.944 Q1905.52 210.213 1907.01 211.555 Q1908.51 212.875 1911.08 212.875 Q1914.62 212.875 1916.75 210.375 Q1918.9 207.851 1918.9 203.685 L1918.9 202.736 L1914.67 202.736 M1923.16 200.977 L1923.16 215.768 L1918.9 215.768 L1918.9 211.833 Q1917.45 214.194 1915.27 215.328 Q1913.09 216.439 1909.95 216.439 Q1905.96 216.439 1903.6 214.217 Q1901.27 211.972 1901.27 208.222 Q1901.27 203.847 1904.18 201.625 Q1907.12 199.402 1912.93 199.402 L1918.9 199.402 L1918.9 198.986 Q1918.9 196.046 1916.96 194.449 Q1915.04 192.828 1911.54 192.828 Q1909.32 192.828 1907.21 193.361 Q1905.11 193.893 1903.16 194.958 L1903.16 191.023 Q1905.5 190.12 1907.7 189.68 Q1909.9 189.217 1911.98 189.217 Q1917.61 189.217 1920.39 192.134 Q1923.16 195.051 1923.16 200.977 Z" fill="#000000" fill-rule="nonzero" fill-opacity="1" /><path clip-path="url(#clip690)" d="M1936.06 211.879 L1936.06 225.629 L1931.77 225.629 L1931.77 189.842 L1936.06 189.842 L1936.06 193.777 Q1937.4 191.463 1939.44 190.352 Q1941.5 189.217 1944.34 189.217 Q1949.07 189.217 1952.01 192.967 Q1954.97 196.717 1954.97 202.828 Q1954.97 208.939 1952.01 212.689 Q1949.07 216.439 1944.34 216.439 Q1941.5 216.439 1939.44 215.328 Q1937.4 214.194 1936.06 211.879 M1950.55 202.828 Q1950.55 198.129 1948.6 195.467 Q1946.68 192.782 1943.3 192.782 Q1939.92 192.782 1937.98 195.467 Q1936.06 198.129 1936.06 202.828 Q1936.06 207.527 1937.98 210.213 Q1939.92 212.875 1943.3 212.875 Q1946.68 212.875 1948.6 210.213 Q1950.55 207.527 1950.55 202.828 Z" fill="#000000" fill-rule="nonzero" fill-opacity="1" /><path clip-path="url(#clip690)" d="M1973.81 202.736 Q1968.65 202.736 1966.66 203.916 Q1964.67 205.097 1964.67 207.944 Q1964.67 210.213 1966.15 211.555 Q1967.65 212.875 1970.22 212.875 Q1973.77 212.875 1975.89 210.375 Q1978.05 207.851 1978.05 203.685 L1978.05 202.736 L1973.81 202.736 M1982.31 200.977 L1982.31 215.768 L1978.05 215.768 L1978.05 211.833 Q1976.59 214.194 1974.41 215.328 Q1972.24 216.439 1969.09 216.439 Q1965.11 216.439 1962.75 214.217 Q1960.41 211.972 1960.41 208.222 Q1960.41 203.847 1963.33 201.625 Q1966.27 199.402 1972.08 199.402 L1978.05 199.402 L1978.05 198.986 Q1978.05 196.046 1976.1 194.449 Q1974.18 192.828 1970.69 192.828 Q1968.46 192.828 1966.36 193.361 Q1964.25 193.893 1962.31 194.958 L1962.31 191.023 Q1964.64 190.12 1966.84 189.68 Q1969.04 189.217 1971.13 189.217 Q1976.75 189.217 1979.53 192.134 Q1982.31 195.051 1982.31 200.977 Z" fill="#000000" fill-rule="nonzero" fill-opacity="1" /><path clip-path="url(#clip690)" d="M1990.92 179.75 L1995.2 179.75 L1995.2 201.023 L2007.91 189.842 L2013.35 189.842 L1999.6 201.972 L2013.93 215.768 L2008.37 215.768 L1995.2 203.106 L1995.2 215.768 L1990.92 215.768 L1990.92 179.75 Z" fill="#000000" fill-rule="nonzero" fill-opacity="1" /><path clip-path="url(#clip690)" d="M2029.48 202.736 Q2024.32 202.736 2022.33 203.916 Q2020.34 205.097 2020.34 207.944 Q2020.34 210.213 2021.82 211.555 Q2023.33 212.875 2025.89 212.875 Q2029.44 212.875 2031.57 210.375 Q2033.72 207.851 2033.72 203.685 L2033.72 202.736 L2029.48 202.736 M2037.98 200.977 L2037.98 215.768 L2033.72 215.768 L2033.72 211.833 Q2032.26 214.194 2030.08 215.328 Q2027.91 216.439 2024.76 216.439 Q2020.78 216.439 2018.42 214.217 Q2016.08 211.972 2016.08 208.222 Q2016.08 203.847 2019 201.625 Q2021.94 199.402 2027.75 199.402 L2033.72 199.402 L2033.72 198.986 Q2033.72 196.046 2031.77 194.449 Q2029.85 192.828 2026.36 192.828 Q2024.14 192.828 2022.03 193.361 Q2019.92 193.893 2017.98 194.958 L2017.98 191.023 Q2020.32 190.12 2022.52 189.68 Q2024.71 189.217 2026.8 189.217 Q2032.42 189.217 2035.2 192.134 Q2037.98 195.051 2037.98 200.977 Z" fill="#000000" fill-rule="nonzero" fill-opacity="1" /><path clip-path="url(#clip690)" d="M2062.01 181.208 L2068.97 181.208 L2077.79 204.727 L2086.66 181.208 L2093.63 181.208 L2093.63 215.768 L2089.07 215.768 L2089.07 185.421 L2080.15 209.125 L2075.45 209.125 L2066.54 185.421 L2066.54 215.768 L2062.01 215.768 L2062.01 181.208 Z" fill="#000000" fill-rule="nonzero" fill-opacity="1" /><path clip-path="url(#clip690)" d="M2128.79 183.87 L2128.79 188.801 Q2126.43 186.602 2123.74 185.514 Q2121.08 184.426 2118.07 184.426 Q2112.14 184.426 2109 188.06 Q2105.85 191.671 2105.85 198.523 Q2105.85 205.352 2109 208.986 Q2112.14 212.597 2118.07 212.597 Q2121.08 212.597 2123.74 211.509 Q2126.43 210.421 2128.79 208.222 L2128.79 213.106 Q2126.33 214.773 2123.58 215.606 Q2120.85 216.439 2117.79 216.439 Q2109.95 216.439 2105.43 211.648 Q2100.92 206.833 2100.92 198.523 Q2100.92 190.19 2105.43 185.398 Q2109.95 180.583 2117.79 180.583 Q2120.89 180.583 2123.63 181.416 Q2126.38 182.227 2128.79 183.87 Z" fill="#000000" fill-rule="nonzero" fill-opacity="1" /></svg>
