<?xml version="1.0" encoding="utf-8"?>
<svg xmlns="http://www.w3.org/2000/svg" xmlns:xlink="http://www.w3.org/1999/xlink" width="600" height="400" viewBox="0 0 2400 1600">
<defs>
  <clipPath id="clip770">
    <rect x="0" y="0" width="2400" height="1600"/>
  </clipPath>
</defs>
<path clip-path="url(#clip770)" d="M0 1600 L2400 1600 L2400 0 L0 0  Z" fill="#ffffff" fill-rule="evenodd" fill-opacity="1"/>
<defs>
  <clipPath id="clip771">
    <rect x="480" y="0" width="1681" height="1600"/>
  </clipPath>
</defs>
<path clip-path="url(#clip770)" d="M178.867 1486.45 L2352.76 1486.45 L2352.76 47.2441 L178.867 47.2441  Z" fill="#ffffff" fill-rule="evenodd" fill-opacity="1"/>
<defs>
  <clipPath id="clip772">
    <rect x="178" y="47" width="2175" height="1440"/>
  </clipPath>
</defs>
<polyline clip-path="url(#clip772)" style="stroke:#000000; stroke-linecap:round; stroke-linejoin:round; stroke-width:2; stroke-opacity:0.1; fill:none" points="240.392,1486.45 240.392,47.2441 "/>
<polyline clip-path="url(#clip772)" style="stroke:#000000; stroke-linecap:round; stroke-linejoin:round; stroke-width:2; stroke-opacity:0.1; fill:none" points="753.102,1486.45 753.102,47.2441 "/>
<polyline clip-path="url(#clip772)" style="stroke:#000000; stroke-linecap:round; stroke-linejoin:round; stroke-width:2; stroke-opacity:0.1; fill:none" points="1265.81,1486.45 1265.81,47.2441 "/>
<polyline clip-path="url(#clip772)" style="stroke:#000000; stroke-linecap:round; stroke-linejoin:round; stroke-width:2; stroke-opacity:0.1; fill:none" points="1778.52,1486.45 1778.52,47.2441 "/>
<polyline clip-path="url(#clip772)" style="stroke:#000000; stroke-linecap:round; stroke-linejoin:round; stroke-width:2; stroke-opacity:0.1; fill:none" points="2291.23,1486.45 2291.23,47.2441 "/>
<polyline clip-path="url(#clip770)" style="stroke:#000000; stroke-linecap:round; stroke-linejoin:round; stroke-width:4; stroke-opacity:1; fill:none" points="178.867,1486.45 2352.76,1486.45 "/>
<polyline clip-path="url(#clip770)" style="stroke:#000000; stroke-linecap:round; stroke-linejoin:round; stroke-width:4; stroke-opacity:1; fill:none" points="240.392,1486.45 240.392,1467.55 "/>
<polyline clip-path="url(#clip770)" style="stroke:#000000; stroke-linecap:round; stroke-linejoin:round; stroke-width:4; stroke-opacity:1; fill:none" points="753.102,1486.45 753.102,1467.55 "/>
<polyline clip-path="url(#clip770)" style="stroke:#000000; stroke-linecap:round; stroke-linejoin:round; stroke-width:4; stroke-opacity:1; fill:none" points="1265.81,1486.45 1265.81,1467.55 "/>
<polyline clip-path="url(#clip770)" style="stroke:#000000; stroke-linecap:round; stroke-linejoin:round; stroke-width:4; stroke-opacity:1; fill:none" points="1778.52,1486.45 1778.52,1467.55 "/>
<polyline clip-path="url(#clip770)" style="stroke:#000000; stroke-linecap:round; stroke-linejoin:round; stroke-width:4; stroke-opacity:1; fill:none" points="2291.23,1486.45 2291.23,1467.55 "/>
<path clip-path="url(#clip770)" d="M194.455 1532.02 L224.13 1532.02 L224.13 1535.95 L194.455 1535.95 L194.455 1532.02 Z" fill="#000000" fill-rule="nonzero" fill-opacity="1" /><path clip-path="url(#clip770)" d="M235.033 1544.91 L242.672 1544.91 L242.672 1518.55 L234.362 1520.21 L234.362 1515.95 L242.626 1514.29 L247.301 1514.29 L247.301 1544.91 L254.94 1544.91 L254.94 1548.85 L235.033 1548.85 L235.033 1544.91 Z" fill="#000000" fill-rule="nonzero" fill-opacity="1" /><path clip-path="url(#clip770)" d="M274.385 1517.37 Q270.774 1517.37 268.945 1520.93 Q267.139 1524.47 267.139 1531.6 Q267.139 1538.71 268.945 1542.27 Q270.774 1545.82 274.385 1545.82 Q278.019 1545.82 279.824 1542.27 Q281.653 1538.71 281.653 1531.6 Q281.653 1524.47 279.824 1520.93 Q278.019 1517.37 274.385 1517.37 M274.385 1513.66 Q280.195 1513.66 283.25 1518.27 Q286.329 1522.85 286.329 1531.6 Q286.329 1540.33 283.25 1544.94 Q280.195 1549.52 274.385 1549.52 Q268.575 1549.52 265.496 1544.94 Q262.44 1540.33 262.44 1531.6 Q262.44 1522.85 265.496 1518.27 Q268.575 1513.66 274.385 1513.66 Z" fill="#000000" fill-rule="nonzero" fill-opacity="1" /><path clip-path="url(#clip770)" d="M722.743 1532.02 L752.419 1532.02 L752.419 1535.95 L722.743 1535.95 L722.743 1532.02 Z" fill="#000000" fill-rule="nonzero" fill-opacity="1" /><path clip-path="url(#clip770)" d="M762.558 1514.29 L780.914 1514.29 L780.914 1518.22 L766.84 1518.22 L766.84 1526.7 Q767.858 1526.35 768.877 1526.19 Q769.895 1526 770.914 1526 Q776.701 1526 780.081 1529.17 Q783.46 1532.34 783.46 1537.76 Q783.46 1543.34 779.988 1546.44 Q776.516 1549.52 770.196 1549.52 Q768.02 1549.52 765.752 1549.15 Q763.507 1548.78 761.099 1548.04 L761.099 1543.34 Q763.183 1544.47 765.405 1545.03 Q767.627 1545.58 770.104 1545.58 Q774.108 1545.58 776.446 1543.48 Q778.784 1541.37 778.784 1537.76 Q778.784 1534.15 776.446 1532.04 Q774.108 1529.94 770.104 1529.94 Q768.229 1529.94 766.354 1530.35 Q764.502 1530.77 762.558 1531.65 L762.558 1514.29 Z" fill="#000000" fill-rule="nonzero" fill-opacity="1" /><path clip-path="url(#clip770)" d="M1265.81 1517.37 Q1262.2 1517.37 1260.37 1520.93 Q1258.57 1524.47 1258.57 1531.6 Q1258.57 1538.71 1260.37 1542.27 Q1262.2 1545.82 1265.81 1545.82 Q1269.45 1545.82 1271.25 1542.27 Q1273.08 1538.71 1273.08 1531.6 Q1273.08 1524.47 1271.25 1520.93 Q1269.45 1517.37 1265.81 1517.37 M1265.81 1513.66 Q1271.62 1513.66 1274.68 1518.27 Q1277.76 1522.85 1277.76 1531.6 Q1277.76 1540.33 1274.68 1544.94 Q1271.62 1549.52 1265.81 1549.52 Q1260 1549.52 1256.92 1544.94 Q1253.87 1540.33 1253.87 1531.6 Q1253.87 1522.85 1256.92 1518.27 Q1260 1513.66 1265.81 1513.66 Z" fill="#000000" fill-rule="nonzero" fill-opacity="1" /><path clip-path="url(#clip770)" d="M1768.8 1514.29 L1787.16 1514.29 L1787.16 1518.22 L1773.08 1518.22 L1773.08 1526.7 Q1774.1 1526.35 1775.12 1526.19 Q1776.14 1526 1777.16 1526 Q1782.94 1526 1786.32 1529.17 Q1789.7 1532.34 1789.7 1537.76 Q1789.7 1543.34 1786.23 1546.44 Q1782.76 1549.52 1776.44 1549.52 Q1774.26 1549.52 1771.99 1549.15 Q1769.75 1548.78 1767.34 1548.04 L1767.34 1543.34 Q1769.42 1544.47 1771.65 1545.03 Q1773.87 1545.58 1776.35 1545.58 Q1780.35 1545.58 1782.69 1543.48 Q1785.03 1541.37 1785.03 1537.76 Q1785.03 1534.15 1782.69 1532.04 Q1780.35 1529.94 1776.35 1529.94 Q1774.47 1529.94 1772.6 1530.35 Q1770.74 1530.77 1768.8 1531.65 L1768.8 1514.29 Z" fill="#000000" fill-rule="nonzero" fill-opacity="1" /><path clip-path="url(#clip770)" d="M2265.92 1544.91 L2273.56 1544.91 L2273.56 1518.55 L2265.25 1520.21 L2265.25 1515.95 L2273.51 1514.29 L2278.19 1514.29 L2278.19 1544.91 L2285.83 1544.91 L2285.83 1548.85 L2265.92 1548.85 L2265.92 1544.91 Z" fill="#000000" fill-rule="nonzero" fill-opacity="1" /><path clip-path="url(#clip770)" d="M2305.27 1517.37 Q2301.66 1517.37 2299.83 1520.93 Q2298.02 1524.47 2298.02 1531.6 Q2298.02 1538.71 2299.83 1542.27 Q2301.66 1545.82 2305.27 1545.82 Q2308.9 1545.82 2310.71 1542.27 Q2312.54 1538.71 2312.54 1531.6 Q2312.54 1524.47 2310.71 1520.93 Q2308.9 1517.37 2305.27 1517.37 M2305.27 1513.66 Q2311.08 1513.66 2314.14 1518.27 Q2317.21 1522.85 2317.21 1531.6 Q2317.21 1540.33 2314.14 1544.94 Q2311.08 1549.52 2305.27 1549.52 Q2299.46 1549.52 2296.38 1544.94 Q2293.33 1540.33 2293.33 1531.6 Q2293.33 1522.85 2296.38 1518.27 Q2299.46 1513.66 2305.27 1513.66 Z" fill="#000000" fill-rule="nonzero" fill-opacity="1" /><polyline clip-path="url(#clip772)" style="stroke:#000000; stroke-linecap:round; stroke-linejoin:round; stroke-width:2; stroke-opacity:0.1; fill:none" points="178.867,1427.74 2352.76,1427.74 "/>
<polyline clip-path="url(#clip772)" style="stroke:#000000; stroke-linecap:round; stroke-linejoin:round; stroke-width:2; stroke-opacity:0.1; fill:none" points="178.867,1097.29 2352.76,1097.29 "/>
<polyline clip-path="url(#clip772)" style="stroke:#000000; stroke-linecap:round; stroke-linejoin:round; stroke-width:2; stroke-opacity:0.1; fill:none" points="178.867,766.846 2352.76,766.846 "/>
<polyline clip-path="url(#clip772)" style="stroke:#000000; stroke-linecap:round; stroke-linejoin:round; stroke-width:2; stroke-opacity:0.1; fill:none" points="178.867,436.4 2352.76,436.4 "/>
<polyline clip-path="url(#clip772)" style="stroke:#000000; stroke-linecap:round; stroke-linejoin:round; stroke-width:2; stroke-opacity:0.1; fill:none" points="178.867,105.953 2352.76,105.953 "/>
<polyline clip-path="url(#clip770)" style="stroke:#000000; stroke-linecap:round; stroke-linejoin:round; stroke-width:4; stroke-opacity:1; fill:none" points="178.867,1486.45 178.867,47.2441 "/>
<polyline clip-path="url(#clip770)" style="stroke:#000000; stroke-linecap:round; stroke-linejoin:round; stroke-width:4; stroke-opacity:1; fill:none" points="178.867,1427.74 197.764,1427.74 "/>
<polyline clip-path="url(#clip770)" style="stroke:#000000; stroke-linecap:round; stroke-linejoin:round; stroke-width:4; stroke-opacity:1; fill:none" points="178.867,1097.29 197.764,1097.29 "/>
<polyline clip-path="url(#clip770)" style="stroke:#000000; stroke-linecap:round; stroke-linejoin:round; stroke-width:4; stroke-opacity:1; fill:none" points="178.867,766.846 197.764,766.846 "/>
<polyline clip-path="url(#clip770)" style="stroke:#000000; stroke-linecap:round; stroke-linejoin:round; stroke-width:4; stroke-opacity:1; fill:none" points="178.867,436.4 197.764,436.4 "/>
<polyline clip-path="url(#clip770)" style="stroke:#000000; stroke-linecap:round; stroke-linejoin:round; stroke-width:4; stroke-opacity:1; fill:none" points="178.867,105.953 197.764,105.953 "/>
<path clip-path="url(#clip770)" d="M50.9921 1428.19 L80.6679 1428.19 L80.6679 1432.13 L50.9921 1432.13 L50.9921 1428.19 Z" fill="#000000" fill-rule="nonzero" fill-opacity="1" /><path clip-path="url(#clip770)" d="M91.5706 1441.08 L99.2095 1441.08 L99.2095 1414.72 L90.8993 1416.38 L90.8993 1412.13 L99.1632 1410.46 L103.839 1410.46 L103.839 1441.08 L111.478 1441.08 L111.478 1445.02 L91.5706 1445.02 L91.5706 1441.08 Z" fill="#000000" fill-rule="nonzero" fill-opacity="1" /><path clip-path="url(#clip770)" d="M130.922 1413.54 Q127.311 1413.54 125.482 1417.1 Q123.677 1420.64 123.677 1427.77 Q123.677 1434.88 125.482 1438.44 Q127.311 1441.99 130.922 1441.99 Q134.556 1441.99 136.362 1438.44 Q138.191 1434.88 138.191 1427.77 Q138.191 1420.64 136.362 1417.1 Q134.556 1413.54 130.922 1413.54 M130.922 1409.83 Q136.732 1409.83 139.788 1414.44 Q142.867 1419.02 142.867 1427.77 Q142.867 1436.5 139.788 1441.11 Q136.732 1445.69 130.922 1445.69 Q125.112 1445.69 122.033 1441.11 Q118.978 1436.5 118.978 1427.77 Q118.978 1419.02 122.033 1414.44 Q125.112 1409.83 130.922 1409.83 Z" fill="#000000" fill-rule="nonzero" fill-opacity="1" /><path clip-path="url(#clip770)" d="M82.1494 1097.74 L111.825 1097.74 L111.825 1101.68 L82.1494 1101.68 L82.1494 1097.74 Z" fill="#000000" fill-rule="nonzero" fill-opacity="1" /><path clip-path="url(#clip770)" d="M121.964 1080.01 L140.32 1080.01 L140.32 1083.95 L126.246 1083.95 L126.246 1092.42 Q127.265 1092.07 128.283 1091.91 Q129.302 1091.73 130.32 1091.73 Q136.107 1091.73 139.487 1094.9 Q142.867 1098.07 142.867 1103.48 Q142.867 1109.06 139.394 1112.16 Q135.922 1115.24 129.603 1115.24 Q127.427 1115.24 125.158 1114.87 Q122.913 1114.5 120.506 1113.76 L120.506 1109.06 Q122.589 1110.2 124.811 1110.75 Q127.033 1111.31 129.51 1111.31 Q133.515 1111.31 135.853 1109.2 Q138.191 1107.1 138.191 1103.48 Q138.191 1099.87 135.853 1097.77 Q133.515 1095.66 129.51 1095.66 Q127.635 1095.66 125.76 1096.08 Q123.908 1096.49 121.964 1097.37 L121.964 1080.01 Z" fill="#000000" fill-rule="nonzero" fill-opacity="1" /><path clip-path="url(#clip770)" d="M130.922 752.645 Q127.311 752.645 125.482 756.209 Q123.677 759.751 123.677 766.881 Q123.677 773.987 125.482 777.552 Q127.311 781.094 130.922 781.094 Q134.556 781.094 136.362 777.552 Q138.191 773.987 138.191 766.881 Q138.191 759.751 136.362 756.209 Q134.556 752.645 130.922 752.645 M130.922 748.941 Q136.732 748.941 139.788 753.547 Q142.867 758.131 142.867 766.881 Q142.867 775.608 139.788 780.214 Q136.732 784.797 130.922 784.797 Q125.112 784.797 122.033 780.214 Q118.978 775.608 118.978 766.881 Q118.978 758.131 122.033 753.547 Q125.112 748.941 130.922 748.941 Z" fill="#000000" fill-rule="nonzero" fill-opacity="1" /><path clip-path="url(#clip770)" d="M121.964 419.12 L140.32 419.12 L140.32 423.055 L126.246 423.055 L126.246 431.527 Q127.265 431.18 128.283 431.018 Q129.302 430.833 130.32 430.833 Q136.107 430.833 139.487 434.004 Q142.867 437.175 142.867 442.592 Q142.867 448.17 139.394 451.272 Q135.922 454.351 129.603 454.351 Q127.427 454.351 125.158 453.981 Q122.913 453.61 120.506 452.869 L120.506 448.17 Q122.589 449.305 124.811 449.86 Q127.033 450.416 129.51 450.416 Q133.515 450.416 135.853 448.309 Q138.191 446.203 138.191 442.592 Q138.191 438.981 135.853 436.874 Q133.515 434.768 129.51 434.768 Q127.635 434.768 125.76 435.184 Q123.908 435.601 121.964 436.481 L121.964 419.12 Z" fill="#000000" fill-rule="nonzero" fill-opacity="1" /><path clip-path="url(#clip770)" d="M91.5706 119.298 L99.2095 119.298 L99.2095 92.9325 L90.8993 94.5992 L90.8993 90.3399 L99.1632 88.6733 L103.839 88.6733 L103.839 119.298 L111.478 119.298 L111.478 123.233 L91.5706 123.233 L91.5706 119.298 Z" fill="#000000" fill-rule="nonzero" fill-opacity="1" /><path clip-path="url(#clip770)" d="M130.922 91.7519 Q127.311 91.7519 125.482 95.3167 Q123.677 98.8584 123.677 105.988 Q123.677 113.094 125.482 116.659 Q127.311 120.201 130.922 120.201 Q134.556 120.201 136.362 116.659 Q138.191 113.094 138.191 105.988 Q138.191 98.8584 136.362 95.3167 Q134.556 91.7519 130.922 91.7519 M130.922 88.0483 Q136.732 88.0483 139.788 92.6547 Q142.867 97.238 142.867 105.988 Q142.867 114.715 139.788 119.321 Q136.732 123.905 130.922 123.905 Q125.112 123.905 122.033 119.321 Q118.978 114.715 118.978 105.988 Q118.978 97.238 122.033 92.6547 Q125.112 88.0483 130.922 88.0483 Z" fill="#000000" fill-rule="nonzero" fill-opacity="1" /><polyline clip-path="url(#clip772)" style="stroke:#009af9; stroke-linecap:round; stroke-linejoin:round; stroke-width:4; stroke-opacity:1; fill:none" points="240.392,1445.72 247.068,1439.57 253.744,1433.36 315.474,1374.18 377.203,1316.82 395.752,1300.93 414.3,1285.9 432.849,1271.84 451.397,1258.83 482.762,1239.26 514.127,1222.69 548.198,1207.69 582.269,1195.05 613.68,1184.63 645.091,1174.44 678.766,1162.71 712.442,1149.11 731.95,1140.02 751.458,1129.88 770.966,1118.61 790.474,1106.15 825.147,1081.1 859.821,1052.62 890.226,1025.37 920.631,996.679 953.781,964.698 986.931,933.055 1020.28,902.64 1053.62,874.579 1072.06,860.341 1090.49,847.114 1108.93,834.942 1127.36,823.834 1162.44,805.519 1197.52,790.443 1270.47,765.343 1331.88,744.111 1350.63,736.503 1369.37,728.084 1388.11,718.733 1406.86,708.358 1424.03,697.907 1441.2,686.533 1458.37,674.243 1475.54,661.071 1507.25,634.64 1538.97,605.988 1571.09,575.498 1603.22,544.482 1639.23,510.335 1675.23,478.121 1707.86,451.526 1740.48,427.984 1759.16,415.993 1777.84,405.09 1796.52,395.237 1815.2,386.362 1849.78,372.135 1884.37,359.973 1918.47,348.895 1952.57,337.521 1985.68,325.094 2018.78,310.372 2035.75,301.703 2052.72,292.184 2069.69,281.777 2086.66,270.467 2123.85,242.613 2161.03,211.015 2215.05,160.568 2269.07,108.625 2280.15,98.214 2291.23,87.9763 "/>
<polyline clip-path="url(#clip772)" style="stroke:#e26f46; stroke-linecap:round; stroke-linejoin:round; stroke-width:4; stroke-opacity:1; fill:none" points="240.392,436.4 253.744,436.4 377.203,436.4 451.397,436.4 514.127,436.4 582.269,436.4 645.091,436.4 712.442,436.4 790.474,436.4 859.821,436.4 920.631,436.4 986.931,436.4 1053.62,436.4 1127.36,436.4 1197.52,436.4 1270.47,436.4 1331.88,436.4 1406.86,436.4 1475.54,436.4 1538.97,436.4 1603.22,436.4 1675.23,436.4 1740.48,436.4 1815.2,436.4 1884.37,436.4 1952.57,436.4 2018.78,436.4 2086.66,436.4 2161.03,436.4 2269.07,436.4 2291.23,436.4 "/>
<path clip-path="url(#clip770)" d="M251.33 250.738 L729.959 250.738 L729.959 95.2176 L251.33 95.2176  Z" fill="#ffffff" fill-rule="evenodd" fill-opacity="1"/>
<polyline clip-path="url(#clip770)" style="stroke:#000000; stroke-linecap:round; stroke-linejoin:round; stroke-width:4; stroke-opacity:1; fill:none" points="251.33,250.738 729.959,250.738 729.959,95.2176 251.33,95.2176 251.33,250.738 "/>
<polyline clip-path="url(#clip770)" style="stroke:#009af9; stroke-linecap:round; stroke-linejoin:round; stroke-width:4; stroke-opacity:1; fill:none" points="275.484,147.058 420.41,147.058 "/>
<path clip-path="url(#clip770)" d="M479.347 127.617 L478.386 135.908 Q478.316 136.658 478.199 136.892 Q478.082 137.103 477.707 137.103 Q477.426 137.103 477.262 136.939 Q477.121 136.751 477.121 136.541 Q477.121 136.424 477.145 136.119 Q477.168 135.815 477.168 135.674 Q477.379 134.222 477.379 133.121 Q477.379 131.083 476.77 129.982 Q476.161 128.858 474.592 128.343 Q473.022 127.804 470.071 127.804 L463.326 127.804 Q461.78 127.804 461.405 128.085 Q461.054 128.366 460.726 129.678 L457.845 141.225 L462.365 141.225 Q464.052 141.225 465.059 141.014 Q466.089 140.804 466.769 140.218 Q467.471 139.609 467.846 138.789 Q468.244 137.969 468.642 136.494 Q468.76 136.002 468.877 135.815 Q469.017 135.627 469.322 135.627 Q469.556 135.627 469.72 135.791 Q469.884 135.932 469.884 136.143 L467.143 147.362 Q467.003 147.924 466.862 148.135 Q466.722 148.322 466.441 148.322 Q466.136 148.322 465.972 148.158 Q465.808 147.994 465.808 147.807 Q465.808 147.62 465.949 147.268 Q466.3 145.746 466.3 144.926 Q466.3 144.457 466.253 144.223 Q466.23 143.989 466.019 143.661 Q465.832 143.31 465.41 143.146 Q464.989 142.982 464.192 142.865 Q463.396 142.724 462.201 142.724 L457.47 142.724 L454.191 155.817 Q453.957 156.684 453.957 156.918 Q453.957 157.176 454.074 157.27 Q454.214 157.34 454.589 157.387 Q455.011 157.457 455.643 157.457 L462.646 157.457 Q464.192 157.457 465.434 157.316 Q466.675 157.176 467.706 156.825 Q468.76 156.473 469.556 156.075 Q470.352 155.677 471.102 154.951 Q471.851 154.201 472.367 153.545 Q472.905 152.866 473.538 151.718 Q474.17 150.571 474.615 149.634 Q475.06 148.674 475.739 147.128 Q475.927 146.566 476.372 146.566 Q476.63 146.566 476.77 146.706 Q476.911 146.823 476.934 146.94 L476.934 147.081 Q476.793 147.526 476.7 147.76 L472.296 158.113 Q472.039 158.698 471.828 158.815 Q471.617 158.933 470.797 158.933 L445.899 158.933 Q445.337 158.933 445.103 158.909 Q444.892 158.886 444.728 158.769 Q444.564 158.628 444.564 158.347 Q444.564 157.902 444.752 157.715 Q444.939 157.504 445.15 157.48 Q445.361 157.457 445.899 157.457 Q447.07 157.457 447.773 157.387 Q448.476 157.316 448.921 157.223 Q449.389 157.106 449.623 156.778 Q449.881 156.45 449.998 156.169 Q450.115 155.864 450.279 155.185 L456.603 129.818 Q456.838 128.952 456.838 128.671 Q456.838 128.366 456.627 128.179 Q456.439 127.992 455.924 127.921 Q455.409 127.828 454.987 127.828 Q454.589 127.804 453.722 127.804 Q453.16 127.804 452.926 127.781 Q452.715 127.757 452.551 127.64 Q452.387 127.523 452.387 127.265 Q452.387 126.61 452.668 126.469 Q452.973 126.305 453.816 126.305 L478.035 126.305 Q478.995 126.305 479.206 126.516 Q479.44 126.703 479.347 127.617 Z" fill="#000000" fill-rule="nonzero" fill-opacity="1" /><path clip-path="url(#clip770)" d="M524.581 146.261 Q524.862 146.542 524.862 146.94 Q524.862 147.338 524.581 147.62 Q524.3 147.901 523.902 147.901 L493.874 147.901 Q493.476 147.901 493.195 147.62 Q492.914 147.338 492.914 146.94 Q492.914 146.542 493.195 146.261 Q493.476 145.98 493.874 145.98 L523.902 145.98 Q524.3 145.98 524.581 146.261 Z" fill="#000000" fill-rule="nonzero" fill-opacity="1" /><path clip-path="url(#clip770)" d="M561.412 153.381 Q561.599 153.592 561.599 153.803 Q561.599 154.014 561.131 154.623 Q560.686 155.232 559.725 156.052 Q558.765 156.871 557.524 157.644 Q556.282 158.417 554.455 158.933 Q552.628 159.471 550.708 159.471 Q547.265 159.471 545.204 157.012 Q543.166 154.553 543.166 150.782 Q543.166 148.369 543.962 146.238 Q544.759 144.083 546.047 142.56 Q547.358 141.038 548.998 139.937 Q550.661 138.813 552.394 138.274 Q554.128 137.735 555.744 137.735 Q558.109 137.735 559.491 138.93 Q560.873 140.124 560.873 141.811 Q560.873 142.209 560.756 142.701 Q560.662 143.193 560.334 143.966 Q560.03 144.739 559.234 145.511 Q558.437 146.261 557.266 146.753 Q554.666 147.854 549.935 147.854 L547.382 147.854 Q546.632 150.875 546.632 152.843 Q546.632 153.616 546.773 154.412 Q546.913 155.185 547.288 156.169 Q547.686 157.152 548.576 157.785 Q549.49 158.394 550.802 158.394 Q551.223 158.394 551.668 158.37 Q552.137 158.347 553.308 158.089 Q554.502 157.832 555.556 157.387 Q556.61 156.942 557.945 155.981 Q559.304 154.998 560.381 153.663 Q560.756 153.171 561.014 153.171 Q561.225 153.171 561.412 153.381 M559.28 141.811 Q559.28 140.523 558.32 139.656 Q557.383 138.789 555.744 138.789 Q555.228 138.789 554.596 138.906 Q553.964 139.023 552.91 139.515 Q551.879 140.007 550.965 140.827 Q550.052 141.623 549.139 143.193 Q548.225 144.739 547.686 146.8 L549.654 146.8 Q550.333 146.8 550.825 146.8 Q551.317 146.776 552.394 146.683 Q553.495 146.589 554.291 146.425 Q555.088 146.238 556.095 145.863 Q557.102 145.488 557.735 144.996 Q558.39 144.481 558.835 143.661 Q559.28 142.841 559.28 141.811 Z" fill="#000000" fill-rule="nonzero" fill-opacity="1" /><path clip-path="url(#clip770)" d="M570.994 158.3 L570.994 151.976 Q570.994 151.437 571.018 151.25 Q571.041 151.063 571.182 150.922 Q571.322 150.782 571.603 150.782 Q571.931 150.782 572.048 150.922 Q572.189 151.063 572.283 151.601 Q573.009 154.904 574.554 156.661 Q576.124 158.394 578.958 158.394 Q581.651 158.394 583.01 157.199 Q584.368 156.005 584.368 154.037 Q584.368 150.524 579.38 149.634 Q576.499 149.048 575.304 148.674 Q574.109 148.275 573.055 147.409 Q570.994 145.722 570.994 143.333 Q570.994 140.944 572.798 139.187 Q574.625 137.431 578.653 137.431 Q581.347 137.431 583.174 138.789 Q583.713 138.368 583.994 138.016 Q584.626 137.431 584.954 137.431 Q585.329 137.431 585.399 137.688 Q585.469 137.923 585.469 138.602 L585.469 143.427 Q585.469 143.966 585.446 144.153 Q585.423 144.34 585.282 144.481 Q585.141 144.598 584.837 144.598 Q584.298 144.598 584.275 144.153 Q583.9 138.344 578.653 138.344 Q575.819 138.344 574.554 139.445 Q573.29 140.523 573.29 141.998 Q573.29 142.818 573.664 143.45 Q574.063 144.059 574.554 144.434 Q575.07 144.785 576.007 145.137 Q576.944 145.465 577.506 145.582 Q578.091 145.699 579.192 145.933 Q583.033 146.659 584.65 148.228 Q586.664 150.243 586.664 152.796 Q586.664 155.63 584.743 157.551 Q582.823 159.471 578.958 159.471 Q575.843 159.471 573.664 157.387 Q573.383 157.668 573.173 157.925 Q572.962 158.16 572.868 158.253 Q572.798 158.347 572.774 158.417 Q572.751 158.464 572.704 158.511 Q571.744 159.471 571.51 159.471 Q571.135 159.471 571.065 159.214 Q570.994 158.979 570.994 158.3 Z" fill="#000000" fill-rule="nonzero" fill-opacity="1" /><path clip-path="url(#clip770)" d="M588.536 158.933 L588.536 157.457 Q591.089 157.457 591.675 157.152 Q592.26 156.825 592.26 155.279 L592.26 142.373 Q592.26 140.593 591.651 140.171 Q591.066 139.75 588.724 139.75 L588.724 138.251 L595.422 137.735 L595.422 155.325 Q595.422 156.754 595.938 157.106 Q596.453 157.457 598.795 157.457 L598.795 158.933 Q593.9 158.792 593.806 158.792 Q593.15 158.792 588.536 158.933 M590.55 129.373 Q590.55 128.413 591.277 127.64 Q592.026 126.844 593.08 126.844 Q594.134 126.844 594.884 127.57 Q595.633 128.273 595.633 129.397 Q595.633 130.498 594.884 131.224 Q594.134 131.926 593.08 131.926 Q591.979 131.926 591.253 131.154 Q590.55 130.381 590.55 129.373 Z" fill="#000000" fill-rule="nonzero" fill-opacity="1" /><path clip-path="url(#clip770)" d="M602.071 158.933 L602.071 157.457 Q604.624 157.457 605.209 157.152 Q605.795 156.825 605.795 155.279 L605.795 142.42 Q605.795 140.64 605.163 140.195 Q604.554 139.75 602.071 139.75 L602.071 138.251 L608.816 137.735 L608.816 142.771 Q611.065 137.735 615.913 137.735 Q619.52 137.735 620.949 139.515 Q622.003 140.71 622.214 142.045 Q622.448 143.38 622.448 146.847 L622.448 156.005 Q622.495 157.012 623.268 157.246 Q624.041 157.457 626.196 157.457 L626.196 158.933 Q621.301 158.792 620.809 158.792 Q620.434 158.792 615.398 158.933 L615.398 157.457 Q617.951 157.457 618.537 157.152 Q619.146 156.825 619.146 155.279 L619.146 144.106 Q619.146 141.67 618.396 140.241 Q617.647 138.789 615.586 138.789 Q613.103 138.789 611.112 140.874 Q609.121 142.958 609.121 146.472 L609.121 155.279 Q609.121 156.825 609.706 157.152 Q610.315 157.457 612.845 157.457 L612.845 158.933 Q607.95 158.792 607.481 158.792 Q607.107 158.792 602.071 158.933 Z" fill="#000000" fill-rule="nonzero" fill-opacity="1" /><path clip-path="url(#clip770)" d="M634.12 146.94 Q634.12 138.836 637.142 132.301 Q638.43 129.561 640.234 127.265 Q642.037 124.97 643.232 123.963 Q644.426 122.956 644.754 122.956 Q645.223 122.956 645.246 123.424 Q645.246 123.658 644.614 124.244 Q636.884 132.114 636.908 146.94 Q636.908 161.814 644.426 169.379 Q645.246 170.199 645.246 170.456 Q645.246 170.925 644.754 170.925 Q644.426 170.925 643.279 169.965 Q642.131 169.004 640.351 166.802 Q638.571 164.601 637.282 161.907 Q634.12 155.372 634.12 146.94 Z" fill="#000000" fill-rule="nonzero" fill-opacity="1" /><path clip-path="url(#clip770)" d="M684.438 127.617 L683.478 135.908 Q683.408 136.658 683.291 136.892 Q683.173 137.103 682.799 137.103 Q682.518 137.103 682.354 136.939 Q682.213 136.751 682.213 136.541 Q682.213 136.424 682.237 136.119 Q682.26 135.815 682.26 135.674 Q682.471 134.222 682.471 133.121 Q682.471 131.083 681.862 129.982 Q681.253 128.858 679.684 128.343 Q678.114 127.804 675.163 127.804 L668.417 127.804 Q666.871 127.804 666.497 128.085 Q666.145 128.366 665.817 129.678 L662.936 141.225 L667.457 141.225 Q669.143 141.225 670.151 141.014 Q671.181 140.804 671.86 140.218 Q672.563 139.609 672.938 138.789 Q673.336 137.969 673.734 136.494 Q673.851 136.002 673.968 135.815 Q674.109 135.627 674.413 135.627 Q674.648 135.627 674.812 135.791 Q674.976 135.932 674.976 136.143 L672.235 147.362 Q672.095 147.924 671.954 148.135 Q671.814 148.322 671.533 148.322 Q671.228 148.322 671.064 148.158 Q670.9 147.994 670.9 147.807 Q670.9 147.62 671.041 147.268 Q671.392 145.746 671.392 144.926 Q671.392 144.457 671.345 144.223 Q671.322 143.989 671.111 143.661 Q670.924 143.31 670.502 143.146 Q670.08 142.982 669.284 142.865 Q668.488 142.724 667.293 142.724 L662.562 142.724 L659.283 155.817 Q659.048 156.684 659.048 156.918 Q659.048 157.176 659.165 157.27 Q659.306 157.34 659.681 157.387 Q660.102 157.457 660.735 157.457 L667.738 157.457 Q669.284 157.457 670.525 157.316 Q671.767 157.176 672.797 156.825 Q673.851 156.473 674.648 156.075 Q675.444 155.677 676.194 154.951 Q676.943 154.201 677.458 153.545 Q677.997 152.866 678.63 151.718 Q679.262 150.571 679.707 149.634 Q680.152 148.674 680.831 147.128 Q681.019 146.566 681.464 146.566 Q681.721 146.566 681.862 146.706 Q682.002 146.823 682.026 146.94 L682.026 147.081 Q681.885 147.526 681.792 147.76 L677.388 158.113 Q677.13 158.698 676.92 158.815 Q676.709 158.933 675.889 158.933 L650.991 158.933 Q650.429 158.933 650.195 158.909 Q649.984 158.886 649.82 158.769 Q649.656 158.628 649.656 158.347 Q649.656 157.902 649.843 157.715 Q650.031 157.504 650.242 157.48 Q650.452 157.457 650.991 157.457 Q652.162 157.457 652.865 157.387 Q653.568 157.316 654.013 157.223 Q654.481 157.106 654.715 156.778 Q654.973 156.45 655.09 156.169 Q655.207 155.864 655.371 155.185 L661.695 129.818 Q661.929 128.952 661.929 128.671 Q661.929 128.366 661.719 128.179 Q661.531 127.992 661.016 127.921 Q660.501 127.828 660.079 127.828 Q659.681 127.804 658.814 127.804 Q658.252 127.804 658.018 127.781 Q657.807 127.757 657.643 127.64 Q657.479 127.523 657.479 127.265 Q657.479 126.61 657.76 126.469 Q658.065 126.305 658.908 126.305 L683.127 126.305 Q684.087 126.305 684.298 126.516 Q684.532 126.703 684.438 127.617 Z" fill="#000000" fill-rule="nonzero" fill-opacity="1" /><path clip-path="url(#clip770)" d="M687.389 170.456 Q687.389 170.222 687.998 169.637 Q695.728 161.767 695.728 146.94 Q695.728 132.067 688.303 124.548 Q687.389 123.682 687.389 123.424 Q687.389 122.956 687.858 122.956 Q688.185 122.956 689.333 123.916 Q690.504 124.876 692.261 127.078 Q694.041 129.28 695.353 131.973 Q698.515 138.508 698.515 146.94 Q698.515 155.044 695.493 161.579 Q694.205 164.32 692.402 166.615 Q690.598 168.911 689.403 169.918 Q688.209 170.925 687.858 170.925 Q687.389 170.925 687.389 170.456 Z" fill="#000000" fill-rule="nonzero" fill-opacity="1" /><polyline clip-path="url(#clip770)" style="stroke:#e26f46; stroke-linecap:round; stroke-linejoin:round; stroke-width:4; stroke-opacity:1; fill:none" points="275.484,198.898 420.41,198.898 "/>
<path clip-path="url(#clip770)" d="M492.627 182.895 Q492.627 183.574 492.323 183.715 Q492.042 183.855 491.105 183.855 Q490.004 183.855 489.325 183.949 Q488.645 184.019 488.224 184.136 Q487.802 184.23 487.544 184.558 Q487.31 184.886 487.216 185.167 Q487.123 185.424 486.959 186.057 L480.588 211.611 Q480.354 212.477 480.354 212.782 Q480.354 213.086 480.541 213.274 Q480.752 213.461 481.267 213.555 Q481.782 213.625 482.181 213.649 Q482.602 213.649 483.469 213.649 Q484.546 213.649 484.71 213.836 Q484.804 213.953 484.804 214.164 Q484.804 214.609 484.617 214.843 Q484.429 215.054 484.265 215.101 Q484.125 215.124 483.89 215.124 Q482.907 215.124 480.892 215.054 Q478.878 214.984 477.894 214.984 L471.945 215.124 Q471.242 215.124 471.242 214.539 Q471.242 214.094 471.43 213.906 Q471.617 213.695 471.828 213.672 Q472.039 213.649 472.577 213.649 Q474.498 213.649 475.318 213.438 Q476.161 213.227 476.395 212.852 Q476.653 212.454 476.934 211.377 L483.797 183.902 L483.75 183.902 L464.38 214.257 L464.239 214.468 Q464.099 214.656 464.052 214.726 Q464.005 214.773 463.864 214.913 Q463.747 215.03 463.607 215.077 Q463.49 215.124 463.326 215.124 Q463.045 215.124 462.881 214.937 Q462.74 214.749 462.693 214.609 Q462.67 214.445 462.599 214.023 L458.477 184.277 L458.43 184.277 L451.895 210.416 Q451.708 211.142 451.708 211.517 Q451.708 212.477 452.387 213.063 Q453.09 213.625 454.964 213.649 Q455.83 213.649 455.83 214.164 Q455.83 215.124 454.964 215.124 Q454.167 215.124 452.504 215.054 Q450.841 214.984 450.022 214.984 Q449.225 214.984 447.609 215.054 Q446.016 215.124 445.243 215.124 Q444.564 215.124 444.564 214.539 Q444.564 213.649 445.431 213.649 Q446.836 213.602 447.797 213.321 Q448.757 213.04 449.296 212.501 Q449.858 211.962 450.115 211.423 Q450.396 210.861 450.607 210.041 L456.697 185.612 Q456.884 184.839 456.884 184.722 Q456.884 184.324 456.65 184.183 Q456.439 184.019 455.83 183.949 Q454.659 183.855 453.769 183.855 Q453.184 183.855 452.949 183.832 Q452.739 183.808 452.551 183.691 Q452.387 183.551 452.387 183.27 Q452.387 182.825 452.575 182.637 Q452.785 182.426 453.02 182.403 Q453.254 182.356 453.816 182.356 L460.398 182.356 Q461.358 182.356 461.569 182.52 Q461.78 182.661 461.873 183.457 L465.621 210.604 L483.141 183.27 Q483.586 182.59 483.82 182.473 Q484.054 182.356 484.991 182.356 L491.339 182.356 Q491.854 182.356 492.065 182.38 Q492.276 182.403 492.44 182.52 Q492.627 182.637 492.627 182.895 Z" fill="#000000" fill-rule="nonzero" fill-opacity="1" /></svg>
