<?xml version="1.0" encoding="utf-8"?>
<svg xmlns="http://www.w3.org/2000/svg" xmlns:xlink="http://www.w3.org/1999/xlink" width="600" height="400" viewBox="0 0 2400 1600">
<defs>
  <clipPath id="clip360">
    <rect x="0" y="0" width="2400" height="1600"/>
  </clipPath>
</defs>
<path clip-path="url(#clip360)" d="M0 1600 L2400 1600 L2400 0 L0 0  Z" fill="#ffffff" fill-rule="evenodd" fill-opacity="1"/>
<defs>
  <clipPath id="clip361">
    <rect x="480" y="0" width="1681" height="1600"/>
  </clipPath>
</defs>
<path clip-path="url(#clip360)" d="M213.607 1410.9 L2352.76 1410.9 L2352.76 47.2441 L213.607 47.2441  Z" fill="#ffffff" fill-rule="evenodd" fill-opacity="1"/>
<defs>
  <clipPath id="clip362">
    <rect x="213" y="47" width="2140" height="1365"/>
  </clipPath>
</defs>
<polyline clip-path="url(#clip362)" style="stroke:#000000; stroke-linecap:round; stroke-linejoin:round; stroke-width:2; stroke-opacity:0.1; fill:none" points="408.687,1410.9 408.687,47.2441 "/>
<polyline clip-path="url(#clip362)" style="stroke:#000000; stroke-linecap:round; stroke-linejoin:round; stroke-width:2; stroke-opacity:0.1; fill:none" points="1081.38,1410.9 1081.38,47.2441 "/>
<polyline clip-path="url(#clip362)" style="stroke:#000000; stroke-linecap:round; stroke-linejoin:round; stroke-width:2; stroke-opacity:0.1; fill:none" points="1754.06,1410.9 1754.06,47.2441 "/>
<polyline clip-path="url(#clip360)" style="stroke:#000000; stroke-linecap:round; stroke-linejoin:round; stroke-width:4; stroke-opacity:1; fill:none" points="213.607,1410.9 2352.76,1410.9 "/>
<polyline clip-path="url(#clip360)" style="stroke:#000000; stroke-linecap:round; stroke-linejoin:round; stroke-width:4; stroke-opacity:1; fill:none" points="408.687,1410.9 408.687,1392 "/>
<polyline clip-path="url(#clip360)" style="stroke:#000000; stroke-linecap:round; stroke-linejoin:round; stroke-width:4; stroke-opacity:1; fill:none" points="1081.38,1410.9 1081.38,1392 "/>
<polyline clip-path="url(#clip360)" style="stroke:#000000; stroke-linecap:round; stroke-linejoin:round; stroke-width:4; stroke-opacity:1; fill:none" points="1754.06,1410.9 1754.06,1392 "/>
<path clip-path="url(#clip360)" d="M346.455 1485.02 L354.094 1485.02 L354.094 1458.66 L345.784 1460.32 L345.784 1456.06 L354.048 1454.4 L358.723 1454.4 L358.723 1485.02 L366.362 1485.02 L366.362 1488.96 L346.455 1488.96 L346.455 1485.02 Z" fill="#000000" fill-rule="nonzero" fill-opacity="1" /><path clip-path="url(#clip360)" d="M385.807 1457.48 Q382.196 1457.48 380.367 1461.04 Q378.561 1464.58 378.561 1471.71 Q378.561 1478.82 380.367 1482.38 Q382.196 1485.92 385.807 1485.92 Q389.441 1485.92 391.246 1482.38 Q393.075 1478.82 393.075 1471.71 Q393.075 1464.58 391.246 1461.04 Q389.441 1457.48 385.807 1457.48 M385.807 1453.77 Q391.617 1453.77 394.672 1458.38 Q397.751 1462.96 397.751 1471.71 Q397.751 1480.44 394.672 1485.04 Q391.617 1489.63 385.807 1489.63 Q379.997 1489.63 376.918 1485.04 Q373.862 1480.44 373.862 1471.71 Q373.862 1462.96 376.918 1458.38 Q379.997 1453.77 385.807 1453.77 Z" fill="#000000" fill-rule="nonzero" fill-opacity="1" /><path clip-path="url(#clip360)" d="M397.751 1447.87 L421.863 1447.87 L421.863 1451.07 L397.751 1451.07 L397.751 1447.87 Z" fill="#000000" fill-rule="nonzero" fill-opacity="1" /><path clip-path="url(#clip360)" d="M430.721 1458.35 L436.928 1458.35 L436.928 1436.93 L430.176 1438.28 L430.176 1434.82 L436.89 1433.47 L440.689 1433.47 L440.689 1458.35 L446.896 1458.35 L446.896 1461.55 L430.721 1461.55 L430.721 1458.35 Z" fill="#000000" fill-rule="nonzero" fill-opacity="1" /><path clip-path="url(#clip360)" d="M454.607 1433.47 L469.522 1433.47 L469.522 1436.66 L458.086 1436.66 L458.086 1443.55 Q458.914 1443.27 459.741 1443.13 Q460.569 1442.98 461.397 1442.98 Q466.098 1442.98 468.844 1445.56 Q471.59 1448.14 471.59 1452.54 Q471.59 1457.07 468.769 1459.59 Q465.948 1462.09 460.814 1462.09 Q459.046 1462.09 457.202 1461.79 Q455.378 1461.49 453.422 1460.89 L453.422 1457.07 Q455.115 1457.99 456.92 1458.44 Q458.726 1458.89 460.738 1458.89 Q463.992 1458.89 465.892 1457.18 Q467.791 1455.47 467.791 1452.54 Q467.791 1449.6 465.892 1447.89 Q463.992 1446.18 460.738 1446.18 Q459.215 1446.18 457.691 1446.52 Q456.187 1446.86 454.607 1447.57 L454.607 1433.47 Z" fill="#000000" fill-rule="nonzero" fill-opacity="1" /><path clip-path="url(#clip360)" d="M1018.74 1485.02 L1026.38 1485.02 L1026.38 1458.66 L1018.07 1460.32 L1018.07 1456.06 L1026.33 1454.4 L1031.01 1454.4 L1031.01 1485.02 L1038.65 1485.02 L1038.65 1488.96 L1018.74 1488.96 L1018.74 1485.02 Z" fill="#000000" fill-rule="nonzero" fill-opacity="1" /><path clip-path="url(#clip360)" d="M1058.09 1457.48 Q1054.48 1457.48 1052.65 1461.04 Q1050.85 1464.58 1050.85 1471.71 Q1050.85 1478.82 1052.65 1482.38 Q1054.48 1485.92 1058.09 1485.92 Q1061.72 1485.92 1063.53 1482.38 Q1065.36 1478.82 1065.36 1471.71 Q1065.36 1464.58 1063.53 1461.04 Q1061.72 1457.48 1058.09 1457.48 M1058.09 1453.77 Q1063.9 1453.77 1066.96 1458.38 Q1070.03 1462.96 1070.03 1471.71 Q1070.03 1480.44 1066.96 1485.04 Q1063.9 1489.63 1058.09 1489.63 Q1052.28 1489.63 1049.2 1485.04 Q1046.15 1480.44 1046.15 1471.71 Q1046.15 1462.96 1049.2 1458.38 Q1052.28 1453.77 1058.09 1453.77 Z" fill="#000000" fill-rule="nonzero" fill-opacity="1" /><path clip-path="url(#clip360)" d="M1070.03 1447.87 L1094.15 1447.87 L1094.15 1451.07 L1070.03 1451.07 L1070.03 1447.87 Z" fill="#000000" fill-rule="nonzero" fill-opacity="1" /><path clip-path="url(#clip360)" d="M1103 1458.35 L1109.21 1458.35 L1109.21 1436.93 L1102.46 1438.28 L1102.46 1434.82 L1109.17 1433.47 L1112.97 1433.47 L1112.97 1458.35 L1119.18 1458.35 L1119.18 1461.55 L1103 1461.55 L1103 1458.35 Z" fill="#000000" fill-rule="nonzero" fill-opacity="1" /><path clip-path="url(#clip360)" d="M1134.98 1435.97 Q1132.04 1435.97 1130.56 1438.86 Q1129.09 1441.74 1129.09 1447.53 Q1129.09 1453.31 1130.56 1456.2 Q1132.04 1459.08 1134.98 1459.08 Q1137.93 1459.08 1139.4 1456.2 Q1140.88 1453.31 1140.88 1447.53 Q1140.88 1441.74 1139.4 1438.86 Q1137.93 1435.97 1134.98 1435.97 M1134.98 1432.96 Q1139.7 1432.96 1142.18 1436.7 Q1144.68 1440.43 1144.68 1447.53 Q1144.68 1454.62 1142.18 1458.37 Q1139.7 1462.09 1134.98 1462.09 Q1130.26 1462.09 1127.76 1458.37 Q1125.27 1454.62 1125.27 1447.53 Q1125.27 1440.43 1127.76 1436.7 Q1130.26 1432.96 1134.98 1432.96 Z" fill="#000000" fill-rule="nonzero" fill-opacity="1" /><path clip-path="url(#clip360)" d="M1704.08 1485.02 L1711.72 1485.02 L1711.72 1458.66 L1703.41 1460.32 L1703.41 1456.06 L1711.68 1454.4 L1716.35 1454.4 L1716.35 1485.02 L1723.99 1485.02 L1723.99 1488.96 L1704.08 1488.96 L1704.08 1485.02 Z" fill="#000000" fill-rule="nonzero" fill-opacity="1" /><path clip-path="url(#clip360)" d="M1743.44 1457.48 Q1739.83 1457.48 1738 1461.04 Q1736.19 1464.58 1736.19 1471.71 Q1736.19 1478.82 1738 1482.38 Q1739.83 1485.92 1743.44 1485.92 Q1747.07 1485.92 1748.88 1482.38 Q1750.7 1478.82 1750.7 1471.71 Q1750.7 1464.58 1748.88 1461.04 Q1747.07 1457.48 1743.44 1457.48 M1743.44 1453.77 Q1749.25 1453.77 1752.3 1458.38 Q1755.38 1462.96 1755.38 1471.71 Q1755.38 1480.44 1752.3 1485.04 Q1749.25 1489.63 1743.44 1489.63 Q1737.63 1489.63 1734.55 1485.04 Q1731.49 1480.44 1731.49 1471.71 Q1731.49 1462.96 1734.55 1458.38 Q1737.63 1453.77 1743.44 1453.77 Z" fill="#000000" fill-rule="nonzero" fill-opacity="1" /><path clip-path="url(#clip360)" d="M1755.38 1447.87 L1779.49 1447.87 L1779.49 1451.07 L1755.38 1451.07 L1755.38 1447.87 Z" fill="#000000" fill-rule="nonzero" fill-opacity="1" /><path clip-path="url(#clip360)" d="M1787.73 1433.47 L1802.64 1433.47 L1802.64 1436.66 L1791.21 1436.66 L1791.21 1443.55 Q1792.04 1443.27 1792.86 1443.13 Q1793.69 1442.98 1794.52 1442.98 Q1799.22 1442.98 1801.97 1445.56 Q1804.71 1448.14 1804.71 1452.54 Q1804.71 1457.07 1801.89 1459.59 Q1799.07 1462.09 1793.94 1462.09 Q1792.17 1462.09 1790.33 1461.79 Q1788.5 1461.49 1786.55 1460.89 L1786.55 1457.07 Q1788.24 1457.99 1790.04 1458.44 Q1791.85 1458.89 1793.86 1458.89 Q1797.12 1458.89 1799.01 1457.18 Q1800.91 1455.47 1800.91 1452.54 Q1800.91 1449.6 1799.01 1447.89 Q1797.12 1446.18 1793.86 1446.18 Q1792.34 1446.18 1790.81 1446.52 Q1789.31 1446.86 1787.73 1447.57 L1787.73 1433.47 Z" fill="#000000" fill-rule="nonzero" fill-opacity="1" /><path clip-path="url(#clip360)" d="M1296.74 1558.53 Q1296.74 1558.79 1296.45 1559.79 Q1296.16 1560.79 1295.46 1562.33 Q1294.78 1563.88 1293.85 1565.3 Q1292.91 1566.68 1291.37 1567.71 Q1289.85 1568.71 1288.11 1568.71 Q1285.79 1568.71 1284.25 1567.17 Q1282.7 1565.62 1282.7 1563.3 Q1282.7 1562.98 1282.73 1562.66 Q1282.77 1562.33 1282.8 1562.14 Q1282.83 1561.92 1282.93 1561.56 Q1283.06 1561.17 1283.09 1561.01 Q1283.15 1560.85 1283.31 1560.37 Q1283.51 1559.85 1283.57 1559.66 Q1287.66 1549.23 1287.66 1544.88 Q1287.66 1540.27 1284.09 1540.27 Q1280.9 1540.27 1277.74 1542.59 Q1276.29 1543.75 1274.91 1545.81 Q1273.52 1547.87 1273.27 1548.65 Q1272.98 1550.32 1272.56 1551.61 Q1272.36 1552.51 1271.43 1556.02 L1269.98 1561.98 L1268.73 1566.97 Q1268.47 1567.68 1267.76 1568.2 Q1267.05 1568.71 1266.28 1568.71 Q1265.63 1568.71 1264.99 1568.26 Q1264.38 1567.84 1264.38 1566.84 Q1264.38 1566.33 1264.64 1565.39 L1274.2 1527.39 L1274.39 1526.1 Q1274.39 1525.72 1274.23 1525.52 Q1274.1 1525.3 1273.33 1525.14 Q1272.59 1524.98 1271.11 1524.98 Q1270.5 1524.98 1270.21 1524.94 Q1269.95 1524.91 1269.72 1524.75 Q1269.5 1524.56 1269.5 1524.17 Q1269.5 1523.62 1269.72 1523.33 Q1269.98 1523.01 1270.17 1522.95 Q1270.37 1522.88 1270.75 1522.85 Q1271.3 1522.82 1273.14 1522.66 Q1274.97 1522.46 1276.55 1522.33 Q1278.13 1522.21 1278.81 1522.21 Q1279.19 1522.21 1279.39 1522.4 Q1279.61 1522.56 1279.64 1522.75 L1279.68 1522.91 L1274.52 1543.88 Q1278.61 1538.82 1284.28 1538.82 Q1287.95 1538.82 1289.92 1540.72 Q1291.88 1542.59 1291.88 1545.88 Q1291.88 1549.65 1287.86 1560.37 Q1286.66 1563.36 1286.66 1565.07 Q1286.66 1566.2 1287.02 1566.71 Q1287.4 1567.23 1288.24 1567.23 Q1289.53 1567.23 1290.66 1566.49 Q1291.82 1565.72 1292.62 1564.46 Q1293.43 1563.17 1293.97 1561.88 Q1294.55 1560.56 1294.97 1559.08 Q1295.23 1558.28 1295.36 1558.08 Q1295.52 1557.89 1295.97 1557.89 Q1296.74 1557.89 1296.74 1558.53 Z" fill="#000000" fill-rule="nonzero" fill-opacity="1" /><polyline clip-path="url(#clip362)" style="stroke:#000000; stroke-linecap:round; stroke-linejoin:round; stroke-width:2; stroke-opacity:0.1; fill:none" points="213.607,1233.37 2352.76,1233.37 "/>
<polyline clip-path="url(#clip362)" style="stroke:#000000; stroke-linecap:round; stroke-linejoin:round; stroke-width:2; stroke-opacity:0.1; fill:none" points="213.607,632.471 2352.76,632.471 "/>
<polyline clip-path="url(#clip360)" style="stroke:#000000; stroke-linecap:round; stroke-linejoin:round; stroke-width:4; stroke-opacity:1; fill:none" points="213.607,1410.9 213.607,47.2441 "/>
<polyline clip-path="url(#clip360)" style="stroke:#000000; stroke-linecap:round; stroke-linejoin:round; stroke-width:4; stroke-opacity:1; fill:none" points="213.607,1233.37 232.505,1233.37 "/>
<polyline clip-path="url(#clip360)" style="stroke:#000000; stroke-linecap:round; stroke-linejoin:round; stroke-width:4; stroke-opacity:1; fill:none" points="213.607,632.471 232.505,632.471 "/>
<path clip-path="url(#clip360)" d="M51.6634 1253.16 L59.3023 1253.16 L59.3023 1226.8 L50.9921 1228.46 L50.9921 1224.21 L59.256 1222.54 L63.9319 1222.54 L63.9319 1253.16 L71.5707 1253.16 L71.5707 1257.1 L51.6634 1257.1 L51.6634 1253.16 Z" fill="#000000" fill-rule="nonzero" fill-opacity="1" /><path clip-path="url(#clip360)" d="M91.0151 1225.62 Q87.404 1225.62 85.5753 1229.18 Q83.7697 1232.72 83.7697 1239.85 Q83.7697 1246.96 85.5753 1250.52 Q87.404 1254.07 91.0151 1254.07 Q94.6493 1254.07 96.4548 1250.52 Q98.2835 1246.96 98.2835 1239.85 Q98.2835 1232.72 96.4548 1229.18 Q94.6493 1225.62 91.0151 1225.62 M91.0151 1221.91 Q96.8252 1221.91 99.8808 1226.52 Q102.959 1231.1 102.959 1239.85 Q102.959 1248.58 99.8808 1253.19 Q96.8252 1257.77 91.0151 1257.77 Q85.2049 1257.77 82.1262 1253.19 Q79.0707 1248.58 79.0707 1239.85 Q79.0707 1231.1 82.1262 1226.52 Q85.2049 1221.91 91.0151 1221.91 Z" fill="#000000" fill-rule="nonzero" fill-opacity="1" /><path clip-path="url(#clip360)" d="M102.959 1216.02 L127.071 1216.02 L127.071 1219.21 L102.959 1219.21 L102.959 1216.02 Z" fill="#000000" fill-rule="nonzero" fill-opacity="1" /><path clip-path="url(#clip360)" d="M135.929 1226.49 L142.136 1226.49 L142.136 1205.07 L135.384 1206.42 L135.384 1202.96 L142.098 1201.61 L145.898 1201.61 L145.898 1226.49 L152.104 1226.49 L152.104 1229.69 L135.929 1229.69 L135.929 1226.49 Z" fill="#000000" fill-rule="nonzero" fill-opacity="1" /><path clip-path="url(#clip360)" d="M167.903 1204.11 Q164.969 1204.11 163.483 1207.01 Q162.016 1209.88 162.016 1215.68 Q162.016 1221.45 163.483 1224.35 Q164.969 1227.22 167.903 1227.22 Q170.855 1227.22 172.322 1224.35 Q173.808 1221.45 173.808 1215.68 Q173.808 1209.88 172.322 1207.01 Q170.855 1204.11 167.903 1204.11 M167.903 1201.1 Q172.623 1201.1 175.106 1204.84 Q177.607 1208.57 177.607 1215.68 Q177.607 1222.77 175.106 1226.51 Q172.623 1230.23 167.903 1230.23 Q163.182 1230.23 160.68 1226.51 Q158.198 1222.77 158.198 1215.68 Q158.198 1208.57 160.68 1204.84 Q163.182 1201.1 167.903 1201.1 Z" fill="#000000" fill-rule="nonzero" fill-opacity="1" /><path clip-path="url(#clip360)" d="M76.9787 652.264 L84.6175 652.264 L84.6175 625.898 L76.3074 627.565 L76.3074 623.306 L84.5712 621.639 L89.2471 621.639 L89.2471 652.264 L96.886 652.264 L96.886 656.199 L76.9787 656.199 L76.9787 652.264 Z" fill="#000000" fill-rule="nonzero" fill-opacity="1" /><path clip-path="url(#clip360)" d="M116.33 624.718 Q112.719 624.718 110.891 628.282 Q109.085 631.824 109.085 638.954 Q109.085 646.06 110.891 649.625 Q112.719 653.166 116.33 653.166 Q119.965 653.166 121.77 649.625 Q123.599 646.06 123.599 638.954 Q123.599 631.824 121.77 628.282 Q119.965 624.718 116.33 624.718 M116.33 621.014 Q122.14 621.014 125.196 625.62 Q128.275 630.204 128.275 638.954 Q128.275 647.68 125.196 652.287 Q122.14 656.87 116.33 656.87 Q110.52 656.87 107.441 652.287 Q104.386 647.68 104.386 638.954 Q104.386 630.204 107.441 625.62 Q110.52 621.014 116.33 621.014 Z" fill="#000000" fill-rule="nonzero" fill-opacity="1" /><path clip-path="url(#clip360)" d="M128.275 615.115 L152.386 615.115 L152.386 618.313 L128.275 618.313 L128.275 615.115 Z" fill="#000000" fill-rule="nonzero" fill-opacity="1" /><path clip-path="url(#clip360)" d="M160.624 600.708 L175.539 600.708 L175.539 603.906 L164.103 603.906 L164.103 610.789 Q164.931 610.507 165.759 610.376 Q166.586 610.225 167.414 610.225 Q172.116 610.225 174.862 612.802 Q177.607 615.379 177.607 619.78 Q177.607 624.312 174.786 626.832 Q171.965 629.334 166.831 629.334 Q165.063 629.334 163.22 629.033 Q161.395 628.732 159.439 628.13 L159.439 624.312 Q161.132 625.234 162.937 625.685 Q164.743 626.137 166.755 626.137 Q170.009 626.137 171.909 624.425 Q173.808 622.714 173.808 619.78 Q173.808 616.846 171.909 615.134 Q170.009 613.423 166.755 613.423 Q165.232 613.423 163.709 613.761 Q162.204 614.1 160.624 614.814 L160.624 600.708 Z" fill="#000000" fill-rule="nonzero" fill-opacity="1" /><circle clip-path="url(#clip362)" cx="2292.21" cy="507.03" r="14.4" fill="#009af9" fill-rule="evenodd" fill-opacity="1" stroke="#000000" stroke-opacity="1" stroke-width="3.2"/>
<circle clip-path="url(#clip362)" cx="2157.68" cy="747.446" r="14.4" fill="#009af9" fill-rule="evenodd" fill-opacity="1" stroke="#000000" stroke-opacity="1" stroke-width="3.2"/>
<circle clip-path="url(#clip362)" cx="2023.14" cy="987.807" r="14.4" fill="#009af9" fill-rule="evenodd" fill-opacity="1" stroke="#000000" stroke-opacity="1" stroke-width="3.2"/>
<circle clip-path="url(#clip362)" cx="1888.6" cy="1228.06" r="14.4" fill="#009af9" fill-rule="evenodd" fill-opacity="1" stroke="#000000" stroke-opacity="1" stroke-width="3.2"/>
<circle clip-path="url(#clip362)" cx="1754.06" cy="1372.3" r="14.4" fill="#009af9" fill-rule="evenodd" fill-opacity="1" stroke="#000000" stroke-opacity="1" stroke-width="3.2"/>
<circle clip-path="url(#clip362)" cx="1619.53" cy="1297.65" r="14.4" fill="#009af9" fill-rule="evenodd" fill-opacity="1" stroke="#000000" stroke-opacity="1" stroke-width="3.2"/>
<circle clip-path="url(#clip362)" cx="1484.99" cy="1159.11" r="14.4" fill="#009af9" fill-rule="evenodd" fill-opacity="1" stroke="#000000" stroke-opacity="1" stroke-width="3.2"/>
<circle clip-path="url(#clip362)" cx="1350.45" cy="1040.5" r="14.4" fill="#009af9" fill-rule="evenodd" fill-opacity="1" stroke="#000000" stroke-opacity="1" stroke-width="3.2"/>
<circle clip-path="url(#clip362)" cx="1215.91" cy="961.818" r="14.4" fill="#009af9" fill-rule="evenodd" fill-opacity="1" stroke="#000000" stroke-opacity="1" stroke-width="3.2"/>
<circle clip-path="url(#clip362)" cx="1081.38" cy="792.924" r="14.4" fill="#009af9" fill-rule="evenodd" fill-opacity="1" stroke="#000000" stroke-opacity="1" stroke-width="3.2"/>
<circle clip-path="url(#clip362)" cx="946.838" cy="697.652" r="14.4" fill="#009af9" fill-rule="evenodd" fill-opacity="1" stroke="#000000" stroke-opacity="1" stroke-width="3.2"/>
<circle clip-path="url(#clip362)" cx="812.3" cy="545.781" r="14.4" fill="#009af9" fill-rule="evenodd" fill-opacity="1" stroke="#000000" stroke-opacity="1" stroke-width="3.2"/>
<circle clip-path="url(#clip362)" cx="677.762" cy="428.032" r="14.4" fill="#009af9" fill-rule="evenodd" fill-opacity="1" stroke="#000000" stroke-opacity="1" stroke-width="3.2"/>
<circle clip-path="url(#clip362)" cx="543.225" cy="258.965" r="14.4" fill="#009af9" fill-rule="evenodd" fill-opacity="1" stroke="#000000" stroke-opacity="1" stroke-width="3.2"/>
<circle clip-path="url(#clip362)" cx="408.687" cy="234.499" r="14.4" fill="#009af9" fill-rule="evenodd" fill-opacity="1" stroke="#000000" stroke-opacity="1" stroke-width="3.2"/>
<circle clip-path="url(#clip362)" cx="274.149" cy="85.838" r="14.4" fill="#009af9" fill-rule="evenodd" fill-opacity="1" stroke="#000000" stroke-opacity="1" stroke-width="3.2"/>
<path clip-path="url(#clip360)" d="M1205.54 300.748 L2281.45 300.748 L2281.45 92.6992 L1205.54 92.6992  Z" fill="#ffffff" fill-rule="evenodd" fill-opacity="1"/>
<polyline clip-path="url(#clip360)" style="stroke:#000000; stroke-linecap:round; stroke-linejoin:round; stroke-width:4; stroke-opacity:1; fill:none" points="1205.54,300.748 2281.45,300.748 2281.45,92.6992 1205.54,92.6992 1205.54,300.748 "/>
<circle clip-path="url(#clip360)" cx="1300.61" cy="196.724" r="20.48" fill="#009af9" fill-rule="evenodd" fill-opacity="1" stroke="#000000" stroke-opacity="1" stroke-width="4.55111"/>
<path clip-path="url(#clip360)" d="M1417.4 199.966 L1417.4 215.614 L1413.14 215.614 L1413.14 200.105 Q1413.14 196.424 1411.7 194.596 Q1410.27 192.767 1407.4 192.767 Q1403.95 192.767 1401.96 194.966 Q1399.97 197.165 1399.97 200.961 L1399.97 215.614 L1395.68 215.614 L1395.68 189.688 L1399.97 189.688 L1399.97 193.716 Q1401.49 191.378 1403.55 190.221 Q1405.64 189.063 1408.35 189.063 Q1412.81 189.063 1415.1 191.841 Q1417.4 194.596 1417.4 199.966 Z" fill="#000000" fill-rule="nonzero" fill-opacity="1" /><path clip-path="url(#clip360)" d="M1437.67 202.582 Q1432.51 202.582 1430.52 203.762 Q1428.53 204.943 1428.53 207.79 Q1428.53 210.059 1430.01 211.401 Q1431.52 212.721 1434.09 212.721 Q1437.63 212.721 1439.76 210.221 Q1441.91 207.698 1441.91 203.531 L1441.91 202.582 L1437.67 202.582 M1446.17 200.823 L1446.17 215.614 L1441.91 215.614 L1441.91 211.679 Q1440.45 214.04 1438.28 215.174 Q1436.1 216.285 1432.95 216.285 Q1428.97 216.285 1426.61 214.063 Q1424.27 211.818 1424.27 208.068 Q1424.27 203.693 1427.19 201.471 Q1430.13 199.249 1435.94 199.249 L1441.91 199.249 L1441.91 198.832 Q1441.91 195.892 1439.97 194.295 Q1438.04 192.674 1434.55 192.674 Q1432.33 192.674 1430.22 193.207 Q1428.11 193.739 1426.17 194.804 L1426.17 190.869 Q1428.51 189.966 1430.71 189.526 Q1432.91 189.063 1434.99 189.063 Q1440.61 189.063 1443.39 191.98 Q1446.17 194.897 1446.17 200.823 Z" fill="#000000" fill-rule="nonzero" fill-opacity="1" /><path clip-path="url(#clip360)" d="M1459.06 211.725 L1459.06 225.475 L1454.78 225.475 L1454.78 189.688 L1459.06 189.688 L1459.06 193.624 Q1460.41 191.309 1462.44 190.198 Q1464.5 189.063 1467.35 189.063 Q1472.07 189.063 1475.01 192.813 Q1477.97 196.563 1477.97 202.674 Q1477.97 208.786 1475.01 212.535 Q1472.07 216.285 1467.35 216.285 Q1464.5 216.285 1462.44 215.174 Q1460.41 214.04 1459.06 211.725 M1473.55 202.674 Q1473.55 197.975 1471.61 195.313 Q1469.69 192.628 1466.31 192.628 Q1462.93 192.628 1460.98 195.313 Q1459.06 197.975 1459.06 202.674 Q1459.06 207.373 1460.98 210.059 Q1462.93 212.721 1466.31 212.721 Q1469.69 212.721 1471.61 210.059 Q1473.55 207.373 1473.55 202.674 Z" fill="#000000" fill-rule="nonzero" fill-opacity="1" /><path clip-path="url(#clip360)" d="M1496.82 202.582 Q1491.66 202.582 1489.66 203.762 Q1487.67 204.943 1487.67 207.79 Q1487.67 210.059 1489.16 211.401 Q1490.66 212.721 1493.23 212.721 Q1496.77 212.721 1498.9 210.221 Q1501.05 207.698 1501.05 203.531 L1501.05 202.582 L1496.82 202.582 M1505.31 200.823 L1505.31 215.614 L1501.05 215.614 L1501.05 211.679 Q1499.59 214.04 1497.42 215.174 Q1495.24 216.285 1492.1 216.285 Q1488.11 216.285 1485.75 214.063 Q1483.41 211.818 1483.41 208.068 Q1483.41 203.693 1486.33 201.471 Q1489.27 199.249 1495.08 199.249 L1501.05 199.249 L1501.05 198.832 Q1501.05 195.892 1499.11 194.295 Q1497.19 192.674 1493.69 192.674 Q1491.47 192.674 1489.36 193.207 Q1487.26 193.739 1485.31 194.804 L1485.31 190.869 Q1487.65 189.966 1489.85 189.526 Q1492.05 189.063 1494.13 189.063 Q1499.76 189.063 1502.53 191.98 Q1505.31 194.897 1505.31 200.823 Z" fill="#000000" fill-rule="nonzero" fill-opacity="1" /><path clip-path="url(#clip360)" d="M1513.92 179.596 L1518.21 179.596 L1518.21 200.869 L1530.91 189.688 L1536.35 189.688 L1522.6 201.818 L1536.93 215.614 L1531.38 215.614 L1518.21 202.952 L1518.21 215.614 L1513.92 215.614 L1513.92 179.596 Z" fill="#000000" fill-rule="nonzero" fill-opacity="1" /><path clip-path="url(#clip360)" d="M1552.49 202.582 Q1547.33 202.582 1545.34 203.762 Q1543.34 204.943 1543.34 207.79 Q1543.34 210.059 1544.83 211.401 Q1546.33 212.721 1548.9 212.721 Q1552.44 212.721 1554.57 210.221 Q1556.72 207.698 1556.72 203.531 L1556.72 202.582 L1552.49 202.582 M1560.98 200.823 L1560.98 215.614 L1556.72 215.614 L1556.72 211.679 Q1555.27 214.04 1553.09 215.174 Q1550.91 216.285 1547.77 216.285 Q1543.78 216.285 1541.42 214.063 Q1539.09 211.818 1539.09 208.068 Q1539.09 203.693 1542 201.471 Q1544.94 199.249 1550.75 199.249 L1556.72 199.249 L1556.72 198.832 Q1556.72 195.892 1554.78 194.295 Q1552.86 192.674 1549.36 192.674 Q1547.14 192.674 1545.03 193.207 Q1542.93 193.739 1540.98 194.804 L1540.98 190.869 Q1543.32 189.966 1545.52 189.526 Q1547.72 189.063 1549.8 189.063 Q1555.43 189.063 1558.21 191.98 Q1560.98 194.897 1560.98 200.823 Z" fill="#000000" fill-rule="nonzero" fill-opacity="1" /><path clip-path="url(#clip360)" d="M1601.89 193.624 L1601.89 179.596 L1606.15 179.596 L1606.15 215.614 L1601.89 215.614 L1601.89 211.725 Q1600.54 214.04 1598.48 215.174 Q1596.45 216.285 1593.58 216.285 Q1588.88 216.285 1585.91 212.535 Q1582.97 208.786 1582.97 202.674 Q1582.97 196.563 1585.91 192.813 Q1588.88 189.063 1593.58 189.063 Q1596.45 189.063 1598.48 190.198 Q1600.54 191.309 1601.89 193.624 M1587.37 202.674 Q1587.37 207.373 1589.29 210.059 Q1591.24 212.721 1594.62 212.721 Q1598 212.721 1599.94 210.059 Q1601.89 207.373 1601.89 202.674 Q1601.89 197.975 1599.94 195.313 Q1598 192.628 1594.62 192.628 Q1591.24 192.628 1589.29 195.313 Q1587.37 197.975 1587.37 202.674 Z" fill="#000000" fill-rule="nonzero" fill-opacity="1" /><path clip-path="url(#clip360)" d="M1614.92 189.688 L1619.18 189.688 L1619.18 215.614 L1614.92 215.614 L1614.92 189.688 M1614.92 179.596 L1619.18 179.596 L1619.18 184.989 L1614.92 184.989 L1614.92 179.596 Z" fill="#000000" fill-rule="nonzero" fill-opacity="1" /><path clip-path="url(#clip360)" d="M1641.21 179.596 L1641.21 183.138 L1637.14 183.138 Q1634.85 183.138 1633.95 184.063 Q1633.07 184.989 1633.07 187.397 L1633.07 189.688 L1640.08 189.688 L1640.08 192.999 L1633.07 192.999 L1633.07 215.614 L1628.78 215.614 L1628.78 192.999 L1624.71 192.999 L1624.71 189.688 L1628.78 189.688 L1628.78 187.883 Q1628.78 183.554 1630.8 181.587 Q1632.81 179.596 1637.19 179.596 L1641.21 179.596 Z" fill="#000000" fill-rule="nonzero" fill-opacity="1" /><path clip-path="url(#clip360)" d="M1666.96 201.586 L1666.96 203.67 L1647.37 203.67 Q1647.65 208.068 1650.01 210.383 Q1652.4 212.674 1656.63 212.674 Q1659.08 212.674 1661.38 212.073 Q1663.69 211.471 1665.96 210.267 L1665.96 214.295 Q1663.67 215.267 1661.26 215.776 Q1658.85 216.285 1656.38 216.285 Q1650.17 216.285 1646.54 212.674 Q1642.93 209.063 1642.93 202.906 Q1642.93 196.54 1646.35 192.813 Q1649.8 189.063 1655.64 189.063 Q1660.87 189.063 1663.9 192.443 Q1666.96 195.799 1666.96 201.586 M1662.7 200.336 Q1662.65 196.841 1660.73 194.758 Q1658.83 192.674 1655.68 192.674 Q1652.12 192.674 1649.96 194.688 Q1647.83 196.702 1647.51 200.36 L1662.7 200.336 Z" fill="#000000" fill-rule="nonzero" fill-opacity="1" /><path clip-path="url(#clip360)" d="M1688.97 193.67 Q1688.25 193.253 1687.39 193.068 Q1686.56 192.86 1685.54 192.86 Q1681.93 192.86 1679.99 195.221 Q1678.07 197.559 1678.07 201.957 L1678.07 215.614 L1673.78 215.614 L1673.78 189.688 L1678.07 189.688 L1678.07 193.716 Q1679.41 191.355 1681.56 190.221 Q1683.71 189.063 1686.79 189.063 Q1687.23 189.063 1687.77 189.133 Q1688.3 189.179 1688.95 189.295 L1688.97 193.67 Z" fill="#000000" fill-rule="nonzero" fill-opacity="1" /><path clip-path="url(#clip360)" d="M1714.57 201.586 L1714.57 203.67 L1694.99 203.67 Q1695.27 208.068 1697.63 210.383 Q1700.01 212.674 1704.25 212.674 Q1706.7 212.674 1708.99 212.073 Q1711.31 211.471 1713.58 210.267 L1713.58 214.295 Q1711.28 215.267 1708.88 215.776 Q1706.47 216.285 1703.99 216.285 Q1697.79 216.285 1694.15 212.674 Q1690.54 209.063 1690.54 202.906 Q1690.54 196.54 1693.97 192.813 Q1697.42 189.063 1703.25 189.063 Q1708.48 189.063 1711.52 192.443 Q1714.57 195.799 1714.57 201.586 M1710.31 200.336 Q1710.27 196.841 1708.34 194.758 Q1706.45 192.674 1703.3 192.674 Q1699.73 192.674 1697.58 194.688 Q1695.45 196.702 1695.13 200.36 L1710.31 200.336 Z" fill="#000000" fill-rule="nonzero" fill-opacity="1" /><path clip-path="url(#clip360)" d="M1743.11 199.966 L1743.11 215.614 L1738.85 215.614 L1738.85 200.105 Q1738.85 196.424 1737.42 194.596 Q1735.98 192.767 1733.11 192.767 Q1729.66 192.767 1727.67 194.966 Q1725.68 197.165 1725.68 200.961 L1725.68 215.614 L1721.4 215.614 L1721.4 189.688 L1725.68 189.688 L1725.68 193.716 Q1727.21 191.378 1729.27 190.221 Q1731.35 189.063 1734.06 189.063 Q1738.53 189.063 1740.82 191.841 Q1743.11 194.596 1743.11 199.966 Z" fill="#000000" fill-rule="nonzero" fill-opacity="1" /><path clip-path="url(#clip360)" d="M1770.26 190.684 L1770.26 194.665 Q1768.46 193.67 1766.63 193.184 Q1764.83 192.674 1762.97 192.674 Q1758.83 192.674 1756.54 195.313 Q1754.25 197.929 1754.25 202.674 Q1754.25 207.42 1756.54 210.059 Q1758.83 212.674 1762.97 212.674 Q1764.83 212.674 1766.63 212.188 Q1768.46 211.679 1770.26 210.684 L1770.26 214.619 Q1768.48 215.452 1766.56 215.869 Q1764.66 216.285 1762.51 216.285 Q1756.65 216.285 1753.2 212.605 Q1749.76 208.924 1749.76 202.674 Q1749.76 196.332 1753.23 192.698 Q1756.72 189.063 1762.79 189.063 Q1764.76 189.063 1766.63 189.48 Q1768.51 189.874 1770.26 190.684 Z" fill="#000000" fill-rule="nonzero" fill-opacity="1" /><path clip-path="url(#clip360)" d="M1799.85 201.586 L1799.85 203.67 L1780.26 203.67 Q1780.54 208.068 1782.9 210.383 Q1785.29 212.674 1789.52 212.674 Q1791.98 212.674 1794.27 212.073 Q1796.58 211.471 1798.85 210.267 L1798.85 214.295 Q1796.56 215.267 1794.15 215.776 Q1791.75 216.285 1789.27 216.285 Q1783.07 216.285 1779.43 212.674 Q1775.82 209.063 1775.82 202.906 Q1775.82 196.54 1779.25 192.813 Q1782.7 189.063 1788.53 189.063 Q1793.76 189.063 1796.79 192.443 Q1799.85 195.799 1799.85 201.586 M1795.59 200.336 Q1795.54 196.841 1793.62 194.758 Q1791.72 192.674 1788.57 192.674 Q1785.01 192.674 1782.86 194.688 Q1780.73 196.702 1780.4 200.36 L1795.59 200.336 Z" fill="#000000" fill-rule="nonzero" fill-opacity="1" /><path clip-path="url(#clip360)" d="M1851.59 149.817 Q1851.59 151.105 1850.78 151.902 Q1849.98 152.698 1848.97 152.698 Q1848.25 152.698 1847.71 152.253 Q1847.19 151.808 1847.19 151.035 Q1847.19 150.239 1847.8 149.395 Q1848.41 148.552 1849.79 148.435 Q1848.88 147.568 1847.43 147.568 Q1846.7 147.568 1846.09 148.037 Q1845.5 148.482 1845.18 149.208 Q1844.83 149.957 1844.03 154.197 Q1843.77 155.579 1843.54 156.914 Q1843.3 158.249 1843.02 159.654 L1847 159.654 Q1847.52 159.654 1847.73 159.678 Q1847.94 159.701 1848.1 159.818 Q1848.29 159.935 1848.29 160.193 Q1848.29 160.849 1847.99 161.013 Q1847.71 161.153 1846.86 161.153 L1842.74 161.153 L1839.86 176.355 Q1839.79 176.8 1839.49 178.205 Q1839.2 179.587 1838.53 181.859 Q1837.85 184.154 1837.17 185.513 Q1836.79 186.286 1836.3 187.012 Q1835.83 187.761 1835.15 188.511 Q1834.47 189.26 1833.58 189.705 Q1832.69 190.174 1831.76 190.174 Q1830.16 190.174 1828.92 189.284 Q1827.68 188.394 1827.68 186.871 Q1827.68 185.583 1828.48 184.787 Q1829.3 183.99 1830.3 183.99 Q1831.03 183.99 1831.55 184.435 Q1832.08 184.88 1832.08 185.653 Q1832.08 185.981 1831.97 186.356 Q1831.85 186.731 1831.59 187.152 Q1831.33 187.597 1830.77 187.902 Q1830.21 188.206 1829.44 188.253 Q1830.35 189.12 1831.76 189.12 Q1832.2 189.12 1832.6 188.932 Q1833 188.768 1833.33 188.347 Q1833.68 187.925 1833.93 187.504 Q1834.19 187.105 1834.45 186.333 Q1834.71 185.583 1834.87 185.021 Q1835.04 184.459 1835.25 183.452 Q1835.48 182.444 1835.6 181.835 Q1835.71 181.25 1835.93 180.102 L1839.51 161.153 L1836.35 161.153 Q1835.78 161.153 1835.55 161.13 Q1835.34 161.107 1835.18 160.989 Q1835.01 160.849 1835.01 160.568 Q1835.01 160.123 1835.2 159.935 Q1835.41 159.725 1835.64 159.701 Q1835.88 159.654 1836.44 159.654 L1839.77 159.654 Q1840.89 153.728 1841.34 152.136 Q1841.85 150.449 1842.65 149.278 Q1843.44 148.084 1844.33 147.522 Q1845.22 146.959 1845.95 146.749 Q1846.7 146.514 1847.43 146.514 Q1849.07 146.514 1850.33 147.404 Q1851.59 148.271 1851.59 149.817 Z" fill="#000000" fill-rule="nonzero" fill-opacity="1" /><path clip-path="url(#clip360)" d="M1858.05 168.344 Q1858.05 160.24 1861.07 153.705 Q1862.36 150.965 1864.16 148.669 Q1865.96 146.374 1867.16 145.367 Q1868.35 144.359 1868.68 144.359 Q1869.15 144.359 1869.17 144.828 Q1869.17 145.062 1868.54 145.648 Q1860.81 153.518 1860.83 168.344 Q1860.83 183.217 1868.35 190.783 Q1869.17 191.603 1869.17 191.86 Q1869.17 192.329 1868.68 192.329 Q1868.35 192.329 1867.21 191.368 Q1866.06 190.408 1864.28 188.206 Q1862.5 186.005 1861.21 183.311 Q1858.05 176.776 1858.05 168.344 Z" fill="#000000" fill-rule="nonzero" fill-opacity="1" /><path clip-path="url(#clip360)" d="M1896.71 162.301 Q1896.71 163.613 1895.89 164.362 Q1895.07 165.088 1894.13 165.088 Q1893.24 165.088 1892.77 164.573 Q1892.3 164.058 1892.3 163.402 Q1892.3 162.512 1892.96 161.739 Q1893.61 160.966 1894.6 160.802 Q1893.64 160.193 1892.21 160.193 Q1891.27 160.193 1890.45 160.685 Q1889.66 161.177 1889.16 161.809 Q1888.7 162.442 1888.27 163.355 Q1887.88 164.245 1887.71 164.784 Q1887.57 165.299 1887.45 165.861 L1885.81 172.42 Q1885.02 175.535 1885.02 176.636 Q1885.02 177.994 1885.67 178.908 Q1886.33 179.798 1887.64 179.798 Q1888.16 179.798 1888.74 179.657 Q1889.33 179.493 1890.08 179.072 Q1890.85 178.627 1891.53 177.971 Q1892.23 177.291 1892.91 176.144 Q1893.59 174.996 1894.04 173.52 Q1894.18 173.005 1894.64 173.005 Q1895.23 173.005 1895.23 173.474 Q1895.23 173.872 1894.9 174.715 Q1894.6 175.535 1893.92 176.612 Q1893.26 177.666 1892.4 178.627 Q1891.53 179.563 1890.24 180.219 Q1888.95 180.875 1887.55 180.875 Q1885.53 180.875 1884.2 179.798 Q1882.86 178.72 1882.37 177.221 Q1882.25 177.432 1882.09 177.713 Q1881.93 177.994 1881.43 178.627 Q1880.97 179.236 1880.43 179.704 Q1879.89 180.149 1879.05 180.5 Q1878.23 180.875 1877.34 180.875 Q1876.21 180.875 1875.2 180.547 Q1874.22 180.219 1873.52 179.47 Q1872.81 178.72 1872.81 177.69 Q1872.81 176.542 1873.59 175.746 Q1874.38 174.926 1875.46 174.926 Q1876.14 174.926 1876.68 175.324 Q1877.24 175.722 1877.24 176.589 Q1877.24 177.549 1876.59 178.275 Q1875.93 179.001 1874.99 179.189 Q1875.95 179.798 1877.38 179.798 Q1878.93 179.798 1880.15 178.439 Q1881.36 177.081 1881.95 174.809 Q1883.4 169.351 1883.96 166.915 Q1884.53 164.456 1884.53 163.402 Q1884.53 162.418 1884.27 161.739 Q1884.01 161.06 1883.57 160.755 Q1883.14 160.427 1882.75 160.31 Q1882.37 160.193 1881.95 160.193 Q1881.25 160.193 1880.45 160.474 Q1879.68 160.755 1878.74 161.411 Q1877.83 162.043 1876.96 163.355 Q1876.09 164.667 1875.51 166.47 Q1875.39 167.009 1874.88 167.009 Q1874.31 166.986 1874.31 166.517 Q1874.31 166.119 1874.62 165.299 Q1874.95 164.456 1875.6 163.402 Q1876.28 162.348 1877.15 161.411 Q1878.04 160.451 1879.33 159.795 Q1880.64 159.139 1882.04 159.139 Q1882.68 159.139 1883.28 159.28 Q1883.92 159.397 1884.67 159.748 Q1885.44 160.099 1886.12 160.872 Q1886.8 161.645 1887.22 162.77 Q1887.5 162.231 1887.88 161.716 Q1888.27 161.2 1888.88 160.568 Q1889.52 159.912 1890.38 159.537 Q1891.27 159.139 1892.26 159.139 Q1893.22 159.139 1894.15 159.397 Q1895.09 159.631 1895.89 160.404 Q1896.71 161.153 1896.71 162.301 Z" fill="#000000" fill-rule="nonzero" fill-opacity="1" /><path clip-path="url(#clip360)" d="M1914.38 168.93 Q1913.28 168.93 1913.28 168.344 Q1913.28 167.759 1914.43 167.759 Q1914.57 167.759 1914.8 167.782 Q1915.06 167.805 1915.11 167.805 L1928.62 167.805 L1928.62 154.244 Q1928.62 154.197 1928.6 153.986 Q1928.57 153.752 1928.57 153.611 Q1928.57 152.464 1929.14 152.464 Q1929.72 152.464 1929.72 153.611 L1929.72 167.805 L1943.26 167.805 Q1943.31 167.805 1943.54 167.782 Q1943.78 167.759 1943.92 167.759 Q1945.02 167.759 1945.02 168.344 Q1945.04 168.93 1943.87 168.93 Q1943.73 168.93 1943.52 168.906 Q1943.31 168.883 1943.26 168.883 L1929.72 168.883 L1929.72 183.124 Q1929.72 184.224 1929.14 184.224 Q1928.57 184.224 1928.57 183.077 Q1928.57 182.936 1928.6 182.702 Q1928.62 182.491 1928.62 182.444 L1928.62 168.883 L1915.11 168.883 Q1915.06 168.883 1914.78 168.906 Q1914.52 168.93 1914.38 168.93 Z" fill="#000000" fill-rule="nonzero" fill-opacity="1" /><path clip-path="url(#clip360)" d="M1987.07 173.474 Q1987.07 173.661 1986.86 174.387 Q1986.65 175.113 1986.13 176.237 Q1985.64 177.362 1984.96 178.392 Q1984.28 179.399 1983.16 180.149 Q1982.06 180.875 1980.79 180.875 Q1979.11 180.875 1977.98 179.751 Q1976.86 178.627 1976.86 176.94 Q1976.86 176.706 1976.88 176.472 Q1976.91 176.237 1976.93 176.097 Q1976.95 175.933 1977.02 175.675 Q1977.12 175.394 1977.14 175.277 Q1977.19 175.16 1977.3 174.809 Q1977.44 174.434 1977.49 174.293 Q1980.47 166.705 1980.47 163.542 Q1980.47 160.193 1977.87 160.193 Q1975.55 160.193 1973.25 161.879 Q1972.2 162.723 1971.19 164.222 Q1970.18 165.721 1970 166.283 Q1969.78 167.501 1969.48 168.438 Q1969.34 169.094 1968.66 171.647 L1967.61 175.98 L1966.69 179.61 Q1966.51 180.126 1965.99 180.5 Q1965.47 180.875 1964.91 180.875 Q1964.44 180.875 1963.98 180.547 Q1963.53 180.243 1963.53 179.517 Q1963.53 179.142 1963.72 178.463 L1970.67 150.824 L1970.82 149.887 Q1970.82 149.606 1970.7 149.466 Q1970.6 149.302 1970.04 149.185 Q1969.5 149.067 1968.43 149.067 Q1967.98 149.067 1967.77 149.044 Q1967.58 149.021 1967.42 148.903 Q1967.25 148.763 1967.25 148.482 Q1967.25 148.084 1967.42 147.873 Q1967.61 147.639 1967.75 147.592 Q1967.89 147.545 1968.17 147.522 Q1968.57 147.498 1969.9 147.381 Q1971.24 147.24 1972.38 147.147 Q1973.53 147.053 1974.02 147.053 Q1974.31 147.053 1974.45 147.194 Q1974.61 147.311 1974.63 147.451 L1974.66 147.568 L1970.91 162.816 Q1973.88 159.139 1978.01 159.139 Q1980.68 159.139 1982.1 160.521 Q1983.53 161.879 1983.53 164.269 Q1983.53 167.009 1980.61 174.809 Q1979.74 176.987 1979.74 178.228 Q1979.74 179.048 1980 179.423 Q1980.28 179.798 1980.89 179.798 Q1981.82 179.798 1982.64 179.259 Q1983.49 178.697 1984.07 177.783 Q1984.66 176.846 1985.06 175.91 Q1985.48 174.949 1985.78 173.872 Q1985.97 173.286 1986.06 173.146 Q1986.18 173.005 1986.51 173.005 Q1987.07 173.005 1987.07 173.474 Z" fill="#000000" fill-rule="nonzero" fill-opacity="1" /><path clip-path="url(#clip360)" d="M1991.07 191.86 Q1991.07 191.626 1991.68 191.04 Q1999.41 183.17 1999.41 168.344 Q1999.41 153.471 1991.98 145.952 Q1991.07 145.086 1991.07 144.828 Q1991.07 144.359 1991.54 144.359 Q1991.86 144.359 1993.01 145.32 Q1994.18 146.28 1995.94 148.482 Q1997.72 150.684 1999.03 153.377 Q2002.19 159.912 2002.19 168.344 Q2002.19 176.448 1999.17 182.983 Q1997.88 185.724 1996.08 188.019 Q1994.28 190.314 1993.08 191.321 Q1991.89 192.329 1991.54 192.329 Q1991.07 192.329 1991.07 191.86 Z" fill="#000000" fill-rule="nonzero" fill-opacity="1" /><path clip-path="url(#clip360)" d="M2054.46 167.665 Q2054.74 167.946 2054.74 168.344 Q2054.74 168.742 2054.46 169.023 Q2054.17 169.304 2053.78 169.304 L2023.75 169.304 Q2023.35 169.304 2023.07 169.023 Q2022.79 168.742 2022.79 168.344 Q2022.79 167.946 2023.07 167.665 Q2023.35 167.384 2023.75 167.384 L2053.78 167.384 Q2054.17 167.384 2054.46 167.665 Z" fill="#000000" fill-rule="nonzero" fill-opacity="1" /><path clip-path="url(#clip360)" d="M2096.95 149.817 Q2096.95 151.105 2096.13 151.902 Q2095.34 152.698 2094.33 152.698 Q2093.6 152.698 2093.07 152.253 Q2092.55 151.808 2092.55 151.035 Q2092.55 150.239 2093.16 149.395 Q2093.77 148.552 2095.15 148.435 Q2094.24 147.568 2092.78 147.568 Q2092.06 147.568 2091.45 148.037 Q2090.86 148.482 2090.54 149.208 Q2090.18 149.957 2089.39 154.197 Q2089.13 155.579 2088.9 156.914 Q2088.66 158.249 2088.38 159.654 L2092.36 159.654 Q2092.88 159.654 2093.09 159.678 Q2093.3 159.701 2093.46 159.818 Q2093.65 159.935 2093.65 160.193 Q2093.65 160.849 2093.35 161.013 Q2093.07 161.153 2092.22 161.153 L2088.1 161.153 L2085.22 176.355 Q2085.15 176.8 2084.84 178.205 Q2084.56 179.587 2083.88 181.859 Q2083.21 184.154 2082.53 185.513 Q2082.15 186.286 2081.66 187.012 Q2081.19 187.761 2080.51 188.511 Q2079.83 189.26 2078.94 189.705 Q2078.05 190.174 2077.12 190.174 Q2075.52 190.174 2074.28 189.284 Q2073.04 188.394 2073.04 186.871 Q2073.04 185.583 2073.84 184.787 Q2074.66 183.99 2075.66 183.99 Q2076.39 183.99 2076.9 184.435 Q2077.44 184.88 2077.44 185.653 Q2077.44 185.981 2077.33 186.356 Q2077.21 186.731 2076.95 187.152 Q2076.69 187.597 2076.13 187.902 Q2075.57 188.206 2074.8 188.253 Q2075.71 189.12 2077.12 189.12 Q2077.56 189.12 2077.96 188.932 Q2078.36 188.768 2078.68 188.347 Q2079.04 187.925 2079.29 187.504 Q2079.55 187.105 2079.81 186.333 Q2080.07 185.583 2080.23 185.021 Q2080.39 184.459 2080.61 183.452 Q2080.84 182.444 2080.96 181.835 Q2081.07 181.25 2081.28 180.102 L2084.87 161.153 L2081.71 161.153 Q2081.14 161.153 2080.91 161.13 Q2080.7 161.107 2080.53 160.989 Q2080.37 160.849 2080.37 160.568 Q2080.37 160.123 2080.56 159.935 Q2080.77 159.725 2081 159.701 Q2081.24 159.654 2081.8 159.654 L2085.13 159.654 Q2086.25 153.728 2086.7 152.136 Q2087.21 150.449 2088.01 149.278 Q2088.8 148.084 2089.69 147.522 Q2090.58 146.959 2091.31 146.749 Q2092.06 146.514 2092.78 146.514 Q2094.42 146.514 2095.69 147.404 Q2096.95 148.271 2096.95 149.817 Z" fill="#000000" fill-rule="nonzero" fill-opacity="1" /><path clip-path="url(#clip360)" d="M2103.41 168.344 Q2103.41 160.24 2106.43 153.705 Q2107.72 150.965 2109.52 148.669 Q2111.32 146.374 2112.52 145.367 Q2113.71 144.359 2114.04 144.359 Q2114.51 144.359 2114.53 144.828 Q2114.53 145.062 2113.9 145.648 Q2106.17 153.518 2106.19 168.344 Q2106.19 183.217 2113.71 190.783 Q2114.53 191.603 2114.53 191.86 Q2114.53 192.329 2114.04 192.329 Q2113.71 192.329 2112.56 191.368 Q2111.42 190.408 2109.64 188.206 Q2107.86 186.005 2106.57 183.311 Q2103.41 176.776 2103.41 168.344 Z" fill="#000000" fill-rule="nonzero" fill-opacity="1" /><path clip-path="url(#clip360)" d="M2142.07 162.301 Q2142.07 163.613 2141.25 164.362 Q2140.43 165.088 2139.49 165.088 Q2138.6 165.088 2138.13 164.573 Q2137.66 164.058 2137.66 163.402 Q2137.66 162.512 2138.32 161.739 Q2138.97 160.966 2139.96 160.802 Q2139 160.193 2137.57 160.193 Q2136.63 160.193 2135.81 160.685 Q2135.01 161.177 2134.52 161.809 Q2134.05 162.442 2133.63 163.355 Q2133.23 164.245 2133.07 164.784 Q2132.93 165.299 2132.81 165.861 L2131.17 172.42 Q2130.38 175.535 2130.38 176.636 Q2130.38 177.994 2131.03 178.908 Q2131.69 179.798 2133 179.798 Q2133.52 179.798 2134.1 179.657 Q2134.69 179.493 2135.44 179.072 Q2136.21 178.627 2136.89 177.971 Q2137.59 177.291 2138.27 176.144 Q2138.95 174.996 2139.39 173.52 Q2139.54 173.005 2140 173.005 Q2140.59 173.005 2140.59 173.474 Q2140.59 173.872 2140.26 174.715 Q2139.96 175.535 2139.28 176.612 Q2138.62 177.666 2137.76 178.627 Q2136.89 179.563 2135.6 180.219 Q2134.31 180.875 2132.91 180.875 Q2130.89 180.875 2129.56 179.798 Q2128.22 178.72 2127.73 177.221 Q2127.61 177.432 2127.45 177.713 Q2127.29 177.994 2126.79 178.627 Q2126.33 179.236 2125.79 179.704 Q2125.25 180.149 2124.4 180.5 Q2123.58 180.875 2122.69 180.875 Q2121.57 180.875 2120.56 180.547 Q2119.58 180.219 2118.88 179.47 Q2118.17 178.72 2118.17 177.69 Q2118.17 176.542 2118.95 175.746 Q2119.74 174.926 2120.82 174.926 Q2121.5 174.926 2122.04 175.324 Q2122.6 175.722 2122.6 176.589 Q2122.6 177.549 2121.95 178.275 Q2121.29 179.001 2120.35 179.189 Q2121.31 179.798 2122.74 179.798 Q2124.29 179.798 2125.51 178.439 Q2126.72 177.081 2127.31 174.809 Q2128.76 169.351 2129.32 166.915 Q2129.89 164.456 2129.89 163.402 Q2129.89 162.418 2129.63 161.739 Q2129.37 161.06 2128.93 160.755 Q2128.5 160.427 2128.11 160.31 Q2127.73 160.193 2127.31 160.193 Q2126.61 160.193 2125.81 160.474 Q2125.04 160.755 2124.1 161.411 Q2123.19 162.043 2122.32 163.355 Q2121.45 164.667 2120.87 166.47 Q2120.75 167.009 2120.24 167.009 Q2119.67 166.986 2119.67 166.517 Q2119.67 166.119 2119.98 165.299 Q2120.31 164.456 2120.96 163.402 Q2121.64 162.348 2122.51 161.411 Q2123.4 160.451 2124.69 159.795 Q2126 159.139 2127.4 159.139 Q2128.04 159.139 2128.64 159.28 Q2129.28 159.397 2130.03 159.748 Q2130.8 160.099 2131.48 160.872 Q2132.16 161.645 2132.58 162.77 Q2132.86 162.231 2133.23 161.716 Q2133.63 161.2 2134.24 160.568 Q2134.87 159.912 2135.74 159.537 Q2136.63 159.139 2137.61 159.139 Q2138.58 159.139 2139.51 159.397 Q2140.45 159.631 2141.25 160.404 Q2142.07 161.153 2142.07 162.301 Z" fill="#000000" fill-rule="nonzero" fill-opacity="1" /><path clip-path="url(#clip360)" d="M2190.31 167.665 Q2190.59 167.946 2190.59 168.344 Q2190.59 168.742 2190.31 169.023 Q2190.02 169.304 2189.63 169.304 L2159.6 169.304 Q2159.2 169.304 2158.92 169.023 Q2158.64 168.742 2158.64 168.344 Q2158.64 167.946 2158.92 167.665 Q2159.2 167.384 2159.6 167.384 L2189.63 167.384 Q2190.02 167.384 2190.31 167.665 Z" fill="#000000" fill-rule="nonzero" fill-opacity="1" /><path clip-path="url(#clip360)" d="M2232.43 173.474 Q2232.43 173.661 2232.22 174.387 Q2232.01 175.113 2231.49 176.237 Q2231 177.362 2230.32 178.392 Q2229.64 179.399 2228.52 180.149 Q2227.42 180.875 2226.15 180.875 Q2224.47 180.875 2223.34 179.751 Q2222.22 178.627 2222.22 176.94 Q2222.22 176.706 2222.24 176.472 Q2222.26 176.237 2222.29 176.097 Q2222.31 175.933 2222.38 175.675 Q2222.48 175.394 2222.5 175.277 Q2222.55 175.16 2222.66 174.809 Q2222.8 174.434 2222.85 174.293 Q2225.82 166.705 2225.82 163.542 Q2225.82 160.193 2223.22 160.193 Q2220.91 160.193 2218.61 161.879 Q2217.56 162.723 2216.55 164.222 Q2215.54 165.721 2215.35 166.283 Q2215.14 167.501 2214.84 168.438 Q2214.7 169.094 2214.02 171.647 L2212.97 175.98 L2212.05 179.61 Q2211.86 180.126 2211.35 180.5 Q2210.83 180.875 2210.27 180.875 Q2209.8 180.875 2209.34 180.547 Q2208.89 180.243 2208.89 179.517 Q2208.89 179.142 2209.08 178.463 L2216.03 150.824 L2216.17 149.887 Q2216.17 149.606 2216.06 149.466 Q2215.96 149.302 2215.4 149.185 Q2214.86 149.067 2213.79 149.067 Q2213.34 149.067 2213.13 149.044 Q2212.94 149.021 2212.78 148.903 Q2212.61 148.763 2212.61 148.482 Q2212.61 148.084 2212.78 147.873 Q2212.97 147.639 2213.11 147.592 Q2213.25 147.545 2213.53 147.522 Q2213.93 147.498 2215.26 147.381 Q2216.6 147.24 2217.74 147.147 Q2218.89 147.053 2219.38 147.053 Q2219.66 147.053 2219.8 147.194 Q2219.97 147.311 2219.99 147.451 L2220.02 147.568 L2216.27 162.816 Q2219.24 159.139 2223.37 159.139 Q2226.04 159.139 2227.46 160.521 Q2228.89 161.879 2228.89 164.269 Q2228.89 167.009 2225.97 174.809 Q2225.1 176.987 2225.1 178.228 Q2225.1 179.048 2225.36 179.423 Q2225.64 179.798 2226.25 179.798 Q2227.18 179.798 2228 179.259 Q2228.85 178.697 2229.43 177.783 Q2230.02 176.846 2230.42 175.91 Q2230.84 174.949 2231.14 173.872 Q2231.33 173.286 2231.42 173.146 Q2231.54 173.005 2231.87 173.005 Q2232.43 173.005 2232.43 173.474 Z" fill="#000000" fill-rule="nonzero" fill-opacity="1" /><path clip-path="url(#clip360)" d="M2236.43 191.86 Q2236.43 191.626 2237.04 191.04 Q2244.77 183.17 2244.77 168.344 Q2244.77 153.471 2237.34 145.952 Q2236.43 145.086 2236.43 144.828 Q2236.43 144.359 2236.9 144.359 Q2237.22 144.359 2238.37 145.32 Q2239.54 146.28 2241.3 148.482 Q2243.08 150.684 2244.39 153.377 Q2247.55 159.912 2247.55 168.344 Q2247.55 176.448 2244.53 182.983 Q2243.24 185.724 2241.44 188.019 Q2239.64 190.314 2238.44 191.321 Q2237.25 192.329 2236.9 192.329 Q2236.43 192.329 2236.43 191.86 Z" fill="#000000" fill-rule="nonzero" fill-opacity="1" /><path clip-path="url(#clip360)" d="M1827.68 205.011 L2252.56 205.011 L2252.56 202.451 L1827.68 202.451  Z" fill="#000000" fill-rule="evenodd" fill-opacity="1"/>
<path clip-path="url(#clip360)" d="M2013.68 248.204 Q2013.68 247.338 2013.75 247.08 Q2013.84 246.823 2014.22 246.424 L2023.42 236.165 Q2028.46 230.497 2028.46 225.555 Q2028.46 222.346 2026.77 220.051 Q2025.11 217.755 2022.04 217.755 Q2019.93 217.755 2018.15 219.044 Q2016.37 220.332 2015.55 222.627 Q2015.69 222.58 2016.19 222.58 Q2017.38 222.58 2018.04 223.33 Q2018.72 224.079 2018.72 225.087 Q2018.72 226.375 2017.87 227.007 Q2017.05 227.616 2016.23 227.616 Q2015.91 227.616 2015.46 227.546 Q2015.04 227.476 2014.36 226.82 Q2013.68 226.141 2013.68 224.946 Q2013.68 221.597 2016.21 218.926 Q2018.76 216.256 2022.65 216.256 Q2027.05 216.256 2029.94 218.88 Q2032.84 221.479 2032.84 225.555 Q2032.84 226.984 2032.4 228.295 Q2031.97 229.584 2031.39 230.591 Q2030.83 231.598 2029.28 233.214 Q2027.73 234.83 2026.49 235.978 Q2025.25 237.126 2022.46 239.562 L2017.38 244.504 L2026.02 244.504 Q2030.24 244.504 2030.57 244.129 Q2031.04 243.45 2031.62 239.866 L2032.84 239.866 L2031.48 248.204 L2013.68 248.204 Z" fill="#000000" fill-rule="nonzero" fill-opacity="1" /><path clip-path="url(#clip360)" d="M2061.16 241.342 Q2061.16 241.529 2060.95 242.255 Q2060.74 242.981 2060.23 244.106 Q2059.73 245.23 2059.05 246.26 Q2058.37 247.268 2057.25 248.017 Q2056.15 248.743 2054.88 248.743 Q2053.2 248.743 2052.07 247.619 Q2050.95 246.495 2050.95 244.808 Q2050.95 244.574 2050.97 244.34 Q2051 244.106 2051.02 243.965 Q2051.04 243.801 2051.11 243.543 Q2051.21 243.262 2051.23 243.145 Q2051.28 243.028 2051.39 242.677 Q2051.54 242.302 2051.58 242.162 Q2054.56 234.573 2054.56 231.411 Q2054.56 228.061 2051.96 228.061 Q2049.64 228.061 2047.34 229.748 Q2046.29 230.591 2045.28 232.09 Q2044.27 233.589 2044.09 234.151 Q2043.88 235.369 2043.57 236.306 Q2043.43 236.962 2042.75 239.515 L2041.7 243.848 L2040.78 247.478 Q2040.6 247.994 2040.08 248.368 Q2039.57 248.743 2039 248.743 Q2038.54 248.743 2038.07 248.415 Q2037.62 248.111 2037.62 247.385 Q2037.62 247.01 2037.81 246.331 L2044.77 218.692 L2044.91 217.755 Q2044.91 217.474 2044.79 217.334 Q2044.7 217.17 2044.13 217.053 Q2043.6 216.936 2042.52 216.936 Q2042.07 216.936 2041.86 216.912 Q2041.67 216.889 2041.51 216.772 Q2041.35 216.631 2041.35 216.35 Q2041.35 215.952 2041.51 215.741 Q2041.7 215.507 2041.84 215.46 Q2041.98 215.413 2042.26 215.39 Q2042.66 215.366 2043.99 215.249 Q2045.33 215.109 2046.48 215.015 Q2047.62 214.921 2048.12 214.921 Q2048.4 214.921 2048.54 215.062 Q2048.7 215.179 2048.72 215.319 L2048.75 215.436 L2045 230.685 Q2047.98 227.007 2052.1 227.007 Q2054.77 227.007 2056.2 228.389 Q2057.63 229.748 2057.63 232.137 Q2057.63 234.877 2054.7 242.677 Q2053.83 244.855 2053.83 246.096 Q2053.83 246.916 2054.09 247.291 Q2054.37 247.666 2054.98 247.666 Q2055.92 247.666 2056.74 247.127 Q2057.58 246.565 2058.16 245.651 Q2058.75 244.715 2059.15 243.778 Q2059.57 242.817 2059.87 241.74 Q2060.06 241.154 2060.15 241.014 Q2060.27 240.873 2060.6 240.873 Q2061.16 240.873 2061.16 241.342 Z" fill="#000000" fill-rule="nonzero" fill-opacity="1" /></svg>
