<?xml version="1.0" encoding="utf-8"?>
<svg xmlns="http://www.w3.org/2000/svg" xmlns:xlink="http://www.w3.org/1999/xlink" width="600" height="400" viewBox="0 0 2400 1600">
<defs>
  <clipPath id="clip970">
    <rect x="0" y="0" width="2400" height="1600"/>
  </clipPath>
</defs>
<path clip-path="url(#clip970)" d="M0 1600 L2400 1600 L2400 0 L0 0  Z" fill="#ffffff" fill-rule="evenodd" fill-opacity="1"/>
<defs>
  <clipPath id="clip971">
    <rect x="480" y="0" width="1681" height="1600"/>
  </clipPath>
</defs>
<path clip-path="url(#clip970)" d="M193.936 1486.45 L2352.76 1486.45 L2352.76 47.2441 L193.936 47.2441  Z" fill="#ffffff" fill-rule="evenodd" fill-opacity="1"/>
<defs>
  <clipPath id="clip972">
    <rect x="193" y="47" width="2160" height="1440"/>
  </clipPath>
</defs>
<polyline clip-path="url(#clip972)" style="stroke:#000000; stroke-linecap:round; stroke-linejoin:round; stroke-width:2; stroke-opacity:0.1; fill:none" points="627.344,1486.45 627.344,47.2441 "/>
<polyline clip-path="url(#clip972)" style="stroke:#000000; stroke-linecap:round; stroke-linejoin:round; stroke-width:2; stroke-opacity:0.1; fill:none" points="1136.63,1486.45 1136.63,47.2441 "/>
<polyline clip-path="url(#clip972)" style="stroke:#000000; stroke-linecap:round; stroke-linejoin:round; stroke-width:2; stroke-opacity:0.1; fill:none" points="1645.91,1486.45 1645.91,47.2441 "/>
<polyline clip-path="url(#clip972)" style="stroke:#000000; stroke-linecap:round; stroke-linejoin:round; stroke-width:2; stroke-opacity:0.1; fill:none" points="2155.2,1486.45 2155.2,47.2441 "/>
<polyline clip-path="url(#clip970)" style="stroke:#000000; stroke-linecap:round; stroke-linejoin:round; stroke-width:4; stroke-opacity:1; fill:none" points="193.936,1486.45 2352.76,1486.45 "/>
<polyline clip-path="url(#clip970)" style="stroke:#000000; stroke-linecap:round; stroke-linejoin:round; stroke-width:4; stroke-opacity:1; fill:none" points="627.344,1486.45 627.344,1467.55 "/>
<polyline clip-path="url(#clip970)" style="stroke:#000000; stroke-linecap:round; stroke-linejoin:round; stroke-width:4; stroke-opacity:1; fill:none" points="1136.63,1486.45 1136.63,1467.55 "/>
<polyline clip-path="url(#clip970)" style="stroke:#000000; stroke-linecap:round; stroke-linejoin:round; stroke-width:4; stroke-opacity:1; fill:none" points="1645.91,1486.45 1645.91,1467.55 "/>
<polyline clip-path="url(#clip970)" style="stroke:#000000; stroke-linecap:round; stroke-linejoin:round; stroke-width:4; stroke-opacity:1; fill:none" points="2155.2,1486.45 2155.2,1467.55 "/>
<path clip-path="url(#clip970)" d="M596.811 1532.02 L626.487 1532.02 L626.487 1535.95 L596.811 1535.95 L596.811 1532.02 Z" fill="#000000" fill-rule="nonzero" fill-opacity="1" /><path clip-path="url(#clip970)" d="M650.746 1530.21 Q654.103 1530.93 655.978 1533.2 Q657.876 1535.47 657.876 1538.8 Q657.876 1543.92 654.357 1546.72 Q650.839 1549.52 644.357 1549.52 Q642.181 1549.52 639.867 1549.08 Q637.575 1548.66 635.121 1547.81 L635.121 1543.29 Q637.066 1544.43 639.38 1545.01 Q641.695 1545.58 644.218 1545.58 Q648.617 1545.58 650.908 1543.85 Q653.223 1542.11 653.223 1538.8 Q653.223 1535.75 651.07 1534.03 Q648.941 1532.3 645.121 1532.3 L641.093 1532.3 L641.093 1528.45 L645.306 1528.45 Q648.755 1528.45 650.584 1527.09 Q652.413 1525.7 652.413 1523.11 Q652.413 1520.45 650.515 1519.03 Q648.64 1517.6 645.121 1517.6 Q643.2 1517.6 641.001 1518.01 Q638.802 1518.43 636.163 1519.31 L636.163 1515.14 Q638.825 1514.4 641.14 1514.03 Q643.478 1513.66 645.538 1513.66 Q650.862 1513.66 653.964 1516.09 Q657.066 1518.5 657.066 1522.62 Q657.066 1525.49 655.422 1527.48 Q653.779 1529.45 650.746 1530.21 Z" fill="#000000" fill-rule="nonzero" fill-opacity="1" /><path clip-path="url(#clip970)" d="M1106.57 1532.02 L1136.25 1532.02 L1136.25 1535.95 L1106.57 1535.95 L1106.57 1532.02 Z" fill="#000000" fill-rule="nonzero" fill-opacity="1" /><path clip-path="url(#clip970)" d="M1150.37 1544.91 L1166.69 1544.91 L1166.69 1548.85 L1144.74 1548.85 L1144.74 1544.91 Q1147.4 1542.16 1151.99 1537.53 Q1156.59 1532.88 1157.77 1531.53 Q1160.02 1529.01 1160.9 1527.27 Q1161.8 1525.51 1161.8 1523.82 Q1161.8 1521.07 1159.86 1519.33 Q1157.94 1517.6 1154.83 1517.6 Q1152.63 1517.6 1150.18 1518.36 Q1147.75 1519.13 1144.97 1520.68 L1144.97 1515.95 Q1147.8 1514.82 1150.25 1514.24 Q1152.7 1513.66 1154.74 1513.66 Q1160.11 1513.66 1163.31 1516.35 Q1166.5 1519.03 1166.5 1523.52 Q1166.5 1525.65 1165.69 1527.57 Q1164.9 1529.47 1162.8 1532.07 Q1162.22 1532.74 1159.12 1535.95 Q1156.01 1539.15 1150.37 1544.91 Z" fill="#000000" fill-rule="nonzero" fill-opacity="1" /><path clip-path="url(#clip970)" d="M1615.67 1532.02 L1645.34 1532.02 L1645.34 1535.95 L1615.67 1535.95 L1615.67 1532.02 Z" fill="#000000" fill-rule="nonzero" fill-opacity="1" /><path clip-path="url(#clip970)" d="M1656.25 1544.91 L1663.89 1544.91 L1663.89 1518.55 L1655.58 1520.21 L1655.58 1515.95 L1663.84 1514.29 L1668.52 1514.29 L1668.52 1544.91 L1676.15 1544.91 L1676.15 1548.85 L1656.25 1548.85 L1656.25 1544.91 Z" fill="#000000" fill-rule="nonzero" fill-opacity="1" /><path clip-path="url(#clip970)" d="M2155.2 1517.37 Q2151.58 1517.37 2149.76 1520.93 Q2147.95 1524.47 2147.95 1531.6 Q2147.95 1538.71 2149.76 1542.27 Q2151.58 1545.82 2155.2 1545.82 Q2158.83 1545.82 2160.63 1542.27 Q2162.46 1538.71 2162.46 1531.6 Q2162.46 1524.47 2160.63 1520.93 Q2158.83 1517.37 2155.2 1517.37 M2155.2 1513.66 Q2161.01 1513.66 2164.06 1518.27 Q2167.14 1522.85 2167.14 1531.6 Q2167.14 1540.33 2164.06 1544.94 Q2161.01 1549.52 2155.2 1549.52 Q2149.38 1549.52 2146.31 1544.94 Q2143.25 1540.33 2143.25 1531.6 Q2143.25 1522.85 2146.31 1518.27 Q2149.38 1513.66 2155.2 1513.66 Z" fill="#000000" fill-rule="nonzero" fill-opacity="1" /><polyline clip-path="url(#clip972)" style="stroke:#000000; stroke-linecap:round; stroke-linejoin:round; stroke-width:2; stroke-opacity:0.1; fill:none" points="193.936,1486.45 2352.76,1486.45 "/>
<polyline clip-path="url(#clip972)" style="stroke:#000000; stroke-linecap:round; stroke-linejoin:round; stroke-width:2; stroke-opacity:0.1; fill:none" points="193.936,1198.61 2352.76,1198.61 "/>
<polyline clip-path="url(#clip972)" style="stroke:#000000; stroke-linecap:round; stroke-linejoin:round; stroke-width:2; stroke-opacity:0.1; fill:none" points="193.936,910.766 2352.76,910.766 "/>
<polyline clip-path="url(#clip972)" style="stroke:#000000; stroke-linecap:round; stroke-linejoin:round; stroke-width:2; stroke-opacity:0.1; fill:none" points="193.936,622.926 2352.76,622.926 "/>
<polyline clip-path="url(#clip972)" style="stroke:#000000; stroke-linecap:round; stroke-linejoin:round; stroke-width:2; stroke-opacity:0.1; fill:none" points="193.936,335.085 2352.76,335.085 "/>
<polyline clip-path="url(#clip972)" style="stroke:#000000; stroke-linecap:round; stroke-linejoin:round; stroke-width:2; stroke-opacity:0.1; fill:none" points="193.936,47.2441 2352.76,47.2441 "/>
<polyline clip-path="url(#clip970)" style="stroke:#000000; stroke-linecap:round; stroke-linejoin:round; stroke-width:4; stroke-opacity:1; fill:none" points="193.936,1486.45 193.936,47.2441 "/>
<polyline clip-path="url(#clip970)" style="stroke:#000000; stroke-linecap:round; stroke-linejoin:round; stroke-width:4; stroke-opacity:1; fill:none" points="193.936,1486.45 212.834,1486.45 "/>
<polyline clip-path="url(#clip970)" style="stroke:#000000; stroke-linecap:round; stroke-linejoin:round; stroke-width:4; stroke-opacity:1; fill:none" points="193.936,1198.61 212.834,1198.61 "/>
<polyline clip-path="url(#clip970)" style="stroke:#000000; stroke-linecap:round; stroke-linejoin:round; stroke-width:4; stroke-opacity:1; fill:none" points="193.936,910.766 212.834,910.766 "/>
<polyline clip-path="url(#clip970)" style="stroke:#000000; stroke-linecap:round; stroke-linejoin:round; stroke-width:4; stroke-opacity:1; fill:none" points="193.936,622.926 212.834,622.926 "/>
<polyline clip-path="url(#clip970)" style="stroke:#000000; stroke-linecap:round; stroke-linejoin:round; stroke-width:4; stroke-opacity:1; fill:none" points="193.936,335.085 212.834,335.085 "/>
<polyline clip-path="url(#clip970)" style="stroke:#000000; stroke-linecap:round; stroke-linejoin:round; stroke-width:4; stroke-opacity:1; fill:none" points="193.936,47.2441 212.834,47.2441 "/>
<path clip-path="url(#clip970)" d="M50.9921 1486.9 L80.6679 1486.9 L80.6679 1490.83 L50.9921 1490.83 L50.9921 1486.9 Z" fill="#000000" fill-rule="nonzero" fill-opacity="1" /><path clip-path="url(#clip970)" d="M91.5706 1499.79 L99.2095 1499.79 L99.2095 1473.43 L90.8993 1475.09 L90.8993 1470.83 L99.1632 1469.17 L103.839 1469.17 L103.839 1499.79 L111.478 1499.79 L111.478 1503.73 L91.5706 1503.73 L91.5706 1499.79 Z" fill="#000000" fill-rule="nonzero" fill-opacity="1" /><path clip-path="url(#clip970)" d="M120.922 1497.85 L125.807 1497.85 L125.807 1503.73 L120.922 1503.73 L120.922 1497.85 Z" fill="#000000" fill-rule="nonzero" fill-opacity="1" /><path clip-path="url(#clip970)" d="M145.992 1472.25 Q142.381 1472.25 140.552 1475.81 Q138.746 1479.35 138.746 1486.48 Q138.746 1493.59 140.552 1497.15 Q142.381 1500.7 145.992 1500.7 Q149.626 1500.7 151.431 1497.15 Q153.26 1493.59 153.26 1486.48 Q153.26 1479.35 151.431 1475.81 Q149.626 1472.25 145.992 1472.25 M145.992 1468.54 Q151.802 1468.54 154.857 1473.15 Q157.936 1477.73 157.936 1486.48 Q157.936 1495.21 154.857 1499.82 Q151.802 1504.4 145.992 1504.4 Q140.181 1504.4 137.103 1499.82 Q134.047 1495.21 134.047 1486.48 Q134.047 1477.73 137.103 1473.15 Q140.181 1468.54 145.992 1468.54 Z" fill="#000000" fill-rule="nonzero" fill-opacity="1" /><path clip-path="url(#clip970)" d="M51.9875 1199.06 L81.6633 1199.06 L81.6633 1202.99 L51.9875 1202.99 L51.9875 1199.06 Z" fill="#000000" fill-rule="nonzero" fill-opacity="1" /><path clip-path="url(#clip970)" d="M101.756 1184.41 Q98.1447 1184.41 96.316 1187.97 Q94.5104 1191.51 94.5104 1198.64 Q94.5104 1205.75 96.316 1209.31 Q98.1447 1212.85 101.756 1212.85 Q105.39 1212.85 107.196 1209.31 Q109.024 1205.75 109.024 1198.64 Q109.024 1191.51 107.196 1187.97 Q105.39 1184.41 101.756 1184.41 M101.756 1180.7 Q107.566 1180.7 110.621 1185.31 Q113.7 1189.89 113.7 1198.64 Q113.7 1207.37 110.621 1211.98 Q107.566 1216.56 101.756 1216.56 Q95.9456 1216.56 92.8669 1211.98 Q89.8114 1207.37 89.8114 1198.64 Q89.8114 1189.89 92.8669 1185.31 Q95.9456 1180.7 101.756 1180.7 Z" fill="#000000" fill-rule="nonzero" fill-opacity="1" /><path clip-path="url(#clip970)" d="M121.918 1210.01 L126.802 1210.01 L126.802 1215.89 L121.918 1215.89 L121.918 1210.01 Z" fill="#000000" fill-rule="nonzero" fill-opacity="1" /><path clip-path="url(#clip970)" d="M137.033 1181.33 L155.39 1181.33 L155.39 1185.26 L141.316 1185.26 L141.316 1193.73 Q142.334 1193.39 143.353 1193.23 Q144.371 1193.04 145.39 1193.04 Q151.177 1193.04 154.556 1196.21 Q157.936 1199.38 157.936 1204.8 Q157.936 1210.38 154.464 1213.48 Q150.992 1216.56 144.672 1216.56 Q142.496 1216.56 140.228 1216.19 Q137.982 1215.82 135.575 1215.08 L135.575 1210.38 Q137.658 1211.51 139.881 1212.07 Q142.103 1212.62 144.58 1212.62 Q148.584 1212.62 150.922 1210.52 Q153.26 1208.41 153.26 1204.8 Q153.26 1201.19 150.922 1199.08 Q148.584 1196.98 144.58 1196.98 Q142.705 1196.98 140.83 1197.39 Q138.978 1197.81 137.033 1198.69 L137.033 1181.33 Z" fill="#000000" fill-rule="nonzero" fill-opacity="1" /><path clip-path="url(#clip970)" d="M100.76 896.565 Q97.1493 896.565 95.3206 900.13 Q93.515 903.671 93.515 910.801 Q93.515 917.908 95.3206 921.472 Q97.1493 925.014 100.76 925.014 Q104.395 925.014 106.2 921.472 Q108.029 917.908 108.029 910.801 Q108.029 903.671 106.2 900.13 Q104.395 896.565 100.76 896.565 M100.76 892.861 Q106.571 892.861 109.626 897.468 Q112.705 902.051 112.705 910.801 Q112.705 919.528 109.626 924.134 Q106.571 928.718 100.76 928.718 Q94.9502 928.718 91.8715 924.134 Q88.816 919.528 88.816 910.801 Q88.816 902.051 91.8715 897.468 Q94.9502 892.861 100.76 892.861 Z" fill="#000000" fill-rule="nonzero" fill-opacity="1" /><path clip-path="url(#clip970)" d="M120.922 922.167 L125.807 922.167 L125.807 928.046 L120.922 928.046 L120.922 922.167 Z" fill="#000000" fill-rule="nonzero" fill-opacity="1" /><path clip-path="url(#clip970)" d="M145.992 896.565 Q142.381 896.565 140.552 900.13 Q138.746 903.671 138.746 910.801 Q138.746 917.908 140.552 921.472 Q142.381 925.014 145.992 925.014 Q149.626 925.014 151.431 921.472 Q153.26 917.908 153.26 910.801 Q153.26 903.671 151.431 900.13 Q149.626 896.565 145.992 896.565 M145.992 892.861 Q151.802 892.861 154.857 897.468 Q157.936 902.051 157.936 910.801 Q157.936 919.528 154.857 924.134 Q151.802 928.718 145.992 928.718 Q140.181 928.718 137.103 924.134 Q134.047 919.528 134.047 910.801 Q134.047 902.051 137.103 897.468 Q140.181 892.861 145.992 892.861 Z" fill="#000000" fill-rule="nonzero" fill-opacity="1" /><path clip-path="url(#clip970)" d="M101.756 608.724 Q98.1447 608.724 96.316 612.289 Q94.5104 615.831 94.5104 622.96 Q94.5104 630.067 96.316 633.632 Q98.1447 637.173 101.756 637.173 Q105.39 637.173 107.196 633.632 Q109.024 630.067 109.024 622.96 Q109.024 615.831 107.196 612.289 Q105.39 608.724 101.756 608.724 M101.756 605.021 Q107.566 605.021 110.621 609.627 Q113.7 614.21 113.7 622.96 Q113.7 631.687 110.621 636.294 Q107.566 640.877 101.756 640.877 Q95.9456 640.877 92.8669 636.294 Q89.8114 631.687 89.8114 622.96 Q89.8114 614.21 92.8669 609.627 Q95.9456 605.021 101.756 605.021 Z" fill="#000000" fill-rule="nonzero" fill-opacity="1" /><path clip-path="url(#clip970)" d="M121.918 634.326 L126.802 634.326 L126.802 640.206 L121.918 640.206 L121.918 634.326 Z" fill="#000000" fill-rule="nonzero" fill-opacity="1" /><path clip-path="url(#clip970)" d="M137.033 605.646 L155.39 605.646 L155.39 609.581 L141.316 609.581 L141.316 618.053 Q142.334 617.706 143.353 617.544 Q144.371 617.359 145.39 617.359 Q151.177 617.359 154.556 620.53 Q157.936 623.701 157.936 629.118 Q157.936 634.696 154.464 637.798 Q150.992 640.877 144.672 640.877 Q142.496 640.877 140.228 640.507 Q137.982 640.136 135.575 639.395 L135.575 634.696 Q137.658 635.831 139.881 636.386 Q142.103 636.942 144.58 636.942 Q148.584 636.942 150.922 634.835 Q153.26 632.729 153.26 629.118 Q153.26 625.507 150.922 623.4 Q148.584 621.294 144.58 621.294 Q142.705 621.294 140.83 621.71 Q138.978 622.127 137.033 623.007 L137.033 605.646 Z" fill="#000000" fill-rule="nonzero" fill-opacity="1" /><path clip-path="url(#clip970)" d="M91.5706 348.43 L99.2095 348.43 L99.2095 322.064 L90.8993 323.731 L90.8993 319.472 L99.1632 317.805 L103.839 317.805 L103.839 348.43 L111.478 348.43 L111.478 352.365 L91.5706 352.365 L91.5706 348.43 Z" fill="#000000" fill-rule="nonzero" fill-opacity="1" /><path clip-path="url(#clip970)" d="M120.922 346.485 L125.807 346.485 L125.807 352.365 L120.922 352.365 L120.922 346.485 Z" fill="#000000" fill-rule="nonzero" fill-opacity="1" /><path clip-path="url(#clip970)" d="M145.992 320.884 Q142.381 320.884 140.552 324.448 Q138.746 327.99 138.746 335.12 Q138.746 342.226 140.552 345.791 Q142.381 349.332 145.992 349.332 Q149.626 349.332 151.431 345.791 Q153.26 342.226 153.26 335.12 Q153.26 327.99 151.431 324.448 Q149.626 320.884 145.992 320.884 M145.992 317.18 Q151.802 317.18 154.857 321.786 Q157.936 326.37 157.936 335.12 Q157.936 343.846 154.857 348.453 Q151.802 353.036 145.992 353.036 Q140.181 353.036 137.103 348.453 Q134.047 343.846 134.047 335.12 Q134.047 326.37 137.103 321.786 Q140.181 317.18 145.992 317.18 Z" fill="#000000" fill-rule="nonzero" fill-opacity="1" /><path clip-path="url(#clip970)" d="M92.566 60.5889 L100.205 60.5889 L100.205 34.2233 L91.8947 35.89 L91.8947 31.6308 L100.159 29.9641 L104.834 29.9641 L104.834 60.5889 L112.473 60.5889 L112.473 64.5241 L92.566 64.5241 L92.566 60.5889 Z" fill="#000000" fill-rule="nonzero" fill-opacity="1" /><path clip-path="url(#clip970)" d="M121.918 58.6445 L126.802 58.6445 L126.802 64.5241 L121.918 64.5241 L121.918 58.6445 Z" fill="#000000" fill-rule="nonzero" fill-opacity="1" /><path clip-path="url(#clip970)" d="M137.033 29.9641 L155.39 29.9641 L155.39 33.8993 L141.316 33.8993 L141.316 42.3714 Q142.334 42.0242 143.353 41.8622 Q144.371 41.677 145.39 41.677 Q151.177 41.677 154.556 44.8483 Q157.936 48.0196 157.936 53.4362 Q157.936 59.0149 154.464 62.1167 Q150.992 65.1954 144.672 65.1954 Q142.496 65.1954 140.228 64.825 Q137.982 64.4547 135.575 63.7139 L135.575 59.0149 Q137.658 60.1491 139.881 60.7047 Q142.103 61.2602 144.58 61.2602 Q148.584 61.2602 150.922 59.1538 Q153.26 57.0473 153.26 53.4362 Q153.26 49.8251 150.922 47.7186 Q148.584 45.6122 144.58 45.6122 Q142.705 45.6122 140.83 46.0288 Q138.978 46.4455 137.033 47.3251 L137.033 29.9641 Z" fill="#000000" fill-rule="nonzero" fill-opacity="1" /><circle clip-path="url(#clip972)" cx="2291.66" cy="910.766" r="14.4" fill="#009af9" fill-rule="evenodd" fill-opacity="1" stroke="#000000" stroke-opacity="1" stroke-width="3.2"/>
<circle clip-path="url(#clip972)" cx="1744.24" cy="400.375" r="14.4" fill="#009af9" fill-rule="evenodd" fill-opacity="1" stroke="#000000" stroke-opacity="1" stroke-width="3.2"/>
<circle clip-path="url(#clip972)" cx="1336.44" cy="336.199" r="14.4" fill="#009af9" fill-rule="evenodd" fill-opacity="1" stroke="#000000" stroke-opacity="1" stroke-width="3.2"/>
<circle clip-path="url(#clip972)" cx="1033.67" cy="351.215" r="14.4" fill="#009af9" fill-rule="evenodd" fill-opacity="1" stroke="#000000" stroke-opacity="1" stroke-width="3.2"/>
<circle clip-path="url(#clip972)" cx="799.011" cy="401.241" r="14.4" fill="#009af9" fill-rule="evenodd" fill-opacity="1" stroke="#000000" stroke-opacity="1" stroke-width="3.2"/>
<circle clip-path="url(#clip972)" cx="615.86" cy="470.962" r="14.4" fill="#009af9" fill-rule="evenodd" fill-opacity="1" stroke="#000000" stroke-opacity="1" stroke-width="3.2"/>
<circle clip-path="url(#clip972)" cx="475.156" cy="552.961" r="14.4" fill="#009af9" fill-rule="evenodd" fill-opacity="1" stroke="#000000" stroke-opacity="1" stroke-width="3.2"/>
<circle clip-path="url(#clip972)" cx="371.48" cy="642.925" r="14.4" fill="#009af9" fill-rule="evenodd" fill-opacity="1" stroke="#000000" stroke-opacity="1" stroke-width="3.2"/>
<circle clip-path="url(#clip972)" cx="301.48" cy="737.987" r="14.4" fill="#009af9" fill-rule="evenodd" fill-opacity="1" stroke="#000000" stroke-opacity="1" stroke-width="3.2"/>
<circle clip-path="url(#clip972)" cx="263.144" cy="836.022" r="14.4" fill="#009af9" fill-rule="evenodd" fill-opacity="1" stroke="#000000" stroke-opacity="1" stroke-width="3.2"/>
<circle clip-path="url(#clip972)" cx="255.445" cy="935.276" r="14.4" fill="#009af9" fill-rule="evenodd" fill-opacity="1" stroke="#000000" stroke-opacity="1" stroke-width="3.2"/>
<circle clip-path="url(#clip972)" cx="278.185" cy="1034.14" r="14.4" fill="#009af9" fill-rule="evenodd" fill-opacity="1" stroke="#000000" stroke-opacity="1" stroke-width="3.2"/>
<circle clip-path="url(#clip972)" cx="331.96" cy="1130.94" r="14.4" fill="#009af9" fill-rule="evenodd" fill-opacity="1" stroke="#000000" stroke-opacity="1" stroke-width="3.2"/>
<circle clip-path="url(#clip972)" cx="418.252" cy="1223.79" r="14.4" fill="#009af9" fill-rule="evenodd" fill-opacity="1" stroke="#000000" stroke-opacity="1" stroke-width="3.2"/>
<circle clip-path="url(#clip972)" cx="539.672" cy="1310.25" r="14.4" fill="#009af9" fill-rule="evenodd" fill-opacity="1" stroke="#000000" stroke-opacity="1" stroke-width="3.2"/>
<circle clip-path="url(#clip972)" cx="700.467" cy="1386.86" r="14.4" fill="#009af9" fill-rule="evenodd" fill-opacity="1" stroke="#000000" stroke-opacity="1" stroke-width="3.2"/>
<circle clip-path="url(#clip972)" cx="907.567" cy="1448.1" r="14.4" fill="#009af9" fill-rule="evenodd" fill-opacity="1" stroke="#000000" stroke-opacity="1" stroke-width="3.2"/>
<circle clip-path="url(#clip972)" cx="1172.99" cy="1483.66" r="14.4" fill="#009af9" fill-rule="evenodd" fill-opacity="1" stroke="#000000" stroke-opacity="1" stroke-width="3.2"/>
<circle clip-path="url(#clip972)" cx="1520.58" cy="1469.2" r="14.4" fill="#009af9" fill-rule="evenodd" fill-opacity="1" stroke="#000000" stroke-opacity="1" stroke-width="3.2"/>
<circle clip-path="url(#clip972)" cx="2011.74" cy="1307.15" r="14.4" fill="#009af9" fill-rule="evenodd" fill-opacity="1" stroke="#000000" stroke-opacity="1" stroke-width="3.2"/>
<polyline clip-path="url(#clip972)" style="stroke:#e26f46; stroke-linecap:round; stroke-linejoin:round; stroke-width:4; stroke-opacity:1; fill:none" points="2291.66,910.766 2289.61,874.254 2283.46,837.889 2273.25,801.818 2259.01,766.185 2240.8,731.134 2218.7,696.807 2192.78,663.341 2163.16,630.872 2129.96,599.529 2093.31,569.44 2053.36,540.725 2010.26,513.501 1964.2,487.875 1915.35,463.953 1863.92,441.83 1810.1,421.595 1754.13,403.33 1696.22,387.108 1636.6,372.995 1575.52,361.047 1513.23,351.312 1449.96,343.831 1385.99,338.632 1321.55,335.737 1256.93,335.157 1192.37,336.895 1128.13,340.944 1064.48,347.288 1001.67,355.9 939.949,366.747 879.571,379.784 820.778,394.959 763.806,412.212 708.884,431.471 656.235,452.661 606.07,475.695 558.59,500.482 513.987,526.92 472.441,554.904 434.119,584.32 399.175,615.052 367.75,646.974 339.971,679.958 315.949,713.872 295.781,748.578 279.548,783.938 267.316,819.808 259.134,856.044 255.035,892.501 255.035,929.032 259.134,965.488 267.316,1001.72 279.548,1037.6 295.781,1072.95 315.949,1107.66 339.971,1141.57 367.75,1174.56 399.175,1206.48 434.119,1237.21 472.441,1266.63 513.987,1294.61 558.59,1321.05 606.07,1345.84 656.235,1368.87 708.884,1390.06 763.806,1409.32 820.778,1426.57 879.571,1441.75 939.949,1454.79 1001.67,1465.63 1064.48,1474.24 1128.13,1480.59 1192.37,1484.64 1256.93,1486.38 1321.55,1485.8 1385.99,1482.9 1449.96,1477.7 1513.23,1470.22 1575.52,1460.49 1636.6,1448.54 1696.22,1434.42 1754.13,1418.2 1810.1,1399.94 1863.92,1379.7 1915.35,1357.58 1964.2,1333.66 2010.26,1308.03 2053.36,1280.81 2093.31,1252.09 2129.96,1222 2163.16,1190.66 2192.78,1158.19 2218.7,1124.73 2240.8,1090.4 2259.01,1055.35 2273.25,1019.71 2283.46,983.643 2289.61,947.278 2291.66,910.766 "/>
<circle clip-path="url(#clip972)" cx="2155.2" cy="910.766" r="14.4" fill="#3da44d" fill-rule="evenodd" fill-opacity="1" stroke="#000000" stroke-opacity="1" stroke-width="3.2"/>
<polyline clip-path="url(#clip972)" style="stroke:#c271d2; stroke-linecap:round; stroke-linejoin:round; stroke-width:4; stroke-opacity:1; fill:none" points="1744.24,400.375 2155.2,910.766 1336.44,336.199 2155.2,910.766 475.156,552.961 2155.2,910.766 371.48,642.925 "/>
<path clip-path="url(#clip970)" d="M265.897 250.738 L1467.21 250.738 L1467.21 95.2176 L265.897 95.2176  Z" fill="#ffffff" fill-rule="evenodd" fill-opacity="1"/>
<polyline clip-path="url(#clip970)" style="stroke:#000000; stroke-linecap:round; stroke-linejoin:round; stroke-width:4; stroke-opacity:1; fill:none" points="265.897,250.738 1467.21,250.738 1467.21,95.2176 265.897,95.2176 265.897,250.738 "/>
<circle clip-path="url(#clip970)" cx="361.844" cy="147.058" r="20.48" fill="#009af9" fill-rule="evenodd" fill-opacity="1" stroke="#000000" stroke-opacity="1" stroke-width="4.55111"/>
<path clip-path="url(#clip970)" d="M462.074 160.449 L462.074 174.199 L457.792 174.199 L457.792 138.412 L462.074 138.412 L462.074 142.347 Q463.417 140.032 465.454 138.921 Q467.514 137.787 470.361 137.787 Q475.083 137.787 478.023 141.537 Q480.986 145.287 480.986 151.398 Q480.986 157.509 478.023 161.259 Q475.083 165.009 470.361 165.009 Q467.514 165.009 465.454 163.898 Q463.417 162.763 462.074 160.449 M476.565 151.398 Q476.565 146.699 474.62 144.037 Q472.699 141.352 469.319 141.352 Q465.94 141.352 463.995 144.037 Q462.074 146.699 462.074 151.398 Q462.074 156.097 463.995 158.782 Q465.94 161.444 469.319 161.444 Q472.699 161.444 474.62 158.782 Q476.565 156.097 476.565 151.398 Z" fill="#000000" fill-rule="nonzero" fill-opacity="1" /><path clip-path="url(#clip970)" d="M498.092 141.398 Q494.667 141.398 492.676 144.083 Q490.685 146.745 490.685 151.398 Q490.685 156.051 492.653 158.736 Q494.643 161.398 498.092 161.398 Q501.495 161.398 503.486 158.713 Q505.477 156.027 505.477 151.398 Q505.477 146.791 503.486 144.106 Q501.495 141.398 498.092 141.398 M498.092 137.787 Q503.648 137.787 506.819 141.398 Q509.991 145.009 509.991 151.398 Q509.991 157.764 506.819 161.398 Q503.648 165.009 498.092 165.009 Q492.514 165.009 489.343 161.398 Q486.194 157.764 486.194 151.398 Q486.194 145.009 489.343 141.398 Q492.514 137.787 498.092 137.787 Z" fill="#000000" fill-rule="nonzero" fill-opacity="1" /><path clip-path="url(#clip970)" d="M517.051 128.319 L521.31 128.319 L521.31 164.338 L517.051 164.338 L517.051 128.319 Z" fill="#000000" fill-rule="nonzero" fill-opacity="1" /><path clip-path="url(#clip970)" d="M540.268 141.398 Q536.842 141.398 534.852 144.083 Q532.861 146.745 532.861 151.398 Q532.861 156.051 534.828 158.736 Q536.819 161.398 540.268 161.398 Q543.671 161.398 545.662 158.713 Q547.652 156.027 547.652 151.398 Q547.652 146.791 545.662 144.106 Q543.671 141.398 540.268 141.398 M540.268 137.787 Q545.824 137.787 548.995 141.398 Q552.166 145.009 552.166 151.398 Q552.166 157.764 548.995 161.398 Q545.824 165.009 540.268 165.009 Q534.69 165.009 531.518 161.398 Q528.37 157.764 528.37 151.398 Q528.37 145.009 531.518 141.398 Q534.69 137.787 540.268 137.787 Z" fill="#000000" fill-rule="nonzero" fill-opacity="1" /><path clip-path="url(#clip970)" d="M557.375 138.412 L577.606 138.412 L577.606 142.301 L561.588 160.935 L577.606 160.935 L577.606 164.338 L556.796 164.338 L556.796 160.449 L572.814 141.815 L557.375 141.815 L557.375 138.412 M565.523 135.125 L559.851 126.421 L563.069 126.421 L567.236 132.092 L571.402 126.421 L574.62 126.421 L568.949 135.125 L565.523 135.125 Z" fill="#000000" fill-rule="nonzero" fill-opacity="1" /><path clip-path="url(#clip970)" d="M595.893 151.305 Q590.731 151.305 588.74 152.486 Q586.749 153.666 586.749 156.514 Q586.749 158.782 588.231 160.125 Q589.736 161.444 592.305 161.444 Q595.847 161.444 597.976 158.944 Q600.129 156.421 600.129 152.254 L600.129 151.305 L595.893 151.305 M604.388 149.546 L604.388 164.338 L600.129 164.338 L600.129 160.402 Q598.671 162.763 596.495 163.898 Q594.319 165.009 591.171 165.009 Q587.189 165.009 584.828 162.787 Q582.49 160.541 582.49 156.791 Q582.49 152.416 585.407 150.194 Q588.347 147.972 594.157 147.972 L600.129 147.972 L600.129 147.555 Q600.129 144.615 598.185 143.018 Q596.263 141.398 592.768 141.398 Q590.546 141.398 588.439 141.93 Q586.333 142.463 584.388 143.527 L584.388 139.592 Q586.726 138.69 588.925 138.25 Q591.124 137.787 593.208 137.787 Q598.833 137.787 601.61 140.703 Q604.388 143.62 604.388 149.546 Z" fill="#000000" fill-rule="nonzero" fill-opacity="1" /><path clip-path="url(#clip970)" d="M613.161 138.412 L617.421 138.412 L617.421 164.801 Q617.421 169.754 615.522 171.976 Q613.647 174.199 609.458 174.199 L607.837 174.199 L607.837 170.588 L608.972 170.588 Q611.402 170.588 612.282 169.453 Q613.161 168.342 613.161 164.801 L613.161 138.412 M613.161 128.319 L617.421 128.319 L617.421 133.713 L613.161 133.713 L613.161 128.319 Z" fill="#000000" fill-rule="nonzero" fill-opacity="1" /><path clip-path="url(#clip970)" d="M626.333 138.412 L630.592 138.412 L630.592 164.338 L626.333 164.338 L626.333 138.412 M626.333 128.319 L630.592 128.319 L630.592 133.713 L626.333 133.713 L626.333 128.319 Z" fill="#000000" fill-rule="nonzero" fill-opacity="1" /><path clip-path="url(#clip970)" d="M651.518 138.412 L656.031 138.412 L664.133 160.171 L672.235 138.412 L676.749 138.412 L667.027 164.338 L661.24 164.338 L651.518 138.412 Z" fill="#000000" fill-rule="nonzero" fill-opacity="1" /><path clip-path="url(#clip970)" d="M719.874 150.31 L719.874 152.393 L700.29 152.393 Q700.568 156.791 702.929 159.106 Q705.314 161.398 709.55 161.398 Q712.003 161.398 714.295 160.796 Q716.61 160.194 718.878 158.99 L718.878 163.018 Q716.587 163.99 714.179 164.5 Q711.772 165.009 709.295 165.009 Q703.091 165.009 699.457 161.398 Q695.846 157.787 695.846 151.629 Q695.846 145.264 699.272 141.537 Q702.721 137.787 708.554 137.787 Q713.786 137.787 716.818 141.166 Q719.874 144.523 719.874 150.31 M715.614 149.06 Q715.568 145.565 713.647 143.481 Q711.749 141.398 708.601 141.398 Q705.036 141.398 702.883 143.412 Q700.753 145.426 700.429 149.083 L715.614 149.06 Z" fill="#000000" fill-rule="nonzero" fill-opacity="1" /><path clip-path="url(#clip970)" d="M748.415 148.689 L748.415 164.338 L744.156 164.338 L744.156 148.828 Q744.156 145.148 742.721 143.319 Q741.286 141.49 738.415 141.49 Q734.966 141.49 732.975 143.69 Q730.985 145.889 730.985 149.685 L730.985 164.338 L726.702 164.338 L726.702 138.412 L730.985 138.412 L730.985 142.44 Q732.513 140.102 734.573 138.944 Q736.656 137.787 739.364 137.787 Q743.832 137.787 746.124 140.565 Q748.415 143.319 748.415 148.689 Z" fill="#000000" fill-rule="nonzero" fill-opacity="1" /><path clip-path="url(#clip970)" d="M768.693 151.305 Q763.531 151.305 761.54 152.486 Q759.549 153.666 759.549 156.514 Q759.549 158.782 761.031 160.125 Q762.536 161.444 765.105 161.444 Q768.647 161.444 770.776 158.944 Q772.929 156.421 772.929 152.254 L772.929 151.305 L768.693 151.305 M777.188 149.546 L777.188 164.338 L772.929 164.338 L772.929 160.402 Q771.471 162.763 769.295 163.898 Q767.119 165.009 763.971 165.009 Q759.989 165.009 757.628 162.787 Q755.29 160.541 755.29 156.791 Q755.29 152.416 758.207 150.194 Q761.147 147.972 766.957 147.972 L772.929 147.972 L772.929 147.555 Q772.929 144.615 770.985 143.018 Q769.063 141.398 765.568 141.398 Q763.346 141.398 761.239 141.93 Q759.133 142.463 757.188 143.527 L757.188 139.592 Q759.526 138.69 761.725 138.25 Q763.924 137.787 766.008 137.787 Q771.633 137.787 774.41 140.703 Q777.188 143.62 777.188 149.546 Z" fill="#000000" fill-rule="nonzero" fill-opacity="1" /><path clip-path="url(#clip970)" d="M785.799 128.319 L790.082 128.319 L790.082 149.592 L802.79 138.412 L808.23 138.412 L794.48 150.541 L808.808 164.338 L803.253 164.338 L790.082 151.676 L790.082 164.338 L785.799 164.338 L785.799 128.319 Z" fill="#000000" fill-rule="nonzero" fill-opacity="1" /><path clip-path="url(#clip970)" d="M821.771 141.398 Q818.345 141.398 816.355 144.083 Q814.364 146.745 814.364 151.398 Q814.364 156.051 816.332 158.736 Q818.322 161.398 821.771 161.398 Q825.174 161.398 827.165 158.713 Q829.156 156.027 829.156 151.398 Q829.156 146.791 827.165 144.106 Q825.174 141.398 821.771 141.398 M821.771 137.787 Q827.327 137.787 830.498 141.398 Q833.669 145.009 833.669 151.398 Q833.669 157.764 830.498 161.398 Q827.327 165.009 821.771 165.009 Q816.193 165.009 813.021 161.398 Q809.873 157.764 809.873 151.398 Q809.873 145.009 813.021 141.398 Q816.193 137.787 821.771 137.787 Z" fill="#000000" fill-rule="nonzero" fill-opacity="1" /><path clip-path="url(#clip970)" d="M860.915 143.389 Q862.512 140.518 864.734 139.153 Q866.956 137.787 869.965 137.787 Q874.016 137.787 876.215 140.634 Q878.415 143.458 878.415 148.689 L878.415 164.338 L874.132 164.338 L874.132 148.828 Q874.132 145.102 872.813 143.296 Q871.493 141.49 868.785 141.49 Q865.475 141.49 863.553 143.69 Q861.632 145.889 861.632 149.685 L861.632 164.338 L857.35 164.338 L857.35 148.828 Q857.35 145.078 856.03 143.296 Q854.711 141.49 851.956 141.49 Q848.692 141.49 846.771 143.713 Q844.85 145.912 844.85 149.685 L844.85 164.338 L840.567 164.338 L840.567 138.412 L844.85 138.412 L844.85 142.44 Q846.308 140.055 848.345 138.921 Q850.382 137.787 853.183 137.787 Q856.007 137.787 857.975 139.222 Q859.966 140.657 860.915 143.389 Z" fill="#000000" fill-rule="nonzero" fill-opacity="1" /><path clip-path="url(#clip970)" d="M909.086 150.31 L909.086 152.393 L889.502 152.393 Q889.78 156.791 892.141 159.106 Q894.526 161.398 898.762 161.398 Q901.215 161.398 903.507 160.796 Q905.822 160.194 908.09 158.99 L908.09 163.018 Q905.799 163.99 903.391 164.5 Q900.984 165.009 898.507 165.009 Q892.303 165.009 888.669 161.398 Q885.058 157.787 885.058 151.629 Q885.058 145.264 888.484 141.537 Q891.933 137.787 897.766 137.787 Q902.998 137.787 906.03 141.166 Q909.086 144.523 909.086 150.31 M904.826 149.06 Q904.78 145.565 902.859 143.481 Q900.961 141.398 897.813 141.398 Q894.248 141.398 892.095 143.412 Q889.965 145.426 889.641 149.083 L904.826 149.06 Z" fill="#000000" fill-rule="nonzero" fill-opacity="1" /><path clip-path="url(#clip970)" d="M931.099 142.393 Q930.382 141.977 929.525 141.791 Q928.692 141.583 927.674 141.583 Q924.062 141.583 922.118 143.944 Q920.197 146.282 920.197 150.68 L920.197 164.338 L915.914 164.338 L915.914 138.412 L920.197 138.412 L920.197 142.44 Q921.539 140.078 923.692 138.944 Q925.845 137.787 928.923 137.787 Q929.363 137.787 929.896 137.856 Q930.428 137.903 931.076 138.018 L931.099 142.393 Z" fill="#000000" fill-rule="nonzero" fill-opacity="1" /><path clip-path="url(#clip970)" d="M956.284 148.689 L956.284 164.338 L952.025 164.338 L952.025 148.828 Q952.025 145.148 950.59 143.319 Q949.155 141.49 946.285 141.49 Q942.835 141.49 940.845 143.69 Q938.854 145.889 938.854 149.685 L938.854 164.338 L934.572 164.338 L934.572 138.412 L938.854 138.412 L938.854 142.44 Q940.382 140.102 942.442 138.944 Q944.525 137.787 947.234 137.787 Q951.701 137.787 953.993 140.565 Q956.284 143.319 956.284 148.689 Z" fill="#000000" fill-rule="nonzero" fill-opacity="1" /><path clip-path="url(#clip970)" d="M964.78 138.412 L969.039 138.412 L969.039 164.338 L964.78 164.338 L964.78 138.412 M964.78 128.319 L969.039 128.319 L969.039 133.713 L964.78 133.713 L964.78 128.319 Z" fill="#000000" fill-rule="nonzero" fill-opacity="1" /><path clip-path="url(#clip970)" d="M999.502 148.689 L999.502 164.338 L995.243 164.338 L995.243 148.828 Q995.243 145.148 993.807 143.319 Q992.372 141.49 989.502 141.49 Q986.053 141.49 984.062 143.69 Q982.071 145.889 982.071 149.685 L982.071 164.338 L977.789 164.338 L977.789 128.319 L982.071 128.319 L982.071 142.44 Q983.599 140.102 985.659 138.944 Q987.743 137.787 990.451 137.787 Q994.919 137.787 997.21 140.565 Q999.502 143.319 999.502 148.689 Z" fill="#000000" fill-rule="nonzero" fill-opacity="1" /><path clip-path="url(#clip970)" d="M1041.72 139.407 L1041.72 143.389 Q1039.92 142.393 1038.09 141.907 Q1036.28 141.398 1034.43 141.398 Q1030.29 141.398 1028 144.037 Q1025.71 146.652 1025.71 151.398 Q1025.71 156.143 1028 158.782 Q1030.29 161.398 1034.43 161.398 Q1036.28 161.398 1038.09 160.912 Q1039.92 160.402 1041.72 159.407 L1041.72 163.342 Q1039.94 164.176 1038.02 164.592 Q1036.12 165.009 1033.97 165.009 Q1028.11 165.009 1024.66 161.328 Q1021.21 157.648 1021.21 151.398 Q1021.21 145.055 1024.69 141.421 Q1028.18 137.787 1034.25 137.787 Q1036.21 137.787 1038.09 138.203 Q1039.96 138.597 1041.72 139.407 M1031.91 135.125 L1026.24 126.421 L1029.46 126.421 L1033.62 132.092 L1037.79 126.421 L1041.01 126.421 L1035.33 135.125 L1031.91 135.125 Z" fill="#000000" fill-rule="nonzero" fill-opacity="1" /><path clip-path="url(#clip970)" d="M1060.91 151.305 Q1055.75 151.305 1053.76 152.486 Q1051.77 153.666 1051.77 156.514 Q1051.77 158.782 1053.25 160.125 Q1054.76 161.444 1057.33 161.444 Q1060.87 161.444 1063 158.944 Q1065.15 156.421 1065.15 152.254 L1065.15 151.305 L1060.91 151.305 M1069.41 149.546 L1069.41 164.338 L1065.15 164.338 L1065.15 160.402 Q1063.69 162.763 1061.52 163.898 Q1059.34 165.009 1056.19 165.009 Q1052.21 165.009 1049.85 162.787 Q1047.51 160.541 1047.51 156.791 Q1047.51 152.416 1050.43 150.194 Q1053.37 147.972 1059.18 147.972 L1065.15 147.972 L1065.15 147.555 Q1065.15 144.615 1063.21 143.018 Q1061.28 141.398 1057.79 141.398 Q1055.57 141.398 1053.46 141.93 Q1051.35 142.463 1049.41 143.527 L1049.41 139.592 Q1051.75 138.69 1053.95 138.25 Q1056.15 137.787 1058.23 137.787 Q1063.85 137.787 1066.63 140.703 Q1069.41 143.62 1069.41 149.546 Z" fill="#000000" fill-rule="nonzero" fill-opacity="1" /><path clip-path="url(#clip970)" d="M1094.71 139.176 L1094.71 143.203 Q1092.9 142.277 1090.96 141.815 Q1089.02 141.352 1086.93 141.352 Q1083.76 141.352 1082.16 142.324 Q1080.59 143.296 1080.59 145.24 Q1080.59 146.722 1081.72 147.578 Q1082.86 148.412 1086.28 149.176 L1087.74 149.5 Q1092.28 150.472 1094.18 152.254 Q1096.1 154.014 1096.1 157.185 Q1096.1 160.796 1093.23 162.902 Q1090.38 165.009 1085.38 165.009 Q1083.3 165.009 1081.03 164.592 Q1078.78 164.199 1076.28 163.388 L1076.28 158.99 Q1078.64 160.217 1080.94 160.842 Q1083.23 161.444 1085.47 161.444 Q1088.48 161.444 1090.1 160.426 Q1091.72 159.384 1091.72 157.509 Q1091.72 155.773 1090.54 154.847 Q1089.39 153.921 1085.43 153.064 L1083.95 152.717 Q1079.99 151.884 1078.23 150.171 Q1076.47 148.435 1076.47 145.426 Q1076.47 141.768 1079.06 139.778 Q1081.65 137.787 1086.42 137.787 Q1088.78 137.787 1090.87 138.134 Q1092.95 138.481 1094.71 139.176 Z" fill="#000000" fill-rule="nonzero" fill-opacity="1" /><path clip-path="url(#clip970)" d="M1112.93 141.398 Q1109.5 141.398 1107.51 144.083 Q1105.52 146.745 1105.52 151.398 Q1105.52 156.051 1107.49 158.736 Q1109.48 161.398 1112.93 161.398 Q1116.33 161.398 1118.32 158.713 Q1120.31 156.027 1120.31 151.398 Q1120.31 146.791 1118.32 144.106 Q1116.33 141.398 1112.93 141.398 M1112.93 137.787 Q1118.48 137.787 1121.65 141.398 Q1124.83 145.009 1124.83 151.398 Q1124.83 157.764 1121.65 161.398 Q1118.48 165.009 1112.93 165.009 Q1107.35 165.009 1104.18 161.398 Q1101.03 157.764 1101.03 151.398 Q1101.03 145.009 1104.18 141.398 Q1107.35 137.787 1112.93 137.787 Z" fill="#000000" fill-rule="nonzero" fill-opacity="1" /><path clip-path="url(#clip970)" d="M1128.83 138.412 L1133.34 138.412 L1141.45 160.171 L1149.55 138.412 L1154.06 138.412 L1144.34 164.338 L1138.55 164.338 L1128.83 138.412 Z" fill="#000000" fill-rule="nonzero" fill-opacity="1" /><path clip-path="url(#clip970)" d="M1181.49 148.689 L1181.49 164.338 L1177.23 164.338 L1177.23 148.828 Q1177.23 145.148 1175.8 143.319 Q1174.36 141.49 1171.49 141.49 Q1168.04 141.49 1166.05 143.69 Q1164.06 145.889 1164.06 149.685 L1164.06 164.338 L1159.78 164.338 L1159.78 138.412 L1164.06 138.412 L1164.06 142.44 Q1165.59 140.102 1167.65 138.944 Q1169.73 137.787 1172.44 137.787 Q1176.91 137.787 1179.2 140.565 Q1181.49 143.319 1181.49 148.689 Z" fill="#000000" fill-rule="nonzero" fill-opacity="1" /><path clip-path="url(#clip970)" d="M1189.99 138.412 L1194.25 138.412 L1194.25 164.338 L1189.99 164.338 L1189.99 138.412 M1189.99 128.319 L1194.25 128.319 L1194.25 133.713 L1189.99 133.713 L1189.99 128.319 Z" fill="#000000" fill-rule="nonzero" fill-opacity="1" /><path clip-path="url(#clip970)" d="M1224.71 148.689 L1224.71 164.338 L1220.45 164.338 L1220.45 148.828 Q1220.45 145.148 1219.01 143.319 Q1217.58 141.49 1214.71 141.49 Q1211.26 141.49 1209.27 143.69 Q1207.28 145.889 1207.28 149.685 L1207.28 164.338 L1203 164.338 L1203 128.319 L1207.28 128.319 L1207.28 142.44 Q1208.81 140.102 1210.87 138.944 Q1212.95 137.787 1215.66 137.787 Q1220.13 137.787 1222.42 140.565 Q1224.71 143.319 1224.71 148.689 Z" fill="#000000" fill-rule="nonzero" fill-opacity="1" /><path clip-path="url(#clip970)" d="M1263.3 142.393 Q1262.58 141.977 1261.72 141.791 Q1260.89 141.583 1259.87 141.583 Q1256.26 141.583 1254.32 143.944 Q1252.39 146.282 1252.39 150.68 L1252.39 164.338 L1248.11 164.338 L1248.11 138.412 L1252.39 138.412 L1252.39 142.44 Q1253.74 140.078 1255.89 138.944 Q1258.04 137.787 1261.12 137.787 Q1261.56 137.787 1262.09 137.856 Q1262.63 137.903 1263.27 138.018 L1263.3 142.393 Z" fill="#000000" fill-rule="nonzero" fill-opacity="1" /><path clip-path="url(#clip970)" d="M1279.55 151.305 Q1274.38 151.305 1272.39 152.486 Q1270.4 153.666 1270.4 156.514 Q1270.4 158.782 1271.88 160.125 Q1273.39 161.444 1275.96 161.444 Q1279.5 161.444 1281.63 158.944 Q1283.78 156.421 1283.78 152.254 L1283.78 151.305 L1279.55 151.305 M1288.04 149.546 L1288.04 164.338 L1283.78 164.338 L1283.78 160.402 Q1282.32 162.763 1280.15 163.898 Q1277.97 165.009 1274.82 165.009 Q1270.84 165.009 1268.48 162.787 Q1266.14 160.541 1266.14 156.791 Q1266.14 152.416 1269.06 150.194 Q1272 147.972 1277.81 147.972 L1283.78 147.972 L1283.78 147.555 Q1283.78 144.615 1281.84 143.018 Q1279.92 141.398 1276.42 141.398 Q1274.2 141.398 1272.09 141.93 Q1269.99 142.463 1268.04 143.527 L1268.04 139.592 Q1270.38 138.69 1272.58 138.25 Q1274.78 137.787 1276.86 137.787 Q1282.49 137.787 1285.26 140.703 Q1288.04 143.62 1288.04 149.546 Z" fill="#000000" fill-rule="nonzero" fill-opacity="1" /><path clip-path="url(#clip970)" d="M1294.96 138.412 L1315.19 138.412 L1315.19 142.301 L1299.18 160.935 L1315.19 160.935 L1315.19 164.338 L1294.38 164.338 L1294.38 160.449 L1310.4 141.815 L1294.96 141.815 L1294.96 138.412 Z" fill="#000000" fill-rule="nonzero" fill-opacity="1" /><path clip-path="url(#clip970)" d="M1341.88 143.389 Q1343.48 140.518 1345.7 139.153 Q1347.93 137.787 1350.94 137.787 Q1354.99 137.787 1357.19 140.634 Q1359.38 143.458 1359.38 148.689 L1359.38 164.338 L1355.1 164.338 L1355.1 148.828 Q1355.1 145.102 1353.78 143.296 Q1352.46 141.49 1349.75 141.49 Q1346.44 141.49 1344.52 143.69 Q1342.6 145.889 1342.6 149.685 L1342.6 164.338 L1338.32 164.338 L1338.32 148.828 Q1338.32 145.078 1337 143.296 Q1335.68 141.49 1332.93 141.49 Q1329.66 141.49 1327.74 143.713 Q1325.82 145.912 1325.82 149.685 L1325.82 164.338 L1321.54 164.338 L1321.54 138.412 L1325.82 138.412 L1325.82 142.44 Q1327.28 140.055 1329.31 138.921 Q1331.35 137.787 1334.15 137.787 Q1336.98 137.787 1338.94 139.222 Q1340.94 140.657 1341.88 143.389 Z" fill="#000000" fill-rule="nonzero" fill-opacity="1" /><path clip-path="url(#clip970)" d="M1367.88 138.412 L1372.14 138.412 L1372.14 164.338 L1367.88 164.338 L1367.88 138.412 M1367.88 128.319 L1372.14 128.319 L1372.14 133.713 L1367.88 133.713 L1367.88 128.319 Z" fill="#000000" fill-rule="nonzero" fill-opacity="1" /><path clip-path="url(#clip970)" d="M1380.89 128.319 L1385.17 128.319 L1385.17 149.592 L1397.88 138.412 L1403.32 138.412 L1389.57 150.541 L1403.9 164.338 L1398.34 164.338 L1385.17 151.676 L1385.17 164.338 L1380.89 164.338 L1380.89 128.319 Z" fill="#000000" fill-rule="nonzero" fill-opacity="1" /><path clip-path="url(#clip970)" d="M1408.5 138.412 L1412.76 138.412 L1412.76 164.338 L1408.5 164.338 L1408.5 138.412 M1408.5 128.319 L1412.76 128.319 L1412.76 133.713 L1408.5 133.713 L1408.5 128.319 Z" fill="#000000" fill-rule="nonzero" fill-opacity="1" /><path clip-path="url(#clip970)" d="M1443.23 148.689 L1443.23 164.338 L1438.97 164.338 L1438.97 148.828 Q1438.97 145.148 1437.53 143.319 Q1436.1 141.49 1433.23 141.49 Q1429.78 141.49 1427.79 143.69 Q1425.8 145.889 1425.8 149.685 L1425.8 164.338 L1421.51 164.338 L1421.51 128.319 L1425.8 128.319 L1425.8 142.44 Q1427.32 140.102 1429.38 138.944 Q1431.47 137.787 1434.18 137.787 Q1438.64 137.787 1440.93 140.565 Q1443.23 143.319 1443.23 148.689 Z" fill="#000000" fill-rule="nonzero" fill-opacity="1" /><circle clip-path="url(#clip970)" cx="361.844" cy="198.898" r="20.48" fill="#3da44d" fill-rule="evenodd" fill-opacity="1" stroke="#000000" stroke-opacity="1" stroke-width="4.55111"/>
<path clip-path="url(#clip970)" d="M478.139 195.229 Q479.736 192.358 481.958 190.993 Q484.181 189.627 487.19 189.627 Q491.241 189.627 493.44 192.474 Q495.639 195.298 495.639 200.529 L495.639 216.178 L491.356 216.178 L491.356 200.668 Q491.356 196.942 490.037 195.136 Q488.718 193.33 486.009 193.33 Q482.699 193.33 480.778 195.53 Q478.856 197.729 478.856 201.525 L478.856 216.178 L474.574 216.178 L474.574 200.668 Q474.574 196.918 473.255 195.136 Q471.935 193.33 469.181 193.33 Q465.917 193.33 463.995 195.553 Q462.074 197.752 462.074 201.525 L462.074 216.178 L457.792 216.178 L457.792 190.252 L462.074 190.252 L462.074 194.28 Q463.532 191.895 465.57 190.761 Q467.607 189.627 470.407 189.627 Q473.231 189.627 475.199 191.062 Q477.19 192.497 478.139 195.229 Z" fill="#000000" fill-rule="nonzero" fill-opacity="1" /><path clip-path="url(#clip970)" d="M515.916 203.145 Q510.754 203.145 508.764 204.326 Q506.773 205.506 506.773 208.354 Q506.773 210.622 508.254 211.965 Q509.759 213.284 512.329 213.284 Q515.87 213.284 518 210.784 Q520.153 208.261 520.153 204.094 L520.153 203.145 L515.916 203.145 M524.412 201.386 L524.412 216.178 L520.153 216.178 L520.153 212.242 Q518.694 214.603 516.518 215.738 Q514.342 216.849 511.194 216.849 Q507.213 216.849 504.852 214.627 Q502.514 212.381 502.514 208.631 Q502.514 204.256 505.43 202.034 Q508.37 199.812 514.18 199.812 L520.153 199.812 L520.153 199.395 Q520.153 196.455 518.208 194.858 Q516.287 193.238 512.791 193.238 Q510.569 193.238 508.463 193.77 Q506.356 194.303 504.412 195.367 L504.412 191.432 Q506.75 190.53 508.949 190.09 Q511.148 189.627 513.231 189.627 Q518.856 189.627 521.634 192.543 Q524.412 195.46 524.412 201.386 Z" fill="#000000" fill-rule="nonzero" fill-opacity="1" /><path clip-path="url(#clip970)" d="M549.713 191.016 L549.713 195.043 Q547.907 194.117 545.963 193.655 Q544.018 193.192 541.935 193.192 Q538.764 193.192 537.166 194.164 Q535.592 195.136 535.592 197.08 Q535.592 198.562 536.727 199.418 Q537.861 200.252 541.287 201.016 L542.745 201.34 Q547.282 202.312 549.18 204.094 Q551.101 205.854 551.101 209.025 Q551.101 212.636 548.231 214.742 Q545.384 216.849 540.384 216.849 Q538.301 216.849 536.032 216.432 Q533.787 216.039 531.287 215.228 L531.287 210.83 Q533.648 212.057 535.939 212.682 Q538.231 213.284 540.477 213.284 Q543.486 213.284 545.106 212.266 Q546.726 211.224 546.726 209.349 Q546.726 207.613 545.546 206.687 Q544.389 205.761 540.43 204.904 L538.949 204.557 Q534.99 203.724 533.231 202.011 Q531.472 200.275 531.472 197.266 Q531.472 193.608 534.065 191.618 Q536.657 189.627 541.426 189.627 Q543.787 189.627 545.87 189.974 Q547.953 190.321 549.713 191.016 Z" fill="#000000" fill-rule="nonzero" fill-opacity="1" /><path clip-path="url(#clip970)" d="M579.435 200.529 L579.435 216.178 L575.175 216.178 L575.175 200.668 Q575.175 196.988 573.74 195.159 Q572.305 193.33 569.435 193.33 Q565.986 193.33 563.995 195.53 Q562.004 197.729 562.004 201.525 L562.004 216.178 L557.722 216.178 L557.722 190.252 L562.004 190.252 L562.004 194.28 Q563.532 191.942 565.592 190.784 Q567.675 189.627 570.384 189.627 Q574.851 189.627 577.143 192.405 Q579.435 195.159 579.435 200.529 Z" fill="#000000" fill-rule="nonzero" fill-opacity="1" /><path clip-path="url(#clip970)" d="M597.976 193.238 Q594.55 193.238 592.56 195.923 Q590.569 198.585 590.569 203.238 Q590.569 207.891 592.536 210.576 Q594.527 213.238 597.976 213.238 Q601.379 213.238 603.37 210.553 Q605.36 207.867 605.36 203.238 Q605.36 198.631 603.37 195.946 Q601.379 193.238 597.976 193.238 M597.976 189.627 Q603.532 189.627 606.703 193.238 Q609.874 196.849 609.874 203.238 Q609.874 209.604 606.703 213.238 Q603.532 216.849 597.976 216.849 Q592.398 216.849 589.226 213.238 Q586.078 209.604 586.078 203.238 Q586.078 196.849 589.226 193.238 Q592.398 189.627 597.976 189.627 Z" fill="#000000" fill-rule="nonzero" fill-opacity="1" /><path clip-path="url(#clip970)" d="M648.531 191.016 L648.531 195.043 Q646.726 194.117 644.782 193.655 Q642.837 193.192 640.754 193.192 Q637.582 193.192 635.985 194.164 Q634.411 195.136 634.411 197.08 Q634.411 198.562 635.545 199.418 Q636.68 200.252 640.106 201.016 L641.564 201.34 Q646.101 202.312 647.999 204.094 Q649.92 205.854 649.92 209.025 Q649.92 212.636 647.05 214.742 Q644.203 216.849 639.203 216.849 Q637.12 216.849 634.851 216.432 Q632.606 216.039 630.106 215.228 L630.106 210.83 Q632.467 212.057 634.758 212.682 Q637.05 213.284 639.295 213.284 Q642.305 213.284 643.925 212.266 Q645.545 211.224 645.545 209.349 Q645.545 207.613 644.365 206.687 Q643.207 205.761 639.249 204.904 L637.768 204.557 Q633.809 203.724 632.05 202.011 Q630.291 200.275 630.291 197.266 Q630.291 193.608 632.883 191.618 Q635.476 189.627 640.244 189.627 Q642.606 189.627 644.689 189.974 Q646.772 190.321 648.531 191.016 Z" fill="#000000" fill-rule="nonzero" fill-opacity="1" /><path clip-path="url(#clip970)" d="M671.726 194.233 Q671.008 193.817 670.152 193.631 Q669.318 193.423 668.3 193.423 Q664.689 193.423 662.744 195.784 Q660.823 198.122 660.823 202.52 L660.823 216.178 L656.541 216.178 L656.541 190.252 L660.823 190.252 L660.823 194.28 Q662.166 191.918 664.318 190.784 Q666.471 189.627 669.55 189.627 Q669.99 189.627 670.522 189.696 Q671.055 189.743 671.703 189.858 L671.726 194.233 Z" fill="#000000" fill-rule="nonzero" fill-opacity="1" /><path clip-path="url(#clip970)" d="M697.328 202.15 L697.328 204.233 L677.744 204.233 Q678.022 208.631 680.383 210.946 Q682.767 213.238 687.003 213.238 Q689.457 213.238 691.749 212.636 Q694.064 212.034 696.332 210.83 L696.332 214.858 Q694.04 215.83 691.633 216.34 Q689.226 216.849 686.749 216.849 Q680.545 216.849 676.911 213.238 Q673.3 209.627 673.3 203.469 Q673.3 197.104 676.726 193.377 Q680.175 189.627 686.008 189.627 Q691.24 189.627 694.272 193.006 Q697.328 196.363 697.328 202.15 M693.068 200.9 Q693.022 197.405 691.101 195.321 Q689.203 193.238 686.054 193.238 Q682.49 193.238 680.337 195.252 Q678.207 197.266 677.883 200.923 L693.068 200.9 Z" fill="#000000" fill-rule="nonzero" fill-opacity="1" /><path clip-path="url(#clip970)" d="M721.378 194.187 L721.378 180.159 L725.638 180.159 L725.638 216.178 L721.378 216.178 L721.378 212.289 Q720.036 214.603 717.976 215.738 Q715.939 216.849 713.068 216.849 Q708.369 216.849 705.406 213.099 Q702.466 209.349 702.466 203.238 Q702.466 197.127 705.406 193.377 Q708.369 189.627 713.068 189.627 Q715.939 189.627 717.976 190.761 Q720.036 191.872 721.378 194.187 M706.865 203.238 Q706.865 207.937 708.786 210.622 Q710.73 213.284 714.11 213.284 Q717.489 213.284 719.434 210.622 Q721.378 207.937 721.378 203.238 Q721.378 198.539 719.434 195.877 Q717.489 193.192 714.11 193.192 Q710.73 193.192 708.786 195.877 Q706.865 198.539 706.865 203.238 Z" fill="#000000" fill-rule="nonzero" fill-opacity="1" /><path clip-path="url(#clip970)" d="M734.411 190.252 L738.67 190.252 L738.67 216.178 L734.411 216.178 L734.411 190.252 M734.411 180.159 L738.67 180.159 L738.67 185.553 L734.411 185.553 L734.411 180.159 Z" fill="#000000" fill-rule="nonzero" fill-opacity="1" /><path clip-path="url(#clip970)" d="M764.11 191.016 L764.11 195.043 Q762.304 194.117 760.36 193.655 Q758.415 193.192 756.332 193.192 Q753.161 193.192 751.563 194.164 Q749.989 195.136 749.989 197.08 Q749.989 198.562 751.124 199.418 Q752.258 200.252 755.684 201.016 L757.142 201.34 Q761.679 202.312 763.577 204.094 Q765.498 205.854 765.498 209.025 Q765.498 212.636 762.628 214.742 Q759.781 216.849 754.781 216.849 Q752.698 216.849 750.429 216.432 Q748.184 216.039 745.684 215.228 L745.684 210.83 Q748.045 212.057 750.336 212.682 Q752.628 213.284 754.874 213.284 Q757.883 213.284 759.503 212.266 Q761.123 211.224 761.123 209.349 Q761.123 207.613 759.943 206.687 Q758.786 205.761 754.827 204.904 L753.346 204.557 Q749.387 203.724 747.628 202.011 Q745.869 200.275 745.869 197.266 Q745.869 193.608 748.462 191.618 Q751.054 189.627 755.823 189.627 Q758.184 189.627 760.267 189.974 Q762.35 190.321 764.11 191.016 M754.249 186.965 L748.577 178.261 L751.795 178.261 L755.961 183.932 L760.128 178.261 L763.346 178.261 L757.674 186.965 L754.249 186.965 M755.869 189.627 L755.869 189.627 Z" fill="#000000" fill-rule="nonzero" fill-opacity="1" /><path clip-path="url(#clip970)" d="M790.938 191.247 L790.938 195.229 Q789.133 194.233 787.304 193.747 Q785.498 193.238 783.646 193.238 Q779.503 193.238 777.211 195.877 Q774.92 198.492 774.92 203.238 Q774.92 207.983 777.211 210.622 Q779.503 213.238 783.646 213.238 Q785.498 213.238 787.304 212.752 Q789.133 212.242 790.938 211.247 L790.938 215.182 Q789.156 216.016 787.234 216.432 Q785.336 216.849 783.184 216.849 Q777.327 216.849 773.878 213.168 Q770.429 209.488 770.429 203.238 Q770.429 196.895 773.901 193.261 Q777.397 189.627 783.461 189.627 Q785.429 189.627 787.304 190.043 Q789.179 190.437 790.938 191.247 M781.123 186.965 L775.452 178.261 L778.67 178.261 L782.836 183.932 L787.003 178.261 L790.221 178.261 L784.549 186.965 L781.123 186.965 Z" fill="#000000" fill-rule="nonzero" fill-opacity="1" /><path clip-path="url(#clip970)" d="M820.521 202.15 L820.521 204.233 L800.938 204.233 Q801.216 208.631 803.577 210.946 Q805.961 213.238 810.197 213.238 Q812.651 213.238 814.943 212.636 Q817.257 212.034 819.526 210.83 L819.526 214.858 Q817.234 215.83 814.827 216.34 Q812.419 216.849 809.943 216.849 Q803.739 216.849 800.105 213.238 Q796.494 209.627 796.494 203.469 Q796.494 197.104 799.92 193.377 Q803.369 189.627 809.202 189.627 Q814.433 189.627 817.466 193.006 Q820.521 196.363 820.521 202.15 M816.262 200.9 Q816.216 197.405 814.294 195.321 Q812.396 193.238 809.248 193.238 Q805.683 193.238 803.531 195.252 Q801.401 197.266 801.077 200.923 L816.262 200.9 Z" fill="#000000" fill-rule="nonzero" fill-opacity="1" /><path clip-path="url(#clip970)" d="M852.813 180.206 Q849.711 185.53 848.206 190.738 Q846.702 195.946 846.702 201.293 Q846.702 206.641 848.206 211.895 Q849.734 217.127 852.813 222.428 L849.109 222.428 Q845.637 216.988 843.901 211.733 Q842.188 206.479 842.188 201.293 Q842.188 196.131 843.901 190.9 Q845.614 185.668 849.109 180.206 L852.813 180.206 Z" fill="#000000" fill-rule="nonzero" fill-opacity="1" /><path clip-path="url(#clip970)" d="M874.202 180.159 L874.202 183.701 L870.128 183.701 Q867.836 183.701 866.933 184.627 Q866.053 185.553 866.053 187.96 L866.053 190.252 L873.067 190.252 L873.067 193.562 L866.053 193.562 L866.053 216.178 L861.771 216.178 L861.771 193.562 L857.697 193.562 L857.697 190.252 L861.771 190.252 L861.771 188.446 Q861.771 184.118 863.785 182.15 Q865.799 180.159 870.174 180.159 L874.202 180.159 Z" fill="#000000" fill-rule="nonzero" fill-opacity="1" /><path clip-path="url(#clip970)" d="M887.813 193.238 Q884.387 193.238 882.396 195.923 Q880.405 198.585 880.405 203.238 Q880.405 207.891 882.373 210.576 Q884.364 213.238 887.813 213.238 Q891.215 213.238 893.206 210.553 Q895.197 207.867 895.197 203.238 Q895.197 198.631 893.206 195.946 Q891.215 193.238 887.813 193.238 M887.813 189.627 Q893.368 189.627 896.539 193.238 Q899.711 196.849 899.711 203.238 Q899.711 209.604 896.539 213.238 Q893.368 216.849 887.813 216.849 Q882.234 216.849 879.063 213.238 Q875.915 209.604 875.915 203.238 Q875.915 196.849 879.063 193.238 Q882.234 189.627 887.813 189.627 Z" fill="#000000" fill-rule="nonzero" fill-opacity="1" /><path clip-path="url(#clip970)" d="M906.609 180.159 L910.891 180.159 L910.891 201.432 L923.599 190.252 L929.039 190.252 L915.289 202.381 L929.618 216.178 L924.062 216.178 L910.891 203.516 L910.891 216.178 L906.609 216.178 L906.609 180.159 Z" fill="#000000" fill-rule="nonzero" fill-opacity="1" /><path clip-path="url(#clip970)" d="M932.326 205.946 L932.326 190.252 L936.585 190.252 L936.585 205.784 Q936.585 209.465 938.021 211.316 Q939.456 213.145 942.326 213.145 Q945.775 213.145 947.766 210.946 Q949.78 208.747 949.78 204.951 L949.78 190.252 L954.039 190.252 L954.039 216.178 L949.78 216.178 L949.78 212.196 Q948.229 214.557 946.169 215.715 Q944.132 216.849 941.423 216.849 Q936.956 216.849 934.641 214.071 Q932.326 211.293 932.326 205.946 M943.044 189.627 L943.044 189.627 Z" fill="#000000" fill-rule="nonzero" fill-opacity="1" /><path clip-path="url(#clip970)" d="M979.34 191.016 L979.34 195.043 Q977.534 194.117 975.59 193.655 Q973.645 193.192 971.562 193.192 Q968.391 193.192 966.794 194.164 Q965.22 195.136 965.22 197.08 Q965.22 198.562 966.354 199.418 Q967.488 200.252 970.914 201.016 L972.372 201.34 Q976.909 202.312 978.807 204.094 Q980.729 205.854 980.729 209.025 Q980.729 212.636 977.858 214.742 Q975.011 216.849 970.011 216.849 Q967.928 216.849 965.659 216.432 Q963.414 216.039 960.914 215.228 L960.914 210.83 Q963.275 212.057 965.567 212.682 Q967.858 213.284 970.104 213.284 Q973.113 213.284 974.733 212.266 Q976.354 211.224 976.354 209.349 Q976.354 207.613 975.173 206.687 Q974.016 205.761 970.058 204.904 L968.576 204.557 Q964.618 203.724 962.859 202.011 Q961.099 200.275 961.099 197.266 Q961.099 193.608 963.692 191.618 Q966.284 189.627 971.053 189.627 Q973.414 189.627 975.497 189.974 Q977.581 190.321 979.34 191.016 Z" fill="#000000" fill-rule="nonzero" fill-opacity="1" /><path clip-path="url(#clip970)" d="M1024.76 202.15 L1024.76 204.233 L1005.17 204.233 Q1005.45 208.631 1007.81 210.946 Q1010.2 213.238 1014.43 213.238 Q1016.89 213.238 1019.18 212.636 Q1021.49 212.034 1023.76 210.83 L1023.76 214.858 Q1021.47 215.83 1019.06 216.34 Q1016.65 216.849 1014.18 216.849 Q1007.97 216.849 1004.34 213.238 Q1000.73 209.627 1000.73 203.469 Q1000.73 197.104 1004.15 193.377 Q1007.6 189.627 1013.44 189.627 Q1018.67 189.627 1021.7 193.006 Q1024.76 196.363 1024.76 202.15 M1020.5 200.9 Q1020.45 197.405 1018.53 195.321 Q1016.63 193.238 1013.48 193.238 Q1009.92 193.238 1007.77 195.252 Q1005.64 197.266 1005.31 200.923 L1020.5 200.9 Z" fill="#000000" fill-rule="nonzero" fill-opacity="1" /><path clip-path="url(#clip970)" d="M1031.75 180.159 L1036.01 180.159 L1036.01 216.178 L1031.75 216.178 L1031.75 180.159 Z" fill="#000000" fill-rule="nonzero" fill-opacity="1" /><path clip-path="url(#clip970)" d="M1044.92 190.252 L1049.18 190.252 L1049.18 216.178 L1044.92 216.178 L1044.92 190.252 M1044.92 180.159 L1049.18 180.159 L1049.18 185.553 L1044.92 185.553 L1044.92 180.159 Z" fill="#000000" fill-rule="nonzero" fill-opacity="1" /><path clip-path="url(#clip970)" d="M1062.21 212.289 L1062.21 226.039 L1057.93 226.039 L1057.93 190.252 L1062.21 190.252 L1062.21 194.187 Q1063.55 191.872 1065.59 190.761 Q1067.65 189.627 1070.5 189.627 Q1075.22 189.627 1078.16 193.377 Q1081.12 197.127 1081.12 203.238 Q1081.12 209.349 1078.16 213.099 Q1075.22 216.849 1070.5 216.849 Q1067.65 216.849 1065.59 215.738 Q1063.55 214.603 1062.21 212.289 M1076.7 203.238 Q1076.7 198.539 1074.76 195.877 Q1072.83 193.192 1069.46 193.192 Q1066.08 193.192 1064.13 195.877 Q1062.21 198.539 1062.21 203.238 Q1062.21 207.937 1064.13 210.622 Q1066.08 213.284 1069.46 213.284 Q1072.83 213.284 1074.76 210.622 Q1076.7 207.937 1076.7 203.238 Z" fill="#000000" fill-rule="nonzero" fill-opacity="1" /><path clip-path="url(#clip970)" d="M1104.71 191.016 L1104.71 195.043 Q1102.9 194.117 1100.96 193.655 Q1099.02 193.192 1096.93 193.192 Q1093.76 193.192 1092.16 194.164 Q1090.59 195.136 1090.59 197.08 Q1090.59 198.562 1091.72 199.418 Q1092.86 200.252 1096.28 201.016 L1097.74 201.34 Q1102.28 202.312 1104.18 204.094 Q1106.1 205.854 1106.1 209.025 Q1106.1 212.636 1103.23 214.742 Q1100.38 216.849 1095.38 216.849 Q1093.3 216.849 1091.03 216.432 Q1088.78 216.039 1086.28 215.228 L1086.28 210.83 Q1088.64 212.057 1090.94 212.682 Q1093.23 213.284 1095.47 213.284 Q1098.48 213.284 1100.1 212.266 Q1101.72 211.224 1101.72 209.349 Q1101.72 207.613 1100.54 206.687 Q1099.39 205.761 1095.43 204.904 L1093.95 204.557 Q1089.99 203.724 1088.23 202.011 Q1086.47 200.275 1086.47 197.266 Q1086.47 193.608 1089.06 191.618 Q1091.65 189.627 1096.42 189.627 Q1098.78 189.627 1100.87 189.974 Q1102.95 190.321 1104.71 191.016 Z" fill="#000000" fill-rule="nonzero" fill-opacity="1" /><path clip-path="url(#clip970)" d="M1135.06 202.15 L1135.06 204.233 L1115.47 204.233 Q1115.75 208.631 1118.11 210.946 Q1120.5 213.238 1124.73 213.238 Q1127.19 213.238 1129.48 212.636 Q1131.79 212.034 1134.06 210.83 L1134.06 214.858 Q1131.77 215.83 1129.36 216.34 Q1126.95 216.849 1124.48 216.849 Q1118.27 216.849 1114.64 213.238 Q1111.03 209.627 1111.03 203.469 Q1111.03 197.104 1114.45 193.377 Q1117.9 189.627 1123.74 189.627 Q1128.97 189.627 1132 193.006 Q1135.06 196.363 1135.06 202.15 M1130.8 200.9 Q1130.75 197.405 1128.83 195.321 Q1126.93 193.238 1123.78 193.238 Q1120.22 193.238 1118.07 195.252 Q1115.94 197.266 1115.61 200.923 L1130.8 200.9 Z" fill="#000000" fill-rule="nonzero" fill-opacity="1" /><path clip-path="url(#clip970)" d="M1141.38 180.206 L1145.08 180.206 Q1148.55 185.668 1150.26 190.9 Q1152 196.131 1152 201.293 Q1152 206.479 1150.26 211.733 Q1148.55 216.988 1145.08 222.428 L1141.38 222.428 Q1144.45 217.127 1145.96 211.895 Q1147.49 206.641 1147.49 201.293 Q1147.49 195.946 1145.96 190.738 Q1144.45 185.53 1141.38 180.206 Z" fill="#000000" fill-rule="nonzero" fill-opacity="1" /></svg>
