<?xml version="1.0" encoding="utf-8"?>
<svg xmlns="http://www.w3.org/2000/svg" xmlns:xlink="http://www.w3.org/1999/xlink" width="600" height="400" viewBox="0 0 2400 1600">
<defs>
  <clipPath id="clip890">
    <rect x="0" y="0" width="2400" height="1600"/>
  </clipPath>
</defs>
<path clip-path="url(#clip890)" d="M0 1600 L2400 1600 L2400 0 L0 0  Z" fill="#ffffff" fill-rule="evenodd" fill-opacity="1"/>
<defs>
  <clipPath id="clip891">
    <rect x="480" y="0" width="1681" height="1600"/>
  </clipPath>
</defs>
<path clip-path="url(#clip890)" d="M186.76 1486.45 L2352.76 1486.45 L2352.76 47.2441 L186.76 47.2441  Z" fill="#ffffff" fill-rule="evenodd" fill-opacity="1"/>
<defs>
  <clipPath id="clip892">
    <rect x="186" y="47" width="2167" height="1440"/>
  </clipPath>
</defs>
<polyline clip-path="url(#clip892)" style="stroke:#000000; stroke-linecap:round; stroke-linejoin:round; stroke-width:2; stroke-opacity:0.1; fill:none" points="503.486,1486.45 503.486,47.2441 "/>
<polyline clip-path="url(#clip892)" style="stroke:#000000; stroke-linecap:round; stroke-linejoin:round; stroke-width:2; stroke-opacity:0.1; fill:none" points="886.622,1486.45 886.622,47.2441 "/>
<polyline clip-path="url(#clip892)" style="stroke:#000000; stroke-linecap:round; stroke-linejoin:round; stroke-width:2; stroke-opacity:0.1; fill:none" points="1269.76,1486.45 1269.76,47.2441 "/>
<polyline clip-path="url(#clip892)" style="stroke:#000000; stroke-linecap:round; stroke-linejoin:round; stroke-width:2; stroke-opacity:0.1; fill:none" points="1652.89,1486.45 1652.89,47.2441 "/>
<polyline clip-path="url(#clip892)" style="stroke:#000000; stroke-linecap:round; stroke-linejoin:round; stroke-width:2; stroke-opacity:0.1; fill:none" points="2036.03,1486.45 2036.03,47.2441 "/>
<polyline clip-path="url(#clip890)" style="stroke:#000000; stroke-linecap:round; stroke-linejoin:round; stroke-width:4; stroke-opacity:1; fill:none" points="186.76,1486.45 2352.76,1486.45 "/>
<polyline clip-path="url(#clip890)" style="stroke:#000000; stroke-linecap:round; stroke-linejoin:round; stroke-width:4; stroke-opacity:1; fill:none" points="503.486,1486.45 503.486,1467.55 "/>
<polyline clip-path="url(#clip890)" style="stroke:#000000; stroke-linecap:round; stroke-linejoin:round; stroke-width:4; stroke-opacity:1; fill:none" points="886.622,1486.45 886.622,1467.55 "/>
<polyline clip-path="url(#clip890)" style="stroke:#000000; stroke-linecap:round; stroke-linejoin:round; stroke-width:4; stroke-opacity:1; fill:none" points="1269.76,1486.45 1269.76,1467.55 "/>
<polyline clip-path="url(#clip890)" style="stroke:#000000; stroke-linecap:round; stroke-linejoin:round; stroke-width:4; stroke-opacity:1; fill:none" points="1652.89,1486.45 1652.89,1467.55 "/>
<polyline clip-path="url(#clip890)" style="stroke:#000000; stroke-linecap:round; stroke-linejoin:round; stroke-width:4; stroke-opacity:1; fill:none" points="2036.03,1486.45 2036.03,1467.55 "/>
<path clip-path="url(#clip890)" d="M450.338 1532.02 L480.014 1532.02 L480.014 1535.95 L450.338 1535.95 L450.338 1532.02 Z" fill="#000000" fill-rule="nonzero" fill-opacity="1" /><path clip-path="url(#clip890)" d="M500.106 1517.37 Q496.495 1517.37 494.667 1520.93 Q492.861 1524.47 492.861 1531.6 Q492.861 1538.71 494.667 1542.27 Q496.495 1545.82 500.106 1545.82 Q503.741 1545.82 505.546 1542.27 Q507.375 1538.71 507.375 1531.6 Q507.375 1524.47 505.546 1520.93 Q503.741 1517.37 500.106 1517.37 M500.106 1513.66 Q505.916 1513.66 508.972 1518.27 Q512.051 1522.85 512.051 1531.6 Q512.051 1540.33 508.972 1544.94 Q505.916 1549.52 500.106 1549.52 Q494.296 1549.52 491.217 1544.94 Q488.162 1540.33 488.162 1531.6 Q488.162 1522.85 491.217 1518.27 Q494.296 1513.66 500.106 1513.66 Z" fill="#000000" fill-rule="nonzero" fill-opacity="1" /><path clip-path="url(#clip890)" d="M520.268 1542.97 L525.152 1542.97 L525.152 1548.85 L520.268 1548.85 L520.268 1542.97 Z" fill="#000000" fill-rule="nonzero" fill-opacity="1" /><path clip-path="url(#clip890)" d="M549.504 1530.21 Q552.861 1530.93 554.736 1533.2 Q556.634 1535.47 556.634 1538.8 Q556.634 1543.92 553.115 1546.72 Q549.597 1549.52 543.115 1549.52 Q540.939 1549.52 538.625 1549.08 Q536.333 1548.66 533.879 1547.81 L533.879 1543.29 Q535.824 1544.43 538.139 1545.01 Q540.453 1545.58 542.976 1545.58 Q547.375 1545.58 549.666 1543.85 Q551.981 1542.11 551.981 1538.8 Q551.981 1535.75 549.828 1534.03 Q547.699 1532.3 543.879 1532.3 L539.851 1532.3 L539.851 1528.45 L544.064 1528.45 Q547.513 1528.45 549.342 1527.09 Q551.171 1525.7 551.171 1523.11 Q551.171 1520.45 549.273 1519.03 Q547.398 1517.6 543.879 1517.6 Q541.958 1517.6 539.759 1518.01 Q537.56 1518.43 534.921 1519.31 L534.921 1515.14 Q537.583 1514.4 539.898 1514.03 Q542.236 1513.66 544.296 1513.66 Q549.62 1513.66 552.722 1516.09 Q555.824 1518.5 555.824 1522.62 Q555.824 1525.49 554.18 1527.48 Q552.537 1529.45 549.504 1530.21 Z" fill="#000000" fill-rule="nonzero" fill-opacity="1" /><path clip-path="url(#clip890)" d="M864.006 1517.37 Q860.395 1517.37 858.567 1520.93 Q856.761 1524.47 856.761 1531.6 Q856.761 1538.71 858.567 1542.27 Q860.395 1545.82 864.006 1545.82 Q867.641 1545.82 869.446 1542.27 Q871.275 1538.71 871.275 1531.6 Q871.275 1524.47 869.446 1520.93 Q867.641 1517.37 864.006 1517.37 M864.006 1513.66 Q869.816 1513.66 872.872 1518.27 Q875.951 1522.85 875.951 1531.6 Q875.951 1540.33 872.872 1544.94 Q869.816 1549.52 864.006 1549.52 Q858.196 1549.52 855.117 1544.94 Q852.062 1540.33 852.062 1531.6 Q852.062 1522.85 855.117 1518.27 Q858.196 1513.66 864.006 1513.66 Z" fill="#000000" fill-rule="nonzero" fill-opacity="1" /><path clip-path="url(#clip890)" d="M884.168 1542.97 L889.053 1542.97 L889.053 1548.85 L884.168 1548.85 L884.168 1542.97 Z" fill="#000000" fill-rule="nonzero" fill-opacity="1" /><path clip-path="url(#clip890)" d="M909.238 1517.37 Q905.626 1517.37 903.798 1520.93 Q901.992 1524.47 901.992 1531.6 Q901.992 1538.71 903.798 1542.27 Q905.626 1545.82 909.238 1545.82 Q912.872 1545.82 914.677 1542.27 Q916.506 1538.71 916.506 1531.6 Q916.506 1524.47 914.677 1520.93 Q912.872 1517.37 909.238 1517.37 M909.238 1513.66 Q915.048 1513.66 918.103 1518.27 Q921.182 1522.85 921.182 1531.6 Q921.182 1540.33 918.103 1544.94 Q915.048 1549.52 909.238 1549.52 Q903.427 1549.52 900.349 1544.94 Q897.293 1540.33 897.293 1531.6 Q897.293 1522.85 900.349 1518.27 Q903.427 1513.66 909.238 1513.66 Z" fill="#000000" fill-rule="nonzero" fill-opacity="1" /><path clip-path="url(#clip890)" d="M1247.47 1517.37 Q1243.86 1517.37 1242.03 1520.93 Q1240.22 1524.47 1240.22 1531.6 Q1240.22 1538.71 1242.03 1542.27 Q1243.86 1545.82 1247.47 1545.82 Q1251.1 1545.82 1252.91 1542.27 Q1254.73 1538.71 1254.73 1531.6 Q1254.73 1524.47 1252.91 1520.93 Q1251.1 1517.37 1247.47 1517.37 M1247.47 1513.66 Q1253.28 1513.66 1256.33 1518.27 Q1259.41 1522.85 1259.41 1531.6 Q1259.41 1540.33 1256.33 1544.94 Q1253.28 1549.52 1247.47 1549.52 Q1241.66 1549.52 1238.58 1544.94 Q1235.52 1540.33 1235.52 1531.6 Q1235.52 1522.85 1238.58 1518.27 Q1241.66 1513.66 1247.47 1513.66 Z" fill="#000000" fill-rule="nonzero" fill-opacity="1" /><path clip-path="url(#clip890)" d="M1267.63 1542.97 L1272.51 1542.97 L1272.51 1548.85 L1267.63 1548.85 L1267.63 1542.97 Z" fill="#000000" fill-rule="nonzero" fill-opacity="1" /><path clip-path="url(#clip890)" d="M1296.86 1530.21 Q1300.22 1530.93 1302.1 1533.2 Q1303.99 1535.47 1303.99 1538.8 Q1303.99 1543.92 1300.48 1546.72 Q1296.96 1549.52 1290.48 1549.52 Q1288.3 1549.52 1285.98 1549.08 Q1283.69 1548.66 1281.24 1547.81 L1281.24 1543.29 Q1283.18 1544.43 1285.5 1545.01 Q1287.81 1545.58 1290.34 1545.58 Q1294.73 1545.58 1297.03 1543.85 Q1299.34 1542.11 1299.34 1538.8 Q1299.34 1535.75 1297.19 1534.03 Q1295.06 1532.3 1291.24 1532.3 L1287.21 1532.3 L1287.21 1528.45 L1291.42 1528.45 Q1294.87 1528.45 1296.7 1527.09 Q1298.53 1525.7 1298.53 1523.11 Q1298.53 1520.45 1296.63 1519.03 Q1294.76 1517.6 1291.24 1517.6 Q1289.32 1517.6 1287.12 1518.01 Q1284.92 1518.43 1282.28 1519.31 L1282.28 1515.14 Q1284.94 1514.4 1287.26 1514.03 Q1289.6 1513.66 1291.66 1513.66 Q1296.98 1513.66 1300.08 1516.09 Q1303.18 1518.5 1303.18 1522.62 Q1303.18 1525.49 1301.54 1527.48 Q1299.9 1529.45 1296.86 1530.21 Z" fill="#000000" fill-rule="nonzero" fill-opacity="1" /><path clip-path="url(#clip890)" d="M1630.2 1517.37 Q1626.59 1517.37 1624.76 1520.93 Q1622.95 1524.47 1622.95 1531.6 Q1622.95 1538.71 1624.76 1542.27 Q1626.59 1545.82 1630.2 1545.82 Q1633.83 1545.82 1635.64 1542.27 Q1637.47 1538.71 1637.47 1531.6 Q1637.47 1524.47 1635.64 1520.93 Q1633.83 1517.37 1630.2 1517.37 M1630.2 1513.66 Q1636.01 1513.66 1639.06 1518.27 Q1642.14 1522.85 1642.14 1531.6 Q1642.14 1540.33 1639.06 1544.94 Q1636.01 1549.52 1630.2 1549.52 Q1624.39 1549.52 1621.31 1544.94 Q1618.25 1540.33 1618.25 1531.6 Q1618.25 1522.85 1621.31 1518.27 Q1624.39 1513.66 1630.2 1513.66 Z" fill="#000000" fill-rule="nonzero" fill-opacity="1" /><path clip-path="url(#clip890)" d="M1650.36 1542.97 L1655.24 1542.97 L1655.24 1548.85 L1650.36 1548.85 L1650.36 1542.97 Z" fill="#000000" fill-rule="nonzero" fill-opacity="1" /><path clip-path="url(#clip890)" d="M1676.01 1529.7 Q1672.86 1529.7 1671.01 1531.86 Q1669.18 1534.01 1669.18 1537.76 Q1669.18 1541.49 1671.01 1543.66 Q1672.86 1545.82 1676.01 1545.82 Q1679.16 1545.82 1680.98 1543.66 Q1682.84 1541.49 1682.84 1537.76 Q1682.84 1534.01 1680.98 1531.86 Q1679.16 1529.7 1676.01 1529.7 M1685.29 1515.05 L1685.29 1519.31 Q1683.53 1518.48 1681.72 1518.04 Q1679.94 1517.6 1678.18 1517.6 Q1673.55 1517.6 1671.1 1520.72 Q1668.67 1523.85 1668.32 1530.17 Q1669.69 1528.15 1671.75 1527.09 Q1673.81 1526 1676.29 1526 Q1681.49 1526 1684.5 1529.17 Q1687.54 1532.32 1687.54 1537.76 Q1687.54 1543.08 1684.39 1546.3 Q1681.24 1549.52 1676.01 1549.52 Q1670.01 1549.52 1666.84 1544.94 Q1663.67 1540.33 1663.67 1531.6 Q1663.67 1523.41 1667.56 1518.55 Q1671.45 1513.66 1678 1513.66 Q1679.76 1513.66 1681.54 1514.01 Q1683.35 1514.36 1685.29 1515.05 Z" fill="#000000" fill-rule="nonzero" fill-opacity="1" /><path clip-path="url(#clip890)" d="M2013.51 1517.37 Q2009.9 1517.37 2008.07 1520.93 Q2006.26 1524.47 2006.26 1531.6 Q2006.26 1538.71 2008.07 1542.27 Q2009.9 1545.82 2013.51 1545.82 Q2017.14 1545.82 2018.95 1542.27 Q2020.78 1538.71 2020.78 1531.6 Q2020.78 1524.47 2018.95 1520.93 Q2017.14 1517.37 2013.51 1517.37 M2013.51 1513.66 Q2019.32 1513.66 2022.37 1518.27 Q2025.45 1522.85 2025.45 1531.6 Q2025.45 1540.33 2022.37 1544.94 Q2019.32 1549.52 2013.51 1549.52 Q2007.7 1549.52 2004.62 1544.94 Q2001.56 1540.33 2001.56 1531.6 Q2001.56 1522.85 2004.62 1518.27 Q2007.7 1513.66 2013.51 1513.66 Z" fill="#000000" fill-rule="nonzero" fill-opacity="1" /><path clip-path="url(#clip890)" d="M2033.67 1542.97 L2038.55 1542.97 L2038.55 1548.85 L2033.67 1548.85 L2033.67 1542.97 Z" fill="#000000" fill-rule="nonzero" fill-opacity="1" /><path clip-path="url(#clip890)" d="M2048.88 1548.13 L2048.88 1543.87 Q2050.64 1544.7 2052.44 1545.14 Q2054.25 1545.58 2055.98 1545.58 Q2060.61 1545.58 2063.04 1542.48 Q2065.5 1539.36 2065.84 1533.01 Q2064.5 1535.01 2062.44 1536.07 Q2060.38 1537.13 2057.88 1537.13 Q2052.7 1537.13 2049.66 1534.01 Q2046.66 1530.86 2046.66 1525.42 Q2046.66 1520.1 2049.8 1516.88 Q2052.95 1513.66 2058.18 1513.66 Q2064.18 1513.66 2067.33 1518.27 Q2070.5 1522.85 2070.5 1531.6 Q2070.5 1539.77 2066.61 1544.66 Q2062.74 1549.52 2056.19 1549.52 Q2054.43 1549.52 2052.63 1549.17 Q2050.82 1548.82 2048.88 1548.13 M2058.18 1533.48 Q2061.33 1533.48 2063.16 1531.32 Q2065.01 1529.17 2065.01 1525.42 Q2065.01 1521.7 2063.16 1519.54 Q2061.33 1517.37 2058.18 1517.37 Q2055.03 1517.37 2053.18 1519.54 Q2051.35 1521.7 2051.35 1525.42 Q2051.35 1529.17 2053.18 1531.32 Q2055.03 1533.48 2058.18 1533.48 Z" fill="#000000" fill-rule="nonzero" fill-opacity="1" /><polyline clip-path="url(#clip892)" style="stroke:#000000; stroke-linecap:round; stroke-linejoin:round; stroke-width:2; stroke-opacity:0.1; fill:none" points="186.76,1445.72 2352.76,1445.72 "/>
<polyline clip-path="url(#clip892)" style="stroke:#000000; stroke-linecap:round; stroke-linejoin:round; stroke-width:2; stroke-opacity:0.1; fill:none" points="186.76,1134.24 2352.76,1134.24 "/>
<polyline clip-path="url(#clip892)" style="stroke:#000000; stroke-linecap:round; stroke-linejoin:round; stroke-width:2; stroke-opacity:0.1; fill:none" points="186.76,822.772 2352.76,822.772 "/>
<polyline clip-path="url(#clip892)" style="stroke:#000000; stroke-linecap:round; stroke-linejoin:round; stroke-width:2; stroke-opacity:0.1; fill:none" points="186.76,511.301 2352.76,511.301 "/>
<polyline clip-path="url(#clip892)" style="stroke:#000000; stroke-linecap:round; stroke-linejoin:round; stroke-width:2; stroke-opacity:0.1; fill:none" points="186.76,199.829 2352.76,199.829 "/>
<polyline clip-path="url(#clip890)" style="stroke:#000000; stroke-linecap:round; stroke-linejoin:round; stroke-width:4; stroke-opacity:1; fill:none" points="186.76,1486.45 186.76,47.2441 "/>
<polyline clip-path="url(#clip890)" style="stroke:#000000; stroke-linecap:round; stroke-linejoin:round; stroke-width:4; stroke-opacity:1; fill:none" points="186.76,1445.72 205.658,1445.72 "/>
<polyline clip-path="url(#clip890)" style="stroke:#000000; stroke-linecap:round; stroke-linejoin:round; stroke-width:4; stroke-opacity:1; fill:none" points="186.76,1134.24 205.658,1134.24 "/>
<polyline clip-path="url(#clip890)" style="stroke:#000000; stroke-linecap:round; stroke-linejoin:round; stroke-width:4; stroke-opacity:1; fill:none" points="186.76,822.772 205.658,822.772 "/>
<polyline clip-path="url(#clip890)" style="stroke:#000000; stroke-linecap:round; stroke-linejoin:round; stroke-width:4; stroke-opacity:1; fill:none" points="186.76,511.301 205.658,511.301 "/>
<polyline clip-path="url(#clip890)" style="stroke:#000000; stroke-linecap:round; stroke-linejoin:round; stroke-width:4; stroke-opacity:1; fill:none" points="186.76,199.829 205.658,199.829 "/>
<path clip-path="url(#clip890)" d="M63.4226 1431.51 Q59.8115 1431.51 57.9828 1435.08 Q56.1773 1438.62 56.1773 1445.75 Q56.1773 1452.86 57.9828 1456.42 Q59.8115 1459.96 63.4226 1459.96 Q67.0569 1459.96 68.8624 1456.42 Q70.6911 1452.86 70.6911 1445.75 Q70.6911 1438.62 68.8624 1435.08 Q67.0569 1431.51 63.4226 1431.51 M63.4226 1427.81 Q69.2328 1427.81 72.2883 1432.42 Q75.367 1437 75.367 1445.75 Q75.367 1454.48 72.2883 1459.08 Q69.2328 1463.67 63.4226 1463.67 Q57.6125 1463.67 54.5338 1459.08 Q51.4782 1454.48 51.4782 1445.75 Q51.4782 1437 54.5338 1432.42 Q57.6125 1427.81 63.4226 1427.81 Z" fill="#000000" fill-rule="nonzero" fill-opacity="1" /><path clip-path="url(#clip890)" d="M83.5845 1457.12 L88.4688 1457.12 L88.4688 1463 L83.5845 1463 L83.5845 1457.12 Z" fill="#000000" fill-rule="nonzero" fill-opacity="1" /><path clip-path="url(#clip890)" d="M108.654 1431.51 Q105.043 1431.51 103.214 1435.08 Q101.409 1438.62 101.409 1445.75 Q101.409 1452.86 103.214 1456.42 Q105.043 1459.96 108.654 1459.96 Q112.288 1459.96 114.094 1456.42 Q115.922 1452.86 115.922 1445.75 Q115.922 1438.62 114.094 1435.08 Q112.288 1431.51 108.654 1431.51 M108.654 1427.81 Q114.464 1427.81 117.52 1432.42 Q120.598 1437 120.598 1445.75 Q120.598 1454.48 117.52 1459.08 Q114.464 1463.67 108.654 1463.67 Q102.844 1463.67 99.765 1459.08 Q96.7095 1454.48 96.7095 1445.75 Q96.7095 1437 99.765 1432.42 Q102.844 1427.81 108.654 1427.81 Z" fill="#000000" fill-rule="nonzero" fill-opacity="1" /><path clip-path="url(#clip890)" d="M138.816 1431.51 Q135.205 1431.51 133.376 1435.08 Q131.57 1438.62 131.57 1445.75 Q131.57 1452.86 133.376 1456.42 Q135.205 1459.96 138.816 1459.96 Q142.45 1459.96 144.256 1456.42 Q146.084 1452.86 146.084 1445.75 Q146.084 1438.62 144.256 1435.08 Q142.45 1431.51 138.816 1431.51 M138.816 1427.81 Q144.626 1427.81 147.681 1432.42 Q150.76 1437 150.76 1445.75 Q150.76 1454.48 147.681 1459.08 Q144.626 1463.67 138.816 1463.67 Q133.006 1463.67 129.927 1459.08 Q126.871 1454.48 126.871 1445.75 Q126.871 1437 129.927 1432.42 Q133.006 1427.81 138.816 1427.81 Z" fill="#000000" fill-rule="nonzero" fill-opacity="1" /><path clip-path="url(#clip890)" d="M65.0198 1120.04 Q61.4087 1120.04 59.58 1123.61 Q57.7745 1127.15 57.7745 1134.28 Q57.7745 1141.39 59.58 1144.95 Q61.4087 1148.49 65.0198 1148.49 Q68.6541 1148.49 70.4596 1144.95 Q72.2883 1141.39 72.2883 1134.28 Q72.2883 1127.15 70.4596 1123.61 Q68.6541 1120.04 65.0198 1120.04 M65.0198 1116.34 Q70.83 1116.34 73.8855 1120.95 Q76.9642 1125.53 76.9642 1134.28 Q76.9642 1143.01 73.8855 1147.61 Q70.83 1152.2 65.0198 1152.2 Q59.2097 1152.2 56.131 1147.61 Q53.0754 1143.01 53.0754 1134.28 Q53.0754 1125.53 56.131 1120.95 Q59.2097 1116.34 65.0198 1116.34 Z" fill="#000000" fill-rule="nonzero" fill-opacity="1" /><path clip-path="url(#clip890)" d="M85.1818 1145.64 L90.066 1145.64 L90.066 1151.52 L85.1818 1151.52 L85.1818 1145.64 Z" fill="#000000" fill-rule="nonzero" fill-opacity="1" /><path clip-path="url(#clip890)" d="M110.251 1120.04 Q106.64 1120.04 104.811 1123.61 Q103.006 1127.15 103.006 1134.28 Q103.006 1141.39 104.811 1144.95 Q106.64 1148.49 110.251 1148.49 Q113.885 1148.49 115.691 1144.95 Q117.52 1141.39 117.52 1134.28 Q117.52 1127.15 115.691 1123.61 Q113.885 1120.04 110.251 1120.04 M110.251 1116.34 Q116.061 1116.34 119.117 1120.95 Q122.195 1125.53 122.195 1134.28 Q122.195 1143.01 119.117 1147.61 Q116.061 1152.2 110.251 1152.2 Q104.441 1152.2 101.362 1147.61 Q98.3067 1143.01 98.3067 1134.28 Q98.3067 1125.53 101.362 1120.95 Q104.441 1116.34 110.251 1116.34 Z" fill="#000000" fill-rule="nonzero" fill-opacity="1" /><path clip-path="url(#clip890)" d="M134.441 1147.59 L150.76 1147.59 L150.76 1151.52 L128.816 1151.52 L128.816 1147.59 Q131.478 1144.83 136.061 1140.2 Q140.668 1135.55 141.848 1134.21 Q144.093 1131.69 144.973 1129.95 Q145.876 1128.19 145.876 1126.5 Q145.876 1123.75 143.931 1122.01 Q142.01 1120.27 138.908 1120.27 Q136.709 1120.27 134.256 1121.04 Q131.825 1121.8 129.047 1123.35 L129.047 1118.63 Q131.871 1117.5 134.325 1116.92 Q136.779 1116.34 138.816 1116.34 Q144.186 1116.34 147.38 1119.02 Q150.575 1121.71 150.575 1126.2 Q150.575 1128.33 149.765 1130.25 Q148.978 1132.15 146.871 1134.74 Q146.293 1135.41 143.191 1138.63 Q140.089 1141.83 134.441 1147.59 Z" fill="#000000" fill-rule="nonzero" fill-opacity="1" /><path clip-path="url(#clip890)" d="M62.9365 808.571 Q59.3254 808.571 57.4967 812.136 Q55.6912 815.678 55.6912 822.807 Q55.6912 829.914 57.4967 833.478 Q59.3254 837.02 62.9365 837.02 Q66.5707 837.02 68.3763 833.478 Q70.205 829.914 70.205 822.807 Q70.205 815.678 68.3763 812.136 Q66.5707 808.571 62.9365 808.571 M62.9365 804.867 Q68.7467 804.867 71.8022 809.474 Q74.8809 814.057 74.8809 822.807 Q74.8809 831.534 71.8022 836.14 Q68.7467 840.724 62.9365 840.724 Q57.1264 840.724 54.0477 836.14 Q50.9921 831.534 50.9921 822.807 Q50.9921 814.057 54.0477 809.474 Q57.1264 804.867 62.9365 804.867 Z" fill="#000000" fill-rule="nonzero" fill-opacity="1" /><path clip-path="url(#clip890)" d="M83.0984 834.173 L87.9827 834.173 L87.9827 840.052 L83.0984 840.052 L83.0984 834.173 Z" fill="#000000" fill-rule="nonzero" fill-opacity="1" /><path clip-path="url(#clip890)" d="M108.168 808.571 Q104.557 808.571 102.728 812.136 Q100.922 815.678 100.922 822.807 Q100.922 829.914 102.728 833.478 Q104.557 837.02 108.168 837.02 Q111.802 837.02 113.608 833.478 Q115.436 829.914 115.436 822.807 Q115.436 815.678 113.608 812.136 Q111.802 808.571 108.168 808.571 M108.168 804.867 Q113.978 804.867 117.033 809.474 Q120.112 814.057 120.112 822.807 Q120.112 831.534 117.033 836.14 Q113.978 840.724 108.168 840.724 Q102.358 840.724 99.2789 836.14 Q96.2234 831.534 96.2234 822.807 Q96.2234 814.057 99.2789 809.474 Q102.358 804.867 108.168 804.867 Z" fill="#000000" fill-rule="nonzero" fill-opacity="1" /><path clip-path="url(#clip890)" d="M141.177 809.567 L129.371 828.016 L141.177 828.016 L141.177 809.567 M139.95 805.492 L145.83 805.492 L145.83 828.016 L150.76 828.016 L150.76 831.904 L145.83 831.904 L145.83 840.052 L141.177 840.052 L141.177 831.904 L125.575 831.904 L125.575 827.391 L139.95 805.492 Z" fill="#000000" fill-rule="nonzero" fill-opacity="1" /><path clip-path="url(#clip890)" d="M63.2606 497.1 Q59.6495 497.1 57.8208 500.664 Q56.0152 504.206 56.0152 511.336 Q56.0152 518.442 57.8208 522.007 Q59.6495 525.548 63.2606 525.548 Q66.8948 525.548 68.7004 522.007 Q70.5291 518.442 70.5291 511.336 Q70.5291 504.206 68.7004 500.664 Q66.8948 497.1 63.2606 497.1 M63.2606 493.396 Q69.0707 493.396 72.1263 498.002 Q75.205 502.586 75.205 511.336 Q75.205 520.062 72.1263 524.669 Q69.0707 529.252 63.2606 529.252 Q57.4504 529.252 54.3717 524.669 Q51.3162 520.062 51.3162 511.336 Q51.3162 502.586 54.3717 498.002 Q57.4504 493.396 63.2606 493.396 Z" fill="#000000" fill-rule="nonzero" fill-opacity="1" /><path clip-path="url(#clip890)" d="M83.4225 522.701 L88.3067 522.701 L88.3067 528.581 L83.4225 528.581 L83.4225 522.701 Z" fill="#000000" fill-rule="nonzero" fill-opacity="1" /><path clip-path="url(#clip890)" d="M108.492 497.1 Q104.881 497.1 103.052 500.664 Q101.246 504.206 101.246 511.336 Q101.246 518.442 103.052 522.007 Q104.881 525.548 108.492 525.548 Q112.126 525.548 113.932 522.007 Q115.76 518.442 115.76 511.336 Q115.76 504.206 113.932 500.664 Q112.126 497.1 108.492 497.1 M108.492 493.396 Q114.302 493.396 117.358 498.002 Q120.436 502.586 120.436 511.336 Q120.436 520.062 117.358 524.669 Q114.302 529.252 108.492 529.252 Q102.682 529.252 99.603 524.669 Q96.5474 520.062 96.5474 511.336 Q96.5474 502.586 99.603 498.002 Q102.682 493.396 108.492 493.396 Z" fill="#000000" fill-rule="nonzero" fill-opacity="1" /><path clip-path="url(#clip890)" d="M139.232 509.437 Q136.084 509.437 134.232 511.59 Q132.404 513.743 132.404 517.493 Q132.404 521.22 134.232 523.396 Q136.084 525.548 139.232 525.548 Q142.381 525.548 144.209 523.396 Q146.061 521.22 146.061 517.493 Q146.061 513.743 144.209 511.59 Q142.381 509.437 139.232 509.437 M148.515 494.785 L148.515 499.044 Q146.756 498.211 144.95 497.771 Q143.168 497.331 141.408 497.331 Q136.779 497.331 134.325 500.456 Q131.894 503.581 131.547 509.9 Q132.913 507.887 134.973 506.822 Q137.033 505.734 139.51 505.734 Q144.718 505.734 147.728 508.905 Q150.76 512.053 150.76 517.493 Q150.76 522.817 147.612 526.035 Q144.464 529.252 139.232 529.252 Q133.237 529.252 130.066 524.669 Q126.894 520.062 126.894 511.336 Q126.894 503.141 130.783 498.28 Q134.672 493.396 141.223 493.396 Q142.982 493.396 144.765 493.743 Q146.57 494.09 148.515 494.785 Z" fill="#000000" fill-rule="nonzero" fill-opacity="1" /><path clip-path="url(#clip890)" d="M63.5152 185.628 Q59.9041 185.628 58.0754 189.193 Q56.2699 192.734 56.2699 199.864 Q56.2699 206.97 58.0754 210.535 Q59.9041 214.077 63.5152 214.077 Q67.1494 214.077 68.955 210.535 Q70.7837 206.97 70.7837 199.864 Q70.7837 192.734 68.955 189.193 Q67.1494 185.628 63.5152 185.628 M63.5152 181.924 Q69.3254 181.924 72.3809 186.531 Q75.4596 191.114 75.4596 199.864 Q75.4596 208.591 72.3809 213.197 Q69.3254 217.781 63.5152 217.781 Q57.7051 217.781 54.6264 213.197 Q51.5708 208.591 51.5708 199.864 Q51.5708 191.114 54.6264 186.531 Q57.7051 181.924 63.5152 181.924 Z" fill="#000000" fill-rule="nonzero" fill-opacity="1" /><path clip-path="url(#clip890)" d="M83.6771 211.23 L88.5614 211.23 L88.5614 217.109 L83.6771 217.109 L83.6771 211.23 Z" fill="#000000" fill-rule="nonzero" fill-opacity="1" /><path clip-path="url(#clip890)" d="M108.746 185.628 Q105.135 185.628 103.307 189.193 Q101.501 192.734 101.501 199.864 Q101.501 206.97 103.307 210.535 Q105.135 214.077 108.746 214.077 Q112.381 214.077 114.186 210.535 Q116.015 206.97 116.015 199.864 Q116.015 192.734 114.186 189.193 Q112.381 185.628 108.746 185.628 M108.746 181.924 Q114.557 181.924 117.612 186.531 Q120.691 191.114 120.691 199.864 Q120.691 208.591 117.612 213.197 Q114.557 217.781 108.746 217.781 Q102.936 217.781 99.8576 213.197 Q96.8021 208.591 96.8021 199.864 Q96.8021 191.114 99.8576 186.531 Q102.936 181.924 108.746 181.924 Z" fill="#000000" fill-rule="nonzero" fill-opacity="1" /><path clip-path="url(#clip890)" d="M138.908 200.697 Q135.575 200.697 133.654 202.48 Q131.756 204.262 131.756 207.387 Q131.756 210.512 133.654 212.294 Q135.575 214.077 138.908 214.077 Q142.242 214.077 144.163 212.294 Q146.084 210.489 146.084 207.387 Q146.084 204.262 144.163 202.48 Q142.265 200.697 138.908 200.697 M134.232 198.707 Q131.223 197.966 129.533 195.906 Q127.867 193.846 127.867 190.883 Q127.867 186.739 130.807 184.332 Q133.769 181.924 138.908 181.924 Q144.07 181.924 147.01 184.332 Q149.95 186.739 149.95 190.883 Q149.95 193.846 148.26 195.906 Q146.593 197.966 143.607 198.707 Q146.987 199.494 148.862 201.785 Q150.76 204.077 150.76 207.387 Q150.76 212.41 147.681 215.095 Q144.626 217.781 138.908 217.781 Q133.191 217.781 130.112 215.095 Q127.057 212.41 127.057 207.387 Q127.057 204.077 128.955 201.785 Q130.853 199.494 134.232 198.707 M132.519 191.322 Q132.519 194.008 134.186 195.512 Q135.876 197.017 138.908 197.017 Q141.918 197.017 143.607 195.512 Q145.32 194.008 145.32 191.322 Q145.32 188.637 143.607 187.133 Q141.918 185.628 138.908 185.628 Q135.876 185.628 134.186 187.133 Q132.519 188.637 132.519 191.322 Z" fill="#000000" fill-rule="nonzero" fill-opacity="1" /><circle clip-path="url(#clip892)" cx="248.062" cy="1445.72" r="14.4" fill="#009af9" fill-rule="evenodd" fill-opacity="1" stroke="#000000" stroke-opacity="1" stroke-width="3.2"/>
<circle clip-path="url(#clip892)" cx="375.774" cy="1354.99" r="14.4" fill="#009af9" fill-rule="evenodd" fill-opacity="1" stroke="#000000" stroke-opacity="1" stroke-width="3.2"/>
<circle clip-path="url(#clip892)" cx="503.486" cy="1220.07" r="14.4" fill="#009af9" fill-rule="evenodd" fill-opacity="1" stroke="#000000" stroke-opacity="1" stroke-width="3.2"/>
<circle clip-path="url(#clip892)" cx="631.198" cy="1047" r="14.4" fill="#009af9" fill-rule="evenodd" fill-opacity="1" stroke="#000000" stroke-opacity="1" stroke-width="3.2"/>
<circle clip-path="url(#clip892)" cx="758.91" cy="847.658" r="14.4" fill="#009af9" fill-rule="evenodd" fill-opacity="1" stroke="#000000" stroke-opacity="1" stroke-width="3.2"/>
<circle clip-path="url(#clip892)" cx="886.622" cy="638.711" r="14.4" fill="#009af9" fill-rule="evenodd" fill-opacity="1" stroke="#000000" stroke-opacity="1" stroke-width="3.2"/>
<circle clip-path="url(#clip892)" cx="1014.33" cy="439.739" r="14.4" fill="#009af9" fill-rule="evenodd" fill-opacity="1" stroke="#000000" stroke-opacity="1" stroke-width="3.2"/>
<circle clip-path="url(#clip892)" cx="1142.05" cy="270.7" r="14.4" fill="#009af9" fill-rule="evenodd" fill-opacity="1" stroke="#000000" stroke-opacity="1" stroke-width="3.2"/>
<circle clip-path="url(#clip892)" cx="1269.76" cy="149.194" r="14.4" fill="#009af9" fill-rule="evenodd" fill-opacity="1" stroke="#000000" stroke-opacity="1" stroke-width="3.2"/>
<circle clip-path="url(#clip892)" cx="1397.47" cy="87.9763" r="14.4" fill="#009af9" fill-rule="evenodd" fill-opacity="1" stroke="#000000" stroke-opacity="1" stroke-width="3.2"/>
<circle clip-path="url(#clip892)" cx="1525.18" cy="93.1815" r="14.4" fill="#009af9" fill-rule="evenodd" fill-opacity="1" stroke="#000000" stroke-opacity="1" stroke-width="3.2"/>
<circle clip-path="url(#clip892)" cx="1652.89" cy="163.558" r="14.4" fill="#009af9" fill-rule="evenodd" fill-opacity="1" stroke="#000000" stroke-opacity="1" stroke-width="3.2"/>
<circle clip-path="url(#clip892)" cx="1780.61" cy="290.845" r="14.4" fill="#009af9" fill-rule="evenodd" fill-opacity="1" stroke="#000000" stroke-opacity="1" stroke-width="3.2"/>
<circle clip-path="url(#clip892)" cx="1908.32" cy="461.2" r="14.4" fill="#009af9" fill-rule="evenodd" fill-opacity="1" stroke="#000000" stroke-opacity="1" stroke-width="3.2"/>
<circle clip-path="url(#clip892)" cx="2036.03" cy="657.365" r="14.4" fill="#009af9" fill-rule="evenodd" fill-opacity="1" stroke="#000000" stroke-opacity="1" stroke-width="3.2"/>
<circle clip-path="url(#clip892)" cx="2163.74" cy="861.175" r="14.4" fill="#009af9" fill-rule="evenodd" fill-opacity="1" stroke="#000000" stroke-opacity="1" stroke-width="3.2"/>
<circle clip-path="url(#clip892)" cx="2291.45" cy="1055.95" r="14.4" fill="#009af9" fill-rule="evenodd" fill-opacity="1" stroke="#000000" stroke-opacity="1" stroke-width="3.2"/>
<circle clip-path="url(#clip892)" cx="248.062" cy="1445.72" r="14.4" fill="#e26f46" fill-rule="evenodd" fill-opacity="1" stroke="#000000" stroke-opacity="1" stroke-width="3.2"/>
<circle clip-path="url(#clip892)" cx="311.918" cy="1424.63" r="14.4" fill="#e26f46" fill-rule="evenodd" fill-opacity="1" stroke="#000000" stroke-opacity="1" stroke-width="3.2"/>
<circle clip-path="url(#clip892)" cx="375.774" cy="1397.82" r="14.4" fill="#e26f46" fill-rule="evenodd" fill-opacity="1" stroke="#000000" stroke-opacity="1" stroke-width="3.2"/>
<circle clip-path="url(#clip892)" cx="439.63" cy="1365.43" r="14.4" fill="#e26f46" fill-rule="evenodd" fill-opacity="1" stroke="#000000" stroke-opacity="1" stroke-width="3.2"/>
<circle clip-path="url(#clip892)" cx="503.486" cy="1327.84" r="14.4" fill="#e26f46" fill-rule="evenodd" fill-opacity="1" stroke="#000000" stroke-opacity="1" stroke-width="3.2"/>
<circle clip-path="url(#clip892)" cx="567.342" cy="1285.59" r="14.4" fill="#e26f46" fill-rule="evenodd" fill-opacity="1" stroke="#000000" stroke-opacity="1" stroke-width="3.2"/>
<circle clip-path="url(#clip892)" cx="631.198" cy="1239.41" r="14.4" fill="#e26f46" fill-rule="evenodd" fill-opacity="1" stroke="#000000" stroke-opacity="1" stroke-width="3.2"/>
<circle clip-path="url(#clip892)" cx="695.054" cy="1190.21" r="14.4" fill="#e26f46" fill-rule="evenodd" fill-opacity="1" stroke="#000000" stroke-opacity="1" stroke-width="3.2"/>
<circle clip-path="url(#clip892)" cx="758.91" cy="1139.03" r="14.4" fill="#e26f46" fill-rule="evenodd" fill-opacity="1" stroke="#000000" stroke-opacity="1" stroke-width="3.2"/>
<circle clip-path="url(#clip892)" cx="822.766" cy="1087.03" r="14.4" fill="#e26f46" fill-rule="evenodd" fill-opacity="1" stroke="#000000" stroke-opacity="1" stroke-width="3.2"/>
<circle clip-path="url(#clip892)" cx="886.622" cy="1035.43" r="14.4" fill="#e26f46" fill-rule="evenodd" fill-opacity="1" stroke="#000000" stroke-opacity="1" stroke-width="3.2"/>
<circle clip-path="url(#clip892)" cx="950.478" cy="985.503" r="14.4" fill="#e26f46" fill-rule="evenodd" fill-opacity="1" stroke="#000000" stroke-opacity="1" stroke-width="3.2"/>
<circle clip-path="url(#clip892)" cx="1014.33" cy="938.496" r="14.4" fill="#e26f46" fill-rule="evenodd" fill-opacity="1" stroke="#000000" stroke-opacity="1" stroke-width="3.2"/>
<circle clip-path="url(#clip892)" cx="1078.19" cy="895.614" r="14.4" fill="#e26f46" fill-rule="evenodd" fill-opacity="1" stroke="#000000" stroke-opacity="1" stroke-width="3.2"/>
<circle clip-path="url(#clip892)" cx="1142.05" cy="857.962" r="14.4" fill="#e26f46" fill-rule="evenodd" fill-opacity="1" stroke="#000000" stroke-opacity="1" stroke-width="3.2"/>
<circle clip-path="url(#clip892)" cx="1205.9" cy="826.512" r="14.4" fill="#e26f46" fill-rule="evenodd" fill-opacity="1" stroke="#000000" stroke-opacity="1" stroke-width="3.2"/>
<circle clip-path="url(#clip892)" cx="1269.76" cy="802.067" r="14.4" fill="#e26f46" fill-rule="evenodd" fill-opacity="1" stroke="#000000" stroke-opacity="1" stroke-width="3.2"/>
<circle clip-path="url(#clip892)" cx="1333.61" cy="785.236" r="14.4" fill="#e26f46" fill-rule="evenodd" fill-opacity="1" stroke="#000000" stroke-opacity="1" stroke-width="3.2"/>
<circle clip-path="url(#clip892)" cx="1397.47" cy="776.409" r="14.4" fill="#e26f46" fill-rule="evenodd" fill-opacity="1" stroke="#000000" stroke-opacity="1" stroke-width="3.2"/>
<circle clip-path="url(#clip892)" cx="1461.33" cy="775.755" r="14.4" fill="#e26f46" fill-rule="evenodd" fill-opacity="1" stroke="#000000" stroke-opacity="1" stroke-width="3.2"/>
<circle clip-path="url(#clip892)" cx="1525.18" cy="783.21" r="14.4" fill="#e26f46" fill-rule="evenodd" fill-opacity="1" stroke="#000000" stroke-opacity="1" stroke-width="3.2"/>
<circle clip-path="url(#clip892)" cx="1589.04" cy="798.493" r="14.4" fill="#e26f46" fill-rule="evenodd" fill-opacity="1" stroke="#000000" stroke-opacity="1" stroke-width="3.2"/>
<circle clip-path="url(#clip892)" cx="1652.89" cy="821.115" r="14.4" fill="#e26f46" fill-rule="evenodd" fill-opacity="1" stroke="#000000" stroke-opacity="1" stroke-width="3.2"/>
<circle clip-path="url(#clip892)" cx="1716.75" cy="850.402" r="14.4" fill="#e26f46" fill-rule="evenodd" fill-opacity="1" stroke="#000000" stroke-opacity="1" stroke-width="3.2"/>
<circle clip-path="url(#clip892)" cx="1780.61" cy="885.529" r="14.4" fill="#e26f46" fill-rule="evenodd" fill-opacity="1" stroke="#000000" stroke-opacity="1" stroke-width="3.2"/>
<circle clip-path="url(#clip892)" cx="1844.46" cy="925.547" r="14.4" fill="#e26f46" fill-rule="evenodd" fill-opacity="1" stroke="#000000" stroke-opacity="1" stroke-width="3.2"/>
<circle clip-path="url(#clip892)" cx="1908.32" cy="969.426" r="14.4" fill="#e26f46" fill-rule="evenodd" fill-opacity="1" stroke="#000000" stroke-opacity="1" stroke-width="3.2"/>
<circle clip-path="url(#clip892)" cx="1972.17" cy="1016.08" r="14.4" fill="#e26f46" fill-rule="evenodd" fill-opacity="1" stroke="#000000" stroke-opacity="1" stroke-width="3.2"/>
<circle clip-path="url(#clip892)" cx="2036.03" cy="1064.44" r="14.4" fill="#e26f46" fill-rule="evenodd" fill-opacity="1" stroke="#000000" stroke-opacity="1" stroke-width="3.2"/>
<circle clip-path="url(#clip892)" cx="2099.89" cy="1113.42" r="14.4" fill="#e26f46" fill-rule="evenodd" fill-opacity="1" stroke="#000000" stroke-opacity="1" stroke-width="3.2"/>
<circle clip-path="url(#clip892)" cx="2163.74" cy="1162.04" r="14.4" fill="#e26f46" fill-rule="evenodd" fill-opacity="1" stroke="#000000" stroke-opacity="1" stroke-width="3.2"/>
<path clip-path="url(#clip890)" d="M1888.42 250.738 L2280.56 250.738 L2280.56 95.2176 L1888.42 95.2176  Z" fill="#ffffff" fill-rule="evenodd" fill-opacity="1"/>
<polyline clip-path="url(#clip890)" style="stroke:#000000; stroke-linecap:round; stroke-linejoin:round; stroke-width:4; stroke-opacity:1; fill:none" points="1888.42,250.738 2280.56,250.738 2280.56,95.2176 1888.42,95.2176 1888.42,250.738 "/>
<circle clip-path="url(#clip890)" cx="1984.68" cy="147.058" r="20.48" fill="#009af9" fill-rule="evenodd" fill-opacity="1" stroke="#000000" stroke-opacity="1" stroke-width="4.55111"/>
<path clip-path="url(#clip890)" d="M2104.49 156.148 Q2104.49 156.335 2104.28 157.061 Q2104.07 157.787 2103.55 158.912 Q2103.06 160.036 2102.38 161.067 Q2101.7 162.074 2100.58 162.823 Q2099.48 163.549 2098.21 163.549 Q2096.52 163.549 2095.4 162.425 Q2094.28 161.301 2094.28 159.614 Q2094.28 159.38 2094.3 159.146 Q2094.32 158.912 2094.35 158.771 Q2094.37 158.607 2094.44 158.35 Q2094.53 158.069 2094.56 157.951 Q2094.6 157.834 2094.72 157.483 Q2094.86 157.108 2094.91 156.968 Q2097.88 149.379 2097.88 146.217 Q2097.88 142.867 2095.28 142.867 Q2092.96 142.867 2090.67 144.554 Q2089.62 145.397 2088.61 146.896 Q2087.6 148.395 2087.41 148.957 Q2087.2 150.175 2086.9 151.112 Q2086.76 151.768 2086.08 154.321 L2085.02 158.654 L2084.11 162.285 Q2083.92 162.8 2083.41 163.175 Q2082.89 163.549 2082.33 163.549 Q2081.86 163.549 2081.39 163.221 Q2080.95 162.917 2080.95 162.191 Q2080.95 161.816 2081.14 161.137 L2088.09 133.498 L2088.23 132.562 Q2088.23 132.28 2088.12 132.14 Q2088.02 131.976 2087.46 131.859 Q2086.92 131.742 2085.84 131.742 Q2085.4 131.742 2085.19 131.718 Q2085 131.695 2084.84 131.578 Q2084.67 131.437 2084.67 131.156 Q2084.67 130.758 2084.84 130.547 Q2085.02 130.313 2085.17 130.266 Q2085.31 130.219 2085.59 130.196 Q2085.98 130.172 2087.32 130.055 Q2088.65 129.915 2089.8 129.821 Q2090.95 129.727 2091.44 129.727 Q2091.72 129.727 2091.86 129.868 Q2092.03 129.985 2092.05 130.126 L2092.07 130.243 L2088.33 145.491 Q2091.3 141.813 2095.42 141.813 Q2098.09 141.813 2099.52 143.195 Q2100.95 144.554 2100.95 146.943 Q2100.95 149.683 2098.02 157.483 Q2097.16 159.661 2097.16 160.903 Q2097.16 161.722 2097.41 162.097 Q2097.7 162.472 2098.31 162.472 Q2099.24 162.472 2100.06 161.933 Q2100.9 161.371 2101.49 160.458 Q2102.08 159.521 2102.47 158.584 Q2102.9 157.624 2103.2 156.546 Q2103.39 155.961 2103.48 155.82 Q2103.6 155.679 2103.93 155.679 Q2104.49 155.679 2104.49 156.148 Z" fill="#000000" fill-rule="nonzero" fill-opacity="1" /><path clip-path="url(#clip890)" d="M2121.6 155.726 Q2121.65 155.141 2122.56 155.141 L2151.95 155.141 Q2153.34 155.141 2153.36 155.679 Q2153.36 156.265 2152.05 156.242 L2122.89 156.242 Q2121.6 156.265 2121.6 155.726 M2121.6 146.357 Q2121.6 145.772 2122.61 145.795 L2151.91 145.795 Q2153.34 145.795 2153.36 146.357 Q2153.36 146.896 2152.14 146.896 L2122.56 146.896 Q2121.6 146.896 2121.6 146.357 Z" fill="#000000" fill-rule="nonzero" fill-opacity="1" /><path clip-path="url(#clip890)" d="M2171.85 147.669 Q2171.85 140.619 2173.63 136.778 Q2176.11 131.062 2181.97 131.062 Q2183.21 131.062 2184.5 131.414 Q2185.81 131.742 2187.45 133.03 Q2189.11 134.318 2190.12 136.426 Q2192.04 140.502 2192.04 147.669 Q2192.04 154.672 2190.26 158.49 Q2187.66 164.065 2181.92 164.065 Q2179.77 164.065 2177.57 162.964 Q2175.39 161.863 2174.01 159.216 Q2171.85 155.258 2171.85 147.669 M2175.83 147.083 Q2175.83 154.321 2176.35 157.202 Q2176.93 160.317 2178.53 161.676 Q2180.14 163.011 2181.92 163.011 Q2183.84 163.011 2185.44 161.582 Q2187.05 160.13 2187.54 157.015 Q2188.08 153.946 2188.06 147.083 Q2188.06 140.408 2187.59 137.738 Q2186.96 134.623 2185.27 133.381 Q2183.61 132.116 2181.92 132.116 Q2181.29 132.116 2180.61 132.304 Q2179.95 132.491 2178.99 133.03 Q2178.03 133.569 2177.28 134.904 Q2176.56 136.239 2176.21 138.253 Q2175.83 140.853 2175.83 147.083 Z" fill="#000000" fill-rule="nonzero" fill-opacity="1" /><path clip-path="url(#clip890)" d="M2196.33 162.238 Q2195.6 161.465 2195.6 160.458 Q2195.6 159.45 2196.33 158.724 Q2197.05 157.975 2198.15 157.975 Q2199.21 157.975 2199.91 158.678 Q2200.64 159.357 2200.64 160.481 Q2200.64 161.582 2199.86 162.308 Q2199.11 163.011 2198.15 163.011 Q2197.05 163.011 2196.33 162.238 Z" fill="#000000" fill-rule="nonzero" fill-opacity="1" /><path clip-path="url(#clip890)" d="M2203.92 135.63 L2203.92 134.131 Q2209.68 134.131 2212.66 131.062 Q2213.48 131.062 2213.62 131.25 Q2213.76 131.437 2213.76 132.304 L2213.76 159.216 Q2213.76 160.645 2214.46 161.09 Q2215.17 161.535 2218.23 161.535 L2219.76 161.535 L2219.76 163.011 Q2218.07 162.87 2211.98 162.87 Q2205.89 162.87 2204.23 163.011 L2204.23 161.535 L2205.75 161.535 Q2208.77 161.535 2209.5 161.113 Q2210.22 160.668 2210.22 159.216 L2210.22 134.365 Q2207.72 135.63 2203.92 135.63 Z" fill="#000000" fill-rule="nonzero" fill-opacity="1" /><circle clip-path="url(#clip890)" cx="1984.68" cy="198.898" r="20.48" fill="#e26f46" fill-rule="evenodd" fill-opacity="1" stroke="#000000" stroke-opacity="1" stroke-width="4.55111"/>
<path clip-path="url(#clip890)" d="M2104.49 207.988 Q2104.49 208.175 2104.28 208.901 Q2104.07 209.627 2103.55 210.752 Q2103.06 211.876 2102.38 212.907 Q2101.7 213.914 2100.58 214.663 Q2099.48 215.389 2098.21 215.389 Q2096.52 215.389 2095.4 214.265 Q2094.28 213.141 2094.28 211.454 Q2094.28 211.22 2094.3 210.986 Q2094.32 210.752 2094.35 210.611 Q2094.37 210.447 2094.44 210.19 Q2094.53 209.909 2094.56 209.791 Q2094.6 209.674 2094.72 209.323 Q2094.86 208.948 2094.91 208.808 Q2097.88 201.219 2097.88 198.057 Q2097.88 194.707 2095.28 194.707 Q2092.96 194.707 2090.67 196.394 Q2089.62 197.237 2088.61 198.736 Q2087.6 200.235 2087.41 200.797 Q2087.2 202.015 2086.9 202.952 Q2086.76 203.608 2086.08 206.161 L2085.02 210.494 L2084.11 214.125 Q2083.92 214.64 2083.41 215.015 Q2082.89 215.389 2082.33 215.389 Q2081.86 215.389 2081.39 215.061 Q2080.95 214.757 2080.95 214.031 Q2080.95 213.656 2081.14 212.977 L2088.09 185.338 L2088.23 184.402 Q2088.23 184.12 2088.12 183.98 Q2088.02 183.816 2087.46 183.699 Q2086.92 183.582 2085.84 183.582 Q2085.4 183.582 2085.19 183.558 Q2085 183.535 2084.84 183.418 Q2084.67 183.277 2084.67 182.996 Q2084.67 182.598 2084.84 182.387 Q2085.02 182.153 2085.17 182.106 Q2085.31 182.059 2085.59 182.036 Q2085.98 182.012 2087.32 181.895 Q2088.65 181.755 2089.8 181.661 Q2090.95 181.567 2091.44 181.567 Q2091.72 181.567 2091.86 181.708 Q2092.03 181.825 2092.05 181.966 L2092.07 182.083 L2088.33 197.331 Q2091.3 193.653 2095.42 193.653 Q2098.09 193.653 2099.52 195.035 Q2100.95 196.394 2100.95 198.783 Q2100.95 201.523 2098.02 209.323 Q2097.16 211.501 2097.16 212.743 Q2097.16 213.562 2097.41 213.937 Q2097.7 214.312 2098.31 214.312 Q2099.24 214.312 2100.06 213.773 Q2100.9 213.211 2101.49 212.298 Q2102.08 211.361 2102.47 210.424 Q2102.9 209.464 2103.2 208.386 Q2103.39 207.801 2103.48 207.66 Q2103.6 207.519 2103.93 207.519 Q2104.49 207.519 2104.49 207.988 Z" fill="#000000" fill-rule="nonzero" fill-opacity="1" /><path clip-path="url(#clip890)" d="M2121.6 207.566 Q2121.65 206.981 2122.56 206.981 L2151.95 206.981 Q2153.34 206.981 2153.36 207.519 Q2153.36 208.105 2152.05 208.082 L2122.89 208.082 Q2121.6 208.105 2121.6 207.566 M2121.6 198.197 Q2121.6 197.612 2122.61 197.635 L2151.91 197.635 Q2153.34 197.635 2153.36 198.197 Q2153.36 198.736 2152.14 198.736 L2122.56 198.736 Q2121.6 198.736 2121.6 198.197 Z" fill="#000000" fill-rule="nonzero" fill-opacity="1" /><path clip-path="url(#clip890)" d="M2171.85 199.509 Q2171.85 192.459 2173.63 188.618 Q2176.11 182.902 2181.97 182.902 Q2183.21 182.902 2184.5 183.254 Q2185.81 183.582 2187.45 184.87 Q2189.11 186.158 2190.12 188.266 Q2192.04 192.342 2192.04 199.509 Q2192.04 206.512 2190.26 210.33 Q2187.66 215.905 2181.92 215.905 Q2179.77 215.905 2177.57 214.804 Q2175.39 213.703 2174.01 211.056 Q2171.85 207.098 2171.85 199.509 M2175.83 198.923 Q2175.83 206.161 2176.35 209.042 Q2176.93 212.157 2178.53 213.516 Q2180.14 214.851 2181.92 214.851 Q2183.84 214.851 2185.44 213.422 Q2187.05 211.97 2187.54 208.855 Q2188.08 205.786 2188.06 198.923 Q2188.06 192.248 2187.59 189.578 Q2186.96 186.463 2185.27 185.221 Q2183.61 183.956 2181.92 183.956 Q2181.29 183.956 2180.61 184.144 Q2179.95 184.331 2178.99 184.87 Q2178.03 185.409 2177.28 186.744 Q2176.56 188.079 2176.21 190.093 Q2175.83 192.693 2175.83 198.923 Z" fill="#000000" fill-rule="nonzero" fill-opacity="1" /><path clip-path="url(#clip890)" d="M2196.33 214.078 Q2195.6 213.305 2195.6 212.298 Q2195.6 211.29 2196.33 210.564 Q2197.05 209.815 2198.15 209.815 Q2199.21 209.815 2199.91 210.518 Q2200.64 211.197 2200.64 212.321 Q2200.64 213.422 2199.86 214.148 Q2199.11 214.851 2198.15 214.851 Q2197.05 214.851 2196.33 214.078 Z" fill="#000000" fill-rule="nonzero" fill-opacity="1" /><path clip-path="url(#clip890)" d="M2208.8 199.509 Q2208.8 192.459 2210.58 188.618 Q2213.06 182.902 2218.92 182.902 Q2220.16 182.902 2221.45 183.254 Q2222.76 183.582 2224.4 184.87 Q2226.06 186.158 2227.07 188.266 Q2228.99 192.342 2228.99 199.509 Q2228.99 206.512 2227.21 210.33 Q2224.61 215.905 2218.87 215.905 Q2216.71 215.905 2214.51 214.804 Q2212.33 213.703 2210.95 211.056 Q2208.8 207.098 2208.8 199.509 M2212.78 198.923 Q2212.78 206.161 2213.29 209.042 Q2213.88 212.157 2215.47 213.516 Q2217.09 214.851 2218.87 214.851 Q2220.79 214.851 2222.38 213.422 Q2224 211.97 2224.49 208.855 Q2225.03 205.786 2225.01 198.923 Q2225.01 192.248 2224.54 189.578 Q2223.9 186.463 2222.22 185.221 Q2220.56 183.956 2218.87 183.956 Q2218.24 183.956 2217.56 184.144 Q2216.9 184.331 2215.94 184.87 Q2214.98 185.409 2214.23 186.744 Q2213.51 188.079 2213.15 190.093 Q2212.78 192.693 2212.78 198.923 Z" fill="#000000" fill-rule="nonzero" fill-opacity="1" /><path clip-path="url(#clip890)" d="M2232.74 207.121 Q2232.74 205.693 2233.51 205.154 Q2234.29 204.592 2235.11 204.592 Q2236.21 204.592 2236.84 205.294 Q2237.49 205.974 2237.49 206.934 Q2237.49 207.894 2236.84 208.597 Q2236.21 209.276 2235.11 209.276 Q2234.57 209.276 2234.29 209.182 Q2234.92 211.384 2236.84 212.977 Q2238.78 214.57 2241.34 214.57 Q2244.54 214.57 2246.46 211.454 Q2247.61 209.44 2247.61 204.873 Q2247.61 200.844 2246.75 198.83 Q2245.41 195.761 2242.67 195.761 Q2238.78 195.761 2236.49 199.111 Q2236.21 199.532 2235.88 199.556 Q2235.41 199.556 2235.29 199.298 Q2235.2 199.017 2235.2 198.291 L2235.2 184.097 Q2235.2 182.949 2235.67 182.949 Q2235.85 182.949 2236.25 183.09 Q2239.27 184.425 2242.62 184.448 Q2246.07 184.448 2249.16 183.043 Q2249.39 182.902 2249.53 182.902 Q2250 182.902 2250.03 183.441 Q2250.03 183.629 2249.63 184.191 Q2249.25 184.729 2248.43 185.456 Q2247.61 186.158 2246.56 186.837 Q2245.5 187.517 2243.96 187.985 Q2242.44 188.43 2240.75 188.43 Q2238.74 188.43 2236.67 187.798 L2236.67 197.143 Q2239.16 194.707 2242.76 194.707 Q2246.61 194.707 2249.25 197.799 Q2251.9 200.891 2251.9 205.201 Q2251.9 209.721 2248.76 212.813 Q2245.65 215.905 2241.43 215.905 Q2237.59 215.905 2235.15 213.164 Q2232.74 210.424 2232.74 207.121 Z" fill="#000000" fill-rule="nonzero" fill-opacity="1" /></svg>
