<?xml version="1.0" encoding="utf-8"?>
<svg xmlns="http://www.w3.org/2000/svg" xmlns:xlink="http://www.w3.org/1999/xlink" width="600" height="400" viewBox="0 0 2400 1600">
<defs>
  <clipPath id="clip070">
    <rect x="0" y="0" width="2400" height="1600"/>
  </clipPath>
</defs>
<path clip-path="url(#clip070)" d="M0 1600 L2400 1600 L2400 0 L0 0  Z" fill="#ffffff" fill-rule="evenodd" fill-opacity="1"/>
<defs>
  <clipPath id="clip071">
    <rect x="480" y="0" width="1681" height="1600"/>
  </clipPath>
</defs>
<path clip-path="url(#clip070)" d="M216.922 1486.45 L2352.76 1486.45 L2352.76 47.2441 L216.922 47.2441  Z" fill="#ffffff" fill-rule="evenodd" fill-opacity="1"/>
<defs>
  <clipPath id="clip072">
    <rect x="216" y="47" width="2137" height="1440"/>
  </clipPath>
</defs>
<polyline clip-path="url(#clip072)" style="stroke:#000000; stroke-linecap:round; stroke-linejoin:round; stroke-width:2; stroke-opacity:0.1; fill:none" points="546.028,1486.45 546.028,47.2441 "/>
<polyline clip-path="url(#clip072)" style="stroke:#000000; stroke-linecap:round; stroke-linejoin:round; stroke-width:2; stroke-opacity:0.1; fill:none" points="949.016,1486.45 949.016,47.2441 "/>
<polyline clip-path="url(#clip072)" style="stroke:#000000; stroke-linecap:round; stroke-linejoin:round; stroke-width:2; stroke-opacity:0.1; fill:none" points="1352,1486.45 1352,47.2441 "/>
<polyline clip-path="url(#clip072)" style="stroke:#000000; stroke-linecap:round; stroke-linejoin:round; stroke-width:2; stroke-opacity:0.1; fill:none" points="1754.99,1486.45 1754.99,47.2441 "/>
<polyline clip-path="url(#clip072)" style="stroke:#000000; stroke-linecap:round; stroke-linejoin:round; stroke-width:2; stroke-opacity:0.1; fill:none" points="2157.98,1486.45 2157.98,47.2441 "/>
<polyline clip-path="url(#clip070)" style="stroke:#000000; stroke-linecap:round; stroke-linejoin:round; stroke-width:4; stroke-opacity:1; fill:none" points="216.922,1486.45 2352.76,1486.45 "/>
<polyline clip-path="url(#clip070)" style="stroke:#000000; stroke-linecap:round; stroke-linejoin:round; stroke-width:4; stroke-opacity:1; fill:none" points="546.028,1486.45 546.028,1467.55 "/>
<polyline clip-path="url(#clip070)" style="stroke:#000000; stroke-linecap:round; stroke-linejoin:round; stroke-width:4; stroke-opacity:1; fill:none" points="949.016,1486.45 949.016,1467.55 "/>
<polyline clip-path="url(#clip070)" style="stroke:#000000; stroke-linecap:round; stroke-linejoin:round; stroke-width:4; stroke-opacity:1; fill:none" points="1352,1486.45 1352,1467.55 "/>
<polyline clip-path="url(#clip070)" style="stroke:#000000; stroke-linecap:round; stroke-linejoin:round; stroke-width:4; stroke-opacity:1; fill:none" points="1754.99,1486.45 1754.99,1467.55 "/>
<polyline clip-path="url(#clip070)" style="stroke:#000000; stroke-linecap:round; stroke-linejoin:round; stroke-width:4; stroke-opacity:1; fill:none" points="2157.98,1486.45 2157.98,1467.55 "/>
<path clip-path="url(#clip070)" d="M492.881 1532.02 L522.556 1532.02 L522.556 1535.95 L492.881 1535.95 L492.881 1532.02 Z" fill="#000000" fill-rule="nonzero" fill-opacity="1" /><path clip-path="url(#clip070)" d="M542.649 1517.37 Q539.038 1517.37 537.209 1520.93 Q535.404 1524.47 535.404 1531.6 Q535.404 1538.71 537.209 1542.27 Q539.038 1545.82 542.649 1545.82 Q546.283 1545.82 548.089 1542.27 Q549.917 1538.71 549.917 1531.6 Q549.917 1524.47 548.089 1520.93 Q546.283 1517.37 542.649 1517.37 M542.649 1513.66 Q548.459 1513.66 551.515 1518.27 Q554.593 1522.85 554.593 1531.6 Q554.593 1540.33 551.515 1544.94 Q548.459 1549.52 542.649 1549.52 Q536.839 1549.52 533.76 1544.94 Q530.704 1540.33 530.704 1531.6 Q530.704 1522.85 533.76 1518.27 Q536.839 1513.66 542.649 1513.66 Z" fill="#000000" fill-rule="nonzero" fill-opacity="1" /><path clip-path="url(#clip070)" d="M562.811 1542.97 L567.695 1542.97 L567.695 1548.85 L562.811 1548.85 L562.811 1542.97 Z" fill="#000000" fill-rule="nonzero" fill-opacity="1" /><path clip-path="url(#clip070)" d="M592.047 1530.21 Q595.403 1530.93 597.278 1533.2 Q599.176 1535.47 599.176 1538.8 Q599.176 1543.92 595.658 1546.72 Q592.139 1549.52 585.658 1549.52 Q583.482 1549.52 581.167 1549.08 Q578.876 1548.66 576.422 1547.81 L576.422 1543.29 Q578.366 1544.43 580.681 1545.01 Q582.996 1545.58 585.519 1545.58 Q589.917 1545.58 592.209 1543.85 Q594.524 1542.11 594.524 1538.8 Q594.524 1535.75 592.371 1534.03 Q590.241 1532.3 586.422 1532.3 L582.394 1532.3 L582.394 1528.45 L586.607 1528.45 Q590.056 1528.45 591.885 1527.09 Q593.713 1525.7 593.713 1523.11 Q593.713 1520.45 591.815 1519.03 Q589.94 1517.6 586.422 1517.6 Q584.5 1517.6 582.301 1518.01 Q580.102 1518.43 577.463 1519.31 L577.463 1515.14 Q580.126 1514.4 582.44 1514.03 Q584.778 1513.66 586.838 1513.66 Q592.162 1513.66 595.264 1516.09 Q598.366 1518.5 598.366 1522.62 Q598.366 1525.49 596.723 1527.48 Q595.079 1529.45 592.047 1530.21 Z" fill="#000000" fill-rule="nonzero" fill-opacity="1" /><path clip-path="url(#clip070)" d="M926.4 1517.37 Q922.789 1517.37 920.961 1520.93 Q919.155 1524.47 919.155 1531.6 Q919.155 1538.71 920.961 1542.27 Q922.789 1545.82 926.4 1545.82 Q930.035 1545.82 931.84 1542.27 Q933.669 1538.71 933.669 1531.6 Q933.669 1524.47 931.84 1520.93 Q930.035 1517.37 926.4 1517.37 M926.4 1513.66 Q932.211 1513.66 935.266 1518.27 Q938.345 1522.85 938.345 1531.6 Q938.345 1540.33 935.266 1544.94 Q932.211 1549.52 926.4 1549.52 Q920.59 1549.52 917.512 1544.94 Q914.456 1540.33 914.456 1531.6 Q914.456 1522.85 917.512 1518.27 Q920.59 1513.66 926.4 1513.66 Z" fill="#000000" fill-rule="nonzero" fill-opacity="1" /><path clip-path="url(#clip070)" d="M946.562 1542.97 L951.447 1542.97 L951.447 1548.85 L946.562 1548.85 L946.562 1542.97 Z" fill="#000000" fill-rule="nonzero" fill-opacity="1" /><path clip-path="url(#clip070)" d="M971.632 1517.37 Q968.021 1517.37 966.192 1520.93 Q964.386 1524.47 964.386 1531.6 Q964.386 1538.71 966.192 1542.27 Q968.021 1545.82 971.632 1545.82 Q975.266 1545.82 977.071 1542.27 Q978.9 1538.71 978.9 1531.6 Q978.9 1524.47 977.071 1520.93 Q975.266 1517.37 971.632 1517.37 M971.632 1513.66 Q977.442 1513.66 980.497 1518.27 Q983.576 1522.85 983.576 1531.6 Q983.576 1540.33 980.497 1544.94 Q977.442 1549.52 971.632 1549.52 Q965.821 1549.52 962.743 1544.94 Q959.687 1540.33 959.687 1531.6 Q959.687 1522.85 962.743 1518.27 Q965.821 1513.66 971.632 1513.66 Z" fill="#000000" fill-rule="nonzero" fill-opacity="1" /><path clip-path="url(#clip070)" d="M1329.71 1517.37 Q1326.1 1517.37 1324.27 1520.93 Q1322.47 1524.47 1322.47 1531.6 Q1322.47 1538.71 1324.27 1542.27 Q1326.1 1545.82 1329.71 1545.82 Q1333.35 1545.82 1335.15 1542.27 Q1336.98 1538.71 1336.98 1531.6 Q1336.98 1524.47 1335.15 1520.93 Q1333.35 1517.37 1329.71 1517.37 M1329.71 1513.66 Q1335.52 1513.66 1338.58 1518.27 Q1341.66 1522.85 1341.66 1531.6 Q1341.66 1540.33 1338.58 1544.94 Q1335.52 1549.52 1329.71 1549.52 Q1323.9 1549.52 1320.82 1544.94 Q1317.77 1540.33 1317.77 1531.6 Q1317.77 1522.85 1320.82 1518.27 Q1323.9 1513.66 1329.71 1513.66 Z" fill="#000000" fill-rule="nonzero" fill-opacity="1" /><path clip-path="url(#clip070)" d="M1349.87 1542.97 L1354.76 1542.97 L1354.76 1548.85 L1349.87 1548.85 L1349.87 1542.97 Z" fill="#000000" fill-rule="nonzero" fill-opacity="1" /><path clip-path="url(#clip070)" d="M1379.11 1530.21 Q1382.47 1530.93 1384.34 1533.2 Q1386.24 1535.47 1386.24 1538.8 Q1386.24 1543.92 1382.72 1546.72 Q1379.2 1549.52 1372.72 1549.52 Q1370.55 1549.52 1368.23 1549.08 Q1365.94 1548.66 1363.48 1547.81 L1363.48 1543.29 Q1365.43 1544.43 1367.74 1545.01 Q1370.06 1545.58 1372.58 1545.58 Q1376.98 1545.58 1379.27 1543.85 Q1381.59 1542.11 1381.59 1538.8 Q1381.59 1535.75 1379.43 1534.03 Q1377.3 1532.3 1373.48 1532.3 L1369.46 1532.3 L1369.46 1528.45 L1373.67 1528.45 Q1377.12 1528.45 1378.95 1527.09 Q1380.78 1525.7 1380.78 1523.11 Q1380.78 1520.45 1378.88 1519.03 Q1377 1517.6 1373.48 1517.6 Q1371.56 1517.6 1369.36 1518.01 Q1367.17 1518.43 1364.53 1519.31 L1364.53 1515.14 Q1367.19 1514.4 1369.5 1514.03 Q1371.84 1513.66 1373.9 1513.66 Q1379.23 1513.66 1382.33 1516.09 Q1385.43 1518.5 1385.43 1522.62 Q1385.43 1525.49 1383.79 1527.48 Q1382.14 1529.45 1379.11 1530.21 Z" fill="#000000" fill-rule="nonzero" fill-opacity="1" /><path clip-path="url(#clip070)" d="M1732.29 1517.37 Q1728.68 1517.37 1726.85 1520.93 Q1725.05 1524.47 1725.05 1531.6 Q1725.05 1538.71 1726.85 1542.27 Q1728.68 1545.82 1732.29 1545.82 Q1735.93 1545.82 1737.73 1542.27 Q1739.56 1538.71 1739.56 1531.6 Q1739.56 1524.47 1737.73 1520.93 Q1735.93 1517.37 1732.29 1517.37 M1732.29 1513.66 Q1738.1 1513.66 1741.16 1518.27 Q1744.24 1522.85 1744.24 1531.6 Q1744.24 1540.33 1741.16 1544.94 Q1738.1 1549.52 1732.29 1549.52 Q1726.48 1549.52 1723.41 1544.94 Q1720.35 1540.33 1720.35 1531.6 Q1720.35 1522.85 1723.41 1518.27 Q1726.48 1513.66 1732.29 1513.66 Z" fill="#000000" fill-rule="nonzero" fill-opacity="1" /><path clip-path="url(#clip070)" d="M1752.46 1542.97 L1757.34 1542.97 L1757.34 1548.85 L1752.46 1548.85 L1752.46 1542.97 Z" fill="#000000" fill-rule="nonzero" fill-opacity="1" /><path clip-path="url(#clip070)" d="M1778.1 1529.7 Q1774.96 1529.7 1773.1 1531.86 Q1771.28 1534.01 1771.28 1537.76 Q1771.28 1541.49 1773.1 1543.66 Q1774.96 1545.82 1778.1 1545.82 Q1781.25 1545.82 1783.08 1543.66 Q1784.93 1541.49 1784.93 1537.76 Q1784.93 1534.01 1783.08 1531.86 Q1781.25 1529.7 1778.1 1529.7 M1787.39 1515.05 L1787.39 1519.31 Q1785.63 1518.48 1783.82 1518.04 Q1782.04 1517.6 1780.28 1517.6 Q1775.65 1517.6 1773.2 1520.72 Q1770.77 1523.85 1770.42 1530.17 Q1771.78 1528.15 1773.85 1527.09 Q1775.91 1526 1778.38 1526 Q1783.59 1526 1786.6 1529.17 Q1789.63 1532.32 1789.63 1537.76 Q1789.63 1543.08 1786.48 1546.3 Q1783.34 1549.52 1778.1 1549.52 Q1772.11 1549.52 1768.94 1544.94 Q1765.77 1540.33 1765.77 1531.6 Q1765.77 1523.41 1769.66 1518.55 Q1773.54 1513.66 1780.1 1513.66 Q1781.85 1513.66 1783.64 1514.01 Q1785.44 1514.36 1787.39 1515.05 Z" fill="#000000" fill-rule="nonzero" fill-opacity="1" /><path clip-path="url(#clip070)" d="M2135.46 1517.37 Q2131.84 1517.37 2130.02 1520.93 Q2128.21 1524.47 2128.21 1531.6 Q2128.21 1538.71 2130.02 1542.27 Q2131.84 1545.82 2135.46 1545.82 Q2139.09 1545.82 2140.9 1542.27 Q2142.72 1538.71 2142.72 1531.6 Q2142.72 1524.47 2140.9 1520.93 Q2139.09 1517.37 2135.46 1517.37 M2135.46 1513.66 Q2141.27 1513.66 2144.32 1518.27 Q2147.4 1522.85 2147.4 1531.6 Q2147.4 1540.33 2144.32 1544.94 Q2141.27 1549.52 2135.46 1549.52 Q2129.65 1549.52 2126.57 1544.94 Q2123.51 1540.33 2123.51 1531.6 Q2123.51 1522.85 2126.57 1518.27 Q2129.65 1513.66 2135.46 1513.66 Z" fill="#000000" fill-rule="nonzero" fill-opacity="1" /><path clip-path="url(#clip070)" d="M2155.62 1542.97 L2160.5 1542.97 L2160.5 1548.85 L2155.62 1548.85 L2155.62 1542.97 Z" fill="#000000" fill-rule="nonzero" fill-opacity="1" /><path clip-path="url(#clip070)" d="M2170.83 1548.13 L2170.83 1543.87 Q2172.59 1544.7 2174.39 1545.14 Q2176.2 1545.58 2177.93 1545.58 Q2182.56 1545.58 2184.99 1542.48 Q2187.45 1539.36 2187.79 1533.01 Q2186.45 1535.01 2184.39 1536.07 Q2182.33 1537.13 2179.83 1537.13 Q2174.65 1537.13 2171.61 1534.01 Q2168.6 1530.86 2168.6 1525.42 Q2168.6 1520.1 2171.75 1516.88 Q2174.9 1513.66 2180.13 1513.66 Q2186.13 1513.66 2189.27 1518.27 Q2192.45 1522.85 2192.45 1531.6 Q2192.45 1539.77 2188.56 1544.66 Q2184.69 1549.52 2178.14 1549.52 Q2176.38 1549.52 2174.58 1549.17 Q2172.77 1548.82 2170.83 1548.13 M2180.13 1533.48 Q2183.28 1533.48 2185.11 1531.32 Q2186.96 1529.17 2186.96 1525.42 Q2186.96 1521.7 2185.11 1519.54 Q2183.28 1517.37 2180.13 1517.37 Q2176.98 1517.37 2175.13 1519.54 Q2173.3 1521.7 2173.3 1525.42 Q2173.3 1529.17 2175.13 1531.32 Q2176.98 1533.48 2180.13 1533.48 Z" fill="#000000" fill-rule="nonzero" fill-opacity="1" /><polyline clip-path="url(#clip072)" style="stroke:#000000; stroke-linecap:round; stroke-linejoin:round; stroke-width:2; stroke-opacity:0.1; fill:none" points="216.922,1445.72 2352.76,1445.72 "/>
<polyline clip-path="url(#clip072)" style="stroke:#000000; stroke-linecap:round; stroke-linejoin:round; stroke-width:2; stroke-opacity:0.1; fill:none" points="216.922,1233.11 2352.76,1233.11 "/>
<polyline clip-path="url(#clip072)" style="stroke:#000000; stroke-linecap:round; stroke-linejoin:round; stroke-width:2; stroke-opacity:0.1; fill:none" points="216.922,1020.51 2352.76,1020.51 "/>
<polyline clip-path="url(#clip072)" style="stroke:#000000; stroke-linecap:round; stroke-linejoin:round; stroke-width:2; stroke-opacity:0.1; fill:none" points="216.922,807.902 2352.76,807.902 "/>
<polyline clip-path="url(#clip072)" style="stroke:#000000; stroke-linecap:round; stroke-linejoin:round; stroke-width:2; stroke-opacity:0.1; fill:none" points="216.922,595.297 2352.76,595.297 "/>
<polyline clip-path="url(#clip072)" style="stroke:#000000; stroke-linecap:round; stroke-linejoin:round; stroke-width:2; stroke-opacity:0.1; fill:none" points="216.922,382.692 2352.76,382.692 "/>
<polyline clip-path="url(#clip072)" style="stroke:#000000; stroke-linecap:round; stroke-linejoin:round; stroke-width:2; stroke-opacity:0.1; fill:none" points="216.922,170.087 2352.76,170.087 "/>
<polyline clip-path="url(#clip070)" style="stroke:#000000; stroke-linecap:round; stroke-linejoin:round; stroke-width:4; stroke-opacity:1; fill:none" points="216.922,1486.45 216.922,47.2441 "/>
<polyline clip-path="url(#clip070)" style="stroke:#000000; stroke-linecap:round; stroke-linejoin:round; stroke-width:4; stroke-opacity:1; fill:none" points="216.922,1445.72 235.82,1445.72 "/>
<polyline clip-path="url(#clip070)" style="stroke:#000000; stroke-linecap:round; stroke-linejoin:round; stroke-width:4; stroke-opacity:1; fill:none" points="216.922,1233.11 235.82,1233.11 "/>
<polyline clip-path="url(#clip070)" style="stroke:#000000; stroke-linecap:round; stroke-linejoin:round; stroke-width:4; stroke-opacity:1; fill:none" points="216.922,1020.51 235.82,1020.51 "/>
<polyline clip-path="url(#clip070)" style="stroke:#000000; stroke-linecap:round; stroke-linejoin:round; stroke-width:4; stroke-opacity:1; fill:none" points="216.922,807.902 235.82,807.902 "/>
<polyline clip-path="url(#clip070)" style="stroke:#000000; stroke-linecap:round; stroke-linejoin:round; stroke-width:4; stroke-opacity:1; fill:none" points="216.922,595.297 235.82,595.297 "/>
<polyline clip-path="url(#clip070)" style="stroke:#000000; stroke-linecap:round; stroke-linejoin:round; stroke-width:4; stroke-opacity:1; fill:none" points="216.922,382.692 235.82,382.692 "/>
<polyline clip-path="url(#clip070)" style="stroke:#000000; stroke-linecap:round; stroke-linejoin:round; stroke-width:4; stroke-opacity:1; fill:none" points="216.922,170.087 235.82,170.087 "/>
<path clip-path="url(#clip070)" d="M63.4226 1431.51 Q59.8115 1431.51 57.9828 1435.08 Q56.1773 1438.62 56.1773 1445.75 Q56.1773 1452.86 57.9828 1456.42 Q59.8115 1459.96 63.4226 1459.96 Q67.0569 1459.96 68.8624 1456.42 Q70.6911 1452.86 70.6911 1445.75 Q70.6911 1438.62 68.8624 1435.08 Q67.0569 1431.51 63.4226 1431.51 M63.4226 1427.81 Q69.2328 1427.81 72.2883 1432.42 Q75.367 1437 75.367 1445.75 Q75.367 1454.48 72.2883 1459.08 Q69.2328 1463.67 63.4226 1463.67 Q57.6125 1463.67 54.5338 1459.08 Q51.4782 1454.48 51.4782 1445.75 Q51.4782 1437 54.5338 1432.42 Q57.6125 1427.81 63.4226 1427.81 Z" fill="#000000" fill-rule="nonzero" fill-opacity="1" /><path clip-path="url(#clip070)" d="M83.5845 1457.12 L88.4688 1457.12 L88.4688 1463 L83.5845 1463 L83.5845 1457.12 Z" fill="#000000" fill-rule="nonzero" fill-opacity="1" /><path clip-path="url(#clip070)" d="M108.654 1431.51 Q105.043 1431.51 103.214 1435.08 Q101.409 1438.62 101.409 1445.75 Q101.409 1452.86 103.214 1456.42 Q105.043 1459.96 108.654 1459.96 Q112.288 1459.96 114.094 1456.42 Q115.922 1452.86 115.922 1445.75 Q115.922 1438.62 114.094 1435.08 Q112.288 1431.51 108.654 1431.51 M108.654 1427.81 Q114.464 1427.81 117.52 1432.42 Q120.598 1437 120.598 1445.75 Q120.598 1454.48 117.52 1459.08 Q114.464 1463.67 108.654 1463.67 Q102.844 1463.67 99.765 1459.08 Q96.7095 1454.48 96.7095 1445.75 Q96.7095 1437 99.765 1432.42 Q102.844 1427.81 108.654 1427.81 Z" fill="#000000" fill-rule="nonzero" fill-opacity="1" /><path clip-path="url(#clip070)" d="M138.816 1431.51 Q135.205 1431.51 133.376 1435.08 Q131.57 1438.62 131.57 1445.75 Q131.57 1452.86 133.376 1456.42 Q135.205 1459.96 138.816 1459.96 Q142.45 1459.96 144.256 1456.42 Q146.084 1452.86 146.084 1445.75 Q146.084 1438.62 144.256 1435.08 Q142.45 1431.51 138.816 1431.51 M138.816 1427.81 Q144.626 1427.81 147.681 1432.42 Q150.76 1437 150.76 1445.75 Q150.76 1454.48 147.681 1459.08 Q144.626 1463.67 138.816 1463.67 Q133.006 1463.67 129.927 1459.08 Q126.871 1454.48 126.871 1445.75 Q126.871 1437 129.927 1432.42 Q133.006 1427.81 138.816 1427.81 Z" fill="#000000" fill-rule="nonzero" fill-opacity="1" /><path clip-path="url(#clip070)" d="M168.978 1431.51 Q165.367 1431.51 163.538 1435.08 Q161.732 1438.62 161.732 1445.75 Q161.732 1452.86 163.538 1456.42 Q165.367 1459.96 168.978 1459.96 Q172.612 1459.96 174.417 1456.42 Q176.246 1452.86 176.246 1445.75 Q176.246 1438.62 174.417 1435.08 Q172.612 1431.51 168.978 1431.51 M168.978 1427.81 Q174.788 1427.81 177.843 1432.42 Q180.922 1437 180.922 1445.75 Q180.922 1454.48 177.843 1459.08 Q174.788 1463.67 168.978 1463.67 Q163.167 1463.67 160.089 1459.08 Q157.033 1454.48 157.033 1445.75 Q157.033 1437 160.089 1432.42 Q163.167 1427.81 168.978 1427.81 Z" fill="#000000" fill-rule="nonzero" fill-opacity="1" /><path clip-path="url(#clip070)" d="M65.0198 1218.91 Q61.4087 1218.91 59.58 1222.47 Q57.7745 1226.02 57.7745 1233.15 Q57.7745 1240.25 59.58 1243.82 Q61.4087 1247.36 65.0198 1247.36 Q68.6541 1247.36 70.4596 1243.82 Q72.2883 1240.25 72.2883 1233.15 Q72.2883 1226.02 70.4596 1222.47 Q68.6541 1218.91 65.0198 1218.91 M65.0198 1215.21 Q70.83 1215.21 73.8855 1219.81 Q76.9642 1224.4 76.9642 1233.15 Q76.9642 1241.87 73.8855 1246.48 Q70.83 1251.06 65.0198 1251.06 Q59.2097 1251.06 56.131 1246.48 Q53.0754 1241.87 53.0754 1233.15 Q53.0754 1224.4 56.131 1219.81 Q59.2097 1215.21 65.0198 1215.21 Z" fill="#000000" fill-rule="nonzero" fill-opacity="1" /><path clip-path="url(#clip070)" d="M85.1818 1244.51 L90.066 1244.51 L90.066 1250.39 L85.1818 1250.39 L85.1818 1244.51 Z" fill="#000000" fill-rule="nonzero" fill-opacity="1" /><path clip-path="url(#clip070)" d="M110.251 1218.91 Q106.64 1218.91 104.811 1222.47 Q103.006 1226.02 103.006 1233.15 Q103.006 1240.25 104.811 1243.82 Q106.64 1247.36 110.251 1247.36 Q113.885 1247.36 115.691 1243.82 Q117.52 1240.25 117.52 1233.15 Q117.52 1226.02 115.691 1222.47 Q113.885 1218.91 110.251 1218.91 M110.251 1215.21 Q116.061 1215.21 119.117 1219.81 Q122.195 1224.4 122.195 1233.15 Q122.195 1241.87 119.117 1246.48 Q116.061 1251.06 110.251 1251.06 Q104.441 1251.06 101.362 1246.48 Q98.3067 1241.87 98.3067 1233.15 Q98.3067 1224.4 101.362 1219.81 Q104.441 1215.21 110.251 1215.21 Z" fill="#000000" fill-rule="nonzero" fill-opacity="1" /><path clip-path="url(#clip070)" d="M140.413 1218.91 Q136.802 1218.91 134.973 1222.47 Q133.168 1226.02 133.168 1233.15 Q133.168 1240.25 134.973 1243.82 Q136.802 1247.36 140.413 1247.36 Q144.047 1247.36 145.853 1243.82 Q147.681 1240.25 147.681 1233.15 Q147.681 1226.02 145.853 1222.47 Q144.047 1218.91 140.413 1218.91 M140.413 1215.21 Q146.223 1215.21 149.279 1219.81 Q152.357 1224.4 152.357 1233.15 Q152.357 1241.87 149.279 1246.48 Q146.223 1251.06 140.413 1251.06 Q134.603 1251.06 131.524 1246.48 Q128.469 1241.87 128.469 1233.15 Q128.469 1224.4 131.524 1219.81 Q134.603 1215.21 140.413 1215.21 Z" fill="#000000" fill-rule="nonzero" fill-opacity="1" /><path clip-path="url(#clip070)" d="M164.603 1246.46 L180.922 1246.46 L180.922 1250.39 L158.978 1250.39 L158.978 1246.46 Q161.64 1243.7 166.223 1239.07 Q170.829 1234.42 172.01 1233.08 Q174.255 1230.55 175.135 1228.82 Q176.038 1227.06 176.038 1225.37 Q176.038 1222.61 174.093 1220.88 Q172.172 1219.14 169.07 1219.14 Q166.871 1219.14 164.417 1219.91 Q161.987 1220.67 159.209 1222.22 L159.209 1217.5 Q162.033 1216.36 164.487 1215.78 Q166.941 1215.21 168.978 1215.21 Q174.348 1215.21 177.542 1217.89 Q180.737 1220.58 180.737 1225.07 Q180.737 1227.2 179.927 1229.12 Q179.14 1231.02 177.033 1233.61 Q176.454 1234.28 173.353 1237.5 Q170.251 1240.69 164.603 1246.46 Z" fill="#000000" fill-rule="nonzero" fill-opacity="1" /><path clip-path="url(#clip070)" d="M62.9365 1006.3 Q59.3254 1006.3 57.4967 1009.87 Q55.6912 1013.41 55.6912 1020.54 Q55.6912 1027.65 57.4967 1031.21 Q59.3254 1034.75 62.9365 1034.75 Q66.5707 1034.75 68.3763 1031.21 Q70.205 1027.65 70.205 1020.54 Q70.205 1013.41 68.3763 1009.87 Q66.5707 1006.3 62.9365 1006.3 M62.9365 1002.6 Q68.7467 1002.6 71.8022 1007.21 Q74.8809 1011.79 74.8809 1020.54 Q74.8809 1029.27 71.8022 1033.87 Q68.7467 1038.46 62.9365 1038.46 Q57.1264 1038.46 54.0477 1033.87 Q50.9921 1029.27 50.9921 1020.54 Q50.9921 1011.79 54.0477 1007.21 Q57.1264 1002.6 62.9365 1002.6 Z" fill="#000000" fill-rule="nonzero" fill-opacity="1" /><path clip-path="url(#clip070)" d="M83.0984 1031.91 L87.9827 1031.91 L87.9827 1037.79 L83.0984 1037.79 L83.0984 1031.91 Z" fill="#000000" fill-rule="nonzero" fill-opacity="1" /><path clip-path="url(#clip070)" d="M108.168 1006.3 Q104.557 1006.3 102.728 1009.87 Q100.922 1013.41 100.922 1020.54 Q100.922 1027.65 102.728 1031.21 Q104.557 1034.75 108.168 1034.75 Q111.802 1034.75 113.608 1031.21 Q115.436 1027.65 115.436 1020.54 Q115.436 1013.41 113.608 1009.87 Q111.802 1006.3 108.168 1006.3 M108.168 1002.6 Q113.978 1002.6 117.033 1007.21 Q120.112 1011.79 120.112 1020.54 Q120.112 1029.27 117.033 1033.87 Q113.978 1038.46 108.168 1038.46 Q102.358 1038.46 99.2789 1033.87 Q96.2234 1029.27 96.2234 1020.54 Q96.2234 1011.79 99.2789 1007.21 Q102.358 1002.6 108.168 1002.6 Z" fill="#000000" fill-rule="nonzero" fill-opacity="1" /><path clip-path="url(#clip070)" d="M138.33 1006.3 Q134.719 1006.3 132.89 1009.87 Q131.084 1013.41 131.084 1020.54 Q131.084 1027.65 132.89 1031.21 Q134.719 1034.75 138.33 1034.75 Q141.964 1034.75 143.769 1031.21 Q145.598 1027.65 145.598 1020.54 Q145.598 1013.41 143.769 1009.87 Q141.964 1006.3 138.33 1006.3 M138.33 1002.6 Q144.14 1002.6 147.195 1007.21 Q150.274 1011.79 150.274 1020.54 Q150.274 1029.27 147.195 1033.87 Q144.14 1038.46 138.33 1038.46 Q132.519 1038.46 129.441 1033.87 Q126.385 1029.27 126.385 1020.54 Q126.385 1011.79 129.441 1007.21 Q132.519 1002.6 138.33 1002.6 Z" fill="#000000" fill-rule="nonzero" fill-opacity="1" /><path clip-path="url(#clip070)" d="M171.339 1007.3 L159.533 1025.75 L171.339 1025.75 L171.339 1007.3 M170.112 1003.23 L175.991 1003.23 L175.991 1025.75 L180.922 1025.75 L180.922 1029.64 L175.991 1029.64 L175.991 1037.79 L171.339 1037.79 L171.339 1029.64 L155.737 1029.64 L155.737 1025.12 L170.112 1003.23 Z" fill="#000000" fill-rule="nonzero" fill-opacity="1" /><path clip-path="url(#clip070)" d="M63.2606 793.7 Q59.6495 793.7 57.8208 797.265 Q56.0152 800.807 56.0152 807.936 Q56.0152 815.043 57.8208 818.607 Q59.6495 822.149 63.2606 822.149 Q66.8948 822.149 68.7004 818.607 Q70.5291 815.043 70.5291 807.936 Q70.5291 800.807 68.7004 797.265 Q66.8948 793.7 63.2606 793.7 M63.2606 789.997 Q69.0707 789.997 72.1263 794.603 Q75.205 799.186 75.205 807.936 Q75.205 816.663 72.1263 821.27 Q69.0707 825.853 63.2606 825.853 Q57.4504 825.853 54.3717 821.27 Q51.3162 816.663 51.3162 807.936 Q51.3162 799.186 54.3717 794.603 Q57.4504 789.997 63.2606 789.997 Z" fill="#000000" fill-rule="nonzero" fill-opacity="1" /><path clip-path="url(#clip070)" d="M83.4225 819.302 L88.3067 819.302 L88.3067 825.182 L83.4225 825.182 L83.4225 819.302 Z" fill="#000000" fill-rule="nonzero" fill-opacity="1" /><path clip-path="url(#clip070)" d="M108.492 793.7 Q104.881 793.7 103.052 797.265 Q101.246 800.807 101.246 807.936 Q101.246 815.043 103.052 818.607 Q104.881 822.149 108.492 822.149 Q112.126 822.149 113.932 818.607 Q115.76 815.043 115.76 807.936 Q115.76 800.807 113.932 797.265 Q112.126 793.7 108.492 793.7 M108.492 789.997 Q114.302 789.997 117.358 794.603 Q120.436 799.186 120.436 807.936 Q120.436 816.663 117.358 821.27 Q114.302 825.853 108.492 825.853 Q102.682 825.853 99.603 821.27 Q96.5474 816.663 96.5474 807.936 Q96.5474 799.186 99.603 794.603 Q102.682 789.997 108.492 789.997 Z" fill="#000000" fill-rule="nonzero" fill-opacity="1" /><path clip-path="url(#clip070)" d="M138.654 793.7 Q135.043 793.7 133.214 797.265 Q131.408 800.807 131.408 807.936 Q131.408 815.043 133.214 818.607 Q135.043 822.149 138.654 822.149 Q142.288 822.149 144.093 818.607 Q145.922 815.043 145.922 807.936 Q145.922 800.807 144.093 797.265 Q142.288 793.7 138.654 793.7 M138.654 789.997 Q144.464 789.997 147.519 794.603 Q150.598 799.186 150.598 807.936 Q150.598 816.663 147.519 821.27 Q144.464 825.853 138.654 825.853 Q132.844 825.853 129.765 821.27 Q126.709 816.663 126.709 807.936 Q126.709 799.186 129.765 794.603 Q132.844 789.997 138.654 789.997 Z" fill="#000000" fill-rule="nonzero" fill-opacity="1" /><path clip-path="url(#clip070)" d="M169.394 806.038 Q166.246 806.038 164.394 808.191 Q162.566 810.344 162.566 814.094 Q162.566 817.82 164.394 819.996 Q166.246 822.149 169.394 822.149 Q172.542 822.149 174.371 819.996 Q176.223 817.82 176.223 814.094 Q176.223 810.344 174.371 808.191 Q172.542 806.038 169.394 806.038 M178.677 791.385 L178.677 795.645 Q176.917 794.811 175.112 794.372 Q173.329 793.932 171.57 793.932 Q166.941 793.932 164.487 797.057 Q162.056 800.182 161.709 806.501 Q163.075 804.487 165.135 803.422 Q167.195 802.334 169.672 802.334 Q174.88 802.334 177.89 805.506 Q180.922 808.654 180.922 814.094 Q180.922 819.418 177.774 822.635 Q174.626 825.853 169.394 825.853 Q163.399 825.853 160.228 821.27 Q157.056 816.663 157.056 807.936 Q157.056 799.742 160.945 794.881 Q164.834 789.997 171.385 789.997 Q173.144 789.997 174.927 790.344 Q176.732 790.691 178.677 791.385 Z" fill="#000000" fill-rule="nonzero" fill-opacity="1" /><path clip-path="url(#clip070)" d="M63.5152 581.096 Q59.9041 581.096 58.0754 584.66 Q56.2699 588.202 56.2699 595.332 Q56.2699 602.438 58.0754 606.003 Q59.9041 609.544 63.5152 609.544 Q67.1494 609.544 68.955 606.003 Q70.7837 602.438 70.7837 595.332 Q70.7837 588.202 68.955 584.66 Q67.1494 581.096 63.5152 581.096 M63.5152 577.392 Q69.3254 577.392 72.3809 581.998 Q75.4596 586.582 75.4596 595.332 Q75.4596 604.058 72.3809 608.665 Q69.3254 613.248 63.5152 613.248 Q57.7051 613.248 54.6264 608.665 Q51.5708 604.058 51.5708 595.332 Q51.5708 586.582 54.6264 581.998 Q57.7051 577.392 63.5152 577.392 Z" fill="#000000" fill-rule="nonzero" fill-opacity="1" /><path clip-path="url(#clip070)" d="M83.6771 606.697 L88.5614 606.697 L88.5614 612.577 L83.6771 612.577 L83.6771 606.697 Z" fill="#000000" fill-rule="nonzero" fill-opacity="1" /><path clip-path="url(#clip070)" d="M108.746 581.096 Q105.135 581.096 103.307 584.66 Q101.501 588.202 101.501 595.332 Q101.501 602.438 103.307 606.003 Q105.135 609.544 108.746 609.544 Q112.381 609.544 114.186 606.003 Q116.015 602.438 116.015 595.332 Q116.015 588.202 114.186 584.66 Q112.381 581.096 108.746 581.096 M108.746 577.392 Q114.557 577.392 117.612 581.998 Q120.691 586.582 120.691 595.332 Q120.691 604.058 117.612 608.665 Q114.557 613.248 108.746 613.248 Q102.936 613.248 99.8576 608.665 Q96.8021 604.058 96.8021 595.332 Q96.8021 586.582 99.8576 581.998 Q102.936 577.392 108.746 577.392 Z" fill="#000000" fill-rule="nonzero" fill-opacity="1" /><path clip-path="url(#clip070)" d="M138.908 581.096 Q135.297 581.096 133.469 584.66 Q131.663 588.202 131.663 595.332 Q131.663 602.438 133.469 606.003 Q135.297 609.544 138.908 609.544 Q142.543 609.544 144.348 606.003 Q146.177 602.438 146.177 595.332 Q146.177 588.202 144.348 584.66 Q142.543 581.096 138.908 581.096 M138.908 577.392 Q144.718 577.392 147.774 581.998 Q150.853 586.582 150.853 595.332 Q150.853 604.058 147.774 608.665 Q144.718 613.248 138.908 613.248 Q133.098 613.248 130.019 608.665 Q126.964 604.058 126.964 595.332 Q126.964 586.582 130.019 581.998 Q133.098 577.392 138.908 577.392 Z" fill="#000000" fill-rule="nonzero" fill-opacity="1" /><path clip-path="url(#clip070)" d="M169.07 596.165 Q165.737 596.165 163.816 597.947 Q161.917 599.73 161.917 602.855 Q161.917 605.98 163.816 607.762 Q165.737 609.544 169.07 609.544 Q172.404 609.544 174.325 607.762 Q176.246 605.956 176.246 602.855 Q176.246 599.73 174.325 597.947 Q172.427 596.165 169.07 596.165 M164.394 594.174 Q161.385 593.433 159.695 591.373 Q158.029 589.313 158.029 586.35 Q158.029 582.207 160.968 579.799 Q163.931 577.392 169.07 577.392 Q174.232 577.392 177.172 579.799 Q180.112 582.207 180.112 586.35 Q180.112 589.313 178.422 591.373 Q176.755 593.433 173.769 594.174 Q177.149 594.961 179.024 597.253 Q180.922 599.544 180.922 602.855 Q180.922 607.878 177.843 610.563 Q174.788 613.248 169.07 613.248 Q163.353 613.248 160.274 610.563 Q157.218 607.878 157.218 602.855 Q157.218 599.544 159.117 597.253 Q161.015 594.961 164.394 594.174 M162.681 586.79 Q162.681 589.475 164.348 590.98 Q166.038 592.484 169.07 592.484 Q172.079 592.484 173.769 590.98 Q175.482 589.475 175.482 586.79 Q175.482 584.105 173.769 582.6 Q172.079 581.096 169.07 581.096 Q166.038 581.096 164.348 582.6 Q162.681 584.105 162.681 586.79 Z" fill="#000000" fill-rule="nonzero" fill-opacity="1" /><path clip-path="url(#clip070)" d="M63.4226 368.491 Q59.8115 368.491 57.9828 372.056 Q56.1773 375.597 56.1773 382.727 Q56.1773 389.833 57.9828 393.398 Q59.8115 396.94 63.4226 396.94 Q67.0569 396.94 68.8624 393.398 Q70.6911 389.833 70.6911 382.727 Q70.6911 375.597 68.8624 372.056 Q67.0569 368.491 63.4226 368.491 M63.4226 364.787 Q69.2328 364.787 72.2883 369.394 Q75.367 373.977 75.367 382.727 Q75.367 391.454 72.2883 396.06 Q69.2328 400.643 63.4226 400.643 Q57.6125 400.643 54.5338 396.06 Q51.4782 391.454 51.4782 382.727 Q51.4782 373.977 54.5338 369.394 Q57.6125 364.787 63.4226 364.787 Z" fill="#000000" fill-rule="nonzero" fill-opacity="1" /><path clip-path="url(#clip070)" d="M83.5845 394.093 L88.4688 394.093 L88.4688 399.972 L83.5845 399.972 L83.5845 394.093 Z" fill="#000000" fill-rule="nonzero" fill-opacity="1" /><path clip-path="url(#clip070)" d="M108.654 368.491 Q105.043 368.491 103.214 372.056 Q101.409 375.597 101.409 382.727 Q101.409 389.833 103.214 393.398 Q105.043 396.94 108.654 396.94 Q112.288 396.94 114.094 393.398 Q115.922 389.833 115.922 382.727 Q115.922 375.597 114.094 372.056 Q112.288 368.491 108.654 368.491 M108.654 364.787 Q114.464 364.787 117.52 369.394 Q120.598 373.977 120.598 382.727 Q120.598 391.454 117.52 396.06 Q114.464 400.643 108.654 400.643 Q102.844 400.643 99.765 396.06 Q96.7095 391.454 96.7095 382.727 Q96.7095 373.977 99.765 369.394 Q102.844 364.787 108.654 364.787 Z" fill="#000000" fill-rule="nonzero" fill-opacity="1" /><path clip-path="url(#clip070)" d="M129.626 396.037 L137.265 396.037 L137.265 369.671 L128.955 371.338 L128.955 367.079 L137.219 365.412 L141.894 365.412 L141.894 396.037 L149.533 396.037 L149.533 399.972 L129.626 399.972 L129.626 396.037 Z" fill="#000000" fill-rule="nonzero" fill-opacity="1" /><path clip-path="url(#clip070)" d="M168.978 368.491 Q165.367 368.491 163.538 372.056 Q161.732 375.597 161.732 382.727 Q161.732 389.833 163.538 393.398 Q165.367 396.94 168.978 396.94 Q172.612 396.94 174.417 393.398 Q176.246 389.833 176.246 382.727 Q176.246 375.597 174.417 372.056 Q172.612 368.491 168.978 368.491 M168.978 364.787 Q174.788 364.787 177.843 369.394 Q180.922 373.977 180.922 382.727 Q180.922 391.454 177.843 396.06 Q174.788 400.643 168.978 400.643 Q163.167 400.643 160.089 396.06 Q157.033 391.454 157.033 382.727 Q157.033 373.977 160.089 369.394 Q163.167 364.787 168.978 364.787 Z" fill="#000000" fill-rule="nonzero" fill-opacity="1" /><path clip-path="url(#clip070)" d="M65.0198 155.886 Q61.4087 155.886 59.58 159.451 Q57.7745 162.993 57.7745 170.122 Q57.7745 177.229 59.58 180.793 Q61.4087 184.335 65.0198 184.335 Q68.6541 184.335 70.4596 180.793 Q72.2883 177.229 72.2883 170.122 Q72.2883 162.993 70.4596 159.451 Q68.6541 155.886 65.0198 155.886 M65.0198 152.182 Q70.83 152.182 73.8855 156.789 Q76.9642 161.372 76.9642 170.122 Q76.9642 178.849 73.8855 183.455 Q70.83 188.039 65.0198 188.039 Q59.2097 188.039 56.131 183.455 Q53.0754 178.849 53.0754 170.122 Q53.0754 161.372 56.131 156.789 Q59.2097 152.182 65.0198 152.182 Z" fill="#000000" fill-rule="nonzero" fill-opacity="1" /><path clip-path="url(#clip070)" d="M85.1818 181.488 L90.066 181.488 L90.066 187.367 L85.1818 187.367 L85.1818 181.488 Z" fill="#000000" fill-rule="nonzero" fill-opacity="1" /><path clip-path="url(#clip070)" d="M110.251 155.886 Q106.64 155.886 104.811 159.451 Q103.006 162.993 103.006 170.122 Q103.006 177.229 104.811 180.793 Q106.64 184.335 110.251 184.335 Q113.885 184.335 115.691 180.793 Q117.52 177.229 117.52 170.122 Q117.52 162.993 115.691 159.451 Q113.885 155.886 110.251 155.886 M110.251 152.182 Q116.061 152.182 119.117 156.789 Q122.195 161.372 122.195 170.122 Q122.195 178.849 119.117 183.455 Q116.061 188.039 110.251 188.039 Q104.441 188.039 101.362 183.455 Q98.3067 178.849 98.3067 170.122 Q98.3067 161.372 101.362 156.789 Q104.441 152.182 110.251 152.182 Z" fill="#000000" fill-rule="nonzero" fill-opacity="1" /><path clip-path="url(#clip070)" d="M131.223 183.432 L138.862 183.432 L138.862 157.067 L130.552 158.733 L130.552 154.474 L138.816 152.807 L143.492 152.807 L143.492 183.432 L151.13 183.432 L151.13 187.367 L131.223 187.367 L131.223 183.432 Z" fill="#000000" fill-rule="nonzero" fill-opacity="1" /><path clip-path="url(#clip070)" d="M164.603 183.432 L180.922 183.432 L180.922 187.367 L158.978 187.367 L158.978 183.432 Q161.64 180.678 166.223 176.048 Q170.829 171.395 172.01 170.053 Q174.255 167.53 175.135 165.793 Q176.038 164.034 176.038 162.344 Q176.038 159.59 174.093 157.854 Q172.172 156.118 169.07 156.118 Q166.871 156.118 164.417 156.881 Q161.987 157.645 159.209 159.196 L159.209 154.474 Q162.033 153.34 164.487 152.761 Q166.941 152.182 168.978 152.182 Q174.348 152.182 177.542 154.868 Q180.737 157.553 180.737 162.043 Q180.737 164.173 179.927 166.094 Q179.14 167.992 177.033 170.585 Q176.454 171.256 173.353 174.474 Q170.251 177.668 164.603 183.432 Z" fill="#000000" fill-rule="nonzero" fill-opacity="1" /><polyline clip-path="url(#clip072)" style="stroke:#009af9; stroke-linecap:round; stroke-linejoin:round; stroke-width:4; stroke-opacity:1; fill:none" points="277.37,1445.72 297.519,1433.46 317.669,1420.13 337.818,1405.73 357.968,1390.26 378.117,1373.73 398.266,1356.15 418.416,1337.53 438.565,1317.9 458.715,1297.26 478.864,1275.65 499.013,1253.09 519.163,1229.61 539.312,1205.25 559.461,1180.03 579.611,1154.01 599.76,1127.21 619.91,1099.69 640.059,1071.5 660.208,1042.68 680.358,1013.28 700.507,983.372 720.656,953.002 740.806,922.231 760.955,891.121 781.105,859.735 801.254,828.138 821.403,796.396 841.553,764.577 861.702,732.748 881.851,700.978 902.001,669.337 922.15,637.894 942.3,606.72 962.449,575.884 982.598,545.455 1002.75,515.503 1022.9,486.095 1043.05,457.299 1063.2,429.181 1083.35,401.804 1103.49,375.232 1123.64,349.526 1143.79,324.744 1163.94,300.945 1184.09,278.181 1204.24,256.506 1224.39,235.969 1244.54,216.615 1264.69,198.489 1284.84,181.63 1304.99,166.076 1325.14,151.861 1345.29,139.014 1365.44,127.563 1385.59,117.532 1405.74,108.938 1425.88,101.799 1446.03,96.1268 1466.18,91.9297 1486.33,89.2125 1506.48,87.9763 1526.63,88.2184 1546.78,89.9326 1566.93,93.1091 1587.08,97.7342 1607.23,103.791 1627.38,111.26 1647.53,120.116 1667.68,130.334 1687.83,141.883 1707.98,154.73 1728.13,168.841 1748.27,184.176 1768.42,200.695 1788.57,218.354 1808.72,237.109 1828.87,256.911 1849.02,277.712 1869.17,299.46 1889.32,322.103 1909.47,345.588 1929.62,369.858 1949.77,394.858 1969.92,420.532 1990.07,446.821 2010.22,473.668 2030.37,501.015 2050.52,528.804 2070.66,556.977 2090.81,585.475 2110.96,614.242 2131.11,643.22 2151.26,672.355 2171.41,701.589 2191.56,730.87 2211.71,760.144 2231.86,789.36 2252.01,818.468 2272.16,847.418 2292.31,876.163 "/>
<polyline clip-path="url(#clip072)" style="stroke:#e26f46; stroke-linecap:round; stroke-linejoin:round; stroke-width:4; stroke-opacity:1; fill:none" points="277.37,1445.72 287.445,1442.69 297.519,1439.53 307.594,1436.23 317.669,1432.8 327.744,1429.24 337.818,1425.54 347.893,1421.71 357.968,1417.74 368.042,1413.64 378.117,1409.41 388.192,1405.05 398.266,1400.56 408.341,1395.94 418.416,1391.19 428.49,1386.31 438.565,1381.31 448.64,1376.18 458.715,1370.93 468.789,1365.56 478.864,1360.07 488.939,1354.46 499.013,1348.73 509.088,1342.89 519.163,1336.93 529.237,1330.87 539.312,1324.7 549.387,1318.42 559.461,1312.04 569.536,1305.56 579.611,1298.98 589.685,1292.3 599.76,1285.54 609.835,1278.68 619.91,1271.73 629.984,1264.71 640.059,1257.6 650.134,1250.42 660.208,1243.16 670.283,1235.83 680.358,1228.43 690.432,1220.97 700.507,1213.45 710.582,1205.88 720.656,1198.25 730.731,1190.57 740.806,1182.85 750.88,1175.08 760.955,1167.28 771.03,1159.45 781.105,1151.59 791.179,1143.7 801.254,1135.79 811.329,1127.86 821.403,1119.93 831.478,1111.98 841.553,1104.03 851.627,1096.08 861.702,1088.13 871.777,1080.2 881.851,1072.27 891.926,1064.37 902.001,1056.48 912.075,1048.62 922.15,1040.8 932.225,1033.01 942.3,1025.25 952.374,1017.54 962.449,1009.88 972.524,1002.27 982.598,994.721 992.673,987.23 1002.75,979.804 1012.82,972.447 1022.9,965.164 1032.97,957.959 1043.05,950.835 1053.12,943.798 1063.2,936.85 1073.27,929.996 1083.35,923.24 1093.42,916.586 1103.49,910.037 1113.57,903.598 1123.64,897.272 1133.72,891.062 1143.79,884.972 1153.87,879.006 1163.94,873.167 1174.02,867.459 1184.09,861.884 1194.17,856.445 1204.24,851.147 1214.32,845.991 1224.39,840.981 1234.47,836.12 1244.54,831.41 1254.61,826.854 1264.69,822.454 1274.76,818.213 1284.84,814.133 1294.91,810.216 1304.99,806.465 1315.06,802.881 1325.14,799.467 1335.21,796.224 1345.29,793.154 1355.36,790.258 1365.44,787.538 1375.51,784.995 1385.59,782.63 1395.66,780.445 1405.74,778.441 1415.81,776.618 1425.88,774.977 1435.96,773.52 1446.03,772.245 1456.11,771.154 1466.18,770.248 1476.26,769.526 1486.33,768.988 1496.41,768.634 1506.48,768.465 1516.56,768.48 1526.63,768.678 1536.71,769.059 1546.78,769.623 1556.86,770.368 1566.93,771.295 1577,772.401 1587.08,773.686 1597.15,775.15 1607.23,776.789 1617.3,778.604 1627.38,780.593 1637.45,782.753 1647.53,785.085 1657.6,787.585 1667.68,790.252 1677.75,793.084 1687.83,796.078 1697.9,799.234 1707.98,802.549 1718.05,806.019 1728.13,809.644 1738.2,813.42 1748.27,817.346 1758.35,821.417 1768.42,825.633 1778.5,829.989 1788.57,834.484 1798.65,839.113 1808.72,843.876 1818.8,848.767 1828.87,853.785 1838.95,858.926 1849.02,864.187 1859.1,869.565 1869.17,875.057 1879.25,880.658 1889.32,886.367 1899.39,892.179 1909.47,898.092 1919.54,904.101 1929.62,910.203 1939.69,916.395 1949.77,922.674 1959.84,929.035 1969.92,935.475 1979.99,941.99 1990.07,948.578 2000.14,955.234 2010.22,961.955 2020.29,968.736 2030.37,975.576 2040.44,982.469 2050.52,989.413 2060.59,996.403 2070.66,1003.44 2080.74,1010.51 2090.81,1017.62 2100.89,1024.76 2110.96,1031.93 2121.04,1039.13 2131.11,1046.35 2141.19,1053.58 2151.26,1060.83 2161.34,1068.1 2171.41,1075.37 2181.49,1082.65 2191.56,1089.92 2201.64,1097.2 2211.71,1104.47 2221.78,1111.74 2231.86,1118.99 2241.93,1126.23 2252.01,1133.45 2262.08,1140.65 2272.16,1147.83 2282.23,1154.98 2292.31,1162.11 "/>
<path clip-path="url(#clip070)" d="M288.116 250.738 L665.372 250.738 L665.372 95.2176 L288.116 95.2176  Z" fill="#ffffff" fill-rule="evenodd" fill-opacity="1"/>
<polyline clip-path="url(#clip070)" style="stroke:#000000; stroke-linecap:round; stroke-linejoin:round; stroke-width:4; stroke-opacity:1; fill:none" points="288.116,250.738 665.372,250.738 665.372,95.2176 288.116,95.2176 288.116,250.738 "/>
<polyline clip-path="url(#clip070)" style="stroke:#009af9; stroke-linecap:round; stroke-linejoin:round; stroke-width:4; stroke-opacity:1; fill:none" points="311.848,147.058 454.237,147.058 "/>
<path clip-path="url(#clip070)" d="M503.967 155.492 Q503.967 155.679 503.756 156.405 Q503.546 157.131 503.03 158.256 Q502.538 159.38 501.859 160.41 Q501.18 161.418 500.056 162.167 Q498.955 162.893 497.69 162.893 Q496.004 162.893 494.879 161.769 Q493.755 160.645 493.755 158.958 Q493.755 158.021 494.247 156.733 Q497.362 148.418 497.362 145.561 Q497.362 142.211 494.762 142.211 Q493.474 142.211 492.256 142.703 Q491.061 143.171 490.242 143.827 Q489.422 144.483 488.672 145.397 Q487.946 146.287 487.572 146.896 Q487.22 147.481 486.939 148.067 L486.33 150.456 Q486.19 151.112 485.51 153.665 L484.456 157.998 Q483.707 161.23 483.543 161.535 Q483.309 162.19 482.793 162.542 Q482.278 162.893 481.763 162.893 Q481.177 162.893 480.779 162.542 Q480.381 162.19 480.381 161.581 Q480.381 161.488 480.451 161.136 Q480.521 160.785 480.639 160.293 Q480.756 159.801 480.802 159.52 L483.59 148.441 Q484.105 146.427 484.222 145.795 Q484.363 145.139 484.363 144.413 Q484.363 142.211 482.864 142.211 Q481.646 142.211 480.849 143.663 Q480.053 145.116 479.374 147.926 Q479.163 148.699 479.022 148.863 Q478.905 149.027 478.554 149.027 Q477.968 149.004 477.968 148.535 Q477.968 148.418 478.156 147.645 Q478.343 146.872 478.694 145.771 Q479.069 144.647 479.421 143.898 Q479.725 143.335 479.889 143.078 Q480.076 142.797 480.521 142.258 Q480.99 141.696 481.599 141.438 Q482.231 141.157 483.004 141.157 Q484.737 141.157 486.002 142.281 Q487.267 143.382 487.431 145.326 Q490.546 141.157 494.903 141.157 Q497.479 141.157 498.955 142.516 Q500.43 143.874 500.43 146.287 Q500.43 146.849 500.313 147.575 Q500.22 148.278 499.985 149.168 Q499.775 150.058 499.587 150.737 Q499.4 151.416 499.025 152.517 Q498.65 153.594 498.486 154.063 Q498.322 154.531 497.924 155.632 Q497.55 156.71 497.503 156.827 Q496.636 159.005 496.636 160.246 Q496.636 161.066 496.894 161.441 Q497.175 161.816 497.784 161.816 Q499.423 161.816 500.641 160.2 Q501.883 158.56 502.679 155.89 Q502.866 155.304 502.96 155.164 Q503.077 155.023 503.405 155.023 Q503.967 155.023 503.967 155.492 Z" fill="#000000" fill-rule="nonzero" fill-opacity="1" /><path clip-path="url(#clip070)" d="M519.754 155.07 Q519.801 154.484 520.715 154.484 L550.11 154.484 Q551.492 154.484 551.515 155.023 Q551.515 155.609 550.204 155.585 L521.043 155.585 Q519.754 155.609 519.754 155.07 M519.754 145.701 Q519.754 145.116 520.762 145.139 L550.063 145.139 Q551.492 145.139 551.515 145.701 Q551.515 146.24 550.297 146.24 L520.715 146.24 Q519.754 146.24 519.754 145.701 Z" fill="#000000" fill-rule="nonzero" fill-opacity="1" /><path clip-path="url(#clip070)" d="M570.006 134.974 L570.006 133.475 Q575.768 133.475 578.743 130.406 Q579.563 130.406 579.703 130.594 Q579.844 130.781 579.844 131.648 L579.844 158.56 Q579.844 159.989 580.546 160.434 Q581.249 160.879 584.317 160.879 L585.84 160.879 L585.84 162.354 Q584.153 162.214 578.064 162.214 Q571.974 162.214 570.311 162.354 L570.311 160.879 L571.833 160.879 Q574.855 160.879 575.581 160.457 Q576.307 160.012 576.307 158.56 L576.307 133.709 Q573.801 134.974 570.006 134.974 Z" fill="#000000" fill-rule="nonzero" fill-opacity="1" /><path clip-path="url(#clip070)" d="M588.153 147.013 Q588.153 139.963 589.933 136.121 Q592.416 130.406 598.272 130.406 Q599.513 130.406 600.801 130.758 Q602.113 131.085 603.753 132.374 Q605.416 133.662 606.423 135.77 Q608.343 139.845 608.343 147.013 Q608.343 154.016 606.563 157.834 Q603.963 163.408 598.225 163.408 Q596.07 163.408 593.868 162.308 Q591.69 161.207 590.308 158.56 Q588.153 154.602 588.153 147.013 M592.135 146.427 Q592.135 153.665 592.65 156.546 Q593.236 159.661 594.829 161.019 Q596.445 162.354 598.225 162.354 Q600.146 162.354 601.738 160.926 Q603.354 159.473 603.846 156.358 Q604.385 153.29 604.362 146.427 Q604.362 139.752 603.893 137.082 Q603.261 133.966 601.574 132.725 Q599.911 131.46 598.225 131.46 Q597.592 131.46 596.913 131.648 Q596.257 131.835 595.297 132.374 Q594.337 132.912 593.587 134.247 Q592.861 135.583 592.51 137.597 Q592.135 140.197 592.135 146.427 Z" fill="#000000" fill-rule="nonzero" fill-opacity="1" /><path clip-path="url(#clip070)" d="M612.095 147.013 Q612.095 139.963 613.875 136.121 Q616.358 130.406 622.214 130.406 Q623.455 130.406 624.743 130.758 Q626.055 131.085 627.695 132.374 Q629.358 133.662 630.365 135.77 Q632.285 139.845 632.285 147.013 Q632.285 154.016 630.505 157.834 Q627.905 163.408 622.167 163.408 Q620.012 163.408 617.81 162.308 Q615.632 161.207 614.25 158.56 Q612.095 154.602 612.095 147.013 M616.077 146.427 Q616.077 153.665 616.592 156.546 Q617.178 159.661 618.771 161.019 Q620.387 162.354 622.167 162.354 Q624.088 162.354 625.68 160.926 Q627.296 159.473 627.788 156.358 Q628.327 153.29 628.304 146.427 Q628.304 139.752 627.835 137.082 Q627.203 133.966 625.516 132.725 Q623.853 131.46 622.167 131.46 Q621.534 131.46 620.855 131.648 Q620.199 131.835 619.239 132.374 Q618.279 132.912 617.529 134.247 Q616.803 135.583 616.452 137.597 Q616.077 140.197 616.077 146.427 Z" fill="#000000" fill-rule="nonzero" fill-opacity="1" /><polyline clip-path="url(#clip070)" style="stroke:#e26f46; stroke-linecap:round; stroke-linejoin:round; stroke-width:4; stroke-opacity:1; fill:none" points="311.848,198.898 454.237,198.898 "/>
<path clip-path="url(#clip070)" d="M503.967 207.332 Q503.967 207.519 503.756 208.245 Q503.546 208.971 503.03 210.096 Q502.538 211.22 501.859 212.25 Q501.18 213.258 500.056 214.007 Q498.955 214.733 497.69 214.733 Q496.004 214.733 494.879 213.609 Q493.755 212.485 493.755 210.798 Q493.755 209.861 494.247 208.573 Q497.362 200.258 497.362 197.401 Q497.362 194.051 494.762 194.051 Q493.474 194.051 492.256 194.543 Q491.061 195.011 490.242 195.667 Q489.422 196.323 488.672 197.237 Q487.946 198.127 487.572 198.736 Q487.22 199.321 486.939 199.907 L486.33 202.296 Q486.19 202.952 485.51 205.505 L484.456 209.838 Q483.707 213.07 483.543 213.375 Q483.309 214.03 482.793 214.382 Q482.278 214.733 481.763 214.733 Q481.177 214.733 480.779 214.382 Q480.381 214.03 480.381 213.421 Q480.381 213.328 480.451 212.976 Q480.521 212.625 480.639 212.133 Q480.756 211.641 480.802 211.36 L483.59 200.281 Q484.105 198.267 484.222 197.635 Q484.363 196.979 484.363 196.253 Q484.363 194.051 482.864 194.051 Q481.646 194.051 480.849 195.503 Q480.053 196.956 479.374 199.766 Q479.163 200.539 479.022 200.703 Q478.905 200.867 478.554 200.867 Q477.968 200.844 477.968 200.375 Q477.968 200.258 478.156 199.485 Q478.343 198.712 478.694 197.611 Q479.069 196.487 479.421 195.738 Q479.725 195.175 479.889 194.918 Q480.076 194.637 480.521 194.098 Q480.99 193.536 481.599 193.278 Q482.231 192.997 483.004 192.997 Q484.737 192.997 486.002 194.121 Q487.267 195.222 487.431 197.166 Q490.546 192.997 494.903 192.997 Q497.479 192.997 498.955 194.356 Q500.43 195.714 500.43 198.127 Q500.43 198.689 500.313 199.415 Q500.22 200.118 499.985 201.008 Q499.775 201.898 499.587 202.577 Q499.4 203.256 499.025 204.357 Q498.65 205.434 498.486 205.903 Q498.322 206.371 497.924 207.472 Q497.55 208.55 497.503 208.667 Q496.636 210.845 496.636 212.086 Q496.636 212.906 496.894 213.281 Q497.175 213.656 497.784 213.656 Q499.423 213.656 500.641 212.04 Q501.883 210.4 502.679 207.73 Q502.866 207.144 502.96 207.004 Q503.077 206.863 503.405 206.863 Q503.967 206.863 503.967 207.332 Z" fill="#000000" fill-rule="nonzero" fill-opacity="1" /><path clip-path="url(#clip070)" d="M519.754 206.91 Q519.801 206.324 520.715 206.324 L550.11 206.324 Q551.492 206.324 551.515 206.863 Q551.515 207.449 550.204 207.425 L521.043 207.425 Q519.754 207.449 519.754 206.91 M519.754 197.541 Q519.754 196.956 520.762 196.979 L550.063 196.979 Q551.492 196.979 551.515 197.541 Q551.515 198.08 550.297 198.08 L520.715 198.08 Q519.754 198.08 519.754 197.541 Z" fill="#000000" fill-rule="nonzero" fill-opacity="1" /><path clip-path="url(#clip070)" d="M570.006 214.194 Q570.006 213.328 570.076 213.07 Q570.17 212.813 570.545 212.414 L579.75 202.155 Q584.786 196.487 584.786 191.545 Q584.786 188.336 583.099 186.041 Q581.436 183.745 578.368 183.745 Q576.26 183.745 574.48 185.033 Q572.7 186.322 571.88 188.617 Q572.021 188.57 572.512 188.57 Q573.707 188.57 574.363 189.32 Q575.042 190.069 575.042 191.076 Q575.042 192.365 574.199 192.997 Q573.379 193.606 572.559 193.606 Q572.231 193.606 571.786 193.536 Q571.365 193.466 570.685 192.81 Q570.006 192.13 570.006 190.936 Q570.006 187.587 572.536 184.916 Q575.089 182.246 578.977 182.246 Q583.38 182.246 586.261 184.87 Q589.166 187.469 589.166 191.545 Q589.166 192.974 588.721 194.285 Q588.299 195.574 587.714 196.581 Q587.151 197.588 585.606 199.204 Q584.06 200.82 582.818 201.968 Q581.577 203.116 578.79 205.552 L573.707 210.494 L582.35 210.494 Q586.566 210.494 586.894 210.119 Q587.362 209.44 587.948 205.856 L589.166 205.856 L587.807 214.194 L570.006 214.194 Z" fill="#000000" fill-rule="nonzero" fill-opacity="1" /><path clip-path="url(#clip070)" d="M593.948 198.853 Q593.948 191.803 595.728 187.961 Q598.211 182.246 604.067 182.246 Q605.308 182.246 606.596 182.598 Q607.908 182.925 609.548 184.214 Q611.211 185.502 612.218 187.61 Q614.138 191.685 614.138 198.853 Q614.138 205.856 612.358 209.674 Q609.758 215.248 604.02 215.248 Q601.865 215.248 599.663 214.148 Q597.485 213.047 596.103 210.4 Q593.948 206.442 593.948 198.853 M597.93 198.267 Q597.93 205.505 598.445 208.386 Q599.031 211.501 600.624 212.859 Q602.24 214.194 604.02 214.194 Q605.941 214.194 607.533 212.766 Q609.149 211.313 609.641 208.198 Q610.18 205.13 610.157 198.267 Q610.157 191.592 609.688 188.922 Q609.056 185.806 607.369 184.565 Q605.706 183.3 604.02 183.3 Q603.387 183.3 602.708 183.488 Q602.052 183.675 601.092 184.214 Q600.132 184.752 599.382 186.087 Q598.656 187.423 598.305 189.437 Q597.93 192.037 597.93 198.267 Z" fill="#000000" fill-rule="nonzero" fill-opacity="1" /><path clip-path="url(#clip070)" d="M617.89 198.853 Q617.89 191.803 619.67 187.961 Q622.153 182.246 628.009 182.246 Q629.25 182.246 630.538 182.598 Q631.85 182.925 633.49 184.214 Q635.153 185.502 636.16 187.61 Q638.08 191.685 638.08 198.853 Q638.08 205.856 636.3 209.674 Q633.7 215.248 627.962 215.248 Q625.807 215.248 623.605 214.148 Q621.427 213.047 620.045 210.4 Q617.89 206.442 617.89 198.853 M621.872 198.267 Q621.872 205.505 622.387 208.386 Q622.973 211.501 624.566 212.859 Q626.182 214.194 627.962 214.194 Q629.883 214.194 631.475 212.766 Q633.091 211.313 633.583 208.198 Q634.122 205.13 634.099 198.267 Q634.099 191.592 633.63 188.922 Q632.998 185.806 631.311 184.565 Q629.648 183.3 627.962 183.3 Q627.329 183.3 626.65 183.488 Q625.994 183.675 625.034 184.214 Q624.074 184.752 623.324 186.087 Q622.598 187.423 622.247 189.437 Q621.872 192.037 621.872 198.267 Z" fill="#000000" fill-rule="nonzero" fill-opacity="1" /></svg>
