<?xml version="1.0" encoding="utf-8"?>
<svg xmlns="http://www.w3.org/2000/svg" xmlns:xlink="http://www.w3.org/1999/xlink" width="600" height="400" viewBox="0 0 2400 1600">
<defs>
  <clipPath id="clip360">
    <rect x="0" y="0" width="2400" height="1600"/>
  </clipPath>
</defs>
<path clip-path="url(#clip360)" d="M0 1600 L2400 1600 L2400 0 L0 0  Z" fill="#ffffff" fill-rule="evenodd" fill-opacity="1"/>
<defs>
  <clipPath id="clip361">
    <rect x="480" y="0" width="1681" height="1600"/>
  </clipPath>
</defs>
<path clip-path="url(#clip360)" d="M184.191 1486.45 L2352.76 1486.45 L2352.76 47.2441 L184.191 47.2441  Z" fill="#ffffff" fill-rule="evenodd" fill-opacity="1"/>
<defs>
  <clipPath id="clip362">
    <rect x="184" y="47" width="2170" height="1440"/>
  </clipPath>
</defs>
<polyline clip-path="url(#clip362)" style="stroke:#000000; stroke-linecap:round; stroke-linejoin:round; stroke-width:2; stroke-opacity:0.1; fill:none" points="450.147,1486.45 450.147,47.2441 "/>
<polyline clip-path="url(#clip362)" style="stroke:#000000; stroke-linecap:round; stroke-linejoin:round; stroke-width:2; stroke-opacity:0.1; fill:none" points="859.31,1486.45 859.31,47.2441 "/>
<polyline clip-path="url(#clip362)" style="stroke:#000000; stroke-linecap:round; stroke-linejoin:round; stroke-width:2; stroke-opacity:0.1; fill:none" points="1268.47,1486.45 1268.47,47.2441 "/>
<polyline clip-path="url(#clip362)" style="stroke:#000000; stroke-linecap:round; stroke-linejoin:round; stroke-width:2; stroke-opacity:0.1; fill:none" points="1677.64,1486.45 1677.64,47.2441 "/>
<polyline clip-path="url(#clip362)" style="stroke:#000000; stroke-linecap:round; stroke-linejoin:round; stroke-width:2; stroke-opacity:0.1; fill:none" points="2086.8,1486.45 2086.8,47.2441 "/>
<polyline clip-path="url(#clip362)" style="stroke:#000000; stroke-linecap:round; stroke-linejoin:round; stroke-width:2; stroke-opacity:0.1; fill:none" points="184.191,1427.58 2352.76,1427.58 "/>
<polyline clip-path="url(#clip362)" style="stroke:#000000; stroke-linecap:round; stroke-linejoin:round; stroke-width:2; stroke-opacity:0.1; fill:none" points="184.191,1191.75 2352.76,1191.75 "/>
<polyline clip-path="url(#clip362)" style="stroke:#000000; stroke-linecap:round; stroke-linejoin:round; stroke-width:2; stroke-opacity:0.1; fill:none" points="184.191,955.919 2352.76,955.919 "/>
<polyline clip-path="url(#clip362)" style="stroke:#000000; stroke-linecap:round; stroke-linejoin:round; stroke-width:2; stroke-opacity:0.1; fill:none" points="184.191,720.089 2352.76,720.089 "/>
<polyline clip-path="url(#clip362)" style="stroke:#000000; stroke-linecap:round; stroke-linejoin:round; stroke-width:2; stroke-opacity:0.1; fill:none" points="184.191,484.259 2352.76,484.259 "/>
<polyline clip-path="url(#clip362)" style="stroke:#000000; stroke-linecap:round; stroke-linejoin:round; stroke-width:2; stroke-opacity:0.1; fill:none" points="184.191,248.429 2352.76,248.429 "/>
<polyline clip-path="url(#clip360)" style="stroke:#000000; stroke-linecap:round; stroke-linejoin:round; stroke-width:4; stroke-opacity:1; fill:none" points="184.191,1486.45 2352.76,1486.45 "/>
<polyline clip-path="url(#clip360)" style="stroke:#000000; stroke-linecap:round; stroke-linejoin:round; stroke-width:4; stroke-opacity:1; fill:none" points="450.147,1486.45 450.147,1467.55 "/>
<polyline clip-path="url(#clip360)" style="stroke:#000000; stroke-linecap:round; stroke-linejoin:round; stroke-width:4; stroke-opacity:1; fill:none" points="859.31,1486.45 859.31,1467.55 "/>
<polyline clip-path="url(#clip360)" style="stroke:#000000; stroke-linecap:round; stroke-linejoin:round; stroke-width:4; stroke-opacity:1; fill:none" points="1268.47,1486.45 1268.47,1467.55 "/>
<polyline clip-path="url(#clip360)" style="stroke:#000000; stroke-linecap:round; stroke-linejoin:round; stroke-width:4; stroke-opacity:1; fill:none" points="1677.64,1486.45 1677.64,1467.55 "/>
<polyline clip-path="url(#clip360)" style="stroke:#000000; stroke-linecap:round; stroke-linejoin:round; stroke-width:4; stroke-opacity:1; fill:none" points="2086.8,1486.45 2086.8,1467.55 "/>
<path clip-path="url(#clip360)" d="M396.432 1532.02 L426.108 1532.02 L426.108 1535.95 L396.432 1535.95 L396.432 1532.02 Z" fill="#000000" fill-rule="nonzero" fill-opacity="1" /><path clip-path="url(#clip360)" d="M446.2 1517.37 Q442.589 1517.37 440.76 1520.93 Q438.955 1524.47 438.955 1531.6 Q438.955 1538.71 440.76 1542.27 Q442.589 1545.82 446.2 1545.82 Q449.834 1545.82 451.64 1542.27 Q453.469 1538.71 453.469 1531.6 Q453.469 1524.47 451.64 1520.93 Q449.834 1517.37 446.2 1517.37 M446.2 1513.66 Q452.01 1513.66 455.066 1518.27 Q458.144 1522.85 458.144 1531.6 Q458.144 1540.33 455.066 1544.94 Q452.01 1549.52 446.2 1549.52 Q440.39 1549.52 437.311 1544.94 Q434.256 1540.33 434.256 1531.6 Q434.256 1522.85 437.311 1518.27 Q440.39 1513.66 446.2 1513.66 Z" fill="#000000" fill-rule="nonzero" fill-opacity="1" /><path clip-path="url(#clip360)" d="M466.362 1542.97 L471.246 1542.97 L471.246 1548.85 L466.362 1548.85 L466.362 1542.97 Z" fill="#000000" fill-rule="nonzero" fill-opacity="1" /><path clip-path="url(#clip360)" d="M494.278 1518.36 L482.473 1536.81 L494.278 1536.81 L494.278 1518.36 M493.052 1514.29 L498.931 1514.29 L498.931 1536.81 L503.862 1536.81 L503.862 1540.7 L498.931 1540.7 L498.931 1548.85 L494.278 1548.85 L494.278 1540.7 L478.677 1540.7 L478.677 1536.19 L493.052 1514.29 Z" fill="#000000" fill-rule="nonzero" fill-opacity="1" /><path clip-path="url(#clip360)" d="M806.637 1532.02 L836.312 1532.02 L836.312 1535.95 L806.637 1535.95 L806.637 1532.02 Z" fill="#000000" fill-rule="nonzero" fill-opacity="1" /><path clip-path="url(#clip360)" d="M856.405 1517.37 Q852.794 1517.37 850.965 1520.93 Q849.16 1524.47 849.16 1531.6 Q849.16 1538.71 850.965 1542.27 Q852.794 1545.82 856.405 1545.82 Q860.039 1545.82 861.845 1542.27 Q863.673 1538.71 863.673 1531.6 Q863.673 1524.47 861.845 1520.93 Q860.039 1517.37 856.405 1517.37 M856.405 1513.66 Q862.215 1513.66 865.271 1518.27 Q868.349 1522.85 868.349 1531.6 Q868.349 1540.33 865.271 1544.94 Q862.215 1549.52 856.405 1549.52 Q850.595 1549.52 847.516 1544.94 Q844.461 1540.33 844.461 1531.6 Q844.461 1522.85 847.516 1518.27 Q850.595 1513.66 856.405 1513.66 Z" fill="#000000" fill-rule="nonzero" fill-opacity="1" /><path clip-path="url(#clip360)" d="M876.567 1542.97 L881.451 1542.97 L881.451 1548.85 L876.567 1548.85 L876.567 1542.97 Z" fill="#000000" fill-rule="nonzero" fill-opacity="1" /><path clip-path="url(#clip360)" d="M895.664 1544.91 L911.983 1544.91 L911.983 1548.85 L890.039 1548.85 L890.039 1544.91 Q892.701 1542.16 897.284 1537.53 Q901.891 1532.88 903.071 1531.53 Q905.317 1529.01 906.196 1527.27 Q907.099 1525.51 907.099 1523.82 Q907.099 1521.07 905.155 1519.33 Q903.233 1517.6 900.132 1517.6 Q897.933 1517.6 895.479 1518.36 Q893.048 1519.13 890.271 1520.68 L890.271 1515.95 Q893.095 1514.82 895.548 1514.24 Q898.002 1513.66 900.039 1513.66 Q905.409 1513.66 908.604 1516.35 Q911.798 1519.03 911.798 1523.52 Q911.798 1525.65 910.988 1527.57 Q910.201 1529.47 908.095 1532.07 Q907.516 1532.74 904.414 1535.95 Q901.312 1539.15 895.664 1544.91 Z" fill="#000000" fill-rule="nonzero" fill-opacity="1" /><path clip-path="url(#clip360)" d="M1245.86 1517.37 Q1242.25 1517.37 1240.42 1520.93 Q1238.61 1524.47 1238.61 1531.6 Q1238.61 1538.71 1240.42 1542.27 Q1242.25 1545.82 1245.86 1545.82 Q1249.49 1545.82 1251.3 1542.27 Q1253.13 1538.71 1253.13 1531.6 Q1253.13 1524.47 1251.3 1520.93 Q1249.49 1517.37 1245.86 1517.37 M1245.86 1513.66 Q1251.67 1513.66 1254.72 1518.27 Q1257.8 1522.85 1257.8 1531.6 Q1257.8 1540.33 1254.72 1544.94 Q1251.67 1549.52 1245.86 1549.52 Q1240.05 1549.52 1236.97 1544.94 Q1233.91 1540.33 1233.91 1531.6 Q1233.91 1522.85 1236.97 1518.27 Q1240.05 1513.66 1245.86 1513.66 Z" fill="#000000" fill-rule="nonzero" fill-opacity="1" /><path clip-path="url(#clip360)" d="M1266.02 1542.97 L1270.9 1542.97 L1270.9 1548.85 L1266.02 1548.85 L1266.02 1542.97 Z" fill="#000000" fill-rule="nonzero" fill-opacity="1" /><path clip-path="url(#clip360)" d="M1291.09 1517.37 Q1287.48 1517.37 1285.65 1520.93 Q1283.84 1524.47 1283.84 1531.6 Q1283.84 1538.71 1285.65 1542.27 Q1287.48 1545.82 1291.09 1545.82 Q1294.72 1545.82 1296.53 1542.27 Q1298.36 1538.71 1298.36 1531.6 Q1298.36 1524.47 1296.53 1520.93 Q1294.72 1517.37 1291.09 1517.37 M1291.09 1513.66 Q1296.9 1513.66 1299.95 1518.27 Q1303.03 1522.85 1303.03 1531.6 Q1303.03 1540.33 1299.95 1544.94 Q1296.9 1549.52 1291.09 1549.52 Q1285.28 1549.52 1282.2 1544.94 Q1279.14 1540.33 1279.14 1531.6 Q1279.14 1522.85 1282.2 1518.27 Q1285.28 1513.66 1291.09 1513.66 Z" fill="#000000" fill-rule="nonzero" fill-opacity="1" /><path clip-path="url(#clip360)" d="M1655.82 1517.37 Q1652.21 1517.37 1650.38 1520.93 Q1648.57 1524.47 1648.57 1531.6 Q1648.57 1538.71 1650.38 1542.27 Q1652.21 1545.82 1655.82 1545.82 Q1659.45 1545.82 1661.26 1542.27 Q1663.09 1538.71 1663.09 1531.6 Q1663.09 1524.47 1661.26 1520.93 Q1659.45 1517.37 1655.82 1517.37 M1655.82 1513.66 Q1661.63 1513.66 1664.69 1518.27 Q1667.76 1522.85 1667.76 1531.6 Q1667.76 1540.33 1664.69 1544.94 Q1661.63 1549.52 1655.82 1549.52 Q1650.01 1549.52 1646.93 1544.94 Q1643.88 1540.33 1643.88 1531.6 Q1643.88 1522.85 1646.93 1518.27 Q1650.01 1513.66 1655.82 1513.66 Z" fill="#000000" fill-rule="nonzero" fill-opacity="1" /><path clip-path="url(#clip360)" d="M1675.98 1542.97 L1680.87 1542.97 L1680.87 1548.85 L1675.98 1548.85 L1675.98 1542.97 Z" fill="#000000" fill-rule="nonzero" fill-opacity="1" /><path clip-path="url(#clip360)" d="M1695.08 1544.91 L1711.4 1544.91 L1711.4 1548.85 L1689.45 1548.85 L1689.45 1544.91 Q1692.12 1542.16 1696.7 1537.53 Q1701.31 1532.88 1702.49 1531.53 Q1704.73 1529.01 1705.61 1527.27 Q1706.51 1525.51 1706.51 1523.82 Q1706.51 1521.07 1704.57 1519.33 Q1702.65 1517.6 1699.55 1517.6 Q1697.35 1517.6 1694.89 1518.36 Q1692.46 1519.13 1689.69 1520.68 L1689.69 1515.95 Q1692.51 1514.82 1694.96 1514.24 Q1697.42 1513.66 1699.45 1513.66 Q1704.82 1513.66 1708.02 1516.35 Q1711.21 1519.03 1711.21 1523.52 Q1711.21 1525.65 1710.4 1527.57 Q1709.62 1529.47 1707.51 1532.07 Q1706.93 1532.74 1703.83 1535.95 Q1700.73 1539.15 1695.08 1544.91 Z" fill="#000000" fill-rule="nonzero" fill-opacity="1" /><path clip-path="url(#clip360)" d="M2063.94 1517.37 Q2060.33 1517.37 2058.5 1520.93 Q2056.7 1524.47 2056.7 1531.6 Q2056.7 1538.71 2058.5 1542.27 Q2060.33 1545.82 2063.94 1545.82 Q2067.58 1545.82 2069.38 1542.27 Q2071.21 1538.71 2071.21 1531.6 Q2071.21 1524.47 2069.38 1520.93 Q2067.58 1517.37 2063.94 1517.37 M2063.94 1513.66 Q2069.75 1513.66 2072.81 1518.27 Q2075.89 1522.85 2075.89 1531.6 Q2075.89 1540.33 2072.81 1544.94 Q2069.75 1549.52 2063.94 1549.52 Q2058.13 1549.52 2055.05 1544.94 Q2052 1540.33 2052 1531.6 Q2052 1522.85 2055.05 1518.27 Q2058.13 1513.66 2063.94 1513.66 Z" fill="#000000" fill-rule="nonzero" fill-opacity="1" /><path clip-path="url(#clip360)" d="M2084.1 1542.97 L2088.99 1542.97 L2088.99 1548.85 L2084.1 1548.85 L2084.1 1542.97 Z" fill="#000000" fill-rule="nonzero" fill-opacity="1" /><path clip-path="url(#clip360)" d="M2112.02 1518.36 L2100.21 1536.81 L2112.02 1536.81 L2112.02 1518.36 M2110.79 1514.29 L2116.67 1514.29 L2116.67 1536.81 L2121.6 1536.81 L2121.6 1540.7 L2116.67 1540.7 L2116.67 1548.85 L2112.02 1548.85 L2112.02 1540.7 L2096.42 1540.7 L2096.42 1536.19 L2110.79 1514.29 Z" fill="#000000" fill-rule="nonzero" fill-opacity="1" /><polyline clip-path="url(#clip360)" style="stroke:#000000; stroke-linecap:round; stroke-linejoin:round; stroke-width:4; stroke-opacity:1; fill:none" points="184.191,1486.45 184.191,47.2441 "/>
<polyline clip-path="url(#clip360)" style="stroke:#000000; stroke-linecap:round; stroke-linejoin:round; stroke-width:4; stroke-opacity:1; fill:none" points="184.191,1427.58 203.088,1427.58 "/>
<polyline clip-path="url(#clip360)" style="stroke:#000000; stroke-linecap:round; stroke-linejoin:round; stroke-width:4; stroke-opacity:1; fill:none" points="184.191,1191.75 203.088,1191.75 "/>
<polyline clip-path="url(#clip360)" style="stroke:#000000; stroke-linecap:round; stroke-linejoin:round; stroke-width:4; stroke-opacity:1; fill:none" points="184.191,955.919 203.088,955.919 "/>
<polyline clip-path="url(#clip360)" style="stroke:#000000; stroke-linecap:round; stroke-linejoin:round; stroke-width:4; stroke-opacity:1; fill:none" points="184.191,720.089 203.088,720.089 "/>
<polyline clip-path="url(#clip360)" style="stroke:#000000; stroke-linecap:round; stroke-linejoin:round; stroke-width:4; stroke-opacity:1; fill:none" points="184.191,484.259 203.088,484.259 "/>
<polyline clip-path="url(#clip360)" style="stroke:#000000; stroke-linecap:round; stroke-linejoin:round; stroke-width:4; stroke-opacity:1; fill:none" points="184.191,248.429 203.088,248.429 "/>
<path clip-path="url(#clip360)" d="M51.6634 1440.92 L59.3023 1440.92 L59.3023 1414.56 L50.9921 1416.22 L50.9921 1411.96 L59.256 1410.3 L63.9319 1410.3 L63.9319 1440.92 L71.5707 1440.92 L71.5707 1444.86 L51.6634 1444.86 L51.6634 1440.92 Z" fill="#000000" fill-rule="nonzero" fill-opacity="1" /><path clip-path="url(#clip360)" d="M81.0151 1438.98 L85.8993 1438.98 L85.8993 1444.86 L81.0151 1444.86 L81.0151 1438.98 Z" fill="#000000" fill-rule="nonzero" fill-opacity="1" /><path clip-path="url(#clip360)" d="M106.084 1413.38 Q102.473 1413.38 100.645 1416.94 Q98.8391 1420.48 98.8391 1427.61 Q98.8391 1434.72 100.645 1438.28 Q102.473 1441.83 106.084 1441.83 Q109.719 1441.83 111.524 1438.28 Q113.353 1434.72 113.353 1427.61 Q113.353 1420.48 111.524 1416.94 Q109.719 1413.38 106.084 1413.38 M106.084 1409.67 Q111.895 1409.67 114.95 1414.28 Q118.029 1418.86 118.029 1427.61 Q118.029 1436.34 114.95 1440.95 Q111.895 1445.53 106.084 1445.53 Q100.274 1445.53 97.1956 1440.95 Q94.14 1436.34 94.14 1427.61 Q94.14 1418.86 97.1956 1414.28 Q100.274 1409.67 106.084 1409.67 Z" fill="#000000" fill-rule="nonzero" fill-opacity="1" /><path clip-path="url(#clip360)" d="M136.246 1413.38 Q132.635 1413.38 130.807 1416.94 Q129.001 1420.48 129.001 1427.61 Q129.001 1434.72 130.807 1438.28 Q132.635 1441.83 136.246 1441.83 Q139.881 1441.83 141.686 1438.28 Q143.515 1434.72 143.515 1427.61 Q143.515 1420.48 141.686 1416.94 Q139.881 1413.38 136.246 1413.38 M136.246 1409.67 Q142.056 1409.67 145.112 1414.28 Q148.191 1418.86 148.191 1427.61 Q148.191 1436.34 145.112 1440.95 Q142.056 1445.53 136.246 1445.53 Q130.436 1445.53 127.357 1440.95 Q124.302 1436.34 124.302 1427.61 Q124.302 1418.86 127.357 1414.28 Q130.436 1409.67 136.246 1409.67 Z" fill="#000000" fill-rule="nonzero" fill-opacity="1" /><path clip-path="url(#clip360)" d="M52.6588 1205.09 L60.2976 1205.09 L60.2976 1178.73 L51.9875 1180.39 L51.9875 1176.13 L60.2513 1174.47 L64.9272 1174.47 L64.9272 1205.09 L72.5661 1205.09 L72.5661 1209.03 L52.6588 1209.03 L52.6588 1205.09 Z" fill="#000000" fill-rule="nonzero" fill-opacity="1" /><path clip-path="url(#clip360)" d="M82.0105 1203.15 L86.8947 1203.15 L86.8947 1209.03 L82.0105 1209.03 L82.0105 1203.15 Z" fill="#000000" fill-rule="nonzero" fill-opacity="1" /><path clip-path="url(#clip360)" d="M107.08 1177.55 Q103.469 1177.55 101.64 1181.11 Q99.8345 1184.65 99.8345 1191.78 Q99.8345 1198.89 101.64 1202.45 Q103.469 1206 107.08 1206 Q110.714 1206 112.52 1202.45 Q114.348 1198.89 114.348 1191.78 Q114.348 1184.65 112.52 1181.11 Q110.714 1177.55 107.08 1177.55 M107.08 1173.84 Q112.89 1173.84 115.945 1178.45 Q119.024 1183.03 119.024 1191.78 Q119.024 1200.51 115.945 1205.12 Q112.89 1209.7 107.08 1209.7 Q101.27 1209.7 98.1909 1205.12 Q95.1354 1200.51 95.1354 1191.78 Q95.1354 1183.03 98.1909 1178.45 Q101.27 1173.84 107.08 1173.84 Z" fill="#000000" fill-rule="nonzero" fill-opacity="1" /><path clip-path="url(#clip360)" d="M127.288 1174.47 L145.644 1174.47 L145.644 1178.4 L131.57 1178.4 L131.57 1186.88 Q132.589 1186.53 133.607 1186.37 Q134.626 1186.18 135.644 1186.18 Q141.431 1186.18 144.811 1189.35 Q148.191 1192.52 148.191 1197.94 Q148.191 1203.52 144.718 1206.62 Q141.246 1209.7 134.927 1209.7 Q132.751 1209.7 130.482 1209.33 Q128.237 1208.96 125.83 1208.22 L125.83 1203.52 Q127.913 1204.65 130.135 1205.21 Q132.357 1205.76 134.834 1205.76 Q138.839 1205.76 141.177 1203.66 Q143.515 1201.55 143.515 1197.94 Q143.515 1194.33 141.177 1192.22 Q138.839 1190.12 134.834 1190.12 Q132.959 1190.12 131.084 1190.53 Q129.232 1190.95 127.288 1191.83 L127.288 1174.47 Z" fill="#000000" fill-rule="nonzero" fill-opacity="1" /><path clip-path="url(#clip360)" d="M51.6634 969.263 L59.3023 969.263 L59.3023 942.898 L50.9921 944.564 L50.9921 940.305 L59.256 938.639 L63.9319 938.639 L63.9319 969.263 L71.5707 969.263 L71.5707 973.199 L51.6634 973.199 L51.6634 969.263 Z" fill="#000000" fill-rule="nonzero" fill-opacity="1" /><path clip-path="url(#clip360)" d="M81.0151 967.319 L85.8993 967.319 L85.8993 973.199 L81.0151 973.199 L81.0151 967.319 Z" fill="#000000" fill-rule="nonzero" fill-opacity="1" /><path clip-path="url(#clip360)" d="M96.8947 969.263 L104.534 969.263 L104.534 942.898 L96.2234 944.564 L96.2234 940.305 L104.487 938.639 L109.163 938.639 L109.163 969.263 L116.802 969.263 L116.802 973.199 L96.8947 973.199 L96.8947 969.263 Z" fill="#000000" fill-rule="nonzero" fill-opacity="1" /><path clip-path="url(#clip360)" d="M136.246 941.717 Q132.635 941.717 130.807 945.282 Q129.001 948.824 129.001 955.953 Q129.001 963.06 130.807 966.625 Q132.635 970.166 136.246 970.166 Q139.881 970.166 141.686 966.625 Q143.515 963.06 143.515 955.953 Q143.515 948.824 141.686 945.282 Q139.881 941.717 136.246 941.717 M136.246 938.014 Q142.056 938.014 145.112 942.62 Q148.191 947.203 148.191 955.953 Q148.191 964.68 145.112 969.287 Q142.056 973.87 136.246 973.87 Q130.436 973.87 127.357 969.287 Q124.302 964.68 124.302 955.953 Q124.302 947.203 127.357 942.62 Q130.436 938.014 136.246 938.014 Z" fill="#000000" fill-rule="nonzero" fill-opacity="1" /><path clip-path="url(#clip360)" d="M52.6588 733.434 L60.2976 733.434 L60.2976 707.068 L51.9875 708.735 L51.9875 704.475 L60.2513 702.809 L64.9272 702.809 L64.9272 733.434 L72.5661 733.434 L72.5661 737.369 L52.6588 737.369 L52.6588 733.434 Z" fill="#000000" fill-rule="nonzero" fill-opacity="1" /><path clip-path="url(#clip360)" d="M82.0105 731.489 L86.8947 731.489 L86.8947 737.369 L82.0105 737.369 L82.0105 731.489 Z" fill="#000000" fill-rule="nonzero" fill-opacity="1" /><path clip-path="url(#clip360)" d="M97.89 733.434 L105.529 733.434 L105.529 707.068 L97.2187 708.735 L97.2187 704.475 L105.483 702.809 L110.158 702.809 L110.158 733.434 L117.797 733.434 L117.797 737.369 L97.89 737.369 L97.89 733.434 Z" fill="#000000" fill-rule="nonzero" fill-opacity="1" /><path clip-path="url(#clip360)" d="M127.288 702.809 L145.644 702.809 L145.644 706.744 L131.57 706.744 L131.57 715.216 Q132.589 714.869 133.607 714.707 Q134.626 714.522 135.644 714.522 Q141.431 714.522 144.811 717.693 Q148.191 720.864 148.191 726.281 Q148.191 731.86 144.718 734.961 Q141.246 738.04 134.927 738.04 Q132.751 738.04 130.482 737.67 Q128.237 737.299 125.83 736.559 L125.83 731.86 Q127.913 732.994 130.135 733.549 Q132.357 734.105 134.834 734.105 Q138.839 734.105 141.177 731.998 Q143.515 729.892 143.515 726.281 Q143.515 722.67 141.177 720.563 Q138.839 718.457 134.834 718.457 Q132.959 718.457 131.084 718.874 Q129.232 719.29 127.288 720.17 L127.288 702.809 Z" fill="#000000" fill-rule="nonzero" fill-opacity="1" /><path clip-path="url(#clip360)" d="M51.6634 497.604 L59.3023 497.604 L59.3023 471.238 L50.9921 472.905 L50.9921 468.646 L59.256 466.979 L63.9319 466.979 L63.9319 497.604 L71.5707 497.604 L71.5707 501.539 L51.6634 501.539 L51.6634 497.604 Z" fill="#000000" fill-rule="nonzero" fill-opacity="1" /><path clip-path="url(#clip360)" d="M81.0151 495.659 L85.8993 495.659 L85.8993 501.539 L81.0151 501.539 L81.0151 495.659 Z" fill="#000000" fill-rule="nonzero" fill-opacity="1" /><path clip-path="url(#clip360)" d="M100.112 497.604 L116.432 497.604 L116.432 501.539 L94.4873 501.539 L94.4873 497.604 Q97.1493 494.849 101.733 490.22 Q106.339 485.567 107.52 484.224 Q109.765 481.701 110.645 479.965 Q111.547 478.206 111.547 476.516 Q111.547 473.761 109.603 472.025 Q107.682 470.289 104.58 470.289 Q102.381 470.289 99.927 471.053 Q97.4965 471.817 94.7187 473.368 L94.7187 468.646 Q97.5428 467.511 99.9965 466.933 Q102.45 466.354 104.487 466.354 Q109.858 466.354 113.052 469.039 Q116.246 471.724 116.246 476.215 Q116.246 478.345 115.436 480.266 Q114.649 482.164 112.543 484.757 Q111.964 485.428 108.862 488.646 Q105.76 491.84 100.112 497.604 Z" fill="#000000" fill-rule="nonzero" fill-opacity="1" /><path clip-path="url(#clip360)" d="M136.246 470.058 Q132.635 470.058 130.807 473.623 Q129.001 477.164 129.001 484.294 Q129.001 491.4 130.807 494.965 Q132.635 498.507 136.246 498.507 Q139.881 498.507 141.686 494.965 Q143.515 491.4 143.515 484.294 Q143.515 477.164 141.686 473.623 Q139.881 470.058 136.246 470.058 M136.246 466.354 Q142.056 466.354 145.112 470.96 Q148.191 475.544 148.191 484.294 Q148.191 493.021 145.112 497.627 Q142.056 502.21 136.246 502.21 Q130.436 502.21 127.357 497.627 Q124.302 493.021 124.302 484.294 Q124.302 475.544 127.357 470.96 Q130.436 466.354 136.246 466.354 Z" fill="#000000" fill-rule="nonzero" fill-opacity="1" /><path clip-path="url(#clip360)" d="M52.6588 261.774 L60.2976 261.774 L60.2976 235.408 L51.9875 237.075 L51.9875 232.816 L60.2513 231.149 L64.9272 231.149 L64.9272 261.774 L72.5661 261.774 L72.5661 265.709 L52.6588 265.709 L52.6588 261.774 Z" fill="#000000" fill-rule="nonzero" fill-opacity="1" /><path clip-path="url(#clip360)" d="M82.0105 259.83 L86.8947 259.83 L86.8947 265.709 L82.0105 265.709 L82.0105 259.83 Z" fill="#000000" fill-rule="nonzero" fill-opacity="1" /><path clip-path="url(#clip360)" d="M101.108 261.774 L117.427 261.774 L117.427 265.709 L95.4826 265.709 L95.4826 261.774 Q98.1447 259.019 102.728 254.39 Q107.334 249.737 108.515 248.395 Q110.76 245.871 111.64 244.135 Q112.543 242.376 112.543 240.686 Q112.543 237.932 110.598 236.196 Q108.677 234.459 105.575 234.459 Q103.376 234.459 100.922 235.223 Q98.4919 235.987 95.7141 237.538 L95.7141 232.816 Q98.5382 231.682 100.992 231.103 Q103.446 230.524 105.483 230.524 Q110.853 230.524 114.047 233.209 Q117.242 235.895 117.242 240.385 Q117.242 242.515 116.432 244.436 Q115.645 246.334 113.538 248.927 Q112.959 249.598 109.858 252.816 Q106.756 256.01 101.108 261.774 Z" fill="#000000" fill-rule="nonzero" fill-opacity="1" /><path clip-path="url(#clip360)" d="M127.288 231.149 L145.644 231.149 L145.644 235.084 L131.57 235.084 L131.57 243.557 Q132.589 243.209 133.607 243.047 Q134.626 242.862 135.644 242.862 Q141.431 242.862 144.811 246.033 Q148.191 249.205 148.191 254.621 Q148.191 260.2 144.718 263.302 Q141.246 266.381 134.927 266.381 Q132.751 266.381 130.482 266.01 Q128.237 265.64 125.83 264.899 L125.83 260.2 Q127.913 261.334 130.135 261.89 Q132.357 262.445 134.834 262.445 Q138.839 262.445 141.177 260.339 Q143.515 258.232 143.515 254.621 Q143.515 251.01 141.177 248.904 Q138.839 246.797 134.834 246.797 Q132.959 246.797 131.084 247.214 Q129.232 247.631 127.288 248.51 L127.288 231.149 Z" fill="#000000" fill-rule="nonzero" fill-opacity="1" /><circle clip-path="url(#clip362)" cx="245.565" cy="1427.58" r="14.4" fill="#009af9" fill-rule="evenodd" fill-opacity="1" stroke="#000000" stroke-opacity="1" stroke-width="3.2"/>
<circle clip-path="url(#clip362)" cx="654.728" cy="616.324" r="14.4" fill="#009af9" fill-rule="evenodd" fill-opacity="1" stroke="#000000" stroke-opacity="1" stroke-width="3.2"/>
<circle clip-path="url(#clip362)" cx="1063.89" cy="160.829" r="14.4" fill="#009af9" fill-rule="evenodd" fill-opacity="1" stroke="#000000" stroke-opacity="1" stroke-width="3.2"/>
<circle clip-path="url(#clip362)" cx="1473.05" cy="165.616" r="14.4" fill="#009af9" fill-rule="evenodd" fill-opacity="1" stroke="#000000" stroke-opacity="1" stroke-width="3.2"/>
<circle clip-path="url(#clip362)" cx="1882.22" cy="629.552" r="14.4" fill="#009af9" fill-rule="evenodd" fill-opacity="1" stroke="#000000" stroke-opacity="1" stroke-width="3.2"/>
<circle clip-path="url(#clip362)" cx="2291.38" cy="1445.72" r="14.4" fill="#009af9" fill-rule="evenodd" fill-opacity="1" stroke="#000000" stroke-opacity="1" stroke-width="3.2"/>
<polyline clip-path="url(#clip362)" style="stroke:#e26f46; stroke-linecap:round; stroke-linejoin:round; stroke-width:4; stroke-opacity:1; fill:none" points="245.565,1427.58 250.845,1415.42 256.125,1403.31 261.405,1391.23 266.686,1379.2 297.611,1309.5 328.536,1241.2 359.461,1174.34 390.386,1108.96 419.159,1049.49 447.931,991.372 486.497,915.645 525.063,842.48 556.931,784.014 588.798,727.396 618.432,676.445 648.066,627.169 685.266,567.93 722.466,512.012 755.835,464.717 789.204,420.157 827.4,372.547 865.595,328.597 894.146,298.16 922.697,269.808 959.214,236.611 995.731,206.889 1029.06,182.824 1062.39,161.71 1081.36,151.075 1100.32,141.525 1119.29,133.055 1138.26,125.658 1168.33,116.119 1198.4,109.241 1217.08,106.299 1235.76,104.369 1254.43,103.447 1273.11,103.525 1301.72,105.575 1330.33,109.94 1350.5,114.399 1370.67,119.991 1390.84,126.711 1411.01,134.55 1441.15,148.339 1471.29,164.591 1505.57,186.199 1539.85,211.25 1556.83,224.9 1573.8,239.36 1590.78,254.618 1607.75,270.662 1645.1,308.678 1682.45,350.322 1710.98,384.499 1739.51,420.666 1775.51,469.061 1811.51,520.429 1844.8,570.488 1878.1,622.908 1912.44,679.428 1946.78,738.461 1981.59,800.75 2016.39,865.396 2052.74,935.289 2089.08,1007.5 2117.72,1065.92 2146.35,1125.64 2178.95,1195.13 2211.55,1266.13 2244.15,1338.52 2276.75,1412.23 2280.41,1420.58 2284.07,1428.94 2287.72,1437.32 2291.38,1445.72 "/>
<polyline clip-path="url(#clip362)" style="stroke:#3da44d; stroke-linecap:round; stroke-linejoin:round; stroke-width:4; stroke-opacity:1; fill:none" points="245.565,1427.58 250.845,1415.42 256.125,1403.3 261.405,1391.2 266.686,1379.14 297.611,1309.18 328.536,1240.43 359.461,1172.98 390.386,1106.9 419.159,1046.73 447.931,987.871 486.497,911.166 525.063,837.093 556.931,777.974 588.798,720.829 618.432,669.529 648.066,620.061 685.266,560.647 722.466,504.325 755.835,456.521 789.204,411.364 808.302,386.736 827.4,363.011 846.497,340.2 865.595,318.314 894.146,287.344 922.697,258.503 959.214,224.769 995.731,194.634 1029.06,170.32 1062.39,149.089 1081.36,138.397 1100.32,128.721 1119.29,120.064 1138.26,112.432 1168.33,102.44 1198.4,95.0468 1217.08,91.7664 1235.76,89.4939 1254.43,88.2303 1273.11,87.9763 1301.72,89.5448 1330.33,93.4801 1350.5,97.6741 1370.67,103.04 1390.84,109.573 1411.01,117.272 1441.15,130.938 1471.29,147.178 1505.57,168.747 1539.85,193.58 1573.8,221.351 1607.75,252.238 1626.42,270.539 1645.1,289.759 1663.77,309.888 1682.45,330.917 1710.98,364.756 1739.51,400.632 1775.51,448.749 1811.51,499.959 1844.8,549.998 1878.1,602.531 1912.44,659.236 1946.78,718.42 1981.59,780.843 2016.39,845.617 2052.74,915.649 2089.08,988.012 2117.72,1046.58 2146.35,1106.45 2178.95,1176.14 2211.55,1247.35 2244.15,1319.99 2276.75,1393.97 2280.41,1402.35 2284.07,1410.74 2287.72,1419.15 2291.38,1427.58 "/>
<path clip-path="url(#clip360)" d="M886.609 1438.47 L1650.34 1438.47 L1650.34 1231.11 L886.609 1231.11  Z" fill="#ffffff" fill-rule="evenodd" fill-opacity="1"/>
<polyline clip-path="url(#clip360)" style="stroke:#000000; stroke-linecap:round; stroke-linejoin:round; stroke-width:4; stroke-opacity:1; fill:none" points="886.609,1438.47 1650.34,1438.47 1650.34,1231.11 886.609,1231.11 886.609,1438.47 "/>
<circle clip-path="url(#clip360)" cx="982.99" cy="1282.95" r="20.48" fill="#009af9" fill-rule="evenodd" fill-opacity="1" stroke="#000000" stroke-opacity="1" stroke-width="4.55111"/>
<path clip-path="url(#clip360)" d="M1083.65 1296.35 L1083.65 1310.1 L1079.37 1310.1 L1079.37 1274.31 L1083.65 1274.31 L1083.65 1278.24 Q1085 1275.93 1087.03 1274.82 Q1089.09 1273.68 1091.94 1273.68 Q1096.66 1273.68 1099.6 1277.43 Q1102.56 1281.18 1102.56 1287.29 Q1102.56 1293.41 1099.6 1297.16 Q1096.66 1300.91 1091.94 1300.91 Q1089.09 1300.91 1087.03 1299.79 Q1085 1298.66 1083.65 1296.35 M1098.14 1287.29 Q1098.14 1282.6 1096.2 1279.93 Q1094.28 1277.25 1090.9 1277.25 Q1087.52 1277.25 1085.57 1279.93 Q1083.65 1282.6 1083.65 1287.29 Q1083.65 1291.99 1085.57 1294.68 Q1087.52 1297.34 1090.9 1297.34 Q1094.28 1297.34 1096.2 1294.68 Q1098.14 1291.99 1098.14 1287.29 Z" fill="#000000" fill-rule="nonzero" fill-opacity="1" /><path clip-path="url(#clip360)" d="M1124.65 1278.29 Q1123.93 1277.87 1123.07 1277.69 Q1122.24 1277.48 1121.22 1277.48 Q1117.61 1277.48 1115.67 1279.84 Q1113.75 1282.18 1113.75 1286.58 L1113.75 1300.23 L1109.46 1300.23 L1109.46 1274.31 L1113.75 1274.31 L1113.75 1278.34 Q1115.09 1275.98 1117.24 1274.84 Q1119.39 1273.68 1122.47 1273.68 Q1122.91 1273.68 1123.44 1273.75 Q1123.98 1273.8 1124.62 1273.92 L1124.65 1278.29 Z" fill="#000000" fill-rule="nonzero" fill-opacity="1" /><path clip-path="url(#clip360)" d="M1129.12 1274.31 L1133.37 1274.31 L1133.37 1300.23 L1129.12 1300.23 L1129.12 1274.31 M1129.12 1264.22 L1133.37 1264.22 L1133.37 1269.61 L1129.12 1269.61 L1129.12 1264.22 Z" fill="#000000" fill-rule="nonzero" fill-opacity="1" /><path clip-path="url(#clip360)" d="M1160.9 1287.29 Q1160.9 1282.6 1158.95 1279.93 Q1157.03 1277.25 1153.65 1277.25 Q1150.27 1277.25 1148.33 1279.93 Q1146.41 1282.6 1146.41 1287.29 Q1146.41 1291.99 1148.33 1294.68 Q1150.27 1297.34 1153.65 1297.34 Q1157.03 1297.34 1158.95 1294.68 Q1160.9 1291.99 1160.9 1287.29 M1146.41 1278.24 Q1147.75 1275.93 1149.79 1274.82 Q1151.85 1273.68 1154.69 1273.68 Q1159.42 1273.68 1162.36 1277.43 Q1165.32 1281.18 1165.32 1287.29 Q1165.32 1293.41 1162.36 1297.16 Q1159.42 1300.91 1154.69 1300.91 Q1151.85 1300.91 1149.79 1299.79 Q1147.75 1298.66 1146.41 1296.35 L1146.41 1300.23 L1142.12 1300.23 L1142.12 1264.22 L1146.41 1264.22 L1146.41 1278.24 Z" fill="#000000" fill-rule="nonzero" fill-opacity="1" /><path clip-path="url(#clip360)" d="M1172.38 1264.22 L1176.64 1264.22 L1176.64 1300.23 L1172.38 1300.23 L1172.38 1264.22 Z" fill="#000000" fill-rule="nonzero" fill-opacity="1" /><path clip-path="url(#clip360)" d="M1185.55 1274.31 L1189.81 1274.31 L1189.81 1300.23 L1185.55 1300.23 L1185.55 1274.31 M1185.55 1264.22 L1189.81 1264.22 L1189.81 1269.61 L1185.55 1269.61 L1185.55 1264.22 Z" fill="#000000" fill-rule="nonzero" fill-opacity="1" /><path clip-path="url(#clip360)" d="M1196.87 1274.31 L1217.1 1274.31 L1217.1 1278.2 L1201.08 1296.83 L1217.1 1296.83 L1217.1 1300.23 L1196.29 1300.23 L1196.29 1296.35 L1212.31 1277.71 L1196.87 1277.71 L1196.87 1274.31 M1205.02 1271.02 L1199.35 1262.32 L1202.56 1262.32 L1206.73 1267.99 L1210.9 1262.32 L1214.11 1262.32 L1208.44 1271.02 L1205.02 1271.02 Z" fill="#000000" fill-rule="nonzero" fill-opacity="1" /><path clip-path="url(#clip360)" d="M1223.44 1264.22 L1227.73 1264.22 L1227.73 1285.49 L1240.43 1274.31 L1245.87 1274.31 L1232.12 1286.44 L1246.45 1300.23 L1240.9 1300.23 L1227.73 1287.57 L1227.73 1300.23 L1223.44 1300.23 L1223.44 1264.22 Z" fill="#000000" fill-rule="nonzero" fill-opacity="1" /><path clip-path="url(#clip360)" d="M1251.06 1274.31 L1255.32 1274.31 L1255.32 1300.23 L1251.06 1300.23 L1251.06 1274.31 M1251.06 1264.22 L1255.32 1264.22 L1255.32 1269.61 L1251.06 1269.61 L1251.06 1264.22 Z" fill="#000000" fill-rule="nonzero" fill-opacity="1" /><path clip-path="url(#clip360)" d="M1295.87 1284.03 Q1297.38 1284.54 1298.79 1286.21 Q1300.23 1287.87 1301.66 1290.79 L1306.41 1300.23 L1301.38 1300.23 L1296.96 1291.37 Q1295.25 1287.9 1293.63 1286.76 Q1292.03 1285.63 1289.25 1285.63 L1284.16 1285.63 L1284.16 1300.23 L1279.49 1300.23 L1279.49 1265.67 L1290.04 1265.67 Q1295.97 1265.67 1298.88 1268.15 Q1301.8 1270.63 1301.8 1275.63 Q1301.8 1278.89 1300.27 1281.04 Q1298.77 1283.2 1295.87 1284.03 M1284.16 1269.52 L1284.16 1281.79 L1290.04 1281.79 Q1293.42 1281.79 1295.13 1280.23 Q1296.87 1278.66 1296.87 1275.63 Q1296.87 1272.6 1295.13 1271.07 Q1293.42 1269.52 1290.04 1269.52 L1284.16 1269.52 Z" fill="#000000" fill-rule="nonzero" fill-opacity="1" /><path clip-path="url(#clip360)" d="M1312.42 1265.67 L1317.1 1265.67 L1317.1 1280.28 L1332.61 1265.67 L1338.63 1265.67 L1321.48 1281.79 L1339.86 1300.23 L1333.7 1300.23 L1317.1 1283.59 L1317.1 1300.23 L1312.42 1300.23 L1312.42 1265.67 Z" fill="#000000" fill-rule="nonzero" fill-opacity="1" /><path clip-path="url(#clip360)" d="M1347.96 1296.3 L1364.28 1296.3 L1364.28 1300.23 L1342.33 1300.23 L1342.33 1296.3 Q1344.99 1293.54 1349.58 1288.92 Q1354.18 1284.26 1355.36 1282.92 Q1357.61 1280.4 1358.49 1278.66 Q1359.39 1276.9 1359.39 1275.21 Q1359.39 1272.46 1357.45 1270.72 Q1355.53 1268.98 1352.42 1268.98 Q1350.23 1268.98 1347.77 1269.75 Q1345.34 1270.51 1342.56 1272.06 L1342.56 1267.34 Q1345.39 1266.21 1347.84 1265.63 Q1350.29 1265.05 1352.33 1265.05 Q1357.7 1265.05 1360.9 1267.73 Q1364.09 1270.42 1364.09 1274.91 Q1364.09 1277.04 1363.28 1278.96 Q1362.49 1280.86 1360.39 1283.45 Q1359.81 1284.12 1356.71 1287.34 Q1353.6 1290.54 1347.96 1296.3 Z" fill="#000000" fill-rule="nonzero" fill-opacity="1" /><polyline clip-path="url(#clip360)" style="stroke:#e26f46; stroke-linecap:round; stroke-linejoin:round; stroke-width:4; stroke-opacity:1; fill:none" points="910.704,1334.79 1055.28,1334.79 "/>
<path clip-path="url(#clip360)" d="M1079.37 1317.51 L1084.05 1317.51 L1084.05 1331.68 L1101.04 1331.68 L1101.04 1317.51 L1105.71 1317.51 L1105.71 1352.07 L1101.04 1352.07 L1101.04 1335.62 L1084.05 1335.62 L1084.05 1352.07 L1079.37 1352.07 L1079.37 1317.51 Z" fill="#000000" fill-rule="nonzero" fill-opacity="1" /><path clip-path="url(#clip360)" d="M1137.01 1338.05 L1137.01 1340.13 L1117.43 1340.13 Q1117.7 1344.53 1120.06 1346.84 Q1122.45 1349.13 1126.68 1349.13 Q1129.14 1349.13 1131.43 1348.53 Q1133.75 1347.93 1136.01 1346.73 L1136.01 1350.75 Q1133.72 1351.73 1131.31 1352.24 Q1128.91 1352.75 1126.43 1352.75 Q1120.23 1352.75 1116.59 1349.13 Q1112.98 1345.52 1112.98 1339.37 Q1112.98 1333 1116.41 1329.27 Q1119.86 1325.52 1125.69 1325.52 Q1130.92 1325.52 1133.95 1328.9 Q1137.01 1332.26 1137.01 1338.05 M1132.75 1336.8 Q1132.7 1333.3 1130.78 1331.22 Q1128.88 1329.13 1125.74 1329.13 Q1122.17 1329.13 1120.02 1331.15 Q1117.89 1333.16 1117.56 1336.82 L1132.75 1336.8 Z" fill="#000000" fill-rule="nonzero" fill-opacity="1" /><path clip-path="url(#clip360)" d="M1159.02 1330.13 Q1158.31 1329.71 1157.45 1329.53 Q1156.62 1329.32 1155.6 1329.32 Q1151.99 1329.32 1150.04 1331.68 Q1148.12 1334.02 1148.12 1338.42 L1148.12 1352.07 L1143.84 1352.07 L1143.84 1326.15 L1148.12 1326.15 L1148.12 1330.18 Q1149.46 1327.82 1151.62 1326.68 Q1153.77 1325.52 1156.85 1325.52 Q1157.29 1325.52 1157.82 1325.59 Q1158.35 1325.64 1159 1325.76 L1159.02 1330.13 Z" fill="#000000" fill-rule="nonzero" fill-opacity="1" /><path clip-path="url(#clip360)" d="M1182.84 1331.13 Q1184.44 1328.26 1186.66 1326.89 Q1188.88 1325.52 1191.89 1325.52 Q1195.94 1325.52 1198.14 1328.37 Q1200.34 1331.19 1200.34 1336.43 L1200.34 1352.07 L1196.06 1352.07 L1196.06 1336.57 Q1196.06 1332.84 1194.74 1331.03 Q1193.42 1329.23 1190.71 1329.23 Q1187.4 1329.23 1185.48 1331.43 Q1183.56 1333.63 1183.56 1337.42 L1183.56 1352.07 L1179.28 1352.07 L1179.28 1336.57 Q1179.28 1332.82 1177.96 1331.03 Q1176.64 1329.23 1173.88 1329.23 Q1170.62 1329.23 1168.7 1331.45 Q1166.78 1333.65 1166.78 1337.42 L1166.78 1352.07 L1162.49 1352.07 L1162.49 1326.15 L1166.78 1326.15 L1166.78 1330.18 Q1168.24 1327.79 1170.27 1326.66 Q1172.31 1325.52 1175.11 1325.52 Q1177.93 1325.52 1179.9 1326.96 Q1181.89 1328.39 1182.84 1331.13 Z" fill="#000000" fill-rule="nonzero" fill-opacity="1" /><path clip-path="url(#clip360)" d="M1208.84 1326.15 L1213.1 1326.15 L1213.1 1352.07 L1208.84 1352.07 L1208.84 1326.15 M1208.84 1316.06 L1213.1 1316.06 L1213.1 1321.45 L1208.84 1321.45 L1208.84 1316.06 Z" fill="#000000" fill-rule="nonzero" fill-opacity="1" /><path clip-path="url(#clip360)" d="M1226.22 1318.79 L1226.22 1326.15 L1234.99 1326.15 L1234.99 1329.46 L1226.22 1329.46 L1226.22 1343.53 Q1226.22 1346.7 1227.08 1347.61 Q1227.96 1348.51 1230.62 1348.51 L1234.99 1348.51 L1234.99 1352.07 L1230.62 1352.07 Q1225.69 1352.07 1223.81 1350.25 Q1221.94 1348.39 1221.94 1343.53 L1221.94 1329.46 L1218.81 1329.46 L1218.81 1326.15 L1221.94 1326.15 L1221.94 1318.79 L1226.22 1318.79 Z" fill="#000000" fill-rule="nonzero" fill-opacity="1" /><path clip-path="url(#clip360)" d="M1250.64 1329.13 Q1247.22 1329.13 1245.23 1331.82 Q1243.24 1334.48 1243.24 1339.13 Q1243.24 1343.79 1245.2 1346.47 Q1247.19 1349.13 1250.64 1349.13 Q1254.05 1349.13 1256.04 1346.45 Q1258.03 1343.76 1258.03 1339.13 Q1258.03 1334.53 1256.04 1331.84 Q1254.05 1329.13 1250.64 1329.13 M1250.64 1325.52 Q1256.2 1325.52 1259.37 1329.13 Q1262.54 1332.75 1262.54 1339.13 Q1262.54 1345.5 1259.37 1349.13 Q1256.2 1352.75 1250.64 1352.75 Q1245.06 1352.75 1241.89 1349.13 Q1238.74 1345.5 1238.74 1339.13 Q1238.74 1332.75 1241.89 1329.13 Q1245.06 1325.52 1250.64 1325.52 Z" fill="#000000" fill-rule="nonzero" fill-opacity="1" /><path clip-path="url(#clip360)" d="M1266.55 1326.15 L1271.06 1326.15 L1279.16 1347.91 L1287.26 1326.15 L1291.78 1326.15 L1282.05 1352.07 L1276.27 1352.07 L1266.55 1326.15 Z" fill="#000000" fill-rule="nonzero" fill-opacity="1" /><path clip-path="url(#clip360)" d="M1309.44 1339.04 Q1304.28 1339.04 1302.29 1340.22 Q1300.3 1341.4 1300.3 1344.25 Q1300.3 1346.52 1301.78 1347.86 Q1303.28 1349.18 1305.85 1349.18 Q1309.39 1349.18 1311.52 1346.68 Q1313.67 1344.16 1313.67 1339.99 L1313.67 1339.04 L1309.44 1339.04 M1317.93 1337.28 L1317.93 1352.07 L1313.67 1352.07 L1313.67 1348.14 Q1312.22 1350.5 1310.04 1351.63 Q1307.86 1352.75 1304.72 1352.75 Q1300.73 1352.75 1298.37 1350.52 Q1296.04 1348.28 1296.04 1344.53 Q1296.04 1340.15 1298.95 1337.93 Q1301.89 1335.71 1307.7 1335.71 L1313.67 1335.71 L1313.67 1335.29 Q1313.67 1332.35 1311.73 1330.76 Q1309.81 1329.13 1306.31 1329.13 Q1304.09 1329.13 1301.98 1329.67 Q1299.88 1330.2 1297.93 1331.26 L1297.93 1327.33 Q1300.27 1326.43 1302.47 1325.99 Q1304.67 1325.52 1306.75 1325.52 Q1312.38 1325.52 1315.16 1328.44 Q1317.93 1331.36 1317.93 1337.28 Z" fill="#000000" fill-rule="nonzero" fill-opacity="1" /><path clip-path="url(#clip360)" d="M1341.78 1326.15 L1346.04 1326.15 L1346.04 1352.07 L1341.78 1352.07 L1341.78 1326.15 M1341.78 1316.06 L1346.04 1316.06 L1346.04 1321.45 L1341.78 1321.45 L1341.78 1316.06 Z" fill="#000000" fill-rule="nonzero" fill-opacity="1" /><path clip-path="url(#clip360)" d="M1376.5 1336.43 L1376.5 1352.07 L1372.24 1352.07 L1372.24 1336.57 Q1372.24 1332.88 1370.8 1331.06 Q1369.37 1329.23 1366.5 1329.23 Q1363.05 1329.23 1361.06 1331.43 Q1359.07 1333.63 1359.07 1337.42 L1359.07 1352.07 L1354.79 1352.07 L1354.79 1326.15 L1359.07 1326.15 L1359.07 1330.18 Q1360.6 1327.84 1362.66 1326.68 Q1364.74 1325.52 1367.45 1325.52 Q1371.92 1325.52 1374.21 1328.3 Q1376.5 1331.06 1376.5 1336.43 Z" fill="#000000" fill-rule="nonzero" fill-opacity="1" /><path clip-path="url(#clip360)" d="M1389.21 1318.79 L1389.21 1326.15 L1397.98 1326.15 L1397.98 1329.46 L1389.21 1329.46 L1389.21 1343.53 Q1389.21 1346.7 1390.06 1347.61 Q1390.94 1348.51 1393.6 1348.51 L1397.98 1348.51 L1397.98 1352.07 L1393.6 1352.07 Q1388.67 1352.07 1386.8 1350.25 Q1384.92 1348.39 1384.92 1343.53 L1384.92 1329.46 L1381.8 1329.46 L1381.8 1326.15 L1384.92 1326.15 L1384.92 1318.79 L1389.21 1318.79 Z" fill="#000000" fill-rule="nonzero" fill-opacity="1" /><path clip-path="url(#clip360)" d="M1425.76 1338.05 L1425.76 1340.13 L1406.17 1340.13 Q1406.45 1344.53 1408.81 1346.84 Q1411.2 1349.13 1415.43 1349.13 Q1417.89 1349.13 1420.18 1348.53 Q1422.49 1347.93 1424.76 1346.73 L1424.76 1350.75 Q1422.47 1351.73 1420.06 1352.24 Q1417.66 1352.75 1415.18 1352.75 Q1408.98 1352.75 1405.34 1349.13 Q1401.73 1345.52 1401.73 1339.37 Q1401.73 1333 1405.16 1329.27 Q1408.6 1325.52 1414.44 1325.52 Q1419.67 1325.52 1422.7 1328.9 Q1425.76 1332.26 1425.76 1338.05 M1421.5 1336.8 Q1421.45 1333.3 1419.53 1331.22 Q1417.63 1329.13 1414.48 1329.13 Q1410.92 1329.13 1408.77 1331.15 Q1406.64 1333.16 1406.31 1336.82 L1421.5 1336.8 Z" fill="#000000" fill-rule="nonzero" fill-opacity="1" /><path clip-path="url(#clip360)" d="M1447.77 1330.13 Q1447.05 1329.71 1446.2 1329.53 Q1445.36 1329.32 1444.35 1329.32 Q1440.73 1329.32 1438.79 1331.68 Q1436.87 1334.02 1436.87 1338.42 L1436.87 1352.07 L1432.59 1352.07 L1432.59 1326.15 L1436.87 1326.15 L1436.87 1330.18 Q1438.21 1327.82 1440.36 1326.68 Q1442.52 1325.52 1445.6 1325.52 Q1446.04 1325.52 1446.57 1325.59 Q1447.1 1325.64 1447.75 1325.76 L1447.77 1330.13 Z" fill="#000000" fill-rule="nonzero" fill-opacity="1" /><path clip-path="url(#clip360)" d="M1456.36 1348.19 L1456.36 1361.94 L1452.08 1361.94 L1452.08 1326.15 L1456.36 1326.15 L1456.36 1330.08 Q1457.7 1327.77 1459.74 1326.66 Q1461.8 1325.52 1464.65 1325.52 Q1469.37 1325.52 1472.31 1329.27 Q1475.27 1333.02 1475.27 1339.13 Q1475.27 1345.25 1472.31 1349 Q1469.37 1352.75 1464.65 1352.75 Q1461.8 1352.75 1459.74 1351.63 Q1457.7 1350.5 1456.36 1348.19 M1470.85 1339.13 Q1470.85 1334.44 1468.91 1331.77 Q1466.98 1329.09 1463.6 1329.09 Q1460.22 1329.09 1458.28 1331.77 Q1456.36 1334.44 1456.36 1339.13 Q1456.36 1343.83 1458.28 1346.52 Q1460.22 1349.18 1463.6 1349.18 Q1466.98 1349.18 1468.91 1346.52 Q1470.85 1343.83 1470.85 1339.13 Z" fill="#000000" fill-rule="nonzero" fill-opacity="1" /><path clip-path="url(#clip360)" d="M1492.38 1329.13 Q1488.95 1329.13 1486.96 1331.82 Q1484.97 1334.48 1484.97 1339.13 Q1484.97 1343.79 1486.94 1346.47 Q1488.93 1349.13 1492.38 1349.13 Q1495.78 1349.13 1497.77 1346.45 Q1499.76 1343.76 1499.76 1339.13 Q1499.76 1334.53 1497.77 1331.84 Q1495.78 1329.13 1492.38 1329.13 M1492.38 1325.52 Q1497.93 1325.52 1501.1 1329.13 Q1504.28 1332.75 1504.28 1339.13 Q1504.28 1345.5 1501.1 1349.13 Q1497.93 1352.75 1492.38 1352.75 Q1486.8 1352.75 1483.63 1349.13 Q1480.48 1345.5 1480.48 1339.13 Q1480.48 1332.75 1483.63 1329.13 Q1486.8 1325.52 1492.38 1325.52 Z" fill="#000000" fill-rule="nonzero" fill-opacity="1" /><path clip-path="url(#clip360)" d="M1511.34 1316.06 L1515.59 1316.06 L1515.59 1352.07 L1511.34 1352.07 L1511.34 1316.06 Z" fill="#000000" fill-rule="nonzero" fill-opacity="1" /><path clip-path="url(#clip360)" d="M1536.29 1339.04 Q1531.13 1339.04 1529.14 1340.22 Q1527.15 1341.4 1527.15 1344.25 Q1527.15 1346.52 1528.63 1347.86 Q1530.13 1349.18 1532.7 1349.18 Q1536.24 1349.18 1538.37 1346.68 Q1540.53 1344.16 1540.53 1339.99 L1540.53 1339.04 L1536.29 1339.04 M1544.78 1337.28 L1544.78 1352.07 L1540.53 1352.07 L1540.53 1348.14 Q1539.07 1350.5 1536.89 1351.63 Q1534.72 1352.75 1531.57 1352.75 Q1527.59 1352.75 1525.22 1350.52 Q1522.89 1348.28 1522.89 1344.53 Q1522.89 1340.15 1525.8 1337.93 Q1528.74 1335.71 1534.55 1335.71 L1540.53 1335.71 L1540.53 1335.29 Q1540.53 1332.35 1538.58 1330.76 Q1536.66 1329.13 1533.16 1329.13 Q1530.94 1329.13 1528.84 1329.67 Q1526.73 1330.2 1524.78 1331.26 L1524.78 1327.33 Q1527.12 1326.43 1529.32 1325.99 Q1531.52 1325.52 1533.6 1325.52 Q1539.23 1325.52 1542.01 1328.44 Q1544.78 1331.36 1544.78 1337.28 Z" fill="#000000" fill-rule="nonzero" fill-opacity="1" /><path clip-path="url(#clip360)" d="M1572.21 1327.14 L1572.21 1331.13 Q1570.41 1330.13 1568.58 1329.64 Q1566.78 1329.13 1564.92 1329.13 Q1560.78 1329.13 1558.49 1331.77 Q1556.2 1334.39 1556.2 1339.13 Q1556.2 1343.88 1558.49 1346.52 Q1560.78 1349.13 1564.92 1349.13 Q1566.78 1349.13 1568.58 1348.65 Q1570.41 1348.14 1572.21 1347.14 L1572.21 1351.08 Q1570.43 1351.91 1568.51 1352.33 Q1566.61 1352.75 1564.46 1352.75 Q1558.6 1352.75 1555.15 1349.07 Q1551.71 1345.38 1551.71 1339.13 Q1551.71 1332.79 1555.18 1329.16 Q1558.67 1325.52 1564.74 1325.52 Q1566.71 1325.52 1568.58 1325.94 Q1570.46 1326.33 1572.21 1327.14 Z" fill="#000000" fill-rule="nonzero" fill-opacity="1" /><path clip-path="url(#clip360)" d="M1579.62 1326.15 L1583.88 1326.15 L1583.88 1352.07 L1579.62 1352.07 L1579.62 1326.15 M1579.62 1316.06 L1583.88 1316.06 L1583.88 1321.45 L1579.62 1321.45 L1579.62 1316.06 Z" fill="#000000" fill-rule="nonzero" fill-opacity="1" /><path clip-path="url(#clip360)" d="M1592.79 1326.15 L1597.05 1326.15 L1597.05 1352.54 Q1597.05 1357.49 1595.15 1359.71 Q1593.28 1361.94 1589.09 1361.94 L1587.47 1361.94 L1587.47 1358.32 L1588.6 1358.32 Q1591.03 1358.32 1591.91 1357.19 Q1592.79 1356.08 1592.79 1352.54 L1592.79 1326.15 M1592.79 1316.06 L1597.05 1316.06 L1597.05 1321.45 L1592.79 1321.45 L1592.79 1316.06 Z" fill="#000000" fill-rule="nonzero" fill-opacity="1" /><path clip-path="url(#clip360)" d="M1617.75 1339.04 Q1612.59 1339.04 1610.59 1340.22 Q1608.6 1341.4 1608.6 1344.25 Q1608.6 1346.52 1610.09 1347.86 Q1611.59 1349.18 1614.16 1349.18 Q1617.7 1349.18 1619.83 1346.68 Q1621.98 1344.16 1621.98 1339.99 L1621.98 1339.04 L1617.75 1339.04 M1626.24 1337.28 L1626.24 1352.07 L1621.98 1352.07 L1621.98 1348.14 Q1620.52 1350.5 1618.35 1351.63 Q1616.17 1352.75 1613.02 1352.75 Q1609.04 1352.75 1606.68 1350.52 Q1604.34 1348.28 1604.34 1344.53 Q1604.34 1340.15 1607.26 1337.93 Q1610.2 1335.71 1616.01 1335.71 L1621.98 1335.71 L1621.98 1335.29 Q1621.98 1332.35 1620.04 1330.76 Q1618.12 1329.13 1614.62 1329.13 Q1612.4 1329.13 1610.29 1329.67 Q1608.19 1330.2 1606.24 1331.26 L1606.24 1327.33 Q1608.58 1326.43 1610.78 1325.99 Q1612.98 1325.52 1615.06 1325.52 Q1620.69 1325.52 1623.46 1328.44 Q1626.24 1331.36 1626.24 1337.28 Z" fill="#000000" fill-rule="nonzero" fill-opacity="1" /><polyline clip-path="url(#clip360)" style="stroke:#3da44d; stroke-linecap:round; stroke-linejoin:round; stroke-width:4; stroke-opacity:1; fill:none" points="910.704,1386.63 1055.28,1386.63 "/>
<path clip-path="url(#clip360)" d="M1083.65 1400.03 L1083.65 1413.78 L1079.37 1413.78 L1079.37 1377.99 L1083.65 1377.99 L1083.65 1381.92 Q1085 1379.61 1087.03 1378.5 Q1089.09 1377.36 1091.94 1377.36 Q1096.66 1377.36 1099.6 1381.11 Q1102.56 1384.86 1102.56 1390.97 Q1102.56 1397.09 1099.6 1400.84 Q1096.66 1404.59 1091.94 1404.59 Q1089.09 1404.59 1087.03 1403.47 Q1085 1402.34 1083.65 1400.03 M1098.14 1390.97 Q1098.14 1386.28 1096.2 1383.61 Q1094.28 1380.93 1090.9 1380.93 Q1087.52 1380.93 1085.57 1383.61 Q1083.65 1386.28 1083.65 1390.97 Q1083.65 1395.67 1085.57 1398.36 Q1087.52 1401.02 1090.9 1401.02 Q1094.28 1401.02 1096.2 1398.36 Q1098.14 1395.67 1098.14 1390.97 Z" fill="#000000" fill-rule="nonzero" fill-opacity="1" /><path clip-path="url(#clip360)" d="M1124.65 1381.97 Q1123.93 1381.55 1123.07 1381.37 Q1122.24 1381.16 1121.22 1381.16 Q1117.61 1381.16 1115.67 1383.52 Q1113.75 1385.86 1113.75 1390.26 L1113.75 1403.91 L1109.46 1403.91 L1109.46 1377.99 L1113.75 1377.99 L1113.75 1382.02 Q1115.09 1379.66 1117.24 1378.52 Q1119.39 1377.36 1122.47 1377.36 Q1122.91 1377.36 1123.44 1377.43 Q1123.98 1377.48 1124.62 1377.6 L1124.65 1381.97 Z" fill="#000000" fill-rule="nonzero" fill-opacity="1" /><path clip-path="url(#clip360)" d="M1140.9 1390.88 Q1135.74 1390.88 1133.75 1392.06 Q1131.75 1393.24 1131.75 1396.09 Q1131.75 1398.36 1133.24 1399.7 Q1134.74 1401.02 1137.31 1401.02 Q1140.85 1401.02 1142.98 1398.52 Q1145.13 1396 1145.13 1391.83 L1145.13 1390.88 L1140.9 1390.88 M1149.39 1389.12 L1149.39 1403.91 L1145.13 1403.91 L1145.13 1399.98 Q1143.68 1402.34 1141.5 1403.47 Q1139.32 1404.59 1136.18 1404.59 Q1132.19 1404.59 1129.83 1402.36 Q1127.5 1400.12 1127.5 1396.37 Q1127.5 1391.99 1130.41 1389.77 Q1133.35 1387.55 1139.16 1387.55 L1145.13 1387.55 L1145.13 1387.13 Q1145.13 1384.19 1143.19 1382.6 Q1141.27 1380.97 1137.77 1380.97 Q1135.55 1380.97 1133.44 1381.51 Q1131.34 1382.04 1129.39 1383.1 L1129.39 1379.17 Q1131.73 1378.27 1133.93 1377.83 Q1136.13 1377.36 1138.21 1377.36 Q1143.84 1377.36 1146.62 1380.28 Q1149.39 1383.2 1149.39 1389.12 Z" fill="#000000" fill-rule="nonzero" fill-opacity="1" /><path clip-path="url(#clip360)" d="M1155.11 1377.99 L1159.62 1377.99 L1167.73 1399.75 L1175.83 1377.99 L1180.34 1377.99 L1170.62 1403.91 L1164.83 1403.91 L1155.11 1377.99 Z" fill="#000000" fill-rule="nonzero" fill-opacity="1" /><path clip-path="url(#clip360)" d="M1198 1390.88 Q1192.84 1390.88 1190.85 1392.06 Q1188.86 1393.24 1188.86 1396.09 Q1188.86 1398.36 1190.34 1399.7 Q1191.85 1401.02 1194.42 1401.02 Q1197.96 1401.02 1200.09 1398.52 Q1202.24 1396 1202.24 1391.83 L1202.24 1390.88 L1198 1390.88 M1206.5 1389.12 L1206.5 1403.91 L1202.24 1403.91 L1202.24 1399.98 Q1200.78 1402.34 1198.61 1403.47 Q1196.43 1404.59 1193.28 1404.59 Q1189.3 1404.59 1186.94 1402.36 Q1184.6 1400.12 1184.6 1396.37 Q1184.6 1391.99 1187.52 1389.77 Q1190.46 1387.55 1196.27 1387.55 L1202.24 1387.55 L1202.24 1387.13 Q1202.24 1384.19 1200.3 1382.6 Q1198.37 1380.97 1194.88 1380.97 Q1192.66 1380.97 1190.55 1381.51 Q1188.44 1382.04 1186.5 1383.1 L1186.5 1379.17 Q1188.84 1378.27 1191.04 1377.83 Q1193.24 1377.36 1195.32 1377.36 Q1200.94 1377.36 1203.72 1380.28 Q1206.5 1383.2 1206.5 1389.12 Z" fill="#000000" fill-rule="nonzero" fill-opacity="1" /><path clip-path="url(#clip360)" d="M1245.36 1381.97 Q1244.65 1381.55 1243.79 1381.37 Q1242.96 1381.16 1241.94 1381.16 Q1238.33 1381.16 1236.38 1383.52 Q1234.46 1385.86 1234.46 1390.26 L1234.46 1403.91 L1230.18 1403.91 L1230.18 1377.99 L1234.46 1377.99 L1234.46 1382.02 Q1235.8 1379.66 1237.96 1378.52 Q1240.11 1377.36 1243.19 1377.36 Q1243.63 1377.36 1244.16 1377.43 Q1244.69 1377.48 1245.34 1377.6 L1245.36 1381.97 Z" fill="#000000" fill-rule="nonzero" fill-opacity="1" /><path clip-path="url(#clip360)" d="M1270.97 1389.89 L1270.97 1391.97 L1251.38 1391.97 Q1251.66 1396.37 1254.02 1398.68 Q1256.41 1400.97 1260.64 1400.97 Q1263.1 1400.97 1265.39 1400.37 Q1267.7 1399.77 1269.97 1398.57 L1269.97 1402.59 Q1267.68 1403.57 1265.27 1404.08 Q1262.86 1404.59 1260.39 1404.59 Q1254.18 1404.59 1250.55 1400.97 Q1246.94 1397.36 1246.94 1391.21 Q1246.94 1384.84 1250.36 1381.11 Q1253.81 1377.36 1259.65 1377.36 Q1264.88 1377.36 1267.91 1380.74 Q1270.97 1384.1 1270.97 1389.89 M1266.71 1388.64 Q1266.66 1385.14 1264.74 1383.06 Q1262.84 1380.97 1259.69 1380.97 Q1256.13 1380.97 1253.98 1382.99 Q1251.85 1385 1251.52 1388.66 L1266.71 1388.64 Z" fill="#000000" fill-rule="nonzero" fill-opacity="1" /><path clip-path="url(#clip360)" d="M1294.48 1378.75 L1294.48 1382.78 Q1292.68 1381.85 1290.73 1381.39 Q1288.79 1380.93 1286.71 1380.93 Q1283.54 1380.93 1281.94 1381.9 Q1280.36 1382.87 1280.36 1384.82 Q1280.36 1386.3 1281.5 1387.16 Q1282.63 1387.99 1286.06 1388.75 L1287.52 1389.08 Q1292.05 1390.05 1293.95 1391.83 Q1295.87 1393.59 1295.87 1396.76 Q1295.87 1400.37 1293 1402.48 Q1290.16 1404.59 1285.16 1404.59 Q1283.07 1404.59 1280.8 1404.17 Q1278.56 1403.78 1276.06 1402.97 L1276.06 1398.57 Q1278.42 1399.79 1280.71 1400.42 Q1283 1401.02 1285.25 1401.02 Q1288.26 1401.02 1289.88 1400 Q1291.5 1398.96 1291.5 1397.09 Q1291.5 1395.35 1290.32 1394.42 Q1289.16 1393.5 1285.2 1392.64 L1283.72 1392.29 Q1279.76 1391.46 1278 1389.75 Q1276.24 1388.01 1276.24 1385 Q1276.24 1381.35 1278.84 1379.35 Q1281.43 1377.36 1286.2 1377.36 Q1288.56 1377.36 1290.64 1377.71 Q1292.73 1378.06 1294.48 1378.75 M1284.62 1374.7 L1278.95 1366 L1282.17 1366 L1286.34 1371.67 L1290.5 1366 L1293.72 1366 L1288.05 1374.7 L1284.62 1374.7 M1286.24 1377.36 L1286.24 1377.36 Z" fill="#000000" fill-rule="nonzero" fill-opacity="1" /><path clip-path="url(#clip360)" d="M1302.66 1377.99 L1306.92 1377.99 L1306.92 1403.91 L1302.66 1403.91 L1302.66 1377.99 M1302.66 1367.9 L1306.92 1367.9 L1306.92 1373.29 L1302.66 1373.29 L1302.66 1367.9 Z" fill="#000000" fill-rule="nonzero" fill-opacity="1" /><path clip-path="url(#clip360)" d="M1320.04 1370.63 L1320.04 1377.99 L1328.81 1377.99 L1328.81 1381.3 L1320.04 1381.3 L1320.04 1395.37 Q1320.04 1398.54 1320.9 1399.45 Q1321.78 1400.35 1324.44 1400.35 L1328.81 1400.35 L1328.81 1403.91 L1324.44 1403.91 Q1319.51 1403.91 1317.63 1402.09 Q1315.76 1400.23 1315.76 1395.37 L1315.76 1381.3 L1312.63 1381.3 L1312.63 1377.99 L1315.76 1377.99 L1315.76 1370.63 L1320.04 1370.63 Z" fill="#000000" fill-rule="nonzero" fill-opacity="1" /><path clip-path="url(#clip360)" d="M1356.59 1389.89 L1356.59 1391.97 L1337.01 1391.97 Q1337.29 1396.37 1339.65 1398.68 Q1342.03 1400.97 1346.27 1400.97 Q1348.72 1400.97 1351.01 1400.37 Q1353.33 1399.77 1355.6 1398.57 L1355.6 1402.59 Q1353.3 1403.57 1350.9 1404.08 Q1348.49 1404.59 1346.01 1404.59 Q1339.81 1404.59 1336.17 1400.97 Q1332.56 1397.36 1332.56 1391.21 Q1332.56 1384.84 1335.99 1381.11 Q1339.44 1377.36 1345.27 1377.36 Q1350.5 1377.36 1353.54 1380.74 Q1356.59 1384.1 1356.59 1389.89 M1352.33 1388.64 Q1352.29 1385.14 1350.36 1383.06 Q1348.47 1380.97 1345.32 1380.97 Q1341.75 1380.97 1339.6 1382.99 Q1337.47 1385 1337.15 1388.66 L1352.33 1388.64 Z" fill="#000000" fill-rule="nonzero" fill-opacity="1" /><path clip-path="url(#clip360)" d="M1360.53 1377.99 L1365.04 1377.99 L1373.14 1399.75 L1381.24 1377.99 L1385.76 1377.99 L1376.04 1403.91 L1370.25 1403.91 L1360.53 1377.99 Z" fill="#000000" fill-rule="nonzero" fill-opacity="1" /></svg>
