<?xml version="1.0" encoding="utf-8"?>
<svg xmlns="http://www.w3.org/2000/svg" xmlns:xlink="http://www.w3.org/1999/xlink" width="600" height="400" viewBox="0 0 2400 1600">
<defs>
  <clipPath id="clip880">
    <rect x="0" y="0" width="2400" height="1600"/>
  </clipPath>
</defs>
<path clip-path="url(#clip880)" d="M0 1600 L2400 1600 L2400 0 L0 0  Z" fill="#ffffff" fill-rule="evenodd" fill-opacity="1"/>
<defs>
  <clipPath id="clip881">
    <rect x="480" y="0" width="1681" height="1600"/>
  </clipPath>
</defs>
<path clip-path="url(#clip880)" d="M185.279 1486.45 L2352.76 1486.45 L2352.76 47.2441 L185.279 47.2441  Z" fill="#ffffff" fill-rule="evenodd" fill-opacity="1"/>
<defs>
  <clipPath id="clip882">
    <rect x="185" y="47" width="2168" height="1440"/>
  </clipPath>
</defs>
<polyline clip-path="url(#clip882)" style="stroke:#000000; stroke-linecap:round; stroke-linejoin:round; stroke-width:2; stroke-opacity:0.1; fill:none" points="451.101,1486.45 451.101,47.2441 "/>
<polyline clip-path="url(#clip882)" style="stroke:#000000; stroke-linecap:round; stroke-linejoin:round; stroke-width:2; stroke-opacity:0.1; fill:none" points="860.059,1486.45 860.059,47.2441 "/>
<polyline clip-path="url(#clip882)" style="stroke:#000000; stroke-linecap:round; stroke-linejoin:round; stroke-width:2; stroke-opacity:0.1; fill:none" points="1269.02,1486.45 1269.02,47.2441 "/>
<polyline clip-path="url(#clip882)" style="stroke:#000000; stroke-linecap:round; stroke-linejoin:round; stroke-width:2; stroke-opacity:0.1; fill:none" points="1677.98,1486.45 1677.98,47.2441 "/>
<polyline clip-path="url(#clip882)" style="stroke:#000000; stroke-linecap:round; stroke-linejoin:round; stroke-width:2; stroke-opacity:0.1; fill:none" points="2086.93,1486.45 2086.93,47.2441 "/>
<polyline clip-path="url(#clip880)" style="stroke:#000000; stroke-linecap:round; stroke-linejoin:round; stroke-width:4; stroke-opacity:1; fill:none" points="185.279,1486.45 2352.76,1486.45 "/>
<polyline clip-path="url(#clip880)" style="stroke:#000000; stroke-linecap:round; stroke-linejoin:round; stroke-width:4; stroke-opacity:1; fill:none" points="451.101,1486.45 451.101,1467.55 "/>
<polyline clip-path="url(#clip880)" style="stroke:#000000; stroke-linecap:round; stroke-linejoin:round; stroke-width:4; stroke-opacity:1; fill:none" points="860.059,1486.45 860.059,1467.55 "/>
<polyline clip-path="url(#clip880)" style="stroke:#000000; stroke-linecap:round; stroke-linejoin:round; stroke-width:4; stroke-opacity:1; fill:none" points="1269.02,1486.45 1269.02,1467.55 "/>
<polyline clip-path="url(#clip880)" style="stroke:#000000; stroke-linecap:round; stroke-linejoin:round; stroke-width:4; stroke-opacity:1; fill:none" points="1677.98,1486.45 1677.98,1467.55 "/>
<polyline clip-path="url(#clip880)" style="stroke:#000000; stroke-linecap:round; stroke-linejoin:round; stroke-width:4; stroke-opacity:1; fill:none" points="2086.93,1486.45 2086.93,1467.55 "/>
<path clip-path="url(#clip880)" d="M397.386 1532.02 L427.062 1532.02 L427.062 1535.95 L397.386 1535.95 L397.386 1532.02 Z" fill="#000000" fill-rule="nonzero" fill-opacity="1" /><path clip-path="url(#clip880)" d="M447.155 1517.37 Q443.543 1517.37 441.715 1520.93 Q439.909 1524.47 439.909 1531.6 Q439.909 1538.71 441.715 1542.27 Q443.543 1545.82 447.155 1545.82 Q450.789 1545.82 452.594 1542.27 Q454.423 1538.71 454.423 1531.6 Q454.423 1524.47 452.594 1520.93 Q450.789 1517.37 447.155 1517.37 M447.155 1513.66 Q452.965 1513.66 456.02 1518.27 Q459.099 1522.85 459.099 1531.6 Q459.099 1540.33 456.02 1544.94 Q452.965 1549.52 447.155 1549.52 Q441.344 1549.52 438.266 1544.94 Q435.21 1540.33 435.21 1531.6 Q435.21 1522.85 438.266 1518.27 Q441.344 1513.66 447.155 1513.66 Z" fill="#000000" fill-rule="nonzero" fill-opacity="1" /><path clip-path="url(#clip880)" d="M467.317 1542.97 L472.201 1542.97 L472.201 1548.85 L467.317 1548.85 L467.317 1542.97 Z" fill="#000000" fill-rule="nonzero" fill-opacity="1" /><path clip-path="url(#clip880)" d="M495.233 1518.36 L483.428 1536.81 L495.233 1536.81 L495.233 1518.36 M494.006 1514.29 L499.886 1514.29 L499.886 1536.81 L504.816 1536.81 L504.816 1540.7 L499.886 1540.7 L499.886 1548.85 L495.233 1548.85 L495.233 1540.7 L479.631 1540.7 L479.631 1536.19 L494.006 1514.29 Z" fill="#000000" fill-rule="nonzero" fill-opacity="1" /><path clip-path="url(#clip880)" d="M807.386 1532.02 L837.062 1532.02 L837.062 1535.95 L807.386 1535.95 L807.386 1532.02 Z" fill="#000000" fill-rule="nonzero" fill-opacity="1" /><path clip-path="url(#clip880)" d="M857.154 1517.37 Q853.543 1517.37 851.714 1520.93 Q849.909 1524.47 849.909 1531.6 Q849.909 1538.71 851.714 1542.27 Q853.543 1545.82 857.154 1545.82 Q860.788 1545.82 862.594 1542.27 Q864.423 1538.71 864.423 1531.6 Q864.423 1524.47 862.594 1520.93 Q860.788 1517.37 857.154 1517.37 M857.154 1513.66 Q862.964 1513.66 866.02 1518.27 Q869.099 1522.85 869.099 1531.6 Q869.099 1540.33 866.02 1544.94 Q862.964 1549.52 857.154 1549.52 Q851.344 1549.52 848.265 1544.94 Q845.21 1540.33 845.21 1531.6 Q845.21 1522.85 848.265 1518.27 Q851.344 1513.66 857.154 1513.66 Z" fill="#000000" fill-rule="nonzero" fill-opacity="1" /><path clip-path="url(#clip880)" d="M877.316 1542.97 L882.2 1542.97 L882.2 1548.85 L877.316 1548.85 L877.316 1542.97 Z" fill="#000000" fill-rule="nonzero" fill-opacity="1" /><path clip-path="url(#clip880)" d="M896.413 1544.91 L912.733 1544.91 L912.733 1548.85 L890.788 1548.85 L890.788 1544.91 Q893.45 1542.16 898.034 1537.53 Q902.64 1532.88 903.821 1531.53 Q906.066 1529.01 906.946 1527.27 Q907.848 1525.51 907.848 1523.82 Q907.848 1521.07 905.904 1519.33 Q903.983 1517.6 900.881 1517.6 Q898.682 1517.6 896.228 1518.36 Q893.798 1519.13 891.02 1520.68 L891.02 1515.95 Q893.844 1514.82 896.298 1514.24 Q898.751 1513.66 900.788 1513.66 Q906.159 1513.66 909.353 1516.35 Q912.547 1519.03 912.547 1523.52 Q912.547 1525.65 911.737 1527.57 Q910.95 1529.47 908.844 1532.07 Q908.265 1532.74 905.163 1535.95 Q902.061 1539.15 896.413 1544.91 Z" fill="#000000" fill-rule="nonzero" fill-opacity="1" /><path clip-path="url(#clip880)" d="M1246.4 1517.37 Q1242.79 1517.37 1240.96 1520.93 Q1239.16 1524.47 1239.16 1531.6 Q1239.16 1538.71 1240.96 1542.27 Q1242.79 1545.82 1246.4 1545.82 Q1250.04 1545.82 1251.84 1542.27 Q1253.67 1538.71 1253.67 1531.6 Q1253.67 1524.47 1251.84 1520.93 Q1250.04 1517.37 1246.4 1517.37 M1246.4 1513.66 Q1252.21 1513.66 1255.27 1518.27 Q1258.35 1522.85 1258.35 1531.6 Q1258.35 1540.33 1255.27 1544.94 Q1252.21 1549.52 1246.4 1549.52 Q1240.59 1549.52 1237.51 1544.94 Q1234.46 1540.33 1234.46 1531.6 Q1234.46 1522.85 1237.51 1518.27 Q1240.59 1513.66 1246.4 1513.66 Z" fill="#000000" fill-rule="nonzero" fill-opacity="1" /><path clip-path="url(#clip880)" d="M1266.56 1542.97 L1271.45 1542.97 L1271.45 1548.85 L1266.56 1548.85 L1266.56 1542.97 Z" fill="#000000" fill-rule="nonzero" fill-opacity="1" /><path clip-path="url(#clip880)" d="M1291.63 1517.37 Q1288.02 1517.37 1286.19 1520.93 Q1284.39 1524.47 1284.39 1531.6 Q1284.39 1538.71 1286.19 1542.27 Q1288.02 1545.82 1291.63 1545.82 Q1295.27 1545.82 1297.07 1542.27 Q1298.9 1538.71 1298.9 1531.6 Q1298.9 1524.47 1297.07 1520.93 Q1295.27 1517.37 1291.63 1517.37 M1291.63 1513.66 Q1297.44 1513.66 1300.5 1518.27 Q1303.58 1522.85 1303.58 1531.6 Q1303.58 1540.33 1300.5 1544.94 Q1297.44 1549.52 1291.63 1549.52 Q1285.82 1549.52 1282.74 1544.94 Q1279.69 1540.33 1279.69 1531.6 Q1279.69 1522.85 1282.74 1518.27 Q1285.82 1513.66 1291.63 1513.66 Z" fill="#000000" fill-rule="nonzero" fill-opacity="1" /><path clip-path="url(#clip880)" d="M1656.16 1517.37 Q1652.55 1517.37 1650.72 1520.93 Q1648.91 1524.47 1648.91 1531.6 Q1648.91 1538.71 1650.72 1542.27 Q1652.55 1545.82 1656.16 1545.82 Q1659.79 1545.82 1661.6 1542.27 Q1663.43 1538.71 1663.43 1531.6 Q1663.43 1524.47 1661.6 1520.93 Q1659.79 1517.37 1656.16 1517.37 M1656.16 1513.66 Q1661.97 1513.66 1665.02 1518.27 Q1668.1 1522.85 1668.1 1531.6 Q1668.1 1540.33 1665.02 1544.94 Q1661.97 1549.52 1656.16 1549.52 Q1650.35 1549.52 1647.27 1544.94 Q1644.21 1540.33 1644.21 1531.6 Q1644.21 1522.85 1647.27 1518.27 Q1650.35 1513.66 1656.16 1513.66 Z" fill="#000000" fill-rule="nonzero" fill-opacity="1" /><path clip-path="url(#clip880)" d="M1676.32 1542.97 L1681.2 1542.97 L1681.2 1548.85 L1676.32 1548.85 L1676.32 1542.97 Z" fill="#000000" fill-rule="nonzero" fill-opacity="1" /><path clip-path="url(#clip880)" d="M1695.42 1544.91 L1711.74 1544.91 L1711.74 1548.85 L1689.79 1548.85 L1689.79 1544.91 Q1692.45 1542.16 1697.04 1537.53 Q1701.64 1532.88 1702.82 1531.53 Q1705.07 1529.01 1705.95 1527.27 Q1706.85 1525.51 1706.85 1523.82 Q1706.85 1521.07 1704.91 1519.33 Q1702.99 1517.6 1699.88 1517.6 Q1697.69 1517.6 1695.23 1518.36 Q1692.8 1519.13 1690.02 1520.68 L1690.02 1515.95 Q1692.85 1514.82 1695.3 1514.24 Q1697.76 1513.66 1699.79 1513.66 Q1705.16 1513.66 1708.36 1516.35 Q1711.55 1519.03 1711.55 1523.52 Q1711.55 1525.65 1710.74 1527.57 Q1709.95 1529.47 1707.85 1532.07 Q1707.27 1532.74 1704.17 1535.95 Q1701.07 1539.15 1695.42 1544.91 Z" fill="#000000" fill-rule="nonzero" fill-opacity="1" /><path clip-path="url(#clip880)" d="M2064.07 1517.37 Q2060.46 1517.37 2058.63 1520.93 Q2056.83 1524.47 2056.83 1531.6 Q2056.83 1538.71 2058.63 1542.27 Q2060.46 1545.82 2064.07 1545.82 Q2067.71 1545.82 2069.51 1542.27 Q2071.34 1538.71 2071.34 1531.6 Q2071.34 1524.47 2069.51 1520.93 Q2067.71 1517.37 2064.07 1517.37 M2064.07 1513.66 Q2069.88 1513.66 2072.94 1518.27 Q2076.02 1522.85 2076.02 1531.6 Q2076.02 1540.33 2072.94 1544.94 Q2069.88 1549.52 2064.07 1549.52 Q2058.26 1549.52 2055.19 1544.94 Q2052.13 1540.33 2052.13 1531.6 Q2052.13 1522.85 2055.19 1518.27 Q2058.26 1513.66 2064.07 1513.66 Z" fill="#000000" fill-rule="nonzero" fill-opacity="1" /><path clip-path="url(#clip880)" d="M2084.24 1542.97 L2089.12 1542.97 L2089.12 1548.85 L2084.24 1548.85 L2084.24 1542.97 Z" fill="#000000" fill-rule="nonzero" fill-opacity="1" /><path clip-path="url(#clip880)" d="M2112.15 1518.36 L2100.35 1536.81 L2112.15 1536.81 L2112.15 1518.36 M2110.93 1514.29 L2116.81 1514.29 L2116.81 1536.81 L2121.74 1536.81 L2121.74 1540.7 L2116.81 1540.7 L2116.81 1548.85 L2112.15 1548.85 L2112.15 1540.7 L2096.55 1540.7 L2096.55 1536.19 L2110.93 1514.29 Z" fill="#000000" fill-rule="nonzero" fill-opacity="1" /><polyline clip-path="url(#clip882)" style="stroke:#000000; stroke-linecap:round; stroke-linejoin:round; stroke-width:2; stroke-opacity:0.1; fill:none" points="185.279,1396.74 2352.76,1396.74 "/>
<polyline clip-path="url(#clip882)" style="stroke:#000000; stroke-linecap:round; stroke-linejoin:round; stroke-width:2; stroke-opacity:0.1; fill:none" points="185.279,1200.83 2352.76,1200.83 "/>
<polyline clip-path="url(#clip882)" style="stroke:#000000; stroke-linecap:round; stroke-linejoin:round; stroke-width:2; stroke-opacity:0.1; fill:none" points="185.279,1004.92 2352.76,1004.92 "/>
<polyline clip-path="url(#clip882)" style="stroke:#000000; stroke-linecap:round; stroke-linejoin:round; stroke-width:2; stroke-opacity:0.1; fill:none" points="185.279,809.004 2352.76,809.004 "/>
<polyline clip-path="url(#clip882)" style="stroke:#000000; stroke-linecap:round; stroke-linejoin:round; stroke-width:2; stroke-opacity:0.1; fill:none" points="185.279,613.092 2352.76,613.092 "/>
<polyline clip-path="url(#clip882)" style="stroke:#000000; stroke-linecap:round; stroke-linejoin:round; stroke-width:2; stroke-opacity:0.1; fill:none" points="185.279,417.181 2352.76,417.181 "/>
<polyline clip-path="url(#clip882)" style="stroke:#000000; stroke-linecap:round; stroke-linejoin:round; stroke-width:2; stroke-opacity:0.1; fill:none" points="185.279,221.27 2352.76,221.27 "/>
<polyline clip-path="url(#clip880)" style="stroke:#000000; stroke-linecap:round; stroke-linejoin:round; stroke-width:4; stroke-opacity:1; fill:none" points="185.279,1486.45 185.279,47.2441 "/>
<polyline clip-path="url(#clip880)" style="stroke:#000000; stroke-linecap:round; stroke-linejoin:round; stroke-width:4; stroke-opacity:1; fill:none" points="185.279,1396.74 204.176,1396.74 "/>
<polyline clip-path="url(#clip880)" style="stroke:#000000; stroke-linecap:round; stroke-linejoin:round; stroke-width:4; stroke-opacity:1; fill:none" points="185.279,1200.83 204.176,1200.83 "/>
<polyline clip-path="url(#clip880)" style="stroke:#000000; stroke-linecap:round; stroke-linejoin:round; stroke-width:4; stroke-opacity:1; fill:none" points="185.279,1004.92 204.176,1004.92 "/>
<polyline clip-path="url(#clip880)" style="stroke:#000000; stroke-linecap:round; stroke-linejoin:round; stroke-width:4; stroke-opacity:1; fill:none" points="185.279,809.004 204.176,809.004 "/>
<polyline clip-path="url(#clip880)" style="stroke:#000000; stroke-linecap:round; stroke-linejoin:round; stroke-width:4; stroke-opacity:1; fill:none" points="185.279,613.092 204.176,613.092 "/>
<polyline clip-path="url(#clip880)" style="stroke:#000000; stroke-linecap:round; stroke-linejoin:round; stroke-width:4; stroke-opacity:1; fill:none" points="185.279,417.181 204.176,417.181 "/>
<polyline clip-path="url(#clip880)" style="stroke:#000000; stroke-linecap:round; stroke-linejoin:round; stroke-width:4; stroke-opacity:1; fill:none" points="185.279,221.27 204.176,221.27 "/>
<path clip-path="url(#clip880)" d="M62.9365 1382.54 Q59.3254 1382.54 57.4967 1386.1 Q55.6912 1389.64 55.6912 1396.77 Q55.6912 1403.88 57.4967 1407.44 Q59.3254 1410.99 62.9365 1410.99 Q66.5707 1410.99 68.3763 1407.44 Q70.205 1403.88 70.205 1396.77 Q70.205 1389.64 68.3763 1386.1 Q66.5707 1382.54 62.9365 1382.54 M62.9365 1378.83 Q68.7467 1378.83 71.8022 1383.44 Q74.8809 1388.02 74.8809 1396.77 Q74.8809 1405.5 71.8022 1410.11 Q68.7467 1414.69 62.9365 1414.69 Q57.1264 1414.69 54.0477 1410.11 Q50.9921 1405.5 50.9921 1396.77 Q50.9921 1388.02 54.0477 1383.44 Q57.1264 1378.83 62.9365 1378.83 Z" fill="#000000" fill-rule="nonzero" fill-opacity="1" /><path clip-path="url(#clip880)" d="M83.0984 1408.14 L87.9827 1408.14 L87.9827 1414.02 L83.0984 1414.02 L83.0984 1408.14 Z" fill="#000000" fill-rule="nonzero" fill-opacity="1" /><path clip-path="url(#clip880)" d="M98.3067 1413.3 L98.3067 1409.04 Q100.066 1409.87 101.871 1410.31 Q103.677 1410.75 105.413 1410.75 Q110.043 1410.75 112.473 1407.65 Q114.927 1404.53 115.274 1398.18 Q113.932 1400.18 111.871 1401.24 Q109.811 1402.3 107.311 1402.3 Q102.126 1402.3 99.0937 1399.18 Q96.0845 1396.03 96.0845 1390.59 Q96.0845 1385.27 99.2326 1382.05 Q102.381 1378.83 107.612 1378.83 Q113.608 1378.83 116.756 1383.44 Q119.927 1388.02 119.927 1396.77 Q119.927 1404.94 116.038 1409.83 Q112.172 1414.69 105.621 1414.69 Q103.862 1414.69 102.057 1414.34 Q100.251 1413.99 98.3067 1413.3 M107.612 1398.65 Q110.76 1398.65 112.589 1396.49 Q114.441 1394.34 114.441 1390.59 Q114.441 1386.87 112.589 1384.71 Q110.76 1382.54 107.612 1382.54 Q104.464 1382.54 102.612 1384.71 Q100.784 1386.87 100.784 1390.59 Q100.784 1394.34 102.612 1396.49 Q104.464 1398.65 107.612 1398.65 Z" fill="#000000" fill-rule="nonzero" fill-opacity="1" /><path clip-path="url(#clip880)" d="M128.376 1379.46 L146.732 1379.46 L146.732 1383.39 L132.658 1383.39 L132.658 1391.87 Q133.677 1391.52 134.695 1391.36 Q135.714 1391.17 136.732 1391.17 Q142.519 1391.17 145.899 1394.34 Q149.279 1397.51 149.279 1402.93 Q149.279 1408.51 145.806 1411.61 Q142.334 1414.69 136.015 1414.69 Q133.839 1414.69 131.57 1414.32 Q129.325 1413.95 126.918 1413.21 L126.918 1408.51 Q129.001 1409.64 131.223 1410.2 Q133.445 1410.75 135.922 1410.75 Q139.927 1410.75 142.265 1408.65 Q144.603 1406.54 144.603 1402.93 Q144.603 1399.32 142.265 1397.21 Q139.927 1395.11 135.922 1395.11 Q134.047 1395.11 132.172 1395.52 Q130.32 1395.94 128.376 1396.82 L128.376 1379.46 Z" fill="#000000" fill-rule="nonzero" fill-opacity="1" /><path clip-path="url(#clip880)" d="M52.7514 1214.17 L60.3902 1214.17 L60.3902 1187.81 L52.0801 1189.47 L52.0801 1185.21 L60.3439 1183.55 L65.0198 1183.55 L65.0198 1214.17 L72.6587 1214.17 L72.6587 1218.11 L52.7514 1218.11 L52.7514 1214.17 Z" fill="#000000" fill-rule="nonzero" fill-opacity="1" /><path clip-path="url(#clip880)" d="M82.1031 1212.23 L86.9873 1212.23 L86.9873 1218.11 L82.1031 1218.11 L82.1031 1212.23 Z" fill="#000000" fill-rule="nonzero" fill-opacity="1" /><path clip-path="url(#clip880)" d="M107.172 1186.63 Q103.561 1186.63 101.733 1190.19 Q99.927 1193.73 99.927 1200.86 Q99.927 1207.97 101.733 1211.53 Q103.561 1215.07 107.172 1215.07 Q110.807 1215.07 112.612 1211.53 Q114.441 1207.97 114.441 1200.86 Q114.441 1193.73 112.612 1190.19 Q110.807 1186.63 107.172 1186.63 M107.172 1182.92 Q112.983 1182.92 116.038 1187.53 Q119.117 1192.11 119.117 1200.86 Q119.117 1209.59 116.038 1214.19 Q112.983 1218.78 107.172 1218.78 Q101.362 1218.78 98.2835 1214.19 Q95.228 1209.59 95.228 1200.86 Q95.228 1192.11 98.2835 1187.53 Q101.362 1182.92 107.172 1182.92 Z" fill="#000000" fill-rule="nonzero" fill-opacity="1" /><path clip-path="url(#clip880)" d="M137.334 1186.63 Q133.723 1186.63 131.894 1190.19 Q130.089 1193.73 130.089 1200.86 Q130.089 1207.97 131.894 1211.53 Q133.723 1215.07 137.334 1215.07 Q140.968 1215.07 142.774 1211.53 Q144.603 1207.97 144.603 1200.86 Q144.603 1193.73 142.774 1190.19 Q140.968 1186.63 137.334 1186.63 M137.334 1182.92 Q143.144 1182.92 146.2 1187.53 Q149.279 1192.11 149.279 1200.86 Q149.279 1209.59 146.2 1214.19 Q143.144 1218.78 137.334 1218.78 Q131.524 1218.78 128.445 1214.19 Q125.39 1209.59 125.39 1200.86 Q125.39 1192.11 128.445 1187.53 Q131.524 1182.92 137.334 1182.92 Z" fill="#000000" fill-rule="nonzero" fill-opacity="1" /><path clip-path="url(#clip880)" d="M53.7467 1018.26 L61.3856 1018.26 L61.3856 991.894 L53.0754 993.561 L53.0754 989.302 L61.3393 987.635 L66.0152 987.635 L66.0152 1018.26 L73.654 1018.26 L73.654 1022.2 L53.7467 1022.2 L53.7467 1018.26 Z" fill="#000000" fill-rule="nonzero" fill-opacity="1" /><path clip-path="url(#clip880)" d="M83.0984 1016.32 L87.9827 1016.32 L87.9827 1022.2 L83.0984 1022.2 L83.0984 1016.32 Z" fill="#000000" fill-rule="nonzero" fill-opacity="1" /><path clip-path="url(#clip880)" d="M108.168 990.714 Q104.557 990.714 102.728 994.279 Q100.922 997.82 100.922 1004.95 Q100.922 1012.06 102.728 1015.62 Q104.557 1019.16 108.168 1019.16 Q111.802 1019.16 113.608 1015.62 Q115.436 1012.06 115.436 1004.95 Q115.436 997.82 113.608 994.279 Q111.802 990.714 108.168 990.714 M108.168 987.01 Q113.978 987.01 117.033 991.617 Q120.112 996.2 120.112 1004.95 Q120.112 1013.68 117.033 1018.28 Q113.978 1022.87 108.168 1022.87 Q102.358 1022.87 99.2789 1018.28 Q96.2234 1013.68 96.2234 1004.95 Q96.2234 996.2 99.2789 991.617 Q102.358 987.01 108.168 987.01 Z" fill="#000000" fill-rule="nonzero" fill-opacity="1" /><path clip-path="url(#clip880)" d="M128.376 987.635 L146.732 987.635 L146.732 991.57 L132.658 991.57 L132.658 1000.04 Q133.677 999.695 134.695 999.533 Q135.714 999.348 136.732 999.348 Q142.519 999.348 145.899 1002.52 Q149.279 1005.69 149.279 1011.11 Q149.279 1016.69 145.806 1019.79 Q142.334 1022.87 136.015 1022.87 Q133.839 1022.87 131.57 1022.5 Q129.325 1022.13 126.918 1021.38 L126.918 1016.69 Q129.001 1017.82 131.223 1018.38 Q133.445 1018.93 135.922 1018.93 Q139.927 1018.93 142.265 1016.82 Q144.603 1014.72 144.603 1011.11 Q144.603 1007.5 142.265 1005.39 Q139.927 1003.28 135.922 1003.28 Q134.047 1003.28 132.172 1003.7 Q130.32 1004.12 128.376 1005 L128.376 987.635 Z" fill="#000000" fill-rule="nonzero" fill-opacity="1" /><path clip-path="url(#clip880)" d="M52.7514 822.349 L60.3902 822.349 L60.3902 795.983 L52.0801 797.65 L52.0801 793.39 L60.3439 791.724 L65.0198 791.724 L65.0198 822.349 L72.6587 822.349 L72.6587 826.284 L52.7514 826.284 L52.7514 822.349 Z" fill="#000000" fill-rule="nonzero" fill-opacity="1" /><path clip-path="url(#clip880)" d="M82.1031 820.404 L86.9873 820.404 L86.9873 826.284 L82.1031 826.284 L82.1031 820.404 Z" fill="#000000" fill-rule="nonzero" fill-opacity="1" /><path clip-path="url(#clip880)" d="M97.9826 822.349 L105.621 822.349 L105.621 795.983 L97.3113 797.65 L97.3113 793.39 L105.575 791.724 L110.251 791.724 L110.251 822.349 L117.89 822.349 L117.89 826.284 L97.9826 826.284 L97.9826 822.349 Z" fill="#000000" fill-rule="nonzero" fill-opacity="1" /><path clip-path="url(#clip880)" d="M137.334 794.802 Q133.723 794.802 131.894 798.367 Q130.089 801.909 130.089 809.038 Q130.089 816.145 131.894 819.71 Q133.723 823.251 137.334 823.251 Q140.968 823.251 142.774 819.71 Q144.603 816.145 144.603 809.038 Q144.603 801.909 142.774 798.367 Q140.968 794.802 137.334 794.802 M137.334 791.099 Q143.144 791.099 146.2 795.705 Q149.279 800.288 149.279 809.038 Q149.279 817.765 146.2 822.372 Q143.144 826.955 137.334 826.955 Q131.524 826.955 128.445 822.372 Q125.39 817.765 125.39 809.038 Q125.39 800.288 128.445 795.705 Q131.524 791.099 137.334 791.099 Z" fill="#000000" fill-rule="nonzero" fill-opacity="1" /><path clip-path="url(#clip880)" d="M53.7467 626.437 L61.3856 626.437 L61.3856 600.072 L53.0754 601.738 L53.0754 597.479 L61.3393 595.812 L66.0152 595.812 L66.0152 626.437 L73.654 626.437 L73.654 630.372 L53.7467 630.372 L53.7467 626.437 Z" fill="#000000" fill-rule="nonzero" fill-opacity="1" /><path clip-path="url(#clip880)" d="M83.0984 624.493 L87.9827 624.493 L87.9827 630.372 L83.0984 630.372 L83.0984 624.493 Z" fill="#000000" fill-rule="nonzero" fill-opacity="1" /><path clip-path="url(#clip880)" d="M98.978 626.437 L106.617 626.437 L106.617 600.072 L98.3067 601.738 L98.3067 597.479 L106.571 595.812 L111.246 595.812 L111.246 626.437 L118.885 626.437 L118.885 630.372 L98.978 630.372 L98.978 626.437 Z" fill="#000000" fill-rule="nonzero" fill-opacity="1" /><path clip-path="url(#clip880)" d="M128.376 595.812 L146.732 595.812 L146.732 599.748 L132.658 599.748 L132.658 608.22 Q133.677 607.872 134.695 607.71 Q135.714 607.525 136.732 607.525 Q142.519 607.525 145.899 610.697 Q149.279 613.868 149.279 619.284 Q149.279 624.863 145.806 627.965 Q142.334 631.044 136.015 631.044 Q133.839 631.044 131.57 630.673 Q129.325 630.303 126.918 629.562 L126.918 624.863 Q129.001 625.997 131.223 626.553 Q133.445 627.108 135.922 627.108 Q139.927 627.108 142.265 625.002 Q144.603 622.896 144.603 619.284 Q144.603 615.673 142.265 613.567 Q139.927 611.46 135.922 611.46 Q134.047 611.46 132.172 611.877 Q130.32 612.294 128.376 613.173 L128.376 595.812 Z" fill="#000000" fill-rule="nonzero" fill-opacity="1" /><path clip-path="url(#clip880)" d="M52.7514 430.526 L60.3902 430.526 L60.3902 404.16 L52.0801 405.827 L52.0801 401.568 L60.3439 399.901 L65.0198 399.901 L65.0198 430.526 L72.6587 430.526 L72.6587 434.461 L52.7514 434.461 L52.7514 430.526 Z" fill="#000000" fill-rule="nonzero" fill-opacity="1" /><path clip-path="url(#clip880)" d="M82.1031 428.581 L86.9873 428.581 L86.9873 434.461 L82.1031 434.461 L82.1031 428.581 Z" fill="#000000" fill-rule="nonzero" fill-opacity="1" /><path clip-path="url(#clip880)" d="M101.2 430.526 L117.52 430.526 L117.52 434.461 L95.5752 434.461 L95.5752 430.526 Q98.2372 427.771 102.821 423.142 Q107.427 418.489 108.608 417.146 Q110.853 414.623 111.733 412.887 Q112.635 411.128 112.635 409.438 Q112.635 406.683 110.691 404.947 Q108.77 403.211 105.668 403.211 Q103.469 403.211 101.015 403.975 Q98.5845 404.739 95.8067 406.29 L95.8067 401.568 Q98.6308 400.433 101.084 399.855 Q103.538 399.276 105.575 399.276 Q110.946 399.276 114.14 401.961 Q117.334 404.646 117.334 409.137 Q117.334 411.267 116.524 413.188 Q115.737 415.086 113.631 417.679 Q113.052 418.35 109.95 421.568 Q106.848 424.762 101.2 430.526 Z" fill="#000000" fill-rule="nonzero" fill-opacity="1" /><path clip-path="url(#clip880)" d="M137.334 402.98 Q133.723 402.98 131.894 406.544 Q130.089 410.086 130.089 417.216 Q130.089 424.322 131.894 427.887 Q133.723 431.429 137.334 431.429 Q140.968 431.429 142.774 427.887 Q144.603 424.322 144.603 417.216 Q144.603 410.086 142.774 406.544 Q140.968 402.98 137.334 402.98 M137.334 399.276 Q143.144 399.276 146.2 403.882 Q149.279 408.466 149.279 417.216 Q149.279 425.943 146.2 430.549 Q143.144 435.132 137.334 435.132 Q131.524 435.132 128.445 430.549 Q125.39 425.943 125.39 417.216 Q125.39 408.466 128.445 403.882 Q131.524 399.276 137.334 399.276 Z" fill="#000000" fill-rule="nonzero" fill-opacity="1" /><path clip-path="url(#clip880)" d="M53.7467 234.614 L61.3856 234.614 L61.3856 208.249 L53.0754 209.915 L53.0754 205.656 L61.3393 203.99 L66.0152 203.99 L66.0152 234.614 L73.654 234.614 L73.654 238.55 L53.7467 238.55 L53.7467 234.614 Z" fill="#000000" fill-rule="nonzero" fill-opacity="1" /><path clip-path="url(#clip880)" d="M83.0984 232.67 L87.9827 232.67 L87.9827 238.55 L83.0984 238.55 L83.0984 232.67 Z" fill="#000000" fill-rule="nonzero" fill-opacity="1" /><path clip-path="url(#clip880)" d="M102.196 234.614 L118.515 234.614 L118.515 238.55 L96.5706 238.55 L96.5706 234.614 Q99.2326 231.86 103.816 227.23 Q108.422 222.577 109.603 221.235 Q111.848 218.712 112.728 216.976 Q113.631 215.216 113.631 213.527 Q113.631 210.772 111.686 209.036 Q109.765 207.3 106.663 207.3 Q104.464 207.3 102.01 208.064 Q99.5798 208.828 96.8021 210.378 L96.8021 205.656 Q99.6261 204.522 102.08 203.943 Q104.534 203.365 106.571 203.365 Q111.941 203.365 115.135 206.05 Q118.33 208.735 118.33 213.226 Q118.33 215.355 117.52 217.277 Q116.733 219.175 114.626 221.767 Q114.047 222.439 110.946 225.656 Q107.844 228.851 102.196 234.614 Z" fill="#000000" fill-rule="nonzero" fill-opacity="1" /><path clip-path="url(#clip880)" d="M128.376 203.99 L146.732 203.99 L146.732 207.925 L132.658 207.925 L132.658 216.397 Q133.677 216.05 134.695 215.888 Q135.714 215.703 136.732 215.703 Q142.519 215.703 145.899 218.874 Q149.279 222.045 149.279 227.462 Q149.279 233.04 145.806 236.142 Q142.334 239.221 136.015 239.221 Q133.839 239.221 131.57 238.851 Q129.325 238.48 126.918 237.739 L126.918 233.04 Q129.001 234.175 131.223 234.73 Q133.445 235.286 135.922 235.286 Q139.927 235.286 142.265 233.179 Q144.603 231.073 144.603 227.462 Q144.603 223.851 142.265 221.744 Q139.927 219.638 135.922 219.638 Q134.047 219.638 132.172 220.054 Q130.32 220.471 128.376 221.351 L128.376 203.99 Z" fill="#000000" fill-rule="nonzero" fill-opacity="1" /><circle clip-path="url(#clip882)" cx="246.622" cy="1200.83" r="14.4" fill="#009af9" fill-rule="evenodd" fill-opacity="1" stroke="#000000" stroke-opacity="1" stroke-width="3.2"/>
<circle clip-path="url(#clip882)" cx="1269.02" cy="221.27" r="14.4" fill="#009af9" fill-rule="evenodd" fill-opacity="1" stroke="#000000" stroke-opacity="1" stroke-width="3.2"/>
<circle clip-path="url(#clip882)" cx="2291.41" cy="1445.72" r="14.4" fill="#009af9" fill-rule="evenodd" fill-opacity="1" stroke="#000000" stroke-opacity="1" stroke-width="3.2"/>
<polyline clip-path="url(#clip882)" style="stroke:#e26f46; stroke-linecap:round; stroke-linejoin:round; stroke-width:4; stroke-opacity:1; fill:none" points="246.622,1200.83 249.951,1194.46 253.279,1188.11 256.607,1181.79 259.935,1175.48 290.709,1118.17 321.483,1062.63 352.256,1008.87 383.03,956.879 420.018,896.741 457.005,839.168 488.278,792.491 519.55,747.647 553.521,701.011 587.491,656.538 618.809,617.453 650.127,580.207 683.704,542.317 717.28,506.54 756.181,467.731 795.082,431.759 829.653,402.171 864.224,374.823 894.54,352.684 924.855,332.268 957.907,311.972 990.959,293.724 1024.21,277.432 1057.46,263.213 1094.22,249.903 1130.98,239.126 1165.95,231.224 1200.93,225.614 1237.3,222.212 1273.67,221.308 1304.28,223.429 1334.89,228.731 1353.58,233.488 1372.27,239.371 1390.96,246.358 1409.65,254.425 1443.88,271.935 1478.12,292.861 1509.74,315.101 1541.37,340.028 1573.4,367.906 1605.43,398.316 1641.33,435.267 1677.23,475.098 1709.76,513.545 1742.29,554.107 1779.54,602.994 1816.78,654.322 1851.27,703.869 1885.75,755.214 1919.75,807.459 1953.75,861.18 1986.76,914.624 2019.77,969.209 2053.61,1026.22 2087.45,1084.17 2124.52,1148.57 2161.6,1213.77 2215.46,1309.52 2269.31,1406.02 2280.36,1425.87 2291.41,1445.72 "/>
<polyline clip-path="url(#clip882)" style="stroke:#3da44d; stroke-linecap:round; stroke-linejoin:round; stroke-width:4; stroke-opacity:1; fill:none" points="246.622,1200.83 249.951,1194.45 253.279,1188.09 256.607,1181.74 259.935,1175.4 290.709,1117.29 321.483,1060.16 352.256,1004.09 383.03,949.125 420.018,884.63 457.005,821.952 488.278,770.455 519.55,720.4 553.521,667.733 587.491,616.921 618.809,571.787 650.127,528.355 683.704,483.747 717.28,441.229 736.73,417.58 756.181,394.666 775.632,372.5 795.082,351.092 829.653,314.951 864.224,281.303 894.54,253.892 924.855,228.476 957.907,203.077 990.959,180.128 1024.21,159.55 1057.46,141.519 1075.84,132.655 1094.22,124.583 1112.6,117.305 1130.98,110.827 1148.47,105.407 1165.95,100.715 1183.44,96.7543 1200.93,93.5254 1219.11,90.9459 1237.3,89.1608 1255.48,88.1707 1273.67,87.9763 1304.28,89.4462 1334.89,93.1694 1353.58,96.5476 1372.27,100.762 1390.96,105.81 1409.65,111.69 1443.88,124.61 1478.12,140.29 1509.74,157.199 1541.37,176.416 1573.4,198.206 1605.43,222.304 1641.33,252.011 1677.23,284.518 1693.49,300.153 1709.76,316.345 1726.03,333.089 1742.29,350.378 1779.54,391.985 1816.78,436.338 1851.27,479.779 1885.75,525.431 1919.75,572.531 1953.75,621.635 1986.76,671.158 2019.77,722.428 2053.61,776.722 2087.45,832.695 2124.52,895.848 2161.6,960.805 2215.46,1058.15 2269.31,1158.72 2280.36,1179.71 2291.41,1200.83 "/>
<path clip-path="url(#clip880)" d="M887.207 1438.47 L1650.83 1438.47 L1650.83 1231.11 L887.207 1231.11  Z" fill="#ffffff" fill-rule="evenodd" fill-opacity="1"/>
<polyline clip-path="url(#clip880)" style="stroke:#000000; stroke-linecap:round; stroke-linejoin:round; stroke-width:4; stroke-opacity:1; fill:none" points="887.207,1438.47 1650.83,1438.47 1650.83,1231.11 887.207,1231.11 887.207,1438.47 "/>
<circle clip-path="url(#clip880)" cx="983.54" cy="1282.95" r="20.48" fill="#009af9" fill-rule="evenodd" fill-opacity="1" stroke="#000000" stroke-opacity="1" stroke-width="4.55111"/>
<path clip-path="url(#clip880)" d="M1084.15 1296.35 L1084.15 1310.1 L1079.87 1310.1 L1079.87 1274.31 L1084.15 1274.31 L1084.15 1278.24 Q1085.5 1275.93 1087.53 1274.82 Q1089.59 1273.68 1092.44 1273.68 Q1097.16 1273.68 1100.1 1277.43 Q1103.07 1281.18 1103.07 1287.29 Q1103.07 1293.41 1100.1 1297.16 Q1097.16 1300.91 1092.44 1300.91 Q1089.59 1300.91 1087.53 1299.79 Q1085.5 1298.66 1084.15 1296.35 M1098.65 1287.29 Q1098.65 1282.6 1096.7 1279.93 Q1094.78 1277.25 1091.4 1277.25 Q1088.02 1277.25 1086.08 1279.93 Q1084.15 1282.6 1084.15 1287.29 Q1084.15 1291.99 1086.08 1294.68 Q1088.02 1297.34 1091.4 1297.34 Q1094.78 1297.34 1096.7 1294.68 Q1098.65 1291.99 1098.65 1287.29 Z" fill="#000000" fill-rule="nonzero" fill-opacity="1" /><path clip-path="url(#clip880)" d="M1125.15 1278.29 Q1124.43 1277.87 1123.58 1277.69 Q1122.74 1277.48 1121.72 1277.48 Q1118.11 1277.48 1116.17 1279.84 Q1114.25 1282.18 1114.25 1286.58 L1114.25 1300.23 L1109.96 1300.23 L1109.96 1274.31 L1114.25 1274.31 L1114.25 1278.34 Q1115.59 1275.98 1117.74 1274.84 Q1119.89 1273.68 1122.97 1273.68 Q1123.41 1273.68 1123.95 1273.75 Q1124.48 1273.8 1125.13 1273.92 L1125.15 1278.29 Z" fill="#000000" fill-rule="nonzero" fill-opacity="1" /><path clip-path="url(#clip880)" d="M1129.62 1274.31 L1133.88 1274.31 L1133.88 1300.23 L1129.62 1300.23 L1129.62 1274.31 M1129.62 1264.22 L1133.88 1264.22 L1133.88 1269.61 L1129.62 1269.61 L1129.62 1264.22 Z" fill="#000000" fill-rule="nonzero" fill-opacity="1" /><path clip-path="url(#clip880)" d="M1161.4 1287.29 Q1161.4 1282.6 1159.45 1279.93 Q1157.53 1277.25 1154.15 1277.25 Q1150.77 1277.25 1148.83 1279.93 Q1146.91 1282.6 1146.91 1287.29 Q1146.91 1291.99 1148.83 1294.68 Q1150.77 1297.34 1154.15 1297.34 Q1157.53 1297.34 1159.45 1294.68 Q1161.4 1291.99 1161.4 1287.29 M1146.91 1278.24 Q1148.25 1275.93 1150.29 1274.82 Q1152.35 1273.68 1155.2 1273.68 Q1159.92 1273.68 1162.86 1277.43 Q1165.82 1281.18 1165.82 1287.29 Q1165.82 1293.41 1162.86 1297.16 Q1159.92 1300.91 1155.2 1300.91 Q1152.35 1300.91 1150.29 1299.79 Q1148.25 1298.66 1146.91 1296.35 L1146.91 1300.23 L1142.63 1300.23 L1142.63 1264.22 L1146.91 1264.22 L1146.91 1278.24 Z" fill="#000000" fill-rule="nonzero" fill-opacity="1" /><path clip-path="url(#clip880)" d="M1172.88 1264.22 L1177.14 1264.22 L1177.14 1300.23 L1172.88 1300.23 L1172.88 1264.22 Z" fill="#000000" fill-rule="nonzero" fill-opacity="1" /><path clip-path="url(#clip880)" d="M1186.05 1274.31 L1190.31 1274.31 L1190.31 1300.23 L1186.05 1300.23 L1186.05 1274.31 M1186.05 1264.22 L1190.31 1264.22 L1190.31 1269.61 L1186.05 1269.61 L1186.05 1264.22 Z" fill="#000000" fill-rule="nonzero" fill-opacity="1" /><path clip-path="url(#clip880)" d="M1197.37 1274.31 L1217.6 1274.31 L1217.6 1278.2 L1201.58 1296.83 L1217.6 1296.83 L1217.6 1300.23 L1196.79 1300.23 L1196.79 1296.35 L1212.81 1277.71 L1197.37 1277.71 L1197.37 1274.31 M1205.52 1271.02 L1199.85 1262.32 L1203.07 1262.32 L1207.23 1267.99 L1211.4 1262.32 L1214.62 1262.32 L1208.95 1271.02 L1205.52 1271.02 Z" fill="#000000" fill-rule="nonzero" fill-opacity="1" /><path clip-path="url(#clip880)" d="M1223.95 1264.22 L1228.23 1264.22 L1228.23 1285.49 L1240.94 1274.31 L1246.38 1274.31 L1232.63 1286.44 L1246.95 1300.23 L1241.4 1300.23 L1228.23 1287.57 L1228.23 1300.23 L1223.95 1300.23 L1223.95 1264.22 Z" fill="#000000" fill-rule="nonzero" fill-opacity="1" /><path clip-path="url(#clip880)" d="M1251.56 1274.31 L1255.82 1274.31 L1255.82 1300.23 L1251.56 1300.23 L1251.56 1274.31 M1251.56 1264.22 L1255.82 1264.22 L1255.82 1269.61 L1251.56 1269.61 L1251.56 1264.22 Z" fill="#000000" fill-rule="nonzero" fill-opacity="1" /><path clip-path="url(#clip880)" d="M1296.38 1284.03 Q1297.88 1284.54 1299.29 1286.21 Q1300.73 1287.87 1302.16 1290.79 L1306.91 1300.23 L1301.88 1300.23 L1297.46 1291.37 Q1295.75 1287.9 1294.13 1286.76 Q1292.53 1285.63 1289.76 1285.63 L1284.66 1285.63 L1284.66 1300.23 L1279.99 1300.23 L1279.99 1265.67 L1290.54 1265.67 Q1296.47 1265.67 1299.38 1268.15 Q1302.3 1270.63 1302.3 1275.63 Q1302.3 1278.89 1300.77 1281.04 Q1299.27 1283.2 1296.38 1284.03 M1284.66 1269.52 L1284.66 1281.79 L1290.54 1281.79 Q1293.92 1281.79 1295.63 1280.23 Q1297.37 1278.66 1297.37 1275.63 Q1297.37 1272.6 1295.63 1271.07 Q1293.92 1269.52 1290.54 1269.52 L1284.66 1269.52 Z" fill="#000000" fill-rule="nonzero" fill-opacity="1" /><path clip-path="url(#clip880)" d="M1312.93 1265.67 L1317.6 1265.67 L1317.6 1280.28 L1333.11 1265.67 L1339.13 1265.67 L1321.98 1281.79 L1340.36 1300.23 L1334.2 1300.23 L1317.6 1283.59 L1317.6 1300.23 L1312.93 1300.23 L1312.93 1265.67 Z" fill="#000000" fill-rule="nonzero" fill-opacity="1" /><path clip-path="url(#clip880)" d="M1348.46 1296.3 L1364.78 1296.3 L1364.78 1300.23 L1342.83 1300.23 L1342.83 1296.3 Q1345.5 1293.54 1350.08 1288.92 Q1354.69 1284.26 1355.87 1282.92 Q1358.11 1280.4 1358.99 1278.66 Q1359.89 1276.9 1359.89 1275.21 Q1359.89 1272.46 1357.95 1270.72 Q1356.03 1268.98 1352.93 1268.98 Q1350.73 1268.98 1348.27 1269.75 Q1345.84 1270.51 1343.07 1272.06 L1343.07 1267.34 Q1345.89 1266.21 1348.34 1265.63 Q1350.8 1265.05 1352.83 1265.05 Q1358.2 1265.05 1361.4 1267.73 Q1364.59 1270.42 1364.59 1274.91 Q1364.59 1277.04 1363.78 1278.96 Q1363 1280.86 1360.89 1283.45 Q1360.31 1284.12 1357.21 1287.34 Q1354.11 1290.54 1348.46 1296.3 Z" fill="#000000" fill-rule="nonzero" fill-opacity="1" /><polyline clip-path="url(#clip880)" style="stroke:#e26f46; stroke-linecap:round; stroke-linejoin:round; stroke-width:4; stroke-opacity:1; fill:none" points="911.29,1334.79 1055.79,1334.79 "/>
<path clip-path="url(#clip880)" d="M1079.87 1317.51 L1084.55 1317.51 L1084.55 1331.68 L1101.54 1331.68 L1101.54 1317.51 L1106.21 1317.51 L1106.21 1352.07 L1101.54 1352.07 L1101.54 1335.62 L1084.55 1335.62 L1084.55 1352.07 L1079.87 1352.07 L1079.87 1317.51 Z" fill="#000000" fill-rule="nonzero" fill-opacity="1" /><path clip-path="url(#clip880)" d="M1137.51 1338.05 L1137.51 1340.13 L1117.93 1340.13 Q1118.21 1344.53 1120.57 1346.84 Q1122.95 1349.13 1127.19 1349.13 Q1129.64 1349.13 1131.93 1348.53 Q1134.25 1347.93 1136.52 1346.73 L1136.52 1350.75 Q1134.22 1351.73 1131.82 1352.24 Q1129.41 1352.75 1126.93 1352.75 Q1120.73 1352.75 1117.09 1349.13 Q1113.48 1345.52 1113.48 1339.37 Q1113.48 1333 1116.91 1329.27 Q1120.36 1325.52 1126.19 1325.52 Q1131.42 1325.52 1134.46 1328.9 Q1137.51 1332.26 1137.51 1338.05 M1133.25 1336.8 Q1133.21 1333.3 1131.28 1331.22 Q1129.39 1329.13 1126.24 1329.13 Q1122.67 1329.13 1120.52 1331.15 Q1118.39 1333.16 1118.07 1336.82 L1133.25 1336.8 Z" fill="#000000" fill-rule="nonzero" fill-opacity="1" /><path clip-path="url(#clip880)" d="M1159.52 1330.13 Q1158.81 1329.71 1157.95 1329.53 Q1157.12 1329.32 1156.1 1329.32 Q1152.49 1329.32 1150.54 1331.68 Q1148.62 1334.02 1148.62 1338.42 L1148.62 1352.07 L1144.34 1352.07 L1144.34 1326.15 L1148.62 1326.15 L1148.62 1330.18 Q1149.96 1327.82 1152.12 1326.68 Q1154.27 1325.52 1157.35 1325.52 Q1157.79 1325.52 1158.32 1325.59 Q1158.85 1325.64 1159.5 1325.76 L1159.52 1330.13 Z" fill="#000000" fill-rule="nonzero" fill-opacity="1" /><path clip-path="url(#clip880)" d="M1183.34 1331.13 Q1184.94 1328.26 1187.16 1326.89 Q1189.39 1325.52 1192.39 1325.52 Q1196.45 1325.52 1198.64 1328.37 Q1200.84 1331.19 1200.84 1336.43 L1200.84 1352.07 L1196.56 1352.07 L1196.56 1336.57 Q1196.56 1332.84 1195.24 1331.03 Q1193.92 1329.23 1191.21 1329.23 Q1187.9 1329.23 1185.98 1331.43 Q1184.06 1333.63 1184.06 1337.42 L1184.06 1352.07 L1179.78 1352.07 L1179.78 1336.57 Q1179.78 1332.82 1178.46 1331.03 Q1177.14 1329.23 1174.39 1329.23 Q1171.12 1329.23 1169.2 1331.45 Q1167.28 1333.65 1167.28 1337.42 L1167.28 1352.07 L1163 1352.07 L1163 1326.15 L1167.28 1326.15 L1167.28 1330.18 Q1168.74 1327.79 1170.77 1326.66 Q1172.81 1325.52 1175.61 1325.52 Q1178.44 1325.52 1180.4 1326.96 Q1182.39 1328.39 1183.34 1331.13 Z" fill="#000000" fill-rule="nonzero" fill-opacity="1" /><path clip-path="url(#clip880)" d="M1209.34 1326.15 L1213.6 1326.15 L1213.6 1352.07 L1209.34 1352.07 L1209.34 1326.15 M1209.34 1316.06 L1213.6 1316.06 L1213.6 1321.45 L1209.34 1321.45 L1209.34 1316.06 Z" fill="#000000" fill-rule="nonzero" fill-opacity="1" /><path clip-path="url(#clip880)" d="M1226.72 1318.79 L1226.72 1326.15 L1235.5 1326.15 L1235.5 1329.46 L1226.72 1329.46 L1226.72 1343.53 Q1226.72 1346.7 1227.58 1347.61 Q1228.46 1348.51 1231.12 1348.51 L1235.5 1348.51 L1235.5 1352.07 L1231.12 1352.07 Q1226.19 1352.07 1224.32 1350.25 Q1222.44 1348.39 1222.44 1343.53 L1222.44 1329.46 L1219.32 1329.46 L1219.32 1326.15 L1222.44 1326.15 L1222.44 1318.79 L1226.72 1318.79 Z" fill="#000000" fill-rule="nonzero" fill-opacity="1" /><path clip-path="url(#clip880)" d="M1251.14 1329.13 Q1247.72 1329.13 1245.73 1331.82 Q1243.74 1334.48 1243.74 1339.13 Q1243.74 1343.79 1245.7 1346.47 Q1247.7 1349.13 1251.14 1349.13 Q1254.55 1349.13 1256.54 1346.45 Q1258.53 1343.76 1258.53 1339.13 Q1258.53 1334.53 1256.54 1331.84 Q1254.55 1329.13 1251.14 1329.13 M1251.14 1325.52 Q1256.7 1325.52 1259.87 1329.13 Q1263.04 1332.75 1263.04 1339.13 Q1263.04 1345.5 1259.87 1349.13 Q1256.7 1352.75 1251.14 1352.75 Q1245.57 1352.75 1242.39 1349.13 Q1239.25 1345.5 1239.25 1339.13 Q1239.25 1332.75 1242.39 1329.13 Q1245.57 1325.52 1251.14 1325.52 Z" fill="#000000" fill-rule="nonzero" fill-opacity="1" /><path clip-path="url(#clip880)" d="M1267.05 1326.15 L1271.56 1326.15 L1279.66 1347.91 L1287.76 1326.15 L1292.28 1326.15 L1282.56 1352.07 L1276.77 1352.07 L1267.05 1326.15 Z" fill="#000000" fill-rule="nonzero" fill-opacity="1" /><path clip-path="url(#clip880)" d="M1309.94 1339.04 Q1304.78 1339.04 1302.79 1340.22 Q1300.8 1341.4 1300.8 1344.25 Q1300.8 1346.52 1302.28 1347.86 Q1303.78 1349.18 1306.35 1349.18 Q1309.89 1349.18 1312.02 1346.68 Q1314.18 1344.16 1314.18 1339.99 L1314.18 1339.04 L1309.94 1339.04 M1318.44 1337.28 L1318.44 1352.07 L1314.18 1352.07 L1314.18 1348.14 Q1312.72 1350.5 1310.54 1351.63 Q1308.37 1352.75 1305.22 1352.75 Q1301.24 1352.75 1298.88 1350.52 Q1296.54 1348.28 1296.54 1344.53 Q1296.54 1340.15 1299.45 1337.93 Q1302.39 1335.71 1308.2 1335.71 L1314.18 1335.71 L1314.18 1335.29 Q1314.18 1332.35 1312.23 1330.76 Q1310.31 1329.13 1306.82 1329.13 Q1304.59 1329.13 1302.49 1329.67 Q1300.38 1330.2 1298.44 1331.26 L1298.44 1327.33 Q1300.77 1326.43 1302.97 1325.99 Q1305.17 1325.52 1307.26 1325.52 Q1312.88 1325.52 1315.66 1328.44 Q1318.44 1331.36 1318.44 1337.28 Z" fill="#000000" fill-rule="nonzero" fill-opacity="1" /><path clip-path="url(#clip880)" d="M1342.28 1326.15 L1346.54 1326.15 L1346.54 1352.07 L1342.28 1352.07 L1342.28 1326.15 M1342.28 1316.06 L1346.54 1316.06 L1346.54 1321.45 L1342.28 1321.45 L1342.28 1316.06 Z" fill="#000000" fill-rule="nonzero" fill-opacity="1" /><path clip-path="url(#clip880)" d="M1377 1336.43 L1377 1352.07 L1372.74 1352.07 L1372.74 1336.57 Q1372.74 1332.88 1371.31 1331.06 Q1369.87 1329.23 1367 1329.23 Q1363.55 1329.23 1361.56 1331.43 Q1359.57 1333.63 1359.57 1337.42 L1359.57 1352.07 L1355.29 1352.07 L1355.29 1326.15 L1359.57 1326.15 L1359.57 1330.18 Q1361.1 1327.84 1363.16 1326.68 Q1365.24 1325.52 1367.95 1325.52 Q1372.42 1325.52 1374.71 1328.3 Q1377 1331.06 1377 1336.43 Z" fill="#000000" fill-rule="nonzero" fill-opacity="1" /><path clip-path="url(#clip880)" d="M1389.71 1318.79 L1389.71 1326.15 L1398.48 1326.15 L1398.48 1329.46 L1389.71 1329.46 L1389.71 1343.53 Q1389.71 1346.7 1390.56 1347.61 Q1391.44 1348.51 1394.11 1348.51 L1398.48 1348.51 L1398.48 1352.07 L1394.11 1352.07 Q1389.18 1352.07 1387.3 1350.25 Q1385.43 1348.39 1385.43 1343.53 L1385.43 1329.46 L1382.3 1329.46 L1382.3 1326.15 L1385.43 1326.15 L1385.43 1318.79 L1389.71 1318.79 Z" fill="#000000" fill-rule="nonzero" fill-opacity="1" /><path clip-path="url(#clip880)" d="M1426.26 1338.05 L1426.26 1340.13 L1406.68 1340.13 Q1406.95 1344.53 1409.31 1346.84 Q1411.7 1349.13 1415.94 1349.13 Q1418.39 1349.13 1420.68 1348.53 Q1423 1347.93 1425.26 1346.73 L1425.26 1350.75 Q1422.97 1351.73 1420.56 1352.24 Q1418.16 1352.75 1415.68 1352.75 Q1409.48 1352.75 1405.84 1349.13 Q1402.23 1345.52 1402.23 1339.37 Q1402.23 1333 1405.66 1329.27 Q1409.11 1325.52 1414.94 1325.52 Q1420.17 1325.52 1423.2 1328.9 Q1426.26 1332.26 1426.26 1338.05 M1422 1336.8 Q1421.95 1333.3 1420.03 1331.22 Q1418.13 1329.13 1414.99 1329.13 Q1411.42 1329.13 1409.27 1331.15 Q1407.14 1333.16 1406.81 1336.82 L1422 1336.8 Z" fill="#000000" fill-rule="nonzero" fill-opacity="1" /><path clip-path="url(#clip880)" d="M1448.27 1330.13 Q1447.56 1329.71 1446.7 1329.53 Q1445.87 1329.32 1444.85 1329.32 Q1441.24 1329.32 1439.29 1331.68 Q1437.37 1334.02 1437.37 1338.42 L1437.37 1352.07 L1433.09 1352.07 L1433.09 1326.15 L1437.37 1326.15 L1437.37 1330.18 Q1438.71 1327.82 1440.87 1326.68 Q1443.02 1325.52 1446.1 1325.52 Q1446.54 1325.52 1447.07 1325.59 Q1447.6 1325.64 1448.25 1325.76 L1448.27 1330.13 Z" fill="#000000" fill-rule="nonzero" fill-opacity="1" /><path clip-path="url(#clip880)" d="M1456.86 1348.19 L1456.86 1361.94 L1452.58 1361.94 L1452.58 1326.15 L1456.86 1326.15 L1456.86 1330.08 Q1458.2 1327.77 1460.24 1326.66 Q1462.3 1325.52 1465.15 1325.52 Q1469.87 1325.52 1472.81 1329.27 Q1475.77 1333.02 1475.77 1339.13 Q1475.77 1345.25 1472.81 1349 Q1469.87 1352.75 1465.15 1352.75 Q1462.3 1352.75 1460.24 1351.63 Q1458.2 1350.5 1456.86 1348.19 M1471.35 1339.13 Q1471.35 1334.44 1469.41 1331.77 Q1467.49 1329.09 1464.11 1329.09 Q1460.73 1329.09 1458.78 1331.77 Q1456.86 1334.44 1456.86 1339.13 Q1456.86 1343.83 1458.78 1346.52 Q1460.73 1349.18 1464.11 1349.18 Q1467.49 1349.18 1469.41 1346.52 Q1471.35 1343.83 1471.35 1339.13 Z" fill="#000000" fill-rule="nonzero" fill-opacity="1" /><path clip-path="url(#clip880)" d="M1492.88 1329.13 Q1489.45 1329.13 1487.46 1331.82 Q1485.47 1334.48 1485.47 1339.13 Q1485.47 1343.79 1487.44 1346.47 Q1489.43 1349.13 1492.88 1349.13 Q1496.28 1349.13 1498.27 1346.45 Q1500.26 1343.76 1500.26 1339.13 Q1500.26 1334.53 1498.27 1331.84 Q1496.28 1329.13 1492.88 1329.13 M1492.88 1325.52 Q1498.43 1325.52 1501.61 1329.13 Q1504.78 1332.75 1504.78 1339.13 Q1504.78 1345.5 1501.61 1349.13 Q1498.43 1352.75 1492.88 1352.75 Q1487.3 1352.75 1484.13 1349.13 Q1480.98 1345.5 1480.98 1339.13 Q1480.98 1332.75 1484.13 1329.13 Q1487.3 1325.52 1492.88 1325.52 Z" fill="#000000" fill-rule="nonzero" fill-opacity="1" /><path clip-path="url(#clip880)" d="M1511.84 1316.06 L1516.1 1316.06 L1516.1 1352.07 L1511.84 1352.07 L1511.84 1316.06 Z" fill="#000000" fill-rule="nonzero" fill-opacity="1" /><path clip-path="url(#clip880)" d="M1536.79 1339.04 Q1531.63 1339.04 1529.64 1340.22 Q1527.65 1341.4 1527.65 1344.25 Q1527.65 1346.52 1529.13 1347.86 Q1530.63 1349.18 1533.2 1349.18 Q1536.74 1349.18 1538.87 1346.68 Q1541.03 1344.16 1541.03 1339.99 L1541.03 1339.04 L1536.79 1339.04 M1545.29 1337.28 L1545.29 1352.07 L1541.03 1352.07 L1541.03 1348.14 Q1539.57 1350.5 1537.39 1351.63 Q1535.22 1352.75 1532.07 1352.75 Q1528.09 1352.75 1525.73 1350.52 Q1523.39 1348.28 1523.39 1344.53 Q1523.39 1340.15 1526.3 1337.93 Q1529.24 1335.71 1535.05 1335.71 L1541.03 1335.71 L1541.03 1335.29 Q1541.03 1332.35 1539.08 1330.76 Q1537.16 1329.13 1533.67 1329.13 Q1531.44 1329.13 1529.34 1329.67 Q1527.23 1330.2 1525.29 1331.26 L1525.29 1327.33 Q1527.62 1326.43 1529.82 1325.99 Q1532.02 1325.52 1534.11 1325.52 Q1539.73 1325.52 1542.51 1328.44 Q1545.29 1331.36 1545.29 1337.28 Z" fill="#000000" fill-rule="nonzero" fill-opacity="1" /><path clip-path="url(#clip880)" d="M1572.72 1327.14 L1572.72 1331.13 Q1570.91 1330.13 1569.08 1329.64 Q1567.28 1329.13 1565.42 1329.13 Q1561.28 1329.13 1558.99 1331.77 Q1556.7 1334.39 1556.7 1339.13 Q1556.7 1343.88 1558.99 1346.52 Q1561.28 1349.13 1565.42 1349.13 Q1567.28 1349.13 1569.08 1348.65 Q1570.91 1348.14 1572.72 1347.14 L1572.72 1351.08 Q1570.93 1351.91 1569.01 1352.33 Q1567.11 1352.75 1564.96 1352.75 Q1559.11 1352.75 1555.66 1349.07 Q1552.21 1345.38 1552.21 1339.13 Q1552.21 1332.79 1555.68 1329.16 Q1559.18 1325.52 1565.24 1325.52 Q1567.21 1325.52 1569.08 1325.94 Q1570.96 1326.33 1572.72 1327.14 Z" fill="#000000" fill-rule="nonzero" fill-opacity="1" /><path clip-path="url(#clip880)" d="M1580.12 1326.15 L1584.38 1326.15 L1584.38 1352.07 L1580.12 1352.07 L1580.12 1326.15 M1580.12 1316.06 L1584.38 1316.06 L1584.38 1321.45 L1580.12 1321.45 L1580.12 1316.06 Z" fill="#000000" fill-rule="nonzero" fill-opacity="1" /><path clip-path="url(#clip880)" d="M1593.3 1326.15 L1597.55 1326.15 L1597.55 1352.54 Q1597.55 1357.49 1595.66 1359.71 Q1593.78 1361.94 1589.59 1361.94 L1587.97 1361.94 L1587.97 1358.32 L1589.11 1358.32 Q1591.54 1358.32 1592.42 1357.19 Q1593.3 1356.08 1593.3 1352.54 L1593.3 1326.15 M1593.3 1316.06 L1597.55 1316.06 L1597.55 1321.45 L1593.3 1321.45 L1593.3 1316.06 Z" fill="#000000" fill-rule="nonzero" fill-opacity="1" /><path clip-path="url(#clip880)" d="M1618.25 1339.04 Q1613.09 1339.04 1611.1 1340.22 Q1609.11 1341.4 1609.11 1344.25 Q1609.11 1346.52 1610.59 1347.86 Q1612.09 1349.18 1614.66 1349.18 Q1618.2 1349.18 1620.33 1346.68 Q1622.48 1344.16 1622.48 1339.99 L1622.48 1339.04 L1618.25 1339.04 M1626.74 1337.28 L1626.74 1352.07 L1622.48 1352.07 L1622.48 1348.14 Q1621.03 1350.5 1618.85 1351.63 Q1616.67 1352.75 1613.53 1352.75 Q1609.55 1352.75 1607.18 1350.52 Q1604.85 1348.28 1604.85 1344.53 Q1604.85 1340.15 1607.76 1337.93 Q1610.7 1335.71 1616.51 1335.71 L1622.48 1335.71 L1622.48 1335.29 Q1622.48 1332.35 1620.54 1330.76 Q1618.62 1329.13 1615.12 1329.13 Q1612.9 1329.13 1610.8 1329.67 Q1608.69 1330.2 1606.74 1331.26 L1606.74 1327.33 Q1609.08 1326.43 1611.28 1325.99 Q1613.48 1325.52 1615.56 1325.52 Q1621.19 1325.52 1623.97 1328.44 Q1626.74 1331.36 1626.74 1337.28 Z" fill="#000000" fill-rule="nonzero" fill-opacity="1" /><polyline clip-path="url(#clip880)" style="stroke:#3da44d; stroke-linecap:round; stroke-linejoin:round; stroke-width:4; stroke-opacity:1; fill:none" points="911.29,1386.63 1055.79,1386.63 "/>
<path clip-path="url(#clip880)" d="M1084.15 1400.03 L1084.15 1413.78 L1079.87 1413.78 L1079.87 1377.99 L1084.15 1377.99 L1084.15 1381.92 Q1085.5 1379.61 1087.53 1378.5 Q1089.59 1377.36 1092.44 1377.36 Q1097.16 1377.36 1100.1 1381.11 Q1103.07 1384.86 1103.07 1390.97 Q1103.07 1397.09 1100.1 1400.84 Q1097.16 1404.59 1092.44 1404.59 Q1089.59 1404.59 1087.53 1403.47 Q1085.5 1402.34 1084.15 1400.03 M1098.65 1390.97 Q1098.65 1386.28 1096.7 1383.61 Q1094.78 1380.93 1091.4 1380.93 Q1088.02 1380.93 1086.08 1383.61 Q1084.15 1386.28 1084.15 1390.97 Q1084.15 1395.67 1086.08 1398.36 Q1088.02 1401.02 1091.4 1401.02 Q1094.78 1401.02 1096.7 1398.36 Q1098.65 1395.67 1098.65 1390.97 Z" fill="#000000" fill-rule="nonzero" fill-opacity="1" /><path clip-path="url(#clip880)" d="M1125.15 1381.97 Q1124.43 1381.55 1123.58 1381.37 Q1122.74 1381.16 1121.72 1381.16 Q1118.11 1381.16 1116.17 1383.52 Q1114.25 1385.86 1114.25 1390.26 L1114.25 1403.91 L1109.96 1403.91 L1109.96 1377.99 L1114.25 1377.99 L1114.25 1382.02 Q1115.59 1379.66 1117.74 1378.52 Q1119.89 1377.36 1122.97 1377.36 Q1123.41 1377.36 1123.95 1377.43 Q1124.48 1377.48 1125.13 1377.6 L1125.15 1381.97 Z" fill="#000000" fill-rule="nonzero" fill-opacity="1" /><path clip-path="url(#clip880)" d="M1141.4 1390.88 Q1136.24 1390.88 1134.25 1392.06 Q1132.26 1393.24 1132.26 1396.09 Q1132.26 1398.36 1133.74 1399.7 Q1135.24 1401.02 1137.81 1401.02 Q1141.35 1401.02 1143.48 1398.52 Q1145.64 1396 1145.64 1391.83 L1145.64 1390.88 L1141.4 1390.88 M1149.89 1389.12 L1149.89 1403.91 L1145.64 1403.91 L1145.64 1399.98 Q1144.18 1402.34 1142 1403.47 Q1139.83 1404.59 1136.68 1404.59 Q1132.7 1404.59 1130.33 1402.36 Q1128 1400.12 1128 1396.37 Q1128 1391.99 1130.91 1389.77 Q1133.85 1387.55 1139.66 1387.55 L1145.64 1387.55 L1145.64 1387.13 Q1145.64 1384.19 1143.69 1382.6 Q1141.77 1380.97 1138.27 1380.97 Q1136.05 1380.97 1133.95 1381.51 Q1131.84 1382.04 1129.89 1383.1 L1129.89 1379.17 Q1132.23 1378.27 1134.43 1377.83 Q1136.63 1377.36 1138.71 1377.36 Q1144.34 1377.36 1147.12 1380.28 Q1149.89 1383.2 1149.89 1389.12 Z" fill="#000000" fill-rule="nonzero" fill-opacity="1" /><path clip-path="url(#clip880)" d="M1155.61 1377.99 L1160.13 1377.99 L1168.23 1399.75 L1176.33 1377.99 L1180.84 1377.99 L1171.12 1403.91 L1165.33 1403.91 L1155.61 1377.99 Z" fill="#000000" fill-rule="nonzero" fill-opacity="1" /><path clip-path="url(#clip880)" d="M1198.51 1390.88 Q1193.34 1390.88 1191.35 1392.06 Q1189.36 1393.24 1189.36 1396.09 Q1189.36 1398.36 1190.84 1399.7 Q1192.35 1401.02 1194.92 1401.02 Q1198.46 1401.02 1200.59 1398.52 Q1202.74 1396 1202.74 1391.83 L1202.74 1390.88 L1198.51 1390.88 M1207 1389.12 L1207 1403.91 L1202.74 1403.91 L1202.74 1399.98 Q1201.28 1402.34 1199.11 1403.47 Q1196.93 1404.59 1193.78 1404.59 Q1189.8 1404.59 1187.44 1402.36 Q1185.1 1400.12 1185.1 1396.37 Q1185.1 1391.99 1188.02 1389.77 Q1190.96 1387.55 1196.77 1387.55 L1202.74 1387.55 L1202.74 1387.13 Q1202.74 1384.19 1200.8 1382.6 Q1198.88 1380.97 1195.38 1380.97 Q1193.16 1380.97 1191.05 1381.51 Q1188.95 1382.04 1187 1383.1 L1187 1379.17 Q1189.34 1378.27 1191.54 1377.83 Q1193.74 1377.36 1195.82 1377.36 Q1201.45 1377.36 1204.22 1380.28 Q1207 1383.2 1207 1389.12 Z" fill="#000000" fill-rule="nonzero" fill-opacity="1" /><path clip-path="url(#clip880)" d="M1245.87 1381.97 Q1245.15 1381.55 1244.29 1381.37 Q1243.46 1381.16 1242.44 1381.16 Q1238.83 1381.16 1236.89 1383.52 Q1234.96 1385.86 1234.96 1390.26 L1234.96 1403.91 L1230.68 1403.91 L1230.68 1377.99 L1234.96 1377.99 L1234.96 1382.02 Q1236.31 1379.66 1238.46 1378.52 Q1240.61 1377.36 1243.69 1377.36 Q1244.13 1377.36 1244.66 1377.43 Q1245.2 1377.48 1245.84 1377.6 L1245.87 1381.97 Z" fill="#000000" fill-rule="nonzero" fill-opacity="1" /><path clip-path="url(#clip880)" d="M1271.47 1389.89 L1271.47 1391.97 L1251.88 1391.97 Q1252.16 1396.37 1254.52 1398.68 Q1256.91 1400.97 1261.14 1400.97 Q1263.6 1400.97 1265.89 1400.37 Q1268.2 1399.77 1270.47 1398.57 L1270.47 1402.59 Q1268.18 1403.57 1265.77 1404.08 Q1263.37 1404.59 1260.89 1404.59 Q1254.69 1404.59 1251.05 1400.97 Q1247.44 1397.36 1247.44 1391.21 Q1247.44 1384.84 1250.87 1381.11 Q1254.32 1377.36 1260.15 1377.36 Q1265.38 1377.36 1268.41 1380.74 Q1271.47 1384.1 1271.47 1389.89 M1267.21 1388.64 Q1267.16 1385.14 1265.24 1383.06 Q1263.34 1380.97 1260.2 1380.97 Q1256.63 1380.97 1254.48 1382.99 Q1252.35 1385 1252.02 1388.66 L1267.21 1388.64 Z" fill="#000000" fill-rule="nonzero" fill-opacity="1" /><path clip-path="url(#clip880)" d="M1294.99 1378.75 L1294.99 1382.78 Q1293.18 1381.85 1291.24 1381.39 Q1289.29 1380.93 1287.21 1380.93 Q1284.04 1380.93 1282.44 1381.9 Q1280.87 1382.87 1280.87 1384.82 Q1280.87 1386.3 1282 1387.16 Q1283.13 1387.99 1286.56 1388.75 L1288.02 1389.08 Q1292.56 1390.05 1294.45 1391.83 Q1296.38 1393.59 1296.38 1396.76 Q1296.38 1400.37 1293.51 1402.48 Q1290.66 1404.59 1285.66 1404.59 Q1283.57 1404.59 1281.31 1404.17 Q1279.06 1403.78 1276.56 1402.97 L1276.56 1398.57 Q1278.92 1399.79 1281.21 1400.42 Q1283.51 1401.02 1285.75 1401.02 Q1288.76 1401.02 1290.38 1400 Q1292 1398.96 1292 1397.09 Q1292 1395.35 1290.82 1394.42 Q1289.66 1393.5 1285.7 1392.64 L1284.22 1392.29 Q1280.26 1391.46 1278.51 1389.75 Q1276.75 1388.01 1276.75 1385 Q1276.75 1381.35 1279.34 1379.35 Q1281.93 1377.36 1286.7 1377.36 Q1289.06 1377.36 1291.14 1377.71 Q1293.23 1378.06 1294.99 1378.75 M1285.13 1374.7 L1279.45 1366 L1282.67 1366 L1286.84 1371.67 L1291.01 1366 L1294.22 1366 L1288.55 1374.7 L1285.13 1374.7 M1286.75 1377.36 L1286.75 1377.36 Z" fill="#000000" fill-rule="nonzero" fill-opacity="1" /><path clip-path="url(#clip880)" d="M1303.16 1377.99 L1307.42 1377.99 L1307.42 1403.91 L1303.16 1403.91 L1303.16 1377.99 M1303.16 1367.9 L1307.42 1367.9 L1307.42 1373.29 L1303.16 1373.29 L1303.16 1367.9 Z" fill="#000000" fill-rule="nonzero" fill-opacity="1" /><path clip-path="url(#clip880)" d="M1320.54 1370.63 L1320.54 1377.99 L1329.32 1377.99 L1329.32 1381.3 L1320.54 1381.3 L1320.54 1395.37 Q1320.54 1398.54 1321.4 1399.45 Q1322.28 1400.35 1324.94 1400.35 L1329.32 1400.35 L1329.32 1403.91 L1324.94 1403.91 Q1320.01 1403.91 1318.13 1402.09 Q1316.26 1400.23 1316.26 1395.37 L1316.26 1381.3 L1313.13 1381.3 L1313.13 1377.99 L1316.26 1377.99 L1316.26 1370.63 L1320.54 1370.63 Z" fill="#000000" fill-rule="nonzero" fill-opacity="1" /><path clip-path="url(#clip880)" d="M1357.09 1389.89 L1357.09 1391.97 L1337.51 1391.97 Q1337.79 1396.37 1340.15 1398.68 Q1342.53 1400.97 1346.77 1400.97 Q1349.22 1400.97 1351.51 1400.37 Q1353.83 1399.77 1356.1 1398.57 L1356.1 1402.59 Q1353.81 1403.57 1351.4 1404.08 Q1348.99 1404.59 1346.51 1404.59 Q1340.31 1404.59 1336.68 1400.97 Q1333.07 1397.36 1333.07 1391.21 Q1333.07 1384.84 1336.49 1381.11 Q1339.94 1377.36 1345.77 1377.36 Q1351 1377.36 1354.04 1380.74 Q1357.09 1384.1 1357.09 1389.89 M1352.83 1388.64 Q1352.79 1385.14 1350.87 1383.06 Q1348.97 1380.97 1345.82 1380.97 Q1342.25 1380.97 1340.1 1382.99 Q1337.97 1385 1337.65 1388.66 L1352.83 1388.64 Z" fill="#000000" fill-rule="nonzero" fill-opacity="1" /><path clip-path="url(#clip880)" d="M1361.03 1377.99 L1365.54 1377.99 L1373.64 1399.75 L1381.75 1377.99 L1386.26 1377.99 L1376.54 1403.91 L1370.75 1403.91 L1361.03 1377.99 Z" fill="#000000" fill-rule="nonzero" fill-opacity="1" /></svg>
