<?xml version="1.0" encoding="utf-8"?>
<svg xmlns="http://www.w3.org/2000/svg" xmlns:xlink="http://www.w3.org/1999/xlink" width="600" height="400" viewBox="0 0 2400 1600">
<defs>
  <clipPath id="clip370">
    <rect x="0" y="0" width="2400" height="1600"/>
  </clipPath>
</defs>
<path clip-path="url(#clip370)" d="M0 1600 L2400 1600 L2400 0 L0 0  Z" fill="#ffffff" fill-rule="evenodd" fill-opacity="1"/>
<defs>
  <clipPath id="clip371">
    <rect x="480" y="0" width="1681" height="1600"/>
  </clipPath>
</defs>
<path clip-path="url(#clip370)" d="M178.867 1486.45 L2352.76 1486.45 L2352.76 47.2441 L178.867 47.2441  Z" fill="#ffffff" fill-rule="evenodd" fill-opacity="1"/>
<defs>
  <clipPath id="clip372">
    <rect x="178" y="47" width="2175" height="1440"/>
  </clipPath>
</defs>
<polyline clip-path="url(#clip372)" style="stroke:#000000; stroke-linecap:round; stroke-linejoin:round; stroke-width:2; stroke-opacity:0.1; fill:none" points="240.392,1486.45 240.392,47.2441 "/>
<polyline clip-path="url(#clip372)" style="stroke:#000000; stroke-linecap:round; stroke-linejoin:round; stroke-width:2; stroke-opacity:0.1; fill:none" points="924.005,1486.45 924.005,47.2441 "/>
<polyline clip-path="url(#clip372)" style="stroke:#000000; stroke-linecap:round; stroke-linejoin:round; stroke-width:2; stroke-opacity:0.1; fill:none" points="1607.62,1486.45 1607.62,47.2441 "/>
<polyline clip-path="url(#clip372)" style="stroke:#000000; stroke-linecap:round; stroke-linejoin:round; stroke-width:2; stroke-opacity:0.1; fill:none" points="2291.23,1486.45 2291.23,47.2441 "/>
<polyline clip-path="url(#clip370)" style="stroke:#000000; stroke-linecap:round; stroke-linejoin:round; stroke-width:4; stroke-opacity:1; fill:none" points="178.867,1486.45 2352.76,1486.45 "/>
<polyline clip-path="url(#clip370)" style="stroke:#000000; stroke-linecap:round; stroke-linejoin:round; stroke-width:4; stroke-opacity:1; fill:none" points="240.392,1486.45 240.392,1467.55 "/>
<polyline clip-path="url(#clip370)" style="stroke:#000000; stroke-linecap:round; stroke-linejoin:round; stroke-width:4; stroke-opacity:1; fill:none" points="924.005,1486.45 924.005,1467.55 "/>
<polyline clip-path="url(#clip370)" style="stroke:#000000; stroke-linecap:round; stroke-linejoin:round; stroke-width:4; stroke-opacity:1; fill:none" points="1607.62,1486.45 1607.62,1467.55 "/>
<polyline clip-path="url(#clip370)" style="stroke:#000000; stroke-linecap:round; stroke-linejoin:round; stroke-width:4; stroke-opacity:1; fill:none" points="2291.23,1486.45 2291.23,1467.55 "/>
<path clip-path="url(#clip370)" d="M240.392 1517.37 Q236.781 1517.37 234.952 1520.93 Q233.146 1524.47 233.146 1531.6 Q233.146 1538.71 234.952 1542.27 Q236.781 1545.82 240.392 1545.82 Q244.026 1545.82 245.832 1542.27 Q247.66 1538.71 247.66 1531.6 Q247.66 1524.47 245.832 1520.93 Q244.026 1517.37 240.392 1517.37 M240.392 1513.66 Q246.202 1513.66 249.257 1518.27 Q252.336 1522.85 252.336 1531.6 Q252.336 1540.33 249.257 1544.94 Q246.202 1549.52 240.392 1549.52 Q234.582 1549.52 231.503 1544.94 Q228.447 1540.33 228.447 1531.6 Q228.447 1522.85 231.503 1518.27 Q234.582 1513.66 240.392 1513.66 Z" fill="#000000" fill-rule="nonzero" fill-opacity="1" /><path clip-path="url(#clip370)" d="M914.387 1544.91 L922.026 1544.91 L922.026 1518.55 L913.715 1520.21 L913.715 1515.95 L921.979 1514.29 L926.655 1514.29 L926.655 1544.91 L934.294 1544.91 L934.294 1548.85 L914.387 1548.85 L914.387 1544.91 Z" fill="#000000" fill-rule="nonzero" fill-opacity="1" /><path clip-path="url(#clip370)" d="M1602.27 1544.91 L1618.59 1544.91 L1618.59 1548.85 L1596.65 1548.85 L1596.65 1544.91 Q1599.31 1542.16 1603.89 1537.53 Q1608.5 1532.88 1609.68 1531.53 Q1611.92 1529.01 1612.8 1527.27 Q1613.71 1525.51 1613.71 1523.82 Q1613.71 1521.07 1611.76 1519.33 Q1609.84 1517.6 1606.74 1517.6 Q1604.54 1517.6 1602.09 1518.36 Q1599.65 1519.13 1596.88 1520.68 L1596.88 1515.95 Q1599.7 1514.82 1602.15 1514.24 Q1604.61 1513.66 1606.65 1513.66 Q1612.02 1513.66 1615.21 1516.35 Q1618.4 1519.03 1618.4 1523.52 Q1618.4 1525.65 1617.59 1527.57 Q1616.81 1529.47 1614.7 1532.07 Q1614.12 1532.74 1611.02 1535.95 Q1607.92 1539.15 1602.27 1544.91 Z" fill="#000000" fill-rule="nonzero" fill-opacity="1" /><path clip-path="url(#clip370)" d="M2295.48 1530.21 Q2298.83 1530.93 2300.71 1533.2 Q2302.61 1535.47 2302.61 1538.8 Q2302.61 1543.92 2299.09 1546.72 Q2295.57 1549.52 2289.09 1549.52 Q2286.91 1549.52 2284.6 1549.08 Q2282.31 1548.66 2279.85 1547.81 L2279.85 1543.29 Q2281.8 1544.43 2284.11 1545.01 Q2286.43 1545.58 2288.95 1545.58 Q2293.35 1545.58 2295.64 1543.85 Q2297.96 1542.11 2297.96 1538.8 Q2297.96 1535.75 2295.8 1534.03 Q2293.67 1532.3 2289.85 1532.3 L2285.83 1532.3 L2285.83 1528.45 L2290.04 1528.45 Q2293.49 1528.45 2295.32 1527.09 Q2297.15 1525.7 2297.15 1523.11 Q2297.15 1520.45 2295.25 1519.03 Q2293.37 1517.6 2289.85 1517.6 Q2287.93 1517.6 2285.73 1518.01 Q2283.53 1518.43 2280.9 1519.31 L2280.9 1515.14 Q2283.56 1514.4 2285.87 1514.03 Q2288.21 1513.66 2290.27 1513.66 Q2295.59 1513.66 2298.7 1516.09 Q2301.8 1518.5 2301.8 1522.62 Q2301.8 1525.49 2300.15 1527.48 Q2298.51 1529.45 2295.48 1530.21 Z" fill="#000000" fill-rule="nonzero" fill-opacity="1" /><polyline clip-path="url(#clip372)" style="stroke:#000000; stroke-linecap:round; stroke-linejoin:round; stroke-width:2; stroke-opacity:0.1; fill:none" points="178.867,1459.31 2352.76,1459.31 "/>
<polyline clip-path="url(#clip372)" style="stroke:#000000; stroke-linecap:round; stroke-linejoin:round; stroke-width:2; stroke-opacity:0.1; fill:none" points="178.867,1002.2 2352.76,1002.2 "/>
<polyline clip-path="url(#clip372)" style="stroke:#000000; stroke-linecap:round; stroke-linejoin:round; stroke-width:2; stroke-opacity:0.1; fill:none" points="178.867,545.087 2352.76,545.087 "/>
<polyline clip-path="url(#clip372)" style="stroke:#000000; stroke-linecap:round; stroke-linejoin:round; stroke-width:2; stroke-opacity:0.1; fill:none" points="178.867,87.9763 2352.76,87.9763 "/>
<polyline clip-path="url(#clip370)" style="stroke:#000000; stroke-linecap:round; stroke-linejoin:round; stroke-width:4; stroke-opacity:1; fill:none" points="178.867,1486.45 178.867,47.2441 "/>
<polyline clip-path="url(#clip370)" style="stroke:#000000; stroke-linecap:round; stroke-linejoin:round; stroke-width:4; stroke-opacity:1; fill:none" points="178.867,1459.31 197.764,1459.31 "/>
<polyline clip-path="url(#clip370)" style="stroke:#000000; stroke-linecap:round; stroke-linejoin:round; stroke-width:4; stroke-opacity:1; fill:none" points="178.867,1002.2 197.764,1002.2 "/>
<polyline clip-path="url(#clip370)" style="stroke:#000000; stroke-linecap:round; stroke-linejoin:round; stroke-width:4; stroke-opacity:1; fill:none" points="178.867,545.087 197.764,545.087 "/>
<polyline clip-path="url(#clip370)" style="stroke:#000000; stroke-linecap:round; stroke-linejoin:round; stroke-width:4; stroke-opacity:1; fill:none" points="178.867,87.9763 197.764,87.9763 "/>
<path clip-path="url(#clip370)" d="M50.9921 1459.76 L80.6679 1459.76 L80.6679 1463.69 L50.9921 1463.69 L50.9921 1459.76 Z" fill="#000000" fill-rule="nonzero" fill-opacity="1" /><path clip-path="url(#clip370)" d="M91.5706 1472.65 L99.2095 1472.65 L99.2095 1446.29 L90.8993 1447.95 L90.8993 1443.69 L99.1632 1442.03 L103.839 1442.03 L103.839 1472.65 L111.478 1472.65 L111.478 1476.59 L91.5706 1476.59 L91.5706 1472.65 Z" fill="#000000" fill-rule="nonzero" fill-opacity="1" /><path clip-path="url(#clip370)" d="M130.922 1445.11 Q127.311 1445.11 125.482 1448.67 Q123.677 1452.21 123.677 1459.34 Q123.677 1466.45 125.482 1470.01 Q127.311 1473.55 130.922 1473.55 Q134.556 1473.55 136.362 1470.01 Q138.191 1466.45 138.191 1459.34 Q138.191 1452.21 136.362 1448.67 Q134.556 1445.11 130.922 1445.11 M130.922 1441.4 Q136.732 1441.4 139.788 1446.01 Q142.867 1450.59 142.867 1459.34 Q142.867 1468.07 139.788 1472.68 Q136.732 1477.26 130.922 1477.26 Q125.112 1477.26 122.033 1472.68 Q118.978 1468.07 118.978 1459.34 Q118.978 1450.59 122.033 1446.01 Q125.112 1441.4 130.922 1441.4 Z" fill="#000000" fill-rule="nonzero" fill-opacity="1" /><path clip-path="url(#clip370)" d="M130.922 987.995 Q127.311 987.995 125.482 991.56 Q123.677 995.102 123.677 1002.23 Q123.677 1009.34 125.482 1012.9 Q127.311 1016.44 130.922 1016.44 Q134.556 1016.44 136.362 1012.9 Q138.191 1009.34 138.191 1002.23 Q138.191 995.102 136.362 991.56 Q134.556 987.995 130.922 987.995 M130.922 984.292 Q136.732 984.292 139.788 988.898 Q142.867 993.482 142.867 1002.23 Q142.867 1010.96 139.788 1015.56 Q136.732 1020.15 130.922 1020.15 Q125.112 1020.15 122.033 1015.56 Q118.978 1010.96 118.978 1002.23 Q118.978 993.482 122.033 988.898 Q125.112 984.292 130.922 984.292 Z" fill="#000000" fill-rule="nonzero" fill-opacity="1" /><path clip-path="url(#clip370)" d="M91.5706 558.431 L99.2095 558.431 L99.2095 532.066 L90.8993 533.732 L90.8993 529.473 L99.1632 527.807 L103.839 527.807 L103.839 558.431 L111.478 558.431 L111.478 562.367 L91.5706 562.367 L91.5706 558.431 Z" fill="#000000" fill-rule="nonzero" fill-opacity="1" /><path clip-path="url(#clip370)" d="M130.922 530.885 Q127.311 530.885 125.482 534.45 Q123.677 537.992 123.677 545.121 Q123.677 552.228 125.482 555.792 Q127.311 559.334 130.922 559.334 Q134.556 559.334 136.362 555.792 Q138.191 552.228 138.191 545.121 Q138.191 537.992 136.362 534.45 Q134.556 530.885 130.922 530.885 M130.922 527.182 Q136.732 527.182 139.788 531.788 Q142.867 536.371 142.867 545.121 Q142.867 553.848 139.788 558.455 Q136.732 563.038 130.922 563.038 Q125.112 563.038 122.033 558.455 Q118.978 553.848 118.978 545.121 Q118.978 536.371 122.033 531.788 Q125.112 527.182 130.922 527.182 Z" fill="#000000" fill-rule="nonzero" fill-opacity="1" /><path clip-path="url(#clip370)" d="M94.7882 101.321 L111.108 101.321 L111.108 105.256 L89.1632 105.256 L89.1632 101.321 Q91.8252 98.5665 96.4085 93.9369 Q101.015 89.2841 102.196 87.9416 Q104.441 85.4184 105.321 83.6823 Q106.223 81.9231 106.223 80.2333 Q106.223 77.4786 104.279 75.7425 Q102.358 74.0064 99.2558 74.0064 Q97.0567 74.0064 94.603 74.7703 Q92.1725 75.5342 89.3947 77.0851 L89.3947 72.3629 Q92.2188 71.2287 94.6724 70.65 Q97.1261 70.0713 99.1632 70.0713 Q104.534 70.0713 107.728 72.7565 Q110.922 75.4416 110.922 79.9323 Q110.922 82.062 110.112 83.9832 Q109.325 85.8814 107.219 88.474 Q106.64 89.1453 103.538 92.3628 Q100.436 95.5573 94.7882 101.321 Z" fill="#000000" fill-rule="nonzero" fill-opacity="1" /><path clip-path="url(#clip370)" d="M130.922 73.775 Q127.311 73.775 125.482 77.3398 Q123.677 80.8814 123.677 88.011 Q123.677 95.1174 125.482 98.6822 Q127.311 102.224 130.922 102.224 Q134.556 102.224 136.362 98.6822 Q138.191 95.1174 138.191 88.011 Q138.191 80.8814 136.362 77.3398 Q134.556 73.775 130.922 73.775 M130.922 70.0713 Q136.732 70.0713 139.788 74.6777 Q142.867 79.261 142.867 88.011 Q142.867 96.7378 139.788 101.344 Q136.732 105.928 130.922 105.928 Q125.112 105.928 122.033 101.344 Q118.978 96.7378 118.978 88.011 Q118.978 79.261 122.033 74.6777 Q125.112 70.0713 130.922 70.0713 Z" fill="#000000" fill-rule="nonzero" fill-opacity="1" /><polyline clip-path="url(#clip372)" style="stroke:#009af9; stroke-linecap:round; stroke-linejoin:round; stroke-width:4; stroke-opacity:1; fill:none" points="240.392,1002.2 243.73,999.942 247.068,997.645 250.406,995.313 253.744,992.955 269.176,981.9 284.609,971.12 300.041,961.319 315.474,952.946 330.906,944.57 346.338,936.178 361.771,928.172 377.203,920.958 395.752,912.708 414.3,904.356 432.849,896.359 451.397,889.097 482.762,876.905 514.127,865.43 548.198,853.648 582.269,842.361 613.68,832.459 645.091,822.794 678.766,812.956 712.442,803.274 751.458,792.553 790.474,782.104 859.821,764.228 920.631,749.139 986.931,733.286 1053.62,717.9 1127.36,701.563 1197.52,686.688 1270.47,671.985 1331.88,660.195 1406.86,646.7 1475.54,635.135 1538.97,625.14 1603.22,615.712 1675.23,605.993 1740.48,597.876 1815.2,589.422 1884.37,582.287 1952.57,575.881 2018.78,570.212 2086.66,564.935 2161.03,559.733 2269.07,553.072 2291.23,551.85 "/>
<polyline clip-path="url(#clip372)" style="stroke:#e26f46; stroke-linecap:round; stroke-linejoin:round; stroke-width:4; stroke-opacity:1; fill:none" points="240.392,956.486 243.73,951.965 247.068,947.342 250.406,942.635 253.744,937.862 269.176,915.424 284.609,893.657 292.325,883.565 300.041,874.288 307.757,866.042 315.474,858.4 330.906,842.443 346.338,826.441 354.055,818.759 361.771,811.467 369.487,804.699 377.203,798.589 395.752,784.177 414.3,769.467 432.849,755.792 451.397,744.253 467.08,734.595 482.762,724.89 498.445,715.767 514.127,707.857 531.163,699.768 548.198,691.465 565.234,683.617 582.269,676.892 613.68,665.211 645.091,654.536 678.766,645.216 712.442,636.656 731.95,632.973 751.458,629.077 770.966,625.54 790.474,623.048 825.147,618.901 859.821,616.354 890.226,614.881 920.631,614.359 953.781,615.127 986.931,616.574 1020.28,619.556 1053.62,623.083 1090.49,628.703 1127.36,635.191 1162.44,642.669 1197.52,651.095 1234,660.945 1270.47,671.972 1301.18,681.858 1331.88,692.467 1369.37,706.431 1406.86,721.327 1441.2,735.584 1475.54,750.714 1507.25,765.113 1538.97,780.089 1571.09,795.801 1603.22,811.855 1639.23,830.535 1675.23,849.597 1707.86,867.343 1740.48,885.347 1815.2,927.937 1884.37,968.591 1952.57,1009.65 2018.78,1050.3 2086.66,1092.64 2161.03,1139.67 2269.07,1208.88 2291.23,1223.21 "/>
<polyline clip-path="url(#clip372)" style="stroke:#3da44d; stroke-linecap:round; stroke-linejoin:round; stroke-width:4; stroke-opacity:1; fill:none" points="240.392,545.087 243.73,550.177 247.068,555.445 250.406,560.861 253.744,566.394 261.46,579.463 269.176,592.616 276.892,605.475 284.609,617.664 288.467,623.389 292.325,628.804 296.183,633.863 300.041,638.519 303.899,642.723 307.757,646.429 311.615,649.781 315.474,653.223 330.906,667.682 346.338,682.198 354.055,689.041 361.771,695.373 369.487,701.021 377.203,705.809 386.477,711.176 395.752,716.79 405.026,722.481 414.3,728.077 423.574,733.408 432.849,738.302 442.123,742.59 451.397,746.327 467.08,752.913 482.762,759.538 498.445,765.683 514.127,770.828 531.163,775.949 548.198,781.213 565.234,786.172 582.269,790.379 613.68,797.562 645.091,804.198 678.766,810.096 712.442,815.656 751.458,821.023 790.474,825.88 859.821,833.251 920.631,838.889 986.931,844.598 1053.62,850.351 1127.36,857.089 1197.52,863.994 1270.47,871.691 1331.88,878.48 1406.86,887.055 1475.54,895.006 1538.97,902.319 1603.22,909.591 1675.23,917.457 1740.48,924.278 1815.2,931.626 1884.37,937.992 1952.57,943.83 2018.78,949.084 2086.66,954.045 2161.03,958.995 2269.07,965.406 2291.23,966.591 "/>
<polyline clip-path="url(#clip372)" style="stroke:#c271d2; stroke-linecap:round; stroke-linejoin:round; stroke-width:4; stroke-opacity:1; fill:none" points="240.392,87.9763 243.73,100.406 247.068,113.222 250.406,126.359 253.744,139.749 261.46,171.311 269.176,203.055 276.892,234.161 284.609,263.81 292.325,291.182 300.041,315.457 307.757,335.814 315.474,353.743 330.906,391.484 346.338,429.349 354.055,447.384 361.771,464.316 369.487,479.766 377.203,493.359 395.752,524.872 414.3,557.038 432.849,586.94 451.397,612.146 467.08,633.013 482.762,653.961 498.445,673.91 514.127,691.781 548.198,728.905 582.269,763.588 613.68,792.987 645.091,821.344 678.766,849.402 712.442,876.846 751.458,906.688 790.474,935.616 859.821,984.756 920.631,1026.16 986.931,1069.7 1053.62,1111.88 1127.36,1156.19 1197.52,1195.72 1270.47,1233.56 1331.88,1262.83 1369.37,1279.25 1406.86,1294.61 1441.2,1308.01 1475.54,1320.32 1538.97,1341.24 1603.22,1359.71 1675.23,1377.32 1740.48,1390.92 1815.2,1403.85 1884.37,1413.83 1952.57,1422.01 2018.78,1428.61 2086.66,1434.2 2161.03,1439.17 2269.07,1444.79 2291.23,1445.72 "/>
<path clip-path="url(#clip370)" d="M1963.59 354.418 L2280.29 354.418 L2280.29 95.2176 L1963.59 95.2176  Z" fill="#ffffff" fill-rule="evenodd" fill-opacity="1"/>
<polyline clip-path="url(#clip370)" style="stroke:#000000; stroke-linecap:round; stroke-linejoin:round; stroke-width:4; stroke-opacity:1; fill:none" points="1963.59,354.418 2280.29,354.418 2280.29,95.2176 1963.59,95.2176 1963.59,354.418 "/>
<polyline clip-path="url(#clip370)" style="stroke:#009af9; stroke-linecap:round; stroke-linejoin:round; stroke-width:4; stroke-opacity:1; fill:none" points="1987.75,147.058 2132.67,147.058 "/>
<path clip-path="url(#clip370)" d="M2180.72 140.897 Q2180.72 142.209 2179.9 142.958 Q2179.08 143.685 2178.14 143.685 Q2177.25 143.685 2176.78 143.169 Q2176.32 142.654 2176.32 141.998 Q2176.32 141.108 2176.97 140.335 Q2177.63 139.562 2178.61 139.398 Q2177.65 138.789 2176.22 138.789 Q2175.29 138.789 2174.47 139.281 Q2173.67 139.773 2173.18 140.405 Q2172.71 141.038 2172.29 141.951 Q2171.89 142.841 2171.73 143.38 Q2171.58 143.895 2171.47 144.457 L2169.83 151.016 Q2169.03 154.131 2169.03 155.232 Q2169.03 156.59 2169.69 157.504 Q2170.34 158.394 2171.65 158.394 Q2172.17 158.394 2172.76 158.253 Q2173.34 158.089 2174.09 157.668 Q2174.86 157.223 2175.54 156.567 Q2176.25 155.888 2176.92 154.74 Q2177.6 153.592 2178.05 152.117 Q2178.19 151.601 2178.66 151.601 Q2179.24 151.601 2179.24 152.07 Q2179.24 152.468 2178.92 153.311 Q2178.61 154.131 2177.93 155.208 Q2177.28 156.262 2176.41 157.223 Q2175.54 158.16 2174.25 158.815 Q2172.97 159.471 2171.56 159.471 Q2169.55 159.471 2168.21 158.394 Q2166.88 157.316 2166.38 155.817 Q2166.27 156.028 2166.1 156.309 Q2165.94 156.59 2165.45 157.223 Q2164.98 157.832 2164.44 158.3 Q2163.9 158.745 2163.06 159.097 Q2162.24 159.471 2161.35 159.471 Q2160.22 159.471 2159.22 159.143 Q2158.23 158.815 2157.53 158.066 Q2156.83 157.316 2156.83 156.286 Q2156.83 155.138 2157.6 154.342 Q2158.4 153.522 2159.48 153.522 Q2160.15 153.522 2160.69 153.92 Q2161.26 154.318 2161.26 155.185 Q2161.26 156.145 2160.6 156.871 Q2159.94 157.597 2159.01 157.785 Q2159.97 158.394 2161.4 158.394 Q2162.94 158.394 2164.16 157.035 Q2165.38 155.677 2165.96 153.405 Q2167.42 147.947 2167.98 145.511 Q2168.54 143.052 2168.54 141.998 Q2168.54 141.014 2168.28 140.335 Q2168.02 139.656 2167.58 139.351 Q2167.16 139.023 2166.76 138.906 Q2166.38 138.789 2165.96 138.789 Q2165.26 138.789 2164.46 139.07 Q2163.69 139.351 2162.75 140.007 Q2161.84 140.64 2160.97 141.951 Q2160.11 143.263 2159.52 145.066 Q2159.41 145.605 2158.89 145.605 Q2158.33 145.582 2158.33 145.113 Q2158.33 144.715 2158.63 143.895 Q2158.96 143.052 2159.62 141.998 Q2160.3 140.944 2161.16 140.007 Q2162.05 139.047 2163.34 138.391 Q2164.65 137.735 2166.06 137.735 Q2166.69 137.735 2167.3 137.876 Q2167.93 137.993 2168.68 138.344 Q2169.45 138.696 2170.13 139.469 Q2170.81 140.241 2171.23 141.366 Q2171.51 140.827 2171.89 140.312 Q2172.29 139.796 2172.9 139.164 Q2173.53 138.508 2174.4 138.133 Q2175.29 137.735 2176.27 137.735 Q2177.23 137.735 2178.17 137.993 Q2179.1 138.227 2179.9 139 Q2180.72 139.75 2180.72 140.897 Z" fill="#000000" fill-rule="nonzero" fill-opacity="1" /><path clip-path="url(#clip370)" d="M2187.06 146.94 Q2187.06 138.836 2190.08 132.301 Q2191.37 129.561 2193.17 127.265 Q2194.98 124.97 2196.17 123.963 Q2197.37 122.956 2197.69 122.956 Q2198.16 122.956 2198.19 123.424 Q2198.19 123.658 2197.55 124.244 Q2189.82 132.114 2189.85 146.94 Q2189.85 161.814 2197.37 169.379 Q2198.19 170.199 2198.19 170.456 Q2198.19 170.925 2197.69 170.925 Q2197.37 170.925 2196.22 169.965 Q2195.07 169.004 2193.29 166.802 Q2191.51 164.601 2190.22 161.907 Q2187.06 155.372 2187.06 146.94 Z" fill="#000000" fill-rule="nonzero" fill-opacity="1" /><path clip-path="url(#clip370)" d="M2216.56 138.789 Q2216.56 139.445 2216.26 139.609 Q2215.95 139.75 2215.11 139.75 L2210.61 139.75 L2207.05 153.897 Q2206.77 155.138 2206.77 156.192 Q2206.77 157.363 2207.12 157.879 Q2207.5 158.394 2208.27 158.394 Q2209.79 158.394 2211.43 157.012 Q2213.09 155.63 2214.5 152.257 Q2214.69 151.812 2214.78 151.718 Q2214.9 151.601 2215.2 151.601 Q2215.79 151.601 2215.79 152.07 Q2215.79 152.234 2215.46 152.983 Q2215.15 153.733 2214.48 154.834 Q2213.82 155.934 2212.95 156.965 Q2212.11 157.996 2210.82 158.745 Q2209.53 159.471 2208.15 159.471 Q2206.21 159.471 2204.97 158.23 Q2203.75 156.988 2203.75 155.044 Q2203.75 154.412 2204.24 152.398 Q2204.73 150.36 2207.4 139.75 L2203.16 139.75 Q2202.58 139.75 2202.34 139.726 Q2202.13 139.703 2201.97 139.586 Q2201.83 139.445 2201.83 139.164 Q2201.83 138.719 2202.01 138.532 Q2202.2 138.321 2202.44 138.297 Q2202.69 138.251 2203.28 138.251 L2207.78 138.251 L2209.65 130.638 Q2209.84 129.889 2210.31 129.467 Q2210.8 129.022 2211.08 128.975 Q2211.36 128.905 2211.57 128.905 Q2212.2 128.905 2212.58 129.256 Q2212.95 129.584 2212.95 130.193 Q2212.95 130.521 2210.99 138.251 L2215.2 138.251 Q2215.74 138.251 2215.95 138.274 Q2216.19 138.297 2216.37 138.414 Q2216.56 138.532 2216.56 138.789 Z" fill="#000000" fill-rule="nonzero" fill-opacity="1" /><path clip-path="url(#clip370)" d="M2220.31 170.456 Q2220.31 170.222 2220.92 169.637 Q2228.65 161.767 2228.65 146.94 Q2228.65 132.067 2221.22 124.548 Q2220.31 123.682 2220.31 123.424 Q2220.31 122.956 2220.78 122.956 Q2221.11 122.956 2222.26 123.916 Q2223.43 124.876 2225.18 127.078 Q2226.96 129.28 2228.28 131.973 Q2231.44 138.508 2231.44 146.94 Q2231.44 155.044 2228.42 161.579 Q2227.13 164.32 2225.32 166.615 Q2223.52 168.911 2222.33 169.918 Q2221.13 170.925 2220.78 170.925 Q2220.31 170.925 2220.31 170.456 Z" fill="#000000" fill-rule="nonzero" fill-opacity="1" /><polyline clip-path="url(#clip370)" style="stroke:#e26f46; stroke-linecap:round; stroke-linejoin:round; stroke-width:4; stroke-opacity:1; fill:none" points="1987.75,198.898 2132.67,198.898 "/>
<path clip-path="url(#clip370)" d="M2178.96 191.402 Q2178.96 191.73 2178.75 192.503 L2174.16 210.819 Q2173.15 214.895 2169.87 217.752 Q2166.62 220.61 2162.92 220.61 Q2160.69 220.61 2159.26 219.415 Q2157.84 218.244 2157.84 216.441 Q2157.84 214.848 2158.68 214.075 Q2159.52 213.326 2160.53 213.326 Q2160.86 213.326 2161.21 213.419 Q2161.56 213.513 2161.93 213.911 Q2162.31 214.309 2162.31 214.989 Q2162.31 216.089 2161.35 216.956 Q2160.88 217.354 2160.44 217.448 Q2160.01 217.542 2159.29 217.542 Q2159.57 218.197 2160.08 218.642 Q2160.6 219.088 2161.19 219.251 Q2161.77 219.439 2162.15 219.486 Q2162.54 219.556 2162.92 219.556 Q2165.92 219.556 2168.21 216.534 Q2168.89 215.621 2169.38 214.708 Q2169.9 213.817 2170.27 212.717 Q2170.65 211.639 2170.81 211.054 Q2171 210.468 2171.33 209.133 Q2169.15 211.311 2166.48 211.311 Q2165.35 211.311 2164.35 211.007 Q2163.36 210.702 2162.5 210.07 Q2161.63 209.414 2161.11 208.266 Q2160.62 207.119 2160.62 205.596 Q2160.62 203.98 2161.26 201.778 Q2161.89 199.577 2163.41 195.525 Q2164.23 193.253 2164.23 192.152 Q2164.23 191.613 2164.11 191.285 Q2164 190.934 2163.76 190.817 Q2163.53 190.676 2163.39 190.653 Q2163.27 190.629 2163.04 190.629 Q2161.65 190.629 2160.37 192.035 Q2159.08 193.44 2158.19 196.579 Q2158 197.164 2157.88 197.305 Q2157.77 197.445 2157.41 197.445 Q2156.83 197.422 2156.83 196.953 Q2156.83 196.766 2157.04 196.04 Q2157.25 195.29 2157.74 194.189 Q2158.26 193.065 2158.96 192.058 Q2159.66 191.027 2160.76 190.301 Q2161.89 189.575 2163.18 189.575 Q2164.93 189.575 2166.01 190.723 Q2167.11 191.847 2167.11 193.51 Q2167.11 194.189 2166.92 194.798 Q2166.76 195.384 2166.15 196.953 Q2163.69 203.277 2163.69 206.369 Q2163.69 207.119 2163.81 207.751 Q2163.95 208.36 2164.25 208.969 Q2164.56 209.555 2165.17 209.906 Q2165.8 210.234 2166.67 210.234 Q2167.77 210.234 2168.8 209.719 Q2169.85 209.18 2170.51 208.454 Q2171.19 207.728 2171.58 207.119 Q2172.01 206.486 2172.1 206.158 L2174.25 197.539 L2175.22 193.698 Q2175.66 191.613 2175.87 191.098 Q2176.15 190.606 2176.64 190.348 Q2177.14 190.091 2177.56 190.091 Q2178.14 190.091 2178.54 190.442 Q2178.96 190.793 2178.96 191.402 Z" fill="#000000" fill-rule="nonzero" fill-opacity="1" /><path clip-path="url(#clip370)" d="M2185.47 198.78 Q2185.47 190.676 2188.49 184.141 Q2189.78 181.401 2191.58 179.105 Q2193.38 176.81 2194.58 175.803 Q2195.77 174.796 2196.1 174.796 Q2196.57 174.796 2196.59 175.264 Q2196.59 175.498 2195.96 176.084 Q2188.23 183.954 2188.25 198.78 Q2188.25 213.654 2195.77 221.219 Q2196.59 222.039 2196.59 222.296 Q2196.59 222.765 2196.1 222.765 Q2195.77 222.765 2194.63 221.805 Q2193.48 220.844 2191.7 218.642 Q2189.92 216.441 2188.63 213.747 Q2185.47 207.212 2185.47 198.78 Z" fill="#000000" fill-rule="nonzero" fill-opacity="1" /><path clip-path="url(#clip370)" d="M2214.97 190.629 Q2214.97 191.285 2214.66 191.449 Q2214.36 191.59 2213.52 191.59 L2209.02 191.59 L2205.46 205.737 Q2205.18 206.978 2205.18 208.032 Q2205.18 209.203 2205.53 209.719 Q2205.9 210.234 2206.68 210.234 Q2208.2 210.234 2209.84 208.852 Q2211.5 207.47 2212.91 204.097 Q2213.09 203.652 2213.19 203.558 Q2213.3 203.441 2213.61 203.441 Q2214.19 203.441 2214.19 203.91 Q2214.19 204.074 2213.87 204.823 Q2213.56 205.573 2212.88 206.674 Q2212.23 207.774 2211.36 208.805 Q2210.52 209.836 2209.23 210.585 Q2207.94 211.311 2206.56 211.311 Q2204.61 211.311 2203.37 210.07 Q2202.16 208.828 2202.16 206.884 Q2202.16 206.252 2202.65 204.238 Q2203.14 202.2 2205.81 191.59 L2201.57 191.59 Q2200.98 191.59 2200.75 191.566 Q2200.54 191.543 2200.38 191.426 Q2200.23 191.285 2200.23 191.004 Q2200.23 190.559 2200.42 190.372 Q2200.61 190.161 2200.84 190.137 Q2201.1 190.091 2201.69 190.091 L2206.18 190.091 L2208.06 182.478 Q2208.25 181.729 2208.71 181.307 Q2209.21 180.862 2209.49 180.815 Q2209.77 180.745 2209.98 180.745 Q2210.61 180.745 2210.99 181.096 Q2211.36 181.424 2211.36 182.033 Q2211.36 182.361 2209.39 190.091 L2213.61 190.091 Q2214.15 190.091 2214.36 190.114 Q2214.59 190.137 2214.78 190.254 Q2214.97 190.372 2214.97 190.629 Z" fill="#000000" fill-rule="nonzero" fill-opacity="1" /><path clip-path="url(#clip370)" d="M2218.72 222.296 Q2218.72 222.062 2219.33 221.477 Q2227.06 213.607 2227.06 198.78 Q2227.06 183.907 2219.63 176.388 Q2218.72 175.522 2218.72 175.264 Q2218.72 174.796 2219.19 174.796 Q2219.52 174.796 2220.66 175.756 Q2221.83 176.716 2223.59 178.918 Q2225.37 181.12 2226.68 183.813 Q2229.84 190.348 2229.84 198.78 Q2229.84 206.884 2226.82 213.419 Q2225.53 216.16 2223.73 218.455 Q2221.93 220.751 2220.73 221.758 Q2219.54 222.765 2219.19 222.765 Q2218.72 222.765 2218.72 222.296 Z" fill="#000000" fill-rule="nonzero" fill-opacity="1" /><polyline clip-path="url(#clip370)" style="stroke:#3da44d; stroke-linecap:round; stroke-linejoin:round; stroke-width:4; stroke-opacity:1; fill:none" points="1987.75,250.738 2132.67,250.738 "/>
<path clip-path="url(#clip370)" d="M2177.89 244.765 Q2177.89 245.374 2177.72 246.568 Q2177.56 247.763 2177.16 249.496 Q2176.76 251.229 2176.18 253.056 Q2175.61 254.883 2174.72 256.71 Q2173.83 258.514 2172.78 259.942 Q2171.73 261.371 2170.25 262.261 Q2168.77 263.151 2167.11 263.151 Q2166.34 263.151 2165.59 263.034 Q2164.84 262.917 2163.9 262.542 Q2162.97 262.168 2162.29 261.559 Q2161.61 260.926 2161.14 259.802 Q2160.67 258.678 2160.67 257.202 Q2160.67 255.68 2161.23 253.642 Q2161.82 251.581 2163.41 247.365 Q2164.23 245.186 2164.23 243.992 Q2164.23 243.453 2164.11 243.125 Q2164 242.774 2163.76 242.657 Q2163.53 242.516 2163.39 242.493 Q2163.27 242.469 2163.04 242.469 Q2161.75 242.469 2160.44 243.804 Q2159.12 245.139 2158.19 248.419 Q2158 249.004 2157.88 249.145 Q2157.77 249.285 2157.41 249.285 Q2156.83 249.262 2156.83 248.793 Q2156.83 248.653 2156.99 248.114 Q2157.16 247.552 2157.46 246.709 Q2157.77 245.842 2158.3 244.952 Q2158.84 244.039 2159.5 243.242 Q2160.18 242.446 2161.14 241.931 Q2162.1 241.415 2163.18 241.415 Q2164.93 241.415 2166.01 242.563 Q2167.11 243.687 2167.11 245.35 Q2167.11 246.264 2166.53 247.739 Q2165.54 250.409 2165.1 251.698 Q2164.65 252.986 2164.18 254.813 Q2163.74 256.64 2163.74 257.905 Q2163.74 259.825 2164.63 260.95 Q2165.52 262.074 2167.3 262.074 Q2168.89 262.074 2170.32 260.926 Q2171.77 259.755 2172.73 258.092 Q2173.69 256.406 2174.42 254.532 Q2175.14 252.635 2175.47 251.206 Q2175.82 249.754 2175.82 249.074 Q2175.82 246.709 2174.21 245.163 Q2173.76 244.718 2173.6 244.437 Q2173.44 244.156 2173.44 243.711 Q2173.44 242.891 2174.16 242.165 Q2174.91 241.415 2175.78 241.415 Q2176.57 241.415 2177.23 242.212 Q2177.89 243.008 2177.89 244.765 Z" fill="#000000" fill-rule="nonzero" fill-opacity="1" /><path clip-path="url(#clip370)" d="M2199.52 259.333 Q2199.52 260.251 2198.94 260.775 Q2198.37 261.284 2197.71 261.284 Q2197.09 261.284 2196.76 260.923 Q2196.43 260.562 2196.43 260.103 Q2196.43 259.48 2196.89 258.939 Q2197.35 258.398 2198.04 258.283 Q2197.37 257.857 2196.37 257.857 Q2195.71 257.857 2195.14 258.201 Q2194.58 258.546 2194.24 258.988 Q2193.91 259.431 2193.61 260.07 Q2193.33 260.693 2193.22 261.07 Q2193.12 261.431 2193.04 261.825 L2191.89 266.415 Q2191.33 268.596 2191.33 269.367 Q2191.33 270.318 2191.79 270.957 Q2192.25 271.58 2193.17 271.58 Q2193.53 271.58 2193.94 271.482 Q2194.35 271.367 2194.88 271.072 Q2195.42 270.76 2195.89 270.301 Q2196.38 269.826 2196.86 269.022 Q2197.34 268.219 2197.65 267.186 Q2197.75 266.825 2198.07 266.825 Q2198.48 266.825 2198.48 267.153 Q2198.48 267.432 2198.25 268.022 Q2198.04 268.596 2197.56 269.35 Q2197.11 270.088 2196.5 270.76 Q2195.89 271.416 2194.99 271.875 Q2194.09 272.334 2193.11 272.334 Q2191.7 272.334 2190.76 271.58 Q2189.83 270.826 2189.48 269.777 Q2189.4 269.924 2189.28 270.121 Q2189.17 270.318 2188.83 270.76 Q2188.5 271.187 2188.12 271.515 Q2187.74 271.826 2187.15 272.072 Q2186.58 272.334 2185.96 272.334 Q2185.17 272.334 2184.46 272.105 Q2183.78 271.875 2183.28 271.351 Q2182.79 270.826 2182.79 270.105 Q2182.79 269.301 2183.33 268.744 Q2183.89 268.17 2184.64 268.17 Q2185.12 268.17 2185.5 268.449 Q2185.89 268.727 2185.89 269.334 Q2185.89 270.006 2185.43 270.514 Q2184.97 271.023 2184.32 271.154 Q2184.99 271.58 2185.99 271.58 Q2187.07 271.58 2187.92 270.629 Q2188.78 269.678 2189.19 268.088 Q2190.2 264.268 2190.6 262.562 Q2190.99 260.841 2190.99 260.103 Q2190.99 259.415 2190.81 258.939 Q2190.63 258.464 2190.32 258.25 Q2190.02 258.021 2189.74 257.939 Q2189.48 257.857 2189.19 257.857 Q2188.69 257.857 2188.14 258.054 Q2187.6 258.25 2186.94 258.71 Q2186.3 259.152 2185.69 260.07 Q2185.09 260.989 2184.68 262.251 Q2184.6 262.628 2184.24 262.628 Q2183.84 262.612 2183.84 262.284 Q2183.84 262.005 2184.05 261.431 Q2184.28 260.841 2184.74 260.103 Q2185.22 259.365 2185.83 258.71 Q2186.45 258.037 2187.35 257.578 Q2188.27 257.119 2189.25 257.119 Q2189.69 257.119 2190.12 257.217 Q2190.56 257.299 2191.09 257.545 Q2191.63 257.791 2192.11 258.332 Q2192.58 258.873 2192.88 259.66 Q2193.07 259.283 2193.33 258.923 Q2193.61 258.562 2194.04 258.119 Q2194.48 257.66 2195.09 257.398 Q2195.71 257.119 2196.4 257.119 Q2197.07 257.119 2197.73 257.299 Q2198.38 257.463 2198.94 258.004 Q2199.52 258.529 2199.52 259.333 Z" fill="#000000" fill-rule="nonzero" fill-opacity="1" /><path clip-path="url(#clip370)" d="M2204.47 250.62 Q2204.47 242.516 2207.49 235.981 Q2208.78 233.241 2210.58 230.945 Q2212.39 228.65 2213.58 227.643 Q2214.78 226.636 2215.11 226.636 Q2215.57 226.636 2215.6 227.104 Q2215.6 227.338 2214.96 227.924 Q2207.24 235.794 2207.26 250.62 Q2207.26 265.494 2214.78 273.059 Q2215.6 273.879 2215.6 274.136 Q2215.6 274.605 2215.11 274.605 Q2214.78 274.605 2213.63 273.645 Q2212.48 272.684 2210.7 270.482 Q2208.92 268.281 2207.63 265.587 Q2204.47 259.052 2204.47 250.62 Z" fill="#000000" fill-rule="nonzero" fill-opacity="1" /><path clip-path="url(#clip370)" d="M2233.97 242.469 Q2233.97 243.125 2233.67 243.289 Q2233.36 243.43 2232.52 243.43 L2228.02 243.43 L2224.46 257.577 Q2224.18 258.818 2224.18 259.872 Q2224.18 261.043 2224.53 261.559 Q2224.91 262.074 2225.68 262.074 Q2227.2 262.074 2228.84 260.692 Q2230.51 259.31 2231.91 255.937 Q2232.1 255.492 2232.19 255.398 Q2232.31 255.281 2232.61 255.281 Q2233.2 255.281 2233.2 255.75 Q2233.2 255.914 2232.87 256.663 Q2232.57 257.413 2231.89 258.514 Q2231.23 259.614 2230.36 260.645 Q2229.52 261.676 2228.23 262.425 Q2226.95 263.151 2225.56 263.151 Q2223.62 263.151 2222.38 261.91 Q2221.16 260.668 2221.16 258.724 Q2221.16 258.092 2221.65 256.078 Q2222.14 254.04 2224.81 243.43 L2220.57 243.43 Q2219.99 243.43 2219.75 243.406 Q2219.54 243.383 2219.38 243.266 Q2219.24 243.125 2219.24 242.844 Q2219.24 242.399 2219.43 242.212 Q2219.61 242.001 2219.85 241.977 Q2220.11 241.931 2220.69 241.931 L2225.19 241.931 L2227.06 234.318 Q2227.25 233.569 2227.72 233.147 Q2228.21 232.702 2228.49 232.655 Q2228.77 232.585 2228.98 232.585 Q2229.62 232.585 2229.99 232.936 Q2230.36 233.264 2230.36 233.873 Q2230.36 234.201 2228.4 241.931 L2232.61 241.931 Q2233.15 241.931 2233.36 241.954 Q2233.6 241.977 2233.78 242.094 Q2233.97 242.212 2233.97 242.469 Z" fill="#000000" fill-rule="nonzero" fill-opacity="1" /><path clip-path="url(#clip370)" d="M2237.72 274.136 Q2237.72 273.902 2238.33 273.317 Q2246.06 265.447 2246.06 250.62 Q2246.06 235.747 2238.64 228.228 Q2237.72 227.362 2237.72 227.104 Q2237.72 226.636 2238.19 226.636 Q2238.52 226.636 2239.67 227.596 Q2240.84 228.556 2242.59 230.758 Q2244.38 232.96 2245.69 235.653 Q2248.85 242.188 2248.85 250.62 Q2248.85 258.724 2245.83 265.259 Q2244.54 268 2242.74 270.295 Q2240.93 272.591 2239.74 273.598 Q2238.54 274.605 2238.19 274.605 Q2237.72 274.605 2237.72 274.136 Z" fill="#000000" fill-rule="nonzero" fill-opacity="1" /><polyline clip-path="url(#clip370)" style="stroke:#c271d2; stroke-linecap:round; stroke-linejoin:round; stroke-width:4; stroke-opacity:1; fill:none" points="1987.75,302.578 2132.67,302.578 "/>
<path clip-path="url(#clip370)" d="M2177.89 294.463 Q2177.89 295.072 2177.72 296.266 Q2177.56 297.461 2177.16 299.194 Q2176.76 300.927 2176.18 302.754 Q2175.61 304.581 2174.72 306.408 Q2173.83 308.212 2172.78 309.641 Q2171.73 311.069 2170.25 311.959 Q2168.77 312.849 2167.11 312.849 Q2166.34 312.849 2165.59 312.732 Q2164.84 312.615 2163.9 312.24 Q2162.97 311.866 2162.29 311.257 Q2161.61 310.624 2161.14 309.5 Q2160.67 308.376 2160.67 306.9 Q2160.67 305.378 2161.23 303.34 Q2161.82 301.279 2163.41 297.063 Q2164.23 294.884 2164.23 293.69 Q2164.23 293.151 2164.11 292.823 Q2164 292.472 2163.76 292.355 Q2163.53 292.214 2163.39 292.191 Q2163.27 292.167 2163.04 292.167 Q2161.75 292.167 2160.44 293.502 Q2159.12 294.838 2158.19 298.117 Q2158 298.702 2157.88 298.843 Q2157.77 298.983 2157.41 298.983 Q2156.83 298.96 2156.83 298.491 Q2156.83 298.351 2156.99 297.812 Q2157.16 297.25 2157.46 296.407 Q2157.77 295.54 2158.3 294.65 Q2158.84 293.737 2159.5 292.94 Q2160.18 292.144 2161.14 291.629 Q2162.1 291.113 2163.18 291.113 Q2164.93 291.113 2166.01 292.261 Q2167.11 293.385 2167.11 295.048 Q2167.11 295.962 2166.53 297.437 Q2165.54 300.108 2165.1 301.396 Q2164.65 302.684 2164.18 304.511 Q2163.74 306.338 2163.74 307.603 Q2163.74 309.523 2164.63 310.648 Q2165.52 311.772 2167.3 311.772 Q2168.89 311.772 2170.32 310.624 Q2171.77 309.453 2172.73 307.79 Q2173.69 306.104 2174.42 304.23 Q2175.14 302.333 2175.47 300.904 Q2175.82 299.452 2175.82 298.773 Q2175.82 296.407 2174.21 294.861 Q2173.76 294.416 2173.6 294.135 Q2173.44 293.854 2173.44 293.409 Q2173.44 292.589 2174.16 291.863 Q2174.91 291.113 2175.78 291.113 Q2176.57 291.113 2177.23 291.91 Q2177.89 292.706 2177.89 294.463 Z" fill="#000000" fill-rule="nonzero" fill-opacity="1" /><path clip-path="url(#clip370)" d="M2198.29 308.096 Q2198.29 308.326 2198.14 308.867 L2194.93 321.688 Q2194.22 324.541 2191.92 326.541 Q2189.65 328.542 2187.06 328.542 Q2185.5 328.542 2184.5 327.705 Q2183.5 326.886 2183.5 325.623 Q2183.5 324.508 2184.09 323.967 Q2184.68 323.442 2185.38 323.442 Q2185.61 323.442 2185.86 323.508 Q2186.1 323.574 2186.37 323.852 Q2186.63 324.131 2186.63 324.607 Q2186.63 325.377 2185.96 325.984 Q2185.63 326.263 2185.32 326.328 Q2185.02 326.394 2184.51 326.394 Q2184.71 326.853 2185.07 327.164 Q2185.43 327.476 2185.84 327.591 Q2186.25 327.722 2186.51 327.755 Q2186.79 327.804 2187.06 327.804 Q2189.15 327.804 2190.76 325.689 Q2191.24 325.049 2191.58 324.41 Q2191.94 323.787 2192.2 323.016 Q2192.47 322.262 2192.58 321.852 Q2192.71 321.442 2192.94 320.508 Q2191.42 322.032 2189.55 322.032 Q2188.76 322.032 2188.06 321.819 Q2187.37 321.606 2186.76 321.163 Q2186.15 320.704 2185.79 319.901 Q2185.45 319.098 2185.45 318.032 Q2185.45 316.901 2185.89 315.359 Q2186.33 313.818 2187.4 310.982 Q2187.97 309.391 2187.97 308.621 Q2187.97 308.244 2187.89 308.014 Q2187.81 307.768 2187.65 307.686 Q2187.48 307.588 2187.38 307.571 Q2187.3 307.555 2187.14 307.555 Q2186.17 307.555 2185.27 308.539 Q2184.37 309.523 2183.74 311.72 Q2183.61 312.129 2183.53 312.228 Q2183.45 312.326 2183.2 312.326 Q2182.79 312.31 2182.79 311.982 Q2182.79 311.851 2182.94 311.342 Q2183.09 310.818 2183.43 310.047 Q2183.79 309.26 2184.28 308.555 Q2184.78 307.834 2185.55 307.326 Q2186.33 306.817 2187.24 306.817 Q2188.47 306.817 2189.22 307.621 Q2189.99 308.408 2189.99 309.572 Q2189.99 310.047 2189.86 310.473 Q2189.74 310.883 2189.32 311.982 Q2187.6 316.409 2187.6 318.573 Q2187.6 319.098 2187.68 319.54 Q2187.78 319.967 2187.99 320.393 Q2188.2 320.803 2188.63 321.049 Q2189.07 321.278 2189.68 321.278 Q2190.45 321.278 2191.17 320.918 Q2191.91 320.54 2192.37 320.032 Q2192.84 319.524 2193.12 319.098 Q2193.42 318.655 2193.48 318.425 L2194.99 312.392 L2195.66 309.703 Q2195.97 308.244 2196.12 307.883 Q2196.32 307.539 2196.66 307.358 Q2197.01 307.178 2197.3 307.178 Q2197.71 307.178 2197.99 307.424 Q2198.29 307.67 2198.29 308.096 Z" fill="#000000" fill-rule="nonzero" fill-opacity="1" /><path clip-path="url(#clip370)" d="M2203.25 300.318 Q2203.25 292.214 2206.27 285.679 Q2207.56 282.939 2209.36 280.644 Q2211.16 278.348 2212.36 277.341 Q2213.55 276.334 2213.88 276.334 Q2214.35 276.334 2214.37 276.802 Q2214.37 277.036 2213.74 277.622 Q2206.01 285.492 2206.03 300.318 Q2206.03 315.192 2213.55 322.757 Q2214.37 323.577 2214.37 323.835 Q2214.37 324.303 2213.88 324.303 Q2213.55 324.303 2212.4 323.343 Q2211.26 322.382 2209.48 320.181 Q2207.7 317.979 2206.41 315.285 Q2203.25 308.75 2203.25 300.318 Z" fill="#000000" fill-rule="nonzero" fill-opacity="1" /><path clip-path="url(#clip370)" d="M2232.75 292.167 Q2232.75 292.823 2232.44 292.987 Q2232.14 293.128 2231.29 293.128 L2226.8 293.128 L2223.24 307.275 Q2222.96 308.516 2222.96 309.57 Q2222.96 310.741 2223.31 311.257 Q2223.68 311.772 2224.46 311.772 Q2225.98 311.772 2227.62 310.39 Q2229.28 309.008 2230.69 305.635 Q2230.87 305.19 2230.97 305.097 Q2231.08 304.979 2231.39 304.979 Q2231.97 304.979 2231.97 305.448 Q2231.97 305.612 2231.65 306.361 Q2231.34 307.111 2230.66 308.212 Q2230.01 309.313 2229.14 310.343 Q2228.3 311.374 2227.01 312.123 Q2225.72 312.849 2224.34 312.849 Q2222.39 312.849 2221.15 311.608 Q2219.93 310.367 2219.93 308.423 Q2219.93 307.79 2220.43 305.776 Q2220.92 303.738 2223.59 293.128 L2219.35 293.128 Q2218.76 293.128 2218.53 293.104 Q2218.32 293.081 2218.15 292.964 Q2218.01 292.823 2218.01 292.542 Q2218.01 292.097 2218.2 291.91 Q2218.39 291.699 2218.62 291.676 Q2218.88 291.629 2219.47 291.629 L2223.96 291.629 L2225.84 284.016 Q2226.02 283.267 2226.49 282.845 Q2226.98 282.4 2227.27 282.353 Q2227.55 282.283 2227.76 282.283 Q2228.39 282.283 2228.77 282.634 Q2229.14 282.962 2229.14 283.571 Q2229.14 283.899 2227.17 291.629 L2231.39 291.629 Q2231.93 291.629 2232.14 291.652 Q2232.37 291.676 2232.56 291.793 Q2232.75 291.91 2232.75 292.167 Z" fill="#000000" fill-rule="nonzero" fill-opacity="1" /><path clip-path="url(#clip370)" d="M2236.5 323.835 Q2236.5 323.6 2237.11 323.015 Q2244.84 315.145 2244.84 300.318 Q2244.84 285.445 2237.41 277.927 Q2236.5 277.06 2236.5 276.802 Q2236.5 276.334 2236.97 276.334 Q2237.29 276.334 2238.44 277.294 Q2239.61 278.254 2241.37 280.456 Q2243.15 282.658 2244.46 285.351 Q2247.62 291.886 2247.62 300.318 Q2247.62 308.423 2244.6 314.957 Q2243.31 317.698 2241.51 319.993 Q2239.71 322.289 2238.51 323.296 Q2237.32 324.303 2236.97 324.303 Q2236.5 324.303 2236.5 323.835 Z" fill="#000000" fill-rule="nonzero" fill-opacity="1" /></svg>
