<?xml version="1.0" encoding="utf-8"?>
<svg xmlns="http://www.w3.org/2000/svg" xmlns:xlink="http://www.w3.org/1999/xlink" width="600" height="400" viewBox="0 0 2400 1600">
<defs>
  <clipPath id="clip080">
    <rect x="0" y="0" width="2400" height="1600"/>
  </clipPath>
</defs>
<path clip-path="url(#clip080)" d="M0 1600 L2400 1600 L2400 0 L0 0  Z" fill="#ffffff" fill-rule="evenodd" fill-opacity="1"/>
<defs>
  <clipPath id="clip081">
    <rect x="480" y="0" width="1681" height="1600"/>
  </clipPath>
</defs>
<path clip-path="url(#clip080)" d="M178.867 1486.45 L2352.76 1486.45 L2352.76 47.2441 L178.867 47.2441  Z" fill="#ffffff" fill-rule="evenodd" fill-opacity="1"/>
<defs>
  <clipPath id="clip082">
    <rect x="178" y="47" width="2175" height="1440"/>
  </clipPath>
</defs>
<polyline clip-path="url(#clip082)" style="stroke:#000000; stroke-linecap:round; stroke-linejoin:round; stroke-width:2; stroke-opacity:0.1; fill:none" points="240.392,1486.45 240.392,47.2441 "/>
<polyline clip-path="url(#clip082)" style="stroke:#000000; stroke-linecap:round; stroke-linejoin:round; stroke-width:2; stroke-opacity:0.1; fill:none" points="650.56,1486.45 650.56,47.2441 "/>
<polyline clip-path="url(#clip082)" style="stroke:#000000; stroke-linecap:round; stroke-linejoin:round; stroke-width:2; stroke-opacity:0.1; fill:none" points="1060.73,1486.45 1060.73,47.2441 "/>
<polyline clip-path="url(#clip082)" style="stroke:#000000; stroke-linecap:round; stroke-linejoin:round; stroke-width:2; stroke-opacity:0.1; fill:none" points="1470.9,1486.45 1470.9,47.2441 "/>
<polyline clip-path="url(#clip082)" style="stroke:#000000; stroke-linecap:round; stroke-linejoin:round; stroke-width:2; stroke-opacity:0.1; fill:none" points="1881.06,1486.45 1881.06,47.2441 "/>
<polyline clip-path="url(#clip082)" style="stroke:#000000; stroke-linecap:round; stroke-linejoin:round; stroke-width:2; stroke-opacity:0.1; fill:none" points="2291.23,1486.45 2291.23,47.2441 "/>
<polyline clip-path="url(#clip082)" style="stroke:#000000; stroke-linecap:round; stroke-linejoin:round; stroke-width:2; stroke-opacity:0.1; fill:none" points="178.867,1339.69 2352.76,1339.69 "/>
<polyline clip-path="url(#clip082)" style="stroke:#000000; stroke-linecap:round; stroke-linejoin:round; stroke-width:2; stroke-opacity:0.1; fill:none" points="178.867,1026.76 2352.76,1026.76 "/>
<polyline clip-path="url(#clip082)" style="stroke:#000000; stroke-linecap:round; stroke-linejoin:round; stroke-width:2; stroke-opacity:0.1; fill:none" points="178.867,713.831 2352.76,713.831 "/>
<polyline clip-path="url(#clip082)" style="stroke:#000000; stroke-linecap:round; stroke-linejoin:round; stroke-width:2; stroke-opacity:0.1; fill:none" points="178.867,400.904 2352.76,400.904 "/>
<polyline clip-path="url(#clip082)" style="stroke:#000000; stroke-linecap:round; stroke-linejoin:round; stroke-width:2; stroke-opacity:0.1; fill:none" points="178.867,87.9763 2352.76,87.9763 "/>
<polyline clip-path="url(#clip080)" style="stroke:#000000; stroke-linecap:round; stroke-linejoin:round; stroke-width:4; stroke-opacity:1; fill:none" points="178.867,1486.45 2352.76,1486.45 "/>
<polyline clip-path="url(#clip080)" style="stroke:#000000; stroke-linecap:round; stroke-linejoin:round; stroke-width:4; stroke-opacity:1; fill:none" points="240.392,1486.45 240.392,1467.55 "/>
<polyline clip-path="url(#clip080)" style="stroke:#000000; stroke-linecap:round; stroke-linejoin:round; stroke-width:4; stroke-opacity:1; fill:none" points="650.56,1486.45 650.56,1467.55 "/>
<polyline clip-path="url(#clip080)" style="stroke:#000000; stroke-linecap:round; stroke-linejoin:round; stroke-width:4; stroke-opacity:1; fill:none" points="1060.73,1486.45 1060.73,1467.55 "/>
<polyline clip-path="url(#clip080)" style="stroke:#000000; stroke-linecap:round; stroke-linejoin:round; stroke-width:4; stroke-opacity:1; fill:none" points="1470.9,1486.45 1470.9,1467.55 "/>
<polyline clip-path="url(#clip080)" style="stroke:#000000; stroke-linecap:round; stroke-linejoin:round; stroke-width:4; stroke-opacity:1; fill:none" points="1881.06,1486.45 1881.06,1467.55 "/>
<polyline clip-path="url(#clip080)" style="stroke:#000000; stroke-linecap:round; stroke-linejoin:round; stroke-width:4; stroke-opacity:1; fill:none" points="2291.23,1486.45 2291.23,1467.55 "/>
<path clip-path="url(#clip080)" d="M240.392 1517.37 Q236.781 1517.37 234.952 1520.93 Q233.146 1524.47 233.146 1531.6 Q233.146 1538.71 234.952 1542.27 Q236.781 1545.82 240.392 1545.82 Q244.026 1545.82 245.832 1542.27 Q247.66 1538.71 247.66 1531.6 Q247.66 1524.47 245.832 1520.93 Q244.026 1517.37 240.392 1517.37 M240.392 1513.66 Q246.202 1513.66 249.257 1518.27 Q252.336 1522.85 252.336 1531.6 Q252.336 1540.33 249.257 1544.94 Q246.202 1549.52 240.392 1549.52 Q234.582 1549.52 231.503 1544.94 Q228.447 1540.33 228.447 1531.6 Q228.447 1522.85 231.503 1518.27 Q234.582 1513.66 240.392 1513.66 Z" fill="#000000" fill-rule="nonzero" fill-opacity="1" /><path clip-path="url(#clip080)" d="M640.942 1544.91 L648.58 1544.91 L648.58 1518.55 L640.27 1520.21 L640.27 1515.95 L648.534 1514.29 L653.21 1514.29 L653.21 1544.91 L660.849 1544.91 L660.849 1548.85 L640.942 1548.85 L640.942 1544.91 Z" fill="#000000" fill-rule="nonzero" fill-opacity="1" /><path clip-path="url(#clip080)" d="M1055.38 1544.91 L1071.7 1544.91 L1071.7 1548.85 L1049.76 1548.85 L1049.76 1544.91 Q1052.42 1542.16 1057 1537.53 Q1061.61 1532.88 1062.79 1531.53 Q1065.03 1529.01 1065.91 1527.27 Q1066.82 1525.51 1066.82 1523.82 Q1066.82 1521.07 1064.87 1519.33 Q1062.95 1517.6 1059.85 1517.6 Q1057.65 1517.6 1055.19 1518.36 Q1052.76 1519.13 1049.99 1520.68 L1049.99 1515.95 Q1052.81 1514.82 1055.26 1514.24 Q1057.72 1513.66 1059.76 1513.66 Q1065.13 1513.66 1068.32 1516.35 Q1071.51 1519.03 1071.51 1523.52 Q1071.51 1525.65 1070.7 1527.57 Q1069.92 1529.47 1067.81 1532.07 Q1067.23 1532.74 1064.13 1535.95 Q1061.03 1539.15 1055.38 1544.91 Z" fill="#000000" fill-rule="nonzero" fill-opacity="1" /><path clip-path="url(#clip080)" d="M1475.14 1530.21 Q1478.5 1530.93 1480.37 1533.2 Q1482.27 1535.47 1482.27 1538.8 Q1482.27 1543.92 1478.75 1546.72 Q1475.24 1549.52 1468.75 1549.52 Q1466.58 1549.52 1464.26 1549.08 Q1461.97 1548.66 1459.52 1547.81 L1459.52 1543.29 Q1461.46 1544.43 1463.78 1545.01 Q1466.09 1545.58 1468.62 1545.58 Q1473.01 1545.58 1475.3 1543.85 Q1477.62 1542.11 1477.62 1538.8 Q1477.62 1535.75 1475.47 1534.03 Q1473.34 1532.3 1469.52 1532.3 L1465.49 1532.3 L1465.49 1528.45 L1469.7 1528.45 Q1473.15 1528.45 1474.98 1527.09 Q1476.81 1525.7 1476.81 1523.11 Q1476.81 1520.45 1474.91 1519.03 Q1473.04 1517.6 1469.52 1517.6 Q1467.6 1517.6 1465.4 1518.01 Q1463.2 1518.43 1460.56 1519.31 L1460.56 1515.14 Q1463.22 1514.4 1465.54 1514.03 Q1467.87 1513.66 1469.93 1513.66 Q1475.26 1513.66 1478.36 1516.09 Q1481.46 1518.5 1481.46 1522.62 Q1481.46 1525.49 1479.82 1527.48 Q1478.18 1529.45 1475.14 1530.21 Z" fill="#000000" fill-rule="nonzero" fill-opacity="1" /><path clip-path="url(#clip080)" d="M1884.07 1518.36 L1872.27 1536.81 L1884.07 1536.81 L1884.07 1518.36 M1882.85 1514.29 L1888.72 1514.29 L1888.72 1536.81 L1893.66 1536.81 L1893.66 1540.7 L1888.72 1540.7 L1888.72 1548.85 L1884.07 1548.85 L1884.07 1540.7 L1868.47 1540.7 L1868.47 1536.19 L1882.85 1514.29 Z" fill="#000000" fill-rule="nonzero" fill-opacity="1" /><path clip-path="url(#clip080)" d="M2281.51 1514.29 L2299.86 1514.29 L2299.86 1518.22 L2285.79 1518.22 L2285.79 1526.7 Q2286.81 1526.35 2287.83 1526.19 Q2288.85 1526 2289.87 1526 Q2295.65 1526 2299.03 1529.17 Q2302.41 1532.34 2302.41 1537.76 Q2302.41 1543.34 2298.94 1546.44 Q2295.47 1549.52 2289.15 1549.52 Q2286.97 1549.52 2284.7 1549.15 Q2282.46 1548.78 2280.05 1548.04 L2280.05 1543.34 Q2282.13 1544.47 2284.36 1545.03 Q2286.58 1545.58 2289.05 1545.58 Q2293.06 1545.58 2295.4 1543.48 Q2297.74 1541.37 2297.74 1537.76 Q2297.74 1534.15 2295.4 1532.04 Q2293.06 1529.94 2289.05 1529.94 Q2287.18 1529.94 2285.3 1530.35 Q2283.45 1530.77 2281.51 1531.65 L2281.51 1514.29 Z" fill="#000000" fill-rule="nonzero" fill-opacity="1" /><polyline clip-path="url(#clip080)" style="stroke:#000000; stroke-linecap:round; stroke-linejoin:round; stroke-width:4; stroke-opacity:1; fill:none" points="178.867,1486.45 178.867,47.2441 "/>
<polyline clip-path="url(#clip080)" style="stroke:#000000; stroke-linecap:round; stroke-linejoin:round; stroke-width:4; stroke-opacity:1; fill:none" points="178.867,1339.69 197.764,1339.69 "/>
<polyline clip-path="url(#clip080)" style="stroke:#000000; stroke-linecap:round; stroke-linejoin:round; stroke-width:4; stroke-opacity:1; fill:none" points="178.867,1026.76 197.764,1026.76 "/>
<polyline clip-path="url(#clip080)" style="stroke:#000000; stroke-linecap:round; stroke-linejoin:round; stroke-width:4; stroke-opacity:1; fill:none" points="178.867,713.831 197.764,713.831 "/>
<polyline clip-path="url(#clip080)" style="stroke:#000000; stroke-linecap:round; stroke-linejoin:round; stroke-width:4; stroke-opacity:1; fill:none" points="178.867,400.904 197.764,400.904 "/>
<polyline clip-path="url(#clip080)" style="stroke:#000000; stroke-linecap:round; stroke-linejoin:round; stroke-width:4; stroke-opacity:1; fill:none" points="178.867,87.9763 197.764,87.9763 "/>
<path clip-path="url(#clip080)" d="M50.9921 1340.14 L80.6679 1340.14 L80.6679 1344.07 L50.9921 1344.07 L50.9921 1340.14 Z" fill="#000000" fill-rule="nonzero" fill-opacity="1" /><path clip-path="url(#clip080)" d="M94.7882 1353.03 L111.108 1353.03 L111.108 1356.97 L89.1632 1356.97 L89.1632 1353.03 Q91.8252 1350.28 96.4085 1345.65 Q101.015 1340.99 102.196 1339.65 Q104.441 1337.13 105.321 1335.39 Q106.223 1333.63 106.223 1331.94 Q106.223 1329.19 104.279 1327.45 Q102.358 1325.72 99.2558 1325.72 Q97.0567 1325.72 94.603 1326.48 Q92.1725 1327.24 89.3947 1328.8 L89.3947 1324.07 Q92.2188 1322.94 94.6724 1322.36 Q97.1261 1321.78 99.1632 1321.78 Q104.534 1321.78 107.728 1324.47 Q110.922 1327.15 110.922 1331.64 Q110.922 1333.77 110.112 1335.69 Q109.325 1337.59 107.219 1340.18 Q106.64 1340.86 103.538 1344.07 Q100.436 1347.27 94.7882 1353.03 Z" fill="#000000" fill-rule="nonzero" fill-opacity="1" /><path clip-path="url(#clip080)" d="M130.922 1325.48 Q127.311 1325.48 125.482 1329.05 Q123.677 1332.59 123.677 1339.72 Q123.677 1346.83 125.482 1350.39 Q127.311 1353.93 130.922 1353.93 Q134.556 1353.93 136.362 1350.39 Q138.191 1346.83 138.191 1339.72 Q138.191 1332.59 136.362 1329.05 Q134.556 1325.48 130.922 1325.48 M130.922 1321.78 Q136.732 1321.78 139.788 1326.39 Q142.867 1330.97 142.867 1339.72 Q142.867 1348.45 139.788 1353.05 Q136.732 1357.64 130.922 1357.64 Q125.112 1357.64 122.033 1353.05 Q118.978 1348.45 118.978 1339.72 Q118.978 1330.97 122.033 1326.39 Q125.112 1321.78 130.922 1321.78 Z" fill="#000000" fill-rule="nonzero" fill-opacity="1" /><path clip-path="url(#clip080)" d="M50.9921 1027.21 L80.6679 1027.21 L80.6679 1031.15 L50.9921 1031.15 L50.9921 1027.21 Z" fill="#000000" fill-rule="nonzero" fill-opacity="1" /><path clip-path="url(#clip080)" d="M91.5706 1040.1 L99.2095 1040.1 L99.2095 1013.74 L90.8993 1015.4 L90.8993 1011.15 L99.1632 1009.48 L103.839 1009.48 L103.839 1040.1 L111.478 1040.1 L111.478 1044.04 L91.5706 1044.04 L91.5706 1040.1 Z" fill="#000000" fill-rule="nonzero" fill-opacity="1" /><path clip-path="url(#clip080)" d="M130.922 1012.56 Q127.311 1012.56 125.482 1016.12 Q123.677 1019.66 123.677 1026.79 Q123.677 1033.9 125.482 1037.46 Q127.311 1041.01 130.922 1041.01 Q134.556 1041.01 136.362 1037.46 Q138.191 1033.9 138.191 1026.79 Q138.191 1019.66 136.362 1016.12 Q134.556 1012.56 130.922 1012.56 M130.922 1008.85 Q136.732 1008.85 139.788 1013.46 Q142.867 1018.04 142.867 1026.79 Q142.867 1035.52 139.788 1040.13 Q136.732 1044.71 130.922 1044.71 Q125.112 1044.71 122.033 1040.13 Q118.978 1035.52 118.978 1026.79 Q118.978 1018.04 122.033 1013.46 Q125.112 1008.85 130.922 1008.85 Z" fill="#000000" fill-rule="nonzero" fill-opacity="1" /><path clip-path="url(#clip080)" d="M130.922 699.63 Q127.311 699.63 125.482 703.195 Q123.677 706.736 123.677 713.866 Q123.677 720.972 125.482 724.537 Q127.311 728.079 130.922 728.079 Q134.556 728.079 136.362 724.537 Q138.191 720.972 138.191 713.866 Q138.191 706.736 136.362 703.195 Q134.556 699.63 130.922 699.63 M130.922 695.926 Q136.732 695.926 139.788 700.533 Q142.867 705.116 142.867 713.866 Q142.867 722.593 139.788 727.199 Q136.732 731.783 130.922 731.783 Q125.112 731.783 122.033 727.199 Q118.978 722.593 118.978 713.866 Q118.978 705.116 122.033 700.533 Q125.112 695.926 130.922 695.926 Z" fill="#000000" fill-rule="nonzero" fill-opacity="1" /><path clip-path="url(#clip080)" d="M91.5706 414.249 L99.2095 414.249 L99.2095 387.883 L90.8993 389.55 L90.8993 385.29 L99.1632 383.624 L103.839 383.624 L103.839 414.249 L111.478 414.249 L111.478 418.184 L91.5706 418.184 L91.5706 414.249 Z" fill="#000000" fill-rule="nonzero" fill-opacity="1" /><path clip-path="url(#clip080)" d="M130.922 386.702 Q127.311 386.702 125.482 390.267 Q123.677 393.809 123.677 400.938 Q123.677 408.045 125.482 411.61 Q127.311 415.151 130.922 415.151 Q134.556 415.151 136.362 411.61 Q138.191 408.045 138.191 400.938 Q138.191 393.809 136.362 390.267 Q134.556 386.702 130.922 386.702 M130.922 382.999 Q136.732 382.999 139.788 387.605 Q142.867 392.189 142.867 400.938 Q142.867 409.665 139.788 414.272 Q136.732 418.855 130.922 418.855 Q125.112 418.855 122.033 414.272 Q118.978 409.665 118.978 400.938 Q118.978 392.189 122.033 387.605 Q125.112 382.999 130.922 382.999 Z" fill="#000000" fill-rule="nonzero" fill-opacity="1" /><path clip-path="url(#clip080)" d="M94.7882 101.321 L111.108 101.321 L111.108 105.256 L89.1632 105.256 L89.1632 101.321 Q91.8252 98.5665 96.4085 93.9369 Q101.015 89.2841 102.196 87.9416 Q104.441 85.4184 105.321 83.6823 Q106.223 81.9231 106.223 80.2333 Q106.223 77.4786 104.279 75.7425 Q102.358 74.0064 99.2558 74.0064 Q97.0567 74.0064 94.603 74.7703 Q92.1725 75.5342 89.3947 77.0851 L89.3947 72.3629 Q92.2188 71.2287 94.6724 70.65 Q97.1261 70.0713 99.1632 70.0713 Q104.534 70.0713 107.728 72.7565 Q110.922 75.4416 110.922 79.9323 Q110.922 82.062 110.112 83.9832 Q109.325 85.8814 107.219 88.474 Q106.64 89.1453 103.538 92.3628 Q100.436 95.5573 94.7882 101.321 Z" fill="#000000" fill-rule="nonzero" fill-opacity="1" /><path clip-path="url(#clip080)" d="M130.922 73.775 Q127.311 73.775 125.482 77.3398 Q123.677 80.8814 123.677 88.011 Q123.677 95.1174 125.482 98.6822 Q127.311 102.224 130.922 102.224 Q134.556 102.224 136.362 98.6822 Q138.191 95.1174 138.191 88.011 Q138.191 80.8814 136.362 77.3398 Q134.556 73.775 130.922 73.775 M130.922 70.0713 Q136.732 70.0713 139.788 74.6777 Q142.867 79.261 142.867 88.011 Q142.867 96.7378 139.788 101.344 Q136.732 105.928 130.922 105.928 Q125.112 105.928 122.033 101.344 Q118.978 96.7378 118.978 88.011 Q118.978 79.261 122.033 74.6777 Q125.112 70.0713 130.922 70.0713 Z" fill="#000000" fill-rule="nonzero" fill-opacity="1" /><polyline clip-path="url(#clip082)" style="stroke:#009af9; stroke-linecap:round; stroke-linejoin:round; stroke-width:4; stroke-opacity:1; fill:none" points="240.392,713.831 245.685,709.849 250.978,705.977 256.271,702.208 261.564,698.538 277.065,688.303 292.565,678.736 308.066,669.75 323.566,661.269 339.067,653.227 354.567,645.574 370.068,638.265 385.568,631.263 399.99,624.996 414.411,618.942 428.833,613.084 443.255,607.404 481.915,592.937 520.576,579.393 552.522,568.766 584.468,558.563 614.174,549.402 643.881,540.517 681.172,529.713 718.464,519.273 751.915,510.209 785.366,501.434 823.655,491.76 861.944,482.5 890.565,475.862 919.186,469.475 955.793,461.682 992.4,454.316 1025.81,447.968 1059.22,441.978 1097.25,435.587 1135.27,429.639 1165.42,425.23 1195.56,421.08 1233.01,416.271 1270.46,411.829 1299.14,408.66 1327.82,405.684 1368.26,401.798 1408.7,398.248 1438.91,395.8 1469.13,393.516 1537.86,388.878 1605.92,384.962 1680.8,381.32 1738,378.943 1810.18,376.37 1876.93,374.355 1945.78,372.589 2015.57,371.072 2088.44,369.738 2145.84,368.841 2276.56,367.205 2291.23,367.052 "/>
<polyline clip-path="url(#clip082)" style="stroke:#e26f46; stroke-linecap:round; stroke-linejoin:round; stroke-width:4; stroke-opacity:1; fill:none" points="240.392,682.538 245.685,674.6 250.978,666.93 256.271,659.515 261.564,652.345 277.065,632.638 292.565,614.64 308.066,598.159 323.566,583.032 339.067,569.111 354.567,556.295 370.068,544.482 385.568,533.593 399.99,524.233 414.411,515.566 428.833,507.551 443.255,500.153 462.585,491.148 481.915,483.129 501.246,476.038 520.576,469.832 552.522,461.406 584.468,455.142 614.174,451.159 643.881,448.88 681.172,448.35 718.464,450.331 751.915,454.173 785.366,459.898 823.655,468.665 861.944,479.669 890.565,489.267 919.186,499.967 955.793,515.147 992.4,531.866 1025.81,548.345 1059.22,565.875 1097.25,586.97 1135.27,609.143 1165.42,627.397 1195.56,646.181 1270.46,694.797 1327.82,733.545 1408.7,789.845 1469.13,832.884 1537.86,882.571 1605.92,932.363 1680.8,987.633 1738,1030.11 1810.18,1083.94 1876.93,1133.9 1945.78,1185.55 2015.57,1238 2088.44,1292.85 2145.84,1336.09 2276.56,1434.65 2291.23,1445.72 "/>
<polyline clip-path="url(#clip082)" style="stroke:#3da44d; stroke-linecap:round; stroke-linejoin:round; stroke-width:4; stroke-opacity:1; fill:none" points="240.392,400.904 243.038,405.351 245.685,409.666 248.331,413.853 250.978,417.916 253.624,421.859 256.271,425.687 258.918,429.404 261.564,433.014 269.314,443.011 277.065,452.233 284.815,460.786 292.565,468.734 300.315,476.124 308.066,483.007 315.816,489.431 323.566,495.445 331.316,501.088 339.067,506.386 346.817,511.364 354.567,516.048 362.317,520.463 370.068,524.634 377.818,528.576 385.568,532.304 392.779,535.593 399.99,538.721 407.201,541.699 414.411,544.538 428.833,549.825 443.255,554.641 462.585,560.45 481.915,565.613 501.246,570.218 520.576,574.339 536.549,577.426 552.522,580.258 568.495,582.866 584.468,585.276 614.174,589.318 643.881,592.919 718.464,600.945 785.366,608.052 861.944,616.938 919.186,624.13 992.4,633.709 1059.22,642.459 1135.27,652.019 1195.56,659.09 1270.46,667.098 1327.82,672.604 1408.7,679.447 1469.13,683.89 1537.86,688.304 1605.92,692.069 1680.8,695.6 1738,697.917 1810.18,700.435 1876.93,702.413 1945.78,704.151 2015.57,705.646 2088.44,706.962 2145.84,707.849 2276.56,709.465 2291.23,709.617 "/>
<polyline clip-path="url(#clip082)" style="stroke:#c271d2; stroke-linecap:round; stroke-linejoin:round; stroke-width:4; stroke-opacity:1; fill:none" points="240.392,87.9763 243.038,98.836 245.685,109.405 248.331,119.691 250.978,129.706 253.624,139.457 256.271,148.955 258.918,158.209 261.564,167.227 269.314,192.375 277.065,215.825 284.815,237.806 292.565,258.464 300.315,277.905 308.066,296.237 315.816,313.571 323.566,330.013 331.316,345.652 339.067,360.545 346.817,374.748 354.567,388.319 370.068,413.789 385.568,437.309 399.99,457.674 414.411,476.789 428.833,494.808 443.255,511.863 462.585,533.425 481.915,553.708 501.246,572.914 520.576,591.204 552.522,619.793 584.468,646.768 614.174,670.741 643.881,693.879 681.172,721.967 718.464,749.106 751.915,772.629 785.366,795.281 823.655,819.978 861.944,843.177 890.565,859.441 919.186,874.73 955.793,892.818 992.4,909.243 1025.81,922.803 1059.22,935.041 1097.25,947.44 1135.27,958.322 1165.42,965.953 1195.56,972.777 1233.01,980.229 1270.46,986.663 1299.14,990.976 1327.82,994.812 1408.7,1003.45 1469.13,1008.22 1537.86,1012.31 1605.92,1015.31 1680.8,1017.71 1738,1019.07 1810.18,1020.35 1876.93,1021.21 1945.78,1021.86 2015.57,1022.34 2088.44,1022.71 2145.84,1022.92 2276.56,1023.23 2291.23,1023.26 "/>
<path clip-path="url(#clip080)" d="M251.33 1438.47 L568.029 1438.47 L568.029 1179.27 L251.33 1179.27  Z" fill="#ffffff" fill-rule="evenodd" fill-opacity="1"/>
<polyline clip-path="url(#clip080)" style="stroke:#000000; stroke-linecap:round; stroke-linejoin:round; stroke-width:4; stroke-opacity:1; fill:none" points="251.33,1438.47 568.029,1438.47 568.029,1179.27 251.33,1179.27 251.33,1438.47 "/>
<polyline clip-path="url(#clip080)" style="stroke:#009af9; stroke-linecap:round; stroke-linejoin:round; stroke-width:4; stroke-opacity:1; fill:none" points="275.484,1231.11 420.41,1231.11 "/>
<path clip-path="url(#clip080)" d="M468.455 1224.95 Q468.455 1226.27 467.635 1227.02 Q466.816 1227.74 465.879 1227.74 Q464.989 1227.74 464.52 1227.23 Q464.052 1226.71 464.052 1226.05 Q464.052 1225.16 464.708 1224.39 Q465.363 1223.62 466.347 1223.46 Q465.387 1222.85 463.958 1222.85 Q463.021 1222.85 462.201 1223.34 Q461.405 1223.83 460.913 1224.46 Q460.445 1225.09 460.023 1226.01 Q459.625 1226.9 459.461 1227.44 Q459.32 1227.95 459.203 1228.51 L457.564 1235.07 Q456.767 1238.19 456.767 1239.29 Q456.767 1240.65 457.423 1241.56 Q458.079 1242.45 459.391 1242.45 Q459.906 1242.45 460.491 1242.31 Q461.077 1242.15 461.827 1241.72 Q462.599 1241.28 463.279 1240.62 Q463.981 1239.94 464.661 1238.8 Q465.34 1237.65 465.785 1236.17 Q465.925 1235.66 466.394 1235.66 Q466.979 1235.66 466.979 1236.13 Q466.979 1236.52 466.652 1237.37 Q466.347 1238.19 465.668 1239.27 Q465.012 1240.32 464.145 1241.28 Q463.279 1242.22 461.991 1242.87 Q460.702 1243.53 459.297 1243.53 Q457.283 1243.53 455.948 1242.45 Q454.612 1241.37 454.121 1239.87 Q454.003 1240.09 453.839 1240.37 Q453.676 1240.65 453.184 1241.28 Q452.715 1241.89 452.177 1242.36 Q451.638 1242.8 450.795 1243.15 Q449.975 1243.53 449.085 1243.53 Q447.96 1243.53 446.953 1243.2 Q445.97 1242.87 445.267 1242.12 Q444.564 1241.37 444.564 1240.34 Q444.564 1239.19 445.337 1238.4 Q446.134 1237.58 447.211 1237.58 Q447.89 1237.58 448.429 1237.98 Q448.991 1238.38 448.991 1239.24 Q448.991 1240.2 448.335 1240.93 Q447.679 1241.65 446.742 1241.84 Q447.703 1242.45 449.132 1242.45 Q450.677 1242.45 451.895 1241.09 Q453.113 1239.73 453.699 1237.46 Q455.151 1232 455.713 1229.57 Q456.275 1227.11 456.275 1226.05 Q456.275 1225.07 456.018 1224.39 Q455.76 1223.71 455.315 1223.41 Q454.894 1223.08 454.495 1222.96 Q454.121 1222.85 453.699 1222.85 Q452.996 1222.85 452.2 1223.13 Q451.427 1223.41 450.49 1224.06 Q449.577 1224.7 448.71 1226.01 Q447.843 1227.32 447.258 1229.12 Q447.141 1229.66 446.625 1229.66 Q446.063 1229.64 446.063 1229.17 Q446.063 1228.77 446.368 1227.95 Q446.696 1227.11 447.351 1226.05 Q448.031 1225 448.897 1224.06 Q449.787 1223.1 451.076 1222.45 Q452.387 1221.79 453.793 1221.79 Q454.425 1221.79 455.034 1221.93 Q455.666 1222.05 456.416 1222.4 Q457.189 1222.75 457.868 1223.53 Q458.547 1224.3 458.969 1225.42 Q459.25 1224.88 459.625 1224.37 Q460.023 1223.85 460.632 1223.22 Q461.264 1222.57 462.131 1222.19 Q463.021 1221.79 464.005 1221.79 Q464.965 1221.79 465.902 1222.05 Q466.839 1222.28 467.635 1223.06 Q468.455 1223.81 468.455 1224.95 Z" fill="#000000" fill-rule="nonzero" fill-opacity="1" /><path clip-path="url(#clip080)" d="M474.796 1231 Q474.796 1222.89 477.817 1216.36 Q479.105 1213.62 480.909 1211.32 Q482.712 1209.03 483.907 1208.02 Q485.102 1207.01 485.429 1207.01 Q485.898 1207.01 485.921 1207.48 Q485.921 1207.72 485.289 1208.3 Q477.559 1216.17 477.583 1231 Q477.583 1245.87 485.102 1253.44 Q485.921 1254.26 485.921 1254.51 Q485.921 1254.98 485.429 1254.98 Q485.102 1254.98 483.954 1254.02 Q482.806 1253.06 481.026 1250.86 Q479.246 1248.66 477.958 1245.96 Q474.796 1239.43 474.796 1231 Z" fill="#000000" fill-rule="nonzero" fill-opacity="1" /><path clip-path="url(#clip080)" d="M504.296 1222.85 Q504.296 1223.5 503.991 1223.67 Q503.687 1223.81 502.844 1223.81 L498.347 1223.81 L494.786 1237.95 Q494.505 1239.19 494.505 1240.25 Q494.505 1241.42 494.857 1241.94 Q495.231 1242.45 496.004 1242.45 Q497.527 1242.45 499.166 1241.07 Q500.829 1239.69 502.235 1236.31 Q502.422 1235.87 502.516 1235.78 Q502.633 1235.66 502.937 1235.66 Q503.523 1235.66 503.523 1236.13 Q503.523 1236.29 503.195 1237.04 Q502.891 1237.79 502.211 1238.89 Q501.555 1239.99 500.689 1241.02 Q499.846 1242.05 498.557 1242.8 Q497.269 1243.53 495.887 1243.53 Q493.943 1243.53 492.702 1242.29 Q491.484 1241.05 491.484 1239.1 Q491.484 1238.47 491.976 1236.45 Q492.468 1234.42 495.138 1223.81 L490.898 1223.81 Q490.313 1223.81 490.078 1223.78 Q489.868 1223.76 489.704 1223.64 Q489.563 1223.5 489.563 1223.22 Q489.563 1222.78 489.751 1222.59 Q489.938 1222.38 490.172 1222.35 Q490.43 1222.31 491.015 1222.31 L495.512 1222.31 L497.386 1214.7 Q497.574 1213.95 498.042 1213.52 Q498.534 1213.08 498.815 1213.03 Q499.096 1212.96 499.307 1212.96 Q499.939 1212.96 500.314 1213.31 Q500.689 1213.64 500.689 1214.25 Q500.689 1214.58 498.721 1222.31 L502.937 1222.31 Q503.476 1222.31 503.687 1222.33 Q503.921 1222.35 504.109 1222.47 Q504.296 1222.59 504.296 1222.85 Z" fill="#000000" fill-rule="nonzero" fill-opacity="1" /><path clip-path="url(#clip080)" d="M508.047 1254.51 Q508.047 1254.28 508.656 1253.69 Q516.385 1245.82 516.385 1231 Q516.385 1216.12 508.961 1208.61 Q508.047 1207.74 508.047 1207.48 Q508.047 1207.01 508.516 1207.01 Q508.843 1207.01 509.991 1207.97 Q511.162 1208.93 512.919 1211.13 Q514.699 1213.34 516.011 1216.03 Q519.173 1222.57 519.173 1231 Q519.173 1239.1 516.151 1245.64 Q514.863 1248.38 513.059 1250.67 Q511.256 1252.97 510.061 1253.97 Q508.867 1254.98 508.516 1254.98 Q508.047 1254.98 508.047 1254.51 Z" fill="#000000" fill-rule="nonzero" fill-opacity="1" /><polyline clip-path="url(#clip080)" style="stroke:#e26f46; stroke-linecap:round; stroke-linejoin:round; stroke-width:4; stroke-opacity:1; fill:none" points="275.484,1282.95 420.41,1282.95 "/>
<path clip-path="url(#clip080)" d="M466.698 1275.46 Q466.698 1275.79 466.488 1276.56 L461.897 1294.88 Q460.89 1298.95 457.611 1301.81 Q454.355 1304.67 450.654 1304.67 Q448.429 1304.67 447 1303.47 Q445.571 1302.3 445.571 1300.5 Q445.571 1298.9 446.415 1298.13 Q447.258 1297.38 448.265 1297.38 Q448.593 1297.38 448.944 1297.48 Q449.296 1297.57 449.67 1297.97 Q450.045 1298.37 450.045 1299.05 Q450.045 1300.15 449.085 1301.01 Q448.616 1301.41 448.171 1301.5 Q447.75 1301.6 447.024 1301.6 Q447.305 1302.25 447.82 1302.7 Q448.335 1303.14 448.921 1303.31 Q449.506 1303.5 449.881 1303.54 Q450.279 1303.61 450.654 1303.61 Q453.652 1303.61 455.948 1300.59 Q456.627 1299.68 457.119 1298.76 Q457.634 1297.87 458.009 1296.77 Q458.383 1295.7 458.547 1295.11 Q458.735 1294.52 459.063 1293.19 Q456.884 1295.37 454.214 1295.37 Q453.09 1295.37 452.083 1295.06 Q451.099 1294.76 450.232 1294.13 Q449.366 1293.47 448.851 1292.32 Q448.359 1291.18 448.359 1289.65 Q448.359 1288.04 448.991 1285.84 Q449.623 1283.63 451.146 1279.58 Q451.966 1277.31 451.966 1276.21 Q451.966 1275.67 451.849 1275.34 Q451.731 1274.99 451.497 1274.87 Q451.263 1274.73 451.122 1274.71 Q451.005 1274.69 450.771 1274.69 Q449.389 1274.69 448.101 1276.09 Q446.813 1277.5 445.923 1280.64 Q445.735 1281.22 445.618 1281.36 Q445.501 1281.5 445.15 1281.5 Q444.564 1281.48 444.564 1281.01 Q444.564 1280.82 444.775 1280.1 Q444.986 1279.35 445.478 1278.25 Q445.993 1277.12 446.696 1276.11 Q447.398 1275.08 448.499 1274.36 Q449.623 1273.63 450.912 1273.63 Q452.668 1273.63 453.746 1274.78 Q454.847 1275.9 454.847 1277.57 Q454.847 1278.25 454.659 1278.86 Q454.495 1279.44 453.886 1281.01 Q451.427 1287.33 451.427 1290.43 Q451.427 1291.18 451.544 1291.81 Q451.685 1292.42 451.989 1293.03 Q452.294 1293.61 452.903 1293.96 Q453.535 1294.29 454.402 1294.29 Q455.502 1294.29 456.533 1293.78 Q457.587 1293.24 458.243 1292.51 Q458.922 1291.78 459.32 1291.18 Q459.742 1290.54 459.836 1290.22 L461.991 1281.6 L462.951 1277.75 Q463.396 1275.67 463.607 1275.15 Q463.888 1274.66 464.38 1274.41 Q464.871 1274.15 465.293 1274.15 Q465.879 1274.15 466.277 1274.5 Q466.698 1274.85 466.698 1275.46 Z" fill="#000000" fill-rule="nonzero" fill-opacity="1" /><path clip-path="url(#clip080)" d="M473.203 1282.84 Q473.203 1274.73 476.225 1268.2 Q477.513 1265.46 479.316 1263.16 Q481.12 1260.87 482.314 1259.86 Q483.509 1258.85 483.837 1258.85 Q484.305 1258.85 484.329 1259.32 Q484.329 1259.56 483.696 1260.14 Q475.967 1268.01 475.99 1282.84 Q475.99 1297.71 483.509 1305.28 Q484.329 1306.1 484.329 1306.35 Q484.329 1306.82 483.837 1306.82 Q483.509 1306.82 482.361 1305.86 Q481.214 1304.9 479.434 1302.7 Q477.653 1300.5 476.365 1297.8 Q473.203 1291.27 473.203 1282.84 Z" fill="#000000" fill-rule="nonzero" fill-opacity="1" /><path clip-path="url(#clip080)" d="M502.703 1274.69 Q502.703 1275.34 502.399 1275.51 Q502.094 1275.65 501.251 1275.65 L496.754 1275.65 L493.194 1289.79 Q492.913 1291.03 492.913 1292.09 Q492.913 1293.26 493.264 1293.78 Q493.639 1294.29 494.412 1294.29 Q495.934 1294.29 497.574 1292.91 Q499.237 1291.53 500.642 1288.15 Q500.83 1287.71 500.923 1287.62 Q501.04 1287.5 501.345 1287.5 Q501.93 1287.5 501.93 1287.97 Q501.93 1288.13 501.603 1288.88 Q501.298 1289.63 500.619 1290.73 Q499.963 1291.83 499.096 1292.86 Q498.253 1293.89 496.965 1294.64 Q495.677 1295.37 494.295 1295.37 Q492.351 1295.37 491.109 1294.13 Q489.891 1292.89 489.891 1290.94 Q489.891 1290.31 490.383 1288.29 Q490.875 1286.26 493.545 1275.65 L489.306 1275.65 Q488.72 1275.65 488.486 1275.62 Q488.275 1275.6 488.111 1275.48 Q487.971 1275.34 487.971 1275.06 Q487.971 1274.62 488.158 1274.43 Q488.345 1274.22 488.58 1274.19 Q488.837 1274.15 489.423 1274.15 L493.92 1274.15 L495.794 1266.54 Q495.981 1265.79 496.45 1265.36 Q496.941 1264.92 497.223 1264.87 Q497.504 1264.8 497.714 1264.8 Q498.347 1264.8 498.722 1265.15 Q499.096 1265.48 499.096 1266.09 Q499.096 1266.42 497.129 1274.15 L501.345 1274.15 Q501.884 1274.15 502.094 1274.17 Q502.329 1274.19 502.516 1274.31 Q502.703 1274.43 502.703 1274.69 Z" fill="#000000" fill-rule="nonzero" fill-opacity="1" /><path clip-path="url(#clip080)" d="M506.455 1306.35 Q506.455 1306.12 507.064 1305.53 Q514.793 1297.66 514.793 1282.84 Q514.793 1267.96 507.368 1260.45 Q506.455 1259.58 506.455 1259.32 Q506.455 1258.85 506.923 1258.85 Q507.251 1258.85 508.399 1259.81 Q509.57 1260.77 511.326 1262.97 Q513.107 1265.18 514.418 1267.87 Q517.58 1274.41 517.58 1282.84 Q517.58 1290.94 514.559 1297.48 Q513.271 1300.22 511.467 1302.51 Q509.663 1304.81 508.469 1305.81 Q507.274 1306.82 506.923 1306.82 Q506.455 1306.82 506.455 1306.35 Z" fill="#000000" fill-rule="nonzero" fill-opacity="1" /><polyline clip-path="url(#clip080)" style="stroke:#3da44d; stroke-linecap:round; stroke-linejoin:round; stroke-width:4; stroke-opacity:1; fill:none" points="275.484,1334.79 420.41,1334.79 "/>
<path clip-path="url(#clip080)" d="M465.621 1328.82 Q465.621 1329.43 465.457 1330.63 Q465.293 1331.82 464.895 1333.55 Q464.497 1335.29 463.911 1337.11 Q463.349 1338.94 462.459 1340.77 Q461.569 1342.57 460.515 1344 Q459.461 1345.43 457.985 1346.32 Q456.51 1347.21 454.847 1347.21 Q454.074 1347.21 453.324 1347.09 Q452.575 1346.97 451.638 1346.6 Q450.701 1346.22 450.022 1345.62 Q449.342 1344.98 448.874 1343.86 Q448.405 1342.73 448.405 1341.26 Q448.405 1339.74 448.968 1337.7 Q449.553 1335.64 451.146 1331.42 Q451.966 1329.24 451.966 1328.05 Q451.966 1327.51 451.849 1327.18 Q451.731 1326.83 451.497 1326.71 Q451.263 1326.57 451.122 1326.55 Q451.005 1326.53 450.771 1326.53 Q449.483 1326.53 448.171 1327.86 Q446.86 1329.2 445.923 1332.48 Q445.735 1333.06 445.618 1333.2 Q445.501 1333.34 445.15 1333.34 Q444.564 1333.32 444.564 1332.85 Q444.564 1332.71 444.728 1332.17 Q444.892 1331.61 445.197 1330.77 Q445.501 1329.9 446.04 1329.01 Q446.579 1328.1 447.234 1327.3 Q447.914 1326.5 448.874 1325.99 Q449.834 1325.47 450.912 1325.47 Q452.668 1325.47 453.746 1326.62 Q454.847 1327.74 454.847 1329.41 Q454.847 1330.32 454.261 1331.8 Q453.277 1334.47 452.832 1335.75 Q452.387 1337.04 451.919 1338.87 Q451.474 1340.7 451.474 1341.96 Q451.474 1343.88 452.364 1345.01 Q453.254 1346.13 455.034 1346.13 Q456.627 1346.13 458.056 1344.98 Q459.508 1343.81 460.468 1342.15 Q461.428 1340.46 462.154 1338.59 Q462.881 1336.69 463.208 1335.26 Q463.56 1333.81 463.56 1333.13 Q463.56 1330.77 461.944 1329.22 Q461.499 1328.77 461.335 1328.49 Q461.171 1328.21 461.171 1327.77 Q461.171 1326.95 461.897 1326.22 Q462.646 1325.47 463.513 1325.47 Q464.309 1325.47 464.965 1326.27 Q465.621 1327.06 465.621 1328.82 Z" fill="#000000" fill-rule="nonzero" fill-opacity="1" /><path clip-path="url(#clip080)" d="M487.252 1343.39 Q487.252 1344.31 486.678 1344.83 Q486.104 1345.34 485.448 1345.34 Q484.825 1345.34 484.497 1344.98 Q484.169 1344.62 484.169 1344.16 Q484.169 1343.54 484.628 1343 Q485.087 1342.45 485.776 1342.34 Q485.104 1341.91 484.104 1341.91 Q483.448 1341.91 482.874 1342.26 Q482.316 1342.6 481.972 1343.05 Q481.644 1343.49 481.349 1344.13 Q481.07 1344.75 480.956 1345.13 Q480.857 1345.49 480.775 1345.88 L479.628 1350.47 Q479.07 1352.65 479.07 1353.42 Q479.07 1354.37 479.529 1355.01 Q479.988 1355.64 480.906 1355.64 Q481.267 1355.64 481.677 1355.54 Q482.087 1355.42 482.612 1355.13 Q483.153 1354.82 483.628 1354.36 Q484.12 1353.88 484.595 1353.08 Q485.071 1352.28 485.382 1351.24 Q485.481 1350.88 485.809 1350.88 Q486.219 1350.88 486.219 1351.21 Q486.219 1351.49 485.989 1352.08 Q485.776 1352.65 485.3 1353.41 Q484.841 1354.14 484.235 1354.82 Q483.628 1355.47 482.726 1355.93 Q481.825 1356.39 480.841 1356.39 Q479.431 1356.39 478.496 1355.64 Q477.562 1354.88 477.217 1353.83 Q477.135 1353.98 477.021 1354.18 Q476.906 1354.37 476.562 1354.82 Q476.234 1355.24 475.857 1355.57 Q475.479 1355.88 474.889 1356.13 Q474.315 1356.39 473.692 1356.39 Q472.905 1356.39 472.2 1356.16 Q471.512 1355.93 471.02 1355.41 Q470.528 1354.88 470.528 1354.16 Q470.528 1353.36 471.069 1352.8 Q471.626 1352.23 472.381 1352.23 Q472.856 1352.23 473.233 1352.51 Q473.627 1352.78 473.627 1353.39 Q473.627 1354.06 473.168 1354.57 Q472.709 1355.08 472.053 1355.21 Q472.725 1355.64 473.725 1355.64 Q474.807 1355.64 475.66 1354.69 Q476.512 1353.74 476.922 1352.14 Q477.939 1348.32 478.332 1346.62 Q478.726 1344.9 478.726 1344.16 Q478.726 1343.47 478.545 1343 Q478.365 1342.52 478.054 1342.31 Q477.758 1342.08 477.48 1342 Q477.217 1341.91 476.922 1341.91 Q476.43 1341.91 475.873 1342.11 Q475.332 1342.31 474.676 1342.77 Q474.037 1343.21 473.43 1344.13 Q472.823 1345.05 472.413 1346.31 Q472.331 1346.68 471.971 1346.68 Q471.577 1346.67 471.577 1346.34 Q471.577 1346.06 471.79 1345.49 Q472.02 1344.9 472.479 1344.16 Q472.955 1343.42 473.561 1342.77 Q474.184 1342.09 475.086 1341.64 Q476.004 1341.18 476.988 1341.18 Q477.431 1341.18 477.857 1341.27 Q478.3 1341.36 478.824 1341.6 Q479.365 1341.85 479.841 1342.39 Q480.316 1342.93 480.611 1343.72 Q480.808 1343.34 481.07 1342.98 Q481.349 1342.62 481.775 1342.18 Q482.218 1341.72 482.825 1341.45 Q483.448 1341.18 484.136 1341.18 Q484.809 1341.18 485.464 1341.36 Q486.12 1341.52 486.678 1342.06 Q487.252 1342.59 487.252 1343.39 Z" fill="#000000" fill-rule="nonzero" fill-opacity="1" /><path clip-path="url(#clip080)" d="M492.207 1334.68 Q492.207 1326.57 495.229 1320.04 Q496.517 1317.3 498.321 1315 Q500.124 1312.71 501.319 1311.7 Q502.513 1310.69 502.841 1310.69 Q503.31 1310.69 503.333 1311.16 Q503.333 1311.4 502.701 1311.98 Q494.971 1319.85 494.995 1334.68 Q494.995 1349.55 502.513 1357.12 Q503.333 1357.94 503.333 1358.19 Q503.333 1358.66 502.841 1358.66 Q502.513 1358.66 501.366 1357.7 Q500.218 1356.74 498.438 1354.54 Q496.658 1352.34 495.369 1349.64 Q492.207 1343.11 492.207 1334.68 Z" fill="#000000" fill-rule="nonzero" fill-opacity="1" /><path clip-path="url(#clip080)" d="M521.708 1326.53 Q521.708 1327.18 521.403 1327.35 Q521.099 1327.49 520.255 1327.49 L515.758 1327.49 L512.198 1341.63 Q511.917 1342.87 511.917 1343.93 Q511.917 1345.1 512.268 1345.62 Q512.643 1346.13 513.416 1346.13 Q514.938 1346.13 516.578 1344.75 Q518.241 1343.37 519.646 1339.99 Q519.834 1339.55 519.927 1339.46 Q520.045 1339.34 520.349 1339.34 Q520.935 1339.34 520.935 1339.81 Q520.935 1339.97 520.607 1340.72 Q520.302 1341.47 519.623 1342.57 Q518.967 1343.67 518.101 1344.7 Q517.257 1345.73 515.969 1346.48 Q514.681 1347.21 513.299 1347.21 Q511.355 1347.21 510.113 1345.97 Q508.896 1344.73 508.896 1342.78 Q508.896 1342.15 509.387 1340.13 Q509.879 1338.1 512.549 1327.49 L508.31 1327.49 Q507.724 1327.49 507.49 1327.46 Q507.279 1327.44 507.115 1327.32 Q506.975 1327.18 506.975 1326.9 Q506.975 1326.46 507.162 1326.27 Q507.35 1326.06 507.584 1326.03 Q507.841 1325.99 508.427 1325.99 L512.924 1325.99 L514.798 1318.38 Q514.985 1317.63 515.454 1317.2 Q515.946 1316.76 516.227 1316.71 Q516.508 1316.64 516.719 1316.64 Q517.351 1316.64 517.726 1316.99 Q518.101 1317.32 518.101 1317.93 Q518.101 1318.26 516.133 1325.99 L520.349 1325.99 Q520.888 1325.99 521.099 1326.01 Q521.333 1326.03 521.52 1326.15 Q521.708 1326.27 521.708 1326.53 Z" fill="#000000" fill-rule="nonzero" fill-opacity="1" /><path clip-path="url(#clip080)" d="M525.459 1358.19 Q525.459 1357.96 526.068 1357.37 Q533.797 1349.5 533.797 1334.68 Q533.797 1319.8 526.372 1312.29 Q525.459 1311.42 525.459 1311.16 Q525.459 1310.69 525.927 1310.69 Q526.255 1310.69 527.403 1311.65 Q528.574 1312.61 530.331 1314.81 Q532.111 1317.02 533.422 1319.71 Q536.584 1326.25 536.584 1334.68 Q536.584 1342.78 533.563 1349.32 Q532.275 1352.06 530.471 1354.35 Q528.668 1356.65 527.473 1357.65 Q526.279 1358.66 525.927 1358.66 Q525.459 1358.66 525.459 1358.19 Z" fill="#000000" fill-rule="nonzero" fill-opacity="1" /><polyline clip-path="url(#clip080)" style="stroke:#c271d2; stroke-linecap:round; stroke-linejoin:round; stroke-width:4; stroke-opacity:1; fill:none" points="275.484,1386.63 420.41,1386.63 "/>
<path clip-path="url(#clip080)" d="M465.621 1378.52 Q465.621 1379.13 465.457 1380.32 Q465.293 1381.52 464.895 1383.25 Q464.497 1384.98 463.911 1386.81 Q463.349 1388.64 462.459 1390.47 Q461.569 1392.27 460.515 1393.7 Q459.461 1395.13 457.985 1396.02 Q456.51 1396.91 454.847 1396.91 Q454.074 1396.91 453.324 1396.79 Q452.575 1396.67 451.638 1396.3 Q450.701 1395.92 450.022 1395.31 Q449.342 1394.68 448.874 1393.56 Q448.405 1392.43 448.405 1390.96 Q448.405 1389.43 448.968 1387.4 Q449.553 1385.34 451.146 1381.12 Q451.966 1378.94 451.966 1377.75 Q451.966 1377.21 451.849 1376.88 Q451.731 1376.53 451.497 1376.41 Q451.263 1376.27 451.122 1376.25 Q451.005 1376.22 450.771 1376.22 Q449.483 1376.22 448.171 1377.56 Q446.86 1378.89 445.923 1382.17 Q445.735 1382.76 445.618 1382.9 Q445.501 1383.04 445.15 1383.04 Q444.564 1383.02 444.564 1382.55 Q444.564 1382.41 444.728 1381.87 Q444.892 1381.31 445.197 1380.46 Q445.501 1379.6 446.04 1378.71 Q446.579 1377.79 447.234 1377 Q447.914 1376.2 448.874 1375.69 Q449.834 1375.17 450.912 1375.17 Q452.668 1375.17 453.746 1376.32 Q454.847 1377.44 454.847 1379.11 Q454.847 1380.02 454.261 1381.49 Q453.277 1384.16 452.832 1385.45 Q452.387 1386.74 451.919 1388.57 Q451.474 1390.39 451.474 1391.66 Q451.474 1393.58 452.364 1394.7 Q453.254 1395.83 455.034 1395.83 Q456.627 1395.83 458.056 1394.68 Q459.508 1393.51 460.468 1391.85 Q461.428 1390.16 462.154 1388.29 Q462.881 1386.39 463.208 1384.96 Q463.56 1383.51 463.56 1382.83 Q463.56 1380.46 461.944 1378.92 Q461.499 1378.47 461.335 1378.19 Q461.171 1377.91 461.171 1377.47 Q461.171 1376.65 461.897 1375.92 Q462.646 1375.17 463.513 1375.17 Q464.309 1375.17 464.965 1375.97 Q465.621 1376.76 465.621 1378.52 Z" fill="#000000" fill-rule="nonzero" fill-opacity="1" /><path clip-path="url(#clip080)" d="M486.022 1392.15 Q486.022 1392.38 485.874 1392.92 L482.661 1405.75 Q481.956 1408.6 479.66 1410.6 Q477.381 1412.6 474.791 1412.6 Q473.233 1412.6 472.233 1411.76 Q471.233 1410.94 471.233 1409.68 Q471.233 1408.57 471.823 1408.02 Q472.413 1407.5 473.118 1407.5 Q473.348 1407.5 473.594 1407.56 Q473.84 1407.63 474.102 1407.91 Q474.365 1408.19 474.365 1408.66 Q474.365 1409.43 473.692 1410.04 Q473.364 1410.32 473.053 1410.39 Q472.758 1410.45 472.25 1410.45 Q472.446 1410.91 472.807 1411.22 Q473.168 1411.53 473.578 1411.65 Q473.987 1411.78 474.25 1411.81 Q474.529 1411.86 474.791 1411.86 Q476.889 1411.86 478.496 1409.75 Q478.972 1409.11 479.316 1408.47 Q479.677 1407.84 479.939 1407.07 Q480.201 1406.32 480.316 1405.91 Q480.447 1405.5 480.677 1404.56 Q479.152 1406.09 477.283 1406.09 Q476.496 1406.09 475.791 1405.88 Q475.102 1405.66 474.496 1405.22 Q473.889 1404.76 473.528 1403.96 Q473.184 1403.15 473.184 1402.09 Q473.184 1400.96 473.627 1399.42 Q474.069 1397.88 475.135 1395.04 Q475.709 1393.45 475.709 1392.68 Q475.709 1392.3 475.627 1392.07 Q475.545 1391.83 475.381 1391.74 Q475.217 1391.64 475.119 1391.63 Q475.037 1391.61 474.873 1391.61 Q473.905 1391.61 473.004 1392.6 Q472.102 1393.58 471.479 1395.78 Q471.348 1396.19 471.266 1396.28 Q471.184 1396.38 470.938 1396.38 Q470.528 1396.37 470.528 1396.04 Q470.528 1395.91 470.676 1395.4 Q470.823 1394.87 471.167 1394.1 Q471.528 1393.32 472.02 1392.61 Q472.512 1391.89 473.282 1391.38 Q474.069 1390.87 474.971 1390.87 Q476.201 1390.87 476.955 1391.68 Q477.726 1392.46 477.726 1393.63 Q477.726 1394.1 477.595 1394.53 Q477.48 1394.94 477.053 1396.04 Q475.332 1400.47 475.332 1402.63 Q475.332 1403.15 475.414 1403.6 Q475.512 1404.02 475.725 1404.45 Q475.939 1404.86 476.365 1405.11 Q476.808 1405.34 477.414 1405.34 Q478.185 1405.34 478.906 1404.97 Q479.644 1404.6 480.103 1404.09 Q480.579 1403.58 480.857 1403.15 Q481.152 1402.71 481.218 1402.48 L482.726 1396.45 L483.399 1393.76 Q483.71 1392.3 483.858 1391.94 Q484.054 1391.6 484.399 1391.42 Q484.743 1391.23 485.038 1391.23 Q485.448 1391.23 485.727 1391.48 Q486.022 1391.73 486.022 1392.15 Z" fill="#000000" fill-rule="nonzero" fill-opacity="1" /><path clip-path="url(#clip080)" d="M490.982 1384.38 Q490.982 1376.27 494.004 1369.74 Q495.292 1367 497.096 1364.7 Q498.899 1362.4 500.094 1361.4 Q501.288 1360.39 501.616 1360.39 Q502.085 1360.39 502.108 1360.86 Q502.108 1361.09 501.476 1361.68 Q493.746 1369.55 493.77 1384.38 Q493.77 1399.25 501.288 1406.81 Q502.108 1407.63 502.108 1407.89 Q502.108 1408.36 501.616 1408.36 Q501.288 1408.36 500.141 1407.4 Q498.993 1406.44 497.213 1404.24 Q495.433 1402.04 494.144 1399.34 Q490.982 1392.81 490.982 1384.38 Z" fill="#000000" fill-rule="nonzero" fill-opacity="1" /><path clip-path="url(#clip080)" d="M520.483 1376.22 Q520.483 1376.88 520.178 1377.04 Q519.874 1377.18 519.03 1377.18 L514.533 1377.18 L510.973 1391.33 Q510.692 1392.57 510.692 1393.63 Q510.692 1394.8 511.043 1395.31 Q511.418 1395.83 512.191 1395.83 Q513.713 1395.83 515.353 1394.45 Q517.016 1393.06 518.421 1389.69 Q518.609 1389.25 518.702 1389.15 Q518.82 1389.04 519.124 1389.04 Q519.71 1389.04 519.71 1389.5 Q519.71 1389.67 519.382 1390.42 Q519.077 1391.17 518.398 1392.27 Q517.742 1393.37 516.876 1394.4 Q516.032 1395.43 514.744 1396.18 Q513.456 1396.91 512.074 1396.91 Q510.13 1396.91 508.888 1395.66 Q507.671 1394.42 507.671 1392.48 Q507.671 1391.85 508.162 1389.83 Q508.654 1387.79 511.324 1377.18 L507.085 1377.18 Q506.499 1377.18 506.265 1377.16 Q506.054 1377.14 505.89 1377.02 Q505.75 1376.88 505.75 1376.6 Q505.75 1376.15 505.937 1375.97 Q506.125 1375.76 506.359 1375.73 Q506.616 1375.69 507.202 1375.69 L511.699 1375.69 L513.573 1368.07 Q513.76 1367.32 514.229 1366.9 Q514.721 1366.46 515.002 1366.41 Q515.283 1366.34 515.494 1366.34 Q516.126 1366.34 516.501 1366.69 Q516.876 1367.02 516.876 1367.63 Q516.876 1367.96 514.908 1375.69 L519.124 1375.69 Q519.663 1375.69 519.874 1375.71 Q520.108 1375.73 520.295 1375.85 Q520.483 1375.97 520.483 1376.22 Z" fill="#000000" fill-rule="nonzero" fill-opacity="1" /><path clip-path="url(#clip080)" d="M524.234 1407.89 Q524.234 1407.66 524.843 1407.07 Q532.572 1399.2 532.572 1384.38 Q532.572 1369.5 525.147 1361.98 Q524.234 1361.12 524.234 1360.86 Q524.234 1360.39 524.702 1360.39 Q525.03 1360.39 526.178 1361.35 Q527.349 1362.31 529.106 1364.51 Q530.886 1366.71 532.197 1369.41 Q535.359 1375.94 535.359 1384.38 Q535.359 1392.48 532.338 1399.01 Q531.05 1401.75 529.246 1404.05 Q527.443 1406.35 526.248 1407.35 Q525.054 1408.36 524.702 1408.36 Q524.234 1408.36 524.234 1407.89 Z" fill="#000000" fill-rule="nonzero" fill-opacity="1" /></svg>
