<?xml version="1.0" encoding="utf-8"?>
<svg xmlns="http://www.w3.org/2000/svg" xmlns:xlink="http://www.w3.org/1999/xlink" width="600" height="400" viewBox="0 0 2400 1600">
<defs>
  <clipPath id="clip260">
    <rect x="0" y="0" width="2400" height="1600"/>
  </clipPath>
</defs>
<path clip-path="url(#clip260)" d="M0 1600 L2400 1600 L2400 0 L0 0  Z" fill="#ffffff" fill-rule="evenodd" fill-opacity="1"/>
<defs>
  <clipPath id="clip261">
    <rect x="480" y="0" width="1681" height="1600"/>
  </clipPath>
</defs>
<path clip-path="url(#clip260)" d="M178.867 1423.18 L2352.76 1423.18 L2352.76 47.2441 L178.867 47.2441  Z" fill="#ffffff" fill-rule="evenodd" fill-opacity="1"/>
<defs>
  <clipPath id="clip262">
    <rect x="178" y="47" width="2175" height="1377"/>
  </clipPath>
</defs>
<polyline clip-path="url(#clip262)" style="stroke:#000000; stroke-linecap:round; stroke-linejoin:round; stroke-width:2; stroke-opacity:0.1; fill:none" points="240.392,1423.18 240.392,47.2441 "/>
<polyline clip-path="url(#clip262)" style="stroke:#000000; stroke-linecap:round; stroke-linejoin:round; stroke-width:2; stroke-opacity:0.1; fill:none" points="650.56,1423.18 650.56,47.2441 "/>
<polyline clip-path="url(#clip262)" style="stroke:#000000; stroke-linecap:round; stroke-linejoin:round; stroke-width:2; stroke-opacity:0.1; fill:none" points="1060.73,1423.18 1060.73,47.2441 "/>
<polyline clip-path="url(#clip262)" style="stroke:#000000; stroke-linecap:round; stroke-linejoin:round; stroke-width:2; stroke-opacity:0.1; fill:none" points="1470.9,1423.18 1470.9,47.2441 "/>
<polyline clip-path="url(#clip262)" style="stroke:#000000; stroke-linecap:round; stroke-linejoin:round; stroke-width:2; stroke-opacity:0.1; fill:none" points="1881.06,1423.18 1881.06,47.2441 "/>
<polyline clip-path="url(#clip262)" style="stroke:#000000; stroke-linecap:round; stroke-linejoin:round; stroke-width:2; stroke-opacity:0.1; fill:none" points="2291.23,1423.18 2291.23,47.2441 "/>
<polyline clip-path="url(#clip262)" style="stroke:#000000; stroke-linecap:round; stroke-linejoin:round; stroke-width:2; stroke-opacity:0.1; fill:none" points="178.867,1282.87 2352.76,1282.87 "/>
<polyline clip-path="url(#clip262)" style="stroke:#000000; stroke-linecap:round; stroke-linejoin:round; stroke-width:2; stroke-opacity:0.1; fill:none" points="178.867,983.699 2352.76,983.699 "/>
<polyline clip-path="url(#clip262)" style="stroke:#000000; stroke-linecap:round; stroke-linejoin:round; stroke-width:2; stroke-opacity:0.1; fill:none" points="178.867,684.528 2352.76,684.528 "/>
<polyline clip-path="url(#clip262)" style="stroke:#000000; stroke-linecap:round; stroke-linejoin:round; stroke-width:2; stroke-opacity:0.1; fill:none" points="178.867,385.357 2352.76,385.357 "/>
<polyline clip-path="url(#clip262)" style="stroke:#000000; stroke-linecap:round; stroke-linejoin:round; stroke-width:2; stroke-opacity:0.1; fill:none" points="178.867,86.1857 2352.76,86.1857 "/>
<polyline clip-path="url(#clip260)" style="stroke:#000000; stroke-linecap:round; stroke-linejoin:round; stroke-width:4; stroke-opacity:1; fill:none" points="178.867,1423.18 2352.76,1423.18 "/>
<polyline clip-path="url(#clip260)" style="stroke:#000000; stroke-linecap:round; stroke-linejoin:round; stroke-width:4; stroke-opacity:1; fill:none" points="240.392,1423.18 240.392,1404.28 "/>
<polyline clip-path="url(#clip260)" style="stroke:#000000; stroke-linecap:round; stroke-linejoin:round; stroke-width:4; stroke-opacity:1; fill:none" points="650.56,1423.18 650.56,1404.28 "/>
<polyline clip-path="url(#clip260)" style="stroke:#000000; stroke-linecap:round; stroke-linejoin:round; stroke-width:4; stroke-opacity:1; fill:none" points="1060.73,1423.18 1060.73,1404.28 "/>
<polyline clip-path="url(#clip260)" style="stroke:#000000; stroke-linecap:round; stroke-linejoin:round; stroke-width:4; stroke-opacity:1; fill:none" points="1470.9,1423.18 1470.9,1404.28 "/>
<polyline clip-path="url(#clip260)" style="stroke:#000000; stroke-linecap:round; stroke-linejoin:round; stroke-width:4; stroke-opacity:1; fill:none" points="1881.06,1423.18 1881.06,1404.28 "/>
<polyline clip-path="url(#clip260)" style="stroke:#000000; stroke-linecap:round; stroke-linejoin:round; stroke-width:4; stroke-opacity:1; fill:none" points="2291.23,1423.18 2291.23,1404.28 "/>
<path clip-path="url(#clip260)" d="M240.392 1454.1 Q236.781 1454.1 234.952 1457.66 Q233.146 1461.2 233.146 1468.33 Q233.146 1475.44 234.952 1479.01 Q236.781 1482.55 240.392 1482.55 Q244.026 1482.55 245.832 1479.01 Q247.66 1475.44 247.66 1468.33 Q247.66 1461.2 245.832 1457.66 Q244.026 1454.1 240.392 1454.1 M240.392 1450.39 Q246.202 1450.39 249.257 1455 Q252.336 1459.58 252.336 1468.33 Q252.336 1477.06 249.257 1481.67 Q246.202 1486.25 240.392 1486.25 Q234.582 1486.25 231.503 1481.67 Q228.447 1477.06 228.447 1468.33 Q228.447 1459.58 231.503 1455 Q234.582 1450.39 240.392 1450.39 Z" fill="#000000" fill-rule="nonzero" fill-opacity="1" /><path clip-path="url(#clip260)" d="M640.942 1481.64 L648.58 1481.64 L648.58 1455.28 L640.27 1456.95 L640.27 1452.69 L648.534 1451.02 L653.21 1451.02 L653.21 1481.64 L660.849 1481.64 L660.849 1485.58 L640.942 1485.58 L640.942 1481.64 Z" fill="#000000" fill-rule="nonzero" fill-opacity="1" /><path clip-path="url(#clip260)" d="M1055.38 1481.64 L1071.7 1481.64 L1071.7 1485.58 L1049.76 1485.58 L1049.76 1481.64 Q1052.42 1478.89 1057 1474.26 Q1061.61 1469.61 1062.79 1468.27 Q1065.03 1465.74 1065.91 1464.01 Q1066.82 1462.25 1066.82 1460.56 Q1066.82 1457.8 1064.87 1456.07 Q1062.95 1454.33 1059.85 1454.33 Q1057.65 1454.33 1055.19 1455.09 Q1052.76 1455.86 1049.99 1457.41 L1049.99 1452.69 Q1052.81 1451.55 1055.26 1450.97 Q1057.72 1450.39 1059.76 1450.39 Q1065.13 1450.39 1068.32 1453.08 Q1071.51 1455.77 1071.51 1460.26 Q1071.51 1462.39 1070.7 1464.31 Q1069.92 1466.2 1067.81 1468.8 Q1067.23 1469.47 1064.13 1472.69 Q1061.03 1475.88 1055.38 1481.64 Z" fill="#000000" fill-rule="nonzero" fill-opacity="1" /><path clip-path="url(#clip260)" d="M1475.14 1466.95 Q1478.5 1467.66 1480.37 1469.93 Q1482.27 1472.2 1482.27 1475.53 Q1482.27 1480.65 1478.75 1483.45 Q1475.24 1486.25 1468.75 1486.25 Q1466.58 1486.25 1464.26 1485.81 Q1461.97 1485.39 1459.52 1484.54 L1459.52 1480.02 Q1461.46 1481.16 1463.78 1481.74 Q1466.09 1482.32 1468.62 1482.32 Q1473.01 1482.32 1475.3 1480.58 Q1477.62 1478.84 1477.62 1475.53 Q1477.62 1472.48 1475.47 1470.77 Q1473.34 1469.03 1469.52 1469.03 L1465.49 1469.03 L1465.49 1465.19 L1469.7 1465.19 Q1473.15 1465.19 1474.98 1463.82 Q1476.81 1462.43 1476.81 1459.84 Q1476.81 1457.18 1474.91 1455.77 Q1473.04 1454.33 1469.52 1454.33 Q1467.6 1454.33 1465.4 1454.75 Q1463.2 1455.16 1460.56 1456.04 L1460.56 1451.88 Q1463.22 1451.14 1465.54 1450.77 Q1467.87 1450.39 1469.93 1450.39 Q1475.26 1450.39 1478.36 1452.83 Q1481.46 1455.23 1481.46 1459.35 Q1481.46 1462.22 1479.82 1464.21 Q1478.18 1466.18 1475.14 1466.95 Z" fill="#000000" fill-rule="nonzero" fill-opacity="1" /><path clip-path="url(#clip260)" d="M1884.07 1455.09 L1872.27 1473.54 L1884.07 1473.54 L1884.07 1455.09 M1882.85 1451.02 L1888.72 1451.02 L1888.72 1473.54 L1893.66 1473.54 L1893.66 1477.43 L1888.72 1477.43 L1888.72 1485.58 L1884.07 1485.58 L1884.07 1477.43 L1868.47 1477.43 L1868.47 1472.92 L1882.85 1451.02 Z" fill="#000000" fill-rule="nonzero" fill-opacity="1" /><path clip-path="url(#clip260)" d="M2281.51 1451.02 L2299.86 1451.02 L2299.86 1454.96 L2285.79 1454.96 L2285.79 1463.43 Q2286.81 1463.08 2287.83 1462.92 Q2288.85 1462.73 2289.87 1462.73 Q2295.65 1462.73 2299.03 1465.9 Q2302.41 1469.08 2302.41 1474.49 Q2302.41 1480.07 2298.94 1483.17 Q2295.47 1486.25 2289.15 1486.25 Q2286.97 1486.25 2284.7 1485.88 Q2282.46 1485.51 2280.05 1484.77 L2280.05 1480.07 Q2282.13 1481.2 2284.36 1481.76 Q2286.58 1482.32 2289.05 1482.32 Q2293.06 1482.32 2295.4 1480.21 Q2297.74 1478.1 2297.74 1474.49 Q2297.74 1470.88 2295.4 1468.77 Q2293.06 1466.67 2289.05 1466.67 Q2287.18 1466.67 2285.3 1467.08 Q2283.45 1467.5 2281.51 1468.38 L2281.51 1451.02 Z" fill="#000000" fill-rule="nonzero" fill-opacity="1" /><path clip-path="url(#clip260)" d="M1274.28 1531.91 Q1274.28 1532.81 1273.86 1533.04 Q1273.44 1533.23 1272.29 1533.23 L1266.1 1533.23 L1261.21 1552.69 Q1260.82 1554.39 1260.82 1555.84 Q1260.82 1557.45 1261.3 1558.16 Q1261.82 1558.87 1262.88 1558.87 Q1264.97 1558.87 1267.23 1556.97 Q1269.52 1555.07 1271.45 1550.43 Q1271.71 1549.82 1271.83 1549.69 Q1272 1549.53 1272.41 1549.53 Q1273.22 1549.53 1273.22 1550.17 Q1273.22 1550.4 1272.77 1551.43 Q1272.35 1552.46 1271.42 1553.97 Q1270.51 1555.49 1269.32 1556.9 Q1268.16 1558.32 1266.39 1559.35 Q1264.62 1560.35 1262.72 1560.35 Q1260.05 1560.35 1258.34 1558.64 Q1256.67 1556.94 1256.67 1554.26 Q1256.67 1553.39 1257.34 1550.62 Q1258.02 1547.82 1261.69 1533.23 L1255.86 1533.23 Q1255.06 1533.23 1254.73 1533.2 Q1254.44 1533.17 1254.22 1533.01 Q1254.02 1532.81 1254.02 1532.43 Q1254.02 1531.82 1254.28 1531.56 Q1254.54 1531.27 1254.86 1531.24 Q1255.22 1531.17 1256.02 1531.17 L1262.21 1531.17 L1264.78 1520.71 Q1265.04 1519.67 1265.68 1519.09 Q1266.36 1518.48 1266.75 1518.42 Q1267.13 1518.32 1267.42 1518.32 Q1268.29 1518.32 1268.81 1518.81 Q1269.32 1519.26 1269.32 1520.09 Q1269.32 1520.54 1266.62 1531.17 L1272.41 1531.17 Q1273.16 1531.17 1273.44 1531.2 Q1273.77 1531.24 1274.02 1531.4 Q1274.28 1531.56 1274.28 1531.91 Z" fill="#000000" fill-rule="nonzero" fill-opacity="1" /><polyline clip-path="url(#clip260)" style="stroke:#000000; stroke-linecap:round; stroke-linejoin:round; stroke-width:4; stroke-opacity:1; fill:none" points="178.867,1423.18 178.867,47.2441 "/>
<polyline clip-path="url(#clip260)" style="stroke:#000000; stroke-linecap:round; stroke-linejoin:round; stroke-width:4; stroke-opacity:1; fill:none" points="178.867,1282.87 197.764,1282.87 "/>
<polyline clip-path="url(#clip260)" style="stroke:#000000; stroke-linecap:round; stroke-linejoin:round; stroke-width:4; stroke-opacity:1; fill:none" points="178.867,983.699 197.764,983.699 "/>
<polyline clip-path="url(#clip260)" style="stroke:#000000; stroke-linecap:round; stroke-linejoin:round; stroke-width:4; stroke-opacity:1; fill:none" points="178.867,684.528 197.764,684.528 "/>
<polyline clip-path="url(#clip260)" style="stroke:#000000; stroke-linecap:round; stroke-linejoin:round; stroke-width:4; stroke-opacity:1; fill:none" points="178.867,385.357 197.764,385.357 "/>
<polyline clip-path="url(#clip260)" style="stroke:#000000; stroke-linecap:round; stroke-linejoin:round; stroke-width:4; stroke-opacity:1; fill:none" points="178.867,86.1857 197.764,86.1857 "/>
<path clip-path="url(#clip260)" d="M50.9921 1283.32 L80.6679 1283.32 L80.6679 1287.26 L50.9921 1287.26 L50.9921 1283.32 Z" fill="#000000" fill-rule="nonzero" fill-opacity="1" /><path clip-path="url(#clip260)" d="M94.7882 1296.21 L111.108 1296.21 L111.108 1300.15 L89.1632 1300.15 L89.1632 1296.21 Q91.8252 1293.46 96.4085 1288.83 Q101.015 1284.18 102.196 1282.84 Q104.441 1280.31 105.321 1278.58 Q106.223 1276.82 106.223 1275.13 Q106.223 1272.37 104.279 1270.64 Q102.358 1268.9 99.2558 1268.9 Q97.0567 1268.9 94.603 1269.66 Q92.1725 1270.43 89.3947 1271.98 L89.3947 1267.26 Q92.2188 1266.12 94.6724 1265.54 Q97.1261 1264.96 99.1632 1264.96 Q104.534 1264.96 107.728 1267.65 Q110.922 1270.34 110.922 1274.83 Q110.922 1276.96 110.112 1278.88 Q109.325 1280.77 107.219 1283.37 Q106.64 1284.04 103.538 1287.26 Q100.436 1290.45 94.7882 1296.21 Z" fill="#000000" fill-rule="nonzero" fill-opacity="1" /><path clip-path="url(#clip260)" d="M130.922 1268.67 Q127.311 1268.67 125.482 1272.23 Q123.677 1275.77 123.677 1282.9 Q123.677 1290.01 125.482 1293.58 Q127.311 1297.12 130.922 1297.12 Q134.556 1297.12 136.362 1293.58 Q138.191 1290.01 138.191 1282.9 Q138.191 1275.77 136.362 1272.23 Q134.556 1268.67 130.922 1268.67 M130.922 1264.96 Q136.732 1264.96 139.788 1269.57 Q142.867 1274.15 142.867 1282.9 Q142.867 1291.63 139.788 1296.24 Q136.732 1300.82 130.922 1300.82 Q125.112 1300.82 122.033 1296.24 Q118.978 1291.63 118.978 1282.9 Q118.978 1274.15 122.033 1269.57 Q125.112 1264.96 130.922 1264.96 Z" fill="#000000" fill-rule="nonzero" fill-opacity="1" /><path clip-path="url(#clip260)" d="M50.9921 984.15 L80.6679 984.15 L80.6679 988.085 L50.9921 988.085 L50.9921 984.15 Z" fill="#000000" fill-rule="nonzero" fill-opacity="1" /><path clip-path="url(#clip260)" d="M91.5706 997.044 L99.2095 997.044 L99.2095 970.678 L90.8993 972.345 L90.8993 968.085 L99.1632 966.419 L103.839 966.419 L103.839 997.044 L111.478 997.044 L111.478 1000.98 L91.5706 1000.98 L91.5706 997.044 Z" fill="#000000" fill-rule="nonzero" fill-opacity="1" /><path clip-path="url(#clip260)" d="M130.922 969.498 Q127.311 969.498 125.482 973.062 Q123.677 976.604 123.677 983.734 Q123.677 990.84 125.482 994.405 Q127.311 997.946 130.922 997.946 Q134.556 997.946 136.362 994.405 Q138.191 990.84 138.191 983.734 Q138.191 976.604 136.362 973.062 Q134.556 969.498 130.922 969.498 M130.922 965.794 Q136.732 965.794 139.788 970.4 Q142.867 974.984 142.867 983.734 Q142.867 992.46 139.788 997.067 Q136.732 1001.65 130.922 1001.65 Q125.112 1001.65 122.033 997.067 Q118.978 992.46 118.978 983.734 Q118.978 974.984 122.033 970.4 Q125.112 965.794 130.922 965.794 Z" fill="#000000" fill-rule="nonzero" fill-opacity="1" /><path clip-path="url(#clip260)" d="M130.922 670.326 Q127.311 670.326 125.482 673.891 Q123.677 677.433 123.677 684.562 Q123.677 691.669 125.482 695.234 Q127.311 698.775 130.922 698.775 Q134.556 698.775 136.362 695.234 Q138.191 691.669 138.191 684.562 Q138.191 677.433 136.362 673.891 Q134.556 670.326 130.922 670.326 M130.922 666.623 Q136.732 666.623 139.788 671.229 Q142.867 675.813 142.867 684.562 Q142.867 693.289 139.788 697.896 Q136.732 702.479 130.922 702.479 Q125.112 702.479 122.033 697.896 Q118.978 693.289 118.978 684.562 Q118.978 675.813 122.033 671.229 Q125.112 666.623 130.922 666.623 Z" fill="#000000" fill-rule="nonzero" fill-opacity="1" /><path clip-path="url(#clip260)" d="M91.5706 398.702 L99.2095 398.702 L99.2095 372.336 L90.8993 374.003 L90.8993 369.743 L99.1632 368.077 L103.839 368.077 L103.839 398.702 L111.478 398.702 L111.478 402.637 L91.5706 402.637 L91.5706 398.702 Z" fill="#000000" fill-rule="nonzero" fill-opacity="1" /><path clip-path="url(#clip260)" d="M130.922 371.155 Q127.311 371.155 125.482 374.72 Q123.677 378.262 123.677 385.391 Q123.677 392.498 125.482 396.063 Q127.311 399.604 130.922 399.604 Q134.556 399.604 136.362 396.063 Q138.191 392.498 138.191 385.391 Q138.191 378.262 136.362 374.72 Q134.556 371.155 130.922 371.155 M130.922 367.452 Q136.732 367.452 139.788 372.058 Q142.867 376.641 142.867 385.391 Q142.867 394.118 139.788 398.725 Q136.732 403.308 130.922 403.308 Q125.112 403.308 122.033 398.725 Q118.978 394.118 118.978 385.391 Q118.978 376.641 122.033 372.058 Q125.112 367.452 130.922 367.452 Z" fill="#000000" fill-rule="nonzero" fill-opacity="1" /><path clip-path="url(#clip260)" d="M94.7882 99.5305 L111.108 99.5305 L111.108 103.466 L89.1632 103.466 L89.1632 99.5305 Q91.8252 96.7759 96.4085 92.1463 Q101.015 87.4935 102.196 86.151 Q104.441 83.6278 105.321 81.8917 Q106.223 80.1325 106.223 78.4427 Q106.223 75.688 104.279 73.9519 Q102.358 72.2158 99.2558 72.2158 Q97.0567 72.2158 94.603 72.9797 Q92.1725 73.7436 89.3947 75.2945 L89.3947 70.5723 Q92.2188 69.4381 94.6724 68.8594 Q97.1261 68.2807 99.1632 68.2807 Q104.534 68.2807 107.728 70.9658 Q110.922 73.651 110.922 78.1417 Q110.922 80.2714 110.112 82.1926 Q109.325 84.0908 107.219 86.6834 Q106.64 87.3546 103.538 90.5722 Q100.436 93.7667 94.7882 99.5305 Z" fill="#000000" fill-rule="nonzero" fill-opacity="1" /><path clip-path="url(#clip260)" d="M130.922 71.9844 Q127.311 71.9844 125.482 75.5492 Q123.677 79.0908 123.677 86.2204 Q123.677 93.3268 125.482 96.8916 Q127.311 100.433 130.922 100.433 Q134.556 100.433 136.362 96.8916 Q138.191 93.3268 138.191 86.2204 Q138.191 79.0908 136.362 75.5492 Q134.556 71.9844 130.922 71.9844 M130.922 68.2807 Q136.732 68.2807 139.788 72.8871 Q142.867 77.4704 142.867 86.2204 Q142.867 94.9472 139.788 99.5537 Q136.732 104.137 130.922 104.137 Q125.112 104.137 122.033 99.5537 Q118.978 94.9472 118.978 86.2204 Q118.978 77.4704 122.033 72.8871 Q125.112 68.2807 130.922 68.2807 Z" fill="#000000" fill-rule="nonzero" fill-opacity="1" /><polyline clip-path="url(#clip262)" style="stroke:#009af9; stroke-linecap:round; stroke-linejoin:round; stroke-width:4; stroke-opacity:1; fill:none" points="240.392,684.528 245.685,680.721 250.978,677.019 256.271,673.416 261.564,669.906 277.065,660.122 292.565,650.976 308.066,642.385 323.566,634.277 339.067,626.587 354.567,619.271 370.068,612.284 385.568,605.589 399.99,599.597 414.411,593.81 428.833,588.21 443.255,582.779 481.915,568.948 520.576,555.999 552.522,545.839 584.468,536.085 614.174,527.327 643.881,518.832 681.172,508.504 718.464,498.522 751.915,489.857 785.366,481.468 823.655,472.219 861.944,463.366 890.565,457.02 919.186,450.914 955.793,443.463 992.4,436.421 1025.81,430.352 1059.22,424.625 1097.25,418.515 1135.27,412.829 1165.42,408.613 1195.56,404.646 1233.01,400.049 1270.46,395.801 1299.14,392.772 1327.82,389.927 1368.26,386.211 1408.7,382.818 1438.91,380.477 1469.13,378.293 1537.86,373.859 1605.92,370.116 1680.8,366.634 1738,364.361 1810.18,361.902 1876.93,359.975 1945.78,358.286 2015.57,356.837 2088.44,355.561 2145.84,354.703 2276.56,353.139 2291.23,352.993 "/>
<polyline clip-path="url(#clip262)" style="stroke:#e26f46; stroke-linecap:round; stroke-linejoin:round; stroke-width:4; stroke-opacity:1; fill:none" points="240.392,654.611 245.685,647.021 250.978,639.688 256.271,632.599 261.564,625.744 277.065,606.904 292.565,589.697 308.066,573.941 323.566,559.478 339.067,546.17 354.567,533.917 370.068,522.623 385.568,512.212 399.99,503.264 414.411,494.978 428.833,487.315 443.255,480.243 462.585,471.634 481.915,463.967 501.246,457.188 520.576,451.255 552.522,443.199 584.468,437.21 614.174,433.402 643.881,431.224 681.172,430.718 718.464,432.611 751.915,436.284 785.366,441.757 823.655,450.139 861.944,460.659 890.565,469.836 919.186,480.065 955.793,494.577 992.4,510.562 1025.81,526.317 1059.22,543.076 1097.25,563.243 1135.27,584.442 1165.42,601.893 1195.56,619.852 1270.46,666.331 1327.82,703.375 1408.7,757.2 1469.13,798.347 1537.86,845.85 1605.92,893.452 1680.8,946.293 1738,986.9 1810.18,1038.36 1876.93,1086.13 1945.78,1135.51 2015.57,1185.66 2088.44,1238.09 2145.84,1279.43 2276.56,1373.66 2291.23,1384.24 "/>
<polyline clip-path="url(#clip262)" style="stroke:#3da44d; stroke-linecap:round; stroke-linejoin:round; stroke-width:4; stroke-opacity:1; fill:none" points="240.392,385.357 243.038,389.608 245.685,393.734 248.331,397.737 250.978,401.621 253.624,405.391 256.271,409.051 258.918,412.604 261.564,416.055 269.314,425.613 277.065,434.43 284.815,442.606 292.565,450.205 300.315,457.271 308.066,463.851 315.816,469.992 323.566,475.742 331.316,481.137 339.067,486.202 346.817,490.961 354.567,495.439 362.317,499.66 370.068,503.648 377.818,507.417 385.568,510.981 392.779,514.125 399.99,517.115 407.201,519.963 414.411,522.677 428.833,527.732 443.255,532.335 462.585,537.89 481.915,542.825 501.246,547.228 520.576,551.168 536.549,554.119 552.522,556.827 568.495,559.32 584.468,561.624 614.174,565.489 643.881,568.931 718.464,576.604 785.366,583.399 861.944,591.894 919.186,598.77 992.4,607.928 1059.22,616.293 1135.27,625.433 1195.56,632.193 1270.46,639.849 1327.82,645.113 1408.7,651.655 1469.13,655.903 1537.86,660.122 1605.92,663.723 1680.8,667.098 1738,669.313 1810.18,671.72 1876.93,673.612 1945.78,675.273 2015.57,676.702 2088.44,677.961 2145.84,678.808 2276.56,680.354 2291.23,680.499 "/>
<polyline clip-path="url(#clip262)" style="stroke:#c271d2; stroke-linecap:round; stroke-linejoin:round; stroke-width:4; stroke-opacity:1; fill:none" points="240.392,86.1857 243.038,96.568 245.685,106.672 248.331,116.507 250.978,126.081 253.624,135.404 256.271,144.484 258.918,153.331 261.564,161.953 269.314,185.995 277.065,208.414 284.815,229.429 292.565,249.178 300.315,267.765 308.066,285.291 315.816,301.863 323.566,317.583 331.316,332.534 339.067,346.772 346.817,360.351 354.567,373.325 370.068,397.675 385.568,420.161 399.99,439.632 414.411,457.906 428.833,475.133 443.255,491.438 462.585,512.053 481.915,531.444 501.246,549.805 520.576,567.292 552.522,594.624 584.468,620.413 614.174,643.332 643.881,665.453 681.172,692.306 718.464,718.252 751.915,740.741 785.366,762.397 823.655,786.009 861.944,808.187 890.565,823.737 919.186,838.353 955.793,855.646 992.4,871.349 1025.81,884.313 1059.22,896.013 1097.25,907.867 1135.27,918.27 1165.42,925.566 1195.56,932.09 1233.01,939.215 1270.46,945.366 1299.14,949.49 1327.82,953.157 1408.7,961.417 1469.13,965.973 1537.86,969.887 1605.92,972.753 1680.8,975.046 1738,976.344 1810.18,977.568 1876.93,978.393 1945.78,979.017 2015.57,979.478 2088.44,979.825 2145.84,980.027 2276.56,980.329 2291.23,980.352 "/>
<path clip-path="url(#clip260)" d="M251.33 1377.32 L568.029 1377.32 L568.029 1118.12 L251.33 1118.12  Z" fill="#ffffff" fill-rule="evenodd" fill-opacity="1"/>
<polyline clip-path="url(#clip260)" style="stroke:#000000; stroke-linecap:round; stroke-linejoin:round; stroke-width:4; stroke-opacity:1; fill:none" points="251.33,1377.32 568.029,1377.32 568.029,1118.12 251.33,1118.12 251.33,1377.32 "/>
<polyline clip-path="url(#clip260)" style="stroke:#009af9; stroke-linecap:round; stroke-linejoin:round; stroke-width:4; stroke-opacity:1; fill:none" points="275.484,1169.96 420.41,1169.96 "/>
<path clip-path="url(#clip260)" d="M468.455 1163.8 Q468.455 1165.11 467.635 1165.86 Q466.816 1166.58 465.879 1166.58 Q464.989 1166.58 464.52 1166.07 Q464.052 1165.55 464.052 1164.9 Q464.052 1164.01 464.708 1163.23 Q465.363 1162.46 466.347 1162.3 Q465.387 1161.69 463.958 1161.69 Q463.021 1161.69 462.201 1162.18 Q461.405 1162.67 460.913 1163.3 Q460.445 1163.94 460.023 1164.85 Q459.625 1165.74 459.461 1166.28 Q459.32 1166.79 459.203 1167.36 L457.564 1173.91 Q456.767 1177.03 456.767 1178.13 Q456.767 1179.49 457.423 1180.4 Q458.079 1181.29 459.391 1181.29 Q459.906 1181.29 460.491 1181.15 Q461.077 1180.99 461.827 1180.57 Q462.599 1180.12 463.279 1179.46 Q463.981 1178.79 464.661 1177.64 Q465.34 1176.49 465.785 1175.01 Q465.925 1174.5 466.394 1174.5 Q466.979 1174.5 466.979 1174.97 Q466.979 1175.37 466.652 1176.21 Q466.347 1177.03 465.668 1178.11 Q465.012 1179.16 464.145 1180.12 Q463.279 1181.06 461.991 1181.71 Q460.702 1182.37 459.297 1182.37 Q457.283 1182.37 455.948 1181.29 Q454.612 1180.21 454.121 1178.72 Q454.003 1178.93 453.839 1179.21 Q453.676 1179.49 453.184 1180.12 Q452.715 1180.73 452.177 1181.2 Q451.638 1181.64 450.795 1181.99 Q449.975 1182.37 449.085 1182.37 Q447.96 1182.37 446.953 1182.04 Q445.97 1181.71 445.267 1180.96 Q444.564 1180.21 444.564 1179.18 Q444.564 1178.04 445.337 1177.24 Q446.134 1176.42 447.211 1176.42 Q447.89 1176.42 448.429 1176.82 Q448.991 1177.22 448.991 1178.08 Q448.991 1179.04 448.335 1179.77 Q447.679 1180.5 446.742 1180.68 Q447.703 1181.29 449.132 1181.29 Q450.677 1181.29 451.895 1179.93 Q453.113 1178.57 453.699 1176.3 Q455.151 1170.85 455.713 1168.41 Q456.275 1165.95 456.275 1164.9 Q456.275 1163.91 456.018 1163.23 Q455.76 1162.55 455.315 1162.25 Q454.894 1161.92 454.495 1161.8 Q454.121 1161.69 453.699 1161.69 Q452.996 1161.69 452.2 1161.97 Q451.427 1162.25 450.49 1162.9 Q449.577 1163.54 448.71 1164.85 Q447.843 1166.16 447.258 1167.96 Q447.141 1168.5 446.625 1168.5 Q446.063 1168.48 446.063 1168.01 Q446.063 1167.61 446.368 1166.79 Q446.696 1165.95 447.351 1164.9 Q448.031 1163.84 448.897 1162.9 Q449.787 1161.94 451.076 1161.29 Q452.387 1160.63 453.793 1160.63 Q454.425 1160.63 455.034 1160.77 Q455.666 1160.89 456.416 1161.24 Q457.189 1161.59 457.868 1162.37 Q458.547 1163.14 458.969 1164.26 Q459.25 1163.72 459.625 1163.21 Q460.023 1162.69 460.632 1162.06 Q461.264 1161.41 462.131 1161.03 Q463.021 1160.63 464.005 1160.63 Q464.965 1160.63 465.902 1160.89 Q466.839 1161.12 467.635 1161.9 Q468.455 1162.65 468.455 1163.8 Z" fill="#000000" fill-rule="nonzero" fill-opacity="1" /><path clip-path="url(#clip260)" d="M474.796 1169.84 Q474.796 1161.73 477.817 1155.2 Q479.105 1152.46 480.909 1150.16 Q482.712 1147.87 483.907 1146.86 Q485.102 1145.85 485.429 1145.85 Q485.898 1145.85 485.921 1146.32 Q485.921 1146.56 485.289 1147.14 Q477.559 1155.01 477.583 1169.84 Q477.583 1184.71 485.102 1192.28 Q485.921 1193.1 485.921 1193.35 Q485.921 1193.82 485.429 1193.82 Q485.102 1193.82 483.954 1192.86 Q482.806 1191.9 481.026 1189.7 Q479.246 1187.5 477.958 1184.8 Q474.796 1178.27 474.796 1169.84 Z" fill="#000000" fill-rule="nonzero" fill-opacity="1" /><path clip-path="url(#clip260)" d="M504.296 1161.69 Q504.296 1162.34 503.991 1162.51 Q503.687 1162.65 502.844 1162.65 L498.347 1162.65 L494.786 1176.79 Q494.505 1178.04 494.505 1179.09 Q494.505 1180.26 494.857 1180.78 Q495.231 1181.29 496.004 1181.29 Q497.527 1181.29 499.166 1179.91 Q500.829 1178.53 502.235 1175.15 Q502.422 1174.71 502.516 1174.62 Q502.633 1174.5 502.937 1174.5 Q503.523 1174.5 503.523 1174.97 Q503.523 1175.13 503.195 1175.88 Q502.891 1176.63 502.211 1177.73 Q501.555 1178.83 500.689 1179.86 Q499.846 1180.89 498.557 1181.64 Q497.269 1182.37 495.887 1182.37 Q493.943 1182.37 492.702 1181.13 Q491.484 1179.89 491.484 1177.94 Q491.484 1177.31 491.976 1175.3 Q492.468 1173.26 495.138 1162.65 L490.898 1162.65 Q490.313 1162.65 490.078 1162.62 Q489.868 1162.6 489.704 1162.48 Q489.563 1162.34 489.563 1162.06 Q489.563 1161.62 489.751 1161.43 Q489.938 1161.22 490.172 1161.2 Q490.43 1161.15 491.015 1161.15 L495.512 1161.15 L497.386 1153.54 Q497.574 1152.79 498.042 1152.36 Q498.534 1151.92 498.815 1151.87 Q499.096 1151.8 499.307 1151.8 Q499.939 1151.8 500.314 1152.15 Q500.689 1152.48 500.689 1153.09 Q500.689 1153.42 498.721 1161.15 L502.937 1161.15 Q503.476 1161.15 503.687 1161.17 Q503.921 1161.2 504.109 1161.31 Q504.296 1161.43 504.296 1161.69 Z" fill="#000000" fill-rule="nonzero" fill-opacity="1" /><path clip-path="url(#clip260)" d="M508.047 1193.35 Q508.047 1193.12 508.656 1192.53 Q516.385 1184.66 516.385 1169.84 Q516.385 1154.96 508.961 1147.45 Q508.047 1146.58 508.047 1146.32 Q508.047 1145.85 508.516 1145.85 Q508.843 1145.85 509.991 1146.81 Q511.162 1147.77 512.919 1149.98 Q514.699 1152.18 516.011 1154.87 Q519.173 1161.41 519.173 1169.84 Q519.173 1177.94 516.151 1184.48 Q514.863 1187.22 513.059 1189.51 Q511.256 1191.81 510.061 1192.82 Q508.867 1193.82 508.516 1193.82 Q508.047 1193.82 508.047 1193.35 Z" fill="#000000" fill-rule="nonzero" fill-opacity="1" /><polyline clip-path="url(#clip260)" style="stroke:#e26f46; stroke-linecap:round; stroke-linejoin:round; stroke-width:4; stroke-opacity:1; fill:none" points="275.484,1221.8 420.41,1221.8 "/>
<path clip-path="url(#clip260)" d="M464.895 1212.94 Q464.895 1213.11 464.497 1213.81 Q464.122 1214.49 462.74 1216.2 Q461.358 1217.91 459.297 1219.9 Q458.524 1220.67 457.353 1221.75 Q456.182 1222.83 455.385 1223.53 L454.589 1224.23 Q451.544 1226.81 448.874 1229.69 Q449.061 1229.62 449.389 1229.59 Q449.717 1229.55 449.951 1229.55 L450.186 1229.55 Q451.404 1229.55 453.535 1230.37 Q455.409 1230.98 456.369 1230.98 Q457.306 1230.98 458.337 1230.65 Q459.367 1230.32 460.491 1229.36 Q461.616 1228.4 462.131 1226.95 Q462.225 1226.71 462.272 1226.64 Q462.318 1226.55 462.459 1226.46 Q462.599 1226.34 462.787 1226.34 Q463.045 1226.34 463.208 1226.48 Q463.372 1226.62 463.372 1226.81 Q463.372 1227.23 463.045 1228.07 Q462.74 1228.92 462.061 1229.97 Q461.405 1231.02 460.538 1231.98 Q459.695 1232.92 458.43 1233.58 Q457.165 1234.21 455.83 1234.21 Q454.87 1234.21 454.167 1233.74 Q453.465 1233.3 452.762 1232.43 Q451.802 1231.33 451.286 1230.98 Q450.771 1230.6 449.975 1230.6 Q447.843 1230.6 445.899 1233.58 Q445.688 1234 445.548 1234.09 Q445.431 1234.21 445.15 1234.21 Q444.564 1234.19 444.564 1233.72 Q444.564 1233.53 445.08 1232.71 Q445.618 1231.87 446.813 1230.39 Q448.031 1228.92 449.506 1227.44 L453.816 1223.41 Q458.594 1219.38 460.491 1217.11 Q459.695 1217.11 459.344 1217.09 Q459.016 1217.06 458.36 1216.92 Q457.704 1216.76 456.791 1216.41 Q454.659 1215.68 453.769 1215.68 Q453.535 1215.68 453.277 1215.71 Q453.02 1215.73 452.434 1215.85 Q451.872 1215.96 451.404 1216.2 Q450.935 1216.41 450.443 1216.88 Q449.951 1217.32 449.694 1217.93 Q449.623 1218.12 449.577 1218.21 Q449.53 1218.31 449.389 1218.4 Q449.272 1218.47 449.085 1218.47 Q448.804 1218.47 448.64 1218.31 Q448.499 1218.14 448.499 1217.93 Q448.499 1217.51 448.921 1216.64 Q449.342 1215.78 450.045 1214.84 Q450.748 1213.88 451.895 1213.18 Q453.043 1212.47 454.308 1212.47 Q455.057 1212.47 455.69 1212.8 Q456.346 1213.13 456.674 1213.48 Q457.025 1213.81 457.611 1214.53 Q458.102 1215.1 458.337 1215.33 Q458.571 1215.56 459.039 1215.82 Q459.531 1216.06 460.07 1216.06 Q460.96 1216.06 461.78 1215.38 Q462.599 1214.67 463.654 1212.99 Q463.935 1212.47 464.38 1212.47 Q464.895 1212.47 464.895 1212.94 Z" fill="#000000" fill-rule="nonzero" fill-opacity="1" /><path clip-path="url(#clip260)" d="M471.252 1221.68 Q471.252 1213.57 474.274 1207.04 Q475.562 1204.3 477.366 1202 Q479.169 1199.71 480.364 1198.7 Q481.558 1197.69 481.886 1197.69 Q482.355 1197.69 482.378 1198.16 Q482.378 1198.4 481.746 1198.98 Q474.016 1206.85 474.04 1221.68 Q474.04 1236.55 481.558 1244.12 Q482.378 1244.94 482.378 1245.19 Q482.378 1245.66 481.886 1245.66 Q481.558 1245.66 480.41 1244.7 Q479.263 1243.74 477.483 1241.54 Q475.703 1239.34 474.414 1236.64 Q471.252 1230.11 471.252 1221.68 Z" fill="#000000" fill-rule="nonzero" fill-opacity="1" /><path clip-path="url(#clip260)" d="M500.753 1213.53 Q500.753 1214.18 500.448 1214.35 Q500.144 1214.49 499.3 1214.49 L494.803 1214.49 L491.243 1228.63 Q490.962 1229.88 490.962 1230.93 Q490.962 1232.1 491.313 1232.62 Q491.688 1233.13 492.461 1233.13 Q493.983 1233.13 495.623 1231.75 Q497.286 1230.37 498.691 1226.99 Q498.879 1226.55 498.972 1226.46 Q499.09 1226.34 499.394 1226.34 Q499.98 1226.34 499.98 1226.81 Q499.98 1226.97 499.652 1227.72 Q499.347 1228.47 498.668 1229.57 Q498.012 1230.67 497.145 1231.7 Q496.302 1232.73 495.014 1233.48 Q493.726 1234.21 492.344 1234.21 Q490.4 1234.21 489.158 1232.97 Q487.94 1231.73 487.94 1229.78 Q487.94 1229.15 488.432 1227.14 Q488.924 1225.1 491.594 1214.49 L487.355 1214.49 Q486.769 1214.49 486.535 1214.46 Q486.324 1214.44 486.16 1214.32 Q486.02 1214.18 486.02 1213.9 Q486.02 1213.46 486.207 1213.27 Q486.395 1213.06 486.629 1213.04 Q486.886 1212.99 487.472 1212.99 L491.969 1212.99 L493.843 1205.38 Q494.03 1204.63 494.499 1204.2 Q494.991 1203.76 495.272 1203.71 Q495.553 1203.64 495.764 1203.64 Q496.396 1203.64 496.771 1203.99 Q497.145 1204.32 497.145 1204.93 Q497.145 1205.26 495.178 1212.99 L499.394 1212.99 Q499.933 1212.99 500.144 1213.01 Q500.378 1213.04 500.565 1213.15 Q500.753 1213.27 500.753 1213.53 Z" fill="#000000" fill-rule="nonzero" fill-opacity="1" /><path clip-path="url(#clip260)" d="M504.504 1245.19 Q504.504 1244.96 505.113 1244.37 Q512.842 1236.5 512.842 1221.68 Q512.842 1206.8 505.417 1199.29 Q504.504 1198.42 504.504 1198.16 Q504.504 1197.69 504.972 1197.69 Q505.3 1197.69 506.448 1198.65 Q507.619 1199.61 509.376 1201.82 Q511.156 1204.02 512.467 1206.71 Q515.629 1213.25 515.629 1221.68 Q515.629 1229.78 512.608 1236.32 Q511.32 1239.06 509.516 1241.35 Q507.713 1243.65 506.518 1244.66 Q505.323 1245.66 504.972 1245.66 Q504.504 1245.66 504.504 1245.19 Z" fill="#000000" fill-rule="nonzero" fill-opacity="1" /><polyline clip-path="url(#clip260)" style="stroke:#3da44d; stroke-linecap:round; stroke-linejoin:round; stroke-width:4; stroke-opacity:1; fill:none" points="275.484,1273.64 420.41,1273.64 "/>
<path clip-path="url(#clip260)" d="M465.621 1267.66 Q465.621 1268.27 465.457 1269.47 Q465.293 1270.66 464.895 1272.39 Q464.497 1274.13 463.911 1275.95 Q463.349 1277.78 462.459 1279.61 Q461.569 1281.41 460.515 1282.84 Q459.461 1284.27 457.985 1285.16 Q456.51 1286.05 454.847 1286.05 Q454.074 1286.05 453.324 1285.93 Q452.575 1285.81 451.638 1285.44 Q450.701 1285.07 450.022 1284.46 Q449.342 1283.82 448.874 1282.7 Q448.405 1281.58 448.405 1280.1 Q448.405 1278.58 448.968 1276.54 Q449.553 1274.48 451.146 1270.26 Q451.966 1268.08 451.966 1266.89 Q451.966 1266.35 451.849 1266.02 Q451.731 1265.67 451.497 1265.55 Q451.263 1265.41 451.122 1265.39 Q451.005 1265.37 450.771 1265.37 Q449.483 1265.37 448.171 1266.7 Q446.86 1268.04 445.923 1271.32 Q445.735 1271.9 445.618 1272.04 Q445.501 1272.18 445.15 1272.18 Q444.564 1272.16 444.564 1271.69 Q444.564 1271.55 444.728 1271.01 Q444.892 1270.45 445.197 1269.61 Q445.501 1268.74 446.04 1267.85 Q446.579 1266.94 447.234 1266.14 Q447.914 1265.34 448.874 1264.83 Q449.834 1264.31 450.912 1264.31 Q452.668 1264.31 453.746 1265.46 Q454.847 1266.58 454.847 1268.25 Q454.847 1269.16 454.261 1270.64 Q453.277 1273.31 452.832 1274.6 Q452.387 1275.88 451.919 1277.71 Q451.474 1279.54 451.474 1280.8 Q451.474 1282.72 452.364 1283.85 Q453.254 1284.97 455.034 1284.97 Q456.627 1284.97 458.056 1283.82 Q459.508 1282.65 460.468 1280.99 Q461.428 1279.3 462.154 1277.43 Q462.881 1275.53 463.208 1274.1 Q463.56 1272.65 463.56 1271.97 Q463.56 1269.61 461.944 1268.06 Q461.499 1267.62 461.335 1267.33 Q461.171 1267.05 461.171 1266.61 Q461.171 1265.79 461.897 1265.06 Q462.646 1264.31 463.513 1264.31 Q464.309 1264.31 464.965 1265.11 Q465.621 1265.91 465.621 1267.66 Z" fill="#000000" fill-rule="nonzero" fill-opacity="1" /><path clip-path="url(#clip260)" d="M487.252 1282.23 Q487.252 1283.15 486.678 1283.67 Q486.104 1284.18 485.448 1284.18 Q484.825 1284.18 484.497 1283.82 Q484.169 1283.46 484.169 1283 Q484.169 1282.38 484.628 1281.84 Q485.087 1281.3 485.776 1281.18 Q485.104 1280.75 484.104 1280.75 Q483.448 1280.75 482.874 1281.1 Q482.316 1281.44 481.972 1281.89 Q481.644 1282.33 481.349 1282.97 Q481.07 1283.59 480.956 1283.97 Q480.857 1284.33 480.775 1284.72 L479.628 1289.31 Q479.07 1291.49 479.07 1292.26 Q479.07 1293.22 479.529 1293.85 Q479.988 1294.48 480.906 1294.48 Q481.267 1294.48 481.677 1294.38 Q482.087 1294.26 482.612 1293.97 Q483.153 1293.66 483.628 1293.2 Q484.12 1292.72 484.595 1291.92 Q485.071 1291.12 485.382 1290.08 Q485.481 1289.72 485.809 1289.72 Q486.219 1289.72 486.219 1290.05 Q486.219 1290.33 485.989 1290.92 Q485.776 1291.49 485.3 1292.25 Q484.841 1292.99 484.235 1293.66 Q483.628 1294.31 482.726 1294.77 Q481.825 1295.23 480.841 1295.23 Q479.431 1295.23 478.496 1294.48 Q477.562 1293.72 477.217 1292.67 Q477.135 1292.82 477.021 1293.02 Q476.906 1293.22 476.562 1293.66 Q476.234 1294.08 475.857 1294.41 Q475.479 1294.72 474.889 1294.97 Q474.315 1295.23 473.692 1295.23 Q472.905 1295.23 472.2 1295 Q471.512 1294.77 471.02 1294.25 Q470.528 1293.72 470.528 1293 Q470.528 1292.2 471.069 1291.64 Q471.626 1291.07 472.381 1291.07 Q472.856 1291.07 473.233 1291.35 Q473.627 1291.63 473.627 1292.23 Q473.627 1292.9 473.168 1293.41 Q472.709 1293.92 472.053 1294.05 Q472.725 1294.48 473.725 1294.48 Q474.807 1294.48 475.66 1293.53 Q476.512 1292.58 476.922 1290.99 Q477.939 1287.17 478.332 1285.46 Q478.726 1283.74 478.726 1283 Q478.726 1282.31 478.545 1281.84 Q478.365 1281.36 478.054 1281.15 Q477.758 1280.92 477.48 1280.84 Q477.217 1280.75 476.922 1280.75 Q476.43 1280.75 475.873 1280.95 Q475.332 1281.15 474.676 1281.61 Q474.037 1282.05 473.43 1282.97 Q472.823 1283.89 472.413 1285.15 Q472.331 1285.53 471.971 1285.53 Q471.577 1285.51 471.577 1285.18 Q471.577 1284.9 471.79 1284.33 Q472.02 1283.74 472.479 1283 Q472.955 1282.26 473.561 1281.61 Q474.184 1280.94 475.086 1280.48 Q476.004 1280.02 476.988 1280.02 Q477.431 1280.02 477.857 1280.12 Q478.3 1280.2 478.824 1280.44 Q479.365 1280.69 479.841 1281.23 Q480.316 1281.77 480.611 1282.56 Q480.808 1282.18 481.07 1281.82 Q481.349 1281.46 481.775 1281.02 Q482.218 1280.56 482.825 1280.3 Q483.448 1280.02 484.136 1280.02 Q484.809 1280.02 485.464 1280.2 Q486.12 1280.36 486.678 1280.9 Q487.252 1281.43 487.252 1282.23 Z" fill="#000000" fill-rule="nonzero" fill-opacity="1" /><path clip-path="url(#clip260)" d="M492.207 1273.52 Q492.207 1265.41 495.229 1258.88 Q496.517 1256.14 498.321 1253.84 Q500.124 1251.55 501.319 1250.54 Q502.513 1249.53 502.841 1249.53 Q503.31 1249.53 503.333 1250 Q503.333 1250.24 502.701 1250.82 Q494.971 1258.69 494.995 1273.52 Q494.995 1288.39 502.513 1295.96 Q503.333 1296.78 503.333 1297.03 Q503.333 1297.5 502.841 1297.5 Q502.513 1297.5 501.366 1296.54 Q500.218 1295.58 498.438 1293.38 Q496.658 1291.18 495.369 1288.48 Q492.207 1281.95 492.207 1273.52 Z" fill="#000000" fill-rule="nonzero" fill-opacity="1" /><path clip-path="url(#clip260)" d="M521.708 1265.37 Q521.708 1266.02 521.403 1266.19 Q521.099 1266.33 520.255 1266.33 L515.758 1266.33 L512.198 1280.47 Q511.917 1281.72 511.917 1282.77 Q511.917 1283.94 512.268 1284.46 Q512.643 1284.97 513.416 1284.97 Q514.938 1284.97 516.578 1283.59 Q518.241 1282.21 519.646 1278.83 Q519.834 1278.39 519.927 1278.3 Q520.045 1278.18 520.349 1278.18 Q520.935 1278.18 520.935 1278.65 Q520.935 1278.81 520.607 1279.56 Q520.302 1280.31 519.623 1281.41 Q518.967 1282.51 518.101 1283.54 Q517.257 1284.57 515.969 1285.32 Q514.681 1286.05 513.299 1286.05 Q511.355 1286.05 510.113 1284.81 Q508.896 1283.57 508.896 1281.62 Q508.896 1280.99 509.387 1278.98 Q509.879 1276.94 512.549 1266.33 L508.31 1266.33 Q507.724 1266.33 507.49 1266.3 Q507.279 1266.28 507.115 1266.16 Q506.975 1266.02 506.975 1265.74 Q506.975 1265.3 507.162 1265.11 Q507.35 1264.9 507.584 1264.88 Q507.841 1264.83 508.427 1264.83 L512.924 1264.83 L514.798 1257.22 Q514.985 1256.47 515.454 1256.04 Q515.946 1255.6 516.227 1255.55 Q516.508 1255.48 516.719 1255.48 Q517.351 1255.48 517.726 1255.83 Q518.101 1256.16 518.101 1256.77 Q518.101 1257.1 516.133 1264.83 L520.349 1264.83 Q520.888 1264.83 521.099 1264.85 Q521.333 1264.88 521.52 1264.99 Q521.708 1265.11 521.708 1265.37 Z" fill="#000000" fill-rule="nonzero" fill-opacity="1" /><path clip-path="url(#clip260)" d="M525.459 1297.03 Q525.459 1296.8 526.068 1296.21 Q533.797 1288.34 533.797 1273.52 Q533.797 1258.64 526.372 1251.13 Q525.459 1250.26 525.459 1250 Q525.459 1249.53 525.927 1249.53 Q526.255 1249.53 527.403 1250.49 Q528.574 1251.45 530.331 1253.66 Q532.111 1255.86 533.422 1258.55 Q536.584 1265.09 536.584 1273.52 Q536.584 1281.62 533.563 1288.16 Q532.275 1290.9 530.471 1293.19 Q528.668 1295.49 527.473 1296.5 Q526.279 1297.5 525.927 1297.5 Q525.459 1297.5 525.459 1297.03 Z" fill="#000000" fill-rule="nonzero" fill-opacity="1" /><polyline clip-path="url(#clip260)" style="stroke:#c271d2; stroke-linecap:round; stroke-linejoin:round; stroke-width:4; stroke-opacity:1; fill:none" points="275.484,1325.48 420.41,1325.48 "/>
<path clip-path="url(#clip260)" d="M465.621 1319.5 Q465.621 1320.11 465.457 1321.31 Q465.293 1322.5 464.895 1324.23 Q464.497 1325.97 463.911 1327.79 Q463.349 1329.62 462.459 1331.45 Q461.569 1333.25 460.515 1334.68 Q459.461 1336.11 457.985 1337 Q456.51 1337.89 454.847 1337.89 Q454.074 1337.89 453.324 1337.77 Q452.575 1337.65 451.638 1337.28 Q450.701 1336.91 450.022 1336.3 Q449.342 1335.66 448.874 1334.54 Q448.405 1333.42 448.405 1331.94 Q448.405 1330.42 448.968 1328.38 Q449.553 1326.32 451.146 1322.1 Q451.966 1319.92 451.966 1318.73 Q451.966 1318.19 451.849 1317.86 Q451.731 1317.51 451.497 1317.39 Q451.263 1317.25 451.122 1317.23 Q451.005 1317.21 450.771 1317.21 Q449.483 1317.21 448.171 1318.54 Q446.86 1319.88 445.923 1323.16 Q445.735 1323.74 445.618 1323.88 Q445.501 1324.02 445.15 1324.02 Q444.564 1324 444.564 1323.53 Q444.564 1323.39 444.728 1322.85 Q444.892 1322.29 445.197 1321.45 Q445.501 1320.58 446.04 1319.69 Q446.579 1318.78 447.234 1317.98 Q447.914 1317.18 448.874 1316.67 Q449.834 1316.15 450.912 1316.15 Q452.668 1316.15 453.746 1317.3 Q454.847 1318.42 454.847 1320.09 Q454.847 1321 454.261 1322.48 Q453.277 1325.15 452.832 1326.44 Q452.387 1327.72 451.919 1329.55 Q451.474 1331.38 451.474 1332.64 Q451.474 1334.56 452.364 1335.69 Q453.254 1336.81 455.034 1336.81 Q456.627 1336.81 458.056 1335.66 Q459.508 1334.49 460.468 1332.83 Q461.428 1331.14 462.154 1329.27 Q462.881 1327.37 463.208 1325.94 Q463.56 1324.49 463.56 1323.81 Q463.56 1321.45 461.944 1319.9 Q461.499 1319.46 461.335 1319.17 Q461.171 1318.89 461.171 1318.45 Q461.171 1317.63 461.897 1316.9 Q462.646 1316.15 463.513 1316.15 Q464.309 1316.15 464.965 1316.95 Q465.621 1317.75 465.621 1319.5 Z" fill="#000000" fill-rule="nonzero" fill-opacity="1" /><path clip-path="url(#clip260)" d="M484.759 1332.18 Q484.759 1332.3 484.481 1332.79 Q484.218 1333.27 483.251 1334.46 Q482.284 1335.66 480.841 1337.05 Q480.3 1337.6 479.48 1338.35 Q478.66 1339.1 478.103 1339.6 L477.545 1340.09 Q475.414 1341.89 473.545 1343.91 Q473.676 1343.86 473.905 1343.84 Q474.135 1343.81 474.299 1343.81 L474.463 1343.81 Q475.316 1343.81 476.808 1344.38 Q478.119 1344.81 478.791 1344.81 Q479.447 1344.81 480.169 1344.58 Q480.89 1344.35 481.677 1343.68 Q482.464 1343.01 482.825 1341.99 Q482.89 1341.83 482.923 1341.78 Q482.956 1341.71 483.054 1341.65 Q483.153 1341.56 483.284 1341.56 Q483.464 1341.56 483.579 1341.66 Q483.694 1341.76 483.694 1341.89 Q483.694 1342.19 483.464 1342.78 Q483.251 1343.37 482.776 1344.1 Q482.316 1344.84 481.71 1345.51 Q481.12 1346.17 480.234 1346.63 Q479.349 1347.07 478.414 1347.07 Q477.742 1347.07 477.25 1346.74 Q476.758 1346.43 476.266 1345.83 Q475.594 1345.06 475.234 1344.81 Q474.873 1344.55 474.315 1344.55 Q472.823 1344.55 471.463 1346.63 Q471.315 1346.92 471.217 1346.99 Q471.135 1347.07 470.938 1347.07 Q470.528 1347.06 470.528 1346.73 Q470.528 1346.6 470.889 1346.02 Q471.266 1345.43 472.102 1344.4 Q472.955 1343.37 473.987 1342.33 L477.004 1339.51 Q480.349 1336.69 481.677 1335.1 Q481.12 1335.1 480.874 1335.09 Q480.644 1335.07 480.185 1334.97 Q479.726 1334.86 479.087 1334.61 Q477.595 1334.1 476.971 1334.1 Q476.808 1334.1 476.627 1334.12 Q476.447 1334.14 476.037 1334.22 Q475.643 1334.3 475.316 1334.46 Q474.988 1334.61 474.643 1334.94 Q474.299 1335.25 474.119 1335.68 Q474.069 1335.81 474.037 1335.87 Q474.004 1335.94 473.905 1336.01 Q473.823 1336.05 473.692 1336.05 Q473.496 1336.05 473.381 1335.94 Q473.282 1335.82 473.282 1335.68 Q473.282 1335.38 473.578 1334.78 Q473.873 1334.17 474.365 1333.51 Q474.856 1332.84 475.66 1332.35 Q476.463 1331.86 477.349 1331.86 Q477.873 1331.86 478.316 1332.09 Q478.775 1332.32 479.005 1332.56 Q479.25 1332.79 479.66 1333.3 Q480.005 1333.69 480.169 1333.86 Q480.333 1334.02 480.661 1334.2 Q481.005 1334.37 481.382 1334.37 Q482.005 1334.37 482.579 1333.89 Q483.153 1333.4 483.89 1332.22 Q484.087 1331.86 484.399 1331.86 Q484.759 1331.86 484.759 1332.18 Z" fill="#000000" fill-rule="nonzero" fill-opacity="1" /><path clip-path="url(#clip260)" d="M489.735 1325.36 Q489.735 1317.25 492.757 1310.72 Q494.045 1307.98 495.849 1305.68 Q497.652 1303.39 498.847 1302.38 Q500.041 1301.37 500.369 1301.37 Q500.838 1301.37 500.861 1301.84 Q500.861 1302.08 500.229 1302.66 Q492.499 1310.53 492.523 1325.36 Q492.523 1340.23 500.041 1347.8 Q500.861 1348.62 500.861 1348.87 Q500.861 1349.34 500.369 1349.34 Q500.041 1349.34 498.894 1348.38 Q497.746 1347.42 495.966 1345.22 Q494.186 1343.02 492.897 1340.32 Q489.735 1333.79 489.735 1325.36 Z" fill="#000000" fill-rule="nonzero" fill-opacity="1" /><path clip-path="url(#clip260)" d="M519.236 1317.21 Q519.236 1317.86 518.931 1318.03 Q518.627 1318.17 517.784 1318.17 L513.286 1318.17 L509.726 1332.31 Q509.445 1333.56 509.445 1334.61 Q509.445 1335.78 509.796 1336.3 Q510.171 1336.81 510.944 1336.81 Q512.467 1336.81 514.106 1335.43 Q515.769 1334.05 517.175 1330.67 Q517.362 1330.23 517.456 1330.14 Q517.573 1330.02 517.877 1330.02 Q518.463 1330.02 518.463 1330.49 Q518.463 1330.65 518.135 1331.4 Q517.83 1332.15 517.151 1333.25 Q516.495 1334.35 515.629 1335.38 Q514.785 1336.41 513.497 1337.16 Q512.209 1337.89 510.827 1337.89 Q508.883 1337.89 507.642 1336.65 Q506.424 1335.41 506.424 1333.46 Q506.424 1332.83 506.915 1330.82 Q507.407 1328.78 510.078 1318.17 L505.838 1318.17 Q505.253 1318.17 505.018 1318.14 Q504.807 1318.12 504.644 1318 Q504.503 1317.86 504.503 1317.58 Q504.503 1317.14 504.69 1316.95 Q504.878 1316.74 505.112 1316.72 Q505.37 1316.67 505.955 1316.67 L510.452 1316.67 L512.326 1309.06 Q512.513 1308.31 512.982 1307.88 Q513.474 1307.44 513.755 1307.39 Q514.036 1307.32 514.247 1307.32 Q514.879 1307.32 515.254 1307.67 Q515.629 1308 515.629 1308.61 Q515.629 1308.94 513.661 1316.67 L517.877 1316.67 Q518.416 1316.67 518.627 1316.69 Q518.861 1316.72 519.048 1316.83 Q519.236 1316.95 519.236 1317.21 Z" fill="#000000" fill-rule="nonzero" fill-opacity="1" /><path clip-path="url(#clip260)" d="M522.987 1348.87 Q522.987 1348.64 523.596 1348.05 Q531.325 1340.18 531.325 1325.36 Q531.325 1310.48 523.9 1302.97 Q522.987 1302.1 522.987 1301.84 Q522.987 1301.37 523.455 1301.37 Q523.783 1301.37 524.931 1302.33 Q526.102 1303.29 527.859 1305.5 Q529.639 1307.7 530.951 1310.39 Q534.113 1316.93 534.113 1325.36 Q534.113 1333.46 531.091 1340 Q529.803 1342.74 527.999 1345.03 Q526.196 1347.33 525.001 1348.34 Q523.807 1349.34 523.455 1349.34 Q522.987 1349.34 522.987 1348.87 Z" fill="#000000" fill-rule="nonzero" fill-opacity="1" /></svg>
