<?xml version="1.0" encoding="utf-8"?>
<svg xmlns="http://www.w3.org/2000/svg" xmlns:xlink="http://www.w3.org/1999/xlink" width="600" height="400" viewBox="0 0 2400 1600">
<defs>
  <clipPath id="clip080">
    <rect x="0" y="0" width="2400" height="1600"/>
  </clipPath>
</defs>
<path clip-path="url(#clip080)" d="M0 1600 L2400 1600 L2400 0 L0 0  Z" fill="#ffffff" fill-rule="evenodd" fill-opacity="1"/>
<defs>
  <clipPath id="clip081">
    <rect x="480" y="0" width="1681" height="1600"/>
  </clipPath>
</defs>
<path clip-path="url(#clip080)" d="M212.135 1423.18 L2352.76 1423.18 L2352.76 47.2441 L212.135 47.2441  Z" fill="#ffffff" fill-rule="evenodd" fill-opacity="1"/>
<defs>
  <clipPath id="clip082">
    <rect x="212" y="47" width="2142" height="1377"/>
  </clipPath>
</defs>
<polyline clip-path="url(#clip082)" style="stroke:#000000; stroke-linecap:round; stroke-linejoin:round; stroke-width:2; stroke-opacity:0.1; fill:none" points="272.718,1423.18 272.718,47.2441 "/>
<polyline clip-path="url(#clip082)" style="stroke:#000000; stroke-linecap:round; stroke-linejoin:round; stroke-width:2; stroke-opacity:0.1; fill:none" points="884.674,1423.18 884.674,47.2441 "/>
<polyline clip-path="url(#clip082)" style="stroke:#000000; stroke-linecap:round; stroke-linejoin:round; stroke-width:2; stroke-opacity:0.1; fill:none" points="1496.63,1423.18 1496.63,47.2441 "/>
<polyline clip-path="url(#clip082)" style="stroke:#000000; stroke-linecap:round; stroke-linejoin:round; stroke-width:2; stroke-opacity:0.1; fill:none" points="2108.59,1423.18 2108.59,47.2441 "/>
<polyline clip-path="url(#clip080)" style="stroke:#000000; stroke-linecap:round; stroke-linejoin:round; stroke-width:4; stroke-opacity:1; fill:none" points="212.135,1423.18 2352.76,1423.18 "/>
<polyline clip-path="url(#clip080)" style="stroke:#000000; stroke-linecap:round; stroke-linejoin:round; stroke-width:4; stroke-opacity:1; fill:none" points="272.718,1423.18 272.718,1404.28 "/>
<polyline clip-path="url(#clip080)" style="stroke:#000000; stroke-linecap:round; stroke-linejoin:round; stroke-width:4; stroke-opacity:1; fill:none" points="884.674,1423.18 884.674,1404.28 "/>
<polyline clip-path="url(#clip080)" style="stroke:#000000; stroke-linecap:round; stroke-linejoin:round; stroke-width:4; stroke-opacity:1; fill:none" points="1496.63,1423.18 1496.63,1404.28 "/>
<polyline clip-path="url(#clip080)" style="stroke:#000000; stroke-linecap:round; stroke-linejoin:round; stroke-width:4; stroke-opacity:1; fill:none" points="2108.59,1423.18 2108.59,1404.28 "/>
<path clip-path="url(#clip080)" d="M272.718 1454.1 Q269.107 1454.1 267.279 1457.66 Q265.473 1461.2 265.473 1468.33 Q265.473 1475.44 267.279 1479.01 Q269.107 1482.55 272.718 1482.55 Q276.353 1482.55 278.158 1479.01 Q279.987 1475.44 279.987 1468.33 Q279.987 1461.2 278.158 1457.66 Q276.353 1454.1 272.718 1454.1 M272.718 1450.39 Q278.529 1450.39 281.584 1455 Q284.663 1459.58 284.663 1468.33 Q284.663 1477.06 281.584 1481.67 Q278.529 1486.25 272.718 1486.25 Q266.908 1486.25 263.83 1481.67 Q260.774 1477.06 260.774 1468.33 Q260.774 1459.58 263.83 1455 Q266.908 1450.39 272.718 1450.39 Z" fill="#000000" fill-rule="nonzero" fill-opacity="1" /><path clip-path="url(#clip080)" d="M875.056 1481.64 L882.695 1481.64 L882.695 1455.28 L874.385 1456.95 L874.385 1452.69 L882.649 1451.02 L887.325 1451.02 L887.325 1481.64 L894.963 1481.64 L894.963 1485.58 L875.056 1485.58 L875.056 1481.64 Z" fill="#000000" fill-rule="nonzero" fill-opacity="1" /><path clip-path="url(#clip080)" d="M1491.28 1481.64 L1507.6 1481.64 L1507.6 1485.58 L1485.66 1485.58 L1485.66 1481.64 Q1488.32 1478.89 1492.9 1474.26 Q1497.51 1469.61 1498.69 1468.27 Q1500.94 1465.74 1501.82 1464.01 Q1502.72 1462.25 1502.72 1460.56 Q1502.72 1457.8 1500.77 1456.07 Q1498.85 1454.33 1495.75 1454.33 Q1493.55 1454.33 1491.1 1455.09 Q1488.67 1455.86 1485.89 1457.41 L1485.89 1452.69 Q1488.71 1451.55 1491.17 1450.97 Q1493.62 1450.39 1495.66 1450.39 Q1501.03 1450.39 1504.22 1453.08 Q1507.42 1455.77 1507.42 1460.26 Q1507.42 1462.39 1506.61 1464.31 Q1505.82 1466.2 1503.71 1468.8 Q1503.13 1469.47 1500.03 1472.69 Q1496.93 1475.88 1491.28 1481.64 Z" fill="#000000" fill-rule="nonzero" fill-opacity="1" /><path clip-path="url(#clip080)" d="M2112.83 1466.95 Q2116.19 1467.66 2118.06 1469.93 Q2119.96 1472.2 2119.96 1475.53 Q2119.96 1480.65 2116.44 1483.45 Q2112.93 1486.25 2106.44 1486.25 Q2104.27 1486.25 2101.95 1485.81 Q2099.66 1485.39 2097.21 1484.54 L2097.21 1480.02 Q2099.15 1481.16 2101.47 1481.74 Q2103.78 1482.32 2106.31 1482.32 Q2110.7 1482.32 2113 1480.58 Q2115.31 1478.84 2115.31 1475.53 Q2115.31 1472.48 2113.16 1470.77 Q2111.03 1469.03 2107.21 1469.03 L2103.18 1469.03 L2103.18 1465.19 L2107.39 1465.19 Q2110.84 1465.19 2112.67 1463.82 Q2114.5 1462.43 2114.5 1459.84 Q2114.5 1457.18 2112.6 1455.77 Q2110.73 1454.33 2107.21 1454.33 Q2105.29 1454.33 2103.09 1454.75 Q2100.89 1455.16 2098.25 1456.04 L2098.25 1451.88 Q2100.91 1451.14 2103.23 1450.77 Q2105.56 1450.39 2107.62 1450.39 Q2112.95 1450.39 2116.05 1452.83 Q2119.15 1455.23 2119.15 1459.35 Q2119.15 1462.22 2117.51 1464.21 Q2115.87 1466.18 2112.83 1466.95 Z" fill="#000000" fill-rule="nonzero" fill-opacity="1" /><path clip-path="url(#clip080)" d="M1290.92 1531.91 Q1290.92 1532.81 1290.5 1533.04 Q1290.08 1533.23 1288.92 1533.23 L1282.74 1533.23 L1277.84 1552.69 Q1277.45 1554.39 1277.45 1555.84 Q1277.45 1557.45 1277.94 1558.16 Q1278.45 1558.87 1279.52 1558.87 Q1281.61 1558.87 1283.86 1556.97 Q1286.15 1555.07 1288.08 1550.43 Q1288.34 1549.82 1288.47 1549.69 Q1288.63 1549.53 1289.05 1549.53 Q1289.85 1549.53 1289.85 1550.17 Q1289.85 1550.4 1289.4 1551.43 Q1288.98 1552.46 1288.05 1553.97 Q1287.15 1555.49 1285.96 1556.9 Q1284.8 1558.32 1283.03 1559.35 Q1281.25 1560.35 1279.35 1560.35 Q1276.68 1560.35 1274.97 1558.64 Q1273.3 1556.94 1273.3 1554.26 Q1273.3 1553.39 1273.98 1550.62 Q1274.65 1547.82 1278.32 1533.23 L1272.49 1533.23 Q1271.69 1533.23 1271.37 1533.2 Q1271.08 1533.17 1270.85 1533.01 Q1270.66 1532.81 1270.66 1532.43 Q1270.66 1531.82 1270.92 1531.56 Q1271.17 1531.27 1271.5 1531.24 Q1271.85 1531.17 1272.66 1531.17 L1278.84 1531.17 L1281.42 1520.71 Q1281.67 1519.67 1282.32 1519.09 Q1282.99 1518.48 1283.38 1518.42 Q1283.77 1518.32 1284.06 1518.32 Q1284.93 1518.32 1285.44 1518.81 Q1285.96 1519.26 1285.96 1520.09 Q1285.96 1520.54 1283.25 1531.17 L1289.05 1531.17 Q1289.79 1531.17 1290.08 1531.2 Q1290.4 1531.24 1290.66 1531.4 Q1290.92 1531.56 1290.92 1531.91 Z" fill="#000000" fill-rule="nonzero" fill-opacity="1" /><polyline clip-path="url(#clip082)" style="stroke:#000000; stroke-linecap:round; stroke-linejoin:round; stroke-width:2; stroke-opacity:0.1; fill:none" points="212.135,1314.93 2352.76,1314.93 "/>
<polyline clip-path="url(#clip082)" style="stroke:#000000; stroke-linecap:round; stroke-linejoin:round; stroke-width:2; stroke-opacity:0.1; fill:none" points="212.135,1059.02 2352.76,1059.02 "/>
<polyline clip-path="url(#clip082)" style="stroke:#000000; stroke-linecap:round; stroke-linejoin:round; stroke-width:2; stroke-opacity:0.1; fill:none" points="212.135,803.105 2352.76,803.105 "/>
<polyline clip-path="url(#clip082)" style="stroke:#000000; stroke-linecap:round; stroke-linejoin:round; stroke-width:2; stroke-opacity:0.1; fill:none" points="212.135,547.193 2352.76,547.193 "/>
<polyline clip-path="url(#clip082)" style="stroke:#000000; stroke-linecap:round; stroke-linejoin:round; stroke-width:2; stroke-opacity:0.1; fill:none" points="212.135,291.282 2352.76,291.282 "/>
<polyline clip-path="url(#clip080)" style="stroke:#000000; stroke-linecap:round; stroke-linejoin:round; stroke-width:4; stroke-opacity:1; fill:none" points="212.135,1423.18 212.135,47.2441 "/>
<polyline clip-path="url(#clip080)" style="stroke:#000000; stroke-linecap:round; stroke-linejoin:round; stroke-width:4; stroke-opacity:1; fill:none" points="212.135,1314.93 231.032,1314.93 "/>
<polyline clip-path="url(#clip080)" style="stroke:#000000; stroke-linecap:round; stroke-linejoin:round; stroke-width:4; stroke-opacity:1; fill:none" points="212.135,1059.02 231.032,1059.02 "/>
<polyline clip-path="url(#clip080)" style="stroke:#000000; stroke-linecap:round; stroke-linejoin:round; stroke-width:4; stroke-opacity:1; fill:none" points="212.135,803.105 231.032,803.105 "/>
<polyline clip-path="url(#clip080)" style="stroke:#000000; stroke-linecap:round; stroke-linejoin:round; stroke-width:4; stroke-opacity:1; fill:none" points="212.135,547.193 231.032,547.193 "/>
<polyline clip-path="url(#clip080)" style="stroke:#000000; stroke-linecap:round; stroke-linejoin:round; stroke-width:4; stroke-opacity:1; fill:none" points="212.135,291.282 231.032,291.282 "/>
<path clip-path="url(#clip080)" d="M114.26 1315.38 L143.936 1315.38 L143.936 1319.31 L114.26 1319.31 L114.26 1315.38 Z" fill="#000000" fill-rule="nonzero" fill-opacity="1" /><path clip-path="url(#clip080)" d="M164.607 1313.06 Q161.459 1313.06 159.607 1315.22 Q157.778 1317.37 157.778 1321.12 Q157.778 1324.85 159.607 1327.02 Q161.459 1329.18 164.607 1329.18 Q167.755 1329.18 169.584 1327.02 Q171.436 1324.85 171.436 1321.12 Q171.436 1317.37 169.584 1315.22 Q167.755 1313.06 164.607 1313.06 M173.889 1298.41 L173.889 1302.67 Q172.13 1301.84 170.325 1301.4 Q168.542 1300.96 166.783 1300.96 Q162.153 1300.96 159.7 1304.08 Q157.269 1307.21 156.922 1313.53 Q158.288 1311.51 160.348 1310.45 Q162.408 1309.36 164.885 1309.36 Q170.093 1309.36 173.102 1312.53 Q176.135 1315.68 176.135 1321.12 Q176.135 1326.44 172.987 1329.66 Q169.839 1332.88 164.607 1332.88 Q158.612 1332.88 155.44 1328.3 Q152.269 1323.69 152.269 1314.96 Q152.269 1306.77 156.158 1301.91 Q160.047 1297.02 166.598 1297.02 Q168.357 1297.02 170.139 1297.37 Q171.945 1297.72 173.889 1298.41 Z" fill="#000000" fill-rule="nonzero" fill-opacity="1" /><path clip-path="url(#clip080)" d="M115.07 1059.47 L144.746 1059.47 L144.746 1063.4 L115.07 1063.4 L115.07 1059.47 Z" fill="#000000" fill-rule="nonzero" fill-opacity="1" /><path clip-path="url(#clip080)" d="M169.005 1057.66 Q172.362 1058.38 174.237 1060.65 Q176.135 1062.92 176.135 1066.25 Q176.135 1071.37 172.616 1074.17 Q169.098 1076.97 162.616 1076.97 Q160.44 1076.97 158.126 1076.53 Q155.834 1076.11 153.38 1075.25 L153.38 1070.74 Q155.325 1071.88 157.64 1072.45 Q159.954 1073.03 162.477 1073.03 Q166.876 1073.03 169.167 1071.3 Q171.482 1069.56 171.482 1066.25 Q171.482 1063.19 169.329 1061.48 Q167.2 1059.75 163.38 1059.75 L159.353 1059.75 L159.353 1055.9 L163.565 1055.9 Q167.015 1055.9 168.843 1054.54 Q170.672 1053.15 170.672 1050.56 Q170.672 1047.89 168.774 1046.48 Q166.899 1045.05 163.38 1045.05 Q161.459 1045.05 159.26 1045.46 Q157.061 1045.88 154.422 1046.76 L154.422 1042.59 Q157.084 1041.85 159.399 1041.48 Q161.737 1041.11 163.797 1041.11 Q169.121 1041.11 172.223 1043.54 Q175.325 1045.95 175.325 1050.07 Q175.325 1052.94 173.681 1054.93 Q172.038 1056.9 169.005 1057.66 Z" fill="#000000" fill-rule="nonzero" fill-opacity="1" /><path clip-path="url(#clip080)" d="M164.19 788.904 Q160.579 788.904 158.751 792.468 Q156.945 796.01 156.945 803.14 Q156.945 810.246 158.751 813.811 Q160.579 817.353 164.19 817.353 Q167.825 817.353 169.63 813.811 Q171.459 810.246 171.459 803.14 Q171.459 796.01 169.63 792.468 Q167.825 788.904 164.19 788.904 M164.19 785.2 Q170.001 785.2 173.056 789.806 Q176.135 794.39 176.135 803.14 Q176.135 811.867 173.056 816.473 Q170.001 821.056 164.19 821.056 Q158.38 821.056 155.302 816.473 Q152.246 811.867 152.246 803.14 Q152.246 794.39 155.302 789.806 Q158.38 785.2 164.19 785.2 Z" fill="#000000" fill-rule="nonzero" fill-opacity="1" /><path clip-path="url(#clip080)" d="M169.005 545.839 Q172.362 546.557 174.237 548.825 Q176.135 551.094 176.135 554.427 Q176.135 559.543 172.616 562.344 Q169.098 565.145 162.616 565.145 Q160.44 565.145 158.126 564.705 Q155.834 564.288 153.38 563.432 L153.38 558.918 Q155.325 560.052 157.64 560.631 Q159.954 561.209 162.477 561.209 Q166.876 561.209 169.167 559.473 Q171.482 557.737 171.482 554.427 Q171.482 551.372 169.329 549.659 Q167.2 547.922 163.38 547.922 L159.353 547.922 L159.353 544.08 L163.565 544.08 Q167.015 544.08 168.843 542.714 Q170.672 541.325 170.672 538.733 Q170.672 536.071 168.774 534.659 Q166.899 533.223 163.38 533.223 Q161.459 533.223 159.26 533.64 Q157.061 534.057 154.422 534.936 L154.422 530.77 Q157.084 530.029 159.399 529.659 Q161.737 529.288 163.797 529.288 Q169.121 529.288 172.223 531.719 Q175.325 534.126 175.325 538.247 Q175.325 541.117 173.681 543.108 Q172.038 545.075 169.005 545.839 Z" fill="#000000" fill-rule="nonzero" fill-opacity="1" /><path clip-path="url(#clip080)" d="M164.607 289.418 Q161.459 289.418 159.607 291.571 Q157.778 293.724 157.778 297.474 Q157.778 301.201 159.607 303.376 Q161.459 305.529 164.607 305.529 Q167.755 305.529 169.584 303.376 Q171.436 301.201 171.436 297.474 Q171.436 293.724 169.584 291.571 Q167.755 289.418 164.607 289.418 M173.889 274.766 L173.889 279.025 Q172.13 278.191 170.325 277.752 Q168.542 277.312 166.783 277.312 Q162.153 277.312 159.7 280.437 Q157.269 283.562 156.922 289.881 Q158.288 287.867 160.348 286.803 Q162.408 285.715 164.885 285.715 Q170.093 285.715 173.102 288.886 Q176.135 292.034 176.135 297.474 Q176.135 302.798 172.987 306.015 Q169.839 309.233 164.607 309.233 Q158.612 309.233 155.44 304.65 Q152.269 300.043 152.269 291.316 Q152.269 283.122 156.158 278.261 Q160.047 273.377 166.598 273.377 Q168.357 273.377 170.139 273.724 Q171.945 274.071 173.889 274.766 Z" fill="#000000" fill-rule="nonzero" fill-opacity="1" /><path clip-path="url(#clip080)" d="M28.0459 797.441 Q28.4968 797.441 29.5596 797.731 L54.7446 804.043 Q60.3484 805.428 64.2775 809.937 Q68.2067 814.413 68.2067 819.502 Q68.2067 822.561 66.5642 824.526 Q64.9539 826.49 62.474 826.49 Q60.284 826.49 59.2212 825.331 Q58.1906 824.172 58.1906 822.787 Q58.1906 822.336 58.3195 821.853 Q58.4483 821.37 58.9958 820.854 Q59.5433 820.339 60.4772 820.339 Q61.9909 820.339 63.1825 821.66 Q63.73 822.304 63.8589 822.916 Q63.9877 823.495 63.9877 824.494 Q64.8894 824.107 65.5014 823.399 Q66.1133 822.69 66.3387 821.885 Q66.5964 821.08 66.6608 820.565 Q66.7574 820.017 66.7574 819.502 Q66.7574 815.379 62.6028 812.223 Q61.3468 811.289 60.0908 810.613 Q58.867 809.904 57.3533 809.389 Q55.8718 808.874 55.0667 808.648 Q54.2615 808.391 52.4258 807.94 Q55.4209 810.935 55.4209 814.606 Q55.4209 816.152 55.0022 817.537 Q54.5836 818.89 53.714 820.081 Q52.8122 821.273 51.2342 821.982 Q49.6561 822.658 47.5627 822.658 Q45.3405 822.658 42.3131 821.788 Q39.2858 820.919 33.7142 818.825 Q30.5902 817.698 29.0765 817.698 Q28.3358 817.698 27.8849 817.859 Q27.4018 818.02 27.2408 818.342 Q27.0476 818.664 27.0154 818.858 Q26.9831 819.019 26.9831 819.341 Q26.9831 821.241 28.9155 823.012 Q30.8479 824.783 35.1634 826.007 Q35.9686 826.265 36.1618 826.426 Q36.3551 826.587 36.3551 827.07 Q36.3228 827.875 35.6787 827.875 Q35.4211 827.875 34.4227 827.585 Q33.3921 827.296 31.8784 826.619 Q30.3326 825.911 28.9477 824.944 Q27.5306 823.978 26.5323 822.465 Q25.5339 820.919 25.5339 819.147 Q25.5339 816.732 27.112 815.251 Q28.6579 813.737 30.9445 813.737 Q31.8784 813.737 32.7158 813.995 Q33.5209 814.22 35.6787 815.057 Q44.3743 818.439 48.6255 818.439 Q49.6561 818.439 50.5256 818.278 Q51.363 818.085 52.2003 817.666 Q53.0055 817.247 53.4886 816.41 Q53.9395 815.54 53.9395 814.349 Q53.9395 812.835 53.2309 811.418 Q52.4902 809.969 51.4918 809.067 Q50.4934 808.133 49.6561 807.586 Q48.7865 807.006 48.3356 806.877 L36.4839 803.914 L31.2021 802.594 Q28.3358 801.982 27.6273 801.692 Q26.9509 801.305 26.5967 800.629 Q26.2424 799.953 26.2424 799.373 Q26.2424 798.568 26.7255 798.02 Q27.2086 797.441 28.0459 797.441 Z" fill="#000000" fill-rule="nonzero" fill-opacity="1" /><path clip-path="url(#clip080)" d="M44.6642 777.578 Q43.859 777.514 43.859 776.258 L43.859 735.84 Q43.859 733.939 44.5998 733.907 Q45.4049 733.907 45.3727 735.711 L45.3727 775.807 Q45.4049 777.578 44.6642 777.578 M31.7818 777.578 Q30.9767 777.578 31.0089 776.194 L31.0089 735.904 Q31.0089 733.939 31.7818 733.907 Q32.5226 733.907 32.5226 735.582 L32.5226 776.258 Q32.5226 777.578 31.7818 777.578 Z" fill="#000000" fill-rule="nonzero" fill-opacity="1" /><path clip-path="url(#clip080)" d="M45.2439 674.549 Q49.3984 675.386 51.7817 676.513 Q55.4209 678.349 55.4209 681.409 Q55.4209 683.534 54.2293 685.144 Q53.0055 686.723 50.9765 687.27 Q51.7817 687.882 52.3292 688.429 Q52.8767 688.945 53.714 689.943 Q54.5192 690.942 54.97 692.294 Q55.4209 693.615 55.4209 695.128 Q55.4209 696.288 55.1955 697.35 Q55.0022 698.413 54.4547 699.54 Q53.875 700.635 53.0055 701.441 Q52.1359 702.214 50.7189 702.729 Q49.3018 703.244 47.4983 703.244 Q45.2439 703.244 42.1843 702.375 Q39.1248 701.473 33.6498 699.412 Q30.7512 698.284 29.1409 698.284 Q28.4002 698.284 27.9171 698.445 Q27.434 698.607 27.273 698.929 Q27.0798 699.218 27.0476 699.412 Q26.9831 699.605 26.9831 699.927 Q26.9831 701.924 29.0121 703.663 Q31.0411 705.402 35.1634 706.594 Q35.9686 706.851 36.1618 707.012 Q36.3551 707.173 36.3551 707.656 Q36.3228 708.462 35.6787 708.462 Q35.4211 708.462 34.4227 708.172 Q33.3921 707.882 31.8784 707.205 Q30.3326 706.497 28.9477 705.531 Q27.5306 704.565 26.5323 703.051 Q25.5339 701.505 25.5339 699.734 Q25.5339 697.318 27.112 695.837 Q28.6579 694.323 30.9445 694.323 Q32.3615 694.323 35.099 695.45 Q44.5998 699.025 48.5611 699.025 Q53.9395 699.025 53.9395 694.935 Q53.9395 693.582 53.392 692.326 Q52.8445 691.038 52.0715 690.201 Q51.2986 689.363 50.4612 688.719 Q49.6239 688.043 49.0764 687.753 Q48.5289 687.431 48.4 687.399 L28.5612 682.471 Q27.7883 682.278 27.273 681.924 Q26.7255 681.537 26.5323 681.087 Q26.339 680.636 26.3068 680.378 Q26.2424 680.12 26.2424 679.895 Q26.2424 679.09 26.7255 678.542 Q27.2086 677.963 28.0459 677.963 Q28.207 677.963 28.9799 678.156 Q29.7206 678.317 30.8156 678.574 Q31.8784 678.832 32.4581 678.961 Q36.5161 679.992 36.9348 680.088 L44.0523 681.924 Q44.4709 682.021 45.8236 682.343 Q47.1762 682.632 47.8848 682.793 Q48.5611 682.954 49.495 683.116 Q50.3968 683.244 50.9121 683.244 Q52.5224 683.244 53.2309 682.761 Q53.9395 682.278 53.9395 681.215 Q53.9395 680.217 53.2631 679.444 Q52.5546 678.639 51.202 678.027 Q49.8171 677.415 48.6899 677.061 Q47.5627 676.707 45.7914 676.256 Q45.0184 676.095 44.8252 675.966 Q44.5998 675.805 44.5998 675.354 Q44.5998 674.549 45.2439 674.549 Z" fill="#000000" fill-rule="nonzero" fill-opacity="1" /><path clip-path="url(#clip080)" d="M73.6911 667.843 Q72.857 667.843 72.609 667.776 Q72.361 667.686 71.9778 667.325 L62.1035 658.465 Q56.6478 653.618 51.891 653.618 Q48.8024 653.618 46.5931 655.241 Q44.3838 656.842 44.3838 659.795 Q44.3838 661.824 45.6237 663.537 Q46.8636 665.251 49.073 666.04 Q49.0279 665.905 49.0279 665.431 Q49.0279 664.281 49.7493 663.65 Q50.4707 662.996 51.4401 662.996 Q52.68 662.996 53.2887 663.808 Q53.8749 664.597 53.8749 665.386 Q53.8749 665.702 53.8072 666.13 Q53.7396 666.536 53.1084 667.19 Q52.4546 667.843 51.3048 667.843 Q48.081 667.843 45.511 665.409 Q42.941 662.951 42.941 659.209 Q42.941 654.971 45.4659 652.198 Q47.9683 649.402 51.891 649.402 Q53.2662 649.402 54.5286 649.831 Q55.7686 650.236 56.738 650.8 Q57.7074 651.341 59.2629 652.829 Q60.8184 654.317 61.9231 655.512 Q63.0278 656.707 65.3724 659.389 L70.1292 664.281 L70.1292 655.963 Q70.1292 651.905 69.7685 651.589 Q69.1147 651.138 65.6654 650.575 L65.6654 649.402 L73.6911 650.71 L73.6911 667.843 Z" fill="#000000" fill-rule="nonzero" fill-opacity="1" /><circle clip-path="url(#clip082)" cx="272.718" cy="717.801" r="14.4" fill="#009af9" fill-rule="evenodd" fill-opacity="1" stroke="#000000" stroke-opacity="1" stroke-width="3.2"/>
<circle clip-path="url(#clip082)" cx="456.305" cy="359.089" r="14.4" fill="#009af9" fill-rule="evenodd" fill-opacity="1" stroke="#000000" stroke-opacity="1" stroke-width="3.2"/>
<circle clip-path="url(#clip082)" cx="639.892" cy="175.014" r="14.4" fill="#009af9" fill-rule="evenodd" fill-opacity="1" stroke="#000000" stroke-opacity="1" stroke-width="3.2"/>
<circle clip-path="url(#clip082)" cx="823.479" cy="94.9697" r="14.4" fill="#009af9" fill-rule="evenodd" fill-opacity="1" stroke="#000000" stroke-opacity="1" stroke-width="3.2"/>
<circle clip-path="url(#clip082)" cx="1007.07" cy="95.8978" r="14.4" fill="#009af9" fill-rule="evenodd" fill-opacity="1" stroke="#000000" stroke-opacity="1" stroke-width="3.2"/>
<circle clip-path="url(#clip082)" cx="1190.65" cy="167.419" r="14.4" fill="#009af9" fill-rule="evenodd" fill-opacity="1" stroke="#000000" stroke-opacity="1" stroke-width="3.2"/>
<circle clip-path="url(#clip082)" cx="1374.24" cy="298.048" r="14.4" fill="#009af9" fill-rule="evenodd" fill-opacity="1" stroke="#000000" stroke-opacity="1" stroke-width="3.2"/>
<circle clip-path="url(#clip082)" cx="1557.83" cy="473.17" r="14.4" fill="#009af9" fill-rule="evenodd" fill-opacity="1" stroke="#000000" stroke-opacity="1" stroke-width="3.2"/>
<circle clip-path="url(#clip082)" cx="1741.41" cy="678.715" r="14.4" fill="#009af9" fill-rule="evenodd" fill-opacity="1" stroke="#000000" stroke-opacity="1" stroke-width="3.2"/>
<circle clip-path="url(#clip082)" cx="1925" cy="903.667" r="14.4" fill="#009af9" fill-rule="evenodd" fill-opacity="1" stroke="#000000" stroke-opacity="1" stroke-width="3.2"/>
<circle clip-path="url(#clip082)" cx="2108.59" cy="1140.45" r="14.4" fill="#009af9" fill-rule="evenodd" fill-opacity="1" stroke="#000000" stroke-opacity="1" stroke-width="3.2"/>
<circle clip-path="url(#clip082)" cx="2292.17" cy="1384.24" r="14.4" fill="#009af9" fill-rule="evenodd" fill-opacity="1" stroke="#000000" stroke-opacity="1" stroke-width="3.2"/>
<circle clip-path="url(#clip082)" cx="1741.41" cy="678.715" r="14.4" fill="#e26f46" fill-rule="evenodd" fill-opacity="1" stroke="#000000" stroke-opacity="1" stroke-width="3.2"/>
<circle clip-path="url(#clip082)" cx="1925" cy="903.667" r="14.4" fill="#e26f46" fill-rule="evenodd" fill-opacity="1" stroke="#000000" stroke-opacity="1" stroke-width="3.2"/>
<circle clip-path="url(#clip082)" cx="1844.43" cy="803.109" r="14.4" fill="#3da44d" fill-rule="evenodd" fill-opacity="1" stroke="#000000" stroke-opacity="1" stroke-width="3.2"/>
<polyline clip-path="url(#clip082)" style="stroke:#ac8d18; stroke-linecap:round; stroke-linejoin:round; stroke-width:4; stroke-opacity:1; fill:none" points="272.718,717.801 275.277,710.708 277.835,703.692 280.393,696.751 282.951,689.887 294.778,659.108 306.605,629.85 318.432,602.036 330.259,575.593 342.086,550.443 353.913,526.512 365.74,503.725 377.567,482.005 391.782,457.207 405.998,433.712 420.213,411.389 434.428,390.108 446.446,372.831 458.465,356.128 470.484,340.048 482.503,324.625 495.558,308.595 508.614,293.296 521.67,278.706 534.725,264.802 546.761,252.571 558.798,240.885 570.834,229.728 582.87,219.079 595.774,208.209 608.678,197.882 621.582,188.076 634.486,178.769 649.437,168.589 664.387,159.057 679.338,150.164 694.288,141.9 720.861,128.726 747.434,117.436 770.736,109.036 794.037,101.994 819.443,95.8116 844.848,91.15 870.404,87.9811 895.96,86.3129 924.216,86.1857 952.472,87.8294 979.356,91.007 1006.24,95.7289 1034.19,102.252 1062.15,110.39 1085.68,118.463 1109.21,127.626 1137.94,140.257 1166.67,154.433 1192.99,168.738 1219.3,184.264 1243.61,199.65 1267.92,216.005 1292.54,233.524 1317.16,251.962 1344.75,273.676 1372.35,296.447 1397.35,317.953 1422.35,340.247 1450.98,366.695 1479.61,394.073 1506.12,420.204 1532.62,447.041 1558.76,474.147 1584.89,501.859 1610.26,529.315 1635.64,557.282 1661.65,586.451 1687.66,616.094 1716.15,649.075 1744.65,682.543 1786.05,731.959 1827.45,782.245 1835.94,792.661 1844.43,803.109 "/>
<path clip-path="url(#clip080)" d="M1462.8 352.309 L2281.4 352.309 L2281.4 93.1086 L1462.8 93.1086  Z" fill="#ffffff" fill-rule="evenodd" fill-opacity="1"/>
<polyline clip-path="url(#clip080)" style="stroke:#000000; stroke-linecap:round; stroke-linejoin:round; stroke-width:4; stroke-opacity:1; fill:none" points="1462.8,352.309 2281.4,352.309 2281.4,93.1086 1462.8,93.1086 1462.8,352.309 "/>
<circle clip-path="url(#clip080)" cx="1557.94" cy="144.949" r="20.48" fill="#009af9" fill-rule="evenodd" fill-opacity="1" stroke="#000000" stroke-opacity="1" stroke-width="4.55111"/>
<path clip-path="url(#clip080)" d="M1657.36 158.34 L1657.36 172.09 L1653.08 172.09 L1653.08 136.303 L1657.36 136.303 L1657.36 140.238 Q1658.7 137.923 1660.74 136.812 Q1662.8 135.678 1665.65 135.678 Q1670.37 135.678 1673.31 139.428 Q1676.27 143.178 1676.27 149.289 Q1676.27 155.4 1673.31 159.15 Q1670.37 162.9 1665.65 162.9 Q1662.8 162.9 1660.74 161.789 Q1658.7 160.655 1657.36 158.34 M1671.85 149.289 Q1671.85 144.59 1669.9 141.928 Q1667.98 139.243 1664.6 139.243 Q1661.22 139.243 1659.28 141.928 Q1657.36 144.59 1657.36 149.289 Q1657.36 153.988 1659.28 156.673 Q1661.22 159.335 1664.6 159.335 Q1667.98 159.335 1669.9 156.673 Q1671.85 153.988 1671.85 149.289 Z" fill="#000000" fill-rule="nonzero" fill-opacity="1" /><path clip-path="url(#clip080)" d="M1698.35 140.284 Q1697.64 139.868 1696.78 139.682 Q1695.95 139.474 1694.93 139.474 Q1691.32 139.474 1689.37 141.835 Q1687.45 144.173 1687.45 148.571 L1687.45 162.229 L1683.17 162.229 L1683.17 136.303 L1687.45 136.303 L1687.45 140.331 Q1688.79 137.969 1690.95 136.835 Q1693.1 135.678 1696.18 135.678 Q1696.62 135.678 1697.15 135.747 Q1697.68 135.794 1698.33 135.909 L1698.35 140.284 Z" fill="#000000" fill-rule="nonzero" fill-opacity="1" /><path clip-path="url(#clip080)" d="M1702.82 136.303 L1707.08 136.303 L1707.08 162.229 L1702.82 162.229 L1702.82 136.303 M1702.82 126.21 L1707.08 126.21 L1707.08 131.604 L1702.82 131.604 L1702.82 126.21 Z" fill="#000000" fill-rule="nonzero" fill-opacity="1" /><path clip-path="url(#clip080)" d="M1734.6 149.289 Q1734.6 144.59 1732.66 141.928 Q1730.74 139.243 1727.36 139.243 Q1723.98 139.243 1722.03 141.928 Q1720.11 144.59 1720.11 149.289 Q1720.11 153.988 1722.03 156.673 Q1723.98 159.335 1727.36 159.335 Q1730.74 159.335 1732.66 156.673 Q1734.6 153.988 1734.6 149.289 M1720.11 140.238 Q1721.46 137.923 1723.49 136.812 Q1725.55 135.678 1728.4 135.678 Q1733.12 135.678 1736.06 139.428 Q1739.02 143.178 1739.02 149.289 Q1739.02 155.4 1736.06 159.15 Q1733.12 162.9 1728.4 162.9 Q1725.55 162.9 1723.49 161.789 Q1721.46 160.655 1720.11 158.34 L1720.11 162.229 L1715.83 162.229 L1715.83 126.21 L1720.11 126.21 L1720.11 140.238 Z" fill="#000000" fill-rule="nonzero" fill-opacity="1" /><path clip-path="url(#clip080)" d="M1746.08 126.21 L1750.34 126.21 L1750.34 162.229 L1746.08 162.229 L1746.08 126.21 Z" fill="#000000" fill-rule="nonzero" fill-opacity="1" /><path clip-path="url(#clip080)" d="M1759.26 136.303 L1763.52 136.303 L1763.52 162.229 L1759.26 162.229 L1759.26 136.303 M1759.26 126.21 L1763.52 126.21 L1763.52 131.604 L1759.26 131.604 L1759.26 126.21 Z" fill="#000000" fill-rule="nonzero" fill-opacity="1" /><path clip-path="url(#clip080)" d="M1770.58 136.303 L1790.81 136.303 L1790.81 140.192 L1774.79 158.826 L1790.81 158.826 L1790.81 162.229 L1770 162.229 L1770 158.34 L1786.02 139.706 L1770.58 139.706 L1770.58 136.303 M1778.72 133.016 L1773.05 124.312 L1776.27 124.312 L1780.44 129.983 L1784.6 124.312 L1787.82 124.312 L1782.15 133.016 L1778.72 133.016 Z" fill="#000000" fill-rule="nonzero" fill-opacity="1" /><path clip-path="url(#clip080)" d="M1797.15 126.21 L1801.43 126.21 L1801.43 147.483 L1814.14 136.303 L1819.58 136.303 L1805.83 148.432 L1820.16 162.229 L1814.6 162.229 L1801.43 149.567 L1801.43 162.229 L1797.15 162.229 L1797.15 126.21 Z" fill="#000000" fill-rule="nonzero" fill-opacity="1" /><path clip-path="url(#clip080)" d="M1824.76 136.303 L1829.02 136.303 L1829.02 162.229 L1824.76 162.229 L1824.76 136.303 M1824.76 126.21 L1829.02 126.21 L1829.02 131.604 L1824.76 131.604 L1824.76 126.21 Z" fill="#000000" fill-rule="nonzero" fill-opacity="1" /><path clip-path="url(#clip080)" d="M1851.15 136.303 L1871.39 136.303 L1871.39 140.192 L1855.37 158.826 L1871.39 158.826 L1871.39 162.229 L1850.57 162.229 L1850.57 158.34 L1866.59 139.706 L1851.15 139.706 L1851.15 136.303 Z" fill="#000000" fill-rule="nonzero" fill-opacity="1" /><path clip-path="url(#clip080)" d="M1889.67 149.196 Q1884.51 149.196 1882.52 150.377 Q1880.53 151.557 1880.53 154.405 Q1880.53 156.673 1882.01 158.016 Q1883.51 159.335 1886.08 159.335 Q1889.63 159.335 1891.76 156.835 Q1893.91 154.312 1893.91 150.145 L1893.91 149.196 L1889.67 149.196 M1898.17 147.437 L1898.17 162.229 L1893.91 162.229 L1893.91 158.293 Q1892.45 160.655 1890.27 161.789 Q1888.1 162.9 1884.95 162.9 Q1880.97 162.9 1878.61 160.678 Q1876.27 158.432 1876.27 154.682 Q1876.27 150.307 1879.19 148.085 Q1882.13 145.863 1887.94 145.863 L1893.91 145.863 L1893.91 145.446 Q1893.91 142.507 1891.96 140.909 Q1890.04 139.289 1886.55 139.289 Q1884.32 139.289 1882.22 139.821 Q1880.11 140.354 1878.17 141.419 L1878.17 137.483 Q1880.51 136.581 1882.7 136.141 Q1884.9 135.678 1886.99 135.678 Q1892.61 135.678 1895.39 138.594 Q1898.17 141.511 1898.17 147.437 Z" fill="#000000" fill-rule="nonzero" fill-opacity="1" /><path clip-path="url(#clip080)" d="M1937.03 140.284 Q1936.32 139.868 1935.46 139.682 Q1934.63 139.474 1933.61 139.474 Q1930 139.474 1928.05 141.835 Q1926.13 144.173 1926.13 148.571 L1926.13 162.229 L1921.85 162.229 L1921.85 136.303 L1926.13 136.303 L1926.13 140.331 Q1927.47 137.969 1929.63 136.835 Q1931.78 135.678 1934.86 135.678 Q1935.3 135.678 1935.83 135.747 Q1936.36 135.794 1937.01 135.909 L1937.03 140.284 Z" fill="#000000" fill-rule="nonzero" fill-opacity="1" /><path clip-path="url(#clip080)" d="M1962.63 148.201 L1962.63 150.284 L1943.05 150.284 Q1943.33 154.682 1945.69 156.997 Q1948.07 159.289 1952.31 159.289 Q1954.76 159.289 1957.06 158.687 Q1959.37 158.085 1961.64 156.881 L1961.64 160.909 Q1959.35 161.881 1956.94 162.391 Q1954.53 162.9 1952.06 162.9 Q1945.85 162.9 1942.22 159.289 Q1938.61 155.678 1938.61 149.52 Q1938.61 143.155 1942.03 139.428 Q1945.48 135.678 1951.32 135.678 Q1956.55 135.678 1959.58 139.057 Q1962.63 142.414 1962.63 148.201 M1958.38 146.951 Q1958.33 143.456 1956.41 141.372 Q1954.51 139.289 1951.36 139.289 Q1947.8 139.289 1945.64 141.303 Q1943.51 143.317 1943.19 146.974 L1958.38 146.951 Z" fill="#000000" fill-rule="nonzero" fill-opacity="1" /><path clip-path="url(#clip080)" d="M1986.15 137.067 L1986.15 141.094 Q1984.35 140.169 1982.4 139.706 Q1980.46 139.243 1978.38 139.243 Q1975.2 139.243 1973.61 140.215 Q1972.03 141.187 1972.03 143.131 Q1972.03 144.613 1973.17 145.469 Q1974.3 146.303 1977.73 147.067 L1979.19 147.391 Q1983.72 148.363 1985.62 150.145 Q1987.54 151.905 1987.54 155.076 Q1987.54 158.687 1984.67 160.793 Q1981.82 162.9 1976.82 162.9 Q1974.74 162.9 1972.47 162.483 Q1970.23 162.09 1967.73 161.28 L1967.73 156.881 Q1970.09 158.108 1972.38 158.733 Q1974.67 159.335 1976.92 159.335 Q1979.93 159.335 1981.55 158.317 Q1983.17 157.275 1983.17 155.4 Q1983.17 153.664 1981.99 152.738 Q1980.83 151.812 1976.87 150.956 L1975.39 150.608 Q1971.43 149.775 1969.67 148.062 Q1967.91 146.326 1967.91 143.317 Q1967.91 139.659 1970.5 137.669 Q1973.1 135.678 1977.87 135.678 Q1980.23 135.678 1982.31 136.025 Q1984.39 136.372 1986.15 137.067 M1976.29 133.016 L1970.62 124.312 L1973.84 124.312 L1978 129.983 L1982.17 124.312 L1985.39 124.312 L1979.72 133.016 L1976.29 133.016 M1977.91 135.678 L1977.91 135.678 Z" fill="#000000" fill-rule="nonzero" fill-opacity="1" /><path clip-path="url(#clip080)" d="M1994.32 136.303 L1998.58 136.303 L1998.58 162.229 L1994.32 162.229 L1994.32 136.303 M1994.32 126.21 L1998.58 126.21 L1998.58 131.604 L1994.32 131.604 L1994.32 126.21 Z" fill="#000000" fill-rule="nonzero" fill-opacity="1" /><path clip-path="url(#clip080)" d="M2011.71 128.942 L2011.71 136.303 L2020.48 136.303 L2020.48 139.613 L2011.71 139.613 L2011.71 153.687 Q2011.71 156.858 2012.56 157.761 Q2013.44 158.664 2016.11 158.664 L2020.48 158.664 L2020.48 162.229 L2016.11 162.229 Q2011.18 162.229 2009.3 160.4 Q2007.43 158.548 2007.43 153.687 L2007.43 139.613 L2004.3 139.613 L2004.3 136.303 L2007.43 136.303 L2007.43 128.942 L2011.71 128.942 Z" fill="#000000" fill-rule="nonzero" fill-opacity="1" /><path clip-path="url(#clip080)" d="M2048.26 148.201 L2048.26 150.284 L2028.68 150.284 Q2028.95 154.682 2031.31 156.997 Q2033.7 159.289 2037.94 159.289 Q2040.39 159.289 2042.68 158.687 Q2045 158.085 2047.26 156.881 L2047.26 160.909 Q2044.97 161.881 2042.56 162.391 Q2040.16 162.9 2037.68 162.9 Q2031.48 162.9 2027.84 159.289 Q2024.23 155.678 2024.23 149.52 Q2024.23 143.155 2027.66 139.428 Q2031.11 135.678 2036.94 135.678 Q2042.17 135.678 2045.2 139.057 Q2048.26 142.414 2048.26 148.201 M2044 146.951 Q2043.95 143.456 2042.03 141.372 Q2040.13 139.289 2036.99 139.289 Q2033.42 139.289 2031.27 141.303 Q2029.14 143.317 2028.81 146.974 L2044 146.951 Z" fill="#000000" fill-rule="nonzero" fill-opacity="1" /><path clip-path="url(#clip080)" d="M2052.19 136.303 L2056.71 136.303 L2064.81 158.062 L2072.91 136.303 L2077.43 136.303 L2067.7 162.229 L2061.92 162.229 L2052.19 136.303 Z" fill="#000000" fill-rule="nonzero" fill-opacity="1" /><circle clip-path="url(#clip080)" cx="1557.94" cy="196.789" r="20.48" fill="#e26f46" fill-rule="evenodd" fill-opacity="1" stroke="#000000" stroke-opacity="1" stroke-width="4.55111"/>
<path clip-path="url(#clip080)" d="M1653.08 188.143 L1657.34 188.143 L1657.34 214.069 L1653.08 214.069 L1653.08 188.143 M1653.08 178.05 L1657.34 178.05 L1657.34 183.444 L1653.08 183.444 L1653.08 178.05 Z" fill="#000000" fill-rule="nonzero" fill-opacity="1" /><path clip-path="url(#clip080)" d="M1687.8 198.421 L1687.8 214.069 L1683.54 214.069 L1683.54 198.559 Q1683.54 194.879 1682.1 193.05 Q1680.67 191.222 1677.8 191.222 Q1674.35 191.222 1672.36 193.421 Q1670.37 195.62 1670.37 199.416 L1670.37 214.069 L1666.09 214.069 L1666.09 188.143 L1670.37 188.143 L1670.37 192.171 Q1671.9 189.833 1673.96 188.675 Q1676.04 187.518 1678.75 187.518 Q1683.21 187.518 1685.51 190.296 Q1687.8 193.05 1687.8 198.421 Z" fill="#000000" fill-rule="nonzero" fill-opacity="1" /><path clip-path="url(#clip080)" d="M1700.51 180.782 L1700.51 188.143 L1709.28 188.143 L1709.28 191.453 L1700.51 191.453 L1700.51 205.527 Q1700.51 208.698 1701.36 209.601 Q1702.24 210.504 1704.9 210.504 L1709.28 210.504 L1709.28 214.069 L1704.9 214.069 Q1699.97 214.069 1698.1 212.24 Q1696.22 210.388 1696.22 205.527 L1696.22 191.453 L1693.1 191.453 L1693.1 188.143 L1696.22 188.143 L1696.22 180.782 L1700.51 180.782 Z" fill="#000000" fill-rule="nonzero" fill-opacity="1" /><path clip-path="url(#clip080)" d="M1737.06 200.041 L1737.06 202.124 L1717.47 202.124 Q1717.75 206.522 1720.11 208.837 Q1722.5 211.129 1726.73 211.129 Q1729.19 211.129 1731.48 210.527 Q1733.79 209.925 1736.06 208.721 L1736.06 212.749 Q1733.77 213.721 1731.36 214.231 Q1728.96 214.74 1726.48 214.74 Q1720.27 214.74 1716.64 211.129 Q1713.03 207.518 1713.03 201.36 Q1713.03 194.995 1716.46 191.268 Q1719.9 187.518 1725.74 187.518 Q1730.97 187.518 1734 190.897 Q1737.06 194.254 1737.06 200.041 M1732.8 198.791 Q1732.75 195.296 1730.83 193.212 Q1728.93 191.129 1725.78 191.129 Q1722.22 191.129 1720.07 193.143 Q1717.94 195.157 1717.61 198.814 L1732.8 198.791 Z" fill="#000000" fill-rule="nonzero" fill-opacity="1" /><path clip-path="url(#clip080)" d="M1759.07 192.124 Q1758.35 191.708 1757.5 191.522 Q1756.66 191.314 1755.64 191.314 Q1752.03 191.314 1750.09 193.675 Q1748.17 196.013 1748.17 200.411 L1748.17 214.069 L1743.89 214.069 L1743.89 188.143 L1748.17 188.143 L1748.17 192.171 Q1749.51 189.809 1751.66 188.675 Q1753.82 187.518 1756.89 187.518 Q1757.33 187.518 1757.87 187.587 Q1758.4 187.634 1759.05 187.749 L1759.07 192.124 Z" fill="#000000" fill-rule="nonzero" fill-opacity="1" /><path clip-path="url(#clip080)" d="M1760.48 188.143 L1765 188.143 L1773.1 209.902 L1781.2 188.143 L1785.71 188.143 L1775.99 214.069 L1770.2 214.069 L1760.48 188.143 Z" fill="#000000" fill-rule="nonzero" fill-opacity="1" /><path clip-path="url(#clip080)" d="M1803.38 201.036 Q1798.21 201.036 1796.22 202.217 Q1794.23 203.397 1794.23 206.245 Q1794.23 208.513 1795.71 209.856 Q1797.22 211.175 1799.79 211.175 Q1803.33 211.175 1805.46 208.675 Q1807.61 206.152 1807.61 201.985 L1807.61 201.036 L1803.38 201.036 M1811.87 199.277 L1811.87 214.069 L1807.61 214.069 L1807.61 210.133 Q1806.15 212.495 1803.98 213.629 Q1801.8 214.74 1798.65 214.74 Q1794.67 214.74 1792.31 212.518 Q1789.97 210.272 1789.97 206.522 Q1789.97 202.147 1792.89 199.925 Q1795.83 197.703 1801.64 197.703 L1807.61 197.703 L1807.61 197.286 Q1807.61 194.347 1805.67 192.749 Q1803.75 191.129 1800.25 191.129 Q1798.03 191.129 1795.92 191.661 Q1793.82 192.194 1791.87 193.259 L1791.87 189.323 Q1794.21 188.421 1796.41 187.981 Q1798.61 187.518 1800.69 187.518 Q1806.32 187.518 1809.09 190.434 Q1811.87 193.351 1811.87 199.277 Z" fill="#000000" fill-rule="nonzero" fill-opacity="1" /><path clip-path="url(#clip080)" d="M1820.64 178.05 L1824.9 178.05 L1824.9 214.069 L1820.64 214.069 L1820.64 178.05 Z" fill="#000000" fill-rule="nonzero" fill-opacity="1" /><path clip-path="url(#clip080)" d="M1847.03 188.143 L1867.26 188.143 L1867.26 192.032 L1851.25 210.666 L1867.26 210.666 L1867.26 214.069 L1846.45 214.069 L1846.45 210.18 L1862.47 191.546 L1847.03 191.546 L1847.03 188.143 Z" fill="#000000" fill-rule="nonzero" fill-opacity="1" /><path clip-path="url(#clip080)" d="M1910.39 198.421 L1910.39 214.069 L1906.13 214.069 L1906.13 198.559 Q1906.13 194.879 1904.7 193.05 Q1903.26 191.222 1900.39 191.222 Q1896.94 191.222 1894.95 193.421 Q1892.96 195.62 1892.96 199.416 L1892.96 214.069 L1888.68 214.069 L1888.68 188.143 L1892.96 188.143 L1892.96 192.171 Q1894.49 189.833 1896.55 188.675 Q1898.63 187.518 1901.34 187.518 Q1905.81 187.518 1908.1 190.296 Q1910.39 193.05 1910.39 198.421 Z" fill="#000000" fill-rule="nonzero" fill-opacity="1" /><path clip-path="url(#clip080)" d="M1918.88 188.143 L1923.14 188.143 L1923.14 214.069 L1918.88 214.069 L1918.88 188.143 M1918.88 178.05 L1923.14 178.05 L1923.14 183.444 L1918.88 183.444 L1918.88 178.05 Z" fill="#000000" fill-rule="nonzero" fill-opacity="1" /><path clip-path="url(#clip080)" d="M1950.71 189.138 L1950.71 193.12 Q1948.91 192.124 1947.08 191.638 Q1945.27 191.129 1943.42 191.129 Q1939.28 191.129 1936.99 193.768 Q1934.69 196.384 1934.69 201.129 Q1934.69 205.874 1936.99 208.513 Q1939.28 211.129 1943.42 211.129 Q1945.27 211.129 1947.08 210.643 Q1948.91 210.133 1950.71 209.138 L1950.71 213.073 Q1948.93 213.907 1947.01 214.323 Q1945.11 214.74 1942.96 214.74 Q1937.1 214.74 1933.65 211.059 Q1930.2 207.379 1930.2 201.129 Q1930.2 194.786 1933.68 191.152 Q1937.17 187.518 1943.24 187.518 Q1945.2 187.518 1947.08 187.935 Q1948.95 188.328 1950.71 189.138 M1940.9 184.856 L1935.23 176.152 L1938.44 176.152 L1942.61 181.823 L1946.78 176.152 L1950 176.152 L1944.32 184.856 L1940.9 184.856 Z" fill="#000000" fill-rule="nonzero" fill-opacity="1" /><path clip-path="url(#clip080)" d="M1958.12 178.05 L1962.38 178.05 L1962.38 214.069 L1958.12 214.069 L1958.12 178.05 Z" fill="#000000" fill-rule="nonzero" fill-opacity="1" /><path clip-path="url(#clip080)" d="M1981.34 191.129 Q1977.91 191.129 1975.92 193.814 Q1973.93 196.476 1973.93 201.129 Q1973.93 205.782 1975.9 208.467 Q1977.89 211.129 1981.34 211.129 Q1984.74 211.129 1986.73 208.444 Q1988.72 205.758 1988.72 201.129 Q1988.72 196.522 1986.73 193.837 Q1984.74 191.129 1981.34 191.129 M1981.34 187.518 Q1986.89 187.518 1990.06 191.129 Q1993.24 194.74 1993.24 201.129 Q1993.24 207.495 1990.06 211.129 Q1986.89 214.74 1981.34 214.74 Q1975.76 214.74 1972.59 211.129 Q1969.44 207.495 1969.44 201.129 Q1969.44 194.74 1972.59 191.129 Q1975.76 187.518 1981.34 187.518 Z" fill="#000000" fill-rule="nonzero" fill-opacity="1" /><circle clip-path="url(#clip080)" cx="1557.94" cy="248.629" r="20.48" fill="#3da44d" fill-rule="evenodd" fill-opacity="1" stroke="#000000" stroke-opacity="1" stroke-width="4.55111"/>
<path clip-path="url(#clip080)" d="M1674.79 248.543 L1674.79 264.191 L1670.53 264.191 L1670.53 248.682 Q1670.53 245.001 1669.09 243.173 Q1667.66 241.344 1664.79 241.344 Q1661.34 241.344 1659.35 243.543 Q1657.36 245.742 1657.36 249.538 L1657.36 264.191 L1653.08 264.191 L1653.08 238.265 L1657.36 238.265 L1657.36 242.293 Q1658.89 239.955 1660.95 238.798 Q1663.03 237.64 1665.74 237.64 Q1670.21 237.64 1672.5 240.418 Q1674.79 243.173 1674.79 248.543 Z" fill="#000000" fill-rule="nonzero" fill-opacity="1" /><path clip-path="url(#clip080)" d="M1683.28 238.265 L1687.54 238.265 L1687.54 264.191 L1683.28 264.191 L1683.28 238.265 M1683.28 228.173 L1687.54 228.173 L1687.54 233.566 L1683.28 233.566 L1683.28 228.173 Z" fill="#000000" fill-rule="nonzero" fill-opacity="1" /><path clip-path="url(#clip080)" d="M1715.11 239.261 L1715.11 243.242 Q1713.31 242.247 1711.48 241.761 Q1709.67 241.251 1707.82 241.251 Q1703.68 241.251 1701.39 243.89 Q1699.09 246.506 1699.09 251.251 Q1699.09 255.997 1701.39 258.636 Q1703.68 261.251 1707.82 261.251 Q1709.67 261.251 1711.48 260.765 Q1713.31 260.256 1715.11 259.261 L1715.11 263.196 Q1713.33 264.029 1711.41 264.446 Q1709.51 264.862 1707.36 264.862 Q1701.5 264.862 1698.05 261.182 Q1694.6 257.501 1694.6 251.251 Q1694.6 244.909 1698.08 241.275 Q1701.57 237.64 1707.64 237.64 Q1709.6 237.64 1711.48 238.057 Q1713.35 238.451 1715.11 239.261 M1705.3 234.978 L1699.63 226.275 L1702.84 226.275 L1707.01 231.946 L1711.18 226.275 L1714.4 226.275 L1708.72 234.978 L1705.3 234.978 Z" fill="#000000" fill-rule="nonzero" fill-opacity="1" /><path clip-path="url(#clip080)" d="M1722.52 228.173 L1726.78 228.173 L1726.78 264.191 L1722.52 264.191 L1722.52 228.173 Z" fill="#000000" fill-rule="nonzero" fill-opacity="1" /><path clip-path="url(#clip080)" d="M1747.47 251.159 Q1742.31 251.159 1740.32 252.339 Q1738.33 253.52 1738.33 256.367 Q1738.33 258.636 1739.81 259.978 Q1741.32 261.298 1743.89 261.298 Q1747.43 261.298 1749.56 258.798 Q1751.71 256.274 1751.71 252.108 L1751.71 251.159 L1747.47 251.159 M1755.97 249.4 L1755.97 264.191 L1751.71 264.191 L1751.71 260.256 Q1750.25 262.617 1748.08 263.751 Q1745.9 264.862 1742.75 264.862 Q1738.77 264.862 1736.41 262.64 Q1734.07 260.395 1734.07 256.645 Q1734.07 252.27 1736.99 250.048 Q1739.93 247.825 1745.74 247.825 L1751.71 247.825 L1751.71 247.409 Q1751.71 244.469 1749.77 242.872 Q1747.84 241.251 1744.35 241.251 Q1742.13 241.251 1740.02 241.784 Q1737.91 242.316 1735.97 243.381 L1735.97 239.446 Q1738.31 238.543 1740.51 238.103 Q1742.71 237.64 1744.79 237.64 Q1750.41 237.64 1753.19 240.557 Q1755.97 243.474 1755.97 249.4 Z" fill="#000000" fill-rule="nonzero" fill-opacity="1" /><path clip-path="url(#clip080)" d="M1790.08 244.048 Q1790.08 244.704 1789.77 244.868 Q1789.47 245.008 1788.62 245.008 L1784.13 245.008 L1780.57 259.155 Q1780.29 260.397 1780.29 261.451 Q1780.29 262.622 1780.64 263.137 Q1781.01 263.652 1781.79 263.652 Q1783.31 263.652 1784.95 262.27 Q1786.61 260.889 1788.02 257.516 Q1788.2 257.071 1788.3 256.977 Q1788.41 256.86 1788.72 256.86 Q1789.3 256.86 1789.3 257.328 Q1789.3 257.492 1788.98 258.242 Q1788.67 258.991 1787.99 260.092 Q1787.34 261.193 1786.47 262.224 Q1785.63 263.254 1784.34 264.004 Q1783.05 264.73 1781.67 264.73 Q1779.72 264.73 1778.48 263.488 Q1777.26 262.247 1777.26 260.303 Q1777.26 259.671 1777.76 257.656 Q1778.25 255.619 1780.92 245.008 L1776.68 245.008 Q1776.09 245.008 1775.86 244.985 Q1775.65 244.961 1775.48 244.844 Q1775.34 244.704 1775.34 244.423 Q1775.34 243.978 1775.53 243.79 Q1775.72 243.579 1775.95 243.556 Q1776.21 243.509 1776.8 243.509 L1781.29 243.509 L1783.17 235.897 Q1783.35 235.147 1783.82 234.726 Q1784.31 234.281 1784.6 234.234 Q1784.88 234.164 1785.09 234.164 Q1785.72 234.164 1786.09 234.515 Q1786.47 234.843 1786.47 235.452 Q1786.47 235.78 1784.5 243.509 L1788.72 243.509 Q1789.26 243.509 1789.47 243.533 Q1789.7 243.556 1789.89 243.673 Q1790.08 243.79 1790.08 244.048 Z" fill="#000000" fill-rule="nonzero" fill-opacity="1" /><path clip-path="url(#clip080)" d="M1805.79 256.907 Q1805.84 256.321 1806.75 256.321 L1836.14 256.321 Q1837.53 256.321 1837.55 256.86 Q1837.55 257.445 1836.24 257.422 L1807.08 257.422 Q1805.79 257.445 1805.79 256.907 M1805.79 247.538 Q1805.79 246.952 1806.8 246.976 L1836.1 246.976 Q1837.53 246.976 1837.55 247.538 Q1837.55 248.076 1836.33 248.076 L1806.75 248.076 Q1805.79 248.076 1805.79 247.538 Z" fill="#000000" fill-rule="nonzero" fill-opacity="1" /><path clip-path="url(#clip080)" d="M1856.04 264.191 Q1856.04 263.324 1856.11 263.067 Q1856.2 262.809 1856.58 262.411 L1865.78 252.152 Q1870.82 246.484 1870.82 241.542 Q1870.82 238.333 1869.13 236.037 Q1867.47 233.742 1864.4 233.742 Q1862.29 233.742 1860.51 235.03 Q1858.73 236.318 1857.91 238.614 Q1858.05 238.567 1858.55 238.567 Q1859.74 238.567 1860.4 239.316 Q1861.08 240.066 1861.08 241.073 Q1861.08 242.361 1860.23 242.994 Q1859.41 243.603 1858.59 243.603 Q1858.27 243.603 1857.82 243.533 Q1857.4 243.462 1856.72 242.806 Q1856.04 242.127 1856.04 240.933 Q1856.04 237.583 1858.57 234.913 Q1861.12 232.243 1865.01 232.243 Q1869.41 232.243 1872.3 234.866 Q1875.2 237.466 1875.2 241.542 Q1875.2 242.97 1874.75 244.282 Q1874.33 245.57 1873.75 246.577 Q1873.19 247.585 1871.64 249.201 Q1870.09 250.817 1868.85 251.965 Q1867.61 253.112 1864.82 255.548 L1859.74 260.49 L1868.38 260.49 Q1872.6 260.49 1872.93 260.116 Q1873.4 259.436 1873.98 255.853 L1875.2 255.853 L1873.84 264.191 L1856.04 264.191 Z" fill="#000000" fill-rule="nonzero" fill-opacity="1" /><path clip-path="url(#clip080)" d="M1880.52 263.418 Q1879.79 262.645 1879.79 261.638 Q1879.79 260.631 1880.52 259.905 Q1881.24 259.155 1882.34 259.155 Q1883.4 259.155 1884.1 259.858 Q1884.83 260.537 1884.83 261.661 Q1884.83 262.762 1884.05 263.488 Q1883.3 264.191 1882.34 264.191 Q1881.24 264.191 1880.52 263.418 Z" fill="#000000" fill-rule="nonzero" fill-opacity="1" /><path clip-path="url(#clip080)" d="M1892.99 256.462 Q1892.99 255.033 1893.76 254.494 Q1894.53 253.932 1895.35 253.932 Q1896.45 253.932 1897.09 254.635 Q1897.74 255.314 1897.74 256.274 Q1897.74 257.235 1897.09 257.937 Q1896.45 258.617 1895.35 258.617 Q1894.81 258.617 1894.53 258.523 Q1895.17 260.725 1897.09 262.317 Q1899.03 263.91 1901.58 263.91 Q1904.79 263.91 1906.71 260.795 Q1907.86 258.781 1907.86 254.213 Q1907.86 250.184 1906.99 248.17 Q1905.66 245.102 1902.92 245.102 Q1899.03 245.102 1896.73 248.451 Q1896.45 248.873 1896.13 248.896 Q1895.66 248.896 1895.54 248.639 Q1895.45 248.358 1895.45 247.631 L1895.45 233.437 Q1895.45 232.29 1895.91 232.29 Q1896.1 232.29 1896.5 232.43 Q1899.52 233.765 1902.87 233.789 Q1906.31 233.789 1909.41 232.383 Q1909.64 232.243 1909.78 232.243 Q1910.25 232.243 1910.27 232.782 Q1910.27 232.969 1909.87 233.531 Q1909.5 234.07 1908.68 234.796 Q1907.86 235.499 1906.81 236.178 Q1905.75 236.857 1904.21 237.326 Q1902.68 237.771 1901 237.771 Q1898.98 237.771 1896.92 237.138 L1896.92 246.484 Q1899.4 244.048 1903.01 244.048 Q1906.85 244.048 1909.5 247.14 Q1912.15 250.231 1912.15 254.541 Q1912.15 259.062 1909.01 262.153 Q1905.89 265.245 1901.68 265.245 Q1897.84 265.245 1895.4 262.505 Q1892.99 259.764 1892.99 256.462 Z" fill="#000000" fill-rule="nonzero" fill-opacity="1" /><path clip-path="url(#clip080)" d="M1916.93 249.037 Q1916.93 241.495 1920.77 236.881 Q1924.61 232.243 1929.55 232.243 Q1932.43 232.243 1934.03 233.719 Q1935.64 235.171 1935.64 237.419 Q1935.64 238.661 1934.92 239.199 Q1934.19 239.738 1933.44 239.738 Q1932.58 239.738 1931.9 239.153 Q1931.22 238.567 1931.22 237.513 Q1931.22 235.358 1933.86 235.358 Q1932.62 233.437 1929.65 233.437 Q1928.73 233.437 1927.8 233.719 Q1926.86 233.976 1925.64 234.866 Q1924.42 235.756 1923.49 237.162 Q1922.55 238.567 1921.89 241.214 Q1921.24 243.86 1921.24 247.304 L1921.24 248.451 Q1923.21 243.696 1927.24 243.72 Q1931.26 243.72 1934.05 246.788 Q1936.84 249.857 1936.84 254.401 Q1936.84 259.062 1933.93 262.153 Q1931.03 265.245 1926.95 265.245 Q1925.13 265.245 1923.46 264.472 Q1921.82 263.723 1920.28 261.989 Q1918.76 260.256 1917.84 256.93 Q1916.93 253.604 1916.93 249.037 M1921.33 253.347 Q1921.33 258.054 1922.2 260.303 Q1922.34 260.678 1922.64 261.193 Q1922.97 261.708 1923.51 262.388 Q1924.07 263.043 1924.99 263.488 Q1925.9 263.91 1926.95 263.91 Q1930.16 263.91 1931.71 260.795 Q1932.53 259.062 1932.53 254.354 Q1932.53 249.552 1931.66 247.795 Q1930.19 244.821 1927.19 244.821 Q1925.17 244.821 1923.77 246.203 Q1922.39 247.585 1921.85 249.435 Q1921.33 251.285 1921.33 253.347 Z" fill="#000000" fill-rule="nonzero" fill-opacity="1" /><path clip-path="url(#clip080)" d="M1940.87 256.954 Q1940.87 251.59 1947.78 248.123 Q1944.81 246.109 1944.27 245.523 Q1942.16 243.181 1942.16 240.253 Q1942.16 236.904 1944.69 234.585 Q1947.24 232.243 1950.85 232.243 Q1954.29 232.243 1956.89 234.234 Q1959.49 236.225 1959.49 239.387 Q1959.49 243.837 1953.68 246.835 Q1957.52 249.224 1958.44 250.231 Q1960.78 252.831 1960.78 256.134 Q1960.78 259.975 1957.83 262.622 Q1954.88 265.245 1950.8 265.245 Q1946.82 265.245 1943.85 262.926 Q1940.87 260.607 1940.87 256.954 M1943.26 256.954 Q1943.26 259.928 1945.49 261.919 Q1947.73 263.91 1950.85 263.91 Q1953.87 263.91 1956.12 262.177 Q1958.39 260.444 1958.39 257.867 Q1958.39 256.86 1958.04 255.993 Q1957.71 255.127 1957.03 254.447 Q1956.38 253.745 1955.96 253.44 Q1955.56 253.112 1954.78 252.574 L1948.88 248.849 Q1943.26 251.965 1943.26 256.954 M1944.27 238.38 Q1944.27 240.675 1946.68 242.268 L1952.63 246.109 Q1957.38 243.322 1957.38 239.387 Q1957.38 236.834 1955.44 235.147 Q1953.5 233.437 1950.8 233.437 Q1948.16 233.437 1946.21 234.843 Q1944.27 236.225 1944.27 238.38 Z" fill="#000000" fill-rule="nonzero" fill-opacity="1" /><path clip-path="url(#clip080)" d="M1964.62 257.727 Q1964.62 256.298 1965.44 255.619 Q1966.26 254.939 1967.31 254.939 Q1968.42 254.939 1969.19 255.665 Q1969.98 256.368 1969.98 257.609 Q1969.98 258.944 1969.05 259.694 Q1968.13 260.444 1966.82 260.256 Q1967.97 262.177 1970.08 263.043 Q1972.21 263.91 1974.18 263.91 Q1976.24 263.91 1977.9 262.13 Q1979.59 260.35 1979.59 255.993 Q1979.59 252.293 1978.14 250.161 Q1976.71 248.03 1973.87 248.03 L1971.77 248.03 Q1971.04 248.03 1970.83 247.959 Q1970.62 247.889 1970.62 247.491 Q1970.62 247.022 1971.34 246.929 Q1972.07 246.929 1973.22 246.788 Q1976 246.695 1977.48 244.282 Q1978.82 242.033 1978.82 238.825 Q1978.82 235.897 1977.41 234.679 Q1976.03 233.437 1974.22 233.437 Q1972.54 233.437 1970.69 234.14 Q1968.84 234.843 1967.83 236.412 Q1970.8 236.412 1970.8 238.825 Q1970.8 239.879 1970.13 240.581 Q1969.47 241.261 1968.37 241.261 Q1967.31 241.261 1966.61 240.605 Q1965.91 239.925 1965.91 238.778 Q1965.91 236.037 1968.35 234.14 Q1970.8 232.243 1974.41 232.243 Q1977.97 232.243 1980.6 234.117 Q1983.24 235.99 1983.24 238.871 Q1983.24 241.706 1981.37 244.024 Q1979.49 246.343 1976.52 247.304 Q1980.17 248.03 1982.35 250.512 Q1984.53 252.972 1984.53 255.993 Q1984.53 259.741 1981.58 262.505 Q1978.63 265.245 1974.32 265.245 Q1970.34 265.245 1967.48 263.09 Q1964.62 260.935 1964.62 257.727 Z" fill="#000000" fill-rule="nonzero" fill-opacity="1" /><path clip-path="url(#clip080)" d="M1985.48 256.274 L1985.48 254.799 L2000.21 232.29 Q2000.59 231.704 2001.17 231.728 Q2001.71 231.728 2001.83 231.938 Q2001.94 232.149 2001.94 232.969 L2001.94 254.799 L2006.75 254.799 L2006.75 256.274 L2001.94 256.274 L2001.94 260.444 Q2001.94 261.825 2002.51 262.27 Q2003.09 262.716 2005.57 262.716 L2006.58 262.716 L2006.58 264.191 Q2004.61 264.051 2000.07 264.051 Q1995.55 264.051 1993.58 264.191 L1993.58 262.716 L1994.59 262.716 Q1997.07 262.716 1997.66 262.294 Q1998.24 261.849 1998.24 260.444 L1998.24 256.274 L1985.48 256.274 M1986.84 254.799 L1998.52 254.799 L1998.52 236.904 L1986.84 254.799 Z" fill="#000000" fill-rule="nonzero" fill-opacity="1" /><path clip-path="url(#clip080)" d="M2010.57 256.462 Q2010.57 255.033 2011.35 254.494 Q2012.12 253.932 2012.94 253.932 Q2014.04 253.932 2014.67 254.635 Q2015.33 255.314 2015.33 256.274 Q2015.33 257.235 2014.67 257.937 Q2014.04 258.617 2012.94 258.617 Q2012.4 258.617 2012.12 258.523 Q2012.75 260.725 2014.67 262.317 Q2016.62 263.91 2019.17 263.91 Q2022.38 263.91 2024.3 260.795 Q2025.45 258.781 2025.45 254.213 Q2025.45 250.184 2024.58 248.17 Q2023.24 245.102 2020.5 245.102 Q2016.62 245.102 2014.32 248.451 Q2014.04 248.873 2013.71 248.896 Q2013.24 248.896 2013.13 248.639 Q2013.03 248.358 2013.03 247.631 L2013.03 233.437 Q2013.03 232.29 2013.5 232.29 Q2013.69 232.29 2014.09 232.43 Q2017.11 233.765 2020.46 233.789 Q2023.9 233.789 2026.99 232.383 Q2027.23 232.243 2027.37 232.243 Q2027.83 232.243 2027.86 232.782 Q2027.86 232.969 2027.46 233.531 Q2027.09 234.07 2026.27 234.796 Q2025.45 235.499 2024.39 236.178 Q2023.34 236.857 2021.79 237.326 Q2020.27 237.771 2018.58 237.771 Q2016.57 237.771 2014.51 237.138 L2014.51 246.484 Q2016.99 244.048 2020.6 244.048 Q2024.44 244.048 2027.09 247.14 Q2029.73 250.231 2029.73 254.541 Q2029.73 259.062 2026.59 262.153 Q2023.48 265.245 2019.26 265.245 Q2015.42 265.245 2012.98 262.505 Q2010.57 259.764 2010.57 256.462 Z" fill="#000000" fill-rule="nonzero" fill-opacity="1" /><path clip-path="url(#clip080)" d="M2032.28 241.635 L2033.85 231.774 L2035.05 231.774 Q2035.19 232.36 2035.42 232.618 Q2035.68 232.875 2037.04 233.086 Q2038.42 233.297 2041.21 233.297 L2052.85 233.297 Q2052.85 234.398 2052.43 234.983 L2045.94 244.095 Q2043.88 246.976 2042.96 252.293 Q2042.42 255.853 2042.45 260.162 L2042.45 262.598 Q2042.45 265.245 2040.22 265.245 Q2038.02 265.245 2038.02 262.598 Q2038.02 253.44 2043.92 244.563 Q2044.56 243.65 2046.87 240.394 Q2049.22 237.138 2049.31 236.998 L2039.38 236.998 Q2035.02 236.998 2034.67 237.279 Q2034.2 237.7 2033.48 241.635 L2032.28 241.635 Z" fill="#000000" fill-rule="nonzero" fill-opacity="1" /><path clip-path="url(#clip080)" d="M2051.96 256.462 Q2051.96 255.033 2052.73 254.494 Q2053.5 253.932 2054.32 253.932 Q2055.42 253.932 2056.06 254.635 Q2056.71 255.314 2056.71 256.274 Q2056.71 257.235 2056.06 257.937 Q2055.42 258.617 2054.32 258.617 Q2053.78 258.617 2053.5 258.523 Q2054.13 260.725 2056.06 262.317 Q2058 263.91 2060.55 263.91 Q2063.76 263.91 2065.68 260.795 Q2066.83 258.781 2066.83 254.213 Q2066.83 250.184 2065.96 248.17 Q2064.63 245.102 2061.89 245.102 Q2058 245.102 2055.7 248.451 Q2055.42 248.873 2055.09 248.896 Q2054.63 248.896 2054.51 248.639 Q2054.42 248.358 2054.42 247.631 L2054.42 233.437 Q2054.42 232.29 2054.88 232.29 Q2055.07 232.29 2055.47 232.43 Q2058.49 233.765 2061.84 233.789 Q2065.28 233.789 2068.38 232.383 Q2068.61 232.243 2068.75 232.243 Q2069.22 232.243 2069.24 232.782 Q2069.24 232.969 2068.84 233.531 Q2068.47 234.07 2067.65 234.796 Q2066.83 235.499 2065.78 236.178 Q2064.72 236.857 2063.18 237.326 Q2061.65 237.771 2059.97 237.771 Q2057.95 237.771 2055.89 237.138 L2055.89 246.484 Q2058.37 244.048 2061.98 244.048 Q2065.82 244.048 2068.47 247.14 Q2071.12 250.231 2071.12 254.541 Q2071.12 259.062 2067.98 262.153 Q2064.86 265.245 2060.65 265.245 Q2056.8 265.245 2054.37 262.505 Q2051.96 259.764 2051.96 256.462 Z" fill="#000000" fill-rule="nonzero" fill-opacity="1" /><path clip-path="url(#clip080)" d="M2075.9 248.849 Q2075.9 241.799 2077.68 237.958 Q2080.16 232.243 2086.02 232.243 Q2087.26 232.243 2088.55 232.594 Q2089.86 232.922 2091.5 234.21 Q2093.16 235.499 2094.17 237.607 Q2096.09 241.682 2096.09 248.849 Q2096.09 255.853 2094.31 259.671 Q2091.71 265.245 2085.97 265.245 Q2083.81 265.245 2081.61 264.144 Q2079.43 263.043 2078.05 260.397 Q2075.9 256.438 2075.9 248.849 M2079.88 248.264 Q2079.88 255.501 2080.4 258.382 Q2080.98 261.498 2082.57 262.856 Q2084.19 264.191 2085.97 264.191 Q2087.89 264.191 2089.48 262.762 Q2091.1 261.31 2091.59 258.195 Q2092.13 255.127 2092.11 248.264 Q2092.11 241.588 2091.64 238.918 Q2091.01 235.803 2089.32 234.562 Q2087.66 233.297 2085.97 233.297 Q2085.34 233.297 2084.66 233.484 Q2084 233.672 2083.04 234.21 Q2082.08 234.749 2081.33 236.084 Q2080.61 237.419 2080.25 239.434 Q2079.88 242.033 2079.88 248.264 Z" fill="#000000" fill-rule="nonzero" fill-opacity="1" /><path clip-path="url(#clip080)" d="M2099.84 248.849 Q2099.84 241.799 2101.62 237.958 Q2104.1 232.243 2109.96 232.243 Q2111.2 232.243 2112.49 232.594 Q2113.8 232.922 2115.44 234.21 Q2117.1 235.499 2118.11 237.607 Q2120.03 241.682 2120.03 248.849 Q2120.03 255.853 2118.25 259.671 Q2115.65 265.245 2109.91 265.245 Q2107.76 265.245 2105.56 264.144 Q2103.38 263.043 2102 260.397 Q2099.84 256.438 2099.84 248.849 M2103.82 248.264 Q2103.82 255.501 2104.34 258.382 Q2104.92 261.498 2106.52 262.856 Q2108.13 264.191 2109.91 264.191 Q2111.83 264.191 2113.43 262.762 Q2115.04 261.31 2115.53 258.195 Q2116.07 255.127 2116.05 248.264 Q2116.05 241.588 2115.58 238.918 Q2114.95 235.803 2113.26 234.562 Q2111.6 233.297 2109.91 233.297 Q2109.28 233.297 2108.6 233.484 Q2107.94 233.672 2106.98 234.21 Q2106.02 234.749 2105.27 236.084 Q2104.55 237.419 2104.2 239.434 Q2103.82 242.033 2103.82 248.264 Z" fill="#000000" fill-rule="nonzero" fill-opacity="1" /><path clip-path="url(#clip080)" d="M2122.14 236.81 L2122.14 235.311 Q2127.9 235.311 2130.87 232.243 Q2131.69 232.243 2131.83 232.43 Q2131.97 232.618 2131.97 233.484 L2131.97 260.397 Q2131.97 261.825 2132.68 262.27 Q2133.38 262.716 2136.45 262.716 L2137.97 262.716 L2137.97 264.191 Q2136.28 264.051 2130.19 264.051 Q2124.1 264.051 2122.44 264.191 L2122.44 262.716 L2123.96 262.716 Q2126.98 262.716 2127.71 262.294 Q2128.44 261.849 2128.44 260.397 L2128.44 235.545 Q2125.93 236.81 2122.14 236.81 Z" fill="#000000" fill-rule="nonzero" fill-opacity="1" /><path clip-path="url(#clip080)" d="M2140.28 248.849 Q2140.28 241.799 2142.06 237.958 Q2144.55 232.243 2150.4 232.243 Q2151.64 232.243 2152.93 232.594 Q2154.24 232.922 2155.88 234.21 Q2157.54 235.499 2158.55 237.607 Q2160.47 241.682 2160.47 248.849 Q2160.47 255.853 2158.69 259.671 Q2156.09 265.245 2150.35 265.245 Q2148.2 265.245 2146 264.144 Q2143.82 263.043 2142.44 260.397 Q2140.28 256.438 2140.28 248.849 M2144.26 248.264 Q2144.26 255.501 2144.78 258.382 Q2145.36 261.498 2146.96 262.856 Q2148.57 264.191 2150.35 264.191 Q2152.27 264.191 2153.87 262.762 Q2155.48 261.31 2155.98 258.195 Q2156.51 255.127 2156.49 248.264 Q2156.49 241.588 2156.02 238.918 Q2155.39 235.803 2153.7 234.562 Q2152.04 233.297 2150.35 233.297 Q2149.72 233.297 2149.04 233.484 Q2148.39 233.672 2147.43 234.21 Q2146.47 234.749 2145.72 236.084 Q2144.99 237.419 2144.64 239.434 Q2144.26 242.033 2144.26 248.264 Z" fill="#000000" fill-rule="nonzero" fill-opacity="1" /><path clip-path="url(#clip080)" d="M2164.22 248.849 Q2164.22 241.799 2166 237.958 Q2168.49 232.243 2174.34 232.243 Q2175.58 232.243 2176.87 232.594 Q2178.18 232.922 2179.82 234.21 Q2181.49 235.499 2182.49 237.607 Q2184.41 241.682 2184.41 248.849 Q2184.41 255.853 2182.63 259.671 Q2180.03 265.245 2174.3 265.245 Q2172.14 265.245 2169.94 264.144 Q2167.76 263.043 2166.38 260.397 Q2164.22 256.438 2164.22 248.849 M2168.21 248.264 Q2168.21 255.501 2168.72 258.382 Q2169.31 261.498 2170.9 262.856 Q2172.52 264.191 2174.3 264.191 Q2176.22 264.191 2177.81 262.762 Q2179.43 261.31 2179.92 258.195 Q2180.46 255.127 2180.43 248.264 Q2180.43 241.588 2179.96 238.918 Q2179.33 235.803 2177.65 234.562 Q2175.98 233.297 2174.3 233.297 Q2173.66 233.297 2172.98 233.484 Q2172.33 233.672 2171.37 234.21 Q2170.41 234.749 2169.66 236.084 Q2168.93 237.419 2168.58 239.434 Q2168.21 242.033 2168.21 248.264 Z" fill="#000000" fill-rule="nonzero" fill-opacity="1" /><path clip-path="url(#clip080)" d="M2184.83 256.274 L2184.83 254.799 L2199.56 232.29 Q2199.94 231.704 2200.52 231.728 Q2201.06 231.728 2201.18 231.938 Q2201.3 232.149 2201.3 232.969 L2201.3 254.799 L2206.1 254.799 L2206.1 256.274 L2201.3 256.274 L2201.3 260.444 Q2201.3 261.825 2201.86 262.27 Q2202.44 262.716 2204.93 262.716 L2205.93 262.716 L2205.93 264.191 Q2203.97 264.051 2199.42 264.051 Q2194.9 264.051 2192.94 264.191 L2192.94 262.716 L2193.94 262.716 Q2196.43 262.716 2197.01 262.294 Q2197.6 261.849 2197.6 260.444 L2197.6 256.274 L2184.83 256.274 M2186.19 254.799 L2197.88 254.799 L2197.88 236.904 L2186.19 254.799 Z" fill="#000000" fill-rule="nonzero" fill-opacity="1" /><path clip-path="url(#clip080)" d="M2209.93 256.462 Q2209.93 255.033 2210.7 254.494 Q2211.47 253.932 2212.29 253.932 Q2213.39 253.932 2214.02 254.635 Q2214.68 255.314 2214.68 256.274 Q2214.68 257.235 2214.02 257.937 Q2213.39 258.617 2212.29 258.617 Q2211.75 258.617 2211.47 258.523 Q2212.1 260.725 2214.02 262.317 Q2215.97 263.91 2218.52 263.91 Q2221.73 263.91 2223.65 260.795 Q2224.8 258.781 2224.8 254.213 Q2224.8 250.184 2223.93 248.17 Q2222.6 245.102 2219.86 245.102 Q2215.97 245.102 2213.67 248.451 Q2213.39 248.873 2213.06 248.896 Q2212.6 248.896 2212.48 248.639 Q2212.38 248.358 2212.38 247.631 L2212.38 233.437 Q2212.38 232.29 2212.85 232.29 Q2213.04 232.29 2213.44 232.43 Q2216.46 233.765 2219.81 233.789 Q2223.25 233.789 2226.34 232.383 Q2226.58 232.243 2226.72 232.243 Q2227.19 232.243 2227.21 232.782 Q2227.21 232.969 2226.81 233.531 Q2226.44 234.07 2225.62 234.796 Q2224.8 235.499 2223.74 236.178 Q2222.69 236.857 2221.14 237.326 Q2219.62 237.771 2217.94 237.771 Q2215.92 237.771 2213.86 237.138 L2213.86 246.484 Q2216.34 244.048 2219.95 244.048 Q2223.79 244.048 2226.44 247.14 Q2229.08 250.231 2229.08 254.541 Q2229.08 259.062 2225.95 262.153 Q2222.83 265.245 2218.61 265.245 Q2214.77 265.245 2212.34 262.505 Q2209.93 259.764 2209.93 256.462 Z" fill="#000000" fill-rule="nonzero" fill-opacity="1" /><path clip-path="url(#clip080)" d="M2233.87 256.462 Q2233.87 255.033 2234.64 254.494 Q2235.41 253.932 2236.23 253.932 Q2237.33 253.932 2237.97 254.635 Q2238.62 255.314 2238.62 256.274 Q2238.62 257.235 2237.97 257.937 Q2237.33 258.617 2236.23 258.617 Q2235.69 258.617 2235.41 258.523 Q2236.05 260.725 2237.97 262.317 Q2239.91 263.91 2242.46 263.91 Q2245.67 263.91 2247.59 260.795 Q2248.74 258.781 2248.74 254.213 Q2248.74 250.184 2247.87 248.17 Q2246.54 245.102 2243.8 245.102 Q2239.91 245.102 2237.61 248.451 Q2237.33 248.873 2237.01 248.896 Q2236.54 248.896 2236.42 248.639 Q2236.33 248.358 2236.33 247.631 L2236.33 233.437 Q2236.33 232.29 2236.79 232.29 Q2236.98 232.29 2237.38 232.43 Q2240.4 233.765 2243.75 233.789 Q2247.19 233.789 2250.29 232.383 Q2250.52 232.243 2250.66 232.243 Q2251.13 232.243 2251.15 232.782 Q2251.15 232.969 2250.75 233.531 Q2250.38 234.07 2249.56 234.796 Q2248.74 235.499 2247.69 236.178 Q2246.63 236.857 2245.09 237.326 Q2243.56 237.771 2241.88 237.771 Q2239.86 237.771 2237.8 237.138 L2237.8 246.484 Q2240.28 244.048 2243.89 244.048 Q2247.73 244.048 2250.38 247.14 Q2253.03 250.231 2253.03 254.541 Q2253.03 259.062 2249.89 262.153 Q2246.77 265.245 2242.56 265.245 Q2238.72 265.245 2236.28 262.505 Q2233.87 259.764 2233.87 256.462 Z" fill="#000000" fill-rule="nonzero" fill-opacity="1" /><polyline clip-path="url(#clip080)" style="stroke:#ac8d18; stroke-linecap:round; stroke-linejoin:round; stroke-width:4; stroke-opacity:1; fill:none" points="1486.58,300.469 1629.29,300.469 "/>
<path clip-path="url(#clip080)" d="M1653.08 283.189 L1657.75 283.189 L1657.75 297.355 L1674.74 297.355 L1674.74 283.189 L1679.42 283.189 L1679.42 317.749 L1674.74 317.749 L1674.74 301.29 L1657.75 301.29 L1657.75 317.749 L1653.08 317.749 L1653.08 283.189 Z" fill="#000000" fill-rule="nonzero" fill-opacity="1" /><path clip-path="url(#clip080)" d="M1710.71 303.721 L1710.71 305.804 L1691.13 305.804 Q1691.41 310.202 1693.77 312.517 Q1696.15 314.809 1700.39 314.809 Q1702.84 314.809 1705.14 314.207 Q1707.45 313.605 1709.72 312.401 L1709.72 316.429 Q1707.43 317.401 1705.02 317.911 Q1702.61 318.42 1700.14 318.42 Q1693.93 318.42 1690.3 314.809 Q1686.69 311.198 1686.69 305.04 Q1686.69 298.675 1690.11 294.948 Q1693.56 291.198 1699.4 291.198 Q1704.63 291.198 1707.66 294.577 Q1710.71 297.934 1710.71 303.721 M1706.46 302.471 Q1706.41 298.976 1704.49 296.892 Q1702.59 294.809 1699.44 294.809 Q1695.88 294.809 1693.72 296.823 Q1691.59 298.837 1691.27 302.494 L1706.46 302.471 Z" fill="#000000" fill-rule="nonzero" fill-opacity="1" /><path clip-path="url(#clip080)" d="M1732.73 295.804 Q1732.01 295.388 1731.15 295.202 Q1730.32 294.994 1729.3 294.994 Q1725.69 294.994 1723.75 297.355 Q1721.83 299.693 1721.83 304.091 L1721.83 317.749 L1717.54 317.749 L1717.54 291.823 L1721.83 291.823 L1721.83 295.851 Q1723.17 293.489 1725.32 292.355 Q1727.47 291.198 1730.55 291.198 Q1730.99 291.198 1731.52 291.267 Q1732.06 291.314 1732.71 291.429 L1732.73 295.804 Z" fill="#000000" fill-rule="nonzero" fill-opacity="1" /><path clip-path="url(#clip080)" d="M1756.55 296.8 Q1758.14 293.929 1760.37 292.564 Q1762.59 291.198 1765.6 291.198 Q1769.65 291.198 1771.85 294.045 Q1774.05 296.869 1774.05 302.101 L1774.05 317.749 L1769.77 317.749 L1769.77 302.239 Q1769.77 298.513 1768.45 296.707 Q1767.13 294.902 1764.42 294.902 Q1761.11 294.902 1759.19 297.101 Q1757.27 299.3 1757.27 303.096 L1757.27 317.749 L1752.98 317.749 L1752.98 302.239 Q1752.98 298.489 1751.66 296.707 Q1750.34 294.902 1747.59 294.902 Q1744.33 294.902 1742.4 297.124 Q1740.48 299.323 1740.48 303.096 L1740.48 317.749 L1736.2 317.749 L1736.2 291.823 L1740.48 291.823 L1740.48 295.851 Q1741.94 293.466 1743.98 292.332 Q1746.02 291.198 1748.82 291.198 Q1751.64 291.198 1753.61 292.633 Q1755.6 294.068 1756.55 296.8 Z" fill="#000000" fill-rule="nonzero" fill-opacity="1" /><path clip-path="url(#clip080)" d="M1782.54 291.823 L1786.8 291.823 L1786.8 317.749 L1782.54 317.749 L1782.54 291.823 M1782.54 281.73 L1786.8 281.73 L1786.8 287.124 L1782.54 287.124 L1782.54 281.73 Z" fill="#000000" fill-rule="nonzero" fill-opacity="1" /><path clip-path="url(#clip080)" d="M1799.93 284.462 L1799.93 291.823 L1808.7 291.823 L1808.7 295.133 L1799.93 295.133 L1799.93 309.207 Q1799.93 312.378 1800.78 313.281 Q1801.66 314.184 1804.33 314.184 L1808.7 314.184 L1808.7 317.749 L1804.33 317.749 Q1799.39 317.749 1797.52 315.92 Q1795.64 314.068 1795.64 309.207 L1795.64 295.133 L1792.52 295.133 L1792.52 291.823 L1795.64 291.823 L1795.64 284.462 L1799.93 284.462 Z" fill="#000000" fill-rule="nonzero" fill-opacity="1" /><path clip-path="url(#clip080)" d="M1824.35 294.809 Q1820.92 294.809 1818.93 297.494 Q1816.94 300.156 1816.94 304.809 Q1816.94 309.462 1818.91 312.147 Q1820.9 314.809 1824.35 314.809 Q1827.75 314.809 1829.74 312.124 Q1831.73 309.438 1831.73 304.809 Q1831.73 300.202 1829.74 297.517 Q1827.75 294.809 1824.35 294.809 M1824.35 291.198 Q1829.9 291.198 1833.08 294.809 Q1836.25 298.42 1836.25 304.809 Q1836.25 311.175 1833.08 314.809 Q1829.9 318.42 1824.35 318.42 Q1818.77 318.42 1815.6 314.809 Q1812.45 311.175 1812.45 304.809 Q1812.45 298.42 1815.6 294.809 Q1818.77 291.198 1824.35 291.198 Z" fill="#000000" fill-rule="nonzero" fill-opacity="1" /><path clip-path="url(#clip080)" d="M1840.25 291.823 L1844.76 291.823 L1852.87 313.582 L1860.97 291.823 L1865.48 291.823 L1855.76 317.749 L1849.97 317.749 L1840.25 291.823 Z" fill="#000000" fill-rule="nonzero" fill-opacity="1" /><path clip-path="url(#clip080)" d="M1884.58 291.823 L1904.81 291.823 L1904.81 295.712 L1888.79 314.346 L1904.81 314.346 L1904.81 317.749 L1884 317.749 L1884 313.86 L1900.02 295.226 L1884.58 295.226 L1884.58 291.823 Z" fill="#000000" fill-rule="nonzero" fill-opacity="1" /><path clip-path="url(#clip080)" d="M1911.32 281.73 L1915.57 281.73 L1915.57 317.749 L1911.32 317.749 L1911.32 281.73 Z" fill="#000000" fill-rule="nonzero" fill-opacity="1" /><path clip-path="url(#clip080)" d="M1946.66 303.721 L1946.66 305.804 L1927.08 305.804 Q1927.36 310.202 1929.72 312.517 Q1932.1 314.809 1936.34 314.809 Q1938.79 314.809 1941.08 314.207 Q1943.4 313.605 1945.67 312.401 L1945.67 316.429 Q1943.38 317.401 1940.97 317.911 Q1938.56 318.42 1936.08 318.42 Q1929.88 318.42 1926.25 314.809 Q1922.63 311.198 1922.63 305.04 Q1922.63 298.675 1926.06 294.948 Q1929.51 291.198 1935.34 291.198 Q1940.57 291.198 1943.61 294.577 Q1946.66 297.934 1946.66 303.721 M1942.4 302.471 Q1942.36 298.976 1940.44 296.892 Q1938.54 294.809 1935.39 294.809 Q1931.82 294.809 1929.67 296.823 Q1927.54 298.837 1927.22 302.494 L1942.4 302.471 Z" fill="#000000" fill-rule="nonzero" fill-opacity="1" /><path clip-path="url(#clip080)" d="M1957.77 313.86 L1957.77 327.61 L1953.49 327.61 L1953.49 291.823 L1957.77 291.823 L1957.77 295.758 Q1959.12 293.443 1961.15 292.332 Q1963.21 291.198 1966.06 291.198 Q1970.78 291.198 1973.72 294.948 Q1976.69 298.698 1976.69 304.809 Q1976.69 310.92 1973.72 314.67 Q1970.78 318.42 1966.06 318.42 Q1963.21 318.42 1961.15 317.309 Q1959.12 316.175 1957.77 313.86 M1972.26 304.809 Q1972.26 300.11 1970.32 297.448 Q1968.4 294.763 1965.02 294.763 Q1961.64 294.763 1959.69 297.448 Q1957.77 300.11 1957.77 304.809 Q1957.77 309.508 1959.69 312.193 Q1961.64 314.855 1965.02 314.855 Q1968.4 314.855 1970.32 312.193 Q1972.26 309.508 1972.26 304.809 Z" fill="#000000" fill-rule="nonzero" fill-opacity="1" /><path clip-path="url(#clip080)" d="M2005.92 303.721 L2005.92 305.804 L1986.34 305.804 Q1986.62 310.202 1988.98 312.517 Q1991.36 314.809 1995.6 314.809 Q1998.05 314.809 2000.34 314.207 Q2002.66 313.605 2004.93 312.401 L2004.93 316.429 Q2002.63 317.401 2000.23 317.911 Q1997.82 318.42 1995.34 318.42 Q1989.14 318.42 1985.5 314.809 Q1981.89 311.198 1981.89 305.04 Q1981.89 298.675 1985.32 294.948 Q1988.77 291.198 1994.6 291.198 Q1999.83 291.198 2002.87 294.577 Q2005.92 297.934 2005.92 303.721 M2001.66 302.471 Q2001.62 298.976 1999.69 296.892 Q1997.8 294.809 1994.65 294.809 Q1991.08 294.809 1988.93 296.823 Q1986.8 298.837 1986.48 302.494 L2001.66 302.471 Z" fill="#000000" fill-rule="nonzero" fill-opacity="1" /><path clip-path="url(#clip080)" d="M2012.75 281.73 L2017.03 281.73 L2017.03 303.003 L2029.74 291.823 L2035.18 291.823 L2021.43 303.952 L2035.76 317.749 L2030.2 317.749 L2017.03 305.087 L2017.03 317.749 L2012.75 317.749 L2012.75 281.73 Z" fill="#000000" fill-rule="nonzero" fill-opacity="1" /></svg>
