<?xml version="1.0" encoding="utf-8"?>
<svg xmlns="http://www.w3.org/2000/svg" xmlns:xlink="http://www.w3.org/1999/xlink" width="600" height="400" viewBox="0 0 2400 1600">
<defs>
  <clipPath id="clip500">
    <rect x="0" y="0" width="2400" height="1600"/>
  </clipPath>
</defs>
<path clip-path="url(#clip500)" d="M0 1600 L2400 1600 L2400 0 L0 0  Z" fill="#ffffff" fill-rule="evenodd" fill-opacity="1"/>
<defs>
  <clipPath id="clip501">
    <rect x="480" y="0" width="1681" height="1600"/>
  </clipPath>
</defs>
<path clip-path="url(#clip500)" d="M148.867 1486.45 L2352.76 1486.45 L2352.76 47.2441 L148.867 47.2441  Z" fill="#ffffff" fill-rule="evenodd" fill-opacity="1"/>
<defs>
  <clipPath id="clip502">
    <rect x="148" y="47" width="2205" height="1440"/>
  </clipPath>
</defs>
<polyline clip-path="url(#clip502)" style="stroke:#000000; stroke-linecap:round; stroke-linejoin:round; stroke-width:2; stroke-opacity:0.1; fill:none" points="211.241,1486.45 211.241,47.2441 "/>
<polyline clip-path="url(#clip502)" style="stroke:#000000; stroke-linecap:round; stroke-linejoin:round; stroke-width:2; stroke-opacity:0.1; fill:none" points="841.284,1486.45 841.284,47.2441 "/>
<polyline clip-path="url(#clip502)" style="stroke:#000000; stroke-linecap:round; stroke-linejoin:round; stroke-width:2; stroke-opacity:0.1; fill:none" points="1471.33,1486.45 1471.33,47.2441 "/>
<polyline clip-path="url(#clip502)" style="stroke:#000000; stroke-linecap:round; stroke-linejoin:round; stroke-width:2; stroke-opacity:0.1; fill:none" points="2101.37,1486.45 2101.37,47.2441 "/>
<polyline clip-path="url(#clip502)" style="stroke:#000000; stroke-linecap:round; stroke-linejoin:round; stroke-width:2; stroke-opacity:0.1; fill:none" points="148.867,1372.72 2352.76,1372.72 "/>
<polyline clip-path="url(#clip502)" style="stroke:#000000; stroke-linecap:round; stroke-linejoin:round; stroke-width:2; stroke-opacity:0.1; fill:none" points="148.867,1103.22 2352.76,1103.22 "/>
<polyline clip-path="url(#clip502)" style="stroke:#000000; stroke-linecap:round; stroke-linejoin:round; stroke-width:2; stroke-opacity:0.1; fill:none" points="148.867,833.719 2352.76,833.719 "/>
<polyline clip-path="url(#clip502)" style="stroke:#000000; stroke-linecap:round; stroke-linejoin:round; stroke-width:2; stroke-opacity:0.1; fill:none" points="148.867,564.217 2352.76,564.217 "/>
<polyline clip-path="url(#clip502)" style="stroke:#000000; stroke-linecap:round; stroke-linejoin:round; stroke-width:2; stroke-opacity:0.1; fill:none" points="148.867,294.714 2352.76,294.714 "/>
<polyline clip-path="url(#clip500)" style="stroke:#000000; stroke-linecap:round; stroke-linejoin:round; stroke-width:4; stroke-opacity:1; fill:none" points="148.867,1486.45 2352.76,1486.45 "/>
<polyline clip-path="url(#clip500)" style="stroke:#000000; stroke-linecap:round; stroke-linejoin:round; stroke-width:4; stroke-opacity:1; fill:none" points="211.241,1486.45 211.241,1467.55 "/>
<polyline clip-path="url(#clip500)" style="stroke:#000000; stroke-linecap:round; stroke-linejoin:round; stroke-width:4; stroke-opacity:1; fill:none" points="841.284,1486.45 841.284,1467.55 "/>
<polyline clip-path="url(#clip500)" style="stroke:#000000; stroke-linecap:round; stroke-linejoin:round; stroke-width:4; stroke-opacity:1; fill:none" points="1471.33,1486.45 1471.33,1467.55 "/>
<polyline clip-path="url(#clip500)" style="stroke:#000000; stroke-linecap:round; stroke-linejoin:round; stroke-width:4; stroke-opacity:1; fill:none" points="2101.37,1486.45 2101.37,1467.55 "/>
<path clip-path="url(#clip500)" d="M211.241 1517.37 Q207.63 1517.37 205.801 1520.93 Q203.996 1524.47 203.996 1531.6 Q203.996 1538.71 205.801 1542.27 Q207.63 1545.82 211.241 1545.82 Q214.875 1545.82 216.681 1542.27 Q218.509 1538.71 218.509 1531.6 Q218.509 1524.47 216.681 1520.93 Q214.875 1517.37 211.241 1517.37 M211.241 1513.66 Q217.051 1513.66 220.107 1518.27 Q223.185 1522.85 223.185 1531.6 Q223.185 1540.33 220.107 1544.94 Q217.051 1549.52 211.241 1549.52 Q205.431 1549.52 202.352 1544.94 Q199.297 1540.33 199.297 1531.6 Q199.297 1522.85 202.352 1518.27 Q205.431 1513.66 211.241 1513.66 Z" fill="#000000" fill-rule="nonzero" fill-opacity="1" /><path clip-path="url(#clip500)" d="M831.666 1544.91 L839.304 1544.91 L839.304 1518.55 L830.994 1520.21 L830.994 1515.95 L839.258 1514.29 L843.934 1514.29 L843.934 1544.91 L851.573 1544.91 L851.573 1548.85 L831.666 1548.85 L831.666 1544.91 Z" fill="#000000" fill-rule="nonzero" fill-opacity="1" /><path clip-path="url(#clip500)" d="M1465.98 1544.91 L1482.3 1544.91 L1482.3 1548.85 L1460.35 1548.85 L1460.35 1544.91 Q1463.02 1542.16 1467.6 1537.53 Q1472.21 1532.88 1473.39 1531.53 Q1475.63 1529.01 1476.51 1527.27 Q1477.41 1525.51 1477.41 1523.82 Q1477.41 1521.07 1475.47 1519.33 Q1473.55 1517.6 1470.45 1517.6 Q1468.25 1517.6 1465.79 1518.36 Q1463.36 1519.13 1460.59 1520.68 L1460.59 1515.95 Q1463.41 1514.82 1465.86 1514.24 Q1468.32 1513.66 1470.35 1513.66 Q1475.72 1513.66 1478.92 1516.35 Q1482.11 1519.03 1482.11 1523.52 Q1482.11 1525.65 1481.3 1527.57 Q1480.52 1529.47 1478.41 1532.07 Q1477.83 1532.74 1474.73 1535.95 Q1471.63 1539.15 1465.98 1544.91 Z" fill="#000000" fill-rule="nonzero" fill-opacity="1" /><path clip-path="url(#clip500)" d="M2105.62 1530.21 Q2108.97 1530.93 2110.85 1533.2 Q2112.75 1535.47 2112.75 1538.8 Q2112.75 1543.92 2109.23 1546.72 Q2105.71 1549.52 2099.23 1549.52 Q2097.05 1549.52 2094.74 1549.08 Q2092.45 1548.66 2089.99 1547.81 L2089.99 1543.29 Q2091.94 1544.43 2094.25 1545.01 Q2096.57 1545.58 2099.09 1545.58 Q2103.49 1545.58 2105.78 1543.85 Q2108.09 1542.11 2108.09 1538.8 Q2108.09 1535.75 2105.94 1534.03 Q2103.81 1532.3 2099.99 1532.3 L2095.96 1532.3 L2095.96 1528.45 L2100.18 1528.45 Q2103.63 1528.45 2105.45 1527.09 Q2107.28 1525.7 2107.28 1523.11 Q2107.28 1520.45 2105.39 1519.03 Q2103.51 1517.6 2099.99 1517.6 Q2098.07 1517.6 2095.87 1518.01 Q2093.67 1518.43 2091.03 1519.31 L2091.03 1515.14 Q2093.7 1514.4 2096.01 1514.03 Q2098.35 1513.66 2100.41 1513.66 Q2105.73 1513.66 2108.83 1516.09 Q2111.94 1518.5 2111.94 1522.62 Q2111.94 1525.49 2110.29 1527.48 Q2108.65 1529.45 2105.62 1530.21 Z" fill="#000000" fill-rule="nonzero" fill-opacity="1" /><polyline clip-path="url(#clip500)" style="stroke:#000000; stroke-linecap:round; stroke-linejoin:round; stroke-width:4; stroke-opacity:1; fill:none" points="148.867,1486.45 148.867,47.2441 "/>
<polyline clip-path="url(#clip500)" style="stroke:#000000; stroke-linecap:round; stroke-linejoin:round; stroke-width:4; stroke-opacity:1; fill:none" points="148.867,1372.72 167.764,1372.72 "/>
<polyline clip-path="url(#clip500)" style="stroke:#000000; stroke-linecap:round; stroke-linejoin:round; stroke-width:4; stroke-opacity:1; fill:none" points="148.867,1103.22 167.764,1103.22 "/>
<polyline clip-path="url(#clip500)" style="stroke:#000000; stroke-linecap:round; stroke-linejoin:round; stroke-width:4; stroke-opacity:1; fill:none" points="148.867,833.719 167.764,833.719 "/>
<polyline clip-path="url(#clip500)" style="stroke:#000000; stroke-linecap:round; stroke-linejoin:round; stroke-width:4; stroke-opacity:1; fill:none" points="148.867,564.217 167.764,564.217 "/>
<polyline clip-path="url(#clip500)" style="stroke:#000000; stroke-linecap:round; stroke-linejoin:round; stroke-width:4; stroke-opacity:1; fill:none" points="148.867,294.714 167.764,294.714 "/>
<path clip-path="url(#clip500)" d="M50.9921 1373.18 L80.6679 1373.18 L80.6679 1377.11 L50.9921 1377.11 L50.9921 1373.18 Z" fill="#000000" fill-rule="nonzero" fill-opacity="1" /><path clip-path="url(#clip500)" d="M101.339 1370.86 Q98.1909 1370.86 96.3391 1373.01 Q94.5104 1375.17 94.5104 1378.92 Q94.5104 1382.64 96.3391 1384.82 Q98.1909 1386.97 101.339 1386.97 Q104.487 1386.97 106.316 1384.82 Q108.168 1382.64 108.168 1378.92 Q108.168 1375.17 106.316 1373.01 Q104.487 1370.86 101.339 1370.86 M110.621 1356.21 L110.621 1360.47 Q108.862 1359.63 107.057 1359.19 Q105.274 1358.75 103.515 1358.75 Q98.8854 1358.75 96.4317 1361.88 Q94.0012 1365 93.6539 1371.32 Q95.0197 1369.31 97.0798 1368.25 Q99.14 1367.16 101.617 1367.16 Q106.825 1367.16 109.834 1370.33 Q112.867 1373.48 112.867 1378.92 Q112.867 1384.24 109.719 1387.46 Q106.571 1390.68 101.339 1390.68 Q95.3437 1390.68 92.1725 1386.09 Q89.0012 1381.49 89.0012 1372.76 Q89.0012 1364.57 92.89 1359.7 Q96.7789 1354.82 103.33 1354.82 Q105.089 1354.82 106.871 1355.17 Q108.677 1355.51 110.621 1356.21 Z" fill="#000000" fill-rule="nonzero" fill-opacity="1" /><path clip-path="url(#clip500)" d="M51.8023 1103.67 L81.4781 1103.67 L81.4781 1107.61 L51.8023 1107.61 L51.8023 1103.67 Z" fill="#000000" fill-rule="nonzero" fill-opacity="1" /><path clip-path="url(#clip500)" d="M105.737 1101.87 Q109.094 1102.59 110.969 1104.85 Q112.867 1107.12 112.867 1110.46 Q112.867 1115.57 109.348 1118.37 Q105.83 1121.17 99.3483 1121.17 Q97.1724 1121.17 94.8576 1120.73 Q92.566 1120.32 90.1123 1119.46 L90.1123 1114.95 Q92.0567 1116.08 94.3715 1116.66 Q96.6863 1117.24 99.2095 1117.24 Q103.608 1117.24 105.899 1115.5 Q108.214 1113.77 108.214 1110.46 Q108.214 1107.4 106.061 1105.69 Q103.932 1103.95 100.112 1103.95 L96.0845 1103.95 L96.0845 1100.11 L100.297 1100.11 Q103.746 1100.11 105.575 1098.74 Q107.404 1097.35 107.404 1094.76 Q107.404 1092.1 105.506 1090.69 Q103.631 1089.25 100.112 1089.25 Q98.1909 1089.25 95.9919 1089.67 Q93.7928 1090.09 91.1539 1090.97 L91.1539 1086.8 Q93.816 1086.06 96.1308 1085.69 Q98.4687 1085.32 100.529 1085.32 Q105.853 1085.32 108.955 1087.75 Q112.057 1090.16 112.057 1094.28 Q112.057 1097.15 110.413 1099.14 Q108.77 1101.1 105.737 1101.87 Z" fill="#000000" fill-rule="nonzero" fill-opacity="1" /><path clip-path="url(#clip500)" d="M100.922 819.518 Q97.3113 819.518 95.4826 823.083 Q93.6771 826.625 93.6771 833.754 Q93.6771 840.861 95.4826 844.425 Q97.3113 847.967 100.922 847.967 Q104.557 847.967 106.362 844.425 Q108.191 840.861 108.191 833.754 Q108.191 826.625 106.362 823.083 Q104.557 819.518 100.922 819.518 M100.922 815.814 Q106.733 815.814 109.788 820.421 Q112.867 825.004 112.867 833.754 Q112.867 842.481 109.788 847.087 Q106.733 851.671 100.922 851.671 Q95.1123 851.671 92.0336 847.087 Q88.978 842.481 88.978 833.754 Q88.978 825.004 92.0336 820.421 Q95.1123 815.814 100.922 815.814 Z" fill="#000000" fill-rule="nonzero" fill-opacity="1" /><path clip-path="url(#clip500)" d="M105.737 562.863 Q109.094 563.58 110.969 565.849 Q112.867 568.117 112.867 571.45 Q112.867 576.566 109.348 579.367 Q105.83 582.168 99.3483 582.168 Q97.1724 582.168 94.8576 581.728 Q92.566 581.312 90.1123 580.455 L90.1123 575.941 Q92.0567 577.075 94.3715 577.654 Q96.6863 578.233 99.2095 578.233 Q103.608 578.233 105.899 576.497 Q108.214 574.761 108.214 571.45 Q108.214 568.395 106.061 566.682 Q103.932 564.946 100.112 564.946 L96.0845 564.946 L96.0845 561.103 L100.297 561.103 Q103.746 561.103 105.575 559.738 Q107.404 558.349 107.404 555.756 Q107.404 553.094 105.506 551.682 Q103.631 550.247 100.112 550.247 Q98.1909 550.247 95.9919 550.664 Q93.7928 551.08 91.1539 551.96 L91.1539 547.793 Q93.816 547.052 96.1308 546.682 Q98.4687 546.312 100.529 546.312 Q105.853 546.312 108.955 548.742 Q112.057 551.15 112.057 555.27 Q112.057 558.14 110.413 560.131 Q108.77 562.099 105.737 562.863 Z" fill="#000000" fill-rule="nonzero" fill-opacity="1" /><path clip-path="url(#clip500)" d="M101.339 292.851 Q98.1909 292.851 96.3391 295.003 Q94.5104 297.156 94.5104 300.906 Q94.5104 304.633 96.3391 306.809 Q98.1909 308.962 101.339 308.962 Q104.487 308.962 106.316 306.809 Q108.168 304.633 108.168 300.906 Q108.168 297.156 106.316 295.003 Q104.487 292.851 101.339 292.851 M110.621 278.198 L110.621 282.457 Q108.862 281.624 107.057 281.184 Q105.274 280.744 103.515 280.744 Q98.8854 280.744 96.4317 283.869 Q94.0012 286.994 93.6539 293.314 Q95.0197 291.3 97.0798 290.235 Q99.14 289.147 101.617 289.147 Q106.825 289.147 109.834 292.318 Q112.867 295.466 112.867 300.906 Q112.867 306.23 109.719 309.448 Q106.571 312.665 101.339 312.665 Q95.3437 312.665 92.1725 308.082 Q89.0012 303.476 89.0012 294.749 Q89.0012 286.554 92.89 281.693 Q96.7789 276.809 103.33 276.809 Q105.089 276.809 106.871 277.156 Q108.677 277.503 110.621 278.198 Z" fill="#000000" fill-rule="nonzero" fill-opacity="1" /><circle clip-path="url(#clip502)" cx="211.241" cy="743.885" r="14.4" fill="#009af9" fill-rule="evenodd" fill-opacity="1" stroke="#000000" stroke-opacity="1" stroke-width="3.2"/>
<circle clip-path="url(#clip502)" cx="400.254" cy="366.122" r="14.4" fill="#009af9" fill-rule="evenodd" fill-opacity="1" stroke="#000000" stroke-opacity="1" stroke-width="3.2"/>
<circle clip-path="url(#clip502)" cx="589.267" cy="172.271" r="14.4" fill="#009af9" fill-rule="evenodd" fill-opacity="1" stroke="#000000" stroke-opacity="1" stroke-width="3.2"/>
<circle clip-path="url(#clip502)" cx="778.279" cy="87.9763" r="14.4" fill="#009af9" fill-rule="evenodd" fill-opacity="1" stroke="#000000" stroke-opacity="1" stroke-width="3.2"/>
<circle clip-path="url(#clip502)" cx="967.292" cy="88.9537" r="14.4" fill="#009af9" fill-rule="evenodd" fill-opacity="1" stroke="#000000" stroke-opacity="1" stroke-width="3.2"/>
<circle clip-path="url(#clip502)" cx="1156.3" cy="164.274" r="14.4" fill="#009af9" fill-rule="evenodd" fill-opacity="1" stroke="#000000" stroke-opacity="1" stroke-width="3.2"/>
<circle clip-path="url(#clip502)" cx="1345.32" cy="301.839" r="14.4" fill="#009af9" fill-rule="evenodd" fill-opacity="1" stroke="#000000" stroke-opacity="1" stroke-width="3.2"/>
<circle clip-path="url(#clip502)" cx="1534.33" cy="486.262" r="14.4" fill="#009af9" fill-rule="evenodd" fill-opacity="1" stroke="#000000" stroke-opacity="1" stroke-width="3.2"/>
<circle clip-path="url(#clip502)" cx="1723.34" cy="702.723" r="14.4" fill="#009af9" fill-rule="evenodd" fill-opacity="1" stroke="#000000" stroke-opacity="1" stroke-width="3.2"/>
<circle clip-path="url(#clip502)" cx="1912.36" cy="939.623" r="14.4" fill="#009af9" fill-rule="evenodd" fill-opacity="1" stroke="#000000" stroke-opacity="1" stroke-width="3.2"/>
<circle clip-path="url(#clip502)" cx="2101.37" cy="1188.98" r="14.4" fill="#009af9" fill-rule="evenodd" fill-opacity="1" stroke="#000000" stroke-opacity="1" stroke-width="3.2"/>
<circle clip-path="url(#clip502)" cx="2290.38" cy="1445.72" r="14.4" fill="#009af9" fill-rule="evenodd" fill-opacity="1" stroke="#000000" stroke-opacity="1" stroke-width="3.2"/>
<path clip-path="url(#clip500)" d="M1634.55 198.898 L2279.29 198.898 L2279.29 95.2176 L1634.55 95.2176  Z" fill="#ffffff" fill-rule="evenodd" fill-opacity="1"/>
<polyline clip-path="url(#clip500)" style="stroke:#000000; stroke-linecap:round; stroke-linejoin:round; stroke-width:4; stroke-opacity:1; fill:none" points="1634.55,198.898 2279.29,198.898 2279.29,95.2176 1634.55,95.2176 1634.55,198.898 "/>
<circle clip-path="url(#clip500)" cx="1732.51" cy="147.058" r="20.48" fill="#009af9" fill-rule="evenodd" fill-opacity="1" stroke="#000000" stroke-opacity="1" stroke-width="4.55111"/>
<path clip-path="url(#clip500)" d="M1834.74 160.449 L1834.74 174.199 L1830.46 174.199 L1830.46 138.412 L1834.74 138.412 L1834.74 142.347 Q1836.08 140.032 1838.12 138.921 Q1840.18 137.787 1843.03 137.787 Q1847.75 137.787 1850.69 141.537 Q1853.65 145.287 1853.65 151.398 Q1853.65 157.509 1850.69 161.259 Q1847.75 165.009 1843.03 165.009 Q1840.18 165.009 1838.12 163.898 Q1836.08 162.763 1834.74 160.449 M1849.23 151.398 Q1849.23 146.699 1847.28 144.037 Q1845.36 141.352 1841.98 141.352 Q1838.6 141.352 1836.66 144.037 Q1834.74 146.699 1834.74 151.398 Q1834.74 156.097 1836.66 158.782 Q1838.6 161.444 1841.98 161.444 Q1845.36 161.444 1847.28 158.782 Q1849.23 156.097 1849.23 151.398 Z" fill="#000000" fill-rule="nonzero" fill-opacity="1" /><path clip-path="url(#clip500)" d="M1875.73 142.393 Q1875.02 141.977 1874.16 141.791 Q1873.33 141.583 1872.31 141.583 Q1868.7 141.583 1866.75 143.944 Q1864.83 146.282 1864.83 150.68 L1864.83 164.338 L1860.55 164.338 L1860.55 138.412 L1864.83 138.412 L1864.83 142.44 Q1866.17 140.078 1868.33 138.944 Q1870.48 137.787 1873.56 137.787 Q1874 137.787 1874.53 137.856 Q1875.06 137.903 1875.71 138.018 L1875.73 142.393 Z" fill="#000000" fill-rule="nonzero" fill-opacity="1" /><path clip-path="url(#clip500)" d="M1880.2 138.412 L1884.46 138.412 L1884.46 164.338 L1880.2 164.338 L1880.2 138.412 M1880.2 128.319 L1884.46 128.319 L1884.46 133.713 L1880.2 133.713 L1880.2 128.319 Z" fill="#000000" fill-rule="nonzero" fill-opacity="1" /><path clip-path="url(#clip500)" d="M1911.98 151.398 Q1911.98 146.699 1910.04 144.037 Q1908.12 141.352 1904.74 141.352 Q1901.36 141.352 1899.41 144.037 Q1897.49 146.699 1897.49 151.398 Q1897.49 156.097 1899.41 158.782 Q1901.36 161.444 1904.74 161.444 Q1908.12 161.444 1910.04 158.782 Q1911.98 156.097 1911.98 151.398 M1897.49 142.347 Q1898.83 140.032 1900.87 138.921 Q1902.93 137.787 1905.78 137.787 Q1910.5 137.787 1913.44 141.537 Q1916.4 145.287 1916.4 151.398 Q1916.4 157.509 1913.44 161.259 Q1910.5 165.009 1905.78 165.009 Q1902.93 165.009 1900.87 163.898 Q1898.83 162.763 1897.49 160.449 L1897.49 164.338 L1893.21 164.338 L1893.21 128.319 L1897.49 128.319 L1897.49 142.347 Z" fill="#000000" fill-rule="nonzero" fill-opacity="1" /><path clip-path="url(#clip500)" d="M1923.46 128.319 L1927.72 128.319 L1927.72 164.338 L1923.46 164.338 L1923.46 128.319 Z" fill="#000000" fill-rule="nonzero" fill-opacity="1" /><path clip-path="url(#clip500)" d="M1936.64 138.412 L1940.89 138.412 L1940.89 164.338 L1936.64 164.338 L1936.64 138.412 M1936.64 128.319 L1940.89 128.319 L1940.89 133.713 L1936.64 133.713 L1936.64 128.319 Z" fill="#000000" fill-rule="nonzero" fill-opacity="1" /><path clip-path="url(#clip500)" d="M1947.96 138.412 L1968.19 138.412 L1968.19 142.301 L1952.17 160.935 L1968.19 160.935 L1968.19 164.338 L1947.38 164.338 L1947.38 160.449 L1963.39 141.815 L1947.96 141.815 L1947.96 138.412 M1956.1 135.125 L1950.43 126.421 L1953.65 126.421 L1957.82 132.092 L1961.98 126.421 L1965.2 126.421 L1959.53 135.125 L1956.1 135.125 Z" fill="#000000" fill-rule="nonzero" fill-opacity="1" /><path clip-path="url(#clip500)" d="M1974.53 128.319 L1978.81 128.319 L1978.81 149.592 L1991.52 138.412 L1996.96 138.412 L1983.21 150.541 L1997.54 164.338 L1991.98 164.338 L1978.81 151.676 L1978.81 164.338 L1974.53 164.338 L1974.53 128.319 Z" fill="#000000" fill-rule="nonzero" fill-opacity="1" /><path clip-path="url(#clip500)" d="M2002.14 138.412 L2006.4 138.412 L2006.4 164.338 L2002.14 164.338 L2002.14 138.412 M2002.14 128.319 L2006.4 128.319 L2006.4 133.713 L2002.14 133.713 L2002.14 128.319 Z" fill="#000000" fill-rule="nonzero" fill-opacity="1" /><path clip-path="url(#clip500)" d="M2028.53 138.412 L2048.76 138.412 L2048.76 142.301 L2032.75 160.935 L2048.76 160.935 L2048.76 164.338 L2027.95 164.338 L2027.95 160.449 L2043.97 141.815 L2028.53 141.815 L2028.53 138.412 Z" fill="#000000" fill-rule="nonzero" fill-opacity="1" /><path clip-path="url(#clip500)" d="M2067.05 151.305 Q2061.89 151.305 2059.9 152.486 Q2057.91 153.666 2057.91 156.514 Q2057.91 158.782 2059.39 160.125 Q2060.89 161.444 2063.46 161.444 Q2067.01 161.444 2069.13 158.944 Q2071.29 156.421 2071.29 152.254 L2071.29 151.305 L2067.05 151.305 M2075.55 149.546 L2075.55 164.338 L2071.29 164.338 L2071.29 160.402 Q2069.83 162.763 2067.65 163.898 Q2065.48 165.009 2062.33 165.009 Q2058.35 165.009 2055.99 162.787 Q2053.65 160.541 2053.65 156.791 Q2053.65 152.416 2056.57 150.194 Q2059.51 147.972 2065.32 147.972 L2071.29 147.972 L2071.29 147.555 Q2071.29 144.615 2069.34 143.018 Q2067.42 141.398 2063.93 141.398 Q2061.7 141.398 2059.6 141.93 Q2057.49 142.463 2055.55 143.527 L2055.55 139.592 Q2057.89 138.69 2060.08 138.25 Q2062.28 137.787 2064.37 137.787 Q2069.99 137.787 2072.77 140.703 Q2075.55 143.62 2075.55 149.546 Z" fill="#000000" fill-rule="nonzero" fill-opacity="1" /><path clip-path="url(#clip500)" d="M2114.41 142.393 Q2113.69 141.977 2112.84 141.791 Q2112.01 141.583 2110.99 141.583 Q2107.38 141.583 2105.43 143.944 Q2103.51 146.282 2103.51 150.68 L2103.51 164.338 L2099.23 164.338 L2099.23 138.412 L2103.51 138.412 L2103.51 142.44 Q2104.85 140.078 2107.01 138.944 Q2109.16 137.787 2112.24 137.787 Q2112.68 137.787 2113.21 137.856 Q2113.74 137.903 2114.39 138.018 L2114.41 142.393 Z" fill="#000000" fill-rule="nonzero" fill-opacity="1" /><path clip-path="url(#clip500)" d="M2140.01 150.31 L2140.01 152.393 L2120.43 152.393 Q2120.71 156.791 2123.07 159.106 Q2125.45 161.398 2129.69 161.398 Q2132.14 161.398 2134.44 160.796 Q2136.75 160.194 2139.02 158.99 L2139.02 163.018 Q2136.73 163.99 2134.32 164.5 Q2131.91 165.009 2129.44 165.009 Q2123.23 165.009 2119.6 161.398 Q2115.99 157.787 2115.99 151.629 Q2115.99 145.264 2119.41 141.537 Q2122.86 137.787 2128.69 137.787 Q2133.93 137.787 2136.96 141.166 Q2140.01 144.523 2140.01 150.31 M2135.75 149.06 Q2135.71 145.565 2133.79 143.481 Q2131.89 141.398 2128.74 141.398 Q2125.18 141.398 2123.02 143.412 Q2120.89 145.426 2120.57 149.083 L2135.75 149.06 Z" fill="#000000" fill-rule="nonzero" fill-opacity="1" /><path clip-path="url(#clip500)" d="M2163.53 139.176 L2163.53 143.203 Q2161.73 142.277 2159.78 141.815 Q2157.84 141.352 2155.75 141.352 Q2152.58 141.352 2150.99 142.324 Q2149.41 143.296 2149.41 145.24 Q2149.41 146.722 2150.55 147.578 Q2151.68 148.412 2155.11 149.176 L2156.57 149.5 Q2161.1 150.472 2163 152.254 Q2164.92 154.014 2164.92 157.185 Q2164.92 160.796 2162.05 162.902 Q2159.2 165.009 2154.2 165.009 Q2152.12 165.009 2149.85 164.592 Q2147.61 164.199 2145.11 163.388 L2145.11 158.99 Q2147.47 160.217 2149.76 160.842 Q2152.05 161.444 2154.3 161.444 Q2157.31 161.444 2158.93 160.426 Q2160.55 159.384 2160.55 157.509 Q2160.55 155.773 2159.37 154.847 Q2158.21 153.921 2154.25 153.064 L2152.77 152.717 Q2148.81 151.884 2147.05 150.171 Q2145.29 148.435 2145.29 145.426 Q2145.29 141.768 2147.88 139.778 Q2150.48 137.787 2155.25 137.787 Q2157.61 137.787 2159.69 138.134 Q2161.77 138.481 2163.53 139.176 M2153.67 135.125 L2148 126.421 L2151.22 126.421 L2155.38 132.092 L2159.55 126.421 L2162.77 126.421 L2157.1 135.125 L2153.67 135.125 M2155.29 137.787 L2155.29 137.787 Z" fill="#000000" fill-rule="nonzero" fill-opacity="1" /><path clip-path="url(#clip500)" d="M2171.7 138.412 L2175.96 138.412 L2175.96 164.338 L2171.7 164.338 L2171.7 138.412 M2171.7 128.319 L2175.96 128.319 L2175.96 133.713 L2171.7 133.713 L2171.7 128.319 Z" fill="#000000" fill-rule="nonzero" fill-opacity="1" /><path clip-path="url(#clip500)" d="M2189.09 131.051 L2189.09 138.412 L2197.86 138.412 L2197.86 141.722 L2189.09 141.722 L2189.09 155.796 Q2189.09 158.967 2189.94 159.87 Q2190.82 160.773 2193.49 160.773 L2197.86 160.773 L2197.86 164.338 L2193.49 164.338 Q2188.56 164.338 2186.68 162.509 Q2184.81 160.657 2184.81 155.796 L2184.81 141.722 L2181.68 141.722 L2181.68 138.412 L2184.81 138.412 L2184.81 131.051 L2189.09 131.051 Z" fill="#000000" fill-rule="nonzero" fill-opacity="1" /><path clip-path="url(#clip500)" d="M2225.64 150.31 L2225.64 152.393 L2206.06 152.393 Q2206.33 156.791 2208.69 159.106 Q2211.08 161.398 2215.31 161.398 Q2217.77 161.398 2220.06 160.796 Q2222.37 160.194 2224.64 158.99 L2224.64 163.018 Q2222.35 163.99 2219.94 164.5 Q2217.54 165.009 2215.06 165.009 Q2208.86 165.009 2205.22 161.398 Q2201.61 157.787 2201.61 151.629 Q2201.61 145.264 2205.04 141.537 Q2208.49 137.787 2214.32 137.787 Q2219.55 137.787 2222.58 141.166 Q2225.64 144.523 2225.64 150.31 M2221.38 149.06 Q2221.33 145.565 2219.41 143.481 Q2217.51 141.398 2214.37 141.398 Q2210.8 141.398 2208.65 143.412 Q2206.52 145.426 2206.19 149.083 L2221.38 149.06 Z" fill="#000000" fill-rule="nonzero" fill-opacity="1" /><path clip-path="url(#clip500)" d="M2229.57 138.412 L2234.09 138.412 L2242.19 160.171 L2250.29 138.412 L2254.81 138.412 L2245.08 164.338 L2239.3 164.338 L2229.57 138.412 Z" fill="#000000" fill-rule="nonzero" fill-opacity="1" /></svg>
