<?xml version="1.0" encoding="utf-8"?>
<svg xmlns="http://www.w3.org/2000/svg" xmlns:xlink="http://www.w3.org/1999/xlink" width="600" height="400" viewBox="0 0 2400 1600">
<defs>
  <clipPath id="clip200">
    <rect x="0" y="0" width="2400" height="1600"/>
  </clipPath>
</defs>
<path clip-path="url(#clip200)" d="M0 1600 L2400 1600 L2400 0 L0 0  Z" fill="#ffffff" fill-rule="evenodd" fill-opacity="1"/>
<defs>
  <clipPath id="clip201">
    <rect x="480" y="0" width="1681" height="1600"/>
  </clipPath>
</defs>
<path clip-path="url(#clip200)" d="M192.941 1486.45 L2352.76 1486.45 L2352.76 47.2441 L192.941 47.2441  Z" fill="#ffffff" fill-rule="evenodd" fill-opacity="1"/>
<defs>
  <clipPath id="clip202">
    <rect x="192" y="47" width="2161" height="1440"/>
  </clipPath>
</defs>
<polyline clip-path="url(#clip202)" style="stroke:#000000; stroke-linecap:round; stroke-linejoin:round; stroke-width:2; stroke-opacity:0.1; fill:none" points="254.067,1486.45 254.067,47.2441 "/>
<polyline clip-path="url(#clip202)" style="stroke:#000000; stroke-linecap:round; stroke-linejoin:round; stroke-width:2; stroke-opacity:0.1; fill:none" points="933.255,1486.45 933.255,47.2441 "/>
<polyline clip-path="url(#clip202)" style="stroke:#000000; stroke-linecap:round; stroke-linejoin:round; stroke-width:2; stroke-opacity:0.1; fill:none" points="1612.44,1486.45 1612.44,47.2441 "/>
<polyline clip-path="url(#clip202)" style="stroke:#000000; stroke-linecap:round; stroke-linejoin:round; stroke-width:2; stroke-opacity:0.1; fill:none" points="2291.63,1486.45 2291.63,47.2441 "/>
<polyline clip-path="url(#clip200)" style="stroke:#000000; stroke-linecap:round; stroke-linejoin:round; stroke-width:4; stroke-opacity:1; fill:none" points="192.941,1486.45 2352.76,1486.45 "/>
<polyline clip-path="url(#clip200)" style="stroke:#000000; stroke-linecap:round; stroke-linejoin:round; stroke-width:4; stroke-opacity:1; fill:none" points="254.067,1486.45 254.067,1467.55 "/>
<polyline clip-path="url(#clip200)" style="stroke:#000000; stroke-linecap:round; stroke-linejoin:round; stroke-width:4; stroke-opacity:1; fill:none" points="933.255,1486.45 933.255,1467.55 "/>
<polyline clip-path="url(#clip200)" style="stroke:#000000; stroke-linecap:round; stroke-linejoin:round; stroke-width:4; stroke-opacity:1; fill:none" points="1612.44,1486.45 1612.44,1467.55 "/>
<polyline clip-path="url(#clip200)" style="stroke:#000000; stroke-linecap:round; stroke-linejoin:round; stroke-width:4; stroke-opacity:1; fill:none" points="2291.63,1486.45 2291.63,1467.55 "/>
<path clip-path="url(#clip200)" d="M254.067 1517.37 Q250.456 1517.37 248.628 1520.93 Q246.822 1524.47 246.822 1531.6 Q246.822 1538.71 248.628 1542.27 Q250.456 1545.82 254.067 1545.82 Q257.702 1545.82 259.507 1542.27 Q261.336 1538.71 261.336 1531.6 Q261.336 1524.47 259.507 1520.93 Q257.702 1517.37 254.067 1517.37 M254.067 1513.66 Q259.878 1513.66 262.933 1518.27 Q266.012 1522.85 266.012 1531.6 Q266.012 1540.33 262.933 1544.94 Q259.878 1549.52 254.067 1549.52 Q248.257 1549.52 245.179 1544.94 Q242.123 1540.33 242.123 1531.6 Q242.123 1522.85 245.179 1518.27 Q248.257 1513.66 254.067 1513.66 Z" fill="#000000" fill-rule="nonzero" fill-opacity="1" /><path clip-path="url(#clip200)" d="M923.637 1544.91 L931.276 1544.91 L931.276 1518.55 L922.965 1520.21 L922.965 1515.95 L931.229 1514.29 L935.905 1514.29 L935.905 1544.91 L943.544 1544.91 L943.544 1548.85 L923.637 1548.85 L923.637 1544.91 Z" fill="#000000" fill-rule="nonzero" fill-opacity="1" /><path clip-path="url(#clip200)" d="M1607.09 1544.91 L1623.41 1544.91 L1623.41 1548.85 L1601.47 1548.85 L1601.47 1544.91 Q1604.13 1542.16 1608.72 1537.53 Q1613.32 1532.88 1614.5 1531.53 Q1616.75 1529.01 1617.63 1527.27 Q1618.53 1525.51 1618.53 1523.82 Q1618.53 1521.07 1616.59 1519.33 Q1614.66 1517.6 1611.56 1517.6 Q1609.36 1517.6 1606.91 1518.36 Q1604.48 1519.13 1601.7 1520.68 L1601.7 1515.95 Q1604.53 1514.82 1606.98 1514.24 Q1609.43 1513.66 1611.47 1513.66 Q1616.84 1513.66 1620.03 1516.35 Q1623.23 1519.03 1623.23 1523.52 Q1623.23 1525.65 1622.42 1527.57 Q1621.63 1529.47 1619.53 1532.07 Q1618.95 1532.74 1615.84 1535.95 Q1612.74 1539.15 1607.09 1544.91 Z" fill="#000000" fill-rule="nonzero" fill-opacity="1" /><path clip-path="url(#clip200)" d="M2295.88 1530.21 Q2299.23 1530.93 2301.11 1533.2 Q2303.01 1535.47 2303.01 1538.8 Q2303.01 1543.92 2299.49 1546.72 Q2295.97 1549.52 2289.49 1549.52 Q2287.31 1549.52 2285 1549.08 Q2282.71 1548.66 2280.25 1547.81 L2280.25 1543.29 Q2282.2 1544.43 2284.51 1545.01 Q2286.83 1545.58 2289.35 1545.58 Q2293.75 1545.58 2296.04 1543.85 Q2298.35 1542.11 2298.35 1538.8 Q2298.35 1535.75 2296.2 1534.03 Q2294.07 1532.3 2290.25 1532.3 L2286.22 1532.3 L2286.22 1528.45 L2290.44 1528.45 Q2293.89 1528.45 2295.71 1527.09 Q2297.54 1525.7 2297.54 1523.11 Q2297.54 1520.45 2295.65 1519.03 Q2293.77 1517.6 2290.25 1517.6 Q2288.33 1517.6 2286.13 1518.01 Q2283.93 1518.43 2281.29 1519.31 L2281.29 1515.14 Q2283.96 1514.4 2286.27 1514.03 Q2288.61 1513.66 2290.67 1513.66 Q2295.99 1513.66 2299.09 1516.09 Q2302.2 1518.5 2302.2 1522.62 Q2302.2 1525.49 2300.55 1527.48 Q2298.91 1529.45 2295.88 1530.21 Z" fill="#000000" fill-rule="nonzero" fill-opacity="1" /><polyline clip-path="url(#clip202)" style="stroke:#000000; stroke-linecap:round; stroke-linejoin:round; stroke-width:2; stroke-opacity:0.1; fill:none" points="192.941,1295.93 2352.76,1295.93 "/>
<polyline clip-path="url(#clip202)" style="stroke:#000000; stroke-linecap:round; stroke-linejoin:round; stroke-width:2; stroke-opacity:0.1; fill:none" points="192.941,1020.49 2352.76,1020.49 "/>
<polyline clip-path="url(#clip202)" style="stroke:#000000; stroke-linecap:round; stroke-linejoin:round; stroke-width:2; stroke-opacity:0.1; fill:none" points="192.941,745.058 2352.76,745.058 "/>
<polyline clip-path="url(#clip202)" style="stroke:#000000; stroke-linecap:round; stroke-linejoin:round; stroke-width:2; stroke-opacity:0.1; fill:none" points="192.941,469.622 2352.76,469.622 "/>
<polyline clip-path="url(#clip202)" style="stroke:#000000; stroke-linecap:round; stroke-linejoin:round; stroke-width:2; stroke-opacity:0.1; fill:none" points="192.941,194.185 2352.76,194.185 "/>
<polyline clip-path="url(#clip200)" style="stroke:#000000; stroke-linecap:round; stroke-linejoin:round; stroke-width:4; stroke-opacity:1; fill:none" points="192.941,1486.45 192.941,47.2441 "/>
<polyline clip-path="url(#clip200)" style="stroke:#000000; stroke-linecap:round; stroke-linejoin:round; stroke-width:4; stroke-opacity:1; fill:none" points="192.941,1295.93 211.838,1295.93 "/>
<polyline clip-path="url(#clip200)" style="stroke:#000000; stroke-linecap:round; stroke-linejoin:round; stroke-width:4; stroke-opacity:1; fill:none" points="192.941,1020.49 211.838,1020.49 "/>
<polyline clip-path="url(#clip200)" style="stroke:#000000; stroke-linecap:round; stroke-linejoin:round; stroke-width:4; stroke-opacity:1; fill:none" points="192.941,745.058 211.838,745.058 "/>
<polyline clip-path="url(#clip200)" style="stroke:#000000; stroke-linecap:round; stroke-linejoin:round; stroke-width:4; stroke-opacity:1; fill:none" points="192.941,469.622 211.838,469.622 "/>
<polyline clip-path="url(#clip200)" style="stroke:#000000; stroke-linecap:round; stroke-linejoin:round; stroke-width:4; stroke-opacity:1; fill:none" points="192.941,194.185 211.838,194.185 "/>
<path clip-path="url(#clip200)" d="M50.9921 1296.38 L80.6679 1296.38 L80.6679 1300.32 L50.9921 1300.32 L50.9921 1296.38 Z" fill="#000000" fill-rule="nonzero" fill-opacity="1" /><path clip-path="url(#clip200)" d="M94.7882 1309.28 L111.108 1309.28 L111.108 1313.21 L89.1632 1313.21 L89.1632 1309.28 Q91.8252 1306.52 96.4085 1301.89 Q101.015 1297.24 102.196 1295.9 Q104.441 1293.37 105.321 1291.64 Q106.223 1289.88 106.223 1288.19 Q106.223 1285.43 104.279 1283.7 Q102.358 1281.96 99.2558 1281.96 Q97.0567 1281.96 94.603 1282.73 Q92.1725 1283.49 89.3947 1285.04 L89.3947 1280.32 Q92.2188 1279.18 94.6724 1278.61 Q97.1261 1278.03 99.1632 1278.03 Q104.534 1278.03 107.728 1280.71 Q110.922 1283.4 110.922 1287.89 Q110.922 1290.02 110.112 1291.94 Q109.325 1293.84 107.219 1296.43 Q106.64 1297.1 103.538 1300.32 Q100.436 1303.51 94.7882 1309.28 Z" fill="#000000" fill-rule="nonzero" fill-opacity="1" /><path clip-path="url(#clip200)" d="M120.922 1307.33 L125.807 1307.33 L125.807 1313.21 L120.922 1313.21 L120.922 1307.33 Z" fill="#000000" fill-rule="nonzero" fill-opacity="1" /><path clip-path="url(#clip200)" d="M136.038 1278.65 L154.394 1278.65 L154.394 1282.59 L140.32 1282.59 L140.32 1291.06 Q141.339 1290.71 142.357 1290.55 Q143.376 1290.36 144.394 1290.36 Q150.181 1290.36 153.561 1293.54 Q156.941 1296.71 156.941 1302.12 Q156.941 1307.7 153.468 1310.8 Q149.996 1313.88 143.677 1313.88 Q141.501 1313.88 139.232 1313.51 Q136.987 1313.14 134.58 1312.4 L134.58 1307.7 Q136.663 1308.84 138.885 1309.39 Q141.107 1309.95 143.584 1309.95 Q147.589 1309.95 149.927 1307.84 Q152.265 1305.73 152.265 1302.12 Q152.265 1298.51 149.927 1296.41 Q147.589 1294.3 143.584 1294.3 Q141.709 1294.3 139.834 1294.72 Q137.982 1295.13 136.038 1296.01 L136.038 1278.65 Z" fill="#000000" fill-rule="nonzero" fill-opacity="1" /><path clip-path="url(#clip200)" d="M99.765 1006.29 Q96.1539 1006.29 94.3252 1009.86 Q92.5197 1013.4 92.5197 1020.53 Q92.5197 1027.64 94.3252 1031.2 Q96.1539 1034.74 99.765 1034.74 Q103.399 1034.74 105.205 1031.2 Q107.033 1027.64 107.033 1020.53 Q107.033 1013.4 105.205 1009.86 Q103.399 1006.29 99.765 1006.29 M99.765 1002.59 Q105.575 1002.59 108.631 1007.2 Q111.709 1011.78 111.709 1020.53 Q111.709 1029.26 108.631 1033.86 Q105.575 1038.45 99.765 1038.45 Q93.9549 1038.45 90.8762 1033.86 Q87.8206 1029.26 87.8206 1020.53 Q87.8206 1011.78 90.8762 1007.2 Q93.9549 1002.59 99.765 1002.59 Z" fill="#000000" fill-rule="nonzero" fill-opacity="1" /><path clip-path="url(#clip200)" d="M119.927 1031.9 L124.811 1031.9 L124.811 1037.77 L119.927 1037.77 L119.927 1031.9 Z" fill="#000000" fill-rule="nonzero" fill-opacity="1" /><path clip-path="url(#clip200)" d="M144.996 1006.29 Q141.385 1006.29 139.556 1009.86 Q137.751 1013.4 137.751 1020.53 Q137.751 1027.64 139.556 1031.2 Q141.385 1034.74 144.996 1034.74 Q148.63 1034.74 150.436 1031.2 Q152.265 1027.64 152.265 1020.53 Q152.265 1013.4 150.436 1009.86 Q148.63 1006.29 144.996 1006.29 M144.996 1002.59 Q150.806 1002.59 153.862 1007.2 Q156.941 1011.78 156.941 1020.53 Q156.941 1029.26 153.862 1033.86 Q150.806 1038.45 144.996 1038.45 Q139.186 1038.45 136.107 1033.86 Q133.052 1029.26 133.052 1020.53 Q133.052 1011.78 136.107 1007.2 Q139.186 1002.59 144.996 1002.59 Z" fill="#000000" fill-rule="nonzero" fill-opacity="1" /><path clip-path="url(#clip200)" d="M94.7882 758.403 L111.108 758.403 L111.108 762.338 L89.1632 762.338 L89.1632 758.403 Q91.8252 755.649 96.4085 751.019 Q101.015 746.366 102.196 745.024 Q104.441 742.501 105.321 740.764 Q106.223 739.005 106.223 737.315 Q106.223 734.561 104.279 732.825 Q102.358 731.089 99.2558 731.089 Q97.0567 731.089 94.603 731.852 Q92.1725 732.616 89.3947 734.167 L89.3947 729.445 Q92.2188 728.311 94.6724 727.732 Q97.1261 727.153 99.1632 727.153 Q104.534 727.153 107.728 729.839 Q110.922 732.524 110.922 737.015 Q110.922 739.144 110.112 741.065 Q109.325 742.964 107.219 745.556 Q106.64 746.227 103.538 749.445 Q100.436 752.639 94.7882 758.403 Z" fill="#000000" fill-rule="nonzero" fill-opacity="1" /><path clip-path="url(#clip200)" d="M120.922 756.459 L125.807 756.459 L125.807 762.338 L120.922 762.338 L120.922 756.459 Z" fill="#000000" fill-rule="nonzero" fill-opacity="1" /><path clip-path="url(#clip200)" d="M136.038 727.778 L154.394 727.778 L154.394 731.714 L140.32 731.714 L140.32 740.186 Q141.339 739.839 142.357 739.677 Q143.376 739.491 144.394 739.491 Q150.181 739.491 153.561 742.663 Q156.941 745.834 156.941 751.251 Q156.941 756.829 153.468 759.931 Q149.996 763.01 143.677 763.01 Q141.501 763.01 139.232 762.639 Q136.987 762.269 134.58 761.528 L134.58 756.829 Q136.663 757.963 138.885 758.519 Q141.107 759.075 143.584 759.075 Q147.589 759.075 149.927 756.968 Q152.265 754.862 152.265 751.251 Q152.265 747.639 149.927 745.533 Q147.589 743.427 143.584 743.427 Q141.709 743.427 139.834 743.843 Q137.982 744.26 136.038 745.139 L136.038 727.778 Z" fill="#000000" fill-rule="nonzero" fill-opacity="1" /><path clip-path="url(#clip200)" d="M89.8114 452.342 L108.168 452.342 L108.168 456.277 L94.0937 456.277 L94.0937 464.749 Q95.1123 464.402 96.1308 464.24 Q97.1493 464.055 98.1678 464.055 Q103.955 464.055 107.334 467.226 Q110.714 470.397 110.714 475.814 Q110.714 481.393 107.242 484.495 Q103.77 487.573 97.4502 487.573 Q95.2743 487.573 93.0058 487.203 Q90.7604 486.832 88.353 486.092 L88.353 481.393 Q90.4364 482.527 92.6586 483.083 Q94.8808 483.638 97.3576 483.638 Q101.362 483.638 103.7 481.532 Q106.038 479.425 106.038 475.814 Q106.038 472.203 103.7 470.096 Q101.362 467.99 97.3576 467.99 Q95.4826 467.99 93.6076 468.407 Q91.7558 468.823 89.8114 469.703 L89.8114 452.342 Z" fill="#000000" fill-rule="nonzero" fill-opacity="1" /><path clip-path="url(#clip200)" d="M119.927 481.022 L124.811 481.022 L124.811 486.902 L119.927 486.902 L119.927 481.022 Z" fill="#000000" fill-rule="nonzero" fill-opacity="1" /><path clip-path="url(#clip200)" d="M144.996 455.421 Q141.385 455.421 139.556 458.985 Q137.751 462.527 137.751 469.657 Q137.751 476.763 139.556 480.328 Q141.385 483.87 144.996 483.87 Q148.63 483.87 150.436 480.328 Q152.265 476.763 152.265 469.657 Q152.265 462.527 150.436 458.985 Q148.63 455.421 144.996 455.421 M144.996 451.717 Q150.806 451.717 153.862 456.323 Q156.941 460.907 156.941 469.657 Q156.941 478.383 153.862 482.99 Q150.806 487.573 144.996 487.573 Q139.186 487.573 136.107 482.99 Q133.052 478.383 133.052 469.657 Q133.052 460.907 136.107 456.323 Q139.186 451.717 144.996 451.717 Z" fill="#000000" fill-rule="nonzero" fill-opacity="1" /><path clip-path="url(#clip200)" d="M89.5799 176.905 L111.802 176.905 L111.802 178.896 L99.2558 211.465 L94.3715 211.465 L106.177 180.841 L89.5799 180.841 L89.5799 176.905 Z" fill="#000000" fill-rule="nonzero" fill-opacity="1" /><path clip-path="url(#clip200)" d="M120.922 205.586 L125.807 205.586 L125.807 211.465 L120.922 211.465 L120.922 205.586 Z" fill="#000000" fill-rule="nonzero" fill-opacity="1" /><path clip-path="url(#clip200)" d="M136.038 176.905 L154.394 176.905 L154.394 180.841 L140.32 180.841 L140.32 189.313 Q141.339 188.966 142.357 188.804 Q143.376 188.618 144.394 188.618 Q150.181 188.618 153.561 191.79 Q156.941 194.961 156.941 200.378 Q156.941 205.956 153.468 209.058 Q149.996 212.137 143.677 212.137 Q141.501 212.137 139.232 211.766 Q136.987 211.396 134.58 210.655 L134.58 205.956 Q136.663 207.09 138.885 207.646 Q141.107 208.202 143.584 208.202 Q147.589 208.202 149.927 206.095 Q152.265 203.989 152.265 200.378 Q152.265 196.766 149.927 194.66 Q147.589 192.553 143.584 192.553 Q141.709 192.553 139.834 192.97 Q137.982 193.387 136.038 194.266 L136.038 176.905 Z" fill="#000000" fill-rule="nonzero" fill-opacity="1" /><circle clip-path="url(#clip202)" cx="254.067" cy="910.32" r="14.4" fill="#009af9" fill-rule="evenodd" fill-opacity="1" stroke="#000000" stroke-opacity="1" stroke-width="3.2"/>
<circle clip-path="url(#clip202)" cx="389.905" cy="564.598" r="14.4" fill="#009af9" fill-rule="evenodd" fill-opacity="1" stroke="#000000" stroke-opacity="1" stroke-width="3.2"/>
<circle clip-path="url(#clip202)" cx="525.742" cy="344.315" r="14.4" fill="#009af9" fill-rule="evenodd" fill-opacity="1" stroke="#000000" stroke-opacity="1" stroke-width="3.2"/>
<circle clip-path="url(#clip202)" cx="661.58" cy="203.212" r="14.4" fill="#009af9" fill-rule="evenodd" fill-opacity="1" stroke="#000000" stroke-opacity="1" stroke-width="3.2"/>
<circle clip-path="url(#clip202)" cx="797.417" cy="121.036" r="14.4" fill="#009af9" fill-rule="evenodd" fill-opacity="1" stroke="#000000" stroke-opacity="1" stroke-width="3.2"/>
<circle clip-path="url(#clip202)" cx="933.255" cy="87.9763" r="14.4" fill="#009af9" fill-rule="evenodd" fill-opacity="1" stroke="#000000" stroke-opacity="1" stroke-width="3.2"/>
<circle clip-path="url(#clip202)" cx="1069.09" cy="99.0304" r="14.4" fill="#009af9" fill-rule="evenodd" fill-opacity="1" stroke="#000000" stroke-opacity="1" stroke-width="3.2"/>
<circle clip-path="url(#clip202)" cx="1204.93" cy="150.74" r="14.4" fill="#009af9" fill-rule="evenodd" fill-opacity="1" stroke="#000000" stroke-opacity="1" stroke-width="3.2"/>
<circle clip-path="url(#clip202)" cx="1340.77" cy="239.035" r="14.4" fill="#009af9" fill-rule="evenodd" fill-opacity="1" stroke="#000000" stroke-opacity="1" stroke-width="3.2"/>
<circle clip-path="url(#clip202)" cx="1476.6" cy="358.707" r="14.4" fill="#009af9" fill-rule="evenodd" fill-opacity="1" stroke="#000000" stroke-opacity="1" stroke-width="3.2"/>
<circle clip-path="url(#clip202)" cx="1612.44" cy="503.977" r="14.4" fill="#009af9" fill-rule="evenodd" fill-opacity="1" stroke="#000000" stroke-opacity="1" stroke-width="3.2"/>
<circle clip-path="url(#clip202)" cx="1748.28" cy="669.252" r="14.4" fill="#009af9" fill-rule="evenodd" fill-opacity="1" stroke="#000000" stroke-opacity="1" stroke-width="3.2"/>
<circle clip-path="url(#clip202)" cx="1884.12" cy="849.625" r="14.4" fill="#009af9" fill-rule="evenodd" fill-opacity="1" stroke="#000000" stroke-opacity="1" stroke-width="3.2"/>
<circle clip-path="url(#clip202)" cx="2019.95" cy="1041.1" r="14.4" fill="#009af9" fill-rule="evenodd" fill-opacity="1" stroke="#000000" stroke-opacity="1" stroke-width="3.2"/>
<circle clip-path="url(#clip202)" cx="2155.79" cy="1240.57" r="14.4" fill="#009af9" fill-rule="evenodd" fill-opacity="1" stroke="#000000" stroke-opacity="1" stroke-width="3.2"/>
<circle clip-path="url(#clip202)" cx="2291.63" cy="1445.72" r="14.4" fill="#009af9" fill-rule="evenodd" fill-opacity="1" stroke="#000000" stroke-opacity="1" stroke-width="3.2"/>
<path clip-path="url(#clip200)" d="M1640.43 198.898 L2280.76 198.898 L2280.76 95.2176 L1640.43 95.2176  Z" fill="#ffffff" fill-rule="evenodd" fill-opacity="1"/>
<polyline clip-path="url(#clip200)" style="stroke:#000000; stroke-linecap:round; stroke-linejoin:round; stroke-width:4; stroke-opacity:1; fill:none" points="1640.43,198.898 2280.76,198.898 2280.76,95.2176 1640.43,95.2176 1640.43,198.898 "/>
<circle clip-path="url(#clip200)" cx="1736.42" cy="147.058" r="20.48" fill="#009af9" fill-rule="evenodd" fill-opacity="1" stroke="#000000" stroke-opacity="1" stroke-width="4.55111"/>
<path clip-path="url(#clip200)" d="M1836.7 160.449 L1836.7 174.199 L1832.41 174.199 L1832.41 138.412 L1836.7 138.412 L1836.7 142.347 Q1838.04 140.032 1840.08 138.921 Q1842.14 137.787 1844.98 137.787 Q1849.71 137.787 1852.65 141.537 Q1855.61 145.287 1855.61 151.398 Q1855.61 157.509 1852.65 161.259 Q1849.71 165.009 1844.98 165.009 Q1842.14 165.009 1840.08 163.898 Q1838.04 162.763 1836.7 160.449 M1851.19 151.398 Q1851.19 146.699 1849.24 144.037 Q1847.32 141.352 1843.94 141.352 Q1840.56 141.352 1838.62 144.037 Q1836.7 146.699 1836.7 151.398 Q1836.7 156.097 1838.62 158.782 Q1840.56 161.444 1843.94 161.444 Q1847.32 161.444 1849.24 158.782 Q1851.19 156.097 1851.19 151.398 Z" fill="#000000" fill-rule="nonzero" fill-opacity="1" /><path clip-path="url(#clip200)" d="M1877.69 142.393 Q1876.97 141.977 1876.12 141.791 Q1875.28 141.583 1874.27 141.583 Q1870.66 141.583 1868.71 143.944 Q1866.79 146.282 1866.79 150.68 L1866.79 164.338 L1862.51 164.338 L1862.51 138.412 L1866.79 138.412 L1866.79 142.44 Q1868.13 140.078 1870.28 138.944 Q1872.44 137.787 1875.52 137.787 Q1875.96 137.787 1876.49 137.856 Q1877.02 137.903 1877.67 138.018 L1877.69 142.393 Z" fill="#000000" fill-rule="nonzero" fill-opacity="1" /><path clip-path="url(#clip200)" d="M1882.16 138.412 L1886.42 138.412 L1886.42 164.338 L1882.16 164.338 L1882.16 138.412 M1882.16 128.319 L1886.42 128.319 L1886.42 133.713 L1882.16 133.713 L1882.16 128.319 Z" fill="#000000" fill-rule="nonzero" fill-opacity="1" /><path clip-path="url(#clip200)" d="M1913.94 151.398 Q1913.94 146.699 1912 144.037 Q1910.08 141.352 1906.7 141.352 Q1903.32 141.352 1901.37 144.037 Q1899.45 146.699 1899.45 151.398 Q1899.45 156.097 1901.37 158.782 Q1903.32 161.444 1906.7 161.444 Q1910.08 161.444 1912 158.782 Q1913.94 156.097 1913.94 151.398 M1899.45 142.347 Q1900.79 140.032 1902.83 138.921 Q1904.89 137.787 1907.74 137.787 Q1912.46 137.787 1915.4 141.537 Q1918.36 145.287 1918.36 151.398 Q1918.36 157.509 1915.4 161.259 Q1912.46 165.009 1907.74 165.009 Q1904.89 165.009 1902.83 163.898 Q1900.79 162.763 1899.45 160.449 L1899.45 164.338 L1895.17 164.338 L1895.17 128.319 L1899.45 128.319 L1899.45 142.347 Z" fill="#000000" fill-rule="nonzero" fill-opacity="1" /><path clip-path="url(#clip200)" d="M1925.42 128.319 L1929.68 128.319 L1929.68 164.338 L1925.42 164.338 L1925.42 128.319 Z" fill="#000000" fill-rule="nonzero" fill-opacity="1" /><path clip-path="url(#clip200)" d="M1938.59 138.412 L1942.85 138.412 L1942.85 164.338 L1938.59 164.338 L1938.59 138.412 M1938.59 128.319 L1942.85 128.319 L1942.85 133.713 L1938.59 133.713 L1938.59 128.319 Z" fill="#000000" fill-rule="nonzero" fill-opacity="1" /><path clip-path="url(#clip200)" d="M1949.91 138.412 L1970.15 138.412 L1970.15 142.301 L1954.13 160.935 L1970.15 160.935 L1970.15 164.338 L1949.34 164.338 L1949.34 160.449 L1965.35 141.815 L1949.91 141.815 L1949.91 138.412 M1958.06 135.125 L1952.39 126.421 L1955.61 126.421 L1959.77 132.092 L1963.94 126.421 L1967.16 126.421 L1961.49 135.125 L1958.06 135.125 Z" fill="#000000" fill-rule="nonzero" fill-opacity="1" /><path clip-path="url(#clip200)" d="M1976.49 128.319 L1980.77 128.319 L1980.77 149.592 L1993.48 138.412 L1998.92 138.412 L1985.17 150.541 L1999.5 164.338 L1993.94 164.338 L1980.77 151.676 L1980.77 164.338 L1976.49 164.338 L1976.49 128.319 Z" fill="#000000" fill-rule="nonzero" fill-opacity="1" /><path clip-path="url(#clip200)" d="M2004.1 138.412 L2008.36 138.412 L2008.36 164.338 L2004.1 164.338 L2004.1 138.412 M2004.1 128.319 L2008.36 128.319 L2008.36 133.713 L2004.1 133.713 L2004.1 128.319 Z" fill="#000000" fill-rule="nonzero" fill-opacity="1" /><path clip-path="url(#clip200)" d="M2030.49 138.412 L2050.72 138.412 L2050.72 142.301 L2034.71 160.935 L2050.72 160.935 L2050.72 164.338 L2029.91 164.338 L2029.91 160.449 L2045.93 141.815 L2030.49 141.815 L2030.49 138.412 Z" fill="#000000" fill-rule="nonzero" fill-opacity="1" /><path clip-path="url(#clip200)" d="M2069.01 151.305 Q2063.85 151.305 2061.86 152.486 Q2059.87 153.666 2059.87 156.514 Q2059.87 158.782 2061.35 160.125 Q2062.85 161.444 2065.42 161.444 Q2068.96 161.444 2071.09 158.944 Q2073.25 156.421 2073.25 152.254 L2073.25 151.305 L2069.01 151.305 M2077.51 149.546 L2077.51 164.338 L2073.25 164.338 L2073.25 160.402 Q2071.79 162.763 2069.61 163.898 Q2067.44 165.009 2064.29 165.009 Q2060.31 165.009 2057.95 162.787 Q2055.61 160.541 2055.61 156.791 Q2055.61 152.416 2058.52 150.194 Q2061.46 147.972 2067.27 147.972 L2073.25 147.972 L2073.25 147.555 Q2073.25 144.615 2071.3 143.018 Q2069.38 141.398 2065.89 141.398 Q2063.66 141.398 2061.56 141.93 Q2059.45 142.463 2057.51 143.527 L2057.51 139.592 Q2059.84 138.69 2062.04 138.25 Q2064.24 137.787 2066.33 137.787 Q2071.95 137.787 2074.73 140.703 Q2077.51 143.62 2077.51 149.546 Z" fill="#000000" fill-rule="nonzero" fill-opacity="1" /><path clip-path="url(#clip200)" d="M2116.37 142.393 Q2115.65 141.977 2114.8 141.791 Q2113.96 141.583 2112.95 141.583 Q2109.33 141.583 2107.39 143.944 Q2105.47 146.282 2105.47 150.68 L2105.47 164.338 L2101.19 164.338 L2101.19 138.412 L2105.47 138.412 L2105.47 142.44 Q2106.81 140.078 2108.96 138.944 Q2111.12 137.787 2114.2 137.787 Q2114.64 137.787 2115.17 137.856 Q2115.7 137.903 2116.35 138.018 L2116.37 142.393 Z" fill="#000000" fill-rule="nonzero" fill-opacity="1" /><path clip-path="url(#clip200)" d="M2141.97 150.31 L2141.97 152.393 L2122.39 152.393 Q2122.67 156.791 2125.03 159.106 Q2127.41 161.398 2131.65 161.398 Q2134.1 161.398 2136.39 160.796 Q2138.71 160.194 2140.98 158.99 L2140.98 163.018 Q2138.69 163.99 2136.28 164.5 Q2133.87 165.009 2131.39 165.009 Q2125.19 165.009 2121.56 161.398 Q2117.95 157.787 2117.95 151.629 Q2117.95 145.264 2121.37 141.537 Q2124.82 137.787 2130.65 137.787 Q2135.89 137.787 2138.92 141.166 Q2141.97 144.523 2141.97 150.31 M2137.71 149.06 Q2137.67 145.565 2135.75 143.481 Q2133.85 141.398 2130.7 141.398 Q2127.14 141.398 2124.98 143.412 Q2122.85 145.426 2122.53 149.083 L2137.71 149.06 Z" fill="#000000" fill-rule="nonzero" fill-opacity="1" /><path clip-path="url(#clip200)" d="M2165.49 139.176 L2165.49 143.203 Q2163.69 142.277 2161.74 141.815 Q2159.8 141.352 2157.71 141.352 Q2154.54 141.352 2152.95 142.324 Q2151.37 143.296 2151.37 145.24 Q2151.37 146.722 2152.51 147.578 Q2153.64 148.412 2157.07 149.176 L2158.52 149.5 Q2163.06 150.472 2164.96 152.254 Q2166.88 154.014 2166.88 157.185 Q2166.88 160.796 2164.01 162.902 Q2161.16 165.009 2156.16 165.009 Q2154.08 165.009 2151.81 164.592 Q2149.57 164.199 2147.07 163.388 L2147.07 158.99 Q2149.43 160.217 2151.72 160.842 Q2154.01 161.444 2156.26 161.444 Q2159.26 161.444 2160.88 160.426 Q2162.51 159.384 2162.51 157.509 Q2162.51 155.773 2161.32 154.847 Q2160.17 153.921 2156.21 153.064 L2154.73 152.717 Q2150.77 151.884 2149.01 150.171 Q2147.25 148.435 2147.25 145.426 Q2147.25 141.768 2149.84 139.778 Q2152.44 137.787 2157.2 137.787 Q2159.57 137.787 2161.65 138.134 Q2163.73 138.481 2165.49 139.176 M2155.63 135.125 L2149.96 126.421 L2153.18 126.421 L2157.34 132.092 L2161.51 126.421 L2164.73 126.421 L2159.06 135.125 L2155.63 135.125 M2157.25 137.787 L2157.25 137.787 Z" fill="#000000" fill-rule="nonzero" fill-opacity="1" /><path clip-path="url(#clip200)" d="M2173.66 138.412 L2177.92 138.412 L2177.92 164.338 L2173.66 164.338 L2173.66 138.412 M2173.66 128.319 L2177.92 128.319 L2177.92 133.713 L2173.66 133.713 L2173.66 128.319 Z" fill="#000000" fill-rule="nonzero" fill-opacity="1" /><path clip-path="url(#clip200)" d="M2191.05 131.051 L2191.05 138.412 L2199.82 138.412 L2199.82 141.722 L2191.05 141.722 L2191.05 155.796 Q2191.05 158.967 2191.9 159.87 Q2192.78 160.773 2195.44 160.773 L2199.82 160.773 L2199.82 164.338 L2195.44 164.338 Q2190.51 164.338 2188.64 162.509 Q2186.76 160.657 2186.76 155.796 L2186.76 141.722 L2183.64 141.722 L2183.64 138.412 L2186.76 138.412 L2186.76 131.051 L2191.05 131.051 Z" fill="#000000" fill-rule="nonzero" fill-opacity="1" /><path clip-path="url(#clip200)" d="M2227.6 150.31 L2227.6 152.393 L2208.01 152.393 Q2208.29 156.791 2210.65 159.106 Q2213.04 161.398 2217.27 161.398 Q2219.73 161.398 2222.02 160.796 Q2224.33 160.194 2226.6 158.99 L2226.6 163.018 Q2224.31 163.99 2221.9 164.5 Q2219.5 165.009 2217.02 165.009 Q2210.82 165.009 2207.18 161.398 Q2203.57 157.787 2203.57 151.629 Q2203.57 145.264 2207 141.537 Q2210.44 137.787 2216.28 137.787 Q2221.51 137.787 2224.54 141.166 Q2227.6 144.523 2227.6 150.31 M2223.34 149.06 Q2223.29 145.565 2221.37 143.481 Q2219.47 141.398 2216.32 141.398 Q2212.76 141.398 2210.61 143.412 Q2208.48 145.426 2208.15 149.083 L2223.34 149.06 Z" fill="#000000" fill-rule="nonzero" fill-opacity="1" /><path clip-path="url(#clip200)" d="M2231.53 138.412 L2236.05 138.412 L2244.15 160.171 L2252.25 138.412 L2256.76 138.412 L2247.04 164.338 L2241.25 164.338 L2231.53 138.412 Z" fill="#000000" fill-rule="nonzero" fill-opacity="1" /></svg>
