<?xml version="1.0" encoding="utf-8"?>
<svg xmlns="http://www.w3.org/2000/svg" xmlns:xlink="http://www.w3.org/1999/xlink" width="600" height="400" viewBox="0 0 2400 1600">
<defs>
  <clipPath id="clip160">
    <rect x="0" y="0" width="2400" height="1600"/>
  </clipPath>
</defs>
<path clip-path="url(#clip160)" d="M0 1600 L2400 1600 L2400 0 L0 0  Z" fill="#ffffff" fill-rule="evenodd" fill-opacity="1"/>
<defs>
  <clipPath id="clip161">
    <rect x="480" y="0" width="1681" height="1600"/>
  </clipPath>
</defs>
<path clip-path="url(#clip160)" d="M175.445 1423.18 L2352.76 1423.18 L2352.76 47.2441 L175.445 47.2441  Z" fill="#ffffff" fill-rule="evenodd" fill-opacity="1"/>
<defs>
  <clipPath id="clip162">
    <rect x="175" y="47" width="2178" height="1377"/>
  </clipPath>
</defs>
<polyline clip-path="url(#clip162)" style="stroke:#000000; stroke-linecap:round; stroke-linejoin:round; stroke-width:2; stroke-opacity:0.1; fill:none" points="237.067,1423.18 237.067,47.2441 "/>
<polyline clip-path="url(#clip162)" style="stroke:#000000; stroke-linecap:round; stroke-linejoin:round; stroke-width:2; stroke-opacity:0.1; fill:none" points="660.756,1423.18 660.756,47.2441 "/>
<polyline clip-path="url(#clip162)" style="stroke:#000000; stroke-linecap:round; stroke-linejoin:round; stroke-width:2; stroke-opacity:0.1; fill:none" points="1084.45,1423.18 1084.45,47.2441 "/>
<polyline clip-path="url(#clip162)" style="stroke:#000000; stroke-linecap:round; stroke-linejoin:round; stroke-width:2; stroke-opacity:0.1; fill:none" points="1508.13,1423.18 1508.13,47.2441 "/>
<polyline clip-path="url(#clip162)" style="stroke:#000000; stroke-linecap:round; stroke-linejoin:round; stroke-width:2; stroke-opacity:0.1; fill:none" points="1931.82,1423.18 1931.82,47.2441 "/>
<polyline clip-path="url(#clip160)" style="stroke:#000000; stroke-linecap:round; stroke-linejoin:round; stroke-width:4; stroke-opacity:1; fill:none" points="175.445,1423.18 2352.76,1423.18 "/>
<polyline clip-path="url(#clip160)" style="stroke:#000000; stroke-linecap:round; stroke-linejoin:round; stroke-width:4; stroke-opacity:1; fill:none" points="237.067,1423.18 237.067,1404.28 "/>
<polyline clip-path="url(#clip160)" style="stroke:#000000; stroke-linecap:round; stroke-linejoin:round; stroke-width:4; stroke-opacity:1; fill:none" points="660.756,1423.18 660.756,1404.28 "/>
<polyline clip-path="url(#clip160)" style="stroke:#000000; stroke-linecap:round; stroke-linejoin:round; stroke-width:4; stroke-opacity:1; fill:none" points="1084.45,1423.18 1084.45,1404.28 "/>
<polyline clip-path="url(#clip160)" style="stroke:#000000; stroke-linecap:round; stroke-linejoin:round; stroke-width:4; stroke-opacity:1; fill:none" points="1508.13,1423.18 1508.13,1404.28 "/>
<polyline clip-path="url(#clip160)" style="stroke:#000000; stroke-linecap:round; stroke-linejoin:round; stroke-width:4; stroke-opacity:1; fill:none" points="1931.82,1423.18 1931.82,1404.28 "/>
<path clip-path="url(#clip160)" d="M237.067 1454.1 Q233.456 1454.1 231.627 1457.66 Q229.822 1461.2 229.822 1468.33 Q229.822 1475.44 231.627 1479.01 Q233.456 1482.55 237.067 1482.55 Q240.701 1482.55 242.507 1479.01 Q244.336 1475.44 244.336 1468.33 Q244.336 1461.2 242.507 1457.66 Q240.701 1454.1 237.067 1454.1 M237.067 1450.39 Q242.877 1450.39 245.933 1455 Q249.012 1459.58 249.012 1468.33 Q249.012 1477.06 245.933 1481.67 Q242.877 1486.25 237.067 1486.25 Q231.257 1486.25 228.178 1481.67 Q225.123 1477.06 225.123 1468.33 Q225.123 1459.58 228.178 1455 Q231.257 1450.39 237.067 1450.39 Z" fill="#000000" fill-rule="nonzero" fill-opacity="1" /><path clip-path="url(#clip160)" d="M655.409 1481.64 L671.728 1481.64 L671.728 1485.58 L649.784 1485.58 L649.784 1481.64 Q652.446 1478.89 657.029 1474.26 Q661.636 1469.61 662.816 1468.27 Q665.062 1465.74 665.941 1464.01 Q666.844 1462.25 666.844 1460.56 Q666.844 1457.8 664.9 1456.07 Q662.978 1454.33 659.877 1454.33 Q657.678 1454.33 655.224 1455.09 Q652.793 1455.86 650.016 1457.41 L650.016 1452.69 Q652.84 1451.55 655.293 1450.97 Q657.747 1450.39 659.784 1450.39 Q665.154 1450.39 668.349 1453.08 Q671.543 1455.77 671.543 1460.26 Q671.543 1462.39 670.733 1464.31 Q669.946 1466.2 667.839 1468.8 Q667.261 1469.47 664.159 1472.69 Q661.057 1475.88 655.409 1481.64 Z" fill="#000000" fill-rule="nonzero" fill-opacity="1" /><path clip-path="url(#clip160)" d="M1087.45 1455.09 L1075.65 1473.54 L1087.45 1473.54 L1087.45 1455.09 M1086.23 1451.02 L1092.11 1451.02 L1092.11 1473.54 L1097.04 1473.54 L1097.04 1477.43 L1092.11 1477.43 L1092.11 1485.58 L1087.45 1485.58 L1087.45 1477.43 L1071.85 1477.43 L1071.85 1472.92 L1086.23 1451.02 Z" fill="#000000" fill-rule="nonzero" fill-opacity="1" /><path clip-path="url(#clip160)" d="M1508.54 1466.44 Q1505.39 1466.44 1503.54 1468.59 Q1501.71 1470.74 1501.71 1474.49 Q1501.71 1478.22 1503.54 1480.39 Q1505.39 1482.55 1508.54 1482.55 Q1511.69 1482.55 1513.52 1480.39 Q1515.37 1478.22 1515.37 1474.49 Q1515.37 1470.74 1513.52 1468.59 Q1511.69 1466.44 1508.54 1466.44 M1517.82 1451.78 L1517.82 1456.04 Q1516.06 1455.21 1514.26 1454.77 Q1512.47 1454.33 1510.72 1454.33 Q1506.09 1454.33 1503.63 1457.45 Q1501.2 1460.58 1500.85 1466.9 Q1502.22 1464.89 1504.28 1463.82 Q1506.34 1462.73 1508.82 1462.73 Q1514.03 1462.73 1517.03 1465.9 Q1520.07 1469.05 1520.07 1474.49 Q1520.07 1479.82 1516.92 1483.03 Q1513.77 1486.25 1508.54 1486.25 Q1502.54 1486.25 1499.37 1481.67 Q1496.2 1477.06 1496.2 1468.33 Q1496.2 1460.14 1500.09 1455.28 Q1503.98 1450.39 1510.53 1450.39 Q1512.29 1450.39 1514.07 1450.74 Q1515.88 1451.09 1517.82 1451.78 Z" fill="#000000" fill-rule="nonzero" fill-opacity="1" /><path clip-path="url(#clip160)" d="M1931.82 1469.17 Q1928.49 1469.17 1926.57 1470.95 Q1924.67 1472.73 1924.67 1475.86 Q1924.67 1478.98 1926.57 1480.77 Q1928.49 1482.55 1931.82 1482.55 Q1935.16 1482.55 1937.08 1480.77 Q1939 1478.96 1939 1475.86 Q1939 1472.73 1937.08 1470.95 Q1935.18 1469.17 1931.82 1469.17 M1927.15 1467.18 Q1924.14 1466.44 1922.45 1464.38 Q1920.78 1462.32 1920.78 1459.35 Q1920.78 1455.21 1923.72 1452.8 Q1926.68 1450.39 1931.82 1450.39 Q1936.99 1450.39 1939.92 1452.8 Q1942.86 1455.21 1942.86 1459.35 Q1942.86 1462.32 1941.17 1464.38 Q1939.51 1466.44 1936.52 1467.18 Q1939.9 1467.96 1941.78 1470.26 Q1943.67 1472.55 1943.67 1475.86 Q1943.67 1480.88 1940.6 1483.57 Q1937.54 1486.25 1931.82 1486.25 Q1926.11 1486.25 1923.03 1483.57 Q1919.97 1480.88 1919.97 1475.86 Q1919.97 1472.55 1921.87 1470.26 Q1923.77 1467.96 1927.15 1467.18 M1925.43 1459.79 Q1925.43 1462.48 1927.1 1463.98 Q1928.79 1465.49 1931.82 1465.49 Q1934.83 1465.49 1936.52 1463.98 Q1938.24 1462.48 1938.24 1459.79 Q1938.24 1457.11 1936.52 1455.6 Q1934.83 1454.1 1931.82 1454.1 Q1928.79 1454.1 1927.1 1455.6 Q1925.43 1457.11 1925.43 1459.79 Z" fill="#000000" fill-rule="nonzero" fill-opacity="1" /><path clip-path="url(#clip160)" d="M1278.27 1528.8 Q1278.27 1530.61 1277.15 1531.64 Q1276.02 1532.64 1274.73 1532.64 Q1273.51 1532.64 1272.86 1531.93 Q1272.22 1531.22 1272.22 1530.32 Q1272.22 1529.09 1273.12 1528.03 Q1274.02 1526.97 1275.38 1526.74 Q1274.06 1525.91 1272.09 1525.91 Q1270.8 1525.91 1269.68 1526.58 Q1268.58 1527.26 1267.9 1528.13 Q1267.26 1529 1266.68 1530.25 Q1266.13 1531.48 1265.91 1532.22 Q1265.71 1532.93 1265.55 1533.7 L1263.3 1542.72 Q1262.2 1547 1262.2 1548.51 Q1262.2 1550.38 1263.11 1551.64 Q1264.01 1552.86 1265.81 1552.86 Q1266.52 1552.86 1267.32 1552.67 Q1268.13 1552.44 1269.16 1551.86 Q1270.22 1551.25 1271.16 1550.35 Q1272.12 1549.42 1273.06 1547.84 Q1273.99 1546.26 1274.6 1544.23 Q1274.8 1543.52 1275.44 1543.52 Q1276.24 1543.52 1276.24 1544.17 Q1276.24 1544.71 1275.79 1545.87 Q1275.38 1547 1274.44 1548.48 Q1273.54 1549.93 1272.35 1551.25 Q1271.16 1552.54 1269.39 1553.44 Q1267.61 1554.34 1265.68 1554.34 Q1262.91 1554.34 1261.08 1552.86 Q1259.24 1551.38 1258.56 1549.32 Q1258.4 1549.61 1258.18 1550 Q1257.95 1550.38 1257.28 1551.25 Q1256.63 1552.09 1255.89 1552.73 Q1255.15 1553.34 1253.99 1553.83 Q1252.86 1554.34 1251.64 1554.34 Q1250.09 1554.34 1248.71 1553.89 Q1247.36 1553.44 1246.39 1552.41 Q1245.42 1551.38 1245.42 1549.96 Q1245.42 1548.38 1246.49 1547.29 Q1247.58 1546.16 1249.06 1546.16 Q1250 1546.16 1250.74 1546.71 Q1251.51 1547.26 1251.51 1548.45 Q1251.51 1549.77 1250.61 1550.77 Q1249.71 1551.77 1248.42 1552.02 Q1249.74 1552.86 1251.7 1552.86 Q1253.83 1552.86 1255.5 1550.99 Q1257.18 1549.13 1257.98 1546 Q1259.98 1538.5 1260.75 1535.15 Q1261.53 1531.77 1261.53 1530.32 Q1261.53 1528.96 1261.17 1528.03 Q1260.82 1527.1 1260.21 1526.68 Q1259.63 1526.23 1259.08 1526.07 Q1258.56 1525.91 1257.98 1525.91 Q1257.02 1525.91 1255.92 1526.29 Q1254.86 1526.68 1253.57 1527.58 Q1252.32 1528.45 1251.12 1530.25 Q1249.93 1532.06 1249.13 1534.54 Q1248.97 1535.28 1248.26 1535.28 Q1247.49 1535.24 1247.49 1534.6 Q1247.49 1534.05 1247.9 1532.93 Q1248.35 1531.77 1249.26 1530.32 Q1250.19 1528.87 1251.38 1527.58 Q1252.61 1526.26 1254.38 1525.36 Q1256.18 1524.46 1258.11 1524.46 Q1258.98 1524.46 1259.82 1524.65 Q1260.69 1524.81 1261.72 1525.29 Q1262.78 1525.78 1263.72 1526.84 Q1264.65 1527.9 1265.23 1529.45 Q1265.62 1528.71 1266.13 1528 Q1266.68 1527.29 1267.52 1526.42 Q1268.39 1525.52 1269.58 1525 Q1270.8 1524.46 1272.15 1524.46 Q1273.48 1524.46 1274.76 1524.81 Q1276.05 1525.13 1277.15 1526.19 Q1278.27 1527.23 1278.27 1528.8 Z" fill="#000000" fill-rule="nonzero" fill-opacity="1" /><polyline clip-path="url(#clip162)" style="stroke:#000000; stroke-linecap:round; stroke-linejoin:round; stroke-width:2; stroke-opacity:0.1; fill:none" points="175.445,1384.23 2352.76,1384.23 "/>
<polyline clip-path="url(#clip162)" style="stroke:#000000; stroke-linecap:round; stroke-linejoin:round; stroke-width:2; stroke-opacity:0.1; fill:none" points="175.445,1075.39 2352.76,1075.39 "/>
<polyline clip-path="url(#clip162)" style="stroke:#000000; stroke-linecap:round; stroke-linejoin:round; stroke-width:2; stroke-opacity:0.1; fill:none" points="175.445,766.554 2352.76,766.554 "/>
<polyline clip-path="url(#clip162)" style="stroke:#000000; stroke-linecap:round; stroke-linejoin:round; stroke-width:2; stroke-opacity:0.1; fill:none" points="175.445,457.715 2352.76,457.715 "/>
<polyline clip-path="url(#clip162)" style="stroke:#000000; stroke-linecap:round; stroke-linejoin:round; stroke-width:2; stroke-opacity:0.1; fill:none" points="175.445,148.877 2352.76,148.877 "/>
<polyline clip-path="url(#clip160)" style="stroke:#000000; stroke-linecap:round; stroke-linejoin:round; stroke-width:4; stroke-opacity:1; fill:none" points="175.445,1423.18 175.445,47.2441 "/>
<polyline clip-path="url(#clip160)" style="stroke:#000000; stroke-linecap:round; stroke-linejoin:round; stroke-width:4; stroke-opacity:1; fill:none" points="175.445,1384.23 194.343,1384.23 "/>
<polyline clip-path="url(#clip160)" style="stroke:#000000; stroke-linecap:round; stroke-linejoin:round; stroke-width:4; stroke-opacity:1; fill:none" points="175.445,1075.39 194.343,1075.39 "/>
<polyline clip-path="url(#clip160)" style="stroke:#000000; stroke-linecap:round; stroke-linejoin:round; stroke-width:4; stroke-opacity:1; fill:none" points="175.445,766.554 194.343,766.554 "/>
<polyline clip-path="url(#clip160)" style="stroke:#000000; stroke-linecap:round; stroke-linejoin:round; stroke-width:4; stroke-opacity:1; fill:none" points="175.445,457.715 194.343,457.715 "/>
<polyline clip-path="url(#clip160)" style="stroke:#000000; stroke-linecap:round; stroke-linejoin:round; stroke-width:4; stroke-opacity:1; fill:none" points="175.445,148.877 194.343,148.877 "/>
<path clip-path="url(#clip160)" d="M127.501 1370.03 Q123.89 1370.03 122.061 1373.6 Q120.255 1377.14 120.255 1384.27 Q120.255 1391.37 122.061 1394.94 Q123.89 1398.48 127.501 1398.48 Q131.135 1398.48 132.941 1394.94 Q134.769 1391.37 134.769 1384.27 Q134.769 1377.14 132.941 1373.6 Q131.135 1370.03 127.501 1370.03 M127.501 1366.33 Q133.311 1366.33 136.367 1370.93 Q139.445 1375.52 139.445 1384.27 Q139.445 1392.99 136.367 1397.6 Q133.311 1402.18 127.501 1402.18 Q121.691 1402.18 118.612 1397.6 Q115.556 1392.99 115.556 1384.27 Q115.556 1375.52 118.612 1370.93 Q121.691 1366.33 127.501 1366.33 Z" fill="#000000" fill-rule="nonzero" fill-opacity="1" /><path clip-path="url(#clip160)" d="M123.126 1088.74 L139.445 1088.74 L139.445 1092.67 L117.501 1092.67 L117.501 1088.74 Q120.163 1085.98 124.746 1081.35 Q129.353 1076.7 130.533 1075.36 Q132.779 1072.83 133.658 1071.1 Q134.561 1069.34 134.561 1067.65 Q134.561 1064.9 132.617 1063.16 Q130.695 1061.42 127.593 1061.42 Q125.394 1061.42 122.941 1062.19 Q120.51 1062.95 117.732 1064.5 L117.732 1059.78 Q120.556 1058.65 123.01 1058.07 Q125.464 1057.49 127.501 1057.49 Q132.871 1057.49 136.066 1060.17 Q139.26 1062.86 139.26 1067.35 Q139.26 1069.48 138.45 1071.4 Q137.663 1073.3 135.556 1075.89 Q134.978 1076.56 131.876 1079.78 Q128.774 1082.97 123.126 1088.74 Z" fill="#000000" fill-rule="nonzero" fill-opacity="1" /><path clip-path="url(#clip160)" d="M129.862 753.348 L118.056 771.797 L129.862 771.797 L129.862 753.348 M128.635 749.274 L134.515 749.274 L134.515 771.797 L139.445 771.797 L139.445 775.686 L134.515 775.686 L134.515 783.834 L129.862 783.834 L129.862 775.686 L114.26 775.686 L114.26 771.172 L128.635 749.274 Z" fill="#000000" fill-rule="nonzero" fill-opacity="1" /><path clip-path="url(#clip160)" d="M127.917 455.852 Q124.769 455.852 122.918 458.005 Q121.089 460.157 121.089 463.907 Q121.089 467.634 122.918 469.81 Q124.769 471.963 127.917 471.963 Q131.066 471.963 132.894 469.81 Q134.746 467.634 134.746 463.907 Q134.746 460.157 132.894 458.005 Q131.066 455.852 127.917 455.852 M137.2 441.199 L137.2 445.458 Q135.441 444.625 133.635 444.185 Q131.853 443.746 130.093 443.746 Q125.464 443.746 123.01 446.871 Q120.58 449.995 120.232 456.315 Q121.598 454.301 123.658 453.236 Q125.718 452.148 128.195 452.148 Q133.404 452.148 136.413 455.32 Q139.445 458.468 139.445 463.907 Q139.445 469.231 136.297 472.449 Q133.149 475.667 127.917 475.667 Q121.922 475.667 118.751 471.083 Q115.58 466.477 115.58 457.75 Q115.58 449.556 119.468 444.695 Q123.357 439.81 129.908 439.81 Q131.667 439.81 133.45 440.158 Q135.255 440.505 137.2 441.199 Z" fill="#000000" fill-rule="nonzero" fill-opacity="1" /><path clip-path="url(#clip160)" d="M127.593 149.745 Q124.26 149.745 122.339 151.527 Q120.441 153.309 120.441 156.434 Q120.441 159.559 122.339 161.342 Q124.26 163.124 127.593 163.124 Q130.927 163.124 132.848 161.342 Q134.769 159.536 134.769 156.434 Q134.769 153.309 132.848 151.527 Q130.95 149.745 127.593 149.745 M122.918 147.754 Q119.908 147.013 118.218 144.953 Q116.552 142.893 116.552 139.93 Q116.552 135.786 119.492 133.379 Q122.455 130.972 127.593 130.972 Q132.755 130.972 135.695 133.379 Q138.635 135.786 138.635 139.93 Q138.635 142.893 136.945 144.953 Q135.279 147.013 132.292 147.754 Q135.672 148.541 137.547 150.833 Q139.445 153.124 139.445 156.434 Q139.445 161.458 136.367 164.143 Q133.311 166.828 127.593 166.828 Q121.876 166.828 118.797 164.143 Q115.742 161.458 115.742 156.434 Q115.742 153.124 117.64 150.833 Q119.538 148.541 122.918 147.754 M121.205 140.37 Q121.205 143.055 122.871 144.56 Q124.561 146.064 127.593 146.064 Q130.603 146.064 132.292 144.56 Q134.005 143.055 134.005 140.37 Q134.005 137.685 132.292 136.18 Q130.603 134.675 127.593 134.675 Q124.561 134.675 122.871 136.18 Q121.205 137.685 121.205 140.37 Z" fill="#000000" fill-rule="nonzero" fill-opacity="1" /><path clip-path="url(#clip160)" d="M30.8561 720.775 Q31.307 720.775 32.3698 721.064 L57.5548 727.377 Q63.1586 728.762 67.0877 733.27 Q71.0168 737.747 71.0168 742.836 Q71.0168 745.895 69.3743 747.86 Q67.764 749.824 65.2842 749.824 Q63.0942 749.824 62.0314 748.665 Q61.0008 747.505 61.0008 746.121 Q61.0008 745.67 61.1296 745.187 Q61.2584 744.703 61.8059 744.188 Q62.3534 743.673 63.2874 743.673 Q64.8011 743.673 65.9927 744.993 Q66.5402 745.637 66.669 746.249 Q66.7978 746.829 66.7978 747.827 Q67.6996 747.441 68.3115 746.732 Q68.9234 746.024 69.1489 745.219 Q69.4065 744.414 69.4709 743.898 Q69.5675 743.351 69.5675 742.836 Q69.5675 738.713 65.413 735.557 Q64.157 734.623 62.9009 733.947 Q61.6771 733.238 60.1634 732.723 Q58.682 732.208 57.8768 731.982 Q57.0717 731.725 55.2359 731.274 Q58.2311 734.269 58.2311 737.94 Q58.2311 739.486 57.8124 740.871 Q57.3937 742.224 56.5242 743.415 Q55.6224 744.607 54.0443 745.315 Q52.4662 745.992 50.3728 745.992 Q48.1506 745.992 45.1233 745.122 Q42.0959 744.253 36.5243 742.159 Q33.4004 741.032 31.8867 741.032 Q31.146 741.032 30.6951 741.193 Q30.212 741.354 30.051 741.676 Q29.8577 741.998 29.8255 742.191 Q29.7933 742.352 29.7933 742.675 Q29.7933 744.575 31.7257 746.346 Q33.658 748.117 37.9736 749.341 Q38.7787 749.599 38.972 749.76 Q39.1652 749.921 39.1652 750.404 Q39.133 751.209 38.4889 751.209 Q38.2312 751.209 37.2329 750.919 Q36.2023 750.629 34.6886 749.953 Q33.1427 749.245 31.7579 748.278 Q30.3408 747.312 29.3424 745.798 Q28.344 744.253 28.344 742.481 Q28.344 740.066 29.9221 738.584 Q31.468 737.071 33.7546 737.071 Q34.6886 737.071 35.5259 737.328 Q36.3311 737.554 38.4889 738.391 Q47.1845 741.773 51.4356 741.773 Q52.4662 741.773 53.3358 741.612 Q54.1731 741.418 55.0105 741 Q55.8156 740.581 56.2987 739.744 Q56.7496 738.874 56.7496 737.683 Q56.7496 736.169 56.0411 734.752 Q55.3003 733.303 54.302 732.401 Q53.3036 731.467 52.4662 730.919 Q51.5967 730.34 51.1458 730.211 L39.294 727.248 L34.0123 725.927 Q31.146 725.316 30.4374 725.026 Q29.7611 724.639 29.4068 723.963 Q29.0526 723.287 29.0526 722.707 Q29.0526 721.902 29.5357 721.354 Q30.0187 720.775 30.8561 720.775 Z" fill="#000000" fill-rule="nonzero" fill-opacity="1" /><polyline clip-path="url(#clip162)" style="stroke:#009af9; stroke-linecap:round; stroke-linejoin:round; stroke-width:4; stroke-opacity:1; fill:none" points="237.067,1229.81 290.53,1152.34 341.143,1079.96 389.118,1012.34 434.669,949.145 478.007,890.047 519.346,834.716 558.897,782.823 596.875,734.037 633.49,688.028 668.956,644.466 703.485,603.022 737.252,563.419 770.116,525.847 802.072,490.311 833.171,456.734 863.462,425.044 892.997,395.166 921.825,367.025 949.997,340.546 977.563,315.657 1004.57,292.282 1031.08,270.346 1057.13,249.777 1082.75,230.527 1107.96,212.598 1132.76,195.966 1157.17,180.607 1181.22,166.495 1204.92,153.607 1228.28,141.917 1251.34,131.402 1274.1,122.036 1296.59,113.795 1318.82,106.654 1340.82,100.59 1362.58,95.5985 1384.12,91.6731 1405.44,88.8029 1426.55,86.9773 1447.43,86.1857 1468.11,86.4172 1488.59,87.6611 1508.86,89.9068 1528.93,93.1435 1548.81,97.3606 1568.5,102.547 1588.01,108.695 1607.32,115.799 1626.43,123.845 1645.33,132.82 1664.04,142.711 1682.54,153.503 1700.83,165.183 1718.91,177.738 1736.77,191.154 1754.42,205.418 1771.84,220.515 1789.04,236.433 1806.02,253.155 1822.76,270.664 1839.27,288.941 1855.54,307.969 1871.58,327.731 1887.38,348.207 1902.94,369.38 1918.26,391.233 1933.34,413.747 1948.17,436.905 1962.75,460.688 1977.09,485.079 1991.17,510.06 2005.01,535.615 2018.61,561.725 2031.96,588.375 2045.06,615.546 2057.93,643.222 2070.55,671.385 2082.93,700.019 2095.07,729.105 2106.97,758.628 2118.64,788.57 2130.06,818.916 2141.26,849.654 2152.23,880.772 2162.97,912.255 2173.49,944.09 2183.78,976.265 2193.86,1008.76 2203.72,1041.58 2213.37,1074.69 2222.81,1108.09 2232.04,1141.75 2241.07,1175.68 2249.89,1209.86 2258.52,1244.29 2266.96,1278.95 2275.2,1313.83 2283.26,1348.93 2291.13,1384.24 "/>
<path clip-path="url(#clip160)" d="M248.022 196.789 L719.571 196.789 L719.571 93.1086 L248.022 93.1086  Z" fill="#ffffff" fill-rule="evenodd" fill-opacity="1"/>
<polyline clip-path="url(#clip160)" style="stroke:#000000; stroke-linecap:round; stroke-linejoin:round; stroke-width:4; stroke-opacity:1; fill:none" points="248.022,196.789 719.571,196.789 719.571,93.1086 248.022,93.1086 248.022,196.789 "/>
<polyline clip-path="url(#clip160)" style="stroke:#009af9; stroke-linecap:round; stroke-linejoin:round; stroke-width:4; stroke-opacity:1; fill:none" points="272.215,144.949 417.369,144.949 "/>
<path clip-path="url(#clip160)" d="M448.968 128.942 L448.968 136.303 L457.741 136.303 L457.741 139.613 L448.968 139.613 L448.968 153.687 Q448.968 156.858 449.825 157.761 Q450.704 158.664 453.366 158.664 L457.741 158.664 L457.741 162.229 L453.366 162.229 Q448.436 162.229 446.561 160.4 Q444.686 158.548 444.686 153.687 L444.686 139.613 L441.561 139.613 L441.561 136.303 L444.686 136.303 L444.686 128.942 L448.968 128.942 Z" fill="#000000" fill-rule="nonzero" fill-opacity="1" /><path clip-path="url(#clip160)" d="M478.366 140.284 Q477.649 139.868 476.792 139.682 Q475.959 139.474 474.94 139.474 Q471.329 139.474 469.385 141.835 Q467.464 144.173 467.464 148.571 L467.464 162.229 L463.181 162.229 L463.181 136.303 L467.464 136.303 L467.464 140.331 Q468.806 137.969 470.959 136.835 Q473.112 135.678 476.19 135.678 Q476.63 135.678 477.163 135.747 Q477.695 135.794 478.343 135.909 L478.366 140.284 Z" fill="#000000" fill-rule="nonzero" fill-opacity="1" /><path clip-path="url(#clip160)" d="M494.616 149.196 Q489.454 149.196 487.463 150.377 Q485.473 151.557 485.473 154.405 Q485.473 156.673 486.954 158.016 Q488.459 159.335 491.028 159.335 Q494.57 159.335 496.7 156.835 Q498.852 154.312 498.852 150.145 L498.852 149.196 L494.616 149.196 M503.112 147.437 L503.112 162.229 L498.852 162.229 L498.852 158.293 Q497.394 160.655 495.218 161.789 Q493.042 162.9 489.894 162.9 Q485.913 162.9 483.551 160.678 Q481.214 158.432 481.214 154.682 Q481.214 150.307 484.13 148.085 Q487.07 145.863 492.88 145.863 L498.852 145.863 L498.852 145.446 Q498.852 142.507 496.908 140.909 Q494.987 139.289 491.491 139.289 Q489.269 139.289 487.163 139.821 Q485.056 140.354 483.112 141.419 L483.112 137.483 Q485.45 136.581 487.649 136.141 Q489.848 135.678 491.931 135.678 Q497.556 135.678 500.334 138.594 Q503.112 141.511 503.112 147.437 Z" fill="#000000" fill-rule="nonzero" fill-opacity="1" /><path clip-path="url(#clip160)" d="M511.885 136.303 L516.144 136.303 L516.144 162.692 Q516.144 167.645 514.246 169.867 Q512.371 172.09 508.181 172.09 L506.561 172.09 L506.561 168.479 L507.695 168.479 Q510.125 168.479 511.005 167.344 Q511.885 166.233 511.885 162.692 L511.885 136.303 M511.885 126.21 L516.144 126.21 L516.144 131.604 L511.885 131.604 L511.885 126.21 Z" fill="#000000" fill-rule="nonzero" fill-opacity="1" /><path clip-path="url(#clip160)" d="M547.232 148.201 L547.232 150.284 L527.648 150.284 Q527.926 154.682 530.287 156.997 Q532.672 159.289 536.908 159.289 Q539.361 159.289 541.653 158.687 Q543.968 158.085 546.236 156.881 L546.236 160.909 Q543.945 161.881 541.537 162.391 Q539.13 162.9 536.653 162.9 Q530.449 162.9 526.815 159.289 Q523.204 155.678 523.204 149.52 Q523.204 143.155 526.63 139.428 Q530.079 135.678 535.912 135.678 Q541.144 135.678 544.176 139.057 Q547.232 142.414 547.232 148.201 M542.972 146.951 Q542.926 143.456 541.005 141.372 Q539.107 139.289 535.959 139.289 Q532.394 139.289 530.241 141.303 Q528.111 143.317 527.787 146.974 L542.972 146.951 Z" fill="#000000" fill-rule="nonzero" fill-opacity="1" /><path clip-path="url(#clip160)" d="M554.06 126.21 L558.343 126.21 L558.343 147.483 L571.051 136.303 L576.491 136.303 L562.741 148.432 L577.069 162.229 L571.514 162.229 L558.343 149.567 L558.343 162.229 L554.06 162.229 L554.06 126.21 Z" fill="#000000" fill-rule="nonzero" fill-opacity="1" /><path clip-path="url(#clip160)" d="M585.889 128.942 L585.889 136.303 L594.662 136.303 L594.662 139.613 L585.889 139.613 L585.889 153.687 Q585.889 156.858 586.745 157.761 Q587.625 158.664 590.287 158.664 L594.662 158.664 L594.662 162.229 L590.287 162.229 Q585.356 162.229 583.481 160.4 Q581.607 158.548 581.607 153.687 L581.607 139.613 L578.482 139.613 L578.482 136.303 L581.607 136.303 L581.607 128.942 L585.889 128.942 Z" fill="#000000" fill-rule="nonzero" fill-opacity="1" /><path clip-path="url(#clip160)" d="M610.31 139.289 Q606.884 139.289 604.893 141.974 Q602.903 144.636 602.903 149.289 Q602.903 153.942 604.87 156.627 Q606.861 159.289 610.31 159.289 Q613.713 159.289 615.704 156.604 Q617.694 153.918 617.694 149.289 Q617.694 144.682 615.704 141.997 Q613.713 139.289 610.31 139.289 M610.31 135.678 Q615.866 135.678 619.037 139.289 Q622.208 142.9 622.208 149.289 Q622.208 155.655 619.037 159.289 Q615.866 162.9 610.31 162.9 Q604.731 162.9 601.56 159.289 Q598.412 155.655 598.412 149.289 Q598.412 142.9 601.56 139.289 Q604.731 135.678 610.31 135.678 Z" fill="#000000" fill-rule="nonzero" fill-opacity="1" /><path clip-path="url(#clip160)" d="M644.291 140.284 Q643.574 139.868 642.717 139.682 Q641.884 139.474 640.865 139.474 Q637.254 139.474 635.31 141.835 Q633.389 144.173 633.389 148.571 L633.389 162.229 L629.106 162.229 L629.106 136.303 L633.389 136.303 L633.389 140.331 Q634.731 137.969 636.884 136.835 Q639.037 135.678 642.115 135.678 Q642.555 135.678 643.088 135.747 Q643.62 135.794 644.268 135.909 L644.291 140.284 Z" fill="#000000" fill-rule="nonzero" fill-opacity="1" /><path clip-path="url(#clip160)" d="M648.759 136.303 L653.018 136.303 L653.018 162.229 L648.759 162.229 L648.759 136.303 M648.759 126.21 L653.018 126.21 L653.018 131.604 L648.759 131.604 L648.759 126.21 Z" fill="#000000" fill-rule="nonzero" fill-opacity="1" /><path clip-path="url(#clip160)" d="M661.93 136.303 L666.189 136.303 L666.189 162.692 Q666.189 167.645 664.291 169.867 Q662.416 172.09 658.226 172.09 L656.606 172.09 L656.606 168.479 L657.74 168.479 Q660.171 168.479 661.051 167.344 Q661.93 166.233 661.93 162.692 L661.93 136.303 M661.93 126.21 L666.189 126.21 L666.189 131.604 L661.93 131.604 L661.93 126.21 Z" fill="#000000" fill-rule="nonzero" fill-opacity="1" /><path clip-path="url(#clip160)" d="M686.884 149.196 Q681.722 149.196 679.731 150.377 Q677.74 151.557 677.74 154.405 Q677.74 156.673 679.222 158.016 Q680.726 159.335 683.296 159.335 Q686.837 159.335 688.967 156.835 Q691.12 154.312 691.12 150.145 L691.12 149.196 L686.884 149.196 M695.379 147.437 L695.379 162.229 L691.12 162.229 L691.12 158.293 Q689.661 160.655 687.486 161.789 Q685.31 162.9 682.162 162.9 Q678.18 162.9 675.819 160.678 Q673.481 158.432 673.481 154.682 Q673.481 150.307 676.398 148.085 Q679.337 145.863 685.148 145.863 L691.12 145.863 L691.12 145.446 Q691.12 142.507 689.175 140.909 Q687.254 139.289 683.759 139.289 Q681.537 139.289 679.43 139.821 Q677.324 140.354 675.379 141.419 L675.379 137.483 Q677.717 136.581 679.916 136.141 Q682.115 135.678 684.199 135.678 Q689.824 135.678 692.601 138.594 Q695.379 141.511 695.379 147.437 Z" fill="#000000" fill-rule="nonzero" fill-opacity="1" /></svg>
