<?xml version="1.0" encoding="utf-8"?>
<svg xmlns="http://www.w3.org/2000/svg" xmlns:xlink="http://www.w3.org/1999/xlink" width="600" height="400" viewBox="0 0 2400 1600">
<defs>
  <clipPath id="clip530">
    <rect x="0" y="0" width="2400" height="1600"/>
  </clipPath>
</defs>
<path clip-path="url(#clip530)" d="M0 1600 L2400 1600 L2400 0 L0 0  Z" fill="#ffffff" fill-rule="evenodd" fill-opacity="1"/>
<defs>
  <clipPath id="clip531">
    <rect x="480" y="0" width="1681" height="1600"/>
  </clipPath>
</defs>
<path clip-path="url(#clip530)" d="M156.598 1486.45 L2352.76 1486.45 L2352.76 47.2441 L156.598 47.2441  Z" fill="#ffffff" fill-rule="evenodd" fill-opacity="1"/>
<defs>
  <clipPath id="clip532">
    <rect x="156" y="47" width="2197" height="1440"/>
  </clipPath>
</defs>
<polyline clip-path="url(#clip532)" style="stroke:#000000; stroke-linecap:round; stroke-linejoin:round; stroke-width:2; stroke-opacity:0.1; fill:none" points="218.754,1486.45 218.754,47.2441 "/>
<polyline clip-path="url(#clip532)" style="stroke:#000000; stroke-linecap:round; stroke-linejoin:round; stroke-width:2; stroke-opacity:0.1; fill:none" points="909.369,1486.45 909.369,47.2441 "/>
<polyline clip-path="url(#clip532)" style="stroke:#000000; stroke-linecap:round; stroke-linejoin:round; stroke-width:2; stroke-opacity:0.1; fill:none" points="1599.98,1486.45 1599.98,47.2441 "/>
<polyline clip-path="url(#clip532)" style="stroke:#000000; stroke-linecap:round; stroke-linejoin:round; stroke-width:2; stroke-opacity:0.1; fill:none" points="2290.6,1486.45 2290.6,47.2441 "/>
<polyline clip-path="url(#clip530)" style="stroke:#000000; stroke-linecap:round; stroke-linejoin:round; stroke-width:4; stroke-opacity:1; fill:none" points="156.598,1486.45 2352.76,1486.45 "/>
<polyline clip-path="url(#clip530)" style="stroke:#000000; stroke-linecap:round; stroke-linejoin:round; stroke-width:4; stroke-opacity:1; fill:none" points="218.754,1486.45 218.754,1467.55 "/>
<polyline clip-path="url(#clip530)" style="stroke:#000000; stroke-linecap:round; stroke-linejoin:round; stroke-width:4; stroke-opacity:1; fill:none" points="909.369,1486.45 909.369,1467.55 "/>
<polyline clip-path="url(#clip530)" style="stroke:#000000; stroke-linecap:round; stroke-linejoin:round; stroke-width:4; stroke-opacity:1; fill:none" points="1599.98,1486.45 1599.98,1467.55 "/>
<polyline clip-path="url(#clip530)" style="stroke:#000000; stroke-linecap:round; stroke-linejoin:round; stroke-width:4; stroke-opacity:1; fill:none" points="2290.6,1486.45 2290.6,1467.55 "/>
<path clip-path="url(#clip530)" d="M218.754 1517.37 Q215.143 1517.37 213.314 1520.93 Q211.508 1524.47 211.508 1531.6 Q211.508 1538.71 213.314 1542.27 Q215.143 1545.82 218.754 1545.82 Q222.388 1545.82 224.193 1542.27 Q226.022 1538.71 226.022 1531.6 Q226.022 1524.47 224.193 1520.93 Q222.388 1517.37 218.754 1517.37 M218.754 1513.66 Q224.564 1513.66 227.619 1518.27 Q230.698 1522.85 230.698 1531.6 Q230.698 1540.33 227.619 1544.94 Q224.564 1549.52 218.754 1549.52 Q212.943 1549.52 209.865 1544.94 Q206.809 1540.33 206.809 1531.6 Q206.809 1522.85 209.865 1518.27 Q212.943 1513.66 218.754 1513.66 Z" fill="#000000" fill-rule="nonzero" fill-opacity="1" /><path clip-path="url(#clip530)" d="M899.751 1544.91 L907.39 1544.91 L907.39 1518.55 L899.08 1520.21 L899.08 1515.95 L907.344 1514.29 L912.02 1514.29 L912.02 1544.91 L919.659 1544.91 L919.659 1548.85 L899.751 1548.85 L899.751 1544.91 Z" fill="#000000" fill-rule="nonzero" fill-opacity="1" /><path clip-path="url(#clip530)" d="M1594.64 1544.91 L1610.96 1544.91 L1610.96 1548.85 L1589.01 1548.85 L1589.01 1544.91 Q1591.67 1542.16 1596.26 1537.53 Q1600.86 1532.88 1602.05 1531.53 Q1604.29 1529.01 1605.17 1527.27 Q1606.07 1525.51 1606.07 1523.82 Q1606.07 1521.07 1604.13 1519.33 Q1602.21 1517.6 1599.11 1517.6 Q1596.91 1517.6 1594.45 1518.36 Q1592.02 1519.13 1589.24 1520.68 L1589.24 1515.95 Q1592.07 1514.82 1594.52 1514.24 Q1596.98 1513.66 1599.01 1513.66 Q1604.38 1513.66 1607.58 1516.35 Q1610.77 1519.03 1610.77 1523.52 Q1610.77 1525.65 1609.96 1527.57 Q1609.17 1529.47 1607.07 1532.07 Q1606.49 1532.74 1603.39 1535.95 Q1600.29 1539.15 1594.64 1544.91 Z" fill="#000000" fill-rule="nonzero" fill-opacity="1" /><path clip-path="url(#clip530)" d="M2294.85 1530.21 Q2298.2 1530.93 2300.08 1533.2 Q2301.98 1535.47 2301.98 1538.8 Q2301.98 1543.92 2298.46 1546.72 Q2294.94 1549.52 2288.46 1549.52 Q2286.28 1549.52 2283.97 1549.08 Q2281.68 1548.66 2279.22 1547.81 L2279.22 1543.29 Q2281.17 1544.43 2283.48 1545.01 Q2285.8 1545.58 2288.32 1545.58 Q2292.72 1545.58 2295.01 1543.85 Q2297.33 1542.11 2297.33 1538.8 Q2297.33 1535.75 2295.17 1534.03 Q2293.04 1532.3 2289.22 1532.3 L2285.2 1532.3 L2285.2 1528.45 L2289.41 1528.45 Q2292.86 1528.45 2294.69 1527.09 Q2296.51 1525.7 2296.51 1523.11 Q2296.51 1520.45 2294.62 1519.03 Q2292.74 1517.6 2289.22 1517.6 Q2287.3 1517.6 2285.1 1518.01 Q2282.9 1518.43 2280.26 1519.31 L2280.26 1515.14 Q2282.93 1514.4 2285.24 1514.03 Q2287.58 1513.66 2289.64 1513.66 Q2294.96 1513.66 2298.07 1516.09 Q2301.17 1518.5 2301.17 1522.62 Q2301.17 1525.49 2299.52 1527.48 Q2297.88 1529.45 2294.85 1530.21 Z" fill="#000000" fill-rule="nonzero" fill-opacity="1" /><polyline clip-path="url(#clip532)" style="stroke:#000000; stroke-linecap:round; stroke-linejoin:round; stroke-width:2; stroke-opacity:0.1; fill:none" points="156.598,1445.72 2352.76,1445.72 "/>
<polyline clip-path="url(#clip532)" style="stroke:#000000; stroke-linecap:round; stroke-linejoin:round; stroke-width:2; stroke-opacity:0.1; fill:none" points="156.598,1226.24 2352.76,1226.24 "/>
<polyline clip-path="url(#clip532)" style="stroke:#000000; stroke-linecap:round; stroke-linejoin:round; stroke-width:2; stroke-opacity:0.1; fill:none" points="156.598,1006.76 2352.76,1006.76 "/>
<polyline clip-path="url(#clip532)" style="stroke:#000000; stroke-linecap:round; stroke-linejoin:round; stroke-width:2; stroke-opacity:0.1; fill:none" points="156.598,787.278 2352.76,787.278 "/>
<polyline clip-path="url(#clip532)" style="stroke:#000000; stroke-linecap:round; stroke-linejoin:round; stroke-width:2; stroke-opacity:0.1; fill:none" points="156.598,567.799 2352.76,567.799 "/>
<polyline clip-path="url(#clip532)" style="stroke:#000000; stroke-linecap:round; stroke-linejoin:round; stroke-width:2; stroke-opacity:0.1; fill:none" points="156.598,348.32 2352.76,348.32 "/>
<polyline clip-path="url(#clip532)" style="stroke:#000000; stroke-linecap:round; stroke-linejoin:round; stroke-width:2; stroke-opacity:0.1; fill:none" points="156.598,128.841 2352.76,128.841 "/>
<polyline clip-path="url(#clip530)" style="stroke:#000000; stroke-linecap:round; stroke-linejoin:round; stroke-width:4; stroke-opacity:1; fill:none" points="156.598,1486.45 156.598,47.2441 "/>
<polyline clip-path="url(#clip530)" style="stroke:#000000; stroke-linecap:round; stroke-linejoin:round; stroke-width:4; stroke-opacity:1; fill:none" points="156.598,1445.72 175.496,1445.72 "/>
<polyline clip-path="url(#clip530)" style="stroke:#000000; stroke-linecap:round; stroke-linejoin:round; stroke-width:4; stroke-opacity:1; fill:none" points="156.598,1226.24 175.496,1226.24 "/>
<polyline clip-path="url(#clip530)" style="stroke:#000000; stroke-linecap:round; stroke-linejoin:round; stroke-width:4; stroke-opacity:1; fill:none" points="156.598,1006.76 175.496,1006.76 "/>
<polyline clip-path="url(#clip530)" style="stroke:#000000; stroke-linecap:round; stroke-linejoin:round; stroke-width:4; stroke-opacity:1; fill:none" points="156.598,787.278 175.496,787.278 "/>
<polyline clip-path="url(#clip530)" style="stroke:#000000; stroke-linecap:round; stroke-linejoin:round; stroke-width:4; stroke-opacity:1; fill:none" points="156.598,567.799 175.496,567.799 "/>
<polyline clip-path="url(#clip530)" style="stroke:#000000; stroke-linecap:round; stroke-linejoin:round; stroke-width:4; stroke-opacity:1; fill:none" points="156.598,348.32 175.496,348.32 "/>
<polyline clip-path="url(#clip530)" style="stroke:#000000; stroke-linecap:round; stroke-linejoin:round; stroke-width:4; stroke-opacity:1; fill:none" points="156.598,128.841 175.496,128.841 "/>
<path clip-path="url(#clip530)" d="M63.4226 1431.51 Q59.8115 1431.51 57.9828 1435.08 Q56.1773 1438.62 56.1773 1445.75 Q56.1773 1452.86 57.9828 1456.42 Q59.8115 1459.96 63.4226 1459.96 Q67.0569 1459.96 68.8624 1456.42 Q70.6911 1452.86 70.6911 1445.75 Q70.6911 1438.62 68.8624 1435.08 Q67.0569 1431.51 63.4226 1431.51 M63.4226 1427.81 Q69.2328 1427.81 72.2883 1432.42 Q75.367 1437 75.367 1445.75 Q75.367 1454.48 72.2883 1459.08 Q69.2328 1463.67 63.4226 1463.67 Q57.6125 1463.67 54.5338 1459.08 Q51.4782 1454.48 51.4782 1445.75 Q51.4782 1437 54.5338 1432.42 Q57.6125 1427.81 63.4226 1427.81 Z" fill="#000000" fill-rule="nonzero" fill-opacity="1" /><path clip-path="url(#clip530)" d="M83.5845 1457.12 L88.4688 1457.12 L88.4688 1463 L83.5845 1463 L83.5845 1457.12 Z" fill="#000000" fill-rule="nonzero" fill-opacity="1" /><path clip-path="url(#clip530)" d="M108.654 1431.51 Q105.043 1431.51 103.214 1435.08 Q101.409 1438.62 101.409 1445.75 Q101.409 1452.86 103.214 1456.42 Q105.043 1459.96 108.654 1459.96 Q112.288 1459.96 114.094 1456.42 Q115.922 1452.86 115.922 1445.75 Q115.922 1438.62 114.094 1435.08 Q112.288 1431.51 108.654 1431.51 M108.654 1427.81 Q114.464 1427.81 117.52 1432.42 Q120.598 1437 120.598 1445.75 Q120.598 1454.48 117.52 1459.08 Q114.464 1463.67 108.654 1463.67 Q102.844 1463.67 99.765 1459.08 Q96.7095 1454.48 96.7095 1445.75 Q96.7095 1437 99.765 1432.42 Q102.844 1427.81 108.654 1427.81 Z" fill="#000000" fill-rule="nonzero" fill-opacity="1" /><path clip-path="url(#clip530)" d="M65.0198 1212.04 Q61.4087 1212.04 59.58 1215.6 Q57.7745 1219.14 57.7745 1226.27 Q57.7745 1233.38 59.58 1236.94 Q61.4087 1240.48 65.0198 1240.48 Q68.6541 1240.48 70.4596 1236.94 Q72.2883 1233.38 72.2883 1226.27 Q72.2883 1219.14 70.4596 1215.6 Q68.6541 1212.04 65.0198 1212.04 M65.0198 1208.33 Q70.83 1208.33 73.8855 1212.94 Q76.9642 1217.52 76.9642 1226.27 Q76.9642 1235 73.8855 1239.6 Q70.83 1244.19 65.0198 1244.19 Q59.2097 1244.19 56.131 1239.6 Q53.0754 1235 53.0754 1226.27 Q53.0754 1217.52 56.131 1212.94 Q59.2097 1208.33 65.0198 1208.33 Z" fill="#000000" fill-rule="nonzero" fill-opacity="1" /><path clip-path="url(#clip530)" d="M85.1818 1237.64 L90.066 1237.64 L90.066 1243.52 L85.1818 1243.52 L85.1818 1237.64 Z" fill="#000000" fill-rule="nonzero" fill-opacity="1" /><path clip-path="url(#clip530)" d="M104.279 1239.58 L120.598 1239.58 L120.598 1243.52 L98.6539 1243.52 L98.6539 1239.58 Q101.316 1236.83 105.899 1232.2 Q110.506 1227.54 111.686 1226.2 Q113.932 1223.68 114.811 1221.94 Q115.714 1220.18 115.714 1218.49 Q115.714 1215.74 113.77 1214 Q111.848 1212.27 108.746 1212.27 Q106.547 1212.27 104.094 1213.03 Q101.663 1213.79 98.8854 1215.35 L98.8854 1210.62 Q101.709 1209.49 104.163 1208.91 Q106.617 1208.33 108.654 1208.33 Q114.024 1208.33 117.219 1211.02 Q120.413 1213.7 120.413 1218.19 Q120.413 1220.32 119.603 1222.24 Q118.816 1224.14 116.709 1226.73 Q116.131 1227.41 113.029 1230.62 Q109.927 1233.82 104.279 1239.58 Z" fill="#000000" fill-rule="nonzero" fill-opacity="1" /><path clip-path="url(#clip530)" d="M62.9365 992.556 Q59.3254 992.556 57.4967 996.121 Q55.6912 999.662 55.6912 1006.79 Q55.6912 1013.9 57.4967 1017.46 Q59.3254 1021 62.9365 1021 Q66.5707 1021 68.3763 1017.46 Q70.205 1013.9 70.205 1006.79 Q70.205 999.662 68.3763 996.121 Q66.5707 992.556 62.9365 992.556 M62.9365 988.852 Q68.7467 988.852 71.8022 993.459 Q74.8809 998.042 74.8809 1006.79 Q74.8809 1015.52 71.8022 1020.13 Q68.7467 1024.71 62.9365 1024.71 Q57.1264 1024.71 54.0477 1020.13 Q50.9921 1015.52 50.9921 1006.79 Q50.9921 998.042 54.0477 993.459 Q57.1264 988.852 62.9365 988.852 Z" fill="#000000" fill-rule="nonzero" fill-opacity="1" /><path clip-path="url(#clip530)" d="M83.0984 1018.16 L87.9827 1018.16 L87.9827 1024.04 L83.0984 1024.04 L83.0984 1018.16 Z" fill="#000000" fill-rule="nonzero" fill-opacity="1" /><path clip-path="url(#clip530)" d="M111.015 993.551 L99.2095 1012 L111.015 1012 L111.015 993.551 M109.788 989.477 L115.668 989.477 L115.668 1012 L120.598 1012 L120.598 1015.89 L115.668 1015.89 L115.668 1024.04 L111.015 1024.04 L111.015 1015.89 L95.4132 1015.89 L95.4132 1011.38 L109.788 989.477 Z" fill="#000000" fill-rule="nonzero" fill-opacity="1" /><path clip-path="url(#clip530)" d="M63.2606 773.077 Q59.6495 773.077 57.8208 776.642 Q56.0152 780.183 56.0152 787.313 Q56.0152 794.419 57.8208 797.984 Q59.6495 801.526 63.2606 801.526 Q66.8948 801.526 68.7004 797.984 Q70.5291 794.419 70.5291 787.313 Q70.5291 780.183 68.7004 776.642 Q66.8948 773.077 63.2606 773.077 M63.2606 769.373 Q69.0707 769.373 72.1263 773.98 Q75.205 778.563 75.205 787.313 Q75.205 796.04 72.1263 800.646 Q69.0707 805.229 63.2606 805.229 Q57.4504 805.229 54.3717 800.646 Q51.3162 796.04 51.3162 787.313 Q51.3162 778.563 54.3717 773.98 Q57.4504 769.373 63.2606 769.373 Z" fill="#000000" fill-rule="nonzero" fill-opacity="1" /><path clip-path="url(#clip530)" d="M83.4225 798.679 L88.3067 798.679 L88.3067 804.558 L83.4225 804.558 L83.4225 798.679 Z" fill="#000000" fill-rule="nonzero" fill-opacity="1" /><path clip-path="url(#clip530)" d="M109.071 785.415 Q105.922 785.415 104.071 787.567 Q102.242 789.72 102.242 793.47 Q102.242 797.197 104.071 799.373 Q105.922 801.526 109.071 801.526 Q112.219 801.526 114.047 799.373 Q115.899 797.197 115.899 793.47 Q115.899 789.72 114.047 787.567 Q112.219 785.415 109.071 785.415 M118.353 770.762 L118.353 775.021 Q116.594 774.188 114.788 773.748 Q113.006 773.308 111.246 773.308 Q106.617 773.308 104.163 776.433 Q101.733 779.558 101.385 785.878 Q102.751 783.864 104.811 782.799 Q106.871 781.711 109.348 781.711 Q114.557 781.711 117.566 784.882 Q120.598 788.03 120.598 793.47 Q120.598 798.794 117.45 802.012 Q114.302 805.229 109.071 805.229 Q103.075 805.229 99.9039 800.646 Q96.7326 796.04 96.7326 787.313 Q96.7326 779.118 100.621 774.257 Q104.51 769.373 111.061 769.373 Q112.82 769.373 114.603 769.72 Q116.408 770.068 118.353 770.762 Z" fill="#000000" fill-rule="nonzero" fill-opacity="1" /><path clip-path="url(#clip530)" d="M63.5152 553.598 Q59.9041 553.598 58.0754 557.162 Q56.2699 560.704 56.2699 567.834 Q56.2699 574.94 58.0754 578.505 Q59.9041 582.047 63.5152 582.047 Q67.1494 582.047 68.955 578.505 Q70.7837 574.94 70.7837 567.834 Q70.7837 560.704 68.955 557.162 Q67.1494 553.598 63.5152 553.598 M63.5152 549.894 Q69.3254 549.894 72.3809 554.5 Q75.4596 559.084 75.4596 567.834 Q75.4596 576.56 72.3809 581.167 Q69.3254 585.75 63.5152 585.75 Q57.7051 585.75 54.6264 581.167 Q51.5708 576.56 51.5708 567.834 Q51.5708 559.084 54.6264 554.5 Q57.7051 549.894 63.5152 549.894 Z" fill="#000000" fill-rule="nonzero" fill-opacity="1" /><path clip-path="url(#clip530)" d="M83.6771 579.199 L88.5614 579.199 L88.5614 585.079 L83.6771 585.079 L83.6771 579.199 Z" fill="#000000" fill-rule="nonzero" fill-opacity="1" /><path clip-path="url(#clip530)" d="M108.746 568.667 Q105.413 568.667 103.492 570.449 Q101.594 572.232 101.594 575.357 Q101.594 578.482 103.492 580.264 Q105.413 582.047 108.746 582.047 Q112.08 582.047 114.001 580.264 Q115.922 578.459 115.922 575.357 Q115.922 572.232 114.001 570.449 Q112.103 568.667 108.746 568.667 M104.071 566.676 Q101.061 565.936 99.3715 563.875 Q97.7048 561.815 97.7048 558.852 Q97.7048 554.709 100.645 552.301 Q103.608 549.894 108.746 549.894 Q113.908 549.894 116.848 552.301 Q119.788 554.709 119.788 558.852 Q119.788 561.815 118.098 563.875 Q116.432 565.936 113.445 566.676 Q116.825 567.463 118.7 569.755 Q120.598 572.047 120.598 575.357 Q120.598 580.38 117.52 583.065 Q114.464 585.75 108.746 585.75 Q103.029 585.75 99.9502 583.065 Q96.8947 580.38 96.8947 575.357 Q96.8947 572.047 98.7928 569.755 Q100.691 567.463 104.071 566.676 M102.358 559.292 Q102.358 561.977 104.024 563.482 Q105.714 564.986 108.746 564.986 Q111.756 564.986 113.445 563.482 Q115.158 561.977 115.158 559.292 Q115.158 556.607 113.445 555.102 Q111.756 553.598 108.746 553.598 Q105.714 553.598 104.024 555.102 Q102.358 556.607 102.358 559.292 Z" fill="#000000" fill-rule="nonzero" fill-opacity="1" /><path clip-path="url(#clip530)" d="M54.2328 361.665 L61.8717 361.665 L61.8717 335.299 L53.5616 336.966 L53.5616 332.706 L61.8254 331.04 L66.5013 331.04 L66.5013 361.665 L74.1402 361.665 L74.1402 365.6 L54.2328 365.6 L54.2328 361.665 Z" fill="#000000" fill-rule="nonzero" fill-opacity="1" /><path clip-path="url(#clip530)" d="M83.5845 359.72 L88.4688 359.72 L88.4688 365.6 L83.5845 365.6 L83.5845 359.72 Z" fill="#000000" fill-rule="nonzero" fill-opacity="1" /><path clip-path="url(#clip530)" d="M108.654 334.118 Q105.043 334.118 103.214 337.683 Q101.409 341.225 101.409 348.354 Q101.409 355.461 103.214 359.026 Q105.043 362.567 108.654 362.567 Q112.288 362.567 114.094 359.026 Q115.922 355.461 115.922 348.354 Q115.922 341.225 114.094 337.683 Q112.288 334.118 108.654 334.118 M108.654 330.415 Q114.464 330.415 117.52 335.021 Q120.598 339.604 120.598 348.354 Q120.598 357.081 117.52 361.688 Q114.464 366.271 108.654 366.271 Q102.844 366.271 99.765 361.688 Q96.7095 357.081 96.7095 348.354 Q96.7095 339.604 99.765 335.021 Q102.844 330.415 108.654 330.415 Z" fill="#000000" fill-rule="nonzero" fill-opacity="1" /><path clip-path="url(#clip530)" d="M55.8301 142.185 L63.4689 142.185 L63.4689 115.82 L55.1588 117.486 L55.1588 113.227 L63.4226 111.561 L68.0985 111.561 L68.0985 142.185 L75.7374 142.185 L75.7374 146.121 L55.8301 146.121 L55.8301 142.185 Z" fill="#000000" fill-rule="nonzero" fill-opacity="1" /><path clip-path="url(#clip530)" d="M85.1818 140.241 L90.066 140.241 L90.066 146.121 L85.1818 146.121 L85.1818 140.241 Z" fill="#000000" fill-rule="nonzero" fill-opacity="1" /><path clip-path="url(#clip530)" d="M104.279 142.185 L120.598 142.185 L120.598 146.121 L98.6539 146.121 L98.6539 142.185 Q101.316 139.431 105.899 134.801 Q110.506 130.148 111.686 128.806 Q113.932 126.283 114.811 124.547 Q115.714 122.787 115.714 121.098 Q115.714 118.343 113.77 116.607 Q111.848 114.871 108.746 114.871 Q106.547 114.871 104.094 115.635 Q101.663 116.398 98.8854 117.949 L98.8854 113.227 Q101.709 112.093 104.163 111.514 Q106.617 110.936 108.654 110.936 Q114.024 110.936 117.219 113.621 Q120.413 116.306 120.413 120.797 Q120.413 122.926 119.603 124.847 Q118.816 126.746 116.709 129.338 Q116.131 130.01 113.029 133.227 Q109.927 136.422 104.279 142.185 Z" fill="#000000" fill-rule="nonzero" fill-opacity="1" /><polyline clip-path="url(#clip532)" style="stroke:#009af9; stroke-linecap:round; stroke-linejoin:round; stroke-width:4; stroke-opacity:1; fill:none" points="218.754,1445.72 219.597,1445.06 220.44,1443.39 221.283,1440.7 222.126,1437.01 222.969,1432.34 223.812,1426.75 224.655,1420.28 225.498,1412.92 227.184,1395.65 228.87,1375.25 229.713,1363.93 230.556,1351.87 230.978,1345.62 231.399,1339.16 231.821,1332.57 232.242,1325.8 234.191,1292.54 236.14,1256.28 238.089,1217.39 240.038,1176.18 241.987,1132.98 243.935,1088.14 245.884,1042 247.833,994.909 251.731,899.209 255.628,803.674 257.577,756.818 259.526,711.024 261.475,666.619 263.423,623.919 265.372,583.262 267.321,544.985 269.27,509.425 271.219,476.916 272.193,461.894 273.168,447.774 274.142,434.552 275.116,422.323 276.091,411.084 277.065,400.898 278.04,391.811 279.014,383.832 279.988,377.05 280.963,371.457 281.937,367.132 282.912,364.103 283.886,362.391 284.86,362.079 285.835,363.158 286.809,365.714 288.758,374.291 290.707,381.356 292.656,385.883 294.604,388.025 296.553,387.932 298.502,385.767 300.451,381.693 302.4,375.871 304.349,368.461 306.297,359.607 308.246,349.467 310.195,338.2 314.093,312.926 317.99,285.03 321.888,255.732 325.785,226.298 329.683,197.944 333.581,171.895 335.53,160.126 337.478,149.4 339.427,139.859 341.376,131.658 343.325,124.951 345.274,119.894 347.222,116.641 349.171,115.341 351.12,116.138 353.069,119.187 355.018,124.642 356.966,132.651 359.309,142.535 361.651,150.293 363.993,156.071 366.336,160.042 368.678,162.331 371.02,163.11 373.363,162.523 375.705,160.71 380.39,154.046 385.074,144.315 389.759,132.7 394.443,120.396 399.128,108.592 403.813,98.4725 406.155,94.4063 408.497,91.2094 410.84,89.0113 413.182,87.9763 415.524,88.2413 417.866,89.949 420.209,93.2589 422.551,98.3002 424.893,105.233 427.236,113.657 429.578,121.059 431.92,127.197 435.881,134.93 439.842,139.736 443.803,142.061 447.763,142.338 455.685,138.526 463.607,131.826 467.567,128.483 471.528,125.734 475.489,124.01 479.45,123.741 483.411,125.365 487.371,129.32 491.332,136.032 495.293,145.913 499.595,156.567 503.898,164.485 508.2,170.035 512.503,173.589 521.108,176.166 529.713,175.124 538.318,173.381 546.923,173.823 551.226,175.769 555.528,179.344 559.831,184.905 564.133,192.809 568.1,200.354 572.066,206.296 576.033,210.83 579.999,214.15 587.933,217.908 595.866,219.092 603.799,219.228 611.732,219.83 619.665,222.412 627.598,228.481 631.851,233.693 636.103,239.793 640.356,244.732 644.608,248.529 653.113,253.332 661.618,255.478 670.124,256.241 678.629,256.884 687.134,258.67 695.639,262.86 705.493,271.723 715.347,278.294 725.201,281.436 735.055,282.497 744.909,282.823 754.763,283.754 759.69,284.864 764.617,286.626 769.544,289.207 774.471,292.348 783.228,296.129 791.985,297.91 800.742,298.362 809.499,298.149 818.256,297.938 827.013,298.389 835.77,300.161 844.528,303.38 875.244,304.688 905.961,304.575 922.706,307.41 939.45,306.008 956.195,303.707 972.94,304.114 981.362,306.234 989.784,307.334 998.206,307.109 1006.63,306.088 1023.47,303.782 1040.32,304.641 1049.63,307.86 1058.94,310.057 1068.25,310.377 1077.56,309.676 1086.88,308.808 1096.19,308.627 1105.5,309.987 1114.81,313.74 1123.67,318.328 1132.53,320.629 1141.39,321.379 1150.25,321.43 1159.11,321.639 1167.97,322.86 1176.83,325.949 1185.69,331.761 1194.9,337.762 1204.11,341.085 1213.33,342.793 1222.54,343.951 1231.75,345.624 1240.96,348.875 1250.17,354.773 1259.39,363.307 1267.14,368.606 1274.9,372.136 1282.65,374.567 1290.41,376.569 1298.16,378.813 1305.92,381.969 1313.67,386.712 1321.42,393.713 1330.89,403.724 1340.36,410.581 1349.83,415.25 1359.3,418.964 1368.76,422.962 1378.23,428.483 1387.7,436.762 1397.17,448.086 1405.84,456.326 1414.51,462.341 1423.18,467.058 1431.86,471.407 1440.53,476.315 1449.2,482.713 1457.88,491.53 1466.55,502.639 1474.56,510.92 1482.57,517.336 1490.58,522.579 1498.59,527.342 1506.6,532.319 1514.61,538.202 1522.62,545.686 1530.63,555.465 1538.74,565.656 1546.86,573.649 1554.97,580.106 1563.09,585.69 1571.2,591.066 1579.31,596.9 1587.43,603.858 1595.54,612.605 1604.64,624.466 1613.73,634.305 1622.82,642.157 1631.92,648.867 1641.01,655.281 1650.1,662.245 1659.2,670.605 1668.29,681.206 1676.53,691.385 1684.77,699.686 1693.01,706.646 1701.25,712.822 1705.37,712.838 1709.49,710.021 1713.61,707.163 1717.73,704.22 1725.97,697.898 1734.21,690.699 1771.95,660.367 1809.69,632.203 1844.63,607.565 1879.57,582.98 1948.47,538.209 2015.36,498.263 2049.65,478.863 2083.94,460.368 2121.5,440.958 2159.07,422.006 2213.64,397.225 2268.21,373.313 2279.41,368.714 2290.6,363.786 "/>
<path clip-path="url(#clip530)" d="M1894.63 1438.47 L2279.55 1438.47 L2279.55 1334.79 L1894.63 1334.79  Z" fill="#ffffff" fill-rule="evenodd" fill-opacity="1"/>
<polyline clip-path="url(#clip530)" style="stroke:#000000; stroke-linecap:round; stroke-linejoin:round; stroke-width:4; stroke-opacity:1; fill:none" points="1894.63,1438.47 2279.55,1438.47 2279.55,1334.79 1894.63,1334.79 1894.63,1438.47 "/>
<polyline clip-path="url(#clip530)" style="stroke:#009af9; stroke-linecap:round; stroke-linejoin:round; stroke-width:4; stroke-opacity:1; fill:none" points="1919.04,1386.63 2065.45,1386.63 "/>
<path clip-path="url(#clip530)" d="M2111.56 1388.27 L2111.56 1403.91 L2107.3 1403.91 L2107.3 1388.41 Q2107.3 1384.72 2105.87 1382.9 Q2104.43 1381.07 2101.56 1381.07 Q2098.11 1381.07 2096.12 1383.27 Q2094.13 1385.47 2094.13 1389.26 L2094.13 1403.91 L2089.85 1403.91 L2089.85 1377.99 L2094.13 1377.99 L2094.13 1382.02 Q2095.66 1379.68 2097.72 1378.52 Q2099.8 1377.36 2102.51 1377.36 Q2106.98 1377.36 2109.27 1380.14 Q2111.56 1382.9 2111.56 1388.27 Z" fill="#000000" fill-rule="nonzero" fill-opacity="1" /><path clip-path="url(#clip530)" d="M2131.84 1390.88 Q2126.68 1390.88 2124.69 1392.06 Q2122.7 1393.24 2122.7 1396.09 Q2122.7 1398.36 2124.18 1399.7 Q2125.68 1401.02 2128.25 1401.02 Q2131.79 1401.02 2133.92 1398.52 Q2136.08 1396 2136.08 1391.83 L2136.08 1390.88 L2131.84 1390.88 M2140.33 1389.12 L2140.33 1403.91 L2136.08 1403.91 L2136.08 1399.98 Q2134.62 1402.34 2132.44 1403.47 Q2130.27 1404.59 2127.12 1404.59 Q2123.14 1404.59 2120.77 1402.36 Q2118.44 1400.12 2118.44 1396.37 Q2118.44 1391.99 2121.35 1389.77 Q2124.29 1387.55 2130.1 1387.55 L2136.08 1387.55 L2136.08 1387.13 Q2136.08 1384.19 2134.13 1382.6 Q2132.21 1380.97 2128.71 1380.97 Q2126.49 1380.97 2124.39 1381.51 Q2122.28 1382.04 2120.33 1383.1 L2120.33 1379.17 Q2122.67 1378.27 2124.87 1377.83 Q2127.07 1377.36 2129.15 1377.36 Q2134.78 1377.36 2137.56 1380.28 Q2140.33 1383.2 2140.33 1389.12 Z" fill="#000000" fill-rule="nonzero" fill-opacity="1" /><path clip-path="url(#clip530)" d="M2153.23 1400.03 L2153.23 1413.78 L2148.95 1413.78 L2148.95 1377.99 L2153.23 1377.99 L2153.23 1381.92 Q2154.57 1379.61 2156.61 1378.5 Q2158.67 1377.36 2161.52 1377.36 Q2166.24 1377.36 2169.18 1381.11 Q2172.14 1384.86 2172.14 1390.97 Q2172.14 1397.09 2169.18 1400.84 Q2166.24 1404.59 2161.52 1404.59 Q2158.67 1404.59 2156.61 1403.47 Q2154.57 1402.34 2153.23 1400.03 M2167.72 1390.97 Q2167.72 1386.28 2165.77 1383.61 Q2163.85 1380.93 2160.47 1380.93 Q2157.09 1380.93 2155.15 1383.61 Q2153.23 1386.28 2153.23 1390.97 Q2153.23 1395.67 2155.15 1398.36 Q2157.09 1401.02 2160.47 1401.02 Q2163.85 1401.02 2165.77 1398.36 Q2167.72 1395.67 2167.72 1390.97 Z" fill="#000000" fill-rule="nonzero" fill-opacity="1" /><path clip-path="url(#clip530)" d="M2190.98 1390.88 Q2185.82 1390.88 2183.83 1392.06 Q2181.84 1393.24 2181.84 1396.09 Q2181.84 1398.36 2183.32 1399.7 Q2184.83 1401.02 2187.39 1401.02 Q2190.94 1401.02 2193.07 1398.52 Q2195.22 1396 2195.22 1391.83 L2195.22 1390.88 L2190.98 1390.88 M2199.48 1389.12 L2199.48 1403.91 L2195.22 1403.91 L2195.22 1399.98 Q2193.76 1402.34 2191.58 1403.47 Q2189.41 1404.59 2186.26 1404.59 Q2182.28 1404.59 2179.92 1402.36 Q2177.58 1400.12 2177.58 1396.37 Q2177.58 1391.99 2180.5 1389.77 Q2183.44 1387.55 2189.25 1387.55 L2195.22 1387.55 L2195.22 1387.13 Q2195.22 1384.19 2193.27 1382.6 Q2191.35 1380.97 2187.86 1380.97 Q2185.64 1380.97 2183.53 1381.51 Q2181.42 1382.04 2179.48 1383.1 L2179.48 1379.17 Q2181.82 1378.27 2184.02 1377.83 Q2186.21 1377.36 2188.3 1377.36 Q2193.92 1377.36 2196.7 1380.28 Q2199.48 1383.2 2199.48 1389.12 Z" fill="#000000" fill-rule="nonzero" fill-opacity="1" /><path clip-path="url(#clip530)" d="M2208.09 1367.9 L2212.37 1367.9 L2212.37 1389.17 L2225.08 1377.99 L2230.52 1377.99 L2216.77 1390.12 L2231.1 1403.91 L2225.54 1403.91 L2212.37 1391.25 L2212.37 1403.91 L2208.09 1403.91 L2208.09 1367.9 Z" fill="#000000" fill-rule="nonzero" fill-opacity="1" /><path clip-path="url(#clip530)" d="M2246.65 1390.88 Q2241.49 1390.88 2239.5 1392.06 Q2237.51 1393.24 2237.51 1396.09 Q2237.51 1398.36 2238.99 1399.7 Q2240.5 1401.02 2243.07 1401.02 Q2246.61 1401.02 2248.74 1398.52 Q2250.89 1396 2250.89 1391.83 L2250.89 1390.88 L2246.65 1390.88 M2255.15 1389.12 L2255.15 1403.91 L2250.89 1403.91 L2250.89 1399.98 Q2249.43 1402.34 2247.26 1403.47 Q2245.08 1404.59 2241.93 1404.59 Q2237.95 1404.59 2235.59 1402.36 Q2233.25 1400.12 2233.25 1396.37 Q2233.25 1391.99 2236.17 1389.77 Q2239.11 1387.55 2244.92 1387.55 L2250.89 1387.55 L2250.89 1387.13 Q2250.89 1384.19 2248.95 1382.6 Q2247.02 1380.97 2243.53 1380.97 Q2241.31 1380.97 2239.2 1381.51 Q2237.09 1382.04 2235.15 1383.1 L2235.15 1379.17 Q2237.49 1378.27 2239.69 1377.83 Q2241.89 1377.36 2243.97 1377.36 Q2249.59 1377.36 2252.37 1380.28 Q2255.15 1383.2 2255.15 1389.12 Z" fill="#000000" fill-rule="nonzero" fill-opacity="1" /></svg>
