<?xml version="1.0" encoding="utf-8"?>
<svg xmlns="http://www.w3.org/2000/svg" xmlns:xlink="http://www.w3.org/1999/xlink" width="600" height="400" viewBox="0 0 2400 1600">
<defs>
  <clipPath id="clip170">
    <rect x="0" y="0" width="2400" height="1600"/>
  </clipPath>
</defs>
<path clip-path="url(#clip170)" d="M0 1600 L2400 1600 L2400 0 L0 0  Z" fill="#ffffff" fill-rule="evenodd" fill-opacity="1"/>
<defs>
  <clipPath id="clip171">
    <rect x="480" y="0" width="1681" height="1600"/>
  </clipPath>
</defs>
<path clip-path="url(#clip170)" d="M188.292 1474.16 L2352.76 1474.16 L2352.76 47.2441 L188.292 47.2441  Z" fill="#ffffff" fill-rule="evenodd" fill-opacity="1"/>
<defs>
  <clipPath id="clip172">
    <rect x="188" y="47" width="2165" height="1428"/>
  </clipPath>
</defs>
<polyline clip-path="url(#clip172)" style="stroke:#000000; stroke-linecap:round; stroke-linejoin:round; stroke-width:2; stroke-opacity:0.1; fill:none" points="701.633,1474.16 701.633,47.2441 "/>
<polyline clip-path="url(#clip172)" style="stroke:#000000; stroke-linecap:round; stroke-linejoin:round; stroke-width:2; stroke-opacity:0.1; fill:none" points="1549.53,1474.16 1549.53,47.2441 "/>
<polyline clip-path="url(#clip170)" style="stroke:#000000; stroke-linecap:round; stroke-linejoin:round; stroke-width:4; stroke-opacity:1; fill:none" points="188.292,1474.16 2352.76,1474.16 "/>
<polyline clip-path="url(#clip170)" style="stroke:#000000; stroke-linecap:round; stroke-linejoin:round; stroke-width:4; stroke-opacity:1; fill:none" points="701.633,1474.16 701.633,1455.27 "/>
<polyline clip-path="url(#clip170)" style="stroke:#000000; stroke-linecap:round; stroke-linejoin:round; stroke-width:4; stroke-opacity:1; fill:none" points="1549.53,1474.16 1549.53,1455.27 "/>
<path clip-path="url(#clip170)" d="M651.899 1548.29 L659.537 1548.29 L659.537 1521.92 L651.227 1523.59 L651.227 1519.33 L659.491 1517.66 L664.167 1517.66 L664.167 1548.29 L671.806 1548.29 L671.806 1552.22 L651.899 1552.22 L651.899 1548.29 Z" fill="#000000" fill-rule="nonzero" fill-opacity="1" /><path clip-path="url(#clip170)" d="M691.25 1520.74 Q687.639 1520.74 685.81 1524.31 Q684.005 1527.85 684.005 1534.98 Q684.005 1542.09 685.81 1545.65 Q687.639 1549.19 691.25 1549.19 Q694.885 1549.19 696.69 1545.65 Q698.519 1542.09 698.519 1534.98 Q698.519 1527.85 696.69 1524.31 Q694.885 1520.74 691.25 1520.74 M691.25 1517.04 Q697.06 1517.04 700.116 1521.65 Q703.195 1526.23 703.195 1534.98 Q703.195 1543.71 700.116 1548.31 Q697.06 1552.9 691.25 1552.9 Q685.44 1552.9 682.361 1548.31 Q679.306 1543.71 679.306 1534.98 Q679.306 1526.23 682.361 1521.65 Q685.44 1517.04 691.25 1517.04 Z" fill="#000000" fill-rule="nonzero" fill-opacity="1" /><path clip-path="url(#clip170)" d="M703.195 1511.14 L727.306 1511.14 L727.306 1514.34 L703.195 1514.34 L703.195 1511.14 Z" fill="#000000" fill-rule="nonzero" fill-opacity="1" /><path clip-path="url(#clip170)" d="M738.779 1521.62 L752.038 1521.62 L752.038 1524.81 L734.209 1524.81 L734.209 1521.62 Q736.372 1519.38 740.096 1515.62 Q743.838 1511.84 744.797 1510.75 Q746.622 1508.7 747.336 1507.29 Q748.07 1505.86 748.07 1504.48 Q748.07 1502.24 746.49 1500.83 Q744.929 1499.42 742.409 1499.42 Q740.622 1499.42 738.628 1500.04 Q736.654 1500.67 734.397 1501.93 L734.397 1498.09 Q736.691 1497.17 738.685 1496.7 Q740.679 1496.23 742.334 1496.23 Q746.697 1496.23 749.293 1498.41 Q751.888 1500.59 751.888 1504.24 Q751.888 1505.97 751.23 1507.53 Q750.59 1509.07 748.879 1511.18 Q748.409 1511.72 745.888 1514.34 Q743.368 1516.93 738.779 1521.62 Z" fill="#000000" fill-rule="nonzero" fill-opacity="1" /><path clip-path="url(#clip170)" d="M1499.65 1548.29 L1507.29 1548.29 L1507.29 1521.92 L1498.98 1523.59 L1498.98 1519.33 L1507.24 1517.66 L1511.92 1517.66 L1511.92 1548.29 L1519.56 1548.29 L1519.56 1552.22 L1499.65 1552.22 L1499.65 1548.29 Z" fill="#000000" fill-rule="nonzero" fill-opacity="1" /><path clip-path="url(#clip170)" d="M1539 1520.74 Q1535.39 1520.74 1533.56 1524.31 Q1531.75 1527.85 1531.75 1534.98 Q1531.75 1542.09 1533.56 1545.65 Q1535.39 1549.19 1539 1549.19 Q1542.63 1549.19 1544.44 1545.65 Q1546.27 1542.09 1546.27 1534.98 Q1546.27 1527.85 1544.44 1524.31 Q1542.63 1520.74 1539 1520.74 M1539 1517.04 Q1544.81 1517.04 1547.87 1521.65 Q1550.94 1526.23 1550.94 1534.98 Q1550.94 1543.71 1547.87 1548.31 Q1544.81 1552.9 1539 1552.9 Q1533.19 1552.9 1530.11 1548.31 Q1527.06 1543.71 1527.06 1534.98 Q1527.06 1526.23 1530.11 1521.65 Q1533.19 1517.04 1539 1517.04 Z" fill="#000000" fill-rule="nonzero" fill-opacity="1" /><path clip-path="url(#clip170)" d="M1550.94 1511.14 L1575.06 1511.14 L1575.06 1514.34 L1550.94 1514.34 L1550.94 1511.14 Z" fill="#000000" fill-rule="nonzero" fill-opacity="1" /><path clip-path="url(#clip170)" d="M1583.91 1521.62 L1590.12 1521.62 L1590.12 1500.19 L1583.37 1501.55 L1583.37 1498.09 L1590.08 1496.73 L1593.88 1496.73 L1593.88 1521.62 L1600.09 1521.62 L1600.09 1524.81 L1583.91 1524.81 L1583.91 1521.62 Z" fill="#000000" fill-rule="nonzero" fill-opacity="1" /><polyline clip-path="url(#clip172)" style="stroke:#000000; stroke-linecap:round; stroke-linejoin:round; stroke-width:2; stroke-opacity:0.1; fill:none" points="188.292,940.705 2352.76,940.705 "/>
<polyline clip-path="url(#clip172)" style="stroke:#000000; stroke-linecap:round; stroke-linejoin:round; stroke-width:2; stroke-opacity:0.1; fill:none" points="188.292,283.404 2352.76,283.404 "/>
<polyline clip-path="url(#clip170)" style="stroke:#000000; stroke-linecap:round; stroke-linejoin:round; stroke-width:4; stroke-opacity:1; fill:none" points="188.292,1474.16 188.292,47.2441 "/>
<polyline clip-path="url(#clip170)" style="stroke:#000000; stroke-linecap:round; stroke-linejoin:round; stroke-width:4; stroke-opacity:1; fill:none" points="188.292,940.705 207.19,940.705 "/>
<polyline clip-path="url(#clip170)" style="stroke:#000000; stroke-linecap:round; stroke-linejoin:round; stroke-width:4; stroke-opacity:1; fill:none" points="188.292,283.404 207.19,283.404 "/>
<path clip-path="url(#clip170)" d="M51.6634 960.497 L59.3023 960.497 L59.3023 934.132 L50.9921 935.798 L50.9921 931.539 L59.256 929.872 L63.9319 929.872 L63.9319 960.497 L71.5707 960.497 L71.5707 964.432 L51.6634 964.432 L51.6634 960.497 Z" fill="#000000" fill-rule="nonzero" fill-opacity="1" /><path clip-path="url(#clip170)" d="M91.0151 932.951 Q87.404 932.951 85.5753 936.516 Q83.7697 940.058 83.7697 947.187 Q83.7697 954.294 85.5753 957.858 Q87.404 961.4 91.0151 961.4 Q94.6493 961.4 96.4548 957.858 Q98.2835 954.294 98.2835 947.187 Q98.2835 940.058 96.4548 936.516 Q94.6493 932.951 91.0151 932.951 M91.0151 929.247 Q96.8252 929.247 99.8808 933.854 Q102.959 938.437 102.959 947.187 Q102.959 955.914 99.8808 960.52 Q96.8252 965.104 91.0151 965.104 Q85.2049 965.104 82.1262 960.52 Q79.0707 955.914 79.0707 947.187 Q79.0707 938.437 82.1262 933.854 Q85.2049 929.247 91.0151 929.247 Z" fill="#000000" fill-rule="nonzero" fill-opacity="1" /><path clip-path="url(#clip170)" d="M102.959 923.349 L127.071 923.349 L127.071 926.546 L102.959 926.546 L102.959 923.349 Z" fill="#000000" fill-rule="nonzero" fill-opacity="1" /><path clip-path="url(#clip170)" d="M135.309 908.942 L150.223 908.942 L150.223 912.139 L138.788 912.139 L138.788 919.023 Q139.616 918.741 140.443 918.609 Q141.271 918.459 142.098 918.459 Q146.8 918.459 149.546 921.035 Q152.292 923.612 152.292 928.013 Q152.292 932.546 149.471 935.066 Q146.65 937.568 141.515 937.568 Q139.747 937.568 137.904 937.267 Q136.08 936.966 134.124 936.364 L134.124 932.546 Q135.817 933.467 137.622 933.919 Q139.428 934.37 141.44 934.37 Q144.694 934.37 146.593 932.659 Q148.493 930.947 148.493 928.013 Q148.493 925.079 146.593 923.368 Q144.694 921.656 141.44 921.656 Q139.917 921.656 138.393 921.995 Q136.889 922.333 135.309 923.048 L135.309 908.942 Z" fill="#000000" fill-rule="nonzero" fill-opacity="1" /><path clip-path="url(#clip170)" d="M81.5866 303.196 L89.2254 303.196 L89.2254 276.831 L80.9153 278.497 L80.9153 274.238 L89.1791 272.571 L93.855 272.571 L93.855 303.196 L101.494 303.196 L101.494 307.131 L81.5866 307.131 L81.5866 303.196 Z" fill="#000000" fill-rule="nonzero" fill-opacity="1" /><path clip-path="url(#clip170)" d="M120.938 275.65 Q117.327 275.65 115.498 279.215 Q113.693 282.756 113.693 289.886 Q113.693 296.993 115.498 300.557 Q117.327 304.099 120.938 304.099 Q124.572 304.099 126.378 300.557 Q128.207 296.993 128.207 289.886 Q128.207 282.756 126.378 279.215 Q124.572 275.65 120.938 275.65 M120.938 271.946 Q126.748 271.946 129.804 276.553 Q132.883 281.136 132.883 289.886 Q132.883 298.613 129.804 303.219 Q126.748 307.803 120.938 307.803 Q115.128 307.803 112.049 303.219 Q108.994 298.613 108.994 289.886 Q108.994 281.136 112.049 276.553 Q115.128 271.946 120.938 271.946 Z" fill="#000000" fill-rule="nonzero" fill-opacity="1" /><path clip-path="url(#clip170)" d="M142.587 254.142 Q139.653 254.142 138.168 257.039 Q136.701 259.916 136.701 265.709 Q136.701 271.483 138.168 274.38 Q139.653 277.257 142.587 277.257 Q145.54 277.257 147.007 274.38 Q148.493 271.483 148.493 265.709 Q148.493 259.916 147.007 257.039 Q145.54 254.142 142.587 254.142 M142.587 251.133 Q147.308 251.133 149.791 254.876 Q152.292 258.6 152.292 265.709 Q152.292 272.8 149.791 276.542 Q147.308 280.266 142.587 280.266 Q137.867 280.266 135.365 276.542 Q132.883 272.8 132.883 265.709 Q132.883 258.6 135.365 254.876 Q137.867 251.133 142.587 251.133 Z" fill="#000000" fill-rule="nonzero" fill-opacity="1" /><circle clip-path="url(#clip172)" cx="2291.5" cy="87.6286" r="14.4" fill="#009af9" fill-rule="evenodd" fill-opacity="1" stroke="#000000" stroke-opacity="1" stroke-width="3.2"/>
<circle clip-path="url(#clip172)" cx="2036.25" cy="150.498" r="14.4" fill="#009af9" fill-rule="evenodd" fill-opacity="1" stroke="#000000" stroke-opacity="1" stroke-width="3.2"/>
<circle clip-path="url(#clip172)" cx="1781.01" cy="214.547" r="14.4" fill="#009af9" fill-rule="evenodd" fill-opacity="1" stroke="#000000" stroke-opacity="1" stroke-width="3.2"/>
<circle clip-path="url(#clip172)" cx="1525.77" cy="270.421" r="14.4" fill="#009af9" fill-rule="evenodd" fill-opacity="1" stroke="#000000" stroke-opacity="1" stroke-width="3.2"/>
<circle clip-path="url(#clip172)" cx="1270.52" cy="315.346" r="14.4" fill="#009af9" fill-rule="evenodd" fill-opacity="1" stroke="#000000" stroke-opacity="1" stroke-width="3.2"/>
<circle clip-path="url(#clip172)" cx="1015.28" cy="357.508" r="14.4" fill="#009af9" fill-rule="evenodd" fill-opacity="1" stroke="#000000" stroke-opacity="1" stroke-width="3.2"/>
<circle clip-path="url(#clip172)" cx="760.037" cy="398.158" r="14.4" fill="#009af9" fill-rule="evenodd" fill-opacity="1" stroke="#000000" stroke-opacity="1" stroke-width="3.2"/>
<circle clip-path="url(#clip172)" cx="504.794" cy="438.308" r="14.4" fill="#009af9" fill-rule="evenodd" fill-opacity="1" stroke="#000000" stroke-opacity="1" stroke-width="3.2"/>
<circle clip-path="url(#clip172)" cx="249.551" cy="478.208" r="14.4" fill="#009af9" fill-rule="evenodd" fill-opacity="1" stroke="#000000" stroke-opacity="1" stroke-width="3.2"/>
<circle clip-path="url(#clip172)" cx="2291.5" cy="132.582" r="14.4" fill="#e26f46" fill-rule="evenodd" fill-opacity="1" stroke="#000000" stroke-opacity="1" stroke-width="3.2"/>
<circle clip-path="url(#clip172)" cx="2036.25" cy="236.65" r="14.4" fill="#e26f46" fill-rule="evenodd" fill-opacity="1" stroke="#000000" stroke-opacity="1" stroke-width="3.2"/>
<circle clip-path="url(#clip172)" cx="1781.01" cy="340.856" r="14.4" fill="#e26f46" fill-rule="evenodd" fill-opacity="1" stroke="#000000" stroke-opacity="1" stroke-width="3.2"/>
<circle clip-path="url(#clip172)" cx="1525.77" cy="419.543" r="14.4" fill="#e26f46" fill-rule="evenodd" fill-opacity="1" stroke="#000000" stroke-opacity="1" stroke-width="3.2"/>
<circle clip-path="url(#clip172)" cx="1270.52" cy="501.694" r="14.4" fill="#e26f46" fill-rule="evenodd" fill-opacity="1" stroke="#000000" stroke-opacity="1" stroke-width="3.2"/>
<circle clip-path="url(#clip172)" cx="1015.28" cy="583.041" r="14.4" fill="#e26f46" fill-rule="evenodd" fill-opacity="1" stroke="#000000" stroke-opacity="1" stroke-width="3.2"/>
<circle clip-path="url(#clip172)" cx="760.037" cy="663.17" r="14.4" fill="#e26f46" fill-rule="evenodd" fill-opacity="1" stroke="#000000" stroke-opacity="1" stroke-width="3.2"/>
<circle clip-path="url(#clip172)" cx="504.794" cy="742.936" r="14.4" fill="#e26f46" fill-rule="evenodd" fill-opacity="1" stroke="#000000" stroke-opacity="1" stroke-width="3.2"/>
<circle clip-path="url(#clip172)" cx="249.551" cy="822.304" r="14.4" fill="#e26f46" fill-rule="evenodd" fill-opacity="1" stroke="#000000" stroke-opacity="1" stroke-width="3.2"/>
<circle clip-path="url(#clip172)" cx="2291.5" cy="188.989" r="14.4" fill="#3da44d" fill-rule="evenodd" fill-opacity="1" stroke="#000000" stroke-opacity="1" stroke-width="3.2"/>
<circle clip-path="url(#clip172)" cx="2036.25" cy="341.658" r="14.4" fill="#3da44d" fill-rule="evenodd" fill-opacity="1" stroke="#000000" stroke-opacity="1" stroke-width="3.2"/>
<circle clip-path="url(#clip172)" cx="1781.01" cy="495.816" r="14.4" fill="#3da44d" fill-rule="evenodd" fill-opacity="1" stroke="#000000" stroke-opacity="1" stroke-width="3.2"/>
<circle clip-path="url(#clip172)" cx="1525.77" cy="646.68" r="14.4" fill="#3da44d" fill-rule="evenodd" fill-opacity="1" stroke="#000000" stroke-opacity="1" stroke-width="3.2"/>
<circle clip-path="url(#clip172)" cx="1270.52" cy="791.021" r="14.4" fill="#3da44d" fill-rule="evenodd" fill-opacity="1" stroke="#000000" stroke-opacity="1" stroke-width="3.2"/>
<circle clip-path="url(#clip172)" cx="1015.28" cy="965.551" r="14.4" fill="#3da44d" fill-rule="evenodd" fill-opacity="1" stroke="#000000" stroke-opacity="1" stroke-width="3.2"/>
<circle clip-path="url(#clip172)" cx="760.037" cy="1104.38" r="14.4" fill="#3da44d" fill-rule="evenodd" fill-opacity="1" stroke="#000000" stroke-opacity="1" stroke-width="3.2"/>
<circle clip-path="url(#clip172)" cx="504.794" cy="1293.15" r="14.4" fill="#3da44d" fill-rule="evenodd" fill-opacity="1" stroke="#000000" stroke-opacity="1" stroke-width="3.2"/>
<circle clip-path="url(#clip172)" cx="249.551" cy="1433.78" r="14.4" fill="#3da44d" fill-rule="evenodd" fill-opacity="1" stroke="#000000" stroke-opacity="1" stroke-width="3.2"/>
<path clip-path="url(#clip170)" d="M260.441 302.168 L594.063 302.168 L594.063 94.8081 L260.441 94.8081  Z" fill="#ffffff" fill-rule="evenodd" fill-opacity="1"/>
<polyline clip-path="url(#clip170)" style="stroke:#000000; stroke-linecap:round; stroke-linejoin:round; stroke-width:4; stroke-opacity:1; fill:none" points="260.441,302.168 594.063,302.168 594.063,94.8081 260.441,94.8081 260.441,302.168 "/>
<circle clip-path="url(#clip170)" cx="356.639" cy="146.648" r="20.48" fill="#009af9" fill-rule="evenodd" fill-opacity="1" stroke="#000000" stroke-opacity="1" stroke-width="4.55111"/>
<path clip-path="url(#clip170)" d="M452.838 129.368 L474.69 129.368 L474.69 133.303 L457.514 133.303 L457.514 143.535 L473.972 143.535 L473.972 147.47 L457.514 147.47 L457.514 159.993 L475.106 159.993 L475.106 163.928 L452.838 163.928 L452.838 129.368 Z" fill="#000000" fill-rule="nonzero" fill-opacity="1" /><path clip-path="url(#clip170)" d="M482.166 153.697 L482.166 138.002 L486.426 138.002 L486.426 153.535 Q486.426 157.215 487.861 159.067 Q489.296 160.896 492.166 160.896 Q495.615 160.896 497.606 158.697 Q499.62 156.498 499.62 152.701 L499.62 138.002 L503.879 138.002 L503.879 163.928 L499.62 163.928 L499.62 159.947 Q498.069 162.308 496.009 163.465 Q493.972 164.599 491.264 164.599 Q486.796 164.599 484.481 161.822 Q482.166 159.044 482.166 153.697 M492.884 137.377 L492.884 137.377 Z" fill="#000000" fill-rule="nonzero" fill-opacity="1" /><path clip-path="url(#clip170)" d="M512.652 127.91 L516.912 127.91 L516.912 163.928 L512.652 163.928 L512.652 127.91 Z" fill="#000000" fill-rule="nonzero" fill-opacity="1" /><path clip-path="url(#clip170)" d="M547.999 149.9 L547.999 151.984 L528.416 151.984 Q528.694 156.382 531.055 158.697 Q533.439 160.988 537.675 160.988 Q540.129 160.988 542.421 160.386 Q544.735 159.785 547.004 158.581 L547.004 162.609 Q544.712 163.581 542.305 164.09 Q539.898 164.599 537.421 164.599 Q531.217 164.599 527.583 160.988 Q523.972 157.377 523.972 151.22 Q523.972 144.854 527.398 141.127 Q530.847 137.377 536.68 137.377 Q541.911 137.377 544.944 140.757 Q547.999 144.113 547.999 149.9 M543.74 148.65 Q543.694 145.155 541.772 143.072 Q539.874 140.988 536.726 140.988 Q533.161 140.988 531.009 143.002 Q528.879 145.016 528.555 148.674 L543.74 148.65 Z" fill="#000000" fill-rule="nonzero" fill-opacity="1" /><path clip-path="url(#clip170)" d="M570.013 141.984 Q569.295 141.567 568.439 141.382 Q567.606 141.174 566.587 141.174 Q562.976 141.174 561.032 143.535 Q559.11 145.873 559.11 150.271 L559.11 163.928 L554.828 163.928 L554.828 138.002 L559.11 138.002 L559.11 142.03 Q560.453 139.669 562.606 138.535 Q564.758 137.377 567.837 137.377 Q568.277 137.377 568.809 137.447 Q569.342 137.493 569.99 137.609 L570.013 141.984 Z" fill="#000000" fill-rule="nonzero" fill-opacity="1" /><circle clip-path="url(#clip170)" cx="356.639" cy="198.488" r="20.48" fill="#e26f46" fill-rule="evenodd" fill-opacity="1" stroke="#000000" stroke-opacity="1" stroke-width="4.55111"/>
<path clip-path="url(#clip170)" d="M469.227 199.564 Q470.731 200.074 472.143 201.74 Q473.578 203.407 475.014 206.324 L479.759 215.768 L474.736 215.768 L470.315 206.902 Q468.602 203.43 466.981 202.296 Q465.384 201.162 462.606 201.162 L457.514 201.162 L457.514 215.768 L452.838 215.768 L452.838 181.208 L463.393 181.208 Q469.319 181.208 472.236 183.685 Q475.152 186.162 475.152 191.162 Q475.152 194.426 473.625 196.578 Q472.12 198.731 469.227 199.564 M457.514 185.051 L457.514 197.319 L463.393 197.319 Q466.773 197.319 468.486 195.768 Q470.222 194.194 470.222 191.162 Q470.222 188.129 468.486 186.602 Q466.773 185.051 463.393 185.051 L457.514 185.051 Z" fill="#000000" fill-rule="nonzero" fill-opacity="1" /><path clip-path="url(#clip170)" d="M485.777 181.208 L490.453 181.208 L490.453 195.815 L505.962 181.208 L511.981 181.208 L494.828 197.319 L513.208 215.768 L507.05 215.768 L490.453 199.125 L490.453 215.768 L485.777 215.768 L485.777 181.208 Z" fill="#000000" fill-rule="nonzero" fill-opacity="1" /><path clip-path="url(#clip170)" d="M521.31 211.833 L537.629 211.833 L537.629 215.768 L515.685 215.768 L515.685 211.833 Q518.347 209.078 522.93 204.449 Q527.536 199.796 528.717 198.453 Q530.962 195.93 531.842 194.194 Q532.745 192.435 532.745 190.745 Q532.745 187.99 530.8 186.254 Q528.879 184.518 525.777 184.518 Q523.578 184.518 521.124 185.282 Q518.694 186.046 515.916 187.597 L515.916 182.875 Q518.74 181.741 521.194 181.162 Q523.648 180.583 525.685 180.583 Q531.055 180.583 534.249 183.268 Q537.444 185.953 537.444 190.444 Q537.444 192.574 536.634 194.495 Q535.847 196.393 533.74 198.986 Q533.161 199.657 530.06 202.875 Q526.958 206.069 521.31 211.833 Z" fill="#000000" fill-rule="nonzero" fill-opacity="1" /><circle clip-path="url(#clip170)" cx="356.639" cy="250.328" r="20.48" fill="#3da44d" fill-rule="evenodd" fill-opacity="1" stroke="#000000" stroke-opacity="1" stroke-width="4.55111"/>
<path clip-path="url(#clip170)" d="M469.227 251.404 Q470.731 251.914 472.143 253.58 Q473.578 255.247 475.014 258.164 L479.759 267.608 L474.736 267.608 L470.315 258.742 Q468.602 255.27 466.981 254.136 Q465.384 253.002 462.606 253.002 L457.514 253.002 L457.514 267.608 L452.838 267.608 L452.838 233.048 L463.393 233.048 Q469.319 233.048 472.236 235.525 Q475.152 238.002 475.152 243.002 Q475.152 246.266 473.625 248.418 Q472.12 250.571 469.227 251.404 M457.514 236.891 L457.514 249.159 L463.393 249.159 Q466.773 249.159 468.486 247.608 Q470.222 246.034 470.222 243.002 Q470.222 239.969 468.486 238.442 Q466.773 236.891 463.393 236.891 L457.514 236.891 Z" fill="#000000" fill-rule="nonzero" fill-opacity="1" /><path clip-path="url(#clip170)" d="M485.777 233.048 L490.453 233.048 L490.453 247.655 L505.962 233.048 L511.981 233.048 L494.828 249.159 L513.208 267.608 L507.05 267.608 L490.453 250.965 L490.453 267.608 L485.777 267.608 L485.777 233.048 Z" fill="#000000" fill-rule="nonzero" fill-opacity="1" /><path clip-path="url(#clip170)" d="M530.129 237.122 L518.324 255.571 L530.129 255.571 L530.129 237.122 M528.902 233.048 L534.782 233.048 L534.782 255.571 L539.712 255.571 L539.712 259.46 L534.782 259.46 L534.782 267.608 L530.129 267.608 L530.129 259.46 L514.527 259.46 L514.527 254.946 L528.902 233.048 Z" fill="#000000" fill-rule="nonzero" fill-opacity="1" /></svg>
