<?xml version="1.0" encoding="utf-8"?>
<svg xmlns="http://www.w3.org/2000/svg" xmlns:xlink="http://www.w3.org/1999/xlink" width="600" height="400" viewBox="0 0 2400 1600">
<defs>
  <clipPath id="clip450">
    <rect x="0" y="0" width="2400" height="1600"/>
  </clipPath>
</defs>
<path clip-path="url(#clip450)" d="M0 1600 L2400 1600 L2400 0 L0 0  Z" fill="#ffffff" fill-rule="evenodd" fill-opacity="1"/>
<defs>
  <clipPath id="clip451">
    <rect x="480" y="0" width="1681" height="1600"/>
  </clipPath>
</defs>
<path clip-path="url(#clip450)" d="M148.057 1486.45 L2352.76 1486.45 L2352.76 47.2441 L148.057 47.2441  Z" fill="#ffffff" fill-rule="evenodd" fill-opacity="1"/>
<defs>
  <clipPath id="clip452">
    <rect x="148" y="47" width="2206" height="1440"/>
  </clipPath>
</defs>
<polyline clip-path="url(#clip452)" style="stroke:#000000; stroke-linecap:round; stroke-linejoin:round; stroke-width:2; stroke-opacity:0.1; fill:none" points="210.454,1486.45 210.454,47.2441 "/>
<polyline clip-path="url(#clip452)" style="stroke:#000000; stroke-linecap:round; stroke-linejoin:round; stroke-width:2; stroke-opacity:0.1; fill:none" points="738.24,1486.45 738.24,47.2441 "/>
<polyline clip-path="url(#clip452)" style="stroke:#000000; stroke-linecap:round; stroke-linejoin:round; stroke-width:2; stroke-opacity:0.1; fill:none" points="1266.03,1486.45 1266.03,47.2441 "/>
<polyline clip-path="url(#clip452)" style="stroke:#000000; stroke-linecap:round; stroke-linejoin:round; stroke-width:2; stroke-opacity:0.1; fill:none" points="1793.81,1486.45 1793.81,47.2441 "/>
<polyline clip-path="url(#clip452)" style="stroke:#000000; stroke-linecap:round; stroke-linejoin:round; stroke-width:2; stroke-opacity:0.1; fill:none" points="2321.6,1486.45 2321.6,47.2441 "/>
<polyline clip-path="url(#clip450)" style="stroke:#000000; stroke-linecap:round; stroke-linejoin:round; stroke-width:4; stroke-opacity:1; fill:none" points="148.057,1486.45 2352.76,1486.45 "/>
<polyline clip-path="url(#clip450)" style="stroke:#000000; stroke-linecap:round; stroke-linejoin:round; stroke-width:4; stroke-opacity:1; fill:none" points="210.454,1486.45 210.454,1467.55 "/>
<polyline clip-path="url(#clip450)" style="stroke:#000000; stroke-linecap:round; stroke-linejoin:round; stroke-width:4; stroke-opacity:1; fill:none" points="738.24,1486.45 738.24,1467.55 "/>
<polyline clip-path="url(#clip450)" style="stroke:#000000; stroke-linecap:round; stroke-linejoin:round; stroke-width:4; stroke-opacity:1; fill:none" points="1266.03,1486.45 1266.03,1467.55 "/>
<polyline clip-path="url(#clip450)" style="stroke:#000000; stroke-linecap:round; stroke-linejoin:round; stroke-width:4; stroke-opacity:1; fill:none" points="1793.81,1486.45 1793.81,1467.55 "/>
<polyline clip-path="url(#clip450)" style="stroke:#000000; stroke-linecap:round; stroke-linejoin:round; stroke-width:4; stroke-opacity:1; fill:none" points="2321.6,1486.45 2321.6,1467.55 "/>
<path clip-path="url(#clip450)" d="M187.838 1517.37 Q184.227 1517.37 182.398 1520.93 Q180.593 1524.47 180.593 1531.6 Q180.593 1538.71 182.398 1542.27 Q184.227 1545.82 187.838 1545.82 Q191.472 1545.82 193.278 1542.27 Q195.107 1538.71 195.107 1531.6 Q195.107 1524.47 193.278 1520.93 Q191.472 1517.37 187.838 1517.37 M187.838 1513.66 Q193.648 1513.66 196.704 1518.27 Q199.783 1522.85 199.783 1531.6 Q199.783 1540.33 196.704 1544.94 Q193.648 1549.52 187.838 1549.52 Q182.028 1549.52 178.949 1544.94 Q175.894 1540.33 175.894 1531.6 Q175.894 1522.85 178.949 1518.27 Q182.028 1513.66 187.838 1513.66 Z" fill="#000000" fill-rule="nonzero" fill-opacity="1" /><path clip-path="url(#clip450)" d="M208 1542.97 L212.884 1542.97 L212.884 1548.85 L208 1548.85 L208 1542.97 Z" fill="#000000" fill-rule="nonzero" fill-opacity="1" /><path clip-path="url(#clip450)" d="M233.069 1517.37 Q229.458 1517.37 227.63 1520.93 Q225.824 1524.47 225.824 1531.6 Q225.824 1538.71 227.63 1542.27 Q229.458 1545.82 233.069 1545.82 Q236.704 1545.82 238.509 1542.27 Q240.338 1538.71 240.338 1531.6 Q240.338 1524.47 238.509 1520.93 Q236.704 1517.37 233.069 1517.37 M233.069 1513.66 Q238.88 1513.66 241.935 1518.27 Q245.014 1522.85 245.014 1531.6 Q245.014 1540.33 241.935 1544.94 Q238.88 1549.52 233.069 1549.52 Q227.259 1549.52 224.181 1544.94 Q221.125 1540.33 221.125 1531.6 Q221.125 1522.85 224.181 1518.27 Q227.259 1513.66 233.069 1513.66 Z" fill="#000000" fill-rule="nonzero" fill-opacity="1" /><path clip-path="url(#clip450)" d="M709.976 1544.91 L726.295 1544.91 L726.295 1548.85 L704.351 1548.85 L704.351 1544.91 Q707.013 1542.16 711.596 1537.53 Q716.203 1532.88 717.383 1531.53 Q719.629 1529.01 720.508 1527.27 Q721.411 1525.51 721.411 1523.82 Q721.411 1521.07 719.466 1519.33 Q717.545 1517.6 714.443 1517.6 Q712.244 1517.6 709.791 1518.36 Q707.36 1519.13 704.582 1520.68 L704.582 1515.95 Q707.406 1514.82 709.86 1514.24 Q712.314 1513.66 714.351 1513.66 Q719.721 1513.66 722.916 1516.35 Q726.11 1519.03 726.11 1523.52 Q726.11 1525.65 725.3 1527.57 Q724.513 1529.47 722.406 1532.07 Q721.828 1532.74 718.726 1535.95 Q715.624 1539.15 709.976 1544.91 Z" fill="#000000" fill-rule="nonzero" fill-opacity="1" /><path clip-path="url(#clip450)" d="M736.11 1542.97 L740.994 1542.97 L740.994 1548.85 L736.11 1548.85 L736.11 1542.97 Z" fill="#000000" fill-rule="nonzero" fill-opacity="1" /><path clip-path="url(#clip450)" d="M751.226 1514.29 L769.582 1514.29 L769.582 1518.22 L755.508 1518.22 L755.508 1526.7 Q756.526 1526.35 757.545 1526.19 Q758.563 1526 759.582 1526 Q765.369 1526 768.749 1529.17 Q772.128 1532.34 772.128 1537.76 Q772.128 1543.34 768.656 1546.44 Q765.184 1549.52 758.864 1549.52 Q756.689 1549.52 754.42 1549.15 Q752.175 1548.78 749.767 1548.04 L749.767 1543.34 Q751.851 1544.47 754.073 1545.03 Q756.295 1545.58 758.772 1545.58 Q762.776 1545.58 765.114 1543.48 Q767.452 1541.37 767.452 1537.76 Q767.452 1534.15 765.114 1532.04 Q762.776 1529.94 758.772 1529.94 Q756.897 1529.94 755.022 1530.35 Q753.17 1530.77 751.226 1531.65 L751.226 1514.29 Z" fill="#000000" fill-rule="nonzero" fill-opacity="1" /><path clip-path="url(#clip450)" d="M1233.19 1514.29 L1251.55 1514.29 L1251.55 1518.22 L1237.47 1518.22 L1237.47 1526.7 Q1238.49 1526.35 1239.51 1526.19 Q1240.53 1526 1241.55 1526 Q1247.33 1526 1250.71 1529.17 Q1254.09 1532.34 1254.09 1537.76 Q1254.09 1543.34 1250.62 1546.44 Q1247.15 1549.52 1240.83 1549.52 Q1238.65 1549.52 1236.38 1549.15 Q1234.14 1548.78 1231.73 1548.04 L1231.73 1543.34 Q1233.81 1544.47 1236.04 1545.03 Q1238.26 1545.58 1240.74 1545.58 Q1244.74 1545.58 1247.08 1543.48 Q1249.42 1541.37 1249.42 1537.76 Q1249.42 1534.15 1247.08 1532.04 Q1244.74 1529.94 1240.74 1529.94 Q1238.86 1529.94 1236.99 1530.35 Q1235.13 1530.77 1233.19 1531.65 L1233.19 1514.29 Z" fill="#000000" fill-rule="nonzero" fill-opacity="1" /><path clip-path="url(#clip450)" d="M1263.31 1542.97 L1268.19 1542.97 L1268.19 1548.85 L1263.31 1548.85 L1263.31 1542.97 Z" fill="#000000" fill-rule="nonzero" fill-opacity="1" /><path clip-path="url(#clip450)" d="M1288.37 1517.37 Q1284.76 1517.37 1282.93 1520.93 Q1281.13 1524.47 1281.13 1531.6 Q1281.13 1538.71 1282.93 1542.27 Q1284.76 1545.82 1288.37 1545.82 Q1292.01 1545.82 1293.81 1542.27 Q1295.64 1538.71 1295.64 1531.6 Q1295.64 1524.47 1293.81 1520.93 Q1292.01 1517.37 1288.37 1517.37 M1288.37 1513.66 Q1294.18 1513.66 1297.24 1518.27 Q1300.32 1522.85 1300.32 1531.6 Q1300.32 1540.33 1297.24 1544.94 Q1294.18 1549.52 1288.37 1549.52 Q1282.56 1549.52 1279.49 1544.94 Q1276.43 1540.33 1276.43 1531.6 Q1276.43 1522.85 1279.49 1518.27 Q1282.56 1513.66 1288.37 1513.66 Z" fill="#000000" fill-rule="nonzero" fill-opacity="1" /><path clip-path="url(#clip450)" d="M1760.13 1514.29 L1782.35 1514.29 L1782.35 1516.28 L1769.81 1548.85 L1764.92 1548.85 L1776.73 1518.22 L1760.13 1518.22 L1760.13 1514.29 Z" fill="#000000" fill-rule="nonzero" fill-opacity="1" /><path clip-path="url(#clip450)" d="M1791.47 1542.97 L1796.36 1542.97 L1796.36 1548.85 L1791.47 1548.85 L1791.47 1542.97 Z" fill="#000000" fill-rule="nonzero" fill-opacity="1" /><path clip-path="url(#clip450)" d="M1806.59 1514.29 L1824.95 1514.29 L1824.95 1518.22 L1810.87 1518.22 L1810.87 1526.7 Q1811.89 1526.35 1812.91 1526.19 Q1813.93 1526 1814.95 1526 Q1820.73 1526 1824.11 1529.17 Q1827.49 1532.34 1827.49 1537.76 Q1827.49 1543.34 1824.02 1546.44 Q1820.55 1549.52 1814.23 1549.52 Q1812.05 1549.52 1809.78 1549.15 Q1807.54 1548.78 1805.13 1548.04 L1805.13 1543.34 Q1807.21 1544.47 1809.44 1545.03 Q1811.66 1545.58 1814.14 1545.58 Q1818.14 1545.58 1820.48 1543.48 Q1822.82 1541.37 1822.82 1537.76 Q1822.82 1534.15 1820.48 1532.04 Q1818.14 1529.94 1814.14 1529.94 Q1812.26 1529.94 1810.39 1530.35 Q1808.53 1530.77 1806.59 1531.65 L1806.59 1514.29 Z" fill="#000000" fill-rule="nonzero" fill-opacity="1" /><path clip-path="url(#clip450)" d="M2273.67 1544.91 L2281.31 1544.91 L2281.31 1518.55 L2273 1520.21 L2273 1515.95 L2281.26 1514.29 L2285.94 1514.29 L2285.94 1544.91 L2293.58 1544.91 L2293.58 1548.85 L2273.67 1548.85 L2273.67 1544.91 Z" fill="#000000" fill-rule="nonzero" fill-opacity="1" /><path clip-path="url(#clip450)" d="M2313.02 1517.37 Q2309.41 1517.37 2307.58 1520.93 Q2305.78 1524.47 2305.78 1531.6 Q2305.78 1538.71 2307.58 1542.27 Q2309.41 1545.82 2313.02 1545.82 Q2316.65 1545.82 2318.46 1542.27 Q2320.29 1538.71 2320.29 1531.6 Q2320.29 1524.47 2318.46 1520.93 Q2316.65 1517.37 2313.02 1517.37 M2313.02 1513.66 Q2318.83 1513.66 2321.89 1518.27 Q2324.96 1522.85 2324.96 1531.6 Q2324.96 1540.33 2321.89 1544.94 Q2318.83 1549.52 2313.02 1549.52 Q2307.21 1549.52 2304.13 1544.94 Q2301.08 1540.33 2301.08 1531.6 Q2301.08 1522.85 2304.13 1518.27 Q2307.21 1513.66 2313.02 1513.66 Z" fill="#000000" fill-rule="nonzero" fill-opacity="1" /><path clip-path="url(#clip450)" d="M2333.18 1542.97 L2338.07 1542.97 L2338.07 1548.85 L2333.18 1548.85 L2333.18 1542.97 Z" fill="#000000" fill-rule="nonzero" fill-opacity="1" /><path clip-path="url(#clip450)" d="M2358.25 1517.37 Q2354.64 1517.37 2352.81 1520.93 Q2351.01 1524.47 2351.01 1531.6 Q2351.01 1538.71 2352.81 1542.27 Q2354.64 1545.82 2358.25 1545.82 Q2361.89 1545.82 2363.69 1542.27 Q2365.52 1538.71 2365.52 1531.6 Q2365.52 1524.47 2363.69 1520.93 Q2361.89 1517.37 2358.25 1517.37 M2358.25 1513.66 Q2364.06 1513.66 2367.12 1518.27 Q2370.2 1522.85 2370.2 1531.6 Q2370.2 1540.33 2367.12 1544.94 Q2364.06 1549.52 2358.25 1549.52 Q2352.44 1549.52 2349.36 1544.94 Q2346.31 1540.33 2346.31 1531.6 Q2346.31 1522.85 2349.36 1518.27 Q2352.44 1513.66 2358.25 1513.66 Z" fill="#000000" fill-rule="nonzero" fill-opacity="1" /><polyline clip-path="url(#clip452)" style="stroke:#000000; stroke-linecap:round; stroke-linejoin:round; stroke-width:2; stroke-opacity:0.1; fill:none" points="148.057,1258.69 2352.76,1258.69 "/>
<polyline clip-path="url(#clip452)" style="stroke:#000000; stroke-linecap:round; stroke-linejoin:round; stroke-width:2; stroke-opacity:0.1; fill:none" points="148.057,952.925 2352.76,952.925 "/>
<polyline clip-path="url(#clip452)" style="stroke:#000000; stroke-linecap:round; stroke-linejoin:round; stroke-width:2; stroke-opacity:0.1; fill:none" points="148.057,647.158 2352.76,647.158 "/>
<polyline clip-path="url(#clip452)" style="stroke:#000000; stroke-linecap:round; stroke-linejoin:round; stroke-width:2; stroke-opacity:0.1; fill:none" points="148.057,341.39 2352.76,341.39 "/>
<polyline clip-path="url(#clip450)" style="stroke:#000000; stroke-linecap:round; stroke-linejoin:round; stroke-width:4; stroke-opacity:1; fill:none" points="148.057,1486.45 148.057,47.2441 "/>
<polyline clip-path="url(#clip450)" style="stroke:#000000; stroke-linecap:round; stroke-linejoin:round; stroke-width:4; stroke-opacity:1; fill:none" points="148.057,1258.69 166.954,1258.69 "/>
<polyline clip-path="url(#clip450)" style="stroke:#000000; stroke-linecap:round; stroke-linejoin:round; stroke-width:4; stroke-opacity:1; fill:none" points="148.057,952.925 166.954,952.925 "/>
<polyline clip-path="url(#clip450)" style="stroke:#000000; stroke-linecap:round; stroke-linejoin:round; stroke-width:4; stroke-opacity:1; fill:none" points="148.057,647.158 166.954,647.158 "/>
<polyline clip-path="url(#clip450)" style="stroke:#000000; stroke-linecap:round; stroke-linejoin:round; stroke-width:4; stroke-opacity:1; fill:none" points="148.057,341.39 166.954,341.39 "/>
<path clip-path="url(#clip450)" d="M50.9921 1259.14 L80.6679 1259.14 L80.6679 1263.08 L50.9921 1263.08 L50.9921 1259.14 Z" fill="#000000" fill-rule="nonzero" fill-opacity="1" /><path clip-path="url(#clip450)" d="M104.927 1257.34 Q108.283 1258.06 110.158 1260.32 Q112.057 1262.59 112.057 1265.93 Q112.057 1271.04 108.538 1273.84 Q105.02 1276.64 98.5382 1276.64 Q96.3623 1276.64 94.0475 1276.2 Q91.7558 1275.79 89.3021 1274.93 L89.3021 1270.42 Q91.2465 1271.55 93.5613 1272.13 Q95.8761 1272.71 98.3993 1272.71 Q102.797 1272.71 105.089 1270.97 Q107.404 1269.24 107.404 1265.93 Q107.404 1262.87 105.251 1261.16 Q103.121 1259.42 99.3021 1259.42 L95.2743 1259.42 L95.2743 1255.58 L99.4872 1255.58 Q102.936 1255.58 104.765 1254.21 Q106.594 1252.82 106.594 1250.23 Q106.594 1247.57 104.696 1246.16 Q102.821 1244.72 99.3021 1244.72 Q97.3808 1244.72 95.1817 1245.14 Q92.9826 1245.56 90.3438 1246.44 L90.3438 1242.27 Q93.0058 1241.53 95.3206 1241.16 Q97.6585 1240.79 99.7187 1240.79 Q105.043 1240.79 108.145 1243.22 Q111.246 1245.62 111.246 1249.75 Q111.246 1252.62 109.603 1254.61 Q107.959 1256.57 104.927 1257.34 Z" fill="#000000" fill-rule="nonzero" fill-opacity="1" /><path clip-path="url(#clip450)" d="M100.112 938.723 Q96.5011 938.723 94.6724 942.288 Q92.8669 945.83 92.8669 952.959 Q92.8669 960.066 94.6724 963.631 Q96.5011 967.172 100.112 967.172 Q103.746 967.172 105.552 963.631 Q107.381 960.066 107.381 952.959 Q107.381 945.83 105.552 942.288 Q103.746 938.723 100.112 938.723 M100.112 935.02 Q105.922 935.02 108.978 939.626 Q112.057 944.21 112.057 952.959 Q112.057 961.686 108.978 966.293 Q105.922 970.876 100.112 970.876 Q94.3021 970.876 91.2234 966.293 Q88.1679 961.686 88.1679 952.959 Q88.1679 944.21 91.2234 939.626 Q94.3021 935.02 100.112 935.02 Z" fill="#000000" fill-rule="nonzero" fill-opacity="1" /><path clip-path="url(#clip450)" d="M104.927 645.803 Q108.283 646.521 110.158 648.789 Q112.057 651.058 112.057 654.391 Q112.057 659.507 108.538 662.308 Q105.02 665.109 98.5382 665.109 Q96.3623 665.109 94.0475 664.669 Q91.7558 664.252 89.3021 663.396 L89.3021 658.882 Q91.2465 660.016 93.5613 660.595 Q95.8761 661.174 98.3993 661.174 Q102.797 661.174 105.089 659.438 Q107.404 657.701 107.404 654.391 Q107.404 651.336 105.251 649.623 Q103.121 647.887 99.3021 647.887 L95.2743 647.887 L95.2743 644.044 L99.4872 644.044 Q102.936 644.044 104.765 642.678 Q106.594 641.289 106.594 638.697 Q106.594 636.035 104.696 634.623 Q102.821 633.188 99.3021 633.188 Q97.3808 633.188 95.1817 633.604 Q92.9826 634.021 90.3438 634.901 L90.3438 630.734 Q93.0058 629.993 95.3206 629.623 Q97.6585 629.253 99.7187 629.253 Q105.043 629.253 108.145 631.683 Q111.246 634.09 111.246 638.211 Q111.246 641.081 109.603 643.072 Q107.959 645.039 104.927 645.803 Z" fill="#000000" fill-rule="nonzero" fill-opacity="1" /><path clip-path="url(#clip450)" d="M100.529 339.527 Q97.3808 339.527 95.5289 341.68 Q93.7002 343.832 93.7002 347.582 Q93.7002 351.309 95.5289 353.485 Q97.3808 355.638 100.529 355.638 Q103.677 355.638 105.506 353.485 Q107.358 351.309 107.358 347.582 Q107.358 343.832 105.506 341.68 Q103.677 339.527 100.529 339.527 M109.811 324.874 L109.811 329.133 Q108.052 328.3 106.246 327.86 Q104.464 327.42 102.705 327.42 Q98.0752 327.42 95.6215 330.545 Q93.191 333.67 92.8438 339.99 Q94.2095 337.976 96.2697 336.911 Q98.3298 335.823 100.807 335.823 Q106.015 335.823 109.024 338.994 Q112.057 342.143 112.057 347.582 Q112.057 352.906 108.908 356.124 Q105.76 359.342 100.529 359.342 Q94.5336 359.342 91.3623 354.758 Q88.191 350.152 88.191 341.425 Q88.191 333.231 92.0799 328.37 Q95.9687 323.485 102.52 323.485 Q104.279 323.485 106.061 323.832 Q107.867 324.18 109.811 324.874 Z" fill="#000000" fill-rule="nonzero" fill-opacity="1" /><polyline clip-path="url(#clip452)" style="stroke:#009af9; stroke-linecap:round; stroke-linejoin:round; stroke-width:4; stroke-opacity:1; fill:none" points="210.454,851.002 243.191,819.196 277.104,786 311.221,752.563 344.573,720.03 376.189,689.548 405.099,662.263 430.706,638.873 456.248,615.485 482.258,591.496 508.182,567.619 533.465,544.562 557.551,523.038 579.886,503.758 600.803,486.27 622.141,468.179 643.651,449.845 664.973,431.777 685.742,414.485 705.597,398.48 724.185,384.256 742.446,370.448 760.989,356.197 779.561,341.902 797.907,327.961 815.772,314.773 832.903,302.736 849.213,291.977 865.631,280.995 882.188,269.767 898.697,258.623 914.972,247.894 930.827,237.909 946.076,229 960.931,220.766 975.963,212.166 991.048,203.458 1006.05,194.929 1020.82,186.863 1035.22,179.547 1049.13,173.23 1062.98,166.98 1076.95,160.472 1090.92,153.961 1104.78,147.703 1118.42,141.955 1131.74,136.972 1144.74,132.746 1157.81,128.286 1170.94,123.674 1184.04,119.146 1197.02,114.939 1209.81,111.287 1222.3,108.429 1234.66,105.928 1247.11,103.146 1259.57,100.302 1271.99,97.6189 1284.28,95.3192 1296.39,93.6256 1308.26,92.695 1320.13,91.7134 1332.06,90.5377 1343.98,89.381 1355.84,88.4562 1367.58,87.9763 1379.12,88.1543 1390.51,88.8926 1401.97,89.3916 1413.45,89.7789 1424.91,90.2596 1436.29,91.039 1447.53,92.3222 1458.57,94.3137 1469.57,96.5022 1480.63,98.4583 1491.7,100.379 1502.73,102.463 1513.65,104.905 1524.42,107.905 1535,111.555 1545.62,115.096 1556.28,118.485 1566.94,121.91 1577.53,125.558 1587.98,129.617 1598.25,134.275 1608.38,139.361 1618.6,144.224 1628.84,149.01 1639.05,153.893 1649.16,159.051 1659.11,164.66 1668.83,170.887 1678.53,177.201 1688.31,183.34 1698.09,189.466 1707.81,195.742 1717.4,202.333 1726.78,209.401 1735.96,216.978 1745.2,224.432 1754.5,231.78 1763.77,239.17 1772.95,246.753 1781.96,254.676 1790.74,263.089 1799.39,271.781 1808.14,280.301 1816.91,288.776 1825.64,297.338 1834.24,306.121 1842.64,315.259 1850.79,324.862 1858.94,334.481 1867.17,343.984 1875.39,353.49 1883.53,363.117 1891.53,372.983 1899.29,383.206 1906.84,393.769 1914.48,404.226 1922.16,414.62 1929.81,425.053 1937.36,435.631 1944.72,446.455 1951.84,457.629 1958.85,468.95 1965.96,480.159 1973.09,491.347 1980.16,502.602 1987.1,514.014 1993.84,525.672 2000.33,537.634 2006.85,549.577 2013.43,561.453 2020,573.339 2026.49,585.31 2032.83,597.444 2038.95,609.815 2044.89,622.384 2050.91,634.875 2056.97,647.334 2062.99,659.825 2068.92,672.412 2074.67,685.16 2080.19,698.133 2085.66,711.165 2091.2,724.134 2096.74,737.096 2102.24,750.105 2107.61,763.214 2112.8,776.479 2117.79,789.922 2122.81,803.339 2127.88,816.72 2132.94,830.111 2137.93,843.558 2142.78,857.107 2147.44,870.801 2151.97,884.597 2156.57,898.345 2161.19,912.077 2165.78,925.831 2170.28,939.645 2174.64,953.558 2178.81,967.603 2182.95,981.666 2187.15,995.696 2191.35,1009.72 2195.5,1023.78 2199.55,1037.9 2203.44,1052.12 2207.18,1066.42 2210.97,1080.71 2214.79,1094.98 2218.59,1109.26 2222.32,1123.57 2225.95,1137.94 2229.42,1152.4 2232.81,1166.9 2236.26,1181.38 2239.72,1195.85 2243.15,1210.33 2246.5,1224.85 2249.74,1239.43 2252.83,1254.08 2255.92,1268.73 2259.04,1283.37 2262.17,1298 2265.25,1312.66 2268.26,1327.35 2271.14,1342.09 2273.91,1356.89 2276.72,1371.66 2279.55,1386.43 2282.36,1401.21 2285.13,1416.01 2287.81,1430.84 2290.36,1445.72 "/>
<path clip-path="url(#clip450)" d="M221.547 198.898 L723.959 198.898 L723.959 95.2176 L221.547 95.2176  Z" fill="#ffffff" fill-rule="evenodd" fill-opacity="1"/>
<polyline clip-path="url(#clip450)" style="stroke:#000000; stroke-linecap:round; stroke-linejoin:round; stroke-width:4; stroke-opacity:1; fill:none" points="221.547,198.898 723.959,198.898 723.959,95.2176 221.547,95.2176 221.547,198.898 "/>
<polyline clip-path="url(#clip450)" style="stroke:#009af9; stroke-linecap:round; stroke-linejoin:round; stroke-width:4; stroke-opacity:1; fill:none" points="246.043,147.058 393.023,147.058 "/>
<path clip-path="url(#clip450)" d="M421.802 160.449 L421.802 174.199 L417.52 174.199 L417.52 138.412 L421.802 138.412 L421.802 142.347 Q423.145 140.032 425.182 138.921 Q427.242 137.787 430.089 137.787 Q434.811 137.787 437.751 141.537 Q440.714 145.287 440.714 151.398 Q440.714 157.509 437.751 161.259 Q434.811 165.009 430.089 165.009 Q427.242 165.009 425.182 163.898 Q423.145 162.763 421.802 160.449 M436.293 151.398 Q436.293 146.699 434.348 144.037 Q432.427 141.352 429.048 141.352 Q425.668 141.352 423.724 144.037 Q421.802 146.699 421.802 151.398 Q421.802 156.097 423.724 158.782 Q425.668 161.444 429.048 161.444 Q432.427 161.444 434.348 158.782 Q436.293 156.097 436.293 151.398 Z" fill="#000000" fill-rule="nonzero" fill-opacity="1" /><path clip-path="url(#clip450)" d="M457.821 141.398 Q454.395 141.398 452.404 144.083 Q450.413 146.745 450.413 151.398 Q450.413 156.051 452.381 158.736 Q454.372 161.398 457.821 161.398 Q461.223 161.398 463.214 158.713 Q465.205 156.027 465.205 151.398 Q465.205 146.791 463.214 144.106 Q461.223 141.398 457.821 141.398 M457.821 137.787 Q463.376 137.787 466.547 141.398 Q469.719 145.009 469.719 151.398 Q469.719 157.764 466.547 161.398 Q463.376 165.009 457.821 165.009 Q452.242 165.009 449.071 161.398 Q445.922 157.764 445.922 151.398 Q445.922 145.009 449.071 141.398 Q452.242 137.787 457.821 137.787 Z" fill="#000000" fill-rule="nonzero" fill-opacity="1" /><path clip-path="url(#clip450)" d="M480.992 131.051 L480.992 138.412 L489.765 138.412 L489.765 141.722 L480.992 141.722 L480.992 155.796 Q480.992 158.967 481.848 159.87 Q482.728 160.773 485.39 160.773 L489.765 160.773 L489.765 164.338 L485.39 164.338 Q480.459 164.338 478.584 162.509 Q476.709 160.657 476.709 155.796 L476.709 141.722 L473.584 141.722 L473.584 138.412 L476.709 138.412 L476.709 131.051 L480.992 131.051 Z" fill="#000000" fill-rule="nonzero" fill-opacity="1" /><path clip-path="url(#clip450)" d="M510.436 138.412 L514.695 138.412 L514.695 164.338 L510.436 164.338 L510.436 138.412 M510.436 128.319 L514.695 128.319 L514.695 133.713 L510.436 133.713 L510.436 128.319 Z" fill="#000000" fill-rule="nonzero" fill-opacity="1" /><path clip-path="url(#clip450)" d="M521.755 138.412 L541.987 138.412 L541.987 142.301 L525.968 160.935 L541.987 160.935 L541.987 164.338 L521.177 164.338 L521.177 160.449 L537.195 141.815 L521.755 141.815 L521.755 138.412 Z" fill="#000000" fill-rule="nonzero" fill-opacity="1" /><path clip-path="url(#clip450)" d="M565.019 139.176 L565.019 143.203 Q563.214 142.277 561.269 141.815 Q559.325 141.352 557.241 141.352 Q554.07 141.352 552.473 142.324 Q550.899 143.296 550.899 145.24 Q550.899 146.722 552.033 147.578 Q553.167 148.412 556.593 149.176 L558.052 149.5 Q562.589 150.472 564.487 152.254 Q566.408 154.014 566.408 157.185 Q566.408 160.796 563.538 162.902 Q560.69 165.009 555.69 165.009 Q553.607 165.009 551.339 164.592 Q549.093 164.199 546.593 163.388 L546.593 158.99 Q548.954 160.217 551.246 160.842 Q553.538 161.444 555.783 161.444 Q558.792 161.444 560.413 160.426 Q562.033 159.384 562.033 157.509 Q562.033 155.773 560.852 154.847 Q559.695 153.921 555.737 153.064 L554.255 152.717 Q550.297 151.884 548.538 150.171 Q546.778 148.435 546.778 145.426 Q546.778 141.768 549.371 139.778 Q551.964 137.787 556.732 137.787 Q559.093 137.787 561.176 138.134 Q563.26 138.481 565.019 139.176 Z" fill="#000000" fill-rule="nonzero" fill-opacity="1" /><path clip-path="url(#clip450)" d="M577.403 131.051 L577.403 138.412 L586.176 138.412 L586.176 141.722 L577.403 141.722 L577.403 155.796 Q577.403 158.967 578.26 159.87 Q579.139 160.773 581.801 160.773 L586.176 160.773 L586.176 164.338 L581.801 164.338 Q576.871 164.338 574.996 162.509 Q573.121 160.657 573.121 155.796 L573.121 141.722 L569.996 141.722 L569.996 138.412 L573.121 138.412 L573.121 131.051 L577.403 131.051 Z" fill="#000000" fill-rule="nonzero" fill-opacity="1" /><path clip-path="url(#clip450)" d="M606.801 142.393 Q606.084 141.977 605.227 141.791 Q604.394 141.583 603.375 141.583 Q599.764 141.583 597.82 143.944 Q595.899 146.282 595.899 150.68 L595.899 164.338 L591.616 164.338 L591.616 138.412 L595.899 138.412 L595.899 142.44 Q597.241 140.078 599.394 138.944 Q601.547 137.787 604.625 137.787 Q605.065 137.787 605.598 137.856 Q606.13 137.903 606.778 138.018 L606.801 142.393 Z" fill="#000000" fill-rule="nonzero" fill-opacity="1" /><path clip-path="url(#clip450)" d="M632.403 150.31 L632.403 152.393 L612.82 152.393 Q613.098 156.791 615.459 159.106 Q617.843 161.398 622.079 161.398 Q624.533 161.398 626.824 160.796 Q629.139 160.194 631.408 158.99 L631.408 163.018 Q629.116 163.99 626.709 164.5 Q624.301 165.009 621.824 165.009 Q615.621 165.009 611.986 161.398 Q608.375 157.787 608.375 151.629 Q608.375 145.264 611.801 141.537 Q615.25 137.787 621.084 137.787 Q626.315 137.787 629.347 141.166 Q632.403 144.523 632.403 150.31 M628.144 149.06 Q628.097 145.565 626.176 143.481 Q624.278 141.398 621.13 141.398 Q617.565 141.398 615.412 143.412 Q613.283 145.426 612.959 149.083 L628.144 149.06 Z" fill="#000000" fill-rule="nonzero" fill-opacity="1" /><path clip-path="url(#clip450)" d="M639.394 128.319 L643.653 128.319 L643.653 164.338 L639.394 164.338 L639.394 128.319 Z" fill="#000000" fill-rule="nonzero" fill-opacity="1" /><path clip-path="url(#clip450)" d="M652.403 128.319 L656.685 128.319 L656.685 149.592 L669.394 138.412 L674.833 138.412 L661.083 150.541 L675.412 164.338 L669.856 164.338 L656.685 151.676 L656.685 164.338 L652.403 164.338 L652.403 128.319 Z" fill="#000000" fill-rule="nonzero" fill-opacity="1" /><path clip-path="url(#clip450)" d="M690.967 151.305 Q685.805 151.305 683.815 152.486 Q681.824 153.666 681.824 156.514 Q681.824 158.782 683.305 160.125 Q684.81 161.444 687.38 161.444 Q690.921 161.444 693.051 158.944 Q695.204 156.421 695.204 152.254 L695.204 151.305 L690.967 151.305 M699.463 149.546 L699.463 164.338 L695.204 164.338 L695.204 160.402 Q693.745 162.763 691.569 163.898 Q689.393 165.009 686.245 165.009 Q682.264 165.009 679.903 162.787 Q677.565 160.541 677.565 156.791 Q677.565 152.416 680.481 150.194 Q683.421 147.972 689.231 147.972 L695.204 147.972 L695.204 147.555 Q695.204 144.615 693.259 143.018 Q691.338 141.398 687.842 141.398 Q685.62 141.398 683.514 141.93 Q681.407 142.463 679.463 143.527 L679.463 139.592 Q681.801 138.69 684 138.25 Q686.199 137.787 688.282 137.787 Q693.907 137.787 696.685 140.703 Q699.463 143.62 699.463 149.546 Z" fill="#000000" fill-rule="nonzero" fill-opacity="1" /></svg>
