<?xml version="1.0" encoding="utf-8"?>
<svg xmlns="http://www.w3.org/2000/svg" xmlns:xlink="http://www.w3.org/1999/xlink" width="600" height="400" viewBox="0 0 2400 1600">
<defs>
  <clipPath id="clip420">
    <rect x="0" y="0" width="2400" height="1600"/>
  </clipPath>
</defs>
<path clip-path="url(#clip420)" d="M0 1600 L2400 1600 L2400 0 L0 0  Z" fill="#ffffff" fill-rule="evenodd" fill-opacity="1"/>
<defs>
  <clipPath id="clip421">
    <rect x="480" y="0" width="1681" height="1600"/>
  </clipPath>
</defs>
<path clip-path="url(#clip420)" d="M192.941 1486.45 L2352.76 1486.45 L2352.76 47.2441 L192.941 47.2441  Z" fill="#ffffff" fill-rule="evenodd" fill-opacity="1"/>
<defs>
  <clipPath id="clip422">
    <rect x="192" y="47" width="2161" height="1440"/>
  </clipPath>
</defs>
<polyline clip-path="url(#clip422)" style="stroke:#000000; stroke-linecap:round; stroke-linejoin:round; stroke-width:2; stroke-opacity:0.1; fill:none" points="254.067,1486.45 254.067,47.2441 "/>
<polyline clip-path="url(#clip422)" style="stroke:#000000; stroke-linecap:round; stroke-linejoin:round; stroke-width:2; stroke-opacity:0.1; fill:none" points="751.509,1486.45 751.509,47.2441 "/>
<polyline clip-path="url(#clip422)" style="stroke:#000000; stroke-linecap:round; stroke-linejoin:round; stroke-width:2; stroke-opacity:0.1; fill:none" points="1248.95,1486.45 1248.95,47.2441 "/>
<polyline clip-path="url(#clip422)" style="stroke:#000000; stroke-linecap:round; stroke-linejoin:round; stroke-width:2; stroke-opacity:0.1; fill:none" points="1746.39,1486.45 1746.39,47.2441 "/>
<polyline clip-path="url(#clip422)" style="stroke:#000000; stroke-linecap:round; stroke-linejoin:round; stroke-width:2; stroke-opacity:0.1; fill:none" points="2243.83,1486.45 2243.83,47.2441 "/>
<polyline clip-path="url(#clip422)" style="stroke:#000000; stroke-linecap:round; stroke-linejoin:round; stroke-width:2; stroke-opacity:0.1; fill:none" points="192.941,1297.64 2352.76,1297.64 "/>
<polyline clip-path="url(#clip422)" style="stroke:#000000; stroke-linecap:round; stroke-linejoin:round; stroke-width:2; stroke-opacity:0.1; fill:none" points="192.941,1022.39 2352.76,1022.39 "/>
<polyline clip-path="url(#clip422)" style="stroke:#000000; stroke-linecap:round; stroke-linejoin:round; stroke-width:2; stroke-opacity:0.1; fill:none" points="192.941,747.139 2352.76,747.139 "/>
<polyline clip-path="url(#clip422)" style="stroke:#000000; stroke-linecap:round; stroke-linejoin:round; stroke-width:2; stroke-opacity:0.1; fill:none" points="192.941,471.891 2352.76,471.891 "/>
<polyline clip-path="url(#clip422)" style="stroke:#000000; stroke-linecap:round; stroke-linejoin:round; stroke-width:2; stroke-opacity:0.1; fill:none" points="192.941,196.643 2352.76,196.643 "/>
<polyline clip-path="url(#clip420)" style="stroke:#000000; stroke-linecap:round; stroke-linejoin:round; stroke-width:4; stroke-opacity:1; fill:none" points="192.941,1486.45 2352.76,1486.45 "/>
<polyline clip-path="url(#clip420)" style="stroke:#000000; stroke-linecap:round; stroke-linejoin:round; stroke-width:4; stroke-opacity:1; fill:none" points="254.067,1486.45 254.067,1467.55 "/>
<polyline clip-path="url(#clip420)" style="stroke:#000000; stroke-linecap:round; stroke-linejoin:round; stroke-width:4; stroke-opacity:1; fill:none" points="751.509,1486.45 751.509,1467.55 "/>
<polyline clip-path="url(#clip420)" style="stroke:#000000; stroke-linecap:round; stroke-linejoin:round; stroke-width:4; stroke-opacity:1; fill:none" points="1248.95,1486.45 1248.95,1467.55 "/>
<polyline clip-path="url(#clip420)" style="stroke:#000000; stroke-linecap:round; stroke-linejoin:round; stroke-width:4; stroke-opacity:1; fill:none" points="1746.39,1486.45 1746.39,1467.55 "/>
<polyline clip-path="url(#clip420)" style="stroke:#000000; stroke-linecap:round; stroke-linejoin:round; stroke-width:4; stroke-opacity:1; fill:none" points="2243.83,1486.45 2243.83,1467.55 "/>
<path clip-path="url(#clip420)" d="M231.452 1517.37 Q227.841 1517.37 226.012 1520.93 Q224.207 1524.47 224.207 1531.6 Q224.207 1538.71 226.012 1542.27 Q227.841 1545.82 231.452 1545.82 Q235.086 1545.82 236.892 1542.27 Q238.72 1538.71 238.72 1531.6 Q238.72 1524.47 236.892 1520.93 Q235.086 1517.37 231.452 1517.37 M231.452 1513.66 Q237.262 1513.66 240.318 1518.27 Q243.396 1522.85 243.396 1531.6 Q243.396 1540.33 240.318 1544.94 Q237.262 1549.52 231.452 1549.52 Q225.642 1549.52 222.563 1544.94 Q219.507 1540.33 219.507 1531.6 Q219.507 1522.85 222.563 1518.27 Q225.642 1513.66 231.452 1513.66 Z" fill="#000000" fill-rule="nonzero" fill-opacity="1" /><path clip-path="url(#clip420)" d="M251.614 1542.97 L256.498 1542.97 L256.498 1548.85 L251.614 1548.85 L251.614 1542.97 Z" fill="#000000" fill-rule="nonzero" fill-opacity="1" /><path clip-path="url(#clip420)" d="M276.683 1517.37 Q273.072 1517.37 271.243 1520.93 Q269.438 1524.47 269.438 1531.6 Q269.438 1538.71 271.243 1542.27 Q273.072 1545.82 276.683 1545.82 Q280.317 1545.82 282.123 1542.27 Q283.952 1538.71 283.952 1531.6 Q283.952 1524.47 282.123 1520.93 Q280.317 1517.37 276.683 1517.37 M276.683 1513.66 Q282.493 1513.66 285.549 1518.27 Q288.627 1522.85 288.627 1531.6 Q288.627 1540.33 285.549 1544.94 Q282.493 1549.52 276.683 1549.52 Q270.873 1549.52 267.794 1544.94 Q264.739 1540.33 264.739 1531.6 Q264.739 1522.85 267.794 1518.27 Q270.873 1513.66 276.683 1513.66 Z" fill="#000000" fill-rule="nonzero" fill-opacity="1" /><path clip-path="url(#clip420)" d="M723.245 1544.91 L739.565 1544.91 L739.565 1548.85 L717.62 1548.85 L717.62 1544.91 Q720.283 1542.16 724.866 1537.53 Q729.472 1532.88 730.653 1531.53 Q732.898 1529.01 733.778 1527.27 Q734.681 1525.51 734.681 1523.82 Q734.681 1521.07 732.736 1519.33 Q730.815 1517.6 727.713 1517.6 Q725.514 1517.6 723.06 1518.36 Q720.63 1519.13 717.852 1520.68 L717.852 1515.95 Q720.676 1514.82 723.13 1514.24 Q725.583 1513.66 727.62 1513.66 Q732.991 1513.66 736.185 1516.35 Q739.38 1519.03 739.38 1523.52 Q739.38 1525.65 738.569 1527.57 Q737.782 1529.47 735.676 1532.07 Q735.097 1532.74 731.995 1535.95 Q728.894 1539.15 723.245 1544.91 Z" fill="#000000" fill-rule="nonzero" fill-opacity="1" /><path clip-path="url(#clip420)" d="M749.38 1542.97 L754.264 1542.97 L754.264 1548.85 L749.38 1548.85 L749.38 1542.97 Z" fill="#000000" fill-rule="nonzero" fill-opacity="1" /><path clip-path="url(#clip420)" d="M764.495 1514.29 L782.852 1514.29 L782.852 1518.22 L768.778 1518.22 L768.778 1526.7 Q769.796 1526.35 770.815 1526.19 Q771.833 1526 772.852 1526 Q778.639 1526 782.018 1529.17 Q785.398 1532.34 785.398 1537.76 Q785.398 1543.34 781.926 1546.44 Q778.454 1549.52 772.134 1549.52 Q769.958 1549.52 767.69 1549.15 Q765.444 1548.78 763.037 1548.04 L763.037 1543.34 Q765.12 1544.47 767.342 1545.03 Q769.565 1545.58 772.041 1545.58 Q776.046 1545.58 778.384 1543.48 Q780.722 1541.37 780.722 1537.76 Q780.722 1534.15 778.384 1532.04 Q776.046 1529.94 772.041 1529.94 Q770.167 1529.94 768.292 1530.35 Q766.44 1530.77 764.495 1531.65 L764.495 1514.29 Z" fill="#000000" fill-rule="nonzero" fill-opacity="1" /><path clip-path="url(#clip420)" d="M1216.12 1514.29 L1234.47 1514.29 L1234.47 1518.22 L1220.4 1518.22 L1220.4 1526.7 Q1221.42 1526.35 1222.43 1526.19 Q1223.45 1526 1224.47 1526 Q1230.26 1526 1233.64 1529.17 Q1237.02 1532.34 1237.02 1537.76 Q1237.02 1543.34 1233.55 1546.44 Q1230.07 1549.52 1223.75 1549.52 Q1221.58 1549.52 1219.31 1549.15 Q1217.06 1548.78 1214.66 1548.04 L1214.66 1543.34 Q1216.74 1544.47 1218.96 1545.03 Q1221.18 1545.58 1223.66 1545.58 Q1227.67 1545.58 1230 1543.48 Q1232.34 1541.37 1232.34 1537.76 Q1232.34 1534.15 1230 1532.04 Q1227.67 1529.94 1223.66 1529.94 Q1221.79 1529.94 1219.91 1530.35 Q1218.06 1530.77 1216.12 1531.65 L1216.12 1514.29 Z" fill="#000000" fill-rule="nonzero" fill-opacity="1" /><path clip-path="url(#clip420)" d="M1246.23 1542.97 L1251.12 1542.97 L1251.12 1548.85 L1246.23 1548.85 L1246.23 1542.97 Z" fill="#000000" fill-rule="nonzero" fill-opacity="1" /><path clip-path="url(#clip420)" d="M1271.3 1517.37 Q1267.69 1517.37 1265.86 1520.93 Q1264.06 1524.47 1264.06 1531.6 Q1264.06 1538.71 1265.86 1542.27 Q1267.69 1545.82 1271.3 1545.82 Q1274.93 1545.82 1276.74 1542.27 Q1278.57 1538.71 1278.57 1531.6 Q1278.57 1524.47 1276.74 1520.93 Q1274.93 1517.37 1271.3 1517.37 M1271.3 1513.66 Q1277.11 1513.66 1280.17 1518.27 Q1283.24 1522.85 1283.24 1531.6 Q1283.24 1540.33 1280.17 1544.94 Q1277.11 1549.52 1271.3 1549.52 Q1265.49 1549.52 1262.41 1544.94 Q1259.36 1540.33 1259.36 1531.6 Q1259.36 1522.85 1262.41 1518.27 Q1265.49 1513.66 1271.3 1513.66 Z" fill="#000000" fill-rule="nonzero" fill-opacity="1" /><path clip-path="url(#clip420)" d="M1712.71 1514.29 L1734.93 1514.29 L1734.93 1516.28 L1722.39 1548.85 L1717.5 1548.85 L1729.31 1518.22 L1712.71 1518.22 L1712.71 1514.29 Z" fill="#000000" fill-rule="nonzero" fill-opacity="1" /><path clip-path="url(#clip420)" d="M1744.05 1542.97 L1748.94 1542.97 L1748.94 1548.85 L1744.05 1548.85 L1744.05 1542.97 Z" fill="#000000" fill-rule="nonzero" fill-opacity="1" /><path clip-path="url(#clip420)" d="M1759.17 1514.29 L1777.53 1514.29 L1777.53 1518.22 L1763.45 1518.22 L1763.45 1526.7 Q1764.47 1526.35 1765.49 1526.19 Q1766.51 1526 1767.53 1526 Q1773.31 1526 1776.69 1529.17 Q1780.07 1532.34 1780.07 1537.76 Q1780.07 1543.34 1776.6 1546.44 Q1773.13 1549.52 1766.81 1549.52 Q1764.63 1549.52 1762.36 1549.15 Q1760.12 1548.78 1757.71 1548.04 L1757.71 1543.34 Q1759.8 1544.47 1762.02 1545.03 Q1764.24 1545.58 1766.72 1545.58 Q1770.72 1545.58 1773.06 1543.48 Q1775.4 1541.37 1775.4 1537.76 Q1775.4 1534.15 1773.06 1532.04 Q1770.72 1529.94 1766.72 1529.94 Q1764.84 1529.94 1762.97 1530.35 Q1761.11 1530.77 1759.17 1531.65 L1759.17 1514.29 Z" fill="#000000" fill-rule="nonzero" fill-opacity="1" /><path clip-path="url(#clip420)" d="M2195.91 1544.91 L2203.55 1544.91 L2203.55 1518.55 L2195.24 1520.21 L2195.24 1515.95 L2203.5 1514.29 L2208.17 1514.29 L2208.17 1544.91 L2215.81 1544.91 L2215.81 1548.85 L2195.91 1548.85 L2195.91 1544.91 Z" fill="#000000" fill-rule="nonzero" fill-opacity="1" /><path clip-path="url(#clip420)" d="M2235.26 1517.37 Q2231.65 1517.37 2229.82 1520.93 Q2228.01 1524.47 2228.01 1531.6 Q2228.01 1538.71 2229.82 1542.27 Q2231.65 1545.82 2235.26 1545.82 Q2238.89 1545.82 2240.7 1542.27 Q2242.53 1538.71 2242.53 1531.6 Q2242.53 1524.47 2240.7 1520.93 Q2238.89 1517.37 2235.26 1517.37 M2235.26 1513.66 Q2241.07 1513.66 2244.12 1518.27 Q2247.2 1522.85 2247.2 1531.6 Q2247.2 1540.33 2244.12 1544.94 Q2241.07 1549.52 2235.26 1549.52 Q2229.45 1549.52 2226.37 1544.94 Q2223.31 1540.33 2223.31 1531.6 Q2223.31 1522.85 2226.37 1518.27 Q2229.45 1513.66 2235.26 1513.66 Z" fill="#000000" fill-rule="nonzero" fill-opacity="1" /><path clip-path="url(#clip420)" d="M2255.42 1542.97 L2260.3 1542.97 L2260.3 1548.85 L2255.42 1548.85 L2255.42 1542.97 Z" fill="#000000" fill-rule="nonzero" fill-opacity="1" /><path clip-path="url(#clip420)" d="M2280.49 1517.37 Q2276.88 1517.37 2275.05 1520.93 Q2273.24 1524.47 2273.24 1531.6 Q2273.24 1538.71 2275.05 1542.27 Q2276.88 1545.82 2280.49 1545.82 Q2284.12 1545.82 2285.93 1542.27 Q2287.76 1538.71 2287.76 1531.6 Q2287.76 1524.47 2285.93 1520.93 Q2284.12 1517.37 2280.49 1517.37 M2280.49 1513.66 Q2286.3 1513.66 2289.35 1518.27 Q2292.43 1522.85 2292.43 1531.6 Q2292.43 1540.33 2289.35 1544.94 Q2286.3 1549.52 2280.49 1549.52 Q2274.68 1549.52 2271.6 1544.94 Q2268.54 1540.33 2268.54 1531.6 Q2268.54 1522.85 2271.6 1518.27 Q2274.68 1513.66 2280.49 1513.66 Z" fill="#000000" fill-rule="nonzero" fill-opacity="1" /><polyline clip-path="url(#clip420)" style="stroke:#000000; stroke-linecap:round; stroke-linejoin:round; stroke-width:4; stroke-opacity:1; fill:none" points="192.941,1486.45 192.941,47.2441 "/>
<polyline clip-path="url(#clip420)" style="stroke:#000000; stroke-linecap:round; stroke-linejoin:round; stroke-width:4; stroke-opacity:1; fill:none" points="192.941,1297.64 211.838,1297.64 "/>
<polyline clip-path="url(#clip420)" style="stroke:#000000; stroke-linecap:round; stroke-linejoin:round; stroke-width:4; stroke-opacity:1; fill:none" points="192.941,1022.39 211.838,1022.39 "/>
<polyline clip-path="url(#clip420)" style="stroke:#000000; stroke-linecap:round; stroke-linejoin:round; stroke-width:4; stroke-opacity:1; fill:none" points="192.941,747.139 211.838,747.139 "/>
<polyline clip-path="url(#clip420)" style="stroke:#000000; stroke-linecap:round; stroke-linejoin:round; stroke-width:4; stroke-opacity:1; fill:none" points="192.941,471.891 211.838,471.891 "/>
<polyline clip-path="url(#clip420)" style="stroke:#000000; stroke-linecap:round; stroke-linejoin:round; stroke-width:4; stroke-opacity:1; fill:none" points="192.941,196.643 211.838,196.643 "/>
<path clip-path="url(#clip420)" d="M50.9921 1298.09 L80.6679 1298.09 L80.6679 1302.02 L50.9921 1302.02 L50.9921 1298.09 Z" fill="#000000" fill-rule="nonzero" fill-opacity="1" /><path clip-path="url(#clip420)" d="M94.7882 1310.98 L111.108 1310.98 L111.108 1314.92 L89.1632 1314.92 L89.1632 1310.98 Q91.8252 1308.23 96.4085 1303.6 Q101.015 1298.94 102.196 1297.6 Q104.441 1295.08 105.321 1293.34 Q106.223 1291.58 106.223 1289.89 Q106.223 1287.14 104.279 1285.4 Q102.358 1283.67 99.2558 1283.67 Q97.0567 1283.67 94.603 1284.43 Q92.1725 1285.19 89.3947 1286.74 L89.3947 1282.02 Q92.2188 1280.89 94.6724 1280.31 Q97.1261 1279.73 99.1632 1279.73 Q104.534 1279.73 107.728 1282.42 Q110.922 1285.1 110.922 1289.59 Q110.922 1291.72 110.112 1293.64 Q109.325 1295.54 107.219 1298.13 Q106.64 1298.8 103.538 1302.02 Q100.436 1305.22 94.7882 1310.98 Z" fill="#000000" fill-rule="nonzero" fill-opacity="1" /><path clip-path="url(#clip420)" d="M120.922 1309.04 L125.807 1309.04 L125.807 1314.92 L120.922 1314.92 L120.922 1309.04 Z" fill="#000000" fill-rule="nonzero" fill-opacity="1" /><path clip-path="url(#clip420)" d="M136.038 1280.36 L154.394 1280.36 L154.394 1284.29 L140.32 1284.29 L140.32 1292.76 Q141.339 1292.42 142.357 1292.25 Q143.376 1292.07 144.394 1292.07 Q150.181 1292.07 153.561 1295.24 Q156.941 1298.41 156.941 1303.83 Q156.941 1309.41 153.468 1312.51 Q149.996 1315.59 143.677 1315.59 Q141.501 1315.59 139.232 1315.22 Q136.987 1314.85 134.58 1314.1 L134.58 1309.41 Q136.663 1310.54 138.885 1311.1 Q141.107 1311.65 143.584 1311.65 Q147.589 1311.65 149.927 1309.54 Q152.265 1307.44 152.265 1303.83 Q152.265 1300.22 149.927 1298.11 Q147.589 1296 143.584 1296 Q141.709 1296 139.834 1296.42 Q137.982 1296.84 136.038 1297.72 L136.038 1280.36 Z" fill="#000000" fill-rule="nonzero" fill-opacity="1" /><path clip-path="url(#clip420)" d="M99.765 1008.19 Q96.1539 1008.19 94.3252 1011.75 Q92.5197 1015.29 92.5197 1022.42 Q92.5197 1029.53 94.3252 1033.09 Q96.1539 1036.63 99.765 1036.63 Q103.399 1036.63 105.205 1033.09 Q107.033 1029.53 107.033 1022.42 Q107.033 1015.29 105.205 1011.75 Q103.399 1008.19 99.765 1008.19 M99.765 1004.48 Q105.575 1004.48 108.631 1009.09 Q111.709 1013.67 111.709 1022.42 Q111.709 1031.15 108.631 1035.76 Q105.575 1040.34 99.765 1040.34 Q93.9549 1040.34 90.8762 1035.76 Q87.8206 1031.15 87.8206 1022.42 Q87.8206 1013.67 90.8762 1009.09 Q93.9549 1004.48 99.765 1004.48 Z" fill="#000000" fill-rule="nonzero" fill-opacity="1" /><path clip-path="url(#clip420)" d="M119.927 1033.79 L124.811 1033.79 L124.811 1039.67 L119.927 1039.67 L119.927 1033.79 Z" fill="#000000" fill-rule="nonzero" fill-opacity="1" /><path clip-path="url(#clip420)" d="M144.996 1008.19 Q141.385 1008.19 139.556 1011.75 Q137.751 1015.29 137.751 1022.42 Q137.751 1029.53 139.556 1033.09 Q141.385 1036.63 144.996 1036.63 Q148.63 1036.63 150.436 1033.09 Q152.265 1029.53 152.265 1022.42 Q152.265 1015.29 150.436 1011.75 Q148.63 1008.19 144.996 1008.19 M144.996 1004.48 Q150.806 1004.48 153.862 1009.09 Q156.941 1013.67 156.941 1022.42 Q156.941 1031.15 153.862 1035.76 Q150.806 1040.34 144.996 1040.34 Q139.186 1040.34 136.107 1035.76 Q133.052 1031.15 133.052 1022.42 Q133.052 1013.67 136.107 1009.09 Q139.186 1004.48 144.996 1004.48 Z" fill="#000000" fill-rule="nonzero" fill-opacity="1" /><path clip-path="url(#clip420)" d="M94.7882 760.484 L111.108 760.484 L111.108 764.419 L89.1632 764.419 L89.1632 760.484 Q91.8252 757.729 96.4085 753.1 Q101.015 748.447 102.196 747.104 Q104.441 744.581 105.321 742.845 Q106.223 741.086 106.223 739.396 Q106.223 736.641 104.279 734.905 Q102.358 733.169 99.2558 733.169 Q97.0567 733.169 94.603 733.933 Q92.1725 734.697 89.3947 736.248 L89.3947 731.526 Q92.2188 730.392 94.6724 729.813 Q97.1261 729.234 99.1632 729.234 Q104.534 729.234 107.728 731.919 Q110.922 734.604 110.922 739.095 Q110.922 741.225 110.112 743.146 Q109.325 745.044 107.219 747.637 Q106.64 748.308 103.538 751.526 Q100.436 754.72 94.7882 760.484 Z" fill="#000000" fill-rule="nonzero" fill-opacity="1" /><path clip-path="url(#clip420)" d="M120.922 758.54 L125.807 758.54 L125.807 764.419 L120.922 764.419 L120.922 758.54 Z" fill="#000000" fill-rule="nonzero" fill-opacity="1" /><path clip-path="url(#clip420)" d="M136.038 729.859 L154.394 729.859 L154.394 733.794 L140.32 733.794 L140.32 742.266 Q141.339 741.919 142.357 741.757 Q143.376 741.572 144.394 741.572 Q150.181 741.572 153.561 744.743 Q156.941 747.915 156.941 753.331 Q156.941 758.91 153.468 762.012 Q149.996 765.09 143.677 765.09 Q141.501 765.09 139.232 764.72 Q136.987 764.35 134.58 763.609 L134.58 758.91 Q136.663 760.044 138.885 760.6 Q141.107 761.155 143.584 761.155 Q147.589 761.155 149.927 759.049 Q152.265 756.942 152.265 753.331 Q152.265 749.72 149.927 747.614 Q147.589 745.507 143.584 745.507 Q141.709 745.507 139.834 745.924 Q137.982 746.34 136.038 747.22 L136.038 729.859 Z" fill="#000000" fill-rule="nonzero" fill-opacity="1" /><path clip-path="url(#clip420)" d="M89.8114 454.611 L108.168 454.611 L108.168 458.546 L94.0937 458.546 L94.0937 467.018 Q95.1123 466.671 96.1308 466.509 Q97.1493 466.324 98.1678 466.324 Q103.955 466.324 107.334 469.495 Q110.714 472.667 110.714 478.083 Q110.714 483.662 107.242 486.764 Q103.77 489.842 97.4502 489.842 Q95.2743 489.842 93.0058 489.472 Q90.7604 489.102 88.353 488.361 L88.353 483.662 Q90.4364 484.796 92.6586 485.352 Q94.8808 485.907 97.3576 485.907 Q101.362 485.907 103.7 483.801 Q106.038 481.694 106.038 478.083 Q106.038 474.472 103.7 472.366 Q101.362 470.259 97.3576 470.259 Q95.4826 470.259 93.6076 470.676 Q91.7558 471.092 89.8114 471.972 L89.8114 454.611 Z" fill="#000000" fill-rule="nonzero" fill-opacity="1" /><path clip-path="url(#clip420)" d="M119.927 483.291 L124.811 483.291 L124.811 489.171 L119.927 489.171 L119.927 483.291 Z" fill="#000000" fill-rule="nonzero" fill-opacity="1" /><path clip-path="url(#clip420)" d="M144.996 457.69 Q141.385 457.69 139.556 461.255 Q137.751 464.796 137.751 471.926 Q137.751 479.032 139.556 482.597 Q141.385 486.139 144.996 486.139 Q148.63 486.139 150.436 482.597 Q152.265 479.032 152.265 471.926 Q152.265 464.796 150.436 461.255 Q148.63 457.69 144.996 457.69 M144.996 453.986 Q150.806 453.986 153.862 458.593 Q156.941 463.176 156.941 471.926 Q156.941 480.653 153.862 485.259 Q150.806 489.842 144.996 489.842 Q139.186 489.842 136.107 485.259 Q133.052 480.653 133.052 471.926 Q133.052 463.176 136.107 458.593 Q139.186 453.986 144.996 453.986 Z" fill="#000000" fill-rule="nonzero" fill-opacity="1" /><path clip-path="url(#clip420)" d="M89.5799 179.363 L111.802 179.363 L111.802 181.354 L99.2558 213.923 L94.3715 213.923 L106.177 183.298 L89.5799 183.298 L89.5799 179.363 Z" fill="#000000" fill-rule="nonzero" fill-opacity="1" /><path clip-path="url(#clip420)" d="M120.922 208.043 L125.807 208.043 L125.807 213.923 L120.922 213.923 L120.922 208.043 Z" fill="#000000" fill-rule="nonzero" fill-opacity="1" /><path clip-path="url(#clip420)" d="M136.038 179.363 L154.394 179.363 L154.394 183.298 L140.32 183.298 L140.32 191.77 Q141.339 191.423 142.357 191.261 Q143.376 191.076 144.394 191.076 Q150.181 191.076 153.561 194.247 Q156.941 197.419 156.941 202.835 Q156.941 208.414 153.468 211.516 Q149.996 214.594 143.677 214.594 Q141.501 214.594 139.232 214.224 Q136.987 213.854 134.58 213.113 L134.58 208.414 Q136.663 209.548 138.885 210.104 Q141.107 210.659 143.584 210.659 Q147.589 210.659 149.927 208.553 Q152.265 206.446 152.265 202.835 Q152.265 199.224 149.927 197.118 Q147.589 195.011 143.584 195.011 Q141.709 195.011 139.834 195.428 Q137.982 195.844 136.038 196.724 L136.038 179.363 Z" fill="#000000" fill-rule="nonzero" fill-opacity="1" /><polyline clip-path="url(#clip422)" style="stroke:#009af9; stroke-linecap:round; stroke-linejoin:round; stroke-width:4; stroke-opacity:1; fill:none" points="254.067,912.288 283.576,879.753 312.144,848.495 339.828,818.448 366.682,789.543 392.761,761.715 418.121,734.897 442.816,709.023 466.881,684.05 490.344,659.943 513.236,636.666 535.589,614.181 557.431,592.451 578.796,571.44 599.709,551.114 620.192,531.448 640.261,512.422 659.937,494.013 679.237,476.199 698.182,458.956 716.788,442.263 735.074,426.101 753.05,410.455 770.729,395.312 788.123,380.655 805.246,366.472 822.109,352.747 838.724,339.466 855.102,326.618 871.25,314.194 887.178,302.183 902.894,290.576 918.407,279.363 933.724,268.534 948.855,258.081 963.806,247.996 978.583,238.272 993.192,228.902 1007.64,219.881 1021.93,211.2 1036.07,202.854 1050.07,194.836 1063.93,187.142 1077.66,179.766 1091.25,172.705 1104.72,165.954 1118.07,159.507 1131.3,153.36 1144.42,147.509 1157.43,141.952 1170.34,136.684 1183.14,131.702 1195.84,127.003 1208.45,122.584 1220.96,118.442 1233.39,114.574 1245.72,110.977 1257.97,107.65 1270.14,104.59 1282.23,101.795 1294.23,99.2621 1306.17,96.9896 1318.02,94.9758 1329.81,93.219 1341.52,91.7174 1353.16,90.4694 1364.73,89.4732 1376.24,88.7272 1387.68,88.23 1399.05,87.9801 1410.36,87.9763 1421.61,88.217 1432.79,88.7009 1443.91,89.4266 1454.97,90.3927 1465.96,91.5979 1476.9,93.0409 1487.77,94.7202 1498.58,96.6345 1509.32,98.7824 1520.01,101.162 1530.63,103.773 1541.2,106.613 1551.7,109.681 1562.13,112.975 1572.51,116.493 1582.82,120.234 1593.06,124.196 1603.24,128.378 1613.36,132.778 1623.41,137.393 1633.39,142.222 1643.31,147.264 1653.16,152.515 1662.94,157.975 1672.65,163.64 1682.3,169.51 1691.87,175.581 1701.38,181.852 1710.81,188.321 1720.17,194.985 1729.46,201.842 1738.68,208.889 1747.82,216.125 1756.89,223.547 1765.89,231.152 1774.81,238.939 1783.65,246.905 1792.42,255.047 1801.12,263.362 1809.74,271.85 1818.28,280.506 1826.75,289.328 1835.14,298.315 1843.45,307.462 1851.69,316.769 1859.84,326.232 1867.92,335.849 1875.93,345.617 1883.85,355.534 1891.69,365.598 1899.46,375.805 1907.15,386.153 1914.76,396.64 1922.3,407.264 1929.75,418.021 1937.13,428.91 1944.43,439.928 1951.65,451.072 1958.79,462.341 1965.86,473.731 1972.85,485.241 1979.76,496.868 1986.6,508.61 1993.36,520.464 2000.04,532.428 2006.65,544.501 2013.18,556.679 2019.64,568.961 2026.02,581.344 2032.32,593.827 2038.56,606.407 2044.72,619.082 2050.8,631.85 2056.82,644.709 2062.76,657.658 2068.63,670.693 2074.43,683.814 2080.15,697.018 2085.81,710.303 2091.4,723.668 2096.91,737.111 2102.36,750.63 2107.74,764.223 2113.06,777.888 2118.3,791.625 2123.48,805.43 2128.59,819.304 2133.64,833.243 2138.62,847.247 2143.54,861.314 2148.4,875.442 2153.19,889.63 2157.92,903.876 2162.58,918.18 2167.19,932.54 2171.73,946.953 2176.22,961.42 2180.64,975.938 2185.01,990.507 2189.32,1005.12 2193.57,1019.79 2197.76,1034.5 2201.9,1049.26 2205.98,1064.06 2210.01,1078.91 2213.98,1093.8 2217.9,1108.73 2221.76,1123.7 2225.57,1138.71 2229.33,1153.75 2233.04,1168.84 2236.7,1183.96 2240.3,1199.11 2243.86,1214.3 2247.37,1229.53 2250.83,1244.78 2254.24,1260.07 2257.6,1275.39 2260.92,1290.74 2264.19,1306.11 2267.41,1321.52 2270.59,1336.96 2273.73,1352.42 2276.82,1367.9 2279.86,1383.42 2282.87,1398.96 2285.83,1414.52 2288.75,1430.11 2291.63,1445.72 "/>
<path clip-path="url(#clip420)" d="M264.934 198.898 L762.859 198.898 L762.859 95.2176 L264.934 95.2176  Z" fill="#ffffff" fill-rule="evenodd" fill-opacity="1"/>
<polyline clip-path="url(#clip420)" style="stroke:#000000; stroke-linecap:round; stroke-linejoin:round; stroke-width:4; stroke-opacity:1; fill:none" points="264.934,198.898 762.859,198.898 762.859,95.2176 264.934,95.2176 264.934,198.898 "/>
<polyline clip-path="url(#clip420)" style="stroke:#009af9; stroke-linecap:round; stroke-linejoin:round; stroke-width:4; stroke-opacity:1; fill:none" points="288.932,147.058 432.92,147.058 "/>
<path clip-path="url(#clip420)" d="M461.2 160.449 L461.2 174.199 L456.918 174.199 L456.918 138.412 L461.2 138.412 L461.2 142.347 Q462.543 140.032 464.58 138.921 Q466.64 137.787 469.487 137.787 Q474.21 137.787 477.149 141.537 Q480.112 145.287 480.112 151.398 Q480.112 157.509 477.149 161.259 Q474.21 165.009 469.487 165.009 Q466.64 165.009 464.58 163.898 Q462.543 162.763 461.2 160.449 M475.691 151.398 Q475.691 146.699 473.747 144.037 Q471.825 141.352 468.446 141.352 Q465.066 141.352 463.122 144.037 Q461.2 146.699 461.2 151.398 Q461.2 156.097 463.122 158.782 Q465.066 161.444 468.446 161.444 Q471.825 161.444 473.747 158.782 Q475.691 156.097 475.691 151.398 Z" fill="#000000" fill-rule="nonzero" fill-opacity="1" /><path clip-path="url(#clip420)" d="M497.219 141.398 Q493.793 141.398 491.802 144.083 Q489.811 146.745 489.811 151.398 Q489.811 156.051 491.779 158.736 Q493.77 161.398 497.219 161.398 Q500.622 161.398 502.612 158.713 Q504.603 156.027 504.603 151.398 Q504.603 146.791 502.612 144.106 Q500.622 141.398 497.219 141.398 M497.219 137.787 Q502.774 137.787 505.946 141.398 Q509.117 145.009 509.117 151.398 Q509.117 157.764 505.946 161.398 Q502.774 165.009 497.219 165.009 Q491.64 165.009 488.469 161.398 Q485.321 157.764 485.321 151.398 Q485.321 145.009 488.469 141.398 Q491.64 137.787 497.219 137.787 Z" fill="#000000" fill-rule="nonzero" fill-opacity="1" /><path clip-path="url(#clip420)" d="M520.39 131.051 L520.39 138.412 L529.163 138.412 L529.163 141.722 L520.39 141.722 L520.39 155.796 Q520.39 158.967 521.246 159.87 Q522.126 160.773 524.788 160.773 L529.163 160.773 L529.163 164.338 L524.788 164.338 Q519.858 164.338 517.983 162.509 Q516.108 160.657 516.108 155.796 L516.108 141.722 L512.983 141.722 L512.983 138.412 L516.108 138.412 L516.108 131.051 L520.39 131.051 Z" fill="#000000" fill-rule="nonzero" fill-opacity="1" /><path clip-path="url(#clip420)" d="M549.834 138.412 L554.093 138.412 L554.093 164.338 L549.834 164.338 L549.834 138.412 M549.834 128.319 L554.093 128.319 L554.093 133.713 L549.834 133.713 L549.834 128.319 Z" fill="#000000" fill-rule="nonzero" fill-opacity="1" /><path clip-path="url(#clip420)" d="M561.154 138.412 L581.385 138.412 L581.385 142.301 L565.367 160.935 L581.385 160.935 L581.385 164.338 L560.575 164.338 L560.575 160.449 L576.593 141.815 L561.154 141.815 L561.154 138.412 Z" fill="#000000" fill-rule="nonzero" fill-opacity="1" /><path clip-path="url(#clip420)" d="M604.417 139.176 L604.417 143.203 Q602.612 142.277 600.667 141.815 Q598.723 141.352 596.64 141.352 Q593.468 141.352 591.871 142.324 Q590.297 143.296 590.297 145.24 Q590.297 146.722 591.431 147.578 Q592.565 148.412 595.991 149.176 L597.45 149.5 Q601.987 150.472 603.885 152.254 Q605.806 154.014 605.806 157.185 Q605.806 160.796 602.936 162.902 Q600.089 165.009 595.089 165.009 Q593.005 165.009 590.737 164.592 Q588.491 164.199 585.991 163.388 L585.991 158.99 Q588.353 160.217 590.644 160.842 Q592.936 161.444 595.181 161.444 Q598.19 161.444 599.811 160.426 Q601.431 159.384 601.431 157.509 Q601.431 155.773 600.251 154.847 Q599.093 153.921 595.135 153.064 L593.653 152.717 Q589.695 151.884 587.936 150.171 Q586.177 148.435 586.177 145.426 Q586.177 141.768 588.769 139.778 Q591.362 137.787 596.13 137.787 Q598.491 137.787 600.575 138.134 Q602.658 138.481 604.417 139.176 Z" fill="#000000" fill-rule="nonzero" fill-opacity="1" /><path clip-path="url(#clip420)" d="M616.801 131.051 L616.801 138.412 L625.575 138.412 L625.575 141.722 L616.801 141.722 L616.801 155.796 Q616.801 158.967 617.658 159.87 Q618.538 160.773 621.2 160.773 L625.575 160.773 L625.575 164.338 L621.2 164.338 Q616.269 164.338 614.394 162.509 Q612.519 160.657 612.519 155.796 L612.519 141.722 L609.394 141.722 L609.394 138.412 L612.519 138.412 L612.519 131.051 L616.801 131.051 Z" fill="#000000" fill-rule="nonzero" fill-opacity="1" /><path clip-path="url(#clip420)" d="M646.199 142.393 Q645.482 141.977 644.625 141.791 Q643.792 141.583 642.774 141.583 Q639.162 141.583 637.218 143.944 Q635.297 146.282 635.297 150.68 L635.297 164.338 L631.014 164.338 L631.014 138.412 L635.297 138.412 L635.297 142.44 Q636.639 140.078 638.792 138.944 Q640.945 137.787 644.024 137.787 Q644.463 137.787 644.996 137.856 Q645.528 137.903 646.176 138.018 L646.199 142.393 Z" fill="#000000" fill-rule="nonzero" fill-opacity="1" /><path clip-path="url(#clip420)" d="M671.801 150.31 L671.801 152.393 L652.218 152.393 Q652.496 156.791 654.857 159.106 Q657.241 161.398 661.477 161.398 Q663.931 161.398 666.222 160.796 Q668.537 160.194 670.806 158.99 L670.806 163.018 Q668.514 163.99 666.107 164.5 Q663.699 165.009 661.223 165.009 Q655.019 165.009 651.385 161.398 Q647.774 157.787 647.774 151.629 Q647.774 145.264 651.199 141.537 Q654.648 137.787 660.482 137.787 Q665.713 137.787 668.746 141.166 Q671.801 144.523 671.801 150.31 M667.542 149.06 Q667.496 145.565 665.574 143.481 Q663.676 141.398 660.528 141.398 Q656.963 141.398 654.811 143.412 Q652.681 145.426 652.357 149.083 L667.542 149.06 Z" fill="#000000" fill-rule="nonzero" fill-opacity="1" /><path clip-path="url(#clip420)" d="M678.792 128.319 L683.051 128.319 L683.051 164.338 L678.792 164.338 L678.792 128.319 Z" fill="#000000" fill-rule="nonzero" fill-opacity="1" /><path clip-path="url(#clip420)" d="M691.801 128.319 L696.083 128.319 L696.083 149.592 L708.792 138.412 L714.231 138.412 L700.482 150.541 L714.81 164.338 L709.255 164.338 L696.083 151.676 L696.083 164.338 L691.801 164.338 L691.801 128.319 Z" fill="#000000" fill-rule="nonzero" fill-opacity="1" /><path clip-path="url(#clip420)" d="M730.366 151.305 Q725.204 151.305 723.213 152.486 Q721.222 153.666 721.222 156.514 Q721.222 158.782 722.704 160.125 Q724.208 161.444 726.778 161.444 Q730.319 161.444 732.449 158.944 Q734.602 156.421 734.602 152.254 L734.602 151.305 L730.366 151.305 M738.861 149.546 L738.861 164.338 L734.602 164.338 L734.602 160.402 Q733.143 162.763 730.968 163.898 Q728.792 165.009 725.643 165.009 Q721.662 165.009 719.301 162.787 Q716.963 160.541 716.963 156.791 Q716.963 152.416 719.88 150.194 Q722.819 147.972 728.63 147.972 L734.602 147.972 L734.602 147.555 Q734.602 144.615 732.657 143.018 Q730.736 141.398 727.241 141.398 Q725.018 141.398 722.912 141.93 Q720.806 142.463 718.861 143.527 L718.861 139.592 Q721.199 138.69 723.398 138.25 Q725.597 137.787 727.68 137.787 Q733.305 137.787 736.083 140.703 Q738.861 143.62 738.861 149.546 Z" fill="#000000" fill-rule="nonzero" fill-opacity="1" /></svg>
